<svg width="608" height="195" viewBox="0 0 608 195" fill="none" xmlns="http://www.w3.org/2000/svg">
<g filter="url(#filter0_d_8003_4091)">
<g clip-path="url(#clip0_8003_4091)">
<rect width="600" height="46" transform="translate(4 2)" fill="white"/>
<path d="M26.12 30H24.3729L28.2987 19.0909H30.2003L34.1261 30H32.3789L29.2947 21.0724H29.2095L26.12 30ZM26.413 25.728H32.0806V27.1129H26.413V25.728ZM38.8881 30.1651C38.0962 30.1651 37.4144 29.9858 36.8427 29.6271C36.2745 29.2649 35.8377 28.766 35.5323 28.1303C35.2269 27.4947 35.0742 26.7667 35.0742 25.9464C35.0742 25.1154 35.2305 24.3821 35.543 23.7464C35.8555 23.1072 36.2958 22.6083 36.864 22.2496C37.4322 21.891 38.1016 21.7116 38.8722 21.7116C39.4936 21.7116 40.0476 21.8271 40.5341 22.0579C41.0206 22.2852 41.413 22.6048 41.7113 23.0167C42.0131 23.4286 42.1925 23.9098 42.2493 24.4602H40.6992C40.614 24.0767 40.4187 23.7464 40.1133 23.4695C39.8114 23.1925 39.4066 23.054 38.8988 23.054C38.4549 23.054 38.0661 23.1712 37.7322 23.4055C37.402 23.6364 37.1445 23.9666 36.9599 24.3963C36.7752 24.8224 36.6829 25.3267 36.6829 25.9091C36.6829 26.5057 36.7734 27.0206 36.9545 27.4538C37.1357 27.8871 37.3913 28.2227 37.7216 28.4606C38.0554 28.6985 38.4478 28.8175 38.8988 28.8175C39.2006 28.8175 39.4741 28.7624 39.7191 28.6523C39.9677 28.5387 40.1754 28.3771 40.3423 28.1676C40.5128 27.9581 40.6317 27.706 40.6992 27.4112H42.2493C42.1925 27.9403 42.0202 28.4126 41.7326 28.8281C41.445 29.2436 41.0597 29.5703 40.5767 29.8082C40.0973 30.0462 39.5344 30.1651 38.8881 30.1651ZM47.3989 30.1651C46.607 30.1651 45.9252 29.9858 45.3534 29.6271C44.7852 29.2649 44.3485 28.766 44.0431 28.1303C43.7377 27.4947 43.585 26.7667 43.585 25.9464C43.585 25.1154 43.7412 24.3821 44.0537 23.7464C44.3662 23.1072 44.8066 22.6083 45.3747 22.2496C45.9429 21.891 46.6123 21.7116 47.3829 21.7116C48.0044 21.7116 48.5583 21.8271 49.0448 22.0579C49.5313 22.2852 49.9237 22.6048 50.222 23.0167C50.5239 23.4286 50.7032 23.9098 50.76 24.4602H49.21C49.1247 24.0767 48.9294 23.7464 48.624 23.4695C48.3222 23.1925 47.9173 23.054 47.4095 23.054C46.9656 23.054 46.5768 23.1712 46.243 23.4055C45.9127 23.6364 45.6553 23.9666 45.4706 24.3963C45.286 24.8224 45.1936 25.3267 45.1936 25.9091C45.1936 26.5057 45.2842 27.0206 45.4653 27.4538C45.6464 27.8871 45.9021 28.2227 46.2323 28.4606C46.5661 28.6985 46.9585 28.8175 47.4095 28.8175C47.7114 28.8175 47.9848 28.7624 48.2298 28.6523C48.4784 28.5387 48.6862 28.3771 48.8531 28.1676C49.0235 27.9581 49.1425 27.706 49.21 27.4112H50.76C50.7032 27.9403 50.531 28.4126 50.2433 28.8281C49.9557 29.2436 49.5704 29.5703 49.0874 29.8082C48.608 30.0462 48.0452 30.1651 47.3989 30.1651ZM55.9096 30.1651C55.1426 30.1651 54.4732 29.9893 53.9015 29.6378C53.3297 29.2862 52.8858 28.7944 52.5698 28.1623C52.2537 27.5302 52.0957 26.7915 52.0957 25.9464C52.0957 25.0977 52.2537 24.3555 52.5698 23.7198C52.8858 23.0842 53.3297 22.5906 53.9015 22.239C54.4732 21.8874 55.1426 21.7116 55.9096 21.7116C56.6767 21.7116 57.3461 21.8874 57.9178 22.239C58.4895 22.5906 58.9334 23.0842 59.2495 23.7198C59.5655 24.3555 59.7235 25.0977 59.7235 25.9464C59.7235 26.7915 59.5655 27.5302 59.2495 28.1623C58.9334 28.7944 58.4895 29.2862 57.9178 29.6378C57.3461 29.9893 56.6767 30.1651 55.9096 30.1651ZM55.915 28.8281C56.4121 28.8281 56.824 28.6967 57.1507 28.4339C57.4775 28.1712 57.7189 27.8214 57.8752 27.3846C58.035 26.9478 58.1149 26.4666 58.1149 25.9411C58.1149 25.419 58.035 24.9396 57.8752 24.5028C57.7189 24.0625 57.4775 23.7092 57.1507 23.4428C56.824 23.1765 56.4121 23.0433 55.915 23.0433C55.4142 23.0433 54.9988 23.1765 54.6685 23.4428C54.3418 23.7092 54.0985 24.0625 53.9387 24.5028C53.7825 24.9396 53.7044 25.419 53.7044 25.9411C53.7044 26.4666 53.7825 26.9478 53.9387 27.3846C54.0985 27.8214 54.3418 28.1712 54.6685 28.4339C54.9988 28.6967 55.4142 28.8281 55.915 28.8281ZM61.5013 30V21.8182H63.0407V23.1179H63.126C63.2751 22.6776 63.5379 22.3313 63.9143 22.0792C64.2943 21.8235 64.724 21.6957 65.2034 21.6957C65.3028 21.6957 65.42 21.6992 65.555 21.7063C65.6934 21.7134 65.8018 21.7223 65.8799 21.733V23.2564C65.816 23.2386 65.7023 23.2191 65.539 23.1978C65.3756 23.1729 65.2123 23.1605 65.0489 23.1605C64.6725 23.1605 64.3369 23.2404 64.0422 23.4002C63.751 23.5565 63.5202 23.7749 63.3497 24.0554C63.1792 24.3324 63.094 24.6484 63.094 25.0036V30H61.5013ZM70.0281 30.1598C69.3675 30.1598 68.7781 29.9911 68.2596 29.6538C67.7447 29.3129 67.3398 28.8281 67.0451 28.1996C66.7539 27.5675 66.6083 26.8093 66.6083 25.9251C66.6083 25.0408 66.7557 24.2844 67.0504 23.6559C67.3487 23.0273 67.7571 22.5462 68.2756 22.2124C68.794 21.8786 69.3817 21.7116 70.0387 21.7116C70.5465 21.7116 70.9549 21.7969 71.2638 21.9673C71.5763 22.1342 71.8178 22.3295 71.9883 22.5533C72.1623 22.777 72.2972 22.9741 72.3931 23.1445H72.489V19.0909H74.0817V30H72.5263V28.7269H72.3931C72.2972 28.9009 72.1587 29.0998 71.9776 29.3235C71.8001 29.5472 71.555 29.7425 71.2425 29.9094C70.93 30.0763 70.5252 30.1598 70.0281 30.1598ZM70.3796 28.8015C70.8377 28.8015 71.2248 28.6808 71.5408 28.4393C71.8604 28.1942 72.1019 27.8551 72.2653 27.4219C72.4322 26.9886 72.5156 26.4844 72.5156 25.9091C72.5156 25.3409 72.4339 24.8437 72.2706 24.4176C72.1072 23.9915 71.8675 23.6594 71.5515 23.4215C71.2354 23.1836 70.8448 23.0646 70.3796 23.0646C69.9002 23.0646 69.5007 23.1889 69.1811 23.4375C68.8615 23.6861 68.62 24.0252 68.4567 24.4549C68.2969 24.8846 68.217 25.3693 68.217 25.9091C68.217 26.456 68.2987 26.9478 68.462 27.3846C68.6254 27.8214 68.8668 28.1676 69.1864 28.4233C69.5096 28.6754 69.9073 28.8015 70.3796 28.8015ZM76.3548 30V21.8182H77.9475V30H76.3548ZM77.1592 20.5558C76.8822 20.5558 76.6443 20.4634 76.4454 20.2788C76.2501 20.0906 76.1524 19.8668 76.1524 19.6076C76.1524 19.3448 76.2501 19.1211 76.4454 18.9364C76.6443 18.7482 76.8822 18.6541 77.1592 18.6541C77.4362 18.6541 77.6723 18.7482 77.8676 18.9364C78.0665 19.1211 78.1659 19.3448 78.1659 19.6076C78.1659 19.8668 78.0665 20.0906 77.8676 20.2788C77.6723 20.4634 77.4362 20.5558 77.1592 20.5558ZM83.5366 30.1651C82.7695 30.1651 82.1001 29.9893 81.5284 29.6378C80.9567 29.2862 80.5128 28.7944 80.1967 28.1623C79.8807 27.5302 79.7227 26.7915 79.7227 25.9464C79.7227 25.0977 79.8807 24.3555 80.1967 23.7198C80.5128 23.0842 80.9567 22.5906 81.5284 22.239C82.1001 21.8874 82.7695 21.7116 83.5366 21.7116C84.3036 21.7116 84.973 21.8874 85.5447 22.239C86.1165 22.5906 86.5604 23.0842 86.8764 23.7198C87.1925 24.3555 87.3505 25.0977 87.3505 25.9464C87.3505 26.7915 87.1925 27.5302 86.8764 28.1623C86.5604 28.7944 86.1165 29.2862 85.5447 29.6378C84.973 29.9893 84.3036 30.1651 83.5366 30.1651ZM83.5419 28.8281C84.0391 28.8281 84.451 28.6967 84.7777 28.4339C85.1044 28.1712 85.3459 27.8214 85.5021 27.3846C85.6619 26.9478 85.7418 26.4666 85.7418 25.9411C85.7418 25.419 85.6619 24.9396 85.5021 24.5028C85.3459 24.0625 85.1044 23.7092 84.7777 23.4428C84.451 23.1765 84.0391 23.0433 83.5419 23.0433C83.0412 23.0433 82.6257 23.1765 82.2955 23.4428C81.9688 23.7092 81.7255 24.0625 81.5657 24.5028C81.4094 24.9396 81.3313 25.419 81.3313 25.9411C81.3313 26.4666 81.4094 26.9478 81.5657 27.3846C81.7255 27.8214 81.9688 28.1712 82.2955 28.4339C82.6257 28.6967 83.0412 28.8281 83.5419 28.8281ZM90.721 25.142V30H89.1283V21.8182H90.657V23.1499H90.7583C90.9465 22.7166 91.2412 22.3686 91.6425 22.1058C92.0473 21.843 92.5569 21.7116 93.1713 21.7116C93.7288 21.7116 94.2171 21.8288 94.6361 22.0632C95.0551 22.294 95.3801 22.6385 95.6109 23.0966C95.8417 23.5547 95.9571 24.1211 95.9571 24.7958V30H94.3644V24.9876C94.3644 24.3945 94.21 23.9311 93.901 23.5973C93.5921 23.2599 93.1677 23.0913 92.6279 23.0913C92.2586 23.0913 91.9301 23.1712 91.6425 23.331C91.3584 23.4908 91.1329 23.7251 90.966 24.0341C90.8026 24.3395 90.721 24.7088 90.721 25.142ZM106.18 19.0909V30H104.529V20.7422H104.465L101.855 22.4467V20.87L104.577 19.0909H106.18Z" fill="#2E263D" fill-opacity="0.9"/>
<path d="M574 25.9766L578.125 21.8516L579.303 23.0299L574 28.3332L568.697 23.0299L569.875 21.8516L574 25.9766Z" fill="#2E263D" fill-opacity="0.9"/>
<rect width="600" height="1" transform="translate(4 48)" fill="white"/>
<rect x="4.25" y="48.25" width="599.5" height="0.5" stroke="#2E263D" stroke-opacity="0.12" stroke-width="0.5"/>
<rect width="600" height="46" transform="translate(4 49)" fill="white"/>
<path d="M26.12 77H24.3729L28.2987 66.0909H30.2003L34.1261 77H32.3789L29.2947 68.0724H29.2095L26.12 77ZM26.413 72.728H32.0806V74.1129H26.413V72.728ZM38.8881 77.1651C38.0962 77.1651 37.4144 76.9858 36.8427 76.6271C36.2745 76.2649 35.8377 75.766 35.5323 75.1303C35.2269 74.4947 35.0742 73.7667 35.0742 72.9464C35.0742 72.1154 35.2305 71.3821 35.543 70.7464C35.8555 70.1072 36.2958 69.6083 36.864 69.2496C37.4322 68.891 38.1016 68.7116 38.8722 68.7116C39.4936 68.7116 40.0476 68.8271 40.5341 69.0579C41.0206 69.2852 41.413 69.6048 41.7113 70.0167C42.0131 70.4286 42.1925 70.9098 42.2493 71.4602H40.6992C40.614 71.0767 40.4187 70.7464 40.1133 70.4695C39.8114 70.1925 39.4066 70.054 38.8988 70.054C38.4549 70.054 38.0661 70.1712 37.7322 70.4055C37.402 70.6364 37.1445 70.9666 36.9599 71.3963C36.7752 71.8224 36.6829 72.3267 36.6829 72.9091C36.6829 73.5057 36.7734 74.0206 36.9545 74.4538C37.1357 74.8871 37.3913 75.2227 37.7216 75.4606C38.0554 75.6985 38.4478 75.8175 38.8988 75.8175C39.2006 75.8175 39.4741 75.7624 39.7191 75.6523C39.9677 75.5387 40.1754 75.3771 40.3423 75.1676C40.5128 74.9581 40.6317 74.706 40.6992 74.4112H42.2493C42.1925 74.9403 42.0202 75.4126 41.7326 75.8281C41.445 76.2436 41.0597 76.5703 40.5767 76.8082C40.0973 77.0462 39.5344 77.1651 38.8881 77.1651ZM47.3989 77.1651C46.607 77.1651 45.9252 76.9858 45.3534 76.6271C44.7852 76.2649 44.3485 75.766 44.0431 75.1303C43.7377 74.4947 43.585 73.7667 43.585 72.9464C43.585 72.1154 43.7412 71.3821 44.0537 70.7464C44.3662 70.1072 44.8066 69.6083 45.3747 69.2496C45.9429 68.891 46.6123 68.7116 47.3829 68.7116C48.0044 68.7116 48.5583 68.8271 49.0448 69.0579C49.5313 69.2852 49.9237 69.6048 50.222 70.0167C50.5239 70.4286 50.7032 70.9098 50.76 71.4602H49.21C49.1247 71.0767 48.9294 70.7464 48.624 70.4695C48.3222 70.1925 47.9173 70.054 47.4095 70.054C46.9656 70.054 46.5768 70.1712 46.243 70.4055C45.9127 70.6364 45.6553 70.9666 45.4706 71.3963C45.286 71.8224 45.1936 72.3267 45.1936 72.9091C45.1936 73.5057 45.2842 74.0206 45.4653 74.4538C45.6464 74.8871 45.9021 75.2227 46.2323 75.4606C46.5661 75.6985 46.9585 75.8175 47.4095 75.8175C47.7114 75.8175 47.9848 75.7624 48.2298 75.6523C48.4784 75.5387 48.6862 75.3771 48.8531 75.1676C49.0235 74.9581 49.1425 74.706 49.21 74.4112H50.76C50.7032 74.9403 50.531 75.4126 50.2433 75.8281C49.9557 76.2436 49.5704 76.5703 49.0874 76.8082C48.608 77.0462 48.0452 77.1651 47.3989 77.1651ZM55.9096 77.1651C55.1426 77.1651 54.4732 76.9893 53.9015 76.6378C53.3297 76.2862 52.8858 75.7944 52.5698 75.1623C52.2537 74.5302 52.0957 73.7915 52.0957 72.9464C52.0957 72.0977 52.2537 71.3555 52.5698 70.7198C52.8858 70.0842 53.3297 69.5906 53.9015 69.239C54.4732 68.8874 55.1426 68.7116 55.9096 68.7116C56.6767 68.7116 57.3461 68.8874 57.9178 69.239C58.4895 69.5906 58.9334 70.0842 59.2495 70.7198C59.5655 71.3555 59.7235 72.0977 59.7235 72.9464C59.7235 73.7915 59.5655 74.5302 59.2495 75.1623C58.9334 75.7944 58.4895 76.2862 57.9178 76.6378C57.3461 76.9893 56.6767 77.1651 55.9096 77.1651ZM55.915 75.8281C56.4121 75.8281 56.824 75.6967 57.1507 75.4339C57.4775 75.1712 57.7189 74.8214 57.8752 74.3846C58.035 73.9478 58.1149 73.4666 58.1149 72.9411C58.1149 72.419 58.035 71.9396 57.8752 71.5028C57.7189 71.0625 57.4775 70.7092 57.1507 70.4428C56.824 70.1765 56.4121 70.0433 55.915 70.0433C55.4142 70.0433 54.9988 70.1765 54.6685 70.4428C54.3418 70.7092 54.0985 71.0625 53.9387 71.5028C53.7825 71.9396 53.7044 72.419 53.7044 72.9411C53.7044 73.4666 53.7825 73.9478 53.9387 74.3846C54.0985 74.8214 54.3418 75.1712 54.6685 75.4339C54.9988 75.6967 55.4142 75.8281 55.915 75.8281ZM61.5013 77V68.8182H63.0407V70.1179H63.126C63.2751 69.6776 63.5379 69.3313 63.9143 69.0792C64.2943 68.8235 64.724 68.6957 65.2034 68.6957C65.3028 68.6957 65.42 68.6992 65.555 68.7063C65.6934 68.7134 65.8018 68.7223 65.8799 68.733V70.2564C65.816 70.2386 65.7023 70.2191 65.539 70.1978C65.3756 70.1729 65.2123 70.1605 65.0489 70.1605C64.6725 70.1605 64.3369 70.2404 64.0422 70.4002C63.751 70.5565 63.5202 70.7749 63.3497 71.0554C63.1792 71.3324 63.094 71.6484 63.094 72.0036V77H61.5013ZM70.0281 77.1598C69.3675 77.1598 68.7781 76.9911 68.2596 76.6538C67.7447 76.3129 67.3398 75.8281 67.0451 75.1996C66.7539 74.5675 66.6083 73.8093 66.6083 72.9251C66.6083 72.0408 66.7557 71.2844 67.0504 70.6559C67.3487 70.0273 67.7571 69.5462 68.2756 69.2124C68.794 68.8786 69.3817 68.7116 70.0387 68.7116C70.5465 68.7116 70.9549 68.7969 71.2638 68.9673C71.5763 69.1342 71.8178 69.3295 71.9883 69.5533C72.1623 69.777 72.2972 69.9741 72.3931 70.1445H72.489V66.0909H74.0817V77H72.5263V75.7269H72.3931C72.2972 75.9009 72.1587 76.0998 71.9776 76.3235C71.8001 76.5472 71.555 76.7425 71.2425 76.9094C70.93 77.0763 70.5252 77.1598 70.0281 77.1598ZM70.3796 75.8015C70.8377 75.8015 71.2248 75.6808 71.5408 75.4393C71.8604 75.1942 72.1019 74.8551 72.2653 74.4219C72.4322 73.9886 72.5156 73.4844 72.5156 72.9091C72.5156 72.3409 72.4339 71.8437 72.2706 71.4176C72.1072 70.9915 71.8675 70.6594 71.5515 70.4215C71.2354 70.1836 70.8448 70.0646 70.3796 70.0646C69.9002 70.0646 69.5007 70.1889 69.1811 70.4375C68.8615 70.6861 68.62 71.0252 68.4567 71.4549C68.2969 71.8846 68.217 72.3693 68.217 72.9091C68.217 73.456 68.2987 73.9478 68.462 74.3846C68.6254 74.8214 68.8668 75.1676 69.1864 75.4233C69.5096 75.6754 69.9073 75.8015 70.3796 75.8015ZM76.3548 77V68.8182H77.9475V77H76.3548ZM77.1592 67.5558C76.8822 67.5558 76.6443 67.4634 76.4454 67.2788C76.2501 67.0906 76.1524 66.8668 76.1524 66.6076C76.1524 66.3448 76.2501 66.1211 76.4454 65.9364C76.6443 65.7482 76.8822 65.6541 77.1592 65.6541C77.4362 65.6541 77.6723 65.7482 77.8676 65.9364C78.0665 66.1211 78.1659 66.3448 78.1659 66.6076C78.1659 66.8668 78.0665 67.0906 77.8676 67.2788C77.6723 67.4634 77.4362 67.5558 77.1592 67.5558ZM83.5366 77.1651C82.7695 77.1651 82.1001 76.9893 81.5284 76.6378C80.9567 76.2862 80.5128 75.7944 80.1967 75.1623C79.8807 74.5302 79.7227 73.7915 79.7227 72.9464C79.7227 72.0977 79.8807 71.3555 80.1967 70.7198C80.5128 70.0842 80.9567 69.5906 81.5284 69.239C82.1001 68.8874 82.7695 68.7116 83.5366 68.7116C84.3036 68.7116 84.973 68.8874 85.5447 69.239C86.1165 69.5906 86.5604 70.0842 86.8764 70.7198C87.1925 71.3555 87.3505 72.0977 87.3505 72.9464C87.3505 73.7915 87.1925 74.5302 86.8764 75.1623C86.5604 75.7944 86.1165 76.2862 85.5447 76.6378C84.973 76.9893 84.3036 77.1651 83.5366 77.1651ZM83.5419 75.8281C84.0391 75.8281 84.451 75.6967 84.7777 75.4339C85.1044 75.1712 85.3459 74.8214 85.5021 74.3846C85.6619 73.9478 85.7418 73.4666 85.7418 72.9411C85.7418 72.419 85.6619 71.9396 85.5021 71.5028C85.3459 71.0625 85.1044 70.7092 84.7777 70.4428C84.451 70.1765 84.0391 70.0433 83.5419 70.0433C83.0412 70.0433 82.6257 70.1765 82.2955 70.4428C81.9688 70.7092 81.7255 71.0625 81.5657 71.5028C81.4094 71.9396 81.3313 72.419 81.3313 72.9411C81.3313 73.4666 81.4094 73.9478 81.5657 74.3846C81.7255 74.8214 81.9688 75.1712 82.2955 75.4339C82.6257 75.6967 83.0412 75.8281 83.5419 75.8281ZM90.721 72.142V77H89.1283V68.8182H90.657V70.1499H90.7583C90.9465 69.7166 91.2412 69.3686 91.6425 69.1058C92.0473 68.843 92.5569 68.7116 93.1713 68.7116C93.7288 68.7116 94.2171 68.8288 94.6361 69.0632C95.0551 69.294 95.3801 69.6385 95.6109 70.0966C95.8417 70.5547 95.9571 71.1211 95.9571 71.7958V77H94.3644V71.9876C94.3644 71.3945 94.21 70.9311 93.901 70.5973C93.5921 70.2599 93.1677 70.0913 92.6279 70.0913C92.2586 70.0913 91.9301 70.1712 91.6425 70.331C91.3584 70.4908 91.1329 70.7251 90.966 71.0341C90.8026 71.3395 90.721 71.7088 90.721 72.142ZM102.042 77V75.8068L105.733 71.9822C106.127 71.5668 106.452 71.2028 106.708 70.8903C106.967 70.5742 107.161 70.2741 107.288 69.9901C107.416 69.706 107.48 69.4041 107.48 69.0845C107.48 68.7223 107.395 68.4098 107.224 68.147C107.054 67.8807 106.821 67.6765 106.527 67.5344C106.232 67.3888 105.9 67.3161 105.531 67.3161C105.14 67.3161 104.799 67.396 104.508 67.5558C104.217 67.7156 103.993 67.9411 103.837 68.2322C103.68 68.5234 103.602 68.8643 103.602 69.255H102.031C102.031 68.5909 102.184 68.0103 102.489 67.5131C102.794 67.016 103.213 66.6307 103.746 66.3572C104.279 66.0803 104.884 65.9418 105.562 65.9418C106.248 65.9418 106.852 66.0785 107.374 66.3519C107.899 66.6218 108.309 66.9911 108.604 67.4599C108.899 67.9251 109.046 68.4506 109.046 69.0366C109.046 69.4414 108.97 69.8374 108.817 70.2244C108.668 70.6115 108.407 71.043 108.034 71.5188C107.661 71.9911 107.143 72.5646 106.479 73.2393L104.311 75.5085V75.5884H109.222V77H102.042Z" fill="#2E263D" fill-opacity="0.9"/>
<path d="M574 72.9766L578.125 68.8516L579.303 70.0299L574 75.3332L568.697 70.0299L569.875 68.8516L574 72.9766Z" fill="#2E263D" fill-opacity="0.9"/>
<rect width="600" height="1" transform="translate(4 95)" fill="white"/>
<rect x="4.25" y="95.25" width="599.5" height="0.5" stroke="#2E263D" stroke-opacity="0.12" stroke-width="0.5"/>
<rect width="600" height="46" transform="translate(4 96)" fill="white"/>
<path d="M26.12 124H24.3729L28.2987 113.091H30.2003L34.1261 124H32.3789L29.2947 115.072H29.2095L26.12 124ZM26.413 119.728H32.0806V121.113H26.413V119.728ZM38.8881 124.165C38.0962 124.165 37.4144 123.986 36.8427 123.627C36.2745 123.265 35.8377 122.766 35.5323 122.13C35.2269 121.495 35.0742 120.767 35.0742 119.946C35.0742 119.115 35.2305 118.382 35.543 117.746C35.8555 117.107 36.2958 116.608 36.864 116.25C37.4322 115.891 38.1016 115.712 38.8722 115.712C39.4936 115.712 40.0476 115.827 40.5341 116.058C41.0206 116.285 41.413 116.605 41.7113 117.017C42.0131 117.429 42.1925 117.91 42.2493 118.46H40.6992C40.614 118.077 40.4187 117.746 40.1133 117.469C39.8114 117.192 39.4066 117.054 38.8988 117.054C38.4549 117.054 38.0661 117.171 37.7322 117.406C37.402 117.636 37.1445 117.967 36.9599 118.396C36.7752 118.822 36.6829 119.327 36.6829 119.909C36.6829 120.506 36.7734 121.021 36.9545 121.454C37.1357 121.887 37.3913 122.223 37.7216 122.461C38.0554 122.699 38.4478 122.817 38.8988 122.817C39.2006 122.817 39.4741 122.762 39.7191 122.652C39.9677 122.539 40.1754 122.377 40.3423 122.168C40.5128 121.958 40.6317 121.706 40.6992 121.411H42.2493C42.1925 121.94 42.0202 122.413 41.7326 122.828C41.445 123.244 41.0597 123.57 40.5767 123.808C40.0973 124.046 39.5344 124.165 38.8881 124.165ZM47.3989 124.165C46.607 124.165 45.9252 123.986 45.3534 123.627C44.7852 123.265 44.3485 122.766 44.0431 122.13C43.7377 121.495 43.585 120.767 43.585 119.946C43.585 119.115 43.7412 118.382 44.0537 117.746C44.3662 117.107 44.8066 116.608 45.3747 116.25C45.9429 115.891 46.6123 115.712 47.3829 115.712C48.0044 115.712 48.5583 115.827 49.0448 116.058C49.5313 116.285 49.9237 116.605 50.222 117.017C50.5239 117.429 50.7032 117.91 50.76 118.46H49.21C49.1247 118.077 48.9294 117.746 48.624 117.469C48.3222 117.192 47.9173 117.054 47.4095 117.054C46.9656 117.054 46.5768 117.171 46.243 117.406C45.9127 117.636 45.6553 117.967 45.4706 118.396C45.286 118.822 45.1936 119.327 45.1936 119.909C45.1936 120.506 45.2842 121.021 45.4653 121.454C45.6464 121.887 45.9021 122.223 46.2323 122.461C46.5661 122.699 46.9585 122.817 47.4095 122.817C47.7114 122.817 47.9848 122.762 48.2298 122.652C48.4784 122.539 48.6862 122.377 48.8531 122.168C49.0235 121.958 49.1425 121.706 49.21 121.411H50.76C50.7032 121.94 50.531 122.413 50.2433 122.828C49.9557 123.244 49.5704 123.57 49.0874 123.808C48.608 124.046 48.0452 124.165 47.3989 124.165ZM55.9096 124.165C55.1426 124.165 54.4732 123.989 53.9015 123.638C53.3297 123.286 52.8858 122.794 52.5698 122.162C52.2537 121.53 52.0957 120.792 52.0957 119.946C52.0957 119.098 52.2537 118.355 52.5698 117.72C52.8858 117.084 53.3297 116.591 53.9015 116.239C54.4732 115.887 55.1426 115.712 55.9096 115.712C56.6767 115.712 57.3461 115.887 57.9178 116.239C58.4895 116.591 58.9334 117.084 59.2495 117.72C59.5655 118.355 59.7235 119.098 59.7235 119.946C59.7235 120.792 59.5655 121.53 59.2495 122.162C58.9334 122.794 58.4895 123.286 57.9178 123.638C57.3461 123.989 56.6767 124.165 55.9096 124.165ZM55.915 122.828C56.4121 122.828 56.824 122.697 57.1507 122.434C57.4775 122.171 57.7189 121.821 57.8752 121.385C58.035 120.948 58.1149 120.467 58.1149 119.941C58.1149 119.419 58.035 118.94 57.8752 118.503C57.7189 118.062 57.4775 117.709 57.1507 117.443C56.824 117.176 56.4121 117.043 55.915 117.043C55.4142 117.043 54.9988 117.176 54.6685 117.443C54.3418 117.709 54.0985 118.062 53.9387 118.503C53.7825 118.94 53.7044 119.419 53.7044 119.941C53.7044 120.467 53.7825 120.948 53.9387 121.385C54.0985 121.821 54.3418 122.171 54.6685 122.434C54.9988 122.697 55.4142 122.828 55.915 122.828ZM61.5013 124V115.818H63.0407V117.118H63.126C63.2751 116.678 63.5379 116.331 63.9143 116.079C64.2943 115.824 64.724 115.696 65.2034 115.696C65.3028 115.696 65.42 115.699 65.555 115.706C65.6934 115.713 65.8018 115.722 65.8799 115.733V117.256C65.816 117.239 65.7023 117.219 65.539 117.198C65.3756 117.173 65.2123 117.161 65.0489 117.161C64.6725 117.161 64.3369 117.24 64.0422 117.4C63.751 117.556 63.5202 117.775 63.3497 118.055C63.1792 118.332 63.094 118.648 63.094 119.004V124H61.5013ZM70.0281 124.16C69.3675 124.16 68.7781 123.991 68.2596 123.654C67.7447 123.313 67.3398 122.828 67.0451 122.2C66.7539 121.567 66.6083 120.809 66.6083 119.925C66.6083 119.041 66.7557 118.284 67.0504 117.656C67.3487 117.027 67.7571 116.546 68.2756 116.212C68.794 115.879 69.3817 115.712 70.0387 115.712C70.5465 115.712 70.9549 115.797 71.2638 115.967C71.5763 116.134 71.8178 116.33 71.9883 116.553C72.1623 116.777 72.2972 116.974 72.3931 117.145H72.489V113.091H74.0817V124H72.5263V122.727H72.3931C72.2972 122.901 72.1587 123.1 71.9776 123.324C71.8001 123.547 71.555 123.743 71.2425 123.909C70.93 124.076 70.5252 124.16 70.0281 124.16ZM70.3796 122.801C70.8377 122.801 71.2248 122.681 71.5408 122.439C71.8604 122.194 72.1019 121.855 72.2653 121.422C72.4322 120.989 72.5156 120.484 72.5156 119.909C72.5156 119.341 72.4339 118.844 72.2706 118.418C72.1072 117.991 71.8675 117.659 71.5515 117.422C71.2354 117.184 70.8448 117.065 70.3796 117.065C69.9002 117.065 69.5007 117.189 69.1811 117.438C68.8615 117.686 68.62 118.025 68.4567 118.455C68.2969 118.885 68.217 119.369 68.217 119.909C68.217 120.456 68.2987 120.948 68.462 121.385C68.6254 121.821 68.8668 122.168 69.1864 122.423C69.5096 122.675 69.9073 122.801 70.3796 122.801ZM76.3548 124V115.818H77.9475V124H76.3548ZM77.1592 114.556C76.8822 114.556 76.6443 114.463 76.4454 114.279C76.2501 114.091 76.1524 113.867 76.1524 113.608C76.1524 113.345 76.2501 113.121 76.4454 112.936C76.6443 112.748 76.8822 112.654 77.1592 112.654C77.4362 112.654 77.6723 112.748 77.8676 112.936C78.0665 113.121 78.1659 113.345 78.1659 113.608C78.1659 113.867 78.0665 114.091 77.8676 114.279C77.6723 114.463 77.4362 114.556 77.1592 114.556ZM83.5366 124.165C82.7695 124.165 82.1001 123.989 81.5284 123.638C80.9567 123.286 80.5128 122.794 80.1967 122.162C79.8807 121.53 79.7227 120.792 79.7227 119.946C79.7227 119.098 79.8807 118.355 80.1967 117.72C80.5128 117.084 80.9567 116.591 81.5284 116.239C82.1001 115.887 82.7695 115.712 83.5366 115.712C84.3036 115.712 84.973 115.887 85.5447 116.239C86.1165 116.591 86.5604 117.084 86.8764 117.72C87.1925 118.355 87.3505 119.098 87.3505 119.946C87.3505 120.792 87.1925 121.53 86.8764 122.162C86.5604 122.794 86.1165 123.286 85.5447 123.638C84.973 123.989 84.3036 124.165 83.5366 124.165ZM83.5419 122.828C84.0391 122.828 84.451 122.697 84.7777 122.434C85.1044 122.171 85.3459 121.821 85.5021 121.385C85.6619 120.948 85.7418 120.467 85.7418 119.941C85.7418 119.419 85.6619 118.94 85.5021 118.503C85.3459 118.062 85.1044 117.709 84.7777 117.443C84.451 117.176 84.0391 117.043 83.5419 117.043C83.0412 117.043 82.6257 117.176 82.2955 117.443C81.9688 117.709 81.7255 118.062 81.5657 118.503C81.4094 118.94 81.3313 119.419 81.3313 119.941C81.3313 120.467 81.4094 120.948 81.5657 121.385C81.7255 121.821 81.9688 122.171 82.2955 122.434C82.6257 122.697 83.0412 122.828 83.5419 122.828ZM90.721 119.142V124H89.1283V115.818H90.657V117.15H90.7583C90.9465 116.717 91.2412 116.369 91.6425 116.106C92.0473 115.843 92.5569 115.712 93.1713 115.712C93.7288 115.712 94.2171 115.829 94.6361 116.063C95.0551 116.294 95.3801 116.638 95.6109 117.097C95.8417 117.555 95.9571 118.121 95.9571 118.796V124H94.3644V118.988C94.3644 118.395 94.21 117.931 93.901 117.597C93.5921 117.26 93.1677 117.091 92.6279 117.091C92.2586 117.091 91.9301 117.171 91.6425 117.331C91.3584 117.491 91.1329 117.725 90.966 118.034C90.8026 118.339 90.721 118.709 90.721 119.142ZM105.839 124.149C105.108 124.149 104.455 124.023 103.879 123.771C103.308 123.519 102.855 123.169 102.521 122.722C102.191 122.271 102.013 121.749 101.988 121.156H103.661C103.682 121.479 103.79 121.759 103.986 121.997C104.185 122.232 104.444 122.413 104.763 122.54C105.083 122.668 105.438 122.732 105.829 122.732C106.259 122.732 106.638 122.658 106.969 122.509C107.303 122.359 107.564 122.152 107.752 121.885C107.94 121.615 108.034 121.305 108.034 120.953C108.034 120.587 107.94 120.266 107.752 119.989C107.567 119.708 107.295 119.488 106.937 119.328C106.582 119.169 106.152 119.089 105.648 119.089H104.726V117.746H105.648C106.053 117.746 106.408 117.674 106.713 117.528C107.022 117.382 107.263 117.18 107.438 116.921C107.612 116.658 107.699 116.351 107.699 115.999C107.699 115.662 107.622 115.369 107.469 115.12C107.32 114.868 107.107 114.671 106.83 114.529C106.557 114.387 106.234 114.316 105.861 114.316C105.506 114.316 105.174 114.382 104.865 114.513C104.559 114.641 104.311 114.826 104.119 115.067C103.927 115.305 103.824 115.591 103.81 115.925H102.217C102.235 115.335 102.409 114.817 102.739 114.369C103.073 113.922 103.513 113.572 104.06 113.32C104.607 113.068 105.214 112.942 105.882 112.942C106.582 112.942 107.185 113.078 107.693 113.352C108.205 113.622 108.599 113.982 108.876 114.433C109.156 114.884 109.295 115.378 109.291 115.914C109.295 116.525 109.124 117.043 108.78 117.469C108.439 117.896 107.984 118.181 107.416 118.327V118.412C108.141 118.522 108.702 118.81 109.099 119.275C109.501 119.74 109.7 120.317 109.696 121.006C109.7 121.607 109.533 122.145 109.195 122.62C108.862 123.096 108.405 123.471 107.826 123.744C107.248 124.014 106.585 124.149 105.839 124.149Z" fill="#2E263D" fill-opacity="0.9"/>
<path d="M574 119.977L578.125 115.852L579.303 117.03L574 122.333L568.697 117.03L569.875 115.852L574 119.977Z" fill="#2E263D" fill-opacity="0.9"/>
<rect width="600" height="1" transform="translate(4 142)" fill="white"/>
<rect x="4.25" y="142.25" width="599.5" height="0.5" stroke="#2E263D" stroke-opacity="0.12" stroke-width="0.5"/>
<rect width="600" height="46" transform="translate(4 143)" fill="white"/>
<path d="M26.12 171H24.3729L28.2987 160.091H30.2003L34.1261 171H32.3789L29.2947 162.072H29.2095L26.12 171ZM26.413 166.728H32.0806V168.113H26.413V166.728ZM38.8881 171.165C38.0962 171.165 37.4144 170.986 36.8427 170.627C36.2745 170.265 35.8377 169.766 35.5323 169.13C35.2269 168.495 35.0742 167.767 35.0742 166.946C35.0742 166.115 35.2305 165.382 35.543 164.746C35.8555 164.107 36.2958 163.608 36.864 163.25C37.4322 162.891 38.1016 162.712 38.8722 162.712C39.4936 162.712 40.0476 162.827 40.5341 163.058C41.0206 163.285 41.413 163.605 41.7113 164.017C42.0131 164.429 42.1925 164.91 42.2493 165.46H40.6992C40.614 165.077 40.4187 164.746 40.1133 164.469C39.8114 164.192 39.4066 164.054 38.8988 164.054C38.4549 164.054 38.0661 164.171 37.7322 164.406C37.402 164.636 37.1445 164.967 36.9599 165.396C36.7752 165.822 36.6829 166.327 36.6829 166.909C36.6829 167.506 36.7734 168.021 36.9545 168.454C37.1357 168.887 37.3913 169.223 37.7216 169.461C38.0554 169.699 38.4478 169.817 38.8988 169.817C39.2006 169.817 39.4741 169.762 39.7191 169.652C39.9677 169.539 40.1754 169.377 40.3423 169.168C40.5128 168.958 40.6317 168.706 40.6992 168.411H42.2493C42.1925 168.94 42.0202 169.413 41.7326 169.828C41.445 170.244 41.0597 170.57 40.5767 170.808C40.0973 171.046 39.5344 171.165 38.8881 171.165ZM47.3989 171.165C46.607 171.165 45.9252 170.986 45.3534 170.627C44.7852 170.265 44.3485 169.766 44.0431 169.13C43.7377 168.495 43.585 167.767 43.585 166.946C43.585 166.115 43.7412 165.382 44.0537 164.746C44.3662 164.107 44.8066 163.608 45.3747 163.25C45.9429 162.891 46.6123 162.712 47.3829 162.712C48.0044 162.712 48.5583 162.827 49.0448 163.058C49.5313 163.285 49.9237 163.605 50.222 164.017C50.5239 164.429 50.7032 164.91 50.76 165.46H49.21C49.1247 165.077 48.9294 164.746 48.624 164.469C48.3222 164.192 47.9173 164.054 47.4095 164.054C46.9656 164.054 46.5768 164.171 46.243 164.406C45.9127 164.636 45.6553 164.967 45.4706 165.396C45.286 165.822 45.1936 166.327 45.1936 166.909C45.1936 167.506 45.2842 168.021 45.4653 168.454C45.6464 168.887 45.9021 169.223 46.2323 169.461C46.5661 169.699 46.9585 169.817 47.4095 169.817C47.7114 169.817 47.9848 169.762 48.2298 169.652C48.4784 169.539 48.6862 169.377 48.8531 169.168C49.0235 168.958 49.1425 168.706 49.21 168.411H50.76C50.7032 168.94 50.531 169.413 50.2433 169.828C49.9557 170.244 49.5704 170.57 49.0874 170.808C48.608 171.046 48.0452 171.165 47.3989 171.165ZM55.9096 171.165C55.1426 171.165 54.4732 170.989 53.9015 170.638C53.3297 170.286 52.8858 169.794 52.5698 169.162C52.2537 168.53 52.0957 167.792 52.0957 166.946C52.0957 166.098 52.2537 165.355 52.5698 164.72C52.8858 164.084 53.3297 163.591 53.9015 163.239C54.4732 162.887 55.1426 162.712 55.9096 162.712C56.6767 162.712 57.3461 162.887 57.9178 163.239C58.4895 163.591 58.9334 164.084 59.2495 164.72C59.5655 165.355 59.7235 166.098 59.7235 166.946C59.7235 167.792 59.5655 168.53 59.2495 169.162C58.9334 169.794 58.4895 170.286 57.9178 170.638C57.3461 170.989 56.6767 171.165 55.9096 171.165ZM55.915 169.828C56.4121 169.828 56.824 169.697 57.1507 169.434C57.4775 169.171 57.7189 168.821 57.8752 168.385C58.035 167.948 58.1149 167.467 58.1149 166.941C58.1149 166.419 58.035 165.94 57.8752 165.503C57.7189 165.062 57.4775 164.709 57.1507 164.443C56.824 164.176 56.4121 164.043 55.915 164.043C55.4142 164.043 54.9988 164.176 54.6685 164.443C54.3418 164.709 54.0985 165.062 53.9387 165.503C53.7825 165.94 53.7044 166.419 53.7044 166.941C53.7044 167.467 53.7825 167.948 53.9387 168.385C54.0985 168.821 54.3418 169.171 54.6685 169.434C54.9988 169.697 55.4142 169.828 55.915 169.828ZM61.5013 171V162.818H63.0407V164.118H63.126C63.2751 163.678 63.5379 163.331 63.9143 163.079C64.2943 162.824 64.724 162.696 65.2034 162.696C65.3028 162.696 65.42 162.699 65.555 162.706C65.6934 162.713 65.8018 162.722 65.8799 162.733V164.256C65.816 164.239 65.7023 164.219 65.539 164.198C65.3756 164.173 65.2123 164.161 65.0489 164.161C64.6725 164.161 64.3369 164.24 64.0422 164.4C63.751 164.556 63.5202 164.775 63.3497 165.055C63.1792 165.332 63.094 165.648 63.094 166.004V171H61.5013ZM70.0281 171.16C69.3675 171.16 68.7781 170.991 68.2596 170.654C67.7447 170.313 67.3398 169.828 67.0451 169.2C66.7539 168.567 66.6083 167.809 66.6083 166.925C66.6083 166.041 66.7557 165.284 67.0504 164.656C67.3487 164.027 67.7571 163.546 68.2756 163.212C68.794 162.879 69.3817 162.712 70.0387 162.712C70.5465 162.712 70.9549 162.797 71.2638 162.967C71.5763 163.134 71.8178 163.33 71.9883 163.553C72.1623 163.777 72.2972 163.974 72.3931 164.145H72.489V160.091H74.0817V171H72.5263V169.727H72.3931C72.2972 169.901 72.1587 170.1 71.9776 170.324C71.8001 170.547 71.555 170.743 71.2425 170.909C70.93 171.076 70.5252 171.16 70.0281 171.16ZM70.3796 169.801C70.8377 169.801 71.2248 169.681 71.5408 169.439C71.8604 169.194 72.1019 168.855 72.2653 168.422C72.4322 167.989 72.5156 167.484 72.5156 166.909C72.5156 166.341 72.4339 165.844 72.2706 165.418C72.1072 164.991 71.8675 164.659 71.5515 164.422C71.2354 164.184 70.8448 164.065 70.3796 164.065C69.9002 164.065 69.5007 164.189 69.1811 164.438C68.8615 164.686 68.62 165.025 68.4567 165.455C68.2969 165.885 68.217 166.369 68.217 166.909C68.217 167.456 68.2987 167.948 68.462 168.385C68.6254 168.821 68.8668 169.168 69.1864 169.423C69.5096 169.675 69.9073 169.801 70.3796 169.801ZM76.3548 171V162.818H77.9475V171H76.3548ZM77.1592 161.556C76.8822 161.556 76.6443 161.463 76.4454 161.279C76.2501 161.091 76.1524 160.867 76.1524 160.608C76.1524 160.345 76.2501 160.121 76.4454 159.936C76.6443 159.748 76.8822 159.654 77.1592 159.654C77.4362 159.654 77.6723 159.748 77.8676 159.936C78.0665 160.121 78.1659 160.345 78.1659 160.608C78.1659 160.867 78.0665 161.091 77.8676 161.279C77.6723 161.463 77.4362 161.556 77.1592 161.556ZM83.5366 171.165C82.7695 171.165 82.1001 170.989 81.5284 170.638C80.9567 170.286 80.5128 169.794 80.1967 169.162C79.8807 168.53 79.7227 167.792 79.7227 166.946C79.7227 166.098 79.8807 165.355 80.1967 164.72C80.5128 164.084 80.9567 163.591 81.5284 163.239C82.1001 162.887 82.7695 162.712 83.5366 162.712C84.3036 162.712 84.973 162.887 85.5447 163.239C86.1165 163.591 86.5604 164.084 86.8764 164.72C87.1925 165.355 87.3505 166.098 87.3505 166.946C87.3505 167.792 87.1925 168.53 86.8764 169.162C86.5604 169.794 86.1165 170.286 85.5447 170.638C84.973 170.989 84.3036 171.165 83.5366 171.165ZM83.5419 169.828C84.0391 169.828 84.451 169.697 84.7777 169.434C85.1044 169.171 85.3459 168.821 85.5021 168.385C85.6619 167.948 85.7418 167.467 85.7418 166.941C85.7418 166.419 85.6619 165.94 85.5021 165.503C85.3459 165.062 85.1044 164.709 84.7777 164.443C84.451 164.176 84.0391 164.043 83.5419 164.043C83.0412 164.043 82.6257 164.176 82.2955 164.443C81.9688 164.709 81.7255 165.062 81.5657 165.503C81.4094 165.94 81.3313 166.419 81.3313 166.941C81.3313 167.467 81.4094 167.948 81.5657 168.385C81.7255 168.821 81.9688 169.171 82.2955 169.434C82.6257 169.697 83.0412 169.828 83.5419 169.828ZM90.721 166.142V171H89.1283V162.818H90.657V164.15H90.7583C90.9465 163.717 91.2412 163.369 91.6425 163.106C92.0473 162.843 92.5569 162.712 93.1713 162.712C93.7288 162.712 94.2171 162.829 94.6361 163.063C95.0551 163.294 95.3801 163.638 95.6109 164.097C95.8417 164.555 95.9571 165.121 95.9571 165.796V171H94.3644V165.988C94.3644 165.395 94.21 164.931 93.901 164.597C93.5921 164.26 93.1677 164.091 92.6279 164.091C92.2586 164.091 91.9301 164.171 91.6425 164.331C91.3584 164.491 91.1329 164.725 90.966 165.034C90.8026 165.339 90.721 165.709 90.721 166.142ZM101.812 168.869V167.538L106.527 160.091H107.576V162.051H106.91L103.538 167.388V167.474H110V168.869H101.812ZM106.985 171V168.464L106.995 167.857V160.091H108.556V171H106.985Z" fill="#2E263D" fill-opacity="0.9"/>
<path d="M574 166.977L578.125 162.852L579.303 164.03L574 169.333L568.697 164.03L569.875 162.852L574 166.977Z" fill="#2E263D" fill-opacity="0.9"/>
</g>
</g>
<defs>
<filter id="filter0_d_8003_4091" x="0" y="0" width="608" height="195" filterUnits="userSpaceOnUse" color-interpolation-filters="sRGB">
<feFlood flood-opacity="0" result="BackgroundImageFix"/>
<feColorMatrix in="SourceAlpha" type="matrix" values="0 0 0 0 0 0 0 0 0 0 0 0 0 0 0 0 0 0 127 0" result="hardAlpha"/>
<feOffset dy="2"/>
<feGaussianBlur stdDeviation="2"/>
<feColorMatrix type="matrix" values="0 0 0 0 0.180392 0 0 0 0 0.14902 0 0 0 0 0.239216 0 0 0 0.16 0"/>
<feBlend mode="normal" in2="BackgroundImageFix" result="effect1_dropShadow_8003_4091"/>
<feBlend mode="normal" in="SourceGraphic" in2="effect1_dropShadow_8003_4091" result="shape"/>
</filter>
<clipPath id="clip0_8003_4091">
<path d="M4 8C4 4.68629 6.68629 2 10 2H598C601.314 2 604 4.68629 604 8V183C604 186.314 601.314 189 598 189H9.99999C6.68629 189 4 186.314 4 183V8Z" fill="white"/>
</clipPath>
</defs>
</svg>
