<svg width="320" height="86" viewBox="0 0 320 86" fill="none" xmlns="http://www.w3.org/2000/svg">
<g clip-path="url(#clip0_8003_4078)">
<path d="M0 6C0 2.68629 2.68629 0 6 0H314C317.314 0 320 2.68629 320 6V80C320 83.3137 317.314 86 314 86H6C2.6863 86 0 83.3137 0 80V6Z" fill="#FF4C51"/>
<g filter="url(#filter0_d_8003_4078)">
<path d="M16 22C16 18.6863 18.6863 16 22 16H40C43.3137 16 46 18.6863 46 22V40C46 43.3137 43.3137 46 40 46H22C18.6863 46 16 43.3137 16 40V22Z" fill="white"/>
<path d="M31 40.1668C25.9373 40.1668 21.8333 36.0629 21.8333 31.0002C21.8333 25.9374 25.9373 21.8335 31 21.8335C36.0628 21.8335 40.1667 25.9374 40.1667 31.0002C40.1667 36.0629 36.0628 40.1668 31 40.1668ZM31 38.3335C32.9449 38.3335 34.8102 37.5609 36.1855 36.1856C37.5607 34.8103 38.3333 32.9451 38.3333 31.0002C38.3333 29.0552 37.5607 27.19 36.1855 25.8147C34.8102 24.4394 32.9449 23.6668 31 23.6668C29.0551 23.6668 27.1898 24.4394 25.8146 25.8147C24.4393 27.19 23.6667 29.0552 23.6667 31.0002C23.6667 32.9451 24.4393 34.8103 25.8146 36.1856C27.1898 37.5609 29.0551 38.3335 31 38.3335V38.3335ZM30.0833 33.7502H31.9167V35.5835H30.0833V33.7502ZM30.0833 26.4168H31.9167V31.9168H30.0833V26.4168Z" fill="#FF4C51"/>
</g>
<g clip-path="url(#clip1_8003_4078)">
<path d="M62.7926 25.6094V23.9091H72.924V25.6094H68.8395V37H66.8707V25.6094H62.7926ZM75.0094 37V27.1818H76.9206V37H75.0094ZM75.9746 25.6669C75.6422 25.6669 75.3567 25.5561 75.1181 25.3345C74.8837 25.1087 74.7665 24.8402 74.7665 24.5291C74.7665 24.2138 74.8837 23.9453 75.1181 23.7237C75.3567 23.4979 75.6422 23.3849 75.9746 23.3849C76.307 23.3849 76.5904 23.4979 76.8248 23.7237C77.0634 23.9453 77.1827 24.2138 77.1827 24.5291C77.1827 24.8402 77.0634 25.1087 76.8248 25.3345C76.5904 25.5561 76.307 25.6669 75.9746 25.6669ZM84.0749 27.1818V28.7159H78.712V27.1818H84.0749ZM80.1502 24.8295H82.0614V34.1172C82.0614 34.4879 82.1168 34.767 82.2276 34.9545C82.3384 35.1378 82.4812 35.2635 82.6559 35.3317C82.8349 35.3956 83.0288 35.4276 83.2376 35.4276C83.391 35.4276 83.5252 35.4169 83.6403 35.3956C83.7553 35.3743 83.8448 35.3572 83.9087 35.3445L84.2539 36.9233C84.1431 36.9659 83.9854 37.0085 83.7809 37.0511C83.5763 37.098 83.3207 37.1236 83.0138 37.1278C82.511 37.1364 82.0423 37.0469 81.6076 36.8594C81.1729 36.6719 80.8214 36.3821 80.5529 35.9901C80.2844 35.598 80.1502 35.1058 80.1502 34.5135V24.8295ZM88.3113 23.9091V37H86.4V23.9091H88.3113ZM95.114 37.1982C94.1467 37.1982 93.3136 36.9915 92.6147 36.5781C91.9201 36.1605 91.3832 35.5746 91.0039 34.8203C90.6289 34.0618 90.4414 33.1733 90.4414 32.1548C90.4414 31.1491 90.6289 30.2628 91.0039 29.4957C91.3832 28.7287 91.9116 28.13 92.5891 27.6996C93.271 27.2692 94.0678 27.054 94.9798 27.054C95.5337 27.054 96.0707 27.1456 96.5906 27.3288C97.1104 27.5121 97.5771 27.7997 97.9904 28.1918C98.4038 28.5838 98.7298 29.093 98.9684 29.7195C99.207 30.3416 99.3264 31.098 99.3264 31.9886V32.6662H91.5217V31.2344H97.4535C97.4535 30.7315 97.3512 30.2862 97.1467 29.8984C96.9421 29.5064 96.6545 29.1974 96.2837 28.9716C95.9173 28.7457 95.4869 28.6328 94.9925 28.6328C94.4556 28.6328 93.9869 28.7649 93.5863 29.0291C93.19 29.2891 92.8832 29.63 92.6658 30.0518C92.4528 30.4695 92.3462 30.9233 92.3462 31.4134V32.532C92.3462 33.1882 92.4613 33.7464 92.6914 34.2067C92.9258 34.6669 93.2518 35.0185 93.6694 35.2614C94.087 35.5 94.5749 35.6193 95.1332 35.6193C95.4954 35.6193 95.8256 35.5682 96.1239 35.4659C96.4222 35.3594 96.68 35.2017 96.8974 34.9929C97.1147 34.7841 97.2809 34.5263 97.396 34.2195L99.2049 34.5455C99.06 35.0781 98.8001 35.5447 98.4251 35.9453C98.0543 36.3416 97.5877 36.6506 97.0252 36.8722C96.467 37.0895 95.8299 37.1982 95.114 37.1982Z" fill="white"/>
<path d="M63.7685 64H62.3835L66.3892 53.0909H67.7528L71.7585 64H70.3736L67.1136 54.8168H67.0284L63.7685 64ZM64.2798 59.7386H69.8622V60.9105H64.2798V59.7386ZM74.5444 53.0909V64H73.2873V53.0909H74.5444ZM80.2773 64.1705C79.4889 64.1705 78.8089 63.9964 78.2371 63.6484C77.6689 63.2969 77.2304 62.8068 76.9214 62.1783C76.616 61.5462 76.4633 60.8111 76.4633 59.973C76.4633 59.1349 76.616 58.3963 76.9214 57.7571C77.2304 57.1143 77.6601 56.6136 78.2105 56.255C78.7645 55.8928 79.4108 55.7116 80.1494 55.7116C80.5756 55.7116 80.9964 55.7827 81.4118 55.9247C81.8273 56.0668 82.2055 56.2976 82.5464 56.6172C82.8873 56.9332 83.159 57.3523 83.3614 57.8743C83.5638 58.3963 83.665 59.0391 83.665 59.8026V60.3352H77.3582V59.2486H82.3866C82.3866 58.7869 82.2943 58.375 82.1096 58.0128C81.9285 57.6506 81.6693 57.3647 81.3319 57.1552C80.9981 56.9457 80.604 56.8409 80.1494 56.8409C79.6487 56.8409 79.2155 56.9652 78.8497 57.2138C78.4875 57.4588 78.2087 57.7784 78.0134 58.1726C77.8181 58.5668 77.7204 58.9893 77.7204 59.4403V60.1648C77.7204 60.7827 77.827 61.3065 78.04 61.7362C78.2567 62.1623 78.5567 62.4872 78.9403 62.7109C79.3238 62.9311 79.7694 63.0412 80.2773 63.0412C80.6075 63.0412 80.9058 62.995 81.1721 62.9027C81.442 62.8068 81.6746 62.6648 81.8699 62.4766C82.0653 62.2848 82.2162 62.0469 82.3227 61.7628L83.5372 62.1037C83.4094 62.5156 83.1945 62.8778 82.8927 63.1903C82.5908 63.4993 82.218 63.7408 81.7741 63.9148C81.3302 64.0852 80.8312 64.1705 80.2773 64.1705ZM85.5773 64V55.8182H86.7918V57.054H86.877C87.0262 56.6491 87.2961 56.3207 87.6867 56.0685C88.0773 55.8164 88.5177 55.6903 89.0077 55.6903C89.1001 55.6903 89.2155 55.6921 89.354 55.6957C89.4925 55.6992 89.5972 55.7045 89.6682 55.7116V56.9901C89.6256 56.9794 89.528 56.9634 89.3753 56.9421C89.2261 56.9173 89.0681 56.9048 88.9012 56.9048C88.5035 56.9048 88.1483 56.9883 87.8358 57.1552C87.5269 57.3185 87.2819 57.5458 87.1008 57.837C86.9232 58.1246 86.8344 58.4531 86.8344 58.8224V64H85.5773ZM95.2293 55.8182V56.8835H90.9893V55.8182H95.2293ZM92.2251 53.858H93.4822V61.6562C93.4822 62.0114 93.5336 62.2777 93.6366 62.4553C93.7432 62.6293 93.8781 62.7464 94.0415 62.8068C94.2084 62.8636 94.3841 62.892 94.5688 62.892C94.7073 62.892 94.8209 62.8849 94.9097 62.8707C94.9985 62.853 95.0695 62.8388 95.1228 62.8281L95.3785 63.9574C95.2932 63.9893 95.1743 64.0213 95.0216 64.0533C94.8689 64.0888 94.6753 64.1065 94.441 64.1065C94.0858 64.1065 93.7378 64.0302 93.3969 63.8775C93.0596 63.7248 92.779 63.4922 92.5553 63.1797C92.3351 62.8672 92.2251 62.473 92.2251 61.9972V53.858ZM104.663 64.1705C103.896 64.1705 103.235 63.9893 102.681 63.6271C102.127 63.2649 101.701 62.766 101.403 62.1303C101.105 61.4947 100.956 60.7685 100.956 59.9517C100.956 59.1207 101.108 58.3874 101.414 57.7518C101.723 57.1126 102.152 56.6136 102.703 56.255C103.257 55.8928 103.903 55.7116 104.642 55.7116C105.217 55.7116 105.735 55.8182 106.197 56.0312C106.659 56.2443 107.037 56.5426 107.332 56.9261C107.626 57.3097 107.809 57.7571 107.88 58.2685H106.623C106.527 57.8956 106.314 57.5653 105.984 57.2777C105.657 56.9865 105.217 56.8409 104.663 56.8409C104.173 56.8409 103.743 56.9687 103.374 57.2244C103.008 57.4766 102.722 57.8335 102.516 58.2951C102.314 58.7532 102.213 59.2912 102.213 59.9091C102.213 60.5412 102.312 61.0916 102.511 61.5604C102.713 62.0291 102.997 62.3931 103.363 62.6523C103.733 62.9116 104.166 63.0412 104.663 63.0412C104.99 63.0412 105.286 62.9844 105.552 62.8707C105.819 62.7571 106.044 62.5938 106.229 62.3807C106.414 62.1676 106.545 61.9119 106.623 61.6136H107.88C107.809 62.0966 107.633 62.5316 107.353 62.9187C107.076 63.3022 106.708 63.6076 106.25 63.8349C105.796 64.0586 105.267 64.1705 104.663 64.1705ZM113.042 64.1705C112.303 64.1705 111.655 63.9947 111.098 63.6431C110.544 63.2915 110.11 62.7997 109.798 62.1676C109.489 61.5355 109.334 60.7969 109.334 59.9517C109.334 59.0994 109.489 58.3555 109.798 57.7198C110.11 57.0842 110.544 56.5906 111.098 56.239C111.655 55.8874 112.303 55.7116 113.042 55.7116C113.78 55.7116 114.427 55.8874 114.981 56.239C115.538 56.5906 115.972 57.0842 116.28 57.7198C116.593 58.3555 116.749 59.0994 116.749 59.9517C116.749 60.7969 116.593 61.5355 116.28 62.1676C115.972 62.7997 115.538 63.2915 114.981 63.6431C114.427 63.9947 113.78 64.1705 113.042 64.1705ZM113.042 63.0412C113.603 63.0412 114.065 62.8974 114.427 62.6097C114.789 62.3221 115.057 61.9439 115.231 61.4751C115.405 61.0064 115.492 60.4986 115.492 59.9517C115.492 59.4048 115.405 58.8952 115.231 58.4229C115.057 57.9506 114.789 57.5689 114.427 57.2777C114.065 56.9865 113.603 56.8409 113.042 56.8409C112.481 56.8409 112.019 56.9865 111.657 57.2777C111.295 57.5689 111.027 57.9506 110.853 58.4229C110.679 58.8952 110.592 59.4048 110.592 59.9517C110.592 60.4986 110.679 61.0064 110.853 61.4751C111.027 61.9439 111.295 62.3221 111.657 62.6097C112.019 62.8974 112.481 63.0412 113.042 63.0412ZM119.925 59.0781V64H118.668V55.8182H119.883V57.0966H119.989C120.181 56.6811 120.472 56.3473 120.863 56.0952C121.253 55.8395 121.758 55.7116 122.376 55.7116C122.93 55.7116 123.414 55.8253 123.83 56.0526C124.245 56.2763 124.568 56.6172 124.799 57.0753C125.03 57.5298 125.145 58.1051 125.145 58.8011V64H123.888V58.8864C123.888 58.2436 123.721 57.7429 123.388 57.3842C123.054 57.022 122.596 56.8409 122.013 56.8409C121.612 56.8409 121.253 56.9279 120.937 57.1019C120.625 57.2759 120.378 57.5298 120.197 57.8636C120.016 58.1974 119.925 58.6023 119.925 59.0781ZM131.001 55.8182V56.8835H126.761V55.8182H131.001ZM127.997 53.858H129.254V61.6562C129.254 62.0114 129.305 62.2777 129.408 62.4553C129.515 62.6293 129.65 62.7464 129.813 62.8068C129.98 62.8636 130.156 62.892 130.34 62.892C130.479 62.892 130.592 62.8849 130.681 62.8707C130.77 62.853 130.841 62.8388 130.894 62.8281L131.15 63.9574C131.065 63.9893 130.946 64.0213 130.793 64.0533C130.64 64.0888 130.447 64.1065 130.212 64.1065C129.857 64.1065 129.509 64.0302 129.168 63.8775C128.831 63.7248 128.551 63.4922 128.327 63.1797C128.107 62.8672 127.997 62.473 127.997 61.9972V53.858ZM136.234 64.1705C135.446 64.1705 134.766 63.9964 134.194 63.6484C133.626 63.2969 133.187 62.8068 132.878 62.1783C132.573 61.5462 132.42 60.8111 132.42 59.973C132.42 59.1349 132.573 58.3963 132.878 57.7571C133.187 57.1143 133.617 56.6136 134.168 56.255C134.722 55.8928 135.368 55.7116 136.106 55.7116C136.533 55.7116 136.953 55.7827 137.369 55.9247C137.784 56.0668 138.163 56.2976 138.503 56.6172C138.844 56.9332 139.116 57.3523 139.318 57.8743C139.521 58.3963 139.622 59.0391 139.622 59.8026V60.3352H133.315V59.2486H138.344C138.344 58.7869 138.251 58.375 138.067 58.0128C137.886 57.6506 137.626 57.3647 137.289 57.1552C136.955 56.9457 136.561 56.8409 136.106 56.8409C135.606 56.8409 135.172 56.9652 134.807 57.2138C134.445 57.4588 134.166 57.7784 133.97 58.1726C133.775 58.5668 133.677 58.9893 133.677 59.4403V60.1648C133.677 60.7827 133.784 61.3065 133.997 61.7362C134.214 62.1623 134.514 62.4872 134.897 62.7109C135.281 62.9311 135.726 63.0412 136.234 63.0412C136.565 63.0412 136.863 62.995 137.129 62.9027C137.399 62.8068 137.632 62.6648 137.827 62.4766C138.022 62.2848 138.173 62.0469 138.28 61.7628L139.494 62.1037C139.366 62.5156 139.152 62.8778 138.85 63.1903C138.548 63.4993 138.175 63.7408 137.731 63.9148C137.287 64.0852 136.788 64.1705 136.234 64.1705ZM142.791 59.0781V64H141.534V55.8182H142.749V57.0966H142.855C143.047 56.6811 143.338 56.3473 143.729 56.0952C144.12 55.8395 144.624 55.7116 145.242 55.7116C145.796 55.7116 146.28 55.8253 146.696 56.0526C147.111 56.2763 147.435 56.6172 147.665 57.0753C147.896 57.5298 148.012 58.1051 148.012 58.8011V64H146.755V58.8864C146.755 58.2436 146.588 57.7429 146.254 57.3842C145.92 57.022 145.462 56.8409 144.88 56.8409C144.478 56.8409 144.12 56.9279 143.804 57.1019C143.491 57.2759 143.244 57.5298 143.063 57.8636C142.882 58.1974 142.791 58.6023 142.791 59.0781ZM153.867 55.8182V56.8835H149.627V55.8182H153.867ZM150.863 53.858H152.12V61.6562C152.12 62.0114 152.171 62.2777 152.274 62.4553C152.381 62.6293 152.516 62.7464 152.679 62.8068C152.846 62.8636 153.022 62.892 153.206 62.892C153.345 62.892 153.459 62.8849 153.547 62.8707C153.636 62.853 153.707 62.8388 153.76 62.8281L154.016 63.9574C153.931 63.9893 153.812 64.0213 153.659 64.0533C153.507 64.0888 153.313 64.1065 153.079 64.1065C152.724 64.1065 152.376 64.0302 152.035 63.8775C151.697 63.7248 151.417 63.4922 151.193 63.1797C150.973 62.8672 150.863 62.473 150.863 61.9972V53.858Z" fill="white"/>
</g>
<path d="M287 31.8218L291.125 27.6968L292.303 28.8751L288.178 33.0001L292.303 37.1251L291.125 38.3034L287 34.1784L282.875 38.3034L281.697 37.1251L285.822 33.0001L281.697 28.8751L282.875 27.6968L287 31.8218Z" fill="white"/>
</g>
<defs>
<filter id="filter0_d_8003_4078" x="12" y="14" width="38" height="38" filterUnits="userSpaceOnUse" color-interpolation-filters="sRGB">
<feFlood flood-opacity="0" result="BackgroundImageFix"/>
<feColorMatrix in="SourceAlpha" type="matrix" values="0 0 0 0 0 0 0 0 0 0 0 0 0 0 0 0 0 0 127 0" result="hardAlpha"/>
<feOffset dy="2"/>
<feGaussianBlur stdDeviation="2"/>
<feColorMatrix type="matrix" values="0 0 0 0 0.180392 0 0 0 0 0.14902 0 0 0 0 0.239216 0 0 0 0.16 0"/>
<feBlend mode="normal" in2="BackgroundImageFix" result="effect1_dropShadow_8003_4078"/>
<feBlend mode="normal" in="SourceGraphic" in2="effect1_dropShadow_8003_4078" result="shape"/>
</filter>
<clipPath id="clip0_8003_4078">
<path d="M0 6C0 2.68629 2.68629 0 6 0H314C317.314 0 320 2.68629 320 6V80C320 83.3137 317.314 86 314 86H6C2.6863 86 0 83.3137 0 80V6Z" fill="white"/>
</clipPath>
<clipPath id="clip1_8003_4078">
<rect width="192" height="54" fill="white" transform="translate(62 16)"/>
</clipPath>
</defs>
</svg>
