<svg width="382" height="385" viewBox="0 0 382 385" fill="none" xmlns="http://www.w3.org/2000/svg">
<g filter="url(#filter0_d_8003_4707)">
<path d="M10 12C10 8.68629 12.6863 6 16 6H365.333C368.647 6 371.333 8.68629 371.333 12V365C371.333 368.314 368.647 371 365.333 371H16C12.6863 371 10 368.314 10 365V12Z" fill="white" shape-rendering="crispEdges"/>
<path d="M32.544 47H30.4474L35.1584 33.9091H37.4403L42.1513 47H40.0547L36.3537 36.2869H36.2514L32.544 47ZM32.8956 41.8736H39.6967V43.5355H32.8956V41.8736ZM45.7995 41.1705V47H43.8883V37.1818H45.7228V38.7798H45.8443C46.0701 38.2599 46.4238 37.8423 46.9054 37.527C47.3912 37.2116 48.0027 37.054 48.7399 37.054C49.4089 37.054 49.9949 37.1946 50.4977 37.4759C51.0005 37.7528 51.3904 38.1662 51.6674 38.7159C51.9444 39.2656 52.0829 39.9453 52.0829 40.755V47H50.1717V40.9851C50.1717 40.2734 49.9863 39.7173 49.6156 39.3168C49.2449 38.9119 48.7356 38.7095 48.0879 38.7095C47.6447 38.7095 47.2505 38.8054 46.9054 38.9972C46.5645 39.1889 46.2939 39.4702 46.0936 39.8409C45.8975 40.2074 45.7995 40.6506 45.7995 41.1705ZM57.5034 47.2173C56.8812 47.2173 56.3187 47.1023 55.8159 46.8722C55.313 46.6378 54.9146 46.299 54.6206 45.8558C54.3308 45.4126 54.1859 44.8693 54.1859 44.2259C54.1859 43.6719 54.2924 43.2159 54.5055 42.858C54.7186 42.5 55.0062 42.2166 55.3684 42.0078C55.7306 41.799 56.1355 41.6413 56.5829 41.5348C57.0304 41.4283 57.4863 41.3473 57.9508 41.2919C58.5389 41.2237 59.0162 41.1683 59.3826 41.1257C59.7491 41.0788 60.0154 41.0043 60.1816 40.902C60.3478 40.7997 60.4309 40.6335 60.4309 40.4034V40.3587C60.4309 39.8004 60.2733 39.3679 59.9579 39.0611C59.6468 38.7543 59.1824 38.6009 58.5645 38.6009C57.921 38.6009 57.4139 38.7436 57.0431 39.0291C56.6767 39.3104 56.4231 39.6236 56.2825 39.9688L54.4863 39.5597C54.6994 38.9631 55.0105 38.4815 55.4196 38.1151C55.8329 37.7443 56.3081 37.4759 56.845 37.3097C57.3819 37.1392 57.9466 37.054 58.5389 37.054C58.9309 37.054 59.3464 37.1009 59.7853 37.1946C60.2285 37.2841 60.6419 37.4503 61.0254 37.6932C61.4132 37.9361 61.7306 38.2834 61.9778 38.7351C62.225 39.1825 62.3485 39.7642 62.3485 40.4801V47H60.4821V45.6577H60.4054C60.2818 45.9048 60.0964 46.1477 59.8493 46.3864C59.6021 46.625 59.2846 46.8232 58.8968 46.9808C58.5091 47.1385 58.0446 47.2173 57.5034 47.2173ZM57.9189 45.6832C58.4473 45.6832 58.899 45.5788 59.274 45.37C59.6532 45.1612 59.9409 44.8885 60.1369 44.5518C60.3372 44.2109 60.4373 43.8466 60.4373 43.4588V42.1932C60.3691 42.2614 60.237 42.3253 60.041 42.3849C59.8493 42.4403 59.6298 42.4893 59.3826 42.532C59.1355 42.5703 58.8947 42.6065 58.6603 42.6406C58.426 42.6705 58.2299 42.696 58.0723 42.7173C57.7015 42.7642 57.3627 42.843 57.0559 42.9538C56.7534 43.0646 56.5105 43.2244 56.3272 43.4332C56.1483 43.6378 56.0588 43.9105 56.0588 44.2514C56.0588 44.7244 56.2335 45.0824 56.5829 45.3253C56.9324 45.5639 57.3777 45.6832 57.9189 45.6832ZM66.8054 33.9091V47H64.8942V33.9091H66.8054ZM70.5847 50.6818C70.2992 50.6818 70.0392 50.6584 69.8049 50.6115C69.5705 50.5689 69.3958 50.522 69.2807 50.4709L69.7409 48.9048C70.0904 48.9986 70.4015 49.0391 70.6742 49.0263C70.9469 49.0135 71.1877 48.9112 71.3965 48.7195C71.6096 48.5277 71.7971 48.2145 71.959 47.7798L72.1955 47.1278L68.6032 37.1818H70.6486L73.1351 44.8011H73.2374L75.7239 37.1818H77.7757L73.7296 48.3104C73.5421 48.8217 73.3034 49.2543 73.0137 49.608C72.7239 49.9659 72.3787 50.2344 71.9782 50.4134C71.5776 50.5923 71.1131 50.6818 70.5847 50.6818ZM84.155 37.1818V38.7159H78.7921V37.1818H84.155ZM80.2303 34.8295H82.1415V44.1172C82.1415 44.4879 82.1969 44.767 82.3077 44.9545C82.4185 45.1378 82.5613 45.2635 82.736 45.3317C82.915 45.3956 83.1088 45.4276 83.3176 45.4276C83.4711 45.4276 83.6053 45.4169 83.7203 45.3956C83.8354 45.3743 83.9249 45.3572 83.9888 45.3445L84.334 46.9233C84.2232 46.9659 84.0655 47.0085 83.861 47.0511C83.6564 47.098 83.4007 47.1236 83.0939 47.1278C82.5911 47.1364 82.1223 47.0469 81.6877 46.8594C81.253 46.6719 80.9015 46.3821 80.633 45.9901C80.3645 45.598 80.2303 45.1058 80.2303 44.5135V34.8295ZM86.2692 47V37.1818H88.1804V47H86.2692ZM87.2344 35.6669C86.902 35.6669 86.6165 35.5561 86.3778 35.3345C86.1435 35.1087 86.0263 34.8402 86.0263 34.5291C86.0263 34.2138 86.1435 33.9453 86.3778 33.7237C86.6165 33.4979 86.902 33.3849 87.2344 33.3849C87.5668 33.3849 87.8501 33.4979 88.0845 33.7237C88.3232 33.9453 88.4425 34.2138 88.4425 34.5291C88.4425 34.8402 88.3232 35.1087 88.0845 35.3345C87.8501 35.5561 87.5668 35.6669 87.2344 35.6669ZM94.8873 47.1982C93.937 47.1982 93.1188 46.983 92.4327 46.5526C91.7509 46.1179 91.2267 45.5192 90.8603 44.7564C90.4938 43.9936 90.3105 43.12 90.3105 42.1357C90.3105 41.1385 90.498 40.2585 90.873 39.4957C91.248 38.7287 91.7765 38.13 92.4583 37.6996C93.1401 37.2692 93.9434 37.054 94.8681 37.054C95.6138 37.054 96.2786 37.1925 96.8624 37.4695C97.4462 37.7422 97.9171 38.1257 98.275 38.62C98.6373 39.1143 98.8525 39.6918 98.9206 40.3523H97.0605C96.9583 39.892 96.7239 39.4957 96.3574 39.1634C95.9952 38.831 95.5094 38.6648 94.9 38.6648C94.3674 38.6648 93.9007 38.8054 93.5002 39.0866C93.1039 39.3636 92.7949 39.7599 92.5733 40.2756C92.3517 40.7869 92.2409 41.392 92.2409 42.0909C92.2409 42.8068 92.3496 43.4247 92.5669 43.9446C92.7843 44.4645 93.0911 44.8672 93.4874 45.1527C93.888 45.4382 94.3588 45.581 94.9 45.581C95.2623 45.581 95.5904 45.5149 95.8844 45.3828C96.1827 45.2464 96.432 45.0526 96.6323 44.8011C96.8368 44.5497 96.9796 44.2472 97.0605 43.8935H98.9206C98.8525 44.5284 98.6458 45.0952 98.3006 45.5938C97.9554 46.0923 97.4931 46.4844 96.9135 46.7699C96.3382 47.0554 95.6628 47.1982 94.8873 47.1982ZM108.322 39.5788L106.589 39.8857C106.517 39.6641 106.402 39.4531 106.244 39.2528C106.091 39.0526 105.882 38.8885 105.618 38.7607C105.354 38.6328 105.023 38.5689 104.627 38.5689C104.086 38.5689 103.634 38.6903 103.272 38.9332C102.91 39.1719 102.729 39.4808 102.729 39.8601C102.729 40.1882 102.85 40.4524 103.093 40.6527C103.336 40.853 103.728 41.017 104.269 41.1449L105.829 41.5028C106.732 41.7116 107.406 42.0334 107.849 42.468C108.292 42.9027 108.513 43.4673 108.513 44.1619C108.513 44.75 108.343 45.2741 108.002 45.7344C107.665 46.1903 107.195 46.5483 106.589 46.8082C105.989 47.0682 105.292 47.1982 104.499 47.1982C103.4 47.1982 102.503 46.9638 101.808 46.495C101.114 46.022 100.688 45.3509 100.53 44.4815L102.377 44.2003C102.492 44.6818 102.729 45.0462 103.087 45.2933C103.445 45.5362 103.911 45.6577 104.487 45.6577C105.113 45.6577 105.614 45.5277 105.989 45.2678C106.364 45.0036 106.551 44.6818 106.551 44.3026C106.551 43.9957 106.436 43.7379 106.206 43.5291C105.98 43.3203 105.633 43.1626 105.164 43.0561L103.502 42.6918C102.586 42.483 101.908 42.1506 101.469 41.6946C101.035 41.2386 100.817 40.6612 100.817 39.9624C100.817 39.3828 100.979 38.8757 101.303 38.4411C101.627 38.0064 102.075 37.6676 102.646 37.4247C103.217 37.1776 103.871 37.054 104.608 37.054C105.669 37.054 106.504 37.2841 107.114 37.7443C107.723 38.2003 108.126 38.8118 108.322 39.5788Z" fill="#2E263D" fill-opacity="0.9"/>
<path d="M339.333 29C338.508 29 337.833 29.675 337.833 30.5C337.833 31.325 338.508 32 339.333 32C340.158 32 340.833 31.325 340.833 30.5C340.833 29.675 340.158 29 339.333 29ZM339.333 44C338.508 44 337.833 44.675 337.833 45.5C337.833 46.325 338.508 47 339.333 47C340.158 47 340.833 46.325 340.833 45.5C340.833 44.675 340.158 44 339.333 44ZM339.333 36.5C338.508 36.5 337.833 37.175 337.833 38C337.833 38.825 338.508 39.5 339.333 39.5C340.158 39.5 340.833 38.825 340.833 38C340.833 37.175 340.158 36.5 339.333 36.5Z" fill="#2E263D" fill-opacity="0.9"/>
<path d="M31.1985 280V269.091H35.087C35.9322 269.091 36.6335 269.237 37.1911 269.528C37.7521 269.819 38.1712 270.222 38.4482 270.737C38.7251 271.248 38.8636 271.839 38.8636 272.511C38.8636 273.178 38.7234 273.766 38.4428 274.274C38.1658 274.778 37.7468 275.17 37.1857 275.451C36.6282 275.732 35.9268 275.872 35.0817 275.872H32.136V274.455H34.9325C35.4652 274.455 35.8984 274.379 36.2322 274.226C36.5696 274.073 36.8164 273.851 36.9727 273.56C37.1289 273.269 37.207 272.919 37.207 272.511C37.207 272.099 37.1271 271.742 36.9673 271.44C36.8111 271.138 36.5643 270.907 36.2269 270.748C35.8931 270.584 35.4545 270.502 34.9112 270.502H32.8445V280H31.1985ZM36.5838 275.078L39.2791 280H37.4041L34.7621 275.078H36.5838ZM44.1624 280.165C43.3563 280.165 42.662 279.993 42.0796 279.648C41.5008 279.3 41.0534 278.812 40.7373 278.184C40.4248 277.551 40.2686 276.811 40.2686 275.962C40.2686 275.124 40.4248 274.386 40.7373 273.746C41.0534 273.107 41.4937 272.608 42.0583 272.25C42.6265 271.891 43.2906 271.712 44.0505 271.712C44.5122 271.712 44.9596 271.788 45.3928 271.941C45.8261 272.093 46.2149 272.333 46.5594 272.66C46.9039 272.987 47.1755 273.411 47.3744 273.933C47.5732 274.451 47.6727 275.082 47.6727 275.824V276.388H41.1688V275.195H46.1119C46.1119 274.776 46.0267 274.405 45.8563 274.082C45.6858 273.755 45.4461 273.498 45.1372 273.31C44.8318 273.121 44.4731 273.027 44.0612 273.027C43.6137 273.027 43.2231 273.137 42.8893 273.358C42.559 273.574 42.3034 273.858 42.1222 274.21C41.9447 274.558 41.8559 274.936 41.8559 275.344V276.277C41.8559 276.824 41.9518 277.289 42.1436 277.672C42.3389 278.056 42.6105 278.349 42.9585 278.551C43.3066 278.75 43.7132 278.849 44.1784 278.849C44.4802 278.849 44.7554 278.807 45.004 278.722C45.2526 278.633 45.4674 278.501 45.6485 278.327C45.8296 278.153 45.9681 277.939 46.064 277.683L47.5715 277.955C47.4507 278.398 47.2341 278.787 46.9216 279.121C46.6127 279.451 46.2238 279.709 45.7551 279.893C45.2899 280.075 44.759 280.165 44.1624 280.165ZM56.2047 271.818L53.2377 280H51.5332L48.5609 271.818H50.2708L52.3429 278.114H52.4281L54.4949 271.818H56.2047ZM60.9495 280.165C60.1434 280.165 59.4491 279.993 58.8667 279.648C58.2879 279.3 57.8405 278.812 57.5244 278.184C57.2119 277.551 57.0557 276.811 57.0557 275.962C57.0557 275.124 57.2119 274.386 57.5244 273.746C57.8405 273.107 58.2808 272.608 58.8454 272.25C59.4136 271.891 60.0777 271.712 60.8376 271.712C61.2993 271.712 61.7467 271.788 62.18 271.941C62.6132 272.093 63.002 272.333 63.3465 272.66C63.691 272.987 63.9626 273.411 64.1615 273.933C64.3604 274.451 64.4598 275.082 64.4598 275.824V276.388H57.9559V275.195H62.8991C62.8991 274.776 62.8138 274.405 62.6434 274.082C62.4729 273.755 62.2332 273.498 61.9243 273.31C61.6189 273.121 61.2602 273.027 60.8483 273.027C60.4008 273.027 60.0102 273.137 59.6764 273.358C59.3461 273.574 59.0905 273.858 58.9094 274.21C58.7318 274.558 58.643 274.936 58.643 275.344V276.277C58.643 276.824 58.7389 277.289 58.9307 277.672C59.126 278.056 59.3976 278.349 59.7456 278.551C60.0937 278.75 60.5003 278.849 60.9655 278.849C61.2673 278.849 61.5425 278.807 61.7911 278.722C62.0397 278.633 62.2545 278.501 62.4356 278.327C62.6167 278.153 62.7552 277.939 62.8511 277.683L64.3586 277.955C64.2378 278.398 64.0212 278.787 63.7087 279.121C63.3998 279.451 63.0109 279.709 62.5422 279.893C62.077 280.075 61.5461 280.165 60.9495 280.165ZM67.8196 275.142V280H66.2269V271.818H67.7557V273.15H67.8569C68.0451 272.717 68.3398 272.369 68.7411 272.106C69.146 271.843 69.6555 271.712 70.2699 271.712C70.8274 271.712 71.3157 271.829 71.7347 272.063C72.1538 272.294 72.4787 272.638 72.7095 273.097C72.9403 273.555 73.0558 274.121 73.0558 274.796V280H71.4631V274.988C71.4631 274.395 71.3086 273.931 70.9996 273.597C70.6907 273.26 70.2663 273.091 69.7266 273.091C69.3572 273.091 69.0288 273.171 68.7411 273.331C68.457 273.491 68.2315 273.725 68.0646 274.034C67.9013 274.339 67.8196 274.709 67.8196 275.142ZM80.3746 276.607V271.818H81.9727V280H80.4066V278.583H80.3214C80.1332 279.02 79.8313 279.384 79.4158 279.675C79.0039 279.963 78.4908 280.107 77.8764 280.107C77.3509 280.107 76.8857 279.991 76.4808 279.76C76.0795 279.526 75.7635 279.18 75.5327 278.722C75.3054 278.263 75.1918 277.697 75.1918 277.022V271.818H76.7844V276.831C76.7844 277.388 76.9389 277.832 77.2479 278.162C77.5568 278.493 77.9581 278.658 78.4517 278.658C78.75 278.658 79.0465 278.583 79.3413 278.434C79.6396 278.285 79.8864 278.059 80.0817 277.757C80.2805 277.456 80.3782 277.072 80.3746 276.607ZM87.6389 280.165C86.8328 280.165 86.1386 279.993 85.5562 279.648C84.9774 279.3 84.5299 278.812 84.2139 278.184C83.9014 277.551 83.7451 276.811 83.7451 275.962C83.7451 275.124 83.9014 274.386 84.2139 273.746C84.5299 273.107 84.9703 272.608 85.5349 272.25C86.1031 271.891 86.7671 271.712 87.5271 271.712C87.9887 271.712 88.4362 271.788 88.8694 271.941C89.3026 272.093 89.6915 272.333 90.036 272.66C90.3804 272.987 90.6521 273.411 90.8509 273.933C91.0498 274.451 91.1492 275.082 91.1492 275.824V276.388H84.6453V275.195H89.5885C89.5885 274.776 89.5033 274.405 89.3328 274.082C89.1624 273.755 88.9227 273.498 88.6137 273.31C88.3083 273.121 87.9497 273.027 87.5377 273.027C87.0903 273.027 86.6997 273.137 86.3659 273.358C86.0356 273.574 85.7799 273.858 85.5988 274.21C85.4213 274.558 85.3325 274.936 85.3325 275.344V276.277C85.3325 276.824 85.4284 277.289 85.6201 277.672C85.8154 278.056 86.0871 278.349 86.4351 278.551C86.7831 278.75 87.1897 278.849 87.6549 278.849C87.9568 278.849 88.232 278.807 88.4806 278.722C88.7291 278.633 88.944 278.501 89.1251 278.327C89.3062 278.153 89.4447 277.939 89.5406 277.683L91.048 277.955C90.9273 278.398 90.7107 278.787 90.3982 279.121C90.0892 279.451 89.7004 279.709 89.2316 279.893C88.7664 280.075 88.2355 280.165 87.6389 280.165Z" fill="#2E263D" fill-opacity="0.9"/>
<path d="M212.347 281.364V267.727H213.22V281.364H212.347ZM215.287 271.818C215.223 271.278 214.964 270.859 214.509 270.561C214.055 270.263 213.497 270.114 212.837 270.114C212.354 270.114 211.931 270.192 211.569 270.348C211.21 270.504 210.93 270.719 210.727 270.993C210.528 271.266 210.429 271.577 210.429 271.925C210.429 272.216 210.498 272.466 210.637 272.676C210.779 272.882 210.96 273.054 211.18 273.192C211.4 273.327 211.631 273.439 211.873 273.528C212.114 273.613 212.336 273.683 212.538 273.736L213.646 274.034C213.93 274.109 214.246 274.212 214.594 274.343C214.946 274.474 215.282 274.654 215.601 274.881C215.924 275.105 216.191 275.392 216.4 275.744C216.61 276.096 216.714 276.527 216.714 277.038C216.714 277.628 216.56 278.161 216.251 278.636C215.946 279.112 215.498 279.49 214.909 279.771C214.323 280.051 213.611 280.192 212.773 280.192C211.991 280.192 211.315 280.066 210.743 279.814C210.175 279.561 209.728 279.21 209.401 278.759C209.078 278.308 208.895 277.784 208.852 277.188H210.216C210.251 277.599 210.39 277.94 210.631 278.21C210.876 278.477 211.185 278.675 211.558 278.807C211.935 278.935 212.339 278.999 212.773 278.999C213.277 278.999 213.73 278.917 214.131 278.754C214.532 278.587 214.85 278.356 215.085 278.061C215.319 277.763 215.436 277.415 215.436 277.017C215.436 276.655 215.335 276.36 215.132 276.133C214.93 275.906 214.664 275.721 214.333 275.579C214.003 275.437 213.646 275.312 213.263 275.206L211.92 274.822C211.068 274.577 210.393 274.228 209.896 273.773C209.399 273.319 209.151 272.724 209.151 271.989C209.151 271.378 209.316 270.845 209.646 270.391C209.98 269.933 210.427 269.577 210.988 269.325C211.553 269.07 212.183 268.942 212.879 268.942C213.582 268.942 214.207 269.068 214.754 269.32C215.301 269.569 215.734 269.909 216.054 270.343C216.377 270.776 216.548 271.268 216.565 271.818H215.287ZM222.189 280.149C221.457 280.149 220.811 280.02 220.25 279.76C219.693 279.498 219.258 279.137 218.945 278.679C218.633 278.217 218.478 277.692 218.482 277.102C218.478 276.641 218.569 276.214 218.753 275.824C218.938 275.43 219.19 275.101 219.51 274.838C219.833 274.572 220.193 274.403 220.591 274.332V274.268C220.069 274.134 219.653 273.841 219.345 273.39C219.036 272.935 218.883 272.418 218.886 271.839C218.883 271.286 219.023 270.79 219.307 270.353C219.591 269.917 219.982 269.572 220.479 269.32C220.98 269.068 221.55 268.942 222.189 268.942C222.821 268.942 223.386 269.068 223.883 269.32C224.38 269.572 224.771 269.917 225.055 270.353C225.342 270.79 225.488 271.286 225.492 271.839C225.488 272.418 225.33 272.935 225.017 273.39C224.709 273.841 224.298 274.134 223.787 274.268V274.332C224.181 274.403 224.536 274.572 224.852 274.838C225.168 275.101 225.421 275.43 225.609 275.824C225.797 276.214 225.893 276.641 225.896 277.102C225.893 277.692 225.733 278.217 225.417 278.679C225.104 279.137 224.669 279.498 224.112 279.76C223.558 280.02 222.917 280.149 222.189 280.149ZM222.189 278.977C222.683 278.977 223.109 278.897 223.467 278.738C223.826 278.578 224.103 278.352 224.298 278.061C224.494 277.77 224.593 277.429 224.597 277.038C224.593 276.626 224.487 276.262 224.277 275.946C224.068 275.63 223.782 275.382 223.419 275.201C223.061 275.02 222.651 274.929 222.189 274.929C221.724 274.929 221.308 275.02 220.943 275.201C220.58 275.382 220.294 275.63 220.085 275.946C219.879 276.262 219.778 276.626 219.781 277.038C219.778 277.429 219.872 277.77 220.064 278.061C220.259 278.352 220.538 278.578 220.9 278.738C221.262 278.897 221.692 278.977 222.189 278.977ZM222.189 273.8C222.58 273.8 222.926 273.722 223.228 273.565C223.533 273.409 223.773 273.191 223.947 272.91C224.121 272.63 224.21 272.301 224.213 271.925C224.21 271.555 224.123 271.234 223.952 270.961C223.782 270.684 223.546 270.471 223.244 270.321C222.942 270.169 222.59 270.092 222.189 270.092C221.781 270.092 221.424 270.169 221.118 270.321C220.813 270.471 220.577 270.684 220.41 270.961C220.243 271.234 220.161 271.555 220.165 271.925C220.161 272.301 220.245 272.63 220.415 272.91C220.589 273.191 220.829 273.409 221.134 273.565C221.44 273.722 221.791 273.8 222.189 273.8ZM227.682 277.763V276.676L232.476 269.091H233.265V270.774H232.732L229.11 276.506V276.591H235.566V277.763H227.682ZM232.817 280V277.433V276.926V269.091H234.074V280H232.817ZM240.971 280.149C240.346 280.149 239.783 280.025 239.282 279.776C238.782 279.528 238.38 279.187 238.079 278.754C237.777 278.32 237.612 277.827 237.583 277.273H238.862C238.911 277.766 239.135 278.175 239.533 278.498C239.934 278.817 240.413 278.977 240.971 278.977C241.418 278.977 241.816 278.873 242.164 278.663C242.516 278.453 242.791 278.166 242.99 277.8C243.192 277.431 243.293 277.013 243.293 276.548C243.293 276.072 243.189 275.648 242.979 275.275C242.773 274.899 242.489 274.602 242.127 274.386C241.765 274.169 241.351 274.059 240.886 274.055C240.552 274.052 240.209 274.103 239.858 274.21C239.506 274.313 239.217 274.446 238.989 274.609L237.754 274.46L238.414 269.091H244.082V270.263H239.522L239.139 273.48H239.203C239.426 273.303 239.707 273.155 240.044 273.038C240.381 272.921 240.733 272.862 241.099 272.862C241.766 272.862 242.361 273.022 242.883 273.342C243.409 273.658 243.821 274.091 244.119 274.641C244.421 275.192 244.572 275.82 244.572 276.527C244.572 277.223 244.416 277.844 244.103 278.391C243.794 278.935 243.368 279.364 242.825 279.68C242.281 279.993 241.663 280.149 240.971 280.149ZM247.881 277.017L247.86 275.462H248.115L251.695 271.818H253.25L249.436 275.675H249.33L247.881 277.017ZM246.709 280V269.091H247.966V280H246.709ZM251.908 280L248.712 275.952L249.607 275.078L253.506 280H251.908Z" fill="#2E263D" fill-opacity="0.7"/>
<path d="M284.069 280.149C283.305 280.149 282.631 280.018 282.045 279.755C281.462 279.492 281.006 279.13 280.676 278.668C280.345 278.207 280.182 277.681 280.186 277.092C280.182 276.63 280.276 276.206 280.468 275.819C280.663 275.428 280.928 275.103 281.262 274.844C281.595 274.581 281.968 274.414 282.38 274.343V274.279C281.837 274.148 281.402 273.857 281.075 273.406C280.749 272.955 280.587 272.436 280.59 271.85C280.587 271.293 280.734 270.795 281.033 270.359C281.334 269.918 281.748 269.572 282.274 269.32C282.799 269.068 283.398 268.942 284.069 268.942C284.733 268.942 285.326 269.07 285.848 269.325C286.374 269.577 286.787 269.924 287.089 270.364C287.391 270.801 287.544 271.296 287.547 271.85C287.544 272.436 287.377 272.955 287.046 273.406C286.716 273.857 286.286 274.148 285.757 274.279V274.343C286.166 274.414 286.533 274.581 286.86 274.844C287.19 275.103 287.453 275.428 287.648 275.819C287.847 276.206 287.948 276.63 287.952 277.092C287.948 277.681 287.782 278.207 287.451 278.668C287.121 279.13 286.663 279.492 286.077 279.755C285.495 280.018 284.825 280.149 284.069 280.149ZM284.069 278.801C284.52 278.801 284.91 278.727 285.241 278.578C285.571 278.425 285.827 278.214 286.008 277.944C286.189 277.67 286.281 277.351 286.285 276.985C286.281 276.605 286.182 276.27 285.986 275.978C285.795 275.687 285.534 275.458 285.203 275.291C284.873 275.124 284.495 275.041 284.069 275.041C283.639 275.041 283.257 275.124 282.924 275.291C282.59 275.458 282.327 275.687 282.135 275.978C281.943 276.27 281.849 276.605 281.853 276.985C281.849 277.351 281.936 277.67 282.114 277.944C282.295 278.214 282.552 278.425 282.886 278.578C283.22 278.727 283.614 278.801 284.069 278.801ZM284.069 273.725C284.431 273.725 284.752 273.652 285.033 273.507C285.313 273.361 285.534 273.159 285.693 272.9C285.857 272.64 285.94 272.337 285.944 271.989C285.94 271.648 285.859 271.349 285.699 271.094C285.543 270.838 285.324 270.641 285.044 270.502C284.763 270.36 284.438 270.289 284.069 270.289C283.692 270.289 283.362 270.36 283.078 270.502C282.798 270.641 282.579 270.838 282.423 271.094C282.267 271.349 282.19 271.648 282.194 271.989C282.19 272.337 282.268 272.64 282.428 272.9C282.588 273.159 282.808 273.361 283.089 273.507C283.373 273.652 283.699 273.725 284.069 273.725ZM289.86 280V278.807L293.552 274.982C293.946 274.567 294.271 274.203 294.526 273.89C294.786 273.574 294.979 273.274 295.107 272.99C295.235 272.706 295.299 272.404 295.299 272.085C295.299 271.722 295.214 271.41 295.043 271.147C294.873 270.881 294.64 270.676 294.345 270.534C294.051 270.389 293.719 270.316 293.349 270.316C292.959 270.316 292.618 270.396 292.327 270.556C292.035 270.716 291.812 270.941 291.655 271.232C291.499 271.523 291.421 271.864 291.421 272.255H289.85C289.85 271.591 290.002 271.01 290.308 270.513C290.613 270.016 291.032 269.631 291.565 269.357C292.097 269.08 292.703 268.942 293.381 268.942C294.067 268.942 294.67 269.078 295.192 269.352C295.718 269.622 296.128 269.991 296.423 270.46C296.718 270.925 296.865 271.451 296.865 272.037C296.865 272.441 296.789 272.837 296.636 273.224C296.487 273.612 296.226 274.043 295.853 274.519C295.48 274.991 294.961 275.565 294.297 276.239L292.129 278.509V278.588H297.041V280H289.86ZM304.754 277.955V277.379C304.754 276.967 304.839 276.591 305.009 276.25C305.183 275.906 305.436 275.63 305.766 275.424C306.1 275.215 306.503 275.11 306.975 275.11C307.458 275.11 307.863 275.213 308.189 275.419C308.516 275.625 308.763 275.9 308.93 276.245C309.1 276.589 309.186 276.967 309.186 277.379V277.955C309.186 278.366 309.1 278.745 308.93 279.089C308.759 279.43 308.509 279.705 308.179 279.915C307.852 280.121 307.451 280.224 306.975 280.224C306.496 280.224 306.091 280.121 305.76 279.915C305.43 279.705 305.18 279.43 305.009 279.089C304.839 278.745 304.754 278.366 304.754 277.955ZM305.995 277.379V277.955C305.995 278.26 306.068 278.537 306.213 278.786C306.359 279.034 306.613 279.158 306.975 279.158C307.334 279.158 307.584 279.034 307.726 278.786C307.868 278.537 307.939 278.26 307.939 277.955V277.379C307.939 277.074 307.87 276.797 307.731 276.548C307.596 276.3 307.344 276.175 306.975 276.175C306.62 276.175 306.368 276.3 306.219 276.548C306.069 276.797 305.995 277.074 305.995 277.379ZM299.267 271.712V271.136C299.267 270.724 299.352 270.346 299.523 270.002C299.697 269.657 299.949 269.382 300.279 269.176C300.613 268.97 301.016 268.867 301.488 268.867C301.971 268.867 302.376 268.97 302.703 269.176C303.03 269.382 303.276 269.657 303.443 270.002C303.61 270.346 303.694 270.724 303.694 271.136V271.712C303.694 272.124 303.608 272.502 303.438 272.846C303.271 273.187 303.023 273.462 302.692 273.672C302.366 273.878 301.964 273.981 301.488 273.981C301.006 273.981 300.599 273.878 300.269 273.672C299.942 273.462 299.693 273.187 299.523 272.846C299.352 272.502 299.267 272.124 299.267 271.712ZM300.514 271.136V271.712C300.514 272.017 300.585 272.294 300.727 272.543C300.872 272.791 301.126 272.915 301.488 272.915C301.844 272.915 302.092 272.791 302.234 272.543C302.38 272.294 302.453 272.017 302.453 271.712V271.136C302.453 270.831 302.383 270.554 302.245 270.305C302.106 270.057 301.854 269.933 301.488 269.933C301.133 269.933 300.881 270.057 300.732 270.305C300.586 270.554 300.514 270.831 300.514 271.136ZM299.773 280L307.273 269.091H308.546L301.046 280H299.773Z" fill="#2E263D" fill-opacity="0.9"/>
<path d="M339.333 273.828L334.383 278.778L332.969 277.364L339.333 271L345.697 277.364L344.283 278.778L339.333 273.828Z" fill="#56CA00"/>
<path d="M30.6605 302.508V301.091H39.1033V302.508H35.6996V312H34.0589V302.508H30.6605ZM39.9916 312V303.818H41.531V305.118H41.6162C41.7654 304.678 42.0281 304.331 42.4046 304.079C42.7845 303.824 43.2142 303.696 43.6936 303.696C43.7931 303.696 43.9102 303.699 44.0452 303.706C44.1837 303.713 44.292 303.722 44.3701 303.733V305.256C44.3062 305.239 44.1926 305.219 44.0292 305.198C43.8659 305.173 43.7025 305.161 43.5392 305.161C43.1627 305.161 42.8271 305.24 42.5324 305.4C42.2412 305.556 42.0104 305.775 41.8399 306.055C41.6695 306.332 41.5843 306.648 41.5843 307.004V312H39.9916ZM48.0562 312.181C47.5377 312.181 47.069 312.085 46.6499 311.893C46.2309 311.698 45.8989 311.416 45.6539 311.047C45.4124 310.677 45.2916 310.224 45.2916 309.688C45.2916 309.227 45.3804 308.847 45.558 308.548C45.7355 308.25 45.9752 308.014 46.2771 307.84C46.5789 307.666 46.9163 307.534 47.2892 307.446C47.662 307.357 48.042 307.289 48.4291 307.243C48.9191 307.186 49.3169 307.14 49.6222 307.105C49.9276 307.066 50.1496 307.004 50.2881 306.918C50.4266 306.833 50.4958 306.695 50.4958 306.503V306.466C50.4958 306 50.3644 305.64 50.1017 305.384C49.8424 305.129 49.4553 305.001 48.9404 305.001C48.4042 305.001 47.9816 305.12 47.6727 305.358C47.3673 305.592 47.156 305.853 47.0388 306.141L45.542 305.8C45.7195 305.303 45.9788 304.901 46.3197 304.596C46.6642 304.287 47.0601 304.063 47.5075 303.925C47.955 303.783 48.4255 303.712 48.9191 303.712C49.2458 303.712 49.5921 303.751 49.9578 303.829C50.3271 303.903 50.6716 304.042 50.9912 304.244C51.3144 304.447 51.5789 304.736 51.7849 305.113C51.9909 305.485 52.0938 305.97 52.0938 306.567V312H50.5384V310.881H50.4745C50.3715 311.087 50.2171 311.29 50.0111 311.489C49.8051 311.687 49.5406 311.853 49.2174 311.984C48.8943 312.115 48.5072 312.181 48.0562 312.181ZM48.4024 310.903C48.8428 310.903 49.2192 310.816 49.5317 310.642C49.8477 310.468 50.0874 310.24 50.2508 309.96C50.4177 309.676 50.5012 309.372 50.5012 309.049V307.994C50.4443 308.051 50.3343 308.104 50.1709 308.154C50.0111 308.2 49.8282 308.241 49.6222 308.277C49.4163 308.309 49.2156 308.339 49.0203 308.367C48.825 308.392 48.6617 308.413 48.5303 308.431C48.2213 308.47 47.939 308.536 47.6833 308.628C47.4312 308.721 47.2288 308.854 47.0761 309.028C46.9269 309.198 46.8524 309.425 46.8524 309.71C46.8524 310.104 46.998 310.402 47.2892 310.604C47.5803 310.803 47.9514 310.903 48.4024 310.903ZM55.8079 307.142V312H54.2152V303.818H55.744V305.15H55.8452C56.0334 304.717 56.3281 304.369 56.7294 304.106C57.1342 303.843 57.6438 303.712 58.2582 303.712C58.8157 303.712 59.304 303.829 59.723 304.063C60.142 304.294 60.467 304.638 60.6978 305.097C60.9286 305.555 61.044 306.121 61.044 306.796V312H59.4513V306.988C59.4513 306.395 59.2969 305.931 58.9879 305.597C58.679 305.26 58.2546 305.091 57.7148 305.091C57.3455 305.091 57.017 305.171 56.7294 305.331C56.4453 305.491 56.2198 305.725 56.0529 306.034C55.8896 306.339 55.8079 306.709 55.8079 307.142ZM69.3111 305.816L67.8675 306.071C67.8072 305.887 67.7113 305.711 67.5799 305.544C67.4521 305.377 67.2781 305.24 67.0579 305.134C66.8377 305.027 66.5625 304.974 66.2322 304.974C65.7813 304.974 65.4048 305.075 65.103 305.278C64.8011 305.477 64.6502 305.734 64.6502 306.05C64.6502 306.324 64.7514 306.544 64.9538 306.711C65.1563 306.877 65.483 307.014 65.9339 307.121L67.2337 307.419C67.9865 307.593 68.5476 307.861 68.9169 308.223C69.2862 308.586 69.4709 309.056 69.4709 309.635C69.4709 310.125 69.3288 310.562 69.0447 310.945C68.7642 311.325 68.3718 311.624 67.8675 311.84C67.3668 312.057 66.7862 312.165 66.1257 312.165C65.2095 312.165 64.462 311.97 63.8832 311.579C63.3043 311.185 62.9492 310.626 62.8178 309.901L64.3572 309.667C64.4531 310.068 64.6502 310.372 64.9485 310.578C65.2468 310.78 65.6357 310.881 66.1151 310.881C66.6371 310.881 67.0543 310.773 67.3668 310.556C67.6793 310.336 67.8356 310.068 67.8356 309.752C67.8356 309.496 67.7397 309.282 67.5479 309.108C67.3597 308.934 67.0703 308.802 66.6797 308.713L65.2947 308.41C64.5313 308.236 63.9666 307.959 63.6009 307.579C63.2386 307.199 63.0575 306.718 63.0575 306.135C63.0575 305.652 63.1925 305.23 63.4624 304.868C63.7322 304.505 64.1051 304.223 64.581 304.021C65.0568 303.815 65.6019 303.712 66.2163 303.712C67.1005 303.712 67.7965 303.903 68.3043 304.287C68.8121 304.667 69.1477 305.176 69.3111 305.816ZM73.6031 312.181C73.0846 312.181 72.6159 312.085 72.1968 311.893C71.7778 311.698 71.4458 311.416 71.2007 311.047C70.9593 310.677 70.8385 310.224 70.8385 309.688C70.8385 309.227 70.9273 308.847 71.1048 308.548C71.2824 308.25 71.5221 308.014 71.824 307.84C72.1258 307.666 72.4632 307.534 72.836 307.446C73.2089 307.357 73.5889 307.289 73.9759 307.243C74.466 307.186 74.8637 307.14 75.1691 307.105C75.4745 307.066 75.6965 307.004 75.835 306.918C75.9735 306.833 76.0427 306.695 76.0427 306.503V306.466C76.0427 306 75.9113 305.64 75.6485 305.384C75.3893 305.129 75.0022 305.001 74.4873 305.001C73.9511 305.001 73.5285 305.12 73.2195 305.358C72.9142 305.592 72.7029 305.853 72.5857 306.141L71.0889 305.8C71.2664 305.303 71.5257 304.901 71.8666 304.596C72.211 304.287 72.607 304.063 73.0544 303.925C73.5019 303.783 73.9724 303.712 74.466 303.712C74.7927 303.712 75.1389 303.751 75.5047 303.829C75.874 303.903 76.2185 304.042 76.5381 304.244C76.8612 304.447 77.1258 304.736 77.3318 305.113C77.5377 305.485 77.6407 305.97 77.6407 306.567V312H76.0853V310.881H76.0214C75.9184 311.087 75.7639 311.29 75.558 311.489C75.352 311.687 75.0874 311.853 74.7643 311.984C74.4411 312.115 74.0541 312.181 73.6031 312.181ZM73.9493 310.903C74.3896 310.903 74.7661 310.816 75.0786 310.642C75.3946 310.468 75.6343 310.24 75.7977 309.96C75.9646 309.676 76.048 309.372 76.048 309.049V307.994C75.9912 308.051 75.8811 308.104 75.7178 308.154C75.558 308.2 75.3751 308.241 75.1691 308.277C74.9632 308.309 74.7625 308.339 74.5672 308.367C74.3719 308.392 74.2085 308.413 74.0771 308.431C73.7682 308.47 73.4859 308.536 73.2302 308.628C72.9781 308.721 72.7757 308.854 72.623 309.028C72.4738 309.198 72.3992 309.425 72.3992 309.71C72.3992 310.104 72.5448 310.402 72.836 310.604C73.1272 310.803 73.4983 310.903 73.9493 310.903ZM83.2085 312.165C82.4165 312.165 81.7347 311.986 81.163 311.627C80.5948 311.265 80.158 310.766 79.8526 310.13C79.5472 309.495 79.3945 308.767 79.3945 307.946C79.3945 307.115 79.5508 306.382 79.8633 305.746C80.1758 305.107 80.6161 304.608 81.1843 304.25C81.7525 303.891 82.4219 303.712 83.1925 303.712C83.8139 303.712 84.3679 303.827 84.8544 304.058C85.3409 304.285 85.7333 304.605 86.0316 305.017C86.3335 305.429 86.5128 305.91 86.5696 306.46H85.0195C84.9343 306.077 84.739 305.746 84.4336 305.469C84.1317 305.192 83.7269 305.054 83.2191 305.054C82.7752 305.054 82.3864 305.171 82.0526 305.406C81.7223 305.636 81.4648 305.967 81.2802 306.396C81.0955 306.822 81.0032 307.327 81.0032 307.909C81.0032 308.506 81.0938 309.021 81.2749 309.454C81.456 309.887 81.7116 310.223 82.0419 310.461C82.3757 310.699 82.7681 310.817 83.2191 310.817C83.521 310.817 83.7944 310.762 84.0394 310.652C84.288 310.539 84.4957 310.377 84.6626 310.168C84.8331 309.958 84.9521 309.706 85.0195 309.411H86.5696C86.5128 309.94 86.3406 310.413 86.0529 310.828C85.7653 311.244 85.38 311.57 84.897 311.808C84.4176 312.046 83.8548 312.165 83.2085 312.165ZM92.0921 303.818V305.097H87.623V303.818H92.0921ZM88.8215 301.858H90.4142V309.598C90.4142 309.907 90.4603 310.139 90.5526 310.295C90.645 310.448 90.7639 310.553 90.9095 310.61C91.0587 310.663 91.2203 310.69 91.3943 310.69C91.5221 310.69 91.634 310.681 91.7298 310.663C91.8257 310.645 91.9003 310.631 91.9536 310.62L92.2412 311.936C92.1489 311.972 92.0175 312.007 91.847 312.043C91.6766 312.082 91.4635 312.103 91.2078 312.107C90.7888 312.114 90.3982 312.039 90.036 311.883C89.6737 311.727 89.3808 311.485 89.157 311.158C88.9333 310.832 88.8215 310.422 88.8215 309.928V301.858ZM93.8539 312V303.818H95.4466V312H93.8539ZM94.6582 302.556C94.3812 302.556 94.1433 302.463 93.9444 302.279C93.7491 302.091 93.6515 301.867 93.6515 301.608C93.6515 301.345 93.7491 301.121 93.9444 300.936C94.1433 300.748 94.3812 300.654 94.6582 300.654C94.9352 300.654 95.1713 300.748 95.3667 300.936C95.5655 301.121 95.665 301.345 95.665 301.608C95.665 301.867 95.5655 302.091 95.3667 302.279C95.1713 302.463 94.9352 302.556 94.6582 302.556ZM101.036 312.165C100.269 312.165 99.5992 311.989 99.0274 311.638C98.4557 311.286 98.0118 310.794 97.6958 310.162C97.3797 309.53 97.2217 308.792 97.2217 307.946C97.2217 307.098 97.3797 306.355 97.6958 305.72C98.0118 305.084 98.4557 304.591 99.0274 304.239C99.5992 303.887 100.269 303.712 101.036 303.712C101.803 303.712 102.472 303.887 103.044 304.239C103.616 304.591 104.059 305.084 104.375 305.72C104.691 306.355 104.85 307.098 104.85 307.946C104.85 308.792 104.691 309.53 104.375 310.162C104.059 310.794 103.616 311.286 103.044 311.638C102.472 311.989 101.803 312.165 101.036 312.165ZM101.041 310.828C101.538 310.828 101.95 310.697 102.277 310.434C102.603 310.171 102.845 309.821 103.001 309.385C103.161 308.948 103.241 308.467 103.241 307.941C103.241 307.419 103.161 306.94 103.001 306.503C102.845 306.062 102.603 305.709 102.277 305.443C101.95 305.176 101.538 305.043 101.041 305.043C100.54 305.043 100.125 305.176 99.7945 305.443C99.4678 305.709 99.2245 306.062 99.0647 306.503C98.9085 306.94 98.8303 307.419 98.8303 307.941C98.8303 308.467 98.9085 308.948 99.0647 309.385C99.2245 309.821 99.4678 310.171 99.7945 310.434C100.125 310.697 100.54 310.828 101.041 310.828ZM108.22 307.142V312H106.627V303.818H108.156V305.15H108.257C108.445 304.717 108.74 304.369 109.142 304.106C109.546 303.843 110.056 303.712 110.67 303.712C111.228 303.712 111.716 303.829 112.135 304.063C112.554 304.294 112.879 304.638 113.11 305.097C113.341 305.555 113.456 306.121 113.456 306.796V312H111.863V306.988C111.863 306.395 111.709 305.931 111.4 305.597C111.091 305.26 110.667 305.091 110.127 305.091C109.758 305.091 109.429 305.171 109.142 305.331C108.857 305.491 108.632 305.725 108.465 306.034C108.302 306.339 108.22 306.709 108.22 307.142ZM121.723 305.816L120.28 306.071C120.219 305.887 120.123 305.711 119.992 305.544C119.864 305.377 119.69 305.24 119.47 305.134C119.25 305.027 118.975 304.974 118.644 304.974C118.193 304.974 117.817 305.075 117.515 305.278C117.213 305.477 117.062 305.734 117.062 306.05C117.062 306.324 117.164 306.544 117.366 306.711C117.568 306.877 117.895 307.014 118.346 307.121L119.646 307.419C120.399 307.593 120.96 307.861 121.329 308.223C121.698 308.586 121.883 309.056 121.883 309.635C121.883 310.125 121.741 310.562 121.457 310.945C121.176 311.325 120.784 311.624 120.28 311.84C119.779 312.057 119.198 312.165 118.538 312.165C117.622 312.165 116.874 311.97 116.295 311.579C115.716 311.185 115.361 310.626 115.23 309.901L116.769 309.667C116.865 310.068 117.062 310.372 117.361 310.578C117.659 310.78 118.048 310.881 118.527 310.881C119.049 310.881 119.466 310.773 119.779 310.556C120.091 310.336 120.248 310.068 120.248 309.752C120.248 309.496 120.152 309.282 119.96 309.108C119.772 308.934 119.482 308.802 119.092 308.713L117.707 308.41C116.943 308.236 116.379 307.959 116.013 307.579C115.651 307.199 115.47 306.718 115.47 306.135C115.47 305.652 115.605 305.23 115.874 304.868C116.144 304.505 116.517 304.223 116.993 304.021C117.469 303.815 118.014 303.712 118.628 303.712C119.513 303.712 120.209 303.903 120.716 304.287C121.224 304.667 121.56 305.176 121.723 305.816Z" fill="#2E263D" fill-opacity="0.9"/>
<path d="M212.347 313.364V299.727H213.22V313.364H212.347ZM215.287 303.818C215.223 303.278 214.964 302.859 214.509 302.561C214.055 302.263 213.497 302.114 212.837 302.114C212.354 302.114 211.931 302.192 211.569 302.348C211.21 302.504 210.93 302.719 210.727 302.993C210.528 303.266 210.429 303.577 210.429 303.925C210.429 304.216 210.498 304.466 210.637 304.676C210.779 304.882 210.96 305.054 211.18 305.192C211.4 305.327 211.631 305.439 211.873 305.528C212.114 305.613 212.336 305.683 212.538 305.736L213.646 306.034C213.93 306.109 214.246 306.212 214.594 306.343C214.946 306.474 215.282 306.654 215.601 306.881C215.924 307.105 216.191 307.392 216.4 307.744C216.61 308.096 216.714 308.527 216.714 309.038C216.714 309.628 216.56 310.161 216.251 310.636C215.946 311.112 215.498 311.49 214.909 311.771C214.323 312.051 213.611 312.192 212.773 312.192C211.991 312.192 211.315 312.066 210.743 311.814C210.175 311.561 209.728 311.21 209.401 310.759C209.078 310.308 208.895 309.784 208.852 309.188H210.216C210.251 309.599 210.39 309.94 210.631 310.21C210.876 310.477 211.185 310.675 211.558 310.807C211.935 310.935 212.339 310.999 212.773 310.999C213.277 310.999 213.73 310.917 214.131 310.754C214.532 310.587 214.85 310.356 215.085 310.061C215.319 309.763 215.436 309.415 215.436 309.017C215.436 308.655 215.335 308.36 215.132 308.133C214.93 307.906 214.664 307.721 214.333 307.579C214.003 307.437 213.646 307.312 213.263 307.206L211.92 306.822C211.068 306.577 210.393 306.228 209.896 305.773C209.399 305.319 209.151 304.724 209.151 303.989C209.151 303.378 209.316 302.845 209.646 302.391C209.98 301.933 210.427 301.577 210.988 301.325C211.553 301.07 212.183 300.942 212.879 300.942C213.582 300.942 214.207 301.068 214.754 301.32C215.301 301.569 215.734 301.909 216.054 302.343C216.377 302.776 216.548 303.268 216.565 303.818H215.287ZM222.53 301.091V312H221.209V302.476H221.145L218.482 304.244V302.902L221.209 301.091H222.53ZM225.667 312V311.041L229.268 307.099C229.691 306.638 230.039 306.237 230.312 305.896C230.586 305.551 230.788 305.228 230.919 304.926C231.054 304.621 231.122 304.301 231.122 303.967C231.122 303.584 231.03 303.252 230.845 302.971C230.664 302.691 230.415 302.474 230.099 302.321C229.783 302.169 229.428 302.092 229.034 302.092C228.615 302.092 228.249 302.179 227.937 302.353C227.628 302.524 227.388 302.763 227.217 303.072C227.051 303.381 226.967 303.744 226.967 304.159H225.71C225.71 303.52 225.857 302.959 226.152 302.476C226.447 301.993 226.848 301.616 227.356 301.347C227.867 301.077 228.441 300.942 229.076 300.942C229.716 300.942 230.282 301.077 230.776 301.347C231.269 301.616 231.656 301.98 231.937 302.439C232.217 302.897 232.358 303.406 232.358 303.967C232.358 304.369 232.285 304.761 232.139 305.145C231.997 305.525 231.749 305.949 231.394 306.418C231.042 306.883 230.554 307.451 229.929 308.122L227.478 310.743V310.828H232.549V312H225.667ZM235.687 312.085C235.424 312.085 235.199 311.991 235.01 311.803C234.822 311.615 234.728 311.389 234.728 311.126C234.728 310.864 234.822 310.638 235.01 310.45C235.199 310.262 235.424 310.168 235.687 310.168C235.95 310.168 236.175 310.262 236.363 310.45C236.552 310.638 236.646 310.864 236.646 311.126C236.646 311.3 236.601 311.46 236.513 311.606C236.427 311.751 236.312 311.869 236.166 311.957C236.024 312.043 235.864 312.085 235.687 312.085ZM242.07 312.149C241.445 312.149 240.882 312.025 240.381 311.776C239.88 311.528 239.479 311.187 239.177 310.754C238.875 310.32 238.71 309.827 238.682 309.273H239.96C240.01 309.766 240.234 310.175 240.631 310.498C241.033 310.817 241.512 310.977 242.07 310.977C242.517 310.977 242.915 310.873 243.263 310.663C243.614 310.453 243.89 310.166 244.088 309.8C244.291 309.431 244.392 309.013 244.392 308.548C244.392 308.072 244.287 307.648 244.078 307.275C243.872 306.899 243.588 306.602 243.225 306.386C242.863 306.169 242.45 306.059 241.984 306.055C241.651 306.052 241.308 306.103 240.956 306.21C240.605 306.313 240.315 306.446 240.088 306.609L238.852 306.46L239.513 301.091H245.18V302.263H240.621L240.237 305.48H240.301C240.525 305.303 240.805 305.155 241.143 305.038C241.48 304.921 241.832 304.862 242.197 304.862C242.865 304.862 243.46 305.022 243.982 305.342C244.507 305.658 244.919 306.091 245.218 306.641C245.52 307.192 245.67 307.82 245.67 308.527C245.67 309.223 245.514 309.844 245.202 310.391C244.893 310.935 244.467 311.364 243.923 311.68C243.38 311.993 242.762 312.149 242.07 312.149ZM248.98 309.017L248.958 307.462H249.214L252.794 303.818H254.349L250.535 307.675H250.429L248.98 309.017ZM247.808 312V301.091H249.065V312H247.808ZM253.007 312L249.811 307.952L250.706 307.078L254.605 312H253.007Z" fill="#2E263D" fill-opacity="0.7"/>
<path d="M284.984 312.149C284.316 312.149 283.716 312.021 283.183 311.766C282.654 311.506 282.231 311.151 281.915 310.7C281.599 310.249 281.431 309.734 281.409 309.156H283.007C283.046 309.624 283.254 310.01 283.631 310.311C284.007 310.613 284.458 310.764 284.984 310.764C285.403 310.764 285.774 310.668 286.097 310.477C286.424 310.281 286.679 310.013 286.864 309.672C287.052 309.331 287.146 308.942 287.146 308.506C287.146 308.062 287.05 307.666 286.859 307.318C286.667 306.97 286.402 306.696 286.065 306.498C285.731 306.299 285.348 306.197 284.914 306.194C284.584 306.194 284.252 306.251 283.918 306.364C283.584 306.478 283.315 306.627 283.109 306.812L281.601 306.588L282.214 301.091H288.212V302.502H283.583L283.236 305.555H283.3C283.513 305.349 283.796 305.176 284.147 305.038C284.502 304.9 284.882 304.83 285.287 304.83C285.951 304.83 286.543 304.988 287.061 305.304C287.583 305.62 287.993 306.052 288.291 306.599C288.593 307.142 288.742 307.767 288.739 308.474C288.742 309.18 288.583 309.811 288.26 310.365C287.94 310.919 287.496 311.355 286.928 311.675C286.363 311.991 285.715 312.149 284.984 312.149ZM290.684 312V310.807L294.376 306.982C294.77 306.567 295.095 306.203 295.351 305.89C295.61 305.574 295.803 305.274 295.931 304.99C296.059 304.706 296.123 304.404 296.123 304.085C296.123 303.722 296.038 303.41 295.867 303.147C295.697 302.881 295.464 302.676 295.17 302.534C294.875 302.389 294.543 302.316 294.173 302.316C293.783 302.316 293.442 302.396 293.151 302.556C292.86 302.716 292.636 302.941 292.48 303.232C292.323 303.523 292.245 303.864 292.245 304.255H290.674C290.674 303.591 290.827 303.01 291.132 302.513C291.437 302.016 291.856 301.631 292.389 301.357C292.922 301.08 293.527 300.942 294.205 300.942C294.891 300.942 295.495 301.078 296.017 301.352C296.542 301.622 296.952 301.991 297.247 302.46C297.542 302.925 297.689 303.451 297.689 304.037C297.689 304.441 297.613 304.837 297.46 305.224C297.311 305.612 297.05 306.043 296.677 306.519C296.304 306.991 295.786 307.565 295.122 308.239L292.954 310.509V310.588H297.865V312H290.684ZM305.578 309.955V309.379C305.578 308.967 305.663 308.591 305.834 308.25C306.008 307.906 306.26 307.63 306.59 307.424C306.924 307.215 307.327 307.11 307.799 307.11C308.282 307.11 308.687 307.213 309.014 307.419C309.34 307.625 309.587 307.9 309.754 308.245C309.925 308.589 310.01 308.967 310.01 309.379V309.955C310.01 310.366 309.925 310.745 309.754 311.089C309.584 311.43 309.333 311.705 309.003 311.915C308.676 312.121 308.275 312.224 307.799 312.224C307.32 312.224 306.915 312.121 306.585 311.915C306.254 311.705 306.004 311.43 305.834 311.089C305.663 310.745 305.578 310.366 305.578 309.955ZM306.819 309.379V309.955C306.819 310.26 306.892 310.537 307.037 310.786C307.183 311.034 307.437 311.158 307.799 311.158C308.158 311.158 308.408 311.034 308.55 310.786C308.692 310.537 308.763 310.26 308.763 309.955V309.379C308.763 309.074 308.694 308.797 308.556 308.548C308.421 308.3 308.169 308.175 307.799 308.175C307.444 308.175 307.192 308.3 307.043 308.548C306.894 308.797 306.819 309.074 306.819 309.379ZM300.091 303.712V303.136C300.091 302.724 300.177 302.346 300.347 302.002C300.521 301.657 300.773 301.382 301.104 301.176C301.437 300.97 301.84 300.867 302.313 300.867C302.796 300.867 303.2 300.97 303.527 301.176C303.854 301.382 304.101 301.657 304.268 302.002C304.434 302.346 304.518 302.724 304.518 303.136V303.712C304.518 304.124 304.433 304.502 304.262 304.846C304.095 305.187 303.847 305.462 303.517 305.672C303.19 305.878 302.789 305.981 302.313 305.981C301.83 305.981 301.423 305.878 301.093 305.672C300.766 305.462 300.518 305.187 300.347 304.846C300.177 304.502 300.091 304.124 300.091 303.712ZM301.338 303.136V303.712C301.338 304.017 301.409 304.294 301.551 304.543C301.697 304.791 301.95 304.915 302.313 304.915C302.668 304.915 302.916 304.791 303.058 304.543C303.204 304.294 303.277 304.017 303.277 303.712V303.136C303.277 302.831 303.208 302.554 303.069 302.305C302.931 302.057 302.678 301.933 302.313 301.933C301.958 301.933 301.705 302.057 301.556 302.305C301.411 302.554 301.338 302.831 301.338 303.136ZM300.597 312L308.097 301.091H309.371L301.871 312H300.597Z" fill="#2E263D" fill-opacity="0.9"/>
<path d="M339.333 308.172L344.283 303.222L345.697 304.636L339.333 311L332.969 304.636L334.383 303.222L339.333 308.172Z" fill="#FF4C51"/>
<path d="M30.6605 334.508V333.091H39.1033V334.508H35.6996V344H34.0589V334.508H30.6605ZM43.101 344.165C42.334 344.165 41.6646 343.989 41.0929 343.638C40.5211 343.286 40.0772 342.794 39.7612 342.162C39.4451 341.53 39.2871 340.792 39.2871 339.946C39.2871 339.098 39.4451 338.355 39.7612 337.72C40.0772 337.084 40.5211 336.591 41.0929 336.239C41.6646 335.887 42.334 335.712 43.101 335.712C43.8681 335.712 44.5375 335.887 45.1092 336.239C45.6809 336.591 46.1248 337.084 46.4409 337.72C46.7569 338.355 46.915 339.098 46.915 339.946C46.915 340.792 46.7569 341.53 46.4409 342.162C46.1248 342.794 45.6809 343.286 45.1092 343.638C44.5375 343.989 43.8681 344.165 43.101 344.165ZM43.1064 342.828C43.6035 342.828 44.0154 342.697 44.3422 342.434C44.6689 342.171 44.9103 341.821 45.0666 341.385C45.2264 340.948 45.3063 340.467 45.3063 339.941C45.3063 339.419 45.2264 338.94 45.0666 338.503C44.9103 338.062 44.6689 337.709 44.3422 337.443C44.0154 337.176 43.6035 337.043 43.1064 337.043C42.6056 337.043 42.1902 337.176 41.8599 337.443C41.5332 337.709 41.29 338.062 41.1301 338.503C40.9739 338.94 40.8958 339.419 40.8958 339.941C40.8958 340.467 40.9739 340.948 41.1301 341.385C41.29 341.821 41.5332 342.171 41.8599 342.434C42.1902 342.697 42.6056 342.828 43.1064 342.828ZM52.512 335.818V337.097H48.0429V335.818H52.512ZM49.2414 333.858H50.8341V341.598C50.8341 341.907 50.8802 342.139 50.9726 342.295C51.0649 342.448 51.1839 342.553 51.3295 342.61C51.4786 342.663 51.6402 342.69 51.8142 342.69C51.942 342.69 52.0539 342.681 52.1498 342.663C52.2456 342.645 52.3202 342.631 52.3735 342.62L52.6611 343.936C52.5688 343.972 52.4374 344.007 52.267 344.043C52.0965 344.082 51.8834 344.103 51.6278 344.107C51.2087 344.114 50.8181 344.039 50.4559 343.883C50.0937 343.727 49.8007 343.485 49.577 343.158C49.3532 342.832 49.2414 342.422 49.2414 341.928V333.858ZM56.6548 344.181C56.1364 344.181 55.6676 344.085 55.2486 343.893C54.8295 343.698 54.4975 343.416 54.2525 343.047C54.011 342.677 53.8903 342.224 53.8903 341.688C53.8903 341.227 53.979 340.847 54.1566 340.548C54.3342 340.25 54.5739 340.014 54.8757 339.84C55.1776 339.666 55.5149 339.534 55.8878 339.446C56.2607 339.357 56.6406 339.289 57.0277 339.243C57.5178 339.186 57.9155 339.14 58.2209 339.105C58.5263 339.066 58.7482 339.004 58.8867 338.918C59.0252 338.833 59.0945 338.695 59.0945 338.503V338.466C59.0945 338 58.9631 337.64 58.7003 337.384C58.4411 337.129 58.054 337.001 57.5391 337.001C57.0028 337.001 56.5803 337.12 56.2713 337.358C55.9659 337.592 55.7546 337.853 55.6374 338.141L54.1406 337.8C54.3182 337.303 54.5774 336.901 54.9183 336.596C55.2628 336.287 55.6587 336.063 56.1062 335.925C56.5536 335.783 57.0241 335.712 57.5178 335.712C57.8445 335.712 58.1907 335.751 58.5565 335.829C58.9258 335.903 59.2702 336.042 59.5898 336.244C59.913 336.447 60.1776 336.736 60.3835 337.113C60.5895 337.485 60.6925 337.97 60.6925 338.567V344H59.1371V342.881H59.0732C58.9702 343.087 58.8157 343.29 58.6097 343.489C58.4038 343.687 58.1392 343.853 57.8161 343.984C57.4929 344.115 57.1058 344.181 56.6548 344.181ZM57.0011 342.903C57.4414 342.903 57.8178 342.816 58.1303 342.642C58.4464 342.468 58.6861 342.24 58.8494 341.96C59.0163 341.676 59.0998 341.372 59.0998 341.049V339.994C59.043 340.051 58.9329 340.104 58.7695 340.154C58.6097 340.2 58.4268 340.241 58.2209 340.277C58.0149 340.309 57.8143 340.339 57.619 340.367C57.4237 340.392 57.2603 340.413 57.1289 340.431C56.82 340.47 56.5376 340.536 56.282 340.628C56.0298 340.721 55.8274 340.854 55.6747 341.028C55.5256 341.198 55.451 341.425 55.451 341.71C55.451 342.104 55.5966 342.402 55.8878 342.604C56.179 342.803 56.5501 342.903 57.0011 342.903ZM64.4065 333.091V344H62.8138V333.091H64.4065ZM70.6468 344V333.091H74.5352C75.384 333.091 76.0871 333.245 76.6446 333.554C77.2021 333.863 77.6194 334.286 77.8964 334.822C78.1734 335.355 78.3119 335.955 78.3119 336.623C78.3119 337.294 78.1716 337.897 77.8911 338.434C77.6141 338.966 77.195 339.389 76.634 339.701C76.0764 340.01 75.3751 340.165 74.5299 340.165H71.8559V338.769H74.3808C74.917 338.769 75.352 338.677 75.6858 338.492C76.0196 338.304 76.2646 338.048 76.4209 337.725C76.5771 337.402 76.6553 337.034 76.6553 336.623C76.6553 336.211 76.5771 335.845 76.4209 335.525C76.2646 335.206 76.0178 334.955 75.6805 334.774C75.3467 334.593 74.9063 334.502 74.3595 334.502H72.2927V344H70.6468ZM80.1136 344V335.818H81.6531V337.118H81.7383C81.8874 336.678 82.1502 336.331 82.5266 336.079C82.9066 335.824 83.3363 335.696 83.8157 335.696C83.9151 335.696 84.0323 335.699 84.1673 335.706C84.3058 335.713 84.4141 335.722 84.4922 335.733V337.256C84.4283 337.239 84.3146 337.219 84.1513 337.198C83.9879 337.173 83.8246 337.161 83.6612 337.161C83.2848 337.161 82.9492 337.24 82.6545 337.4C82.3633 337.556 82.1325 337.775 81.962 338.055C81.7915 338.332 81.7063 338.648 81.7063 339.004V344H80.1136ZM89.0239 344.165C88.2568 344.165 87.5874 343.989 87.0157 343.638C86.444 343.286 86.0001 342.794 85.684 342.162C85.368 341.53 85.21 340.792 85.21 339.946C85.21 339.098 85.368 338.355 85.684 337.72C86.0001 337.084 86.444 336.591 87.0157 336.239C87.5874 335.887 88.2568 335.712 89.0239 335.712C89.7909 335.712 90.4603 335.887 91.032 336.239C91.6038 336.591 92.0477 337.084 92.3637 337.72C92.6798 338.355 92.8378 339.098 92.8378 339.946C92.8378 340.792 92.6798 341.53 92.3637 342.162C92.0477 342.794 91.6038 343.286 91.032 343.638C90.4603 343.989 89.7909 344.165 89.0239 344.165ZM89.0292 342.828C89.5264 342.828 89.9383 342.697 90.265 342.434C90.5917 342.171 90.8332 341.821 90.9894 341.385C91.1492 340.948 91.2291 340.467 91.2291 339.941C91.2291 339.419 91.1492 338.94 90.9894 338.503C90.8332 338.062 90.5917 337.709 90.265 337.443C89.9383 337.176 89.5264 337.043 89.0292 337.043C88.5285 337.043 88.113 337.176 87.7828 337.443C87.4561 337.709 87.2128 338.062 87.053 338.503C86.8968 338.94 86.8186 339.419 86.8186 339.941C86.8186 340.467 86.8968 340.948 87.053 341.385C87.2128 341.821 87.4561 342.171 87.7828 342.434C88.113 342.697 88.5285 342.828 89.0292 342.828ZM98.5094 335.818V337.097H93.8858V335.818H98.5094ZM95.1536 344V334.87C95.1536 334.359 95.2654 333.934 95.4892 333.597C95.7129 333.256 96.0094 333.002 96.3787 332.835C96.748 332.665 97.1493 332.58 97.5826 332.58C97.9022 332.58 98.1756 332.606 98.4029 332.659C98.6301 332.709 98.7988 332.755 98.9089 332.798L98.536 334.087C98.4615 334.066 98.3656 334.041 98.2484 334.012C98.1312 333.98 97.9892 333.964 97.8223 333.964C97.4352 333.964 97.1582 334.06 96.9913 334.252C96.8279 334.444 96.7463 334.721 96.7463 335.083V344H95.1536ZM100.153 344V335.818H101.745V344H100.153ZM100.957 334.556C100.68 334.556 100.442 334.463 100.243 334.279C100.048 334.091 99.9503 333.867 99.9503 333.608C99.9503 333.345 100.048 333.121 100.243 332.936C100.442 332.748 100.68 332.654 100.957 332.654C101.234 332.654 101.47 332.748 101.665 332.936C101.864 333.121 101.964 333.345 101.964 333.608C101.964 333.867 101.864 334.091 101.665 334.279C101.47 334.463 101.234 334.556 100.957 334.556ZM107.707 335.818V337.097H103.238V335.818H107.707ZM104.437 333.858H106.029V341.598C106.029 341.907 106.076 342.139 106.168 342.295C106.26 342.448 106.379 342.553 106.525 342.61C106.674 342.663 106.835 342.69 107.009 342.69C107.137 342.69 107.249 342.681 107.345 342.663C107.441 342.645 107.516 342.631 107.569 342.62L107.856 343.936C107.764 343.972 107.633 344.007 107.462 344.043C107.292 344.082 107.079 344.103 106.823 344.107C106.404 344.114 106.013 344.039 105.651 343.883C105.289 343.727 104.996 343.485 104.772 343.158C104.549 342.832 104.437 342.422 104.437 341.928V333.858Z" fill="#2E263D" fill-opacity="0.9"/>
<path d="M212.347 345.364V331.727H213.22V345.364H212.347ZM215.287 335.818C215.223 335.278 214.964 334.859 214.509 334.561C214.055 334.263 213.497 334.114 212.837 334.114C212.354 334.114 211.931 334.192 211.569 334.348C211.21 334.504 210.93 334.719 210.727 334.993C210.528 335.266 210.429 335.577 210.429 335.925C210.429 336.216 210.498 336.466 210.637 336.676C210.779 336.882 210.96 337.054 211.18 337.192C211.4 337.327 211.631 337.439 211.873 337.528C212.114 337.613 212.336 337.683 212.538 337.736L213.646 338.034C213.93 338.109 214.246 338.212 214.594 338.343C214.946 338.474 215.282 338.654 215.601 338.881C215.924 339.105 216.191 339.392 216.4 339.744C216.61 340.096 216.714 340.527 216.714 341.038C216.714 341.628 216.56 342.161 216.251 342.636C215.946 343.112 215.498 343.49 214.909 343.771C214.323 344.051 213.611 344.192 212.773 344.192C211.991 344.192 211.315 344.066 210.743 343.814C210.175 343.561 209.728 343.21 209.401 342.759C209.078 342.308 208.895 341.784 208.852 341.188H210.216C210.251 341.599 210.39 341.94 210.631 342.21C210.876 342.477 211.185 342.675 211.558 342.807C211.935 342.935 212.339 342.999 212.773 342.999C213.277 342.999 213.73 342.917 214.131 342.754C214.532 342.587 214.85 342.356 215.085 342.061C215.319 341.763 215.436 341.415 215.436 341.017C215.436 340.655 215.335 340.36 215.132 340.133C214.93 339.906 214.664 339.721 214.333 339.579C214.003 339.437 213.646 339.312 213.263 339.206L211.92 338.822C211.068 338.577 210.393 338.228 209.896 337.773C209.399 337.319 209.151 336.724 209.151 335.989C209.151 335.378 209.316 334.845 209.646 334.391C209.98 333.933 210.427 333.577 210.988 333.325C211.553 333.07 212.183 332.942 212.879 332.942C213.582 332.942 214.207 333.068 214.754 333.32C215.301 333.569 215.734 333.909 216.054 334.343C216.377 334.776 216.548 335.268 216.565 335.818H215.287ZM218.695 344V343.041L222.296 339.099C222.718 338.638 223.066 338.237 223.34 337.896C223.613 337.551 223.815 337.228 223.947 336.926C224.082 336.621 224.149 336.301 224.149 335.967C224.149 335.584 224.057 335.252 223.872 334.971C223.691 334.691 223.443 334.474 223.127 334.321C222.81 334.169 222.455 334.092 222.061 334.092C221.642 334.092 221.276 334.179 220.964 334.353C220.655 334.524 220.415 334.763 220.245 335.072C220.078 335.381 219.994 335.744 219.994 336.159H218.737C218.737 335.52 218.885 334.959 219.179 334.476C219.474 333.993 219.875 333.616 220.383 333.347C220.895 333.077 221.468 332.942 222.104 332.942C222.743 332.942 223.309 333.077 223.803 333.347C224.297 333.616 224.684 333.98 224.964 334.439C225.245 334.897 225.385 335.406 225.385 335.967C225.385 336.369 225.312 336.761 225.167 337.145C225.025 337.525 224.776 337.949 224.421 338.418C224.069 338.883 223.581 339.451 222.956 340.122L220.506 342.743V342.828H225.577V344H218.695ZM228.118 344L232.997 334.348V334.263H227.372V333.091H234.361V334.327L229.503 344H228.118ZM235.409 344.085C235.146 344.085 234.92 343.991 234.732 343.803C234.544 343.615 234.45 343.389 234.45 343.126C234.45 342.864 234.544 342.638 234.732 342.45C234.92 342.262 235.146 342.168 235.409 342.168C235.671 342.168 235.897 342.262 236.085 342.45C236.273 342.638 236.367 342.864 236.367 343.126C236.367 343.3 236.323 343.46 236.234 343.606C236.149 343.751 236.034 343.869 235.888 343.957C235.746 344.043 235.586 344.085 235.409 344.085ZM241.843 344.149C241.396 344.142 240.948 344.057 240.501 343.893C240.053 343.73 239.645 343.455 239.276 343.068C238.906 342.677 238.61 342.15 238.386 341.486C238.162 340.818 238.051 339.98 238.051 338.972C238.051 338.006 238.141 337.15 238.322 336.404C238.503 335.655 238.766 335.025 239.111 334.513C239.455 333.998 239.871 333.608 240.357 333.341C240.847 333.075 241.399 332.942 242.014 332.942C242.624 332.942 243.168 333.064 243.644 333.309C244.123 333.551 244.514 333.888 244.816 334.321C245.117 334.755 245.313 335.254 245.401 335.818H244.102C243.981 335.328 243.747 334.922 243.399 334.598C243.051 334.275 242.589 334.114 242.014 334.114C241.169 334.114 240.503 334.481 240.016 335.216C239.533 335.951 239.29 336.983 239.286 338.311H239.372C239.57 338.009 239.807 337.752 240.08 337.539C240.357 337.322 240.662 337.155 240.996 337.038C241.33 336.921 241.683 336.862 242.056 336.862C242.681 336.862 243.253 337.018 243.771 337.331C244.29 337.64 244.705 338.068 245.018 338.615C245.33 339.158 245.487 339.781 245.487 340.484C245.487 341.159 245.336 341.777 245.034 342.338C244.732 342.896 244.308 343.339 243.761 343.67C243.218 343.996 242.578 344.156 241.843 344.149ZM241.843 342.977C242.291 342.977 242.692 342.865 243.047 342.642C243.406 342.418 243.688 342.118 243.894 341.741C244.104 341.365 244.208 340.946 244.208 340.484C244.208 340.033 244.107 339.623 243.905 339.254C243.706 338.881 243.431 338.585 243.079 338.364C242.731 338.144 242.333 338.034 241.886 338.034C241.548 338.034 241.234 338.102 240.943 338.237C240.652 338.368 240.396 338.549 240.176 338.78C239.959 339.011 239.789 339.275 239.665 339.574C239.54 339.868 239.478 340.179 239.478 340.506C239.478 340.939 239.579 341.344 239.782 341.72C239.988 342.097 240.268 342.4 240.623 342.631C240.982 342.862 241.389 342.977 241.843 342.977ZM248.775 341.017L248.753 339.462H249.009L252.589 335.818H254.144L250.33 339.675H250.223L248.775 341.017ZM247.603 344V333.091H248.86V344H247.603ZM252.802 344L249.606 339.952L250.5 339.078L254.4 344H252.802Z" fill="#2E263D" fill-opacity="0.7"/>
<path d="M280.154 341.869V340.538L284.868 333.091H285.917V335.051H285.251L281.88 340.388V340.474H288.341V341.869H280.154ZM285.326 344V341.464L285.337 340.857V333.091H286.897V344H285.326ZM290.197 344V342.807L293.889 338.982C294.283 338.567 294.608 338.203 294.863 337.89C295.123 337.574 295.316 337.274 295.444 336.99C295.572 336.706 295.636 336.404 295.636 336.085C295.636 335.722 295.551 335.41 295.38 335.147C295.21 334.881 294.977 334.676 294.682 334.534C294.388 334.389 294.055 334.316 293.686 334.316C293.296 334.316 292.955 334.396 292.663 334.556C292.372 334.716 292.149 334.941 291.992 335.232C291.836 335.523 291.758 335.864 291.758 336.255H290.187C290.187 335.591 290.339 335.01 290.645 334.513C290.95 334.016 291.369 333.631 291.902 333.357C292.434 333.08 293.04 332.942 293.718 332.942C294.404 332.942 295.007 333.078 295.529 333.352C296.055 333.622 296.465 333.991 296.76 334.46C297.054 334.925 297.202 335.451 297.202 336.037C297.202 336.441 297.125 336.837 296.973 337.224C296.824 337.612 296.563 338.043 296.19 338.519C295.817 338.991 295.298 339.565 294.634 340.239L292.466 342.509V342.588H297.378V344H290.197ZM305.091 341.955V341.379C305.091 340.967 305.176 340.591 305.346 340.25C305.52 339.906 305.772 339.63 306.103 339.424C306.437 339.215 306.84 339.11 307.312 339.11C307.795 339.11 308.2 339.213 308.526 339.419C308.853 339.625 309.1 339.9 309.267 340.245C309.437 340.589 309.522 340.967 309.522 341.379V341.955C309.522 342.366 309.437 342.745 309.267 343.089C309.096 343.43 308.846 343.705 308.516 343.915C308.189 344.121 307.788 344.224 307.312 344.224C306.832 344.224 306.428 344.121 306.097 343.915C305.767 343.705 305.517 343.43 305.346 343.089C305.176 342.745 305.091 342.366 305.091 341.955ZM306.332 341.379V341.955C306.332 342.26 306.405 342.537 306.55 342.786C306.696 343.034 306.95 343.158 307.312 343.158C307.671 343.158 307.921 343.034 308.063 342.786C308.205 342.537 308.276 342.26 308.276 341.955V341.379C308.276 341.074 308.207 340.797 308.068 340.548C307.933 340.3 307.681 340.175 307.312 340.175C306.957 340.175 306.705 340.3 306.555 340.548C306.406 340.797 306.332 341.074 306.332 341.379ZM299.604 335.712V335.136C299.604 334.724 299.689 334.346 299.86 334.002C300.034 333.657 300.286 333.382 300.616 333.176C300.95 332.97 301.353 332.867 301.825 332.867C302.308 332.867 302.713 332.97 303.04 333.176C303.367 333.382 303.613 333.657 303.78 334.002C303.947 334.346 304.031 334.724 304.031 335.136V335.712C304.031 336.124 303.945 336.502 303.775 336.846C303.608 337.187 303.359 337.462 303.029 337.672C302.703 337.878 302.301 337.981 301.825 337.981C301.342 337.981 300.936 337.878 300.606 337.672C300.279 337.462 300.03 337.187 299.86 336.846C299.689 336.502 299.604 336.124 299.604 335.712ZM300.851 335.136V335.712C300.851 336.017 300.922 336.294 301.064 336.543C301.209 336.791 301.463 336.915 301.825 336.915C302.18 336.915 302.429 336.791 302.571 336.543C302.717 336.294 302.79 336.017 302.79 335.712V335.136C302.79 334.831 302.72 334.554 302.582 334.305C302.443 334.057 302.191 333.933 301.825 333.933C301.47 333.933 301.218 334.057 301.069 334.305C300.923 334.554 300.851 334.831 300.851 335.136ZM300.11 344L307.61 333.091H308.883L301.383 344H300.11Z" fill="#2E263D" fill-opacity="0.9"/>
<path d="M339.333 337.828L334.383 342.778L332.969 341.364L339.333 335L345.697 341.364L344.283 342.778L339.333 337.828Z" fill="#56CA00"/>
<line x1="30" y1="73.5" x2="351.333" y2="73.5" stroke="#2E263D" stroke-opacity="0.12" stroke-dasharray="10 10"/>
<line x1="30" y1="106.5" x2="351.333" y2="106.5" stroke="#2E263D" stroke-opacity="0.12" stroke-dasharray="10 10"/>
<line x1="30" y1="139.5" x2="351.333" y2="139.5" stroke="#2E263D" stroke-opacity="0.12" stroke-dasharray="10 10"/>
<line x1="30" y1="172.5" x2="351.333" y2="172.5" stroke="#2E263D" stroke-opacity="0.12" stroke-dasharray="10 10"/>
<line x1="30" y1="205.5" x2="351.333" y2="205.5" stroke="#2E263D" stroke-opacity="0.12" stroke-dasharray="10 10"/>
<line x1="30" y1="238.5" x2="351.333" y2="238.5" stroke="#2E263D" stroke-opacity="0.12" stroke-dasharray="10 10"/>
<rect x="44.6665" y="192" width="10.3991" height="47" rx="5.19957" fill="#56CA00"/>
<rect x="44.6665" y="159" width="10.3991" height="27" rx="5.19957" fill="#8A8D93"/>
<rect x="91.4626" y="205" width="10.3991" height="34" rx="5.19957" fill="#56CA00"/>
<rect x="91.4626" y="165" width="10.3991" height="34" rx="5.19957" fill="#8A8D93"/>
<rect x="91.4626" y="116" width="10.3991" height="43" rx="5.19957" fill="#FFB400"/>
<rect x="138.259" y="192" width="10.3991" height="47" rx="5.19957" fill="#56CA00"/>
<rect x="138.259" y="158" width="10.3991" height="28" rx="5.19957" fill="#8A8D93"/>
<rect x="185.055" y="185" width="10.3991" height="54" rx="5.19957" fill="#56CA00"/>
<rect x="231.851" y="194" width="10.3991" height="45" rx="5.19957" fill="#56CA00"/>
<rect x="231.851" y="162" width="10.3991" height="26" rx="5.19957" fill="#8A8D93"/>
<rect x="231.851" y="122" width="10.3991" height="34" rx="5.19957" fill="#FFB400"/>
<rect x="278.647" y="130" width="10.3991" height="109" rx="5.19957" fill="#56CA00"/>
<rect x="278.647" y="96" width="10.3991" height="26" rx="5.19957" fill="#8A8D93"/>
<rect x="325.443" y="192" width="10.3991" height="47" rx="5.19957" fill="#56CA00"/>
<rect x="325.443" y="158" width="10.3991" height="27" rx="5.19957" fill="#8A8D93"/>
<rect x="325.443" y="125" width="10.3991" height="26" rx="5.19957" fill="#FFB400"/>
</g>
<defs>
<filter id="filter0_d_8003_4707" x="0" y="0" width="381.333" height="385" filterUnits="userSpaceOnUse" color-interpolation-filters="sRGB">
<feFlood flood-opacity="0" result="BackgroundImageFix"/>
<feColorMatrix in="SourceAlpha" type="matrix" values="0 0 0 0 0 0 0 0 0 0 0 0 0 0 0 0 0 0 127 0" result="hardAlpha"/>
<feOffset dy="4"/>
<feGaussianBlur stdDeviation="5"/>
<feComposite in2="hardAlpha" operator="out"/>
<feColorMatrix type="matrix" values="0 0 0 0 0.180392 0 0 0 0 0.14902 0 0 0 0 0.239216 0 0 0 0.2 0"/>
<feBlend mode="normal" in2="BackgroundImageFix" result="effect1_dropShadow_8003_4707"/>
<feBlend mode="normal" in="SourceGraphic" in2="effect1_dropShadow_8003_4707" result="shape"/>
</filter>
</defs>
</svg>
