<svg width="285" height="370" viewBox="0 0 285 370" fill="none" xmlns="http://www.w3.org/2000/svg">
<g filter="url(#filter0_d_8003_4444)">
<path d="M10 12C10 8.68628 12.6863 6 16 6H269C272.314 6 275 8.68629 275 12V350C275 353.314 272.314 356 269 356H16C12.6863 356 10 353.314 10 350V12Z" fill="white" shape-rendering="crispEdges"/>
<path d="M32.544 47H30.4474L35.1584 33.9091H37.4403L42.1513 47H40.0547L36.3537 36.2869H36.2514L32.544 47ZM32.8956 41.8736H39.6967V43.5355H32.8956V41.8736ZM45.7995 41.1705V47H43.8883V37.1818H45.7228V38.7798H45.8443C46.0701 38.2599 46.4238 37.8423 46.9054 37.527C47.3912 37.2116 48.0027 37.054 48.7399 37.054C49.4089 37.054 49.9949 37.1946 50.4977 37.4759C51.0005 37.7528 51.3904 38.1662 51.6674 38.7159C51.9444 39.2656 52.0829 39.9453 52.0829 40.755V47H50.1717V40.9851C50.1717 40.2734 49.9863 39.7173 49.6156 39.3168C49.2449 38.9119 48.7356 38.7095 48.0879 38.7095C47.6447 38.7095 47.2505 38.8054 46.9054 38.9972C46.5645 39.1889 46.2939 39.4702 46.0936 39.8409C45.8975 40.2074 45.7995 40.6506 45.7995 41.1705ZM57.5034 47.2173C56.8812 47.2173 56.3187 47.1023 55.8159 46.8722C55.313 46.6378 54.9146 46.299 54.6206 45.8558C54.3308 45.4126 54.1859 44.8693 54.1859 44.2259C54.1859 43.6719 54.2924 43.2159 54.5055 42.858C54.7186 42.5 55.0062 42.2166 55.3684 42.0078C55.7306 41.799 56.1355 41.6413 56.5829 41.5348C57.0304 41.4283 57.4863 41.3473 57.9508 41.2919C58.5389 41.2237 59.0162 41.1683 59.3826 41.1257C59.7491 41.0788 60.0154 41.0043 60.1816 40.902C60.3478 40.7997 60.4309 40.6335 60.4309 40.4034V40.3587C60.4309 39.8004 60.2733 39.3679 59.9579 39.0611C59.6468 38.7543 59.1824 38.6009 58.5645 38.6009C57.921 38.6009 57.4139 38.7436 57.0431 39.0291C56.6767 39.3104 56.4231 39.6236 56.2825 39.9688L54.4863 39.5597C54.6994 38.9631 55.0105 38.4815 55.4196 38.1151C55.8329 37.7443 56.3081 37.4759 56.845 37.3097C57.3819 37.1392 57.9466 37.054 58.5389 37.054C58.9309 37.054 59.3464 37.1009 59.7853 37.1946C60.2285 37.2841 60.6419 37.4503 61.0254 37.6932C61.4132 37.9361 61.7306 38.2834 61.9778 38.7351C62.225 39.1825 62.3485 39.7642 62.3485 40.4801V47H60.4821V45.6577H60.4054C60.2818 45.9048 60.0964 46.1477 59.8493 46.3864C59.6021 46.625 59.2846 46.8232 58.8968 46.9808C58.5091 47.1385 58.0446 47.2173 57.5034 47.2173ZM57.9189 45.6832C58.4473 45.6832 58.899 45.5788 59.274 45.37C59.6532 45.1612 59.9409 44.8885 60.1369 44.5518C60.3372 44.2109 60.4373 43.8466 60.4373 43.4588V42.1932C60.3691 42.2614 60.237 42.3253 60.041 42.3849C59.8493 42.4403 59.6298 42.4893 59.3826 42.532C59.1355 42.5703 58.8947 42.6065 58.6603 42.6406C58.426 42.6705 58.2299 42.696 58.0723 42.7173C57.7015 42.7642 57.3627 42.843 57.0559 42.9538C56.7534 43.0646 56.5105 43.2244 56.3272 43.4332C56.1483 43.6378 56.0588 43.9105 56.0588 44.2514C56.0588 44.7244 56.2335 45.0824 56.5829 45.3253C56.9324 45.5639 57.3777 45.6832 57.9189 45.6832ZM66.8054 33.9091V47H64.8942V33.9091H66.8054ZM70.5847 50.6818C70.2992 50.6818 70.0392 50.6584 69.8049 50.6115C69.5705 50.5689 69.3958 50.522 69.2807 50.4709L69.7409 48.9048C70.0904 48.9986 70.4015 49.0391 70.6742 49.0263C70.9469 49.0135 71.1877 48.9112 71.3965 48.7195C71.6096 48.5277 71.7971 48.2145 71.959 47.7798L72.1955 47.1278L68.6032 37.1818H70.6486L73.1351 44.8011H73.2374L75.7239 37.1818H77.7757L73.7296 48.3104C73.5421 48.8217 73.3034 49.2543 73.0137 49.608C72.7239 49.9659 72.3787 50.2344 71.9782 50.4134C71.5776 50.5923 71.1131 50.6818 70.5847 50.6818ZM84.155 37.1818V38.7159H78.7921V37.1818H84.155ZM80.2303 34.8295H82.1415V44.1172C82.1415 44.4879 82.1969 44.767 82.3077 44.9545C82.4185 45.1378 82.5613 45.2635 82.736 45.3317C82.915 45.3956 83.1088 45.4276 83.3176 45.4276C83.4711 45.4276 83.6053 45.4169 83.7203 45.3956C83.8354 45.3743 83.9249 45.3572 83.9888 45.3445L84.334 46.9233C84.2232 46.9659 84.0655 47.0085 83.861 47.0511C83.6564 47.098 83.4007 47.1236 83.0939 47.1278C82.5911 47.1364 82.1223 47.0469 81.6877 46.8594C81.253 46.6719 80.9015 46.3821 80.633 45.9901C80.3645 45.598 80.2303 45.1058 80.2303 44.5135V34.8295ZM86.2692 47V37.1818H88.1804V47H86.2692ZM87.2344 35.6669C86.902 35.6669 86.6165 35.5561 86.3778 35.3345C86.1435 35.1087 86.0263 34.8402 86.0263 34.5291C86.0263 34.2138 86.1435 33.9453 86.3778 33.7237C86.6165 33.4979 86.902 33.3849 87.2344 33.3849C87.5668 33.3849 87.8501 33.4979 88.0845 33.7237C88.3232 33.9453 88.4425 34.2138 88.4425 34.5291C88.4425 34.8402 88.3232 35.1087 88.0845 35.3345C87.8501 35.5561 87.5668 35.6669 87.2344 35.6669ZM94.8873 47.1982C93.937 47.1982 93.1188 46.983 92.4327 46.5526C91.7509 46.1179 91.2267 45.5192 90.8603 44.7564C90.4938 43.9936 90.3105 43.12 90.3105 42.1357C90.3105 41.1385 90.498 40.2585 90.873 39.4957C91.248 38.7287 91.7765 38.13 92.4583 37.6996C93.1401 37.2692 93.9434 37.054 94.8681 37.054C95.6138 37.054 96.2786 37.1925 96.8624 37.4695C97.4462 37.7422 97.9171 38.1257 98.275 38.62C98.6373 39.1143 98.8525 39.6918 98.9206 40.3523H97.0605C96.9583 39.892 96.7239 39.4957 96.3574 39.1634C95.9952 38.831 95.5094 38.6648 94.9 38.6648C94.3674 38.6648 93.9007 38.8054 93.5002 39.0866C93.1039 39.3636 92.7949 39.7599 92.5733 40.2756C92.3517 40.7869 92.2409 41.392 92.2409 42.0909C92.2409 42.8068 92.3496 43.4247 92.5669 43.9446C92.7843 44.4645 93.0911 44.8672 93.4874 45.1527C93.888 45.4382 94.3588 45.581 94.9 45.581C95.2623 45.581 95.5904 45.5149 95.8844 45.3828C96.1827 45.2464 96.432 45.0526 96.6323 44.8011C96.8368 44.5497 96.9796 44.2472 97.0605 43.8935H98.9206C98.8525 44.5284 98.6458 45.0952 98.3006 45.5938C97.9554 46.0923 97.4931 46.4844 96.9135 46.7699C96.3382 47.0554 95.6628 47.1982 94.8873 47.1982ZM108.322 39.5788L106.589 39.8857C106.517 39.6641 106.402 39.4531 106.244 39.2528C106.091 39.0526 105.882 38.8885 105.618 38.7607C105.354 38.6328 105.023 38.5689 104.627 38.5689C104.086 38.5689 103.634 38.6903 103.272 38.9332C102.91 39.1719 102.729 39.4808 102.729 39.8601C102.729 40.1882 102.85 40.4524 103.093 40.6527C103.336 40.853 103.728 41.017 104.269 41.1449L105.829 41.5028C106.732 41.7116 107.406 42.0334 107.849 42.468C108.292 42.9027 108.513 43.4673 108.513 44.1619C108.513 44.75 108.343 45.2741 108.002 45.7344C107.665 46.1903 107.195 46.5483 106.589 46.8082C105.989 47.0682 105.292 47.1982 104.499 47.1982C103.4 47.1982 102.503 46.9638 101.808 46.495C101.114 46.022 100.688 45.3509 100.53 44.4815L102.377 44.2003C102.492 44.6818 102.729 45.0462 103.087 45.2933C103.445 45.5362 103.911 45.6577 104.487 45.6577C105.113 45.6577 105.614 45.5277 105.989 45.2678C106.364 45.0036 106.551 44.6818 106.551 44.3026C106.551 43.9957 106.436 43.7379 106.206 43.5291C105.98 43.3203 105.633 43.1626 105.164 43.0561L103.502 42.6918C102.586 42.483 101.908 42.1506 101.469 41.6946C101.035 41.2386 100.817 40.6612 100.817 39.9624C100.817 39.3828 100.979 38.8757 101.303 38.4411C101.627 38.0064 102.075 37.6676 102.646 37.4247C103.217 37.1776 103.871 37.054 104.608 37.054C105.669 37.054 106.504 37.2841 107.114 37.7443C107.723 38.2003 108.126 38.8118 108.322 39.5788Z" fill="#2E263D" fill-opacity="0.9"/>
<path d="M243 29C242.175 29 241.5 29.675 241.5 30.5C241.5 31.325 242.175 32 243 32C243.825 32 244.5 31.325 244.5 30.5C244.5 29.675 243.825 29 243 29ZM243 44C242.175 44 241.5 44.675 241.5 45.5C241.5 46.325 242.175 47 243 47C243.825 47 244.5 46.325 244.5 45.5C244.5 44.675 243.825 44 243 44ZM243 36.5C242.175 36.5 241.5 37.175 241.5 38C241.5 38.825 242.175 39.5 243 39.5C243.825 39.5 244.5 38.825 244.5 38C244.5 37.175 243.825 36.5 243 36.5Z" fill="#2E263D" fill-opacity="0.9"/>
<rect x="30" y="77.75" width="40" height="40" rx="20" fill="#8C57FF" fill-opacity="0.16"/>
<path d="M49.9999 107.75C49.1249 107.752 48.2853 107.394 47.6666 106.756L41.0202 99.9C38.4672 97.2657 38.3151 93.0466 40.6713 90.224C43.0274 87.4013 47.095 86.9297 49.9999 89.1425C52.9048 86.9295 56.9725 87.401 59.3288 90.2238C61.685 93.0466 61.5328 97.2658 58.9796 99.9001L52.3331 106.755C51.7145 107.393 50.8749 107.751 49.9999 107.75Z" fill="#9155FD"/>
<path d="M52.6667 98.75H47.3333C46.597 98.75 46 98.3023 46 97.75C46 97.1977 46.597 96.75 47.3333 96.75H52.6667C53.403 96.75 54 97.1977 54 97.75C54 98.3023 53.403 98.75 52.6667 98.75Z" fill="#B992FE"/>
<path d="M50 101.75C49.7348 101.75 49.4804 101.61 49.2928 101.36C49.1053 101.11 48.9999 100.77 49 100.417V95.0833C49 94.347 49.4477 93.75 50 93.75C50.5523 93.75 51 94.347 51 95.0833V100.417C51.0001 100.77 50.8947 101.11 50.7072 101.36C50.5196 101.61 50.2652 101.75 50 101.75Z" fill="#B992FE"/>
<path d="M86.9844 91.1932V89.5952L92.6413 80.6591H93.9006V83.0114H93.1016L89.0554 89.4162V89.5185H96.8089V91.1932H86.9844ZM93.1911 93.75V90.7074L93.2038 89.9787V80.6591H95.0767V93.75H93.1911ZM99.0366 93.75V92.3182L103.466 87.7287C103.939 87.2301 104.329 86.7933 104.636 86.4183C104.947 86.0391 105.179 85.679 105.333 85.3381C105.486 84.9972 105.563 84.6349 105.563 84.2514C105.563 83.8168 105.461 83.4418 105.256 83.1264C105.051 82.8068 104.772 82.5618 104.419 82.3913C104.065 82.2166 103.667 82.1293 103.223 82.1293C102.755 82.1293 102.346 82.2251 101.996 82.4169C101.647 82.6087 101.378 82.8793 101.191 83.2287C101.003 83.5781 100.909 83.9872 100.909 84.456H99.0238C99.0238 83.6591 99.207 82.9624 99.5735 82.3658C99.94 81.7692 100.443 81.3068 101.082 80.9787C101.721 80.6463 102.448 80.4801 103.262 80.4801C104.084 80.4801 104.809 80.6442 105.435 80.9723C106.066 81.2962 106.558 81.7393 106.912 82.3018C107.265 82.8601 107.442 83.4908 107.442 84.1939C107.442 84.6797 107.35 85.1548 107.167 85.6193C106.988 86.0838 106.675 86.6016 106.228 87.1726C105.78 87.7393 105.158 88.4276 104.361 89.2372L101.76 91.9602V92.0561H107.653V93.75H99.0366ZM111.36 93.8714C111.011 93.8714 110.711 93.7479 110.459 93.5007C110.208 93.2493 110.082 92.9467 110.082 92.593C110.082 92.2436 110.208 91.9453 110.459 91.6982C110.711 91.4467 111.011 91.321 111.36 91.321C111.71 91.321 112.01 91.4467 112.262 91.6982C112.513 91.9453 112.639 92.2436 112.639 92.593C112.639 92.8274 112.579 93.0426 112.46 93.2386C112.345 93.4304 112.191 93.5838 112 93.6989C111.808 93.8139 111.595 93.8714 111.36 93.8714ZM119.157 93.929C118.241 93.929 117.431 93.7713 116.728 93.456C116.029 93.1406 115.482 92.706 115.085 92.152C114.689 91.598 114.493 90.9673 114.497 90.2599C114.493 89.706 114.606 89.1967 114.836 88.7322C115.07 88.2635 115.388 87.8736 115.789 87.5625C116.189 87.2472 116.637 87.0469 117.131 86.9616V86.8849C116.479 86.7273 115.957 86.3778 115.565 85.8366C115.173 85.2955 114.979 84.6733 114.983 83.9702C114.979 83.3011 115.156 82.7045 115.514 82.1804C115.876 81.652 116.372 81.2365 117.003 80.9339C117.634 80.6314 118.352 80.4801 119.157 80.4801C119.954 80.4801 120.666 80.6335 121.292 80.9403C121.923 81.2429 122.419 81.6584 122.781 82.1868C123.144 82.7109 123.327 83.3054 123.331 83.9702C123.327 84.6733 123.127 85.2955 122.73 85.8366C122.334 86.3778 121.818 86.7273 121.183 86.8849V86.9616C121.673 87.0469 122.115 87.2472 122.507 87.5625C122.903 87.8736 123.218 88.2635 123.453 88.7322C123.691 89.1967 123.813 89.706 123.817 90.2599C123.813 90.9673 123.612 91.598 123.216 92.152C122.82 92.706 122.27 93.1406 121.567 93.456C120.868 93.7713 120.065 93.929 119.157 93.929ZM119.157 92.3118C119.698 92.3118 120.167 92.2223 120.563 92.0433C120.96 91.8601 121.267 91.6065 121.484 91.2827C121.701 90.9545 121.812 90.571 121.816 90.1321C121.812 89.6761 121.693 89.2734 121.458 88.924C121.228 88.5746 120.915 88.2997 120.519 88.0994C120.122 87.8991 119.669 87.799 119.157 87.799C118.642 87.799 118.183 87.8991 117.783 88.0994C117.382 88.2997 117.067 88.5746 116.837 88.924C116.607 89.2734 116.494 89.6761 116.498 90.1321C116.494 90.571 116.598 90.9545 116.811 91.2827C117.029 91.6065 117.338 91.8601 117.738 92.0433C118.139 92.2223 118.612 92.3118 119.157 92.3118ZM119.157 86.2202C119.592 86.2202 119.977 86.1328 120.314 85.9581C120.651 85.7834 120.915 85.5405 121.107 85.2294C121.303 84.9183 121.403 84.554 121.407 84.1364C121.403 83.7273 121.305 83.3693 121.113 83.0625C120.926 82.7557 120.664 82.5192 120.327 82.353C119.99 82.1825 119.6 82.0973 119.157 82.0973C118.705 82.0973 118.309 82.1825 117.968 82.353C117.632 82.5192 117.369 82.7557 117.182 83.0625C116.994 83.3693 116.903 83.7273 116.907 84.1364C116.903 84.554 116.997 84.9183 117.188 85.2294C117.38 85.5405 117.644 85.7834 117.981 85.9581C118.322 86.1328 118.714 86.2202 119.157 86.2202ZM127.89 90.4197L127.877 88.0866H128.21L132.122 83.9318H134.41L129.949 88.6619H129.648L127.89 90.4197ZM126.132 93.75V80.6591H128.044V93.75H126.132ZM132.333 93.75L128.817 89.0838L130.134 87.7479L134.679 93.75H132.333Z" fill="#2E263D" fill-opacity="0.9"/>
<path d="M95.9716 105.841V116.75H94.6932L88.7486 108.185H88.642V116.75H87.321V105.841H88.5994L94.5653 114.428H94.6719V105.841H95.9716ZM103.601 113.405V108.568H104.858V116.75H103.601V115.365H103.516C103.324 115.781 103.025 116.134 102.621 116.425C102.216 116.713 101.704 116.857 101.087 116.857C100.575 116.857 100.121 116.745 99.7229 116.521C99.3252 116.294 99.0127 115.953 98.7854 115.498C98.5581 115.04 98.4445 114.463 98.4445 113.767V108.568H99.7016V113.682C99.7016 114.278 99.8685 114.754 100.202 115.109C100.54 115.464 100.969 115.642 101.491 115.642C101.804 115.642 102.122 115.562 102.445 115.402C102.772 115.243 103.045 114.998 103.265 114.667C103.489 114.337 103.601 113.916 103.601 113.405ZM107.16 116.75V108.568H108.375V109.847H108.481C108.652 109.41 108.927 109.071 109.307 108.829C109.687 108.584 110.143 108.462 110.676 108.462C111.216 108.462 111.665 108.584 112.024 108.829C112.386 109.071 112.668 109.41 112.871 109.847H112.956C113.165 109.424 113.48 109.088 113.899 108.84C114.318 108.588 114.82 108.462 115.406 108.462C116.138 108.462 116.736 108.691 117.201 109.149C117.666 109.603 117.899 110.312 117.899 111.274V116.75H116.642V111.274C116.642 110.67 116.477 110.239 116.146 109.98C115.816 109.721 115.427 109.591 114.98 109.591C114.405 109.591 113.959 109.765 113.643 110.113C113.327 110.457 113.169 110.894 113.169 111.423V116.75H111.89V111.146C111.89 110.681 111.74 110.306 111.438 110.022C111.136 109.735 110.747 109.591 110.271 109.591C109.944 109.591 109.639 109.678 109.355 109.852C109.074 110.026 108.847 110.267 108.673 110.576C108.503 110.882 108.417 111.235 108.417 111.636V116.75H107.16ZM120.368 116.75V105.841H121.625V109.868H121.732C121.824 109.726 121.952 109.545 122.115 109.325C122.282 109.101 122.52 108.902 122.829 108.728C123.141 108.55 123.564 108.462 124.097 108.462C124.786 108.462 125.393 108.634 125.918 108.978C126.444 109.323 126.854 109.811 127.149 110.443C127.444 111.075 127.591 111.821 127.591 112.68C127.591 113.547 127.444 114.298 127.149 114.934C126.854 115.566 126.446 116.056 125.924 116.404C125.402 116.748 124.8 116.92 124.118 116.92C123.592 116.92 123.172 116.833 122.855 116.659C122.539 116.482 122.296 116.281 122.126 116.058C121.955 115.83 121.824 115.642 121.732 115.493H121.582V116.75H120.368ZM121.604 112.659C121.604 113.277 121.694 113.822 121.875 114.294C122.056 114.763 122.321 115.131 122.669 115.397C123.017 115.66 123.443 115.791 123.947 115.791C124.473 115.791 124.912 115.653 125.263 115.376C125.618 115.095 125.885 114.719 126.062 114.246C126.243 113.771 126.334 113.241 126.334 112.659C126.334 112.084 126.245 111.565 126.067 111.104C125.893 110.638 125.629 110.271 125.274 110.001C124.922 109.728 124.48 109.591 123.947 109.591C123.436 109.591 123.006 109.721 122.658 109.98C122.31 110.235 122.048 110.594 121.87 111.056C121.692 111.514 121.604 112.048 121.604 112.659ZM132.944 116.92C132.156 116.92 131.476 116.746 130.904 116.398C130.336 116.047 129.897 115.557 129.588 114.928C129.283 114.296 129.13 113.561 129.13 112.723C129.13 111.885 129.283 111.146 129.588 110.507C129.897 109.864 130.327 109.364 130.877 109.005C131.431 108.643 132.078 108.462 132.816 108.462C133.243 108.462 133.663 108.533 134.079 108.675C134.494 108.817 134.873 109.048 135.213 109.367C135.554 109.683 135.826 110.102 136.028 110.624C136.231 111.146 136.332 111.789 136.332 112.553V113.085H130.025V111.999H135.054C135.054 111.537 134.961 111.125 134.777 110.763C134.596 110.401 134.336 110.115 133.999 109.905C133.665 109.696 133.271 109.591 132.816 109.591C132.316 109.591 131.882 109.715 131.517 109.964C131.154 110.209 130.876 110.528 130.68 110.923C130.485 111.317 130.387 111.739 130.387 112.19V112.915C130.387 113.533 130.494 114.056 130.707 114.486C130.924 114.912 131.224 115.237 131.607 115.461C131.991 115.681 132.436 115.791 132.944 115.791C133.275 115.791 133.573 115.745 133.839 115.653C134.109 115.557 134.342 115.415 134.537 115.227C134.732 115.035 134.883 114.797 134.99 114.513L136.204 114.854C136.076 115.266 135.862 115.628 135.56 115.94C135.258 116.249 134.885 116.491 134.441 116.665C133.997 116.835 133.498 116.92 132.944 116.92ZM138.244 116.75V108.568H139.459V109.804H139.544C139.693 109.399 139.963 109.071 140.354 108.819C140.744 108.566 141.185 108.44 141.675 108.44C141.767 108.44 141.882 108.442 142.021 108.446C142.159 108.449 142.264 108.455 142.335 108.462V109.74C142.293 109.729 142.195 109.713 142.042 109.692C141.893 109.667 141.735 109.655 141.568 109.655C141.17 109.655 140.815 109.738 140.503 109.905C140.194 110.069 139.949 110.296 139.768 110.587C139.59 110.875 139.501 111.203 139.501 111.572V116.75H138.244ZM151.368 116.92C150.629 116.92 149.981 116.745 149.424 116.393C148.87 116.042 148.437 115.55 148.124 114.918C147.815 114.286 147.661 113.547 147.661 112.702C147.661 111.849 147.815 111.105 148.124 110.47C148.437 109.834 148.87 109.341 149.424 108.989C149.981 108.637 150.629 108.462 151.368 108.462C152.107 108.462 152.753 108.637 153.307 108.989C153.864 109.341 154.298 109.834 154.607 110.47C154.919 111.105 155.075 111.849 155.075 112.702C155.075 113.547 154.919 114.286 154.607 114.918C154.298 115.55 153.864 116.042 153.307 116.393C152.753 116.745 152.107 116.92 151.368 116.92ZM151.368 115.791C151.929 115.791 152.391 115.647 152.753 115.36C153.115 115.072 153.383 114.694 153.557 114.225C153.731 113.756 153.818 113.249 153.818 112.702C153.818 112.155 153.731 111.645 153.557 111.173C153.383 110.701 153.115 110.319 152.753 110.028C152.391 109.737 151.929 109.591 151.368 109.591C150.807 109.591 150.345 109.737 149.983 110.028C149.621 110.319 149.353 110.701 149.179 111.173C149.005 111.645 148.918 112.155 148.918 112.702C148.918 113.249 149.005 113.756 149.179 114.225C149.353 114.694 149.621 115.072 149.983 115.36C150.345 115.647 150.807 115.791 151.368 115.791ZM160.638 108.568V109.634H156.227V108.568H160.638ZM157.548 116.75V107.439C157.548 106.97 157.658 106.58 157.879 106.267C158.099 105.955 158.385 105.72 158.736 105.564C159.088 105.408 159.459 105.33 159.849 105.33C160.158 105.33 160.411 105.354 160.606 105.404C160.801 105.454 160.947 105.5 161.043 105.543L160.68 106.629C160.616 106.608 160.528 106.581 160.414 106.549C160.304 106.517 160.158 106.501 159.977 106.501C159.562 106.501 159.262 106.606 159.077 106.816C158.896 107.025 158.805 107.332 158.805 107.737V116.75H157.548ZM167.875 105.841V116.75H166.618V105.841H167.875ZM170.178 116.75V108.568H171.435V116.75H170.178ZM170.817 107.205C170.572 107.205 170.361 107.121 170.183 106.954C170.009 106.787 169.922 106.587 169.922 106.352C169.922 106.118 170.009 105.917 170.183 105.75C170.361 105.583 170.572 105.5 170.817 105.5C171.062 105.5 171.272 105.583 171.446 105.75C171.623 105.917 171.712 106.118 171.712 106.352C171.712 106.587 171.623 106.787 171.446 106.954C171.272 107.121 171.062 107.205 170.817 107.205ZM174.909 113.767L174.888 112.212H175.144L178.723 108.568H180.279L176.465 112.425H176.358L174.909 113.767ZM173.737 116.75V105.841H174.995V116.75H173.737ZM178.936 116.75L175.74 112.702L176.635 111.828L180.534 116.75H178.936ZM184.99 116.92C184.202 116.92 183.522 116.746 182.95 116.398C182.382 116.047 181.943 115.557 181.634 114.928C181.329 114.296 181.176 113.561 181.176 112.723C181.176 111.885 181.329 111.146 181.634 110.507C181.943 109.864 182.373 109.364 182.923 109.005C183.477 108.643 184.124 108.462 184.862 108.462C185.288 108.462 185.709 108.533 186.125 108.675C186.54 108.817 186.918 109.048 187.259 109.367C187.6 109.683 187.872 110.102 188.074 110.624C188.277 111.146 188.378 111.789 188.378 112.553V113.085H182.071V111.999H187.1C187.1 111.537 187.007 111.125 186.823 110.763C186.641 110.401 186.382 110.115 186.045 109.905C185.711 109.696 185.317 109.591 184.862 109.591C184.362 109.591 183.928 109.715 183.563 109.964C183.2 110.209 182.922 110.528 182.726 110.923C182.531 111.317 182.433 111.739 182.433 112.19V112.915C182.433 113.533 182.54 114.056 182.753 114.486C182.97 114.912 183.27 115.237 183.653 115.461C184.037 115.681 184.482 115.791 184.99 115.791C185.32 115.791 185.619 115.745 185.885 115.653C186.155 115.557 186.388 115.415 186.583 115.227C186.778 115.035 186.929 114.797 187.036 114.513L188.25 114.854C188.122 115.266 187.907 115.628 187.606 115.94C187.304 116.249 186.931 116.491 186.487 116.665C186.043 116.835 185.544 116.92 184.99 116.92Z" fill="#2E263D" fill-opacity="0.7"/>
<rect x="30" y="149.25" width="40" height="40" rx="20" fill="#FFB400" fill-opacity="0.16"/>
<path d="M44.1667 179.75H40.8333C40.6123 179.75 40.4003 179.645 40.244 179.457C40.0877 179.27 39.9999 179.015 40 178.75V170.75C39.9999 170.485 40.0877 170.23 40.244 170.043C40.4003 169.855 40.6123 169.75 40.8333 169.75H44.1667C44.3877 169.75 44.5997 169.855 44.756 170.043C44.9123 170.23 45.0001 170.485 45 170.75V178.75C45.0001 179.015 44.9123 179.27 44.756 179.457C44.5997 179.645 44.3877 179.75 44.1667 179.75Z" fill="#FFD87A"/>
<path d="M52.1667 179.75H48.8333C48.6123 179.75 48.4003 179.65 48.244 179.47C48.0877 179.291 47.9999 179.049 48 178.795V159.705C47.9999 159.451 48.0877 159.209 48.244 159.03C48.4003 158.85 48.6123 158.75 48.8333 158.75H52.1667C52.3877 158.75 52.5997 158.85 52.756 159.03C52.9123 159.209 53.0001 159.451 53 159.705V178.795C53.0001 179.049 52.9123 179.291 52.756 179.47C52.5997 179.65 52.3877 179.75 52.1667 179.75Z" fill="#FFB400"/>
<path d="M59.1667 179.75H55.8333C55.6123 179.75 55.4003 179.652 55.244 179.478C55.0877 179.304 54.9999 179.068 55 178.821V167.679C54.9999 167.432 55.0877 167.196 55.244 167.022C55.4003 166.848 55.6123 166.75 55.8333 166.75H59.1667C59.3877 166.75 59.5997 166.848 59.756 167.022C59.9123 167.196 60.0001 167.432 60 167.679V178.821C60.0001 179.068 59.9123 179.304 59.756 179.478C59.5997 179.652 59.3877 179.75 59.1667 179.75Z" fill="#FFCF5C"/>
<path d="M87.2592 165.25V163.818L91.6889 159.229C92.1619 158.73 92.5518 158.293 92.8587 157.918C93.1697 157.539 93.402 157.179 93.5554 156.838C93.7088 156.497 93.7855 156.135 93.7855 155.751C93.7855 155.317 93.6832 154.942 93.4787 154.626C93.2741 154.307 92.995 154.062 92.6413 153.891C92.2876 153.717 91.8892 153.629 91.446 153.629C90.9773 153.629 90.5682 153.725 90.2188 153.917C89.8693 154.109 89.6009 154.379 89.4134 154.729C89.2259 155.078 89.1321 155.487 89.1321 155.956H87.2464C87.2464 155.159 87.4297 154.462 87.7962 153.866C88.1626 153.269 88.6655 152.807 89.3047 152.479C89.9439 152.146 90.6705 151.98 91.4844 151.98C92.3068 151.98 93.0313 152.144 93.6577 152.472C94.2884 152.796 94.7805 153.239 95.1342 153.802C95.4879 154.36 95.6648 154.991 95.6648 155.694C95.6648 156.18 95.5732 156.655 95.3899 157.119C95.2109 157.584 94.8977 158.102 94.4503 158.673C94.0028 159.239 93.3807 159.928 92.5838 160.737L89.9822 163.46V163.556H95.8757V165.25H87.2592ZM103.265 152.159V165.25H101.283V154.141H101.207L98.0746 156.186V154.294L101.341 152.159H103.265ZM107.335 165.371C106.986 165.371 106.685 165.248 106.434 165.001C106.182 164.749 106.057 164.447 106.057 164.093C106.057 163.744 106.182 163.445 106.434 163.198C106.685 162.947 106.986 162.821 107.335 162.821C107.684 162.821 107.985 162.947 108.236 163.198C108.488 163.445 108.613 163.744 108.613 164.093C108.613 164.327 108.554 164.543 108.434 164.739C108.319 164.93 108.166 165.084 107.974 165.199C107.782 165.314 107.569 165.371 107.335 165.371ZM111.148 165.25V163.818L115.578 159.229C116.051 158.73 116.441 158.293 116.747 157.918C117.058 157.539 117.291 157.179 117.444 156.838C117.597 156.497 117.674 156.135 117.674 155.751C117.674 155.317 117.572 154.942 117.367 154.626C117.163 154.307 116.884 154.062 116.53 153.891C116.176 153.717 115.778 153.629 115.335 153.629C114.866 153.629 114.457 153.725 114.107 153.917C113.758 154.109 113.49 154.379 113.302 154.729C113.115 155.078 113.021 155.487 113.021 155.956H111.135C111.135 155.159 111.318 154.462 111.685 153.866C112.051 153.269 112.554 152.807 113.193 152.479C113.833 152.146 114.559 151.98 115.373 151.98C116.195 151.98 116.92 152.144 117.546 152.472C118.177 152.796 118.669 153.239 119.023 153.802C119.377 154.36 119.553 154.991 119.553 155.694C119.553 156.18 119.462 156.655 119.279 157.119C119.1 157.584 118.786 158.102 118.339 158.673C117.892 159.239 117.269 159.928 116.472 160.737L113.871 163.46V163.556H119.764V165.25H111.148ZM123.97 161.92L123.958 159.587H124.29L128.202 155.432H130.49L126.029 160.162H125.728L123.97 161.92ZM122.213 165.25V152.159H124.124V165.25H122.213ZM128.413 165.25L124.897 160.584L126.214 159.248L130.759 165.25H128.413Z" fill="#2E263D" fill-opacity="0.9"/>
<path d="M95.9716 177.341V188.25H94.6932L88.7486 179.685H88.642V188.25H87.321V177.341H88.5994L94.5653 185.928H94.6719V177.341H95.9716ZM103.601 184.905V180.068H104.858V188.25H103.601V186.865H103.516C103.324 187.281 103.025 187.634 102.621 187.925C102.216 188.213 101.704 188.357 101.087 188.357C100.575 188.357 100.121 188.245 99.7229 188.021C99.3252 187.794 99.0127 187.453 98.7854 186.998C98.5581 186.54 98.4445 185.963 98.4445 185.267V180.068H99.7016V185.182C99.7016 185.778 99.8685 186.254 100.202 186.609C100.54 186.964 100.969 187.142 101.491 187.142C101.804 187.142 102.122 187.062 102.445 186.902C102.772 186.743 103.045 186.498 103.265 186.167C103.489 185.837 103.601 185.416 103.601 184.905ZM107.16 188.25V180.068H108.375V181.347H108.481C108.652 180.91 108.927 180.571 109.307 180.329C109.687 180.084 110.143 179.962 110.676 179.962C111.216 179.962 111.665 180.084 112.024 180.329C112.386 180.571 112.668 180.91 112.871 181.347H112.956C113.165 180.924 113.48 180.588 113.899 180.34C114.318 180.088 114.82 179.962 115.406 179.962C116.138 179.962 116.736 180.191 117.201 180.649C117.666 181.103 117.899 181.812 117.899 182.774V188.25H116.642V182.774C116.642 182.17 116.477 181.739 116.146 181.48C115.816 181.221 115.427 181.091 114.98 181.091C114.405 181.091 113.959 181.265 113.643 181.613C113.327 181.957 113.169 182.394 113.169 182.923V188.25H111.89V182.646C111.89 182.181 111.74 181.806 111.438 181.522C111.136 181.235 110.747 181.091 110.271 181.091C109.944 181.091 109.639 181.178 109.355 181.352C109.074 181.526 108.847 181.767 108.673 182.076C108.503 182.382 108.417 182.735 108.417 183.136V188.25H107.16ZM120.368 188.25V177.341H121.625V181.368H121.732C121.824 181.226 121.952 181.045 122.115 180.825C122.282 180.601 122.52 180.402 122.829 180.228C123.141 180.05 123.564 179.962 124.097 179.962C124.786 179.962 125.393 180.134 125.918 180.478C126.444 180.823 126.854 181.311 127.149 181.943C127.444 182.575 127.591 183.321 127.591 184.18C127.591 185.047 127.444 185.798 127.149 186.434C126.854 187.066 126.446 187.556 125.924 187.904C125.402 188.248 124.8 188.42 124.118 188.42C123.592 188.42 123.172 188.333 122.855 188.159C122.539 187.982 122.296 187.781 122.126 187.558C121.955 187.33 121.824 187.142 121.732 186.993H121.582V188.25H120.368ZM121.604 184.159C121.604 184.777 121.694 185.322 121.875 185.794C122.056 186.263 122.321 186.631 122.669 186.897C123.017 187.16 123.443 187.291 123.947 187.291C124.473 187.291 124.912 187.153 125.263 186.876C125.618 186.595 125.885 186.219 126.062 185.746C126.243 185.271 126.334 184.741 126.334 184.159C126.334 183.584 126.245 183.065 126.067 182.604C125.893 182.138 125.629 181.771 125.274 181.501C124.922 181.228 124.48 181.091 123.947 181.091C123.436 181.091 123.006 181.221 122.658 181.48C122.31 181.735 122.048 182.094 121.87 182.556C121.692 183.014 121.604 183.548 121.604 184.159ZM132.944 188.42C132.156 188.42 131.476 188.246 130.904 187.898C130.336 187.547 129.897 187.057 129.588 186.428C129.283 185.796 129.13 185.061 129.13 184.223C129.13 183.385 129.283 182.646 129.588 182.007C129.897 181.364 130.327 180.864 130.877 180.505C131.431 180.143 132.078 179.962 132.816 179.962C133.243 179.962 133.663 180.033 134.079 180.175C134.494 180.317 134.873 180.548 135.213 180.867C135.554 181.183 135.826 181.602 136.028 182.124C136.231 182.646 136.332 183.289 136.332 184.053V184.585H130.025V183.499H135.054C135.054 183.037 134.961 182.625 134.777 182.263C134.596 181.901 134.336 181.615 133.999 181.405C133.665 181.196 133.271 181.091 132.816 181.091C132.316 181.091 131.882 181.215 131.517 181.464C131.154 181.709 130.876 182.028 130.68 182.423C130.485 182.817 130.387 183.239 130.387 183.69V184.415C130.387 185.033 130.494 185.556 130.707 185.986C130.924 186.412 131.224 186.737 131.607 186.961C131.991 187.181 132.436 187.291 132.944 187.291C133.275 187.291 133.573 187.245 133.839 187.153C134.109 187.057 134.342 186.915 134.537 186.727C134.732 186.535 134.883 186.297 134.99 186.013L136.204 186.354C136.076 186.766 135.862 187.128 135.56 187.44C135.258 187.749 134.885 187.991 134.441 188.165C133.997 188.335 133.498 188.42 132.944 188.42ZM138.244 188.25V180.068H139.459V181.304H139.544C139.693 180.899 139.963 180.571 140.354 180.319C140.744 180.066 141.185 179.94 141.675 179.94C141.767 179.94 141.882 179.942 142.021 179.946C142.159 179.949 142.264 179.955 142.335 179.962V181.24C142.293 181.229 142.195 181.213 142.042 181.192C141.893 181.167 141.735 181.155 141.568 181.155C141.17 181.155 140.815 181.238 140.503 181.405C140.194 181.569 139.949 181.796 139.768 182.087C139.59 182.375 139.501 182.703 139.501 183.072V188.25H138.244ZM151.368 188.42C150.629 188.42 149.981 188.245 149.424 187.893C148.87 187.542 148.437 187.05 148.124 186.418C147.815 185.786 147.661 185.047 147.661 184.202C147.661 183.349 147.815 182.605 148.124 181.97C148.437 181.334 148.87 180.841 149.424 180.489C149.981 180.137 150.629 179.962 151.368 179.962C152.107 179.962 152.753 180.137 153.307 180.489C153.864 180.841 154.298 181.334 154.607 181.97C154.919 182.605 155.075 183.349 155.075 184.202C155.075 185.047 154.919 185.786 154.607 186.418C154.298 187.05 153.864 187.542 153.307 187.893C152.753 188.245 152.107 188.42 151.368 188.42ZM151.368 187.291C151.929 187.291 152.391 187.147 152.753 186.86C153.115 186.572 153.383 186.194 153.557 185.725C153.731 185.256 153.818 184.749 153.818 184.202C153.818 183.655 153.731 183.145 153.557 182.673C153.383 182.201 153.115 181.819 152.753 181.528C152.391 181.237 151.929 181.091 151.368 181.091C150.807 181.091 150.345 181.237 149.983 181.528C149.621 181.819 149.353 182.201 149.179 182.673C149.005 183.145 148.918 183.655 148.918 184.202C148.918 184.749 149.005 185.256 149.179 185.725C149.353 186.194 149.621 186.572 149.983 186.86C150.345 187.147 150.807 187.291 151.368 187.291ZM160.638 180.068V181.134H156.227V180.068H160.638ZM157.548 188.25V178.939C157.548 178.47 157.658 178.08 157.879 177.767C158.099 177.455 158.385 177.22 158.736 177.064C159.088 176.908 159.459 176.83 159.849 176.83C160.158 176.83 160.411 176.854 160.606 176.904C160.801 176.954 160.947 177 161.043 177.043L160.68 178.129C160.616 178.108 160.528 178.081 160.414 178.049C160.304 178.017 160.158 178.001 159.977 178.001C159.562 178.001 159.262 178.106 159.077 178.316C158.896 178.525 158.805 178.832 158.805 179.237V188.25H157.548ZM166.789 188.25V177.341H173.33V178.513H168.11V182.199H172.84V183.371H168.11V188.25H166.789ZM178.145 188.42C177.407 188.42 176.759 188.245 176.201 187.893C175.647 187.542 175.214 187.05 174.901 186.418C174.592 185.786 174.438 185.047 174.438 184.202C174.438 183.349 174.592 182.605 174.901 181.97C175.214 181.334 175.647 180.841 176.201 180.489C176.759 180.137 177.407 179.962 178.145 179.962C178.884 179.962 179.53 180.137 180.084 180.489C180.642 180.841 181.075 181.334 181.384 181.97C181.696 182.605 181.853 183.349 181.853 184.202C181.853 185.047 181.696 185.786 181.384 186.418C181.075 187.05 180.642 187.542 180.084 187.893C179.53 188.245 178.884 188.42 178.145 188.42ZM178.145 187.291C178.706 187.291 179.168 187.147 179.53 186.86C179.892 186.572 180.161 186.194 180.335 185.725C180.509 185.256 180.596 184.749 180.596 184.202C180.596 183.655 180.509 183.145 180.335 182.673C180.161 182.201 179.892 181.819 179.53 181.528C179.168 181.237 178.706 181.091 178.145 181.091C177.584 181.091 177.123 181.237 176.76 181.528C176.398 181.819 176.13 182.201 175.956 182.673C175.782 183.145 175.695 183.655 175.695 184.202C175.695 184.749 175.782 185.256 175.956 185.725C176.13 186.194 176.398 186.572 176.76 186.86C177.123 187.147 177.584 187.291 178.145 187.291ZM185.029 177.341V188.25H183.772V177.341H185.029ZM188.588 177.341V188.25H187.331V177.341H188.588ZM194.215 188.42C193.476 188.42 192.828 188.245 192.27 187.893C191.716 187.542 191.283 187.05 190.971 186.418C190.662 185.786 190.507 185.047 190.507 184.202C190.507 183.349 190.662 182.605 190.971 181.97C191.283 181.334 191.716 180.841 192.27 180.489C192.828 180.137 193.476 179.962 194.215 179.962C194.953 179.962 195.6 180.137 196.154 180.489C196.711 180.841 197.144 181.334 197.453 181.97C197.766 182.605 197.922 183.349 197.922 184.202C197.922 185.047 197.766 185.786 197.453 186.418C197.144 187.05 196.711 187.542 196.154 187.893C195.6 188.245 194.953 188.42 194.215 188.42ZM194.215 187.291C194.776 187.291 195.237 187.147 195.6 186.86C195.962 186.572 196.23 186.194 196.404 185.725C196.578 185.256 196.665 184.749 196.665 184.202C196.665 183.655 196.578 183.145 196.404 182.673C196.23 182.201 195.962 181.819 195.6 181.528C195.237 181.237 194.776 181.091 194.215 181.091C193.654 181.091 193.192 181.237 192.83 181.528C192.468 181.819 192.199 182.201 192.025 182.673C191.851 183.145 191.764 183.655 191.764 184.202C191.764 184.749 191.851 185.256 192.025 185.725C192.199 186.194 192.468 186.572 192.83 186.86C193.192 187.147 193.654 187.291 194.215 187.291ZM201.416 188.25L198.923 180.068H200.244L202.013 186.332H202.098L203.845 180.068H205.188L206.914 186.311H206.999L208.767 180.068H210.088L207.595 188.25H206.36L204.57 181.964H204.442L202.652 188.25H201.416ZM214.902 188.42C214.114 188.42 213.434 188.246 212.862 187.898C212.294 187.547 211.855 187.057 211.546 186.428C211.241 185.796 211.088 185.061 211.088 184.223C211.088 183.385 211.241 182.646 211.546 182.007C211.855 181.364 212.285 180.864 212.835 180.505C213.389 180.143 214.036 179.962 214.774 179.962C215.201 179.962 215.621 180.033 216.037 180.175C216.452 180.317 216.831 180.548 217.171 180.867C217.512 181.183 217.784 181.602 217.986 182.124C218.189 182.646 218.29 183.289 218.29 184.053V184.585H211.983V183.499H217.012C217.012 183.037 216.919 182.625 216.735 182.263C216.554 181.901 216.294 181.615 215.957 181.405C215.623 181.196 215.229 181.091 214.774 181.091C214.274 181.091 213.84 181.215 213.475 181.464C213.112 181.709 212.834 182.028 212.638 182.423C212.443 182.817 212.345 183.239 212.345 183.69V184.415C212.345 185.033 212.452 185.556 212.665 185.986C212.882 186.412 213.182 186.737 213.565 186.961C213.949 187.181 214.394 187.291 214.902 187.291C215.233 187.291 215.531 187.245 215.797 187.153C216.067 187.057 216.3 186.915 216.495 186.727C216.69 186.535 216.841 186.297 216.948 186.013L218.162 186.354C218.034 186.766 217.82 187.128 217.518 187.44C217.216 187.749 216.843 187.991 216.399 188.165C215.955 188.335 215.456 188.42 214.902 188.42ZM220.202 188.25V180.068H221.417V181.304H221.502C221.651 180.899 221.921 180.571 222.312 180.319C222.702 180.066 223.143 179.94 223.633 179.94C223.725 179.94 223.84 179.942 223.979 179.946C224.117 179.949 224.222 179.955 224.293 179.962V181.24C224.251 181.229 224.153 181.213 224 181.192C223.851 181.167 223.693 181.155 223.526 181.155C223.128 181.155 222.773 181.238 222.461 181.405C222.152 181.569 221.907 181.796 221.726 182.087C221.548 182.375 221.459 182.703 221.459 183.072V188.25H220.202ZM231.579 181.901L230.45 182.22C230.379 182.032 230.274 181.849 230.135 181.672C230 181.49 229.816 181.341 229.581 181.224C229.347 181.107 229.047 181.048 228.681 181.048C228.18 181.048 227.763 181.164 227.429 181.395C227.099 181.622 226.934 181.911 226.934 182.263C226.934 182.575 227.048 182.822 227.275 183.003C227.502 183.184 227.857 183.335 228.34 183.456L229.555 183.754C230.286 183.932 230.831 184.203 231.19 184.569C231.549 184.931 231.728 185.398 231.728 185.97C231.728 186.439 231.593 186.858 231.323 187.227C231.057 187.597 230.684 187.888 230.205 188.101C229.725 188.314 229.168 188.42 228.532 188.42C227.697 188.42 227.007 188.239 226.46 187.877C225.913 187.515 225.567 186.986 225.421 186.29L226.614 185.991C226.728 186.432 226.943 186.762 227.259 186.982C227.578 187.202 227.996 187.312 228.511 187.312C229.097 187.312 229.562 187.188 229.906 186.94C230.254 186.687 230.428 186.386 230.428 186.034C230.428 185.75 230.329 185.512 230.13 185.32C229.931 185.125 229.626 184.979 229.214 184.884L227.85 184.564C227.101 184.386 226.55 184.111 226.199 183.738C225.851 183.362 225.677 182.891 225.677 182.327C225.677 181.865 225.806 181.457 226.066 181.102C226.328 180.746 226.685 180.468 227.136 180.265C227.591 180.063 228.106 179.962 228.681 179.962C229.491 179.962 230.126 180.139 230.588 180.494C231.053 180.849 231.384 181.318 231.579 181.901Z" fill="#2E263D" fill-opacity="0.7"/>
<rect x="30" y="220.75" width="40" height="40" rx="20" fill="#16B1FF" fill-opacity="0.16"/>
<path d="M59 250.25C58.7348 250.25 58.4804 250.15 58.293 249.972L54.5859 246.45H43C41.3439 246.448 40.0018 245.173 40 243.6V234.1C40.0018 232.527 41.3439 231.252 43 231.25H57C58.6561 231.252 59.9982 232.527 60 234.1V249.3C60 249.825 59.5523 250.25 59 250.25Z" fill="#86D6FF"/>
<path fill-rule="evenodd" clip-rule="evenodd" d="M55 238.25H45C44.4477 238.25 44 237.802 44 237.25C44 236.698 44.4477 236.25 45 236.25H55C55.5523 236.25 56 236.698 56 237.25C56 237.802 55.5523 238.25 55 238.25ZM51 242.25H45C44.4477 242.25 44 241.802 44 241.25C44 240.698 44.4477 240.25 45 240.25H51C51.5523 240.25 52 240.698 52 241.25C52 241.802 51.5523 242.25 51 242.25Z" fill="#16B1FF"/>
<path d="M87.2592 236.75V235.318L91.6889 230.729C92.1619 230.23 92.5518 229.793 92.8587 229.418C93.1697 229.039 93.402 228.679 93.5554 228.338C93.7088 227.997 93.7855 227.635 93.7855 227.251C93.7855 226.817 93.6832 226.442 93.4787 226.126C93.2741 225.807 92.995 225.562 92.6413 225.391C92.2876 225.217 91.8892 225.129 91.446 225.129C90.9773 225.129 90.5682 225.225 90.2188 225.417C89.8693 225.609 89.6009 225.879 89.4134 226.229C89.2259 226.578 89.1321 226.987 89.1321 227.456H87.2464C87.2464 226.659 87.4297 225.962 87.7962 225.366C88.1626 224.769 88.6655 224.307 89.3047 223.979C89.9439 223.646 90.6705 223.48 91.4844 223.48C92.3068 223.48 93.0313 223.644 93.6577 223.972C94.2884 224.296 94.7805 224.739 95.1342 225.302C95.4879 225.86 95.6648 226.491 95.6648 227.194C95.6648 227.68 95.5732 228.155 95.3899 228.619C95.2109 229.084 94.8977 229.602 94.4503 230.173C94.0028 230.739 93.3807 231.428 92.5838 232.237L89.9822 234.96V235.056H95.8757V236.75H87.2592ZM99.5831 236.871C99.2337 236.871 98.9332 236.748 98.6818 236.501C98.4304 236.249 98.3047 235.947 98.3047 235.593C98.3047 235.244 98.4304 234.945 98.6818 234.698C98.9332 234.447 99.2337 234.321 99.5831 234.321C99.9325 234.321 100.233 234.447 100.484 234.698C100.736 234.945 100.862 235.244 100.862 235.593C100.862 235.827 100.802 236.043 100.683 236.239C100.567 236.43 100.414 236.584 100.222 236.699C100.031 236.814 99.8175 236.871 99.5831 236.871ZM103.121 234.193V232.595L108.778 223.659H110.037V226.011H109.238L105.192 232.416V232.518H112.946V234.193H103.121ZM109.328 236.75V233.707L109.341 232.979V223.659H111.213V236.75H109.328ZM116.957 233.42L116.944 231.087H117.276L121.188 226.932H123.477L119.015 231.662H118.714L116.957 233.42ZM115.199 236.75V223.659H117.11V236.75H115.199ZM121.399 236.75L117.884 232.084L119.2 230.748L123.745 236.75H121.399Z" fill="#2E263D" fill-opacity="0.9"/>
<path d="M95.9716 248.841V259.75H94.6932L88.7486 251.185H88.642V259.75H87.321V248.841H88.5994L94.5653 257.428H94.6719V248.841H95.9716ZM103.601 256.405V251.568H104.858V259.75H103.601V258.365H103.516C103.324 258.781 103.025 259.134 102.621 259.425C102.216 259.713 101.704 259.857 101.087 259.857C100.575 259.857 100.121 259.745 99.7229 259.521C99.3252 259.294 99.0127 258.953 98.7854 258.498C98.5581 258.04 98.4445 257.463 98.4445 256.767V251.568H99.7016V256.682C99.7016 257.278 99.8685 257.754 100.202 258.109C100.54 258.464 100.969 258.642 101.491 258.642C101.804 258.642 102.122 258.562 102.445 258.402C102.772 258.243 103.045 257.998 103.265 257.667C103.489 257.337 103.601 256.916 103.601 256.405ZM107.16 259.75V251.568H108.375V252.847H108.481C108.652 252.41 108.927 252.071 109.307 251.829C109.687 251.584 110.143 251.462 110.676 251.462C111.216 251.462 111.665 251.584 112.024 251.829C112.386 252.071 112.668 252.41 112.871 252.847H112.956C113.165 252.424 113.48 252.088 113.899 251.84C114.318 251.588 114.82 251.462 115.406 251.462C116.138 251.462 116.736 251.691 117.201 252.149C117.666 252.603 117.899 253.312 117.899 254.274V259.75H116.642V254.274C116.642 253.67 116.477 253.239 116.146 252.98C115.816 252.721 115.427 252.591 114.98 252.591C114.405 252.591 113.959 252.765 113.643 253.113C113.327 253.457 113.169 253.894 113.169 254.423V259.75H111.89V254.146C111.89 253.681 111.74 253.306 111.438 253.022C111.136 252.735 110.747 252.591 110.271 252.591C109.944 252.591 109.639 252.678 109.355 252.852C109.074 253.026 108.847 253.267 108.673 253.576C108.503 253.882 108.417 254.235 108.417 254.636V259.75H107.16ZM120.368 259.75V248.841H121.625V252.868H121.732C121.824 252.726 121.952 252.545 122.115 252.325C122.282 252.101 122.52 251.902 122.829 251.728C123.141 251.55 123.564 251.462 124.097 251.462C124.786 251.462 125.393 251.634 125.918 251.978C126.444 252.323 126.854 252.811 127.149 253.443C127.444 254.075 127.591 254.821 127.591 255.68C127.591 256.547 127.444 257.298 127.149 257.934C126.854 258.566 126.446 259.056 125.924 259.404C125.402 259.748 124.8 259.92 124.118 259.92C123.592 259.92 123.172 259.833 122.855 259.659C122.539 259.482 122.296 259.281 122.126 259.058C121.955 258.83 121.824 258.642 121.732 258.493H121.582V259.75H120.368ZM121.604 255.659C121.604 256.277 121.694 256.822 121.875 257.294C122.056 257.763 122.321 258.131 122.669 258.397C123.017 258.66 123.443 258.791 123.947 258.791C124.473 258.791 124.912 258.653 125.263 258.376C125.618 258.095 125.885 257.719 126.062 257.246C126.243 256.771 126.334 256.241 126.334 255.659C126.334 255.084 126.245 254.565 126.067 254.104C125.893 253.638 125.629 253.271 125.274 253.001C124.922 252.728 124.48 252.591 123.947 252.591C123.436 252.591 123.006 252.721 122.658 252.98C122.31 253.235 122.048 253.594 121.87 254.056C121.692 254.514 121.604 255.048 121.604 255.659ZM132.944 259.92C132.156 259.92 131.476 259.746 130.904 259.398C130.336 259.047 129.897 258.557 129.588 257.928C129.283 257.296 129.13 256.561 129.13 255.723C129.13 254.885 129.283 254.146 129.588 253.507C129.897 252.864 130.327 252.364 130.877 252.005C131.431 251.643 132.078 251.462 132.816 251.462C133.243 251.462 133.663 251.533 134.079 251.675C134.494 251.817 134.873 252.048 135.213 252.367C135.554 252.683 135.826 253.102 136.028 253.624C136.231 254.146 136.332 254.789 136.332 255.553V256.085H130.025V254.999H135.054C135.054 254.537 134.961 254.125 134.777 253.763C134.596 253.401 134.336 253.115 133.999 252.905C133.665 252.696 133.271 252.591 132.816 252.591C132.316 252.591 131.882 252.715 131.517 252.964C131.154 253.209 130.876 253.528 130.68 253.923C130.485 254.317 130.387 254.739 130.387 255.19V255.915C130.387 256.533 130.494 257.056 130.707 257.486C130.924 257.912 131.224 258.237 131.607 258.461C131.991 258.681 132.436 258.791 132.944 258.791C133.275 258.791 133.573 258.745 133.839 258.653C134.109 258.557 134.342 258.415 134.537 258.227C134.732 258.035 134.883 257.797 134.99 257.513L136.204 257.854C136.076 258.266 135.862 258.628 135.56 258.94C135.258 259.249 134.885 259.491 134.441 259.665C133.997 259.835 133.498 259.92 132.944 259.92ZM138.244 259.75V251.568H139.459V252.804H139.544C139.693 252.399 139.963 252.071 140.354 251.819C140.744 251.566 141.185 251.44 141.675 251.44C141.767 251.44 141.882 251.442 142.021 251.446C142.159 251.449 142.264 251.455 142.335 251.462V252.74C142.293 252.729 142.195 252.713 142.042 252.692C141.893 252.667 141.735 252.655 141.568 252.655C141.17 252.655 140.815 252.738 140.503 252.905C140.194 253.069 139.949 253.296 139.768 253.587C139.59 253.875 139.501 254.203 139.501 254.572V259.75H138.244ZM151.368 259.92C150.629 259.92 149.981 259.745 149.424 259.393C148.87 259.042 148.437 258.55 148.124 257.918C147.815 257.286 147.661 256.547 147.661 255.702C147.661 254.849 147.815 254.105 148.124 253.47C148.437 252.834 148.87 252.341 149.424 251.989C149.981 251.637 150.629 251.462 151.368 251.462C152.107 251.462 152.753 251.637 153.307 251.989C153.864 252.341 154.298 252.834 154.607 253.47C154.919 254.105 155.075 254.849 155.075 255.702C155.075 256.547 154.919 257.286 154.607 257.918C154.298 258.55 153.864 259.042 153.307 259.393C152.753 259.745 152.107 259.92 151.368 259.92ZM151.368 258.791C151.929 258.791 152.391 258.647 152.753 258.36C153.115 258.072 153.383 257.694 153.557 257.225C153.731 256.756 153.818 256.249 153.818 255.702C153.818 255.155 153.731 254.645 153.557 254.173C153.383 253.701 153.115 253.319 152.753 253.028C152.391 252.737 151.929 252.591 151.368 252.591C150.807 252.591 150.345 252.737 149.983 253.028C149.621 253.319 149.353 253.701 149.179 254.173C149.005 254.645 148.918 255.155 148.918 255.702C148.918 256.249 149.005 256.756 149.179 257.225C149.353 257.694 149.621 258.072 149.983 258.36C150.345 258.647 150.807 258.791 151.368 258.791ZM160.638 251.568V252.634H156.227V251.568H160.638ZM157.548 259.75V250.439C157.548 249.97 157.658 249.58 157.879 249.267C158.099 248.955 158.385 248.72 158.736 248.564C159.088 248.408 159.459 248.33 159.849 248.33C160.158 248.33 160.411 248.354 160.606 248.404C160.801 248.454 160.947 248.5 161.043 248.543L160.68 249.629C160.616 249.608 160.528 249.581 160.414 249.549C160.304 249.517 160.158 249.501 159.977 249.501C159.562 249.501 159.262 249.606 159.077 249.816C158.896 250.025 158.805 250.332 158.805 250.737V259.75H157.548ZM175.567 252.25H174.246C174.168 251.87 174.031 251.536 173.836 251.249C173.644 250.961 173.41 250.719 173.133 250.524C172.859 250.325 172.556 250.176 172.222 250.077C171.888 249.977 171.54 249.928 171.178 249.928C170.517 249.928 169.919 250.094 169.383 250.428C168.85 250.762 168.426 251.254 168.11 251.904C167.797 252.554 167.641 253.351 167.641 254.295C167.641 255.24 167.797 256.037 168.11 256.687C168.426 257.337 168.85 257.829 169.383 258.163C169.919 258.496 170.517 258.663 171.178 258.663C171.54 258.663 171.888 258.614 172.222 258.514C172.556 258.415 172.859 258.267 173.133 258.072C173.41 257.873 173.644 257.63 173.836 257.342C174.031 257.051 174.168 256.717 174.246 256.341H175.567C175.468 256.898 175.287 257.397 175.024 257.838C174.761 258.278 174.434 258.653 174.044 258.962C173.653 259.267 173.215 259.5 172.728 259.659C172.245 259.819 171.728 259.899 171.178 259.899C170.248 259.899 169.42 259.672 168.696 259.217C167.971 258.763 167.401 258.116 166.986 257.278C166.57 256.44 166.363 255.446 166.363 254.295C166.363 253.145 166.57 252.151 166.986 251.312C167.401 250.474 167.971 249.828 168.696 249.374C169.42 248.919 170.248 248.692 171.178 248.692C171.728 248.692 172.245 248.772 172.728 248.931C173.215 249.091 173.653 249.326 174.044 249.635C174.434 249.94 174.761 250.313 175.024 250.753C175.287 251.19 175.468 251.689 175.567 252.25ZM180.855 259.92C180.117 259.92 179.469 259.745 178.911 259.393C178.357 259.042 177.924 258.55 177.611 257.918C177.302 257.286 177.148 256.547 177.148 255.702C177.148 254.849 177.302 254.105 177.611 253.47C177.924 252.834 178.357 252.341 178.911 251.989C179.469 251.637 180.117 251.462 180.855 251.462C181.594 251.462 182.24 251.637 182.794 251.989C183.352 252.341 183.785 252.834 184.094 253.47C184.406 254.105 184.563 254.849 184.563 255.702C184.563 256.547 184.406 257.286 184.094 257.918C183.785 258.55 183.352 259.042 182.794 259.393C182.24 259.745 181.594 259.92 180.855 259.92ZM180.855 258.791C181.416 258.791 181.878 258.647 182.24 258.36C182.602 258.072 182.871 257.694 183.045 257.225C183.219 256.756 183.306 256.249 183.306 255.702C183.306 255.155 183.219 254.645 183.045 254.173C182.871 253.701 182.602 253.319 182.24 253.028C181.878 252.737 181.416 252.591 180.855 252.591C180.294 252.591 179.833 252.737 179.47 253.028C179.108 253.319 178.84 253.701 178.666 254.173C178.492 254.645 178.405 255.155 178.405 255.702C178.405 256.249 178.492 256.756 178.666 257.225C178.84 257.694 179.108 258.072 179.47 258.36C179.833 258.647 180.294 258.791 180.855 258.791ZM186.482 259.75V251.568H187.696V252.847H187.803C187.973 252.41 188.248 252.071 188.628 251.829C189.008 251.584 189.465 251.462 189.997 251.462C190.537 251.462 190.986 251.584 191.345 251.829C191.707 252.071 191.989 252.41 192.192 252.847H192.277C192.487 252.424 192.801 252.088 193.22 251.84C193.639 251.588 194.141 251.462 194.727 251.462C195.459 251.462 196.057 251.691 196.522 252.149C196.988 252.603 197.22 253.312 197.22 254.274V259.75H195.963V254.274C195.963 253.67 195.798 253.239 195.468 252.98C195.138 252.721 194.749 252.591 194.301 252.591C193.726 252.591 193.28 252.765 192.964 253.113C192.648 253.457 192.49 253.894 192.49 254.423V259.75H191.212V254.146C191.212 253.681 191.061 253.306 190.759 253.022C190.457 252.735 190.068 252.591 189.592 252.591C189.266 252.591 188.96 252.678 188.676 252.852C188.396 253.026 188.168 253.267 187.994 253.576C187.824 253.882 187.739 254.235 187.739 254.636V259.75H186.482ZM199.519 259.75V251.568H200.733V252.847H200.84C201.01 252.41 201.285 252.071 201.665 251.829C202.045 251.584 202.502 251.462 203.034 251.462C203.574 251.462 204.023 251.584 204.382 251.829C204.744 252.071 205.027 252.41 205.229 252.847H205.314C205.524 252.424 205.838 252.088 206.257 251.84C206.676 251.588 207.179 251.462 207.764 251.462C208.496 251.462 209.094 251.691 209.56 252.149C210.025 252.603 210.257 253.312 210.257 254.274V259.75H209V254.274C209 253.67 208.835 253.239 208.505 252.98C208.175 252.721 207.786 252.591 207.338 252.591C206.763 252.591 206.317 252.765 206.001 253.113C205.685 253.457 205.527 253.894 205.527 254.423V259.75H204.249V254.146C204.249 253.681 204.098 253.306 203.796 253.022C203.494 252.735 203.105 252.591 202.63 252.591C202.303 252.591 201.997 252.678 201.713 252.852C201.433 253.026 201.206 253.267 201.032 253.576C200.861 253.882 200.776 254.235 200.776 254.636V259.75H199.519ZM215.986 259.92C215.198 259.92 214.518 259.746 213.946 259.398C213.378 259.047 212.939 258.557 212.63 257.928C212.325 257.296 212.172 256.561 212.172 255.723C212.172 254.885 212.325 254.146 212.63 253.507C212.939 252.864 213.369 252.364 213.919 252.005C214.473 251.643 215.12 251.462 215.858 251.462C216.285 251.462 216.705 251.533 217.121 251.675C217.536 251.817 217.915 252.048 218.255 252.367C218.596 252.683 218.868 253.102 219.07 253.624C219.273 254.146 219.374 254.789 219.374 255.553V256.085H213.067V254.999H218.096C218.096 254.537 218.003 254.125 217.819 253.763C217.638 253.401 217.378 253.115 217.041 252.905C216.707 252.696 216.313 252.591 215.858 252.591C215.358 252.591 214.924 252.715 214.559 252.964C214.196 253.209 213.918 253.528 213.722 253.923C213.527 254.317 213.429 254.739 213.429 255.19V255.915C213.429 256.533 213.536 257.056 213.749 257.486C213.966 257.912 214.266 258.237 214.649 258.461C215.033 258.681 215.478 258.791 215.986 258.791C216.316 258.791 216.615 258.745 216.881 258.653C217.151 258.557 217.384 258.415 217.579 258.227C217.774 258.035 217.925 257.797 218.032 257.513L219.246 257.854C219.118 258.266 218.903 258.628 218.602 258.94C218.3 259.249 217.927 259.491 217.483 259.665C217.039 259.835 216.54 259.92 215.986 259.92ZM222.543 254.828V259.75H221.286V251.568H222.501V252.847H222.607C222.799 252.431 223.09 252.097 223.481 251.845C223.872 251.589 224.376 251.462 224.994 251.462C225.548 251.462 226.032 251.575 226.448 251.803C226.863 252.026 227.187 252.367 227.417 252.825C227.648 253.28 227.764 253.855 227.764 254.551V259.75H226.506V254.636C226.506 253.994 226.34 253.493 226.006 253.134C225.672 252.772 225.214 252.591 224.631 252.591C224.23 252.591 223.872 252.678 223.555 252.852C223.243 253.026 222.996 253.28 222.815 253.614C222.634 253.947 222.543 254.352 222.543 254.828ZM233.619 251.568V252.634H229.379V251.568H233.619ZM230.615 249.608H231.872V257.406C231.872 257.761 231.923 258.028 232.026 258.205C232.133 258.379 232.268 258.496 232.431 258.557C232.598 258.614 232.774 258.642 232.958 258.642C233.097 258.642 233.211 258.635 233.299 258.621C233.388 258.603 233.459 258.589 233.512 258.578L233.768 259.707C233.683 259.739 233.564 259.771 233.411 259.803C233.259 259.839 233.065 259.857 232.831 259.857C232.475 259.857 232.127 259.78 231.787 259.627C231.449 259.475 231.169 259.242 230.945 258.93C230.725 258.617 230.615 258.223 230.615 257.747V249.608ZM241.159 253.401L240.03 253.72C239.959 253.532 239.854 253.349 239.715 253.172C239.58 252.99 239.396 252.841 239.161 252.724C238.927 252.607 238.627 252.548 238.261 252.548C237.76 252.548 237.343 252.664 237.009 252.895C236.679 253.122 236.514 253.411 236.514 253.763C236.514 254.075 236.628 254.322 236.855 254.503C237.082 254.684 237.437 254.835 237.92 254.956L239.135 255.254C239.866 255.432 240.411 255.703 240.77 256.069C241.129 256.431 241.308 256.898 241.308 257.47C241.308 257.939 241.173 258.358 240.903 258.727C240.637 259.097 240.264 259.388 239.785 259.601C239.305 259.814 238.748 259.92 238.112 259.92C237.278 259.92 236.587 259.739 236.04 259.377C235.493 259.015 235.147 258.486 235.001 257.79L236.194 257.491C236.308 257.932 236.523 258.262 236.839 258.482C237.159 258.702 237.576 258.812 238.091 258.812C238.677 258.812 239.142 258.688 239.486 258.44C239.834 258.187 240.008 257.886 240.008 257.534C240.008 257.25 239.909 257.012 239.71 256.82C239.511 256.625 239.206 256.479 238.794 256.384L237.43 256.064C236.681 255.886 236.131 255.611 235.779 255.238C235.431 254.862 235.257 254.391 235.257 253.827C235.257 253.365 235.387 252.957 235.646 252.602C235.909 252.246 236.265 251.968 236.716 251.765C237.171 251.563 237.686 251.462 238.261 251.462C239.071 251.462 239.706 251.639 240.168 251.994C240.633 252.349 240.964 252.818 241.159 253.401Z" fill="#2E263D" fill-opacity="0.7"/>
<rect x="30" y="292.25" width="40" height="40" rx="20" fill="#56CA00" fill-opacity="0.16"/>
<path d="M50 314.25C46.6863 314.25 44 311.564 44 308.25C44 304.936 46.6863 302.25 50 302.25C53.3137 302.25 56 304.936 56 308.25C55.9964 311.562 53.3122 314.246 50 314.25Z" fill="#A7E37A"/>
<path d="M53.7227 313.25C52.6968 314.028 51.4063 314.496 50 314.497C48.5918 314.497 47.2993 314.029 46.2725 313.25C42.9399 314.535 40.4302 317.499 40.006 321.176C39.9459 321.708 40.3448 322.186 40.897 322.244L58.9929 322.25C59.0297 322.25 59.0664 322.248 59.103 322.244C59.6552 322.186 60.0541 321.708 59.994 321.176C59.5761 317.554 57.1053 314.549 53.7227 313.25Z" fill="#56CA00"/>
<path d="M91.8168 308.429C90.9389 308.429 90.1548 308.278 89.4645 307.975C88.7784 307.673 88.2351 307.253 87.8345 306.716C87.4382 306.175 87.2251 305.548 87.1953 304.837H89.2024C89.228 305.224 89.358 305.561 89.5923 305.847C89.831 306.128 90.142 306.345 90.5256 306.499C90.9091 306.652 91.3352 306.729 91.804 306.729C92.3196 306.729 92.7756 306.639 93.1719 306.46C93.5724 306.281 93.8857 306.032 94.1115 305.712C94.3374 305.388 94.4503 305.016 94.4503 304.594C94.4503 304.155 94.3374 303.769 94.1115 303.437C93.8899 303.1 93.5639 302.836 93.1335 302.644C92.7074 302.452 92.1918 302.357 91.5866 302.357H90.4808V300.746H91.5866C92.0724 300.746 92.4986 300.658 92.8651 300.484C93.2358 300.309 93.5256 300.066 93.7344 299.755C93.9432 299.44 94.0476 299.071 94.0476 298.649C94.0476 298.244 93.956 297.893 93.7727 297.594C93.5938 297.292 93.3381 297.055 93.0057 296.885C92.6776 296.714 92.2898 296.629 91.8423 296.629C91.4162 296.629 91.0178 296.708 90.647 296.866C90.2805 297.019 89.9822 297.241 89.7521 297.531C89.522 297.816 89.3984 298.159 89.3814 298.56H87.4702C87.4915 297.852 87.7003 297.23 88.0966 296.693C88.4972 296.156 89.0256 295.737 89.6818 295.434C90.3381 295.131 91.0668 294.98 91.8679 294.98C92.7074 294.98 93.4318 295.144 94.0412 295.472C94.6548 295.796 95.1278 296.229 95.4602 296.77C95.7969 297.311 95.9631 297.903 95.9588 298.547C95.9631 299.28 95.7585 299.902 95.3452 300.413C94.9361 300.925 94.3906 301.268 93.7088 301.442V301.545C94.5781 301.677 95.2514 302.022 95.7287 302.58C96.2102 303.138 96.4489 303.831 96.4446 304.658C96.4489 305.378 96.2486 306.023 95.8438 306.594C95.4432 307.165 94.8956 307.615 94.201 307.943C93.5064 308.267 92.7116 308.429 91.8168 308.429ZM103.284 308.429C102.368 308.429 101.558 308.271 100.855 307.956C100.156 307.641 99.6087 307.206 99.2124 306.652C98.8161 306.098 98.62 305.467 98.6243 304.76C98.62 304.206 98.733 303.697 98.9631 303.232C99.1974 302.763 99.5149 302.374 99.9155 302.062C100.316 301.747 100.763 301.547 101.258 301.462V301.385C100.606 301.227 100.084 300.878 99.6918 300.337C99.2997 299.795 99.1058 299.173 99.1101 298.47C99.1058 297.801 99.2827 297.205 99.6406 296.68C100.003 296.152 100.499 295.737 101.13 295.434C101.761 295.131 102.479 294.98 103.284 294.98C104.081 294.98 104.793 295.134 105.419 295.44C106.05 295.743 106.546 296.158 106.908 296.687C107.271 297.211 107.454 297.805 107.458 298.47C107.454 299.173 107.254 299.795 106.857 300.337C106.461 300.878 105.945 301.227 105.31 301.385V301.462C105.8 301.547 106.241 301.747 106.634 302.062C107.03 302.374 107.345 302.763 107.58 303.232C107.818 303.697 107.94 304.206 107.944 304.76C107.94 305.467 107.739 306.098 107.343 306.652C106.947 307.206 106.397 307.641 105.694 307.956C104.995 308.271 104.192 308.429 103.284 308.429ZM103.284 306.812C103.825 306.812 104.294 306.722 104.69 306.543C105.087 306.36 105.393 306.107 105.611 305.783C105.828 305.455 105.939 305.071 105.943 304.632C105.939 304.176 105.82 303.773 105.585 303.424C105.355 303.075 105.042 302.8 104.646 302.599C104.249 302.399 103.795 302.299 103.284 302.299C102.768 302.299 102.31 302.399 101.91 302.599C101.509 302.8 101.194 303.075 100.964 303.424C100.734 303.773 100.621 304.176 100.625 304.632C100.621 305.071 100.725 305.455 100.938 305.783C101.156 306.107 101.464 306.36 101.865 306.543C102.266 306.722 102.739 306.812 103.284 306.812ZM103.284 300.72C103.719 300.72 104.104 300.633 104.441 300.458C104.778 300.283 105.042 300.04 105.234 299.729C105.43 299.418 105.53 299.054 105.534 298.636C105.53 298.227 105.432 297.869 105.24 297.562C105.053 297.256 104.79 297.019 104.454 296.853C104.117 296.683 103.727 296.597 103.284 296.597C102.832 296.597 102.436 296.683 102.095 296.853C101.759 297.019 101.496 297.256 101.309 297.562C101.121 297.869 101.03 298.227 101.034 298.636C101.03 299.054 101.124 299.418 101.315 299.729C101.507 300.04 101.771 300.283 102.108 300.458C102.449 300.633 102.841 300.72 103.284 300.72ZM114.587 294.98C115.171 294.984 115.746 295.091 116.313 295.3C116.879 295.509 117.391 295.849 117.847 296.322C118.307 296.795 118.673 297.435 118.946 298.24C119.223 299.041 119.364 300.038 119.368 301.232C119.368 302.378 119.253 303.398 119.023 304.293C118.793 305.184 118.463 305.936 118.032 306.55C117.606 307.163 117.088 307.63 116.479 307.95C115.869 308.269 115.183 308.429 114.421 308.429C113.641 308.429 112.948 308.276 112.343 307.969C111.738 307.662 111.246 307.238 110.867 306.697C110.487 306.151 110.251 305.525 110.157 304.817H112.107C112.235 305.38 112.494 305.836 112.887 306.185C113.283 306.531 113.794 306.703 114.421 306.703C115.379 306.703 116.127 306.286 116.664 305.45C117.201 304.611 117.472 303.439 117.476 301.935H117.374C117.152 302.301 116.875 302.616 116.543 302.881C116.215 303.145 115.846 303.349 115.437 303.494C115.028 303.639 114.591 303.712 114.127 303.712C113.372 303.712 112.686 303.526 112.068 303.156C111.45 302.785 110.958 302.276 110.592 301.628C110.225 300.98 110.042 300.241 110.042 299.41C110.042 298.583 110.23 297.833 110.605 297.16C110.984 296.487 111.512 295.954 112.19 295.562C112.872 295.165 113.671 294.972 114.587 294.98ZM114.593 296.642C114.095 296.642 113.645 296.766 113.244 297.013C112.848 297.256 112.535 297.586 112.305 298.004C112.075 298.417 111.96 298.877 111.96 299.384C111.96 299.891 112.07 300.352 112.292 300.765C112.518 301.174 112.825 301.5 113.213 301.743C113.605 301.982 114.052 302.101 114.555 302.101C114.93 302.101 115.279 302.028 115.603 301.884C115.927 301.739 116.21 301.538 116.453 301.283C116.696 301.023 116.886 300.729 117.022 300.401C117.159 300.072 117.227 299.727 117.227 299.365C117.227 298.884 117.112 298.436 116.882 298.023C116.656 297.609 116.345 297.277 115.948 297.026C115.552 296.77 115.1 296.642 114.593 296.642ZM122.487 308.371C122.138 308.371 121.838 308.248 121.586 308.001C121.335 307.749 121.209 307.447 121.209 307.093C121.209 306.744 121.335 306.445 121.586 306.198C121.838 305.947 122.138 305.821 122.487 305.821C122.837 305.821 123.137 305.947 123.389 306.198C123.64 306.445 123.766 306.744 123.766 307.093C123.766 307.327 123.706 307.543 123.587 307.739C123.472 307.93 123.318 308.084 123.127 308.199C122.935 308.314 122.722 308.371 122.487 308.371ZM130.41 308.429C129.609 308.429 128.889 308.276 128.25 307.969C127.615 307.658 127.108 307.232 126.729 306.69C126.349 306.149 126.147 305.531 126.121 304.837H128.039C128.086 305.399 128.335 305.862 128.787 306.224C129.238 306.586 129.78 306.767 130.41 306.767C130.913 306.767 131.358 306.652 131.746 306.422C132.138 306.188 132.445 305.866 132.667 305.457C132.893 305.048 133.006 304.581 133.006 304.057C133.006 303.524 132.89 303.049 132.66 302.631C132.43 302.214 132.113 301.886 131.708 301.647C131.307 301.408 130.847 301.287 130.327 301.283C129.931 301.283 129.532 301.351 129.132 301.487C128.731 301.624 128.407 301.803 128.16 302.024L126.351 301.756L127.086 295.159H134.284V296.853H128.729L128.314 300.516H128.39C128.646 300.268 128.985 300.062 129.407 299.896C129.833 299.729 130.289 299.646 130.775 299.646C131.572 299.646 132.281 299.836 132.903 300.215C133.53 300.594 134.022 301.112 134.38 301.768C134.742 302.42 134.921 303.17 134.917 304.018C134.921 304.866 134.729 305.623 134.341 306.288C133.958 306.952 133.425 307.477 132.743 307.86C132.066 308.239 131.288 308.429 130.41 308.429ZM141.809 308.467C140.799 308.463 139.936 308.197 139.22 307.668C138.504 307.14 137.957 306.371 137.577 305.361C137.198 304.351 137.009 303.134 137.009 301.711C137.009 300.292 137.198 299.08 137.577 298.074C137.961 297.068 138.511 296.301 139.227 295.773C139.947 295.244 140.808 294.98 141.809 294.98C142.81 294.98 143.669 295.246 144.385 295.779C145.101 296.308 145.648 297.075 146.028 298.08C146.411 299.082 146.603 300.292 146.603 301.711C146.603 303.138 146.413 304.357 146.034 305.367C145.655 306.373 145.107 307.142 144.391 307.675C143.675 308.203 142.815 308.467 141.809 308.467ZM141.809 306.761C142.695 306.761 143.388 306.328 143.886 305.463C144.389 304.598 144.641 303.347 144.641 301.711C144.641 300.624 144.526 299.706 144.295 298.956C144.07 298.202 143.744 297.631 143.317 297.243C142.896 296.851 142.393 296.655 141.809 296.655C140.927 296.655 140.234 297.089 139.732 297.959C139.229 298.828 138.975 300.079 138.971 301.711C138.971 302.802 139.084 303.724 139.31 304.479C139.54 305.229 139.866 305.798 140.288 306.185C140.71 306.569 141.217 306.761 141.809 306.761ZM150.654 304.92L150.641 302.587H150.974L154.885 298.432H157.174L152.712 303.162H152.412L150.654 304.92ZM148.896 308.25V295.159H150.807V308.25H148.896ZM155.096 308.25L151.581 303.584L152.898 302.248L157.442 308.25H155.096Z" fill="#2E263D" fill-opacity="0.9"/>
<path d="M95.9716 320.341V331.25H94.6932L88.7486 322.685H88.642V331.25H87.321V320.341H88.5994L94.5653 328.928H94.6719V320.341H95.9716ZM103.601 327.905V323.068H104.858V331.25H103.601V329.865H103.516C103.324 330.281 103.025 330.634 102.621 330.925C102.216 331.213 101.704 331.357 101.087 331.357C100.575 331.357 100.121 331.245 99.7229 331.021C99.3252 330.794 99.0127 330.453 98.7854 329.998C98.5581 329.54 98.4445 328.963 98.4445 328.267V323.068H99.7016V328.182C99.7016 328.778 99.8685 329.254 100.202 329.609C100.54 329.964 100.969 330.142 101.491 330.142C101.804 330.142 102.122 330.062 102.445 329.902C102.772 329.743 103.045 329.498 103.265 329.167C103.489 328.837 103.601 328.416 103.601 327.905ZM107.16 331.25V323.068H108.375V324.347H108.481C108.652 323.91 108.927 323.571 109.307 323.329C109.687 323.084 110.143 322.962 110.676 322.962C111.216 322.962 111.665 323.084 112.024 323.329C112.386 323.571 112.668 323.91 112.871 324.347H112.956C113.165 323.924 113.48 323.588 113.899 323.34C114.318 323.088 114.82 322.962 115.406 322.962C116.138 322.962 116.736 323.191 117.201 323.649C117.666 324.103 117.899 324.812 117.899 325.774V331.25H116.642V325.774C116.642 325.17 116.477 324.739 116.146 324.48C115.816 324.221 115.427 324.091 114.98 324.091C114.405 324.091 113.959 324.265 113.643 324.613C113.327 324.957 113.169 325.394 113.169 325.923V331.25H111.89V325.646C111.89 325.181 111.74 324.806 111.438 324.522C111.136 324.235 110.747 324.091 110.271 324.091C109.944 324.091 109.639 324.178 109.355 324.352C109.074 324.526 108.847 324.767 108.673 325.076C108.503 325.382 108.417 325.735 108.417 326.136V331.25H107.16ZM120.368 331.25V320.341H121.625V324.368H121.732C121.824 324.226 121.952 324.045 122.115 323.825C122.282 323.601 122.52 323.402 122.829 323.228C123.141 323.05 123.564 322.962 124.097 322.962C124.786 322.962 125.393 323.134 125.918 323.478C126.444 323.823 126.854 324.311 127.149 324.943C127.444 325.575 127.591 326.321 127.591 327.18C127.591 328.047 127.444 328.798 127.149 329.434C126.854 330.066 126.446 330.556 125.924 330.904C125.402 331.248 124.8 331.42 124.118 331.42C123.592 331.42 123.172 331.333 122.855 331.159C122.539 330.982 122.296 330.781 122.126 330.558C121.955 330.33 121.824 330.142 121.732 329.993H121.582V331.25H120.368ZM121.604 327.159C121.604 327.777 121.694 328.322 121.875 328.794C122.056 329.263 122.321 329.631 122.669 329.897C123.017 330.16 123.443 330.291 123.947 330.291C124.473 330.291 124.912 330.153 125.263 329.876C125.618 329.595 125.885 329.219 126.062 328.746C126.243 328.271 126.334 327.741 126.334 327.159C126.334 326.584 126.245 326.065 126.067 325.604C125.893 325.138 125.629 324.771 125.274 324.501C124.922 324.228 124.48 324.091 123.947 324.091C123.436 324.091 123.006 324.221 122.658 324.48C122.31 324.735 122.048 325.094 121.87 325.556C121.692 326.014 121.604 326.548 121.604 327.159ZM132.944 331.42C132.156 331.42 131.476 331.246 130.904 330.898C130.336 330.547 129.897 330.057 129.588 329.428C129.283 328.796 129.13 328.061 129.13 327.223C129.13 326.385 129.283 325.646 129.588 325.007C129.897 324.364 130.327 323.864 130.877 323.505C131.431 323.143 132.078 322.962 132.816 322.962C133.243 322.962 133.663 323.033 134.079 323.175C134.494 323.317 134.873 323.548 135.213 323.867C135.554 324.183 135.826 324.602 136.028 325.124C136.231 325.646 136.332 326.289 136.332 327.053V327.585H130.025V326.499H135.054C135.054 326.037 134.961 325.625 134.777 325.263C134.596 324.901 134.336 324.615 133.999 324.405C133.665 324.196 133.271 324.091 132.816 324.091C132.316 324.091 131.882 324.215 131.517 324.464C131.154 324.709 130.876 325.028 130.68 325.423C130.485 325.817 130.387 326.239 130.387 326.69V327.415C130.387 328.033 130.494 328.556 130.707 328.986C130.924 329.412 131.224 329.737 131.607 329.961C131.991 330.181 132.436 330.291 132.944 330.291C133.275 330.291 133.573 330.245 133.839 330.153C134.109 330.057 134.342 329.915 134.537 329.727C134.732 329.535 134.883 329.297 134.99 329.013L136.204 329.354C136.076 329.766 135.862 330.128 135.56 330.44C135.258 330.749 134.885 330.991 134.441 331.165C133.997 331.335 133.498 331.42 132.944 331.42ZM138.244 331.25V323.068H139.459V324.304H139.544C139.693 323.899 139.963 323.571 140.354 323.319C140.744 323.066 141.185 322.94 141.675 322.94C141.767 322.94 141.882 322.942 142.021 322.946C142.159 322.949 142.264 322.955 142.335 322.962V324.24C142.293 324.229 142.195 324.213 142.042 324.192C141.893 324.167 141.735 324.155 141.568 324.155C141.17 324.155 140.815 324.238 140.503 324.405C140.194 324.569 139.949 324.796 139.768 325.087C139.59 325.375 139.501 325.703 139.501 326.072V331.25H138.244ZM151.368 331.42C150.629 331.42 149.981 331.245 149.424 330.893C148.87 330.542 148.437 330.05 148.124 329.418C147.815 328.786 147.661 328.047 147.661 327.202C147.661 326.349 147.815 325.605 148.124 324.97C148.437 324.334 148.87 323.841 149.424 323.489C149.981 323.137 150.629 322.962 151.368 322.962C152.107 322.962 152.753 323.137 153.307 323.489C153.864 323.841 154.298 324.334 154.607 324.97C154.919 325.605 155.075 326.349 155.075 327.202C155.075 328.047 154.919 328.786 154.607 329.418C154.298 330.05 153.864 330.542 153.307 330.893C152.753 331.245 152.107 331.42 151.368 331.42ZM151.368 330.291C151.929 330.291 152.391 330.147 152.753 329.86C153.115 329.572 153.383 329.194 153.557 328.725C153.731 328.256 153.818 327.749 153.818 327.202C153.818 326.655 153.731 326.145 153.557 325.673C153.383 325.201 153.115 324.819 152.753 324.528C152.391 324.237 151.929 324.091 151.368 324.091C150.807 324.091 150.345 324.237 149.983 324.528C149.621 324.819 149.353 325.201 149.179 325.673C149.005 326.145 148.918 326.655 148.918 327.202C148.918 327.749 149.005 328.256 149.179 328.725C149.353 329.194 149.621 329.572 149.983 329.86C150.345 330.147 150.807 330.291 151.368 330.291ZM160.638 323.068V324.134H156.227V323.068H160.638ZM157.548 331.25V321.939C157.548 321.47 157.658 321.08 157.879 320.767C158.099 320.455 158.385 320.22 158.736 320.064C159.088 319.908 159.459 319.83 159.849 319.83C160.158 319.83 160.411 319.854 160.606 319.904C160.801 319.954 160.947 320 161.043 320.043L160.68 321.129C160.616 321.108 160.528 321.081 160.414 321.049C160.304 321.017 160.158 321.001 159.977 321.001C159.562 321.001 159.262 321.106 159.077 321.316C158.896 321.525 158.805 321.832 158.805 322.237V331.25H157.548ZM167.236 320.341L170.475 329.524H170.603L173.841 320.341H175.226L171.221 331.25H169.857L165.851 320.341H167.236ZM176.755 331.25V323.068H178.012V331.25H176.755ZM177.394 321.705C177.149 321.705 176.938 321.621 176.76 321.454C176.586 321.287 176.499 321.087 176.499 320.852C176.499 320.618 176.586 320.417 176.76 320.25C176.938 320.083 177.149 320 177.394 320C177.639 320 177.849 320.083 178.023 320.25C178.2 320.417 178.289 320.618 178.289 320.852C178.289 321.087 178.2 321.287 178.023 321.454C177.849 321.621 177.639 321.705 177.394 321.705ZM186.11 324.901L184.981 325.22C184.91 325.032 184.805 324.849 184.667 324.672C184.532 324.49 184.347 324.341 184.113 324.224C183.878 324.107 183.578 324.048 183.212 324.048C182.712 324.048 182.294 324.164 181.961 324.395C181.63 324.622 181.465 324.911 181.465 325.263C181.465 325.575 181.579 325.822 181.806 326.003C182.033 326.184 182.388 326.335 182.871 326.456L184.086 326.754C184.817 326.932 185.363 327.203 185.721 327.569C186.08 327.931 186.259 328.398 186.259 328.97C186.259 329.439 186.124 329.858 185.854 330.227C185.588 330.597 185.215 330.888 184.736 331.101C184.256 331.314 183.699 331.42 183.063 331.42C182.229 331.42 181.538 331.239 180.991 330.877C180.444 330.515 180.098 329.986 179.952 329.29L181.146 328.991C181.259 329.432 181.474 329.762 181.79 329.982C182.11 330.202 182.527 330.312 183.042 330.312C183.628 330.312 184.093 330.188 184.438 329.94C184.786 329.687 184.96 329.386 184.96 329.034C184.96 328.75 184.86 328.512 184.661 328.32C184.462 328.125 184.157 327.979 183.745 327.884L182.381 327.564C181.632 327.386 181.082 327.111 180.73 326.738C180.382 326.362 180.208 325.891 180.208 325.327C180.208 324.865 180.338 324.457 180.597 324.102C180.86 323.746 181.217 323.468 181.668 323.265C182.122 323.063 182.637 322.962 183.212 322.962C184.022 322.962 184.658 323.139 185.119 323.494C185.585 323.849 185.915 324.318 186.11 324.901ZM188.152 331.25V323.068H189.409V331.25H188.152ZM188.791 321.705C188.546 321.705 188.334 321.621 188.157 321.454C187.983 321.287 187.896 321.087 187.896 320.852C187.896 320.618 187.983 320.417 188.157 320.25C188.334 320.083 188.546 320 188.791 320C189.036 320 189.245 320.083 189.419 320.25C189.597 320.417 189.686 320.618 189.686 320.852C189.686 321.087 189.597 321.287 189.419 321.454C189.245 321.621 189.036 321.705 188.791 321.705ZM195.269 323.068V324.134H191.029V323.068H195.269ZM192.265 321.108H193.522V328.906C193.522 329.261 193.574 329.528 193.677 329.705C193.783 329.879 193.918 329.996 194.081 330.057C194.248 330.114 194.424 330.142 194.609 330.142C194.747 330.142 194.861 330.135 194.95 330.121C195.039 330.103 195.11 330.089 195.163 330.078L195.419 331.207C195.333 331.239 195.214 331.271 195.062 331.303C194.909 331.339 194.715 331.357 194.481 331.357C194.126 331.357 193.778 331.28 193.437 331.127C193.1 330.975 192.819 330.742 192.595 330.43C192.375 330.117 192.265 329.723 192.265 329.247V321.108ZM202.809 324.901L201.68 325.22C201.609 325.032 201.504 324.849 201.366 324.672C201.231 324.49 201.046 324.341 200.812 324.224C200.577 324.107 200.277 324.048 199.912 324.048C199.411 324.048 198.994 324.164 198.66 324.395C198.33 324.622 198.164 324.911 198.164 325.263C198.164 325.575 198.278 325.822 198.505 326.003C198.733 326.184 199.088 326.335 199.571 326.456L200.785 326.754C201.517 326.932 202.062 327.203 202.42 327.569C202.779 327.931 202.958 328.398 202.958 328.97C202.958 329.439 202.824 329.858 202.554 330.227C202.287 330.597 201.914 330.888 201.435 331.101C200.956 331.314 200.398 331.42 199.762 331.42C198.928 331.42 198.237 331.239 197.69 330.877C197.143 330.515 196.797 329.986 196.652 329.29L197.845 328.991C197.958 329.432 198.173 329.762 198.489 329.982C198.809 330.202 199.226 330.312 199.741 330.312C200.327 330.312 200.792 330.188 201.137 329.94C201.485 329.687 201.659 329.386 201.659 329.034C201.659 328.75 201.559 328.512 201.36 328.32C201.162 328.125 200.856 327.979 200.444 327.884L199.081 327.564C198.331 327.386 197.781 327.111 197.429 326.738C197.081 326.362 196.907 325.891 196.907 325.327C196.907 324.865 197.037 324.457 197.296 324.102C197.559 323.746 197.916 323.468 198.367 323.265C198.821 323.063 199.336 322.962 199.912 322.962C200.721 322.962 201.357 323.139 201.819 323.494C202.284 323.849 202.614 324.318 202.809 324.901Z" fill="#2E263D" fill-opacity="0.7"/>
</g>
<defs>
<filter id="filter0_d_8003_4444" x="0" y="0" width="285" height="370" filterUnits="userSpaceOnUse" color-interpolation-filters="sRGB">
<feFlood flood-opacity="0" result="BackgroundImageFix"/>
<feColorMatrix in="SourceAlpha" type="matrix" values="0 0 0 0 0 0 0 0 0 0 0 0 0 0 0 0 0 0 127 0" result="hardAlpha"/>
<feOffset dy="4"/>
<feGaussianBlur stdDeviation="5"/>
<feComposite in2="hardAlpha" operator="out"/>
<feColorMatrix type="matrix" values="0 0 0 0 0.180392 0 0 0 0 0.14902 0 0 0 0 0.239216 0 0 0 0.2 0"/>
<feBlend mode="normal" in2="BackgroundImageFix" result="effect1_dropShadow_8003_4444"/>
<feBlend mode="normal" in="SourceGraphic" in2="effect1_dropShadow_8003_4444" result="shape"/>
</filter>
</defs>
</svg>
