<svg width="61" height="32" viewBox="0 0 61 32" fill="none" xmlns="http://www.w3.org/2000/svg">
<path d="M0 16C0 7.16344 7.16344 0 16 0H45C53.8366 0 61 7.16344 61 16C61 24.8366 53.8366 32 45 32H16C7.16344 32 0 24.8366 0 16Z" fill="#2E263D" fill-opacity="0.08"/>
<path d="M25.071 14.62H23.6307C23.5753 14.3123 23.4722 14.0414 23.3214 13.8075C23.1706 13.5736 22.9859 13.3751 22.7674 13.212C22.5489 13.0489 22.3042 12.9258 22.0334 12.8427C21.7656 12.7596 21.4809 12.718 21.1793 12.718C20.6346 12.718 20.1468 12.855 19.7159 13.1289C19.2881 13.4028 18.9496 13.8045 18.7003 14.3338C18.4541 14.8632 18.331 15.5095 18.331 16.2727C18.331 17.0421 18.4541 17.6915 18.7003 18.2209C18.9496 18.7502 19.2897 19.1503 19.7205 19.4212C20.1514 19.692 20.6361 19.8274 21.1747 19.8274C21.4732 19.8274 21.7564 19.7874 22.0241 19.7074C22.295 19.6243 22.5397 19.5027 22.7582 19.3427C22.9767 19.1826 23.1613 18.9872 23.3121 18.7564C23.466 18.5225 23.5722 18.2547 23.6307 17.9531L25.071 17.9577C24.9941 18.4225 24.8448 18.8503 24.6232 19.2411C24.4047 19.6289 24.1231 19.9644 23.7784 20.2475C23.4368 20.5276 23.0459 20.7446 22.6058 20.8984C22.1657 21.0523 21.6856 21.1293 21.1655 21.1293C20.3468 21.1293 19.6174 20.9354 18.9773 20.5476C18.3371 20.1567 17.8324 19.5981 17.4631 18.8718C17.0968 18.1455 16.9137 17.2791 16.9137 16.2727C16.9137 15.2633 17.0984 14.3969 17.4677 13.6737C17.837 12.9473 18.3417 12.3903 18.9819 12.0025C19.622 11.6116 20.3499 11.4162 21.1655 11.4162C21.6671 11.4162 22.1349 11.4885 22.5689 11.6332C23.0059 11.7747 23.3983 11.984 23.7461 12.261C24.0939 12.5349 24.3816 12.8704 24.6094 13.2674C24.8371 13.6613 24.991 14.1122 25.071 14.62ZM28.0475 16.7898V21H26.6672V11.5455H28.029V15.0632H28.1167C28.2829 14.6816 28.5368 14.3784 28.8785 14.1538C29.2201 13.9291 29.6663 13.8168 30.2172 13.8168C30.7035 13.8168 31.1282 13.9168 31.4914 14.1168C31.8576 14.3169 32.1408 14.6154 32.3408 15.0124C32.5439 15.4064 32.6455 15.8988 32.6455 16.4897V21H31.2652V16.6559C31.2652 16.1358 31.1313 15.7326 30.8635 15.4464C30.5958 15.1571 30.2234 15.0124 29.7464 15.0124C29.4201 15.0124 29.1278 15.0817 28.8692 15.2202C28.6138 15.3587 28.4122 15.5618 28.2645 15.8295C28.1198 16.0942 28.0475 16.4143 28.0475 16.7898ZM34.4875 21V13.9091H35.8678V21H34.4875ZM35.1846 12.815C34.9445 12.815 34.7383 12.735 34.566 12.5749C34.3967 12.4118 34.3121 12.2179 34.3121 11.9933C34.3121 11.7655 34.3967 11.5716 34.566 11.4116C34.7383 11.2485 34.9445 11.1669 35.1846 11.1669C35.4246 11.1669 35.6293 11.2485 35.7986 11.4116C35.9709 11.5716 36.0571 11.7655 36.0571 11.9933C36.0571 12.2179 35.9709 12.4118 35.7986 12.5749C35.6293 12.735 35.4246 12.815 35.1846 12.815ZM37.7248 23.6591V13.9091H39.0728V15.0586H39.1882C39.2682 14.9109 39.3836 14.7401 39.5344 14.5462C39.6853 14.3523 39.8945 14.183 40.1623 14.0384C40.43 13.8906 40.784 13.8168 41.2241 13.8168C41.7965 13.8168 42.3074 13.9614 42.7567 14.2507C43.2061 14.54 43.5585 14.957 43.8139 15.5018C44.0724 16.0465 44.2017 16.7021 44.2017 17.4684C44.2017 18.2347 44.074 18.8918 43.8185 19.4396C43.5631 19.9844 43.2122 20.4045 42.766 20.6999C42.3197 20.9923 41.8104 21.1385 41.2379 21.1385C40.8071 21.1385 40.4547 21.0662 40.1808 20.9215C39.9099 20.7769 39.6976 20.6076 39.5437 20.4137C39.3898 20.2198 39.2713 20.0475 39.1882 19.8967H39.1051V23.6591H37.7248ZM39.0774 17.4545C39.0774 17.9531 39.1497 18.3902 39.2944 18.7656C39.439 19.1411 39.6483 19.435 39.9222 19.6474C40.1961 19.8567 40.5316 19.9613 40.9286 19.9613C41.341 19.9613 41.6857 19.852 41.9627 19.6335C42.2397 19.4119 42.449 19.1119 42.5906 18.7333C42.7352 18.3548 42.8075 17.9285 42.8075 17.4545C42.8075 16.9867 42.7367 16.5666 42.5952 16.1942C42.4567 15.8219 42.2474 15.5279 41.9673 15.3125C41.6903 15.0971 41.3441 14.9893 40.9286 14.9893C40.5285 14.9893 40.19 15.0924 39.913 15.2987C39.6391 15.5049 39.4313 15.7926 39.2898 16.1619C39.1482 16.5312 39.0774 16.9621 39.0774 17.4545Z" fill="#2E263D" fill-opacity="0.9"/>
</svg>
