<svg width="140" height="50" viewBox="0 0 140 50" fill="none" xmlns="http://www.w3.org/2000/svg">
<g filter="url(#filter0_d_8003_3898)">
<g clip-path="url(#clip0_8003_3898)">
<g filter="url(#filter1_d_8003_3898)">
<g clip-path="url(#clip1_8003_3898)">
<path d="M4 10C4 5.58172 7.58172 2 12 2H94V44H12C7.58172 44 4 40.4183 4 36V10Z" fill="#8C57FF"/>
<path d="M27.3583 29V16.6364H29.2237V27.3942H34.826V29H27.3583ZM39.5076 29.2053C38.92 29.2053 38.3888 29.0966 37.9139 28.8793C37.439 28.6579 37.0627 28.3379 36.785 27.9194C36.5113 27.5008 36.3745 26.9877 36.3745 26.38C36.3745 25.8568 36.4751 25.4261 36.6763 25.0881C36.8775 24.75 37.1492 24.4824 37.4913 24.2852C37.8334 24.0879 38.2157 23.939 38.6383 23.8384C39.0609 23.7378 39.4915 23.6613 39.9302 23.609C40.4856 23.5446 40.9364 23.4923 41.2825 23.4521C41.6286 23.4078 41.8801 23.3374 42.0371 23.2408C42.1941 23.1442 42.2725 22.9872 42.2725 22.7699V22.7276C42.2725 22.2004 42.1236 21.7919 41.8258 21.5021C41.532 21.2124 41.0933 21.0675 40.5098 21.0675C39.902 21.0675 39.4231 21.2023 39.073 21.4719C38.7269 21.7376 38.4874 22.0334 38.3546 22.3594L36.6582 21.973C36.8594 21.4096 37.1532 20.9548 37.5396 20.6087C37.93 20.2585 38.3787 20.005 38.8858 19.848C39.3929 19.687 39.9262 19.6065 40.4856 19.6065C40.8559 19.6065 41.2483 19.6508 41.6628 19.7393C42.0814 19.8239 42.4718 19.9808 42.834 20.2102C43.2002 20.4396 43.5001 20.7676 43.7335 21.1942C43.9669 21.6168 44.0836 22.1662 44.0836 22.8423V29H42.3208V27.7322H42.2484C42.1317 27.9657 41.9566 28.1951 41.7232 28.4205C41.4898 28.6458 41.1899 28.833 40.8237 28.9819C40.4574 29.1308 40.0188 29.2053 39.5076 29.2053ZM39.9 27.7564C40.3991 27.7564 40.8257 27.6578 41.1799 27.4606C41.5381 27.2634 41.8097 27.0058 41.9949 26.6879C42.184 26.3659 42.2786 26.0218 42.2786 25.6555V24.4602C42.2142 24.5246 42.0894 24.585 41.9043 24.6413C41.7232 24.6937 41.5159 24.7399 41.2825 24.7802C41.0491 24.8164 40.8217 24.8506 40.6003 24.8828C40.379 24.911 40.1938 24.9351 40.0449 24.9553C39.6948 24.9995 39.3748 25.074 39.085 25.1786C38.7993 25.2833 38.5699 25.4342 38.3968 25.6314C38.2278 25.8246 38.1433 26.0821 38.1433 26.4041C38.1433 26.8509 38.3083 27.1889 38.6383 27.4183C38.9683 27.6437 39.3889 27.7564 39.9 27.7564ZM46.4878 29V19.7273H48.2325V21.2003H48.3291C48.4981 20.7012 48.796 20.3088 49.2226 20.0231C49.6532 19.7333 50.1402 19.5884 50.6835 19.5884C50.7962 19.5884 50.929 19.5924 51.0819 19.6005C51.2389 19.6085 51.3617 19.6186 51.4502 19.6307V21.3572C51.3778 21.3371 51.249 21.315 51.0638 21.2908C50.8787 21.2627 50.6936 21.2486 50.5084 21.2486C50.0818 21.2486 49.7015 21.3391 49.3675 21.5202C49.0374 21.6973 48.7758 21.9448 48.5827 22.2628C48.3895 22.5767 48.2929 22.9349 48.2929 23.3374V29H46.4878ZM56.568 32.6705C55.8315 32.6705 55.1976 32.5739 54.6664 32.3807C54.1391 32.1875 53.7085 31.9319 53.3745 31.614C53.0404 31.296 52.7909 30.9479 52.6259 30.5696L54.1774 29.9297C54.286 30.1068 54.4309 30.2939 54.612 30.4911C54.7972 30.6924 55.0467 30.8634 55.3606 31.0043C55.6786 31.1451 56.0871 31.2156 56.5861 31.2156C57.2703 31.2156 57.8358 31.0485 58.2825 30.7145C58.7292 30.3845 58.9526 29.8572 58.9526 29.1328V27.3097H58.8379C58.7292 27.5069 58.5723 27.7262 58.367 27.9677C58.1658 28.2092 57.8881 28.4184 57.5339 28.5955C57.1797 28.7726 56.7189 28.8612 56.1515 28.8612C55.419 28.8612 54.7589 28.6901 54.1713 28.348C53.5878 28.0019 53.1249 27.4928 52.7828 26.8207C52.4448 26.1445 52.2757 25.3134 52.2757 24.3274C52.2757 23.3414 52.4428 22.4962 52.7768 21.7919C53.1149 21.0876 53.5777 20.5483 54.1653 20.174C54.7529 19.7957 55.419 19.6065 56.1635 19.6065C56.7391 19.6065 57.2039 19.7031 57.5581 19.8963C57.9122 20.0855 58.1879 20.3068 58.3851 20.5604C58.5864 20.8139 58.7413 21.0373 58.85 21.2305H58.9828V19.7273H60.7516V29.2053C60.7516 30.0021 60.5665 30.6561 60.1962 31.1673C59.8259 31.6784 59.3249 32.0567 58.693 32.3022C58.0652 32.5477 57.3568 32.6705 56.568 32.6705ZM56.5499 27.364C57.0691 27.364 57.5078 27.2433 57.8659 27.0018C58.2282 26.7563 58.5018 26.4061 58.687 25.9513C58.8761 25.4925 58.9707 24.9432 58.9707 24.3033C58.9707 23.6795 58.8781 23.1301 58.693 22.6552C58.5079 22.1803 58.2362 21.81 57.878 21.5444C57.5198 21.2747 57.0771 21.1399 56.5499 21.1399C56.0066 21.1399 55.5538 21.2808 55.1916 21.5625C54.8294 21.8402 54.5557 22.2185 54.3706 22.6974C54.1895 23.1764 54.0989 23.7116 54.0989 24.3033C54.0989 24.911 54.1915 25.4442 54.3766 25.9031C54.5617 26.3619 54.8354 26.7201 55.1976 26.9776C55.5639 27.2352 56.0146 27.364 56.5499 27.364ZM67.1689 29.1871C66.2553 29.1871 65.4685 28.992 64.8084 28.6016C64.1524 28.2071 63.6453 27.6538 63.2871 26.9414C62.9329 26.225 62.7559 25.3859 62.7559 24.424C62.7559 23.4742 62.9329 22.6371 63.2871 21.9126C63.6453 21.1882 64.1444 20.6228 64.7843 20.2163C65.4282 19.8098 66.1808 19.6065 67.0421 19.6065C67.5653 19.6065 68.0724 19.6931 68.5634 19.8661C69.0544 20.0392 69.4951 20.3108 69.8855 20.6811C70.2759 21.0514 70.5837 21.5323 70.8091 22.1239C71.0345 22.7115 71.1472 23.4259 71.1472 24.267V24.907H63.7761V23.5547H69.3784C69.3784 23.0798 69.2818 22.6592 69.0886 22.293C68.8954 21.9227 68.6238 21.6309 68.2736 21.4176C67.9275 21.2043 67.521 21.0977 67.0542 21.0977C66.5471 21.0977 66.1043 21.2224 65.726 21.4719C65.3517 21.7174 65.062 22.0394 64.8567 22.4379C64.6555 22.8323 64.5549 23.2609 64.5549 23.7237V24.7802C64.5549 25.4 64.6635 25.9272 64.8809 26.3619C65.1022 26.7965 65.4101 27.1286 65.8045 27.358C66.1989 27.5833 66.6597 27.696 67.187 27.696C67.5291 27.696 67.841 27.6477 68.1227 27.5511C68.4044 27.4505 68.6479 27.3016 68.8532 27.1044C69.0584 26.9072 69.2154 26.6637 69.324 26.3739L71.0325 26.6818C70.8957 27.1849 70.6502 27.6256 70.296 28.0039C69.9458 28.3782 69.5051 28.67 68.9739 28.8793C68.4467 29.0845 67.845 29.1871 67.1689 29.1871Z" fill="white"/>
</g>
</g>
<line x1="93.5" y1="44" x2="93.5" y2="2" stroke="#7E4EE6"/>
<rect width="42" height="42" transform="translate(94 2)" fill="#8C57FF"/>
<path d="M115 24.3673L120.775 18.5923L122.425 20.242L115 27.6666L107.575 20.242L109.225 18.5923L115 24.3673Z" fill="white"/>
</g>
</g>
<defs>
<filter id="filter0_d_8003_3898" x="0" y="0" width="140" height="50" filterUnits="userSpaceOnUse" color-interpolation-filters="sRGB">
<feFlood flood-opacity="0" result="BackgroundImageFix"/>
<feColorMatrix in="SourceAlpha" type="matrix" values="0 0 0 0 0 0 0 0 0 0 0 0 0 0 0 0 0 0 127 0" result="hardAlpha"/>
<feOffset dy="2"/>
<feGaussianBlur stdDeviation="2"/>
<feColorMatrix type="matrix" values="0 0 0 0 0.180392 0 0 0 0 0.14902 0 0 0 0 0.239216 0 0 0 0.16 0"/>
<feBlend mode="normal" in2="BackgroundImageFix" result="effect1_dropShadow_8003_3898"/>
<feBlend mode="normal" in="SourceGraphic" in2="effect1_dropShadow_8003_3898" result="shape"/>
</filter>
<filter id="filter1_d_8003_3898" x="0" y="0" width="98" height="50" filterUnits="userSpaceOnUse" color-interpolation-filters="sRGB">
<feFlood flood-opacity="0" result="BackgroundImageFix"/>
<feColorMatrix in="SourceAlpha" type="matrix" values="0 0 0 0 0 0 0 0 0 0 0 0 0 0 0 0 0 0 127 0" result="hardAlpha"/>
<feOffset dy="2"/>
<feGaussianBlur stdDeviation="2"/>
<feColorMatrix type="matrix" values="0 0 0 0 0.180392 0 0 0 0 0.14902 0 0 0 0 0.239216 0 0 0 0.16 0"/>
<feBlend mode="normal" in2="BackgroundImageFix" result="effect1_dropShadow_8003_3898"/>
<feBlend mode="normal" in="SourceGraphic" in2="effect1_dropShadow_8003_3898" result="shape"/>
</filter>
<clipPath id="clip0_8003_3898">
<path d="M4 10C4 5.58172 7.58172 2 12 2H128C132.418 2 136 5.58172 136 10V36C136 40.4183 132.418 44 128 44H12C7.58172 44 4 40.4183 4 36V10Z" fill="white"/>
</clipPath>
<clipPath id="clip1_8003_3898">
<path d="M4 10C4 5.58172 7.58172 2 12 2H94V44H12C7.58172 44 4 40.4183 4 36V10Z" fill="white"/>
</clipPath>
</defs>
</svg>
