<svg width="278" height="50" viewBox="0 0 278 50" fill="none" xmlns="http://www.w3.org/2000/svg">
<g filter="url(#filter0_d_8003_3910)">
<g clip-path="url(#clip0_8003_3910)">
<g clip-path="url(#clip1_8003_3910)">
<rect width="90" height="42" transform="translate(4 2)" fill="#8C57FF"/>
<path d="M27.3583 29V16.6364H29.2237V27.3942H34.826V29H27.3583ZM39.5076 29.2053C38.92 29.2053 38.3888 29.0966 37.9139 28.8793C37.439 28.6579 37.0627 28.3379 36.785 27.9194C36.5113 27.5008 36.3745 26.9877 36.3745 26.38C36.3745 25.8568 36.4751 25.4261 36.6763 25.0881C36.8775 24.75 37.1492 24.4824 37.4913 24.2852C37.8334 24.0879 38.2157 23.939 38.6383 23.8384C39.0609 23.7378 39.4915 23.6613 39.9302 23.609C40.4856 23.5446 40.9364 23.4923 41.2825 23.4521C41.6286 23.4078 41.8801 23.3374 42.0371 23.2408C42.1941 23.1442 42.2725 22.9872 42.2725 22.7699V22.7276C42.2725 22.2004 42.1236 21.7919 41.8258 21.5021C41.532 21.2124 41.0933 21.0675 40.5098 21.0675C39.902 21.0675 39.4231 21.2023 39.073 21.4719C38.7269 21.7376 38.4874 22.0334 38.3546 22.3594L36.6582 21.973C36.8594 21.4096 37.1532 20.9548 37.5396 20.6087C37.93 20.2585 38.3787 20.005 38.8858 19.848C39.3929 19.687 39.9262 19.6065 40.4856 19.6065C40.8559 19.6065 41.2483 19.6508 41.6628 19.7393C42.0814 19.8239 42.4718 19.9808 42.834 20.2102C43.2002 20.4396 43.5001 20.7676 43.7335 21.1942C43.9669 21.6168 44.0836 22.1662 44.0836 22.8423V29H42.3208V27.7322H42.2484C42.1317 27.9657 41.9566 28.1951 41.7232 28.4205C41.4898 28.6458 41.1899 28.833 40.8237 28.9819C40.4574 29.1308 40.0188 29.2053 39.5076 29.2053ZM39.9 27.7564C40.3991 27.7564 40.8257 27.6578 41.1799 27.4606C41.5381 27.2634 41.8097 27.0058 41.9949 26.6879C42.184 26.3659 42.2786 26.0218 42.2786 25.6555V24.4602C42.2142 24.5246 42.0894 24.585 41.9043 24.6413C41.7232 24.6937 41.5159 24.7399 41.2825 24.7802C41.0491 24.8164 40.8217 24.8506 40.6003 24.8828C40.379 24.911 40.1938 24.9351 40.0449 24.9553C39.6948 24.9995 39.3748 25.074 39.085 25.1786C38.7993 25.2833 38.5699 25.4342 38.3968 25.6314C38.2278 25.8246 38.1433 26.0821 38.1433 26.4041C38.1433 26.8509 38.3083 27.1889 38.6383 27.4183C38.9683 27.6437 39.3889 27.7564 39.9 27.7564ZM46.4878 29V19.7273H48.2325V21.2003H48.3291C48.4981 20.7012 48.796 20.3088 49.2226 20.0231C49.6532 19.7333 50.1402 19.5884 50.6835 19.5884C50.7962 19.5884 50.929 19.5924 51.0819 19.6005C51.2389 19.6085 51.3617 19.6186 51.4502 19.6307V21.3572C51.3778 21.3371 51.249 21.315 51.0638 21.2908C50.8787 21.2627 50.6936 21.2486 50.5084 21.2486C50.0818 21.2486 49.7015 21.3391 49.3675 21.5202C49.0374 21.6973 48.7758 21.9448 48.5827 22.2628C48.3895 22.5767 48.2929 22.9349 48.2929 23.3374V29H46.4878ZM56.568 32.6705C55.8315 32.6705 55.1976 32.5739 54.6664 32.3807C54.1391 32.1875 53.7085 31.9319 53.3745 31.614C53.0404 31.296 52.7909 30.9479 52.6259 30.5696L54.1774 29.9297C54.286 30.1068 54.4309 30.2939 54.612 30.4911C54.7972 30.6924 55.0467 30.8634 55.3606 31.0043C55.6786 31.1451 56.0871 31.2156 56.5861 31.2156C57.2703 31.2156 57.8358 31.0485 58.2825 30.7145C58.7292 30.3845 58.9526 29.8572 58.9526 29.1328V27.3097H58.8379C58.7292 27.5069 58.5723 27.7262 58.367 27.9677C58.1658 28.2092 57.8881 28.4184 57.5339 28.5955C57.1797 28.7726 56.7189 28.8612 56.1515 28.8612C55.419 28.8612 54.7589 28.6901 54.1713 28.348C53.5878 28.0019 53.1249 27.4928 52.7828 26.8207C52.4448 26.1445 52.2757 25.3134 52.2757 24.3274C52.2757 23.3414 52.4428 22.4962 52.7768 21.7919C53.1149 21.0876 53.5777 20.5483 54.1653 20.174C54.7529 19.7957 55.419 19.6065 56.1635 19.6065C56.7391 19.6065 57.2039 19.7031 57.5581 19.8963C57.9122 20.0855 58.1879 20.3068 58.3851 20.5604C58.5864 20.8139 58.7413 21.0373 58.85 21.2305H58.9828V19.7273H60.7516V29.2053C60.7516 30.0021 60.5665 30.6561 60.1962 31.1673C59.8259 31.6784 59.3249 32.0567 58.693 32.3022C58.0652 32.5477 57.3568 32.6705 56.568 32.6705ZM56.5499 27.364C57.0691 27.364 57.5078 27.2433 57.8659 27.0018C58.2282 26.7563 58.5018 26.4061 58.687 25.9513C58.8761 25.4925 58.9707 24.9432 58.9707 24.3033C58.9707 23.6795 58.8781 23.1301 58.693 22.6552C58.5079 22.1803 58.2362 21.81 57.878 21.5444C57.5198 21.2747 57.0771 21.1399 56.5499 21.1399C56.0066 21.1399 55.5538 21.2808 55.1916 21.5625C54.8294 21.8402 54.5557 22.2185 54.3706 22.6974C54.1895 23.1764 54.0989 23.7116 54.0989 24.3033C54.0989 24.911 54.1915 25.4442 54.3766 25.9031C54.5617 26.3619 54.8354 26.7201 55.1976 26.9776C55.5639 27.2352 56.0146 27.364 56.5499 27.364ZM67.1689 29.1871C66.2553 29.1871 65.4685 28.992 64.8084 28.6016C64.1524 28.2071 63.6453 27.6538 63.2871 26.9414C62.9329 26.225 62.7559 25.3859 62.7559 24.424C62.7559 23.4742 62.9329 22.6371 63.2871 21.9126C63.6453 21.1882 64.1444 20.6228 64.7843 20.2163C65.4282 19.8098 66.1808 19.6065 67.0421 19.6065C67.5653 19.6065 68.0724 19.6931 68.5634 19.8661C69.0544 20.0392 69.4951 20.3108 69.8855 20.6811C70.2759 21.0514 70.5837 21.5323 70.8091 22.1239C71.0345 22.7115 71.1472 23.4259 71.1472 24.267V24.907H63.7761V23.5547H69.3784C69.3784 23.0798 69.2818 22.6592 69.0886 22.293C68.8954 21.9227 68.6238 21.6309 68.2736 21.4176C67.9275 21.2043 67.521 21.0977 67.0542 21.0977C66.5471 21.0977 66.1043 21.2224 65.726 21.4719C65.3517 21.7174 65.062 22.0394 64.8567 22.4379C64.6555 22.8323 64.5549 23.2609 64.5549 23.7237V24.7802C64.5549 25.4 64.6635 25.9272 64.8809 26.3619C65.1022 26.7965 65.4101 27.1286 65.8045 27.358C66.1989 27.5833 66.6597 27.696 67.187 27.696C67.5291 27.696 67.841 27.6477 68.1227 27.5511C68.4044 27.4505 68.6479 27.3016 68.8532 27.1044C69.0584 26.9072 69.2154 26.6637 69.324 26.3739L71.0325 26.6818C70.8957 27.1849 70.6502 27.6256 70.296 28.0039C69.9458 28.3782 69.5051 28.67 68.9739 28.8793C68.4467 29.0845 67.845 29.1871 67.1689 29.1871Z" fill="white"/>
</g>
<line x1="93.5" y1="44" x2="93.5" y2="2" stroke="#7E4EE6"/>
<g clip-path="url(#clip2_8003_3910)">
<rect width="90" height="42" transform="translate(94 2)" fill="#8C57FF"/>
<path d="M117.358 29V16.6364H119.224V27.3942H124.826V29H117.358ZM129.508 29.2053C128.92 29.2053 128.389 29.0966 127.914 28.8793C127.439 28.6579 127.063 28.3379 126.785 27.9194C126.511 27.5008 126.374 26.9877 126.374 26.38C126.374 25.8568 126.475 25.4261 126.676 25.0881C126.878 24.75 127.149 24.4824 127.491 24.2852C127.833 24.0879 128.216 23.939 128.638 23.8384C129.061 23.7378 129.492 23.6613 129.93 23.609C130.486 23.5446 130.936 23.4923 131.282 23.4521C131.629 23.4078 131.88 23.3374 132.037 23.2408C132.194 23.1442 132.273 22.9872 132.273 22.7699V22.7276C132.273 22.2004 132.124 21.7919 131.826 21.5021C131.532 21.2124 131.093 21.0675 130.51 21.0675C129.902 21.0675 129.423 21.2023 129.073 21.4719C128.727 21.7376 128.487 22.0334 128.355 22.3594L126.658 21.973C126.859 21.4096 127.153 20.9548 127.54 20.6087C127.93 20.2585 128.379 20.005 128.886 19.848C129.393 19.687 129.926 19.6065 130.486 19.6065C130.856 19.6065 131.248 19.6508 131.663 19.7393C132.081 19.8239 132.472 19.9808 132.834 20.2102C133.2 20.4396 133.5 20.7676 133.733 21.1942C133.967 21.6168 134.084 22.1662 134.084 22.8423V29H132.321V27.7322H132.248C132.132 27.9657 131.957 28.1951 131.723 28.4205C131.49 28.6458 131.19 28.833 130.824 28.9819C130.457 29.1308 130.019 29.2053 129.508 29.2053ZM129.9 27.7564C130.399 27.7564 130.826 27.6578 131.18 27.4606C131.538 27.2634 131.81 27.0058 131.995 26.6879C132.184 26.3659 132.279 26.0218 132.279 25.6555V24.4602C132.214 24.5246 132.089 24.585 131.904 24.6413C131.723 24.6937 131.516 24.7399 131.282 24.7802C131.049 24.8164 130.822 24.8506 130.6 24.8828C130.379 24.911 130.194 24.9351 130.045 24.9553C129.695 24.9995 129.375 25.074 129.085 25.1786C128.799 25.2833 128.57 25.4342 128.397 25.6314C128.228 25.8246 128.143 26.0821 128.143 26.4041C128.143 26.8509 128.308 27.1889 128.638 27.4183C128.968 27.6437 129.389 27.7564 129.9 27.7564ZM136.488 29V19.7273H138.233V21.2003H138.329C138.498 20.7012 138.796 20.3088 139.223 20.0231C139.653 19.7333 140.14 19.5884 140.684 19.5884C140.796 19.5884 140.929 19.5924 141.082 19.6005C141.239 19.6085 141.362 19.6186 141.45 19.6307V21.3572C141.378 21.3371 141.249 21.315 141.064 21.2908C140.879 21.2627 140.694 21.2486 140.508 21.2486C140.082 21.2486 139.701 21.3391 139.367 21.5202C139.037 21.6973 138.776 21.9448 138.583 22.2628C138.389 22.5767 138.293 22.9349 138.293 23.3374V29H136.488ZM146.568 32.6705C145.831 32.6705 145.198 32.5739 144.666 32.3807C144.139 32.1875 143.709 31.9319 143.374 31.614C143.04 31.296 142.791 30.9479 142.626 30.5696L144.177 29.9297C144.286 30.1068 144.431 30.2939 144.612 30.4911C144.797 30.6924 145.047 30.8634 145.361 31.0043C145.679 31.1451 146.087 31.2156 146.586 31.2156C147.27 31.2156 147.836 31.0485 148.282 30.7145C148.729 30.3845 148.953 29.8572 148.953 29.1328V27.3097H148.838C148.729 27.5069 148.572 27.7262 148.367 27.9677C148.166 28.2092 147.888 28.4184 147.534 28.5955C147.18 28.7726 146.719 28.8612 146.151 28.8612C145.419 28.8612 144.759 28.6901 144.171 28.348C143.588 28.0019 143.125 27.4928 142.783 26.8207C142.445 26.1445 142.276 25.3134 142.276 24.3274C142.276 23.3414 142.443 22.4962 142.777 21.7919C143.115 21.0876 143.578 20.5483 144.165 20.174C144.753 19.7957 145.419 19.6065 146.164 19.6065C146.739 19.6065 147.204 19.7031 147.558 19.8963C147.912 20.0855 148.188 20.3068 148.385 20.5604C148.586 20.8139 148.741 21.0373 148.85 21.2305H148.983V19.7273H150.752V29.2053C150.752 30.0021 150.566 30.6561 150.196 31.1673C149.826 31.6784 149.325 32.0567 148.693 32.3022C148.065 32.5477 147.357 32.6705 146.568 32.6705ZM146.55 27.364C147.069 27.364 147.508 27.2433 147.866 27.0018C148.228 26.7563 148.502 26.4061 148.687 25.9513C148.876 25.4925 148.971 24.9432 148.971 24.3033C148.971 23.6795 148.878 23.1301 148.693 22.6552C148.508 22.1803 148.236 21.81 147.878 21.5444C147.52 21.2747 147.077 21.1399 146.55 21.1399C146.007 21.1399 145.554 21.2808 145.192 21.5625C144.829 21.8402 144.556 22.2185 144.371 22.6974C144.189 23.1764 144.099 23.7116 144.099 24.3033C144.099 24.911 144.191 25.4442 144.377 25.9031C144.562 26.3619 144.835 26.7201 145.198 26.9776C145.564 27.2352 146.015 27.364 146.55 27.364ZM157.169 29.1871C156.255 29.1871 155.468 28.992 154.808 28.6016C154.152 28.2071 153.645 27.6538 153.287 26.9414C152.933 26.225 152.756 25.3859 152.756 24.424C152.756 23.4742 152.933 22.6371 153.287 21.9126C153.645 21.1882 154.144 20.6228 154.784 20.2163C155.428 19.8098 156.181 19.6065 157.042 19.6065C157.565 19.6065 158.072 19.6931 158.563 19.8661C159.054 20.0392 159.495 20.3108 159.885 20.6811C160.276 21.0514 160.584 21.5323 160.809 22.1239C161.035 22.7115 161.147 23.4259 161.147 24.267V24.907H153.776V23.5547H159.378C159.378 23.0798 159.282 22.6592 159.089 22.293C158.895 21.9227 158.624 21.6309 158.274 21.4176C157.927 21.2043 157.521 21.0977 157.054 21.0977C156.547 21.0977 156.104 21.2224 155.726 21.4719C155.352 21.7174 155.062 22.0394 154.857 22.4379C154.655 22.8323 154.555 23.2609 154.555 23.7237V24.7802C154.555 25.4 154.664 25.9272 154.881 26.3619C155.102 26.7965 155.41 27.1286 155.805 27.358C156.199 27.5833 156.66 27.696 157.187 27.696C157.529 27.696 157.841 27.6477 158.123 27.5511C158.404 27.4505 158.648 27.3016 158.853 27.1044C159.058 26.9072 159.215 26.6637 159.324 26.3739L161.032 26.6818C160.896 27.1849 160.65 27.6256 160.296 28.0039C159.946 28.3782 159.505 28.67 158.974 28.8793C158.447 29.0845 157.845 29.1871 157.169 29.1871Z" fill="white"/>
</g>
<line x1="183.5" y1="44" x2="183.5" y2="2" stroke="#7E4EE6"/>
<g clip-path="url(#clip3_8003_3910)">
<rect width="90" height="42" transform="translate(184 2)" fill="#8C57FF"/>
<path d="M207.358 29V16.6364H209.224V27.3942H214.826V29H207.358ZM219.508 29.2053C218.92 29.2053 218.389 29.0966 217.914 28.8793C217.439 28.6579 217.063 28.3379 216.785 27.9194C216.511 27.5008 216.374 26.9877 216.374 26.38C216.374 25.8568 216.475 25.4261 216.676 25.0881C216.878 24.75 217.149 24.4824 217.491 24.2852C217.833 24.0879 218.216 23.939 218.638 23.8384C219.061 23.7378 219.492 23.6613 219.93 23.609C220.486 23.5446 220.936 23.4923 221.282 23.4521C221.629 23.4078 221.88 23.3374 222.037 23.2408C222.194 23.1442 222.273 22.9872 222.273 22.7699V22.7276C222.273 22.2004 222.124 21.7919 221.826 21.5021C221.532 21.2124 221.093 21.0675 220.51 21.0675C219.902 21.0675 219.423 21.2023 219.073 21.4719C218.727 21.7376 218.487 22.0334 218.355 22.3594L216.658 21.973C216.859 21.4096 217.153 20.9548 217.54 20.6087C217.93 20.2585 218.379 20.005 218.886 19.848C219.393 19.687 219.926 19.6065 220.486 19.6065C220.856 19.6065 221.248 19.6508 221.663 19.7393C222.081 19.8239 222.472 19.9808 222.834 20.2102C223.2 20.4396 223.5 20.7676 223.733 21.1942C223.967 21.6168 224.084 22.1662 224.084 22.8423V29H222.321V27.7322H222.248C222.132 27.9657 221.957 28.1951 221.723 28.4205C221.49 28.6458 221.19 28.833 220.824 28.9819C220.457 29.1308 220.019 29.2053 219.508 29.2053ZM219.9 27.7564C220.399 27.7564 220.826 27.6578 221.18 27.4606C221.538 27.2634 221.81 27.0058 221.995 26.6879C222.184 26.3659 222.279 26.0218 222.279 25.6555V24.4602C222.214 24.5246 222.089 24.585 221.904 24.6413C221.723 24.6937 221.516 24.7399 221.282 24.7802C221.049 24.8164 220.822 24.8506 220.6 24.8828C220.379 24.911 220.194 24.9351 220.045 24.9553C219.695 24.9995 219.375 25.074 219.085 25.1786C218.799 25.2833 218.57 25.4342 218.397 25.6314C218.228 25.8246 218.143 26.0821 218.143 26.4041C218.143 26.8509 218.308 27.1889 218.638 27.4183C218.968 27.6437 219.389 27.7564 219.9 27.7564ZM226.488 29V19.7273H228.233V21.2003H228.329C228.498 20.7012 228.796 20.3088 229.223 20.0231C229.653 19.7333 230.14 19.5884 230.684 19.5884C230.796 19.5884 230.929 19.5924 231.082 19.6005C231.239 19.6085 231.362 19.6186 231.45 19.6307V21.3572C231.378 21.3371 231.249 21.315 231.064 21.2908C230.879 21.2627 230.694 21.2486 230.508 21.2486C230.082 21.2486 229.701 21.3391 229.367 21.5202C229.037 21.6973 228.776 21.9448 228.583 22.2628C228.389 22.5767 228.293 22.9349 228.293 23.3374V29H226.488ZM236.568 32.6705C235.831 32.6705 235.198 32.5739 234.666 32.3807C234.139 32.1875 233.709 31.9319 233.374 31.614C233.04 31.296 232.791 30.9479 232.626 30.5696L234.177 29.9297C234.286 30.1068 234.431 30.2939 234.612 30.4911C234.797 30.6924 235.047 30.8634 235.361 31.0043C235.679 31.1451 236.087 31.2156 236.586 31.2156C237.27 31.2156 237.836 31.0485 238.282 30.7145C238.729 30.3845 238.953 29.8572 238.953 29.1328V27.3097H238.838C238.729 27.5069 238.572 27.7262 238.367 27.9677C238.166 28.2092 237.888 28.4184 237.534 28.5955C237.18 28.7726 236.719 28.8612 236.151 28.8612C235.419 28.8612 234.759 28.6901 234.171 28.348C233.588 28.0019 233.125 27.4928 232.783 26.8207C232.445 26.1445 232.276 25.3134 232.276 24.3274C232.276 23.3414 232.443 22.4962 232.777 21.7919C233.115 21.0876 233.578 20.5483 234.165 20.174C234.753 19.7957 235.419 19.6065 236.164 19.6065C236.739 19.6065 237.204 19.7031 237.558 19.8963C237.912 20.0855 238.188 20.3068 238.385 20.5604C238.586 20.8139 238.741 21.0373 238.85 21.2305H238.983V19.7273H240.752V29.2053C240.752 30.0021 240.566 30.6561 240.196 31.1673C239.826 31.6784 239.325 32.0567 238.693 32.3022C238.065 32.5477 237.357 32.6705 236.568 32.6705ZM236.55 27.364C237.069 27.364 237.508 27.2433 237.866 27.0018C238.228 26.7563 238.502 26.4061 238.687 25.9513C238.876 25.4925 238.971 24.9432 238.971 24.3033C238.971 23.6795 238.878 23.1301 238.693 22.6552C238.508 22.1803 238.236 21.81 237.878 21.5444C237.52 21.2747 237.077 21.1399 236.55 21.1399C236.007 21.1399 235.554 21.2808 235.192 21.5625C234.829 21.8402 234.556 22.2185 234.371 22.6974C234.189 23.1764 234.099 23.7116 234.099 24.3033C234.099 24.911 234.191 25.4442 234.377 25.9031C234.562 26.3619 234.835 26.7201 235.198 26.9776C235.564 27.2352 236.015 27.364 236.55 27.364ZM247.169 29.1871C246.255 29.1871 245.468 28.992 244.808 28.6016C244.152 28.2071 243.645 27.6538 243.287 26.9414C242.933 26.225 242.756 25.3859 242.756 24.424C242.756 23.4742 242.933 22.6371 243.287 21.9126C243.645 21.1882 244.144 20.6228 244.784 20.2163C245.428 19.8098 246.181 19.6065 247.042 19.6065C247.565 19.6065 248.072 19.6931 248.563 19.8661C249.054 20.0392 249.495 20.3108 249.885 20.6811C250.276 21.0514 250.584 21.5323 250.809 22.1239C251.035 22.7115 251.147 23.4259 251.147 24.267V24.907H243.776V23.5547H249.378C249.378 23.0798 249.282 22.6592 249.089 22.293C248.895 21.9227 248.624 21.6309 248.274 21.4176C247.927 21.2043 247.521 21.0977 247.054 21.0977C246.547 21.0977 246.104 21.2224 245.726 21.4719C245.352 21.7174 245.062 22.0394 244.857 22.4379C244.655 22.8323 244.555 23.2609 244.555 23.7237V24.7802C244.555 25.4 244.664 25.9272 244.881 26.3619C245.102 26.7965 245.41 27.1286 245.805 27.358C246.199 27.5833 246.66 27.696 247.187 27.696C247.529 27.696 247.841 27.6477 248.123 27.5511C248.404 27.4505 248.648 27.3016 248.853 27.1044C249.058 26.9072 249.215 26.6637 249.324 26.3739L251.032 26.6818C250.896 27.1849 250.65 27.6256 250.296 28.0039C249.946 28.3782 249.505 28.67 248.974 28.8793C248.447 29.0845 247.845 29.1871 247.169 29.1871Z" fill="white"/>
</g>
</g>
</g>
<defs>
<filter id="filter0_d_8003_3910" x="0" y="0" width="278" height="50" filterUnits="userSpaceOnUse" color-interpolation-filters="sRGB">
<feFlood flood-opacity="0" result="BackgroundImageFix"/>
<feColorMatrix in="SourceAlpha" type="matrix" values="0 0 0 0 0 0 0 0 0 0 0 0 0 0 0 0 0 0 127 0" result="hardAlpha"/>
<feOffset dy="2"/>
<feGaussianBlur stdDeviation="2"/>
<feColorMatrix type="matrix" values="0 0 0 0 0.180392 0 0 0 0 0.14902 0 0 0 0 0.239216 0 0 0 0.16 0"/>
<feBlend mode="normal" in2="BackgroundImageFix" result="effect1_dropShadow_8003_3910"/>
<feBlend mode="normal" in="SourceGraphic" in2="effect1_dropShadow_8003_3910" result="shape"/>
</filter>
<clipPath id="clip0_8003_3910">
<path d="M4 10C4 5.58172 7.58172 2 12 2H266C270.418 2 274 5.58172 274 10V36C274 40.4183 270.418 44 266 44H12C7.58173 44 4 40.4183 4 36V10Z" fill="white"/>
</clipPath>
<clipPath id="clip1_8003_3910">
<rect width="90" height="42" fill="white" transform="translate(4 2)"/>
</clipPath>
<clipPath id="clip2_8003_3910">
<rect width="90" height="42" fill="white" transform="translate(94 2)"/>
</clipPath>
<clipPath id="clip3_8003_3910">
<rect width="90" height="42" fill="white" transform="translate(184 2)"/>
</clipPath>
</defs>
</svg>
