<svg width="189" height="208" viewBox="0 0 189 208" fill="none" xmlns="http://www.w3.org/2000/svg">
<g filter="url(#filter0_d_8003_4278)">
<path d="M10 12C10 8.68629 12.6863 6 16 6H172.667C175.98 6 178.667 8.68629 178.667 12V188C178.667 191.314 175.98 194 172.667 194H16C12.6863 194 10 191.314 10 188V12Z" fill="white" shape-rendering="crispEdges"/>
<g filter="url(#filter1_d_8003_4278)">
<rect x="30" y="26" width="40" height="40" rx="20" fill="#FF4C51"/>
<path d="M57 53H43V54C43 54.2652 42.8946 54.5196 42.7071 54.7071C42.5196 54.8946 42.2652 55 42 55H41C40.7348 55 40.4804 54.8946 40.2929 54.7071C40.1054 54.5196 40 54.2652 40 54V44L42.48 38.212C42.6343 37.852 42.891 37.5452 43.2181 37.3298C43.5452 37.1143 43.9283 36.9997 44.32 37H55.68C56.0713 37 56.4541 37.1149 56.7808 37.3303C57.1075 37.5458 57.3638 37.8523 57.518 38.212L60 44V54C60 54.2652 59.8946 54.5196 59.7071 54.7071C59.5196 54.8946 59.2652 55 59 55H58C57.7348 55 57.4804 54.8946 57.2929 54.7071C57.1054 54.5196 57 54.2652 57 54V53ZM58 46H42V51H58V46ZM42.176 44H57.824L55.681 39H44.32L42.177 44H42.176ZM44.5 50C44.1022 50 43.7206 49.842 43.4393 49.5607C43.158 49.2794 43 48.8978 43 48.5C43 48.1022 43.158 47.7206 43.4393 47.4393C43.7206 47.158 44.1022 47 44.5 47C44.8978 47 45.2794 47.158 45.5607 47.4393C45.842 47.7206 46 48.1022 46 48.5C46 48.8978 45.842 49.2794 45.5607 49.5607C45.2794 49.842 44.8978 50 44.5 50V50ZM55.5 50C55.1022 50 54.7206 49.842 54.4393 49.5607C54.158 49.2794 54 48.8978 54 48.5C54 48.1022 54.158 47.7206 54.4393 47.4393C54.7206 47.158 55.1022 47 55.5 47C55.8978 47 56.2794 47.158 56.5607 47.4393C56.842 47.7206 57 48.1022 57 48.5C57 48.8978 56.842 49.2794 56.5607 49.5607C56.2794 49.842 55.8978 50 55.5 50V50Z" fill="white"/>
</g>
<path d="M146.667 29C145.842 29 145.167 29.675 145.167 30.5C145.167 31.325 145.842 32 146.667 32C147.492 32 148.167 31.325 148.167 30.5C148.167 29.675 147.492 29 146.667 29ZM146.667 44C145.842 44 145.167 44.675 145.167 45.5C145.167 46.325 145.842 47 146.667 47C147.492 47 148.167 46.325 148.167 45.5C148.167 44.675 147.492 44 146.667 44ZM146.667 36.5C145.842 36.5 145.167 37.175 145.167 38C145.167 38.825 145.842 39.5 146.667 39.5C147.492 39.5 148.167 38.825 148.167 38C148.167 37.175 147.492 36.5 146.667 36.5Z" fill="#2E263D" fill-opacity="0.9"/>
<path d="M31.1985 102V91.0909H32.8445V100.583H37.7876V102H31.1985ZM42.9838 102.165C42.2168 102.165 41.5474 101.989 40.9757 101.638C40.4039 101.286 39.96 100.794 39.644 100.162C39.3279 99.5302 39.1699 98.7915 39.1699 97.9464C39.1699 97.0977 39.3279 96.3555 39.644 95.7198C39.96 95.0842 40.4039 94.5906 40.9757 94.239C41.5474 93.8874 42.2168 93.7116 42.9838 93.7116C43.7509 93.7116 44.4203 93.8874 44.992 94.239C45.5637 94.5906 46.0076 95.0842 46.3237 95.7198C46.6397 96.3555 46.7978 97.0977 46.7978 97.9464C46.7978 98.7915 46.6397 99.5302 46.3237 100.162C46.0076 100.794 45.5637 101.286 44.992 101.638C44.4203 101.989 43.7509 102.165 42.9838 102.165ZM42.9892 100.828C43.4863 100.828 43.8983 100.697 44.225 100.434C44.5517 100.171 44.7931 99.8214 44.9494 99.3846C45.1092 98.9478 45.1891 98.4666 45.1891 97.9411C45.1891 97.419 45.1092 96.9396 44.9494 96.5028C44.7931 96.0625 44.5517 95.7092 44.225 95.4428C43.8983 95.1765 43.4863 95.0433 42.9892 95.0433C42.4885 95.0433 42.073 95.1765 41.7427 95.4428C41.416 95.7092 41.1728 96.0625 41.013 96.5028C40.8567 96.9396 40.7786 97.419 40.7786 97.9411C40.7786 98.4666 40.8567 98.9478 41.013 99.3846C41.1728 99.8214 41.416 100.171 41.7427 100.434C42.073 100.697 42.4885 100.828 42.9892 100.828ZM52.0059 105.239C51.3561 105.239 50.7968 105.153 50.328 104.983C49.8628 104.813 49.4829 104.587 49.1881 104.306C48.8934 104.026 48.6732 103.719 48.5276 103.385L49.8966 102.82C49.9925 102.977 50.1203 103.142 50.2801 103.316C50.4434 103.493 50.6636 103.644 50.9406 103.768C51.2211 103.893 51.5816 103.955 52.0219 103.955C52.6256 103.955 53.1246 103.808 53.5187 103.513C53.9129 103.222 54.11 102.756 54.11 102.117V100.509H54.0088C53.9129 100.683 53.7744 100.876 53.5933 101.089C53.4157 101.302 53.1707 101.487 52.8582 101.643C52.5457 101.799 52.1391 101.877 51.6384 101.877C50.9921 101.877 50.4097 101.727 49.8912 101.425C49.3763 101.119 48.968 100.67 48.6661 100.077C48.3678 99.4805 48.2187 98.7472 48.2187 97.8771C48.2187 97.0071 48.366 96.2614 48.6608 95.6399C48.9591 95.0185 49.3675 94.5426 49.8859 94.2124C50.4044 93.8786 50.9921 93.7116 51.6491 93.7116C52.1569 93.7116 52.567 93.7969 52.8795 93.9673C53.192 94.1342 53.4353 94.3295 53.6093 94.5533C53.7868 94.777 53.9236 94.9741 54.0194 95.1445H54.1366V93.8182H55.6974V102.181C55.6974 102.884 55.534 103.461 55.2073 103.912C54.8806 104.363 54.4385 104.697 53.8809 104.914C53.327 105.13 52.702 105.239 52.0059 105.239ZM51.99 100.556C52.4481 100.556 52.8351 100.45 53.1512 100.237C53.4708 100.02 53.7123 99.7113 53.8756 99.31C54.0425 98.9052 54.126 98.4205 54.126 97.8558C54.126 97.3054 54.0443 96.8207 53.8809 96.4016C53.7176 95.9826 53.4779 95.6559 53.1618 95.4215C52.8458 95.1836 52.4552 95.0646 51.99 95.0646C51.5106 95.0646 51.1111 95.1889 50.7915 95.4375C50.4719 95.6825 50.2304 96.0163 50.067 96.4389C49.9072 96.8615 49.8273 97.3338 49.8273 97.8558C49.8273 98.392 49.909 98.8626 50.0724 99.2674C50.2357 99.6722 50.4772 99.9883 50.7968 100.216C51.1199 100.443 51.5177 100.556 51.99 100.556ZM57.8334 102V93.8182H59.426V102H57.8334ZM58.6377 92.5558C58.3607 92.5558 58.1228 92.4634 57.9239 92.2788C57.7286 92.0906 57.6309 91.8668 57.6309 91.6076C57.6309 91.3448 57.7286 91.1211 57.9239 90.9364C58.1228 90.7482 58.3607 90.6541 58.6377 90.6541C58.9147 90.6541 59.1508 90.7482 59.3461 90.9364C59.545 91.1211 59.6444 91.3448 59.6444 91.6076C59.6444 91.8668 59.545 92.0906 59.3461 92.2788C59.1508 92.4634 58.9147 92.5558 58.6377 92.5558ZM67.6998 95.8157L66.2562 96.0714C66.1958 95.8867 66.1 95.7109 65.9686 95.544C65.8407 95.3771 65.6667 95.2404 65.4466 95.1339C65.2264 95.0273 64.9512 94.9741 64.6209 94.9741C64.1699 94.9741 63.7935 95.0753 63.4917 95.2777C63.1898 95.4766 63.0389 95.734 63.0389 96.0501C63.0389 96.3235 63.1401 96.5437 63.3425 96.7106C63.5449 96.8775 63.8716 97.0142 64.3226 97.1207L65.6223 97.419C66.3752 97.593 66.9363 97.8612 67.3056 98.2234C67.6749 98.5856 67.8596 99.0561 67.8596 99.6349C67.8596 100.125 67.7175 100.562 67.4334 100.945C67.1529 101.325 66.7605 101.624 66.2562 101.84C65.7555 102.057 65.1749 102.165 64.5144 102.165C63.5982 102.165 62.8507 101.97 62.2718 101.579C61.693 101.185 61.3379 100.626 61.2065 99.9013L62.7459 99.6669C62.8418 100.068 63.0389 100.372 63.3372 100.578C63.6355 100.78 64.0243 100.881 64.5037 100.881C65.0257 100.881 65.443 100.773 65.7555 100.556C66.068 100.336 66.2243 100.068 66.2243 99.7521C66.2243 99.4964 66.1284 99.2816 65.9366 99.1076C65.7484 98.9336 65.459 98.8022 65.0684 98.7134L63.6834 98.4098C62.9199 98.2358 62.3553 97.9588 61.9895 97.5788C61.6273 97.1989 61.4462 96.7177 61.4462 96.1353C61.4462 95.6523 61.5811 95.2298 61.851 94.8675C62.1209 94.5053 62.4938 94.223 62.9696 94.0206C63.4455 93.8146 63.9906 93.7116 64.6049 93.7116C65.4892 93.7116 66.1852 93.9034 66.693 94.2869C67.2008 94.6669 67.5364 95.1765 67.6998 95.8157ZM73.43 93.8182V95.0966H68.9608V93.8182H73.43ZM70.1594 91.858H71.752V99.5977C71.752 99.9066 71.7982 100.139 71.8905 100.295C71.9829 100.448 72.1018 100.553 72.2474 100.61C72.3966 100.663 72.5581 100.69 72.7322 100.69C72.86 100.69 72.9719 100.681 73.0677 100.663C73.1636 100.645 73.2382 100.631 73.2915 100.62L73.5791 101.936C73.4868 101.972 73.3554 102.007 73.1849 102.043C73.0145 102.082 72.8014 102.103 72.5457 102.107C72.1267 102.114 71.7361 102.039 71.3738 101.883C71.0116 101.727 70.7187 101.485 70.4949 101.158C70.2712 100.832 70.1594 100.422 70.1594 99.9279V91.858ZM75.1918 102V93.8182H76.7844V102H75.1918ZM75.9961 92.5558C75.7191 92.5558 75.4812 92.4634 75.2823 92.2788C75.087 92.0906 74.9893 91.8668 74.9893 91.6076C74.9893 91.3448 75.087 91.1211 75.2823 90.9364C75.4812 90.7482 75.7191 90.6541 75.9961 90.6541C76.2731 90.6541 76.5092 90.7482 76.7045 90.9364C76.9034 91.1211 77.0028 91.3448 77.0028 91.6076C77.0028 91.8668 76.9034 92.0906 76.7045 92.2788C76.5092 92.4634 76.2731 92.5558 75.9961 92.5558ZM82.3735 102.165C81.5816 102.165 80.8998 101.986 80.328 101.627C79.7599 101.265 79.3231 100.766 79.0177 100.13C78.7123 99.4947 78.5596 98.7667 78.5596 97.9464C78.5596 97.1154 78.7158 96.3821 79.0283 95.7464C79.3408 95.1072 79.7812 94.6083 80.3493 94.2496C80.9175 93.891 81.5869 93.7116 82.3575 93.7116C82.979 93.7116 83.5329 93.8271 84.0194 94.0579C84.5059 94.2852 84.8983 94.6048 85.1966 95.0167C85.4985 95.4286 85.6778 95.9098 85.7346 96.4602H84.1846C84.0993 96.0767 83.904 95.7464 83.5986 95.4695C83.2968 95.1925 82.892 95.054 82.3841 95.054C81.9403 95.054 81.5514 95.1712 81.2176 95.4055C80.8873 95.6364 80.6299 95.9666 80.4452 96.3963C80.2606 96.8224 80.1682 97.3267 80.1682 97.9091C80.1682 98.5057 80.2588 99.0206 80.4399 99.4538C80.621 99.8871 80.8767 100.223 81.2069 100.461C81.5407 100.699 81.9331 100.817 82.3841 100.817C82.686 100.817 82.9594 100.762 83.2045 100.652C83.453 100.539 83.6608 100.377 83.8277 100.168C83.9981 99.9581 84.1171 99.706 84.1846 99.4112H85.7346C85.6778 99.9403 85.5056 100.413 85.218 100.828C84.9303 101.244 84.545 101.57 84.0621 101.808C83.5827 102.046 83.0198 102.165 82.3735 102.165ZM93.5689 95.8157L92.1254 96.0714C92.065 95.8867 91.9691 95.7109 91.8377 95.544C91.7099 95.3771 91.5359 95.2404 91.3157 95.1339C91.0955 95.0273 90.8203 94.9741 90.4901 94.9741C90.0391 94.9741 89.6626 95.0753 89.3608 95.2777C89.0589 95.4766 88.908 95.734 88.908 96.0501C88.908 96.3235 89.0092 96.5437 89.2116 96.7106C89.4141 96.8775 89.7408 97.0142 90.1918 97.1207L91.4915 97.419C92.2443 97.593 92.8054 97.8612 93.1747 98.2234C93.544 98.5856 93.7287 99.0561 93.7287 99.6349C93.7287 100.125 93.5866 100.562 93.3026 100.945C93.022 101.325 92.6296 101.624 92.1254 101.84C91.6246 102.057 91.044 102.165 90.3835 102.165C89.4673 102.165 88.7198 101.97 88.141 101.579C87.5621 101.185 87.207 100.626 87.0756 99.9013L88.6151 99.6669C88.7109 100.068 88.908 100.372 89.2063 100.578C89.5046 100.78 89.8935 100.881 90.3729 100.881C90.8949 100.881 91.3121 100.773 91.6246 100.556C91.9371 100.336 92.0934 100.068 92.0934 99.7521C92.0934 99.4964 91.9975 99.2816 91.8058 99.1076C91.6175 98.9336 91.3281 98.8022 90.9375 98.7134L89.5526 98.4098C88.7891 98.2358 88.2244 97.9588 87.8587 97.5788C87.4964 97.1989 87.3153 96.7177 87.3153 96.1353C87.3153 95.6523 87.4503 95.2298 87.7202 94.8675C87.9901 94.5053 88.3629 94.223 88.8388 94.0206C89.3146 93.8146 89.8597 93.7116 90.4741 93.7116C91.3583 93.7116 92.0543 93.9034 92.5621 94.2869C93.07 94.6669 93.4055 95.1765 93.5689 95.8157Z" fill="#2E263D" fill-opacity="0.9"/>
<path d="M31.3125 136.591V134.46L38.8551 122.545H40.5341V125.682H39.4688L34.0739 134.222V134.358H44.4119V136.591H31.3125ZM39.5881 140V135.943L39.6051 134.972V122.545H42.1023V140H39.5881ZM47.0156 136.591V134.46L54.5582 122.545H56.2372V125.682H55.1719L49.777 134.222V134.358H60.1151V136.591H47.0156ZM55.2912 140V135.943L55.3082 134.972V122.545H57.8054V140H55.2912ZM64.142 140.162C63.6761 140.162 63.2756 139.997 62.9403 139.668C62.6051 139.332 62.4375 138.929 62.4375 138.457C62.4375 137.991 62.6051 137.594 62.9403 137.264C63.2756 136.929 63.6761 136.761 64.142 136.761C64.608 136.761 65.0085 136.929 65.3438 137.264C65.679 137.594 65.8466 137.991 65.8466 138.457C65.8466 138.77 65.767 139.057 65.608 139.318C65.4545 139.574 65.25 139.778 64.9943 139.932C64.7386 140.085 64.4545 140.162 64.142 140.162ZM73.7386 122.545V140H71.0966V125.188H70.9943L66.8182 127.915V125.392L71.1733 122.545H73.7386ZM84.5369 140.29C83.1903 140.284 82.0398 139.929 81.0852 139.224C80.1307 138.52 79.4006 137.494 78.8949 136.148C78.3892 134.801 78.1364 133.179 78.1364 131.281C78.1364 129.389 78.3892 127.773 78.8949 126.432C79.4063 125.091 80.1392 124.068 81.0938 123.364C82.054 122.659 83.2017 122.307 84.5369 122.307C85.8722 122.307 87.017 122.662 87.9716 123.372C88.9261 124.077 89.6563 125.099 90.1619 126.44C90.6733 127.776 90.929 129.389 90.929 131.281C90.929 133.185 90.6761 134.81 90.1705 136.156C89.6648 137.497 88.9347 138.523 87.9801 139.233C87.0256 139.938 85.8778 140.29 84.5369 140.29ZM84.5369 138.014C85.7188 138.014 86.642 137.438 87.3068 136.284C87.9773 135.131 88.3125 133.463 88.3125 131.281C88.3125 129.832 88.1591 128.608 87.8523 127.608C87.5511 126.602 87.1165 125.841 86.5483 125.324C85.9858 124.801 85.3153 124.54 84.5369 124.54C83.3608 124.54 82.4375 125.119 81.767 126.278C81.0966 127.437 80.7585 129.105 80.7528 131.281C80.7528 132.736 80.9034 133.966 81.2045 134.972C81.5114 135.972 81.946 136.73 82.5085 137.247C83.071 137.759 83.7472 138.014 84.5369 138.014ZM96.3303 135.56L96.3132 132.449H96.7564L101.972 126.909H105.023L99.0746 133.216H98.674L96.3303 135.56ZM93.9865 140V122.545H96.5348V140H93.9865ZM102.254 140L97.5661 133.778L99.3217 131.997L105.381 140H102.254Z" fill="#2E263D" fill-opacity="0.9"/>
<path d="M118.347 134.082V127.051H119.54V134.082H118.347ZM115.428 131.163V129.97H122.459V131.163H115.428ZM124.761 133.763V132.676L129.555 125.091H130.344V126.774H129.811L126.189 132.506V132.591H132.645V133.763H124.761ZM129.896 136V133.433V132.926V125.091H131.153V136H129.896ZM134.641 136V135.041L138.242 131.099C138.664 130.638 139.012 130.237 139.286 129.896C139.559 129.551 139.762 129.228 139.893 128.926C140.028 128.621 140.096 128.301 140.096 127.967C140.096 127.584 140.003 127.252 139.819 126.971C139.637 126.691 139.389 126.474 139.073 126.321C138.757 126.169 138.402 126.092 138.007 126.092C137.588 126.092 137.223 126.179 136.91 126.353C136.601 126.524 136.362 126.763 136.191 127.072C136.024 127.381 135.941 127.744 135.941 128.159H134.684C134.684 127.52 134.831 126.959 135.126 126.476C135.42 125.993 135.822 125.616 136.33 125.347C136.841 125.077 137.414 124.942 138.05 124.942C138.689 124.942 139.256 125.077 139.749 125.347C140.243 125.616 140.63 125.98 140.911 126.439C141.191 126.897 141.331 127.406 141.331 127.967C141.331 128.369 141.259 128.761 141.113 129.145C140.971 129.525 140.722 129.949 140.367 130.418C140.016 130.883 139.527 131.451 138.902 132.122L136.452 134.743V134.828H141.523V136H134.641ZM149.284 133.955V133.379C149.284 132.982 149.366 132.618 149.529 132.287C149.696 131.953 149.938 131.687 150.254 131.488C150.573 131.286 150.96 131.185 151.415 131.185C151.876 131.185 152.263 131.286 152.576 131.488C152.888 131.687 153.125 131.953 153.284 132.287C153.444 132.618 153.524 132.982 153.524 133.379V133.955C153.524 134.352 153.442 134.718 153.279 135.052C153.119 135.382 152.881 135.648 152.565 135.851C152.253 136.05 151.869 136.149 151.415 136.149C150.953 136.149 150.564 136.05 150.248 135.851C149.932 135.648 149.692 135.382 149.529 135.052C149.366 134.718 149.284 134.352 149.284 133.955ZM150.371 133.379V133.955C150.371 134.285 150.449 134.581 150.605 134.844C150.761 135.103 151.031 135.233 151.415 135.233C151.788 135.233 152.05 135.103 152.203 134.844C152.359 134.581 152.438 134.285 152.438 133.955V133.379C152.438 133.049 152.363 132.754 152.214 132.495C152.065 132.232 151.798 132.101 151.415 132.101C151.042 132.101 150.774 132.232 150.61 132.495C150.451 132.754 150.371 133.049 150.371 133.379ZM143.851 127.712V127.136C143.851 126.739 143.933 126.375 144.096 126.044C144.263 125.711 144.504 125.444 144.82 125.245C145.14 125.043 145.527 124.942 145.982 124.942C146.443 124.942 146.83 125.043 147.143 125.245C147.455 125.444 147.691 125.711 147.851 126.044C148.011 126.375 148.091 126.739 148.091 127.136V127.712C148.091 128.109 148.009 128.475 147.846 128.809C147.686 129.139 147.448 129.406 147.132 129.608C146.82 129.807 146.436 129.906 145.982 129.906C145.52 129.906 145.131 129.807 144.815 129.608C144.499 129.406 144.259 129.139 144.096 128.809C143.933 128.475 143.851 128.109 143.851 127.712ZM144.938 127.136V127.712C144.938 128.042 145.016 128.338 145.172 128.601C145.328 128.86 145.598 128.99 145.982 128.99C146.354 128.99 146.617 128.86 146.77 128.601C146.926 128.338 147.004 128.042 147.004 127.712V127.136C147.004 126.806 146.93 126.511 146.781 126.252C146.631 125.989 146.365 125.858 145.982 125.858C145.609 125.858 145.341 125.989 145.177 126.252C145.017 126.511 144.938 126.806 144.938 127.136ZM144.256 136L151.756 125.091H152.97L145.47 136H144.256Z" fill="#56CA00"/>
<path d="M31.1449 169V159.545H34.3395C35.0781 159.545 35.6844 159.672 36.1584 159.924C36.6323 160.173 36.9832 160.516 37.2109 160.953C37.4387 161.391 37.5526 161.888 37.5526 162.445C37.5526 163.002 37.4387 163.496 37.2109 163.926C36.9832 164.357 36.6339 164.696 36.163 164.942C35.6921 165.185 35.0904 165.307 34.358 165.307H31.7727V164.273H34.321C34.8258 164.273 35.232 164.199 35.5398 164.051C35.8506 163.903 36.0753 163.694 36.2138 163.423C36.3554 163.149 36.4261 162.823 36.4261 162.445C36.4261 162.066 36.3554 161.735 36.2138 161.452C36.0722 161.169 35.846 160.95 35.5352 160.797C35.2243 160.64 34.8134 160.561 34.3026 160.561H32.2898V169H31.1449ZM35.5952 164.753L37.9219 169H36.5923L34.3026 164.753H35.5952ZM42.2094 169.148C41.5262 169.148 40.9368 168.997 40.4413 168.695C39.9489 168.391 39.5688 167.966 39.301 167.421C39.0364 166.873 38.904 166.236 38.904 165.51C38.904 164.784 39.0364 164.143 39.301 163.589C39.5688 163.032 39.9412 162.598 40.4182 162.288C40.8983 161.974 41.4585 161.817 42.0986 161.817C42.468 161.817 42.8327 161.878 43.1927 162.001C43.5528 162.125 43.8806 162.325 44.176 162.602C44.4715 162.875 44.7069 163.239 44.8824 163.691C45.0578 164.143 45.1455 164.701 45.1455 165.362V165.824H39.6796V164.882H44.0376C44.0376 164.482 43.9575 164.125 43.7975 163.811C43.6405 163.497 43.4159 163.249 43.1235 163.068C42.8342 162.886 42.4926 162.795 42.0986 162.795C41.6647 162.795 41.2892 162.903 40.9722 163.119C40.6583 163.331 40.4167 163.608 40.2474 163.95C40.0782 164.291 39.9935 164.657 39.9935 165.048V165.676C39.9935 166.212 40.0858 166.666 40.2705 167.038C40.4582 167.407 40.7183 167.689 41.0507 167.883C41.3831 168.074 41.7693 168.169 42.2094 168.169C42.4957 168.169 42.7542 168.129 42.985 168.049C43.2189 167.966 43.4205 167.843 43.5898 167.68C43.759 167.513 43.8898 167.307 43.9822 167.061L45.0347 167.357C44.9239 167.714 44.7377 168.027 44.4761 168.298C44.2145 168.566 43.8914 168.775 43.5067 168.926C43.122 169.074 42.6895 169.148 42.2094 169.148ZM52.3853 161.909L49.7631 169H48.6552L46.033 161.909H47.2148L49.1722 167.56H49.2461L51.2035 161.909H52.3853ZM56.5424 169.148C55.8592 169.148 55.2698 168.997 54.7743 168.695C54.2819 168.391 53.9018 167.966 53.6341 167.421C53.3694 166.873 53.237 166.236 53.237 165.51C53.237 164.784 53.3694 164.143 53.6341 163.589C53.9018 163.032 54.2742 162.598 54.7512 162.288C55.2314 161.974 55.7915 161.817 56.4316 161.817C56.801 161.817 57.1657 161.878 57.5257 162.001C57.8858 162.125 58.2136 162.325 58.5091 162.602C58.8045 162.875 59.04 163.239 59.2154 163.691C59.3908 164.143 59.4785 164.701 59.4785 165.362V165.824H54.0126V164.882H58.3706C58.3706 164.482 58.2905 164.125 58.1305 163.811C57.9735 163.497 57.7489 163.249 57.4565 163.068C57.1672 162.886 56.8256 162.795 56.4316 162.795C55.9977 162.795 55.6222 162.903 55.3052 163.119C54.9913 163.331 54.7497 163.608 54.5804 163.95C54.4112 164.291 54.3265 164.657 54.3265 165.048V165.676C54.3265 166.212 54.4189 166.666 54.6035 167.038C54.7913 167.407 55.0513 167.689 55.3837 167.883C55.7161 168.074 56.1023 168.169 56.5424 168.169C56.8287 168.169 57.0872 168.129 57.318 168.049C57.5519 167.966 57.7535 167.843 57.9228 167.68C58.092 167.513 58.2228 167.307 58.3152 167.061L59.3677 167.357C59.2569 167.714 59.0707 168.027 58.8091 168.298C58.5475 168.566 58.2244 168.775 57.8397 168.926C57.455 169.074 57.0225 169.148 56.5424 169.148ZM62.2253 164.734V169H61.1358V161.909H62.1884V163.017H62.2807C62.4469 162.657 62.6993 162.368 63.0378 162.149C63.3764 161.928 63.8134 161.817 64.3489 161.817C64.829 161.817 65.2491 161.915 65.6092 162.112C65.9693 162.306 66.2493 162.602 66.4494 162.999C66.6494 163.393 66.7495 163.891 66.7495 164.494V169H65.66V164.568C65.66 164.011 65.5153 163.577 65.226 163.266C64.9367 162.952 64.5397 162.795 64.035 162.795C63.6872 162.795 63.3764 162.871 63.1025 163.022C62.8316 163.172 62.6177 163.393 62.4608 163.682C62.3038 163.971 62.2253 164.322 62.2253 164.734ZM73.2091 166.101V161.909H74.2986V169H73.2091V167.8H73.1352C72.969 168.16 72.7105 168.466 72.3596 168.718C72.0088 168.968 71.5656 169.092 71.0301 169.092C70.5869 169.092 70.193 168.995 69.8483 168.801C69.5036 168.605 69.2327 168.309 69.0358 167.915C68.8388 167.518 68.7403 167.018 68.7403 166.415V161.909H69.8298V166.341C69.8298 166.858 69.9745 167.27 70.2638 167.578C70.5561 167.886 70.9285 168.04 71.3809 168.04C71.6518 168.04 71.9272 167.971 72.2073 167.832C72.4904 167.694 72.7274 167.481 72.9182 167.195C73.1121 166.909 73.2091 166.544 73.2091 166.101ZM79.267 169.148C78.5838 169.148 77.9944 168.997 77.4989 168.695C77.0065 168.391 76.6264 167.966 76.3587 167.421C76.094 166.873 75.9616 166.236 75.9616 165.51C75.9616 164.784 76.094 164.143 76.3587 163.589C76.6264 163.032 76.9988 162.598 77.4759 162.288C77.956 161.974 78.5161 161.817 79.1562 161.817C79.5256 161.817 79.8903 161.878 80.2504 162.001C80.6104 162.125 80.9382 162.325 81.2337 162.602C81.5291 162.875 81.7646 163.239 81.94 163.691C82.1154 164.143 82.2031 164.701 82.2031 165.362V165.824H76.7372V164.882H81.0952C81.0952 164.482 81.0152 164.125 80.8551 163.811C80.6982 163.497 80.4735 163.249 80.1811 163.068C79.8918 162.886 79.5502 162.795 79.1562 162.795C78.7223 162.795 78.3468 162.903 78.0298 163.119C77.7159 163.331 77.4743 163.608 77.305 163.95C77.1358 164.291 77.0511 164.657 77.0511 165.048V165.676C77.0511 166.212 77.1435 166.666 77.3281 167.038C77.5159 167.407 77.7759 167.689 78.1083 167.883C78.4407 168.074 78.8269 168.169 79.267 168.169C79.5533 168.169 79.8118 168.129 80.0426 168.049C80.2765 167.966 80.4781 167.843 80.6474 167.68C80.8166 167.513 80.9474 167.307 81.0398 167.061L82.0923 167.357C81.9815 167.714 81.7953 168.027 81.5337 168.298C81.2721 168.566 80.949 168.775 80.5643 168.926C80.1796 169.074 79.7472 169.148 79.267 169.148ZM88.8093 159.545V169H87.6644V159.545H88.8093ZM92.0466 164.734V169H90.9571V161.909H92.0097V163.017H92.102C92.2682 162.657 92.5206 162.368 92.8591 162.149C93.1977 161.928 93.6347 161.817 94.1702 161.817C94.6503 161.817 95.0704 161.915 95.4305 162.112C95.7906 162.306 96.0706 162.602 96.2707 162.999C96.4707 163.393 96.5708 163.891 96.5708 164.494V169H95.4813V164.568C95.4813 164.011 95.3366 163.577 95.0473 163.266C94.758 162.952 94.361 162.795 93.8563 162.795C93.5085 162.795 93.1977 162.871 92.9237 163.022C92.6529 163.172 92.439 163.393 92.282 163.682C92.1251 163.971 92.0466 164.322 92.0466 164.734ZM101.442 169.148C100.778 169.148 100.205 168.991 99.725 168.677C99.2449 168.363 98.8755 167.931 98.617 167.38C98.3585 166.829 98.2292 166.199 98.2292 165.491C98.2292 164.771 98.3616 164.136 98.6262 163.585C98.894 163.031 99.2664 162.598 99.7434 162.288C100.224 161.974 100.784 161.817 101.424 161.817C101.922 161.817 102.372 161.909 102.772 162.094C103.172 162.278 103.5 162.537 103.755 162.869C104.011 163.202 104.169 163.589 104.231 164.033H103.141C103.058 163.71 102.873 163.423 102.587 163.174C102.304 162.922 101.922 162.795 101.442 162.795C101.018 162.795 100.645 162.906 100.325 163.128C100.008 163.346 99.7604 163.656 99.5819 164.056C99.4064 164.453 99.3187 164.919 99.3187 165.455C99.3187 166.002 99.4049 166.479 99.5772 166.886C99.7527 167.292 99.9989 167.607 100.316 167.832C100.636 168.057 101.011 168.169 101.442 168.169C101.725 168.169 101.982 168.12 102.213 168.021C102.444 167.923 102.64 167.781 102.8 167.597C102.96 167.412 103.073 167.19 103.141 166.932H104.231C104.169 167.35 104.017 167.727 103.774 168.063C103.534 168.395 103.215 168.66 102.818 168.857C102.424 169.051 101.965 169.148 101.442 169.148ZM105.823 169V161.909H106.876V162.98H106.95C107.079 162.629 107.313 162.345 107.651 162.126C107.99 161.908 108.372 161.798 108.796 161.798C108.876 161.798 108.976 161.8 109.096 161.803C109.216 161.806 109.307 161.811 109.369 161.817V162.925C109.332 162.915 109.247 162.902 109.115 162.883C108.986 162.862 108.849 162.851 108.704 162.851C108.359 162.851 108.052 162.923 107.781 163.068C107.513 163.209 107.301 163.406 107.144 163.659C106.99 163.908 106.913 164.193 106.913 164.513V169H105.823ZM113.417 169.148C112.734 169.148 112.145 168.997 111.649 168.695C111.157 168.391 110.777 167.966 110.509 167.421C110.244 166.873 110.112 166.236 110.112 165.51C110.112 164.784 110.244 164.143 110.509 163.589C110.777 163.032 111.149 162.598 111.626 162.288C112.106 161.974 112.666 161.817 113.307 161.817C113.676 161.817 114.041 161.878 114.401 162.001C114.761 162.125 115.089 162.325 115.384 162.602C115.68 162.875 115.915 163.239 116.09 163.691C116.266 164.143 116.354 164.701 116.354 165.362V165.824H110.888V164.882H115.246C115.246 164.482 115.166 164.125 115.006 163.811C114.849 163.497 114.624 163.249 114.331 163.068C114.042 162.886 113.701 162.795 113.307 162.795C112.873 162.795 112.497 162.903 112.18 163.119C111.866 163.331 111.625 163.608 111.455 163.95C111.286 164.291 111.202 164.657 111.202 165.048V165.676C111.202 166.212 111.294 166.666 111.479 167.038C111.666 167.407 111.926 167.689 112.259 167.883C112.591 168.074 112.977 168.169 113.417 168.169C113.704 168.169 113.962 168.129 114.193 168.049C114.427 167.966 114.628 167.843 114.798 167.68C114.967 167.513 115.098 167.307 115.19 167.061L116.243 167.357C116.132 167.714 115.946 168.027 115.684 168.298C115.423 168.566 115.099 168.775 114.715 168.926C114.33 169.074 113.898 169.148 113.417 169.148ZM120.097 169.166C119.648 169.166 119.24 169.082 118.874 168.912C118.508 168.74 118.217 168.492 118.002 168.169C117.786 167.843 117.678 167.449 117.678 166.987C117.678 166.581 117.758 166.252 117.919 165.999C118.079 165.744 118.292 165.544 118.56 165.399C118.828 165.254 119.123 165.147 119.447 165.076C119.773 165.002 120.101 164.944 120.43 164.901C120.861 164.845 121.21 164.804 121.478 164.776C121.749 164.745 121.946 164.694 122.069 164.624C122.195 164.553 122.258 164.43 122.258 164.254V164.217C122.258 163.762 122.133 163.408 121.884 163.156C121.638 162.903 121.264 162.777 120.762 162.777C120.242 162.777 119.834 162.891 119.539 163.119C119.243 163.346 119.036 163.589 118.916 163.848L117.882 163.479C118.066 163.048 118.312 162.712 118.62 162.472C118.931 162.229 119.27 162.06 119.636 161.964C120.005 161.866 120.368 161.817 120.725 161.817C120.953 161.817 121.215 161.844 121.51 161.9C121.809 161.952 122.096 162.061 122.373 162.228C122.653 162.394 122.886 162.645 123.07 162.98C123.255 163.316 123.347 163.765 123.347 164.328V169H122.258V168.04H122.203C122.129 168.194 122.006 168.358 121.833 168.534C121.661 168.709 121.432 168.858 121.145 168.982C120.859 169.105 120.51 169.166 120.097 169.166ZM120.264 168.188C120.695 168.188 121.058 168.103 121.353 167.934C121.652 167.764 121.876 167.546 122.027 167.278C122.181 167.01 122.258 166.729 122.258 166.433V165.436C122.212 165.491 122.11 165.542 121.953 165.588C121.799 165.632 121.621 165.67 121.418 165.704C121.218 165.735 121.022 165.762 120.831 165.787C120.644 165.808 120.491 165.827 120.374 165.842C120.091 165.879 119.827 165.939 119.58 166.022C119.337 166.102 119.14 166.224 118.99 166.387C118.842 166.547 118.768 166.766 118.768 167.043C118.768 167.421 118.908 167.707 119.188 167.901C119.471 168.092 119.83 168.188 120.264 168.188ZM130.359 163.497L129.38 163.774C129.319 163.611 129.228 163.453 129.108 163.299C128.991 163.142 128.831 163.012 128.628 162.911C128.424 162.809 128.164 162.759 127.847 162.759C127.413 162.759 127.052 162.859 126.763 163.059C126.476 163.256 126.333 163.506 126.333 163.811C126.333 164.082 126.432 164.296 126.629 164.453C126.826 164.61 127.133 164.741 127.552 164.845L128.604 165.104C129.238 165.258 129.711 165.493 130.022 165.81C130.333 166.124 130.488 166.529 130.488 167.024C130.488 167.43 130.371 167.794 130.137 168.114C129.906 168.434 129.583 168.686 129.168 168.871C128.752 169.055 128.269 169.148 127.718 169.148C126.995 169.148 126.396 168.991 125.922 168.677C125.448 168.363 125.148 167.904 125.022 167.301L126.056 167.043C126.155 167.424 126.341 167.71 126.615 167.901C126.892 168.092 127.253 168.188 127.7 168.188C128.207 168.188 128.611 168.08 128.909 167.864C129.211 167.646 129.362 167.384 129.362 167.08C129.362 166.833 129.275 166.627 129.103 166.461C128.931 166.292 128.666 166.165 128.309 166.082L127.127 165.805C126.478 165.652 126.001 165.413 125.696 165.09C125.395 164.764 125.244 164.356 125.244 163.866C125.244 163.466 125.356 163.112 125.581 162.805C125.808 162.497 126.118 162.255 126.509 162.08C126.903 161.904 127.349 161.817 127.847 161.817C128.549 161.817 129.1 161.971 129.5 162.278C129.903 162.586 130.189 162.992 130.359 163.497ZM135.101 169.148C134.418 169.148 133.828 168.997 133.333 168.695C132.84 168.391 132.46 167.966 132.193 167.421C131.928 166.873 131.796 166.236 131.796 165.51C131.796 164.784 131.928 164.143 132.193 163.589C132.46 163.032 132.833 162.598 133.31 162.288C133.79 161.974 134.35 161.817 134.99 161.817C135.36 161.817 135.724 161.878 136.084 162.001C136.444 162.125 136.772 162.325 137.068 162.602C137.363 162.875 137.599 163.239 137.774 163.691C137.949 164.143 138.037 164.701 138.037 165.362V165.824H132.571V164.882H136.929C136.929 164.482 136.849 164.125 136.689 163.811C136.532 163.497 136.307 163.249 136.015 163.068C135.726 162.886 135.384 162.795 134.99 162.795C134.556 162.795 134.181 162.903 133.864 163.119C133.55 163.331 133.308 163.608 133.139 163.95C132.97 164.291 132.885 164.657 132.885 165.048V165.676C132.885 166.212 132.977 166.666 133.162 167.038C133.35 167.407 133.61 167.689 133.942 167.883C134.275 168.074 134.661 168.169 135.101 168.169C135.387 168.169 135.646 168.129 135.877 168.049C136.11 167.966 136.312 167.843 136.481 167.68C136.651 167.513 136.781 167.307 136.874 167.061L137.926 167.357C137.816 167.714 137.629 168.027 137.368 168.298C137.106 168.566 136.783 168.775 136.398 168.926C136.014 169.074 135.581 169.148 135.101 169.148Z" fill="#2E263D" fill-opacity="0.7"/>
</g>
<defs>
<filter id="filter0_d_8003_4278" x="0" y="0" width="188.667" height="208" filterUnits="userSpaceOnUse" color-interpolation-filters="sRGB">
<feFlood flood-opacity="0" result="BackgroundImageFix"/>
<feColorMatrix in="SourceAlpha" type="matrix" values="0 0 0 0 0 0 0 0 0 0 0 0 0 0 0 0 0 0 127 0" result="hardAlpha"/>
<feOffset dy="4"/>
<feGaussianBlur stdDeviation="5"/>
<feComposite in2="hardAlpha" operator="out"/>
<feColorMatrix type="matrix" values="0 0 0 0 0.180392 0 0 0 0 0.14902 0 0 0 0 0.239216 0 0 0 0.2 0"/>
<feBlend mode="normal" in2="BackgroundImageFix" result="effect1_dropShadow_8003_4278"/>
<feBlend mode="normal" in="SourceGraphic" in2="effect1_dropShadow_8003_4278" result="shape"/>
</filter>
<filter id="filter1_d_8003_4278" x="26" y="24" width="48" height="48" filterUnits="userSpaceOnUse" color-interpolation-filters="sRGB">
<feFlood flood-opacity="0" result="BackgroundImageFix"/>
<feColorMatrix in="SourceAlpha" type="matrix" values="0 0 0 0 0 0 0 0 0 0 0 0 0 0 0 0 0 0 127 0" result="hardAlpha"/>
<feOffset dy="2"/>
<feGaussianBlur stdDeviation="2"/>
<feColorMatrix type="matrix" values="0 0 0 0 0.180392 0 0 0 0 0.14902 0 0 0 0 0.239216 0 0 0 0.16 0"/>
<feBlend mode="normal" in2="BackgroundImageFix" result="effect1_dropShadow_8003_4278"/>
<feBlend mode="normal" in="SourceGraphic" in2="effect1_dropShadow_8003_4278" result="shape"/>
</filter>
</defs>
</svg>
