<svg width="352" height="370" viewBox="0 0 352 370" fill="none" xmlns="http://www.w3.org/2000/svg">
<g filter="url(#filter0_d_8003_2805)">
<g clip-path="url(#clip0_8003_2805)">
<path d="M16 16C16 12.6863 18.6863 10 22 10H330C333.314 10 336 12.6863 336 16V342C336 345.314 333.314 348 330 348H22C18.6863 348 16 345.314 16 342V16Z" fill="white"/>
<path d="M37.321 38.0909H38.8977L42.6051 47.1463H42.733L46.4403 38.0909H48.017V49H46.7812V40.7116H46.6747L43.2656 49H42.0724L38.6634 40.7116H38.5568V49H37.321V38.0909ZM52.903 49.1918C52.3845 49.1918 51.914 49.0941 51.4914 48.8988C51.0688 48.6999 50.7332 48.4141 50.4846 48.0412C50.2361 47.6648 50.1118 47.2102 50.1118 46.6776C50.1118 46.2088 50.2041 45.8288 50.3888 45.5376C50.5734 45.2429 50.8202 45.0121 51.1292 44.8452C51.4381 44.6783 51.779 44.554 52.1519 44.4723C52.5283 44.3871 52.9065 44.3196 53.2865 44.2699C53.7836 44.206 54.1867 44.158 54.4957 44.1261C54.8082 44.0906 55.0354 44.032 55.1775 43.9503C55.3231 43.8686 55.3959 43.7266 55.3959 43.5241V43.4815C55.3959 42.956 55.252 42.5476 54.9644 42.2564C54.6803 41.9652 54.2488 41.8196 53.67 41.8196C53.0699 41.8196 52.5993 41.951 52.2584 42.2138C51.9175 42.4766 51.6778 42.7571 51.5393 43.0554L50.3461 42.6293C50.5592 42.1321 50.8433 41.745 51.1984 41.468C51.5571 41.1875 51.9477 40.9922 52.3703 40.8821C52.7964 40.7685 53.2155 40.7116 53.6274 40.7116C53.8902 40.7116 54.192 40.7436 54.5329 40.8075C54.8774 40.8679 55.2094 40.994 55.529 41.1857C55.8522 41.3775 56.1203 41.6669 56.3334 42.054C56.5464 42.4411 56.653 42.9595 56.653 43.6094V49H55.3959V47.892H55.3319C55.2467 48.0696 55.1047 48.2596 54.9058 48.462C54.7069 48.6644 54.4424 48.8366 54.1121 48.9787C53.7819 49.1207 53.3788 49.1918 52.903 49.1918ZM53.0947 48.0625C53.5919 48.0625 54.0109 47.9648 54.3518 47.7695C54.6963 47.5742 54.9555 47.3221 55.1295 47.0131C55.3071 46.7042 55.3959 46.3793 55.3959 46.0384V44.8878C55.3426 44.9517 55.2254 45.0103 55.0443 45.0636C54.8667 45.1133 54.6608 45.1577 54.4264 45.1967C54.1956 45.2322 53.9701 45.2642 53.7499 45.2926C53.5333 45.3175 53.3575 45.3388 53.2226 45.3565C52.8959 45.3991 52.5905 45.4684 52.3064 45.5643C52.0258 45.6566 51.7986 45.7969 51.6246 45.9851C51.4541 46.1697 51.3689 46.4219 51.3689 46.7415C51.3689 47.1783 51.5305 47.5085 51.8536 47.7322C52.1803 47.9524 52.594 48.0625 53.0947 48.0625ZM58.9474 49V40.8182H60.1619V42.054H60.2472C60.3963 41.6491 60.6662 41.3207 61.0568 41.0685C61.4474 40.8164 61.8878 40.6903 62.3778 40.6903C62.4702 40.6903 62.5856 40.6921 62.7241 40.6957C62.8626 40.6992 62.9673 40.7045 63.0384 40.7116V41.9901C62.9957 41.9794 62.8981 41.9634 62.7454 41.9421C62.5962 41.9173 62.4382 41.9048 62.2713 41.9048C61.8736 41.9048 61.5185 41.9883 61.206 42.1552C60.897 42.3185 60.652 42.5458 60.4709 42.837C60.2933 43.1246 60.2045 43.4531 60.2045 43.8224V49H58.9474ZM67.6033 49.1705C66.8363 49.1705 66.1758 48.9893 65.6218 48.6271C65.0678 48.2649 64.6417 47.766 64.3434 47.1303C64.0451 46.4947 63.896 45.7685 63.896 44.9517C63.896 44.1207 64.0487 43.3874 64.354 42.7518C64.663 42.1126 65.0927 41.6136 65.6431 41.255C66.1971 40.8928 66.8434 40.7116 67.582 40.7116C68.1573 40.7116 68.6758 40.8182 69.1374 41.0312C69.5991 41.2443 69.9773 41.5426 70.272 41.9261C70.5668 42.3097 70.7496 42.7571 70.8207 43.2685H69.5636C69.4677 42.8956 69.2546 42.5653 68.9244 42.2777C68.5977 41.9865 68.1573 41.8409 67.6033 41.8409C67.1133 41.8409 66.6836 41.9687 66.3143 42.2244C65.9485 42.4766 65.6626 42.8335 65.4567 43.2951C65.2543 43.7532 65.1531 44.2912 65.1531 44.9091C65.1531 45.5412 65.2525 46.0916 65.4513 46.5604C65.6538 47.0291 65.9379 47.3931 66.3036 47.6523C66.6729 47.9116 67.1062 48.0412 67.6033 48.0412C67.93 48.0412 68.2266 47.9844 68.4929 47.8707C68.7592 47.7571 68.9847 47.5938 69.1694 47.3807C69.354 47.1676 69.4854 46.9119 69.5636 46.6136H70.8207C70.7496 47.0966 70.5739 47.5316 70.2933 47.9187C70.0163 48.3022 69.6488 48.6076 69.1907 48.8349C68.7362 49.0586 68.207 49.1705 67.6033 49.1705ZM73.9155 44.0781V49H72.6584V38.0909H73.9155V42.0966H74.022C74.2138 41.674 74.5014 41.3384 74.8849 41.0898C75.272 40.8377 75.7869 40.7116 76.4297 40.7116C76.9872 40.7116 77.4755 40.8235 77.8945 41.0472C78.3136 41.2674 78.6385 41.6065 78.8693 42.0646C79.1037 42.5192 79.2209 43.098 79.2209 43.8011V49H77.9638V43.8864C77.9638 43.2365 77.7951 42.734 77.4577 42.3789C77.1239 42.0202 76.6605 41.8409 76.0675 41.8409C75.6555 41.8409 75.2862 41.9279 74.9595 42.1019C74.6364 42.2759 74.3807 42.5298 74.1925 42.8636C74.0078 43.1974 73.9155 43.6023 73.9155 44.0781ZM85.7181 49V48.0412L89.319 44.0994C89.7416 43.6378 90.0896 43.2365 90.363 42.8956C90.6365 42.5511 90.8389 42.228 90.9703 41.9261C91.1052 41.6207 91.1727 41.3011 91.1727 40.9673C91.1727 40.5838 91.0803 40.2518 90.8957 39.9712C90.7146 39.6907 90.466 39.4741 90.1499 39.3214C89.8339 39.1687 89.4788 39.0923 89.0846 39.0923C88.6656 39.0923 88.2998 39.1793 87.9873 39.3533C87.6784 39.5238 87.4387 39.7635 87.2682 40.0724C87.1013 40.3814 87.0178 40.7436 87.0178 41.1591H85.7607C85.7607 40.5199 85.9081 39.9588 86.2029 39.4759C86.4976 38.9929 86.8989 38.6165 87.4067 38.3466C87.9181 38.0767 88.4916 37.9418 89.1272 37.9418C89.7664 37.9418 90.3328 38.0767 90.8264 38.3466C91.32 38.6165 91.7071 38.9805 91.9877 39.4386C92.2682 39.8967 92.4085 40.4062 92.4085 40.9673C92.4085 41.3686 92.3357 41.761 92.1901 42.1445C92.048 42.5245 91.7994 42.9489 91.4443 43.4176C91.0928 43.8828 90.6045 44.451 89.9795 45.1222L87.5292 47.7429V47.8281H92.6002V49H85.7181ZM98.3584 49.1491C97.5558 49.1491 96.8722 48.9308 96.3076 48.494C95.743 48.0536 95.3115 47.4162 95.0132 46.5817C94.7149 45.7436 94.5658 44.7315 94.5658 43.5455C94.5658 42.3665 94.7149 41.3597 95.0132 40.5252C95.3151 39.6871 95.7483 39.0479 96.3129 38.6076C96.8811 38.1637 97.5629 37.9418 98.3584 37.9418C99.1539 37.9418 99.8339 38.1637 100.399 38.6076C100.967 39.0479 101.4 39.6871 101.698 40.5252C102 41.3597 102.151 42.3665 102.151 43.5455C102.151 44.7315 102.002 45.7436 101.704 46.5817C101.405 47.4162 100.974 48.0536 100.409 48.494C99.8445 48.9308 99.161 49.1491 98.3584 49.1491ZM98.3584 47.9773C99.1539 47.9773 99.7718 47.5937 100.212 46.8267C100.652 46.0597 100.873 44.9659 100.873 43.5455C100.873 42.6009 100.771 41.7965 100.569 41.1325C100.37 40.4684 100.082 39.9624 99.7061 39.6143C99.3332 39.2663 98.884 39.0923 98.3584 39.0923C97.57 39.0923 96.9539 39.4812 96.51 40.2589C96.0661 41.033 95.8442 42.1286 95.8442 43.5455C95.8442 44.4901 95.9436 45.2926 96.1425 45.9531C96.3414 46.6136 96.6272 47.1161 97.0001 47.4606C97.3765 47.805 97.8293 47.9773 98.3584 47.9773ZM104.175 49V48.0412L107.776 44.0994C108.199 43.6378 108.547 43.2365 108.82 42.8956C109.093 42.5511 109.296 42.228 109.427 41.9261C109.562 41.6207 109.63 41.3011 109.63 40.9673C109.63 40.5838 109.537 40.2518 109.353 39.9712C109.172 39.6907 108.923 39.4741 108.607 39.3214C108.291 39.1687 107.936 39.0923 107.542 39.0923C107.123 39.0923 106.757 39.1793 106.444 39.3533C106.135 39.5238 105.896 39.7635 105.725 40.0724C105.558 40.3814 105.475 40.7436 105.475 41.1591H104.218C104.218 40.5199 104.365 39.9588 104.66 39.4759C104.955 38.9929 105.356 38.6165 105.864 38.3466C106.375 38.0767 106.949 37.9418 107.584 37.9418C108.223 37.9418 108.79 38.0767 109.283 38.3466C109.777 38.6165 110.164 38.9805 110.445 39.4386C110.725 39.8967 110.866 40.4062 110.866 40.9673C110.866 41.3686 110.793 41.761 110.647 42.1445C110.505 42.5245 110.256 42.9489 109.901 43.4176C109.55 43.8828 109.062 44.451 108.437 45.1222L105.986 47.7429V47.8281H111.057V49H104.175ZM113.257 49V48.0412L116.858 44.0994C117.281 43.6378 117.629 43.2365 117.902 42.8956C118.176 42.5511 118.378 42.228 118.509 41.9261C118.644 41.6207 118.712 41.3011 118.712 40.9673C118.712 40.5838 118.619 40.2518 118.435 39.9712C118.254 39.6907 118.005 39.4741 117.689 39.3214C117.373 39.1687 117.018 39.0923 116.624 39.0923C116.205 39.0923 115.839 39.1793 115.526 39.3533C115.217 39.5238 114.978 39.7635 114.807 40.0724C114.64 40.3814 114.557 40.7436 114.557 41.1591H113.3C113.3 40.5199 113.447 39.9588 113.742 39.4759C114.037 38.9929 114.438 38.6165 114.946 38.3466C115.457 38.0767 116.031 37.9418 116.666 37.9418C117.305 37.9418 117.872 38.0767 118.366 38.3466C118.859 38.6165 119.246 38.9805 119.527 39.4386C119.807 39.8967 119.948 40.4062 119.948 40.9673C119.948 41.3686 119.875 41.761 119.729 42.1445C119.587 42.5245 119.339 42.9489 118.983 43.4176C118.632 43.8828 118.144 44.451 117.519 45.1222L115.068 47.7429V47.8281H120.139V49H113.257Z" fill="#2E263D" fill-opacity="0.9"/>
<path d="M138 46.1719L142.95 41.2219L144.364 42.6359L138 48.9999L131.636 42.6359L133.05 41.2219L138 46.1719Z" fill="#2E263D" fill-opacity="0.9"/>
<path d="M270.828 45L275.778 49.95L274.364 51.364L268 45L274.364 38.636L275.778 40.05L270.828 45Z" fill="#2E263D" fill-opacity="0.7"/>
<path d="M311.172 45L306.222 40.05L307.636 38.636L314 45L307.636 51.364L306.222 49.95L311.172 45Z" fill="#2E263D" fill-opacity="0.7"/>
<path d="M58.0034 87.4545C57.9522 87.0227 57.7449 86.6875 57.3812 86.4489C57.0176 86.2102 56.5716 86.0909 56.0431 86.0909C55.6568 86.0909 55.3187 86.1534 55.0289 86.2784C54.742 86.4034 54.5176 86.5753 54.3556 86.794C54.1966 87.0128 54.117 87.2614 54.117 87.5398C54.117 87.7727 54.1724 87.973 54.2832 88.1406C54.3968 88.3054 54.5417 88.4432 54.7179 88.554C54.894 88.6619 55.0787 88.7514 55.2718 88.8224C55.465 88.8906 55.6426 88.946 55.8045 88.9886L56.6909 89.2273C56.9181 89.2869 57.171 89.3693 57.4494 89.4744C57.7306 89.5795 57.9991 89.723 58.2548 89.9048C58.5133 90.0838 58.7264 90.3139 58.894 90.5952C59.0616 90.8764 59.1454 91.2216 59.1454 91.6307C59.1454 92.1023 59.0218 92.5284 58.7747 92.9091C58.5304 93.2898 58.1724 93.5923 57.7008 93.8168C57.2321 94.0412 56.6625 94.1534 55.992 94.1534C55.367 94.1534 54.8258 94.0526 54.3684 93.8509C53.9139 93.6491 53.5559 93.3679 53.2946 93.0071C53.036 92.6463 52.8897 92.2273 52.8556 91.75H53.9466C53.975 92.0795 54.0858 92.3523 54.2789 92.5682C54.475 92.7812 54.7221 92.9403 55.0204 93.0455C55.3216 93.1477 55.6454 93.1989 55.992 93.1989C56.3954 93.1989 56.7576 93.1335 57.0787 93.0028C57.3997 92.8693 57.6539 92.6847 57.8414 92.4489C58.0289 92.2102 58.1227 91.9318 58.1227 91.6136C58.1227 91.3239 58.0417 91.0881 57.8798 90.9062C57.7179 90.7244 57.5048 90.5767 57.2406 90.4631C56.9764 90.3494 56.6909 90.25 56.3841 90.1648L55.3102 89.858C54.6284 89.6619 54.0886 89.3821 53.6909 89.0185C53.2931 88.6548 53.0943 88.179 53.0943 87.5909C53.0943 87.1023 53.2264 86.6761 53.4906 86.3125C53.7576 85.946 54.1156 85.6619 54.5645 85.4602C55.0162 85.2557 55.5204 85.1534 56.0772 85.1534C56.6397 85.1534 57.1397 85.2543 57.5772 85.456C58.0147 85.6548 58.3613 85.9276 58.617 86.2741C58.8755 86.6207 59.0119 87.0142 59.0261 87.4545H58.0034Z" fill="#2E263D" fill-opacity="0.4"/>
<path d="M91.7189 85.2727H92.9803L95.9462 92.517H96.0485L99.0144 85.2727H100.276V94H99.2871V87.3693H99.2019L96.4746 94H95.5201L92.7928 87.3693H92.7076V94H91.7189V85.2727Z" fill="#2E263D" fill-opacity="0.4"/>
<path d="M132.73 86.2102V85.2727H139.275V86.2102H136.531V94H135.474V86.2102H132.73Z" fill="#2E263D" fill-opacity="0.4"/>
<path d="M172.947 94L170.56 85.2727H171.634L173.458 92.3807H173.543L175.401 85.2727H176.594L178.452 92.3807H178.538L180.362 85.2727H181.435L179.049 94H177.958L176.032 87.0455H175.964L174.038 94H172.947Z" fill="#2E263D" fill-opacity="0.4"/>
<path d="M212.73 86.2102V85.2727H219.275V86.2102H216.531V94H215.474V86.2102H212.73Z" fill="#2E263D" fill-opacity="0.4"/>
<path d="M253.535 94V85.2727H258.768V86.2102H254.592V89.1591H258.376V90.0966H254.592V94H253.535Z" fill="#2E263D" fill-opacity="0.4"/>
<path d="M298.003 87.4545C297.952 87.0227 297.745 86.6875 297.381 86.4489C297.018 86.2102 296.572 86.0909 296.043 86.0909C295.657 86.0909 295.319 86.1534 295.029 86.2784C294.742 86.4034 294.518 86.5753 294.356 86.794C294.197 87.0128 294.117 87.2614 294.117 87.5398C294.117 87.7727 294.172 87.973 294.283 88.1406C294.397 88.3054 294.542 88.4432 294.718 88.554C294.894 88.6619 295.079 88.7514 295.272 88.8224C295.465 88.8906 295.643 88.946 295.805 88.9886L296.691 89.2273C296.918 89.2869 297.171 89.3693 297.449 89.4744C297.731 89.5795 297.999 89.723 298.255 89.9048C298.513 90.0838 298.726 90.3139 298.894 90.5952C299.062 90.8764 299.145 91.2216 299.145 91.6307C299.145 92.1023 299.022 92.5284 298.775 92.9091C298.53 93.2898 298.172 93.5923 297.701 93.8168C297.232 94.0412 296.662 94.1534 295.992 94.1534C295.367 94.1534 294.826 94.0526 294.368 93.8509C293.914 93.6491 293.556 93.3679 293.295 93.0071C293.036 92.6463 292.89 92.2273 292.856 91.75H293.947C293.975 92.0795 294.086 92.3523 294.279 92.5682C294.475 92.7812 294.722 92.9403 295.02 93.0455C295.322 93.1477 295.645 93.1989 295.992 93.1989C296.395 93.1989 296.758 93.1335 297.079 93.0028C297.4 92.8693 297.654 92.6847 297.841 92.4489C298.029 92.2102 298.123 91.9318 298.123 91.6136C298.123 91.3239 298.042 91.0881 297.88 90.9062C297.718 90.7244 297.505 90.5767 297.241 90.4631C296.976 90.3494 296.691 90.25 296.384 90.1648L295.31 89.858C294.628 89.6619 294.089 89.3821 293.691 89.0185C293.293 88.6548 293.094 88.179 293.094 87.5909C293.094 87.1023 293.226 86.6761 293.491 86.3125C293.758 85.946 294.116 85.6619 294.564 85.4602C295.016 85.2557 295.52 85.1534 296.077 85.1534C296.64 85.1534 297.14 85.2543 297.577 85.456C298.015 85.6548 298.361 85.9276 298.617 86.2741C298.876 86.6207 299.012 87.0142 299.026 87.4545H298.003Z" fill="#2E263D" fill-opacity="0.4"/>
<path d="M297.478 120.091V131H296.157V121.476H296.093L293.43 123.244V121.902L296.157 120.091H297.478Z" fill="#2E263D" fill-opacity="0.9"/>
<path d="M52.5882 169V168.041L56.1891 164.099C56.6117 163.638 56.9597 163.237 57.2331 162.896C57.5066 162.551 57.709 162.228 57.8404 161.926C57.9753 161.621 58.0428 161.301 58.0428 160.967C58.0428 160.584 57.9505 160.252 57.7658 159.971C57.5847 159.691 57.3361 159.474 57.0201 159.321C56.704 159.169 56.3489 159.092 55.9547 159.092C55.5357 159.092 55.1699 159.179 54.8574 159.353C54.5485 159.524 54.3088 159.763 54.1383 160.072C53.9714 160.381 53.888 160.744 53.888 161.159H52.6309C52.6309 160.52 52.7782 159.959 53.073 159.476C53.3677 158.993 53.769 158.616 54.2768 158.347C54.7882 158.077 55.3617 157.942 55.9973 157.942C56.6365 157.942 57.2029 158.077 57.6966 158.347C58.1902 158.616 58.5772 158.98 58.8578 159.439C59.1383 159.897 59.2786 160.406 59.2786 160.967C59.2786 161.369 59.2058 161.761 59.0602 162.145C58.9181 162.525 58.6696 162.949 58.3145 163.418C57.9629 163.883 57.4746 164.451 56.8496 165.122L54.3993 167.743V167.828H59.4703V169H52.5882Z" fill="#2E263D" fill-opacity="0.9"/>
<path d="M96.04 169.149C95.3368 169.149 94.71 169.028 94.1596 168.787C93.6127 168.545 93.1777 168.21 92.8546 167.78C92.535 167.347 92.361 166.844 92.3326 166.273H93.6749C93.7033 166.624 93.824 166.928 94.0371 167.184C94.2502 167.436 94.5289 167.631 94.8734 167.77C95.2179 167.908 95.5996 167.977 96.0186 167.977C96.4874 167.977 96.9029 167.896 97.2651 167.732C97.6273 167.569 97.9114 167.342 98.1174 167.05C98.3233 166.759 98.4263 166.422 98.4263 166.038C98.4263 165.637 98.3269 165.284 98.128 164.978C97.9292 164.669 97.638 164.428 97.2544 164.254C96.8709 164.08 96.4022 163.993 95.8482 163.993H94.9746V162.821H95.8482C96.2814 162.821 96.6614 162.743 96.9881 162.587C97.3184 162.43 97.5758 162.21 97.7605 161.926C97.9487 161.642 98.0428 161.308 98.0428 160.925C98.0428 160.555 97.9611 160.234 97.7978 159.961C97.6344 159.687 97.4036 159.474 97.1053 159.321C96.8105 159.169 96.4625 159.092 96.0613 159.092C95.6848 159.092 95.3297 159.162 94.9959 159.3C94.6657 159.435 94.3958 159.632 94.1863 159.891C93.9767 160.147 93.8631 160.456 93.8453 160.818H92.5669C92.5882 160.246 92.7605 159.746 93.0836 159.316C93.4068 158.883 93.8294 158.545 94.3514 158.304C94.877 158.062 95.454 157.942 96.0826 157.942C96.7573 157.942 97.3361 158.078 97.8191 158.352C98.302 158.622 98.6731 158.979 98.9324 159.423C99.1916 159.866 99.3212 160.346 99.3212 160.861C99.3212 161.475 99.1596 161.999 98.8365 162.432C98.5169 162.865 98.0819 163.165 97.5314 163.332V163.418C98.2203 163.531 98.7583 163.824 99.1454 164.297C99.5325 164.765 99.726 165.346 99.726 166.038C99.726 166.631 99.5645 167.164 99.2413 167.636C98.9217 168.105 98.4849 168.474 97.9309 168.744C97.377 169.014 96.7466 169.149 96.04 169.149Z" fill="#2E263D" fill-opacity="0.9"/>
<path d="M132.062 166.763V165.676L136.856 158.091H137.644V159.774H137.111L133.489 165.506V165.591H139.945V166.763H132.062ZM137.197 169V166.433V165.926V158.091H138.454V169H137.197Z" fill="#2E263D" fill-opacity="0.9"/>
<path d="M175.975 169.149C175.35 169.149 174.788 169.025 174.287 168.776C173.786 168.528 173.385 168.187 173.083 167.754C172.781 167.32 172.616 166.827 172.588 166.273H173.866C173.916 166.766 174.139 167.175 174.537 167.498C174.938 167.817 175.418 167.977 175.975 167.977C176.423 167.977 176.821 167.873 177.169 167.663C177.52 167.453 177.795 167.166 177.994 166.8C178.197 166.431 178.298 166.013 178.298 165.548C178.298 165.072 178.193 164.648 177.984 164.275C177.778 163.899 177.493 163.602 177.131 163.386C176.769 163.169 176.355 163.059 175.89 163.055C175.556 163.052 175.214 163.103 174.862 163.21C174.511 163.313 174.221 163.446 173.994 163.609L172.758 163.46L173.419 158.091H179.086V159.263H174.527L174.143 162.48H174.207C174.431 162.303 174.711 162.155 175.049 162.038C175.386 161.921 175.737 161.862 176.103 161.862C176.771 161.862 177.366 162.022 177.888 162.342C178.413 162.658 178.825 163.091 179.123 163.641C179.425 164.192 179.576 164.82 179.576 165.527C179.576 166.223 179.42 166.844 179.107 167.391C178.799 167.935 178.372 168.364 177.829 168.68C177.286 168.993 176.668 169.149 175.975 169.149Z" fill="#2E263D" fill-opacity="0.9"/>
<rect x="198" y="146" width="36" height="36" rx="18" fill="#8C57FF" fill-opacity="0.24"/>
<path d="M216.071 169.149C215.624 169.142 215.176 169.057 214.729 168.893C214.281 168.73 213.873 168.455 213.504 168.068C213.134 167.677 212.838 167.15 212.614 166.486C212.39 165.818 212.279 164.98 212.279 163.972C212.279 163.006 212.369 162.15 212.55 161.404C212.731 160.655 212.994 160.025 213.339 159.513C213.683 158.998 214.099 158.608 214.585 158.341C215.075 158.075 215.627 157.942 216.242 157.942C216.852 157.942 217.396 158.064 217.872 158.309C218.351 158.551 218.742 158.888 219.044 159.321C219.345 159.755 219.541 160.254 219.629 160.818H218.33C218.209 160.328 217.975 159.922 217.627 159.598C217.279 159.275 216.817 159.114 216.242 159.114C215.397 159.114 214.731 159.481 214.244 160.216C213.761 160.951 213.518 161.983 213.514 163.311H213.6C213.799 163.009 214.035 162.752 214.308 162.539C214.585 162.322 214.89 162.155 215.224 162.038C215.558 161.921 215.911 161.862 216.284 161.862C216.909 161.862 217.481 162.018 218 162.331C218.518 162.64 218.933 163.068 219.246 163.615C219.558 164.158 219.715 164.781 219.715 165.484C219.715 166.159 219.564 166.777 219.262 167.338C218.96 167.896 218.536 168.339 217.989 168.67C217.446 168.996 216.806 169.156 216.071 169.149ZM216.071 167.977C216.519 167.977 216.92 167.865 217.275 167.642C217.634 167.418 217.916 167.118 218.122 166.741C218.332 166.365 218.436 165.946 218.436 165.484C218.436 165.033 218.335 164.623 218.133 164.254C217.934 163.881 217.659 163.585 217.307 163.364C216.959 163.144 216.561 163.034 216.114 163.034C215.777 163.034 215.462 163.102 215.171 163.237C214.88 163.368 214.624 163.549 214.404 163.78C214.187 164.011 214.017 164.275 213.893 164.574C213.768 164.868 213.706 165.179 213.706 165.506C213.706 165.939 213.807 166.344 214.01 166.72C214.216 167.097 214.496 167.4 214.851 167.631C215.21 167.862 215.617 167.977 216.071 167.977Z" fill="#8C57FF"/>
<path d="M253.186 169L258.065 159.348V159.263H252.44V158.091H259.428V159.327L254.57 169H253.186Z" fill="#2E263D" fill-opacity="0.9"/>
<path d="M296.002 169.149C295.27 169.149 294.624 169.02 294.063 168.76C293.506 168.498 293.071 168.137 292.758 167.679C292.446 167.217 292.291 166.692 292.295 166.102C292.291 165.641 292.382 165.214 292.566 164.824C292.751 164.43 293.003 164.101 293.323 163.838C293.646 163.572 294.006 163.403 294.404 163.332V163.268C293.882 163.134 293.466 162.841 293.158 162.39C292.849 161.935 292.696 161.418 292.699 160.839C292.696 160.286 292.836 159.79 293.12 159.353C293.404 158.917 293.795 158.572 294.292 158.32C294.793 158.068 295.363 157.942 296.002 157.942C296.634 157.942 297.199 158.068 297.696 158.32C298.193 158.572 298.584 158.917 298.868 159.353C299.155 159.79 299.301 160.286 299.305 160.839C299.301 161.418 299.143 161.935 298.83 162.39C298.522 162.841 298.111 163.134 297.6 163.268V163.332C297.994 163.403 298.349 163.572 298.665 163.838C298.981 164.101 299.234 164.43 299.422 164.824C299.61 165.214 299.706 165.641 299.709 166.102C299.706 166.692 299.546 167.217 299.23 167.679C298.917 168.137 298.482 168.498 297.925 168.76C297.371 169.02 296.73 169.149 296.002 169.149ZM296.002 167.977C296.496 167.977 296.922 167.897 297.28 167.738C297.639 167.578 297.916 167.352 298.111 167.061C298.307 166.77 298.406 166.429 298.41 166.038C298.406 165.626 298.3 165.262 298.09 164.946C297.881 164.63 297.595 164.382 297.232 164.201C296.874 164.02 296.464 163.929 296.002 163.929C295.537 163.929 295.121 164.02 294.756 164.201C294.393 164.382 294.107 164.63 293.898 164.946C293.692 165.262 293.591 165.626 293.594 166.038C293.591 166.429 293.685 166.77 293.877 167.061C294.072 167.352 294.351 167.578 294.713 167.738C295.075 167.897 295.505 167.977 296.002 167.977ZM296.002 162.8C296.393 162.8 296.739 162.722 297.041 162.565C297.346 162.409 297.586 162.191 297.76 161.91C297.934 161.63 298.023 161.301 298.026 160.925C298.023 160.555 297.936 160.234 297.765 159.961C297.595 159.684 297.359 159.471 297.057 159.321C296.755 159.169 296.403 159.092 296.002 159.092C295.594 159.092 295.237 159.169 294.931 159.321C294.626 159.471 294.39 159.684 294.223 159.961C294.056 160.234 293.974 160.555 293.978 160.925C293.974 161.301 294.058 161.63 294.228 161.91C294.402 162.191 294.642 162.409 294.947 162.565C295.253 162.722 295.604 162.8 296.002 162.8Z" fill="#2E263D" fill-opacity="0.9"/>
<path d="M55.9221 195.942C56.3695 195.945 56.817 196.031 57.2644 196.197C57.7119 196.364 58.1203 196.641 58.4896 197.028C58.8589 197.412 59.1554 197.936 59.3791 198.6C59.6029 199.264 59.7147 200.097 59.7147 201.098C59.7147 202.067 59.6224 202.929 59.4377 203.681C59.2566 204.431 58.9938 205.063 58.6494 205.578C58.3085 206.093 57.893 206.483 57.4029 206.75C56.9164 207.016 56.366 207.149 55.7516 207.149C55.1408 207.149 54.5957 207.028 54.1163 206.787C53.6405 206.542 53.2499 206.203 52.9445 205.77C52.6426 205.333 52.4491 204.827 52.3639 204.251H53.6636C53.7808 204.752 54.0134 205.166 54.3614 205.493C54.7129 205.816 55.1764 205.977 55.7516 205.977C56.5933 205.977 57.2573 205.61 57.7438 204.875C58.2339 204.14 58.4789 203.101 58.4789 201.759H58.3937C58.1948 202.057 57.9587 202.314 57.6852 202.531C57.4118 202.748 57.1082 202.914 56.7744 203.032C56.4406 203.149 56.0854 203.207 55.709 203.207C55.084 203.207 54.5105 203.053 53.9885 202.744C53.47 202.431 53.0546 202.004 52.7421 201.46C52.4331 200.913 52.2786 200.288 52.2786 199.585C52.2786 198.918 52.4278 198.307 52.7261 197.753C53.0279 197.195 53.4505 196.751 53.9938 196.421C54.5407 196.091 55.1835 195.931 55.9221 195.942ZM55.9221 197.114C55.4747 197.114 55.0716 197.225 54.7129 197.449C54.3578 197.669 54.0755 197.968 53.866 198.344C53.66 198.717 53.557 199.131 53.557 199.585C53.557 200.04 53.6565 200.453 53.8553 200.826C54.0578 201.196 54.333 201.49 54.681 201.711C55.0325 201.927 55.432 202.036 55.8795 202.036C56.2168 202.036 56.5311 201.97 56.8223 201.838C57.1135 201.703 57.3674 201.521 57.584 201.29C57.8042 201.055 57.9764 200.791 58.1007 200.496C58.225 200.198 58.2872 199.887 58.2872 199.564C58.2872 199.138 58.1842 198.738 57.9782 198.365C57.7758 197.993 57.4953 197.691 57.1366 197.46C56.7815 197.229 56.3766 197.114 55.9221 197.114Z" fill="#2E263D" fill-opacity="0.9"/>
<path d="M92.7907 196.091V207H91.4696V197.476H91.4057L88.7424 199.244V197.902L91.4696 196.091H92.7907ZM99.4863 207.149C98.6838 207.149 98.0002 206.931 97.4355 206.494C96.8709 206.054 96.4395 205.416 96.1412 204.582C95.8429 203.744 95.6937 202.732 95.6937 201.545C95.6937 200.366 95.8429 199.36 96.1412 198.525C96.443 197.687 96.8762 197.048 97.4409 196.608C98.0091 196.164 98.6909 195.942 99.4863 195.942C100.282 195.942 100.962 196.164 101.526 196.608C102.095 197.048 102.528 197.687 102.826 198.525C103.128 199.36 103.279 200.366 103.279 201.545C103.279 202.732 103.13 203.744 102.831 204.582C102.533 205.416 102.102 206.054 101.537 206.494C100.972 206.931 100.289 207.149 99.4863 207.149ZM99.4863 205.977C100.282 205.977 100.9 205.594 101.34 204.827C101.78 204.06 102.001 202.966 102.001 201.545C102.001 200.601 101.899 199.797 101.697 199.132C101.498 198.468 101.21 197.962 100.834 197.614C100.461 197.266 100.012 197.092 99.4863 197.092C98.698 197.092 98.0819 197.481 97.638 198.259C97.1941 199.033 96.9721 200.129 96.9721 201.545C96.9721 202.49 97.0716 203.293 97.2704 203.953C97.4693 204.614 97.7551 205.116 98.128 205.461C98.5044 205.805 98.9572 205.977 99.4863 205.977Z" fill="#2E263D" fill-opacity="0.9"/>
<g filter="url(#filter1_d_8003_2805)">
<rect x="118" y="184" width="36" height="36" rx="18" fill="#8C57FF"/>
<path d="M133.992 196.091V207H132.671V197.476H132.607L129.944 199.244V197.902L132.671 196.091H133.992ZM140.964 196.091V207H139.643V197.476H139.58L136.916 199.244V197.902L139.643 196.091H140.964Z" fill="white"/>
</g>
<path d="M172.937 196.091V207H171.616V197.476H171.552L168.889 199.244V197.902L171.616 196.091H172.937ZM176.075 207V206.041L179.675 202.099C180.098 201.638 180.446 201.237 180.719 200.896C180.993 200.551 181.195 200.228 181.327 199.926C181.462 199.621 181.529 199.301 181.529 198.967C181.529 198.584 181.437 198.252 181.252 197.971C181.071 197.691 180.822 197.474 180.506 197.321C180.19 197.169 179.835 197.092 179.441 197.092C179.022 197.092 178.656 197.179 178.344 197.353C178.035 197.524 177.795 197.763 177.625 198.072C177.458 198.381 177.374 198.744 177.374 199.159H176.117C176.117 198.52 176.265 197.959 176.559 197.476C176.854 196.993 177.255 196.616 177.763 196.347C178.275 196.077 178.848 195.942 179.484 195.942C180.123 195.942 180.689 196.077 181.183 196.347C181.676 196.616 182.064 196.98 182.344 197.439C182.625 197.897 182.765 198.406 182.765 198.967C182.765 199.369 182.692 199.761 182.547 200.145C182.404 200.525 182.156 200.949 181.801 201.418C181.449 201.883 180.961 202.451 180.336 203.122L177.886 205.743V205.828H182.957V207H176.075Z" fill="#2E263D" fill-opacity="0.9"/>
<path d="M212.703 196.091V207H211.382V197.476H211.318L208.654 199.244V197.902L211.382 196.091H212.703ZM219.526 207.149C218.823 207.149 218.196 207.028 217.646 206.787C217.099 206.545 216.664 206.21 216.341 205.78C216.021 205.347 215.847 204.844 215.819 204.273H217.161C217.19 204.624 217.31 204.928 217.523 205.184C217.737 205.436 218.015 205.631 218.36 205.77C218.704 205.908 219.086 205.977 219.505 205.977C219.974 205.977 220.389 205.896 220.751 205.732C221.114 205.569 221.398 205.342 221.604 205.05C221.81 204.759 221.913 204.422 221.913 204.038C221.913 203.637 221.813 203.284 221.614 202.978C221.415 202.669 221.124 202.428 220.741 202.254C220.357 202.08 219.888 201.993 219.335 201.993H218.461V200.821H219.335C219.768 200.821 220.148 200.743 220.474 200.587C220.805 200.43 221.062 200.21 221.247 199.926C221.435 199.642 221.529 199.308 221.529 198.925C221.529 198.555 221.447 198.234 221.284 197.961C221.121 197.687 220.89 197.474 220.592 197.321C220.297 197.169 219.949 197.092 219.548 197.092C219.171 197.092 218.816 197.162 218.482 197.3C218.152 197.435 217.882 197.632 217.673 197.891C217.463 198.147 217.349 198.456 217.332 198.818H216.053C216.075 198.246 216.247 197.746 216.57 197.316C216.893 196.883 217.316 196.545 217.838 196.304C218.363 196.062 218.94 195.942 219.569 195.942C220.244 195.942 220.822 196.078 221.305 196.352C221.788 196.622 222.159 196.979 222.419 197.423C222.678 197.866 222.808 198.346 222.808 198.861C222.808 199.475 222.646 199.999 222.323 200.432C222.003 200.865 221.568 201.165 221.018 201.332V201.418C221.707 201.531 222.245 201.824 222.632 202.297C223.019 202.765 223.212 203.346 223.212 204.038C223.212 204.631 223.051 205.164 222.728 205.636C222.408 206.105 221.971 206.474 221.417 206.744C220.863 207.014 220.233 207.149 219.526 207.149Z" fill="#2E263D" fill-opacity="0.9"/>
<path d="M252.666 196.091V207H251.345V197.476H251.281L248.618 199.244V197.902L251.345 196.091H252.666ZM255.548 204.763V203.676L260.342 196.091H261.13V197.774H260.598L256.975 203.506V203.591H263.431V204.763H255.548ZM260.683 207V204.433V203.926V196.091H261.94V207H260.683Z" fill="#2E263D" fill-opacity="0.9"/>
<path d="M292.915 196.091V207H291.594V197.476H291.53L288.867 199.244V197.902L291.594 196.091H292.915ZM299.462 207.149C298.837 207.149 298.274 207.025 297.773 206.776C297.272 206.528 296.871 206.187 296.569 205.754C296.267 205.32 296.102 204.827 296.074 204.273H297.352C297.402 204.766 297.626 205.175 298.023 205.498C298.425 205.817 298.904 205.977 299.462 205.977C299.909 205.977 300.307 205.873 300.655 205.663C301.006 205.453 301.282 205.166 301.481 204.8C301.683 204.431 301.784 204.013 301.784 203.548C301.784 203.072 301.679 202.648 301.47 202.275C301.264 201.899 300.98 201.602 300.618 201.386C300.255 201.169 299.842 201.059 299.376 201.055C299.043 201.052 298.7 201.103 298.348 201.21C297.997 201.313 297.707 201.446 297.48 201.609L296.244 201.46L296.905 196.091H302.572V197.263H298.013L297.629 200.48H297.693C297.917 200.303 298.197 200.155 298.535 200.038C298.872 199.921 299.224 199.862 299.59 199.862C300.257 199.862 300.852 200.022 301.374 200.342C301.9 200.658 302.311 201.091 302.61 201.641C302.912 202.192 303.063 202.82 303.063 203.527C303.063 204.223 302.906 204.844 302.594 205.391C302.285 205.935 301.859 206.364 301.315 206.68C300.772 206.993 300.154 207.149 299.462 207.149Z" fill="#2E263D" fill-opacity="0.9"/>
<path d="M52.798 234.091V245H51.477V235.476H51.413L48.7497 237.244V235.902L51.477 234.091H52.798ZM59.5576 245.149C59.1101 245.142 58.6627 245.057 58.2152 244.893C57.7678 244.73 57.3594 244.455 56.9901 244.068C56.6208 243.677 56.3243 243.15 56.1005 242.486C55.8768 241.818 55.765 240.98 55.765 239.972C55.765 239.006 55.8555 238.15 56.0366 237.404C56.2177 236.655 56.4805 236.025 56.825 235.513C57.1694 234.998 57.5849 234.608 58.0714 234.341C58.5615 234.075 59.1137 233.942 59.728 233.942C60.3388 233.942 60.8821 234.064 61.358 234.309C61.8374 234.551 62.228 234.888 62.5299 235.321C62.8317 235.755 63.027 236.254 63.1158 236.818H61.8161C61.6954 236.328 61.461 235.922 61.113 235.598C60.765 235.275 60.3033 235.114 59.728 235.114C58.8829 235.114 58.217 235.481 57.7305 236.216C57.2476 236.951 57.0043 237.983 57.0008 239.311H57.086C57.2848 239.009 57.521 238.752 57.7944 238.539C58.0714 238.322 58.3768 238.155 58.7106 238.038C59.0444 237.921 59.3978 237.862 59.7706 237.862C60.3956 237.862 60.9674 238.018 61.4858 238.331C62.0043 238.64 62.4198 239.068 62.7323 239.615C63.0448 240.158 63.201 240.781 63.201 241.484C63.201 242.159 63.0501 242.777 62.7483 243.338C62.4464 243.896 62.0221 244.339 61.4752 244.67C60.9319 244.996 60.2927 245.156 59.5576 245.149ZM59.5576 243.977C60.005 243.977 60.4063 243.865 60.7614 243.642C61.1201 243.418 61.4024 243.118 61.6084 242.741C61.8179 242.365 61.9226 241.946 61.9226 241.484C61.9226 241.033 61.8214 240.623 61.619 240.254C61.4201 239.881 61.1449 239.585 60.7934 239.364C60.4454 239.144 60.0476 239.034 59.6002 239.034C59.2628 239.034 58.9486 239.102 58.6574 239.237C58.3662 239.368 58.1105 239.549 57.8903 239.78C57.6737 240.011 57.5032 240.275 57.379 240.574C57.2547 240.868 57.1925 241.179 57.1925 241.506C57.1925 241.939 57.2937 242.344 57.4961 242.72C57.7021 243.097 57.9826 243.4 58.3378 243.631C58.6964 243.862 59.103 243.977 59.5576 243.977Z" fill="#2E263D" fill-opacity="0.9"/>
<path d="M93.1935 234.091V245H91.8725V235.476H91.8085L89.1452 237.244V235.902L91.8725 234.091H93.1935ZM96.6718 245L101.551 235.348V235.263H95.9261V234.091H102.915V235.327L98.0568 245H96.6718Z" fill="#2E263D" fill-opacity="0.9"/>
<path d="M132.857 234.091V245H131.536V235.476H131.472L128.808 237.244V235.902L131.536 234.091H132.857ZM139.488 245.149C138.757 245.149 138.11 245.02 137.549 244.76C136.992 244.498 136.557 244.137 136.244 243.679C135.932 243.217 135.777 242.692 135.781 242.102C135.777 241.641 135.868 241.214 136.053 240.824C136.237 240.43 136.489 240.101 136.809 239.838C137.132 239.572 137.493 239.403 137.89 239.332V239.268C137.368 239.134 136.953 238.841 136.644 238.39C136.335 237.935 136.182 237.418 136.186 236.839C136.182 236.286 136.322 235.79 136.607 235.353C136.891 234.917 137.281 234.572 137.778 234.32C138.279 234.068 138.849 233.942 139.488 233.942C140.12 233.942 140.685 234.068 141.182 234.32C141.679 234.572 142.07 234.917 142.354 235.353C142.642 235.79 142.787 236.286 142.791 236.839C142.787 237.418 142.629 237.935 142.317 238.39C142.008 238.841 141.598 239.134 141.086 239.268V239.332C141.481 239.403 141.836 239.572 142.152 239.838C142.468 240.101 142.72 240.43 142.908 240.824C143.096 241.214 143.192 241.641 143.196 242.102C143.192 242.692 143.032 243.217 142.716 243.679C142.404 244.137 141.969 244.498 141.411 244.76C140.857 245.02 140.216 245.149 139.488 245.149ZM139.488 243.977C139.982 243.977 140.408 243.897 140.767 243.738C141.125 243.578 141.402 243.352 141.598 243.061C141.793 242.77 141.892 242.429 141.896 242.038C141.892 241.626 141.786 241.262 141.576 240.946C141.367 240.63 141.081 240.382 140.719 240.201C140.36 240.02 139.95 239.929 139.488 239.929C139.023 239.929 138.608 240.02 138.242 240.201C137.88 240.382 137.594 240.63 137.384 240.946C137.178 241.262 137.077 241.626 137.081 242.038C137.077 242.429 137.171 242.77 137.363 243.061C137.558 243.352 137.837 243.578 138.199 243.738C138.561 243.897 138.991 243.977 139.488 243.977ZM139.488 238.8C139.879 238.8 140.225 238.722 140.527 238.565C140.832 238.409 141.072 238.191 141.246 237.91C141.42 237.63 141.509 237.301 141.512 236.925C141.509 236.555 141.422 236.234 141.251 235.961C141.081 235.684 140.845 235.471 140.543 235.321C140.241 235.169 139.89 235.092 139.488 235.092C139.08 235.092 138.723 235.169 138.418 235.321C138.112 235.471 137.876 235.684 137.709 235.961C137.542 236.234 137.461 236.555 137.464 236.925C137.461 237.301 137.544 237.63 137.715 237.91C137.889 238.191 138.128 238.409 138.434 238.565C138.739 238.722 139.091 238.8 139.488 238.8Z" fill="#2E263D" fill-opacity="0.9"/>
<path d="M172.798 234.091V245H171.477V235.476H171.413L168.75 237.244V235.902L171.477 234.091H172.798ZM179.408 233.942C179.856 233.945 180.303 234.031 180.751 234.197C181.198 234.364 181.607 234.641 181.976 235.028C182.345 235.412 182.642 235.936 182.865 236.6C183.089 237.264 183.201 238.097 183.201 239.098C183.201 240.067 183.109 240.929 182.924 241.681C182.743 242.431 182.48 243.063 182.136 243.578C181.795 244.093 181.379 244.483 180.889 244.75C180.403 245.016 179.852 245.149 179.238 245.149C178.627 245.149 178.082 245.028 177.603 244.787C177.127 244.542 176.736 244.203 176.431 243.77C176.129 243.333 175.935 242.827 175.85 242.251H177.15C177.267 242.752 177.5 243.166 177.848 243.493C178.199 243.816 178.663 243.977 179.238 243.977C180.08 243.977 180.744 243.61 181.23 242.875C181.72 242.14 181.965 241.101 181.965 239.759H181.88C181.681 240.057 181.445 240.314 181.172 240.531C180.898 240.748 180.595 240.914 180.261 241.032C179.927 241.149 179.572 241.207 179.195 241.207C178.57 241.207 177.997 241.053 177.475 240.744C176.956 240.431 176.541 240.004 176.228 239.46C175.919 238.913 175.765 238.288 175.765 237.585C175.765 236.918 175.914 236.307 176.212 235.753C176.514 235.195 176.937 234.751 177.48 234.421C178.027 234.091 178.67 233.931 179.408 233.942ZM179.408 235.114C178.961 235.114 178.558 235.225 178.199 235.449C177.844 235.669 177.562 235.968 177.352 236.344C177.146 236.717 177.043 237.131 177.043 237.585C177.043 238.04 177.143 238.453 177.342 238.826C177.544 239.196 177.819 239.49 178.167 239.711C178.519 239.927 178.918 240.036 179.366 240.036C179.703 240.036 180.017 239.97 180.309 239.838C180.6 239.703 180.854 239.521 181.07 239.29C181.291 239.055 181.463 238.791 181.587 238.496C181.711 238.198 181.773 237.887 181.773 237.564C181.773 237.138 181.67 236.738 181.465 236.365C181.262 235.993 180.982 235.691 180.623 235.46C180.268 235.229 179.863 235.114 179.408 235.114Z" fill="#2E263D" fill-opacity="0.9"/>
<path d="M207.901 245V244.041L211.502 240.099C211.924 239.638 212.272 239.237 212.546 238.896C212.819 238.551 213.021 238.228 213.153 237.926C213.288 237.621 213.355 237.301 213.355 236.967C213.355 236.584 213.263 236.252 213.078 235.971C212.897 235.691 212.649 235.474 212.333 235.321C212.017 235.169 211.661 235.092 211.267 235.092C210.848 235.092 210.482 235.179 210.17 235.353C209.861 235.524 209.621 235.763 209.451 236.072C209.284 236.381 209.2 236.744 209.2 237.159H207.943C207.943 236.52 208.091 235.959 208.385 235.476C208.68 234.993 209.081 234.616 209.589 234.347C210.101 234.077 210.674 233.942 211.31 233.942C211.949 233.942 212.515 234.077 213.009 234.347C213.503 234.616 213.89 234.98 214.17 235.439C214.451 235.897 214.591 236.406 214.591 236.967C214.591 237.369 214.518 237.761 214.373 238.145C214.231 238.525 213.982 238.949 213.627 239.418C213.275 239.883 212.787 240.451 212.162 241.122L209.712 243.743V243.828H214.783V245H207.901ZM220.541 245.149C219.738 245.149 219.055 244.931 218.49 244.494C217.926 244.054 217.494 243.416 217.196 242.582C216.898 241.744 216.748 240.732 216.748 239.545C216.748 238.366 216.898 237.36 217.196 236.525C217.498 235.687 217.931 235.048 218.496 234.608C219.064 234.164 219.746 233.942 220.541 233.942C221.336 233.942 222.017 234.164 222.581 234.608C223.149 235.048 223.583 235.687 223.881 236.525C224.183 237.36 224.334 238.366 224.334 239.545C224.334 240.732 224.184 241.744 223.886 242.582C223.588 243.416 223.156 244.054 222.592 244.494C222.027 244.931 221.344 245.149 220.541 245.149ZM220.541 243.977C221.336 243.977 221.954 243.594 222.395 242.827C222.835 242.06 223.055 240.966 223.055 239.545C223.055 238.601 222.954 237.797 222.752 237.132C222.553 236.468 222.265 235.962 221.889 235.614C221.516 235.266 221.067 235.092 220.541 235.092C219.753 235.092 219.137 235.481 218.693 236.259C218.249 237.033 218.027 238.129 218.027 239.545C218.027 240.49 218.126 241.293 218.325 241.953C218.524 242.614 218.81 243.116 219.183 243.461C219.559 243.805 220.012 243.977 220.541 243.977Z" fill="#2E263D" fill-opacity="0.9"/>
<path d="M249.102 245V244.041L252.703 240.099C253.125 239.638 253.473 239.237 253.747 238.896C254.02 238.551 254.223 238.228 254.354 237.926C254.489 237.621 254.556 237.301 254.556 236.967C254.556 236.584 254.464 236.252 254.279 235.971C254.098 235.691 253.85 235.474 253.534 235.321C253.218 235.169 252.863 235.092 252.468 235.092C252.049 235.092 251.684 235.179 251.371 235.353C251.062 235.524 250.822 235.763 250.652 236.072C250.485 236.381 250.402 236.744 250.402 237.159H249.145C249.145 236.52 249.292 235.959 249.587 235.476C249.881 234.993 250.283 234.616 250.79 234.347C251.302 234.077 251.875 233.942 252.511 233.942C253.15 233.942 253.717 234.077 254.21 234.347C254.704 234.616 255.091 234.98 255.371 235.439C255.652 235.897 255.792 236.406 255.792 236.967C255.792 237.369 255.719 237.761 255.574 238.145C255.432 238.525 255.183 238.949 254.828 239.418C254.477 239.883 253.988 240.451 253.363 241.122L250.913 243.743V243.828H255.984V245H249.102ZM262.019 234.091V245H260.698V235.476H260.634L257.971 237.244V235.902L260.698 234.091H262.019Z" fill="#2E263D" fill-opacity="0.9"/>
<path d="M288.047 245V244.041L291.648 240.099C292.071 239.638 292.419 239.237 292.692 238.896C292.966 238.551 293.168 238.228 293.299 237.926C293.434 237.621 293.502 237.301 293.502 236.967C293.502 236.584 293.409 236.252 293.225 235.971C293.044 235.691 292.795 235.474 292.479 235.321C292.163 235.169 291.808 235.092 291.414 235.092C290.995 235.092 290.629 235.179 290.316 235.353C290.007 235.524 289.768 235.763 289.597 236.072C289.43 236.381 289.347 236.744 289.347 237.159H288.09C288.09 236.52 288.237 235.959 288.532 235.476C288.827 234.993 289.228 234.616 289.736 234.347C290.247 234.077 290.821 233.942 291.456 233.942C292.096 233.942 292.662 234.077 293.156 234.347C293.649 234.616 294.036 234.98 294.317 235.439C294.597 235.897 294.738 236.406 294.738 236.967C294.738 237.369 294.665 237.761 294.519 238.145C294.377 238.525 294.129 238.949 293.773 239.418C293.422 239.883 292.934 240.451 292.309 241.122L289.858 243.743V243.828H294.929V245H288.047ZM297.129 245V244.041L300.73 240.099C301.153 239.638 301.501 239.237 301.774 238.896C302.048 238.551 302.25 238.228 302.381 237.926C302.516 237.621 302.584 237.301 302.584 236.967C302.584 236.584 302.491 236.252 302.307 235.971C302.126 235.691 301.877 235.474 301.561 235.321C301.245 235.169 300.89 235.092 300.496 235.092C300.077 235.092 299.711 235.179 299.398 235.353C299.089 235.524 298.85 235.763 298.679 236.072C298.512 236.381 298.429 236.744 298.429 237.159H297.172C297.172 236.52 297.319 235.959 297.614 235.476C297.909 234.993 298.31 234.616 298.818 234.347C299.329 234.077 299.903 233.942 300.538 233.942C301.178 233.942 301.744 234.077 302.238 234.347C302.731 234.616 303.118 234.98 303.399 235.439C303.679 235.897 303.82 236.406 303.82 236.967C303.82 237.369 303.747 237.761 303.601 238.145C303.459 238.525 303.211 238.949 302.855 239.418C302.504 239.883 302.016 240.451 301.391 241.122L298.94 243.743V243.828H304.011V245H297.129Z" fill="#2E263D" fill-opacity="0.9"/>
<path d="M47.8129 283V282.041L51.4137 278.099C51.8363 277.638 52.1843 277.237 52.4577 276.896C52.7312 276.551 52.9336 276.228 53.065 275.926C53.1999 275.621 53.2674 275.301 53.2674 274.967C53.2674 274.584 53.1751 274.252 52.9904 273.971C52.8093 273.691 52.5607 273.474 52.2447 273.321C51.9286 273.169 51.5735 273.092 51.1793 273.092C50.7603 273.092 50.3945 273.179 50.082 273.353C49.7731 273.524 49.5334 273.763 49.3629 274.072C49.196 274.381 49.1126 274.744 49.1126 275.159H47.8555C47.8555 274.52 48.0028 273.959 48.2976 273.476C48.5923 272.993 48.9936 272.616 49.5014 272.347C50.0128 272.077 50.5863 271.942 51.2219 271.942C51.8612 271.942 52.4276 272.077 52.9212 272.347C53.4148 272.616 53.8018 272.98 54.0824 273.439C54.3629 273.897 54.5032 274.406 54.5032 274.967C54.5032 275.369 54.4304 275.761 54.2848 276.145C54.1428 276.525 53.8942 276.949 53.5391 277.418C53.1875 277.883 52.6992 278.451 52.0742 279.122L49.6239 281.743V281.828H54.695V283H47.8129ZM60.581 283.149C59.8778 283.149 59.2511 283.028 58.7006 282.787C58.1538 282.545 57.7188 282.21 57.3956 281.78C57.076 281.347 56.902 280.844 56.8736 280.273H58.2159C58.2443 280.624 58.3651 280.928 58.5781 281.184C58.7912 281.436 59.07 281.631 59.4144 281.77C59.7589 281.908 60.1406 281.977 60.5597 281.977C61.0284 281.977 61.4439 281.896 61.8061 281.732C62.1683 281.569 62.4524 281.342 62.6584 281.05C62.8643 280.759 62.9673 280.422 62.9673 280.038C62.9673 279.637 62.8679 279.284 62.669 278.978C62.4702 278.669 62.179 278.428 61.7955 278.254C61.4119 278.08 60.9432 277.993 60.3892 277.993H59.5156V276.821H60.3892C60.8224 276.821 61.2024 276.743 61.5291 276.587C61.8594 276.43 62.1168 276.21 62.3015 275.926C62.4897 275.642 62.5838 275.308 62.5838 274.925C62.5838 274.555 62.5021 274.234 62.3388 273.961C62.1754 273.687 61.9446 273.474 61.6463 273.321C61.3516 273.169 61.0036 273.092 60.6023 273.092C60.2259 273.092 59.8707 273.162 59.5369 273.3C59.2067 273.435 58.9368 273.632 58.7273 273.891C58.5178 274.147 58.4041 274.456 58.3864 274.818H57.108C57.1293 274.246 57.3015 273.746 57.6246 273.316C57.9478 272.883 58.3704 272.545 58.8924 272.304C59.418 272.062 59.995 271.942 60.6236 271.942C61.2983 271.942 61.8771 272.078 62.3601 272.352C62.843 272.622 63.2141 272.979 63.4734 273.423C63.7326 273.866 63.8622 274.346 63.8622 274.861C63.8622 275.475 63.7006 275.999 63.3775 276.432C63.0579 276.865 62.6229 277.165 62.0724 277.332V277.418C62.7614 277.531 63.2994 277.824 63.6864 278.297C64.0735 278.765 64.267 279.346 64.267 280.038C64.267 280.631 64.1055 281.164 63.7823 281.636C63.4627 282.105 63.0259 282.474 62.4719 282.744C61.918 283.014 61.2876 283.149 60.581 283.149Z" fill="#2E263D" fill-opacity="0.9"/>
<path d="M87.8934 283V282.041L91.4943 278.099C91.9169 277.638 92.2649 277.237 92.5383 276.896C92.8117 276.551 93.0142 276.228 93.1456 275.926C93.2805 275.621 93.348 275.301 93.348 274.967C93.348 274.584 93.2556 274.252 93.071 273.971C92.8899 273.691 92.6413 273.474 92.3252 273.321C92.0092 273.169 91.6541 273.092 91.2599 273.092C90.8409 273.092 90.4751 273.179 90.1626 273.353C89.8536 273.524 89.6139 273.763 89.4435 274.072C89.2766 274.381 89.1931 274.744 89.1931 275.159H87.936C87.936 274.52 88.0834 273.959 88.3782 273.476C88.6729 272.993 89.0742 272.616 89.582 272.347C90.0934 272.077 90.6669 271.942 91.3025 271.942C91.9417 271.942 92.5081 272.077 93.0017 272.347C93.4953 272.616 93.8824 272.98 94.163 273.439C94.4435 273.897 94.5838 274.406 94.5838 274.967C94.5838 275.369 94.511 275.761 94.3654 276.145C94.2233 276.525 93.9747 276.949 93.6196 277.418C93.2681 277.883 92.7798 278.451 92.1548 279.122L89.7045 281.743V281.828H94.7755V283H87.8934ZM96.4854 280.763V279.676L101.279 272.091H102.068V273.774H101.535L97.913 279.506V279.591H104.369V280.763H96.4854ZM101.62 283V280.433V279.926V272.091H102.877V283H101.62Z" fill="#2E263D" fill-opacity="0.9"/>
<path d="M128.025 283V282.041L131.626 278.099C132.049 277.638 132.397 277.237 132.67 276.896C132.944 276.551 133.146 276.228 133.277 275.926C133.412 275.621 133.48 275.301 133.48 274.967C133.48 274.584 133.387 274.252 133.203 273.971C133.022 273.691 132.773 273.474 132.457 273.321C132.141 273.169 131.786 273.092 131.392 273.092C130.973 273.092 130.607 273.179 130.294 273.353C129.985 273.524 129.746 273.763 129.575 274.072C129.408 274.381 129.325 274.744 129.325 275.159H128.068C128.068 274.52 128.215 273.959 128.51 273.476C128.805 272.993 129.206 272.616 129.714 272.347C130.225 272.077 130.799 271.942 131.434 271.942C132.074 271.942 132.64 272.077 133.134 272.347C133.627 272.616 134.014 272.98 134.295 273.439C134.575 273.897 134.716 274.406 134.716 274.967C134.716 275.369 134.643 275.761 134.497 276.145C134.355 276.525 134.107 276.949 133.751 277.418C133.4 277.883 132.912 278.451 132.287 279.122L129.836 281.743V281.828H134.907V283H128.025ZM140.516 283.149C139.891 283.149 139.329 283.025 138.828 282.776C138.327 282.528 137.926 282.187 137.624 281.754C137.322 281.32 137.157 280.827 137.129 280.273H138.407C138.457 280.766 138.68 281.175 139.078 281.498C139.479 281.817 139.959 281.977 140.516 281.977C140.964 281.977 141.362 281.873 141.71 281.663C142.061 281.453 142.336 281.166 142.535 280.8C142.738 280.431 142.839 280.013 142.839 279.548C142.839 279.072 142.734 278.648 142.525 278.275C142.319 277.899 142.034 277.602 141.672 277.386C141.31 277.169 140.896 277.059 140.431 277.055C140.097 277.052 139.755 277.103 139.403 277.21C139.052 277.313 138.762 277.446 138.535 277.609L137.299 277.46L137.96 272.091H143.627V273.263H139.068L138.684 276.48H138.748C138.972 276.303 139.252 276.155 139.59 276.038C139.927 275.921 140.278 275.862 140.644 275.862C141.312 275.862 141.907 276.022 142.429 276.342C142.954 276.658 143.366 277.091 143.664 277.641C143.966 278.192 144.117 278.82 144.117 279.527C144.117 280.223 143.961 280.844 143.648 281.391C143.34 281.935 142.913 282.364 142.37 282.68C141.827 282.993 141.209 283.149 140.516 283.149Z" fill="#2E263D" fill-opacity="0.9"/>
<path d="M167.908 283V282.041L171.509 278.099C171.932 277.638 172.28 277.237 172.553 276.896C172.826 276.551 173.029 276.228 173.16 275.926C173.295 275.621 173.363 275.301 173.363 274.967C173.363 274.584 173.27 274.252 173.086 273.971C172.905 273.691 172.656 273.474 172.34 273.321C172.024 273.169 171.669 273.092 171.275 273.092C170.856 273.092 170.49 273.179 170.177 273.353C169.868 273.524 169.629 273.763 169.458 274.072C169.291 274.381 169.208 274.744 169.208 275.159H167.951C167.951 274.52 168.098 273.959 168.393 273.476C168.688 272.993 169.089 272.616 169.597 272.347C170.108 272.077 170.682 271.942 171.317 271.942C171.956 271.942 172.523 272.077 173.016 272.347C173.51 272.616 173.897 272.98 174.178 273.439C174.458 273.897 174.598 274.406 174.598 274.967C174.598 275.369 174.526 275.761 174.38 276.145C174.238 276.525 173.989 276.949 173.634 277.418C173.283 277.883 172.794 278.451 172.169 279.122L169.719 281.743V281.828H174.79V283H167.908ZM180.612 283.149C180.165 283.142 179.717 283.057 179.27 282.893C178.822 282.73 178.414 282.455 178.045 282.068C177.675 281.677 177.379 281.15 177.155 280.486C176.932 279.818 176.82 278.98 176.82 277.972C176.82 277.006 176.91 276.15 177.091 275.404C177.272 274.655 177.535 274.025 177.88 273.513C178.224 272.998 178.64 272.608 179.126 272.341C179.616 272.075 180.168 271.942 180.783 271.942C181.394 271.942 181.937 272.064 182.413 272.309C182.892 272.551 183.283 272.888 183.585 273.321C183.886 273.755 184.082 274.254 184.17 274.818H182.871C182.75 274.328 182.516 273.922 182.168 273.598C181.82 273.275 181.358 273.114 180.783 273.114C179.938 273.114 179.272 273.481 178.785 274.216C178.302 274.951 178.059 275.983 178.055 277.311H178.141C178.34 277.009 178.576 276.752 178.849 276.539C179.126 276.322 179.432 276.155 179.765 276.038C180.099 275.921 180.452 275.862 180.825 275.862C181.45 275.862 182.022 276.018 182.541 276.331C183.059 276.64 183.474 277.068 183.787 277.615C184.099 278.158 184.256 278.781 184.256 279.484C184.256 280.159 184.105 280.777 183.803 281.338C183.501 281.896 183.077 282.339 182.53 282.67C181.987 282.996 181.347 283.156 180.612 283.149ZM180.612 281.977C181.06 281.977 181.461 281.865 181.816 281.642C182.175 281.418 182.457 281.118 182.663 280.741C182.873 280.365 182.977 279.946 182.977 279.484C182.977 279.033 182.876 278.623 182.674 278.254C182.475 277.881 182.2 277.585 181.848 277.364C181.5 277.144 181.102 277.034 180.655 277.034C180.318 277.034 180.003 277.102 179.712 277.237C179.421 277.368 179.165 277.549 178.945 277.78C178.728 278.011 178.558 278.275 178.434 278.574C178.309 278.868 178.247 279.179 178.247 279.506C178.247 279.939 178.348 280.344 178.551 280.72C178.757 281.097 179.037 281.4 179.392 281.631C179.751 281.862 180.158 281.977 180.612 281.977Z" fill="#2E263D" fill-opacity="0.9"/>
<path d="M208.304 283V282.041L211.904 278.099C212.327 277.638 212.675 277.237 212.948 276.896C213.222 276.551 213.424 276.228 213.556 275.926C213.691 275.621 213.758 275.301 213.758 274.967C213.758 274.584 213.666 274.252 213.481 273.971C213.3 273.691 213.051 273.474 212.735 273.321C212.419 273.169 212.064 273.092 211.67 273.092C211.251 273.092 210.885 273.179 210.573 273.353C210.264 273.524 210.024 273.763 209.854 274.072C209.687 274.381 209.603 274.744 209.603 275.159H208.346C208.346 274.52 208.494 273.959 208.788 273.476C209.083 272.993 209.484 272.616 209.992 272.347C210.504 272.077 211.077 271.942 211.713 271.942C212.352 271.942 212.918 272.077 213.412 272.347C213.905 272.616 214.293 272.98 214.573 273.439C214.854 273.897 214.994 274.406 214.994 274.967C214.994 275.369 214.921 275.761 214.776 276.145C214.633 276.525 214.385 276.949 214.03 277.418C213.678 277.883 213.19 278.451 212.565 279.122L210.115 281.743V281.828H215.186V283H208.304ZM217.727 283L222.606 273.348V273.263H216.981V272.091H223.969V273.327L219.111 283H217.727Z" fill="#2E263D" fill-opacity="0.9"/>
<path d="M247.967 283V282.041L251.568 278.099C251.99 277.638 252.338 277.237 252.612 276.896C252.885 276.551 253.087 276.228 253.219 275.926C253.354 275.621 253.421 275.301 253.421 274.967C253.421 274.584 253.329 274.252 253.144 273.971C252.963 273.691 252.715 273.474 252.398 273.321C252.082 273.169 251.727 273.092 251.333 273.092C250.914 273.092 250.548 273.179 250.236 273.353C249.927 273.524 249.687 273.763 249.517 274.072C249.35 274.381 249.266 274.744 249.266 275.159H248.009C248.009 274.52 248.157 273.959 248.451 273.476C248.746 272.993 249.147 272.616 249.655 272.347C250.167 272.077 250.74 271.942 251.376 271.942C252.015 271.942 252.581 272.077 253.075 272.347C253.569 272.616 253.956 272.98 254.236 273.439C254.517 273.897 254.657 274.406 254.657 274.967C254.657 275.369 254.584 275.761 254.439 276.145C254.297 276.525 254.048 276.949 253.693 277.418C253.341 277.883 252.853 278.451 252.228 279.122L249.778 281.743V281.828H254.849V283H247.967ZM260.543 283.149C259.811 283.149 259.165 283.02 258.604 282.76C258.047 282.498 257.612 282.137 257.299 281.679C256.987 281.217 256.832 280.692 256.836 280.102C256.832 279.641 256.923 279.214 257.107 278.824C257.292 278.43 257.544 278.101 257.864 277.838C258.187 277.572 258.547 277.403 258.945 277.332V277.268C258.423 277.134 258.008 276.841 257.699 276.39C257.39 275.935 257.237 275.418 257.24 274.839C257.237 274.286 257.377 273.79 257.661 273.353C257.945 272.917 258.336 272.572 258.833 272.32C259.334 272.068 259.904 271.942 260.543 271.942C261.175 271.942 261.74 272.068 262.237 272.32C262.734 272.572 263.125 272.917 263.409 273.353C263.696 273.79 263.842 274.286 263.846 274.839C263.842 275.418 263.684 275.935 263.371 276.39C263.063 276.841 262.652 277.134 262.141 277.268V277.332C262.535 277.403 262.89 277.572 263.206 277.838C263.522 278.101 263.775 278.43 263.963 278.824C264.151 279.214 264.247 279.641 264.25 280.102C264.247 280.692 264.087 281.217 263.771 281.679C263.458 282.137 263.023 282.498 262.466 282.76C261.912 283.02 261.271 283.149 260.543 283.149ZM260.543 281.977C261.037 281.977 261.463 281.897 261.821 281.738C262.18 281.578 262.457 281.352 262.652 281.061C262.848 280.77 262.947 280.429 262.951 280.038C262.947 279.626 262.841 279.262 262.631 278.946C262.422 278.63 262.136 278.382 261.773 278.201C261.415 278.02 261.005 277.929 260.543 277.929C260.078 277.929 259.662 278.02 259.297 278.201C258.934 278.382 258.648 278.63 258.439 278.946C258.233 279.262 258.132 279.626 258.135 280.038C258.132 280.429 258.226 280.77 258.418 281.061C258.613 281.352 258.892 281.578 259.254 281.738C259.616 281.897 260.046 281.977 260.543 281.977ZM260.543 276.8C260.934 276.8 261.28 276.722 261.582 276.565C261.887 276.409 262.127 276.191 262.301 275.91C262.475 275.63 262.564 275.301 262.567 274.925C262.564 274.555 262.477 274.234 262.306 273.961C262.136 273.684 261.9 273.471 261.598 273.321C261.296 273.169 260.944 273.092 260.543 273.092C260.135 273.092 259.778 273.169 259.472 273.321C259.167 273.471 258.931 273.684 258.764 273.961C258.597 274.234 258.515 274.555 258.519 274.925C258.515 275.301 258.599 275.63 258.769 275.91C258.943 276.191 259.183 276.409 259.488 276.565C259.794 276.722 260.145 276.8 260.543 276.8Z" fill="#2E263D" fill-opacity="0.9"/>
<path d="M287.908 283V282.041L291.509 278.099C291.932 277.638 292.28 277.237 292.553 276.896C292.826 276.551 293.029 276.228 293.16 275.926C293.295 275.621 293.363 275.301 293.363 274.967C293.363 274.584 293.27 274.252 293.086 273.971C292.905 273.691 292.656 273.474 292.34 273.321C292.024 273.169 291.669 273.092 291.275 273.092C290.856 273.092 290.49 273.179 290.177 273.353C289.868 273.524 289.629 273.763 289.458 274.072C289.291 274.381 289.208 274.744 289.208 275.159H287.951C287.951 274.52 288.098 273.959 288.393 273.476C288.688 272.993 289.089 272.616 289.597 272.347C290.108 272.077 290.682 271.942 291.317 271.942C291.956 271.942 292.523 272.077 293.016 272.347C293.51 272.616 293.897 272.98 294.178 273.439C294.458 273.897 294.598 274.406 294.598 274.967C294.598 275.369 294.526 275.761 294.38 276.145C294.238 276.525 293.989 276.949 293.634 277.418C293.283 277.883 292.794 278.451 292.169 279.122L289.719 281.743V281.828H294.79V283H287.908ZM300.463 271.942C300.911 271.945 301.358 272.031 301.805 272.197C302.253 272.364 302.661 272.641 303.031 273.028C303.4 273.412 303.696 273.936 303.92 274.6C304.144 275.264 304.256 276.097 304.256 277.098C304.256 278.067 304.163 278.929 303.979 279.681C303.798 280.431 303.535 281.063 303.19 281.578C302.849 282.093 302.434 282.483 301.944 282.75C301.457 283.016 300.907 283.149 300.293 283.149C299.682 283.149 299.137 283.028 298.657 282.787C298.182 282.542 297.791 282.203 297.485 281.77C297.184 281.333 296.99 280.827 296.905 280.251H298.205C298.322 280.752 298.554 281.166 298.902 281.493C299.254 281.816 299.717 281.977 300.293 281.977C301.134 281.977 301.798 281.61 302.285 280.875C302.775 280.14 303.02 279.101 303.02 277.759H302.935C302.736 278.057 302.5 278.314 302.226 278.531C301.953 278.748 301.649 278.914 301.315 279.032C300.982 279.149 300.626 279.207 300.25 279.207C299.625 279.207 299.052 279.053 298.53 278.744C298.011 278.431 297.596 278.004 297.283 277.46C296.974 276.913 296.82 276.288 296.82 275.585C296.82 274.918 296.969 274.307 297.267 273.753C297.569 273.195 297.992 272.751 298.535 272.421C299.082 272.091 299.724 271.931 300.463 271.942ZM300.463 273.114C300.016 273.114 299.613 273.225 299.254 273.449C298.899 273.669 298.617 273.968 298.407 274.344C298.201 274.717 298.098 275.131 298.098 275.585C298.098 276.04 298.197 276.453 298.396 276.826C298.599 277.196 298.874 277.49 299.222 277.711C299.574 277.927 299.973 278.036 300.42 278.036C300.758 278.036 301.072 277.97 301.363 277.838C301.655 277.703 301.908 277.521 302.125 277.29C302.345 277.055 302.517 276.791 302.642 276.496C302.766 276.198 302.828 275.887 302.828 275.564C302.828 275.138 302.725 274.738 302.519 274.365C302.317 273.993 302.036 273.691 301.678 273.46C301.322 273.229 300.918 273.114 300.463 273.114Z" fill="#2E263D" fill-opacity="0.9"/>
<path d="M51.3525 321.149C50.6493 321.149 50.0225 321.028 49.4721 320.787C48.9252 320.545 48.4902 320.21 48.1671 319.78C47.8475 319.347 47.6735 318.844 47.6451 318.273H48.9874C49.0158 318.624 49.1365 318.928 49.3496 319.184C49.5627 319.436 49.8414 319.631 50.1859 319.77C50.5304 319.908 50.9121 319.977 51.3311 319.977C51.7999 319.977 52.2154 319.896 52.5776 319.732C52.9398 319.569 53.2239 319.342 53.4299 319.05C53.6358 318.759 53.7388 318.422 53.7388 318.038C53.7388 317.637 53.6394 317.284 53.4405 316.978C53.2417 316.669 52.9505 316.428 52.5669 316.254C52.1834 316.08 51.7147 315.993 51.1607 315.993H50.2871V314.821H51.1607C51.5939 314.821 51.9739 314.743 52.3006 314.587C52.6309 314.43 52.8883 314.21 53.073 313.926C53.2612 313.642 53.3553 313.308 53.3553 312.925C53.3553 312.555 53.2736 312.234 53.1103 311.961C52.9469 311.687 52.7161 311.474 52.4178 311.321C52.123 311.169 51.775 311.092 51.3738 311.092C50.9973 311.092 50.6422 311.162 50.3084 311.3C49.9782 311.435 49.7083 311.632 49.4988 311.891C49.2892 312.147 49.1756 312.456 49.1578 312.818H47.8794C47.9007 312.246 48.073 311.746 48.3961 311.316C48.7193 310.883 49.1419 310.545 49.6639 310.304C50.1895 310.062 50.7665 309.942 51.3951 309.942C52.0698 309.942 52.6486 310.078 53.1316 310.352C53.6145 310.622 53.9856 310.979 54.2449 311.423C54.5041 311.866 54.6337 312.346 54.6337 312.861C54.6337 313.475 54.4721 313.999 54.149 314.432C53.8294 314.865 53.3944 315.165 52.8439 315.332V315.418C53.5328 315.531 54.0708 315.824 54.4579 316.297C54.845 316.765 55.0385 317.346 55.0385 318.038C55.0385 318.631 54.877 319.164 54.5538 319.636C54.2342 320.105 53.7974 320.474 53.2434 320.744C52.6895 321.014 52.0591 321.149 51.3525 321.149ZM60.7754 321.149C59.9728 321.149 59.2892 320.931 58.7246 320.494C58.16 320.054 57.7285 319.416 57.4302 318.582C57.1319 317.744 56.9828 316.732 56.9828 315.545C56.9828 314.366 57.1319 313.36 57.4302 312.525C57.7321 311.687 58.1653 311.048 58.7299 310.608C59.2981 310.164 59.9799 309.942 60.7754 309.942C61.5708 309.942 62.2509 310.164 62.8155 310.608C63.3837 311.048 63.8169 311.687 64.1152 312.525C64.4171 313.36 64.568 314.366 64.568 315.545C64.568 316.732 64.4189 317.744 64.1206 318.582C63.8223 319.416 63.3908 320.054 62.8262 320.494C62.2615 320.931 61.5779 321.149 60.7754 321.149ZM60.7754 319.977C61.5708 319.977 62.1887 319.594 62.6291 318.827C63.0694 318.06 63.2896 316.966 63.2896 315.545C63.2896 314.601 63.1884 313.797 62.986 313.132C62.7871 312.468 62.4995 311.962 62.123 311.614C61.7502 311.266 61.301 311.092 60.7754 311.092C59.987 311.092 59.3709 311.481 58.927 312.259C58.4831 313.033 58.2612 314.129 58.2612 315.545C58.2612 316.49 58.3606 317.293 58.5595 317.953C58.7583 318.614 59.0442 319.116 59.4171 319.461C59.7935 319.805 60.2463 319.977 60.7754 319.977Z" fill="#2E263D" fill-opacity="0.9"/>
<path d="M92.5536 321.149C91.8505 321.149 91.2237 321.028 90.6733 320.787C90.1264 320.545 89.6914 320.21 89.3683 319.78C89.0487 319.347 88.8746 318.844 88.8462 318.273H90.1886C90.217 318.624 90.3377 318.928 90.5508 319.184C90.7638 319.436 91.0426 319.631 91.3871 319.77C91.7315 319.908 92.1133 319.977 92.5323 319.977C93.0011 319.977 93.4165 319.896 93.7788 319.732C94.141 319.569 94.4251 319.342 94.631 319.05C94.837 318.759 94.94 318.422 94.94 318.038C94.94 317.637 94.8406 317.284 94.6417 316.978C94.4428 316.669 94.1516 316.428 93.7681 316.254C93.3846 316.08 92.9158 315.993 92.3619 315.993H91.4883V314.821H92.3619C92.7951 314.821 93.1751 314.743 93.5018 314.587C93.832 314.43 94.0895 314.21 94.2741 313.926C94.4624 313.642 94.5565 313.308 94.5565 312.925C94.5565 312.555 94.4748 312.234 94.3114 311.961C94.1481 311.687 93.9173 311.474 93.619 311.321C93.3242 311.169 92.9762 311.092 92.5749 311.092C92.1985 311.092 91.8434 311.162 91.5096 311.3C91.1793 311.435 90.9094 311.632 90.6999 311.891C90.4904 312.147 90.3768 312.456 90.359 312.818H89.0806C89.1019 312.246 89.2741 311.746 89.5973 311.316C89.9205 310.883 90.343 310.545 90.8651 310.304C91.3906 310.062 91.9677 309.942 92.5962 309.942C93.271 309.942 93.8498 310.078 94.3327 310.352C94.8157 310.622 95.1868 310.979 95.446 311.423C95.7053 311.866 95.8349 312.346 95.8349 312.861C95.8349 313.475 95.6733 313.999 95.3501 314.432C95.0305 314.865 94.5955 315.165 94.0451 315.332V315.418C94.734 315.531 95.272 315.824 95.6591 316.297C96.0462 316.765 96.2397 317.346 96.2397 318.038C96.2397 318.631 96.0781 319.164 95.755 319.636C95.4354 320.105 94.9986 320.474 94.4446 320.744C93.8906 321.014 93.2603 321.149 92.5536 321.149ZM102.254 310.091V321H100.933V311.476H100.869L98.2053 313.244V311.902L100.933 310.091H102.254Z" fill="#2E263D" fill-opacity="0.9"/>
</g>
</g>
<defs>
<filter id="filter0_d_8003_2805" x="0" y="0" width="352" height="370" filterUnits="userSpaceOnUse" color-interpolation-filters="sRGB">
<feFlood flood-opacity="0" result="BackgroundImageFix"/>
<feColorMatrix in="SourceAlpha" type="matrix" values="0 0 0 0 0 0 0 0 0 0 0 0 0 0 0 0 0 0 127 0" result="hardAlpha"/>
<feOffset dy="6"/>
<feGaussianBlur stdDeviation="8"/>
<feComposite in2="hardAlpha" operator="out"/>
<feColorMatrix type="matrix" values="0 0 0 0 0.180392 0 0 0 0 0.14902 0 0 0 0 0.239216 0 0 0 0.22 0"/>
<feBlend mode="normal" in2="BackgroundImageFix" result="effect1_dropShadow_8003_2805"/>
<feBlend mode="normal" in="SourceGraphic" in2="effect1_dropShadow_8003_2805" result="shape"/>
</filter>
<filter id="filter1_d_8003_2805" x="114" y="182" width="44" height="44" filterUnits="userSpaceOnUse" color-interpolation-filters="sRGB">
<feFlood flood-opacity="0" result="BackgroundImageFix"/>
<feColorMatrix in="SourceAlpha" type="matrix" values="0 0 0 0 0 0 0 0 0 0 0 0 0 0 0 0 0 0 127 0" result="hardAlpha"/>
<feOffset dy="2"/>
<feGaussianBlur stdDeviation="2"/>
<feColorMatrix type="matrix" values="0 0 0 0 0.180392 0 0 0 0 0.14902 0 0 0 0 0.239216 0 0 0 0.16 0"/>
<feBlend mode="normal" in2="BackgroundImageFix" result="effect1_dropShadow_8003_2805"/>
<feBlend mode="normal" in="SourceGraphic" in2="effect1_dropShadow_8003_2805" result="shape"/>
</filter>
<clipPath id="clip0_8003_2805">
<path d="M16 16C16 12.6863 18.6863 10 22 10H330C333.314 10 336 12.6863 336 16V342C336 345.314 333.314 348 330 348H22C18.6863 348 16 345.314 16 342V16Z" fill="white"/>
</clipPath>
</defs>
</svg>
