<svg width="90" height="46" viewBox="0 0 90 46" fill="none" xmlns="http://www.w3.org/2000/svg">
<g filter="url(#filter0_d_8003_3102)">
<path d="M4 8C4 4.68629 6.68629 2 10 2H80C83.3137 2 86 4.68629 86 8V34C86 37.3137 83.3137 40 80 40H10C6.68629 40 4 37.3137 4 34V8Z" fill="#8C57FF"/>
<path d="M26.8373 16.5078V15.0909H35.2801V16.5078H31.8763V26H30.2357V16.5078H26.8373ZM38.2857 26.1811C37.7672 26.1811 37.2985 26.0852 36.8794 25.8935C36.4604 25.6982 36.1284 25.4158 35.8833 25.0465C35.6419 24.6772 35.5211 24.2244 35.5211 23.6882C35.5211 23.2266 35.6099 22.8466 35.7875 22.5483C35.965 22.25 36.2047 22.0138 36.5066 21.8398C36.8084 21.6658 37.1458 21.5344 37.5186 21.4457C37.8915 21.3569 38.2715 21.2894 38.6586 21.2433C39.1486 21.1864 39.5463 21.1403 39.8517 21.1048C40.1571 21.0657 40.3791 21.0036 40.5176 20.9183C40.6561 20.8331 40.7253 20.6946 40.7253 20.5028V20.4656C40.7253 20.0004 40.5939 19.6399 40.3311 19.3842C40.0719 19.1286 39.6848 19.0007 39.1699 19.0007C38.6337 19.0007 38.2111 19.1197 37.9022 19.3576C37.5968 19.592 37.3855 19.853 37.2683 20.1406L35.7715 19.7997C35.949 19.3026 36.2083 18.9013 36.5492 18.5959C36.8936 18.2869 37.2896 18.0632 37.737 17.9247C38.1845 17.7827 38.655 17.7116 39.1486 17.7116C39.4753 17.7116 39.8216 17.7507 40.1873 17.8288C40.5566 17.9034 40.9011 18.0419 41.2207 18.2443C41.5439 18.4467 41.8084 18.7362 42.0144 19.1126C42.2203 19.4854 42.3233 19.9702 42.3233 20.5668V26H40.7679V24.8814H40.704C40.601 25.0874 40.4466 25.2898 40.2406 25.4886C40.0346 25.6875 39.7701 25.8526 39.4469 25.984C39.1238 26.1154 38.7367 26.1811 38.2857 26.1811ZM38.6319 24.9027C39.0723 24.9027 39.4487 24.8157 39.7612 24.6417C40.0772 24.4677 40.3169 24.2404 40.4803 23.9599C40.6472 23.6758 40.7306 23.3722 40.7306 23.049V21.9943C40.6738 22.0511 40.5637 22.1044 40.4004 22.1541C40.2406 22.2003 40.0577 22.2411 39.8517 22.2766C39.6458 22.3086 39.4451 22.3388 39.2498 22.3672C39.0545 22.392 38.8912 22.4134 38.7598 22.4311C38.4508 22.4702 38.1685 22.5359 37.9128 22.6282C37.6607 22.7205 37.4583 22.8537 37.3056 23.0277C37.1564 23.1982 37.0819 23.4254 37.0819 23.7095C37.0819 24.1037 37.2275 24.402 37.5186 24.6044C37.8098 24.8033 38.1809 24.9027 38.6319 24.9027ZM44.5725 26V15.0909H46.1652V19.1445H46.2611C46.3534 18.9741 46.4866 18.777 46.6606 18.5533C46.8346 18.3295 47.0761 18.1342 47.385 17.9673C47.694 17.7969 48.1024 17.7116 48.6102 17.7116C49.2707 17.7116 49.8602 17.8786 50.3786 18.2124C50.8971 18.5462 51.3037 19.0273 51.5985 19.6559C51.8968 20.2844 52.0459 21.0408 52.0459 21.9251C52.0459 22.8093 51.8985 23.5675 51.6038 24.1996C51.309 24.8281 50.9042 25.3129 50.3893 25.6538C49.8744 25.9911 49.2867 26.1598 48.6262 26.1598C48.129 26.1598 47.7224 26.0763 47.4063 25.9094C47.0938 25.7425 46.8488 25.5472 46.6713 25.3235C46.4937 25.0998 46.357 24.9009 46.2611 24.7269H46.1279V26H44.5725ZM46.1333 21.9091C46.1333 22.4844 46.2167 22.9886 46.3836 23.4219C46.5505 23.8551 46.792 24.1942 47.108 24.4393C47.4241 24.6808 47.8112 24.8015 48.2693 24.8015C48.7451 24.8015 49.1428 24.6754 49.4624 24.4233C49.782 24.1676 50.0235 23.8214 50.1869 23.3846C50.3538 22.9478 50.4372 22.456 50.4372 21.9091C50.4372 21.3693 50.3556 20.8846 50.1922 20.4549C50.0324 20.0252 49.7909 19.6861 49.4678 19.4375C49.1482 19.1889 48.7487 19.0646 48.2693 19.0646C47.8076 19.0646 47.417 19.1836 47.0974 19.4215C46.7813 19.6594 46.5416 19.9915 46.3783 20.4176C46.2149 20.8437 46.1333 21.3409 46.1333 21.9091ZM61.9216 15.0909V26H60.2703V16.7422H60.2064L57.5963 18.4467V16.87L60.3183 15.0909H61.9216Z" fill="white"/>
</g>
<defs>
<filter id="filter0_d_8003_3102" x="0" y="0" width="90" height="46" filterUnits="userSpaceOnUse" color-interpolation-filters="sRGB">
<feFlood flood-opacity="0" result="BackgroundImageFix"/>
<feColorMatrix in="SourceAlpha" type="matrix" values="0 0 0 0 0 0 0 0 0 0 0 0 0 0 0 0 0 0 127 0" result="hardAlpha"/>
<feOffset dy="2"/>
<feGaussianBlur stdDeviation="2"/>
<feColorMatrix type="matrix" values="0 0 0 0 0.180392 0 0 0 0 0.14902 0 0 0 0 0.239216 0 0 0 0.16 0"/>
<feBlend mode="normal" in2="BackgroundImageFix" result="effect1_dropShadow_8003_3102"/>
<feBlend mode="normal" in="SourceGraphic" in2="effect1_dropShadow_8003_3102" result="shape"/>
</filter>
</defs>
</svg>
