<svg width="266" height="91" viewBox="0 0 266 91" fill="none" xmlns="http://www.w3.org/2000/svg">
<path d="M0.5 6.5C0.5 3.18629 3.18629 0.5 6.5 0.5H259.5C262.814 0.5 265.5 3.18629 265.5 6.5V84.5C265.5 87.8137 262.814 90.5 259.5 90.5H6.50001C3.1863 90.5 0.5 87.8137 0.5 84.5V6.5Z" stroke="#2E263D" stroke-opacity="0.12" stroke-linejoin="bevel"/>
<g filter="url(#filter0_d_8003_4498)">
<path d="M20.5 31.5C20.5 28.1863 23.1863 25.5 26.5 25.5H54.5C57.8137 25.5 60.5 28.1863 60.5 31.5V59.5C60.5 62.8137 57.8137 65.5 54.5 65.5H26.5C23.1863 65.5 20.5 62.8137 20.5 59.5V31.5Z" fill="white"/>
<path d="M30.5 55.5C30.5 53.3783 31.3429 51.3434 32.8431 49.8431C34.3434 48.3429 36.3783 47.5 38.5 47.5C40.6217 47.5 42.6566 48.3429 44.1569 49.8431C45.6571 51.3434 46.5 53.3783 46.5 55.5H44.5C44.5 53.9087 43.8679 52.3826 42.7426 51.2574C41.6174 50.1321 40.0913 49.5 38.5 49.5C36.9087 49.5 35.3826 50.1321 34.2574 51.2574C33.1321 52.3826 32.5 53.9087 32.5 55.5H30.5ZM38.5 46.5C35.185 46.5 32.5 43.815 32.5 40.5C32.5 37.185 35.185 34.5 38.5 34.5C41.815 34.5 44.5 37.185 44.5 40.5C44.5 43.815 41.815 46.5 38.5 46.5ZM38.5 44.5C40.71 44.5 42.5 42.71 42.5 40.5C42.5 38.29 40.71 36.5 38.5 36.5C36.29 36.5 34.5 38.29 34.5 40.5C34.5 42.71 36.29 44.5 38.5 44.5ZM46.784 48.203C48.1893 48.8359 49.382 49.8612 50.2186 51.1557C51.0552 52.4502 51.5002 53.9587 51.5 55.5H49.5C49.5002 54.344 49.1666 53.2125 48.5391 52.2416C47.9116 51.2707 47.0171 50.5017 45.963 50.027L46.783 48.203H46.784ZM46.096 36.913C47.1035 37.3283 47.965 38.0335 48.571 38.9392C49.1771 39.8449 49.5004 40.9102 49.5 42C49.5004 43.3723 48.9877 44.6952 48.0625 45.7088C47.1374 46.7224 45.8667 47.3535 44.5 47.478V45.465C45.2409 45.3589 45.9283 45.018 46.4613 44.4925C46.9943 43.9669 47.3447 43.2843 47.4612 42.5449C47.5776 41.8055 47.454 41.0483 47.1084 40.3844C46.7628 39.7204 46.2134 39.1847 45.541 38.856L46.096 36.913V36.913Z" fill="#8C57FF"/>
</g>
<path d="M86.4716 25.5909V36.5H85.1932L79.2486 27.9347H79.142V36.5H77.821V25.5909H79.0994L85.0653 34.1776H85.1719V25.5909H86.4716ZM92.3749 36.6705C91.5866 36.6705 90.9065 36.4964 90.3348 36.1484C89.7666 35.7969 89.328 35.3068 89.0191 34.6783C88.7137 34.0462 88.561 33.3111 88.561 32.473C88.561 31.6349 88.7137 30.8963 89.0191 30.2571C89.328 29.6143 89.7577 29.1136 90.3081 28.755C90.8621 28.3928 91.5084 28.2116 92.2471 28.2116C92.6732 28.2116 93.094 28.2827 93.5095 28.4247C93.925 28.5668 94.3032 28.7976 94.6441 29.1172C94.985 29.4332 95.2567 29.8523 95.4591 30.3743C95.6615 30.8963 95.7627 31.5391 95.7627 32.3026V32.8352H89.4559V31.7486H94.4843C94.4843 31.2869 94.392 30.875 94.2073 30.5128C94.0262 30.1506 93.767 29.8647 93.4296 29.6552C93.0958 29.4457 92.7016 29.3409 92.2471 29.3409C91.7464 29.3409 91.3131 29.4652 90.9474 29.7138C90.5851 29.9588 90.3064 30.2784 90.1111 30.6726C89.9157 31.0668 89.8181 31.4893 89.8181 31.9403V32.6648C89.8181 33.2827 89.9246 33.8065 90.1377 34.2362C90.3543 34.6623 90.6544 34.9872 91.0379 35.2109C91.4214 35.4311 91.8671 35.5412 92.3749 35.5412C92.7052 35.5412 93.0035 35.495 93.2698 35.4027C93.5397 35.3068 93.7723 35.1648 93.9676 34.9766C94.1629 34.7848 94.3138 34.5469 94.4204 34.2628L95.6349 34.6037C95.507 35.0156 95.2922 35.3778 94.9903 35.6903C94.6885 35.9993 94.3156 36.2408 93.8717 36.4148C93.4278 36.5852 92.9289 36.6705 92.3749 36.6705ZM99.5287 36.5L97.0358 28.3182H98.3568L100.125 34.5824H100.21L101.958 28.3182H103.3L105.026 34.5611H105.111L106.88 28.3182H108.201L105.708 36.5H104.472L102.682 30.2145H102.554L100.764 36.5H99.5287ZM123.03 29H121.709C121.631 28.62 121.494 28.2862 121.299 27.9986C121.107 27.7109 120.873 27.4695 120.596 27.2741C120.322 27.0753 120.019 26.9261 119.685 26.8267C119.351 26.7273 119.003 26.6776 118.641 26.6776C117.98 26.6776 117.382 26.8445 116.846 27.1783C116.313 27.5121 115.889 28.0039 115.573 28.6538C115.26 29.3036 115.104 30.1009 115.104 31.0455C115.104 31.9901 115.26 32.7873 115.573 33.4371C115.889 34.087 116.313 34.5788 116.846 34.9126C117.382 35.2464 117.98 35.4134 118.641 35.4134C119.003 35.4134 119.351 35.3636 119.685 35.2642C120.019 35.1648 120.322 35.0174 120.596 34.8221C120.873 34.6232 121.107 34.38 121.299 34.0923C121.494 33.8011 121.631 33.4673 121.709 33.0909H123.03C122.931 33.6484 122.75 34.1474 122.487 34.5877C122.224 35.0281 121.897 35.4027 121.507 35.7116C121.116 36.017 120.677 36.2496 120.191 36.4094C119.708 36.5692 119.191 36.6491 118.641 36.6491C117.71 36.6491 116.883 36.4219 116.159 35.9673C115.434 35.5128 114.864 34.8665 114.449 34.0284C114.033 33.1903 113.826 32.196 113.826 31.0455C113.826 29.8949 114.033 28.9006 114.449 28.0625C114.864 27.2244 115.434 26.5781 116.159 26.1236C116.883 25.669 117.71 25.4418 118.641 25.4418C119.191 25.4418 119.708 25.5217 120.191 25.6815C120.677 25.8413 121.116 26.0756 121.507 26.3846C121.897 26.69 122.224 27.0629 122.487 27.5032C122.75 27.94 122.931 28.4389 123.03 29ZM130.151 33.1548V28.3182H131.408V36.5H130.151V35.1151H130.065C129.874 35.5305 129.575 35.8839 129.17 36.1751C128.766 36.4627 128.254 36.6065 127.636 36.6065C127.125 36.6065 126.67 36.4947 126.273 36.271C125.875 36.0437 125.563 35.7028 125.335 35.2482C125.108 34.7901 124.994 34.2131 124.994 33.517V28.3182H126.251V33.4318C126.251 34.0284 126.418 34.5043 126.752 34.8594C127.089 35.2145 127.519 35.392 128.041 35.392C128.354 35.392 128.672 35.3121 128.995 35.1523C129.321 34.9925 129.595 34.7475 129.815 34.4173C130.039 34.087 130.151 33.6662 130.151 33.1548ZM139.506 30.1506L138.376 30.4702C138.305 30.282 138.201 30.0991 138.062 29.9215C137.927 29.7404 137.742 29.5913 137.508 29.4741C137.274 29.3569 136.974 29.2983 136.608 29.2983C136.107 29.2983 135.69 29.4137 135.356 29.6445C135.026 29.8718 134.861 30.1612 134.861 30.5128C134.861 30.8253 134.974 31.0721 135.202 31.2532C135.429 31.4343 135.784 31.5852 136.267 31.706L137.481 32.0043C138.213 32.1818 138.758 32.4535 139.117 32.8192C139.475 33.1815 139.655 33.6484 139.655 34.2202C139.655 34.6889 139.52 35.108 139.25 35.4773C138.984 35.8466 138.611 36.1378 138.131 36.3509C137.652 36.5639 137.094 36.6705 136.459 36.6705C135.624 36.6705 134.934 36.4893 134.387 36.1271C133.84 35.7649 133.494 35.2358 133.348 34.5398L134.541 34.2415C134.655 34.6818 134.87 35.0121 135.186 35.2322C135.505 35.4524 135.922 35.5625 136.437 35.5625C137.023 35.5625 137.489 35.4382 137.833 35.1896C138.181 34.9375 138.355 34.6357 138.355 34.2841C138.355 34 138.256 33.7621 138.057 33.5703C137.858 33.375 137.552 33.2294 137.141 33.1335L135.777 32.8139C135.028 32.6364 134.477 32.3612 134.126 31.9883C133.778 31.6119 133.604 31.1413 133.604 30.5767C133.604 30.1151 133.733 29.7067 133.992 29.3516C134.255 28.9964 134.612 28.7177 135.063 28.5153C135.518 28.3129 136.033 28.2116 136.608 28.2116C137.418 28.2116 138.053 28.3892 138.515 28.7443C138.98 29.0994 139.31 29.5682 139.506 30.1506ZM145.105 28.3182V29.3835H140.865V28.3182H145.105ZM142.101 26.358H143.358V34.1562C143.358 34.5114 143.41 34.7777 143.513 34.9553C143.619 35.1293 143.754 35.2464 143.917 35.3068C144.084 35.3636 144.26 35.392 144.445 35.392C144.583 35.392 144.697 35.3849 144.786 35.3707C144.874 35.353 144.945 35.3388 144.999 35.3281L145.254 36.4574C145.169 36.4893 145.05 36.5213 144.898 36.5533C144.745 36.5888 144.551 36.6065 144.317 36.6065C143.962 36.6065 143.614 36.5302 143.273 36.3775C142.936 36.2248 142.655 35.9922 142.431 35.6797C142.211 35.3672 142.101 34.973 142.101 34.4972V26.358ZM150.232 36.6705C149.494 36.6705 148.846 36.4947 148.288 36.1431C147.734 35.7915 147.301 35.2997 146.988 34.6676C146.679 34.0355 146.525 33.2969 146.525 32.4517C146.525 31.5994 146.679 30.8555 146.988 30.2198C147.301 29.5842 147.734 29.0906 148.288 28.739C148.846 28.3874 149.494 28.2116 150.232 28.2116C150.971 28.2116 151.617 28.3874 152.171 28.739C152.729 29.0906 153.162 29.5842 153.471 30.2198C153.783 30.8555 153.94 31.5994 153.94 32.4517C153.94 33.2969 153.783 34.0355 153.471 34.6676C153.162 35.2997 152.729 35.7915 152.171 36.1431C151.617 36.4947 150.971 36.6705 150.232 36.6705ZM150.232 35.5412C150.793 35.5412 151.255 35.3974 151.617 35.1097C151.979 34.8221 152.248 34.4439 152.422 33.9751C152.596 33.5064 152.683 32.9986 152.683 32.4517C152.683 31.9048 152.596 31.3952 152.422 30.9229C152.248 30.4506 151.979 30.0689 151.617 29.7777C151.255 29.4865 150.793 29.3409 150.232 29.3409C149.671 29.3409 149.21 29.4865 148.847 29.7777C148.485 30.0689 148.217 30.4506 148.043 30.9229C147.869 31.3952 147.782 31.9048 147.782 32.4517C147.782 32.9986 147.869 33.5064 148.043 33.9751C148.217 34.4439 148.485 34.8221 148.847 35.1097C149.21 35.3974 149.671 35.5412 150.232 35.5412ZM155.859 36.5V28.3182H157.073V29.5966H157.18C157.35 29.1598 157.625 28.8207 158.005 28.5792C158.385 28.3342 158.842 28.2116 159.374 28.2116C159.914 28.2116 160.363 28.3342 160.722 28.5792C161.084 28.8207 161.366 29.1598 161.569 29.5966H161.654C161.864 29.174 162.178 28.8384 162.597 28.5898C163.016 28.3377 163.518 28.2116 164.104 28.2116C164.836 28.2116 165.434 28.4407 165.899 28.8988C166.365 29.3533 166.597 30.0618 166.597 31.0241V36.5H165.34V31.0241C165.34 30.4205 165.175 29.989 164.845 29.7298C164.514 29.4705 164.126 29.3409 163.678 29.3409C163.103 29.3409 162.657 29.5149 162.341 29.8629C162.025 30.2074 161.867 30.6442 161.867 31.1733V36.5H160.589V30.8963C160.589 30.4311 160.438 30.0565 160.136 29.7724C159.834 29.4847 159.445 29.3409 158.969 29.3409C158.643 29.3409 158.337 29.4279 158.053 29.6019C157.773 29.7759 157.545 30.0174 157.371 30.3263C157.201 30.6317 157.116 30.9851 157.116 31.3864V36.5H155.859ZM172.326 36.6705C171.538 36.6705 170.858 36.4964 170.286 36.1484C169.718 35.7969 169.279 35.3068 168.97 34.6783C168.665 34.0462 168.512 33.3111 168.512 32.473C168.512 31.6349 168.665 30.8963 168.97 30.2571C169.279 29.6143 169.709 29.1136 170.259 28.755C170.813 28.3928 171.46 28.2116 172.198 28.2116C172.624 28.2116 173.045 28.2827 173.461 28.4247C173.876 28.5668 174.254 28.7976 174.595 29.1172C174.936 29.4332 175.208 29.8523 175.41 30.3743C175.613 30.8963 175.714 31.5391 175.714 32.3026V32.8352H169.407V31.7486H174.435C174.435 31.2869 174.343 30.875 174.158 30.5128C173.977 30.1506 173.718 29.8647 173.381 29.6552C173.047 29.4457 172.653 29.3409 172.198 29.3409C171.698 29.3409 171.264 29.4652 170.899 29.7138C170.536 29.9588 170.258 30.2784 170.062 30.6726C169.867 31.0668 169.769 31.4893 169.769 31.9403V32.6648C169.769 33.2827 169.876 33.8065 170.089 34.2362C170.305 34.6623 170.606 34.9872 170.989 35.2109C171.373 35.4311 171.818 35.5412 172.326 35.5412C172.656 35.5412 172.955 35.495 173.221 35.4027C173.491 35.3068 173.723 35.1648 173.919 34.9766C174.114 34.7848 174.265 34.5469 174.372 34.2628L175.586 34.6037C175.458 35.0156 175.243 35.3778 174.941 35.6903C174.64 35.9993 174.267 36.2408 173.823 36.4148C173.379 36.5852 172.88 36.6705 172.326 36.6705ZM177.626 36.5V28.3182H178.841V29.554H178.926C179.075 29.1491 179.345 28.8207 179.736 28.5685C180.126 28.3164 180.566 28.1903 181.057 28.1903C181.149 28.1903 181.264 28.1921 181.403 28.1957C181.541 28.1992 181.646 28.2045 181.717 28.2116V29.4901C181.674 29.4794 181.577 29.4634 181.424 29.4421C181.275 29.4173 181.117 29.4048 180.95 29.4048C180.552 29.4048 180.197 29.4883 179.885 29.6552C179.576 29.8185 179.331 30.0458 179.15 30.337C178.972 30.6246 178.883 30.9531 178.883 31.3224V36.5H177.626ZM189.003 30.1506L187.873 30.4702C187.802 30.282 187.698 30.0991 187.559 29.9215C187.424 29.7404 187.24 29.5913 187.005 29.4741C186.771 29.3569 186.471 29.2983 186.105 29.2983C185.604 29.2983 185.187 29.4137 184.853 29.6445C184.523 29.8718 184.358 30.1612 184.358 30.5128C184.358 30.8253 184.471 31.0721 184.699 31.2532C184.926 31.4343 185.281 31.5852 185.764 31.706L186.979 32.0043C187.71 32.1818 188.255 32.4535 188.614 32.8192C188.972 33.1815 189.152 33.6484 189.152 34.2202C189.152 34.6889 189.017 35.108 188.747 35.4773C188.481 35.8466 188.108 36.1378 187.628 36.3509C187.149 36.5639 186.591 36.6705 185.956 36.6705C185.121 36.6705 184.431 36.4893 183.884 36.1271C183.337 35.7649 182.991 35.2358 182.845 34.5398L184.038 34.2415C184.152 34.6818 184.367 35.0121 184.683 35.2322C185.002 35.4524 185.42 35.5625 185.934 35.5625C186.52 35.5625 186.986 35.4382 187.33 35.1896C187.678 34.9375 187.852 34.6357 187.852 34.2841C187.852 34 187.753 33.7621 187.554 33.5703C187.355 33.375 187.05 33.2294 186.638 33.1335L185.274 32.8139C184.525 32.6364 183.974 32.3612 183.623 31.9883C183.275 31.6119 183.101 31.1413 183.101 30.5767C183.101 30.1151 183.23 29.7067 183.49 29.3516C183.752 28.9964 184.109 28.7177 184.56 28.5153C185.015 28.3129 185.53 28.2116 186.105 28.2116C186.915 28.2116 187.55 28.3892 188.012 28.7443C188.477 29.0994 188.807 29.5682 189.003 30.1506Z" fill="#2E263D" fill-opacity="0.7"/>
<path d="M77.7592 63.5V62.0682L82.1889 57.4787C82.6619 56.9801 83.0518 56.5433 83.3587 56.1683C83.6697 55.7891 83.902 55.429 84.0554 55.0881C84.2088 54.7472 84.2855 54.3849 84.2855 54.0014C84.2855 53.5668 84.1832 53.1918 83.9787 52.8764C83.7741 52.5568 83.495 52.3118 83.1413 52.1413C82.7876 51.9666 82.3892 51.8793 81.946 51.8793C81.4773 51.8793 81.0682 51.9751 80.7188 52.1669C80.3693 52.3587 80.1009 52.6293 79.9134 52.9787C79.7259 53.3281 79.6321 53.7372 79.6321 54.206H77.7464C77.7464 53.4091 77.9297 52.7124 78.2962 52.1158C78.6626 51.5192 79.1655 51.0568 79.8047 50.7287C80.4439 50.3963 81.1705 50.2301 81.9844 50.2301C82.8068 50.2301 83.5313 50.3942 84.1577 50.7223C84.7884 51.0462 85.2805 51.4893 85.6342 52.0518C85.9879 52.6101 86.1648 53.2408 86.1648 53.9439C86.1648 54.4297 86.0732 54.9048 85.8899 55.3693C85.7109 55.8338 85.3977 56.3516 84.9503 56.9226C84.5028 57.4893 83.8807 58.1776 83.0838 58.9872L80.4822 61.7102V61.8061H86.3757V63.5H77.7592ZM91.3104 61.7102L91.2145 62.407C91.1506 62.9183 91.0419 63.451 90.8885 64.005C90.7393 64.5632 90.5838 65.081 90.4219 65.5582C90.2642 66.0355 90.1342 66.4148 90.032 66.696H88.6768C88.7322 66.4318 88.8089 66.0739 88.907 65.6222C89.005 65.1747 89.1009 64.674 89.1946 64.12C89.2884 63.5661 89.3587 63.0014 89.4055 62.4261L89.4695 61.7102H91.3104ZM97.9677 63.679C97.0515 63.679 96.2418 63.5213 95.5387 63.206C94.8398 62.8906 94.2923 62.456 93.896 61.902C93.4996 61.348 93.3036 60.7173 93.3079 60.0099C93.3036 59.456 93.4165 58.9467 93.6467 58.4822C93.881 58.0135 94.1985 57.6236 94.5991 57.3125C94.9996 56.9972 95.4471 56.7969 95.9414 56.7116V56.6349C95.2894 56.4773 94.7674 56.1278 94.3754 55.5866C93.9833 55.0455 93.7894 54.4233 93.7937 53.7202C93.7894 53.0511 93.9663 52.4545 94.3242 51.9304C94.6864 51.402 95.1829 50.9865 95.8136 50.6839C96.4442 50.3814 97.1623 50.2301 97.9677 50.2301C98.7646 50.2301 99.4762 50.3835 100.103 50.6903C100.733 50.9929 101.23 51.4084 101.592 51.9368C101.954 52.4609 102.137 53.0554 102.142 53.7202C102.137 54.4233 101.937 55.0455 101.541 55.5866C101.145 56.1278 100.629 56.4773 99.994 56.6349V56.7116C100.484 56.7969 100.925 56.9972 101.317 57.3125C101.713 57.6236 102.029 58.0135 102.263 58.4822C102.502 58.9467 102.623 59.456 102.627 60.0099C102.623 60.7173 102.423 61.348 102.027 61.902C101.63 62.456 101.081 62.8906 100.377 63.206C99.6786 63.5213 98.8754 63.679 97.9677 63.679ZM97.9677 62.0618C98.5089 62.0618 98.9776 61.9723 99.3739 61.7933C99.7702 61.6101 100.077 61.3565 100.294 61.0327C100.512 60.7045 100.623 60.321 100.627 59.8821C100.623 59.4261 100.503 59.0234 100.269 58.674C100.039 58.3246 99.7255 58.0497 99.3292 57.8494C98.9329 57.6491 98.479 57.549 97.9677 57.549C97.4521 57.549 96.994 57.6491 96.5934 57.8494C96.1928 58.0497 95.8775 58.3246 95.6474 58.674C95.4173 59.0234 95.3043 59.4261 95.3086 59.8821C95.3043 60.321 95.4087 60.7045 95.6218 61.0327C95.8391 61.3565 96.1481 61.6101 96.5487 61.7933C96.9492 61.9723 97.4222 62.0618 97.9677 62.0618ZM97.9677 55.9702C98.4023 55.9702 98.788 55.8828 99.1246 55.7081C99.4613 55.5334 99.7255 55.2905 99.9173 54.9794C100.113 54.6683 100.213 54.304 100.218 53.8864C100.213 53.4773 100.115 53.1193 99.9237 52.8125C99.7362 52.5057 99.4741 52.2692 99.1374 52.103C98.8008 51.9325 98.4109 51.8473 97.9677 51.8473C97.516 51.8473 97.1197 51.9325 96.7788 52.103C96.4421 52.2692 96.18 52.5057 95.9925 52.8125C95.805 53.1193 95.7134 53.4773 95.7177 53.8864C95.7134 54.304 95.8072 54.6683 95.9989 54.9794C96.1907 55.2905 96.4549 55.5334 96.7915 55.7081C97.1325 55.8828 97.5245 55.9702 97.9677 55.9702ZM109.238 63.679C108.437 63.679 107.717 63.5256 107.078 63.2188C106.443 62.9077 105.936 62.4815 105.557 61.9403C105.177 61.3991 104.975 60.7812 104.949 60.0866H106.867C106.914 60.6491 107.163 61.1115 107.615 61.4737C108.067 61.8359 108.608 62.017 109.238 62.017C109.741 62.017 110.187 61.902 110.574 61.6719C110.966 61.4375 111.273 61.1158 111.495 60.7067C111.721 60.2976 111.834 59.831 111.834 59.3068C111.834 58.7741 111.719 58.299 111.488 57.8814C111.258 57.4638 110.941 57.1357 110.536 56.897C110.135 56.6584 109.675 56.5369 109.155 56.5327C108.759 56.5327 108.361 56.6009 107.96 56.7372C107.559 56.8736 107.236 57.0526 106.988 57.2741L105.18 57.0057L105.915 50.4091H113.112V52.103H107.557L107.142 55.7656H107.219C107.474 55.5185 107.813 55.3118 108.235 55.1456C108.661 54.9794 109.117 54.8963 109.603 54.8963C110.4 54.8963 111.109 55.0859 111.731 55.4652C112.358 55.8445 112.85 56.3622 113.208 57.0185C113.57 57.6705 113.749 58.4205 113.745 59.2685C113.749 60.1165 113.557 60.8729 113.17 61.5376C112.786 62.2024 112.253 62.7266 111.572 63.1101C110.894 63.4893 110.116 63.679 109.238 63.679ZM120.65 63.679C120.066 63.6705 119.491 63.5639 118.924 63.3594C118.362 63.1548 117.85 62.8139 117.39 62.3366C116.93 61.8594 116.561 61.218 116.284 60.4126C116.011 59.6072 115.875 58.6016 115.875 57.3956C115.875 56.2536 115.988 55.2393 116.214 54.353C116.444 53.4666 116.774 52.7188 117.205 52.1094C117.635 51.4957 118.155 51.0291 118.764 50.7095C119.374 50.3899 120.058 50.2301 120.816 50.2301C121.596 50.2301 122.288 50.3835 122.893 50.6903C123.499 50.9972 123.989 51.4212 124.364 51.9624C124.743 52.5036 124.984 53.1193 125.086 53.8097H123.136C123.004 53.2642 122.742 52.8189 122.35 52.4737C121.958 52.1286 121.447 51.956 120.816 51.956C119.857 51.956 119.109 52.3736 118.572 53.2088C118.04 54.044 117.771 55.2053 117.767 56.6925H117.863C118.089 56.3217 118.366 56.0064 118.694 55.7464C119.026 55.4822 119.397 55.2798 119.806 55.1392C120.219 54.9943 120.654 54.9219 121.11 54.9219C121.869 54.9219 122.555 55.1072 123.168 55.478C123.786 55.8445 124.278 56.3516 124.645 56.9993C125.011 57.647 125.195 58.3885 125.195 59.2237C125.195 60.0589 125.005 60.8153 124.626 61.4929C124.251 62.1705 123.722 62.7074 123.04 63.1037C122.359 63.4957 121.562 63.6875 120.65 63.679ZM120.643 62.017C121.146 62.017 121.596 61.8935 121.992 61.6463C122.388 61.3991 122.702 61.0668 122.932 60.6491C123.162 60.2315 123.277 59.7649 123.277 59.2493C123.277 58.7464 123.164 58.2884 122.938 57.875C122.717 57.4616 122.41 57.1335 122.018 56.8906C121.63 56.6477 121.187 56.5263 120.688 56.5263C120.309 56.5263 119.957 56.5987 119.634 56.7436C119.314 56.8885 119.033 57.0888 118.79 57.3445C118.547 57.6001 118.355 57.8942 118.214 58.2266C118.078 58.5547 118.01 58.902 118.01 59.2685C118.01 59.7585 118.123 60.2124 118.349 60.63C118.579 61.0476 118.892 61.3842 119.288 61.6399C119.689 61.8913 120.141 62.017 120.643 62.017Z" fill="#2E263D" fill-opacity="0.9"/>
<path d="M138.5 57.6717L143.45 52.7217L144.864 54.1357L138.5 60.4997L132.136 54.1357L133.55 52.7217L138.5 57.6717Z" fill="#FF4C51"/>
<path d="M155.464 50.5909V61.5H154.143V51.9759H154.08L151.416 53.7443V52.402L154.143 50.5909H155.464ZM162.437 50.5909V61.5H161.116V51.9759H161.052L158.389 53.7443V52.402L161.116 50.5909H162.437ZM165.868 61.5852C165.605 61.5852 165.379 61.4911 165.191 61.3029C165.003 61.1147 164.909 60.8892 164.909 60.6264C164.909 60.3636 165.003 60.1381 165.191 59.9499C165.379 59.7617 165.605 59.6676 165.868 59.6676C166.13 59.6676 166.356 59.7617 166.544 59.9499C166.732 60.1381 166.826 60.3636 166.826 60.6264C166.826 60.8004 166.782 60.9602 166.693 61.1058C166.608 61.2514 166.493 61.3686 166.347 61.4574C166.205 61.5426 166.045 61.5852 165.868 61.5852ZM172.431 50.4418C172.879 50.4453 173.326 50.5305 173.774 50.6974C174.221 50.8643 174.63 51.1413 174.999 51.5284C175.368 51.9119 175.665 52.4357 175.888 53.0998C176.112 53.7638 176.224 54.5966 176.224 55.598C176.224 56.5675 176.132 57.4286 175.947 58.1815C175.766 58.9308 175.503 59.5629 175.159 60.0778C174.818 60.5927 174.402 60.9833 173.912 61.2496C173.426 61.516 172.875 61.6491 172.261 61.6491C171.65 61.6491 171.105 61.5284 170.626 61.2869C170.15 61.0419 169.759 60.7028 169.454 60.2695C169.152 59.8327 168.958 59.3267 168.873 58.7514H170.173C170.29 59.2521 170.523 59.6658 170.871 59.9925C171.222 60.3157 171.686 60.4773 172.261 60.4773C173.103 60.4773 173.767 60.1097 174.253 59.3746C174.743 58.6396 174.988 57.6009 174.988 56.2585H174.903C174.704 56.5568 174.468 56.8143 174.195 57.0309C173.921 57.2475 173.617 57.4144 173.284 57.5316C172.95 57.6488 172.595 57.7074 172.218 57.7074C171.593 57.7074 171.02 57.5529 170.498 57.244C169.979 56.9315 169.564 56.5036 169.251 55.9602C168.942 55.4134 168.788 54.7884 168.788 54.0852C168.788 53.4176 168.937 52.8068 169.235 52.2528C169.537 51.6953 169.96 51.2514 170.503 50.9212C171.05 50.5909 171.693 50.4311 172.431 50.4418ZM172.431 51.6136C171.984 51.6136 171.581 51.7255 171.222 51.9492C170.867 52.1694 170.585 52.4677 170.375 52.8441C170.169 53.217 170.066 53.6307 170.066 54.0852C170.066 54.5398 170.166 54.9535 170.365 55.3263C170.567 55.6957 170.842 55.9904 171.19 56.2106C171.542 56.4272 171.941 56.5355 172.389 56.5355C172.726 56.5355 173.04 56.4698 173.332 56.3384C173.623 56.2035 173.877 56.0206 174.093 55.7898C174.313 55.5554 174.486 55.2908 174.61 54.9961C174.734 54.6978 174.796 54.3871 174.796 54.0639C174.796 53.6378 174.693 53.2383 174.487 52.8654C174.285 52.4925 174.005 52.1907 173.646 51.9599C173.291 51.729 172.886 51.6136 172.431 51.6136ZM183.88 59.4545V58.8793C183.88 58.4815 183.961 58.1175 184.125 57.7873C184.292 57.4535 184.533 57.1871 184.849 56.9883C185.169 56.7859 185.556 56.6847 186.01 56.6847C186.472 56.6847 186.859 56.7859 187.172 56.9883C187.484 57.1871 187.72 57.4535 187.88 57.7873C188.04 58.1175 188.12 58.4815 188.12 58.8793V59.4545C188.12 59.8523 188.038 60.218 187.875 60.5518C187.715 60.8821 187.477 61.1484 187.161 61.3509C186.849 61.5497 186.465 61.6491 186.01 61.6491C185.549 61.6491 185.16 61.5497 184.844 61.3509C184.528 61.1484 184.288 60.8821 184.125 60.5518C183.961 60.218 183.88 59.8523 183.88 59.4545ZM184.966 58.8793V59.4545C184.966 59.7848 185.045 60.0813 185.201 60.3441C185.357 60.6033 185.627 60.733 186.01 60.733C186.383 60.733 186.646 60.6033 186.799 60.3441C186.955 60.0813 187.033 59.7848 187.033 59.4545V58.8793C187.033 58.549 186.959 58.2543 186.809 57.995C186.66 57.7322 186.394 57.6009 186.01 57.6009C185.638 57.6009 185.369 57.7322 185.206 57.995C185.046 58.2543 184.966 58.549 184.966 58.8793ZM178.447 53.2116V52.6364C178.447 52.2386 178.528 51.8746 178.692 51.5444C178.858 51.2106 179.1 50.9442 179.416 50.7454C179.736 50.543 180.123 50.4418 180.577 50.4418C181.039 50.4418 181.426 50.543 181.738 50.7454C182.051 50.9442 182.287 51.2106 182.447 51.5444C182.607 51.8746 182.687 52.2386 182.687 52.6364V53.2116C182.687 53.6094 182.605 53.9751 182.442 54.3089C182.282 54.6392 182.044 54.9055 181.728 55.108C181.415 55.3068 181.032 55.4062 180.577 55.4062C180.116 55.4062 179.727 55.3068 179.411 55.108C179.095 54.9055 178.855 54.6392 178.692 54.3089C178.528 53.9751 178.447 53.6094 178.447 53.2116ZM179.533 52.6364V53.2116C179.533 53.5419 179.611 53.8384 179.768 54.1012C179.924 54.3604 180.194 54.4901 180.577 54.4901C180.95 54.4901 181.213 54.3604 181.366 54.1012C181.522 53.8384 181.6 53.5419 181.6 53.2116V52.6364C181.6 52.3061 181.525 52.0114 181.376 51.7521C181.227 51.4893 180.961 51.358 180.577 51.358C180.204 51.358 179.936 51.4893 179.773 51.7521C179.613 52.0114 179.533 52.3061 179.533 52.6364ZM178.851 61.5L186.351 50.5909H187.566L180.066 61.5H178.851Z" fill="#FF4C51"/>
<defs>
<filter id="filter0_d_8003_4498" x="16.5" y="23.5" width="48" height="48" filterUnits="userSpaceOnUse" color-interpolation-filters="sRGB">
<feFlood flood-opacity="0" result="BackgroundImageFix"/>
<feColorMatrix in="SourceAlpha" type="matrix" values="0 0 0 0 0 0 0 0 0 0 0 0 0 0 0 0 0 0 127 0" result="hardAlpha"/>
<feOffset dy="2"/>
<feGaussianBlur stdDeviation="2"/>
<feColorMatrix type="matrix" values="0 0 0 0 0.180392 0 0 0 0 0.14902 0 0 0 0 0.239216 0 0 0 0.16 0"/>
<feBlend mode="normal" in2="BackgroundImageFix" result="effect1_dropShadow_8003_4498"/>
<feBlend mode="normal" in="SourceGraphic" in2="effect1_dropShadow_8003_4498" result="shape"/>
</filter>
</defs>
</svg>
