<svg width="189" height="208" viewBox="0 0 189 208" fill="none" xmlns="http://www.w3.org/2000/svg">
<g filter="url(#filter0_d_8003_2570)">
<path d="M10 12C10 8.68629 12.6863 6 16 6H172.667C175.98 6 178.667 8.68629 178.667 12V188C178.667 191.314 175.98 194 172.667 194H16C12.6863 194 10 191.314 10 188V12Z" fill="white" shape-rendering="crispEdges"/>
<g filter="url(#filter1_d_8003_2570)">
<rect x="30" y="26" width="40" height="40" rx="20" fill="#8C57FF"/>
<path d="M55 53H58V39H55V37H59C59.2652 37 59.5196 37.1053 59.7071 37.2929C59.8947 37.4804 60 37.7348 60 38V54C60 54.2652 59.8947 54.5195 59.7071 54.7071C59.5196 54.8946 59.2652 55 59 55H55V53ZM40.859 36.877L53.429 35.082C53.5 35.0718 53.5723 35.077 53.641 35.0972C53.7098 35.1174 53.7734 35.1522 53.8275 35.1991C53.8817 35.246 53.9251 35.3041 53.9549 35.3693C53.9846 35.4345 54 35.5053 54 35.577V56.423C54 56.4945 53.9846 56.5653 53.9549 56.6304C53.9252 56.6955 53.8819 56.7535 53.8279 56.8004C53.7738 56.8473 53.7103 56.8821 53.6417 56.9024C53.5731 56.9227 53.5009 56.928 53.43 56.918L40.858 55.123C40.6196 55.089 40.4015 54.9702 40.2437 54.7883C40.0859 54.6065 39.999 54.3738 39.999 54.133V37.867C39.999 37.6262 40.0859 37.3935 40.2437 37.2116C40.4015 37.0297 40.6196 36.9109 40.858 36.877H40.859ZM42 38.735V53.265L52 54.694V37.306L42 38.735ZM49 42H51V50H49L47 48L45 50H43V42H45L45.01 47L47 45L49 46.989V42Z" fill="white"/>
</g>
<path d="M146.667 29C145.842 29 145.167 29.675 145.167 30.5C145.167 31.325 145.842 32 146.667 32C147.492 32 148.167 31.325 148.167 30.5C148.167 29.675 147.492 29 146.667 29ZM146.667 44C145.842 44 145.167 44.675 145.167 45.5C145.167 46.325 145.842 47 146.667 47C147.492 47 148.167 46.325 148.167 45.5C148.167 44.675 147.492 44 146.667 44ZM146.667 36.5C145.842 36.5 145.167 37.175 145.167 38C145.167 38.825 145.842 39.5 146.667 39.5C147.492 39.5 148.167 38.825 148.167 38C148.167 37.175 147.492 36.5 146.667 36.5Z" fill="#2E263D" fill-opacity="0.9"/>
<path d="M40.0036 91.0909V102H38.4908L32.9457 93.9993H32.8445V102H31.1985V91.0909H32.7219L38.2724 99.1023H38.3736V91.0909H40.0036ZM45.803 102.165C44.9969 102.165 44.3026 101.993 43.7203 101.648C43.1414 101.3 42.694 100.812 42.3779 100.184C42.0654 99.5515 41.9092 98.8111 41.9092 97.9624C41.9092 97.1243 42.0654 96.3857 42.3779 95.7464C42.694 95.1072 43.1343 94.6083 43.699 94.2496C44.2671 93.891 44.9312 93.7116 45.6911 93.7116C46.1528 93.7116 46.6002 93.788 47.0335 93.9407C47.4667 94.0934 47.8556 94.3331 48.2 94.6598C48.5445 94.9865 48.8161 95.4109 49.015 95.9329C49.2139 96.4513 49.3133 97.0817 49.3133 97.8239V98.3885H42.8094V97.1953H47.7526C47.7526 96.7763 47.6673 96.4052 47.4969 96.082C47.3264 95.7553 47.0867 95.4979 46.7778 95.3097C46.4724 95.1214 46.1137 95.0273 45.7018 95.0273C45.2544 95.0273 44.8637 95.1374 44.5299 95.3576C44.1997 95.5742 43.944 95.8583 43.7629 96.2099C43.5853 96.5579 43.4965 96.9361 43.4965 97.3445V98.2766C43.4965 98.8235 43.5924 99.2887 43.7842 99.6722C43.9795 100.056 44.2512 100.349 44.5992 100.551C44.9472 100.75 45.3538 100.849 45.819 100.849C46.1208 100.849 46.396 100.807 46.6446 100.722C46.8932 100.633 47.108 100.501 47.2892 100.327C47.4703 100.153 47.6088 99.9386 47.7046 99.6829L49.2121 99.9545C49.0914 100.398 48.8747 100.787 48.5622 101.121C48.2533 101.451 47.8644 101.709 47.3957 101.893C46.9305 102.075 46.3996 102.165 45.803 102.165ZM52.8396 102L50.4319 93.8182H52.0779L53.6812 99.8267H53.7611L55.3698 93.8182H57.0157L58.6137 99.8001H58.6936L60.2863 93.8182H61.9323L59.5299 102H57.9053L56.2433 96.0927H56.1208L54.4589 102H52.8396ZM67.5413 102V91.0909H71.4298C72.2785 91.0909 72.9816 91.2454 73.5392 91.5543C74.0967 91.8633 74.5139 92.2859 74.7909 92.8221C75.0679 93.3548 75.2064 93.9549 75.2064 94.6225C75.2064 95.2937 75.0661 95.8974 74.7856 96.4336C74.5086 96.9663 74.0896 97.3888 73.5285 97.7013C72.971 98.0103 72.2696 98.1648 71.4244 98.1648H68.7504V96.7692H71.2753C71.8115 96.7692 72.2465 96.6768 72.5803 96.4922C72.9142 96.304 73.1592 96.0483 73.3154 95.7251C73.4717 95.402 73.5498 95.0344 73.5498 94.6225C73.5498 94.2106 73.4717 93.8448 73.3154 93.5252C73.1592 93.2056 72.9124 92.9553 72.575 92.7741C72.2412 92.593 71.8009 92.5025 71.254 92.5025H69.1872V102H67.5413ZM77.0082 102V93.8182H78.5476V95.1179H78.6328C78.782 94.6776 79.0447 94.3313 79.4212 94.0792C79.8011 93.8235 80.2308 93.6957 80.7102 93.6957C80.8097 93.6957 80.9268 93.6992 81.0618 93.7063C81.2003 93.7134 81.3086 93.7223 81.3867 93.733V95.2564C81.3228 95.2386 81.2092 95.2191 81.0458 95.1978C80.8825 95.1729 80.7191 95.1605 80.5558 95.1605C80.1793 95.1605 79.8438 95.2404 79.549 95.4002C79.2578 95.5565 79.027 95.7749 78.8565 96.0554C78.6861 96.3324 78.6009 96.6484 78.6009 97.0036V102H77.0082ZM85.9184 102.165C85.1514 102.165 84.482 101.989 83.9102 101.638C83.3385 101.286 82.8946 100.794 82.5786 100.162C82.2625 99.5302 82.1045 98.7915 82.1045 97.9464C82.1045 97.0977 82.2625 96.3555 82.5786 95.7198C82.8946 95.0842 83.3385 94.5906 83.9102 94.239C84.482 93.8874 85.1514 93.7116 85.9184 93.7116C86.6855 93.7116 87.3548 93.8874 87.9266 94.239C88.4983 94.5906 88.9422 95.0842 89.2583 95.7198C89.5743 96.3555 89.7323 97.0977 89.7323 97.9464C89.7323 98.7915 89.5743 99.5302 89.2583 100.162C88.9422 100.794 88.4983 101.286 87.9266 101.638C87.3548 101.989 86.6855 102.165 85.9184 102.165ZM85.9237 100.828C86.4209 100.828 86.8328 100.697 87.1595 100.434C87.4862 100.171 87.7277 99.8214 87.884 99.3846C88.0438 98.9478 88.1237 98.4666 88.1237 97.9411C88.1237 97.419 88.0438 96.9396 87.884 96.5028C87.7277 96.0625 87.4862 95.7092 87.1595 95.4428C86.8328 95.1765 86.4209 95.0433 85.9237 95.0433C85.423 95.0433 85.0075 95.1765 84.6773 95.4428C84.3506 95.7092 84.1073 96.0625 83.9475 96.5028C83.7913 96.9396 83.7132 97.419 83.7132 97.9411C83.7132 98.4666 83.7913 98.9478 83.9475 99.3846C84.1073 99.8214 84.3506 100.171 84.6773 100.434C85.0075 100.697 85.423 100.828 85.9237 100.828ZM91.5101 93.8182H93.1028V102.533C93.1028 103.08 93.0034 103.541 92.8045 103.918C92.6092 104.294 92.318 104.58 91.9309 104.775C91.5474 104.971 91.0733 105.068 90.5087 105.068C90.4519 105.068 90.3986 105.068 90.3489 105.068C90.2956 105.068 90.2406 105.066 90.1838 105.063V103.694C90.2335 103.694 90.2779 103.694 90.3169 103.694C90.3525 103.694 90.3933 103.694 90.4395 103.694C90.8159 103.694 91.0875 103.593 91.2544 103.39C91.4249 103.191 91.5101 102.902 91.5101 102.522V93.8182ZM92.2985 92.5558C92.0215 92.5558 91.7836 92.4634 91.5847 92.2788C91.3894 92.0906 91.2917 91.8668 91.2917 91.6076C91.2917 91.3448 91.3894 91.1211 91.5847 90.9364C91.7836 90.7482 92.0215 90.6541 92.2985 90.6541C92.5755 90.6541 92.8116 90.7482 93.0069 90.9364C93.2058 91.1211 93.3052 91.3448 93.3052 91.6076C93.3052 91.8668 93.2058 92.0906 93.0069 92.2788C92.8116 92.4634 92.5755 92.5558 92.2985 92.5558ZM98.7718 102.165C97.9656 102.165 97.2714 101.993 96.689 101.648C96.1102 101.3 95.6627 100.812 95.3467 100.184C95.0342 99.5515 94.8779 98.8111 94.8779 97.9624C94.8779 97.1243 95.0342 96.3857 95.3467 95.7464C95.6627 95.1072 96.1031 94.6083 96.6677 94.2496C97.2359 93.891 97.8999 93.7116 98.6599 93.7116C99.1215 93.7116 99.569 93.788 100.002 93.9407C100.435 94.0934 100.824 94.3331 101.169 94.6598C101.513 94.9865 101.785 95.4109 101.984 95.9329C102.183 96.4513 102.282 97.0817 102.282 97.8239V98.3885H95.7781V97.1953H100.721C100.721 96.7763 100.636 96.4052 100.466 96.082C100.295 95.7553 100.055 95.4979 99.7465 95.3097C99.4411 95.1214 99.0825 95.0273 98.6705 95.0273C98.2231 95.0273 97.8325 95.1374 97.4987 95.3576C97.1684 95.5742 96.9127 95.8583 96.7316 96.2099C96.5541 96.5579 96.4653 96.9361 96.4653 97.3445V98.2766C96.4653 98.8235 96.5612 99.2887 96.7529 99.6722C96.9482 100.056 97.2199 100.349 97.5679 100.551C97.9159 100.75 98.3225 100.849 98.7877 100.849C99.0896 100.849 99.3648 100.807 99.6134 100.722C99.8619 100.633 100.077 100.501 100.258 100.327C100.439 100.153 100.578 99.9386 100.673 99.6829L102.181 99.9545C102.06 100.398 101.843 100.787 101.531 101.121C101.222 101.451 100.833 101.709 100.364 101.893C99.8992 102.075 99.3683 102.165 98.7718 102.165ZM107.496 102.165C106.704 102.165 106.022 101.986 105.45 101.627C104.882 101.265 104.445 100.766 104.14 100.13C103.834 99.4947 103.682 98.7667 103.682 97.9464C103.682 97.1154 103.838 96.3821 104.15 95.7464C104.463 95.1072 104.903 94.6083 105.471 94.2496C106.04 93.891 106.709 93.7116 107.48 93.7116C108.101 93.7116 108.655 93.8271 109.142 94.0579C109.628 94.2852 110.02 94.6048 110.319 95.0167C110.621 95.4286 110.8 95.9098 110.857 96.4602H109.307C109.221 96.0767 109.026 95.7464 108.721 95.4695C108.419 95.1925 108.014 95.054 107.506 95.054C107.062 95.054 106.673 95.1712 106.34 95.4055C106.009 95.6364 105.752 95.9666 105.567 96.3963C105.383 96.8224 105.29 97.3267 105.29 97.9091C105.29 98.5057 105.381 99.0206 105.562 99.4538C105.743 99.8871 105.999 100.223 106.329 100.461C106.663 100.699 107.055 100.817 107.506 100.817C107.808 100.817 108.081 100.762 108.327 100.652C108.575 100.539 108.783 100.377 108.95 100.168C109.12 99.9581 109.239 99.706 109.307 99.4112H110.857C110.8 99.9403 110.628 100.413 110.34 100.828C110.052 101.244 109.667 101.57 109.184 101.808C108.705 102.046 108.142 102.165 107.496 102.165ZM116.379 93.8182V95.0966H111.91V93.8182H116.379ZM113.109 91.858H114.701V99.5977C114.701 99.9066 114.747 100.139 114.84 100.295C114.932 100.448 115.051 100.553 115.197 100.61C115.346 100.663 115.507 100.69 115.681 100.69C115.809 100.69 115.921 100.681 116.017 100.663C116.113 100.645 116.187 100.631 116.241 100.62L116.528 101.936C116.436 101.972 116.305 102.007 116.134 102.043C115.964 102.082 115.751 102.103 115.495 102.107C115.076 102.114 114.685 102.039 114.323 101.883C113.961 101.727 113.668 101.485 113.444 101.158C113.22 100.832 113.109 100.422 113.109 99.9279V91.858Z" fill="#2E263D" fill-opacity="0.9"/>
<path d="M37.5767 140.239C36.3551 140.239 35.2756 140.028 34.3381 139.608C33.4063 139.187 32.6761 138.608 32.1477 137.869C31.6193 137.131 31.358 136.29 31.3636 135.347C31.358 134.608 31.5085 133.929 31.8153 133.31C32.1278 132.685 32.5511 132.165 33.0852 131.75C33.6193 131.33 34.2159 131.062 34.875 130.949V130.847C34.0057 130.636 33.3097 130.17 32.7869 129.449C32.2642 128.727 32.0057 127.898 32.0114 126.96C32.0057 126.068 32.2415 125.273 32.7188 124.574C33.2017 123.869 33.8636 123.315 34.7045 122.912C35.5455 122.509 36.5028 122.307 37.5767 122.307C38.6392 122.307 39.5881 122.511 40.4233 122.92C41.2642 123.324 41.9261 123.878 42.4091 124.582C42.892 125.281 43.1364 126.074 43.142 126.96C43.1364 127.898 42.8693 128.727 42.3409 129.449C41.8125 130.17 41.125 130.636 40.2784 130.847V130.949C40.9318 131.062 41.5199 131.33 42.0426 131.75C42.571 132.165 42.9915 132.685 43.304 133.31C43.6222 133.929 43.7841 134.608 43.7898 135.347C43.7841 136.29 43.517 137.131 42.9886 137.869C42.4602 138.608 41.7273 139.187 40.7898 139.608C39.858 140.028 38.7869 140.239 37.5767 140.239ZM37.5767 138.082C38.2983 138.082 38.9233 137.963 39.4517 137.724C39.9801 137.48 40.3892 137.142 40.679 136.71C40.9688 136.273 41.1165 135.761 41.1222 135.176C41.1165 134.568 40.9574 134.031 40.6449 133.565C40.3381 133.099 39.9205 132.733 39.392 132.466C38.8636 132.199 38.2585 132.065 37.5767 132.065C36.8892 132.065 36.2784 132.199 35.7443 132.466C35.2102 132.733 34.7898 133.099 34.483 133.565C34.1761 134.031 34.0256 134.568 34.0312 135.176C34.0256 135.761 34.1648 136.273 34.4489 136.71C34.7386 137.142 35.1506 137.48 35.6847 137.724C36.2188 137.963 36.8494 138.082 37.5767 138.082ZM37.5767 129.96C38.1563 129.96 38.6705 129.844 39.1193 129.611C39.5682 129.378 39.9205 129.054 40.1761 128.639C40.4375 128.224 40.571 127.739 40.5767 127.182C40.571 126.636 40.4403 126.159 40.1847 125.75C39.9347 125.341 39.5852 125.026 39.1364 124.804C38.6875 124.577 38.1676 124.463 37.5767 124.463C36.9744 124.463 36.446 124.577 35.9915 124.804C35.5426 125.026 35.1932 125.341 34.9432 125.75C34.6932 126.159 34.571 126.636 34.5767 127.182C34.571 127.739 34.696 128.224 34.9517 128.639C35.2074 129.054 35.5597 129.378 36.0085 129.611C36.4631 129.844 36.9858 129.96 37.5767 129.96ZM52.9368 140.239C52.1584 140.227 51.3913 140.085 50.6357 139.812C49.8857 139.54 49.2038 139.085 48.5902 138.449C47.9766 137.812 47.4851 136.957 47.1158 135.884C46.7521 134.81 46.5703 133.469 46.5703 131.861C46.5703 130.338 46.7209 128.986 47.022 127.804C47.3288 126.622 47.7692 125.625 48.343 124.812C48.9169 123.994 49.6101 123.372 50.4226 122.946C51.2351 122.52 52.147 122.307 53.1584 122.307C54.1982 122.307 55.1214 122.511 55.9283 122.92C56.7351 123.33 57.3885 123.895 57.8885 124.616C58.3942 125.338 58.7152 126.159 58.8516 127.08H56.2521C56.076 126.352 55.7266 125.759 55.2038 125.298C54.6811 124.838 53.9993 124.608 53.1584 124.608C51.88 124.608 50.8828 125.165 50.1669 126.278C49.4567 127.392 49.0987 128.94 49.093 130.923H49.2209C49.522 130.429 49.8913 130.009 50.3288 129.662C50.772 129.31 51.2663 129.04 51.8118 128.852C52.3629 128.659 52.9425 128.562 53.5504 128.562C54.5618 128.562 55.4766 128.81 56.2947 129.304C57.1186 129.793 57.7749 130.469 58.2635 131.332C58.7521 132.196 58.9964 133.185 58.9964 134.298C58.9964 135.412 58.7436 136.42 58.2379 137.324C57.7379 138.227 57.0334 138.943 56.1243 139.472C55.2152 139.994 54.1527 140.25 52.9368 140.239ZM52.9283 138.023C53.5987 138.023 54.1982 137.858 54.7266 137.528C55.255 137.199 55.6726 136.756 55.9794 136.199C56.2862 135.642 56.4396 135.02 56.4396 134.332C56.4396 133.662 56.2891 133.051 55.9879 132.5C55.6925 131.949 55.2834 131.511 54.7607 131.188C54.2436 130.864 53.6527 130.702 52.9879 130.702C52.4822 130.702 52.0135 130.798 51.5817 130.991C51.1555 131.185 50.7805 131.452 50.4567 131.793C50.1328 132.134 49.8771 132.526 49.6896 132.969C49.5078 133.406 49.4169 133.869 49.4169 134.358C49.4169 135.011 49.5675 135.616 49.8686 136.173C50.1754 136.73 50.593 137.179 51.1214 137.52C51.6555 137.855 52.2578 138.023 52.9283 138.023ZM62.1009 140V138.091L68.0071 131.972C68.6378 131.307 69.1577 130.724 69.5668 130.224C69.9815 129.719 70.2912 129.239 70.4957 128.784C70.7003 128.33 70.8026 127.847 70.8026 127.335C70.8026 126.756 70.6662 126.256 70.3935 125.835C70.1207 125.409 69.7486 125.082 69.277 124.855C68.8054 124.622 68.2741 124.506 67.6832 124.506C67.0582 124.506 66.5128 124.634 66.0469 124.889C65.581 125.145 65.223 125.506 64.973 125.972C64.723 126.437 64.598 126.983 64.598 127.608H62.0838C62.0838 126.545 62.3281 125.616 62.8168 124.821C63.3054 124.026 63.9759 123.409 64.8281 122.972C65.6804 122.528 66.6491 122.307 67.7344 122.307C68.831 122.307 69.7969 122.526 70.6321 122.963C71.473 123.395 72.1293 123.986 72.6009 124.736C73.0724 125.48 73.3082 126.321 73.3082 127.259C73.3082 127.906 73.1861 128.54 72.9418 129.159C72.7031 129.778 72.2855 130.469 71.6889 131.23C71.0923 131.986 70.2628 132.903 69.2003 133.983L65.7315 137.614V137.741H73.5895V140H62.1009Z" fill="#2E263D" fill-opacity="0.9"/>
<path d="M89.8381 129.96V131.131H85.0653V129.96H89.8381ZM95.8639 125.091V136H94.5429V126.476H94.479L91.8156 128.244V126.902L94.5429 125.091H95.8639ZM102.496 136.149C101.764 136.149 101.118 136.02 100.557 135.76C99.9992 135.498 99.5642 135.137 99.2517 134.679C98.9392 134.217 98.7847 133.692 98.7883 133.102C98.7847 132.641 98.8753 132.214 99.0599 131.824C99.2446 131.43 99.4967 131.101 99.8163 130.838C100.139 130.572 100.5 130.403 100.898 130.332V130.268C100.376 130.134 99.9601 129.841 99.6512 129.39C99.3422 128.935 99.1895 128.418 99.1931 127.839C99.1895 127.286 99.3298 126.79 99.6139 126.353C99.898 125.917 100.289 125.572 100.786 125.32C101.286 125.068 101.856 124.942 102.496 124.942C103.128 124.942 103.692 125.068 104.19 125.32C104.687 125.572 105.077 125.917 105.361 126.353C105.649 126.79 105.795 127.286 105.798 127.839C105.795 128.418 105.637 128.935 105.324 129.39C105.015 129.841 104.605 130.134 104.094 130.268V130.332C104.488 130.403 104.843 130.572 105.159 130.838C105.475 131.101 105.727 131.43 105.915 131.824C106.104 132.214 106.199 132.641 106.203 133.102C106.199 133.692 106.04 134.217 105.724 134.679C105.411 135.137 104.976 135.498 104.419 135.76C103.865 136.02 103.224 136.149 102.496 136.149ZM102.496 134.977C102.989 134.977 103.415 134.897 103.774 134.738C104.133 134.578 104.41 134.352 104.605 134.061C104.8 133.77 104.9 133.429 104.903 133.038C104.9 132.626 104.793 132.262 104.584 131.946C104.374 131.63 104.088 131.382 103.726 131.201C103.367 131.02 102.957 130.929 102.496 130.929C102.03 130.929 101.615 131.02 101.249 131.201C100.887 131.382 100.601 131.63 100.392 131.946C100.186 132.262 100.084 132.626 100.088 133.038C100.084 133.429 100.179 133.77 100.37 134.061C100.566 134.352 100.844 134.578 101.207 134.738C101.569 134.897 101.998 134.977 102.496 134.977ZM102.496 129.8C102.886 129.8 103.233 129.722 103.534 129.565C103.84 129.409 104.079 129.191 104.253 128.91C104.427 128.63 104.516 128.301 104.52 127.925C104.516 127.555 104.429 127.234 104.259 126.961C104.088 126.684 103.852 126.471 103.55 126.321C103.248 126.169 102.897 126.092 102.496 126.092C102.087 126.092 101.73 126.169 101.425 126.321C101.12 126.471 100.883 126.684 100.717 126.961C100.55 127.234 100.468 127.555 100.472 127.925C100.468 128.301 100.551 128.63 100.722 128.91C100.896 129.191 101.136 129.409 101.441 129.565C101.746 129.722 102.098 129.8 102.496 129.8ZM113.806 133.955V133.379C113.806 132.982 113.887 132.618 114.051 132.287C114.218 131.953 114.459 131.687 114.775 131.488C115.095 131.286 115.482 131.185 115.936 131.185C116.398 131.185 116.785 131.286 117.097 131.488C117.41 131.687 117.646 131.953 117.806 132.287C117.966 132.618 118.046 132.982 118.046 133.379V133.955C118.046 134.352 117.964 134.718 117.801 135.052C117.641 135.382 117.403 135.648 117.087 135.851C116.774 136.05 116.391 136.149 115.936 136.149C115.475 136.149 115.086 136.05 114.77 135.851C114.454 135.648 114.214 135.382 114.051 135.052C113.887 134.718 113.806 134.352 113.806 133.955ZM114.892 133.379V133.955C114.892 134.285 114.97 134.581 115.127 134.844C115.283 135.103 115.553 135.233 115.936 135.233C116.309 135.233 116.572 135.103 116.725 134.844C116.881 134.581 116.959 134.285 116.959 133.955V133.379C116.959 133.049 116.884 132.754 116.735 132.495C116.586 132.232 116.32 132.101 115.936 132.101C115.563 132.101 115.295 132.232 115.132 132.495C114.972 132.754 114.892 133.049 114.892 133.379ZM108.372 127.712V127.136C108.372 126.739 108.454 126.375 108.617 126.044C108.784 125.711 109.026 125.444 109.342 125.245C109.661 125.043 110.048 124.942 110.503 124.942C110.965 124.942 111.352 125.043 111.664 125.245C111.977 125.444 112.213 125.711 112.373 126.044C112.532 126.375 112.612 126.739 112.612 127.136V127.712C112.612 128.109 112.531 128.475 112.367 128.809C112.208 129.139 111.97 129.406 111.654 129.608C111.341 129.807 110.958 129.906 110.503 129.906C110.041 129.906 109.653 129.807 109.336 129.608C109.02 129.406 108.781 129.139 108.617 128.809C108.454 128.475 108.372 128.109 108.372 127.712ZM109.459 127.136V127.712C109.459 128.042 109.537 128.338 109.693 128.601C109.85 128.86 110.119 128.99 110.503 128.99C110.876 128.99 111.139 128.86 111.291 128.601C111.448 128.338 111.526 128.042 111.526 127.712V127.136C111.526 126.806 111.451 126.511 111.302 126.252C111.153 125.989 110.887 125.858 110.503 125.858C110.13 125.858 109.862 125.989 109.699 126.252C109.539 126.511 109.459 126.806 109.459 127.136ZM108.777 136L116.277 125.091H117.492L109.992 136H108.777Z" fill="#FF4C51"/>
<path d="M30.3324 159.545H31.6435L34.2656 163.959H34.3764L36.9986 159.545H38.3097L34.8935 165.104V169H33.7486V165.104L30.3324 159.545ZM41.6127 169.148C40.9295 169.148 40.3401 168.997 39.8446 168.695C39.3522 168.391 38.9721 167.966 38.7044 167.421C38.4397 166.873 38.3074 166.236 38.3074 165.51C38.3074 164.784 38.4397 164.143 38.7044 163.589C38.9721 163.032 39.3445 162.598 39.8216 162.288C40.3017 161.974 40.8618 161.817 41.502 161.817C41.8713 161.817 42.236 161.878 42.5961 162.001C42.9561 162.125 43.2839 162.325 43.5794 162.602C43.8748 162.875 44.1103 163.239 44.2857 163.691C44.4611 164.143 44.5488 164.701 44.5488 165.362V165.824H39.0829V164.882H43.4409C43.4409 164.482 43.3609 164.125 43.2008 163.811C43.0439 163.497 42.8192 163.249 42.5268 163.068C42.2375 162.886 41.8959 162.795 41.502 162.795C41.068 162.795 40.6925 162.903 40.3755 163.119C40.0616 163.331 39.82 163.608 39.6507 163.95C39.4815 164.291 39.3968 164.657 39.3968 165.048V165.676C39.3968 166.212 39.4892 166.666 39.6738 167.038C39.8616 167.407 40.1216 167.689 40.454 167.883C40.7864 168.074 41.1726 168.169 41.6127 168.169C41.899 168.169 42.1575 168.129 42.3883 168.049C42.6222 167.966 42.8238 167.843 42.9931 167.68C43.1623 167.513 43.2931 167.307 43.3855 167.061L44.438 167.357C44.3272 167.714 44.141 168.027 43.8794 168.298C43.6178 168.566 43.2947 168.775 42.91 168.926C42.5253 169.074 42.0929 169.148 41.6127 169.148ZM48.2928 169.166C47.8435 169.166 47.4357 169.082 47.0694 168.912C46.7032 168.74 46.4123 168.492 46.1969 168.169C45.9815 167.843 45.8738 167.449 45.8738 166.987C45.8738 166.581 45.9538 166.252 46.1138 165.999C46.2739 165.744 46.4877 165.544 46.7555 165.399C47.0233 165.254 47.3187 165.147 47.6419 165.076C47.9681 165.002 48.2959 164.944 48.6252 164.901C49.056 164.845 49.4054 164.804 49.6731 164.776C49.944 164.745 50.1409 164.694 50.264 164.624C50.3902 164.553 50.4533 164.43 50.4533 164.254V164.217C50.4533 163.762 50.3287 163.408 50.0794 163.156C49.8332 162.903 49.4592 162.777 48.9576 162.777C48.4374 162.777 48.0297 162.891 47.7342 163.119C47.4387 163.346 47.231 163.589 47.111 163.848L46.0769 163.479C46.2615 163.048 46.5078 162.712 46.8155 162.472C47.1264 162.229 47.4649 162.06 47.8311 161.964C48.2005 161.866 48.5636 161.817 48.9206 161.817C49.1484 161.817 49.41 161.844 49.7054 161.9C50.004 161.952 50.2917 162.061 50.5687 162.228C50.8488 162.394 51.0811 162.645 51.2658 162.98C51.4505 163.316 51.5428 163.765 51.5428 164.328V169H50.4533V168.04H50.3979C50.324 168.194 50.2009 168.358 50.0286 168.534C49.8562 168.709 49.627 168.858 49.3407 168.982C49.0545 169.105 48.7052 169.166 48.2928 169.166ZM48.459 168.188C48.8899 168.188 49.253 168.103 49.5485 167.934C49.847 167.764 50.0717 167.546 50.2225 167.278C50.3764 167.01 50.4533 166.729 50.4533 166.433V165.436C50.4071 165.491 50.3056 165.542 50.1486 165.588C49.9947 165.632 49.8162 165.67 49.6131 165.704C49.4131 165.735 49.2176 165.762 49.0268 165.787C48.8391 165.808 48.6867 165.827 48.5698 165.842C48.2866 165.879 48.022 165.939 47.7757 166.022C47.5326 166.102 47.3356 166.224 47.1848 166.387C47.0371 166.547 46.9632 166.766 46.9632 167.043C46.9632 167.421 47.1033 167.707 47.3833 167.901C47.6665 168.092 48.025 168.188 48.459 168.188ZM53.5313 169V161.909H54.5839V162.98H54.6578C54.787 162.629 55.0209 162.345 55.3595 162.126C55.698 161.908 56.0796 161.798 56.5044 161.798C56.5844 161.798 56.6844 161.8 56.8044 161.803C56.9244 161.806 57.0152 161.811 57.0768 161.817V162.925C57.0399 162.915 56.9552 162.902 56.8229 162.883C56.6936 162.862 56.5567 162.851 56.412 162.851C56.0673 162.851 55.7596 162.923 55.4887 163.068C55.221 163.209 55.0086 163.406 54.8517 163.659C54.6978 163.908 54.6208 164.193 54.6208 164.513V169H53.5313ZM59.4577 159.545V169H58.3683V159.545H59.4577ZM62.1549 171.659C61.9703 171.659 61.8056 171.644 61.661 171.613C61.5163 171.585 61.4163 171.558 61.3609 171.53L61.6379 170.57C61.9026 170.637 62.1365 170.662 62.3396 170.643C62.5427 170.625 62.7227 170.534 62.8797 170.371C63.0397 170.211 63.1859 169.951 63.3183 169.591L63.5214 169.037L60.8992 161.909H62.0811L64.0384 167.56H64.1123L66.0697 161.909H67.2515L64.2416 170.034C64.1061 170.4 63.9384 170.703 63.7384 170.944C63.5383 171.187 63.306 171.367 63.0413 171.484C62.7797 171.601 62.4842 171.659 62.1549 171.659ZM72.4935 169V159.545H75.6881C76.4298 159.545 77.0361 159.679 77.507 159.947C77.981 160.212 78.3318 160.57 78.5596 161.023C78.7873 161.475 78.9012 161.98 78.9012 162.537C78.9012 163.094 78.7873 163.6 78.5596 164.056C78.3349 164.511 77.9871 164.874 77.5162 165.145C77.0454 165.413 76.4421 165.547 75.7066 165.547H73.4168V164.531H75.6697C76.1775 164.531 76.5853 164.444 76.893 164.268C77.2008 164.093 77.4239 163.856 77.5624 163.557C77.704 163.256 77.7748 162.915 77.7748 162.537C77.7748 162.158 77.704 161.82 77.5624 161.521C77.4239 161.223 77.1992 160.989 76.8884 160.82C76.5776 160.647 76.1652 160.561 75.6512 160.561H73.6384V169H72.4935ZM80.5977 169V161.909H81.6503V162.98H81.7242C81.8534 162.629 82.0873 162.345 82.4259 162.126C82.7644 161.908 83.146 161.798 83.5708 161.798C83.6508 161.798 83.7508 161.8 83.8708 161.803C83.9909 161.806 84.0816 161.811 84.1432 161.817V162.925C84.1063 162.915 84.0216 162.902 83.8893 162.883C83.76 162.862 83.6231 162.851 83.4784 162.851C83.1337 162.851 82.826 162.923 82.5551 163.068C82.2874 163.209 82.075 163.406 81.9181 163.659C81.7642 163.908 81.6872 164.193 81.6872 164.513V169H80.5977ZM88.0995 169.148C87.4594 169.148 86.8977 168.995 86.4145 168.691C85.9344 168.386 85.5589 167.96 85.2881 167.412C85.0203 166.864 84.8865 166.224 84.8865 165.491C84.8865 164.753 85.0203 164.108 85.2881 163.557C85.5589 163.006 85.9344 162.578 86.4145 162.274C86.8977 161.969 87.4594 161.817 88.0995 161.817C88.7397 161.817 89.2998 161.969 89.7799 162.274C90.2631 162.578 90.6386 163.006 90.9063 163.557C91.1772 164.108 91.3126 164.753 91.3126 165.491C91.3126 166.224 91.1772 166.864 90.9063 167.412C90.6386 167.96 90.2631 168.386 89.7799 168.691C89.2998 168.995 88.7397 169.148 88.0995 169.148ZM88.0995 168.169C88.5858 168.169 88.9859 168.044 89.2998 167.795C89.6137 167.546 89.8461 167.218 89.9969 166.812C90.1477 166.406 90.2231 165.965 90.2231 165.491C90.2231 165.018 90.1477 164.576 89.9969 164.167C89.8461 163.757 89.6137 163.426 89.2998 163.174C88.9859 162.922 88.5858 162.795 88.0995 162.795C87.6133 162.795 87.2132 162.922 86.8992 163.174C86.5853 163.426 86.353 163.757 86.2021 164.167C86.0513 164.576 85.9759 165.018 85.9759 165.491C85.9759 165.965 86.0513 166.406 86.2021 166.812C86.353 167.218 86.5853 167.546 86.8992 167.795C87.2132 168.044 87.6133 168.169 88.0995 168.169ZM92.9757 161.909H94.0652V169.517C94.0652 169.954 93.9898 170.333 93.839 170.653C93.6912 170.973 93.4666 171.221 93.165 171.396C92.8664 171.571 92.4894 171.659 92.0339 171.659C91.997 171.659 91.96 171.659 91.9231 171.659C91.8862 171.659 91.8493 171.659 91.8123 171.659V170.643C91.8493 170.643 91.8831 170.643 91.9139 170.643C91.9447 170.643 91.9785 170.643 92.0154 170.643C92.3478 170.643 92.591 170.545 92.7449 170.348C92.8987 170.154 92.9757 169.877 92.9757 169.517V161.909ZM93.5112 160.727C93.2988 160.727 93.1157 160.655 92.9618 160.51C92.811 160.366 92.7356 160.192 92.7356 159.989C92.7356 159.786 92.811 159.612 92.9618 159.467C93.1157 159.322 93.2988 159.25 93.5112 159.25C93.7235 159.25 93.9051 159.322 94.0559 159.467C94.2098 159.612 94.2868 159.786 94.2868 159.989C94.2868 160.192 94.2098 160.366 94.0559 160.51C93.9051 160.655 93.7235 160.727 93.5112 160.727ZM99.0336 169.148C98.3504 169.148 97.761 168.997 97.2655 168.695C96.7731 168.391 96.393 167.966 96.1253 167.421C95.8606 166.873 95.7282 166.236 95.7282 165.51C95.7282 164.784 95.8606 164.143 96.1253 163.589C96.393 163.032 96.7654 162.598 97.2425 162.288C97.7226 161.974 98.2827 161.817 98.9229 161.817C99.2922 161.817 99.6569 161.878 100.017 162.001C100.377 162.125 100.705 162.325 101 162.602C101.296 162.875 101.531 163.239 101.707 163.691C101.882 164.143 101.97 164.701 101.97 165.362V165.824H96.5038V164.882H100.862C100.862 164.482 100.782 164.125 100.622 163.811C100.465 163.497 100.24 163.249 99.9477 163.068C99.6584 162.886 99.3168 162.795 98.9229 162.795C98.4889 162.795 98.1134 162.903 97.7964 163.119C97.4825 163.331 97.2409 163.608 97.0716 163.95C96.9024 164.291 96.8177 164.657 96.8177 165.048V165.676C96.8177 166.212 96.9101 166.666 97.0947 167.038C97.2825 167.407 97.5425 167.689 97.8749 167.883C98.2073 168.074 98.5935 168.169 99.0336 168.169C99.3199 168.169 99.5784 168.129 99.8092 168.049C100.043 167.966 100.245 167.843 100.414 167.68C100.583 167.513 100.714 167.307 100.806 167.061L101.859 167.357C101.748 167.714 101.562 168.027 101.3 168.298C101.039 168.566 100.716 168.775 100.331 168.926C99.9462 169.074 99.5138 169.148 99.0336 169.148ZM106.508 169.148C105.843 169.148 105.271 168.991 104.79 168.677C104.31 168.363 103.941 167.931 103.682 167.38C103.424 166.829 103.295 166.199 103.295 165.491C103.295 164.771 103.427 164.136 103.692 163.585C103.959 163.031 104.332 162.598 104.809 162.288C105.289 161.974 105.849 161.817 106.489 161.817C106.988 161.817 107.437 161.909 107.837 162.094C108.237 162.278 108.565 162.537 108.821 162.869C109.076 163.202 109.235 163.589 109.296 164.033H108.207C108.123 163.71 107.939 163.423 107.653 163.174C107.369 162.922 106.988 162.795 106.508 162.795C106.083 162.795 105.711 162.906 105.391 163.128C105.074 163.346 104.826 163.656 104.647 164.056C104.472 164.453 104.384 164.919 104.384 165.455C104.384 166.002 104.47 166.479 104.643 166.886C104.818 167.292 105.064 167.607 105.381 167.832C105.701 168.057 106.077 168.169 106.508 168.169C106.791 168.169 107.048 168.12 107.279 168.021C107.509 167.923 107.705 167.781 107.865 167.597C108.025 167.412 108.139 167.19 108.207 166.932H109.296C109.235 167.35 109.082 167.727 108.839 168.063C108.599 168.395 108.28 168.66 107.883 168.857C107.489 169.051 107.031 169.148 106.508 169.148ZM113.973 161.909V162.832H110.298V161.909H113.973ZM111.369 160.21H112.458V166.969C112.458 167.277 112.503 167.507 112.592 167.661C112.685 167.812 112.802 167.914 112.943 167.966C113.088 168.015 113.24 168.04 113.4 168.04C113.52 168.04 113.619 168.034 113.696 168.021C113.773 168.006 113.834 167.994 113.88 167.984L114.102 168.963C114.028 168.991 113.925 169.018 113.793 169.046C113.66 169.077 113.492 169.092 113.289 169.092C112.982 169.092 112.68 169.026 112.384 168.894C112.092 168.761 111.849 168.56 111.655 168.289C111.464 168.018 111.369 167.677 111.369 167.264V160.21Z" fill="#2E263D" fill-opacity="0.7"/>
</g>
<defs>
<filter id="filter0_d_8003_2570" x="0" y="0" width="188.667" height="208" filterUnits="userSpaceOnUse" color-interpolation-filters="sRGB">
<feFlood flood-opacity="0" result="BackgroundImageFix"/>
<feColorMatrix in="SourceAlpha" type="matrix" values="0 0 0 0 0 0 0 0 0 0 0 0 0 0 0 0 0 0 127 0" result="hardAlpha"/>
<feOffset dy="4"/>
<feGaussianBlur stdDeviation="5"/>
<feComposite in2="hardAlpha" operator="out"/>
<feColorMatrix type="matrix" values="0 0 0 0 0.180392 0 0 0 0 0.14902 0 0 0 0 0.239216 0 0 0 0.2 0"/>
<feBlend mode="normal" in2="BackgroundImageFix" result="effect1_dropShadow_8003_2570"/>
<feBlend mode="normal" in="SourceGraphic" in2="effect1_dropShadow_8003_2570" result="shape"/>
</filter>
<filter id="filter1_d_8003_2570" x="26" y="24" width="48" height="48" filterUnits="userSpaceOnUse" color-interpolation-filters="sRGB">
<feFlood flood-opacity="0" result="BackgroundImageFix"/>
<feColorMatrix in="SourceAlpha" type="matrix" values="0 0 0 0 0 0 0 0 0 0 0 0 0 0 0 0 0 0 127 0" result="hardAlpha"/>
<feOffset dy="2"/>
<feGaussianBlur stdDeviation="2"/>
<feColorMatrix type="matrix" values="0 0 0 0 0.180392 0 0 0 0 0.14902 0 0 0 0 0.239216 0 0 0 0.16 0"/>
<feBlend mode="normal" in2="BackgroundImageFix" result="effect1_dropShadow_8003_2570"/>
<feBlend mode="normal" in="SourceGraphic" in2="effect1_dropShadow_8003_2570" result="shape"/>
</filter>
</defs>
</svg>
