<svg width="285" height="138" viewBox="0 0 285 138" fill="none" xmlns="http://www.w3.org/2000/svg">
<g filter="url(#filter0_d_8003_4522)">
<path d="M10 12C10 8.68629 12.6863 6 16 6H269C272.314 6 275 8.68629 275 12V118C275 121.314 272.314 124 269 124H16C12.6863 124 10 121.314 10 118V12Z" fill="white" shape-rendering="crispEdges"/>
<path d="M31.321 42V31.0909H35.0071C35.8629 31.0909 36.5625 31.2454 37.1058 31.5543C37.6527 31.8597 38.0575 32.2734 38.3203 32.7955C38.5831 33.3175 38.7145 33.8999 38.7145 34.5426C38.7145 35.1854 38.5831 35.7695 38.3203 36.2951C38.0611 36.8207 37.6598 37.2397 37.1165 37.5522C36.5732 37.8612 35.8771 38.0156 35.0284 38.0156H32.3864V36.8438H34.9858C35.5717 36.8438 36.0423 36.7425 36.3974 36.5401C36.7525 36.3377 37.0099 36.0643 37.1697 35.7198C37.3331 35.3718 37.4148 34.9794 37.4148 34.5426C37.4148 34.1058 37.3331 33.7152 37.1697 33.3707C37.0099 33.0263 36.7507 32.7564 36.392 32.5611C36.0334 32.3622 35.5575 32.2628 34.9645 32.2628H32.642V42H31.321ZM43.0797 42.1918C42.5613 42.1918 42.0907 42.0941 41.6681 41.8988C41.2456 41.6999 40.91 41.4141 40.6614 41.0412C40.4128 40.6648 40.2885 40.2102 40.2885 39.6776C40.2885 39.2088 40.3809 38.8288 40.5655 38.5376C40.7502 38.2429 40.997 38.0121 41.3059 37.8452C41.6149 37.6783 41.9558 37.554 42.3287 37.4723C42.7051 37.3871 43.0833 37.3196 43.4632 37.2699C43.9604 37.206 44.3635 37.158 44.6724 37.1261C44.9849 37.0906 45.2122 37.032 45.3542 36.9503C45.4998 36.8686 45.5726 36.7266 45.5726 36.5241V36.4815C45.5726 35.956 45.4288 35.5476 45.1412 35.2564C44.8571 34.9652 44.4256 34.8196 43.8468 34.8196C43.2466 34.8196 42.7761 34.951 42.4352 35.2138C42.0943 35.4766 41.8546 35.7571 41.7161 36.0554L40.5229 35.6293C40.736 35.1321 41.0201 34.745 41.3752 34.468C41.7338 34.1875 42.1245 33.9922 42.5471 33.8821C42.9732 33.7685 43.3922 33.7116 43.8042 33.7116C44.0669 33.7116 44.3688 33.7436 44.7097 33.8075C45.0542 33.8679 45.3862 33.994 45.7058 34.1857C46.0289 34.3775 46.2971 34.6669 46.5101 35.054C46.7232 35.4411 46.8297 35.9595 46.8297 36.6094V42H45.5726V40.892H45.5087C45.4235 41.0696 45.2814 41.2596 45.0826 41.462C44.8837 41.6644 44.6191 41.8366 44.2889 41.9787C43.9586 42.1207 43.5556 42.1918 43.0797 42.1918ZM43.2715 41.0625C43.7686 41.0625 44.1877 40.9648 44.5286 40.7695C44.873 40.5742 45.1323 40.3221 45.3063 40.0131C45.4838 39.7042 45.5726 39.3793 45.5726 39.0384V37.8878C45.5194 37.9517 45.4022 38.0103 45.2211 38.0636C45.0435 38.1133 44.8375 38.1577 44.6032 38.1967C44.3723 38.2322 44.1468 38.2642 43.9267 38.2926C43.71 38.3175 43.5343 38.3388 43.3993 38.3565C43.0726 38.3991 42.7672 38.4684 42.4831 38.5643C42.2026 38.6566 41.9753 38.7969 41.8013 38.9851C41.6309 39.1697 41.5456 39.4219 41.5456 39.7415C41.5456 40.1783 41.7072 40.5085 42.0304 40.7322C42.3571 40.9524 42.7708 41.0625 43.2715 41.0625ZM49.1242 42V33.8182H50.3813V42H49.1242ZM49.7634 32.4545C49.5184 32.4545 49.3071 32.3711 49.1295 32.2042C48.9555 32.0373 48.8685 31.8366 48.8685 31.6023C48.8685 31.3679 48.9555 31.1673 49.1295 31.0004C49.3071 30.8335 49.5184 30.75 49.7634 30.75C50.0084 30.75 50.218 30.8335 50.392 31.0004C50.5695 31.1673 50.6583 31.3679 50.6583 31.6023C50.6583 31.8366 50.5695 32.0373 50.392 32.2042C50.218 32.3711 50.0084 32.4545 49.7634 32.4545ZM55.7733 42.1705C55.0914 42.1705 54.4895 41.9982 53.9675 41.6538C53.4455 41.3058 53.0371 40.8157 52.7424 40.1836C52.4476 39.5479 52.3002 38.7969 52.3002 37.9304C52.3002 37.071 52.4476 36.3253 52.7424 35.6932C53.0371 35.0611 53.4473 34.5728 53.9728 34.2283C54.4984 33.8839 55.1056 33.7116 55.7946 33.7116C56.3272 33.7116 56.748 33.8004 57.057 33.978C57.3695 34.152 57.6074 34.3509 57.7708 34.5746C57.9377 34.7947 58.0673 34.9759 58.1596 35.1179H58.2662V31.0909H59.5233V42H58.3088V40.7429H58.1596C58.0673 40.892 57.9359 41.0803 57.7654 41.3075C57.595 41.5312 57.3517 41.7319 57.0357 41.9094C56.7196 42.0835 56.2988 42.1705 55.7733 42.1705ZM55.9437 41.0412C56.448 41.0412 56.8741 40.9098 57.2221 40.647C57.5701 40.3807 57.8347 40.0131 58.0158 39.5444C58.1969 39.0721 58.2875 38.527 58.2875 37.9091C58.2875 37.2983 58.1987 36.7638 58.0211 36.3058C57.8436 35.8441 57.5808 35.4854 57.2328 35.2298C56.8848 34.9705 56.4551 34.8409 55.9437 34.8409C55.411 34.8409 54.9672 34.9776 54.612 35.2511C54.2605 35.521 53.9959 35.8885 53.8184 36.3537C53.6444 36.8153 53.5574 37.3338 53.5574 37.9091C53.5574 38.4915 53.6461 39.0206 53.8237 39.4964C54.0048 39.9687 54.2711 40.3452 54.6227 40.6257C54.9778 40.9027 55.4181 41.0412 55.9437 41.0412ZM73.5485 31.0909H74.8695V38.3139C74.8695 39.0597 74.6937 39.7255 74.3422 40.3114C73.9941 40.8938 73.5023 41.3537 72.8667 41.6911C72.231 42.0249 71.4853 42.1918 70.6294 42.1918C69.7736 42.1918 69.0279 42.0249 68.3922 41.6911C67.7566 41.3537 67.263 40.8938 66.9114 40.3114C66.5634 39.7255 66.3894 39.0597 66.3894 38.3139V31.0909H67.7104V38.2074C67.7104 38.7401 67.8276 39.2141 68.062 39.6296C68.2963 40.0415 68.6301 40.3665 69.0634 40.6044C69.5002 40.8388 70.0222 40.956 70.6294 40.956C71.2367 40.956 71.7587 40.8388 72.1955 40.6044C72.6323 40.3665 72.9661 40.0415 73.1969 39.6296C73.4313 39.2141 73.5485 38.7401 73.5485 38.2074V31.0909ZM83.1325 35.6506L82.0033 35.9702C81.9323 35.782 81.8275 35.5991 81.689 35.4215C81.5541 35.2404 81.3694 35.0913 81.135 34.9741C80.9007 34.8569 80.6006 34.7983 80.2348 34.7983C79.7341 34.7983 79.3169 34.9137 78.983 35.1445C78.6528 35.3718 78.4877 35.6612 78.4877 36.0128C78.4877 36.3253 78.6013 36.5721 78.8286 36.7532C79.0558 36.9343 79.411 37.0852 79.8939 37.206L81.1084 37.5043C81.8399 37.6818 82.385 37.9535 82.7437 38.3192C83.1024 38.6815 83.2817 39.1484 83.2817 39.7202C83.2817 40.1889 83.1468 40.608 82.8769 40.9773C82.6105 41.3466 82.2377 41.6378 81.7583 41.8509C81.2789 42.0639 80.7213 42.1705 80.0857 42.1705C79.2512 42.1705 78.5605 41.9893 78.0136 41.6271C77.4667 41.2649 77.1205 40.7358 76.9749 40.0398L78.1681 39.7415C78.2817 40.1818 78.4965 40.5121 78.8126 40.7322C79.1322 40.9524 79.5494 41.0625 80.0644 41.0625C80.6503 41.0625 81.1155 40.9382 81.46 40.6896C81.808 40.4375 81.982 40.1357 81.982 39.7841C81.982 39.5 81.8825 39.2621 81.6837 39.0703C81.4848 38.875 81.1794 38.7294 80.7675 38.6335L79.4039 38.3139C78.6546 38.1364 78.1041 37.8612 77.7526 37.4883C77.4046 37.1119 77.2306 36.6413 77.2306 36.0767C77.2306 35.6151 77.3602 35.2067 77.6194 34.8516C77.8822 34.4964 78.2391 34.2177 78.6901 34.0153C79.1446 33.8129 79.6595 33.7116 80.2348 33.7116C81.0445 33.7116 81.6801 33.8892 82.1418 34.2443C82.607 34.5994 82.9372 35.0682 83.1325 35.6506ZM88.6044 42.1705C87.8161 42.1705 87.136 41.9964 86.5643 41.6484C85.9961 41.2969 85.5575 40.8068 85.2486 40.1783C84.9432 39.5462 84.7905 38.8111 84.7905 37.973C84.7905 37.1349 84.9432 36.3963 85.2486 35.7571C85.5575 35.1143 85.9872 34.6136 86.5376 34.255C87.0916 33.8928 87.7379 33.7116 88.4766 33.7116C88.9027 33.7116 89.3235 33.7827 89.739 33.9247C90.1545 34.0668 90.5327 34.2976 90.8736 34.6172C91.2145 34.9332 91.4862 35.3523 91.6886 35.8743C91.891 36.3963 91.9922 37.0391 91.9922 37.8026V38.3352H85.6854V37.2486H90.7138C90.7138 36.7869 90.6214 36.375 90.4368 36.0128C90.2557 35.6506 89.9964 35.3647 89.6591 35.1552C89.3253 34.9457 88.9311 34.8409 88.4766 34.8409C87.9759 34.8409 87.5426 34.9652 87.1768 35.2138C86.8146 35.4588 86.5359 35.7784 86.3406 36.1726C86.1452 36.5668 86.0476 36.9893 86.0476 37.4403V38.1648C86.0476 38.7827 86.1541 39.3065 86.3672 39.7362C86.5838 40.1623 86.8839 40.4872 87.2674 40.7109C87.6509 40.9311 88.0966 41.0412 88.6044 41.0412C88.9347 41.0412 89.233 40.995 89.4993 40.9027C89.7692 40.8068 90.0018 40.6648 90.1971 40.4766C90.3924 40.2848 90.5433 40.0469 90.6499 39.7628L91.8643 40.1037C91.7365 40.5156 91.5217 40.8778 91.2198 41.1903C90.918 41.4993 90.5451 41.7408 90.1012 41.9148C89.6573 42.0852 89.1584 42.1705 88.6044 42.1705ZM93.9045 42V33.8182H95.119V35.054H95.2042C95.3533 34.6491 95.6232 34.3207 96.0138 34.0685C96.4045 33.8164 96.8448 33.6903 97.3349 33.6903C97.4272 33.6903 97.5426 33.6921 97.6811 33.6957C97.8196 33.6992 97.9244 33.7045 97.9954 33.7116V34.9901C97.9528 34.9794 97.8551 34.9634 97.7024 34.9421C97.5533 34.9173 97.3952 34.9048 97.2283 34.9048C96.8306 34.9048 96.4755 34.9883 96.163 35.1552C95.854 35.3185 95.609 35.5458 95.4279 35.837C95.2504 36.1246 95.1616 36.4531 95.1616 36.8224V42H93.9045ZM105.281 35.6506L104.152 35.9702C104.081 35.782 103.976 35.5991 103.837 35.4215C103.703 35.2404 103.518 35.0913 103.283 34.9741C103.049 34.8569 102.749 34.7983 102.383 34.7983C101.883 34.7983 101.465 34.9137 101.131 35.1445C100.801 35.3718 100.636 35.6612 100.636 36.0128C100.636 36.3253 100.75 36.5721 100.977 36.7532C101.204 36.9343 101.559 37.0852 102.042 37.206L103.257 37.5043C103.988 37.6818 104.533 37.9535 104.892 38.3192C105.251 38.6815 105.43 39.1484 105.43 39.7202C105.43 40.1889 105.295 40.608 105.025 40.9773C104.759 41.3466 104.386 41.6378 103.907 41.8509C103.427 42.0639 102.87 42.1705 102.234 42.1705C101.4 42.1705 100.709 41.9893 100.162 41.6271C99.6151 41.2649 99.2689 40.7358 99.1233 40.0398L100.316 39.7415C100.43 40.1818 100.645 40.5121 100.961 40.7322C101.281 40.9524 101.698 41.0625 102.213 41.0625C102.799 41.0625 103.264 40.9382 103.608 40.6896C103.956 40.4375 104.13 40.1357 104.13 39.7841C104.13 39.5 104.031 39.2621 103.832 39.0703C103.633 38.875 103.328 38.7294 102.916 38.6335L101.552 38.3139C100.803 38.1364 100.253 37.8612 99.901 37.4883C99.553 37.1119 99.379 36.6413 99.379 36.0767C99.379 35.6151 99.5086 35.2067 99.7678 34.8516C100.031 34.4964 100.388 34.2177 100.839 34.0153C101.293 33.8129 101.808 33.7116 102.383 33.7116C103.193 33.7116 103.829 33.8892 104.29 34.2443C104.755 34.5994 105.086 35.0682 105.281 35.6506Z" fill="#2E263D" fill-opacity="0.9"/>
<path d="M30.9844 70.4432V68.8452L36.6413 59.9091H37.9006V62.2614H37.1016L33.0554 68.6662V68.7685H40.8089V70.4432H30.9844ZM37.1911 73V69.9574L37.2038 69.2287V59.9091H39.0767V73H37.1911ZM45.0565 71.2102L44.9606 71.907C44.8967 72.4183 44.788 72.951 44.6346 73.505C44.4854 74.0632 44.3299 74.581 44.168 75.0582C44.0103 75.5355 43.8803 75.9148 43.7781 76.196H42.4229C42.4783 75.9318 42.555 75.5739 42.6531 75.1222C42.7511 74.6747 42.8469 74.174 42.9407 73.62C43.0344 73.0661 43.1048 72.5014 43.1516 71.9261L43.2156 71.2102H45.0565ZM51.84 73.179C51.0389 73.179 50.3187 73.0256 49.6795 72.7188C49.0446 72.4077 48.5375 71.9815 48.1582 71.4403C47.7789 70.8991 47.5765 70.2812 47.551 69.5866H49.4686C49.5154 70.1491 49.7647 70.6115 50.2164 70.9737C50.6681 71.3359 51.2093 71.517 51.84 71.517C52.3429 71.517 52.7882 71.402 53.176 71.1719C53.568 70.9375 53.8748 70.6158 54.0964 70.2067C54.3223 69.7976 54.4352 69.331 54.4352 68.8068C54.4352 68.2741 54.3201 67.799 54.09 67.3814C53.8599 66.9638 53.5424 66.6357 53.1376 66.397C52.737 66.1584 52.2768 66.0369 51.7569 66.0327C51.3606 66.0327 50.9622 66.1009 50.5616 66.2372C50.161 66.3736 49.8372 66.5526 49.59 66.7741L47.7811 66.5057L48.5162 59.9091H55.7136V61.603H50.1589L49.7434 65.2656H49.8201C50.0758 65.0185 50.4146 64.8118 50.8365 64.6456C51.2626 64.4794 51.7186 64.3963 52.2044 64.3963C53.0012 64.3963 53.7108 64.5859 54.3329 64.9652C54.9593 65.3445 55.4515 65.8622 55.8095 66.5185C56.1717 67.1705 56.3507 67.9205 56.3464 68.7685C56.3507 69.6165 56.1589 70.3729 55.7711 71.0376C55.3876 71.7024 54.8549 72.2266 54.1731 72.6101C53.4956 72.9893 52.7179 73.179 51.84 73.179ZM63.2514 73.179C62.6676 73.1705 62.0923 73.0639 61.5256 72.8594C60.9631 72.6548 60.4517 72.3139 59.9915 71.8366C59.5313 71.3594 59.1626 70.718 58.8857 69.9126C58.6129 69.1072 58.4766 68.1016 58.4766 66.8956C58.4766 65.7536 58.5895 64.7393 58.8153 63.853C59.0455 62.9666 59.3757 62.2188 59.8061 61.6094C60.2365 60.9957 60.7564 60.5291 61.3658 60.2095C61.9751 59.8899 62.6591 59.7301 63.4176 59.7301C64.1974 59.7301 64.8899 59.8835 65.495 60.1903C66.1001 60.4972 66.5902 60.9212 66.9652 61.4624C67.3445 62.0036 67.5852 62.6193 67.6875 63.3097H65.7379C65.6058 62.7642 65.3438 62.3189 64.9517 61.9737C64.5597 61.6286 64.0483 61.456 63.4176 61.456C62.4588 61.456 61.7109 61.8736 61.174 62.7088C60.6413 63.544 60.3729 64.7053 60.3686 66.1925H60.4645C60.6903 65.8217 60.9673 65.5064 61.2955 65.2464C61.6278 64.9822 61.9986 64.7798 62.4077 64.6392C62.821 64.4943 63.2557 64.4219 63.7116 64.4219C64.4702 64.4219 65.1563 64.6072 65.7699 64.978C66.3878 65.3445 66.88 65.8516 67.2464 66.4993C67.6129 67.147 67.7962 67.8885 67.7962 68.7237C67.7962 69.5589 67.6065 70.3153 67.2273 70.9929C66.8523 71.6705 66.3239 72.2074 65.642 72.6037C64.9602 72.9957 64.1634 73.1875 63.2514 73.179ZM63.245 71.517C63.7479 71.517 64.1974 71.3935 64.5938 71.1463C64.9901 70.8991 65.3033 70.5668 65.5334 70.1491C65.7635 69.7315 65.8786 69.2649 65.8786 68.7493C65.8786 68.2464 65.7656 67.7884 65.5398 67.375C65.3182 66.9616 65.0114 66.6335 64.6193 66.3906C64.2315 66.1477 63.7884 66.0263 63.2898 66.0263C62.9105 66.0263 62.5589 66.0987 62.2351 66.2436C61.9155 66.3885 61.6342 66.5888 61.3913 66.8445C61.1484 67.1001 60.9567 67.3942 60.8161 67.7266C60.6797 68.0547 60.6115 68.402 60.6115 68.7685C60.6115 69.2585 60.7244 69.7124 60.9503 70.13C61.1804 70.5476 61.4936 70.8842 61.8899 71.1399C62.2905 71.3913 62.7422 71.517 63.245 71.517ZM70.5655 73L76.28 61.6989V61.603H69.6706V59.9091H78.3255V61.6605L72.6301 73H70.5655Z" fill="#2E263D" fill-opacity="0.9"/>
<path d="M89.598 65.5455C89.598 64.2031 89.772 62.9691 90.12 61.8434C90.4716 60.7141 90.9723 59.6754 91.6222 58.7273H92.7301C92.4744 59.0788 92.2347 59.5121 92.011 60.027C91.7908 60.5384 91.5973 61.1012 91.4304 61.7156C91.2635 62.3263 91.1321 62.9585 91.0362 63.6119C90.9439 64.2653 90.8977 64.9098 90.8977 65.5455C90.8977 66.3906 90.9794 67.2482 91.1428 68.1183C91.3061 68.9883 91.5263 69.7962 91.8033 70.5419C92.0803 71.2876 92.3892 71.8949 92.7301 72.3636H91.6222C90.9723 71.4155 90.4716 70.3786 90.12 69.2528C89.772 68.1236 89.598 66.8878 89.598 65.5455ZM97.7812 69.0824V62.0511H98.9743V69.0824H97.7812ZM94.8621 66.1634V64.9702H101.893V66.1634H94.8621ZM108.287 60.0909V71H106.966V61.4759H106.902L104.238 63.2443V61.902L106.966 60.0909H108.287ZM114.919 71.1491C114.187 71.1491 113.541 71.0195 112.98 70.7603C112.422 70.4975 111.987 70.1371 111.675 69.679C111.362 69.2173 111.208 68.6918 111.211 68.1023C111.208 67.6406 111.298 67.2145 111.483 66.8239C111.667 66.4297 111.92 66.1012 112.239 65.8384C112.562 65.5721 112.923 65.4034 113.32 65.3324V65.2685C112.798 65.1335 112.383 64.8406 112.074 64.3896C111.765 63.935 111.612 63.4183 111.616 62.8395C111.612 62.2855 111.753 61.7901 112.037 61.3533C112.321 60.9165 112.711 60.5721 113.209 60.32C113.709 60.0678 114.279 59.9418 114.919 59.9418C115.551 59.9418 116.115 60.0678 116.612 60.32C117.11 60.5721 117.5 60.9165 117.784 61.3533C118.072 61.7901 118.218 62.2855 118.221 62.8395C118.218 63.4183 118.059 63.935 117.747 64.3896C117.438 64.8406 117.028 65.1335 116.517 65.2685V65.3324C116.911 65.4034 117.266 65.5721 117.582 65.8384C117.898 66.1012 118.15 66.4297 118.338 66.8239C118.526 67.2145 118.622 67.6406 118.626 68.1023C118.622 68.6918 118.463 69.2173 118.146 69.679C117.834 70.1371 117.399 70.4975 116.841 70.7603C116.287 71.0195 115.646 71.1491 114.919 71.1491ZM114.919 69.9773C115.412 69.9773 115.838 69.8974 116.197 69.7376C116.556 69.5778 116.833 69.3523 117.028 69.0611C117.223 68.7699 117.323 68.429 117.326 68.0384C117.323 67.6264 117.216 67.2624 117.007 66.9464C116.797 66.6303 116.511 66.3817 116.149 66.2006C115.79 66.0195 115.38 65.929 114.919 65.929C114.453 65.929 114.038 66.0195 113.672 66.2006C113.31 66.3817 113.024 66.6303 112.814 66.9464C112.608 67.2624 112.507 67.6264 112.511 68.0384C112.507 68.429 112.601 68.7699 112.793 69.0611C112.988 69.3523 113.267 69.5778 113.629 69.7376C113.992 69.8974 114.421 69.9773 114.919 69.9773ZM114.919 64.7997C115.309 64.7997 115.655 64.7216 115.957 64.5653C116.263 64.4091 116.502 64.1907 116.676 63.9102C116.85 63.6296 116.939 63.3011 116.943 62.9247C116.939 62.5554 116.852 62.234 116.682 61.9606C116.511 61.6836 116.275 61.4705 115.973 61.3214C115.671 61.1687 115.32 61.0923 114.919 61.0923C114.51 61.0923 114.153 61.1687 113.848 61.3214C113.542 61.4705 113.306 61.6836 113.139 61.9606C112.972 62.234 112.891 62.5554 112.894 62.9247C112.891 63.3011 112.974 63.6296 113.145 63.9102C113.319 64.1907 113.558 64.4091 113.864 64.5653C114.169 64.7216 114.521 64.7997 114.919 64.7997ZM126.228 68.9545V68.3793C126.228 67.9815 126.31 67.6175 126.473 67.2873C126.64 66.9535 126.882 66.6871 127.198 66.4883C127.517 66.2859 127.905 66.1847 128.359 66.1847C128.821 66.1847 129.208 66.2859 129.52 66.4883C129.833 66.6871 130.069 66.9535 130.229 67.2873C130.389 67.6175 130.468 67.9815 130.468 68.3793V68.9545C130.468 69.3523 130.387 69.718 130.223 70.0518C130.064 70.3821 129.826 70.6484 129.51 70.8509C129.197 71.0497 128.814 71.1491 128.359 71.1491C127.897 71.1491 127.509 71.0497 127.193 70.8509C126.877 70.6484 126.637 70.3821 126.473 70.0518C126.31 69.718 126.228 69.3523 126.228 68.9545ZM127.315 68.3793V68.9545C127.315 69.2848 127.393 69.5813 127.549 69.8441C127.706 70.1033 127.976 70.233 128.359 70.233C128.732 70.233 128.995 70.1033 129.147 69.8441C129.304 69.5813 129.382 69.2848 129.382 68.9545V68.3793C129.382 68.049 129.307 67.7543 129.158 67.495C129.009 67.2322 128.743 67.1009 128.359 67.1009C127.986 67.1009 127.718 67.2322 127.555 67.495C127.395 67.7543 127.315 68.049 127.315 68.3793ZM120.795 62.7116V62.1364C120.795 61.7386 120.877 61.3746 121.04 61.0444C121.207 60.7106 121.449 60.4442 121.765 60.2454C122.084 60.043 122.471 59.9418 122.926 59.9418C123.388 59.9418 123.775 60.043 124.087 60.2454C124.4 60.4442 124.636 60.7106 124.796 61.0444C124.955 61.3746 125.035 61.7386 125.035 62.1364V62.7116C125.035 63.1094 124.954 63.4751 124.79 63.8089C124.63 64.1392 124.392 64.4055 124.076 64.608C123.764 64.8068 123.38 64.9062 122.926 64.9062C122.464 64.9062 122.075 64.8068 121.759 64.608C121.443 64.4055 121.204 64.1392 121.04 63.8089C120.877 63.4751 120.795 63.1094 120.795 62.7116ZM121.882 62.1364V62.7116C121.882 63.0419 121.96 63.3384 122.116 63.6012C122.272 63.8604 122.542 63.9901 122.926 63.9901C123.299 63.9901 123.562 63.8604 123.714 63.6012C123.87 63.3384 123.949 63.0419 123.949 62.7116V62.1364C123.949 61.8061 123.874 61.5114 123.725 61.2521C123.576 60.9893 123.309 60.858 122.926 60.858C122.553 60.858 122.285 60.9893 122.122 61.2521C121.962 61.5114 121.882 61.8061 121.882 62.1364ZM121.2 71L128.7 60.0909H129.915L122.415 71H121.2ZM135.561 65.5455C135.561 66.8878 135.385 68.1236 135.033 69.2528C134.685 70.3786 134.187 71.4155 133.537 72.3636H132.429C132.684 72.0121 132.922 71.5788 133.142 71.0639C133.366 70.5526 133.562 69.9915 133.728 69.3807C133.895 68.7663 134.025 68.1325 134.117 67.479C134.213 66.8221 134.261 66.1776 134.261 65.5455C134.261 64.7003 134.179 63.8427 134.016 62.9727C133.853 62.1026 133.633 61.2947 133.356 60.549C133.079 59.8033 132.77 59.196 132.429 58.7273H133.537C134.187 59.6754 134.685 60.7141 135.033 61.8434C135.385 62.9691 135.561 64.2031 135.561 65.5455Z" fill="#56CA00"/>
<path d="M31.1449 99V89.5455H32.2898V97.9844H36.6847V99H31.1449ZM40.3963 99.1662C39.947 99.1662 39.5392 99.0816 39.1729 98.9123C38.8067 98.7399 38.5159 98.4922 38.3004 98.169C38.085 97.8428 37.9773 97.4489 37.9773 96.9872C37.9773 96.581 38.0573 96.2517 38.2173 95.9993C38.3774 95.7438 38.5913 95.5438 38.859 95.3991C39.1268 95.2545 39.4222 95.1468 39.7454 95.076C40.0716 95.0021 40.3994 94.9437 40.7287 94.9006C41.1596 94.8452 41.5089 94.8036 41.7766 94.7759C42.0475 94.7451 42.2444 94.6944 42.3675 94.6236C42.4937 94.5528 42.5568 94.4297 42.5568 94.2543V94.2173C42.5568 93.7618 42.4322 93.4079 42.1829 93.1555C41.9367 92.9032 41.5627 92.777 41.0611 92.777C40.541 92.777 40.1332 92.8909 39.8377 93.1186C39.5423 93.3464 39.3345 93.5895 39.2145 93.848L38.1804 93.4787C38.3651 93.0478 38.6113 92.7124 38.919 92.4723C39.2299 92.2292 39.5684 92.0599 39.9347 91.9645C40.304 91.866 40.6671 91.8168 41.0241 91.8168C41.2519 91.8168 41.5135 91.8445 41.8089 91.8999C42.1075 91.9522 42.3952 92.0614 42.6722 92.2276C42.9523 92.3938 43.1847 92.6446 43.3693 92.9801C43.554 93.3156 43.6463 93.7649 43.6463 94.3281V99H42.5568V98.0398H42.5014C42.4276 98.1937 42.3045 98.3583 42.1321 98.5337C41.9598 98.7092 41.7305 98.8584 41.4442 98.9815C41.158 99.1046 40.8087 99.1662 40.3963 99.1662ZM40.5625 98.1875C40.9934 98.1875 41.3565 98.1029 41.652 97.9336C41.9505 97.7643 42.1752 97.5458 42.326 97.2781C42.4799 97.0103 42.5568 96.7287 42.5568 96.4332V95.4361C42.5107 95.4915 42.4091 95.5423 42.2521 95.5884C42.0982 95.6315 41.9197 95.67 41.7166 95.7038C41.5166 95.7346 41.3211 95.7623 41.1303 95.7869C40.9426 95.8085 40.7902 95.8269 40.6733 95.8423C40.3902 95.8793 40.1255 95.9393 39.8793 96.0224C39.6361 96.1024 39.4392 96.224 39.2884 96.3871C39.1406 96.5471 39.0668 96.7656 39.0668 97.0426C39.0668 97.4212 39.2068 97.7074 39.4869 97.9013C39.77 98.0921 40.1286 98.1875 40.5625 98.1875ZM50.6576 93.4972L49.6789 93.7741C49.6173 93.611 49.5265 93.4525 49.4065 93.2987C49.2896 93.1417 49.1295 93.0124 48.9264 92.9109C48.7233 92.8093 48.4632 92.7585 48.1462 92.7585C47.7123 92.7585 47.3506 92.8585 47.0613 93.0586C46.7751 93.2556 46.632 93.5064 46.632 93.8111C46.632 94.0819 46.7305 94.2958 46.9275 94.4528C47.1244 94.6097 47.4322 94.7405 47.8508 94.8452L48.9033 95.1037C49.5373 95.2576 50.0097 95.493 50.3206 95.81C50.6314 96.1239 50.7868 96.5286 50.7868 97.0241C50.7868 97.4304 50.6699 97.7936 50.436 98.1136C50.2052 98.4337 49.882 98.6861 49.4665 98.8707C49.051 99.0554 48.5679 99.1477 48.017 99.1477C47.2937 99.1477 46.6951 98.9908 46.2211 98.6768C45.7472 98.3629 45.4471 97.9044 45.3209 97.3011L46.355 97.0426C46.4535 97.4242 46.6397 97.7105 46.9136 97.9013C47.1906 98.0921 47.5522 98.1875 47.9985 98.1875C48.5063 98.1875 48.9095 98.0798 49.208 97.8643C49.5096 97.6458 49.6604 97.3842 49.6604 97.0795C49.6604 96.8333 49.5742 96.6271 49.4019 96.4609C49.2296 96.2917 48.9649 96.1655 48.6079 96.0824L47.426 95.8054C46.7767 95.6515 46.2996 95.413 45.9949 95.0898C45.6933 94.7636 45.5425 94.3558 45.5425 93.8665C45.5425 93.4664 45.6549 93.1125 45.8795 92.8047C46.1073 92.4969 46.4166 92.2553 46.8074 92.0799C47.2014 91.9045 47.6476 91.8168 48.1462 91.8168C48.8479 91.8168 49.3988 91.9706 49.7989 92.2784C50.2021 92.5862 50.4883 92.9924 50.6576 93.4972ZM55.5107 91.9091V92.8324H51.8359V91.9091H55.5107ZM52.907 90.2102H53.9964V96.9688C53.9964 97.2765 54.0411 97.5073 54.1303 97.6612C54.2227 97.812 54.3396 97.9136 54.4812 97.9659C54.6258 98.0152 54.7782 98.0398 54.9382 98.0398C55.0582 98.0398 55.1567 98.0336 55.2337 98.0213C55.3106 98.0059 55.3722 97.9936 55.4183 97.9844L55.6399 98.9631C55.5661 98.9908 55.4629 99.0185 55.3306 99.0462C55.1983 99.0769 55.0305 99.0923 54.8274 99.0923C54.5196 99.0923 54.218 99.0262 53.9226 98.8938C53.6302 98.7615 53.3871 98.5599 53.1932 98.2891C53.0024 98.0182 52.907 97.6766 52.907 97.2642V90.2102ZM62.4123 99L60.2518 91.9091H61.3967L62.9293 97.3381H63.0032L64.5174 91.9091H65.6808L67.1765 97.3196H67.2504L68.783 91.9091H69.9279L67.7674 99H66.6964L65.1452 93.5526H65.0344L63.4833 99H62.4123ZM74.1001 99.1477C73.4168 99.1477 72.8274 98.9969 72.3319 98.6953C71.8395 98.3906 71.4594 97.9659 71.1917 97.4212C70.927 96.8733 70.7947 96.2363 70.7947 95.5099C70.7947 94.7836 70.927 94.1435 71.1917 93.5895C71.4594 93.0324 71.8318 92.5985 72.3089 92.2876C72.789 91.9737 73.3491 91.8168 73.9893 91.8168C74.3586 91.8168 74.7233 91.8783 75.0834 92.0014C75.4434 92.1245 75.7712 92.3246 76.0667 92.6016C76.3621 92.8755 76.5976 93.2386 76.773 93.6911C76.9484 94.1435 77.0361 94.7005 77.0361 95.3622V95.8239H71.5702V94.8821H75.9282C75.9282 94.482 75.8482 94.125 75.6881 93.8111C75.5312 93.4972 75.3065 93.2494 75.0141 93.0678C74.7248 92.8862 74.3832 92.7955 73.9893 92.7955C73.5553 92.7955 73.1798 92.9032 72.8628 93.1186C72.5489 93.331 72.3073 93.608 72.1381 93.9496C71.9688 94.2912 71.8841 94.6574 71.8841 95.0483V95.6761C71.8841 96.2116 71.9765 96.6656 72.1611 97.038C72.3489 97.4073 72.6089 97.6889 72.9413 97.8828C73.2737 98.0736 73.6599 98.169 74.1001 98.169C74.3863 98.169 74.6448 98.129 74.8756 98.049C75.1095 97.9659 75.3111 97.8428 75.4804 97.6797C75.6497 97.5135 75.7805 97.3073 75.8728 97.0611L76.9253 97.3565C76.8145 97.7135 76.6283 98.0275 76.3667 98.2983C76.1051 98.5661 75.782 98.7753 75.3973 98.9261C75.0126 99.0739 74.5802 99.1477 74.1001 99.1477ZM81.6665 99.1477C80.9832 99.1477 80.3939 98.9969 79.8983 98.6953C79.4059 98.3906 79.0258 97.9659 78.7581 97.4212C78.4934 96.8733 78.3611 96.2363 78.3611 95.5099C78.3611 94.7836 78.4934 94.1435 78.7581 93.5895C79.0258 93.0324 79.3982 92.5985 79.8753 92.2876C80.3554 91.9737 80.9155 91.8168 81.5557 91.8168C81.925 91.8168 82.2897 91.8783 82.6498 92.0014C83.0099 92.1245 83.3376 92.3246 83.6331 92.6016C83.9285 92.8755 84.164 93.2386 84.3394 93.6911C84.5148 94.1435 84.6025 94.7005 84.6025 95.3622V95.8239H79.1366V94.8821H83.4946C83.4946 94.482 83.4146 94.125 83.2545 93.8111C83.0976 93.4972 82.8729 93.2494 82.5805 93.0678C82.2912 92.8862 81.9496 92.7955 81.5557 92.7955C81.1217 92.7955 80.7462 92.9032 80.4292 93.1186C80.1153 93.331 79.8737 93.608 79.7045 93.9496C79.5352 94.2912 79.4506 94.6574 79.4506 95.0483V95.6761C79.4506 96.2116 79.5429 96.6656 79.7275 97.038C79.9153 97.4073 80.1753 97.6889 80.5077 97.8828C80.8401 98.0736 81.2264 98.169 81.6665 98.169C81.9527 98.169 82.2112 98.129 82.442 98.049C82.6759 97.9659 82.8775 97.8428 83.0468 97.6797C83.2161 97.5135 83.3469 97.3073 83.4392 97.0611L84.4917 97.3565C84.3809 97.7135 84.1948 98.0275 83.9331 98.2983C83.6715 98.5661 83.3484 98.7753 82.9637 98.9261C82.579 99.0739 82.1466 99.1477 81.6665 99.1477ZM87.2755 96.4148L87.257 95.0668H87.4786L90.5809 91.9091H91.9289L88.6235 95.2514H88.5312L87.2755 96.4148ZM86.2599 99V89.5455H87.3493V99H86.2599ZM90.7655 99L87.9956 95.4915L88.7712 94.7344L92.1505 99H90.7655ZM99.074 99.1662C98.6247 99.1662 98.2169 99.0816 97.8507 98.9123C97.4844 98.7399 97.1936 98.4922 96.9782 98.169C96.7627 97.8428 96.655 97.4489 96.655 96.9872C96.655 96.581 96.735 96.2517 96.8951 95.9993C97.0551 95.7438 97.269 95.5438 97.5368 95.3991C97.8045 95.2545 98.1 95.1468 98.4231 95.076C98.7493 95.0021 99.0771 94.9437 99.4064 94.9006C99.8373 94.8452 100.187 94.8036 100.454 94.7759C100.725 94.7451 100.922 94.6944 101.045 94.6236C101.171 94.5528 101.235 94.4297 101.235 94.2543V94.2173C101.235 93.7618 101.11 93.4079 100.861 93.1555C100.614 92.9032 100.24 92.777 99.7388 92.777C99.2187 92.777 98.8109 92.8909 98.5154 93.1186C98.22 93.3464 98.0123 93.5895 97.8922 93.848L96.8581 93.4787C97.0428 93.0478 97.289 92.7124 97.5968 92.4723C97.9076 92.2292 98.2462 92.0599 98.6124 91.9645C98.9817 91.866 99.3449 91.8168 99.7019 91.8168C99.9296 91.8168 100.191 91.8445 100.487 91.8999C100.785 91.9522 101.073 92.0614 101.35 92.2276C101.63 92.3938 101.862 92.6446 102.047 92.9801C102.232 93.3156 102.324 93.7649 102.324 94.3281V99H101.235V98.0398H101.179C101.105 98.1937 100.982 98.3583 100.81 98.5337C100.637 98.7092 100.408 98.8584 100.122 98.9815C99.8358 99.1046 99.4864 99.1662 99.074 99.1662ZM99.2402 98.1875C99.6711 98.1875 100.034 98.1029 100.33 97.9336C100.628 97.7643 100.853 97.5458 101.004 97.2781C101.158 97.0103 101.235 96.7287 101.235 96.4332V95.4361C101.188 95.4915 101.087 95.5423 100.93 95.5884C100.776 95.6315 100.597 95.67 100.394 95.7038C100.194 95.7346 99.9989 95.7623 99.8081 95.7869C99.6203 95.8085 99.468 95.8269 99.351 95.8423C99.0679 95.8793 98.8032 95.9393 98.557 96.0224C98.3139 96.1024 98.1169 96.224 97.9661 96.3871C97.8184 96.5471 97.7445 96.7656 97.7445 97.0426C97.7445 97.4212 97.8845 97.7074 98.1646 97.9013C98.4477 98.0921 98.8063 98.1875 99.2402 98.1875ZM105.402 94.7344V99H104.313V91.9091H105.365V93.017H105.457C105.624 92.657 105.876 92.3677 106.215 92.1491C106.553 91.9276 106.99 91.8168 107.526 91.8168C108.006 91.8168 108.426 91.9152 108.786 92.1122C109.146 92.3061 109.426 92.6016 109.626 92.9986C109.826 93.3925 109.926 93.8911 109.926 94.4943V99H108.837V94.5682C108.837 94.0111 108.692 93.5772 108.403 93.2663C108.113 92.9524 107.716 92.7955 107.212 92.7955C106.864 92.7955 106.553 92.8709 106.279 93.0217C106.008 93.1725 105.794 93.3925 105.638 93.6818C105.481 93.9711 105.402 94.322 105.402 94.7344ZM114.004 99.1662C113.554 99.1662 113.147 99.0816 112.78 98.9123C112.414 98.7399 112.123 98.4922 111.908 98.169C111.692 97.8428 111.585 97.4489 111.585 96.9872C111.585 96.581 111.665 96.2517 111.825 95.9993C111.985 95.7438 112.199 95.5438 112.466 95.3991C112.734 95.2545 113.03 95.1468 113.353 95.076C113.679 95.0021 114.007 94.9437 114.336 94.9006C114.767 94.8452 115.116 94.8036 115.384 94.7759C115.655 94.7451 115.852 94.6944 115.975 94.6236C116.101 94.5528 116.164 94.4297 116.164 94.2543V94.2173C116.164 93.7618 116.04 93.4079 115.79 93.1555C115.544 92.9032 115.17 92.777 114.669 92.777C114.148 92.777 113.741 92.8909 113.445 93.1186C113.15 93.3464 112.942 93.5895 112.822 93.848L111.788 93.4787C111.972 93.0478 112.219 92.7124 112.526 92.4723C112.837 92.2292 113.176 92.0599 113.542 91.9645C113.911 91.866 114.275 91.8168 114.632 91.8168C114.859 91.8168 115.121 91.8445 115.416 91.8999C115.715 91.9522 116.003 92.0614 116.28 92.2276C116.56 92.3938 116.792 92.6446 116.977 92.9801C117.161 93.3156 117.254 93.7649 117.254 94.3281V99H116.164V98.0398H116.109C116.035 98.1937 115.912 98.3583 115.74 98.5337C115.567 98.7092 115.338 98.8584 115.052 98.9815C114.765 99.1046 114.416 99.1662 114.004 99.1662ZM114.17 98.1875C114.601 98.1875 114.964 98.1029 115.259 97.9336C115.558 97.7643 115.783 97.5458 115.933 97.2781C116.087 97.0103 116.164 96.7287 116.164 96.4332V95.4361C116.118 95.4915 116.017 95.5423 115.86 95.5884C115.706 95.6315 115.527 95.67 115.324 95.7038C115.124 95.7346 114.929 95.7623 114.738 95.7869C114.55 95.8085 114.398 95.8269 114.281 95.8423C113.998 95.8793 113.733 95.9393 113.487 96.0224C113.244 96.1024 113.047 96.224 112.896 96.3871C112.748 96.5471 112.674 96.7656 112.674 97.0426C112.674 97.4212 112.814 97.7074 113.094 97.9013C113.377 98.0921 113.736 98.1875 114.17 98.1875ZM120.332 89.5455V99H119.242V89.5455H120.332ZM123.029 101.659C122.844 101.659 122.68 101.644 122.535 101.613C122.39 101.585 122.29 101.558 122.235 101.53L122.512 100.57C122.777 100.637 123.01 100.662 123.214 100.643C123.417 100.625 123.597 100.534 123.754 100.371C123.914 100.211 124.06 99.951 124.192 99.5909L124.395 99.0369L121.773 91.9091H122.955L124.912 97.5597H124.986L126.944 91.9091H128.126L125.116 100.034C124.98 100.4 124.812 100.703 124.612 100.944C124.412 101.187 124.18 101.367 123.915 101.484C123.654 101.601 123.358 101.659 123.029 101.659ZM132.647 91.9091V92.8324H128.973V91.9091H132.647ZM130.044 90.2102H131.133V96.9688C131.133 97.2765 131.178 97.5073 131.267 97.6612C131.359 97.812 131.476 97.9136 131.618 97.9659C131.763 98.0152 131.915 98.0398 132.075 98.0398C132.195 98.0398 132.293 98.0336 132.37 98.0213C132.447 98.0059 132.509 97.9936 132.555 97.9844L132.777 98.9631C132.703 98.9908 132.6 99.0185 132.467 99.0462C132.335 99.0769 132.167 99.0923 131.964 99.0923C131.656 99.0923 131.355 99.0262 131.059 98.8938C130.767 98.7615 130.524 98.5599 130.33 98.2891C130.139 98.0182 130.044 97.6766 130.044 97.2642V90.2102ZM134.286 99V91.9091H135.376V99H134.286ZM134.84 90.7273C134.628 90.7273 134.445 90.6549 134.291 90.5103C134.14 90.3656 134.065 90.1918 134.065 89.9886C134.065 89.7855 134.14 89.6116 134.291 89.467C134.445 89.3223 134.628 89.25 134.84 89.25C135.053 89.25 135.234 89.3223 135.385 89.467C135.539 89.6116 135.616 89.7855 135.616 89.9886C135.616 90.1918 135.539 90.3656 135.385 90.5103C135.234 90.6549 135.053 90.7273 134.84 90.7273ZM140.252 99.1477C139.587 99.1477 139.015 98.9908 138.535 98.6768C138.054 98.3629 137.685 97.9305 137.427 97.3796C137.168 96.8287 137.039 96.1993 137.039 95.4915C137.039 94.7713 137.171 94.1358 137.436 93.5849C137.704 93.0309 138.076 92.5985 138.553 92.2876C139.033 91.9737 139.593 91.8168 140.233 91.8168C140.732 91.8168 141.181 91.9091 141.581 92.0938C141.982 92.2784 142.309 92.5369 142.565 92.8693C142.82 93.2017 142.979 93.5895 143.04 94.0327H141.951C141.868 93.7095 141.683 93.4233 141.397 93.174C141.114 92.9216 140.732 92.7955 140.252 92.7955C139.827 92.7955 139.455 92.9062 139.135 93.1278C138.818 93.3464 138.57 93.6557 138.391 94.0558C138.216 94.4528 138.128 94.919 138.128 95.4545C138.128 96.0024 138.214 96.4794 138.387 96.8857C138.562 97.2919 138.808 97.6074 139.125 97.832C139.446 98.0567 139.821 98.169 140.252 98.169C140.535 98.169 140.792 98.1198 141.023 98.0213C141.254 97.9228 141.449 97.7812 141.609 97.5966C141.769 97.4119 141.883 97.1903 141.951 96.9318H143.04C142.979 97.3504 142.826 97.7274 142.583 98.0629C142.343 98.3952 142.025 98.6599 141.628 98.8569C141.234 99.0508 140.775 99.1477 140.252 99.1477ZM149.656 93.4972L148.677 93.7741C148.615 93.611 148.525 93.4525 148.405 93.2987C148.288 93.1417 148.128 93.0124 147.924 92.9109C147.721 92.8093 147.461 92.7585 147.144 92.7585C146.71 92.7585 146.349 92.8585 146.059 93.0586C145.773 93.2556 145.63 93.5064 145.63 93.8111C145.63 94.0819 145.729 94.2958 145.926 94.4528C146.122 94.6097 146.43 94.7405 146.849 94.8452L147.901 95.1037C148.535 95.2576 149.008 95.493 149.319 95.81C149.629 96.1239 149.785 96.5286 149.785 97.0241C149.785 97.4304 149.668 97.7936 149.434 98.1136C149.203 98.4337 148.88 98.6861 148.465 98.8707C148.049 99.0554 147.566 99.1477 147.015 99.1477C146.292 99.1477 145.693 98.9908 145.219 98.6768C144.745 98.3629 144.445 97.9044 144.319 97.3011L145.353 97.0426C145.452 97.4242 145.638 97.7105 145.912 97.9013C146.189 98.0921 146.55 98.1875 146.997 98.1875C147.504 98.1875 147.908 98.0798 148.206 97.8643C148.508 97.6458 148.658 97.3842 148.658 97.0795C148.658 96.8333 148.572 96.6271 148.4 96.4609C148.228 96.2917 147.963 96.1655 147.606 96.0824L146.424 95.8054C145.775 95.6515 145.298 95.413 144.993 95.0898C144.691 94.7636 144.541 94.3558 144.541 93.8665C144.541 93.4664 144.653 93.1125 144.878 92.8047C145.105 92.4969 145.415 92.2553 145.805 92.0799C146.199 91.9045 146.646 91.8168 147.144 91.8168C147.846 91.8168 148.397 91.9706 148.797 92.2784C149.2 92.5862 149.486 92.9924 149.656 93.4972Z" fill="#2E263D" fill-opacity="0.7"/>
<path d="M213 32C213 28.6863 215.686 26 219 26H249C252.314 26 255 28.6863 255 32V62C255 65.3137 252.314 68 249 68H219C215.686 68 213 65.3137 213 62V32Z" fill="#FF4C51" fill-opacity="0.16"/>
<path d="M236.167 49.4398V51.704C235.186 51.3573 234.137 51.251 233.107 51.3939C232.077 51.5369 231.096 51.9249 230.247 52.5254C229.398 53.1259 228.705 53.9214 228.227 54.845C227.749 55.7687 227.5 56.7935 227.5 57.8335L225.333 57.8324C225.333 56.5095 225.636 55.2041 226.218 54.0163C226.8 52.8284 227.646 51.7895 228.692 50.9793C229.738 50.1691 230.955 49.609 232.251 49.3419C233.546 49.0749 234.886 49.108 236.167 49.4387V49.4398ZM234 48.0835C230.409 48.0835 227.5 45.1747 227.5 41.5835C227.5 37.9922 230.409 35.0835 234 35.0835C237.591 35.0835 240.5 37.9922 240.5 41.5835C240.5 45.1747 237.591 48.0835 234 48.0835ZM234 45.9168C236.394 45.9168 238.333 43.9777 238.333 41.5835C238.333 39.1893 236.394 37.2502 234 37.2502C231.606 37.2502 229.667 39.1893 229.667 41.5835C229.667 43.9777 231.606 45.9168 234 45.9168ZM240.5 52.4168V49.1668H242.667V52.4168H245.917V54.5835H242.667V57.8335H240.5V54.5835H237.25V52.4168H240.5Z" fill="#FF4C51"/>
</g>
<defs>
<filter id="filter0_d_8003_4522" x="0" y="0" width="285" height="138" filterUnits="userSpaceOnUse" color-interpolation-filters="sRGB">
<feFlood flood-opacity="0" result="BackgroundImageFix"/>
<feColorMatrix in="SourceAlpha" type="matrix" values="0 0 0 0 0 0 0 0 0 0 0 0 0 0 0 0 0 0 127 0" result="hardAlpha"/>
<feOffset dy="4"/>
<feGaussianBlur stdDeviation="5"/>
<feComposite in2="hardAlpha" operator="out"/>
<feColorMatrix type="matrix" values="0 0 0 0 0.180392 0 0 0 0 0.14902 0 0 0 0 0.239216 0 0 0 0.2 0"/>
<feBlend mode="normal" in2="BackgroundImageFix" result="effect1_dropShadow_8003_4522"/>
<feBlend mode="normal" in="SourceGraphic" in2="effect1_dropShadow_8003_4522" result="shape"/>
</filter>
</defs>
</svg>
