<svg width="382" height="399" viewBox="0 0 382 399" fill="none" xmlns="http://www.w3.org/2000/svg">
<g filter="url(#filter0_d_8003_5062)">
<path d="M10 12C10 8.68628 12.6863 6 16 6H365.333C368.647 6 371.333 8.68629 371.333 12V379C371.333 382.314 368.647 385 365.333 385H16C12.6863 385 10 382.314 10 379V12Z" fill="white" shape-rendering="crispEdges"/>
<path d="M31.4382 47V33.9091H36.1044C37.1229 33.9091 37.9666 34.0945 38.6357 34.4652C39.3047 34.8359 39.8054 35.343 40.1378 35.9865C40.4702 36.6257 40.6364 37.3459 40.6364 38.147C40.6364 38.9524 40.468 39.6768 40.1314 40.3203C39.799 40.9595 39.2962 41.4666 38.6229 41.8416C37.9538 42.2124 37.1122 42.3977 36.098 42.3977H32.8892V40.723H35.919C36.5625 40.723 37.0845 40.6122 37.4851 40.3906C37.8857 40.1648 38.1797 39.858 38.3672 39.4702C38.5547 39.0824 38.6484 38.6413 38.6484 38.147C38.6484 37.6527 38.5547 37.2138 38.3672 36.8303C38.1797 36.4467 37.8835 36.1463 37.4787 35.929C37.0781 35.7116 36.5497 35.603 35.8935 35.603H33.4134V47H31.4382ZM46.907 47.1982C45.9396 47.1982 45.1065 46.9915 44.4077 46.5781C43.7131 46.1605 43.1761 45.5746 42.7969 44.8203C42.4219 44.0618 42.2344 43.1733 42.2344 42.1548C42.2344 41.1491 42.4219 40.2628 42.7969 39.4957C43.1761 38.7287 43.7045 38.13 44.3821 37.6996C45.0639 37.2692 45.8608 37.054 46.7727 37.054C47.3267 37.054 47.8636 37.1456 48.3835 37.3288C48.9034 37.5121 49.37 37.7997 49.7834 38.1918C50.1967 38.5838 50.5227 39.093 50.7614 39.7195C51 40.3416 51.1193 41.098 51.1193 41.9886V42.6662H43.3146V41.2344H49.2464C49.2464 40.7315 49.1442 40.2862 48.9396 39.8984C48.7351 39.5064 48.4474 39.1974 48.0767 38.9716C47.7102 38.7457 47.2798 38.6328 46.7855 38.6328C46.2486 38.6328 45.7798 38.7649 45.3793 39.0291C44.983 39.2891 44.6761 39.63 44.4588 40.0518C44.2457 40.4695 44.1392 40.9233 44.1392 41.4134V42.532C44.1392 43.1882 44.2543 43.7464 44.4844 44.2067C44.7188 44.6669 45.0447 45.0185 45.4624 45.2614C45.88 45.5 46.3679 45.6193 46.9261 45.6193C47.2884 45.6193 47.6186 45.5682 47.9169 45.4659C48.2152 45.3594 48.473 45.2017 48.6903 44.9929C48.9077 44.7841 49.0739 44.5263 49.1889 44.2195L50.9979 44.5455C50.853 45.0781 50.593 45.5447 50.218 45.9453C49.8473 46.3416 49.3807 46.6506 48.8182 46.8722C48.2599 47.0895 47.6229 47.1982 46.907 47.1982ZM53.2399 47V37.1818H55.0872V38.7415H55.1895C55.3684 38.2131 55.6838 37.7976 56.1355 37.495C56.5914 37.1882 57.1071 37.0348 57.6824 37.0348C57.8017 37.0348 57.9423 37.0391 58.1042 37.0476C58.2704 37.0561 58.4004 37.0668 58.4941 37.0795V38.9077C58.4174 38.8864 58.2811 38.8629 58.0851 38.8374C57.889 38.8075 57.693 38.7926 57.497 38.7926C57.0453 38.7926 56.6426 38.8885 56.2889 39.0803C55.9395 39.2678 55.6625 39.5298 55.4579 39.8665C55.2534 40.1989 55.1511 40.5781 55.1511 41.0043V47H53.2399ZM65.4007 37.1818V38.7159H59.8525V37.1818H65.4007ZM61.3738 47V36.044C61.3738 35.4304 61.508 34.9212 61.7765 34.5163C62.0449 34.1072 62.4007 33.8026 62.8439 33.6023C63.2871 33.3977 63.7686 33.2955 64.2885 33.2955C64.6721 33.2955 65.0002 33.3274 65.2729 33.3913C65.5456 33.451 65.748 33.5064 65.8801 33.5575L65.4327 35.1044C65.3432 35.0788 65.2282 35.049 65.0875 35.0149C64.9469 34.9766 64.7765 34.9574 64.5762 34.9574C64.1117 34.9574 63.7793 35.0724 63.579 35.3026C63.383 35.5327 63.285 35.8651 63.285 36.2997V47H61.3738ZM71.1216 47.1982C70.2012 47.1982 69.3979 46.9872 68.7118 46.5653C68.0257 46.1435 67.4931 45.5533 67.1138 44.7947C66.7346 44.0362 66.5449 43.1499 66.5449 42.1357C66.5449 41.1172 66.7346 40.2266 67.1138 39.4638C67.4931 38.701 68.0257 38.1087 68.7118 37.6868C69.3979 37.2649 70.2012 37.054 71.1216 37.054C72.0421 37.054 72.8453 37.2649 73.5314 37.6868C74.2175 38.1087 74.7502 38.701 75.1294 39.4638C75.5087 40.2266 75.6983 41.1172 75.6983 42.1357C75.6983 43.1499 75.5087 44.0362 75.1294 44.7947C74.7502 45.5533 74.2175 46.1435 73.5314 46.5653C72.8453 46.9872 72.0421 47.1982 71.1216 47.1982ZM71.128 45.5938C71.7246 45.5938 72.2189 45.4361 72.611 45.1207C73.003 44.8054 73.2928 44.3857 73.4803 43.8615C73.6721 43.3374 73.7679 42.7599 73.7679 42.1293C73.7679 41.5028 73.6721 40.9276 73.4803 40.4034C73.2928 39.875 73.003 39.451 72.611 39.1314C72.2189 38.8118 71.7246 38.652 71.128 38.652C70.5272 38.652 70.0286 38.8118 69.6323 39.1314C69.2402 39.451 68.9483 39.875 68.7566 40.4034C68.5691 40.9276 68.4753 41.5028 68.4753 42.1293C68.4753 42.7599 68.5691 43.3374 68.7566 43.8615C68.9483 44.3857 69.2402 44.8054 69.6323 45.1207C70.0286 45.4361 70.5272 45.5938 71.128 45.5938ZM77.8317 47V37.1818H79.679V38.7415H79.7812C79.9602 38.2131 80.2756 37.7976 80.7273 37.495C81.1832 37.1882 81.6989 37.0348 82.2741 37.0348C82.3935 37.0348 82.5341 37.0391 82.696 37.0476C82.8622 37.0561 82.9922 37.0668 83.0859 37.0795V38.9077C83.0092 38.8864 82.8729 38.8629 82.6768 38.8374C82.4808 38.8075 82.2848 38.7926 82.0888 38.7926C81.6371 38.7926 81.2344 38.8885 80.8807 39.0803C80.5313 39.2678 80.2543 39.5298 80.0497 39.8665C79.8452 40.1989 79.7429 40.5781 79.7429 41.0043V47H77.8317ZM84.7399 47V37.1818H86.5744V38.7798H86.6958C86.9004 38.2386 87.2349 37.8168 87.6994 37.5142C88.1639 37.2074 88.72 37.054 89.3677 37.054C90.024 37.054 90.5737 37.2074 91.0169 37.5142C91.4643 37.821 91.7946 38.2429 92.0076 38.7798H92.1099C92.3443 38.2557 92.7172 37.8381 93.2285 37.527C93.7399 37.2116 94.3493 37.054 95.0566 37.054C95.9473 37.054 96.6738 37.3331 97.2363 37.8913C97.8031 38.4496 98.0865 39.2912 98.0865 40.4162V47H96.1752V40.5952C96.1752 39.9304 95.9941 39.4489 95.6319 39.1506C95.2697 38.8523 94.8372 38.7031 94.3343 38.7031C93.7122 38.7031 93.2285 38.8949 92.8833 39.2784C92.5382 39.6577 92.3656 40.1456 92.3656 40.7422V47H90.4608V40.4737C90.4608 39.9411 90.2946 39.5128 89.9622 39.1889C89.6298 38.8651 89.1973 38.7031 88.6646 38.7031C88.3024 38.7031 87.9679 38.799 87.661 38.9908C87.3585 39.1783 87.1135 39.4403 86.926 39.777C86.7427 40.1136 86.6511 40.5036 86.6511 40.9467V47H84.7399ZM103.505 47.2173C102.883 47.2173 102.321 47.1023 101.818 46.8722C101.315 46.6378 100.917 46.299 100.623 45.8558C100.333 45.4126 100.188 44.8693 100.188 44.2259C100.188 43.6719 100.294 43.2159 100.507 42.858C100.721 42.5 101.008 42.2166 101.37 42.0078C101.733 41.799 102.137 41.6413 102.585 41.5348C103.032 41.4283 103.488 41.3473 103.953 41.2919C104.541 41.2237 105.018 41.1683 105.385 41.1257C105.751 41.0788 106.017 41.0043 106.184 40.902C106.35 40.7997 106.433 40.6335 106.433 40.4034V40.3587C106.433 39.8004 106.275 39.3679 105.96 39.0611C105.649 38.7543 105.184 38.6009 104.566 38.6009C103.923 38.6009 103.416 38.7436 103.045 39.0291C102.679 39.3104 102.425 39.6236 102.284 39.9688L100.488 39.5597C100.701 38.9631 101.012 38.4815 101.422 38.1151C101.835 37.7443 102.31 37.4759 102.847 37.3097C103.384 37.1392 103.949 37.054 104.541 37.054C104.933 37.054 105.348 37.1009 105.787 37.1946C106.23 37.2841 106.644 37.4503 107.027 37.6932C107.415 37.9361 107.733 38.2834 107.98 38.7351C108.227 39.1825 108.35 39.7642 108.35 40.4801V47H106.484V45.6577H106.407C106.284 45.9048 106.098 46.1477 105.851 46.3864C105.604 46.625 105.287 46.8232 104.899 46.9808C104.511 47.1385 104.047 47.2173 103.505 47.2173ZM103.921 45.6832C104.449 45.6832 104.901 45.5788 105.276 45.37C105.655 45.1612 105.943 44.8885 106.139 44.5518C106.339 44.2109 106.439 43.8466 106.439 43.4588V42.1932C106.371 42.2614 106.239 42.3253 106.043 42.3849C105.851 42.4403 105.632 42.4893 105.385 42.532C105.137 42.5703 104.897 42.6065 104.662 42.6406C104.428 42.6705 104.232 42.696 104.074 42.7173C103.703 42.7642 103.365 42.843 103.058 42.9538C102.755 43.0646 102.512 43.2244 102.329 43.4332C102.15 43.6378 102.061 43.9105 102.061 44.2514C102.061 44.7244 102.235 45.0824 102.585 45.3253C102.934 45.5639 103.38 45.6832 103.921 45.6832ZM112.807 41.1705V47H110.896V37.1818H112.731V38.7798H112.852C113.078 38.2599 113.432 37.8423 113.913 37.527C114.399 37.2116 115.01 37.054 115.748 37.054C116.417 37.054 117.003 37.1946 117.506 37.4759C118.008 37.7528 118.398 38.1662 118.675 38.7159C118.952 39.2656 119.091 39.9453 119.091 40.755V47H117.18V40.9851C117.18 40.2734 116.994 39.7173 116.623 39.3168C116.253 38.9119 115.743 38.7095 115.096 38.7095C114.653 38.7095 114.258 38.8054 113.913 38.9972C113.572 39.1889 113.302 39.4702 113.101 39.8409C112.905 40.2074 112.807 40.6506 112.807 41.1705ZM125.79 47.1982C124.839 47.1982 124.021 46.983 123.335 46.5526C122.653 46.1179 122.129 45.5192 121.763 44.7564C121.396 43.9936 121.213 43.12 121.213 42.1357C121.213 41.1385 121.4 40.2585 121.775 39.4957C122.15 38.7287 122.679 38.13 123.361 37.6996C124.042 37.2692 124.846 37.054 125.77 37.054C126.516 37.054 127.181 37.1925 127.765 37.4695C128.349 37.7422 128.819 38.1257 129.177 38.62C129.54 39.1143 129.755 39.6918 129.823 40.3523H127.963C127.861 39.892 127.626 39.4957 127.26 39.1634C126.898 38.831 126.412 38.6648 125.802 38.6648C125.27 38.6648 124.803 38.8054 124.403 39.0866C124.006 39.3636 123.697 39.7599 123.476 40.2756C123.254 40.7869 123.143 41.392 123.143 42.0909C123.143 42.8068 123.252 43.4247 123.469 43.9446C123.687 44.4645 123.993 44.8672 124.39 45.1527C124.79 45.4382 125.261 45.581 125.802 45.581C126.165 45.581 126.493 45.5149 126.787 45.3828C127.085 45.2464 127.334 45.0526 127.535 44.8011C127.739 44.5497 127.882 44.2472 127.963 43.8935H129.823C129.755 44.5284 129.548 45.0952 129.203 45.5938C128.858 46.0923 128.395 46.4844 127.816 46.7699C127.241 47.0554 126.565 47.1982 125.79 47.1982ZM136.098 47.1982C135.131 47.1982 134.298 46.9915 133.599 46.5781C132.904 46.1605 132.368 45.5746 131.988 44.8203C131.613 44.0618 131.426 43.1733 131.426 42.1548C131.426 41.1491 131.613 40.2628 131.988 39.4957C132.368 38.7287 132.896 38.13 133.574 37.6996C134.255 37.2692 135.052 37.054 135.964 37.054C136.518 37.054 137.055 37.1456 137.575 37.3288C138.095 37.5121 138.561 37.7997 138.975 38.1918C139.388 38.5838 139.714 39.093 139.953 39.7195C140.191 40.3416 140.311 41.098 140.311 41.9886V42.6662H132.506V41.2344H138.438C138.438 40.7315 138.336 40.2862 138.131 39.8984C137.926 39.5064 137.639 39.1974 137.268 38.9716C136.902 38.7457 136.471 38.6328 135.977 38.6328C135.44 38.6328 134.971 38.7649 134.571 39.0291C134.174 39.2891 133.868 39.63 133.65 40.0518C133.437 40.4695 133.331 40.9233 133.331 41.4134V42.532C133.331 43.1882 133.446 43.7464 133.676 44.2067C133.91 44.6669 134.236 45.0185 134.654 45.2614C135.071 45.5 135.559 45.6193 136.118 45.6193C136.48 45.6193 136.81 45.5682 137.108 45.4659C137.407 45.3594 137.664 45.2017 137.882 44.9929C138.099 44.7841 138.265 44.5263 138.38 44.2195L140.189 44.5455C140.044 45.0781 139.784 45.5447 139.409 45.9453C139.039 46.3416 138.572 46.6506 138.01 46.8722C137.451 47.0895 136.814 47.1982 136.098 47.1982Z" fill="#2E263D" fill-opacity="0.9"/>
<path d="M339.333 29C338.508 29 337.833 29.675 337.833 30.5C337.833 31.325 338.508 32 339.333 32C340.158 32 340.833 31.325 340.833 30.5C340.833 29.675 340.158 29 339.333 29ZM339.333 44C338.508 44 337.833 44.675 337.833 45.5C337.833 46.325 338.508 47 339.333 47C340.158 47 340.833 46.325 340.833 45.5C340.833 44.675 340.158 44 339.333 44ZM339.333 36.5C338.508 36.5 337.833 37.175 337.833 38C337.833 38.825 338.508 39.5 339.333 39.5C340.158 39.5 340.833 38.825 340.833 38C340.833 37.175 340.158 36.5 339.333 36.5Z" fill="#2E263D" fill-opacity="0.9"/>
<path d="M184.02 79.5455H185.165V86.304C185.165 86.9072 185.054 87.4196 184.833 87.8413C184.611 88.2629 184.299 88.583 183.895 88.8015C183.492 89.02 183.017 89.1293 182.469 89.1293C181.952 89.1293 181.492 89.0354 181.089 88.8477C180.685 88.6568 180.368 88.386 180.138 88.0352C179.907 87.6843 179.791 87.2673 179.791 86.7841H180.918C180.918 87.0518 180.984 87.2857 181.116 87.4858C181.252 87.6828 181.436 87.8366 181.67 87.9474C181.904 88.0582 182.17 88.1136 182.469 88.1136C182.798 88.1136 183.078 88.0444 183.309 87.9059C183.54 87.7674 183.715 87.5643 183.835 87.2965C183.959 87.0257 184.02 86.6948 184.02 86.304V79.5455ZM189.398 89.1662C188.949 89.1662 188.541 89.0816 188.175 88.9123C187.809 88.7399 187.518 88.4922 187.302 88.169C187.087 87.8428 186.979 87.4489 186.979 86.9872C186.979 86.581 187.059 86.2517 187.219 85.9993C187.379 85.7438 187.593 85.5438 187.861 85.3991C188.129 85.2545 188.424 85.1468 188.747 85.076C189.074 85.0021 189.401 84.9437 189.731 84.9006C190.162 84.8452 190.511 84.8036 190.779 84.7759C191.049 84.7451 191.246 84.6944 191.369 84.6236C191.496 84.5528 191.559 84.4297 191.559 84.2543V84.2173C191.559 83.7618 191.434 83.4079 191.185 83.1555C190.939 82.9032 190.565 82.777 190.063 82.777C189.543 82.777 189.135 82.8909 188.84 83.1186C188.544 83.3464 188.336 83.5895 188.216 83.848L187.182 83.4787C187.367 83.0478 187.613 82.7124 187.921 82.4723C188.232 82.2292 188.57 82.0599 188.937 81.9645C189.306 81.866 189.669 81.8168 190.026 81.8168C190.254 81.8168 190.515 81.8445 190.811 81.8999C191.109 81.9522 191.397 82.0614 191.674 82.2276C191.954 82.3938 192.187 82.6446 192.371 82.9801C192.556 83.3156 192.648 83.7649 192.648 84.3281V89H191.559V88.0398H191.503C191.43 88.1937 191.306 88.3583 191.134 88.5337C190.962 88.7092 190.732 88.8584 190.446 88.9815C190.16 89.1046 189.811 89.1662 189.398 89.1662ZM189.564 88.1875C189.995 88.1875 190.358 88.1029 190.654 87.9336C190.952 87.7643 191.177 87.5458 191.328 87.2781C191.482 87.0103 191.559 86.7287 191.559 86.4332V85.4361C191.513 85.4915 191.411 85.5423 191.254 85.5884C191.1 85.6315 190.922 85.67 190.719 85.7038C190.519 85.7346 190.323 85.7623 190.132 85.7869C189.945 85.8085 189.792 85.8269 189.675 85.8423C189.392 85.8793 189.127 85.9393 188.881 86.0224C188.638 86.1024 188.441 86.224 188.29 86.3871C188.143 86.5471 188.069 86.7656 188.069 87.0426C188.069 87.4212 188.209 87.7074 188.489 87.9013C188.772 88.0921 189.131 88.1875 189.564 88.1875ZM195.726 84.7344V89H194.637V81.9091H195.689V83.017H195.782C195.948 82.657 196.2 82.3677 196.539 82.1491C196.877 81.9276 197.314 81.8168 197.85 81.8168C198.33 81.8168 198.75 81.9152 199.11 82.1122C199.47 82.3061 199.75 82.6016 199.95 82.9986C200.15 83.3925 200.25 83.8911 200.25 84.4943V89H199.161V84.5682C199.161 84.0111 199.016 83.5772 198.727 83.2663C198.438 82.9524 198.041 82.7955 197.536 82.7955C197.188 82.7955 196.877 82.8709 196.603 83.0217C196.333 83.1725 196.119 83.3925 195.962 83.6818C195.805 83.9711 195.726 84.322 195.726 84.7344Z" fill="#2E263D" fill-opacity="0.4"/>
<path d="M290.02 152V142.545H295.689V143.561H291.165V146.756H295.264V147.771H291.165V152H290.02ZM299.955 152.148C299.271 152.148 298.682 151.997 298.186 151.695C297.694 151.391 297.314 150.966 297.046 150.421C296.781 149.873 296.649 149.236 296.649 148.51C296.649 147.784 296.781 147.143 297.046 146.589C297.314 146.032 297.686 145.598 298.163 145.288C298.643 144.974 299.204 144.817 299.844 144.817C300.213 144.817 300.578 144.878 300.938 145.001C301.298 145.125 301.626 145.325 301.921 145.602C302.217 145.875 302.452 146.239 302.627 146.691C302.803 147.143 302.891 147.701 302.891 148.362V148.824H297.425V147.882H301.783C301.783 147.482 301.703 147.125 301.543 146.811C301.386 146.497 301.161 146.249 300.869 146.068C300.579 145.886 300.238 145.795 299.844 145.795C299.41 145.795 299.034 145.903 298.717 146.119C298.403 146.331 298.162 146.608 297.993 146.95C297.823 147.291 297.739 147.657 297.739 148.048V148.676C297.739 149.212 297.831 149.666 298.016 150.038C298.203 150.407 298.463 150.689 298.796 150.883C299.128 151.074 299.514 151.169 299.955 151.169C300.241 151.169 300.499 151.129 300.73 151.049C300.964 150.966 301.166 150.843 301.335 150.68C301.504 150.513 301.635 150.307 301.727 150.061L302.78 150.357C302.669 150.714 302.483 151.027 302.221 151.298C301.96 151.566 301.636 151.775 301.252 151.926C300.867 152.074 300.435 152.148 299.955 152.148ZM304.696 152V142.545H305.785V146.036H305.877C305.958 145.912 306.068 145.755 306.21 145.565C306.355 145.371 306.561 145.198 306.828 145.048C307.099 144.894 307.466 144.817 307.927 144.817C308.524 144.817 309.051 144.966 309.506 145.265C309.962 145.563 310.317 145.986 310.572 146.534C310.828 147.082 310.956 147.728 310.956 148.473C310.956 149.224 310.828 149.875 310.572 150.426C310.317 150.974 309.963 151.398 309.511 151.7C309.058 151.998 308.537 152.148 307.946 152.148C307.49 152.148 307.125 152.072 306.852 151.922C306.578 151.768 306.367 151.594 306.219 151.4C306.071 151.203 305.958 151.04 305.877 150.911H305.748V152H304.696ZM305.767 148.455C305.767 148.99 305.845 149.462 306.002 149.872C306.159 150.278 306.388 150.597 306.69 150.827C306.992 151.055 307.361 151.169 307.798 151.169C308.253 151.169 308.634 151.049 308.938 150.809C309.246 150.566 309.477 150.24 309.631 149.83C309.788 149.418 309.866 148.959 309.866 148.455C309.866 147.956 309.789 147.507 309.635 147.107C309.484 146.703 309.255 146.385 308.947 146.151C308.643 145.914 308.26 145.795 307.798 145.795C307.355 145.795 306.982 145.908 306.681 146.132C306.379 146.354 306.151 146.665 305.998 147.065C305.844 147.462 305.767 147.925 305.767 148.455Z" fill="#2E263D" fill-opacity="0.4"/>
<path d="M290.531 246.545H291.898L295.111 254.393H295.221L298.435 246.545H299.801V256H298.73V248.817H298.638L295.683 256H294.649L291.694 248.817H291.602V256H290.531V246.545ZM304.035 256.166C303.586 256.166 303.178 256.082 302.812 255.912C302.446 255.74 302.155 255.492 301.94 255.169C301.724 254.843 301.616 254.449 301.616 253.987C301.616 253.581 301.696 253.252 301.856 252.999C302.017 252.744 302.23 252.544 302.498 252.399C302.766 252.254 303.061 252.147 303.385 252.076C303.711 252.002 304.039 251.944 304.368 251.901C304.799 251.845 305.148 251.804 305.416 251.776C305.687 251.745 305.884 251.694 306.007 251.624C306.133 251.553 306.196 251.43 306.196 251.254V251.217C306.196 250.762 306.071 250.408 305.822 250.156C305.576 249.903 305.202 249.777 304.7 249.777C304.18 249.777 303.772 249.891 303.477 250.119C303.181 250.346 302.974 250.589 302.854 250.848L301.82 250.479C302.004 250.048 302.25 249.712 302.558 249.472C302.869 249.229 303.208 249.06 303.574 248.964C303.943 248.866 304.306 248.817 304.663 248.817C304.891 248.817 305.153 248.844 305.448 248.9C305.747 248.952 306.034 249.061 306.311 249.228C306.591 249.394 306.824 249.645 307.008 249.98C307.193 250.316 307.285 250.765 307.285 251.328V256H306.196V255.04H306.141C306.067 255.194 305.944 255.358 305.771 255.534C305.599 255.709 305.37 255.858 305.083 255.982C304.797 256.105 304.448 256.166 304.035 256.166ZM304.202 255.188C304.633 255.188 304.996 255.103 305.291 254.934C305.59 254.764 305.814 254.546 305.965 254.278C306.119 254.01 306.196 253.729 306.196 253.433V252.436C306.15 252.491 306.048 252.542 305.891 252.588C305.737 252.632 305.559 252.67 305.356 252.704C305.156 252.735 304.96 252.762 304.769 252.787C304.582 252.808 304.429 252.827 304.312 252.842C304.029 252.879 303.765 252.939 303.518 253.022C303.275 253.102 303.078 253.224 302.928 253.387C302.78 253.547 302.706 253.766 302.706 254.043C302.706 254.421 302.846 254.707 303.126 254.901C303.409 255.092 303.768 255.188 304.202 255.188ZM309.274 256V248.909H310.327V249.98H310.4C310.53 249.629 310.764 249.345 311.102 249.126C311.441 248.908 311.822 248.798 312.247 248.798C312.327 248.798 312.427 248.8 312.547 248.803C312.667 248.806 312.758 248.811 312.819 248.817V249.925C312.783 249.915 312.698 249.902 312.566 249.883C312.436 249.862 312.299 249.851 312.155 249.851C311.81 249.851 311.502 249.923 311.231 250.068C310.964 250.209 310.751 250.406 310.594 250.659C310.44 250.908 310.364 251.193 310.364 251.513V256H309.274Z" fill="#2E263D" fill-opacity="0.4"/>
<path d="M180.261 323H179.06L182.532 313.545H183.714L187.185 323H185.985L183.16 315.041H183.086L180.261 323ZM180.704 319.307H185.542V320.322H180.704V319.307ZM188.51 325.659V315.909H189.563V317.036H189.692C189.772 316.912 189.883 316.755 190.025 316.565C190.169 316.371 190.375 316.198 190.643 316.048C190.914 315.894 191.28 315.817 191.742 315.817C192.339 315.817 192.865 315.966 193.321 316.265C193.776 316.563 194.132 316.986 194.387 317.534C194.643 318.082 194.77 318.728 194.77 319.473C194.77 320.224 194.643 320.875 194.387 321.426C194.132 321.974 193.778 322.398 193.325 322.7C192.873 322.998 192.351 323.148 191.76 323.148C191.305 323.148 190.94 323.072 190.666 322.922C190.392 322.768 190.182 322.594 190.034 322.4C189.886 322.203 189.772 322.04 189.692 321.911H189.6V325.659H188.51ZM189.581 319.455C189.581 319.99 189.66 320.462 189.817 320.872C189.974 321.278 190.203 321.597 190.505 321.827C190.806 322.055 191.176 322.169 191.613 322.169C192.068 322.169 192.448 322.049 192.753 321.809C193.061 321.566 193.291 321.24 193.445 320.83C193.602 320.418 193.681 319.959 193.681 319.455C193.681 318.956 193.604 318.507 193.45 318.107C193.299 317.703 193.07 317.385 192.762 317.151C192.457 316.914 192.074 316.795 191.613 316.795C191.169 316.795 190.797 316.908 190.495 317.132C190.194 317.354 189.966 317.665 189.812 318.065C189.658 318.462 189.581 318.925 189.581 319.455ZM196.432 323V315.909H197.485V316.98H197.559C197.688 316.629 197.922 316.345 198.26 316.126C198.599 315.908 198.981 315.798 199.405 315.798C199.485 315.798 199.585 315.8 199.705 315.803C199.825 315.806 199.916 315.811 199.978 315.817V316.925C199.941 316.915 199.856 316.902 199.724 316.883C199.595 316.862 199.458 316.851 199.313 316.851C198.968 316.851 198.66 316.923 198.39 317.068C198.122 317.209 197.909 317.406 197.753 317.659C197.599 317.908 197.522 318.193 197.522 318.513V323H196.432Z" fill="#2E263D" fill-opacity="0.4"/>
<path d="M70.2917 246.545H71.6582L74.8713 254.393H74.9821L78.1951 246.545H79.5616V256H78.4906V248.817H78.3983L75.4437 256H74.4096L71.4551 248.817H71.3628V256H70.2917V246.545ZM83.7961 256.166C83.3468 256.166 82.939 256.082 82.5727 255.912C82.2065 255.74 81.9156 255.492 81.7002 255.169C81.4848 254.843 81.3771 254.449 81.3771 253.987C81.3771 253.581 81.4571 253.252 81.6171 252.999C81.7771 252.744 81.991 252.544 82.2588 252.399C82.5266 252.254 82.822 252.147 83.1452 252.076C83.4714 252.002 83.7992 251.944 84.1285 251.901C84.5593 251.845 84.9087 251.804 85.1764 251.776C85.4472 251.745 85.6442 251.694 85.7673 251.624C85.8935 251.553 85.9566 251.43 85.9566 251.254V251.217C85.9566 250.762 85.832 250.408 85.5827 250.156C85.3365 249.903 84.9625 249.777 84.4609 249.777C83.9407 249.777 83.5329 249.891 83.2375 250.119C82.942 250.346 82.7343 250.589 82.6143 250.848L81.5802 250.479C81.7648 250.048 82.011 249.712 82.3188 249.472C82.6297 249.229 82.9682 249.06 83.3344 248.964C83.7038 248.866 84.0669 248.817 84.4239 248.817C84.6517 248.817 84.9133 248.844 85.2087 248.9C85.5073 248.952 85.795 249.061 86.072 249.228C86.3521 249.394 86.5844 249.645 86.7691 249.98C86.9538 250.316 87.0461 250.765 87.0461 251.328V256H85.9566V255.04H85.9012C85.8273 255.194 85.7042 255.358 85.5319 255.534C85.3595 255.709 85.1302 255.858 84.844 255.982C84.5578 256.105 84.2085 256.166 83.7961 256.166ZM83.9623 255.188C84.3932 255.188 84.7563 255.103 85.0518 254.934C85.3503 254.764 85.575 254.546 85.7258 254.278C85.8797 254.01 85.9566 253.729 85.9566 253.433V252.436C85.9104 252.491 85.8089 252.542 85.6519 252.588C85.498 252.632 85.3195 252.67 85.1164 252.704C84.9164 252.735 84.7209 252.762 84.5301 252.787C84.3424 252.808 84.19 252.827 84.0731 252.842C83.7899 252.879 83.5253 252.939 83.279 253.022C83.0359 253.102 82.8389 253.224 82.6881 253.387C82.5404 253.547 82.4665 253.766 82.4665 254.043C82.4665 254.421 82.6066 254.707 82.8866 254.901C83.1698 255.092 83.5283 255.188 83.9623 255.188ZM89.4824 258.659C89.2978 258.659 89.1331 258.644 88.9885 258.613C88.8438 258.585 88.7438 258.558 88.6884 258.53L88.9654 257.57C89.2301 257.637 89.464 257.662 89.6671 257.643C89.8702 257.625 90.0503 257.534 90.2072 257.371C90.3673 257.211 90.5134 256.951 90.6458 256.591L90.8489 256.037L88.2268 248.909H89.4086L91.366 254.56H91.4398L93.3972 248.909H94.579L91.5691 257.034C91.4337 257.4 91.2659 257.703 91.0659 257.944C90.8658 258.187 90.6335 258.367 90.3688 258.484C90.1072 258.601 89.8117 258.659 89.4824 258.659Z" fill="#2E263D" fill-opacity="0.4"/>
<path d="M75.2392 142.545H76.3841V149.304C76.3841 149.907 76.2733 150.42 76.0517 150.841C75.8301 151.263 75.5177 151.583 75.1145 151.801C74.7114 152.02 74.2359 152.129 73.688 152.129C73.171 152.129 72.7109 152.035 72.3077 151.848C71.9045 151.657 71.5875 151.386 71.3567 151.035C71.1259 150.684 71.0105 150.267 71.0105 149.784H72.1369C72.1369 150.052 72.2031 150.286 72.3354 150.486C72.4708 150.683 72.6555 150.837 72.8894 150.947C73.1233 151.058 73.3895 151.114 73.688 151.114C74.0174 151.114 74.2974 151.044 74.5282 150.906C74.7591 150.767 74.9345 150.564 75.0545 150.297C75.1776 150.026 75.2392 149.695 75.2392 149.304V142.545ZM82.9995 149.101V144.909H84.089V152H82.9995V150.8H82.9256C82.7594 151.16 82.5009 151.466 82.15 151.718C81.7992 151.968 81.356 152.092 80.8205 152.092C80.3773 152.092 79.9834 151.995 79.6387 151.801C79.294 151.605 79.0232 151.309 78.8262 150.915C78.6292 150.518 78.5307 150.018 78.5307 149.415V144.909H79.6202V149.341C79.6202 149.858 79.7649 150.27 80.0542 150.578C80.3465 150.886 80.7189 151.04 81.1714 151.04C81.4422 151.04 81.7176 150.971 81.9977 150.832C82.2808 150.694 82.5178 150.481 82.7086 150.195C82.9025 149.909 82.9995 149.544 82.9995 149.101ZM87.1739 147.734V152H86.0844V144.909H87.137V146.017H87.2293C87.3955 145.657 87.6479 145.368 87.9864 145.149C88.325 144.928 88.762 144.817 89.2975 144.817C89.7776 144.817 90.1977 144.915 90.5578 145.112C90.9179 145.306 91.198 145.602 91.398 145.999C91.5981 146.393 91.6981 146.891 91.6981 147.494V152H90.6086V147.568C90.6086 147.011 90.4639 146.577 90.1746 146.266C89.8853 145.952 89.4883 145.795 88.9836 145.795C88.6358 145.795 88.325 145.871 88.0511 146.022C87.7802 146.172 87.5663 146.393 87.4094 146.682C87.2524 146.971 87.1739 147.322 87.1739 147.734Z" fill="#2E263D" fill-opacity="0.4"/>
<path d="M193.017 96.8789L104.769 148.707V250.496L193.017 302.324L282.199 250.496V148.707L193.017 96.8789Z" stroke="#2E263D" stroke-opacity="0.12"/>
<path d="M193.123 119.758L124.847 160.042V239.16L193.123 279.445L262.122 239.16V160.042L193.123 119.758Z" stroke="#2E263D" stroke-opacity="0.12"/>
<path d="M193.236 145.905L146.325 172.997V226.205L193.236 253.297L240.643 226.205V172.997L193.236 145.905Z" stroke="#2E263D" stroke-opacity="0.12"/>
<path d="M104.769 149.174L124.847 160.38L280.798 250.496" stroke="#2E263D" stroke-opacity="0.12"/>
<path d="M281.732 148.707L104.769 250.496" stroke="#2E263D" stroke-opacity="0.12"/>
<path d="M193.017 302.791V96.4121" stroke="#2E263D" stroke-opacity="0.12"/>
<path d="M193.017 136.567L125.314 160.847L133.251 234.154L193.017 278.511L257.919 236.955L261.188 160.847L193.017 136.567Z" fill="#8C57FF"/>
<path opacity="0.9" d="M253.25 164.582L192.55 97.3457L133.718 164.582L118.777 243.025L192.55 269.173L268.192 243.025L253.25 164.582Z" fill="#16B1FF"/>
<circle cx="107.167" cy="354" r="5" fill="#8C57FF"/>
<path d="M122.888 348.091V359H121.567V348.091H122.888ZM126.624 354.078V359H125.367V350.818H126.581V352.097H126.688C126.879 351.681 127.171 351.347 127.561 351.095C127.952 350.839 128.456 350.712 129.074 350.712C129.628 350.712 130.113 350.825 130.528 351.053C130.944 351.276 131.267 351.617 131.498 352.075C131.728 352.53 131.844 353.105 131.844 353.801V359H130.587V353.886C130.587 353.244 130.42 352.743 130.086 352.384C129.752 352.022 129.294 351.841 128.712 351.841C128.31 351.841 127.952 351.928 127.636 352.102C127.323 352.276 127.076 352.53 126.895 352.864C126.714 353.197 126.624 353.602 126.624 354.078ZM137.465 359.17C136.698 359.17 136.037 358.989 135.483 358.627C134.929 358.265 134.503 357.766 134.205 357.13C133.907 356.495 133.757 355.768 133.757 354.952C133.757 354.121 133.91 353.387 134.216 352.752C134.525 352.113 134.954 351.614 135.505 351.255C136.059 350.893 136.705 350.712 137.444 350.712C138.019 350.712 138.537 350.818 138.999 351.031C139.461 351.244 139.839 351.543 140.134 351.926C140.428 352.31 140.611 352.757 140.682 353.268H139.425C139.329 352.896 139.116 352.565 138.786 352.278C138.459 351.987 138.019 351.841 137.465 351.841C136.975 351.841 136.545 351.969 136.176 352.224C135.81 352.477 135.524 352.833 135.318 353.295C135.116 353.753 135.015 354.291 135.015 354.909C135.015 355.541 135.114 356.092 135.313 356.56C135.515 357.029 135.799 357.393 136.165 357.652C136.534 357.912 136.968 358.041 137.465 358.041C137.792 358.041 138.088 357.984 138.354 357.871C138.621 357.757 138.846 357.594 139.031 357.381C139.216 357.168 139.347 356.912 139.425 356.614H140.682C140.611 357.097 140.435 357.532 140.155 357.919C139.878 358.302 139.51 358.608 139.052 358.835C138.598 359.059 138.069 359.17 137.465 359.17ZM145.844 359.17C145.105 359.17 144.457 358.995 143.9 358.643C143.346 358.292 142.912 357.8 142.6 357.168C142.291 356.536 142.136 355.797 142.136 354.952C142.136 354.099 142.291 353.355 142.6 352.72C142.912 352.084 143.346 351.591 143.9 351.239C144.457 350.887 145.105 350.712 145.844 350.712C146.582 350.712 147.229 350.887 147.783 351.239C148.34 351.591 148.773 352.084 149.082 352.72C149.395 353.355 149.551 354.099 149.551 354.952C149.551 355.797 149.395 356.536 149.082 357.168C148.773 357.8 148.34 358.292 147.783 358.643C147.229 358.995 146.582 359.17 145.844 359.17ZM145.844 358.041C146.405 358.041 146.866 357.897 147.229 357.61C147.591 357.322 147.859 356.944 148.033 356.475C148.207 356.006 148.294 355.499 148.294 354.952C148.294 354.405 148.207 353.895 148.033 353.423C147.859 352.951 147.591 352.569 147.229 352.278C146.866 351.987 146.405 351.841 145.844 351.841C145.283 351.841 144.821 351.987 144.459 352.278C144.097 352.569 143.828 352.951 143.654 353.423C143.48 353.895 143.393 354.405 143.393 354.952C143.393 355.499 143.48 356.006 143.654 356.475C143.828 356.944 144.097 357.322 144.459 357.61C144.821 357.897 145.283 358.041 145.844 358.041ZM151.47 359V350.818H152.685V352.097H152.791C152.962 351.66 153.237 351.321 153.617 351.079C153.997 350.834 154.453 350.712 154.986 350.712C155.525 350.712 155.975 350.834 156.333 351.079C156.696 351.321 156.978 351.66 157.18 352.097H157.266C157.475 351.674 157.789 351.338 158.208 351.09C158.627 350.838 159.13 350.712 159.716 350.712C160.447 350.712 161.046 350.941 161.511 351.399C161.976 351.853 162.209 352.562 162.209 353.524V359H160.952V353.524C160.952 352.92 160.786 352.489 160.456 352.23C160.126 351.971 159.737 351.841 159.29 351.841C158.714 351.841 158.269 352.015 157.953 352.363C157.637 352.707 157.479 353.144 157.479 353.673V359H156.2V353.396C156.2 352.931 156.049 352.556 155.747 352.272C155.446 351.985 155.057 351.841 154.581 351.841C154.254 351.841 153.949 351.928 153.665 352.102C153.384 352.276 153.157 352.517 152.983 352.826C152.812 353.132 152.727 353.485 152.727 353.886V359H151.47ZM167.938 359.17C167.149 359.17 166.469 358.996 165.897 358.648C165.329 358.297 164.891 357.807 164.582 357.178C164.276 356.546 164.124 355.811 164.124 354.973C164.124 354.135 164.276 353.396 164.582 352.757C164.891 352.114 165.32 351.614 165.871 351.255C166.425 350.893 167.071 350.712 167.81 350.712C168.236 350.712 168.657 350.783 169.072 350.925C169.488 351.067 169.866 351.298 170.207 351.617C170.548 351.933 170.819 352.352 171.022 352.874C171.224 353.396 171.325 354.039 171.325 354.803V355.335H165.019V354.249H170.047C170.047 353.787 169.955 353.375 169.77 353.013C169.589 352.651 169.33 352.365 168.992 352.155C168.658 351.946 168.264 351.841 167.81 351.841C167.309 351.841 166.876 351.965 166.51 352.214C166.148 352.459 165.869 352.778 165.674 353.173C165.478 353.567 165.381 353.989 165.381 354.44V355.165C165.381 355.783 165.487 356.306 165.7 356.736C165.917 357.162 166.217 357.487 166.601 357.711C166.984 357.931 167.43 358.041 167.938 358.041C168.268 358.041 168.566 357.995 168.832 357.903C169.102 357.807 169.335 357.665 169.53 357.477C169.726 357.285 169.877 357.047 169.983 356.763L171.198 357.104C171.07 357.516 170.855 357.878 170.553 358.19C170.251 358.499 169.878 358.741 169.434 358.915C168.991 359.085 168.492 359.17 167.938 359.17Z" fill="#2E263D" fill-opacity="0.7"/>
<circle cx="193.167" cy="354" r="5" fill="#16B1FF"/>
<path d="M216.288 348.091V359H215.01L209.065 350.435H208.959V359H207.638V348.091H208.916L214.882 356.678H214.988V348.091H216.288ZM222.191 359.17C221.403 359.17 220.723 358.996 220.151 358.648C219.583 358.297 219.145 357.807 218.836 357.178C218.53 356.546 218.378 355.811 218.378 354.973C218.378 354.135 218.53 353.396 218.836 352.757C219.145 352.114 219.574 351.614 220.125 351.255C220.679 350.893 221.325 350.712 222.064 350.712C222.49 350.712 222.911 350.783 223.326 350.925C223.742 351.067 224.12 351.298 224.461 351.617C224.802 351.933 225.073 352.352 225.276 352.874C225.478 353.396 225.579 354.039 225.579 354.803V355.335H219.272V354.249H224.301C224.301 353.787 224.208 353.375 224.024 353.013C223.843 352.651 223.583 352.365 223.246 352.155C222.912 351.946 222.518 351.841 222.064 351.841C221.563 351.841 221.13 351.965 220.764 352.214C220.402 352.459 220.123 352.778 219.928 353.173C219.732 353.567 219.635 353.989 219.635 354.44V355.165C219.635 355.783 219.741 356.306 219.954 356.736C220.171 357.162 220.471 357.487 220.854 357.711C221.238 357.931 221.684 358.041 222.191 358.041C222.522 358.041 222.82 357.995 223.086 357.903C223.356 357.807 223.589 357.665 223.784 357.477C223.979 357.285 224.13 357.047 224.237 356.763L225.451 357.104C225.324 357.516 225.109 357.878 224.807 358.19C224.505 358.499 224.132 358.741 223.688 358.915C223.244 359.085 222.745 359.17 222.191 359.17ZM231.05 350.818V351.884H226.81V350.818H231.05ZM228.045 348.858H229.303V356.656C229.303 357.011 229.354 357.278 229.457 357.455C229.564 357.629 229.699 357.746 229.862 357.807C230.029 357.864 230.205 357.892 230.389 357.892C230.528 357.892 230.641 357.885 230.73 357.871C230.819 357.853 230.89 357.839 230.943 357.828L231.199 358.957C231.114 358.989 230.995 359.021 230.842 359.053C230.689 359.089 230.496 359.107 230.261 359.107C229.906 359.107 229.558 359.03 229.217 358.877C228.88 358.725 228.599 358.492 228.376 358.18C228.156 357.867 228.045 357.473 228.045 356.997V348.858ZM239.311 359L236.329 348.091H237.671L239.951 356.976H240.057L242.38 348.091H243.871L246.194 356.976H246.3L248.58 348.091H249.922L246.939 359H245.576L243.168 350.307H243.083L240.675 359H239.311ZM253.96 359.17C253.221 359.17 252.573 358.995 252.016 358.643C251.462 358.292 251.028 357.8 250.716 357.168C250.407 356.536 250.253 355.797 250.253 354.952C250.253 354.099 250.407 353.355 250.716 352.72C251.028 352.084 251.462 351.591 252.016 351.239C252.573 350.887 253.221 350.712 253.96 350.712C254.699 350.712 255.345 350.887 255.899 351.239C256.456 351.591 256.89 352.084 257.199 352.72C257.511 353.355 257.667 354.099 257.667 354.952C257.667 355.797 257.511 356.536 257.199 357.168C256.89 357.8 256.456 358.292 255.899 358.643C255.345 358.995 254.699 359.17 253.96 359.17ZM253.96 358.041C254.521 358.041 254.983 357.897 255.345 357.61C255.707 357.322 255.975 356.944 256.149 356.475C256.323 356.006 256.41 355.499 256.41 354.952C256.41 354.405 256.323 353.895 256.149 353.423C255.975 352.951 255.707 352.569 255.345 352.278C254.983 351.987 254.521 351.841 253.96 351.841C253.399 351.841 252.937 351.987 252.575 352.278C252.213 352.569 251.945 352.951 251.771 353.423C251.597 353.895 251.51 354.405 251.51 354.952C251.51 355.499 251.597 356.006 251.771 356.475C251.945 356.944 252.213 357.322 252.575 357.61C252.937 357.897 253.399 358.041 253.96 358.041ZM259.586 359V350.818H260.801V352.054H260.886C261.035 351.649 261.305 351.321 261.696 351.069C262.086 350.816 262.527 350.69 263.017 350.69C263.109 350.69 263.224 350.692 263.363 350.696C263.501 350.699 263.606 350.705 263.677 350.712V351.99C263.635 351.979 263.537 351.963 263.384 351.942C263.235 351.917 263.077 351.905 262.91 351.905C262.512 351.905 262.157 351.988 261.845 352.155C261.536 352.319 261.291 352.546 261.11 352.837C260.932 353.125 260.843 353.453 260.843 353.822V359H259.586ZM269.238 350.818V351.884H264.998V350.818H269.238ZM266.234 348.858H267.491V356.656C267.491 357.011 267.543 357.278 267.646 357.455C267.752 357.629 267.887 357.746 268.05 357.807C268.217 357.864 268.393 357.892 268.578 357.892C268.716 357.892 268.83 357.885 268.919 357.871C269.007 357.853 269.078 357.839 269.132 357.828L269.387 358.957C269.302 358.989 269.183 359.021 269.03 359.053C268.878 359.089 268.684 359.107 268.45 359.107C268.095 359.107 267.747 359.03 267.406 358.877C267.068 358.725 266.788 358.492 266.564 358.18C266.344 357.867 266.234 357.473 266.234 356.997V348.858ZM272.562 354.078V359H271.305V348.091H272.562V352.097H272.669C272.86 351.674 273.148 351.338 273.532 351.09C273.919 350.838 274.434 350.712 275.076 350.712C275.634 350.712 276.122 350.824 276.541 351.047C276.96 351.267 277.285 351.607 277.516 352.065C277.75 352.519 277.867 353.098 277.867 353.801V359H276.61V353.886C276.61 353.237 276.442 352.734 276.104 352.379C275.771 352.02 275.307 351.841 274.714 351.841C274.302 351.841 273.933 351.928 273.606 352.102C273.283 352.276 273.027 352.53 272.839 352.864C272.654 353.197 272.562 353.602 272.562 354.078Z" fill="#2E263D" fill-opacity="0.7"/>
</g>
<defs>
<filter id="filter0_d_8003_5062" x="0" y="0" width="381.333" height="399" filterUnits="userSpaceOnUse" color-interpolation-filters="sRGB">
<feFlood flood-opacity="0" result="BackgroundImageFix"/>
<feColorMatrix in="SourceAlpha" type="matrix" values="0 0 0 0 0 0 0 0 0 0 0 0 0 0 0 0 0 0 127 0" result="hardAlpha"/>
<feOffset dy="4"/>
<feGaussianBlur stdDeviation="5"/>
<feComposite in2="hardAlpha" operator="out"/>
<feColorMatrix type="matrix" values="0 0 0 0 0.180392 0 0 0 0 0.14902 0 0 0 0 0.239216 0 0 0 0.2 0"/>
<feBlend mode="normal" in2="BackgroundImageFix" result="effect1_dropShadow_8003_5062"/>
<feBlend mode="normal" in="SourceGraphic" in2="effect1_dropShadow_8003_5062" result="shape"/>
</filter>
</defs>
</svg>
