<svg width="290" height="298" viewBox="0 0 290 298" fill="none" xmlns="http://www.w3.org/2000/svg">
<g filter="url(#filter0_d_8003_2734)">
<g clip-path="url(#clip0_8003_2734)">
<path d="M10 12C10 8.68629 12.6863 6 16 6H274C277.314 6 280 8.68629 280 12V278C280 281.314 277.314 284 274 284H16C12.6863 284 10 281.314 10 278V12Z" fill="white"/>
<path d="M29.828 29L34.778 33.95L33.364 35.364L27 29L33.364 22.636L34.778 24.05L29.828 29Z" fill="#2E263D" fill-opacity="0.7"/>
<path d="M93.1875 34H89.821V23.0909H93.3366C94.3949 23.0909 95.3004 23.3093 96.0533 23.7461C96.8061 24.1793 97.3832 24.8026 97.7844 25.6158C98.1857 26.4254 98.3864 27.3949 98.3864 28.5241C98.3864 29.6605 98.1839 30.6388 97.7791 31.4592C97.3743 32.2759 96.7848 32.9045 96.0107 33.3448C95.2365 33.7816 94.2955 34 93.1875 34ZM91.142 32.8281H93.1023C94.0043 32.8281 94.7518 32.6541 95.3448 32.3061C95.9379 31.9581 96.38 31.4627 96.6712 30.82C96.9624 30.1772 97.108 29.4119 97.108 28.5241C97.108 27.6435 96.9641 26.8853 96.6765 26.2496C96.3888 25.6104 95.9592 25.1204 95.3874 24.7795C94.8157 24.435 94.1037 24.2628 93.2514 24.2628H91.142V32.8281ZM103.862 34.1705C103.074 34.1705 102.394 33.9964 101.822 33.6484C101.254 33.2969 100.815 32.8068 100.506 32.1783C100.201 31.5462 100.048 30.8111 100.048 29.973C100.048 29.1349 100.201 28.3963 100.506 27.7571C100.815 27.1143 101.245 26.6136 101.795 26.255C102.349 25.8928 102.996 25.7116 103.734 25.7116C104.161 25.7116 104.581 25.7827 104.997 25.9247C105.412 26.0668 105.79 26.2976 106.131 26.6172C106.472 26.9332 106.744 27.3523 106.946 27.8743C107.149 28.3963 107.25 29.0391 107.25 29.8026V30.3352H100.943V29.2486H105.972C105.972 28.7869 105.879 28.375 105.695 28.0128C105.513 27.6506 105.254 27.3647 104.917 27.1552C104.583 26.9457 104.189 26.8409 103.734 26.8409C103.234 26.8409 102.8 26.9652 102.435 27.2138C102.072 27.4588 101.794 27.7784 101.598 28.1726C101.403 28.5668 101.305 28.9893 101.305 29.4403V30.1648C101.305 30.7827 101.412 31.3065 101.625 31.7362C101.842 32.1623 102.142 32.4872 102.525 32.7109C102.909 32.9311 103.354 33.0412 103.862 33.0412C104.192 33.0412 104.491 32.995 104.757 32.9027C105.027 32.8068 105.26 32.6648 105.455 32.4766C105.65 32.2848 105.801 32.0469 105.908 31.7628L107.122 32.1037C106.994 32.5156 106.779 32.8778 106.478 33.1903C106.176 33.4993 105.803 33.7408 105.359 33.9148C104.915 34.0852 104.416 34.1705 103.862 34.1705ZM112.486 34.1705C111.719 34.1705 111.059 33.9893 110.505 33.6271C109.951 33.2649 109.525 32.766 109.226 32.1303C108.928 31.4947 108.779 30.7685 108.779 29.9517C108.779 29.1207 108.931 28.3874 109.237 27.7518C109.546 27.1126 109.975 26.6136 110.526 26.255C111.08 25.8928 111.726 25.7116 112.465 25.7116C113.04 25.7116 113.559 25.8182 114.02 26.0312C114.482 26.2443 114.86 26.5426 115.155 26.9261C115.45 27.3097 115.632 27.7571 115.703 28.2685H114.446C114.35 27.8956 114.137 27.5653 113.807 27.2777C113.48 26.9865 113.04 26.8409 112.486 26.8409C111.996 26.8409 111.566 26.9687 111.197 27.2244C110.831 27.4766 110.545 27.8335 110.339 28.2951C110.137 28.7532 110.036 29.2912 110.036 29.9091C110.036 30.5412 110.135 31.0916 110.334 31.5604C110.537 32.0291 110.821 32.3931 111.186 32.6523C111.556 32.9116 111.989 33.0412 112.486 33.0412C112.813 33.0412 113.109 32.9844 113.376 32.8707C113.642 32.7571 113.868 32.5938 114.052 32.3807C114.237 32.1676 114.368 31.9119 114.446 31.6136H115.703C115.632 32.0966 115.457 32.5316 115.176 32.9187C114.899 33.3022 114.532 33.6076 114.074 33.8349C113.619 34.0586 113.09 34.1705 112.486 34.1705ZM120.972 34.1705C120.183 34.1705 119.503 33.9964 118.931 33.6484C118.363 33.2969 117.925 32.8068 117.616 32.1783C117.31 31.5462 117.158 30.8111 117.158 29.973C117.158 29.1349 117.31 28.3963 117.616 27.7571C117.925 27.1143 118.354 26.6136 118.905 26.255C119.459 25.8928 120.105 25.7116 120.844 25.7116C121.27 25.7116 121.691 25.7827 122.106 25.9247C122.522 26.0668 122.9 26.2976 123.241 26.6172C123.582 26.9332 123.853 27.3523 124.056 27.8743C124.258 28.3963 124.359 29.0391 124.359 29.8026V30.3352H118.053V29.2486H123.081C123.081 28.7869 122.989 28.375 122.804 28.0128C122.623 27.6506 122.364 27.3647 122.026 27.1552C121.692 26.9457 121.298 26.8409 120.844 26.8409C120.343 26.8409 119.91 26.9652 119.544 27.2138C119.182 27.4588 118.903 27.7784 118.708 28.1726C118.512 28.5668 118.415 28.9893 118.415 29.4403V30.1648C118.415 30.7827 118.521 31.3065 118.734 31.7362C118.951 32.1623 119.251 32.4872 119.635 32.7109C120.018 32.9311 120.464 33.0412 120.972 33.0412C121.302 33.0412 121.6 32.995 121.866 32.9027C122.136 32.8068 122.369 32.6648 122.564 32.4766C122.76 32.2848 122.911 32.0469 123.017 31.7628L124.232 32.1037C124.104 32.5156 123.889 32.8778 123.587 33.1903C123.285 33.4993 122.912 33.7408 122.468 33.9148C122.025 34.0852 121.526 34.1705 120.972 34.1705ZM126.272 34V25.8182H127.486V27.0966H127.593C127.763 26.6598 128.038 26.3207 128.418 26.0792C128.798 25.8342 129.255 25.7116 129.787 25.7116C130.327 25.7116 130.776 25.8342 131.135 26.0792C131.497 26.3207 131.779 26.6598 131.982 27.0966H132.067C132.277 26.674 132.591 26.3384 133.01 26.0898C133.429 25.8377 133.931 25.7116 134.517 25.7116C135.249 25.7116 135.847 25.9407 136.312 26.3988C136.778 26.8533 137.01 27.5618 137.01 28.5241V34H135.753V28.5241C135.753 27.9205 135.588 27.489 135.258 27.2298C134.928 26.9705 134.539 26.8409 134.091 26.8409C133.516 26.8409 133.07 27.0149 132.754 27.3629C132.438 27.7074 132.28 28.1442 132.28 28.6733V34H131.002V28.3963C131.002 27.9311 130.851 27.5565 130.549 27.2724C130.247 26.9847 129.858 26.8409 129.382 26.8409C129.056 26.8409 128.75 26.9279 128.466 27.1019C128.186 27.2759 127.958 27.5174 127.784 27.8263C127.614 28.1317 127.529 28.4851 127.529 28.8864V34H126.272ZM139.479 34V23.0909H140.736V27.1179H140.843C140.935 26.9759 141.063 26.7947 141.226 26.5746C141.393 26.3509 141.631 26.152 141.94 25.978C142.253 25.8004 142.675 25.7116 143.208 25.7116C143.897 25.7116 144.504 25.8839 145.03 26.2283C145.555 26.5728 145.965 27.0611 146.26 27.6932C146.555 28.3253 146.702 29.071 146.702 29.9304C146.702 30.7969 146.555 31.5479 146.26 32.1836C145.965 32.8157 145.557 33.3058 145.035 33.6538C144.513 33.9982 143.911 34.1705 143.229 34.1705C142.704 34.1705 142.283 34.0835 141.967 33.9094C141.651 33.7319 141.407 33.5312 141.237 33.3075C141.067 33.0803 140.935 32.892 140.843 32.7429H140.694V34H139.479ZM140.715 29.9091C140.715 30.527 140.806 31.0721 140.987 31.5444C141.168 32.0131 141.432 32.3807 141.78 32.647C142.128 32.9098 142.555 33.0412 143.059 33.0412C143.584 33.0412 144.023 32.9027 144.374 32.6257C144.73 32.3452 144.996 31.9687 145.173 31.4964C145.355 31.0206 145.445 30.4915 145.445 29.9091C145.445 29.3338 145.356 28.8153 145.179 28.3537C145.005 27.8885 144.74 27.521 144.385 27.2511C144.034 26.9776 143.591 26.8409 143.059 26.8409C142.547 26.8409 142.118 26.9705 141.77 27.2298C141.422 27.4854 141.159 27.8441 140.981 28.3058C140.804 28.7638 140.715 29.2983 140.715 29.9091ZM152.056 34.1705C151.267 34.1705 150.587 33.9964 150.015 33.6484C149.447 33.2969 149.009 32.8068 148.7 32.1783C148.394 31.5462 148.242 30.8111 148.242 29.973C148.242 29.1349 148.394 28.3963 148.7 27.7571C149.009 27.1143 149.438 26.6136 149.989 26.255C150.543 25.8928 151.189 25.7116 151.928 25.7116C152.354 25.7116 152.775 25.7827 153.19 25.9247C153.606 26.0668 153.984 26.2976 154.325 26.6172C154.666 26.9332 154.937 27.3523 155.14 27.8743C155.342 28.3963 155.443 29.0391 155.443 29.8026V30.3352H149.137V29.2486H154.165C154.165 28.7869 154.073 28.375 153.888 28.0128C153.707 27.6506 153.448 27.3647 153.11 27.1552C152.776 26.9457 152.382 26.8409 151.928 26.8409C151.427 26.8409 150.994 26.9652 150.628 27.2138C150.266 27.4588 149.987 27.7784 149.792 28.1726C149.596 28.5668 149.499 28.9893 149.499 29.4403V30.1648C149.499 30.7827 149.605 31.3065 149.818 31.7362C150.035 32.1623 150.335 32.4872 150.719 32.7109C151.102 32.9311 151.548 33.0412 152.056 33.0412C152.386 33.0412 152.684 32.995 152.95 32.9027C153.22 32.8068 153.453 32.6648 153.648 32.4766C153.844 32.2848 153.994 32.0469 154.101 31.7628L155.316 32.1037C155.188 32.5156 154.973 32.8778 154.671 33.1903C154.369 33.4993 153.996 33.7408 153.552 33.9148C153.108 34.0852 152.61 34.1705 152.056 34.1705ZM157.356 34V25.8182H158.57V27.054H158.655C158.805 26.6491 159.074 26.3207 159.465 26.0685C159.856 25.8164 160.296 25.6903 160.786 25.6903C160.878 25.6903 160.994 25.6921 161.132 25.6957C161.271 25.6992 161.376 25.7045 161.447 25.7116V26.9901C161.404 26.9794 161.306 26.9634 161.154 26.9421C161.004 26.9173 160.846 26.9048 160.68 26.9048C160.282 26.9048 159.927 26.9883 159.614 27.1552C159.305 27.3185 159.06 27.5458 158.879 27.837C158.702 28.1246 158.613 28.4531 158.613 28.8224V34H157.356ZM167.134 34V33.0412L170.735 29.0994C171.158 28.6378 171.506 28.2365 171.779 27.8956C172.052 27.5511 172.255 27.228 172.386 26.9261C172.521 26.6207 172.589 26.3011 172.589 25.9673C172.589 25.5838 172.496 25.2518 172.312 24.9712C172.131 24.6907 171.882 24.4741 171.566 24.3214C171.25 24.1687 170.895 24.0923 170.501 24.0923C170.082 24.0923 169.716 24.1793 169.403 24.3533C169.094 24.5238 168.855 24.7635 168.684 25.0724C168.517 25.3814 168.434 25.7436 168.434 26.1591H167.177C167.177 25.5199 167.324 24.9588 167.619 24.4759C167.914 23.9929 168.315 23.6165 168.823 23.3466C169.334 23.0767 169.908 22.9418 170.543 22.9418C171.182 22.9418 171.749 23.0767 172.242 23.3466C172.736 23.6165 173.123 23.9805 173.404 24.4386C173.684 24.8967 173.824 25.4062 173.824 25.9673C173.824 26.3686 173.752 26.761 173.606 27.1445C173.464 27.5245 173.215 27.9489 172.86 28.4176C172.509 28.8828 172.021 29.451 171.396 30.1222L168.945 32.7429V32.8281H174.016V34H167.134ZM179.774 34.1491C178.972 34.1491 178.288 33.9308 177.724 33.494C177.159 33.0536 176.728 32.4162 176.429 31.5817C176.131 30.7436 175.982 29.7315 175.982 28.5455C175.982 27.3665 176.131 26.3597 176.429 25.5252C176.731 24.6871 177.164 24.0479 177.729 23.6076C178.297 23.1637 178.979 22.9418 179.774 22.9418C180.57 22.9418 181.25 23.1637 181.815 23.6076C182.383 24.0479 182.816 24.6871 183.114 25.5252C183.416 26.3597 183.567 27.3665 183.567 28.5455C183.567 29.7315 183.418 30.7436 183.12 31.5817C182.821 32.4162 182.39 33.0536 181.825 33.494C181.261 33.9308 180.577 34.1491 179.774 34.1491ZM179.774 32.9773C180.57 32.9773 181.188 32.5937 181.628 31.8267C182.068 31.0597 182.289 29.9659 182.289 28.5455C182.289 27.6009 182.187 26.7965 181.985 26.1325C181.786 25.4684 181.498 24.9624 181.122 24.6143C180.749 24.2663 180.3 24.0923 179.774 24.0923C178.986 24.0923 178.37 24.4812 177.926 25.2589C177.482 26.033 177.26 27.1286 177.26 28.5455C177.26 29.4901 177.36 30.2926 177.559 30.9531C177.757 31.6136 178.043 32.1161 178.416 32.4606C178.793 32.805 179.245 32.9773 179.774 32.9773ZM185.591 34V33.0412L189.192 29.0994C189.615 28.6378 189.963 28.2365 190.236 27.8956C190.509 27.5511 190.712 27.228 190.843 26.9261C190.978 26.6207 191.046 26.3011 191.046 25.9673C191.046 25.5838 190.953 25.2518 190.769 24.9712C190.588 24.6907 190.339 24.4741 190.023 24.3214C189.707 24.1687 189.352 24.0923 188.958 24.0923C188.539 24.0923 188.173 24.1793 187.86 24.3533C187.551 24.5238 187.312 24.7635 187.141 25.0724C186.974 25.3814 186.891 25.7436 186.891 26.1591H185.634C185.634 25.5199 185.781 24.9588 186.076 24.4759C186.371 23.9929 186.772 23.6165 187.28 23.3466C187.791 23.0767 188.365 22.9418 189 22.9418C189.639 22.9418 190.206 23.0767 190.699 23.3466C191.193 23.6165 191.58 23.9805 191.861 24.4386C192.141 24.8967 192.282 25.4062 192.282 25.9673C192.282 26.3686 192.209 26.761 192.063 27.1445C191.921 27.5245 191.672 27.9489 191.317 28.4176C190.966 28.8828 190.478 29.451 189.853 30.1222L187.402 32.7429V32.8281H192.473V34H185.591ZM198.508 23.0909V34H197.187V24.4759H197.123L194.46 26.2443V24.902L197.187 23.0909H198.508Z" fill="#2E263D" fill-opacity="0.9"/>
<path d="M260.172 29L255.222 24.05L256.636 22.636L263 29L256.636 35.364L255.222 33.95L260.172 29Z" fill="#2E263D" fill-opacity="0.7"/>
<path d="M35.3935 65.9091C35.3381 65.4413 35.1134 65.0781 34.7195 64.8196C34.3255 64.5611 33.8423 64.4318 33.2699 64.4318C32.8513 64.4318 32.4851 64.4995 32.1712 64.6349C31.8603 64.7704 31.6172 64.9566 31.4418 65.1935C31.2694 65.4305 31.1832 65.6998 31.1832 66.0014C31.1832 66.2538 31.2433 66.4708 31.3633 66.6523C31.4864 66.8308 31.6433 66.9801 31.8342 67.1001C32.025 67.2171 32.225 67.314 32.4343 67.391C32.6436 67.4648 32.8359 67.5249 33.0114 67.571L33.9716 67.8295C34.2178 67.8942 34.4917 67.9834 34.7933 68.0973C35.098 68.2112 35.3888 68.3666 35.6658 68.5636C35.9459 68.7575 36.1767 69.0067 36.3583 69.3114C36.5399 69.6161 36.6307 69.9901 36.6307 70.4332C36.6307 70.9441 36.4968 71.4058 36.229 71.8182C35.9644 72.2306 35.5766 72.5584 35.0657 72.8015C34.5579 73.0446 33.9408 73.1662 33.2145 73.1662C32.5374 73.1662 31.9511 73.0569 31.4556 72.8384C30.9632 72.6199 30.5754 72.3152 30.2923 71.9244C30.0122 71.5335 29.8537 71.0795 29.8168 70.5625H30.9986C31.0294 70.9195 31.1494 71.215 31.3587 71.4489C31.571 71.6797 31.8388 71.852 32.1619 71.9659C32.4882 72.0767 32.839 72.1321 33.2145 72.1321C33.6515 72.1321 34.0439 72.0613 34.3917 71.9197C34.7395 71.7751 35.0149 71.575 35.218 71.3196C35.4212 71.0611 35.5227 70.7595 35.5227 70.4148C35.5227 70.1009 35.435 69.8454 35.2596 69.6484C35.0842 69.4515 34.8533 69.2914 34.5671 69.1683C34.2809 69.0452 33.9716 68.9375 33.6392 68.8452L32.4759 68.5128C31.7372 68.3004 31.1525 67.9973 30.7216 67.6033C30.2907 67.2094 30.0753 66.6939 30.0753 66.0568C30.0753 65.5275 30.2184 65.0658 30.5046 64.6719C30.7939 64.2749 31.1817 63.9671 31.668 63.7486C32.1573 63.527 32.7036 63.4162 33.3068 63.4162C33.9162 63.4162 34.4579 63.5254 34.9318 63.744C35.4058 63.9594 35.7813 64.2549 36.0582 64.6303C36.3383 65.0058 36.486 65.4321 36.5014 65.9091H35.3935ZM42.8341 70.1009V65.9091H43.9236V73H42.8341V71.7997H42.7602C42.594 72.1598 42.3355 72.466 41.9846 72.7184C41.6338 72.9677 41.1906 73.0923 40.6551 73.0923C40.2119 73.0923 39.818 72.9954 39.4733 72.8015C39.1286 72.6045 38.8577 72.3091 38.6608 71.9151C38.4638 71.5181 38.3653 71.018 38.3653 70.4148V65.9091H39.4548V70.3409C39.4548 70.858 39.5995 71.2704 39.8888 71.5781C40.1811 71.8859 40.5535 72.0398 41.0059 72.0398C41.2768 72.0398 41.5522 71.9705 41.8323 71.832C42.1154 71.6935 42.3524 71.4812 42.5432 71.195C42.7371 70.9087 42.8341 70.544 42.8341 70.1009Z" fill="#2E263D" fill-opacity="0.9"/>
<path d="M64.4838 63.5455H65.8502L69.0633 71.3935H69.1741L72.3872 63.5455H73.7536V73H72.6826V65.8168H72.5903L69.6357 73H68.6017L65.6471 65.8168H65.5548V73H64.4838V63.5455ZM78.7821 73.1477C78.142 73.1477 77.5803 72.9954 77.0971 72.6907C76.617 72.386 76.2415 71.9598 75.9707 71.4119C75.7029 70.8641 75.5691 70.224 75.5691 69.4915C75.5691 68.7528 75.7029 68.1081 75.9707 67.5572C76.2415 67.0063 76.617 66.5785 77.0971 66.2738C77.5803 65.9691 78.142 65.8168 78.7821 65.8168C79.4223 65.8168 79.9824 65.9691 80.4625 66.2738C80.9457 66.5785 81.3212 67.0063 81.589 67.5572C81.8598 68.1081 81.9952 68.7528 81.9952 69.4915C81.9952 70.224 81.8598 70.8641 81.589 71.4119C81.3212 71.9598 80.9457 72.386 80.4625 72.6907C79.9824 72.9954 79.4223 73.1477 78.7821 73.1477ZM78.7821 72.169C79.2684 72.169 79.6685 72.0444 79.9824 71.7951C80.2963 71.5458 80.5287 71.218 80.6795 70.8118C80.8303 70.4055 80.9057 69.9654 80.9057 69.4915C80.9057 69.0175 80.8303 68.5759 80.6795 68.1665C80.5287 67.7572 80.2963 67.4264 79.9824 67.174C79.6685 66.9216 79.2684 66.7955 78.7821 66.7955C78.2959 66.7955 77.8958 66.9216 77.5819 67.174C77.2679 67.4264 77.0356 67.7572 76.8848 68.1665C76.734 68.5759 76.6586 69.0175 76.6586 69.4915C76.6586 69.9654 76.734 70.4055 76.8848 70.8118C77.0356 71.218 77.2679 71.5458 77.5819 71.7951C77.8958 72.0444 78.2959 72.169 78.7821 72.169Z" fill="#2E263D" fill-opacity="0.9"/>
<path d="M102.163 64.5611V63.5455H109.254V64.5611H106.281V73H105.136V64.5611H102.163ZM114.377 70.1009V65.9091H115.467V73H114.377V71.7997H114.303C114.137 72.1598 113.878 72.466 113.528 72.7184C113.177 72.9677 112.734 73.0923 112.198 73.0923C111.755 73.0923 111.361 72.9954 111.016 72.8015C110.672 72.6045 110.401 72.3091 110.204 71.9151C110.007 71.5181 109.908 71.018 109.908 70.4148V65.9091H110.998V70.3409C110.998 70.858 111.142 71.2704 111.432 71.5781C111.724 71.8859 112.097 72.0398 112.549 72.0398C112.82 72.0398 113.095 71.9705 113.375 71.832C113.658 71.6935 113.895 71.4812 114.086 71.195C114.28 70.9087 114.377 70.544 114.377 70.1009Z" fill="#2E263D" fill-opacity="0.9"/>
<path d="M138.239 73L135.654 63.5455H136.817L138.793 71.2457H138.885L140.898 63.5455H142.191L144.204 71.2457H144.296L146.272 63.5455H147.435L144.85 73H143.668L141.581 65.4659H141.508L139.421 73H138.239ZM151.027 73.1477C150.344 73.1477 149.754 72.9969 149.259 72.6953C148.766 72.3906 148.386 71.9659 148.118 71.4212C147.854 70.8733 147.721 70.2363 147.721 69.5099C147.721 68.7836 147.854 68.1435 148.118 67.5895C148.386 67.0324 148.759 66.5985 149.236 66.2876C149.716 65.9737 150.276 65.8168 150.916 65.8168C151.285 65.8168 151.65 65.8783 152.01 66.0014C152.37 66.1245 152.698 66.3246 152.993 66.6016C153.289 66.8755 153.524 67.2386 153.7 67.6911C153.875 68.1435 153.963 68.7005 153.963 69.3622V69.8239H148.497V68.8821H152.855C152.855 68.482 152.775 68.125 152.615 67.8111C152.458 67.4972 152.233 67.2494 151.941 67.0678C151.652 66.8862 151.31 66.7955 150.916 66.7955C150.482 66.7955 150.107 66.9032 149.79 67.1186C149.476 67.331 149.234 67.608 149.065 67.9496C148.896 68.2912 148.811 68.6574 148.811 69.0483V69.6761C148.811 70.2116 148.903 70.6656 149.088 71.038C149.276 71.4073 149.536 71.6889 149.868 71.8828C150.2 72.0736 150.587 72.169 151.027 72.169C151.313 72.169 151.572 72.129 151.802 72.049C152.036 71.9659 152.238 71.8428 152.407 71.6797C152.576 71.5135 152.707 71.3073 152.8 71.0611L153.852 71.3565C153.741 71.7135 153.555 72.0275 153.294 72.2983C153.032 72.5661 152.709 72.7753 152.324 72.9261C151.939 73.0739 151.507 73.1477 151.027 73.1477Z" fill="#2E263D" fill-opacity="0.9"/>
<path d="M173.617 64.5611V63.5455H180.708V64.5611H177.735V73H176.59V64.5611H173.617ZM183.417 68.7344V73H182.327V63.5455H183.417V67.017H183.509C183.675 66.6508 183.925 66.36 184.257 66.1445C184.592 65.926 185.039 65.8168 185.596 65.8168C186.079 65.8168 186.502 65.9137 186.865 66.1076C187.228 66.2984 187.51 66.5923 187.71 66.9893C187.913 67.3833 188.015 67.8849 188.015 68.4943V73H186.925V68.5682C186.925 68.005 186.779 67.5695 186.487 67.2617C186.197 66.9509 185.796 66.7955 185.282 66.7955C184.925 66.7955 184.605 66.8709 184.322 67.0217C184.041 67.1725 183.82 67.3925 183.657 67.6818C183.497 67.9711 183.417 68.322 183.417 68.7344Z" fill="#2E263D" fill-opacity="0.9"/>
<path d="M211.95 73V63.5455H217.619V64.5611H213.094V67.7557H217.194V68.7713H213.094V73H211.95ZM219.356 73V65.9091H220.408V66.9801H220.482C220.611 66.6293 220.845 66.3446 221.184 66.1261C221.522 65.9076 221.904 65.7983 222.329 65.7983C222.409 65.7983 222.509 65.7998 222.629 65.8029C222.749 65.806 222.839 65.8106 222.901 65.8168V66.9247C222.864 66.9155 222.779 66.9016 222.647 66.8832C222.518 66.8616 222.381 66.8509 222.236 66.8509C221.892 66.8509 221.584 66.9232 221.313 67.0678C221.045 67.2094 220.833 67.4064 220.676 67.6587C220.522 67.908 220.445 68.1927 220.445 68.5128V73H219.356Z" fill="#2E263D" fill-opacity="0.9"/>
<path d="M251.508 65.9091C251.452 65.4413 251.228 65.0781 250.834 64.8196C250.44 64.5611 249.957 64.4318 249.384 64.4318C248.966 64.4318 248.599 64.4995 248.285 64.6349C247.975 64.7704 247.731 64.9566 247.556 65.1935C247.384 65.4305 247.297 65.6998 247.297 66.0014C247.297 66.2538 247.358 66.4708 247.478 66.6523C247.601 66.8308 247.758 66.9801 247.948 67.1001C248.139 67.2171 248.339 67.314 248.549 67.391C248.758 67.4648 248.95 67.5249 249.126 67.571L250.086 67.8295C250.332 67.8942 250.606 67.9834 250.908 68.0973C251.212 68.2112 251.503 68.3666 251.78 68.5636C252.06 68.7575 252.291 69.0067 252.473 69.3114C252.654 69.6161 252.745 69.9901 252.745 70.4332C252.745 70.9441 252.611 71.4058 252.343 71.8182C252.079 72.2306 251.691 72.5584 251.18 72.8015C250.672 73.0446 250.055 73.1662 249.329 73.1662C248.652 73.1662 248.065 73.0569 247.57 72.8384C247.077 72.6199 246.69 72.3152 246.407 71.9244C246.126 71.5335 245.968 71.0795 245.931 70.5625H247.113C247.144 70.9195 247.264 71.215 247.473 71.4489C247.685 71.6797 247.953 71.852 248.276 71.9659C248.602 72.0767 248.953 72.1321 249.329 72.1321C249.766 72.1321 250.158 72.0613 250.506 71.9197C250.854 71.7751 251.129 71.575 251.332 71.3196C251.535 71.0611 251.637 70.7595 251.637 70.4148C251.637 70.1009 251.549 69.8454 251.374 69.6484C251.198 69.4515 250.968 69.2914 250.681 69.1683C250.395 69.0452 250.086 68.9375 249.753 68.8452L248.59 68.5128C247.851 68.3004 247.267 67.9973 246.836 67.6033C246.405 67.2094 246.19 66.6939 246.19 66.0568C246.19 65.5275 246.333 65.0658 246.619 64.6719C246.908 64.2749 247.296 63.9671 247.782 63.7486C248.272 63.527 248.818 63.4162 249.421 63.4162C250.03 63.4162 250.572 63.5254 251.046 63.744C251.52 63.9594 251.896 64.2549 252.172 64.6303C252.453 65.0058 252.6 65.4321 252.616 65.9091H251.508ZM256.566 73.1662C256.117 73.1662 255.709 73.0816 255.343 72.9123C254.977 72.7399 254.686 72.4922 254.47 72.169C254.255 71.8428 254.147 71.4489 254.147 70.9872C254.147 70.581 254.227 70.2517 254.387 69.9993C254.547 69.7438 254.761 69.5438 255.029 69.3991C255.297 69.2545 255.592 69.1468 255.915 69.076C256.242 69.0021 256.569 68.9437 256.899 68.9006C257.329 68.8452 257.679 68.8036 257.947 68.7759C258.217 68.7451 258.414 68.6944 258.537 68.6236C258.664 68.5528 258.727 68.4297 258.727 68.2543V68.2173C258.727 67.7618 258.602 67.4079 258.353 67.1555C258.107 66.9032 257.733 66.777 257.231 66.777C256.711 66.777 256.303 66.8909 256.008 67.1186C255.712 67.3464 255.504 67.5895 255.384 67.848L254.35 67.4787C254.535 67.0478 254.781 66.7124 255.089 66.4723C255.4 66.2292 255.738 66.0599 256.105 65.9645C256.474 65.866 256.837 65.8168 257.194 65.8168C257.422 65.8168 257.683 65.8445 257.979 65.8999C258.277 65.9522 258.565 66.0614 258.842 66.2276C259.122 66.3938 259.355 66.6446 259.539 66.9801C259.724 67.3156 259.816 67.7649 259.816 68.3281V73H258.727V72.0398H258.671C258.597 72.1937 258.474 72.3583 258.302 72.5337C258.13 72.7092 257.9 72.8584 257.614 72.9815C257.328 73.1046 256.979 73.1662 256.566 73.1662ZM256.732 72.1875C257.163 72.1875 257.526 72.1029 257.822 71.9336C258.12 71.7643 258.345 71.5458 258.496 71.2781C258.65 71.0103 258.727 70.7287 258.727 70.4332V69.4361C258.681 69.4915 258.579 69.5423 258.422 69.5884C258.268 69.6315 258.09 69.67 257.887 69.7038C257.686 69.7346 257.491 69.7623 257.3 69.7869C257.113 69.8085 256.96 69.8269 256.843 69.8423C256.56 69.8793 256.295 69.9393 256.049 70.0224C255.806 70.1024 255.609 70.224 255.458 70.3871C255.311 70.5471 255.237 70.7656 255.237 71.0426C255.237 71.4212 255.377 71.7074 255.657 71.9013C255.94 72.0921 256.298 72.1875 256.732 72.1875Z" fill="#2E263D" fill-opacity="0.9"/>
<path d="M28.9667 119V118.041L32.5675 114.099C32.9901 113.638 33.3381 113.237 33.6116 112.896C33.885 112.551 34.0874 112.228 34.2188 111.926C34.3537 111.621 34.4212 111.301 34.4212 110.967C34.4212 110.584 34.3289 110.252 34.1442 109.971C33.9631 109.691 33.7145 109.474 33.3985 109.321C33.0824 109.169 32.7273 109.092 32.3331 109.092C31.9141 109.092 31.5483 109.179 31.2358 109.353C30.9269 109.524 30.6872 109.763 30.5167 110.072C30.3498 110.381 30.2664 110.744 30.2664 111.159H29.0093C29.0093 110.52 29.1566 109.959 29.4514 109.476C29.7461 108.993 30.1474 108.616 30.6552 108.347C31.1666 108.077 31.7401 107.942 32.3758 107.942C33.015 107.942 33.5814 108.077 34.075 108.347C34.5686 108.616 34.9557 108.98 35.2362 109.439C35.5167 109.897 35.657 110.406 35.657 110.967C35.657 111.369 35.5842 111.761 35.4386 112.145C35.2966 112.525 35.048 112.949 34.6929 113.418C34.3413 113.883 33.853 114.451 33.228 115.122L30.7777 117.743V117.828H35.8488V119H28.9667ZM41.543 119.149C40.8115 119.149 40.1652 119.02 39.6041 118.76C39.0466 118.498 38.6116 118.137 38.2991 117.679C37.9866 117.217 37.8321 116.692 37.8356 116.102C37.8321 115.641 37.9226 115.214 38.1073 114.824C38.2919 114.43 38.5441 114.101 38.8637 113.838C39.1868 113.572 39.5473 113.403 39.945 113.332V113.268C39.423 113.134 39.0075 112.841 38.6986 112.39C38.3896 111.935 38.2369 111.418 38.2405 110.839C38.2369 110.286 38.3772 109.79 38.6613 109.353C38.9454 108.917 39.336 108.572 39.8331 108.32C40.3339 108.068 40.9038 107.942 41.543 107.942C42.1751 107.942 42.7397 108.068 43.2369 108.32C43.7341 108.572 44.1247 108.917 44.4088 109.353C44.6964 109.79 44.842 110.286 44.8456 110.839C44.842 111.418 44.684 111.935 44.3715 112.39C44.0625 112.841 43.6524 113.134 43.141 113.268V113.332C43.5352 113.403 43.8903 113.572 44.2064 113.838C44.5224 114.101 44.7745 114.43 44.9628 114.824C45.151 115.214 45.2468 115.641 45.2504 116.102C45.2468 116.692 45.087 117.217 44.771 117.679C44.4585 118.137 44.0235 118.498 43.466 118.76C42.912 119.02 42.271 119.149 41.543 119.149ZM41.543 117.977C42.0366 117.977 42.4628 117.897 42.8214 117.738C43.1801 117.578 43.4571 117.352 43.6524 117.061C43.8477 116.77 43.9471 116.429 43.9507 116.038C43.9471 115.626 43.8406 115.262 43.6311 114.946C43.4216 114.63 43.1357 114.382 42.7735 114.201C42.4148 114.02 42.0047 113.929 41.543 113.929C41.0778 113.929 40.6623 114.02 40.2966 114.201C39.9343 114.382 39.6485 114.63 39.439 114.946C39.233 115.262 39.1318 115.626 39.1353 116.038C39.1318 116.429 39.2259 116.77 39.4177 117.061C39.613 117.352 39.8917 117.578 40.254 117.738C40.6162 117.897 41.0459 117.977 41.543 117.977ZM41.543 112.8C41.9336 112.8 42.2799 112.722 42.5817 112.565C42.8871 112.409 43.1268 112.191 43.3008 111.91C43.4748 111.63 43.5636 111.301 43.5672 110.925C43.5636 110.555 43.4766 110.234 43.3062 109.961C43.1357 109.684 42.8995 109.471 42.5977 109.321C42.2959 109.169 41.9443 109.092 41.543 109.092C41.1346 109.092 40.7777 109.169 40.4723 109.321C40.1669 109.471 39.9308 109.684 39.7639 109.961C39.597 110.234 39.5153 110.555 39.5189 110.925C39.5153 111.301 39.5988 111.63 39.7692 111.91C39.9432 112.191 40.1829 112.409 40.4883 112.565C40.7937 112.722 41.1453 112.8 41.543 112.8Z" fill="#2E263D" fill-opacity="0.4"/>
<path d="M64.9081 119V118.041L68.5089 114.099C68.9315 113.638 69.2795 113.237 69.553 112.896C69.8264 112.551 70.0288 112.228 70.1602 111.926C70.2951 111.621 70.3626 111.301 70.3626 110.967C70.3626 110.584 70.2703 110.252 70.0856 109.971C69.9045 109.691 69.6559 109.474 69.3399 109.321C69.0238 109.169 68.6687 109.092 68.2745 109.092C67.8555 109.092 67.4897 109.179 67.1772 109.353C66.8683 109.524 66.6286 109.763 66.4581 110.072C66.2912 110.381 66.2078 110.744 66.2078 111.159H64.9507C64.9507 110.52 65.0981 109.959 65.3928 109.476C65.6875 108.993 66.0888 108.616 66.5966 108.347C67.108 108.077 67.6815 107.942 68.3172 107.942C68.9564 107.942 69.5228 108.077 70.0164 108.347C70.51 108.616 70.8971 108.98 71.1776 109.439C71.4581 109.897 71.5984 110.406 71.5984 110.967C71.5984 111.369 71.5256 111.761 71.38 112.145C71.238 112.525 70.9894 112.949 70.6343 113.418C70.2827 113.883 69.7944 114.451 69.1694 115.122L66.7191 117.743V117.828H71.7902V119H64.9081ZM77.4631 107.942C77.9106 107.945 78.358 108.031 78.8054 108.197C79.2529 108.364 79.6613 108.641 80.0306 109.028C80.3999 109.412 80.6964 109.936 80.9201 110.6C81.1439 111.264 81.2557 112.097 81.2557 113.098C81.2557 114.067 81.1634 114.929 80.9787 115.681C80.7976 116.431 80.5348 117.063 80.1904 117.578C79.8495 118.093 79.434 118.483 78.9439 118.75C78.4574 119.016 77.907 119.149 77.2927 119.149C76.6819 119.149 76.1368 119.028 75.6574 118.787C75.1815 118.542 74.7909 118.203 74.4855 117.77C74.1836 117.333 73.9901 116.827 73.9049 116.251H75.2046C75.3218 116.752 75.5544 117.166 75.9024 117.493C76.254 117.816 76.7174 117.977 77.2927 117.977C78.1343 117.977 78.7983 117.61 79.2848 116.875C79.7749 116.14 80.0199 115.101 80.0199 113.759H79.9347C79.7358 114.057 79.4997 114.314 79.2263 114.531C78.9528 114.748 78.6492 114.914 78.3154 115.032C77.9816 115.149 77.6265 115.207 77.25 115.207C76.625 115.207 76.0515 115.053 75.5295 114.744C75.0111 114.431 74.5956 114.004 74.2831 113.46C73.9741 112.913 73.8196 112.288 73.8196 111.585C73.8196 110.918 73.9688 110.307 74.2671 109.753C74.5689 109.195 74.9915 108.751 75.5348 108.421C76.0817 108.091 76.7245 107.931 77.4631 107.942ZM77.4631 109.114C77.0157 109.114 76.6126 109.225 76.254 109.449C75.8988 109.669 75.6165 109.968 75.407 110.344C75.201 110.717 75.0981 111.131 75.0981 111.585C75.0981 112.04 75.1975 112.453 75.3964 112.826C75.5988 113.196 75.874 113.49 76.222 113.711C76.5736 113.927 76.9731 114.036 77.4205 114.036C77.7579 114.036 78.0721 113.97 78.3633 113.838C78.6545 113.703 78.9084 113.521 79.125 113.29C79.3452 113.055 79.5174 112.791 79.6417 112.496C79.766 112.198 79.8282 111.887 79.8282 111.564C79.8282 111.138 79.7252 110.738 79.5192 110.365C79.3168 109.993 79.0363 109.691 78.6776 109.46C78.3225 109.229 77.9177 109.114 77.4631 109.114Z" fill="#2E263D" fill-opacity="0.4"/>
<path d="M104.352 119.149C103.649 119.149 103.023 119.028 102.472 118.787C101.925 118.545 101.49 118.21 101.167 117.78C100.847 117.347 100.673 116.844 100.645 116.273H101.987C102.016 116.624 102.137 116.928 102.35 117.184C102.563 117.436 102.841 117.631 103.186 117.77C103.53 117.908 103.912 117.977 104.331 117.977C104.8 117.977 105.215 117.896 105.578 117.732C105.94 117.569 106.224 117.342 106.43 117.05C106.636 116.759 106.739 116.422 106.739 116.038C106.739 115.637 106.639 115.284 106.441 114.978C106.242 114.669 105.95 114.428 105.567 114.254C105.183 114.08 104.715 113.993 104.161 113.993H103.287V112.821H104.161C104.594 112.821 104.974 112.743 105.301 112.587C105.631 112.43 105.888 112.21 106.073 111.926C106.261 111.642 106.355 111.308 106.355 110.925C106.355 110.555 106.274 110.234 106.11 109.961C105.947 109.687 105.716 109.474 105.418 109.321C105.123 109.169 104.775 109.092 104.374 109.092C103.997 109.092 103.642 109.162 103.308 109.3C102.978 109.435 102.708 109.632 102.499 109.891C102.289 110.147 102.176 110.456 102.158 110.818H100.879C100.901 110.246 101.073 109.746 101.396 109.316C101.719 108.883 102.142 108.545 102.664 108.304C103.189 108.062 103.767 107.942 104.395 107.942C105.07 107.942 105.649 108.078 106.132 108.352C106.615 108.622 106.986 108.979 107.245 109.423C107.504 109.866 107.634 110.346 107.634 110.861C107.634 111.475 107.472 111.999 107.149 112.432C106.829 112.865 106.394 113.165 105.844 113.332V113.418C106.533 113.531 107.071 113.824 107.458 114.297C107.845 114.765 108.039 115.346 108.039 116.038C108.039 116.631 107.877 117.164 107.554 117.636C107.234 118.105 106.797 118.474 106.243 118.744C105.689 119.014 105.059 119.149 104.352 119.149ZM113.775 119.149C112.973 119.149 112.289 118.931 111.725 118.494C111.16 118.054 110.729 117.416 110.43 116.582C110.132 115.744 109.983 114.732 109.983 113.545C109.983 112.366 110.132 111.36 110.43 110.525C110.732 109.687 111.165 109.048 111.73 108.608C112.298 108.164 112.98 107.942 113.775 107.942C114.571 107.942 115.251 108.164 115.816 108.608C116.384 109.048 116.817 109.687 117.115 110.525C117.417 111.36 117.568 112.366 117.568 113.545C117.568 114.732 117.419 115.744 117.121 116.582C116.822 117.416 116.391 118.054 115.826 118.494C115.262 118.931 114.578 119.149 113.775 119.149ZM113.775 117.977C114.571 117.977 115.189 117.594 115.629 116.827C116.069 116.06 116.29 114.966 116.29 113.545C116.29 112.601 116.188 111.797 115.986 111.132C115.787 110.468 115.499 109.962 115.123 109.614C114.75 109.266 114.301 109.092 113.775 109.092C112.987 109.092 112.371 109.481 111.927 110.259C111.483 111.033 111.261 112.129 111.261 113.545C111.261 114.49 111.361 115.293 111.559 115.953C111.758 116.614 112.044 117.116 112.417 117.461C112.794 117.805 113.246 117.977 113.775 117.977Z" fill="#2E263D" fill-opacity="0.4"/>
<path d="M146.478 108.091V119H145.157V109.476H145.093L142.43 111.244V109.902L145.157 108.091H146.478Z" fill="#2E263D" fill-opacity="0.9"/>
<path d="M177.588 119V118.041L181.189 114.099C181.612 113.638 181.96 113.237 182.233 112.896C182.507 112.551 182.709 112.228 182.84 111.926C182.975 111.621 183.043 111.301 183.043 110.967C183.043 110.584 182.95 110.252 182.766 109.971C182.585 109.691 182.336 109.474 182.02 109.321C181.704 109.169 181.349 109.092 180.955 109.092C180.536 109.092 180.17 109.179 179.857 109.353C179.548 109.524 179.309 109.763 179.138 110.072C178.971 110.381 178.888 110.744 178.888 111.159H177.631C177.631 110.52 177.778 109.959 178.073 109.476C178.368 108.993 178.769 108.616 179.277 108.347C179.788 108.077 180.362 107.942 180.997 107.942C181.637 107.942 182.203 108.077 182.697 108.347C183.19 108.616 183.577 108.98 183.858 109.439C184.138 109.897 184.279 110.406 184.279 110.967C184.279 111.369 184.206 111.761 184.06 112.145C183.918 112.525 183.67 112.949 183.314 113.418C182.963 113.883 182.475 114.451 181.85 115.122L179.399 117.743V117.828H184.47V119H177.588Z" fill="#2E263D" fill-opacity="0.9"/>
<path d="M217.04 119.149C216.337 119.149 215.71 119.028 215.16 118.787C214.613 118.545 214.178 118.21 213.855 117.78C213.535 117.347 213.361 116.844 213.333 116.273H214.675C214.703 116.624 214.824 116.928 215.037 117.184C215.25 117.436 215.529 117.631 215.873 117.77C216.218 117.908 216.6 117.977 217.019 117.977C217.487 117.977 217.903 117.896 218.265 117.732C218.627 117.569 218.911 117.342 219.117 117.05C219.323 116.759 219.426 116.422 219.426 116.038C219.426 115.637 219.327 115.284 219.128 114.978C218.929 114.669 218.638 114.428 218.254 114.254C217.871 114.08 217.402 113.993 216.848 113.993H215.975V112.821H216.848C217.281 112.821 217.661 112.743 217.988 112.587C218.318 112.43 218.576 112.21 218.76 111.926C218.949 111.642 219.043 111.308 219.043 110.925C219.043 110.555 218.961 110.234 218.798 109.961C218.634 109.687 218.404 109.474 218.105 109.321C217.811 109.169 217.463 109.092 217.061 109.092C216.685 109.092 216.33 109.162 215.996 109.3C215.666 109.435 215.396 109.632 215.186 109.891C214.977 110.147 214.863 110.456 214.845 110.818H213.567C213.588 110.246 213.76 109.746 214.084 109.316C214.407 108.883 214.829 108.545 215.351 108.304C215.877 108.062 216.454 107.942 217.083 107.942C217.757 107.942 218.336 108.078 218.819 108.352C219.302 108.622 219.673 108.979 219.932 109.423C220.192 109.866 220.321 110.346 220.321 110.861C220.321 111.475 220.16 111.999 219.836 112.432C219.517 112.865 219.082 113.165 218.531 113.332V113.418C219.22 113.531 219.758 113.824 220.145 114.297C220.532 114.765 220.726 115.346 220.726 116.038C220.726 116.631 220.564 117.164 220.241 117.636C219.922 118.105 219.485 118.474 218.931 118.744C218.377 119.014 217.747 119.149 217.04 119.149Z" fill="#2E263D" fill-opacity="0.9"/>
<path d="M249.062 116.763V115.676L253.856 108.091H254.644V109.774H254.111L250.489 115.506V115.591H256.945V116.763H249.062ZM254.197 119V116.433V115.926V108.091H255.454V119H254.197Z" fill="#2E263D" fill-opacity="0.9"/>
<path d="M36.9754 155.149C36.3504 155.149 35.7875 155.025 35.2868 154.776C34.7861 154.528 34.3848 154.187 34.083 153.754C33.7811 153.32 33.616 152.827 33.5876 152.273H34.866C34.9157 152.766 35.1394 153.175 35.5372 153.498C35.9384 153.817 36.4178 153.977 36.9754 153.977C37.4228 153.977 37.8205 153.873 38.1685 153.663C38.5201 153.453 38.7953 153.166 38.9942 152.8C39.1966 152.431 39.2978 152.013 39.2978 151.548C39.2978 151.072 39.193 150.648 38.9835 150.275C38.7776 149.899 38.4935 149.602 38.1313 149.386C37.769 149.169 37.3553 149.059 36.8901 149.055C36.5563 149.052 36.2136 149.103 35.8621 149.21C35.5105 149.313 35.2211 149.446 34.9938 149.609L33.758 149.46L34.4185 144.091H40.0862V145.263H35.5265L35.143 148.48H35.2069C35.4306 148.303 35.7112 148.155 36.0485 148.038C36.3859 147.921 36.7374 147.862 37.1032 147.862C37.7708 147.862 38.3656 148.022 38.8877 148.342C39.4132 148.658 39.8252 149.091 40.1234 149.641C40.4253 150.192 40.5762 150.82 40.5762 151.527C40.5762 152.223 40.42 152.844 40.1075 153.391C39.7985 153.935 39.3724 154.364 38.8291 154.68C38.2857 154.993 37.6678 155.149 36.9754 155.149Z" fill="#2E263D" fill-opacity="0.9"/>
<rect x="55" y="132" width="36" height="36" rx="18" fill="#8C57FF" fill-opacity="0.24"/>
<path d="M73.0712 155.149C72.6238 155.142 72.1764 155.057 71.7289 154.893C71.2815 154.73 70.8731 154.455 70.5038 154.068C70.1345 153.677 69.8379 153.15 69.6142 152.486C69.3905 151.818 69.2786 150.98 69.2786 149.972C69.2786 149.006 69.3692 148.15 69.5503 147.404C69.7314 146.655 69.9942 146.025 70.3386 145.513C70.6831 144.998 71.0986 144.608 71.5851 144.341C72.0752 144.075 72.6274 143.942 73.2417 143.942C73.8525 143.942 74.3958 144.064 74.8717 144.309C75.3511 144.551 75.7417 144.888 76.0435 145.321C76.3454 145.755 76.5407 146.254 76.6295 146.818H75.3298C75.209 146.328 74.9747 145.922 74.6266 145.598C74.2786 145.275 73.817 145.114 73.2417 145.114C72.3965 145.114 71.7307 145.481 71.2442 146.216C70.7612 146.951 70.518 147.983 70.5144 149.311H70.5997C70.7985 149.009 71.0347 148.752 71.3081 148.539C71.5851 148.322 71.8905 148.155 72.2243 148.038C72.5581 147.921 72.9114 147.862 73.2843 147.862C73.9093 147.862 74.481 148.018 74.9995 148.331C75.518 148.64 75.9335 149.068 76.246 149.615C76.5585 150.158 76.7147 150.781 76.7147 151.484C76.7147 152.159 76.5638 152.777 76.2619 153.338C75.9601 153.896 75.5357 154.339 74.9889 154.67C74.4455 154.996 73.8063 155.156 73.0712 155.149ZM73.0712 153.977C73.5187 153.977 73.92 153.865 74.2751 153.642C74.6337 153.418 74.9161 153.118 75.122 152.741C75.3315 152.365 75.4363 151.946 75.4363 151.484C75.4363 151.033 75.3351 150.623 75.1327 150.254C74.9338 149.881 74.6586 149.585 74.307 149.364C73.959 149.144 73.5613 149.034 73.1139 149.034C72.7765 149.034 72.4622 149.102 72.171 149.237C71.8798 149.368 71.6242 149.549 71.404 149.78C71.1874 150.011 71.0169 150.275 70.8926 150.574C70.7683 150.868 70.7062 151.179 70.7062 151.506C70.7062 151.939 70.8074 152.344 71.0098 152.72C71.2158 153.097 71.4963 153.4 71.8514 153.631C72.2101 153.862 72.6167 153.977 73.0712 153.977Z" fill="#8C57FF"/>
<path d="M106.186 155L111.065 145.348V145.263H105.44V144.091H112.428V145.327L107.57 155H106.186Z" fill="#2E263D" fill-opacity="0.9"/>
<path d="M145.002 155.149C144.27 155.149 143.624 155.02 143.063 154.76C142.506 154.498 142.071 154.137 141.758 153.679C141.446 153.217 141.291 152.692 141.295 152.102C141.291 151.641 141.382 151.214 141.566 150.824C141.751 150.43 142.003 150.101 142.323 149.838C142.646 149.572 143.006 149.403 143.404 149.332V149.268C142.882 149.134 142.466 148.841 142.158 148.39C141.849 147.935 141.696 147.418 141.699 146.839C141.696 146.286 141.836 145.79 142.12 145.353C142.404 144.917 142.795 144.572 143.292 144.32C143.793 144.068 144.363 143.942 145.002 143.942C145.634 143.942 146.199 144.068 146.696 144.32C147.193 144.572 147.584 144.917 147.868 145.353C148.155 145.79 148.301 146.286 148.305 146.839C148.301 147.418 148.143 147.935 147.83 148.39C147.522 148.841 147.111 149.134 146.6 149.268V149.332C146.994 149.403 147.349 149.572 147.665 149.838C147.981 150.101 148.234 150.43 148.422 150.824C148.61 151.214 148.706 151.641 148.709 152.102C148.706 152.692 148.546 153.217 148.23 153.679C147.917 154.137 147.482 154.498 146.925 154.76C146.371 155.02 145.73 155.149 145.002 155.149ZM145.002 153.977C145.496 153.977 145.922 153.897 146.28 153.738C146.639 153.578 146.916 153.352 147.111 153.061C147.307 152.77 147.406 152.429 147.41 152.038C147.406 151.626 147.3 151.262 147.09 150.946C146.881 150.63 146.595 150.382 146.232 150.201C145.874 150.02 145.464 149.929 145.002 149.929C144.537 149.929 144.121 150.02 143.756 150.201C143.393 150.382 143.107 150.63 142.898 150.946C142.692 151.262 142.591 151.626 142.594 152.038C142.591 152.429 142.685 152.77 142.877 153.061C143.072 153.352 143.351 153.578 143.713 153.738C144.075 153.897 144.505 153.977 145.002 153.977ZM145.002 148.8C145.393 148.8 145.739 148.722 146.041 148.565C146.346 148.409 146.586 148.191 146.76 147.91C146.934 147.63 147.023 147.301 147.026 146.925C147.023 146.555 146.936 146.234 146.765 145.961C146.595 145.684 146.359 145.471 146.057 145.321C145.755 145.169 145.403 145.092 145.002 145.092C144.594 145.092 144.237 145.169 143.931 145.321C143.626 145.471 143.39 145.684 143.223 145.961C143.056 146.234 142.974 146.555 142.978 146.925C142.974 147.301 143.058 147.63 143.228 147.91C143.402 148.191 143.642 148.409 143.947 148.565C144.253 148.722 144.604 148.8 145.002 148.8Z" fill="#2E263D" fill-opacity="0.9"/>
<path d="M180.922 143.942C181.37 143.945 181.817 144.031 182.264 144.197C182.712 144.364 183.12 144.641 183.49 145.028C183.859 145.412 184.155 145.936 184.379 146.6C184.603 147.264 184.715 148.097 184.715 149.098C184.715 150.067 184.622 150.929 184.438 151.681C184.257 152.431 183.994 153.063 183.649 153.578C183.308 154.093 182.893 154.483 182.403 154.75C181.916 155.016 181.366 155.149 180.752 155.149C180.141 155.149 179.596 155.028 179.116 154.787C178.64 154.542 178.25 154.203 177.944 153.77C177.643 153.333 177.449 152.827 177.364 152.251H178.664C178.781 152.752 179.013 153.166 179.361 153.493C179.713 153.816 180.176 153.977 180.752 153.977C181.593 153.977 182.257 153.61 182.744 152.875C183.234 152.14 183.479 151.101 183.479 149.759H183.394C183.195 150.057 182.959 150.314 182.685 150.531C182.412 150.748 182.108 150.914 181.774 151.032C181.441 151.149 181.085 151.207 180.709 151.207C180.084 151.207 179.511 151.053 178.989 150.744C178.47 150.431 178.055 150.004 177.742 149.46C177.433 148.913 177.279 148.288 177.279 147.585C177.279 146.918 177.428 146.307 177.726 145.753C178.028 145.195 178.451 144.751 178.994 144.421C179.541 144.091 180.183 143.931 180.922 143.942ZM180.922 145.114C180.475 145.114 180.072 145.225 179.713 145.449C179.358 145.669 179.076 145.968 178.866 146.344C178.66 146.717 178.557 147.131 178.557 147.585C178.557 148.04 178.656 148.453 178.855 148.826C179.058 149.196 179.333 149.49 179.681 149.711C180.033 149.927 180.432 150.036 180.879 150.036C181.217 150.036 181.531 149.97 181.822 149.838C182.114 149.703 182.367 149.521 182.584 149.29C182.804 149.055 182.976 148.791 183.101 148.496C183.225 148.198 183.287 147.887 183.287 147.564C183.287 147.138 183.184 146.738 182.978 146.365C182.776 145.993 182.495 145.691 182.137 145.46C181.781 145.229 181.377 145.114 180.922 145.114Z" fill="#2E263D" fill-opacity="0.9"/>
<rect x="199" y="132" width="36" height="36" rx="18" fill="#56CA00" fill-opacity="0.16"/>
<path d="M213.666 144.091V155H212.345V145.476H212.281L209.618 147.244V145.902L212.345 144.091H213.666ZM216.548 152.763V151.676L221.342 144.091H222.13V145.774H221.598L217.975 151.506V151.591H224.431V152.763H216.548ZM221.683 155V152.433V151.926V144.091H222.94V155H221.683Z" fill="#56CA00"/>
<path d="M250.992 144.091V155H249.671V145.476H249.607L246.944 147.244V145.902L249.671 144.091H250.992ZM257.964 144.091V155H256.643V145.476H256.58L253.916 147.244V145.902L256.643 144.091H257.964Z" fill="#2E263D" fill-opacity="0.9"/>
<path d="M33.9371 180.091V191H32.6161V181.476H32.5522L29.8888 183.244V181.902L32.6161 180.091H33.9371ZM37.0746 191V190.041L40.6754 186.099C41.098 185.638 41.446 185.237 41.7195 184.896C41.9929 184.551 42.1953 184.228 42.3267 183.926C42.4616 183.621 42.5291 183.301 42.5291 182.967C42.5291 182.584 42.4368 182.252 42.2521 181.971C42.071 181.691 41.8224 181.474 41.5064 181.321C41.1903 181.169 40.8352 181.092 40.4411 181.092C40.022 181.092 39.6562 181.179 39.3438 181.353C39.0348 181.524 38.7951 181.763 38.6246 182.072C38.4577 182.381 38.3743 182.744 38.3743 183.159H37.1172C37.1172 182.52 37.2646 181.959 37.5593 181.476C37.854 180.993 38.2553 180.616 38.7631 180.347C39.2745 180.077 39.848 179.942 40.4837 179.942C41.1229 179.942 41.6893 180.077 42.1829 180.347C42.6765 180.616 43.0636 180.98 43.3441 181.439C43.6246 181.897 43.7649 182.406 43.7649 182.967C43.7649 183.369 43.6921 183.761 43.5465 184.145C43.4045 184.525 43.1559 184.949 42.8008 185.418C42.4492 185.883 41.9609 186.451 41.3359 187.122L38.8857 189.743V189.828H43.9567V191H37.0746Z" fill="#2E263D" fill-opacity="0.9"/>
<path d="M69.7028 180.091V191H68.3817V181.476H68.3178L65.6545 183.244V181.902L68.3817 180.091H69.7028ZM76.5263 191.149C75.8232 191.149 75.1964 191.028 74.646 190.787C74.0991 190.545 73.6641 190.21 73.3409 189.78C73.0213 189.347 72.8473 188.844 72.8189 188.273H74.1612C74.1896 188.624 74.3104 188.928 74.5234 189.184C74.7365 189.436 75.0153 189.631 75.3597 189.77C75.7042 189.908 76.0859 189.977 76.505 189.977C76.9737 189.977 77.3892 189.896 77.7514 189.732C78.1136 189.569 78.3977 189.342 78.6037 189.05C78.8097 188.759 78.9126 188.422 78.9126 188.038C78.9126 187.637 78.8132 187.284 78.6143 186.978C78.4155 186.669 78.1243 186.428 77.7408 186.254C77.3572 186.08 76.8885 185.993 76.3345 185.993H75.4609V184.821H76.3345C76.7678 184.821 77.1477 184.743 77.4744 184.587C77.8047 184.43 78.0621 184.21 78.2468 183.926C78.435 183.642 78.5291 183.308 78.5291 182.925C78.5291 182.555 78.4474 182.234 78.2841 181.961C78.1207 181.687 77.8899 181.474 77.5916 181.321C77.2969 181.169 76.9489 181.092 76.5476 181.092C76.1712 181.092 75.8161 181.162 75.4822 181.3C75.152 181.435 74.8821 181.632 74.6726 181.891C74.4631 182.147 74.3494 182.456 74.3317 182.818H73.0533C73.0746 182.246 73.2468 181.746 73.57 181.316C73.8931 180.883 74.3157 180.545 74.8377 180.304C75.3633 180.062 75.9403 179.942 76.5689 179.942C77.2436 179.942 77.8224 180.078 78.3054 180.352C78.7884 180.622 79.1594 180.979 79.4187 181.423C79.6779 181.866 79.8075 182.346 79.8075 182.861C79.8075 183.475 79.646 183.999 79.3228 184.432C79.0032 184.865 78.5682 185.165 78.0178 185.332V185.418C78.7067 185.531 79.2447 185.824 79.6317 186.297C80.0188 186.765 80.2124 187.346 80.2124 188.038C80.2124 188.631 80.0508 189.164 79.7276 189.636C79.408 190.105 78.9712 190.474 78.4173 190.744C77.8633 191.014 77.233 191.149 76.5263 191.149Z" fill="#2E263D" fill-opacity="0.9"/>
<g filter="url(#filter1_d_8003_2734)">
<rect x="91" y="168" width="36" height="36" rx="18" fill="#8C57FF"/>
<path d="M105.666 180.091V191H104.345V181.476H104.281L101.618 183.244V181.902L104.345 180.091H105.666ZM108.548 188.763V187.676L113.342 180.091H114.13V181.774H113.598L109.975 187.506V187.591H116.431V188.763H108.548ZM113.683 191V188.433V187.926V180.091H114.94V191H113.683Z" fill="white"/>
</g>
<path d="M141.915 180.091V191H140.594V181.476H140.53L137.867 183.244V181.902L140.594 180.091H141.915ZM148.462 191.149C147.837 191.149 147.274 191.025 146.773 190.776C146.272 190.528 145.871 190.187 145.569 189.754C145.267 189.32 145.102 188.827 145.074 188.273H146.352C146.402 188.766 146.626 189.175 147.023 189.498C147.425 189.817 147.904 189.977 148.462 189.977C148.909 189.977 149.307 189.873 149.655 189.663C150.006 189.453 150.282 189.166 150.481 188.8C150.683 188.431 150.784 188.013 150.784 187.548C150.784 187.072 150.679 186.648 150.47 186.275C150.264 185.899 149.98 185.602 149.618 185.386C149.255 185.169 148.842 185.059 148.376 185.055C148.043 185.052 147.7 185.103 147.348 185.21C146.997 185.313 146.707 185.446 146.48 185.609L145.244 185.46L145.905 180.091H151.572V181.263H147.013L146.629 184.48H146.693C146.917 184.303 147.197 184.155 147.535 184.038C147.872 183.921 148.224 183.862 148.59 183.862C149.257 183.862 149.852 184.022 150.374 184.342C150.9 184.658 151.311 185.091 151.61 185.641C151.912 186.192 152.063 186.82 152.063 187.527C152.063 188.223 151.906 188.844 151.594 189.391C151.285 189.935 150.859 190.364 150.315 190.68C149.772 190.993 149.154 191.149 148.462 191.149Z" fill="#2E263D" fill-opacity="0.9"/>
<path d="M177.798 180.091V191H176.477V181.476H176.413L173.75 183.244V181.902L176.477 180.091H177.798ZM184.558 191.149C184.11 191.142 183.663 191.057 183.215 190.893C182.768 190.73 182.359 190.455 181.99 190.068C181.621 189.677 181.324 189.15 181.101 188.486C180.877 187.818 180.765 186.98 180.765 185.972C180.765 185.006 180.856 184.15 181.037 183.404C181.218 182.655 181.481 182.025 181.825 181.513C182.169 180.998 182.585 180.608 183.071 180.341C183.561 180.075 184.114 179.942 184.728 179.942C185.339 179.942 185.882 180.064 186.358 180.309C186.837 180.551 187.228 180.888 187.53 181.321C187.832 181.755 188.027 182.254 188.116 182.818H186.816C186.695 182.328 186.461 181.922 186.113 181.598C185.765 181.275 185.303 181.114 184.728 181.114C183.883 181.114 183.217 181.481 182.731 182.216C182.248 182.951 182.004 183.983 182.001 185.311H182.086C182.285 185.009 182.521 184.752 182.794 184.539C183.071 184.322 183.377 184.155 183.711 184.038C184.044 183.921 184.398 183.862 184.771 183.862C185.396 183.862 185.967 184.018 186.486 184.331C187.004 184.64 187.42 185.068 187.732 185.615C188.045 186.158 188.201 186.781 188.201 187.484C188.201 188.159 188.05 188.777 187.748 189.338C187.446 189.896 187.022 190.339 186.475 190.67C185.932 190.996 185.293 191.156 184.558 191.149ZM184.558 189.977C185.005 189.977 185.406 189.865 185.761 189.642C186.12 189.418 186.402 189.118 186.608 188.741C186.818 188.365 186.923 187.946 186.923 187.484C186.923 187.033 186.821 186.623 186.619 186.254C186.42 185.881 186.145 185.585 185.793 185.364C185.445 185.144 185.048 185.034 184.6 185.034C184.263 185.034 183.949 185.102 183.657 185.237C183.366 185.368 183.11 185.549 182.89 185.78C182.674 186.011 182.503 186.275 182.379 186.574C182.255 186.868 182.193 187.179 182.193 187.506C182.193 187.939 182.294 188.344 182.496 188.72C182.702 189.097 182.983 189.4 183.338 189.631C183.696 189.862 184.103 189.977 184.558 189.977Z" fill="#2E263D" fill-opacity="0.9"/>
<path d="M214.193 180.091V191H212.872V181.476H212.809L210.145 183.244V181.902L212.872 180.091H214.193ZM217.672 191L222.551 181.348V181.263H216.926V180.091H223.915V181.327L219.057 191H217.672Z" fill="#2E263D" fill-opacity="0.9"/>
<path d="M249.857 180.091V191H248.536V181.476H248.472L245.808 183.244V181.902L248.536 180.091H249.857ZM256.488 191.149C255.757 191.149 255.11 191.02 254.549 190.76C253.992 190.498 253.557 190.137 253.244 189.679C252.932 189.217 252.777 188.692 252.781 188.102C252.777 187.641 252.868 187.214 253.053 186.824C253.237 186.43 253.489 186.101 253.809 185.838C254.132 185.572 254.493 185.403 254.89 185.332V185.268C254.368 185.134 253.953 184.841 253.644 184.39C253.335 183.935 253.182 183.418 253.186 182.839C253.182 182.286 253.322 181.79 253.607 181.353C253.891 180.917 254.281 180.572 254.778 180.32C255.279 180.068 255.849 179.942 256.488 179.942C257.12 179.942 257.685 180.068 258.182 180.32C258.679 180.572 259.07 180.917 259.354 181.353C259.642 181.79 259.787 182.286 259.791 182.839C259.787 183.418 259.629 183.935 259.317 184.39C259.008 184.841 258.598 185.134 258.086 185.268V185.332C258.481 185.403 258.836 185.572 259.152 185.838C259.468 186.101 259.72 186.43 259.908 186.824C260.096 187.214 260.192 187.641 260.196 188.102C260.192 188.692 260.032 189.217 259.716 189.679C259.404 190.137 258.969 190.498 258.411 190.76C257.857 191.02 257.216 191.149 256.488 191.149ZM256.488 189.977C256.982 189.977 257.408 189.897 257.767 189.738C258.125 189.578 258.402 189.352 258.598 189.061C258.793 188.77 258.892 188.429 258.896 188.038C258.892 187.626 258.786 187.262 258.576 186.946C258.367 186.63 258.081 186.382 257.719 186.201C257.36 186.02 256.95 185.929 256.488 185.929C256.023 185.929 255.608 186.02 255.242 186.201C254.88 186.382 254.594 186.63 254.384 186.946C254.178 187.262 254.077 187.626 254.081 188.038C254.077 188.429 254.171 188.77 254.363 189.061C254.558 189.352 254.837 189.578 255.199 189.738C255.561 189.897 255.991 189.977 256.488 189.977ZM256.488 184.8C256.879 184.8 257.225 184.722 257.527 184.565C257.832 184.409 258.072 184.191 258.246 183.91C258.42 183.63 258.509 183.301 258.512 182.925C258.509 182.555 258.422 182.234 258.251 181.961C258.081 181.684 257.845 181.471 257.543 181.321C257.241 181.169 256.89 181.092 256.488 181.092C256.08 181.092 255.723 181.169 255.418 181.321C255.112 181.471 254.876 181.684 254.709 181.961C254.542 182.234 254.461 182.555 254.464 182.925C254.461 183.301 254.544 183.63 254.715 183.91C254.889 184.191 255.128 184.409 255.434 184.565C255.739 184.722 256.091 184.8 256.488 184.8Z" fill="#2E263D" fill-opacity="0.9"/>
<path d="M33.798 216.091V227H32.477V217.476H32.413L29.7497 219.244V217.902L32.477 216.091H33.798ZM40.4084 215.942C40.8559 215.945 41.3033 216.031 41.7508 216.197C42.1982 216.364 42.6066 216.641 42.9759 217.028C43.3452 217.412 43.6417 217.936 43.8655 218.6C44.0892 219.264 44.201 220.097 44.201 221.098C44.201 222.067 44.1087 222.929 43.9241 223.681C43.7429 224.431 43.4802 225.063 43.1357 225.578C42.7948 226.093 42.3793 226.483 41.8892 226.75C41.4027 227.016 40.8523 227.149 40.238 227.149C39.6272 227.149 39.0821 227.028 38.6027 226.787C38.1268 226.542 37.7362 226.203 37.4308 225.77C37.129 225.333 36.9354 224.827 36.8502 224.251H38.1499C38.2671 224.752 38.4997 225.166 38.8477 225.493C39.1993 225.816 39.6627 225.977 40.238 225.977C41.0796 225.977 41.7437 225.61 42.2302 224.875C42.7202 224.14 42.9652 223.101 42.9652 221.759H42.88C42.6812 222.057 42.445 222.314 42.1716 222.531C41.8981 222.748 41.5945 222.914 41.2607 223.032C40.9269 223.149 40.5718 223.207 40.1954 223.207C39.5704 223.207 38.9968 223.053 38.4748 222.744C37.9564 222.431 37.5409 222.004 37.2284 221.46C36.9194 220.913 36.765 220.288 36.765 219.585C36.765 218.918 36.9141 218.307 37.2124 217.753C37.5142 217.195 37.9368 216.751 38.4802 216.421C39.027 216.091 39.6698 215.931 40.4084 215.942ZM40.4084 217.114C39.961 217.114 39.5579 217.225 39.1993 217.449C38.8441 217.669 38.5618 217.968 38.3523 218.344C38.1464 218.717 38.0434 219.131 38.0434 219.585C38.0434 220.04 38.1428 220.453 38.3417 220.826C38.5441 221.196 38.8193 221.49 39.1673 221.711C39.5189 221.927 39.9184 222.036 40.3658 222.036C40.7032 222.036 41.0174 221.97 41.3086 221.838C41.5998 221.703 41.8537 221.521 42.0704 221.29C42.2905 221.055 42.4628 220.791 42.587 220.496C42.7113 220.198 42.7735 219.887 42.7735 219.564C42.7735 219.138 42.6705 218.738 42.4645 218.365C42.2621 217.993 41.9816 217.691 41.6229 217.46C41.2678 217.229 40.863 217.114 40.4084 217.114Z" fill="#2E263D" fill-opacity="0.9"/>
<path d="M64.9007 227V226.041L68.5016 222.099C68.9242 221.638 69.2722 221.237 69.5456 220.896C69.8191 220.551 70.0215 220.228 70.1529 219.926C70.2878 219.621 70.3553 219.301 70.3553 218.967C70.3553 218.584 70.263 218.252 70.0783 217.971C69.8972 217.691 69.6486 217.474 69.3326 217.321C69.0165 217.169 68.6614 217.092 68.2672 217.092C67.8482 217.092 67.4824 217.179 67.1699 217.353C66.861 217.524 66.6213 217.763 66.4508 218.072C66.2839 218.381 66.2005 218.744 66.2005 219.159H64.9434C64.9434 218.52 65.0907 217.959 65.3855 217.476C65.6802 216.993 66.0815 216.616 66.5893 216.347C67.1007 216.077 67.6742 215.942 68.3098 215.942C68.949 215.942 69.5154 216.077 70.0091 216.347C70.5027 216.616 70.8897 216.98 71.1703 217.439C71.4508 217.897 71.5911 218.406 71.5911 218.967C71.5911 219.369 71.5183 219.761 71.3727 220.145C71.2306 220.525 70.9821 220.949 70.627 221.418C70.2754 221.883 69.7871 222.451 69.1621 223.122L66.7118 225.743V225.828H71.7828V227H64.9007ZM77.541 227.149C76.7385 227.149 76.0549 226.931 75.4902 226.494C74.9256 226.054 74.4941 225.416 74.1958 224.582C73.8975 223.744 73.7484 222.732 73.7484 221.545C73.7484 220.366 73.8975 219.36 74.1958 218.525C74.4977 217.687 74.9309 217.048 75.4956 216.608C76.0637 216.164 76.7456 215.942 77.541 215.942C78.3365 215.942 79.0165 216.164 79.5811 216.608C80.1493 217.048 80.5826 217.687 80.8809 218.525C81.1827 219.36 81.3336 220.366 81.3336 221.545C81.3336 222.732 81.1845 223.744 80.8862 224.582C80.5879 225.416 80.1564 226.054 79.5918 226.494C79.0272 226.931 78.3436 227.149 77.541 227.149ZM77.541 225.977C78.3365 225.977 78.9544 225.594 79.3947 224.827C79.835 224.06 80.0552 222.966 80.0552 221.545C80.0552 220.601 79.954 219.797 79.7516 219.132C79.5527 218.468 79.2651 217.962 78.8887 217.614C78.5158 217.266 78.0666 217.092 77.541 217.092C76.7527 217.092 76.1365 217.481 75.6926 218.259C75.2488 219.033 75.0268 220.129 75.0268 221.545C75.0268 222.49 75.1262 223.293 75.3251 223.953C75.524 224.614 75.8098 225.116 76.1827 225.461C76.5591 225.805 77.0119 225.977 77.541 225.977Z" fill="#2E263D" fill-opacity="0.9"/>
<path d="M102.102 227V226.041L105.703 222.099C106.125 221.638 106.473 221.237 106.747 220.896C107.02 220.551 107.223 220.228 107.354 219.926C107.489 219.621 107.556 219.301 107.556 218.967C107.556 218.584 107.464 218.252 107.279 217.971C107.098 217.691 106.85 217.474 106.534 217.321C106.218 217.169 105.863 217.092 105.468 217.092C105.049 217.092 104.684 217.179 104.371 217.353C104.062 217.524 103.822 217.763 103.652 218.072C103.485 218.381 103.402 218.744 103.402 219.159H102.145C102.145 218.52 102.292 217.959 102.587 217.476C102.881 216.993 103.283 216.616 103.79 216.347C104.302 216.077 104.875 215.942 105.511 215.942C106.15 215.942 106.717 216.077 107.21 216.347C107.704 216.616 108.091 216.98 108.371 217.439C108.652 217.897 108.792 218.406 108.792 218.967C108.792 219.369 108.719 219.761 108.574 220.145C108.432 220.525 108.183 220.949 107.828 221.418C107.477 221.883 106.988 222.451 106.363 223.122L103.913 225.743V225.828H108.984V227H102.102ZM115.019 216.091V227H113.698V217.476H113.634L110.971 219.244V217.902L113.698 216.091H115.019Z" fill="#2E263D" fill-opacity="0.9"/>
<path d="M137.047 227V226.041L140.648 222.099C141.071 221.638 141.419 221.237 141.692 220.896C141.966 220.551 142.168 220.228 142.299 219.926C142.434 219.621 142.502 219.301 142.502 218.967C142.502 218.584 142.409 218.252 142.225 217.971C142.044 217.691 141.795 217.474 141.479 217.321C141.163 217.169 140.808 217.092 140.414 217.092C139.995 217.092 139.629 217.179 139.316 217.353C139.007 217.524 138.768 217.763 138.597 218.072C138.43 218.381 138.347 218.744 138.347 219.159H137.09C137.09 218.52 137.237 217.959 137.532 217.476C137.827 216.993 138.228 216.616 138.736 216.347C139.247 216.077 139.821 215.942 140.456 215.942C141.096 215.942 141.662 216.077 142.156 216.347C142.649 216.616 143.036 216.98 143.317 217.439C143.597 217.897 143.738 218.406 143.738 218.967C143.738 219.369 143.665 219.761 143.519 220.145C143.377 220.525 143.129 220.949 142.773 221.418C142.422 221.883 141.934 222.451 141.309 223.122L138.858 225.743V225.828H143.929V227H137.047ZM146.129 227V226.041L149.73 222.099C150.153 221.638 150.501 221.237 150.774 220.896C151.048 220.551 151.25 220.228 151.381 219.926C151.516 219.621 151.584 219.301 151.584 218.967C151.584 218.584 151.491 218.252 151.307 217.971C151.126 217.691 150.877 217.474 150.561 217.321C150.245 217.169 149.89 217.092 149.496 217.092C149.077 217.092 148.711 217.179 148.398 217.353C148.089 217.524 147.85 217.763 147.679 218.072C147.512 218.381 147.429 218.744 147.429 219.159H146.172C146.172 218.52 146.319 217.959 146.614 217.476C146.909 216.993 147.31 216.616 147.818 216.347C148.329 216.077 148.903 215.942 149.538 215.942C150.178 215.942 150.744 216.077 151.238 216.347C151.731 216.616 152.118 216.98 152.399 217.439C152.679 217.897 152.82 218.406 152.82 218.967C152.82 219.369 152.747 219.761 152.601 220.145C152.459 220.525 152.211 220.949 151.855 221.418C151.504 221.883 151.016 222.451 150.391 223.122L147.94 225.743V225.828H153.011V227H146.129Z" fill="#2E263D" fill-opacity="0.9"/>
<path d="M172.893 227V226.041L176.494 222.099C176.917 221.638 177.265 221.237 177.538 220.896C177.812 220.551 178.014 220.228 178.146 219.926C178.28 219.621 178.348 219.301 178.348 218.967C178.348 218.584 178.256 218.252 178.071 217.971C177.89 217.691 177.641 217.474 177.325 217.321C177.009 217.169 176.654 217.092 176.26 217.092C175.841 217.092 175.475 217.179 175.163 217.353C174.854 217.524 174.614 217.763 174.443 218.072C174.277 218.381 174.193 218.744 174.193 219.159H172.936C172.936 218.52 173.083 217.959 173.378 217.476C173.673 216.993 174.074 216.616 174.582 216.347C175.093 216.077 175.667 215.942 176.303 215.942C176.942 215.942 177.508 216.077 178.002 216.347C178.495 216.616 178.882 216.98 179.163 217.439C179.443 217.897 179.584 218.406 179.584 218.967C179.584 219.369 179.511 219.761 179.365 220.145C179.223 220.525 178.975 220.949 178.62 221.418C178.268 221.883 177.78 222.451 177.155 223.122L174.705 225.743V225.828H179.776V227H172.893ZM181.485 224.763V223.676L186.279 216.091H187.068V217.774H186.535L182.913 223.506V223.591H189.369V224.763H181.485ZM186.62 227V224.433V223.926V216.091H187.877V227H186.62Z" fill="#2E263D" fill-opacity="0.9"/>
<rect x="199" y="204" width="36" height="36" rx="18" fill="#2E263D" fill-opacity="0.04"/>
<path d="M213.666 216.091V227H212.345V217.476H212.281L209.618 219.244V217.902L212.345 216.091H213.666ZM216.548 224.763V223.676L221.342 216.091H222.13V217.774H221.598L217.975 223.506V223.591H224.431V224.763H216.548ZM221.683 227V224.433V223.926V216.091H222.94V227H221.683Z" fill="#2E263D" fill-opacity="0.7"/>
<path d="M245.025 227V226.041L248.626 222.099C249.049 221.638 249.397 221.237 249.67 220.896C249.944 220.551 250.146 220.228 250.277 219.926C250.412 219.621 250.48 219.301 250.48 218.967C250.48 218.584 250.387 218.252 250.203 217.971C250.022 217.691 249.773 217.474 249.457 217.321C249.141 217.169 248.786 217.092 248.392 217.092C247.973 217.092 247.607 217.179 247.294 217.353C246.985 217.524 246.746 217.763 246.575 218.072C246.408 218.381 246.325 218.744 246.325 219.159H245.068C245.068 218.52 245.215 217.959 245.51 217.476C245.805 216.993 246.206 216.616 246.714 216.347C247.225 216.077 247.799 215.942 248.434 215.942C249.074 215.942 249.64 216.077 250.134 216.347C250.627 216.616 251.014 216.98 251.295 217.439C251.575 217.897 251.716 218.406 251.716 218.967C251.716 219.369 251.643 219.761 251.497 220.145C251.355 220.525 251.107 220.949 250.751 221.418C250.4 221.883 249.912 222.451 249.287 223.122L246.836 225.743V225.828H251.907V227H245.025ZM257.516 227.149C256.891 227.149 256.329 227.025 255.828 226.776C255.327 226.528 254.926 226.187 254.624 225.754C254.322 225.32 254.157 224.827 254.129 224.273H255.407C255.457 224.766 255.68 225.175 256.078 225.498C256.479 225.817 256.959 225.977 257.516 225.977C257.964 225.977 258.362 225.873 258.71 225.663C259.061 225.453 259.336 225.166 259.535 224.8C259.738 224.431 259.839 224.013 259.839 223.548C259.839 223.072 259.734 222.648 259.525 222.275C259.319 221.899 259.034 221.602 258.672 221.386C258.31 221.169 257.896 221.059 257.431 221.055C257.097 221.052 256.755 221.103 256.403 221.21C256.052 221.313 255.762 221.446 255.535 221.609L254.299 221.46L254.96 216.091H260.627V217.263H256.068L255.684 220.48H255.748C255.972 220.303 256.252 220.155 256.59 220.038C256.927 219.921 257.278 219.862 257.644 219.862C258.312 219.862 258.907 220.022 259.429 220.342C259.954 220.658 260.366 221.091 260.664 221.641C260.966 222.192 261.117 222.82 261.117 223.527C261.117 224.223 260.961 224.844 260.648 225.391C260.34 225.935 259.913 226.364 259.37 226.68C258.827 226.993 258.209 227.149 257.516 227.149Z" fill="#2E263D" fill-opacity="0.9"/>
<path d="M28.9081 263V262.041L32.5089 258.099C32.9315 257.638 33.2795 257.237 33.553 256.896C33.8264 256.551 34.0288 256.228 34.1602 255.926C34.2951 255.621 34.3626 255.301 34.3626 254.967C34.3626 254.584 34.2703 254.252 34.0856 253.971C33.9045 253.691 33.6559 253.474 33.3399 253.321C33.0238 253.169 32.6687 253.092 32.2745 253.092C31.8555 253.092 31.4897 253.179 31.1772 253.353C30.8683 253.524 30.6286 253.763 30.4581 254.072C30.2912 254.381 30.2078 254.744 30.2078 255.159H28.9507C28.9507 254.52 29.0981 253.959 29.3928 253.476C29.6875 252.993 30.0888 252.616 30.5966 252.347C31.108 252.077 31.6815 251.942 32.3172 251.942C32.9564 251.942 33.5228 252.077 34.0164 252.347C34.51 252.616 34.8971 252.98 35.1776 253.439C35.4581 253.897 35.5984 254.406 35.5984 254.967C35.5984 255.369 35.5256 255.761 35.38 256.145C35.238 256.525 34.9894 256.949 34.6343 257.418C34.2827 257.883 33.7944 258.451 33.1694 259.122L30.7191 261.743V261.828H35.7902V263H28.9081ZM41.6123 263.149C41.1648 263.142 40.7174 263.057 40.2699 262.893C39.8225 262.73 39.4141 262.455 39.0448 262.068C38.6755 261.677 38.379 261.15 38.1552 260.486C37.9315 259.818 37.8196 258.98 37.8196 257.972C37.8196 257.006 37.9102 256.15 38.0913 255.404C38.2724 254.655 38.5352 254.025 38.8797 253.513C39.2241 252.998 39.6396 252.608 40.1261 252.341C40.6162 252.075 41.1684 251.942 41.7827 251.942C42.3935 251.942 42.9368 252.064 43.4127 252.309C43.8921 252.551 44.2827 252.888 44.5846 253.321C44.8864 253.755 45.0817 254.254 45.1705 254.818H43.8708C43.75 254.328 43.5157 253.922 43.1677 253.598C42.8196 253.275 42.358 253.114 41.7827 253.114C40.9375 253.114 40.2717 253.481 39.7852 254.216C39.3022 254.951 39.059 255.983 39.0554 257.311H39.1407C39.3395 257.009 39.5757 256.752 39.8491 256.539C40.1261 256.322 40.4315 256.155 40.7653 256.038C41.0991 255.921 41.4525 255.862 41.8253 255.862C42.4503 255.862 43.0221 256.018 43.5405 256.331C44.059 256.64 44.4745 257.068 44.787 257.615C45.0995 258.158 45.2557 258.781 45.2557 259.484C45.2557 260.159 45.1048 260.777 44.803 261.338C44.5011 261.896 44.0767 262.339 43.5299 262.67C42.9866 262.996 42.3473 263.156 41.6123 263.149ZM41.6123 261.977C42.0597 261.977 42.461 261.865 42.8161 261.642C43.1748 261.418 43.4571 261.118 43.663 260.741C43.8726 260.365 43.9773 259.946 43.9773 259.484C43.9773 259.033 43.8761 258.623 43.6737 258.254C43.4748 257.881 43.1996 257.585 42.8481 257.364C42.5 257.144 42.1023 257.034 41.6549 257.034C41.3175 257.034 41.0032 257.102 40.712 257.237C40.4209 257.368 40.1652 257.549 39.945 257.78C39.7284 258.011 39.5579 258.275 39.4336 258.574C39.3093 258.868 39.2472 259.179 39.2472 259.506C39.2472 259.939 39.3484 260.344 39.5508 260.72C39.7568 261.097 40.0373 261.4 40.3924 261.631C40.7511 261.862 41.1577 261.977 41.6123 261.977Z" fill="#2E263D" fill-opacity="0.9"/>
<path d="M65.3036 263V262.041L68.9044 258.099C69.327 257.638 69.675 257.237 69.9485 256.896C70.2219 256.551 70.4243 256.228 70.5557 255.926C70.6907 255.621 70.7581 255.301 70.7581 254.967C70.7581 254.584 70.6658 254.252 70.4811 253.971C70.3 253.691 70.0514 253.474 69.7354 253.321C69.4193 253.169 69.0642 253.092 68.6701 253.092C68.251 253.092 67.8853 253.179 67.5728 253.353C67.2638 253.524 67.0241 253.763 66.8536 254.072C66.6867 254.381 66.6033 254.744 66.6033 255.159H65.3462C65.3462 254.52 65.4936 253.959 65.7883 253.476C66.0831 252.993 66.4843 252.616 66.9921 252.347C67.5035 252.077 68.077 251.942 68.7127 251.942C69.3519 251.942 69.9183 252.077 70.4119 252.347C70.9055 252.616 71.2926 252.98 71.5731 253.439C71.8536 253.897 71.9939 254.406 71.9939 254.967C71.9939 255.369 71.9211 255.761 71.7755 256.145C71.6335 256.525 71.3849 256.949 71.0298 257.418C70.6782 257.883 70.1899 258.451 69.5649 259.122L67.1147 261.743V261.828H72.1857V263H65.3036ZM74.7265 263L79.6058 253.348V253.263H73.9808V252.091H80.9694V253.327L76.1115 263H74.7265Z" fill="#2E263D" fill-opacity="0.9"/>
<path d="M100.967 263V262.041L104.568 258.099C104.99 257.638 105.338 257.237 105.612 256.896C105.885 256.551 106.087 256.228 106.219 255.926C106.354 255.621 106.421 255.301 106.421 254.967C106.421 254.584 106.329 254.252 106.144 253.971C105.963 253.691 105.715 253.474 105.398 253.321C105.082 253.169 104.727 253.092 104.333 253.092C103.914 253.092 103.548 253.179 103.236 253.353C102.927 253.524 102.687 253.763 102.517 254.072C102.35 254.381 102.266 254.744 102.266 255.159H101.009C101.009 254.52 101.157 253.959 101.451 253.476C101.746 252.993 102.147 252.616 102.655 252.347C103.167 252.077 103.74 251.942 104.376 251.942C105.015 251.942 105.581 252.077 106.075 252.347C106.569 252.616 106.956 252.98 107.236 253.439C107.517 253.897 107.657 254.406 107.657 254.967C107.657 255.369 107.584 255.761 107.439 256.145C107.297 256.525 107.048 256.949 106.693 257.418C106.341 257.883 105.853 258.451 105.228 259.122L102.778 261.743V261.828H107.849V263H100.967ZM113.543 263.149C112.811 263.149 112.165 263.02 111.604 262.76C111.047 262.498 110.612 262.137 110.299 261.679C109.987 261.217 109.832 260.692 109.836 260.102C109.832 259.641 109.923 259.214 110.107 258.824C110.292 258.43 110.544 258.101 110.864 257.838C111.187 257.572 111.547 257.403 111.945 257.332V257.268C111.423 257.134 111.008 256.841 110.699 256.39C110.39 255.935 110.237 255.418 110.24 254.839C110.237 254.286 110.377 253.79 110.661 253.353C110.945 252.917 111.336 252.572 111.833 252.32C112.334 252.068 112.904 251.942 113.543 251.942C114.175 251.942 114.74 252.068 115.237 252.32C115.734 252.572 116.125 252.917 116.409 253.353C116.696 253.79 116.842 254.286 116.846 254.839C116.842 255.418 116.684 255.935 116.371 256.39C116.063 256.841 115.652 257.134 115.141 257.268V257.332C115.535 257.403 115.89 257.572 116.206 257.838C116.522 258.101 116.775 258.43 116.963 258.824C117.151 259.214 117.247 259.641 117.25 260.102C117.247 260.692 117.087 261.217 116.771 261.679C116.458 262.137 116.023 262.498 115.466 262.76C114.912 263.02 114.271 263.149 113.543 263.149ZM113.543 261.977C114.037 261.977 114.463 261.897 114.821 261.738C115.18 261.578 115.457 261.352 115.652 261.061C115.848 260.77 115.947 260.429 115.951 260.038C115.947 259.626 115.841 259.262 115.631 258.946C115.422 258.63 115.136 258.382 114.773 258.201C114.415 258.02 114.005 257.929 113.543 257.929C113.078 257.929 112.662 258.02 112.297 258.201C111.934 258.382 111.648 258.63 111.439 258.946C111.233 259.262 111.132 259.626 111.135 260.038C111.132 260.429 111.226 260.77 111.418 261.061C111.613 261.352 111.892 261.578 112.254 261.738C112.616 261.897 113.046 261.977 113.543 261.977ZM113.543 256.8C113.934 256.8 114.28 256.722 114.582 256.565C114.887 256.409 115.127 256.191 115.301 255.91C115.475 255.63 115.564 255.301 115.567 254.925C115.564 254.555 115.477 254.234 115.306 253.961C115.136 253.684 114.9 253.471 114.598 253.321C114.296 253.169 113.944 253.092 113.543 253.092C113.135 253.092 112.778 253.169 112.472 253.321C112.167 253.471 111.931 253.684 111.764 253.961C111.597 254.234 111.515 254.555 111.519 254.925C111.515 255.301 111.599 255.63 111.769 255.91C111.943 256.191 112.183 256.409 112.488 256.565C112.794 256.722 113.145 256.8 113.543 256.8Z" fill="#2E263D" fill-opacity="0.9"/>
<path d="M136.908 263V262.041L140.509 258.099C140.932 257.638 141.28 257.237 141.553 256.896C141.826 256.551 142.029 256.228 142.16 255.926C142.295 255.621 142.363 255.301 142.363 254.967C142.363 254.584 142.27 254.252 142.086 253.971C141.905 253.691 141.656 253.474 141.34 253.321C141.024 253.169 140.669 253.092 140.275 253.092C139.856 253.092 139.49 253.179 139.177 253.353C138.868 253.524 138.629 253.763 138.458 254.072C138.291 254.381 138.208 254.744 138.208 255.159H136.951C136.951 254.52 137.098 253.959 137.393 253.476C137.688 252.993 138.089 252.616 138.597 252.347C139.108 252.077 139.682 251.942 140.317 251.942C140.956 251.942 141.523 252.077 142.016 252.347C142.51 252.616 142.897 252.98 143.178 253.439C143.458 253.897 143.598 254.406 143.598 254.967C143.598 255.369 143.526 255.761 143.38 256.145C143.238 256.525 142.989 256.949 142.634 257.418C142.283 257.883 141.794 258.451 141.169 259.122L138.719 261.743V261.828H143.79V263H136.908ZM149.463 251.942C149.911 251.945 150.358 252.031 150.805 252.197C151.253 252.364 151.661 252.641 152.031 253.028C152.4 253.412 152.696 253.936 152.92 254.6C153.144 255.264 153.256 256.097 153.256 257.098C153.256 258.067 153.163 258.929 152.979 259.681C152.798 260.431 152.535 261.063 152.19 261.578C151.849 262.093 151.434 262.483 150.944 262.75C150.457 263.016 149.907 263.149 149.293 263.149C148.682 263.149 148.137 263.028 147.657 262.787C147.182 262.542 146.791 262.203 146.485 261.77C146.184 261.333 145.99 260.827 145.905 260.251H147.205C147.322 260.752 147.554 261.166 147.902 261.493C148.254 261.816 148.717 261.977 149.293 261.977C150.134 261.977 150.798 261.61 151.285 260.875C151.775 260.14 152.02 259.101 152.02 257.759H151.935C151.736 258.057 151.5 258.314 151.226 258.531C150.953 258.748 150.649 258.914 150.315 259.032C149.982 259.149 149.626 259.207 149.25 259.207C148.625 259.207 148.052 259.053 147.53 258.744C147.011 258.431 146.596 258.004 146.283 257.46C145.974 256.913 145.82 256.288 145.82 255.585C145.82 254.918 145.969 254.307 146.267 253.753C146.569 253.195 146.992 252.751 147.535 252.421C148.082 252.091 148.724 251.931 149.463 251.942ZM149.463 253.114C149.016 253.114 148.613 253.225 148.254 253.449C147.899 253.669 147.617 253.968 147.407 254.344C147.201 254.717 147.098 255.131 147.098 255.585C147.098 256.04 147.197 256.453 147.396 256.826C147.599 257.196 147.874 257.49 148.222 257.711C148.574 257.927 148.973 258.036 149.42 258.036C149.758 258.036 150.072 257.97 150.363 257.838C150.655 257.703 150.908 257.521 151.125 257.29C151.345 257.055 151.517 256.791 151.642 256.496C151.766 256.198 151.828 255.887 151.828 255.564C151.828 255.138 151.725 254.738 151.519 254.365C151.317 253.993 151.036 253.691 150.678 253.46C150.322 253.229 149.918 253.114 149.463 253.114Z" fill="#2E263D" fill-opacity="0.9"/>
<path d="M176.352 263.149C175.649 263.149 175.023 263.028 174.472 262.787C173.925 262.545 173.49 262.21 173.167 261.78C172.847 261.347 172.673 260.844 172.645 260.273H173.987C174.016 260.624 174.137 260.928 174.35 261.184C174.563 261.436 174.841 261.631 175.186 261.77C175.53 261.908 175.912 261.977 176.331 261.977C176.8 261.977 177.215 261.896 177.578 261.732C177.94 261.569 178.224 261.342 178.43 261.05C178.636 260.759 178.739 260.422 178.739 260.038C178.739 259.637 178.639 259.284 178.441 258.978C178.242 258.669 177.95 258.428 177.567 258.254C177.183 258.08 176.715 257.993 176.161 257.993H175.287V256.821H176.161C176.594 256.821 176.974 256.743 177.301 256.587C177.631 256.43 177.888 256.21 178.073 255.926C178.261 255.642 178.355 255.308 178.355 254.925C178.355 254.555 178.274 254.234 178.11 253.961C177.947 253.687 177.716 253.474 177.418 253.321C177.123 253.169 176.775 253.092 176.374 253.092C175.997 253.092 175.642 253.162 175.308 253.3C174.978 253.435 174.708 253.632 174.499 253.891C174.289 254.147 174.176 254.456 174.158 254.818H172.879C172.901 254.246 173.073 253.746 173.396 253.316C173.719 252.883 174.142 252.545 174.664 252.304C175.189 252.062 175.767 251.942 176.395 251.942C177.07 251.942 177.649 252.078 178.132 252.352C178.615 252.622 178.986 252.979 179.245 253.423C179.504 253.866 179.634 254.346 179.634 254.861C179.634 255.475 179.472 255.999 179.149 256.432C178.829 256.865 178.394 257.165 177.844 257.332V257.418C178.533 257.531 179.071 257.824 179.458 258.297C179.845 258.765 180.039 259.346 180.039 260.038C180.039 260.631 179.877 261.164 179.554 261.636C179.234 262.105 178.797 262.474 178.243 262.744C177.689 263.014 177.059 263.149 176.352 263.149ZM185.775 263.149C184.973 263.149 184.289 262.931 183.725 262.494C183.16 262.054 182.729 261.416 182.43 260.582C182.132 259.744 181.983 258.732 181.983 257.545C181.983 256.366 182.132 255.36 182.43 254.525C182.732 253.687 183.165 253.048 183.73 252.608C184.298 252.164 184.98 251.942 185.775 251.942C186.571 251.942 187.251 252.164 187.816 252.608C188.384 253.048 188.817 253.687 189.115 254.525C189.417 255.36 189.568 256.366 189.568 257.545C189.568 258.732 189.419 259.744 189.121 260.582C188.822 261.416 188.391 262.054 187.826 262.494C187.262 262.931 186.578 263.149 185.775 263.149ZM185.775 261.977C186.571 261.977 187.189 261.594 187.629 260.827C188.069 260.06 188.29 258.966 188.29 257.545C188.29 256.601 188.188 255.797 187.986 255.132C187.787 254.468 187.499 253.962 187.123 253.614C186.75 253.266 186.301 253.092 185.775 253.092C184.987 253.092 184.371 253.481 183.927 254.259C183.483 255.033 183.261 256.129 183.261 257.545C183.261 258.49 183.361 259.293 183.559 259.953C183.758 260.614 184.044 261.116 184.417 261.461C184.794 261.805 185.246 261.977 185.775 261.977Z" fill="#2E263D" fill-opacity="0.9"/>
<path d="M213.554 263.149C212.85 263.149 212.224 263.028 211.673 262.787C211.126 262.545 210.691 262.21 210.368 261.78C210.049 261.347 209.875 260.844 209.846 260.273H211.189C211.217 260.624 211.338 260.928 211.551 261.184C211.764 261.436 212.043 261.631 212.387 261.77C212.732 261.908 213.113 261.977 213.532 261.977C214.001 261.977 214.417 261.896 214.779 261.732C215.141 261.569 215.425 261.342 215.631 261.05C215.837 260.759 215.94 260.422 215.94 260.038C215.94 259.637 215.841 259.284 215.642 258.978C215.443 258.669 215.152 258.428 214.768 258.254C214.385 258.08 213.916 257.993 213.362 257.993H212.488V256.821H213.362C213.795 256.821 214.175 256.743 214.502 256.587C214.832 256.43 215.089 256.21 215.274 255.926C215.462 255.642 215.556 255.308 215.556 254.925C215.556 254.555 215.475 254.234 215.311 253.961C215.148 253.687 214.917 253.474 214.619 253.321C214.324 253.169 213.976 253.092 213.575 253.092C213.199 253.092 212.843 253.162 212.51 253.3C212.179 253.435 211.909 253.632 211.7 253.891C211.49 254.147 211.377 254.456 211.359 254.818H210.081C210.102 254.246 210.274 253.746 210.597 253.316C210.92 252.883 211.343 252.545 211.865 252.304C212.391 252.062 212.968 251.942 213.596 251.942C214.271 251.942 214.85 252.078 215.333 252.352C215.816 252.622 216.187 252.979 216.446 253.423C216.705 253.866 216.835 254.346 216.835 254.861C216.835 255.475 216.673 255.999 216.35 256.432C216.031 256.865 215.596 257.165 215.045 257.332V257.418C215.734 257.531 216.272 257.824 216.659 258.297C217.046 258.765 217.24 259.346 217.24 260.038C217.24 260.631 217.078 261.164 216.755 261.636C216.435 262.105 215.999 262.474 215.445 262.744C214.891 263.014 214.26 263.149 213.554 263.149ZM223.254 252.091V263H221.933V253.476H221.869L219.205 255.244V253.902L221.933 252.091H223.254Z" fill="#2E263D" fill-opacity="0.9"/>
<path d="M254.478 252.091V263H253.157V253.476H253.093L250.43 255.244V253.902L253.157 252.091H254.478Z" fill="#2E263D" fill-opacity="0.4"/>
</g>
</g>
<defs>
<filter id="filter0_d_8003_2734" x="0" y="0" width="290" height="298" filterUnits="userSpaceOnUse" color-interpolation-filters="sRGB">
<feFlood flood-opacity="0" result="BackgroundImageFix"/>
<feColorMatrix in="SourceAlpha" type="matrix" values="0 0 0 0 0 0 0 0 0 0 0 0 0 0 0 0 0 0 127 0" result="hardAlpha"/>
<feOffset dy="4"/>
<feGaussianBlur stdDeviation="5"/>
<feComposite in2="hardAlpha" operator="out"/>
<feColorMatrix type="matrix" values="0 0 0 0 0.180392 0 0 0 0 0.14902 0 0 0 0 0.239216 0 0 0 0.2 0"/>
<feBlend mode="normal" in2="BackgroundImageFix" result="effect1_dropShadow_8003_2734"/>
<feBlend mode="normal" in="SourceGraphic" in2="effect1_dropShadow_8003_2734" result="shape"/>
</filter>
<filter id="filter1_d_8003_2734" x="87" y="166" width="44" height="44" filterUnits="userSpaceOnUse" color-interpolation-filters="sRGB">
<feFlood flood-opacity="0" result="BackgroundImageFix"/>
<feColorMatrix in="SourceAlpha" type="matrix" values="0 0 0 0 0 0 0 0 0 0 0 0 0 0 0 0 0 0 127 0" result="hardAlpha"/>
<feOffset dy="2"/>
<feGaussianBlur stdDeviation="2"/>
<feColorMatrix type="matrix" values="0 0 0 0 0.180392 0 0 0 0 0.14902 0 0 0 0 0.239216 0 0 0 0.16 0"/>
<feBlend mode="normal" in2="BackgroundImageFix" result="effect1_dropShadow_8003_2734"/>
<feBlend mode="normal" in="SourceGraphic" in2="effect1_dropShadow_8003_2734" result="shape"/>
</filter>
<clipPath id="clip0_8003_2734">
<path d="M10 12C10 8.68629 12.6863 6 16 6H274C277.314 6 280 8.68629 280 12V278C280 281.314 277.314 284 274 284H16C12.6863 284 10 281.314 10 278V12Z" fill="white"/>
</clipPath>
</defs>
</svg>
