<svg width="285" height="349" viewBox="0 0 285 349" fill="none" xmlns="http://www.w3.org/2000/svg">
<g filter="url(#filter0_d_8003_4566)">
<g clip-path="url(#clip0_8003_4566)">
<path d="M10 12C10 8.68628 12.6863 6 16 6H269C272.314 6 275 8.68629 275 12V329C275 332.314 272.314 335 269 335H16C12.6863 335 10 332.314 10 329V12Z" fill="white"/>
<path d="M31.4382 47V33.9091H36.1044C37.1186 33.9091 37.9602 34.0838 38.6293 34.4332C39.3026 34.7827 39.8054 35.2663 40.1378 35.8842C40.4702 36.4979 40.6364 37.2074 40.6364 38.0128C40.6364 38.8139 40.468 39.5192 40.1314 40.1286C39.799 40.7337 39.2962 41.2045 38.6229 41.5412C37.9538 41.8778 37.1122 42.0462 36.098 42.0462H32.5632V40.3459H35.919C36.5582 40.3459 37.0781 40.2543 37.4787 40.071C37.8835 39.8878 38.1797 39.6214 38.3672 39.272C38.5547 38.9226 38.6484 38.5028 38.6484 38.0128C38.6484 37.5185 38.5526 37.0902 38.3608 36.728C38.1733 36.3658 37.8771 36.0888 37.4723 35.897C37.0717 35.701 36.5455 35.603 35.8935 35.603H33.4134V47H31.4382ZM37.9006 41.0938L41.1349 47H38.8849L35.7145 41.0938H37.9006ZM46.9949 47.1982C46.0275 47.1982 45.1944 46.9915 44.4956 46.5781C43.801 46.1605 43.264 45.5746 42.8848 44.8203C42.5098 44.0618 42.3223 43.1733 42.3223 42.1548C42.3223 41.1491 42.5098 40.2628 42.8848 39.4957C43.264 38.7287 43.7924 38.13 44.47 37.6996C45.1518 37.2692 45.9487 37.054 46.8606 37.054C47.4146 37.054 47.9515 37.1456 48.4714 37.3288C48.9913 37.5121 49.4579 37.7997 49.8713 38.1918C50.2846 38.5838 50.6106 39.093 50.8493 39.7195C51.0879 40.3416 51.2072 41.098 51.2072 41.9886V42.6662H43.4025V41.2344H49.3343C49.3343 40.7315 49.2321 40.2862 49.0275 39.8984C48.823 39.5064 48.5353 39.1974 48.1646 38.9716C47.7981 38.7457 47.3677 38.6328 46.8734 38.6328C46.3365 38.6328 45.8677 38.7649 45.4672 39.0291C45.0708 39.2891 44.764 39.63 44.5467 40.0518C44.3336 40.4695 44.2271 40.9233 44.2271 41.4134V42.532C44.2271 43.1882 44.3422 43.7464 44.5723 44.2067C44.8066 44.6669 45.1326 45.0185 45.5502 45.2614C45.9679 45.5 46.4558 45.6193 47.014 45.6193C47.3762 45.6193 47.7065 45.5682 48.0048 45.4659C48.3031 45.3594 48.5609 45.2017 48.7782 44.9929C48.9956 44.7841 49.1618 44.5263 49.2768 44.2195L51.0858 44.5455C50.9409 45.0781 50.6809 45.5447 50.3059 45.9453C49.9352 46.3416 49.4686 46.6506 48.9061 46.8722C48.3478 47.0895 47.7108 47.1982 46.9949 47.1982ZM61.4457 37.1818L57.8853 47H55.8398L52.2731 37.1818H54.3249L56.8114 44.7372H56.9137L59.3938 37.1818H61.4457ZM67.1394 47.1982C66.1721 47.1982 65.339 46.9915 64.6401 46.5781C63.9455 46.1605 63.4086 45.5746 63.0293 44.8203C62.6543 44.0618 62.4668 43.1733 62.4668 42.1548C62.4668 41.1491 62.6543 40.2628 63.0293 39.4957C63.4086 38.7287 63.937 38.13 64.6145 37.6996C65.2963 37.2692 66.0932 37.054 67.0051 37.054C67.5591 37.054 68.0961 37.1456 68.6159 37.3288C69.1358 37.5121 69.6025 37.7997 70.0158 38.1918C70.4292 38.5838 70.7551 39.093 70.9938 39.7195C71.2324 40.3416 71.3517 41.098 71.3517 41.9886V42.6662H63.5471V41.2344H69.4789C69.4789 40.7315 69.3766 40.2862 69.1721 39.8984C68.9675 39.5064 68.6799 39.1974 68.3091 38.9716C67.9426 38.7457 67.5123 38.6328 67.0179 38.6328C66.481 38.6328 66.0123 38.7649 65.6117 39.0291C65.2154 39.2891 64.9086 39.63 64.6912 40.0518C64.4782 40.4695 64.3716 40.9233 64.3716 41.4134V42.532C64.3716 43.1882 64.4867 43.7464 64.7168 44.2067C64.9512 44.6669 65.2772 45.0185 65.6948 45.2614C66.1124 45.5 66.6003 45.6193 67.1586 45.6193C67.5208 45.6193 67.851 45.5682 68.1493 45.4659C68.4476 45.3594 68.7054 45.2017 68.9228 44.9929C69.1401 44.7841 69.3063 44.5263 69.4213 44.2195L71.2303 44.5455C71.0854 45.0781 70.8255 45.5447 70.4505 45.9453C70.0797 46.3416 69.6131 46.6506 69.0506 46.8722C68.4924 47.0895 67.8553 47.1982 67.1394 47.1982ZM75.3835 41.1705V47H73.4723V37.1818H75.3068V38.7798H75.4283C75.6541 38.2599 76.0078 37.8423 76.4893 37.527C76.9751 37.2116 77.5866 37.054 78.3239 37.054C78.9929 37.054 79.5788 37.1946 80.0817 37.4759C80.5845 37.7528 80.9744 38.1662 81.2514 38.7159C81.5284 39.2656 81.6669 39.9453 81.6669 40.755V47H79.7557V40.9851C79.7557 40.2734 79.5703 39.7173 79.1996 39.3168C78.8288 38.9119 78.3196 38.7095 77.6719 38.7095C77.2287 38.7095 76.8345 38.8054 76.4893 38.9972C76.1484 39.1889 75.8778 39.4702 75.6776 39.8409C75.4815 40.2074 75.3835 40.6506 75.3835 41.1705ZM90.4496 42.9283V37.1818H92.3672V47H90.4879V45.2997H90.3857C90.1598 45.8239 89.7976 46.2607 89.299 46.6101C88.8047 46.9553 88.1889 47.1278 87.4517 47.1278C86.821 47.1278 86.2628 46.9893 85.777 46.7124C85.2955 46.4311 84.9162 46.0156 84.6392 45.4659C84.3665 44.9162 84.2301 44.2365 84.2301 43.4268V37.1818H86.1413V43.1967C86.1413 43.8658 86.3267 44.3984 86.6974 44.7947C87.0682 45.1911 87.5497 45.3892 88.142 45.3892C88.5 45.3892 88.8558 45.2997 89.2095 45.1207C89.5675 44.9418 89.8636 44.6712 90.098 44.3089C90.3366 43.9467 90.4538 43.4865 90.4496 42.9283ZM99.1667 47.1982C98.1994 47.1982 97.3663 46.9915 96.6674 46.5781C95.9728 46.1605 95.4359 45.5746 95.0566 44.8203C94.6816 44.0618 94.4941 43.1733 94.4941 42.1548C94.4941 41.1491 94.6816 40.2628 95.0566 39.4957C95.4359 38.7287 95.9643 38.13 96.6419 37.6996C97.3237 37.2692 98.1206 37.054 99.0325 37.054C99.5865 37.054 100.123 37.1456 100.643 37.3288C101.163 37.5121 101.63 37.7997 102.043 38.1918C102.456 38.5838 102.782 39.093 103.021 39.7195C103.26 40.3416 103.379 41.098 103.379 41.9886V42.6662H95.5744V41.2344H101.506C101.506 40.7315 101.404 40.2862 101.199 39.8984C100.995 39.5064 100.707 39.1974 100.336 38.9716C99.97 38.7457 99.5396 38.6328 99.0453 38.6328C98.5083 38.6328 98.0396 38.7649 97.639 39.0291C97.2427 39.2891 96.9359 39.63 96.7186 40.0518C96.5055 40.4695 96.399 40.9233 96.399 41.4134V42.532C96.399 43.1882 96.514 43.7464 96.7441 44.2067C96.9785 44.6669 97.3045 45.0185 97.7221 45.2614C98.1397 45.5 98.6277 45.6193 99.1859 45.6193C99.5481 45.6193 99.8784 45.5682 100.177 45.4659C100.475 45.3594 100.733 45.2017 100.95 44.9929C101.167 44.7841 101.334 44.5263 101.449 44.2195L103.258 44.5455C103.113 45.0781 102.853 45.5447 102.478 45.9453C102.107 46.3416 101.64 46.6506 101.078 46.8722C100.52 47.0895 99.8826 47.1982 99.1667 47.1982ZM110.417 47V33.9091H115.083C116.097 33.9091 116.939 34.0838 117.608 34.4332C118.281 34.7827 118.784 35.2663 119.116 35.8842C119.449 36.4979 119.615 37.2074 119.615 38.0128C119.615 38.8139 119.447 39.5192 119.11 40.1286C118.778 40.7337 118.275 41.2045 117.601 41.5412C116.932 41.8778 116.091 42.0462 115.077 42.0462H111.542V40.3459H114.898C115.537 40.3459 116.057 40.2543 116.457 40.071C116.862 39.8878 117.158 39.6214 117.346 39.272C117.533 38.9226 117.627 38.5028 117.627 38.0128C117.627 37.5185 117.531 37.0902 117.339 36.728C117.152 36.3658 116.856 36.0888 116.451 35.897C116.05 35.701 115.524 35.603 114.872 35.603H112.392V47H110.417ZM116.879 41.0938L120.113 47H117.863L114.693 41.0938H116.879ZM125.973 47.1982C125.006 47.1982 124.173 46.9915 123.474 46.5781C122.779 46.1605 122.243 45.5746 121.863 44.8203C121.488 44.0618 121.301 43.1733 121.301 42.1548C121.301 41.1491 121.488 40.2628 121.863 39.4957C122.243 38.7287 122.771 38.13 123.449 37.6996C124.13 37.2692 124.927 37.054 125.839 37.054C126.393 37.054 126.93 37.1456 127.45 37.3288C127.97 37.5121 128.436 37.7997 128.85 38.1918C129.263 38.5838 129.589 39.093 129.828 39.7195C130.066 40.3416 130.186 41.098 130.186 41.9886V42.6662H122.381V41.2344H128.313C128.313 40.7315 128.211 40.2862 128.006 39.8984C127.801 39.5064 127.514 39.1974 127.143 38.9716C126.777 38.7457 126.346 38.6328 125.852 38.6328C125.315 38.6328 124.846 38.7649 124.446 39.0291C124.049 39.2891 123.743 39.63 123.525 40.0518C123.312 40.4695 123.206 40.9233 123.206 41.4134V42.532C123.206 43.1882 123.321 43.7464 123.551 44.2067C123.785 44.6669 124.111 45.0185 124.529 45.2614C124.946 45.5 125.434 45.6193 125.993 45.6193C126.355 45.6193 126.685 45.5682 126.983 45.4659C127.282 45.3594 127.539 45.2017 127.757 44.9929C127.974 44.7841 128.14 44.5263 128.255 44.2195L130.064 44.5455C129.919 45.0781 129.659 45.5447 129.284 45.9453C128.914 46.3416 128.447 46.6506 127.885 46.8722C127.326 47.0895 126.689 47.1982 125.973 47.1982ZM132.306 50.6818V37.1818H134.173V38.7734H134.333C134.443 38.5689 134.603 38.3324 134.812 38.0639C135.021 37.7955 135.311 37.5611 135.681 37.3608C136.052 37.1562 136.542 37.054 137.151 37.054C137.944 37.054 138.651 37.2543 139.274 37.6548C139.896 38.0554 140.384 38.6328 140.737 39.3871C141.095 40.1413 141.274 41.049 141.274 42.1101C141.274 43.1712 141.097 44.081 140.744 44.8395C140.39 45.5937 139.904 46.1754 139.286 46.5845C138.669 46.9893 137.963 47.1918 137.171 47.1918C136.574 47.1918 136.086 47.0916 135.707 46.8913C135.332 46.6911 135.038 46.4567 134.825 46.1882C134.612 45.9197 134.448 45.6811 134.333 45.4723H134.218V50.6818H132.306ZM134.179 42.0909C134.179 42.7812 134.279 43.3864 134.48 43.9062C134.68 44.4261 134.97 44.8331 135.349 45.1271C135.728 45.4169 136.193 45.5618 136.742 45.5618C137.313 45.5618 137.791 45.4105 138.174 45.108C138.558 44.8011 138.847 44.3857 139.044 43.8615C139.244 43.3374 139.344 42.7472 139.344 42.0909C139.344 41.4432 139.246 40.8615 139.05 40.3459C138.858 39.8303 138.568 39.4233 138.181 39.125C137.797 38.8267 137.318 38.6776 136.742 38.6776C136.188 38.6776 135.72 38.8203 135.336 39.1058C134.957 39.3913 134.669 39.7898 134.473 40.3011C134.277 40.8125 134.179 41.4091 134.179 42.0909ZM147.551 47.1982C146.631 47.1982 145.828 46.9872 145.142 46.5653C144.455 46.1435 143.923 45.5533 143.544 44.7947C143.164 44.0362 142.975 43.1499 142.975 42.1357C142.975 41.1172 143.164 40.2266 143.544 39.4638C143.923 38.701 144.455 38.1087 145.142 37.6868C145.828 37.2649 146.631 37.054 147.551 37.054C148.472 37.054 149.275 37.2649 149.961 37.6868C150.647 38.1087 151.18 38.701 151.559 39.4638C151.938 40.2266 152.128 41.1172 152.128 42.1357C152.128 43.1499 151.938 44.0362 151.559 44.7947C151.18 45.5533 150.647 46.1435 149.961 46.5653C149.275 46.9872 148.472 47.1982 147.551 47.1982ZM147.558 45.5938C148.154 45.5938 148.649 45.4361 149.041 45.1207C149.433 44.8054 149.722 44.3857 149.91 43.8615C150.102 43.3374 150.198 42.7599 150.198 42.1293C150.198 41.5028 150.102 40.9276 149.91 40.4034C149.722 39.875 149.433 39.451 149.041 39.1314C148.649 38.8118 148.154 38.652 147.558 38.652C146.957 38.652 146.458 38.8118 146.062 39.1314C145.67 39.451 145.378 39.875 145.186 40.4034C144.999 40.9276 144.905 41.5028 144.905 42.1293C144.905 42.7599 144.999 43.3374 145.186 43.8615C145.378 44.3857 145.67 44.8054 146.062 45.1207C146.458 45.4361 146.957 45.5938 147.558 45.5938ZM154.261 47V37.1818H156.109V38.7415H156.211C156.39 38.2131 156.705 37.7976 157.157 37.495C157.613 37.1882 158.129 37.0348 158.704 37.0348C158.823 37.0348 158.964 37.0391 159.126 37.0476C159.292 37.0561 159.422 37.0668 159.516 37.0795V38.9077C159.439 38.8864 159.303 38.8629 159.107 38.8374C158.911 38.8075 158.714 38.7926 158.518 38.7926C158.067 38.7926 157.664 38.8885 157.31 39.0803C156.961 39.2678 156.684 39.5298 156.479 39.8665C156.275 40.1989 156.173 40.5781 156.173 41.0043V47H154.261ZM166.333 37.1818V38.7159H160.97V37.1818H166.333ZM162.408 34.8295H164.319V44.1172C164.319 44.4879 164.375 44.767 164.485 44.9545C164.596 45.1378 164.739 45.2635 164.914 45.3317C165.093 45.3956 165.287 45.4276 165.495 45.4276C165.649 45.4276 165.783 45.4169 165.898 45.3956C166.013 45.3743 166.103 45.3572 166.167 45.3445L166.512 46.9233C166.401 46.9659 166.243 47.0085 166.039 47.0511C165.834 47.098 165.578 47.1236 165.272 47.1278C164.769 47.1364 164.3 47.0469 163.865 46.8594C163.431 46.6719 163.079 46.3821 162.811 45.9901C162.542 45.598 162.408 45.1058 162.408 44.5135V34.8295Z" fill="#2E263D" fill-opacity="0.9"/>
<path d="M243 29C242.175 29 241.5 29.675 241.5 30.5C241.5 31.325 242.175 32 243 32C243.825 32 244.5 31.325 244.5 30.5C244.5 29.675 243.825 29 243 29ZM243 44C242.175 44 241.5 44.675 241.5 45.5C241.5 46.325 242.175 47 243 47C243.825 47 244.5 46.325 244.5 45.5C244.5 44.675 243.825 44 243 44ZM243 36.5C242.175 36.5 241.5 37.175 241.5 38C241.5 38.825 242.175 39.5 243 39.5C243.825 39.5 244.5 38.825 244.5 38C244.5 37.175 243.825 36.5 243 36.5Z" fill="#2E263D" fill-opacity="0.9"/>
<rect x="29" y="162" width="8.33333" height="32" rx="4.16667" fill="#56CA00"/>
<rect x="56.3334" y="133" width="8.33333" height="61" rx="4.16667" fill="#56CA00"/>
<rect x="83.6666" y="94" width="8.33333" height="100" rx="4.16667" fill="#56CA00"/>
<rect x="111" y="104" width="8.33333" height="90" rx="4.16667" fill="#56CA00"/>
<rect x="138.333" y="159" width="8.33333" height="35" rx="4.16667" fill="#56CA00"/>
<rect x="165.667" y="174" width="8.33333" height="20" rx="4.16667" fill="#56CA00"/>
<rect x="193" y="136" width="8.33333" height="58" rx="4.16667" fill="#56CA00"/>
<rect x="220.333" y="118" width="8.33333" height="76" rx="4.16667" fill="#56CA00"/>
<rect x="247.667" y="171" width="8.33333" height="23" rx="4.16667" fill="#56CA00"/>
<rect x="29" y="202" width="8.33333" height="50" rx="4.16667" fill="#8A8D93"/>
<rect x="56.3334" y="202" width="8.33333" height="27" rx="4.16667" fill="#8A8D93"/>
<rect x="83.6666" y="202" width="8.33333" height="20" rx="4.16667" fill="#8A8D93"/>
<rect x="111" y="202" width="8.33333" height="63" rx="4.16667" fill="#8A8D93"/>
<rect x="138.333" y="202" width="8.33333" height="33" rx="4.16667" fill="#8A8D93"/>
<rect x="165.667" y="202" width="8.33333" height="20" rx="4.16667" fill="#8A8D93"/>
<rect x="193" y="202" width="8.33333" height="27" rx="4.16667" fill="#8A8D93"/>
<rect x="220.333" y="202" width="8.33333" height="27" rx="4.16667" fill="#8A8D93"/>
<rect x="247.667" y="202" width="8.33333" height="33" rx="4.16667" fill="#8A8D93"/>
<circle cx="64" cy="300" r="5" fill="#56CA00"/>
<path d="M78.6975 305V294.091H85.2813V295.263H80.0185V298.949H84.9404V300.121H80.0185V303.828H85.3665V305H78.6975ZM89.8995 305.192C89.3811 305.192 88.9106 305.094 88.488 304.899C88.0654 304.7 87.7298 304.414 87.4812 304.041C87.2326 303.665 87.1084 303.21 87.1084 302.678C87.1084 302.209 87.2007 301.829 87.3853 301.538C87.57 301.243 87.8168 301.012 88.1258 300.845C88.4347 300.678 88.7756 300.554 89.1485 300.472C89.5249 300.387 89.9031 300.32 90.2831 300.27C90.7802 300.206 91.1833 300.158 91.4922 300.126C91.8047 300.091 92.032 300.032 92.1741 299.95C92.3196 299.869 92.3924 299.727 92.3924 299.524V299.482C92.3924 298.956 92.2486 298.548 91.961 298.256C91.6769 297.965 91.2454 297.82 90.6666 297.82C90.0665 297.82 89.5959 297.951 89.255 298.214C88.9141 298.477 88.6744 298.757 88.5359 299.055L87.3427 298.629C87.5558 298.132 87.8399 297.745 88.195 297.468C88.5537 297.187 88.9443 296.992 89.3669 296.882C89.793 296.768 90.212 296.712 90.624 296.712C90.8868 296.712 91.1886 296.744 91.5295 296.808C91.874 296.868 92.206 296.994 92.5256 297.186C92.8488 297.377 93.1169 297.667 93.3299 298.054C93.543 298.441 93.6495 298.96 93.6495 299.609V305H92.3924V303.892H92.3285C92.2433 304.07 92.1013 304.26 91.9024 304.462C91.7035 304.664 91.439 304.837 91.1087 304.979C90.7785 305.121 90.3754 305.192 89.8995 305.192ZM90.0913 304.062C90.5885 304.062 91.0075 303.965 91.3484 303.77C91.6929 303.574 91.9521 303.322 92.1261 303.013C92.3037 302.704 92.3924 302.379 92.3924 302.038V300.888C92.3392 300.952 92.222 301.01 92.0409 301.064C91.8633 301.113 91.6574 301.158 91.423 301.197C91.1922 301.232 90.9667 301.264 90.7465 301.293C90.5299 301.317 90.3541 301.339 90.2191 301.357C89.8924 301.399 89.587 301.468 89.303 301.564C89.0224 301.657 88.7951 301.797 88.6211 301.985C88.4507 302.17 88.3655 302.422 88.3655 302.741C88.3655 303.178 88.527 303.509 88.8502 303.732C89.1769 303.952 89.5906 304.062 90.0913 304.062ZM95.944 305V296.818H97.1585V298.054H97.2437C97.3929 297.649 97.6628 297.321 98.0534 297.069C98.444 296.816 98.8844 296.69 99.3744 296.69C99.4668 296.69 99.5822 296.692 99.7207 296.696C99.8592 296.699 99.9639 296.705 100.035 296.712V297.99C99.9923 297.979 99.8947 297.963 99.742 297.942C99.5928 297.917 99.4348 297.905 99.2679 297.905C98.8702 297.905 98.515 297.988 98.2025 298.155C97.8936 298.319 97.6486 298.546 97.4675 298.837C97.2899 299.125 97.2011 299.453 97.2011 299.822V305H95.944ZM102.782 300.078V305H101.525V296.818H102.74V298.097H102.846C103.038 297.681 103.329 297.347 103.72 297.095C104.11 296.839 104.615 296.712 105.232 296.712C105.786 296.712 106.271 296.825 106.687 297.053C107.102 297.276 107.425 297.617 107.656 298.075C107.887 298.53 108.002 299.105 108.002 299.801V305H106.745V299.886C106.745 299.244 106.578 298.743 106.245 298.384C105.911 298.022 105.453 297.841 104.87 297.841C104.469 297.841 104.11 297.928 103.794 298.102C103.482 298.276 103.235 298.53 103.054 298.864C102.873 299.197 102.782 299.602 102.782 300.078ZM110.299 305V296.818H111.557V305H110.299ZM110.939 295.455C110.694 295.455 110.482 295.371 110.305 295.204C110.131 295.037 110.044 294.837 110.044 294.602C110.044 294.368 110.131 294.167 110.305 294C110.482 293.833 110.694 293.75 110.939 293.75C111.184 293.75 111.393 293.833 111.567 294C111.745 294.167 111.834 294.368 111.834 294.602C111.834 294.837 111.745 295.037 111.567 295.204C111.393 295.371 111.184 295.455 110.939 295.455ZM115.116 300.078V305H113.859V296.818H115.074V298.097H115.18C115.372 297.681 115.663 297.347 116.054 297.095C116.444 296.839 116.949 296.712 117.566 296.712C118.12 296.712 118.605 296.825 119.021 297.053C119.436 297.276 119.759 297.617 119.99 298.075C120.221 298.53 120.336 299.105 120.336 299.801V305H119.079V299.886C119.079 299.244 118.912 298.743 118.579 298.384C118.245 298.022 117.787 297.841 117.204 297.841C116.803 297.841 116.444 297.928 116.128 298.102C115.816 298.276 115.569 298.53 115.388 298.864C115.207 299.197 115.116 299.602 115.116 300.078ZM125.936 308.239C125.329 308.239 124.807 308.161 124.37 308.004C123.933 307.852 123.569 307.649 123.278 307.397C122.99 307.148 122.761 306.882 122.591 306.598L123.592 305.895C123.706 306.044 123.85 306.214 124.024 306.406C124.198 306.602 124.436 306.77 124.738 306.912C125.043 307.058 125.442 307.131 125.936 307.131C126.597 307.131 127.142 306.971 127.571 306.651C128.001 306.332 128.216 305.831 128.216 305.149V303.487H128.109C128.017 303.636 127.886 303.821 127.715 304.041C127.548 304.258 127.307 304.451 126.991 304.622C126.678 304.789 126.256 304.872 125.723 304.872C125.062 304.872 124.469 304.716 123.944 304.403C123.422 304.091 123.008 303.636 122.703 303.04C122.401 302.443 122.25 301.719 122.25 300.866C122.25 300.028 122.397 299.299 122.692 298.677C122.987 298.052 123.397 297.569 123.923 297.228C124.448 296.884 125.055 296.712 125.744 296.712C126.277 296.712 126.7 296.8 127.012 296.978C127.328 297.152 127.57 297.351 127.736 297.575C127.907 297.795 128.038 297.976 128.131 298.118H128.258V296.818H129.473V305.234C129.473 305.938 129.313 306.509 128.994 306.95C128.678 307.393 128.251 307.718 127.715 307.924C127.182 308.134 126.589 308.239 125.936 308.239ZM125.893 303.743C126.398 303.743 126.824 303.627 127.172 303.397C127.52 303.166 127.784 302.834 127.966 302.401C128.147 301.967 128.237 301.449 128.237 300.845C128.237 300.256 128.148 299.735 127.971 299.284C127.793 298.833 127.53 298.48 127.182 298.224C126.834 297.969 126.405 297.841 125.893 297.841C125.361 297.841 124.917 297.976 124.562 298.246C124.21 298.516 123.946 298.878 123.768 299.332C123.594 299.787 123.507 300.291 123.507 300.845C123.507 301.413 123.596 301.916 123.773 302.353C123.955 302.786 124.221 303.127 124.572 303.375C124.928 303.62 125.368 303.743 125.893 303.743Z" fill="#2E263D" fill-opacity="0.7"/>
<circle cx="152" cy="300" r="5" fill="#8A8D93"/>
<path d="M166.682 305V294.091H173.266V295.263H168.003V298.949H172.925V300.121H168.003V303.828H173.351V305H166.682ZM176.414 296.818L178.374 300.163L180.334 296.818H181.783L179.141 300.909L181.783 305H180.334L178.374 301.825L176.414 305H174.965L177.564 300.909L174.965 296.818H176.414ZM183.577 308.068V296.818H184.791V298.118H184.94C185.033 297.976 185.161 297.795 185.324 297.575C185.491 297.351 185.729 297.152 186.038 296.978C186.35 296.8 186.773 296.712 187.306 296.712C187.994 296.712 188.602 296.884 189.127 297.228C189.653 297.573 190.063 298.061 190.358 298.693C190.652 299.325 190.8 300.071 190.8 300.93C190.8 301.797 190.652 302.548 190.358 303.184C190.063 303.816 189.655 304.306 189.133 304.654C188.611 304.998 188.009 305.17 187.327 305.17C186.801 305.17 186.38 305.083 186.064 304.909C185.748 304.732 185.505 304.531 185.335 304.308C185.164 304.08 185.033 303.892 184.94 303.743H184.834V308.068H183.577ZM184.813 300.909C184.813 301.527 184.903 302.072 185.084 302.544C185.265 303.013 185.53 303.381 185.878 303.647C186.226 303.91 186.652 304.041 187.156 304.041C187.682 304.041 188.121 303.903 188.472 303.626C188.827 303.345 189.094 302.969 189.271 302.496C189.452 302.021 189.543 301.491 189.543 300.909C189.543 300.334 189.454 299.815 189.276 299.354C189.102 298.888 188.838 298.521 188.483 298.251C188.131 297.978 187.689 297.841 187.156 297.841C186.645 297.841 186.215 297.971 185.867 298.23C185.519 298.485 185.257 298.844 185.079 299.306C184.901 299.764 184.813 300.298 184.813 300.909ZM196.148 305.17C195.36 305.17 194.679 304.996 194.108 304.648C193.54 304.297 193.101 303.807 192.792 303.178C192.487 302.546 192.334 301.811 192.334 300.973C192.334 300.135 192.487 299.396 192.792 298.757C193.101 298.114 193.531 297.614 194.081 297.255C194.635 296.893 195.281 296.712 196.02 296.712C196.446 296.712 196.867 296.783 197.282 296.925C197.698 297.067 198.076 297.298 198.417 297.617C198.758 297.933 199.03 298.352 199.232 298.874C199.434 299.396 199.536 300.039 199.536 300.803V301.335H193.229V300.249H198.257C198.257 299.787 198.165 299.375 197.98 299.013C197.799 298.651 197.54 298.365 197.203 298.155C196.869 297.946 196.475 297.841 196.02 297.841C195.519 297.841 195.086 297.965 194.72 298.214C194.358 298.459 194.079 298.778 193.884 299.173C193.689 299.567 193.591 299.989 193.591 300.44V301.165C193.591 301.783 193.698 302.306 193.911 302.736C194.127 303.162 194.427 303.487 194.811 303.711C195.194 303.931 195.64 304.041 196.148 304.041C196.478 304.041 196.776 303.995 197.043 303.903C197.313 303.807 197.545 303.665 197.741 303.477C197.936 303.285 198.087 303.047 198.193 302.763L199.408 303.104C199.28 303.516 199.065 303.878 198.763 304.19C198.461 304.499 198.089 304.741 197.645 304.915C197.201 305.085 196.702 305.17 196.148 305.17ZM202.705 300.078V305H201.448V296.818H202.662V298.097H202.769C202.961 297.681 203.252 297.347 203.643 297.095C204.033 296.839 204.537 296.712 205.155 296.712C205.709 296.712 206.194 296.825 206.61 297.053C207.025 297.276 207.348 297.617 207.579 298.075C207.81 298.53 207.925 299.105 207.925 299.801V305H206.668V299.886C206.668 299.244 206.501 298.743 206.167 298.384C205.834 298.022 205.375 297.841 204.793 297.841C204.392 297.841 204.033 297.928 203.717 298.102C203.405 298.276 203.158 298.53 202.977 298.864C202.796 299.197 202.705 299.602 202.705 300.078ZM216.018 298.651L214.889 298.97C214.818 298.782 214.713 298.599 214.574 298.422C214.439 298.24 214.255 298.091 214.02 297.974C213.786 297.857 213.486 297.798 213.12 297.798C212.619 297.798 212.202 297.914 211.868 298.145C211.538 298.372 211.373 298.661 211.373 299.013C211.373 299.325 211.487 299.572 211.714 299.753C211.941 299.934 212.296 300.085 212.779 300.206L213.994 300.504C214.725 300.682 215.27 300.953 215.629 301.319C215.988 301.681 216.167 302.148 216.167 302.72C216.167 303.189 216.032 303.608 215.762 303.977C215.496 304.347 215.123 304.638 214.644 304.851C214.164 305.064 213.607 305.17 212.971 305.17C212.136 305.17 211.446 304.989 210.899 304.627C210.352 304.265 210.006 303.736 209.86 303.04L211.053 302.741C211.167 303.182 211.382 303.512 211.698 303.732C212.017 303.952 212.435 304.062 212.95 304.062C213.536 304.062 214.001 303.938 214.345 303.69C214.693 303.437 214.867 303.136 214.867 302.784C214.867 302.5 214.768 302.262 214.569 302.07C214.37 301.875 214.065 301.729 213.653 301.634L212.289 301.314C211.54 301.136 210.989 300.861 210.638 300.488C210.29 300.112 210.116 299.641 210.116 299.077C210.116 298.615 210.245 298.207 210.505 297.852C210.767 297.496 211.124 297.218 211.575 297.015C212.03 296.813 212.545 296.712 213.12 296.712C213.93 296.712 214.565 296.889 215.027 297.244C215.492 297.599 215.822 298.068 216.018 298.651ZM221.49 305.17C220.701 305.17 220.021 304.996 219.45 304.648C218.881 304.297 218.443 303.807 218.134 303.178C217.828 302.546 217.676 301.811 217.676 300.973C217.676 300.135 217.828 299.396 218.134 298.757C218.443 298.114 218.872 297.614 219.423 297.255C219.977 296.893 220.623 296.712 221.362 296.712C221.788 296.712 222.209 296.783 222.624 296.925C223.04 297.067 223.418 297.298 223.759 297.617C224.1 297.933 224.371 298.352 224.574 298.874C224.776 299.396 224.877 300.039 224.877 300.803V301.335H218.571V300.249H223.599C223.599 299.787 223.507 299.375 223.322 299.013C223.141 298.651 222.882 298.365 222.544 298.155C222.211 297.946 221.816 297.841 221.362 297.841C220.861 297.841 220.428 297.965 220.062 298.214C219.7 298.459 219.421 298.778 219.226 299.173C219.03 299.567 218.933 299.989 218.933 300.44V301.165C218.933 301.783 219.039 302.306 219.252 302.736C219.469 303.162 219.769 303.487 220.153 303.711C220.536 303.931 220.982 304.041 221.49 304.041C221.82 304.041 222.118 303.995 222.385 303.903C222.654 303.807 222.887 303.665 223.082 303.477C223.278 303.285 223.429 303.047 223.535 302.763L224.75 303.104C224.622 303.516 224.407 303.878 224.105 304.19C223.803 304.499 223.43 304.741 222.986 304.915C222.543 305.085 222.044 305.17 221.49 305.17Z" fill="#2E263D" fill-opacity="0.7"/>
</g>
</g>
<defs>
<filter id="filter0_d_8003_4566" x="0" y="0" width="285" height="349" filterUnits="userSpaceOnUse" color-interpolation-filters="sRGB">
<feFlood flood-opacity="0" result="BackgroundImageFix"/>
<feColorMatrix in="SourceAlpha" type="matrix" values="0 0 0 0 0 0 0 0 0 0 0 0 0 0 0 0 0 0 127 0" result="hardAlpha"/>
<feOffset dy="4"/>
<feGaussianBlur stdDeviation="5"/>
<feComposite in2="hardAlpha" operator="out"/>
<feColorMatrix type="matrix" values="0 0 0 0 0.180392 0 0 0 0 0.14902 0 0 0 0 0.239216 0 0 0 0.2 0"/>
<feBlend mode="normal" in2="BackgroundImageFix" result="effect1_dropShadow_8003_4566"/>
<feBlend mode="normal" in="SourceGraphic" in2="effect1_dropShadow_8003_4566" result="shape"/>
</filter>
<clipPath id="clip0_8003_4566">
<path d="M10 12C10 8.68628 12.6863 6 16 6H269C272.314 6 275 8.68629 275 12V329C275 332.314 272.314 335 269 335H16C12.6863 335 10 332.314 10 329V12Z" fill="white"/>
</clipPath>
</defs>
</svg>
