<svg width="382" height="386" viewBox="0 0 382 386" fill="none" xmlns="http://www.w3.org/2000/svg">
<g filter="url(#filter0_d_8003_5183)">
<path d="M10.5741 12C10.5741 8.68629 13.2604 6 16.5741 6H365.907C369.221 6 371.907 8.68629 371.907 12V366C371.907 369.314 369.221 372 365.907 372H16.5741C13.2604 372 10.5741 369.314 10.5741 366V12Z" fill="white" shape-rendering="crispEdges"/>
<path d="M39.1522 37.348C39.084 36.7429 38.8028 36.2741 38.3085 35.9418C37.8142 35.6051 37.192 35.4368 36.442 35.4368C35.9051 35.4368 35.4406 35.522 35.0485 35.6925C34.6565 35.8587 34.3518 36.0888 34.1345 36.3828C33.9214 36.6726 33.8149 37.0028 33.8149 37.3736C33.8149 37.6847 33.8873 37.9531 34.0322 38.179C34.1813 38.4048 34.3752 38.5945 34.6139 38.7479C34.8568 38.897 35.1167 39.0227 35.3937 39.125C35.6707 39.223 35.937 39.304 36.1927 39.3679L37.4711 39.7003C37.8887 39.8026 38.317 39.9411 38.7559 40.1158C39.1948 40.2905 39.6018 40.5206 39.9768 40.8061C40.3518 41.0916 40.6544 41.4453 40.8845 41.8672C41.1188 42.2891 41.236 42.794 41.236 43.3821C41.236 44.1236 41.0443 44.782 40.6607 45.3572C40.2815 45.9325 39.7296 46.3864 39.0052 46.7188C38.285 47.0511 37.4136 47.2173 36.3909 47.2173C35.4107 47.2173 34.5627 47.0618 33.8468 46.7507C33.1309 46.4396 32.5705 45.9986 32.1657 45.4276C31.7609 44.8523 31.5372 44.1705 31.4946 43.3821H33.4761C33.5144 43.8551 33.6678 44.2493 33.9363 44.5646C34.209 44.8757 34.5563 45.108 34.9782 45.2614C35.4044 45.4105 35.871 45.4851 36.3781 45.4851C36.9363 45.4851 37.4328 45.3977 37.8674 45.223C38.3063 45.044 38.6515 44.7969 38.9029 44.4815C39.1544 44.1619 39.2801 43.7891 39.2801 43.3629C39.2801 42.9751 39.1693 42.6577 38.9477 42.4105C38.7303 42.1634 38.4342 41.9588 38.0592 41.7969C37.6884 41.6349 37.2687 41.4922 36.7999 41.3686L35.2531 40.9467C34.2048 40.6612 33.3738 40.2415 32.7602 39.6875C32.1508 39.1335 31.8461 38.4006 31.8461 37.4886C31.8461 36.7344 32.0507 36.076 32.4598 35.5135C32.8688 34.951 33.4228 34.5142 34.1217 34.2031C34.8205 33.8878 35.6089 33.7301 36.4867 33.7301C37.3731 33.7301 38.1551 33.8857 38.8326 34.1967C39.5144 34.5078 40.0514 34.9361 40.4434 35.4815C40.8355 36.0227 41.04 36.6449 41.0571 37.348H39.1522ZM46.3001 47.2173C45.678 47.2173 45.1155 47.1023 44.6126 46.8722C44.1098 46.6378 43.7113 46.299 43.4173 45.8558C43.1275 45.4126 42.9827 44.8693 42.9827 44.2259C42.9827 43.6719 43.0892 43.2159 43.3023 42.858C43.5153 42.5 43.803 42.2166 44.1652 42.0078C44.5274 41.799 44.9322 41.6413 45.3797 41.5348C45.8271 41.4283 46.2831 41.3473 46.7476 41.2919C47.3356 41.2237 47.8129 41.1683 48.1794 41.1257C48.5459 41.0788 48.8122 41.0043 48.9784 40.902C49.1446 40.7997 49.2277 40.6335 49.2277 40.4034V40.3587C49.2277 39.8004 49.07 39.3679 48.7547 39.0611C48.4436 38.7543 47.9791 38.6009 47.3612 38.6009C46.7177 38.6009 46.2106 38.7436 45.8399 39.0291C45.4734 39.3104 45.2199 39.6236 45.0792 39.9688L43.2831 39.5597C43.4961 38.9631 43.8072 38.4815 44.2163 38.1151C44.6297 37.7443 45.1048 37.4759 45.6417 37.3097C46.1787 37.1392 46.7433 37.054 47.3356 37.054C47.7277 37.054 48.1432 37.1009 48.5821 37.1946C49.0253 37.2841 49.4386 37.4503 49.8221 37.6932C50.2099 37.9361 50.5274 38.2834 50.7746 38.7351C51.0217 39.1825 51.1453 39.7642 51.1453 40.4801V47H49.2788V45.6577H49.2021C49.0785 45.9048 48.8932 46.1477 48.646 46.3864C48.3988 46.625 48.0814 46.8232 47.6936 46.9808C47.3058 47.1385 46.8413 47.2173 46.3001 47.2173ZM46.7156 45.6832C47.244 45.6832 47.6957 45.5788 48.0707 45.37C48.45 45.1612 48.7376 44.8885 48.9336 44.5518C49.1339 44.2109 49.2341 43.8466 49.2341 43.4588V42.1932C49.1659 42.2614 49.0338 42.3253 48.8378 42.3849C48.646 42.4403 48.4265 42.4893 48.1794 42.532C47.9322 42.5703 47.6915 42.6065 47.4571 42.6406C47.2227 42.6705 47.0267 42.696 46.869 42.7173C46.4983 42.7642 46.1595 42.843 45.8527 42.9538C45.5501 43.0646 45.3072 43.2244 45.124 43.4332C44.945 43.6378 44.8555 43.9105 44.8555 44.2514C44.8555 44.7244 45.0302 45.0824 45.3797 45.3253C45.7291 45.5639 46.1744 45.6832 46.7156 45.6832ZM55.6022 33.9091V47H53.6909V33.9091H55.6022ZM62.4049 47.1982C61.4376 47.1982 60.6045 46.9915 59.9056 46.5781C59.211 46.1605 58.6741 45.5746 58.2948 44.8203C57.9198 44.0618 57.7323 43.1733 57.7323 42.1548C57.7323 41.1491 57.9198 40.2628 58.2948 39.4957C58.6741 38.7287 59.2025 38.13 59.88 37.6996C60.5618 37.2692 61.3587 37.054 62.2707 37.054C62.8246 37.054 63.3616 37.1456 63.8814 37.3288C64.4013 37.5121 64.868 37.7997 65.2813 38.1918C65.6947 38.5838 66.0207 39.093 66.2593 39.7195C66.4979 40.3416 66.6172 41.098 66.6172 41.9886V42.6662H58.8126V41.2344H64.7444C64.7444 40.7315 64.6421 40.2862 64.4376 39.8984C64.233 39.5064 63.9454 39.1974 63.5746 38.9716C63.2082 38.7457 62.7778 38.6328 62.2834 38.6328C61.7465 38.6328 61.2778 38.7649 60.8772 39.0291C60.4809 39.2891 60.1741 39.63 59.9567 40.0518C59.7437 40.4695 59.6371 40.9233 59.6371 41.4134V42.532C59.6371 43.1882 59.7522 43.7464 59.9823 44.2067C60.2167 44.6669 60.5427 45.0185 60.9603 45.2614C61.3779 45.5 61.8658 45.6193 62.4241 45.6193C62.7863 45.6193 63.1165 45.5682 63.4148 45.4659C63.7131 45.3594 63.9709 45.2017 64.1883 44.9929C64.4056 44.7841 64.5718 44.5263 64.6868 44.2195L66.4958 44.5455C66.3509 45.0781 66.091 45.5447 65.716 45.9453C65.3452 46.3416 64.8786 46.6506 64.3161 46.8722C63.7579 47.0895 63.1208 47.1982 62.4049 47.1982ZM76.095 39.5788L74.3628 39.8857C74.2904 39.6641 74.1753 39.4531 74.0176 39.2528C73.8642 39.0526 73.6554 38.8885 73.3912 38.7607C73.127 38.6328 72.7968 38.5689 72.4004 38.5689C71.8593 38.5689 71.4075 38.6903 71.0453 38.9332C70.6831 39.1719 70.502 39.4808 70.502 39.8601C70.502 40.1882 70.6235 40.4524 70.8664 40.6527C71.1093 40.853 71.5013 41.017 72.0425 41.1449L73.6022 41.5028C74.5056 41.7116 75.1789 42.0334 75.622 42.468C76.0652 42.9027 76.2868 43.4673 76.2868 44.1619C76.2868 44.75 76.1164 45.2741 75.7754 45.7344C75.4388 46.1903 74.9679 46.5483 74.3628 46.8082C73.762 47.0682 73.0652 47.1982 72.2726 47.1982C71.1732 47.1982 70.2762 46.9638 69.5816 46.495C68.887 46.022 68.4608 45.3509 68.3031 44.4815L70.1504 44.2003C70.2655 44.6818 70.502 45.0462 70.86 45.2933C71.2179 45.5362 71.6845 45.6577 72.2598 45.6577C72.8862 45.6577 73.387 45.5277 73.762 45.2678C74.137 45.0036 74.3245 44.6818 74.3245 44.3026C74.3245 43.9957 74.2094 43.7379 73.9793 43.5291C73.7534 43.3203 73.4061 43.1626 72.9374 43.0561L71.2754 42.6918C70.3593 42.483 69.6817 42.1506 69.2428 41.6946C68.8081 41.2386 68.5908 40.6612 68.5908 39.9624C68.5908 39.3828 68.7527 38.8757 69.0766 38.4411C69.4004 38.0064 69.8479 37.6676 70.4189 37.4247C70.9899 37.1776 71.6441 37.054 72.3813 37.054C73.4423 37.054 74.2776 37.2841 74.887 37.7443C75.4963 38.2003 75.899 38.8118 76.095 39.5788ZM90.4452 37.348C90.377 36.7429 90.0958 36.2741 89.6014 35.9418C89.1071 35.6051 88.485 35.4368 87.735 35.4368C87.198 35.4368 86.7335 35.522 86.3415 35.6925C85.9495 35.8587 85.6448 36.0888 85.4274 36.3828C85.2144 36.6726 85.1078 37.0028 85.1078 37.3736C85.1078 37.6847 85.1803 37.9531 85.3252 38.179C85.4743 38.4048 85.6682 38.5945 85.9068 38.7479C86.1497 38.897 86.4097 39.0227 86.6867 39.125C86.9637 39.223 87.23 39.304 87.4857 39.3679L88.7641 39.7003C89.1817 39.8026 89.61 39.9411 90.0489 40.1158C90.4878 40.2905 90.8948 40.5206 91.2698 40.8061C91.6448 41.0916 91.9473 41.4453 92.1774 41.8672C92.4118 42.2891 92.529 42.794 92.529 43.3821C92.529 44.1236 92.3372 44.782 91.9537 45.3572C91.5745 45.9325 91.0226 46.3864 90.2982 46.7188C89.578 47.0511 88.7066 47.2173 87.6838 47.2173C86.7037 47.2173 85.8557 47.0618 85.1398 46.7507C84.4239 46.4396 83.8635 45.9986 83.4587 45.4276C83.0539 44.8523 82.8301 44.1705 82.7875 43.3821H84.7691C84.8074 43.8551 84.9608 44.2493 85.2293 44.5646C85.502 44.8757 85.8493 45.108 86.2712 45.2614C86.6973 45.4105 87.1639 45.4851 87.671 45.4851C88.2293 45.4851 88.7257 45.3977 89.1604 45.223C89.5993 45.044 89.9445 44.7969 90.1959 44.4815C90.4473 44.1619 90.573 43.7891 90.573 43.3629C90.573 42.9751 90.4622 42.6577 90.2406 42.4105C90.0233 42.1634 89.7272 41.9588 89.3522 41.7969C88.9814 41.6349 88.5617 41.4922 88.0929 41.3686L86.546 40.9467C85.4977 40.6612 84.6668 40.2415 84.0531 39.6875C83.4438 39.1335 83.1391 38.4006 83.1391 37.4886C83.1391 36.7344 83.3436 36.076 83.7527 35.5135C84.1618 34.951 84.7158 34.5142 85.4147 34.2031C86.1135 33.8878 86.9019 33.7301 87.7797 33.7301C88.6661 33.7301 89.448 33.8857 90.1256 34.1967C90.8074 34.5078 91.3443 34.9361 91.7364 35.4815C92.1284 36.0227 92.333 36.6449 92.35 37.348H90.4452ZM99.3189 37.1818V38.7159H93.956V37.1818H99.3189ZM95.3942 34.8295H97.3055V44.1172C97.3055 44.4879 97.3609 44.767 97.4716 44.9545C97.5824 45.1378 97.7252 45.2635 97.8999 45.3317C98.0789 45.3956 98.2728 45.4276 98.4816 45.4276C98.635 45.4276 98.7692 45.4169 98.8843 45.3956C98.9993 45.3743 99.0888 45.3572 99.1528 45.3445L99.4979 46.9233C99.3871 46.9659 99.2295 47.0085 99.0249 47.0511C98.8204 47.098 98.5647 47.1236 98.2579 47.1278C97.755 47.1364 97.2863 47.0469 96.8516 46.8594C96.417 46.6719 96.0654 46.3821 95.7969 45.9901C95.5285 45.598 95.3942 45.1058 95.3942 44.5135V34.8295ZM104.29 47.2173C103.668 47.2173 103.106 47.1023 102.603 46.8722C102.1 46.6378 101.702 46.299 101.408 45.8558C101.118 45.4126 100.973 44.8693 100.973 44.2259C100.973 43.6719 101.079 43.2159 101.292 42.858C101.506 42.5 101.793 42.2166 102.155 42.0078C102.518 41.799 102.922 41.6413 103.37 41.5348C103.817 41.4283 104.273 41.3473 104.738 41.2919C105.326 41.2237 105.803 41.1683 106.17 41.1257C106.536 41.0788 106.802 41.0043 106.969 40.902C107.135 40.7997 107.218 40.6335 107.218 40.4034V40.3587C107.218 39.8004 107.06 39.3679 106.745 39.0611C106.434 38.7543 105.969 38.6009 105.351 38.6009C104.708 38.6009 104.201 38.7436 103.83 39.0291C103.464 39.3104 103.21 39.6236 103.069 39.9688L101.273 39.5597C101.486 38.9631 101.797 38.4815 102.207 38.1151C102.62 37.7443 103.095 37.4759 103.632 37.3097C104.169 37.1392 104.734 37.054 105.326 37.054C105.718 37.054 106.133 37.1009 106.572 37.1946C107.016 37.2841 107.429 37.4503 107.812 37.6932C108.2 37.9361 108.518 38.2834 108.765 38.7351C109.012 39.1825 109.136 39.7642 109.136 40.4801V47H107.269V45.6577H107.192C107.069 45.9048 106.883 46.1477 106.636 46.3864C106.389 46.625 106.072 46.8232 105.684 46.9808C105.296 47.1385 104.832 47.2173 104.29 47.2173ZM104.706 45.6832C105.234 45.6832 105.686 45.5788 106.061 45.37C106.44 45.1612 106.728 44.8885 106.924 44.5518C107.124 44.2109 107.224 43.8466 107.224 43.4588V42.1932C107.156 42.2614 107.024 42.3253 106.828 42.3849C106.636 42.4403 106.417 42.4893 106.17 42.532C105.922 42.5703 105.682 42.6065 105.447 42.6406C105.213 42.6705 105.017 42.696 104.859 42.7173C104.489 42.7642 104.15 42.843 103.843 42.9538C103.54 43.0646 103.297 43.2244 103.114 43.4332C102.935 43.6378 102.846 43.9105 102.846 44.2514C102.846 44.7244 103.02 45.0824 103.37 45.3253C103.719 45.5639 104.165 45.6832 104.706 45.6832ZM116.264 37.1818V38.7159H110.901V37.1818H116.264ZM112.34 34.8295H114.251V44.1172C114.251 44.4879 114.306 44.767 114.417 44.9545C114.528 45.1378 114.671 45.2635 114.845 45.3317C115.024 45.3956 115.218 45.4276 115.427 45.4276C115.58 45.4276 115.715 45.4169 115.83 45.3956C115.945 45.3743 116.034 45.3572 116.098 45.3445L116.443 46.9233C116.332 46.9659 116.175 47.0085 115.97 47.0511C115.766 47.098 115.51 47.1236 115.203 47.1278C114.7 47.1364 114.232 47.0469 113.797 46.8594C113.362 46.6719 113.011 46.3821 112.742 45.9901C112.474 45.598 112.34 45.1058 112.34 44.5135V34.8295ZM122.504 47.1982C121.537 47.1982 120.704 46.9915 120.005 46.5781C119.311 46.1605 118.774 45.5746 118.394 44.8203C118.019 44.0618 117.832 43.1733 117.832 42.1548C117.832 41.1491 118.019 40.2628 118.394 39.4957C118.774 38.7287 119.302 38.13 119.98 37.6996C120.661 37.2692 121.458 37.054 122.37 37.054C122.924 37.054 123.461 37.1456 123.981 37.3288C124.501 37.5121 124.968 37.7997 125.381 38.1918C125.794 38.5838 126.12 39.093 126.359 39.7195C126.598 40.3416 126.717 41.098 126.717 41.9886V42.6662H118.912V41.2344H124.844C124.844 40.7315 124.742 40.2862 124.537 39.8984C124.333 39.5064 124.045 39.1974 123.674 38.9716C123.308 38.7457 122.877 38.6328 122.383 38.6328C121.846 38.6328 121.377 38.7649 120.977 39.0291C120.58 39.2891 120.274 39.63 120.056 40.0518C119.843 40.4695 119.737 40.9233 119.737 41.4134V42.532C119.737 43.1882 119.852 43.7464 120.082 44.2067C120.316 44.6669 120.642 45.0185 121.06 45.2614C121.478 45.5 121.965 45.6193 122.524 45.6193C122.886 45.6193 123.216 45.5682 123.514 45.4659C123.813 45.3594 124.071 45.2017 124.288 44.9929C124.505 44.7841 124.671 44.5263 124.786 44.2195L126.595 44.5455C126.451 45.0781 126.191 45.5447 125.816 45.9453C125.445 46.3416 124.978 46.6506 124.416 46.8722C123.857 47.0895 123.22 47.1982 122.504 47.1982Z" fill="#2E263D" fill-opacity="0.9"/>
<path d="M31.2985 60.2628V59.0909H39.4803V60.2628H36.0499V70H34.7289V60.2628H31.2985ZM43.486 70.1705C42.7474 70.1705 42.0993 69.9947 41.5418 69.6431C40.9878 69.2915 40.5546 68.7997 40.2421 68.1676C39.9331 67.5355 39.7786 66.7969 39.7786 65.9517C39.7786 65.0994 39.9331 64.3555 40.2421 63.7198C40.5546 63.0842 40.9878 62.5906 41.5418 62.239C42.0993 61.8874 42.7474 61.7116 43.486 61.7116C44.2247 61.7116 44.871 61.8874 45.4249 62.239C45.9825 62.5906 46.4157 63.0842 46.7247 63.7198C47.0372 64.3555 47.1934 65.0994 47.1934 65.9517C47.1934 66.7969 47.0372 67.5355 46.7247 68.1676C46.4157 68.7997 45.9825 69.2915 45.4249 69.6431C44.871 69.9947 44.2247 70.1705 43.486 70.1705ZM43.486 69.0412C44.0471 69.0412 44.5088 68.8974 44.871 68.6097C45.2332 68.3221 45.5013 67.9439 45.6753 67.4751C45.8493 67.0064 45.9363 66.4986 45.9363 65.9517C45.9363 65.4048 45.8493 64.8952 45.6753 64.4229C45.5013 63.9506 45.2332 63.5689 44.871 63.2777C44.5088 62.9865 44.0471 62.8409 43.486 62.8409C42.9249 62.8409 42.4633 62.9865 42.1011 63.2777C41.7389 63.5689 41.4708 63.9506 41.2968 64.4229C41.1227 64.8952 41.0357 65.4048 41.0357 65.9517C41.0357 66.4986 41.1227 67.0064 41.2968 67.4751C41.4708 67.9439 41.7389 68.3221 42.1011 68.6097C42.4633 68.8974 42.9249 69.0412 43.486 69.0412ZM52.6706 61.8182V62.8835H48.4305V61.8182H52.6706ZM49.6663 59.858H50.9234V67.6562C50.9234 68.0114 50.9749 68.2777 51.0779 68.4553C51.1844 68.6293 51.3194 68.7464 51.4827 68.8068C51.6496 68.8636 51.8254 68.892 52.0101 68.892C52.1486 68.892 52.2622 68.8849 52.351 68.8707C52.4398 68.853 52.5108 68.8388 52.5641 68.8281L52.8197 69.9574C52.7345 69.9893 52.6156 70.0213 52.4629 70.0533C52.3102 70.0888 52.1166 70.1065 51.8822 70.1065C51.5271 70.1065 51.1791 70.0302 50.8382 69.8775C50.5009 69.7248 50.2203 69.4922 49.9966 69.1797C49.7764 68.8672 49.6663 68.473 49.6663 67.9972V59.858ZM56.9692 70.1918C56.4508 70.1918 55.9803 70.0941 55.5577 69.8988C55.1351 69.6999 54.7995 69.4141 54.5509 69.0412C54.3023 68.6648 54.1781 68.2102 54.1781 67.6776C54.1781 67.2088 54.2704 66.8288 54.455 66.5376C54.6397 66.2429 54.8865 66.0121 55.1955 65.8452C55.5044 65.6783 55.8453 65.554 56.2182 65.4723C56.5946 65.3871 56.9728 65.3196 57.3528 65.2699C57.8499 65.206 58.253 65.158 58.5619 65.1261C58.8744 65.0906 59.1017 65.032 59.2438 64.9503C59.3893 64.8686 59.4621 64.7266 59.4621 64.5241V64.4815C59.4621 63.956 59.3183 63.5476 59.0307 63.2564C58.7466 62.9652 58.3151 62.8196 57.7363 62.8196C57.1362 62.8196 56.6656 62.951 56.3247 63.2138C55.9838 63.4766 55.7441 63.7571 55.6056 64.0554L54.4124 63.6293C54.6255 63.1321 54.9096 62.745 55.2647 62.468C55.6234 62.1875 56.014 61.9922 56.4366 61.8821C56.8627 61.7685 57.2817 61.7116 57.6937 61.7116C57.9565 61.7116 58.2583 61.7436 58.5992 61.8075C58.9437 61.8679 59.2757 61.994 59.5953 62.1857C59.9185 62.3775 60.1866 62.6669 60.3996 63.054C60.6127 63.4411 60.7192 63.9595 60.7192 64.6094V70H59.4621V68.892H59.3982C59.313 69.0696 59.171 69.2596 58.9721 69.462C58.7732 69.6644 58.5087 69.8366 58.1784 69.9787C57.8482 70.1207 57.4451 70.1918 56.9692 70.1918ZM57.161 69.0625C57.6582 69.0625 58.0772 68.9648 58.4181 68.7695C58.7626 68.5742 59.0218 68.3221 59.1958 68.0131C59.3734 67.7042 59.4621 67.3793 59.4621 67.0384V65.8878C59.4089 65.9517 59.2917 66.0103 59.1106 66.0636C58.933 66.1133 58.7271 66.1577 58.4927 66.1967C58.2619 66.2322 58.0364 66.2642 57.8162 66.2926C57.5996 66.3175 57.4238 66.3388 57.2889 66.3565C56.9621 66.3991 56.6567 66.4684 56.3727 66.5643C56.0921 66.6566 55.8648 66.7969 55.6908 66.9851C55.5204 67.1697 55.4352 67.4219 55.4352 67.7415C55.4352 68.1783 55.5967 68.5085 55.9199 68.7322C56.2466 68.9524 56.6603 69.0625 57.161 69.0625ZM64.2708 59.0909V70H63.0137V59.0909H64.2708ZM73.9881 71.3636V57.7273H74.8617V71.3636H73.9881ZM76.9284 61.8182C76.8645 61.2784 76.6053 60.8594 76.1507 60.5611C75.6962 60.2628 75.1386 60.1136 74.4781 60.1136C73.9952 60.1136 73.5726 60.1918 73.2104 60.348C72.8517 60.5043 72.5712 60.7191 72.3688 60.9925C72.1699 61.266 72.0705 61.5767 72.0705 61.9247C72.0705 62.2159 72.1397 62.4663 72.2782 62.6758C72.4202 62.8817 72.6014 63.054 72.8215 63.1925C73.0417 63.3274 73.2725 63.4393 73.514 63.5281C73.7555 63.6133 73.9774 63.6825 74.1798 63.7358L75.2878 64.0341C75.5719 64.1087 75.8879 64.2116 76.2359 64.343C76.5875 64.4744 76.9231 64.6538 77.2427 64.881C77.5658 65.1048 77.8322 65.3924 78.0417 65.744C78.2512 66.0955 78.356 66.527 78.356 67.0384C78.356 67.6278 78.2015 68.1605 77.8925 68.6364C77.5871 69.1122 77.1397 69.4904 76.5502 69.771C75.9643 70.0515 75.2523 70.1918 74.4142 70.1918C73.633 70.1918 72.9565 70.0657 72.3847 69.8136C71.8166 69.5614 71.3691 69.2099 71.0424 68.7589C70.7192 68.3079 70.5364 67.7841 70.4938 67.1875H71.8574C71.8929 67.5994 72.0314 67.9403 72.2729 68.2102C72.5179 68.4766 72.8268 68.6754 73.1997 68.8068C73.5761 68.9347 73.981 68.9986 74.4142 68.9986C74.9185 68.9986 75.3712 68.9169 75.7725 68.7536C76.1738 68.5866 76.4916 68.3558 76.726 68.0611C76.9604 67.7628 77.0776 67.4148 77.0776 67.017C77.0776 66.6548 76.9764 66.3601 76.7739 66.1328C76.5715 65.9055 76.3052 65.7209 75.9749 65.5788C75.6447 65.4368 75.2878 65.3125 74.9043 65.206L73.5619 64.8224C72.7097 64.5774 72.0349 64.2276 71.5378 63.7731C71.0406 63.3185 70.792 62.7237 70.792 61.9886C70.792 61.3778 70.9572 60.8452 71.2874 60.3906C71.6212 59.9325 72.0687 59.5774 72.6298 59.3253C73.1944 59.0696 73.8247 58.9418 74.5207 58.9418C75.2239 58.9418 75.8489 59.0678 76.3957 59.32C76.9426 59.5685 77.3759 59.9094 77.6955 60.3427C78.0186 60.7759 78.1891 61.2678 78.2068 61.8182H76.9284ZM80.0805 67.7628V66.6761L84.8745 59.0909H85.6629V60.7741H85.1302L81.508 66.5057V66.5909H87.964V67.7628H80.0805ZM85.2154 70V67.4325V66.9265V59.0909H86.4725V70H85.2154ZM89.9602 70V69.0412L93.561 65.0994C93.9836 64.6378 94.3316 64.2365 94.6051 63.8956C94.8785 63.5511 95.0809 63.228 95.2123 62.9261C95.3473 62.6207 95.4147 62.3011 95.4147 61.9673C95.4147 61.5838 95.3224 61.2518 95.1378 60.9712C94.9566 60.6907 94.7081 60.4741 94.392 60.3214C94.076 60.1687 93.7208 60.0923 93.3267 60.0923C92.9076 60.0923 92.5419 60.1793 92.2294 60.3533C91.9204 60.5238 91.6807 60.7635 91.5103 61.0724C91.3434 61.3814 91.2599 61.7436 91.2599 62.1591H90.0028C90.0028 61.5199 90.1502 60.9588 90.4449 60.4759C90.7397 59.9929 91.1409 59.6165 91.6488 59.3466C92.1601 59.0767 92.7336 58.9418 93.3693 58.9418C94.0085 58.9418 94.5749 59.0767 95.0685 59.3466C95.5621 59.6165 95.9492 59.9805 96.2297 60.4386C96.5103 60.8967 96.6505 61.4062 96.6505 61.9673C96.6505 62.3686 96.5777 62.761 96.4321 63.1445C96.2901 63.5245 96.0415 63.9489 95.6864 64.4176C95.3348 64.8828 94.8466 65.451 94.2216 66.1222L91.7713 68.7429V68.8281H96.8423V70H89.9602ZM100.939 68.5085L100.853 69.0838C100.793 69.4886 100.701 69.9219 100.576 70.3835C100.456 70.8452 100.33 71.2802 100.198 71.6886C100.067 72.0969 99.9584 72.4219 99.8732 72.6634H98.9144C98.9605 72.4361 99.0209 72.136 99.0955 71.7631C99.1701 71.3903 99.2446 70.973 99.3192 70.5114C99.3973 70.0533 99.4613 69.5845 99.511 69.1051L99.5749 68.5085H100.939ZM106.436 70.1491C105.811 70.1491 105.248 70.0249 104.747 69.7763C104.246 69.5277 103.845 69.1868 103.543 68.7536C103.241 68.3203 103.076 67.8267 103.048 67.2727H104.326C104.376 67.7663 104.6 68.1747 104.997 68.4979C105.399 68.8175 105.878 68.9773 106.436 68.9773C106.883 68.9773 107.281 68.8725 107.629 68.663C107.98 68.4535 108.256 68.1658 108.455 67.8001C108.657 67.4308 108.758 67.0135 108.758 66.5483C108.758 66.0724 108.653 65.6481 108.444 65.2752C108.238 64.8988 107.954 64.6023 107.592 64.3857C107.229 64.169 106.816 64.0589 106.35 64.0554C106.017 64.0518 105.674 64.1033 105.322 64.2099C104.971 64.3129 104.681 64.446 104.454 64.6094L103.218 64.4602L103.879 59.0909H109.546V60.2628H104.987L104.603 63.4801H104.667C104.891 63.3026 105.171 63.1552 105.509 63.038C105.846 62.9208 106.198 62.8622 106.564 62.8622C107.231 62.8622 107.826 63.022 108.348 63.3416C108.874 63.6577 109.285 64.0909 109.584 64.6413C109.886 65.1918 110.037 65.8203 110.037 66.527C110.037 67.223 109.88 67.8445 109.568 68.3913C109.259 68.9347 108.833 69.3643 108.289 69.6804C107.746 69.9929 107.128 70.1491 106.436 70.1491ZM115.647 70.1491C114.915 70.1491 114.269 70.0195 113.708 69.7603C113.15 69.4975 112.715 69.1371 112.403 68.679C112.09 68.2173 111.936 67.6918 111.94 67.1023C111.936 66.6406 112.027 66.2145 112.211 65.8239C112.396 65.4297 112.648 65.1012 112.968 64.8384C113.291 64.5721 113.651 64.4034 114.049 64.3324V64.2685C113.527 64.1335 113.111 63.8406 112.802 63.3896C112.493 62.935 112.341 62.4183 112.344 61.8395C112.341 61.2855 112.481 60.7901 112.765 60.3533C113.049 59.9165 113.44 59.5721 113.937 59.32C114.438 59.0678 115.008 58.9418 115.647 58.9418C116.279 58.9418 116.844 59.0678 117.341 59.32C117.838 59.5721 118.229 59.9165 118.513 60.3533C118.8 60.7901 118.946 61.2855 118.949 61.8395C118.946 62.4183 118.788 62.935 118.475 63.3896C118.166 63.8406 117.756 64.1335 117.245 64.2685V64.3324C117.639 64.4034 117.994 64.5721 118.31 64.8384C118.626 65.1012 118.878 65.4297 119.067 65.8239C119.255 66.2145 119.351 66.6406 119.354 67.1023C119.351 67.6918 119.191 68.2173 118.875 68.679C118.562 69.1371 118.127 69.4975 117.57 69.7603C117.016 70.0195 116.375 70.1491 115.647 70.1491ZM115.647 68.9773C116.141 68.9773 116.567 68.8974 116.925 68.7376C117.284 68.5778 117.561 68.3523 117.756 68.0611C117.952 67.7699 118.051 67.429 118.055 67.0384C118.051 66.6264 117.944 66.2624 117.735 65.9464C117.525 65.6303 117.24 65.3817 116.877 65.2006C116.519 65.0195 116.109 64.929 115.647 64.929C115.182 64.929 114.766 65.0195 114.4 65.2006C114.038 65.3817 113.752 65.6303 113.543 65.9464C113.337 66.2624 113.236 66.6264 113.239 67.0384C113.236 67.429 113.33 67.7699 113.522 68.0611C113.717 68.3523 113.996 68.5778 114.358 68.7376C114.72 68.8974 115.15 68.9773 115.647 68.9773ZM115.647 63.7997C116.038 63.7997 116.384 63.7216 116.686 63.5653C116.991 63.4091 117.231 63.1907 117.405 62.9102C117.579 62.6296 117.667 62.3011 117.671 61.9247C117.667 61.5554 117.58 61.234 117.41 60.9606C117.24 60.6836 117.003 60.4705 116.702 60.3214C116.4 60.1687 116.048 60.0923 115.647 60.0923C115.239 60.0923 114.882 60.1687 114.576 60.3214C114.271 60.4705 114.035 60.6836 113.868 60.9606C113.701 61.234 113.619 61.5554 113.623 61.9247C113.619 62.3011 113.703 62.6296 113.873 62.9102C114.047 63.1907 114.287 63.4091 114.592 63.5653C114.898 63.7216 115.249 63.7997 115.647 63.7997ZM124.954 70.1491C124.151 70.1491 123.468 69.9308 122.903 69.494C122.339 69.0536 121.907 68.4162 121.609 67.5817C121.311 66.7436 121.161 65.7315 121.161 64.5455C121.161 63.3665 121.311 62.3597 121.609 61.5252C121.911 60.6871 122.344 60.0479 122.909 59.6076C123.477 59.1637 124.159 58.9418 124.954 58.9418C125.749 58.9418 126.429 59.1637 126.994 59.6076C127.562 60.0479 127.996 60.6871 128.294 61.5252C128.596 62.3597 128.747 63.3665 128.747 64.5455C128.747 65.7315 128.597 66.7436 128.299 67.5817C128.001 68.4162 127.569 69.0536 127.005 69.494C126.44 69.9308 125.757 70.1491 124.954 70.1491ZM124.954 68.9773C125.749 68.9773 126.367 68.5937 126.808 67.8267C127.248 67.0597 127.468 65.9659 127.468 64.5455C127.468 63.6009 127.367 62.7965 127.165 62.1325C126.966 61.4684 126.678 60.9624 126.302 60.6143C125.929 60.2663 125.48 60.0923 124.954 60.0923C124.166 60.0923 123.55 60.4812 123.106 61.2589C122.662 62.033 122.44 63.1286 122.44 64.5455C122.44 65.4901 122.539 66.2926 122.738 66.9531C122.937 67.6136 123.223 68.1161 123.596 68.4606C123.972 68.805 124.425 68.9773 124.954 68.9773ZM141.147 61.8182C141.083 61.2784 140.824 60.8594 140.369 60.5611C139.915 60.2628 139.357 60.1136 138.697 60.1136C138.214 60.1136 137.791 60.1918 137.429 60.348C137.07 60.5043 136.79 60.7191 136.588 60.9925C136.389 61.266 136.289 61.5767 136.289 61.9247C136.289 62.2159 136.358 62.4663 136.497 62.6758C136.639 62.8817 136.82 63.054 137.04 63.1925C137.26 63.3274 137.491 63.4393 137.733 63.5281C137.974 63.6133 138.196 63.6825 138.399 63.7358L139.507 64.0341C139.791 64.1087 140.107 64.2116 140.455 64.343C140.806 64.4744 141.142 64.6538 141.461 64.881C141.785 65.1048 142.051 65.3924 142.26 65.744C142.47 66.0955 142.575 66.527 142.575 67.0384C142.575 67.6278 142.42 68.1605 142.111 68.6364C141.806 69.1122 141.358 69.4904 140.769 69.771C140.183 70.0515 139.471 70.1918 138.633 70.1918C137.852 70.1918 137.175 70.0657 136.603 69.8136C136.035 69.5614 135.588 69.2099 135.261 68.7589C134.938 68.3079 134.755 67.7841 134.713 67.1875H136.076C136.112 67.5994 136.25 67.9403 136.492 68.2102C136.737 68.4766 137.046 68.6754 137.418 68.8068C137.795 68.9347 138.2 68.9986 138.633 68.9986C139.137 68.9986 139.59 68.9169 139.991 68.7536C140.393 68.5866 140.71 68.3558 140.945 68.0611C141.179 67.7628 141.296 67.4148 141.296 67.017C141.296 66.6548 141.195 66.3601 140.993 66.1328C140.79 65.9055 140.524 65.7209 140.194 65.5788C139.863 65.4368 139.507 65.3125 139.123 65.206L137.781 64.8224C136.928 64.5774 136.254 64.2276 135.757 63.7731C135.259 63.3185 135.011 62.7237 135.011 61.9886C135.011 61.3778 135.176 60.8452 135.506 60.3906C135.84 59.9325 136.287 59.5774 136.849 59.3253C137.413 59.0696 138.043 58.9418 138.739 58.9418C139.443 58.9418 140.068 59.0678 140.614 59.32C141.161 59.5685 141.595 59.9094 141.914 60.3427C142.237 60.7759 142.408 61.2678 142.426 61.8182H141.147ZM146.984 70.1918C146.465 70.1918 145.995 70.0941 145.572 69.8988C145.15 69.6999 144.814 69.4141 144.566 69.0412C144.317 68.6648 144.193 68.2102 144.193 67.6776C144.193 67.2088 144.285 66.8288 144.47 66.5376C144.654 66.2429 144.901 66.0121 145.21 65.8452C145.519 65.6783 145.86 65.554 146.233 65.4723C146.609 65.3871 146.987 65.3196 147.367 65.2699C147.865 65.206 148.268 65.158 148.577 65.1261C148.889 65.0906 149.116 65.032 149.258 64.9503C149.404 64.8686 149.477 64.7266 149.477 64.5241V64.4815C149.477 63.956 149.333 63.5476 149.045 63.2564C148.761 62.9652 148.33 62.8196 147.751 62.8196C147.151 62.8196 146.68 62.951 146.339 63.2138C145.998 63.4766 145.759 63.7571 145.62 64.0554L144.427 63.6293C144.64 63.1321 144.924 62.745 145.279 62.468C145.638 62.1875 146.029 61.9922 146.451 61.8821C146.877 61.7685 147.296 61.7116 147.708 61.7116C147.971 61.7116 148.273 61.7436 148.614 61.8075C148.958 61.8679 149.29 61.994 149.61 62.1857C149.933 62.3775 150.201 62.6669 150.414 63.054C150.627 63.4411 150.734 63.9595 150.734 64.6094V70H149.477V68.892H149.413C149.328 69.0696 149.186 69.2596 148.987 69.462C148.788 69.6644 148.523 69.8366 148.193 69.9787C147.863 70.1207 147.46 70.1918 146.984 70.1918ZM147.176 69.0625C147.673 69.0625 148.092 68.9648 148.433 68.7695C148.777 68.5742 149.036 68.3221 149.21 68.0131C149.388 67.7042 149.477 67.3793 149.477 67.0384V65.8878C149.424 65.9517 149.306 66.0103 149.125 66.0636C148.948 66.1133 148.742 66.1577 148.507 66.1967C148.277 66.2322 148.051 66.2642 147.831 66.2926C147.614 66.3175 147.438 66.3388 147.304 66.3565C146.977 66.3991 146.671 66.4684 146.387 66.5643C146.107 66.6566 145.879 66.7969 145.705 66.9851C145.535 67.1697 145.45 67.4219 145.45 67.7415C145.45 68.1783 145.611 68.5085 145.935 68.7322C146.261 68.9524 146.675 69.0625 147.176 69.0625ZM154.285 59.0909V70H153.028V59.0909H154.285ZM160.018 70.1705C159.23 70.1705 158.55 69.9964 157.978 69.6484C157.41 69.2969 156.971 68.8068 156.663 68.1783C156.357 67.5462 156.204 66.8111 156.204 65.973C156.204 65.1349 156.357 64.3963 156.663 63.7571C156.971 63.1143 157.401 62.6136 157.952 62.255C158.506 61.8928 159.152 61.7116 159.891 61.7116C160.317 61.7116 160.737 61.7827 161.153 61.9247C161.568 62.0668 161.947 62.2976 162.288 62.6172C162.628 62.9332 162.9 63.3523 163.103 63.8743C163.305 64.3963 163.406 65.0391 163.406 65.8026V66.3352H157.099V65.2486H162.128C162.128 64.7869 162.035 64.375 161.851 64.0128C161.67 63.6506 161.41 63.3647 161.073 63.1552C160.739 62.9457 160.345 62.8409 159.891 62.8409C159.39 62.8409 158.957 62.9652 158.591 63.2138C158.229 63.4588 157.95 63.7784 157.754 64.1726C157.559 64.5668 157.462 64.9893 157.462 65.4403V66.1648C157.462 66.7827 157.568 67.3065 157.781 67.7362C157.998 68.1623 158.298 68.4872 158.681 68.7109C159.065 68.9311 159.511 69.0412 160.018 69.0412C160.349 69.0412 160.647 68.995 160.913 68.9027C161.183 68.8068 161.416 68.6648 161.611 68.4766C161.806 68.2848 161.957 68.0469 162.064 67.7628L163.278 68.1037C163.15 68.5156 162.936 68.8778 162.634 69.1903C162.332 69.4993 161.959 69.7408 161.515 69.9148C161.071 70.0852 160.572 70.1705 160.018 70.1705ZM171.114 63.6506L169.985 63.9702C169.914 63.782 169.809 63.5991 169.67 63.4215C169.535 63.2404 169.351 63.0913 169.116 62.9741C168.882 62.8569 168.582 62.7983 168.216 62.7983C167.715 62.7983 167.298 62.9137 166.964 63.1445C166.634 63.3718 166.469 63.6612 166.469 64.0128C166.469 64.3253 166.583 64.5721 166.81 64.7532C167.037 64.9343 167.392 65.0852 167.875 65.206L169.09 65.5043C169.821 65.6818 170.366 65.9535 170.725 66.3192C171.084 66.6815 171.263 67.1484 171.263 67.7202C171.263 68.1889 171.128 68.608 170.858 68.9773C170.592 69.3466 170.219 69.6378 169.74 69.8509C169.26 70.0639 168.703 70.1705 168.067 70.1705C167.232 70.1705 166.542 69.9893 165.995 69.6271C165.448 69.2649 165.102 68.7358 164.956 68.0398L166.149 67.7415C166.263 68.1818 166.478 68.5121 166.794 68.7322C167.114 68.9524 167.531 69.0625 168.046 69.0625C168.632 69.0625 169.097 68.9382 169.441 68.6896C169.789 68.4375 169.963 68.1357 169.963 67.7841C169.963 67.5 169.864 67.2621 169.665 67.0703C169.466 66.875 169.161 66.7294 168.749 66.6335L167.385 66.3139C166.636 66.1364 166.085 65.8612 165.734 65.4883C165.386 65.1119 165.212 64.6413 165.212 64.0767C165.212 63.6151 165.341 63.2067 165.601 62.8516C165.864 62.4964 166.22 62.2177 166.671 62.0153C167.126 61.8129 167.641 61.7116 168.216 61.7116C169.026 61.7116 169.661 61.8892 170.123 62.2443C170.588 62.5994 170.919 63.0682 171.114 63.6506Z" fill="#2E263D" fill-opacity="0.7"/>
<path d="M339.907 29C339.082 29 338.407 29.675 338.407 30.5C338.407 31.325 339.082 32 339.907 32C340.732 32 341.407 31.325 341.407 30.5C341.407 29.675 340.732 29 339.907 29ZM339.907 44C339.082 44 338.407 44.675 338.407 45.5C338.407 46.325 339.082 47 339.907 47C340.732 47 341.407 46.325 341.407 45.5C341.407 44.675 340.732 44 339.907 44ZM339.907 36.5C339.082 36.5 338.407 37.175 338.407 38C338.407 38.825 339.082 39.5 339.907 39.5C340.732 39.5 341.407 38.825 341.407 38C341.407 37.175 340.732 36.5 339.907 36.5Z" fill="#2E263D" fill-opacity="0.9"/>
<path d="M10.5741 270C18.2267 268.195 36.4265 244.201 48.0053 234.668C65.2143 220.5 85.9355 216.253 104.402 225.46C122.868 234.668 158.801 255.791 176.269 225.46C190.244 201.196 200.059 186.824 203.22 182.672C212.29 170.756 227.276 150.824 259.616 170.756C300.042 195.671 316.645 179.274 327.491 164.257C341.965 144.217 361.928 127.968 370.412 129.051" stroke="#8C57FF" stroke-width="5"/>
<path opacity="0.15" d="M48.5554 235.03C36.9607 244.596 18.7357 268.611 11.0725 270.423V372H371.907V129.041C363.411 127.954 338.423 148.608 328.427 164.371C318.432 180.133 300.94 195.896 260.458 170.893C228.199 150.969 213.184 170.738 204.09 182.711L203.984 182.851C200.819 187.018 190.99 201.44 176.997 225.79C159.505 256.228 123.521 235.03 105.03 225.79C86.538 216.55 63.0487 223.072 48.5554 235.03Z" fill="url(#paint0_linear_8003_5183)"/>
<path d="M362.77 122C366.614 122 369.742 125.128 369.742 129C369.742 132.872 366.614 136 362.77 136C358.926 136 355.799 132.872 355.799 129C355.799 125.128 358.926 122 362.77 122Z" fill="white" stroke="#8C57FF" stroke-width="4"/>
</g>
<defs>
<filter id="filter0_d_8003_5183" x="0" y="0" width="381.908" height="386" filterUnits="userSpaceOnUse" color-interpolation-filters="sRGB">
<feFlood flood-opacity="0" result="BackgroundImageFix"/>
<feColorMatrix in="SourceAlpha" type="matrix" values="0 0 0 0 0 0 0 0 0 0 0 0 0 0 0 0 0 0 127 0" result="hardAlpha"/>
<feOffset dy="4"/>
<feGaussianBlur stdDeviation="5"/>
<feComposite in2="hardAlpha" operator="out"/>
<feColorMatrix type="matrix" values="0 0 0 0 0.180392 0 0 0 0 0.14902 0 0 0 0 0.239216 0 0 0 0.2 0"/>
<feBlend mode="normal" in2="BackgroundImageFix" result="effect1_dropShadow_8003_5183"/>
<feBlend mode="normal" in="SourceGraphic" in2="effect1_dropShadow_8003_5183" result="shape"/>
</filter>
<linearGradient id="paint0_linear_8003_5183" x1="187.992" y1="129" x2="187.992" y2="372" gradientUnits="userSpaceOnUse">
<stop stop-color="#9155FD"/>
<stop offset="1" stop-color="#9155FD" stop-opacity="0"/>
</linearGradient>
</defs>
</svg>
