<svg width="189" height="232" viewBox="0 0 189 232" fill="none" xmlns="http://www.w3.org/2000/svg">
<g filter="url(#filter0_d_8003_4354)">
<path d="M10 12C10 8.68629 12.6863 6 16 6H172.667C175.98 6 178.667 8.68629 178.667 12V212C178.667 215.314 175.98 218 172.667 218H16C12.6863 218 10 215.314 10 212V12Z" fill="white" shape-rendering="crispEdges"/>
<path d="M31.3125 50.5909V48.4602L38.8551 36.5455H40.5341V39.6818H39.4688L34.0739 48.2216V48.358H44.4119V50.5909H31.3125ZM39.5881 54V49.9432L39.6051 48.9716V36.5455H42.1023V54H39.5881ZM50.0753 51.6136L49.9474 52.5426C49.8622 53.2244 49.7173 53.9347 49.5128 54.6733C49.3139 55.4176 49.1065 56.108 48.8906 56.7443C48.6804 57.3807 48.5071 57.8864 48.3707 58.2614H46.5639C46.6378 57.9091 46.7401 57.4318 46.8707 56.8295C47.0014 56.233 47.1293 55.5653 47.2543 54.8267C47.3793 54.0881 47.473 53.3352 47.5355 52.5682L47.6207 51.6136H50.0753ZM59.0838 54.2386C57.9134 54.2386 56.8679 54.0369 55.9474 53.6335C55.0327 53.2301 54.3082 52.6705 53.7741 51.9545C53.2457 51.233 52.9616 50.3977 52.9219 49.4489H55.598C55.6321 49.9659 55.8054 50.4148 56.1179 50.7955C56.4361 51.1705 56.8509 51.4602 57.3622 51.6648C57.8736 51.8693 58.4418 51.9716 59.0668 51.9716C59.7543 51.9716 60.3622 51.8523 60.8906 51.6136C61.4247 51.375 61.8423 51.0426 62.1435 50.6165C62.4446 50.1847 62.5952 49.6875 62.5952 49.125C62.5952 48.5398 62.4446 48.0256 62.1435 47.5824C61.848 47.1335 61.4134 46.7812 60.8395 46.5256C60.2713 46.2699 59.5838 46.142 58.777 46.142H57.3026V43.9943H58.777C59.4247 43.9943 59.9929 43.8778 60.4815 43.6449C60.9759 43.4119 61.3622 43.0881 61.6406 42.6733C61.919 42.2528 62.0582 41.7614 62.0582 41.1989C62.0582 40.6591 61.9361 40.1903 61.6918 39.7926C61.4531 39.3892 61.1122 39.0739 60.669 38.8466C60.2315 38.6193 59.7145 38.5057 59.1179 38.5057C58.5497 38.5057 58.0185 38.6108 57.5241 38.821C57.0355 39.0256 56.6378 39.321 56.331 39.7074C56.0241 40.0881 55.8594 40.5455 55.8366 41.0795H53.2884C53.3168 40.1364 53.5952 39.3068 54.1236 38.5909C54.6577 37.875 55.3622 37.3153 56.2372 36.9119C57.1122 36.5085 58.0838 36.3068 59.152 36.3068C60.2713 36.3068 61.2372 36.5256 62.0497 36.9631C62.8679 37.3949 63.4986 37.9716 63.9418 38.6932C64.3906 39.4148 64.6122 40.2045 64.6065 41.0625C64.6122 42.0398 64.3395 42.8693 63.7884 43.5511C63.2429 44.233 62.5156 44.6903 61.6065 44.9233V45.0597C62.7656 45.2358 63.6634 45.696 64.2997 46.4403C64.9418 47.1847 65.2599 48.108 65.2543 49.2102C65.2599 50.1705 64.9929 51.0312 64.4531 51.7926C63.919 52.554 63.1889 53.1534 62.2628 53.5909C61.3366 54.0227 60.277 54.2386 59.0838 54.2386ZM74.2372 54.2386C73.169 54.2386 72.2088 54.0341 71.3565 53.625C70.5099 53.2102 69.8338 52.642 69.3281 51.9205C68.8224 51.1989 68.5526 50.375 68.5185 49.4489H71.0753C71.1378 50.1989 71.4702 50.8153 72.0724 51.2983C72.6747 51.7812 73.3963 52.0227 74.2372 52.0227C74.9077 52.0227 75.5014 51.8693 76.0185 51.5625C76.5412 51.25 76.9503 50.821 77.2457 50.2756C77.5469 49.7301 77.6974 49.108 77.6974 48.4091C77.6974 47.6989 77.544 47.0653 77.2372 46.5085C76.9304 45.9517 76.5071 45.5142 75.9673 45.196C75.4332 44.8778 74.8196 44.7159 74.1264 44.7102C73.598 44.7102 73.0668 44.8011 72.5327 44.983C71.9986 45.1648 71.5668 45.4034 71.2372 45.6989L68.8253 45.3409L69.8054 36.5455H79.402V38.804H71.9957L71.4418 43.6875H71.544C71.8849 43.358 72.3366 43.0824 72.8991 42.8608C73.4673 42.6392 74.0753 42.5284 74.723 42.5284C75.7855 42.5284 76.7315 42.7812 77.5611 43.2869C78.3963 43.7926 79.0526 44.483 79.5298 45.358C80.0128 46.2273 80.2514 47.2273 80.2457 48.358C80.2514 49.4886 79.9957 50.4972 79.4787 51.3835C78.9673 52.2699 78.2571 52.9687 77.348 53.4801C76.4446 53.9858 75.4077 54.2386 74.2372 54.2386ZM89.4354 54.2898C88.0888 54.2841 86.9382 53.929 85.9837 53.2244C85.0291 52.5199 84.299 51.4943 83.7933 50.1477C83.2876 48.8011 83.0348 47.179 83.0348 45.2812C83.0348 43.3892 83.2876 41.7727 83.7933 40.4318C84.3047 39.0909 85.0376 38.0682 85.9922 37.3636C86.9524 36.6591 88.1001 36.3068 89.4354 36.3068C90.7706 36.3068 91.9155 36.6619 92.87 37.3722C93.8246 38.0767 94.5547 39.0994 95.0604 40.4403C95.5717 41.7756 95.8274 43.3892 95.8274 45.2812C95.8274 47.1847 95.5746 48.8097 95.0689 50.1562C94.5632 51.4972 93.8331 52.5227 92.8786 53.233C91.924 53.9375 90.7763 54.2898 89.4354 54.2898ZM89.4354 52.0142C90.6172 52.0142 91.5405 51.4375 92.2053 50.2841C92.8757 49.1307 93.2109 47.4631 93.2109 45.2812C93.2109 43.8324 93.0575 42.608 92.7507 41.608C92.4496 40.6023 92.0149 39.8409 91.4467 39.3239C90.8842 38.8011 90.2138 38.5398 89.4354 38.5398C88.2592 38.5398 87.3359 39.1193 86.6655 40.2784C85.995 41.4375 85.657 43.1051 85.6513 45.2812C85.6513 46.7358 85.8018 47.9659 86.103 48.9716C86.4098 49.9716 86.8445 50.7301 87.407 51.2472C87.9695 51.7585 88.6456 52.0142 89.4354 52.0142Z" fill="#2E263D" fill-opacity="0.9"/>
<path d="M30 140.078C30 137.71 31.9202 135.79 34.2889 135.79V135.79C36.6576 135.79 38.5778 137.71 38.5778 140.078V150.448C38.5778 152.817 36.6576 154.737 34.2889 154.737V154.737C31.9202 154.737 30 152.817 30 150.448V140.078Z" fill="#FF4C51"/>
<path d="M60.0222 140.078C60.0222 137.71 61.9424 135.79 64.3111 135.79V135.79C66.6798 135.79 68.6 137.71 68.6 140.078V155.711C68.6 158.08 66.6798 160 64.3111 160V160C61.9424 160 60.0222 158.08 60.0222 155.711V140.078Z" fill="#FF4C51"/>
<path d="M90.0446 140.078C90.0446 137.71 91.9648 135.79 94.3334 135.79V135.79C96.7021 135.79 98.6223 137.71 98.6223 140.078V150.448C98.6223 152.817 96.7021 154.737 94.3334 154.737V154.737C91.9648 154.737 90.0446 152.817 90.0446 150.448V140.078Z" fill="#FF4C51"/>
<path d="M120.067 140.078C120.067 137.71 121.987 135.79 124.356 135.79V135.79C126.724 135.79 128.645 137.71 128.645 140.078V143.08C128.645 145.448 126.724 147.368 124.356 147.368V147.368C121.987 147.368 120.067 145.448 120.067 143.08V140.078Z" fill="#FF4C51"/>
<path d="M150.089 140.078C150.089 137.71 152.009 135.79 154.378 135.79V135.79C156.746 135.79 158.667 137.71 158.667 140.078V155.711C158.667 158.08 156.746 160 154.378 160V160C152.009 160 150.089 158.08 150.089 155.711V140.078Z" fill="#FF4C51"/>
<path d="M30 101.131C30 98.7625 31.9202 96.8423 34.2889 96.8423V96.8423C36.6576 96.8423 38.5778 98.7625 38.5778 101.131V124.132C38.5778 126.501 36.6576 128.421 34.2889 128.421V128.421C31.9202 128.421 30 126.501 30 124.132V101.131Z" fill="#2E263D" fill-opacity="0.9"/>
<path d="M60.0222 112.71C60.0222 110.341 61.9424 108.421 64.3111 108.421V108.421C66.6798 108.421 68.6 110.341 68.6 112.71V124.132C68.6 126.501 66.6798 128.421 64.3111 128.421V128.421C61.9424 128.421 60.0222 126.501 60.0222 124.132V112.71Z" fill="#2E263D" fill-opacity="0.9"/>
<path d="M90.0446 84.2889C90.0446 81.9202 91.9648 80 94.3334 80V80C96.7021 80 98.6223 81.9202 98.6223 84.2889V124.132C98.6223 126.501 96.7021 128.421 94.3334 128.421V128.421C91.9648 128.421 90.0446 126.501 90.0446 124.132V84.2889Z" fill="#2E263D" fill-opacity="0.9"/>
<path d="M120.067 102.183C120.067 99.8147 121.987 97.8945 124.356 97.8945V97.8945C126.724 97.8945 128.645 99.8147 128.645 102.183V124.132C128.645 126.501 126.724 128.421 124.356 128.421V128.421C121.987 128.421 120.067 126.501 120.067 124.132V102.183Z" fill="#2E263D" fill-opacity="0.9"/>
<path d="M150.089 114.815C150.089 112.447 152.009 110.526 154.378 110.526V110.526C156.746 110.526 158.667 112.447 158.667 114.815V124.132C158.667 126.501 156.746 128.421 154.378 128.421V128.421C152.009 128.421 150.089 126.501 150.089 124.132V114.815Z" fill="#2E263D" fill-opacity="0.9"/>
<path d="M69.3211 183.957C69.2643 183.452 69.0299 183.062 68.618 182.785C68.2061 182.504 67.6876 182.364 67.0626 182.364C66.6152 182.364 66.2281 182.435 65.9014 182.577C65.5747 182.716 65.3208 182.907 65.1397 183.152C64.9621 183.394 64.8733 183.669 64.8733 183.978C64.8733 184.237 64.9337 184.461 65.0544 184.649C65.1787 184.837 65.3403 184.995 65.5392 185.123C65.7416 185.248 65.9582 185.352 66.189 185.438C66.4198 185.519 66.6418 185.587 66.8549 185.64L67.9202 185.917C68.2682 186.002 68.6251 186.118 68.9909 186.263C69.3566 186.409 69.6958 186.6 70.0083 186.838C70.3208 187.076 70.5729 187.371 70.7647 187.723C70.96 188.074 71.0576 188.495 71.0576 188.985C71.0576 189.603 70.8978 190.152 70.5782 190.631C70.2622 191.11 69.8023 191.489 69.1986 191.766C68.5985 192.043 67.8723 192.181 67.02 192.181C66.2032 192.181 65.4965 192.051 64.9 191.792C64.3034 191.533 63.8364 191.165 63.499 190.69C63.1617 190.21 62.9752 189.642 62.9397 188.985H64.591C64.623 189.379 64.7508 189.708 64.9745 189.971C65.2018 190.23 65.4912 190.423 65.8428 190.551C66.1979 190.675 66.5867 190.738 67.0093 190.738C67.4745 190.738 67.8882 190.665 68.2505 190.519C68.6162 190.37 68.9039 190.164 69.1134 189.901C69.3229 189.635 69.4277 189.324 69.4277 188.969C69.4277 188.646 69.3353 188.381 69.1507 188.175C68.9696 187.969 68.7228 187.799 68.4103 187.664C68.1013 187.529 67.7515 187.41 67.3609 187.307L66.0718 186.956C65.1983 186.718 64.5058 186.368 63.9944 185.906C63.4866 185.445 63.2327 184.834 63.2327 184.074C63.2327 183.445 63.4032 182.897 63.7441 182.428C64.085 181.959 64.5466 181.595 65.129 181.336C65.7114 181.073 66.3684 180.942 67.0999 180.942C67.8385 180.942 68.4902 181.071 69.0548 181.331C69.623 181.59 70.0704 181.947 70.3971 182.401C70.7238 182.852 70.8943 183.371 70.9085 183.957H69.3211ZM76.4229 192.165C75.6168 192.165 74.9226 191.993 74.3402 191.648C73.7614 191.3 73.3139 190.812 72.9979 190.184C72.6854 189.551 72.5291 188.811 72.5291 187.962C72.5291 187.124 72.6854 186.386 72.9979 185.746C73.3139 185.107 73.7543 184.608 74.3189 184.25C74.8871 183.891 75.5511 183.712 76.3111 183.712C76.7727 183.712 77.2202 183.788 77.6534 183.941C78.0867 184.093 78.4755 184.333 78.82 184.66C79.1644 184.987 79.4361 185.411 79.635 185.933C79.8338 186.451 79.9332 187.082 79.9332 187.824V188.388H73.4293V187.195H78.3725C78.3725 186.776 78.2873 186.405 78.1168 186.082C77.9464 185.755 77.7067 185.498 77.3977 185.31C77.0923 185.121 76.7337 185.027 76.3217 185.027C75.8743 185.027 75.4837 185.137 75.1499 185.358C74.8196 185.574 74.5639 185.858 74.3828 186.21C74.2053 186.558 74.1165 186.936 74.1165 187.344V188.277C74.1165 188.824 74.2124 189.289 74.4041 189.672C74.5994 190.056 74.8711 190.349 75.2191 190.551C75.5671 190.75 75.9737 190.849 76.4389 190.849C76.7408 190.849 77.016 190.807 77.2646 190.722C77.5131 190.633 77.728 190.501 77.9091 190.327C78.0902 190.153 78.2287 189.939 78.3246 189.683L79.832 189.955C79.7113 190.398 79.4947 190.787 79.1822 191.121C78.8732 191.451 78.4844 191.709 78.0156 191.893C77.5504 192.075 77.0195 192.165 76.4229 192.165ZM87.8314 185.816L86.3879 186.071C86.3275 185.887 86.2316 185.711 86.1002 185.544C85.9724 185.377 85.7984 185.24 85.5782 185.134C85.3581 185.027 85.0828 184.974 84.7526 184.974C84.3016 184.974 83.9252 185.075 83.6233 185.278C83.3215 185.477 83.1706 185.734 83.1706 186.05C83.1706 186.324 83.2718 186.544 83.4742 186.711C83.6766 186.877 84.0033 187.014 84.4543 187.121L85.754 187.419C86.5068 187.593 87.0679 187.861 87.4372 188.223C87.8066 188.586 87.9912 189.056 87.9912 189.635C87.9912 190.125 87.8492 190.562 87.5651 190.945C87.2845 191.325 86.8921 191.624 86.3879 191.84C85.8872 192.057 85.3066 192.165 84.6461 192.165C83.7299 192.165 82.9823 191.97 82.4035 191.579C81.8247 191.185 81.4696 190.626 81.3382 189.901L82.8776 189.667C82.9735 190.068 83.1706 190.372 83.4688 190.578C83.7671 190.78 84.156 190.881 84.6354 190.881C85.1574 190.881 85.5747 190.773 85.8872 190.556C86.1997 190.336 86.3559 190.068 86.3559 189.752C86.3559 189.496 86.26 189.282 86.0683 189.108C85.8801 188.934 85.5907 188.802 85.2 188.713L83.8151 188.41C83.0516 188.236 82.487 187.959 82.1212 187.579C81.759 187.199 81.5779 186.718 81.5779 186.135C81.5779 185.652 81.7128 185.23 81.9827 184.868C82.2526 184.505 82.6255 184.223 83.1013 184.021C83.5772 183.815 84.1223 183.712 84.7366 183.712C85.6208 183.712 86.3169 183.903 86.8247 184.287C87.3325 184.667 87.6681 185.176 87.8314 185.816ZM95.8734 185.816L94.4299 186.071C94.3695 185.887 94.2736 185.711 94.1422 185.544C94.0144 185.377 93.8404 185.24 93.6202 185.134C93.4 185.027 93.1248 184.974 92.7946 184.974C92.3436 184.974 91.9672 185.075 91.6653 185.278C91.3635 185.477 91.2125 185.734 91.2125 186.05C91.2125 186.324 91.3138 186.544 91.5162 186.711C91.7186 186.877 92.0453 187.014 92.4963 187.121L93.796 187.419C94.5488 187.593 95.1099 187.861 95.4792 188.223C95.8486 188.586 96.0332 189.056 96.0332 189.635C96.0332 190.125 95.8912 190.562 95.6071 190.945C95.3265 191.325 94.9341 191.624 94.4299 191.84C93.9292 192.057 93.3486 192.165 92.688 192.165C91.7718 192.165 91.0243 191.97 90.4455 191.579C89.8667 191.185 89.5116 190.626 89.3802 189.901L90.9196 189.667C91.0155 190.068 91.2125 190.372 91.5108 190.578C91.8091 190.78 92.198 190.881 92.6774 190.881C93.1994 190.881 93.6167 190.773 93.9292 190.556C94.2417 190.336 94.3979 190.068 94.3979 189.752C94.3979 189.496 94.302 189.282 94.1103 189.108C93.9221 188.934 93.6326 188.802 93.242 188.713L91.8571 188.41C91.0936 188.236 90.529 187.959 90.1632 187.579C89.801 187.199 89.6199 186.718 89.6199 186.135C89.6199 185.652 89.7548 185.23 90.0247 184.868C90.2946 184.505 90.6674 184.223 91.1433 184.021C91.6192 183.815 92.1642 183.712 92.7786 183.712C93.6628 183.712 94.3589 183.903 94.8667 184.287C95.3745 184.667 95.7101 185.176 95.8734 185.816ZM97.7844 192V183.818H99.3771V192H97.7844ZM98.5887 182.556C98.3117 182.556 98.0738 182.463 97.8749 182.279C97.6796 182.091 97.582 181.867 97.582 181.608C97.582 181.345 97.6796 181.121 97.8749 180.936C98.0738 180.748 98.3117 180.654 98.5887 180.654C98.8657 180.654 99.1018 180.748 99.2972 180.936C99.496 181.121 99.5954 181.345 99.5954 181.608C99.5954 181.867 99.496 182.091 99.2972 182.279C99.1018 182.463 98.8657 182.556 98.5887 182.556ZM104.966 192.165C104.199 192.165 103.53 191.989 102.958 191.638C102.386 191.286 101.942 190.794 101.626 190.162C101.31 189.53 101.152 188.792 101.152 187.946C101.152 187.098 101.31 186.355 101.626 185.72C101.942 185.084 102.386 184.591 102.958 184.239C103.53 183.887 104.199 183.712 104.966 183.712C105.733 183.712 106.403 183.887 106.974 184.239C107.546 184.591 107.99 185.084 108.306 185.72C108.622 186.355 108.78 187.098 108.78 187.946C108.78 188.792 108.622 189.53 108.306 190.162C107.99 190.794 107.546 191.286 106.974 191.638C106.403 191.989 105.733 192.165 104.966 192.165ZM104.971 190.828C105.469 190.828 105.881 190.697 106.207 190.434C106.534 190.171 106.775 189.821 106.932 189.385C107.091 188.948 107.171 188.467 107.171 187.941C107.171 187.419 107.091 186.94 106.932 186.503C106.775 186.062 106.534 185.709 106.207 185.443C105.881 185.176 105.469 185.043 104.971 185.043C104.471 185.043 104.055 185.176 103.725 185.443C103.398 185.709 103.155 186.062 102.995 186.503C102.839 186.94 102.761 187.419 102.761 187.941C102.761 188.467 102.839 188.948 102.995 189.385C103.155 189.821 103.398 190.171 103.725 190.434C104.055 190.697 104.471 190.828 104.971 190.828ZM112.15 187.142V192H110.558V183.818H112.087V185.15H112.188C112.376 184.717 112.671 184.369 113.072 184.106C113.477 183.843 113.986 183.712 114.601 183.712C115.158 183.712 115.647 183.829 116.066 184.063C116.485 184.294 116.81 184.638 117.04 185.097C117.271 185.555 117.387 186.121 117.387 186.796V192H115.794V186.988C115.794 186.395 115.639 185.931 115.331 185.597C115.022 185.26 114.597 185.091 114.057 185.091C113.688 185.091 113.36 185.171 113.072 185.331C112.788 185.491 112.562 185.725 112.396 186.034C112.232 186.339 112.15 186.709 112.15 187.142ZM125.654 185.816L124.21 186.071C124.15 185.887 124.054 185.711 123.923 185.544C123.795 185.377 123.621 185.24 123.4 185.134C123.18 185.027 122.905 184.974 122.575 184.974C122.124 184.974 121.747 185.075 121.446 185.278C121.144 185.477 120.993 185.734 120.993 186.05C120.993 186.324 121.094 186.544 121.296 186.711C121.499 186.877 121.826 187.014 122.277 187.121L123.576 187.419C124.329 187.593 124.89 187.861 125.26 188.223C125.629 188.586 125.813 189.056 125.813 189.635C125.813 190.125 125.671 190.562 125.387 190.945C125.107 191.325 124.714 191.624 124.21 191.84C123.709 192.057 123.129 192.165 122.468 192.165C121.552 192.165 120.805 191.97 120.226 191.579C119.647 191.185 119.292 190.626 119.16 189.901L120.7 189.667C120.796 190.068 120.993 190.372 121.291 190.578C121.589 190.78 121.978 190.881 122.458 190.881C122.98 190.881 123.397 190.773 123.709 190.556C124.022 190.336 124.178 190.068 124.178 189.752C124.178 189.496 124.082 189.282 123.891 189.108C123.702 188.934 123.413 188.802 123.022 188.713L121.637 188.41C120.874 188.236 120.309 187.959 119.943 187.579C119.581 187.199 119.4 186.718 119.4 186.135C119.4 185.652 119.535 185.23 119.805 184.868C120.075 184.505 120.448 184.223 120.924 184.021C121.399 183.815 121.945 183.712 122.559 183.712C123.443 183.712 124.139 183.903 124.647 184.287C125.155 184.667 125.49 185.176 125.654 185.816Z" fill="#2E263D" fill-opacity="0.9"/>
</g>
<defs>
<filter id="filter0_d_8003_4354" x="0" y="0" width="188.667" height="232" filterUnits="userSpaceOnUse" color-interpolation-filters="sRGB">
<feFlood flood-opacity="0" result="BackgroundImageFix"/>
<feColorMatrix in="SourceAlpha" type="matrix" values="0 0 0 0 0 0 0 0 0 0 0 0 0 0 0 0 0 0 127 0" result="hardAlpha"/>
<feOffset dy="4"/>
<feGaussianBlur stdDeviation="5"/>
<feComposite in2="hardAlpha" operator="out"/>
<feColorMatrix type="matrix" values="0 0 0 0 0.180392 0 0 0 0 0.14902 0 0 0 0 0.239216 0 0 0 0.2 0"/>
<feBlend mode="normal" in2="BackgroundImageFix" result="effect1_dropShadow_8003_4354"/>
<feBlend mode="normal" in="SourceGraphic" in2="effect1_dropShadow_8003_4354" result="shape"/>
</filter>
</defs>
</svg>
