<svg width="207" height="52" viewBox="0 0 207 52" fill="none" xmlns="http://www.w3.org/2000/svg">
<g filter="url(#filter0_d_8003_3030)">
<path d="M4 8C4 4.68629 6.68629 2 10 2H197C200.314 2 203 4.68629 203 8V40C203 43.3137 200.314 46 197 46H10C6.6863 46 4 43.3137 4 40V8Z" fill="#1A0E33"/>
<path d="M21.1449 29V19.5455H22.2898V27.9844H26.6847V29H21.1449ZM31.1903 29.1477C30.5502 29.1477 29.9885 28.9954 29.5053 28.6907C29.0252 28.386 28.6497 27.9598 28.3789 27.4119C28.1112 26.8641 27.9773 26.224 27.9773 25.4915C27.9773 24.7528 28.1112 24.1081 28.3789 23.5572C28.6497 23.0063 29.0252 22.5785 29.5053 22.2738C29.9885 21.9691 30.5502 21.8168 31.1903 21.8168C31.8305 21.8168 32.3906 21.9691 32.8707 22.2738C33.3539 22.5785 33.7294 23.0063 33.9972 23.5572C34.268 24.1081 34.4034 24.7528 34.4034 25.4915C34.4034 26.224 34.268 26.8641 33.9972 27.4119C33.7294 27.9598 33.3539 28.386 32.8707 28.6907C32.3906 28.9954 31.8305 29.1477 31.1903 29.1477ZM31.1903 28.169C31.6766 28.169 32.0767 28.0444 32.3906 27.7951C32.7045 27.5458 32.9369 27.218 33.0877 26.8118C33.2385 26.4055 33.3139 25.9654 33.3139 25.4915C33.3139 25.0175 33.2385 24.5759 33.0877 24.1665C32.9369 23.7572 32.7045 23.4264 32.3906 23.174C32.0767 22.9216 31.6766 22.7955 31.1903 22.7955C30.7041 22.7955 30.304 22.9216 29.9901 23.174C29.6761 23.4264 29.4438 23.7572 29.293 24.1665C29.1422 24.5759 29.0668 25.0175 29.0668 25.4915C29.0668 25.9654 29.1422 26.4055 29.293 26.8118C29.4438 27.218 29.6761 27.5458 29.9901 27.7951C30.304 28.0444 30.7041 28.169 31.1903 28.169ZM36.0665 29V21.9091H37.1191V22.9801H37.1929C37.3222 22.6293 37.5561 22.3446 37.8946 22.1261C38.2332 21.9076 38.6148 21.7983 39.0395 21.7983C39.1195 21.7983 39.2195 21.7998 39.3396 21.8029C39.4596 21.806 39.5504 21.8106 39.6119 21.8168V22.9247C39.575 22.9155 39.4904 22.9016 39.358 22.8832C39.2288 22.8616 39.0918 22.8509 38.9472 22.8509C38.6025 22.8509 38.2947 22.9232 38.0239 23.0678C37.7561 23.2094 37.5438 23.4064 37.3868 23.6587C37.2329 23.908 37.156 24.1927 37.156 24.5128V29H36.0665ZM43.6606 29.1477C42.9774 29.1477 42.388 28.9969 41.8925 28.6953C41.4001 28.3906 41.02 27.9659 40.7522 27.4212C40.4875 26.8733 40.3552 26.2363 40.3552 25.5099C40.3552 24.7836 40.4875 24.1435 40.7522 23.5895C41.02 23.0324 41.3924 22.5985 41.8694 22.2876C42.3495 21.9737 42.9097 21.8168 43.5498 21.8168C43.9191 21.8168 44.2838 21.8783 44.6439 22.0014C45.004 22.1245 45.3318 22.3246 45.6272 22.6016C45.9227 22.8755 46.1581 23.2386 46.3335 23.6911C46.509 24.1435 46.5967 24.7005 46.5967 25.3622V25.8239H41.1308V24.8821H45.4887C45.4887 24.482 45.4087 24.125 45.2487 23.8111C45.0917 23.4972 44.867 23.2494 44.5747 23.0678C44.2854 22.8862 43.9437 22.7955 43.5498 22.7955C43.1159 22.7955 42.7404 22.9032 42.4234 23.1186C42.1095 23.331 41.8679 23.608 41.6986 23.9496C41.5293 24.2912 41.4447 24.6574 41.4447 25.0483V25.6761C41.4447 26.2116 41.537 26.6656 41.7217 27.038C41.9094 27.4073 42.1695 27.6889 42.5019 27.8828C42.8343 28.0736 43.2205 28.169 43.6606 28.169C43.9468 28.169 44.2053 28.129 44.4362 28.049C44.6701 27.9659 44.8717 27.8428 45.0409 27.6797C45.2102 27.5135 45.341 27.3073 45.4333 27.0611L46.4859 27.3565C46.3751 27.7135 46.1889 28.0275 45.9273 28.2983C45.6657 28.5661 45.3425 28.7753 44.9578 28.9261C44.5731 29.0739 44.1407 29.1477 43.6606 29.1477ZM48.254 29V21.9091H49.3066V23.017H49.3989C49.5466 22.6385 49.7851 22.3446 50.1144 22.1353C50.4437 21.9229 50.8392 21.8168 51.3009 21.8168C51.7687 21.8168 52.158 21.9229 52.4688 22.1353C52.7828 22.3446 53.0274 22.6385 53.2029 23.017H53.2767C53.4583 22.6508 53.7307 22.36 54.0938 22.1445C54.457 21.926 54.8925 21.8168 55.4003 21.8168C56.0343 21.8168 56.5529 22.0153 56.9561 22.4123C57.3592 22.8062 57.5608 23.4202 57.5608 24.2543V29H56.4713V24.2543C56.4713 23.7311 56.3282 23.3571 56.042 23.1325C55.7558 22.9078 55.4188 22.7955 55.031 22.7955C54.5324 22.7955 54.1462 22.9463 53.8722 23.2479C53.5983 23.5464 53.4614 23.925 53.4614 24.3835V29H52.3534V24.1435C52.3534 23.7403 52.2226 23.4156 51.961 23.1694C51.6994 22.9201 51.3624 22.7955 50.95 22.7955C50.6669 22.7955 50.4022 22.8709 50.156 23.0217C49.9128 23.1725 49.7159 23.3817 49.5651 23.6495C49.4173 23.9142 49.3435 24.2204 49.3435 24.5682V29H48.254ZM63.2091 29V21.9091H64.2986V29H63.2091ZM63.7631 20.7273C63.5507 20.7273 63.3676 20.6549 63.2137 20.5103C63.0629 20.3656 62.9875 20.1918 62.9875 19.9886C62.9875 19.7855 63.0629 19.6116 63.2137 19.467C63.3676 19.3223 63.5507 19.25 63.7631 19.25C63.9754 19.25 64.157 19.3223 64.3078 19.467C64.4617 19.6116 64.5386 19.7855 64.5386 19.9886C64.5386 20.1918 64.4617 20.3656 64.3078 20.5103C64.157 20.6549 63.9754 20.7273 63.7631 20.7273ZM66.294 31.6591V21.9091H67.3466V23.0355H67.4759C67.5559 22.9124 67.6667 22.7554 67.8082 22.5646C67.9529 22.3707 68.1591 22.1984 68.4268 22.0476C68.6977 21.8937 69.0639 21.8168 69.5256 21.8168C70.1226 21.8168 70.6489 21.966 71.1044 22.2646C71.5599 22.5631 71.9154 22.9863 72.1708 23.5341C72.4263 24.0819 72.554 24.7282 72.554 25.473C72.554 26.224 72.4263 26.8749 72.1708 27.4258C71.9154 27.9736 71.5614 28.3983 71.109 28.6999C70.6566 28.9985 70.1349 29.1477 69.544 29.1477C69.0885 29.1477 68.7238 29.0723 68.4499 28.9215C68.176 28.7676 67.9652 28.5937 67.8175 28.3999C67.6697 28.2029 67.5559 28.0398 67.4759 27.9105H67.3835V31.6591H66.294ZM67.3651 25.4545C67.3651 25.9901 67.4435 26.4625 67.6005 26.8718C67.7575 27.2781 67.9867 27.5966 68.2884 27.8274C68.59 28.0552 68.9593 28.169 69.3963 28.169C69.8518 28.169 70.2319 28.049 70.5366 27.8089C70.8443 27.5658 71.0752 27.2396 71.229 26.8303C71.386 26.4179 71.4645 25.9593 71.4645 25.4545C71.4645 24.956 71.3875 24.5066 71.2337 24.1065C71.0829 23.7034 70.8536 23.3848 70.5458 23.1509C70.2411 22.9139 69.858 22.7955 69.3963 22.7955C68.9531 22.7955 68.5807 22.9078 68.2791 23.1325C67.9775 23.354 67.7498 23.6649 67.5959 24.065C67.442 24.462 67.3651 24.9252 67.3651 25.4545ZM79.2386 23.4972L78.2599 23.7741C78.1984 23.611 78.1076 23.4525 77.9876 23.2987C77.8706 23.1417 77.7106 23.0124 77.5075 22.9109C77.3043 22.8093 77.0443 22.7585 76.7273 22.7585C76.2933 22.7585 75.9317 22.8585 75.6424 23.0586C75.3562 23.2556 75.2131 23.5064 75.2131 23.8111C75.2131 24.0819 75.3116 24.2958 75.5085 24.4528C75.7055 24.6097 76.0133 24.7405 76.4318 24.8452L77.4844 25.1037C78.1184 25.2576 78.5908 25.493 78.9016 25.81C79.2125 26.1239 79.3679 26.5286 79.3679 27.0241C79.3679 27.4304 79.2509 27.7936 79.017 28.1136C78.7862 28.4337 78.4631 28.6861 78.0476 28.8707C77.6321 29.0554 77.1489 29.1477 76.598 29.1477C75.8748 29.1477 75.2762 28.9908 74.8022 28.6768C74.3282 28.3629 74.0282 27.9044 73.902 27.3011L74.9361 27.0426C75.0346 27.4242 75.2208 27.7105 75.4947 27.9013C75.7717 28.0921 76.1333 28.1875 76.5795 28.1875C77.0874 28.1875 77.4905 28.0798 77.7891 27.8643C78.0907 27.6458 78.2415 27.3842 78.2415 27.0795C78.2415 26.8333 78.1553 26.6271 77.983 26.4609C77.8106 26.2917 77.5459 26.1655 77.1889 26.0824L76.0071 25.8054C75.3577 25.6515 74.8807 25.413 74.576 25.0898C74.2744 24.7636 74.1236 24.3558 74.1236 23.8665C74.1236 23.4664 74.2359 23.1125 74.4606 22.8047C74.6883 22.4969 74.9976 22.2553 75.3885 22.0799C75.7824 21.9045 76.2287 21.8168 76.7273 21.8168C77.429 21.8168 77.9799 21.9706 78.38 22.2784C78.7831 22.5862 79.0694 22.9924 79.2386 23.4972ZM85.4767 26.1009V21.9091H86.5661V29H85.4767V27.7997H85.4028C85.2366 28.1598 84.9781 28.466 84.6272 28.7184C84.2764 28.9677 83.8332 29.0923 83.2977 29.0923C82.8545 29.0923 82.4606 28.9954 82.1159 28.8015C81.7712 28.6045 81.5003 28.3091 81.3034 27.9151C81.1064 27.5181 81.0079 27.018 81.0079 26.4148V21.9091H82.0974V26.3409C82.0974 26.858 82.242 27.2704 82.5313 27.5781C82.8237 27.8859 83.1961 28.0398 83.6485 28.0398C83.9194 28.0398 84.1948 27.9705 84.4749 27.832C84.758 27.6935 84.995 27.4812 85.1858 27.195C85.3797 26.9087 85.4767 26.544 85.4767 26.1009ZM88.5616 29V21.9091H89.6142V23.017H89.7065C89.8542 22.6385 90.0927 22.3446 90.4221 22.1353C90.7514 21.9229 91.1468 21.8168 91.6085 21.8168C92.0763 21.8168 92.4656 21.9229 92.7765 22.1353C93.0904 22.3446 93.335 22.6385 93.5105 23.017H93.5843C93.7659 22.6508 94.0383 22.36 94.4015 22.1445C94.7646 21.926 95.2001 21.8168 95.7079 21.8168C96.3419 21.8168 96.8605 22.0153 97.2637 22.4123C97.6668 22.8062 97.8684 23.4202 97.8684 24.2543V29H96.7789V24.2543C96.7789 23.7311 96.6358 23.3571 96.3496 23.1325C96.0634 22.9078 95.7264 22.7955 95.3386 22.7955C94.84 22.7955 94.4538 22.9463 94.1799 23.2479C93.906 23.5464 93.769 23.925 93.769 24.3835V29H92.661V24.1435C92.661 23.7403 92.5302 23.4156 92.2686 23.1694C92.007 22.9201 91.67 22.7955 91.2576 22.7955C90.9745 22.7955 90.7098 22.8709 90.4636 23.0217C90.2205 23.1725 90.0235 23.3817 89.8727 23.6495C89.725 23.9142 89.6511 24.2204 89.6511 24.5682V29H88.5616ZM106.194 29.1477C105.603 29.1477 105.082 28.9985 104.629 28.6999C104.177 28.3983 103.823 27.9736 103.567 27.4258C103.312 26.8749 103.184 26.224 103.184 25.473C103.184 24.7282 103.312 24.0819 103.567 23.5341C103.823 22.9863 104.178 22.5631 104.634 22.2646C105.089 21.966 105.616 21.8168 106.213 21.8168C106.674 21.8168 107.039 21.8937 107.307 22.0476C107.578 22.1984 107.784 22.3707 107.925 22.5646C108.07 22.7554 108.182 22.9124 108.262 23.0355H108.355V19.5455H109.444V29H108.392V27.9105H108.262C108.182 28.0398 108.069 28.2029 107.921 28.3999C107.773 28.5937 107.562 28.7676 107.288 28.9215C107.014 29.0723 106.65 29.1477 106.194 29.1477ZM106.342 28.169C106.779 28.169 107.148 28.0552 107.45 27.8274C107.752 27.5966 107.981 27.2781 108.138 26.8718C108.295 26.4625 108.373 25.9901 108.373 25.4545C108.373 24.9252 108.296 24.462 108.142 24.065C107.989 23.6649 107.761 23.354 107.459 23.1325C107.158 22.9078 106.785 22.7955 106.342 22.7955C105.88 22.7955 105.496 22.9139 105.188 23.1509C104.883 23.3848 104.654 23.7034 104.5 24.1065C104.349 24.5066 104.274 24.956 104.274 25.4545C104.274 25.9593 104.351 26.4179 104.505 26.8303C104.662 27.2396 104.892 27.5658 105.197 27.8089C105.505 28.049 105.886 28.169 106.342 28.169ZM114.472 29.1477C113.831 29.1477 113.27 28.9954 112.787 28.6907C112.306 28.386 111.931 27.9598 111.66 27.4119C111.392 26.8641 111.259 26.224 111.259 25.4915C111.259 24.7528 111.392 24.1081 111.66 23.5572C111.931 23.0063 112.306 22.5785 112.787 22.2738C113.27 21.9691 113.831 21.8168 114.472 21.8168C115.112 21.8168 115.672 21.9691 116.152 22.2738C116.635 22.5785 117.011 23.0063 117.278 23.5572C117.549 24.1081 117.685 24.7528 117.685 25.4915C117.685 26.224 117.549 26.8641 117.278 27.4119C117.011 27.9598 116.635 28.386 116.152 28.6907C115.672 28.9954 115.112 29.1477 114.472 29.1477ZM114.472 28.169C114.958 28.169 115.358 28.0444 115.672 27.7951C115.986 27.5458 116.218 27.218 116.369 26.8118C116.52 26.4055 116.595 25.9654 116.595 25.4915C116.595 25.0175 116.52 24.5759 116.369 24.1665C116.218 23.7572 115.986 23.4264 115.672 23.174C115.358 22.9216 114.958 22.7955 114.472 22.7955C113.985 22.7955 113.585 22.9216 113.271 23.174C112.957 23.4264 112.725 23.7572 112.574 24.1665C112.423 24.5759 112.348 25.0175 112.348 25.4915C112.348 25.9654 112.423 26.4055 112.574 26.8118C112.725 27.218 112.957 27.5458 113.271 27.7951C113.585 28.0444 113.985 28.169 114.472 28.169ZM120.437 19.5455V29H119.348V19.5455H120.437ZM125.313 29.1477C124.673 29.1477 124.112 28.9954 123.628 28.6907C123.148 28.386 122.773 27.9598 122.502 27.4119C122.234 26.8641 122.1 26.224 122.1 25.4915C122.1 24.7528 122.234 24.1081 122.502 23.5572C122.773 23.0063 123.148 22.5785 123.628 22.2738C124.112 21.9691 124.673 21.8168 125.313 21.8168C125.954 21.8168 126.514 21.9691 126.994 22.2738C127.477 22.5785 127.852 23.0063 128.12 23.5572C128.391 24.1081 128.526 24.7528 128.526 25.4915C128.526 26.224 128.391 26.8641 128.12 27.4119C127.852 27.9598 127.477 28.386 126.994 28.6907C126.514 28.9954 125.954 29.1477 125.313 29.1477ZM125.313 28.169C125.8 28.169 126.2 28.0444 126.514 27.7951C126.828 27.5458 127.06 27.218 127.211 26.8118C127.362 26.4055 127.437 25.9654 127.437 25.4915C127.437 25.0175 127.362 24.5759 127.211 24.1665C127.06 23.7572 126.828 23.4264 126.514 23.174C126.2 22.9216 125.8 22.7955 125.313 22.7955C124.827 22.7955 124.427 22.9216 124.113 23.174C123.799 23.4264 123.567 23.7572 123.416 24.1665C123.265 24.5759 123.19 25.0175 123.19 25.4915C123.19 25.9654 123.265 26.4055 123.416 26.8118C123.567 27.218 123.799 27.5458 124.113 27.7951C124.427 28.0444 124.827 28.169 125.313 28.169ZM130.19 29V21.9091H131.242V22.9801H131.316C131.445 22.6293 131.679 22.3446 132.018 22.1261C132.356 21.9076 132.738 21.7983 133.163 21.7983C133.243 21.7983 133.343 21.7998 133.463 21.8029C133.583 21.806 133.673 21.8106 133.735 21.8168V22.9247C133.698 22.9155 133.613 22.9016 133.481 22.8832C133.352 22.8616 133.215 22.8509 133.07 22.8509C132.726 22.8509 132.418 22.9232 132.147 23.0678C131.879 23.2094 131.667 23.4064 131.51 23.6587C131.356 23.908 131.279 24.1927 131.279 24.5128V29H130.19ZM143.705 23.4972L142.727 23.7741C142.665 23.611 142.574 23.4525 142.454 23.2987C142.337 23.1417 142.177 23.0124 141.974 22.9109C141.771 22.8093 141.511 22.7585 141.194 22.7585C140.76 22.7585 140.398 22.8585 140.109 23.0586C139.823 23.2556 139.68 23.5064 139.68 23.8111C139.68 24.0819 139.778 24.2958 139.975 24.4528C140.172 24.6097 140.48 24.7405 140.899 24.8452L141.951 25.1037C142.585 25.2576 143.058 25.493 143.368 25.81C143.679 26.1239 143.835 26.5286 143.835 27.0241C143.835 27.4304 143.718 27.7936 143.484 28.1136C143.253 28.4337 142.93 28.6861 142.514 28.8707C142.099 29.0554 141.616 29.1477 141.065 29.1477C140.342 29.1477 139.743 28.9908 139.269 28.6768C138.795 28.3629 138.495 27.9044 138.369 27.3011L139.403 27.0426C139.501 27.4242 139.688 27.7105 139.961 27.9013C140.238 28.0921 140.6 28.1875 141.046 28.1875C141.554 28.1875 141.957 28.0798 142.256 27.8643C142.557 27.6458 142.708 27.3842 142.708 27.0795C142.708 26.8333 142.622 26.6271 142.45 26.4609C142.277 26.2917 142.013 26.1655 141.656 26.0824L140.474 25.8054C139.825 25.6515 139.347 25.413 139.043 25.0898C138.741 24.7636 138.59 24.3558 138.59 23.8665C138.59 23.4664 138.703 23.1125 138.927 22.8047C139.155 22.4969 139.464 22.2553 139.855 22.0799C140.249 21.9045 140.695 21.8168 141.194 21.8168C141.896 21.8168 142.447 21.9706 142.847 22.2784C143.25 22.5862 143.536 22.9924 143.705 23.4972ZM145.475 29V21.9091H146.564V29H145.475ZM146.029 20.7273C145.816 20.7273 145.633 20.6549 145.479 20.5103C145.329 20.3656 145.253 20.1918 145.253 19.9886C145.253 19.7855 145.329 19.6116 145.479 19.467C145.633 19.3223 145.816 19.25 146.029 19.25C146.241 19.25 146.423 19.3223 146.573 19.467C146.727 19.6116 146.804 19.7855 146.804 19.9886C146.804 20.1918 146.727 20.3656 146.573 20.5103C146.423 20.6549 146.241 20.7273 146.029 20.7273ZM151.643 21.9091V22.8324H147.969V21.9091H151.643ZM149.04 20.2102H150.129V26.9688C150.129 27.2765 150.174 27.5073 150.263 27.6612C150.355 27.812 150.472 27.9136 150.614 27.9659C150.759 28.0152 150.911 28.0398 151.071 28.0398C151.191 28.0398 151.29 28.0336 151.366 28.0213C151.443 28.0059 151.505 27.9936 151.551 27.9844L151.773 28.9631C151.699 28.9908 151.596 29.0185 151.463 29.0462C151.331 29.0769 151.163 29.0923 150.96 29.0923C150.652 29.0923 150.351 29.0262 150.055 28.8938C149.763 28.7615 149.52 28.5599 149.326 28.2891C149.135 28.0182 149.04 27.6766 149.04 27.2642V20.2102ZM159.025 29.1662C158.576 29.1662 158.168 29.0816 157.802 28.9123C157.436 28.7399 157.145 28.4922 156.929 28.169C156.714 27.8428 156.606 27.4489 156.606 26.9872C156.606 26.581 156.686 26.2517 156.846 25.9993C157.006 25.7438 157.22 25.5438 157.488 25.3991C157.756 25.2545 158.051 25.1468 158.374 25.076C158.701 25.0021 159.028 24.9437 159.358 24.9006C159.788 24.8452 160.138 24.8036 160.406 24.7759C160.676 24.7451 160.873 24.6944 160.996 24.6236C161.123 24.5528 161.186 24.4297 161.186 24.2543V24.2173C161.186 23.7618 161.061 23.4079 160.812 23.1555C160.566 22.9032 160.192 22.777 159.69 22.777C159.17 22.777 158.762 22.8909 158.467 23.1186C158.171 23.3464 157.963 23.5895 157.843 23.848L156.809 23.4787C156.994 23.0478 157.24 22.7124 157.548 22.4723C157.859 22.2292 158.197 22.0599 158.564 21.9645C158.933 21.866 159.296 21.8168 159.653 21.8168C159.881 21.8168 160.142 21.8445 160.438 21.8999C160.736 21.9522 161.024 22.0614 161.301 22.2276C161.581 22.3938 161.814 22.6446 161.998 22.9801C162.183 23.3156 162.275 23.7649 162.275 24.3281V29H161.186V28.0398H161.13C161.056 28.1937 160.933 28.3583 160.761 28.5337C160.589 28.7092 160.359 28.8584 160.073 28.9815C159.787 29.1046 159.438 29.1662 159.025 29.1662ZM159.191 28.1875C159.622 28.1875 159.985 28.1029 160.281 27.9336C160.579 27.7643 160.804 27.5458 160.955 27.2781C161.109 27.0103 161.186 26.7287 161.186 26.4332V25.4361C161.14 25.4915 161.038 25.5423 160.881 25.5884C160.727 25.6315 160.549 25.67 160.346 25.7038C160.145 25.7346 159.95 25.7623 159.759 25.7869C159.571 25.8085 159.419 25.8269 159.302 25.8423C159.019 25.8793 158.754 25.9393 158.508 26.0224C158.265 26.1024 158.068 26.224 157.917 26.3871C157.77 26.5471 157.696 26.7656 157.696 27.0426C157.696 27.4212 157.836 27.7074 158.116 27.9013C158.399 28.0921 158.757 28.1875 159.191 28.1875ZM164.264 29V21.9091H165.316V23.017H165.409C165.556 22.6385 165.795 22.3446 166.124 22.1353C166.454 21.9229 166.849 21.8168 167.311 21.8168C167.778 21.8168 168.168 21.9229 168.479 22.1353C168.793 22.3446 169.037 22.6385 169.213 23.017H169.286C169.468 22.6508 169.74 22.36 170.104 22.1445C170.467 21.926 170.902 21.8168 171.41 21.8168C172.044 21.8168 172.563 22.0153 172.966 22.4123C173.369 22.8062 173.571 23.4202 173.571 24.2543V29H172.481V24.2543C172.481 23.7311 172.338 23.3571 172.052 23.1325C171.766 22.9078 171.429 22.7955 171.041 22.7955C170.542 22.7955 170.156 22.9463 169.882 23.2479C169.608 23.5464 169.471 23.925 169.471 24.3835V29H168.363V24.1435C168.363 23.7403 168.232 23.4156 167.971 23.1694C167.709 22.9201 167.372 22.7955 166.96 22.7955C166.677 22.7955 166.412 22.8709 166.166 23.0217C165.923 23.1725 165.726 23.3817 165.575 23.6495C165.427 23.9142 165.353 24.2204 165.353 24.5682V29H164.264ZM178.536 29.1477C177.852 29.1477 177.263 28.9969 176.767 28.6953C176.275 28.3906 175.895 27.9659 175.627 27.4212C175.363 26.8733 175.23 26.2363 175.23 25.5099C175.23 24.7836 175.363 24.1435 175.627 23.5895C175.895 23.0324 176.267 22.5985 176.744 22.2876C177.225 21.9737 177.785 21.8168 178.425 21.8168C178.794 21.8168 179.159 21.8783 179.519 22.0014C179.879 22.1245 180.207 22.3246 180.502 22.6016C180.798 22.8755 181.033 23.2386 181.209 23.6911C181.384 24.1435 181.472 24.7005 181.472 25.3622V25.8239H176.006V24.8821H180.364C180.364 24.482 180.284 24.125 180.124 23.8111C179.967 23.4972 179.742 23.2494 179.45 23.0678C179.16 22.8862 178.819 22.7955 178.425 22.7955C177.991 22.7955 177.615 22.9032 177.298 23.1186C176.984 23.331 176.743 23.608 176.574 23.9496C176.404 24.2912 176.32 24.6574 176.32 25.0483V25.6761C176.32 26.2116 176.412 26.6656 176.597 27.038C176.784 27.4073 177.044 27.6889 177.377 27.8828C177.709 28.0736 178.095 28.169 178.536 28.169C178.822 28.169 179.08 28.129 179.311 28.049C179.545 27.9659 179.747 27.8428 179.916 27.6797C180.085 27.5135 180.216 27.3073 180.308 27.0611L181.361 27.3565C181.25 27.7135 181.064 28.0275 180.802 28.2983C180.541 28.5661 180.218 28.7753 179.833 28.9261C179.448 29.0739 179.016 29.1477 178.536 29.1477ZM186.213 21.9091V22.8324H182.538V21.9091H186.213ZM183.609 20.2102H184.699V26.9688C184.699 27.2765 184.743 27.5073 184.832 27.6612C184.925 27.812 185.042 27.9136 185.183 27.9659C185.328 28.0152 185.48 28.0398 185.64 28.0398C185.76 28.0398 185.859 28.0336 185.936 28.0213C186.013 28.0059 186.074 27.9936 186.12 27.9844L186.342 28.9631C186.268 28.9908 186.165 29.0185 186.033 29.0462C185.9 29.0769 185.733 29.0923 185.53 29.0923C185.222 29.0923 184.92 29.0262 184.625 28.8938C184.332 28.7615 184.089 28.5599 183.895 28.2891C183.705 28.0182 183.609 27.6766 183.609 27.2642V20.2102Z" fill="white"/>
</g>
<defs>
<filter id="filter0_d_8003_3030" x="0" y="0" width="207" height="52" filterUnits="userSpaceOnUse" color-interpolation-filters="sRGB">
<feFlood flood-opacity="0" result="BackgroundImageFix"/>
<feColorMatrix in="SourceAlpha" type="matrix" values="0 0 0 0 0 0 0 0 0 0 0 0 0 0 0 0 0 0 127 0" result="hardAlpha"/>
<feOffset dy="2"/>
<feGaussianBlur stdDeviation="2"/>
<feColorMatrix type="matrix" values="0 0 0 0 0.180392 0 0 0 0 0.14902 0 0 0 0 0.239216 0 0 0 0.16 0"/>
<feBlend mode="normal" in2="BackgroundImageFix" result="effect1_dropShadow_8003_3030"/>
<feBlend mode="normal" in="SourceGraphic" in2="effect1_dropShadow_8003_3030" result="shape"/>
</filter>
</defs>
</svg>
