<svg width="87" height="38" viewBox="0 0 87 38" fill="none" xmlns="http://www.w3.org/2000/svg">
<g filter="url(#filter0_i_8003_3085)">
<path d="M9 19C9 14.0294 13.0294 10 18 10H30C34.9706 10 39 14.0294 39 19V19C39 23.9706 34.9706 28 30 28H18C13.0294 28 9 23.9706 9 19V19Z" fill="#2E263D" fill-opacity="0.1"/>
</g>
<g filter="url(#filter1_d_8003_3085)">
<circle cx="18" cy="19" r="7" fill="white"/>
</g>
<path d="M49.321 24V13.0909H50.642V22.8281H55.7131V24H49.321ZM59.9957 24.1918C59.4773 24.1918 59.0067 24.0941 58.5842 23.8988C58.1616 23.6999 57.826 23.4141 57.5774 23.0412C57.3288 22.6648 57.2045 22.2102 57.2045 21.6776C57.2045 21.2088 57.2969 20.8288 57.4815 20.5376C57.6662 20.2429 57.913 20.0121 58.2219 19.8452C58.5309 19.6783 58.8718 19.554 59.2447 19.4723C59.6211 19.3871 59.9993 19.3196 60.3793 19.2699C60.8764 19.206 61.2795 19.158 61.5884 19.1261C61.9009 19.0906 62.1282 19.032 62.2702 18.9503C62.4158 18.8686 62.4886 18.7266 62.4886 18.5241V18.4815C62.4886 17.956 62.3448 17.5476 62.0572 17.2564C61.7731 16.9652 61.3416 16.8196 60.7628 16.8196C60.1626 16.8196 59.6921 16.951 59.3512 17.2138C59.0103 17.4766 58.7706 17.7571 58.6321 18.0554L57.4389 17.6293C57.652 17.1321 57.9361 16.745 58.2912 16.468C58.6499 16.1875 59.0405 15.9922 59.4631 15.8821C59.8892 15.7685 60.3082 15.7116 60.7202 15.7116C60.983 15.7116 61.2848 15.7436 61.6257 15.8075C61.9702 15.8679 62.3022 15.994 62.6218 16.1857C62.945 16.3775 63.2131 16.6669 63.4261 17.054C63.6392 17.4411 63.7457 17.9595 63.7457 18.6094V24H62.4886V22.892H62.4247C62.3395 23.0696 62.1974 23.2596 61.9986 23.462C61.7997 23.6644 61.5352 23.8366 61.2049 23.9787C60.8746 24.1207 60.4716 24.1918 59.9957 24.1918ZM60.1875 23.0625C60.6847 23.0625 61.1037 22.9648 61.4446 22.7695C61.7891 22.5742 62.0483 22.3221 62.2223 22.0131C62.3999 21.7042 62.4886 21.3793 62.4886 21.0384V19.8878C62.4354 19.9517 62.3182 20.0103 62.1371 20.0636C61.9595 20.1133 61.7536 20.1577 61.5192 20.1967C61.2884 20.2322 61.0629 20.2642 60.8427 20.2926C60.6261 20.3175 60.4503 20.3388 60.3153 20.3565C59.9886 20.3991 59.6832 20.4684 59.3991 20.5643C59.1186 20.6566 58.8913 20.7969 58.7173 20.9851C58.5469 21.1697 58.4616 21.4219 58.4616 21.7415C58.4616 22.1783 58.6232 22.5085 58.9464 22.7322C59.2731 22.9524 59.6868 23.0625 60.1875 23.0625ZM66.2107 24V13.0909H67.4678V17.1179H67.5743C67.6666 16.9759 67.7945 16.7947 67.9578 16.5746C68.1247 16.3509 68.3627 16.152 68.6716 15.978C68.9841 15.8004 69.4067 15.7116 69.9394 15.7116C70.6283 15.7116 71.2355 15.8839 71.7611 16.2283C72.2867 16.5728 72.6968 17.0611 72.9916 17.6932C73.2863 18.3253 73.4337 19.071 73.4337 19.9304C73.4337 20.7969 73.2863 21.5479 72.9916 22.1836C72.6968 22.8157 72.2884 23.3058 71.7664 23.6538C71.2444 23.9982 70.6425 24.1705 69.9607 24.1705C69.4351 24.1705 69.0143 24.0835 68.6982 23.9094C68.3822 23.7319 68.1389 23.5312 67.9685 23.3075C67.798 23.0803 67.6666 22.892 67.5743 22.7429H67.4252V24H66.2107ZM67.4465 19.9091C67.4465 20.527 67.537 21.0721 67.7181 21.5444C67.8992 22.0131 68.1638 22.3807 68.5118 22.647C68.8598 22.9098 69.286 23.0412 69.7902 23.0412C70.3158 23.0412 70.7544 22.9027 71.1059 22.6257C71.461 22.3452 71.7274 21.9687 71.9049 21.4964C72.086 21.0206 72.1766 20.4915 72.1766 19.9091C72.1766 19.3338 72.0878 18.8153 71.9102 18.3537C71.7362 17.8885 71.4717 17.521 71.1166 17.2511C70.765 16.9776 70.3229 16.8409 69.7902 16.8409C69.2789 16.8409 68.8492 16.9705 68.5012 17.2298C68.1531 17.4854 67.8904 17.8441 67.7128 18.3058C67.5352 18.7638 67.4465 19.2983 67.4465 19.9091ZM78.787 24.1705C77.9987 24.1705 77.3186 23.9964 76.7469 23.6484C76.1787 23.2969 75.7401 22.8068 75.4312 22.1783C75.1258 21.5462 74.9731 20.8111 74.9731 19.973C74.9731 19.1349 75.1258 18.3963 75.4312 17.7571C75.7401 17.1143 76.1698 16.6136 76.7203 16.255C77.2742 15.8928 77.9205 15.7116 78.6592 15.7116C79.0853 15.7116 79.5061 15.7827 79.9216 15.9247C80.3371 16.0668 80.7153 16.2976 81.0562 16.6172C81.3971 16.9332 81.6688 17.3523 81.8712 17.8743C82.0736 18.3963 82.1748 19.0391 82.1748 19.8026V20.3352H75.868V19.2486H80.8964C80.8964 18.7869 80.8041 18.375 80.6194 18.0128C80.4383 17.6506 80.1791 17.3647 79.8417 17.1552C79.5079 16.9457 79.1137 16.8409 78.6592 16.8409C78.1585 16.8409 77.7252 16.9652 77.3595 17.2138C76.9972 17.4588 76.7185 17.7784 76.5232 18.1726C76.3279 18.5668 76.2302 18.9893 76.2302 19.4403V20.1648C76.2302 20.7827 76.3367 21.3065 76.5498 21.7362C76.7664 22.1623 77.0665 22.4872 77.45 22.7109C77.8335 22.9311 78.2792 23.0412 78.787 23.0412C79.1173 23.0412 79.4156 22.995 79.6819 22.9027C79.9518 22.8068 80.1844 22.6648 80.3797 22.4766C80.575 22.2848 80.7259 22.0469 80.8325 21.7628L82.047 22.1037C81.9191 22.5156 81.7043 22.8778 81.4024 23.1903C81.1006 23.4993 80.7277 23.7408 80.2838 23.9148C79.8399 24.0852 79.341 24.1705 78.787 24.1705ZM85.3442 13.0909V24H84.0871V13.0909H85.3442Z" fill="#2E263D" fill-opacity="0.9"/>
<defs>
<filter id="filter0_i_8003_3085" x="9" y="10" width="30" height="18" filterUnits="userSpaceOnUse" color-interpolation-filters="sRGB">
<feFlood flood-opacity="0" result="BackgroundImageFix"/>
<feBlend mode="normal" in="SourceGraphic" in2="BackgroundImageFix" result="shape"/>
<feColorMatrix in="SourceAlpha" type="matrix" values="0 0 0 0 0 0 0 0 0 0 0 0 0 0 0 0 0 0 127 0" result="hardAlpha"/>
<feOffset/>
<feGaussianBlur stdDeviation="2"/>
<feComposite in2="hardAlpha" operator="arithmetic" k2="-1" k3="1"/>
<feColorMatrix type="matrix" values="0 0 0 0 0 0 0 0 0 0 0 0 0 0 0 0 0 0 0.16 0"/>
<feBlend mode="normal" in2="shape" result="effect1_innerShadow_8003_3085"/>
</filter>
<filter id="filter1_d_8003_3085" x="7" y="10" width="22" height="22" filterUnits="userSpaceOnUse" color-interpolation-filters="sRGB">
<feFlood flood-opacity="0" result="BackgroundImageFix"/>
<feColorMatrix in="SourceAlpha" type="matrix" values="0 0 0 0 0 0 0 0 0 0 0 0 0 0 0 0 0 0 127 0" result="hardAlpha"/>
<feOffset dy="2"/>
<feGaussianBlur stdDeviation="2"/>
<feColorMatrix type="matrix" values="0 0 0 0 0.180392 0 0 0 0 0.14902 0 0 0 0 0.239216 0 0 0 0.16 0"/>
<feBlend mode="normal" in2="BackgroundImageFix" result="effect1_dropShadow_8003_3085"/>
<feBlend mode="normal" in="SourceGraphic" in2="effect1_dropShadow_8003_3085" result="shape"/>
</filter>
</defs>
</svg>
