<svg width="246" height="42" viewBox="0 0 246 42" fill="none" xmlns="http://www.w3.org/2000/svg">
<g clip-path="url(#clip0_8003_3946)">
<g clip-path="url(#clip1_8003_3946)">
<path d="M19.3583 27V14.6364H21.2237V25.3942H26.826V27H19.3583ZM31.5076 27.2053C30.92 27.2053 30.3888 27.0966 29.9139 26.8793C29.439 26.6579 29.0627 26.3379 28.785 25.9194C28.5113 25.5008 28.3745 24.9877 28.3745 24.38C28.3745 23.8568 28.4751 23.4261 28.6763 23.0881C28.8775 22.75 29.1492 22.4824 29.4913 22.2852C29.8334 22.0879 30.2157 21.939 30.6383 21.8384C31.0609 21.7378 31.4915 21.6613 31.9302 21.609C32.4856 21.5446 32.9364 21.4923 33.2825 21.4521C33.6286 21.4078 33.8801 21.3374 34.0371 21.2408C34.1941 21.1442 34.2725 20.9872 34.2725 20.7699V20.7276C34.2725 20.2004 34.1236 19.7919 33.8258 19.5021C33.532 19.2124 33.0933 19.0675 32.5098 19.0675C31.902 19.0675 31.4231 19.2023 31.073 19.4719C30.7269 19.7376 30.4874 20.0334 30.3546 20.3594L28.6582 19.973C28.8594 19.4096 29.1532 18.9548 29.5396 18.6087C29.93 18.2585 30.3787 18.005 30.8858 17.848C31.3929 17.687 31.9262 17.6065 32.4856 17.6065C32.8559 17.6065 33.2483 17.6508 33.6628 17.7393C34.0814 17.8239 34.4718 17.9808 34.834 18.2102C35.2002 18.4396 35.5001 18.7676 35.7335 19.1942C35.9669 19.6168 36.0836 20.1662 36.0836 20.8423V27H34.3208V25.7322H34.2484C34.1317 25.9657 33.9566 26.1951 33.7232 26.4205C33.4898 26.6458 33.1899 26.833 32.8237 26.9819C32.4574 27.1308 32.0188 27.2053 31.5076 27.2053ZM31.9 25.7564C32.3991 25.7564 32.8257 25.6578 33.1799 25.4606C33.5381 25.2634 33.8097 25.0058 33.9949 24.6879C34.184 24.3659 34.2786 24.0218 34.2786 23.6555V22.4602C34.2142 22.5246 34.0894 22.585 33.9043 22.6413C33.7232 22.6937 33.5159 22.7399 33.2825 22.7802C33.0491 22.8164 32.8217 22.8506 32.6003 22.8828C32.379 22.911 32.1938 22.9351 32.0449 22.9553C31.6948 22.9995 31.3748 23.074 31.085 23.1786C30.7993 23.2833 30.5699 23.4342 30.3968 23.6314C30.2278 23.8246 30.1433 24.0821 30.1433 24.4041C30.1433 24.8509 30.3083 25.1889 30.6383 25.4183C30.9683 25.6437 31.3889 25.7564 31.9 25.7564ZM38.4878 27V17.7273H40.2325V19.2003H40.3291C40.4981 18.7012 40.796 18.3088 41.2226 18.0231C41.6532 17.7333 42.1402 17.5884 42.6835 17.5884C42.7962 17.5884 42.929 17.5924 43.0819 17.6005C43.2389 17.6085 43.3617 17.6186 43.4502 17.6307V19.3572C43.3778 19.3371 43.249 19.315 43.0638 19.2908C42.8787 19.2627 42.6936 19.2486 42.5084 19.2486C42.0818 19.2486 41.7015 19.3391 41.3675 19.5202C41.0374 19.6973 40.7758 19.9448 40.5827 20.2628C40.3895 20.5767 40.2929 20.9349 40.2929 21.3374V27H38.4878ZM48.568 30.6705C47.8315 30.6705 47.1976 30.5739 46.6664 30.3807C46.1391 30.1875 45.7085 29.9319 45.3745 29.614C45.0404 29.296 44.7909 28.9479 44.6259 28.5696L46.1774 27.9297C46.286 28.1068 46.4309 28.2939 46.612 28.4911C46.7972 28.6924 47.0467 28.8634 47.3606 29.0043C47.6786 29.1451 48.0871 29.2156 48.5861 29.2156C49.2703 29.2156 49.8358 29.0485 50.2825 28.7145C50.7292 28.3845 50.9526 27.8572 50.9526 27.1328V25.3097H50.8379C50.7292 25.5069 50.5723 25.7262 50.367 25.9677C50.1658 26.2092 49.8881 26.4184 49.5339 26.5955C49.1797 26.7726 48.7189 26.8612 48.1515 26.8612C47.419 26.8612 46.7589 26.6901 46.1713 26.348C45.5878 26.0019 45.1249 25.4928 44.7828 24.8207C44.4448 24.1445 44.2757 23.3134 44.2757 22.3274C44.2757 21.3414 44.4428 20.4962 44.7768 19.7919C45.1149 19.0876 45.5777 18.5483 46.1653 18.174C46.7529 17.7957 47.419 17.6065 48.1635 17.6065C48.7391 17.6065 49.2039 17.7031 49.5581 17.8963C49.9122 18.0855 50.1879 18.3068 50.3851 18.5604C50.5864 18.8139 50.7413 19.0373 50.85 19.2305H50.9828V17.7273H52.7516V27.2053C52.7516 28.0021 52.5665 28.6561 52.1962 29.1673C51.8259 29.6784 51.3249 30.0567 50.693 30.3022C50.0652 30.5477 49.3568 30.6705 48.568 30.6705ZM48.5499 25.364C49.0691 25.364 49.5078 25.2433 49.8659 25.0018C50.2282 24.7563 50.5018 24.4061 50.687 23.9513C50.8761 23.4925 50.9707 22.9432 50.9707 22.3033C50.9707 21.6795 50.8781 21.1301 50.693 20.6552C50.5079 20.1803 50.2362 19.81 49.878 19.5444C49.5198 19.2747 49.0771 19.1399 48.5499 19.1399C48.0066 19.1399 47.5538 19.2808 47.1916 19.5625C46.8294 19.8402 46.5557 20.2185 46.3706 20.6974C46.1895 21.1764 46.0989 21.7116 46.0989 22.3033C46.0989 22.911 46.1915 23.4442 46.3766 23.9031C46.5617 24.3619 46.8354 24.7201 47.1976 24.9776C47.5639 25.2352 48.0146 25.364 48.5499 25.364ZM59.1689 27.1871C58.2553 27.1871 57.4685 26.992 56.8084 26.6016C56.1524 26.2071 55.6453 25.6538 55.2871 24.9414C54.9329 24.225 54.7559 23.3859 54.7559 22.424C54.7559 21.4742 54.9329 20.6371 55.2871 19.9126C55.6453 19.1882 56.1444 18.6228 56.7843 18.2163C57.4282 17.8098 58.1808 17.6065 59.0421 17.6065C59.5653 17.6065 60.0724 17.6931 60.5634 17.8661C61.0544 18.0392 61.4951 18.3108 61.8855 18.6811C62.2759 19.0514 62.5837 19.5323 62.8091 20.1239C63.0345 20.7115 63.1472 21.4259 63.1472 22.267V22.907H55.7761V21.5547H61.3784C61.3784 21.0798 61.2818 20.6592 61.0886 20.293C60.8954 19.9227 60.6238 19.6309 60.2736 19.4176C59.9275 19.2043 59.521 19.0977 59.0542 19.0977C58.5471 19.0977 58.1043 19.2224 57.726 19.4719C57.3517 19.7174 57.062 20.0394 56.8567 20.4379C56.6555 20.8323 56.5549 21.2609 56.5549 21.7237V22.7802C56.5549 23.4 56.6635 23.9272 56.8809 24.3619C57.1022 24.7965 57.4101 25.1286 57.8045 25.358C58.1989 25.5833 58.6597 25.696 59.187 25.696C59.5291 25.696 59.841 25.6477 60.1227 25.5511C60.4044 25.4505 60.6479 25.3016 60.8532 25.1044C61.0584 24.9072 61.2154 24.6637 61.324 24.3739L63.0325 24.6818C62.8957 25.1849 62.6502 25.6256 62.296 26.0039C61.9458 26.3782 61.5051 26.67 60.9739 26.8793C60.4467 27.0845 59.845 27.1871 59.1689 27.1871Z" fill="#8C57FF"/>
</g>
<line x1="81.5" y1="42" x2="81.5" y2="2.18557e-08" stroke="#8C57FF"/>
<g clip-path="url(#clip2_8003_3946)">
<path d="M101.358 27V14.6364H103.224V25.3942H108.826V27H101.358ZM113.508 27.2053C112.92 27.2053 112.389 27.0966 111.914 26.8793C111.439 26.6579 111.063 26.3379 110.785 25.9194C110.511 25.5008 110.374 24.9877 110.374 24.38C110.374 23.8568 110.475 23.4261 110.676 23.0881C110.878 22.75 111.149 22.4824 111.491 22.2852C111.833 22.0879 112.216 21.939 112.638 21.8384C113.061 21.7378 113.492 21.6613 113.93 21.609C114.486 21.5446 114.936 21.4923 115.282 21.4521C115.629 21.4078 115.88 21.3374 116.037 21.2408C116.194 21.1442 116.273 20.9872 116.273 20.7699V20.7276C116.273 20.2004 116.124 19.7919 115.826 19.5021C115.532 19.2124 115.093 19.0675 114.51 19.0675C113.902 19.0675 113.423 19.2023 113.073 19.4719C112.727 19.7376 112.487 20.0334 112.355 20.3594L110.658 19.973C110.859 19.4096 111.153 18.9548 111.54 18.6087C111.93 18.2585 112.379 18.005 112.886 17.848C113.393 17.687 113.926 17.6065 114.486 17.6065C114.856 17.6065 115.248 17.6508 115.663 17.7393C116.081 17.8239 116.472 17.9808 116.834 18.2102C117.2 18.4396 117.5 18.7676 117.733 19.1942C117.967 19.6168 118.084 20.1662 118.084 20.8423V27H116.321V25.7322H116.248C116.132 25.9657 115.957 26.1951 115.723 26.4205C115.49 26.6458 115.19 26.833 114.824 26.9819C114.457 27.1308 114.019 27.2053 113.508 27.2053ZM113.9 25.7564C114.399 25.7564 114.826 25.6578 115.18 25.4606C115.538 25.2634 115.81 25.0058 115.995 24.6879C116.184 24.3659 116.279 24.0218 116.279 23.6555V22.4602C116.214 22.5246 116.089 22.585 115.904 22.6413C115.723 22.6937 115.516 22.7399 115.282 22.7802C115.049 22.8164 114.822 22.8506 114.6 22.8828C114.379 22.911 114.194 22.9351 114.045 22.9553C113.695 22.9995 113.375 23.074 113.085 23.1786C112.799 23.2833 112.57 23.4342 112.397 23.6314C112.228 23.8246 112.143 24.0821 112.143 24.4041C112.143 24.8509 112.308 25.1889 112.638 25.4183C112.968 25.6437 113.389 25.7564 113.9 25.7564ZM120.488 27V17.7273H122.233V19.2003H122.329C122.498 18.7012 122.796 18.3088 123.223 18.0231C123.653 17.7333 124.14 17.5884 124.684 17.5884C124.796 17.5884 124.929 17.5924 125.082 17.6005C125.239 17.6085 125.362 17.6186 125.45 17.6307V19.3572C125.378 19.3371 125.249 19.315 125.064 19.2908C124.879 19.2627 124.694 19.2486 124.508 19.2486C124.082 19.2486 123.701 19.3391 123.367 19.5202C123.037 19.6973 122.776 19.9448 122.583 20.2628C122.389 20.5767 122.293 20.9349 122.293 21.3374V27H120.488ZM130.568 30.6705C129.831 30.6705 129.198 30.5739 128.666 30.3807C128.139 30.1875 127.709 29.9319 127.374 29.614C127.04 29.296 126.791 28.9479 126.626 28.5696L128.177 27.9297C128.286 28.1068 128.431 28.2939 128.612 28.4911C128.797 28.6924 129.047 28.8634 129.361 29.0043C129.679 29.1451 130.087 29.2156 130.586 29.2156C131.27 29.2156 131.836 29.0485 132.282 28.7145C132.729 28.3845 132.953 27.8572 132.953 27.1328V25.3097H132.838C132.729 25.5069 132.572 25.7262 132.367 25.9677C132.166 26.2092 131.888 26.4184 131.534 26.5955C131.18 26.7726 130.719 26.8612 130.151 26.8612C129.419 26.8612 128.759 26.6901 128.171 26.348C127.588 26.0019 127.125 25.4928 126.783 24.8207C126.445 24.1445 126.276 23.3134 126.276 22.3274C126.276 21.3414 126.443 20.4962 126.777 19.7919C127.115 19.0876 127.578 18.5483 128.165 18.174C128.753 17.7957 129.419 17.6065 130.164 17.6065C130.739 17.6065 131.204 17.7031 131.558 17.8963C131.912 18.0855 132.188 18.3068 132.385 18.5604C132.586 18.8139 132.741 19.0373 132.85 19.2305H132.983V17.7273H134.752V27.2053C134.752 28.0021 134.566 28.6561 134.196 29.1673C133.826 29.6784 133.325 30.0567 132.693 30.3022C132.065 30.5477 131.357 30.6705 130.568 30.6705ZM130.55 25.364C131.069 25.364 131.508 25.2433 131.866 25.0018C132.228 24.7563 132.502 24.4061 132.687 23.9513C132.876 23.4925 132.971 22.9432 132.971 22.3033C132.971 21.6795 132.878 21.1301 132.693 20.6552C132.508 20.1803 132.236 19.81 131.878 19.5444C131.52 19.2747 131.077 19.1399 130.55 19.1399C130.007 19.1399 129.554 19.2808 129.192 19.5625C128.829 19.8402 128.556 20.2185 128.371 20.6974C128.189 21.1764 128.099 21.7116 128.099 22.3033C128.099 22.911 128.191 23.4442 128.377 23.9031C128.562 24.3619 128.835 24.7201 129.198 24.9776C129.564 25.2352 130.015 25.364 130.55 25.364ZM141.169 27.1871C140.255 27.1871 139.468 26.992 138.808 26.6016C138.152 26.2071 137.645 25.6538 137.287 24.9414C136.933 24.225 136.756 23.3859 136.756 22.424C136.756 21.4742 136.933 20.6371 137.287 19.9126C137.645 19.1882 138.144 18.6228 138.784 18.2163C139.428 17.8098 140.181 17.6065 141.042 17.6065C141.565 17.6065 142.072 17.6931 142.563 17.8661C143.054 18.0392 143.495 18.3108 143.885 18.6811C144.276 19.0514 144.584 19.5323 144.809 20.1239C145.035 20.7115 145.147 21.4259 145.147 22.267V22.907H137.776V21.5547H143.378C143.378 21.0798 143.282 20.6592 143.089 20.293C142.895 19.9227 142.624 19.6309 142.274 19.4176C141.927 19.2043 141.521 19.0977 141.054 19.0977C140.547 19.0977 140.104 19.2224 139.726 19.4719C139.352 19.7174 139.062 20.0394 138.857 20.4379C138.655 20.8323 138.555 21.2609 138.555 21.7237V22.7802C138.555 23.4 138.664 23.9272 138.881 24.3619C139.102 24.7965 139.41 25.1286 139.805 25.358C140.199 25.5833 140.66 25.696 141.187 25.696C141.529 25.696 141.841 25.6477 142.123 25.5511C142.404 25.4505 142.648 25.3016 142.853 25.1044C143.058 24.9072 143.215 24.6637 143.324 24.3739L145.032 24.6818C144.896 25.1849 144.65 25.6256 144.296 26.0039C143.946 26.3782 143.505 26.67 142.974 26.8793C142.447 27.0845 141.845 27.1871 141.169 27.1871Z" fill="#8C57FF"/>
</g>
<line x1="163.5" y1="42" x2="163.5" y2="2.18557e-08" stroke="#8C57FF"/>
<g clip-path="url(#clip3_8003_3946)">
<path d="M183.358 27V14.6364H185.224V25.3942H190.826V27H183.358ZM195.508 27.2053C194.92 27.2053 194.389 27.0966 193.914 26.8793C193.439 26.6579 193.063 26.3379 192.785 25.9194C192.511 25.5008 192.374 24.9877 192.374 24.38C192.374 23.8568 192.475 23.4261 192.676 23.0881C192.878 22.75 193.149 22.4824 193.491 22.2852C193.833 22.0879 194.216 21.939 194.638 21.8384C195.061 21.7378 195.492 21.6613 195.93 21.609C196.486 21.5446 196.936 21.4923 197.282 21.4521C197.629 21.4078 197.88 21.3374 198.037 21.2408C198.194 21.1442 198.273 20.9872 198.273 20.7699V20.7276C198.273 20.2004 198.124 19.7919 197.826 19.5021C197.532 19.2124 197.093 19.0675 196.51 19.0675C195.902 19.0675 195.423 19.2023 195.073 19.4719C194.727 19.7376 194.487 20.0334 194.355 20.3594L192.658 19.973C192.859 19.4096 193.153 18.9548 193.54 18.6087C193.93 18.2585 194.379 18.005 194.886 17.848C195.393 17.687 195.926 17.6065 196.486 17.6065C196.856 17.6065 197.248 17.6508 197.663 17.7393C198.081 17.8239 198.472 17.9808 198.834 18.2102C199.2 18.4396 199.5 18.7676 199.733 19.1942C199.967 19.6168 200.084 20.1662 200.084 20.8423V27H198.321V25.7322H198.248C198.132 25.9657 197.957 26.1951 197.723 26.4205C197.49 26.6458 197.19 26.833 196.824 26.9819C196.457 27.1308 196.019 27.2053 195.508 27.2053ZM195.9 25.7564C196.399 25.7564 196.826 25.6578 197.18 25.4606C197.538 25.2634 197.81 25.0058 197.995 24.6879C198.184 24.3659 198.279 24.0218 198.279 23.6555V22.4602C198.214 22.5246 198.089 22.585 197.904 22.6413C197.723 22.6937 197.516 22.7399 197.282 22.7802C197.049 22.8164 196.822 22.8506 196.6 22.8828C196.379 22.911 196.194 22.9351 196.045 22.9553C195.695 22.9995 195.375 23.074 195.085 23.1786C194.799 23.2833 194.57 23.4342 194.397 23.6314C194.228 23.8246 194.143 24.0821 194.143 24.4041C194.143 24.8509 194.308 25.1889 194.638 25.4183C194.968 25.6437 195.389 25.7564 195.9 25.7564ZM202.488 27V17.7273H204.233V19.2003H204.329C204.498 18.7012 204.796 18.3088 205.223 18.0231C205.653 17.7333 206.14 17.5884 206.684 17.5884C206.796 17.5884 206.929 17.5924 207.082 17.6005C207.239 17.6085 207.362 17.6186 207.45 17.6307V19.3572C207.378 19.3371 207.249 19.315 207.064 19.2908C206.879 19.2627 206.694 19.2486 206.508 19.2486C206.082 19.2486 205.701 19.3391 205.367 19.5202C205.037 19.6973 204.776 19.9448 204.583 20.2628C204.389 20.5767 204.293 20.9349 204.293 21.3374V27H202.488ZM212.568 30.6705C211.831 30.6705 211.198 30.5739 210.666 30.3807C210.139 30.1875 209.709 29.9319 209.374 29.614C209.04 29.296 208.791 28.9479 208.626 28.5696L210.177 27.9297C210.286 28.1068 210.431 28.2939 210.612 28.4911C210.797 28.6924 211.047 28.8634 211.361 29.0043C211.679 29.1451 212.087 29.2156 212.586 29.2156C213.27 29.2156 213.836 29.0485 214.282 28.7145C214.729 28.3845 214.953 27.8572 214.953 27.1328V25.3097H214.838C214.729 25.5069 214.572 25.7262 214.367 25.9677C214.166 26.2092 213.888 26.4184 213.534 26.5955C213.18 26.7726 212.719 26.8612 212.151 26.8612C211.419 26.8612 210.759 26.6901 210.171 26.348C209.588 26.0019 209.125 25.4928 208.783 24.8207C208.445 24.1445 208.276 23.3134 208.276 22.3274C208.276 21.3414 208.443 20.4962 208.777 19.7919C209.115 19.0876 209.578 18.5483 210.165 18.174C210.753 17.7957 211.419 17.6065 212.164 17.6065C212.739 17.6065 213.204 17.7031 213.558 17.8963C213.912 18.0855 214.188 18.3068 214.385 18.5604C214.586 18.8139 214.741 19.0373 214.85 19.2305H214.983V17.7273H216.752V27.2053C216.752 28.0021 216.566 28.6561 216.196 29.1673C215.826 29.6784 215.325 30.0567 214.693 30.3022C214.065 30.5477 213.357 30.6705 212.568 30.6705ZM212.55 25.364C213.069 25.364 213.508 25.2433 213.866 25.0018C214.228 24.7563 214.502 24.4061 214.687 23.9513C214.876 23.4925 214.971 22.9432 214.971 22.3033C214.971 21.6795 214.878 21.1301 214.693 20.6552C214.508 20.1803 214.236 19.81 213.878 19.5444C213.52 19.2747 213.077 19.1399 212.55 19.1399C212.007 19.1399 211.554 19.2808 211.192 19.5625C210.829 19.8402 210.556 20.2185 210.371 20.6974C210.189 21.1764 210.099 21.7116 210.099 22.3033C210.099 22.911 210.191 23.4442 210.377 23.9031C210.562 24.3619 210.835 24.7201 211.198 24.9776C211.564 25.2352 212.015 25.364 212.55 25.364ZM223.169 27.1871C222.255 27.1871 221.468 26.992 220.808 26.6016C220.152 26.2071 219.645 25.6538 219.287 24.9414C218.933 24.225 218.756 23.3859 218.756 22.424C218.756 21.4742 218.933 20.6371 219.287 19.9126C219.645 19.1882 220.144 18.6228 220.784 18.2163C221.428 17.8098 222.181 17.6065 223.042 17.6065C223.565 17.6065 224.072 17.6931 224.563 17.8661C225.054 18.0392 225.495 18.3108 225.885 18.6811C226.276 19.0514 226.584 19.5323 226.809 20.1239C227.035 20.7115 227.147 21.4259 227.147 22.267V22.907H219.776V21.5547H225.378C225.378 21.0798 225.282 20.6592 225.089 20.293C224.895 19.9227 224.624 19.6309 224.274 19.4176C223.927 19.2043 223.521 19.0977 223.054 19.0977C222.547 19.0977 222.104 19.2224 221.726 19.4719C221.352 19.7174 221.062 20.0394 220.857 20.4379C220.655 20.8323 220.555 21.2609 220.555 21.7237V22.7802C220.555 23.4 220.664 23.9272 220.881 24.3619C221.102 24.7965 221.41 25.1286 221.805 25.358C222.199 25.5833 222.66 25.696 223.187 25.696C223.529 25.696 223.841 25.6477 224.123 25.5511C224.404 25.4505 224.648 25.3016 224.853 25.1044C225.058 24.9072 225.215 24.6637 225.324 24.3739L227.032 24.6818C226.896 25.1849 226.65 25.6256 226.296 26.0039C225.946 26.3782 225.505 26.67 224.974 26.8793C224.447 27.0845 223.845 27.1871 223.169 27.1871Z" fill="#8C57FF"/>
</g>
</g>
<defs>
<clipPath id="clip0_8003_3946">
<path d="M0 8C0 3.58172 3.58172 0 8 0H238C242.418 0 246 3.58172 246 8V34C246 38.4183 242.418 42 238 42H8.00001C3.58173 42 0 38.4183 0 34V8Z" fill="white"/>
</clipPath>
<clipPath id="clip1_8003_3946">
<rect width="82" height="42" fill="white"/>
</clipPath>
<clipPath id="clip2_8003_3946">
<rect width="82" height="42" fill="white" transform="translate(82)"/>
</clipPath>
<clipPath id="clip3_8003_3946">
<rect width="82" height="42" fill="white" transform="translate(164)"/>
</clipPath>
</defs>
</svg>
