<svg width="126" height="66" viewBox="0 0 126 66" fill="none" xmlns="http://www.w3.org/2000/svg">
<g filter="url(#filter0_d_8003_3180)">
<path d="M10 12C10 8.68629 12.6863 6 16 6H110C113.314 6 116 8.68629 116 12V46C116 49.3137 113.314 52 110 52H16C12.6863 52 10 49.3137 10 46V12Z" fill="white" shape-rendering="crispEdges"/>
<path d="M27.321 34V23.0909H31.1349C31.8949 23.0909 32.5217 23.2223 33.0153 23.4851C33.5089 23.7443 33.8764 24.0941 34.1179 24.5344C34.3594 24.9712 34.4801 25.456 34.4801 25.9886C34.4801 26.4574 34.3967 26.8445 34.2298 27.1499C34.0664 27.4553 33.8498 27.6967 33.5799 27.8743C33.3136 28.0518 33.0241 28.1832 32.7116 28.2685V28.375C33.0455 28.3963 33.381 28.5135 33.7184 28.7266C34.0558 28.9396 34.3381 29.245 34.5653 29.6428C34.7926 30.0405 34.9062 30.527 34.9062 31.1023C34.9062 31.6491 34.782 32.141 34.5334 32.5778C34.2848 33.0146 33.8924 33.3608 33.3562 33.6165C32.82 33.8722 32.1222 34 31.2628 34H27.321ZM28.642 32.8281H31.2628C32.1257 32.8281 32.7383 32.6612 33.1005 32.3274C33.4663 31.9901 33.6491 31.5817 33.6491 31.1023C33.6491 30.733 33.555 30.392 33.3668 30.0795C33.1786 29.7635 32.9105 29.5114 32.5625 29.3232C32.2145 29.1314 31.8026 29.0355 31.3267 29.0355H28.642V32.8281ZM28.642 27.8849H31.0923C31.4901 27.8849 31.8487 27.8068 32.1683 27.6506C32.4915 27.4943 32.7472 27.2741 32.9354 26.9901C33.1271 26.706 33.223 26.3722 33.223 25.9886C33.223 25.5092 33.0561 25.1026 32.7223 24.7688C32.3885 24.4315 31.8594 24.2628 31.1349 24.2628H28.642V27.8849ZM38.1635 23.0909V34H36.9064V23.0909H38.1635ZM42.8737 34.1918C42.3552 34.1918 41.8847 34.0941 41.4621 33.8988C41.0395 33.6999 40.7039 33.4141 40.4553 33.0412C40.2068 32.6648 40.0825 32.2102 40.0825 31.6776C40.0825 31.2088 40.1748 30.8288 40.3595 30.5376C40.5441 30.2429 40.7909 30.0121 41.0999 29.8452C41.4088 29.6783 41.7497 29.554 42.1226 29.4723C42.499 29.3871 42.8772 29.3196 43.2572 29.2699C43.7544 29.206 44.1574 29.158 44.4664 29.1261C44.7789 29.0906 45.0061 29.032 45.1482 28.9503C45.2938 28.8686 45.3666 28.7266 45.3666 28.5241V28.4815C45.3666 27.956 45.2227 27.5476 44.9351 27.2564C44.651 26.9652 44.2195 26.8196 43.6407 26.8196C43.0406 26.8196 42.57 26.951 42.2291 27.2138C41.8882 27.4766 41.6485 27.7571 41.51 28.0554L40.3169 27.6293C40.5299 27.1321 40.814 26.745 41.1691 26.468C41.5278 26.1875 41.9184 25.9922 42.341 25.8821C42.7671 25.7685 43.1862 25.7116 43.5981 25.7116C43.8609 25.7116 44.1627 25.7436 44.5036 25.8075C44.8481 25.8679 45.1801 25.994 45.4997 26.1857C45.8229 26.3775 46.091 26.6669 46.3041 27.054C46.5171 27.4411 46.6237 27.9595 46.6237 28.6094V34H45.3666V32.892H45.3026C45.2174 33.0696 45.0754 33.2596 44.8765 33.462C44.6776 33.6644 44.4131 33.8366 44.0828 33.9787C43.7526 34.1207 43.3495 34.1918 42.8737 34.1918ZM43.0654 33.0625C43.5626 33.0625 43.9816 32.9648 44.3225 32.7695C44.667 32.5742 44.9262 32.3221 45.1002 32.0131C45.2778 31.7042 45.3666 31.3793 45.3666 31.0384V29.8878C45.3133 29.9517 45.1961 30.0103 45.015 30.0636C44.8374 30.1133 44.6315 30.1577 44.3971 30.1967C44.1663 30.2322 43.9408 30.2642 43.7206 30.2926C43.504 30.3175 43.3282 30.3388 43.1933 30.3565C42.8666 30.3991 42.5612 30.4684 42.2771 30.5643C41.9965 30.6566 41.7693 30.7969 41.5953 30.9851C41.4248 31.1697 41.3396 31.4219 41.3396 31.7415C41.3396 32.1783 41.5012 32.5085 41.8243 32.7322C42.151 32.9524 42.5647 33.0625 43.0654 33.0625ZM50.1752 29.0781V34H48.9181V25.8182H50.1326V27.0966H50.2392C50.4309 26.6811 50.7221 26.3473 51.1127 26.0952C51.5034 25.8395 52.0076 25.7116 52.6255 25.7116C53.1795 25.7116 53.6642 25.8253 54.0797 26.0526C54.4952 26.2763 54.8184 26.6172 55.0492 27.0753C55.28 27.5298 55.3954 28.1051 55.3954 28.8011V34H54.1383V28.8864C54.1383 28.2436 53.9714 27.7429 53.6376 27.3842C53.3038 27.022 52.8457 26.8409 52.2633 26.8409C51.862 26.8409 51.5034 26.9279 51.1873 27.1019C50.8748 27.2759 50.628 27.5298 50.4469 27.8636C50.2658 28.1974 50.1752 28.6023 50.1752 29.0781ZM58.8644 31.017L58.8431 29.4616H59.0988L62.6784 25.8182H64.2338L60.4198 29.6747H60.3133L58.8644 31.017ZM57.6926 34V23.0909H58.9497V34H57.6926ZM62.8914 34L59.6954 29.9517L60.5903 29.0781L64.4894 34H62.8914ZM69.6444 24.2628V23.0909H77.8262V24.2628H74.3958V34H73.0748V24.2628H69.6444ZM81.8319 34.1705C81.0932 34.1705 80.4451 33.9947 79.8876 33.6431C79.3336 33.2915 78.9004 32.7997 78.5879 32.1676C78.2789 31.5355 78.1245 30.7969 78.1245 29.9517C78.1245 29.0994 78.2789 28.3555 78.5879 27.7198C78.9004 27.0842 79.3336 26.5906 79.8876 26.239C80.4451 25.8874 81.0932 25.7116 81.8319 25.7116C82.5705 25.7116 83.2168 25.8874 83.7708 26.239C84.3283 26.5906 84.7615 27.0842 85.0705 27.7198C85.383 28.3555 85.5392 29.0994 85.5392 29.9517C85.5392 30.7969 85.383 31.5355 85.0705 32.1676C84.7615 32.7997 84.3283 33.2915 83.7708 33.6431C83.2168 33.9947 82.5705 34.1705 81.8319 34.1705ZM81.8319 33.0412C82.3929 33.0412 82.8546 32.8974 83.2168 32.6097C83.579 32.3221 83.8471 31.9439 84.0211 31.4751C84.1951 31.0064 84.2821 30.4986 84.2821 29.9517C84.2821 29.4048 84.1951 28.8952 84.0211 28.4229C83.8471 27.9506 83.579 27.5689 83.2168 27.2777C82.8546 26.9865 82.3929 26.8409 81.8319 26.8409C81.2708 26.8409 80.8091 26.9865 80.4469 27.2777C80.0847 27.5689 79.8166 27.9506 79.6426 28.4229C79.4686 28.8952 79.3816 29.4048 79.3816 29.9517C79.3816 30.4986 79.4686 31.0064 79.6426 31.4751C79.8166 31.9439 80.0847 32.3221 80.4469 32.6097C80.8091 32.8974 81.2708 33.0412 81.8319 33.0412ZM93.2536 27.6506L92.1244 27.9702C92.0534 27.782 91.9486 27.5991 91.8101 27.4215C91.6752 27.2404 91.4905 27.0913 91.2561 26.9741C91.0218 26.8569 90.7217 26.7983 90.3559 26.7983C89.8552 26.7983 89.4379 26.9137 89.1041 27.1445C88.7739 27.3718 88.6088 27.6612 88.6088 28.0128C88.6088 28.3253 88.7224 28.5721 88.9497 28.7532C89.1769 28.9343 89.532 29.0852 90.015 29.206L91.2295 29.5043C91.961 29.6818 92.5061 29.9535 92.8648 30.3192C93.2235 30.6815 93.4028 31.1484 93.4028 31.7202C93.4028 32.1889 93.2678 32.608 92.998 32.9773C92.7316 33.3466 92.3588 33.6378 91.8794 33.8509C91.3999 34.0639 90.8424 34.1705 90.2068 34.1705C89.3722 34.1705 88.6816 33.9893 88.1347 33.6271C87.5878 33.2649 87.2416 32.7358 87.096 32.0398L88.2892 31.7415C88.4028 32.1818 88.6176 32.5121 88.9337 32.7322C89.2533 32.9524 89.6705 33.0625 90.1855 33.0625C90.7714 33.0625 91.2366 32.9382 91.5811 32.6896C91.9291 32.4375 92.1031 32.1357 92.1031 31.7841C92.1031 31.5 92.0036 31.2621 91.8048 31.0703C91.6059 30.875 91.3005 30.7294 90.8886 30.6335L89.5249 30.3139C88.7757 30.1364 88.2252 29.8612 87.8737 29.4883C87.5257 29.1119 87.3517 28.6413 87.3517 28.0767C87.3517 27.6151 87.4813 27.2067 87.7405 26.8516C88.0033 26.4964 88.3602 26.2177 88.8112 26.0153C89.2657 25.8129 89.7806 25.7116 90.3559 25.7116C91.1656 25.7116 91.8012 25.8892 92.2629 26.2443C92.7281 26.5994 93.0583 27.0682 93.2536 27.6506ZM98.8533 25.8182V26.8835H94.6133V25.8182H98.8533ZM95.8491 23.858H97.1062V31.6562C97.1062 32.0114 97.1577 32.2777 97.2607 32.4553C97.3672 32.6293 97.5021 32.7464 97.6655 32.8068C97.8324 32.8636 98.0082 32.892 98.1928 32.892C98.3313 32.892 98.445 32.8849 98.5337 32.8707C98.6225 32.853 98.6935 32.8388 98.7468 32.8281L99.0025 33.9574C98.9173 33.9893 98.7983 34.0213 98.6456 34.0533C98.4929 34.0888 98.2994 34.1065 98.065 34.1065C97.7099 34.1065 97.3619 34.0302 97.021 33.8775C96.6836 33.7248 96.4031 33.4922 96.1793 33.1797C95.9592 32.8672 95.8491 32.473 95.8491 31.9972V23.858Z" fill="#2E263D" fill-opacity="0.9"/>
</g>
<defs>
<filter id="filter0_d_8003_3180" x="0" y="0" width="126" height="66" filterUnits="userSpaceOnUse" color-interpolation-filters="sRGB">
<feFlood flood-opacity="0" result="BackgroundImageFix"/>
<feColorMatrix in="SourceAlpha" type="matrix" values="0 0 0 0 0 0 0 0 0 0 0 0 0 0 0 0 0 0 127 0" result="hardAlpha"/>
<feOffset dy="4"/>
<feGaussianBlur stdDeviation="5"/>
<feComposite in2="hardAlpha" operator="out"/>
<feColorMatrix type="matrix" values="0 0 0 0 0.180392 0 0 0 0 0.14902 0 0 0 0 0.239216 0 0 0 0.2 0"/>
<feBlend mode="normal" in2="BackgroundImageFix" result="effect1_dropShadow_8003_3180"/>
<feBlend mode="normal" in="SourceGraphic" in2="effect1_dropShadow_8003_3180" result="shape"/>
</filter>
</defs>
</svg>
