<svg width="285" height="349" viewBox="0 0 285 349" fill="none" xmlns="http://www.w3.org/2000/svg">
<g filter="url(#filter0_d_8003_4687)">
<g clip-path="url(#clip0_8003_4687)">
<path d="M10 12C10 8.68628 12.6863 6 16 6H269C272.314 6 275 8.68629 275 12V329C275 332.314 272.314 335 269 335H16C12.6863 335 10 332.314 10 329V12Z" fill="white"/>
<path d="M30.7926 35.6094V33.9091H40.924V35.6094H36.8395V47H34.8707V35.6094H30.7926ZM45.7212 47.1982C44.8008 47.1982 43.9975 46.9872 43.3114 46.5653C42.6254 46.1435 42.0927 45.5533 41.7134 44.7947C41.3342 44.0362 41.1445 43.1499 41.1445 42.1357C41.1445 41.1172 41.3342 40.2266 41.7134 39.4638C42.0927 38.701 42.6254 38.1087 43.3114 37.6868C43.9975 37.2649 44.8008 37.054 45.7212 37.054C46.6417 37.054 47.445 37.2649 48.131 37.6868C48.8171 38.1087 49.3498 38.701 49.729 39.4638C50.1083 40.2266 50.2979 41.1172 50.2979 42.1357C50.2979 43.1499 50.1083 44.0362 49.729 44.7947C49.3498 45.5533 48.8171 46.1435 48.131 46.5653C47.445 46.9872 46.6417 47.1982 45.7212 47.1982ZM45.7276 45.5938C46.3242 45.5938 46.8185 45.4361 47.2106 45.1207C47.6026 44.8054 47.8924 44.3857 48.0799 43.8615C48.2717 43.3374 48.3675 42.7599 48.3675 42.1293C48.3675 41.5028 48.2717 40.9276 48.0799 40.4034C47.8924 39.875 47.6026 39.451 47.2106 39.1314C46.8185 38.8118 46.3242 38.652 45.7276 38.652C45.1268 38.652 44.6282 38.8118 44.2319 39.1314C43.8398 39.451 43.5479 39.875 43.3562 40.4034C43.1687 40.9276 43.0749 41.5028 43.0749 42.1293C43.0749 42.7599 43.1687 43.3374 43.3562 43.8615C43.5479 44.3857 43.8398 44.8054 44.2319 45.1207C44.6282 45.4361 45.1268 45.5938 45.7276 45.5938ZM57.0144 37.1818V38.7159H51.6515V37.1818H57.0144ZM53.0897 34.8295H55.0009V44.1172C55.0009 44.4879 55.0563 44.767 55.1671 44.9545C55.2779 45.1378 55.4206 45.2635 55.5953 45.3317C55.7743 45.3956 55.9682 45.4276 56.177 45.4276C56.3304 45.4276 56.4647 45.4169 56.5797 45.3956C56.6948 45.3743 56.7843 45.3572 56.8482 45.3445L57.1934 46.9233C57.0826 46.9659 56.9249 47.0085 56.7203 47.0511C56.5158 47.098 56.2601 47.1236 55.9533 47.1278C55.4505 47.1364 54.9817 47.0469 54.5471 46.8594C54.1124 46.6719 53.7608 46.3821 53.4924 45.9901C53.2239 45.598 53.0897 45.1058 53.0897 44.5135V34.8295ZM61.9858 47.2173C61.3636 47.2173 60.8011 47.1023 60.2983 46.8722C59.7955 46.6378 59.397 46.299 59.103 45.8558C58.8132 45.4126 58.6683 44.8693 58.6683 44.2259C58.6683 43.6719 58.7749 43.2159 58.9879 42.858C59.201 42.5 59.4886 42.2166 59.8509 42.0078C60.2131 41.799 60.6179 41.6413 61.0653 41.5348C61.5128 41.4283 61.9688 41.3473 62.4332 41.2919C63.0213 41.2237 63.4986 41.1683 63.8651 41.1257C64.2315 41.0788 64.4979 41.0043 64.6641 40.902C64.8303 40.7997 64.9134 40.6335 64.9134 40.4034V40.3587C64.9134 39.8004 64.7557 39.3679 64.4403 39.0611C64.1293 38.7543 63.6648 38.6009 63.0469 38.6009C62.4034 38.6009 61.8963 38.7436 61.5256 39.0291C61.1591 39.3104 60.9055 39.6236 60.7649 39.9688L58.9688 39.5597C59.1818 38.9631 59.4929 38.4815 59.902 38.1151C60.3153 37.7443 60.7905 37.4759 61.3274 37.3097C61.8643 37.1392 62.429 37.054 63.0213 37.054C63.4134 37.054 63.8288 37.1009 64.2678 37.1946C64.7109 37.2841 65.1243 37.4503 65.5078 37.6932C65.8956 37.9361 66.2131 38.2834 66.4602 38.7351C66.7074 39.1825 66.831 39.7642 66.831 40.4801V47H64.9645V45.6577H64.8878C64.7642 45.9048 64.5788 46.1477 64.3317 46.3864C64.0845 46.625 63.767 46.8232 63.3793 46.9808C62.9915 47.1385 62.527 47.2173 61.9858 47.2173ZM62.4013 45.6832C62.9297 45.6832 63.3814 45.5788 63.7564 45.37C64.1357 45.1612 64.4233 44.8885 64.6193 44.5518C64.8196 44.2109 64.9197 43.8466 64.9197 43.4588V42.1932C64.8516 42.2614 64.7195 42.3253 64.5234 42.3849C64.3317 42.4403 64.1122 42.4893 63.8651 42.532C63.6179 42.5703 63.3771 42.6065 63.1428 42.6406C62.9084 42.6705 62.7124 42.696 62.5547 42.7173C62.1839 42.7642 61.8452 42.843 61.5384 42.9538C61.2358 43.0646 60.9929 43.2244 60.8097 43.4332C60.6307 43.6378 60.5412 43.9105 60.5412 44.2514C60.5412 44.7244 60.7159 45.0824 61.0653 45.3253C61.4148 45.5639 61.8601 45.6832 62.4013 45.6832ZM71.2878 33.9091V47H69.3766V33.9091H71.2878ZM79.9203 33.9091L83.5637 44.571H83.7108L87.3542 33.9091H89.4892L84.7782 47H82.4963L77.7853 33.9091H79.9203ZM91.2262 47V37.1818H93.1374V47H91.2262ZM92.1914 35.6669C91.859 35.6669 91.5735 35.5561 91.3349 35.3345C91.1005 35.1087 90.9833 34.8402 90.9833 34.5291C90.9833 34.2138 91.1005 33.9453 91.3349 33.7237C91.5735 33.4979 91.859 33.3849 92.1914 33.3849C92.5238 33.3849 92.8072 33.4979 93.0415 33.7237C93.2802 33.9453 93.3995 34.2138 93.3995 34.5291C93.3995 34.8402 93.2802 35.1087 93.0415 35.3345C92.8072 35.5561 92.5238 35.6669 92.1914 35.6669ZM103.066 39.5788L101.334 39.8857C101.261 39.6641 101.146 39.4531 100.988 39.2528C100.835 39.0526 100.626 38.8885 100.362 38.7607C100.098 38.6328 99.7676 38.5689 99.3713 38.5689C98.8301 38.5689 98.3784 38.6903 98.0162 38.9332C97.6539 39.1719 97.4728 39.4808 97.4728 39.8601C97.4728 40.1882 97.5943 40.4524 97.8372 40.6527C98.0801 40.853 98.4721 41.017 99.0133 41.1449L100.573 41.5028C101.476 41.7116 102.15 42.0334 102.593 42.468C103.036 42.9027 103.258 43.4673 103.258 44.1619C103.258 44.75 103.087 45.2741 102.746 45.7344C102.41 46.1903 101.939 46.5483 101.334 46.8082C100.733 47.0682 100.036 47.1982 99.2434 47.1982C98.144 47.1982 97.247 46.9638 96.5524 46.495C95.8578 46.022 95.4316 45.3509 95.274 44.4815L97.1213 44.2003C97.2363 44.6818 97.4728 45.0462 97.8308 45.2933C98.1887 45.5362 98.6554 45.6577 99.2306 45.6577C99.8571 45.6577 100.358 45.5277 100.733 45.2678C101.108 45.0036 101.295 44.6818 101.295 44.3026C101.295 43.9957 101.18 43.7379 100.95 43.5291C100.724 43.3203 100.377 43.1626 99.9082 43.0561L98.2463 42.6918C97.3301 42.483 96.6525 42.1506 96.2136 41.6946C95.7789 41.2386 95.5616 40.6612 95.5616 39.9624C95.5616 39.3828 95.7235 38.8757 96.0474 38.4411C96.3713 38.0064 96.8187 37.6676 97.3897 37.4247C97.9608 37.1776 98.6149 37.054 99.3521 37.054C100.413 37.054 101.248 37.2841 101.858 37.7443C102.467 38.2003 102.87 38.8118 103.066 39.5788ZM105.359 47V37.1818H107.27V47H105.359ZM106.324 35.6669C105.992 35.6669 105.706 35.5561 105.468 35.3345C105.233 35.1087 105.116 34.8402 105.116 34.5291C105.116 34.2138 105.233 33.9453 105.468 33.7237C105.706 33.4979 105.992 33.3849 106.324 33.3849C106.657 33.3849 106.94 33.4979 107.174 33.7237C107.413 33.9453 107.532 34.2138 107.532 34.5291C107.532 34.8402 107.413 35.1087 107.174 35.3345C106.94 35.5561 106.657 35.6669 106.324 35.6669ZM114.425 37.1818V38.7159H109.062V37.1818H114.425ZM110.5 34.8295H112.411V44.1172C112.411 44.4879 112.466 44.767 112.577 44.9545C112.688 45.1378 112.831 45.2635 113.006 45.3317C113.184 45.3956 113.378 45.4276 113.587 45.4276C113.741 45.4276 113.875 45.4169 113.99 45.3956C114.105 45.3743 114.194 45.3572 114.258 45.3445L114.604 46.9233C114.493 46.9659 114.335 47.0085 114.131 47.0511C113.926 47.098 113.67 47.1236 113.363 47.1278C112.861 47.1364 112.392 47.0469 111.957 46.8594C111.523 46.6719 111.171 46.3821 110.903 45.9901C110.634 45.598 110.5 45.1058 110.5 44.5135V34.8295ZM123.738 39.5788L122.006 39.8857C121.933 39.6641 121.818 39.4531 121.66 39.2528C121.507 39.0526 121.298 38.8885 121.034 38.7607C120.77 38.6328 120.439 38.5689 120.043 38.5689C119.502 38.5689 119.05 38.6903 118.688 38.9332C118.326 39.1719 118.145 39.4808 118.145 39.8601C118.145 40.1882 118.266 40.4524 118.509 40.6527C118.752 40.853 119.144 41.017 119.685 41.1449L121.245 41.5028C122.148 41.7116 122.822 42.0334 123.265 42.468C123.708 42.9027 123.93 43.4673 123.93 44.1619C123.93 44.75 123.759 45.2741 123.418 45.7344C123.081 46.1903 122.611 46.5483 122.006 46.8082C121.405 47.0682 120.708 47.1982 119.915 47.1982C118.816 47.1982 117.919 46.9638 117.224 46.495C116.53 46.022 116.104 45.3509 115.946 44.4815L117.793 44.2003C117.908 44.6818 118.145 45.0462 118.503 45.2933C118.861 45.5362 119.327 45.6577 119.903 45.6577C120.529 45.6577 121.03 45.5277 121.405 45.2678C121.78 45.0036 121.967 44.6818 121.967 44.3026C121.967 43.9957 121.852 43.7379 121.622 43.5291C121.396 43.3203 121.049 43.1626 120.58 43.0561L118.918 42.6918C118.002 42.483 117.324 42.1506 116.885 41.6946C116.451 41.2386 116.233 40.6612 116.233 39.9624C116.233 39.3828 116.395 38.8757 116.719 38.4411C117.043 38.0064 117.491 37.6676 118.062 37.4247C118.633 37.1776 119.287 37.054 120.024 37.054C121.085 37.054 121.92 37.2841 122.53 37.7443C123.139 38.2003 123.542 38.8118 123.738 39.5788Z" fill="#2E263D" fill-opacity="0.9"/>
<path d="M243 29C242.175 29 241.5 29.675 241.5 30.5C241.5 31.325 242.175 32 243 32C243.825 32 244.5 31.325 244.5 30.5C244.5 29.675 243.825 29 243 29ZM243 44C242.175 44 241.5 44.675 241.5 45.5C241.5 46.325 242.175 47 243 47C243.825 47 244.5 46.325 244.5 45.5C244.5 44.675 243.825 44 243 44ZM243 36.5C242.175 36.5 241.5 37.175 241.5 38C241.5 38.825 242.175 39.5 243 39.5C243.825 39.5 244.5 38.825 244.5 38C244.5 37.175 243.825 36.5 243 36.5Z" fill="#2E263D" fill-opacity="0.9"/>
<circle cx="142.5" cy="167.5" r="72.5" stroke="#F0F2F8" stroke-width="14"/>
<path d="M211.87 188.376C215.602 189.499 219.571 187.388 220.359 183.571C223.303 169.306 222.28 154.456 217.332 140.66C211.588 124.643 200.855 110.892 186.713 101.428C172.571 91.9649 155.765 87.2888 138.768 88.0876C121.77 88.8865 105.478 95.1181 92.2854 105.866C79.0932 116.614 69.6976 131.311 65.4803 147.797C61.263 164.282 62.4465 181.686 68.8567 197.449C75.2669 213.211 86.5656 226.501 101.091 235.364C113.603 242.998 127.939 247.001 142.505 247C146.402 247 149.273 243.54 148.927 239.658V239.658C148.581 235.776 145.148 232.949 141.252 232.875C129.703 232.654 118.374 229.376 108.443 223.317C96.4955 216.027 87.2026 205.096 81.9304 192.132C76.6581 179.167 75.6847 164.853 79.1534 151.295C82.622 137.736 90.3496 125.648 101.2 116.808C112.05 107.968 125.45 102.842 139.43 102.185C153.41 101.528 167.232 105.374 178.864 113.158C190.495 120.941 199.323 132.251 204.048 145.425C207.975 156.376 208.896 168.134 206.778 179.489C206.064 183.32 208.138 187.253 211.87 188.376V188.376Z" fill="url(#paint0_linear_8003_4687)"/>
<path d="M120.474 173L128.093 157.932V157.804H119.281V155.545H130.821V157.881L123.227 173H120.474ZM139.331 173.239C138.109 173.239 137.029 173.028 136.092 172.608C135.16 172.187 134.43 171.608 133.902 170.869C133.373 170.131 133.112 169.29 133.118 168.347C133.112 167.608 133.262 166.929 133.569 166.31C133.882 165.685 134.305 165.165 134.839 164.75C135.373 164.33 135.97 164.062 136.629 163.949V163.847C135.76 163.636 135.064 163.17 134.541 162.449C134.018 161.727 133.76 160.898 133.765 159.96C133.76 159.068 133.995 158.273 134.473 157.574C134.956 156.869 135.618 156.315 136.458 155.912C137.299 155.509 138.257 155.307 139.331 155.307C140.393 155.307 141.342 155.511 142.177 155.92C143.018 156.324 143.68 156.878 144.163 157.582C144.646 158.281 144.89 159.074 144.896 159.96C144.89 160.898 144.623 161.727 144.095 162.449C143.566 163.17 142.879 163.636 142.032 163.847V163.949C142.686 164.062 143.274 164.33 143.797 164.75C144.325 165.165 144.745 165.685 145.058 166.31C145.376 166.929 145.538 167.608 145.544 168.347C145.538 169.29 145.271 170.131 144.743 170.869C144.214 171.608 143.481 172.187 142.544 172.608C141.612 173.028 140.541 173.239 139.331 173.239ZM139.331 171.082C140.052 171.082 140.677 170.963 141.206 170.724C141.734 170.48 142.143 170.142 142.433 169.71C142.723 169.273 142.87 168.761 142.876 168.176C142.87 167.568 142.711 167.031 142.399 166.565C142.092 166.099 141.674 165.733 141.146 165.466C140.618 165.199 140.012 165.065 139.331 165.065C138.643 165.065 138.032 165.199 137.498 165.466C136.964 165.733 136.544 166.099 136.237 166.565C135.93 167.031 135.779 167.568 135.785 168.176C135.779 168.761 135.919 169.273 136.203 169.71C136.493 170.142 136.904 170.48 137.439 170.724C137.973 170.963 138.603 171.082 139.331 171.082ZM139.331 162.96C139.91 162.96 140.424 162.844 140.873 162.611C141.322 162.378 141.674 162.054 141.93 161.639C142.191 161.224 142.325 160.739 142.331 160.182C142.325 159.636 142.194 159.159 141.939 158.75C141.689 158.341 141.339 158.026 140.89 157.804C140.441 157.577 139.922 157.463 139.331 157.463C138.728 157.463 138.2 157.577 137.745 157.804C137.297 158.026 136.947 158.341 136.697 158.75C136.447 159.159 136.325 159.636 136.331 160.182C136.325 160.739 136.45 161.224 136.706 161.639C136.961 162.054 137.314 162.378 137.762 162.611C138.217 162.844 138.74 162.96 139.331 162.96ZM157.708 169.727V168.807C157.708 168.148 157.844 167.545 158.117 167C158.395 166.449 158.799 166.009 159.327 165.679C159.861 165.344 160.506 165.176 161.262 165.176C162.034 165.176 162.682 165.341 163.205 165.67C163.728 166 164.123 166.44 164.39 166.991C164.662 167.543 164.799 168.148 164.799 168.807V169.727C164.799 170.386 164.662 170.991 164.39 171.543C164.117 172.088 163.716 172.528 163.188 172.864C162.665 173.193 162.023 173.358 161.262 173.358C160.495 173.358 159.847 173.193 159.319 172.864C158.79 172.528 158.39 172.088 158.117 171.543C157.844 170.991 157.708 170.386 157.708 169.727ZM159.694 168.807V169.727C159.694 170.216 159.81 170.659 160.043 171.057C160.276 171.455 160.682 171.653 161.262 171.653C161.836 171.653 162.236 171.455 162.463 171.057C162.691 170.659 162.804 170.216 162.804 169.727V168.807C162.804 168.318 162.694 167.875 162.472 167.477C162.256 167.08 161.853 166.881 161.262 166.881C160.694 166.881 160.29 167.08 160.051 167.477C159.813 167.875 159.694 168.318 159.694 168.807ZM148.929 159.739V158.818C148.929 158.159 149.066 157.554 149.338 157.003C149.617 156.452 150.02 156.011 150.549 155.682C151.083 155.352 151.728 155.188 152.483 155.188C153.256 155.188 153.904 155.352 154.426 155.682C154.949 156.011 155.344 156.452 155.611 157.003C155.878 157.554 156.012 158.159 156.012 158.818V159.739C156.012 160.398 155.875 161.003 155.603 161.554C155.336 162.099 154.938 162.54 154.409 162.875C153.887 163.205 153.245 163.369 152.483 163.369C151.711 163.369 151.06 163.205 150.532 162.875C150.009 162.54 149.611 162.099 149.338 161.554C149.066 161.003 148.929 160.398 148.929 159.739ZM150.924 158.818V159.739C150.924 160.227 151.037 160.67 151.265 161.068C151.498 161.466 151.904 161.665 152.483 161.665C153.051 161.665 153.449 161.466 153.676 161.068C153.909 160.67 154.026 160.227 154.026 159.739V158.818C154.026 158.33 153.915 157.886 153.694 157.489C153.472 157.091 153.069 156.892 152.483 156.892C151.915 156.892 151.512 157.091 151.273 157.489C151.04 157.886 150.924 158.33 150.924 158.818ZM149.739 173L161.739 155.545H163.776L151.776 173H149.739Z" fill="#2E263D" fill-opacity="0.9"/>
<path d="M124.758 186.537C124.655 186.214 124.517 185.925 124.343 185.669C124.172 185.41 123.968 185.19 123.73 185.009C123.492 184.824 123.22 184.684 122.915 184.588C122.613 184.492 122.281 184.444 121.919 184.444C121.305 184.444 120.751 184.602 120.257 184.918C119.763 185.234 119.373 185.697 119.085 186.308C118.801 186.915 118.659 187.659 118.659 188.54C118.659 189.424 118.803 190.172 119.09 190.783C119.378 191.393 119.772 191.857 120.273 192.173C120.774 192.489 121.344 192.647 121.983 192.647C122.576 192.647 123.093 192.526 123.533 192.285C123.977 192.043 124.32 191.702 124.561 191.262C124.806 190.818 124.929 190.296 124.929 189.696L125.355 189.776H122.233V188.418H126.521V189.659C126.521 190.575 126.326 191.37 125.935 192.045C125.548 192.716 125.012 193.235 124.327 193.6C123.645 193.966 122.864 194.149 121.983 194.149C120.996 194.149 120.129 193.922 119.383 193.467C118.641 193.013 118.062 192.368 117.647 191.534C117.231 190.696 117.024 189.701 117.024 188.551C117.024 187.681 117.144 186.9 117.386 186.207C117.627 185.515 117.967 184.927 118.403 184.444C118.844 183.957 119.36 183.586 119.953 183.331C120.55 183.071 121.202 182.942 121.908 182.942C122.498 182.942 123.046 183.029 123.554 183.203C124.066 183.377 124.52 183.624 124.918 183.943C125.319 184.263 125.651 184.643 125.914 185.083C126.177 185.52 126.354 186.005 126.447 186.537H124.758ZM128.483 194V185.818H130.022V187.118H130.107C130.257 186.678 130.519 186.331 130.896 186.079C131.276 185.824 131.705 185.696 132.185 185.696C132.284 185.696 132.401 185.699 132.536 185.706C132.675 185.713 132.783 185.722 132.861 185.733V187.256C132.797 187.239 132.684 187.219 132.52 187.198C132.357 187.173 132.194 187.161 132.03 187.161C131.654 187.161 131.318 187.24 131.024 187.4C130.732 187.556 130.502 187.775 130.331 188.055C130.161 188.332 130.075 188.648 130.075 189.004V194H128.483ZM137.393 194.165C136.626 194.165 135.957 193.989 135.385 193.638C134.813 193.286 134.369 192.794 134.053 192.162C133.737 191.53 133.579 190.792 133.579 189.946C133.579 189.098 133.737 188.355 134.053 187.72C134.369 187.084 134.813 186.591 135.385 186.239C135.957 185.887 136.626 185.712 137.393 185.712C138.16 185.712 138.829 185.887 139.401 186.239C139.973 186.591 140.417 187.084 140.733 187.72C141.049 188.355 141.207 189.098 141.207 189.946C141.207 190.792 141.049 191.53 140.733 192.162C140.417 192.794 139.973 193.286 139.401 193.638C138.829 193.989 138.16 194.165 137.393 194.165ZM137.398 192.828C137.896 192.828 138.307 192.697 138.634 192.434C138.961 192.171 139.202 191.821 139.359 191.385C139.518 190.948 139.598 190.467 139.598 189.941C139.598 189.419 139.518 188.94 139.359 188.503C139.202 188.062 138.961 187.709 138.634 187.443C138.307 187.176 137.896 187.043 137.398 187.043C136.898 187.043 136.482 187.176 136.152 187.443C135.825 187.709 135.582 188.062 135.422 188.503C135.266 188.94 135.188 189.419 135.188 189.941C135.188 190.467 135.266 190.948 135.422 191.385C135.582 191.821 135.825 192.171 136.152 192.434C136.482 192.697 136.898 192.828 137.398 192.828ZM144.509 194L142.102 185.818H143.748L145.351 191.827H145.431L147.04 185.818H148.686L150.284 191.8H150.364L151.956 185.818H153.602L151.2 194H149.575L147.913 188.093H147.791L146.129 194H144.509ZM158.933 185.818V187.097H154.464V185.818H158.933ZM155.662 183.858H157.255V191.598C157.255 191.907 157.301 192.139 157.393 192.295C157.486 192.448 157.605 192.553 157.75 192.61C157.9 192.663 158.061 192.69 158.235 192.69C158.363 192.69 158.475 192.681 158.571 192.663C158.667 192.645 158.741 192.631 158.794 192.62L159.082 193.936C158.99 193.972 158.858 194.007 158.688 194.043C158.517 194.082 158.304 194.103 158.049 194.107C157.63 194.114 157.239 194.039 156.877 193.883C156.515 193.727 156.222 193.485 155.998 193.158C155.774 192.832 155.662 192.422 155.662 191.928V183.858ZM162.463 189.142V194H160.87V183.091H162.442V187.15H162.543C162.735 186.71 163.028 186.36 163.422 186.1C163.816 185.841 164.331 185.712 164.967 185.712C165.528 185.712 166.018 185.827 166.437 186.058C166.859 186.289 167.186 186.633 167.417 187.091C167.651 187.546 167.769 188.114 167.769 188.796V194H166.176V188.988C166.176 188.387 166.021 187.922 165.712 187.592C165.403 187.258 164.974 187.091 164.423 187.091C164.047 187.091 163.71 187.171 163.411 187.331C163.117 187.491 162.884 187.725 162.714 188.034C162.547 188.339 162.463 188.709 162.463 189.142Z" fill="#2E263D" fill-opacity="0.7"/>
<path d="M86.0469 274.763V273.676L90.841 266.091H91.6293V267.774H91.0966L87.4745 273.506V273.591H93.9304V274.763H86.0469ZM91.1819 277V274.433V273.926V266.091H92.439V277H91.1819ZM95.9266 277V276.041L99.5275 272.099C99.9501 271.638 100.298 271.237 100.572 270.896C100.845 270.551 101.047 270.228 101.179 269.926C101.314 269.621 101.381 269.301 101.381 268.967C101.381 268.584 101.289 268.252 101.104 267.971C100.923 267.691 100.674 267.474 100.358 267.321C100.042 267.169 99.6873 267.092 99.2931 267.092C98.8741 267.092 98.5083 267.179 98.1958 267.353C97.8869 267.524 97.6472 267.763 97.4767 268.072C97.3098 268.381 97.2263 268.744 97.2263 269.159H95.9692C95.9692 268.52 96.1166 267.959 96.4114 267.476C96.7061 266.993 97.1074 266.616 97.6152 266.347C98.1266 266.077 98.7001 265.942 99.3357 265.942C99.9749 265.942 100.541 266.077 101.035 266.347C101.529 266.616 101.916 266.98 102.196 267.439C102.477 267.897 102.617 268.406 102.617 268.967C102.617 269.369 102.544 269.761 102.399 270.145C102.257 270.525 102.008 270.949 101.653 271.418C101.301 271.883 100.813 272.451 100.188 273.122L97.7377 275.743V275.828H102.809V277H95.9266ZM105.946 277.085C105.683 277.085 105.458 276.991 105.27 276.803C105.081 276.615 104.987 276.389 104.987 276.126C104.987 275.864 105.081 275.638 105.27 275.45C105.458 275.262 105.683 275.168 105.946 275.168C106.209 275.168 106.434 275.262 106.623 275.45C106.811 275.638 106.905 275.864 106.905 276.126C106.905 276.3 106.861 276.46 106.772 276.606C106.687 276.751 106.571 276.869 106.426 276.957C106.284 277.043 106.124 277.085 105.946 277.085ZM109.14 277V276.041L112.74 272.099C113.163 271.638 113.511 271.237 113.784 270.896C114.058 270.551 114.26 270.228 114.392 269.926C114.527 269.621 114.594 269.301 114.594 268.967C114.594 268.584 114.502 268.252 114.317 267.971C114.136 267.691 113.887 267.474 113.571 267.321C113.255 267.169 112.9 267.092 112.506 267.092C112.087 267.092 111.721 267.179 111.409 267.353C111.1 267.524 110.86 267.763 110.69 268.072C110.523 268.381 110.439 268.744 110.439 269.159H109.182C109.182 268.52 109.33 267.959 109.624 267.476C109.919 266.993 110.32 266.616 110.828 266.347C111.339 266.077 111.913 265.942 112.549 265.942C113.188 265.942 113.754 266.077 114.248 266.347C114.741 266.616 115.129 266.98 115.409 267.439C115.69 267.897 115.83 268.406 115.83 268.967C115.83 269.369 115.757 269.761 115.611 270.145C115.469 270.525 115.221 270.949 114.866 271.418C114.514 271.883 114.026 272.451 113.401 273.122L110.951 275.743V275.828H116.022V277H109.14ZM119.415 274.017L119.393 272.462H119.649L123.229 268.818H124.784L120.97 272.675H120.864L119.415 274.017ZM118.243 277V266.091H119.5V277H118.243ZM123.442 277L120.246 272.952L121.141 272.078L125.04 277H123.442ZM131.878 272.078V277H130.621V268.818H131.835V270.097H131.942C132.134 269.681 132.425 269.347 132.815 269.095C133.206 268.839 133.71 268.712 134.328 268.712C134.882 268.712 135.367 268.825 135.782 269.053C136.198 269.276 136.521 269.617 136.752 270.075C136.983 270.53 137.098 271.105 137.098 271.801V277H135.841V271.886C135.841 271.244 135.674 270.743 135.34 270.384C135.006 270.022 134.548 269.841 133.966 269.841C133.565 269.841 133.206 269.928 132.89 270.102C132.577 270.276 132.331 270.53 132.15 270.864C131.968 271.197 131.878 271.602 131.878 272.078ZM142.826 277.17C142.037 277.17 141.357 276.996 140.785 276.648C140.217 276.297 139.779 275.807 139.47 275.178C139.164 274.546 139.012 273.811 139.012 272.973C139.012 272.135 139.164 271.396 139.47 270.757C139.779 270.114 140.208 269.614 140.759 269.255C141.313 268.893 141.959 268.712 142.698 268.712C143.124 268.712 143.545 268.783 143.96 268.925C144.376 269.067 144.754 269.298 145.095 269.617C145.436 269.933 145.707 270.352 145.91 270.874C146.112 271.396 146.213 272.039 146.213 272.803V273.335H139.907V272.249H144.935C144.935 271.787 144.843 271.375 144.658 271.013C144.477 270.651 144.218 270.365 143.88 270.155C143.546 269.946 143.152 269.841 142.698 269.841C142.197 269.841 141.764 269.965 141.398 270.214C141.036 270.459 140.757 270.778 140.562 271.173C140.366 271.567 140.269 271.989 140.269 272.44V273.165C140.269 273.783 140.375 274.306 140.588 274.736C140.805 275.162 141.105 275.487 141.489 275.711C141.872 275.931 142.318 276.041 142.826 276.041C143.156 276.041 143.454 275.995 143.72 275.903C143.99 275.807 144.223 275.665 144.418 275.477C144.614 275.285 144.765 275.047 144.871 274.763L146.086 275.104C145.958 275.516 145.743 275.878 145.441 276.19C145.139 276.499 144.766 276.741 144.322 276.915C143.879 277.085 143.38 277.17 142.826 277.17ZM149.979 277L147.486 268.818H148.807L150.576 275.082H150.661L152.408 268.818H153.751L155.477 275.061H155.562L157.33 268.818H158.651L156.158 277H154.923L153.133 270.714H153.005L151.215 277H149.979ZM171.222 268.818L168.197 277H166.918L163.893 268.818H165.256L167.515 275.338H167.6L169.859 268.818H171.222ZM172.882 277V268.818H174.139V277H172.882ZM173.521 267.455C173.276 267.455 173.064 267.371 172.887 267.204C172.713 267.037 172.626 266.837 172.626 266.602C172.626 266.368 172.713 266.167 172.887 266C173.064 265.833 173.276 265.75 173.521 265.75C173.766 265.75 173.975 265.833 174.149 266C174.327 266.167 174.416 266.368 174.416 266.602C174.416 266.837 174.327 267.037 174.149 267.204C173.975 267.371 173.766 267.455 173.521 267.455ZM182.237 270.651L181.107 270.97C181.036 270.782 180.932 270.599 180.793 270.422C180.658 270.24 180.473 270.091 180.239 269.974C180.005 269.857 179.705 269.798 179.339 269.798C178.838 269.798 178.421 269.914 178.087 270.145C177.757 270.372 177.592 270.661 177.592 271.013C177.592 271.325 177.705 271.572 177.933 271.753C178.16 271.934 178.515 272.085 178.998 272.206L180.212 272.504C180.944 272.682 181.489 272.953 181.848 273.319C182.206 273.681 182.386 274.148 182.386 274.72C182.386 275.189 182.251 275.608 181.981 275.977C181.715 276.347 181.342 276.638 180.862 276.851C180.383 277.064 179.825 277.17 179.19 277.17C178.355 277.17 177.664 276.989 177.118 276.627C176.571 276.265 176.224 275.736 176.079 275.04L177.272 274.741C177.386 275.182 177.601 275.512 177.917 275.732C178.236 275.952 178.653 276.062 179.168 276.062C179.754 276.062 180.22 275.938 180.564 275.69C180.912 275.437 181.086 275.136 181.086 274.784C181.086 274.5 180.987 274.262 180.788 274.07C180.589 273.875 180.283 273.729 179.871 273.634L178.508 273.314C177.759 273.136 177.208 272.861 176.857 272.488C176.509 272.112 176.335 271.641 176.335 271.077C176.335 270.615 176.464 270.207 176.723 269.852C176.986 269.496 177.343 269.218 177.794 269.015C178.249 268.813 178.764 268.712 179.339 268.712C180.148 268.712 180.784 268.889 181.246 269.244C181.711 269.599 182.041 270.068 182.237 270.651ZM184.278 277V268.818H185.535V277H184.278ZM184.917 267.455C184.672 267.455 184.461 267.371 184.283 267.204C184.109 267.037 184.022 266.837 184.022 266.602C184.022 266.368 184.109 266.167 184.283 266C184.461 265.833 184.672 265.75 184.917 265.75C185.162 265.75 185.372 265.833 185.546 266C185.723 266.167 185.812 266.368 185.812 266.602C185.812 266.837 185.723 267.037 185.546 267.204C185.372 267.371 185.162 267.455 184.917 267.455ZM191.396 268.818V269.884H187.156V268.818H191.396ZM188.392 266.858H189.649V274.656C189.649 275.011 189.7 275.278 189.803 275.455C189.91 275.629 190.045 275.746 190.208 275.807C190.375 275.864 190.551 275.892 190.735 275.892C190.874 275.892 190.987 275.885 191.076 275.871C191.165 275.853 191.236 275.839 191.289 275.828L191.545 276.957C191.46 276.989 191.341 277.021 191.188 277.053C191.035 277.089 190.842 277.107 190.607 277.107C190.252 277.107 189.904 277.03 189.563 276.877C189.226 276.725 188.946 276.492 188.722 276.18C188.502 275.867 188.392 275.473 188.392 274.997V266.858ZM198.936 270.651L197.807 270.97C197.735 270.782 197.631 270.599 197.492 270.422C197.357 270.24 197.173 270.091 196.938 269.974C196.704 269.857 196.404 269.798 196.038 269.798C195.537 269.798 195.12 269.914 194.786 270.145C194.456 270.372 194.291 270.661 194.291 271.013C194.291 271.325 194.405 271.572 194.632 271.753C194.859 271.934 195.214 272.085 195.697 272.206L196.912 272.504C197.643 272.682 198.188 272.953 198.547 273.319C198.906 273.681 199.085 274.148 199.085 274.72C199.085 275.189 198.95 275.608 198.68 275.977C198.414 276.347 198.041 276.638 197.561 276.851C197.082 277.064 196.525 277.17 195.889 277.17C195.054 277.17 194.364 276.989 193.817 276.627C193.27 276.265 192.924 275.736 192.778 275.04L193.971 274.741C194.085 275.182 194.3 275.512 194.616 275.732C194.935 275.952 195.353 276.062 195.868 276.062C196.454 276.062 196.919 275.938 197.263 275.69C197.611 275.437 197.785 275.136 197.785 274.784C197.785 274.5 197.686 274.262 197.487 274.07C197.288 273.875 196.983 273.729 196.571 273.634L195.207 273.314C194.458 273.136 193.907 272.861 193.556 272.488C193.208 272.112 193.034 271.641 193.034 271.077C193.034 270.615 193.163 270.207 193.423 269.852C193.685 269.496 194.042 269.218 194.493 269.015C194.948 268.813 195.463 268.712 196.038 268.712C196.848 268.712 197.483 268.889 197.945 269.244C198.41 269.599 198.74 270.068 198.936 270.651Z" fill="#2E263D" fill-opacity="0.7"/>
<path d="M101.5 303C101.5 296.373 106.873 291 113.5 291H171.5C178.127 291 183.5 296.373 183.5 303C183.5 309.627 178.127 315 171.5 315H113.5C106.873 315 101.5 309.627 101.5 303Z" fill="#16B1FF" fill-opacity="0.16"/>
<path d="M114.229 299.773V298.545H121.546V299.773H118.596V308H117.174V299.773H114.229ZM124.432 303.79V308H123.052V298.545H124.414V302.063H124.502C124.668 301.682 124.922 301.378 125.263 301.154C125.605 300.929 126.051 300.817 126.602 300.817C127.088 300.817 127.513 300.917 127.876 301.117C128.242 301.317 128.526 301.615 128.726 302.012C128.929 302.406 129.03 302.899 129.03 303.49V308H127.65V303.656C127.65 303.136 127.516 302.733 127.248 302.446C126.981 302.157 126.608 302.012 126.131 302.012C125.805 302.012 125.513 302.082 125.254 302.22C124.999 302.359 124.797 302.562 124.649 302.83C124.505 303.094 124.432 303.414 124.432 303.79ZM130.872 308V300.909H132.253V308H130.872ZM131.569 299.815C131.329 299.815 131.123 299.735 130.951 299.575C130.781 299.412 130.697 299.218 130.697 298.993C130.697 298.766 130.781 298.572 130.951 298.412C131.123 298.248 131.329 298.167 131.569 298.167C131.809 298.167 132.014 298.248 132.183 298.412C132.356 298.572 132.442 298.766 132.442 298.993C132.442 299.218 132.356 299.412 132.183 299.575C132.014 299.735 131.809 299.815 131.569 299.815ZM139.423 302.64L138.172 302.862C138.12 302.702 138.037 302.549 137.923 302.405C137.812 302.26 137.661 302.142 137.47 302.049C137.28 301.957 137.041 301.911 136.755 301.911C136.364 301.911 136.038 301.999 135.776 302.174C135.515 302.346 135.384 302.569 135.384 302.843C135.384 303.08 135.471 303.271 135.647 303.416C135.822 303.56 136.105 303.679 136.496 303.771L137.623 304.03C138.275 304.181 138.761 304.413 139.081 304.727C139.402 305.041 139.562 305.449 139.562 305.95C139.562 306.375 139.439 306.754 139.192 307.086C138.949 307.415 138.609 307.674 138.172 307.862C137.738 308.049 137.235 308.143 136.662 308.143C135.868 308.143 135.221 307.974 134.719 307.635C134.217 307.294 133.91 306.809 133.796 306.181L135.13 305.978C135.213 306.326 135.384 306.589 135.642 306.767C135.901 306.943 136.238 307.031 136.653 307.031C137.106 307.031 137.467 306.937 137.738 306.749C138.009 306.558 138.144 306.326 138.144 306.052C138.144 305.83 138.061 305.644 137.895 305.493C137.732 305.342 137.481 305.229 137.143 305.152L135.942 304.888C135.281 304.738 134.791 304.498 134.474 304.168C134.16 303.839 134.003 303.422 134.003 302.917C134.003 302.499 134.12 302.132 134.354 301.819C134.588 301.505 134.911 301.26 135.324 301.085C135.736 300.906 136.209 300.817 136.741 300.817C137.507 300.817 138.11 300.983 138.551 301.315C138.991 301.645 139.282 302.086 139.423 302.64ZM143.901 298.545H145.521L147.991 302.843H148.093L150.563 298.545H152.183L148.753 304.288V308H147.331V304.288L143.901 298.545ZM155.307 308.143C154.609 308.143 154.007 307.994 153.502 307.695C153.001 307.394 152.613 306.971 152.339 306.426C152.068 305.878 151.933 305.236 151.933 304.501C151.933 303.774 152.068 303.134 152.339 302.58C152.613 302.026 152.994 301.594 153.484 301.283C153.976 300.972 154.552 300.817 155.21 300.817C155.61 300.817 155.998 300.883 156.374 301.015C156.749 301.148 157.086 301.355 157.385 301.638C157.683 301.922 157.919 302.289 158.091 302.742C158.263 303.191 158.35 303.737 158.35 304.381V304.87H152.713V303.836H156.997C156.997 303.473 156.923 303.151 156.775 302.871C156.628 302.588 156.42 302.365 156.152 302.202C155.887 302.039 155.577 301.957 155.22 301.957C154.832 301.957 154.493 302.052 154.204 302.243C153.918 302.431 153.696 302.677 153.539 302.982C153.385 303.283 153.308 303.611 153.308 303.965V304.773C153.308 305.247 153.391 305.65 153.558 305.983C153.727 306.315 153.962 306.569 154.264 306.744C154.566 306.917 154.918 307.003 155.321 307.003C155.583 307.003 155.821 306.966 156.037 306.892C156.252 306.815 156.438 306.701 156.595 306.55C156.752 306.4 156.872 306.213 156.955 305.992L158.262 306.227C158.157 306.612 157.969 306.949 157.699 307.238C157.431 307.525 157.094 307.748 156.688 307.908C156.284 308.065 155.824 308.143 155.307 308.143ZM161.945 308.157C161.495 308.157 161.089 308.074 160.726 307.908C160.363 307.738 160.075 307.494 159.863 307.174C159.653 306.854 159.549 306.461 159.549 305.996C159.549 305.596 159.626 305.267 159.779 305.009C159.933 304.75 160.141 304.545 160.403 304.395C160.664 304.244 160.957 304.13 161.28 304.053C161.603 303.976 161.932 303.917 162.268 303.877C162.692 303.828 163.037 303.788 163.302 303.757C163.567 303.724 163.759 303.67 163.879 303.596C163.999 303.522 164.059 303.402 164.059 303.236V303.203C164.059 302.8 163.945 302.488 163.717 302.266C163.493 302.045 163.157 301.934 162.711 301.934C162.246 301.934 161.88 302.037 161.612 302.243C161.348 302.446 161.164 302.673 161.063 302.922L159.766 302.626C159.92 302.196 160.144 301.848 160.44 301.583C160.738 301.315 161.081 301.121 161.469 301.001C161.857 300.878 162.265 300.817 162.692 300.817C162.976 300.817 163.276 300.851 163.593 300.918C163.913 300.983 164.211 301.103 164.488 301.278C164.768 301.454 164.998 301.705 165.176 302.031C165.355 302.354 165.444 302.774 165.444 303.291V308H164.096V307.031H164.04C163.951 307.209 163.817 307.384 163.639 307.557C163.46 307.729 163.231 307.872 162.951 307.986C162.671 308.1 162.335 308.157 161.945 308.157ZM162.245 307.049C162.626 307.049 162.953 306.974 163.223 306.823C163.497 306.672 163.705 306.475 163.847 306.232C163.991 305.986 164.064 305.723 164.064 305.442V304.528C164.014 304.578 163.919 304.624 163.777 304.667C163.639 304.707 163.48 304.742 163.302 304.773C163.123 304.801 162.949 304.827 162.78 304.852C162.611 304.873 162.469 304.892 162.355 304.907C162.088 304.941 161.843 304.998 161.621 305.078C161.403 305.158 161.228 305.273 161.095 305.424C160.966 305.572 160.901 305.769 160.901 306.015C160.901 306.357 161.027 306.615 161.28 306.79C161.532 306.963 161.854 307.049 162.245 307.049ZM167.282 308V300.909H168.617V302.036H168.69C168.82 301.654 169.047 301.354 169.374 301.135C169.703 300.914 170.075 300.803 170.491 300.803C170.577 300.803 170.679 300.806 170.796 300.812C170.916 300.818 171.009 300.826 171.077 300.835V302.156C171.022 302.14 170.923 302.123 170.782 302.105C170.64 302.083 170.499 302.072 170.357 302.072C170.031 302.072 169.74 302.142 169.484 302.28C169.232 302.416 169.032 302.605 168.884 302.848C168.737 303.088 168.663 303.362 168.663 303.67V308H167.282Z" fill="#16B1FF"/>
</g>
</g>
<defs>
<filter id="filter0_d_8003_4687" x="0" y="0" width="285" height="349" filterUnits="userSpaceOnUse" color-interpolation-filters="sRGB">
<feFlood flood-opacity="0" result="BackgroundImageFix"/>
<feColorMatrix in="SourceAlpha" type="matrix" values="0 0 0 0 0 0 0 0 0 0 0 0 0 0 0 0 0 0 127 0" result="hardAlpha"/>
<feOffset dy="4"/>
<feGaussianBlur stdDeviation="5"/>
<feComposite in2="hardAlpha" operator="out"/>
<feColorMatrix type="matrix" values="0 0 0 0 0.180392 0 0 0 0 0.14902 0 0 0 0 0.239216 0 0 0 0.2 0"/>
<feBlend mode="normal" in2="BackgroundImageFix" result="effect1_dropShadow_8003_4687"/>
<feBlend mode="normal" in="SourceGraphic" in2="effect1_dropShadow_8003_4687" result="shape"/>
</filter>
<linearGradient id="paint0_linear_8003_4687" x1="90" y1="210.5" x2="191.5" y2="222.5" gradientUnits="userSpaceOnUse">
<stop stop-color="#16B1FF"/>
<stop offset="1" stop-color="#16B1FF" stop-opacity="0"/>
</linearGradient>
<clipPath id="clip0_8003_4687">
<path d="M10 12C10 8.68628 12.6863 6 16 6H269C272.314 6 275 8.68629 275 12V329C275 332.314 272.314 335 269 335H16C12.6863 335 10 332.314 10 329V12Z" fill="white"/>
</clipPath>
</defs>
</svg>
