<svg width="189" height="232" viewBox="0 0 189 232" fill="none" xmlns="http://www.w3.org/2000/svg">
<g filter="url(#filter0_d_8003_4405)">
<path d="M10 12C10 8.68629 12.6863 6 16 6H172.667C175.98 6 178.667 8.68629 178.667 12V212C178.667 215.314 175.98 218 172.667 218H16C12.6863 218 10 215.314 10 212V12Z" fill="white" shape-rendering="crispEdges"/>
<path d="M37.0653 56.1818V34.3636H38.4631V56.1818H37.0653ZM41.4375 41.1307C41.3466 40.3239 40.9716 39.6989 40.3125 39.2557C39.6534 38.8068 38.8239 38.5824 37.8239 38.5824C37.108 38.5824 36.4886 38.696 35.9659 38.9233C35.4432 39.1449 35.0369 39.4517 34.7472 39.8438C34.4631 40.2301 34.321 40.6705 34.321 41.1648C34.321 41.5795 34.4176 41.9375 34.6108 42.2386C34.8097 42.5398 35.0682 42.7926 35.3864 42.9972C35.7102 43.196 36.0568 43.3636 36.4261 43.5C36.7955 43.6307 37.1506 43.7386 37.4915 43.8239L39.196 44.267C39.7528 44.4034 40.3239 44.5881 40.9091 44.821C41.4943 45.054 42.0369 45.3608 42.5369 45.7415C43.0369 46.1222 43.4403 46.5938 43.7472 47.1562C44.0597 47.7188 44.2159 48.392 44.2159 49.1761C44.2159 50.1648 43.9602 51.0426 43.4489 51.8097C42.9432 52.5767 42.2074 53.1818 41.2415 53.625C40.2813 54.0682 39.1193 54.2898 37.7557 54.2898C36.4489 54.2898 35.3182 54.0824 34.3636 53.6676C33.4091 53.2528 32.6619 52.6648 32.1222 51.9034C31.5824 51.1364 31.2841 50.2273 31.2273 49.1761H33.8693C33.9205 49.8068 34.125 50.3324 34.483 50.7528C34.8466 51.1676 35.3097 51.4773 35.8722 51.6818C36.4403 51.8807 37.0625 51.9801 37.7386 51.9801C38.483 51.9801 39.1449 51.8636 39.7244 51.6307C40.3097 51.392 40.7699 51.0625 41.1051 50.642C41.4403 50.2159 41.608 49.7187 41.608 49.1506C41.608 48.6335 41.4602 48.2102 41.1648 47.8807C40.875 47.5511 40.4801 47.2784 39.9801 47.0625C39.4858 46.8466 38.9261 46.6562 38.3011 46.4915L36.2386 45.929C34.8409 45.5483 33.733 44.9886 32.9148 44.25C32.1023 43.5114 31.696 42.5341 31.696 41.3182C31.696 40.3125 31.9688 39.4347 32.5142 38.6847C33.0597 37.9347 33.7983 37.3523 34.7301 36.9375C35.6619 36.517 36.7131 36.3068 37.8835 36.3068C39.0653 36.3068 40.108 36.5142 41.0114 36.929C41.9205 37.3438 42.6364 37.9148 43.1591 38.642C43.6818 39.3636 43.9545 40.1932 43.9773 41.1307H41.4375ZM53.201 54.2386C52.0305 54.2386 50.9851 54.0369 50.0646 53.6335C49.1499 53.2301 48.4254 52.6705 47.8913 51.9545C47.3629 51.233 47.0788 50.3977 47.0391 49.4489H49.7152C49.7493 49.9659 49.9226 50.4148 50.2351 50.7955C50.5533 51.1705 50.968 51.4602 51.4794 51.6648C51.9908 51.8693 52.5589 51.9716 53.1839 51.9716C53.8714 51.9716 54.4794 51.8523 55.0078 51.6136C55.5419 51.375 55.9595 51.0426 56.2607 50.6165C56.5618 50.1847 56.7124 49.6875 56.7124 49.125C56.7124 48.5398 56.5618 48.0256 56.2607 47.5824C55.9652 47.1335 55.5305 46.7812 54.9567 46.5256C54.3885 46.2699 53.701 46.142 52.8942 46.142H51.4197V43.9943H52.8942C53.5419 43.9943 54.1101 43.8778 54.5987 43.6449C55.093 43.4119 55.4794 43.0881 55.7578 42.6733C56.0362 42.2528 56.1754 41.7614 56.1754 41.1989C56.1754 40.6591 56.0533 40.1903 55.8089 39.7926C55.5703 39.3892 55.2294 39.0739 54.7862 38.8466C54.3487 38.6193 53.8317 38.5057 53.2351 38.5057C52.6669 38.5057 52.1357 38.6108 51.6413 38.821C51.1527 39.0256 50.755 39.321 50.4482 39.7074C50.1413 40.0881 49.9766 40.5455 49.9538 41.0795H47.4055C47.4339 40.1364 47.7124 39.3068 48.2408 38.5909C48.7749 37.875 49.4794 37.3153 50.3544 36.9119C51.2294 36.5085 52.201 36.3068 53.2692 36.3068C54.3885 36.3068 55.3544 36.5256 56.1669 36.9631C56.9851 37.3949 57.6158 37.9716 58.0589 38.6932C58.5078 39.4148 58.7294 40.2045 58.7237 41.0625C58.7294 42.0398 58.4567 42.8693 57.9055 43.5511C57.3601 44.233 56.6328 44.6903 55.7237 44.9233V45.0597C56.8828 45.2358 57.7805 45.696 58.4169 46.4403C59.0589 47.1847 59.3771 48.108 59.3714 49.2102C59.3771 50.1705 59.1101 51.0312 58.5703 51.7926C58.0362 52.554 57.3061 53.1534 56.38 53.5909C55.4538 54.0227 54.3942 54.2386 53.201 54.2386ZM68.3544 54.2386C67.2862 54.2386 66.326 54.0341 65.4737 53.625C64.6271 53.2102 63.951 52.642 63.4453 51.9205C62.9396 51.1989 62.6697 50.375 62.6357 49.4489H65.1925C65.255 50.1989 65.5874 50.8153 66.1896 51.2983C66.7919 51.7812 67.5135 52.0227 68.3544 52.0227C69.0249 52.0227 69.6186 51.8693 70.1357 51.5625C70.6584 51.25 71.0675 50.821 71.3629 50.2756C71.6641 49.7301 71.8146 49.108 71.8146 48.4091C71.8146 47.6989 71.6612 47.0653 71.3544 46.5085C71.0476 45.9517 70.6243 45.5142 70.0845 45.196C69.5504 44.8778 68.9368 44.7159 68.2436 44.7102C67.7152 44.7102 67.1839 44.8011 66.6499 44.983C66.1158 45.1648 65.6839 45.4034 65.3544 45.6989L62.9425 45.3409L63.9226 36.5455H73.5192V38.804H66.1129L65.5589 43.6875H65.6612C66.0021 43.358 66.4538 43.0824 67.0163 42.8608C67.5845 42.6392 68.1925 42.5284 68.8402 42.5284C69.9027 42.5284 70.8487 42.7812 71.6783 43.2869C72.5135 43.7926 73.1697 44.483 73.647 45.358C74.13 46.2273 74.3686 47.2273 74.3629 48.358C74.3686 49.4886 74.1129 50.4972 73.5959 51.3835C73.0845 52.2699 72.3743 52.9687 71.4652 53.4801C70.5618 53.9858 69.5249 54.2386 68.3544 54.2386ZM78.5561 54.1619C78.0902 54.1619 77.6896 53.9972 77.3544 53.6676C77.0192 53.3324 76.8516 52.929 76.8516 52.4574C76.8516 51.9915 77.0192 51.5937 77.3544 51.2642C77.6896 50.929 78.0902 50.7614 78.5561 50.7614C79.022 50.7614 79.4226 50.929 79.7578 51.2642C80.093 51.5937 80.2607 51.9915 80.2607 52.4574C80.2607 52.7699 80.1811 53.0568 80.022 53.3182C79.8686 53.5739 79.6641 53.7784 79.4084 53.9318C79.1527 54.0852 78.8686 54.1619 78.5561 54.1619ZM83.2734 50.5909V48.4602L90.8161 36.5455H92.495V39.6818H91.4297L86.0348 48.2216V48.358H96.3729V50.5909H83.2734ZM91.549 54V49.9432L91.5661 48.9716V36.5455H94.0632V54H91.549ZM101.721 49.5597L101.704 46.4489H102.147L107.363 40.9091H110.414L104.465 47.2159H104.065L101.721 49.5597ZM99.3771 54V36.5455H101.925V54H99.3771ZM107.644 54L102.957 47.7784L104.712 45.9972L110.772 54H107.644Z" fill="#2E263D" fill-opacity="0.9"/>
<g filter="url(#filter1_d_8003_4405)">
<path d="M30 160C34.2095 157.793 43.9322 150.2 49.1466 137.486C55.6646 121.594 64.2195 96.4319 80.9218 116.959C97.6242 137.486 110.66 153.378 124.104 116.959C134.858 87.8237 143.793 87.1615 146.917 90.4723" stroke="#8C57FF" stroke-width="5" stroke-linecap="round"/>
</g>
<path d="M150.666 82C153.98 82.0001 156.667 84.6865 156.667 88C156.667 91.3135 153.98 93.9999 150.666 94C147.352 94 144.665 91.3135 144.665 88C144.665 84.6865 147.352 82 150.666 82Z" fill="white" stroke="#8C57FF" stroke-width="4"/>
<path d="M44.3469 182.508V181.091H52.7897V182.508H49.3859V192H47.7453V182.508H44.3469ZM56.7874 192.165C56.0203 192.165 55.351 191.989 54.7792 191.638C54.2075 191.286 53.7636 190.794 53.4475 190.162C53.1315 189.53 52.9735 188.792 52.9735 187.946C52.9735 187.098 53.1315 186.355 53.4475 185.72C53.7636 185.084 54.2075 184.591 54.7792 184.239C55.351 183.887 56.0203 183.712 56.7874 183.712C57.5544 183.712 58.2238 183.887 58.7956 184.239C59.3673 184.591 59.8112 185.084 60.1272 185.72C60.4433 186.355 60.6013 187.098 60.6013 187.946C60.6013 188.792 60.4433 189.53 60.1272 190.162C59.8112 190.794 59.3673 191.286 58.7956 191.638C58.2238 191.989 57.5544 192.165 56.7874 192.165ZM56.7927 190.828C57.2899 190.828 57.7018 190.697 58.0285 190.434C58.3552 190.171 58.5967 189.821 58.7529 189.385C58.9127 188.948 58.9926 188.467 58.9926 187.941C58.9926 187.419 58.9127 186.94 58.7529 186.503C58.5967 186.062 58.3552 185.709 58.0285 185.443C57.7018 185.176 57.2899 185.043 56.7927 185.043C56.292 185.043 55.8765 185.176 55.5463 185.443C55.2196 185.709 54.9763 186.062 54.8165 186.503C54.6603 186.94 54.5821 187.419 54.5821 187.941C54.5821 188.467 54.6603 188.948 54.8165 189.385C54.9763 189.821 55.2196 190.171 55.5463 190.434C55.8765 190.697 56.292 190.828 56.7927 190.828ZM66.1983 183.818V185.097H61.7292V183.818H66.1983ZM62.9278 181.858H64.5204V189.598C64.5204 189.907 64.5666 190.139 64.6589 190.295C64.7513 190.448 64.8702 190.553 65.0158 190.61C65.165 190.663 65.3265 190.69 65.5006 190.69C65.6284 190.69 65.7403 190.681 65.8361 190.663C65.932 190.645 66.0066 190.631 66.0599 190.62L66.3475 191.936C66.2552 191.972 66.1238 192.007 65.9533 192.043C65.7829 192.082 65.5698 192.103 65.3141 192.107C64.8951 192.114 64.5045 192.039 64.1422 191.883C63.78 191.727 63.4871 191.485 63.2633 191.158C63.0396 190.832 62.9278 190.422 62.9278 189.928V181.858ZM70.3412 192.181C69.8227 192.181 69.354 192.085 68.9349 191.893C68.5159 191.698 68.1839 191.416 67.9388 191.047C67.6974 190.677 67.5766 190.224 67.5766 189.688C67.5766 189.227 67.6654 188.847 67.843 188.548C68.0205 188.25 68.2602 188.014 68.5621 187.84C68.8639 187.666 69.2013 187.534 69.5741 187.446C69.947 187.357 70.327 187.289 70.7141 187.243C71.2041 187.186 71.6018 187.14 71.9072 187.105C72.2126 187.066 72.4346 187.004 72.5731 186.918C72.7116 186.833 72.7808 186.695 72.7808 186.503V186.466C72.7808 186 72.6494 185.64 72.3866 185.384C72.1274 185.129 71.7403 185.001 71.2254 185.001C70.6892 185.001 70.2666 185.12 69.9577 185.358C69.6523 185.592 69.441 185.853 69.3238 186.141L67.827 185.8C68.0045 185.303 68.2638 184.901 68.6047 184.596C68.9491 184.287 69.3451 184.063 69.7925 183.925C70.24 183.783 70.7105 183.712 71.2041 183.712C71.5308 183.712 71.8771 183.751 72.2428 183.829C72.6121 183.903 72.9566 184.042 73.2762 184.244C73.5994 184.447 73.8639 184.736 74.0699 185.113C74.2759 185.485 74.3788 185.97 74.3788 186.567V192H72.8234V190.881H72.7595C72.6565 191.087 72.5021 191.29 72.2961 191.489C72.0901 191.687 71.8256 191.853 71.5024 191.984C71.1793 192.115 70.7922 192.181 70.3412 192.181ZM70.6874 190.903C71.1278 190.903 71.5042 190.816 71.8167 190.642C72.1327 190.468 72.3724 190.24 72.5358 189.96C72.7027 189.676 72.7862 189.372 72.7862 189.049V187.994C72.7293 188.051 72.6192 188.104 72.4559 188.154C72.2961 188.2 72.1132 188.241 71.9072 188.277C71.7013 188.309 71.5006 188.339 71.3053 188.367C71.11 188.392 70.9467 188.413 70.8153 188.431C70.5063 188.47 70.224 188.536 69.9683 188.628C69.7162 188.721 69.5138 188.854 69.3611 189.028C69.2119 189.198 69.1374 189.425 69.1374 189.71C69.1374 190.104 69.283 190.402 69.5741 190.604C69.8653 190.803 70.2364 190.903 70.6874 190.903ZM78.0929 181.091V192H76.5002V181.091H78.0929ZM84.3331 192V181.091H88.2216C89.0668 181.091 89.7681 181.237 90.3257 181.528C90.8867 181.819 91.3058 182.222 91.5828 182.737C91.8597 183.248 91.9982 183.839 91.9982 184.511C91.9982 185.178 91.858 185.766 91.5774 186.274C91.3004 186.778 90.8814 187.17 90.3203 187.451C89.7628 187.732 89.0615 187.872 88.2163 187.872H85.2706V186.455H88.0671C88.5998 186.455 89.033 186.379 89.3668 186.226C89.7042 186.073 89.951 185.851 90.1073 185.56C90.2635 185.269 90.3416 184.919 90.3416 184.511C90.3416 184.099 90.2617 183.742 90.1019 183.44C89.9457 183.138 89.6989 182.907 89.3615 182.748C89.0277 182.584 88.5892 182.502 88.0458 182.502H85.9791V192H84.3331ZM89.7184 187.078L92.4137 192H90.5387L87.8967 187.078H89.7184ZM97.297 192.165C96.4909 192.165 95.7966 191.993 95.2142 191.648C94.6354 191.3 94.188 190.812 93.8719 190.184C93.5594 189.551 93.4032 188.811 93.4032 187.962C93.4032 187.124 93.5594 186.386 93.8719 185.746C94.188 185.107 94.6283 184.608 95.1929 184.25C95.7611 183.891 96.4252 183.712 97.1851 183.712C97.6468 183.712 98.0942 183.788 98.5275 183.941C98.9607 184.093 99.3495 184.333 99.694 184.66C100.038 184.987 100.31 185.411 100.509 185.933C100.708 186.451 100.807 187.082 100.807 187.824V188.388H94.3034V187.195H99.2466C99.2466 186.776 99.1613 186.405 98.9909 186.082C98.8204 185.755 98.5807 185.498 98.2718 185.31C97.9664 185.121 97.6077 185.027 97.1958 185.027C96.7483 185.027 96.3577 185.137 96.0239 185.358C95.6936 185.574 95.438 185.858 95.2569 186.21C95.0793 186.558 94.9905 186.936 94.9905 187.344V188.277C94.9905 188.824 95.0864 189.289 95.2782 189.672C95.4735 190.056 95.7451 190.349 96.0931 190.551C96.4412 190.75 96.8478 190.849 97.313 190.849C97.6148 190.849 97.89 190.807 98.1386 190.722C98.3872 190.633 98.602 190.501 98.7831 190.327C98.9642 190.153 99.1027 189.939 99.1986 189.683L100.706 189.955C100.585 190.398 100.369 190.787 100.056 191.121C99.7473 191.451 99.3584 191.709 98.8897 191.893C98.4245 192.075 97.8936 192.165 97.297 192.165ZM109.339 183.818L106.372 192H104.668L101.696 183.818H103.405L105.477 190.114H105.563L107.629 183.818H109.339ZM114.084 192.165C113.278 192.165 112.584 191.993 112.001 191.648C111.423 191.3 110.975 190.812 110.659 190.184C110.347 189.551 110.19 188.811 110.19 187.962C110.19 187.124 110.347 186.386 110.659 185.746C110.975 185.107 111.415 184.608 111.98 184.25C112.548 183.891 113.212 183.712 113.972 183.712C114.434 183.712 114.881 183.788 115.315 183.941C115.748 184.093 116.137 184.333 116.481 184.66C116.826 184.987 117.097 185.411 117.296 185.933C117.495 186.451 117.594 187.082 117.594 187.824V188.388H111.09V187.195H116.034C116.034 186.776 115.948 186.405 115.778 186.082C115.608 185.755 115.368 185.498 115.059 185.31C114.753 185.121 114.395 185.027 113.983 185.027C113.535 185.027 113.145 185.137 112.811 185.358C112.481 185.574 112.225 185.858 112.044 186.21C111.866 186.558 111.778 186.936 111.778 187.344V188.277C111.778 188.824 111.874 189.289 112.065 189.672C112.261 190.056 112.532 190.349 112.88 190.551C113.228 190.75 113.635 190.849 114.1 190.849C114.402 190.849 114.677 190.807 114.926 190.722C115.174 190.633 115.389 190.501 115.57 190.327C115.751 190.153 115.89 189.939 115.986 189.683L117.493 189.955C117.372 190.398 117.156 190.787 116.843 191.121C116.534 191.451 116.146 191.709 115.677 191.893C115.212 192.075 114.681 192.165 114.084 192.165ZM120.954 187.142V192H119.362V183.818H120.89V185.15H120.991C121.18 184.717 121.474 184.369 121.876 184.106C122.281 183.843 122.79 183.712 123.404 183.712C123.962 183.712 124.45 183.829 124.869 184.063C125.288 184.294 125.613 184.638 125.844 185.097C126.075 185.555 126.19 186.121 126.19 186.796V192H124.598V186.988C124.598 186.395 124.443 185.931 124.134 185.597C123.825 185.26 123.401 185.091 122.861 185.091C122.492 185.091 122.163 185.171 121.876 185.331C121.592 185.491 121.366 185.725 121.199 186.034C121.036 186.339 120.954 186.709 120.954 187.142ZM133.509 188.607V183.818H135.107V192H133.541V190.583H133.456C133.268 191.02 132.966 191.384 132.55 191.675C132.139 191.963 131.625 192.107 131.011 192.107C130.485 192.107 130.02 191.991 129.615 191.76C129.214 191.526 128.898 191.18 128.667 190.722C128.44 190.263 128.326 189.697 128.326 189.022V183.818H129.919V188.831C129.919 189.388 130.074 189.832 130.382 190.162C130.691 190.493 131.093 190.658 131.586 190.658C131.885 190.658 132.181 190.583 132.476 190.434C132.774 190.285 133.021 190.059 133.216 189.757C133.415 189.456 133.513 189.072 133.509 188.607ZM140.774 192.165C139.967 192.165 139.273 191.993 138.691 191.648C138.112 191.3 137.665 190.812 137.348 190.184C137.036 189.551 136.88 188.811 136.88 187.962C136.88 187.124 137.036 186.386 137.348 185.746C137.665 185.107 138.105 184.608 138.669 184.25C139.238 183.891 139.902 183.712 140.662 183.712C141.123 183.712 141.571 183.788 142.004 183.941C142.437 184.093 142.826 184.333 143.171 184.66C143.515 184.987 143.787 185.411 143.986 185.933C144.184 186.451 144.284 187.082 144.284 187.824V188.388H137.78V187.195H142.723C142.723 186.776 142.638 186.405 142.467 186.082C142.297 185.755 142.057 185.498 141.748 185.31C141.443 185.121 141.084 185.027 140.672 185.027C140.225 185.027 139.834 185.137 139.5 185.358C139.17 185.574 138.915 185.858 138.733 186.21C138.556 186.558 138.467 186.936 138.467 187.344V188.277C138.467 188.824 138.563 189.289 138.755 189.672C138.95 190.056 139.222 190.349 139.57 190.551C139.918 190.75 140.324 190.849 140.79 190.849C141.091 190.849 141.367 190.807 141.615 190.722C141.864 190.633 142.079 190.501 142.26 190.327C142.441 190.153 142.579 189.939 142.675 189.683L144.183 189.955C144.062 190.398 143.845 190.787 143.533 191.121C143.224 191.451 142.835 191.709 142.366 191.893C141.901 192.075 141.37 192.165 140.774 192.165Z" fill="#2E263D" fill-opacity="0.9"/>
</g>
<defs>
<filter id="filter0_d_8003_4405" x="0" y="0" width="188.667" height="232" filterUnits="userSpaceOnUse" color-interpolation-filters="sRGB">
<feFlood flood-opacity="0" result="BackgroundImageFix"/>
<feColorMatrix in="SourceAlpha" type="matrix" values="0 0 0 0 0 0 0 0 0 0 0 0 0 0 0 0 0 0 127 0" result="hardAlpha"/>
<feOffset dy="4"/>
<feGaussianBlur stdDeviation="5"/>
<feComposite in2="hardAlpha" operator="out"/>
<feColorMatrix type="matrix" values="0 0 0 0 0.180392 0 0 0 0 0.14902 0 0 0 0 0.239216 0 0 0 0.2 0"/>
<feBlend mode="normal" in2="BackgroundImageFix" result="effect1_dropShadow_8003_4405"/>
<feBlend mode="normal" in="SourceGraphic" in2="effect1_dropShadow_8003_4405" result="shape"/>
</filter>
<filter id="filter1_d_8003_4405" x="22.4995" y="86.6138" width="137.917" height="95.8867" filterUnits="userSpaceOnUse" color-interpolation-filters="sRGB">
<feFlood flood-opacity="0" result="BackgroundImageFix"/>
<feColorMatrix in="SourceAlpha" type="matrix" values="0 0 0 0 0 0 0 0 0 0 0 0 0 0 0 0 0 0 127 0" result="hardAlpha"/>
<feOffset dx="3" dy="12"/>
<feGaussianBlur stdDeviation="4"/>
<feComposite in2="hardAlpha" operator="out"/>
<feColorMatrix type="matrix" values="0 0 0 0 0.568627 0 0 0 0 0.333333 0 0 0 0 0.992157 0 0 0 0.14 0"/>
<feBlend mode="normal" in2="BackgroundImageFix" result="effect1_dropShadow_8003_4405"/>
<feBlend mode="normal" in="SourceGraphic" in2="effect1_dropShadow_8003_4405" result="shape"/>
</filter>
</defs>
</svg>
