<svg width="189" height="208" viewBox="0 0 189 208" fill="none" xmlns="http://www.w3.org/2000/svg">
<g filter="url(#filter0_d_8003_4390)">
<path d="M10 12C10 8.68629 12.6863 6 16 6H172.667C175.98 6 178.667 8.68629 178.667 12V188C178.667 191.314 175.98 194 172.667 194H16C12.6863 194 10 191.314 10 188V12Z" fill="white" shape-rendering="crispEdges"/>
<g filter="url(#filter1_d_8003_4390)">
<rect x="30" y="26" width="40" height="40" rx="20" fill="#8A8D93"/>
<path d="M49 34.543C49.33 34.514 49.663 34.5 50 34.5C56.351 34.5 61.5 39.649 61.5 46C61.5 46.337 61.486 46.67 61.457 47H59.951C59.449 52.053 55.185 56 50 56C44.477 56 40 51.523 40 46C40 40.815 43.947 36.551 49 36.05V34.542V34.543ZM49 47V38.062C46.9827 38.3187 45.1389 39.3339 43.8432 40.9012C42.5475 42.4686 41.8973 44.4705 42.0246 46.5C42.152 48.5296 43.0473 50.4345 44.5287 51.8276C46.0102 53.2207 47.9664 53.9975 50 54C51.9486 54 53.8302 53.2888 55.2917 52C56.7533 50.7112 57.6942 48.9333 57.938 47H49ZM59.448 45C59.2187 42.8379 58.255 40.8198 56.7176 39.2824C55.1802 37.745 53.1621 36.7813 51 36.552V45H59.448Z" fill="white"/>
</g>
<path d="M146.667 29C145.842 29 145.167 29.675 145.167 30.5C145.167 31.325 145.842 32 146.667 32C147.492 32 148.167 31.325 148.167 30.5C148.167 29.675 147.492 29 146.667 29ZM146.667 44C145.842 44 145.167 44.675 145.167 45.5C145.167 46.325 145.842 47 146.667 47C147.492 47 148.167 46.325 148.167 45.5C148.167 44.675 147.492 44 146.667 44ZM146.667 36.5C145.842 36.5 145.167 37.175 145.167 38C145.167 38.825 145.842 39.5 146.667 39.5C147.492 39.5 148.167 38.825 148.167 38C148.167 37.175 147.492 36.5 146.667 36.5Z" fill="#2E263D" fill-opacity="0.9"/>
<path d="M30.6605 92.5078V91.0909H39.1033V92.5078H35.6996V102H34.0589V92.5078H30.6605ZM43.101 102.165C42.334 102.165 41.6646 101.989 41.0929 101.638C40.5211 101.286 40.0772 100.794 39.7612 100.162C39.4451 99.5302 39.2871 98.7915 39.2871 97.9464C39.2871 97.0977 39.4451 96.3555 39.7612 95.7198C40.0772 95.0842 40.5211 94.5906 41.0929 94.239C41.6646 93.8874 42.334 93.7116 43.101 93.7116C43.8681 93.7116 44.5375 93.8874 45.1092 94.239C45.6809 94.5906 46.1248 95.0842 46.4409 95.7198C46.7569 96.3555 46.915 97.0977 46.915 97.9464C46.915 98.7915 46.7569 99.5302 46.4409 100.162C46.1248 100.794 45.6809 101.286 45.1092 101.638C44.5375 101.989 43.8681 102.165 43.101 102.165ZM43.1064 100.828C43.6035 100.828 44.0154 100.697 44.3422 100.434C44.6689 100.171 44.9103 99.8214 45.0666 99.3846C45.2264 98.9478 45.3063 98.4666 45.3063 97.9411C45.3063 97.419 45.2264 96.9396 45.0666 96.5028C44.9103 96.0625 44.6689 95.7092 44.3422 95.4428C44.0154 95.1765 43.6035 95.0433 43.1064 95.0433C42.6056 95.0433 42.1902 95.1765 41.8599 95.4428C41.5332 95.7092 41.29 96.0625 41.1301 96.5028C40.9739 96.9396 40.8958 97.419 40.8958 97.9411C40.8958 98.4666 40.9739 98.9478 41.1301 99.3846C41.29 99.8214 41.5332 100.171 41.8599 100.434C42.1902 100.697 42.6056 100.828 43.1064 100.828ZM52.512 93.8182V95.0966H48.0429V93.8182H52.512ZM49.2414 91.858H50.8341V99.5977C50.8341 99.9066 50.8802 100.139 50.9726 100.295C51.0649 100.448 51.1839 100.553 51.3295 100.61C51.4786 100.663 51.6402 100.69 51.8142 100.69C51.942 100.69 52.0539 100.681 52.1498 100.663C52.2456 100.645 52.3202 100.631 52.3735 100.62L52.6611 101.936C52.5688 101.972 52.4374 102.007 52.267 102.043C52.0965 102.082 51.8834 102.103 51.6278 102.107C51.2087 102.114 50.8181 102.039 50.4559 101.883C50.0937 101.727 49.8007 101.485 49.577 101.158C49.3532 100.832 49.2414 100.422 49.2414 99.9279V91.858ZM56.6548 102.181C56.1364 102.181 55.6676 102.085 55.2486 101.893C54.8295 101.698 54.4975 101.416 54.2525 101.047C54.011 100.677 53.8903 100.224 53.8903 99.6882C53.8903 99.2266 53.979 98.8466 54.1566 98.5483C54.3342 98.25 54.5739 98.0138 54.8757 97.8398C55.1776 97.6658 55.5149 97.5344 55.8878 97.4457C56.2607 97.3569 56.6406 97.2894 57.0277 97.2433C57.5178 97.1864 57.9155 97.1403 58.2209 97.1048C58.5263 97.0657 58.7482 97.0036 58.8867 96.9183C59.0252 96.8331 59.0945 96.6946 59.0945 96.5028V96.4656C59.0945 96.0004 58.9631 95.6399 58.7003 95.3842C58.4411 95.1286 58.054 95.0007 57.5391 95.0007C57.0028 95.0007 56.5803 95.1197 56.2713 95.3576C55.9659 95.592 55.7546 95.853 55.6374 96.1406L54.1406 95.7997C54.3182 95.3026 54.5774 94.9013 54.9183 94.5959C55.2628 94.2869 55.6587 94.0632 56.1062 93.9247C56.5536 93.7827 57.0241 93.7116 57.5178 93.7116C57.8445 93.7116 58.1907 93.7507 58.5565 93.8288C58.9258 93.9034 59.2702 94.0419 59.5898 94.2443C59.913 94.4467 60.1776 94.7362 60.3835 95.1126C60.5895 95.4854 60.6925 95.9702 60.6925 96.5668V102H59.1371V100.881H59.0732C58.9702 101.087 58.8157 101.29 58.6097 101.489C58.4038 101.687 58.1392 101.853 57.8161 101.984C57.4929 102.115 57.1058 102.181 56.6548 102.181ZM57.0011 100.903C57.4414 100.903 57.8178 100.816 58.1303 100.642C58.4464 100.468 58.6861 100.24 58.8494 99.9599C59.0163 99.6758 59.0998 99.3722 59.0998 99.049V97.9943C59.043 98.0511 58.9329 98.1044 58.7695 98.1541C58.6097 98.2003 58.4268 98.2411 58.2209 98.2766C58.0149 98.3086 57.8143 98.3388 57.619 98.3672C57.4237 98.392 57.2603 98.4134 57.1289 98.4311C56.82 98.4702 56.5376 98.5359 56.282 98.6282C56.0298 98.7205 55.8274 98.8537 55.6747 99.0277C55.5256 99.1982 55.451 99.4254 55.451 99.7095C55.451 100.104 55.5966 100.402 55.8878 100.604C56.179 100.803 56.5501 100.903 57.0011 100.903ZM64.4065 91.0909V102H62.8138V91.0909H64.4065ZM70.6468 102V91.0909H74.5352C75.384 91.0909 76.0871 91.2454 76.6446 91.5543C77.2021 91.8633 77.6194 92.2859 77.8964 92.8221C78.1734 93.3548 78.3119 93.9549 78.3119 94.6225C78.3119 95.2937 78.1716 95.8974 77.8911 96.4336C77.6141 96.9663 77.195 97.3888 76.634 97.7013C76.0764 98.0103 75.3751 98.1648 74.5299 98.1648H71.8559V96.7692H74.3808C74.917 96.7692 75.352 96.6768 75.6858 96.4922C76.0196 96.304 76.2646 96.0483 76.4209 95.7251C76.5771 95.402 76.6553 95.0344 76.6553 94.6225C76.6553 94.2106 76.5771 93.8448 76.4209 93.5252C76.2646 93.2056 76.0178 92.9553 75.6805 92.7741C75.3467 92.593 74.9063 92.5025 74.3595 92.5025H72.2927V102H70.6468ZM80.1136 102V93.8182H81.6531V95.1179H81.7383C81.8874 94.6776 82.1502 94.3313 82.5266 94.0792C82.9066 93.8235 83.3363 93.6957 83.8157 93.6957C83.9151 93.6957 84.0323 93.6992 84.1673 93.7063C84.3058 93.7134 84.4141 93.7223 84.4922 93.733V95.2564C84.4283 95.2386 84.3146 95.2191 84.1513 95.1978C83.9879 95.1729 83.8246 95.1605 83.6612 95.1605C83.2848 95.1605 82.9492 95.2404 82.6545 95.4002C82.3633 95.5565 82.1325 95.7749 81.962 96.0554C81.7915 96.3324 81.7063 96.6484 81.7063 97.0036V102H80.1136ZM89.0239 102.165C88.2568 102.165 87.5874 101.989 87.0157 101.638C86.444 101.286 86.0001 100.794 85.684 100.162C85.368 99.5302 85.21 98.7915 85.21 97.9464C85.21 97.0977 85.368 96.3555 85.684 95.7198C86.0001 95.0842 86.444 94.5906 87.0157 94.239C87.5874 93.8874 88.2568 93.7116 89.0239 93.7116C89.7909 93.7116 90.4603 93.8874 91.032 94.239C91.6038 94.5906 92.0477 95.0842 92.3637 95.7198C92.6798 96.3555 92.8378 97.0977 92.8378 97.9464C92.8378 98.7915 92.6798 99.5302 92.3637 100.162C92.0477 100.794 91.6038 101.286 91.032 101.638C90.4603 101.989 89.7909 102.165 89.0239 102.165ZM89.0292 100.828C89.5264 100.828 89.9383 100.697 90.265 100.434C90.5917 100.171 90.8332 99.8214 90.9894 99.3846C91.1492 98.9478 91.2291 98.4666 91.2291 97.9411C91.2291 97.419 91.1492 96.9396 90.9894 96.5028C90.8332 96.0625 90.5917 95.7092 90.265 95.4428C89.9383 95.1765 89.5264 95.0433 89.0292 95.0433C88.5285 95.0433 88.113 95.1765 87.7828 95.4428C87.4561 95.7092 87.2128 96.0625 87.053 96.5028C86.8968 96.9396 86.8186 97.419 86.8186 97.9411C86.8186 98.4666 86.8968 98.9478 87.053 99.3846C87.2128 99.8214 87.4561 100.171 87.7828 100.434C88.113 100.697 88.5285 100.828 89.0292 100.828ZM98.5094 93.8182V95.0966H93.8858V93.8182H98.5094ZM95.1536 102V92.87C95.1536 92.3587 95.2654 91.9343 95.4892 91.5969C95.7129 91.256 96.0094 91.0021 96.3787 90.8352C96.748 90.6648 97.1493 90.5795 97.5826 90.5795C97.9022 90.5795 98.1756 90.6062 98.4029 90.6594C98.6301 90.7092 98.7988 90.7553 98.9089 90.7979L98.536 92.087C98.4615 92.0657 98.3656 92.0408 98.2484 92.0124C98.1312 91.9805 97.9892 91.9645 97.8223 91.9645C97.4352 91.9645 97.1582 92.0604 96.9913 92.2521C96.8279 92.4439 96.7463 92.7209 96.7463 93.0831V102H95.1536ZM100.153 102V93.8182H101.745V102H100.153ZM100.957 92.5558C100.68 92.5558 100.442 92.4634 100.243 92.2788C100.048 92.0906 99.9503 91.8668 99.9503 91.6076C99.9503 91.3448 100.048 91.1211 100.243 90.9364C100.442 90.7482 100.68 90.6541 100.957 90.6541C101.234 90.6541 101.47 90.7482 101.665 90.9364C101.864 91.1211 101.964 91.3448 101.964 91.6076C101.964 91.8668 101.864 92.0906 101.665 92.2788C101.47 92.4634 101.234 92.5558 100.957 92.5558ZM107.707 93.8182V95.0966H103.238V93.8182H107.707ZM104.437 91.858H106.029V99.5977C106.029 99.9066 106.076 100.139 106.168 100.295C106.26 100.448 106.379 100.553 106.525 100.61C106.674 100.663 106.835 100.69 107.009 100.69C107.137 100.69 107.249 100.681 107.345 100.663C107.441 100.645 107.516 100.631 107.569 100.62L107.856 101.936C107.764 101.972 107.633 102.007 107.462 102.043C107.292 102.082 107.079 102.103 106.823 102.107C106.404 102.114 106.013 102.039 105.651 101.883C105.289 101.727 104.996 101.485 104.772 101.158C104.549 100.832 104.437 100.422 104.437 99.9279V91.858Z" fill="#2E263D" fill-opacity="0.9"/>
<path d="M37.0653 142.182V120.364H38.4631V142.182H37.0653ZM41.4375 127.131C41.3466 126.324 40.9716 125.699 40.3125 125.256C39.6534 124.807 38.8239 124.582 37.8239 124.582C37.108 124.582 36.4886 124.696 35.9659 124.923C35.4432 125.145 35.0369 125.452 34.7472 125.844C34.4631 126.23 34.321 126.67 34.321 127.165C34.321 127.58 34.4176 127.937 34.6108 128.239C34.8097 128.54 35.0682 128.793 35.3864 128.997C35.7102 129.196 36.0568 129.364 36.4261 129.5C36.7955 129.631 37.1506 129.739 37.4915 129.824L39.196 130.267C39.7528 130.403 40.3239 130.588 40.9091 130.821C41.4943 131.054 42.0369 131.361 42.5369 131.741C43.0369 132.122 43.4403 132.594 43.7472 133.156C44.0597 133.719 44.2159 134.392 44.2159 135.176C44.2159 136.165 43.9602 137.043 43.4489 137.81C42.9432 138.577 42.2074 139.182 41.2415 139.625C40.2813 140.068 39.1193 140.29 37.7557 140.29C36.4489 140.29 35.3182 140.082 34.3636 139.668C33.4091 139.253 32.6619 138.665 32.1222 137.903C31.5824 137.136 31.2841 136.227 31.2273 135.176H33.8693C33.9205 135.807 34.125 136.332 34.483 136.753C34.8466 137.168 35.3097 137.477 35.8722 137.682C36.4403 137.881 37.0625 137.98 37.7386 137.98C38.483 137.98 39.1449 137.864 39.7244 137.631C40.3097 137.392 40.7699 137.062 41.1051 136.642C41.4403 136.216 41.608 135.719 41.608 135.151C41.608 134.634 41.4602 134.21 41.1648 133.881C40.875 133.551 40.4801 133.278 39.9801 133.062C39.4858 132.847 38.9261 132.656 38.3011 132.491L36.2386 131.929C34.8409 131.548 33.733 130.989 32.9148 130.25C32.1023 129.511 31.696 128.534 31.696 127.318C31.696 126.312 31.9688 125.435 32.5142 124.685C33.0597 123.935 33.7983 123.352 34.7301 122.938C35.6619 122.517 36.7131 122.307 37.8835 122.307C39.0653 122.307 40.108 122.514 41.0114 122.929C41.9205 123.344 42.6364 123.915 43.1591 124.642C43.6818 125.364 43.9545 126.193 43.9773 127.131H41.4375ZM47.1243 140V138.091L53.0305 131.972C53.6612 131.307 54.1811 130.724 54.5902 130.224C55.005 129.719 55.3146 129.239 55.5192 128.784C55.7237 128.33 55.826 127.847 55.826 127.335C55.826 126.756 55.6896 126.256 55.4169 125.835C55.1442 125.409 54.772 125.082 54.3004 124.855C53.8288 124.622 53.2976 124.506 52.7067 124.506C52.0817 124.506 51.5362 124.634 51.0703 124.889C50.6044 125.145 50.2464 125.506 49.9964 125.972C49.7464 126.437 49.6214 126.983 49.6214 127.608H47.1072C47.1072 126.545 47.3516 125.616 47.8402 124.821C48.3288 124.026 48.9993 123.409 49.8516 122.972C50.7038 122.528 51.6726 122.307 52.7578 122.307C53.8544 122.307 54.8203 122.526 55.6555 122.963C56.4964 123.395 57.1527 123.986 57.6243 124.736C58.0959 125.48 58.3317 126.321 58.3317 127.259C58.3317 127.906 58.2095 128.54 57.9652 129.159C57.7266 129.778 57.3089 130.469 56.7124 131.23C56.1158 131.986 55.2862 132.903 54.2237 133.983L50.755 137.614V137.741H58.6129V140H47.1243ZM67.6044 140.239C66.5362 140.239 65.576 140.034 64.7237 139.625C63.8771 139.21 63.201 138.642 62.6953 137.92C62.1896 137.199 61.9197 136.375 61.8857 135.449H64.4425C64.505 136.199 64.8374 136.815 65.4396 137.298C66.0419 137.781 66.7635 138.023 67.6044 138.023C68.2749 138.023 68.8686 137.869 69.3857 137.562C69.9084 137.25 70.3175 136.821 70.6129 136.276C70.9141 135.73 71.0646 135.108 71.0646 134.409C71.0646 133.699 70.9112 133.065 70.6044 132.509C70.2976 131.952 69.8743 131.514 69.3345 131.196C68.8004 130.878 68.1868 130.716 67.4936 130.71C66.9652 130.71 66.4339 130.801 65.8999 130.983C65.3658 131.165 64.9339 131.403 64.6044 131.699L62.1925 131.341L63.1726 122.545H72.7692V124.804H65.3629L64.8089 129.688H64.9112C65.2521 129.358 65.7038 129.082 66.2663 128.861C66.8345 128.639 67.4425 128.528 68.0902 128.528C69.1527 128.528 70.0987 128.781 70.9283 129.287C71.7635 129.793 72.4197 130.483 72.897 131.358C73.38 132.227 73.6186 133.227 73.6129 134.358C73.6186 135.489 73.3629 136.497 72.8459 137.384C72.3345 138.27 71.6243 138.969 70.7152 139.48C69.8118 139.986 68.7749 140.239 67.6044 140.239ZM77.8061 140.162C77.3402 140.162 76.9396 139.997 76.6044 139.668C76.2692 139.332 76.1016 138.929 76.1016 138.457C76.1016 137.991 76.2692 137.594 76.6044 137.264C76.9396 136.929 77.3402 136.761 77.8061 136.761C78.272 136.761 78.6726 136.929 79.0078 137.264C79.343 137.594 79.5107 137.991 79.5107 138.457C79.5107 138.77 79.4311 139.057 79.272 139.318C79.1186 139.574 78.9141 139.778 78.6584 139.932C78.4027 140.085 78.1186 140.162 77.8061 140.162ZM88.3509 140.239C87.5724 140.227 86.8054 140.085 86.0497 139.812C85.2997 139.54 84.6179 139.085 84.0043 138.449C83.3906 137.812 82.8991 136.957 82.5298 135.884C82.1662 134.81 81.9844 133.469 81.9844 131.861C81.9844 130.338 82.1349 128.986 82.4361 127.804C82.7429 126.622 83.1832 125.625 83.7571 124.812C84.331 123.994 85.0241 123.372 85.8366 122.946C86.6491 122.52 87.5611 122.307 88.5724 122.307C89.6122 122.307 90.5355 122.511 91.3423 122.92C92.1491 123.33 92.8026 123.895 93.3026 124.616C93.8082 125.338 94.1293 126.159 94.2656 127.08H91.6662C91.4901 126.352 91.1406 125.759 90.6179 125.298C90.0952 124.838 89.4134 124.608 88.5724 124.608C87.294 124.608 86.2969 125.165 85.581 126.278C84.8707 127.392 84.5128 128.94 84.5071 130.923H84.6349C84.9361 130.429 85.3054 130.009 85.7429 129.662C86.1861 129.31 86.6804 129.04 87.2259 128.852C87.777 128.659 88.3565 128.562 88.9645 128.562C89.9759 128.562 90.8906 128.81 91.7088 129.304C92.5327 129.793 93.1889 130.469 93.6776 131.332C94.1662 132.196 94.4105 133.185 94.4105 134.298C94.4105 135.412 94.1577 136.42 93.652 137.324C93.152 138.227 92.4474 138.943 91.5384 139.472C90.6293 139.994 89.5668 140.25 88.3509 140.239ZM88.3423 138.023C89.0128 138.023 89.6122 137.858 90.1406 137.528C90.669 137.199 91.0866 136.756 91.3935 136.199C91.7003 135.642 91.8537 135.02 91.8537 134.332C91.8537 133.662 91.7031 133.051 91.402 132.5C91.1065 131.949 90.6974 131.511 90.1747 131.188C89.6577 130.864 89.0668 130.702 88.402 130.702C87.8963 130.702 87.4276 130.798 86.9957 130.991C86.5696 131.185 86.1946 131.452 85.8707 131.793C85.5469 132.134 85.2912 132.526 85.1037 132.969C84.9219 133.406 84.831 133.869 84.831 134.358C84.831 135.011 84.9815 135.616 85.2827 136.173C85.5895 136.73 86.0071 137.179 86.5355 137.52C87.0696 137.855 87.6719 138.023 88.3423 138.023ZM99.8928 135.56L99.8757 132.449H100.319L105.535 126.909H108.586L102.637 133.216H102.237L99.8928 135.56ZM97.549 140V122.545H100.097V140H97.549ZM105.816 140L101.129 133.778L102.884 131.997L108.944 140H105.816Z" fill="#2E263D" fill-opacity="0.9"/>
<path d="M122.347 134.082V127.051H123.54V134.082H122.347ZM119.428 131.163V129.97H126.459V131.163H119.428ZM128.761 133.763V132.676L133.555 125.091H134.344V126.774H133.811L130.189 132.506V132.591H136.645V133.763H128.761ZM133.896 136V133.433V132.926V125.091H135.153V136H133.896ZM138.641 136V135.041L142.242 131.099C142.664 130.638 143.012 130.237 143.286 129.896C143.559 129.551 143.762 129.228 143.893 128.926C144.028 128.621 144.096 128.301 144.096 127.967C144.096 127.584 144.003 127.252 143.819 126.971C143.637 126.691 143.389 126.474 143.073 126.321C142.757 126.169 142.402 126.092 142.007 126.092C141.588 126.092 141.223 126.179 140.91 126.353C140.601 126.524 140.362 126.763 140.191 127.072C140.024 127.381 139.941 127.744 139.941 128.159H138.684C138.684 127.52 138.831 126.959 139.126 126.476C139.42 125.993 139.822 125.616 140.33 125.347C140.841 125.077 141.414 124.942 142.05 124.942C142.689 124.942 143.256 125.077 143.749 125.347C144.243 125.616 144.63 125.98 144.911 126.439C145.191 126.897 145.331 127.406 145.331 127.967C145.331 128.369 145.259 128.761 145.113 129.145C144.971 129.525 144.722 129.949 144.367 130.418C144.016 130.883 143.527 131.451 142.902 132.122L140.452 134.743V134.828H145.523V136H138.641ZM153.284 133.955V133.379C153.284 132.982 153.366 132.618 153.529 132.287C153.696 131.953 153.938 131.687 154.254 131.488C154.573 131.286 154.96 131.185 155.415 131.185C155.876 131.185 156.263 131.286 156.576 131.488C156.888 131.687 157.125 131.953 157.284 132.287C157.444 132.618 157.524 132.982 157.524 133.379V133.955C157.524 134.352 157.442 134.718 157.279 135.052C157.119 135.382 156.881 135.648 156.565 135.851C156.253 136.05 155.869 136.149 155.415 136.149C154.953 136.149 154.564 136.05 154.248 135.851C153.932 135.648 153.692 135.382 153.529 135.052C153.366 134.718 153.284 134.352 153.284 133.955ZM154.371 133.379V133.955C154.371 134.285 154.449 134.581 154.605 134.844C154.761 135.103 155.031 135.233 155.415 135.233C155.788 135.233 156.05 135.103 156.203 134.844C156.359 134.581 156.438 134.285 156.438 133.955V133.379C156.438 133.049 156.363 132.754 156.214 132.495C156.065 132.232 155.798 132.101 155.415 132.101C155.042 132.101 154.774 132.232 154.61 132.495C154.451 132.754 154.371 133.049 154.371 133.379ZM147.851 127.712V127.136C147.851 126.739 147.933 126.375 148.096 126.044C148.263 125.711 148.504 125.444 148.82 125.245C149.14 125.043 149.527 124.942 149.982 124.942C150.443 124.942 150.83 125.043 151.143 125.245C151.455 125.444 151.691 125.711 151.851 126.044C152.011 126.375 152.091 126.739 152.091 127.136V127.712C152.091 128.109 152.009 128.475 151.846 128.809C151.686 129.139 151.448 129.406 151.132 129.608C150.82 129.807 150.436 129.906 149.982 129.906C149.52 129.906 149.131 129.807 148.815 129.608C148.499 129.406 148.259 129.139 148.096 128.809C147.933 128.475 147.851 128.109 147.851 127.712ZM148.938 127.136V127.712C148.938 128.042 149.016 128.338 149.172 128.601C149.328 128.86 149.598 128.99 149.982 128.99C150.354 128.99 150.617 128.86 150.77 128.601C150.926 128.338 151.004 128.042 151.004 127.712V127.136C151.004 126.806 150.93 126.511 150.781 126.252C150.631 125.989 150.365 125.858 149.982 125.858C149.609 125.858 149.341 125.989 149.177 126.252C149.017 126.511 148.938 126.806 148.938 127.136ZM148.256 136L155.756 125.091H156.97L149.47 136H148.256Z" fill="#56CA00"/>
<path d="M32.8622 169L30.277 159.545H31.4403L33.4162 167.246H33.5085L35.5213 159.545H36.8139L38.8267 167.246H38.919L40.8949 159.545H42.0582L39.473 169H38.2912L36.2045 161.466H36.1307L34.044 169H32.8622ZM45.6499 169.148C44.9666 169.148 44.3772 168.997 43.8817 168.695C43.3893 168.391 43.0092 167.966 42.7415 167.421C42.4768 166.873 42.3445 166.236 42.3445 165.51C42.3445 164.784 42.4768 164.143 42.7415 163.589C43.0092 163.032 43.3816 162.598 43.8587 162.288C44.3388 161.974 44.8989 161.817 45.5391 161.817C45.9084 161.817 46.2731 161.878 46.6332 162.001C46.9933 162.125 47.321 162.325 47.6165 162.602C47.9119 162.875 48.1474 163.239 48.3228 163.691C48.4982 164.143 48.5859 164.701 48.5859 165.362V165.824H43.12V164.882H47.478C47.478 164.482 47.398 164.125 47.2379 163.811C47.081 163.497 46.8563 163.249 46.5639 163.068C46.2746 162.886 45.933 162.795 45.5391 162.795C45.1051 162.795 44.7296 162.903 44.4126 163.119C44.0987 163.331 43.8571 163.608 43.6879 163.95C43.5186 164.291 43.4339 164.657 43.4339 165.048V165.676C43.4339 166.212 43.5263 166.666 43.7109 167.038C43.8987 167.407 44.1587 167.689 44.4911 167.883C44.8235 168.074 45.2098 168.169 45.6499 168.169C45.9361 168.169 46.1946 168.129 46.4254 168.049C46.6593 167.966 46.8609 167.843 47.0302 167.68C47.1995 167.513 47.3303 167.307 47.4226 167.061L48.4751 167.357C48.3643 167.714 48.1781 168.027 47.9165 168.298C47.6549 168.566 47.3318 168.775 46.9471 168.926C46.5624 169.074 46.13 169.148 45.6499 169.148ZM53.2163 169.148C52.533 169.148 51.9437 168.997 51.4482 168.695C50.9557 168.391 50.5756 167.966 50.3079 167.421C50.0432 166.873 49.9109 166.236 49.9109 165.51C49.9109 164.784 50.0432 164.143 50.3079 163.589C50.5756 163.032 50.948 162.598 51.4251 162.288C51.9052 161.974 52.4653 161.817 53.1055 161.817C53.4748 161.817 53.8395 161.878 54.1996 162.001C54.5597 162.125 54.8874 162.325 55.1829 162.602C55.4783 162.875 55.7138 163.239 55.8892 163.691C56.0646 164.143 56.1523 164.701 56.1523 165.362V165.824H50.6864V164.882H55.0444C55.0444 164.482 54.9644 164.125 54.8043 163.811C54.6474 163.497 54.4227 163.249 54.1303 163.068C53.841 162.886 53.4994 162.795 53.1055 162.795C52.6715 162.795 52.296 162.903 51.979 163.119C51.6651 163.331 51.4235 163.608 51.2543 163.95C51.085 164.291 51.0004 164.657 51.0004 165.048V165.676C51.0004 166.212 51.0927 166.666 51.2773 167.038C51.4651 167.407 51.7251 167.689 52.0575 167.883C52.3899 168.074 52.7762 168.169 53.2163 168.169C53.5025 168.169 53.761 168.129 53.9918 168.049C54.2257 167.966 54.4273 167.843 54.5966 167.68C54.7659 167.513 54.8967 167.307 54.989 167.061L56.0415 167.357C55.9308 167.714 55.7446 168.027 55.483 168.298C55.2214 168.566 54.8982 168.775 54.5135 168.926C54.1288 169.074 53.6964 169.148 53.2163 169.148ZM58.8253 166.415L58.8068 165.067H59.0284L62.1307 161.909H63.4787L60.1733 165.251H60.081L58.8253 166.415ZM57.8097 169V159.545H58.8991V169H57.8097ZM62.3153 169L59.5455 165.491L60.321 164.734L63.7003 169H62.3153ZM65.9704 159.545V169H64.8809V159.545H65.9704ZM68.6676 171.659C68.483 171.659 68.3183 171.644 68.1737 171.613C68.029 171.585 67.929 171.558 67.8736 171.53L68.1506 170.57C68.4152 170.637 68.6491 170.662 68.8523 170.643C69.0554 170.625 69.2354 170.534 69.3924 170.371C69.5524 170.211 69.6986 169.951 69.831 169.591L70.0341 169.037L67.4119 161.909H68.5938L70.5511 167.56H70.625L72.5824 161.909H73.7642L70.7543 170.034C70.6188 170.4 70.4511 170.703 70.2511 170.944C70.051 171.187 69.8187 171.367 69.554 171.484C69.2924 171.601 68.9969 171.659 68.6676 171.659ZM79.0062 169V159.545H82.2008C82.9425 159.545 83.5488 159.679 84.0197 159.947C84.4937 160.212 84.8445 160.57 85.0723 161.023C85.3 161.475 85.4139 161.98 85.4139 162.537C85.4139 163.094 85.3 163.6 85.0723 164.056C84.8476 164.511 84.4998 164.874 84.0289 165.145C83.5581 165.413 82.9548 165.547 82.2193 165.547H79.9295V164.531H82.1824C82.6902 164.531 83.098 164.444 83.4057 164.268C83.7135 164.093 83.9366 163.856 84.0751 163.557C84.2167 163.256 84.2875 162.915 84.2875 162.537C84.2875 162.158 84.2167 161.82 84.0751 161.521C83.9366 161.223 83.7119 160.989 83.4011 160.82C83.0903 160.647 82.6779 160.561 82.1639 160.561H80.1511V169H79.0062ZM87.1104 169V161.909H88.163V162.98H88.2369C88.3661 162.629 88.6 162.345 88.9386 162.126C89.2771 161.908 89.6587 161.798 90.0835 161.798C90.1635 161.798 90.2635 161.8 90.3835 161.803C90.5036 161.806 90.5943 161.811 90.6559 161.817V162.925C90.619 162.915 90.5343 162.902 90.402 162.883C90.2727 162.862 90.1358 162.851 89.9911 162.851C89.6464 162.851 89.3387 162.923 89.0678 163.068C88.8001 163.209 88.5877 163.406 88.4308 163.659C88.2769 163.908 88.1999 164.193 88.1999 164.513V169H87.1104ZM94.6122 169.148C93.9721 169.148 93.4104 168.995 92.9272 168.691C92.4471 168.386 92.0716 167.96 91.8008 167.412C91.533 166.864 91.3991 166.224 91.3991 165.491C91.3991 164.753 91.533 164.108 91.8008 163.557C92.0716 163.006 92.4471 162.578 92.9272 162.274C93.4104 161.969 93.9721 161.817 94.6122 161.817C95.2524 161.817 95.8125 161.969 96.2926 162.274C96.7758 162.578 97.1513 163.006 97.419 163.557C97.6899 164.108 97.8253 164.753 97.8253 165.491C97.8253 166.224 97.6899 166.864 97.419 167.412C97.1513 167.96 96.7758 168.386 96.2926 168.691C95.8125 168.995 95.2524 169.148 94.6122 169.148ZM94.6122 168.169C95.0985 168.169 95.4986 168.044 95.8125 167.795C96.1264 167.546 96.3588 167.218 96.5096 166.812C96.6604 166.406 96.7358 165.965 96.7358 165.491C96.7358 165.018 96.6604 164.576 96.5096 164.167C96.3588 163.757 96.1264 163.426 95.8125 163.174C95.4986 162.922 95.0985 162.795 94.6122 162.795C94.1259 162.795 93.7259 162.922 93.4119 163.174C93.098 163.426 92.8656 163.757 92.7148 164.167C92.564 164.576 92.4886 165.018 92.4886 165.491C92.4886 165.965 92.564 166.406 92.7148 166.812C92.8656 167.218 93.098 167.546 93.4119 167.795C93.7259 168.044 94.1259 168.169 94.6122 168.169ZM102.646 161.909V162.832H98.8236V161.909H102.646ZM99.9685 169V160.93C99.9685 160.524 100.064 160.186 100.255 159.915C100.446 159.644 100.693 159.441 100.998 159.305C101.303 159.17 101.624 159.102 101.963 159.102C102.231 159.102 102.449 159.124 102.618 159.167C102.788 159.21 102.914 159.25 102.997 159.287L102.683 160.229C102.628 160.21 102.551 160.187 102.452 160.159C102.357 160.132 102.231 160.118 102.074 160.118C101.714 160.118 101.453 160.209 101.293 160.39C101.136 160.572 101.058 160.838 101.058 161.189V169H99.9685ZM104.173 169V161.909H105.262V169H104.173ZM104.727 160.727C104.515 160.727 104.331 160.655 104.178 160.51C104.027 160.366 103.951 160.192 103.951 159.989C103.951 159.786 104.027 159.612 104.178 159.467C104.331 159.322 104.515 159.25 104.727 159.25C104.939 159.25 105.121 159.322 105.272 159.467C105.426 159.612 105.502 159.786 105.502 159.989C105.502 160.192 105.426 160.366 105.272 160.51C105.121 160.655 104.939 160.727 104.727 160.727ZM110.342 161.909V162.832H106.667V161.909H110.342ZM107.738 160.21H108.828V166.969C108.828 167.277 108.872 167.507 108.961 167.661C109.054 167.812 109.171 167.914 109.312 167.966C109.457 168.015 109.609 168.04 109.769 168.04C109.889 168.04 109.988 168.034 110.065 168.021C110.142 168.006 110.203 167.994 110.249 167.984L110.471 168.963C110.397 168.991 110.294 169.018 110.162 169.046C110.029 169.077 109.862 169.092 109.658 169.092C109.351 169.092 109.049 169.026 108.754 168.894C108.461 168.761 108.218 168.56 108.024 168.289C107.833 168.018 107.738 167.677 107.738 167.264V160.21Z" fill="#2E263D" fill-opacity="0.7"/>
</g>
<defs>
<filter id="filter0_d_8003_4390" x="0" y="0" width="188.667" height="208" filterUnits="userSpaceOnUse" color-interpolation-filters="sRGB">
<feFlood flood-opacity="0" result="BackgroundImageFix"/>
<feColorMatrix in="SourceAlpha" type="matrix" values="0 0 0 0 0 0 0 0 0 0 0 0 0 0 0 0 0 0 127 0" result="hardAlpha"/>
<feOffset dy="4"/>
<feGaussianBlur stdDeviation="5"/>
<feComposite in2="hardAlpha" operator="out"/>
<feColorMatrix type="matrix" values="0 0 0 0 0.180392 0 0 0 0 0.14902 0 0 0 0 0.239216 0 0 0 0.2 0"/>
<feBlend mode="normal" in2="BackgroundImageFix" result="effect1_dropShadow_8003_4390"/>
<feBlend mode="normal" in="SourceGraphic" in2="effect1_dropShadow_8003_4390" result="shape"/>
</filter>
<filter id="filter1_d_8003_4390" x="26" y="24" width="48" height="48" filterUnits="userSpaceOnUse" color-interpolation-filters="sRGB">
<feFlood flood-opacity="0" result="BackgroundImageFix"/>
<feColorMatrix in="SourceAlpha" type="matrix" values="0 0 0 0 0 0 0 0 0 0 0 0 0 0 0 0 0 0 127 0" result="hardAlpha"/>
<feOffset dy="2"/>
<feGaussianBlur stdDeviation="2"/>
<feColorMatrix type="matrix" values="0 0 0 0 0.180392 0 0 0 0 0.14902 0 0 0 0 0.239216 0 0 0 0.16 0"/>
<feBlend mode="normal" in2="BackgroundImageFix" result="effect1_dropShadow_8003_4390"/>
<feBlend mode="normal" in="SourceGraphic" in2="effect1_dropShadow_8003_4390" result="shape"/>
</filter>
</defs>
</svg>
