<svg width="189" height="232" viewBox="0 0 189 232" fill="none" xmlns="http://www.w3.org/2000/svg">
<g filter="url(#filter0_d_8003_4412)">
<path d="M10 12C10 8.68629 12.6863 6 16 6H172.667C175.98 6 178.667 8.68629 178.667 12V211.668C178.667 214.982 175.98 217.668 172.667 217.668H16C12.6863 217.668 10 214.982 10 211.668V12Z" fill="white" shape-rendering="crispEdges"/>
<path d="M38.3011 36.5455V54H35.6591V39.1875H35.5568L31.3807 41.9148V39.392L35.7358 36.5455H38.3011ZM49.0994 54.2386C47.929 54.2386 46.8835 54.0369 45.9631 53.6335C45.0483 53.2301 44.3239 52.6705 43.7898 51.9545C43.2614 51.233 42.9773 50.3977 42.9375 49.4489H45.6136C45.6477 49.9659 45.821 50.4148 46.1335 50.7955C46.4517 51.1705 46.8665 51.4602 47.3778 51.6648C47.8892 51.8693 48.4574 51.9716 49.0824 51.9716C49.7699 51.9716 50.3778 51.8523 50.9062 51.6136C51.4403 51.375 51.858 51.0426 52.1591 50.6165C52.4602 50.1847 52.6108 49.6875 52.6108 49.125C52.6108 48.5398 52.4602 48.0256 52.1591 47.5824C51.8636 47.1335 51.429 46.7812 50.8551 46.5256C50.2869 46.2699 49.5994 46.142 48.7926 46.142H47.3182V43.9943H48.7926C49.4403 43.9943 50.0085 43.8778 50.4972 43.6449C50.9915 43.4119 51.3778 43.0881 51.6562 42.6733C51.9347 42.2528 52.0739 41.7614 52.0739 41.1989C52.0739 40.6591 51.9517 40.1903 51.7074 39.7926C51.4688 39.3892 51.1278 39.0739 50.6847 38.8466C50.2472 38.6193 49.7301 38.5057 49.1335 38.5057C48.5653 38.5057 48.0341 38.6108 47.5398 38.821C47.0511 39.0256 46.6534 39.321 46.3466 39.7074C46.0398 40.0881 45.875 40.5455 45.8523 41.0795H43.304C43.3324 40.1364 43.6108 39.3068 44.1392 38.5909C44.6733 37.875 45.3778 37.3153 46.2528 36.9119C47.1278 36.5085 48.0994 36.3068 49.1676 36.3068C50.2869 36.3068 51.2528 36.5256 52.0653 36.9631C52.8835 37.3949 53.5142 37.9716 53.9574 38.6932C54.4063 39.4148 54.6278 40.2045 54.6222 41.0625C54.6278 42.0398 54.3551 42.8693 53.804 43.5511C53.2585 44.233 52.5313 44.6903 51.6222 44.9233V45.0597C52.7813 45.2358 53.679 45.696 54.3153 46.4403C54.9574 47.1847 55.2756 48.108 55.2699 49.2102C55.2756 50.1705 55.0085 51.0312 54.4688 51.7926C53.9347 52.554 53.2045 53.1534 52.2784 53.5909C51.3523 54.0227 50.2926 54.2386 49.0994 54.2386ZM64.2528 54.2386C63.1847 54.2386 62.2244 54.0341 61.3722 53.625C60.5256 53.2102 59.8494 52.642 59.3438 51.9205C58.8381 51.1989 58.5682 50.375 58.5341 49.4489H61.0909C61.1534 50.1989 61.4858 50.8153 62.0881 51.2983C62.6903 51.7812 63.4119 52.0227 64.2528 52.0227C64.9233 52.0227 65.517 51.8693 66.0341 51.5625C66.5568 51.25 66.9659 50.821 67.2614 50.2756C67.5625 49.7301 67.7131 49.108 67.7131 48.4091C67.7131 47.6989 67.5597 47.0653 67.2528 46.5085C66.946 45.9517 66.5227 45.5142 65.983 45.196C65.4489 44.8778 64.8352 44.7159 64.142 44.7102C63.6136 44.7102 63.0824 44.8011 62.5483 44.983C62.0142 45.1648 61.5824 45.4034 61.2528 45.6989L58.8409 45.3409L59.821 36.5455H69.4176V38.804H62.0114L61.4574 43.6875H61.5597C61.9006 43.358 62.3523 43.0824 62.9148 42.8608C63.483 42.6392 64.0909 42.5284 64.7386 42.5284C65.8011 42.5284 66.7472 42.7812 67.5767 43.2869C68.4119 43.7926 69.0682 44.483 69.5455 45.358C70.0284 46.2273 70.267 47.2273 70.2614 48.358C70.267 49.4886 70.0114 50.4972 69.4943 51.3835C68.983 52.2699 68.2727 52.9687 67.3636 53.4801C66.4602 53.9858 65.4233 54.2386 64.2528 54.2386ZM75.7521 49.5597L75.7351 46.4489H76.1783L81.3942 40.9091H84.4453L78.4964 47.2159H78.0959L75.7521 49.5597ZM73.4084 54V36.5455H75.9567V54H73.4084ZM81.6754 54L76.9879 47.7784L78.7436 45.9972L84.8033 54H81.6754Z" fill="#2E263D" fill-opacity="0.9"/>
<path d="M30 151.668C30 143.307 31.6554 135.028 34.8717 127.304C38.088 119.579 42.8022 112.56 48.7452 106.648C54.6881 100.736 61.7434 96.0461 69.5083 92.8465C77.2731 89.6468 85.5954 88 94 88C102.405 88 110.727 89.6468 118.492 92.8465C126.257 96.0461 133.312 100.736 139.255 106.648C145.198 112.56 149.912 119.579 153.128 127.304C156.345 135.028 158 143.307 158 151.668H148.4C148.4 144.561 146.993 137.524 144.259 130.958C141.525 124.392 137.518 118.426 132.467 113.401C127.415 108.376 121.418 104.389 114.818 101.67C108.218 98.9501 101.144 97.5503 94 97.5503C86.8561 97.5503 79.7821 98.9501 73.182 101.67C66.5819 104.389 60.5849 108.376 55.5334 113.401C50.4819 118.426 46.4748 124.392 43.741 130.958C41.0071 137.524 39.6 144.561 39.6 151.668H30Z" fill="#F0F2F8"/>
<path d="M29.9999 151.668C29.9999 139.999 33.2013 128.553 39.2544 118.583C45.3075 108.613 53.9794 100.501 64.3226 95.1335C74.6659 89.7663 86.2826 87.3503 97.9036 88.1495C107.937 88.8395 117.641 91.9035 126.229 97.0614C128.485 98.4168 128.989 101.407 127.472 103.559C125.951 105.715 122.978 106.208 120.698 104.88C113.555 100.721 105.535 98.2471 97.2507 97.6773C87.3729 96.998 77.4987 99.0516 68.7069 103.614C59.9151 108.176 52.544 115.071 47.3989 123.546C42.2538 132.021 39.5326 141.749 39.5326 151.668H29.9999Z" fill="#16B1FF"/>
<path d="M79.1908 144.813L84.9053 133.512V133.416H78.2959V131.723H86.9508V133.474L81.2554 144.813H79.1908ZM93.3332 144.992C92.417 144.992 91.6074 144.835 90.9042 144.519C90.2054 144.204 89.6578 143.769 89.2615 143.215C88.8652 142.661 88.6692 142.031 88.6734 141.323C88.6692 140.769 88.7821 140.26 89.0122 139.796C89.2466 139.327 89.564 138.937 89.9646 138.626C90.3652 138.311 90.8126 138.11 91.3069 138.025V137.948C90.6549 137.791 90.1329 137.441 89.7409 136.9C89.3488 136.359 89.1549 135.737 89.1592 135.034C89.1549 134.365 89.3318 133.768 89.6897 133.244C90.052 132.715 90.5484 132.3 91.1791 131.997C91.8098 131.695 92.5278 131.544 93.3332 131.544C94.1301 131.544 94.8417 131.697 95.4682 132.004C96.0988 132.306 96.5953 132.722 96.9575 133.25C97.3197 133.774 97.503 134.369 97.5072 135.034C97.503 135.737 97.3027 136.359 96.9064 136.9C96.5101 137.441 95.9944 137.791 95.3595 137.948V138.025C95.8495 138.11 96.2906 138.311 96.6826 138.626C97.079 138.937 97.3943 139.327 97.6287 139.796C97.8673 140.26 97.9888 140.769 97.993 141.323C97.9888 142.031 97.7885 142.661 97.3922 143.215C96.9959 143.769 96.4461 144.204 95.743 144.519C95.0442 144.835 94.2409 144.992 93.3332 144.992ZM93.3332 143.375C93.8744 143.375 94.3432 143.286 94.7395 143.107C95.1358 142.924 95.4426 142.67 95.6599 142.346C95.8772 142.018 95.988 141.634 95.9923 141.196C95.988 140.74 95.8687 140.337 95.6343 139.987C95.4042 139.638 95.091 139.363 94.6947 139.163C94.2984 138.963 93.8446 138.862 93.3332 138.862C92.8176 138.862 92.3595 138.963 91.9589 139.163C91.5584 139.363 91.243 139.638 91.0129 139.987C90.7828 140.337 90.6699 140.74 90.6741 141.196C90.6699 141.634 90.7743 142.018 90.9873 142.346C91.2047 142.67 91.5136 142.924 91.9142 143.107C92.3147 143.286 92.7878 143.375 93.3332 143.375ZM93.3332 137.284C93.7679 137.284 94.1535 137.196 94.4902 137.022C94.8268 136.847 95.091 136.604 95.2828 136.293C95.4788 135.982 95.579 135.617 95.5832 135.2C95.579 134.791 95.4809 134.433 95.2892 134.126C95.1017 133.819 94.8396 133.583 94.503 133.416C94.1663 133.246 93.7764 133.161 93.3332 133.161C92.8815 133.161 92.4852 133.246 92.1443 133.416C91.8076 133.583 91.5456 133.819 91.3581 134.126C91.1706 134.433 91.079 134.791 91.0832 135.2C91.079 135.617 91.1727 135.982 91.3645 136.293C91.5562 136.604 91.8204 136.847 92.1571 137.022C92.498 137.196 92.89 137.284 93.3332 137.284ZM107.116 142.359V141.669C107.116 141.174 107.218 140.723 107.423 140.313C107.632 139.9 107.934 139.57 108.331 139.323C108.731 139.071 109.215 138.946 109.782 138.946C110.361 138.946 110.847 139.069 111.239 139.316C111.631 139.563 111.927 139.894 112.127 140.307C112.332 140.72 112.434 141.174 112.434 141.669V142.359C112.434 142.853 112.332 143.307 112.127 143.72C111.923 144.13 111.622 144.46 111.226 144.711C110.834 144.958 110.353 145.082 109.782 145.082C109.206 145.082 108.72 144.958 108.324 144.711C107.928 144.46 107.627 144.13 107.423 143.72C107.218 143.307 107.116 142.853 107.116 142.359ZM108.605 141.669V142.359C108.605 142.725 108.693 143.058 108.867 143.356C109.042 143.654 109.347 143.804 109.782 143.804C110.212 143.804 110.512 143.654 110.683 143.356C110.853 143.058 110.939 142.725 110.939 142.359V141.669C110.939 141.302 110.855 140.97 110.689 140.671C110.527 140.373 110.225 140.224 109.782 140.224C109.355 140.224 109.053 140.373 108.874 140.671C108.695 140.97 108.605 141.302 108.605 141.669ZM100.532 134.867V134.177C100.532 133.683 100.635 133.229 100.839 132.816C101.048 132.402 101.35 132.072 101.747 131.825C102.147 131.578 102.631 131.454 103.198 131.454C103.777 131.454 104.263 131.578 104.655 131.825C105.047 132.072 105.343 132.402 105.544 132.816C105.744 133.229 105.844 133.683 105.844 134.177V134.867C105.844 135.362 105.742 135.816 105.537 136.229C105.337 136.638 105.039 136.968 104.642 137.22C104.25 137.467 103.769 137.59 103.198 137.59C102.618 137.59 102.13 137.467 101.734 137.22C101.342 136.968 101.044 136.638 100.839 136.229C100.635 135.816 100.532 135.362 100.532 134.867ZM102.028 134.177V134.867C102.028 135.234 102.113 135.566 102.284 135.865C102.458 136.163 102.763 136.312 103.198 136.312C103.624 136.312 103.922 136.163 104.093 135.865C104.267 135.566 104.355 135.234 104.355 134.867V134.177C104.355 133.811 104.272 133.478 104.105 133.18C103.939 132.882 103.637 132.733 103.198 132.733C102.772 132.733 102.469 132.882 102.29 133.18C102.115 133.478 102.028 133.811 102.028 134.177ZM101.139 144.813L110.139 131.723H111.667L102.667 144.813H101.139Z" fill="#2E263D" fill-opacity="0.7"/>
<path d="M55.8825 182.176V180.759H64.3253V182.176H60.9216V191.668H59.281V182.176H55.8825ZM68.323 191.834C67.556 191.834 66.8866 191.658 66.3149 191.306C65.7431 190.955 65.2992 190.463 64.9832 189.831C64.6671 189.199 64.5091 188.46 64.5091 187.615C64.5091 186.766 64.6671 186.024 64.9832 185.388C65.2992 184.753 65.7431 184.259 66.3149 183.907C66.8866 183.556 67.556 183.38 68.323 183.38C69.0901 183.38 69.7595 183.556 70.3312 183.907C70.9029 184.259 71.3468 184.753 71.6629 185.388C71.9789 186.024 72.137 186.766 72.137 187.615C72.137 188.46 71.9789 189.199 71.6629 189.831C71.3468 190.463 70.9029 190.955 70.3312 191.306C69.7595 191.658 69.0901 191.834 68.323 191.834ZM68.3284 190.497C68.8255 190.497 69.2375 190.365 69.5642 190.102C69.8909 189.84 70.1323 189.49 70.2886 189.053C70.4484 188.616 70.5283 188.135 70.5283 187.61C70.5283 187.087 70.4484 186.608 70.2886 186.171C70.1323 185.731 69.8909 185.378 69.5642 185.111C69.2375 184.845 68.8255 184.712 68.3284 184.712C67.8277 184.712 67.4122 184.845 67.0819 185.111C66.7552 185.378 66.512 185.731 66.3522 186.171C66.1959 186.608 66.1178 187.087 66.1178 187.61C66.1178 188.135 66.1959 188.616 66.3522 189.053C66.512 189.49 66.7552 189.84 67.0819 190.102C67.4122 190.365 67.8277 190.497 68.3284 190.497ZM77.734 183.487V184.765H73.2649V183.487H77.734ZM74.4634 181.526H76.0561V189.266C76.0561 189.575 76.1022 189.808 76.1946 189.964C76.2869 190.117 76.4059 190.221 76.5515 190.278C76.7006 190.331 76.8622 190.358 77.0362 190.358C77.164 190.358 77.2759 190.349 77.3718 190.331C77.4677 190.314 77.5422 190.299 77.5955 190.289L77.8831 191.605C77.7908 191.64 77.6594 191.676 77.489 191.711C77.3185 191.75 77.1054 191.771 76.8498 191.775C76.4307 191.782 76.0401 191.708 75.6779 191.551C75.3157 191.395 75.0227 191.154 74.799 190.827C74.5753 190.5 74.4634 190.09 74.4634 189.596V181.526ZM81.8768 191.85C81.3584 191.85 80.8896 191.754 80.4706 191.562C80.0516 191.367 79.7195 191.084 79.4745 190.715C79.233 190.346 79.1123 189.893 79.1123 189.357C79.1123 188.895 79.2011 188.515 79.3786 188.217C79.5562 187.918 79.7959 187.682 80.0977 187.508C80.3996 187.334 80.7369 187.203 81.1098 187.114C81.4827 187.025 81.8626 186.958 82.2497 186.912C82.7398 186.855 83.1375 186.809 83.4429 186.773C83.7483 186.734 83.9702 186.672 84.1087 186.587C84.2472 186.502 84.3165 186.363 84.3165 186.171V186.134C84.3165 185.669 84.1851 185.308 83.9223 185.053C83.6631 184.797 83.276 184.669 82.7611 184.669C82.2248 184.669 81.8023 184.788 81.4933 185.026C81.1879 185.26 80.9766 185.521 80.8594 185.809L79.3626 185.468C79.5402 184.971 79.7994 184.57 80.1403 184.264C80.4848 183.955 80.8807 183.732 81.3282 183.593C81.7756 183.451 82.2462 183.38 82.7398 183.38C83.0665 183.38 83.4127 183.419 83.7785 183.497C84.1478 183.572 84.4922 183.71 84.8119 183.913C85.135 184.115 85.3996 184.405 85.6055 184.781C85.8115 185.154 85.9145 185.639 85.9145 186.235V191.668H84.3591V190.55H84.2952C84.1922 190.756 84.0377 190.958 83.8317 191.157C83.6258 191.356 83.3612 191.521 83.0381 191.652C82.7149 191.784 82.3278 191.85 81.8768 191.85ZM82.2231 190.571C82.6634 190.571 83.0398 190.484 83.3523 190.31C83.6684 190.136 83.9081 189.909 84.0714 189.628C84.2383 189.344 84.3218 189.041 84.3218 188.717V187.663C84.265 187.72 84.1549 187.773 83.9915 187.823C83.8317 187.869 83.6489 187.91 83.4429 187.945C83.2369 187.977 83.0363 188.007 82.841 188.036C82.6457 188.061 82.4823 188.082 82.3509 188.1C82.042 188.139 81.7596 188.204 81.504 188.297C81.2518 188.389 81.0494 188.522 80.8967 188.696C80.7476 188.867 80.673 189.094 80.673 189.378C80.673 189.772 80.8186 190.07 81.1098 190.273C81.401 190.472 81.7721 190.571 82.2231 190.571ZM89.6285 180.759V191.668H88.0358V180.759H89.6285ZM101.819 183.625C101.762 183.121 101.527 182.73 101.116 182.453C100.704 182.173 100.185 182.032 99.5602 182.032C99.1127 182.032 98.7256 182.103 98.3989 182.246C98.0722 182.384 97.8183 182.576 97.6372 182.821C97.4597 183.062 97.3709 183.337 97.3709 183.646C97.3709 183.906 97.4313 184.129 97.552 184.318C97.6763 184.506 97.8379 184.664 98.0367 184.792C98.2391 184.916 98.4558 185.021 98.6866 185.106C98.9174 185.188 99.1394 185.255 99.3524 185.308L100.418 185.585C100.766 185.671 101.123 185.786 101.488 185.932C101.854 186.077 102.193 186.269 102.506 186.507C102.818 186.745 103.07 187.04 103.262 187.391C103.458 187.743 103.555 188.163 103.555 188.654C103.555 189.271 103.395 189.82 103.076 190.299C102.76 190.779 102.3 191.157 101.696 191.434C101.096 191.711 100.37 191.85 99.5176 191.85C98.7008 191.85 97.9941 191.72 97.3975 191.461C96.8009 191.201 96.334 190.834 95.9966 190.358C95.6592 189.879 95.4728 189.311 95.4373 188.654H97.0886C97.1205 189.048 97.2484 189.376 97.4721 189.639C97.6994 189.898 97.9888 190.092 98.3403 190.22C98.6955 190.344 99.0843 190.406 99.5069 190.406C99.9721 190.406 100.386 190.333 100.748 190.188C101.114 190.038 101.401 189.833 101.611 189.57C101.82 189.303 101.925 188.993 101.925 188.638C101.925 188.314 101.833 188.05 101.648 187.844C101.467 187.638 101.22 187.467 100.908 187.333C100.599 187.198 100.249 187.079 99.8585 186.976L98.5694 186.624C97.6958 186.386 97.0033 186.036 96.492 185.575C95.9842 185.113 95.7303 184.502 95.7303 183.742C95.7303 183.114 95.9007 182.565 96.2416 182.096C96.5825 181.628 97.0442 181.264 97.6266 181.004C98.209 180.742 98.8659 180.61 99.5975 180.61C100.336 180.61 100.988 180.74 101.552 180.999C102.121 181.258 102.568 181.615 102.895 182.07C103.221 182.521 103.392 183.039 103.406 183.625H101.819ZM107.775 191.85C107.257 191.85 106.788 191.754 106.369 191.562C105.95 191.367 105.618 191.084 105.373 190.715C105.131 190.346 105.011 189.893 105.011 189.357C105.011 188.895 105.099 188.515 105.277 188.217C105.455 187.918 105.694 187.682 105.996 187.508C106.298 187.334 106.635 187.203 107.008 187.114C107.381 187.025 107.761 186.958 108.148 186.912C108.638 186.855 109.036 186.809 109.341 186.773C109.647 186.734 109.869 186.672 110.007 186.587C110.146 186.502 110.215 186.363 110.215 186.171V186.134C110.215 185.669 110.084 185.308 109.821 185.053C109.561 184.797 109.174 184.669 108.66 184.669C108.123 184.669 107.701 184.788 107.392 185.026C107.086 185.26 106.875 185.521 106.758 185.809L105.261 185.468C105.439 184.971 105.698 184.57 106.039 184.264C106.383 183.955 106.779 183.732 107.227 183.593C107.674 183.451 108.145 183.38 108.638 183.38C108.965 183.38 109.311 183.419 109.677 183.497C110.046 183.572 110.391 183.71 110.71 183.913C111.033 184.115 111.298 184.405 111.504 184.781C111.71 185.154 111.813 185.639 111.813 186.235V191.668H110.258V190.55H110.194C110.091 190.756 109.936 190.958 109.73 191.157C109.524 191.356 109.26 191.521 108.936 191.652C108.613 191.784 108.226 191.85 107.775 191.85ZM108.122 190.571C108.562 190.571 108.938 190.484 109.251 190.31C109.567 190.136 109.807 189.909 109.97 189.628C110.137 189.344 110.22 189.041 110.22 188.717V187.663C110.163 187.72 110.053 187.773 109.89 187.823C109.73 187.869 109.547 187.91 109.341 187.945C109.135 187.977 108.935 188.007 108.739 188.036C108.544 188.061 108.381 188.082 108.249 188.1C107.94 188.139 107.658 188.204 107.402 188.297C107.15 188.389 106.948 188.522 106.795 188.696C106.646 188.867 106.571 189.094 106.571 189.378C106.571 189.772 106.717 190.07 107.008 190.273C107.299 190.472 107.671 190.571 108.122 190.571ZM115.527 180.759V191.668H113.934V180.759H115.527ZM121.196 191.834C120.39 191.834 119.696 191.661 119.113 191.317C118.534 190.969 118.087 190.481 117.771 189.852C117.458 189.22 117.302 188.48 117.302 187.631C117.302 186.793 117.458 186.054 117.771 185.415C118.087 184.776 118.527 184.277 119.092 183.918C119.66 183.559 120.324 183.38 121.084 183.38C121.546 183.38 121.993 183.456 122.426 183.609C122.86 183.762 123.248 184.002 123.593 184.328C123.937 184.655 124.209 185.079 124.408 185.601C124.607 186.12 124.706 186.75 124.706 187.492V188.057H118.202V186.864H123.145C123.145 186.445 123.06 186.074 122.89 185.75C122.719 185.424 122.48 185.166 122.171 184.978C121.865 184.79 121.507 184.696 121.095 184.696C120.647 184.696 120.257 184.806 119.923 185.026C119.593 185.243 119.337 185.527 119.156 185.878C118.978 186.226 118.889 186.605 118.889 187.013V187.945C118.889 188.492 118.985 188.957 119.177 189.341C119.372 189.724 119.644 190.017 119.992 190.22C120.34 190.418 120.747 190.518 121.212 190.518C121.514 190.518 121.789 190.475 122.038 190.39C122.286 190.301 122.501 190.17 122.682 189.996C122.863 189.822 123.002 189.607 123.098 189.351L124.605 189.623C124.484 190.067 124.268 190.456 123.955 190.79C123.646 191.12 123.257 191.377 122.789 191.562C122.323 191.743 121.792 191.834 121.196 191.834ZM132.604 185.484L131.161 185.74C131.1 185.555 131.005 185.379 130.873 185.212C130.745 185.046 130.571 184.909 130.351 184.802C130.131 184.696 129.856 184.643 129.526 184.643C129.075 184.643 128.698 184.744 128.396 184.946C128.094 185.145 127.944 185.402 127.944 185.719C127.944 185.992 128.045 186.212 128.247 186.379C128.45 186.546 128.776 186.683 129.227 186.789L130.527 187.087C131.28 187.261 131.841 187.53 132.21 187.892C132.58 188.254 132.764 188.725 132.764 189.303C132.764 189.793 132.622 190.23 132.338 190.614C132.058 190.994 131.665 191.292 131.161 191.509C130.66 191.725 130.08 191.834 129.419 191.834C128.503 191.834 127.755 191.638 127.176 191.248C126.598 190.853 126.243 190.294 126.111 189.57L127.651 189.335C127.746 189.737 127.944 190.04 128.242 190.246C128.54 190.449 128.929 190.55 129.408 190.55C129.93 190.55 130.348 190.442 130.66 190.225C130.973 190.005 131.129 189.737 131.129 189.421C131.129 189.165 131.033 188.95 130.841 188.776C130.653 188.602 130.364 188.471 129.973 188.382L128.588 188.078C127.825 187.904 127.26 187.627 126.894 187.247C126.532 186.867 126.351 186.386 126.351 185.804C126.351 185.321 126.486 184.898 126.756 184.536C127.026 184.174 127.398 183.891 127.874 183.689C128.35 183.483 128.895 183.38 129.51 183.38C130.394 183.38 131.09 183.572 131.598 183.955C132.105 184.335 132.441 184.845 132.604 185.484Z" fill="#2E263D" fill-opacity="0.9"/>
</g>
<defs>
<filter id="filter0_d_8003_4412" x="0" y="0" width="188.667" height="231.668" filterUnits="userSpaceOnUse" color-interpolation-filters="sRGB">
<feFlood flood-opacity="0" result="BackgroundImageFix"/>
<feColorMatrix in="SourceAlpha" type="matrix" values="0 0 0 0 0 0 0 0 0 0 0 0 0 0 0 0 0 0 127 0" result="hardAlpha"/>
<feOffset dy="4"/>
<feGaussianBlur stdDeviation="5"/>
<feComposite in2="hardAlpha" operator="out"/>
<feColorMatrix type="matrix" values="0 0 0 0 0.180392 0 0 0 0 0.14902 0 0 0 0 0.239216 0 0 0 0.2 0"/>
<feBlend mode="normal" in2="BackgroundImageFix" result="effect1_dropShadow_8003_4412"/>
<feBlend mode="normal" in="SourceGraphic" in2="effect1_dropShadow_8003_4412" result="shape"/>
</filter>
</defs>
</svg>
