<svg width="285" height="349" viewBox="0 0 285 349" fill="none" xmlns="http://www.w3.org/2000/svg">
<g filter="url(#filter0_d_8003_4670)">
<g clip-path="url(#clip0_8003_4670)">
<path d="M10 12C10 8.68628 12.6863 6 16 6H269C272.314 6 275 8.68629 275 12V329C275 332.314 272.314 335 269 335H16C12.6863 335 10 332.314 10 329V12Z" fill="white"/>
<path d="M30.7926 35.6094V33.9091H40.924V35.6094H36.8395V47H34.8707V35.6094H30.7926ZM45.7212 47.1982C44.8008 47.1982 43.9975 46.9872 43.3114 46.5653C42.6254 46.1435 42.0927 45.5533 41.7134 44.7947C41.3342 44.0362 41.1445 43.1499 41.1445 42.1357C41.1445 41.1172 41.3342 40.2266 41.7134 39.4638C42.0927 38.701 42.6254 38.1087 43.3114 37.6868C43.9975 37.2649 44.8008 37.054 45.7212 37.054C46.6417 37.054 47.445 37.2649 48.131 37.6868C48.8171 38.1087 49.3498 38.701 49.729 39.4638C50.1083 40.2266 50.2979 41.1172 50.2979 42.1357C50.2979 43.1499 50.1083 44.0362 49.729 44.7947C49.3498 45.5533 48.8171 46.1435 48.131 46.5653C47.445 46.9872 46.6417 47.1982 45.7212 47.1982ZM45.7276 45.5938C46.3242 45.5938 46.8185 45.4361 47.2106 45.1207C47.6026 44.8054 47.8924 44.3857 48.0799 43.8615C48.2717 43.3374 48.3675 42.7599 48.3675 42.1293C48.3675 41.5028 48.2717 40.9276 48.0799 40.4034C47.8924 39.875 47.6026 39.451 47.2106 39.1314C46.8185 38.8118 46.3242 38.652 45.7276 38.652C45.1268 38.652 44.6282 38.8118 44.2319 39.1314C43.8398 39.451 43.5479 39.875 43.3562 40.4034C43.1687 40.9276 43.0749 41.5028 43.0749 42.1293C43.0749 42.7599 43.1687 43.3374 43.3562 43.8615C43.5479 44.3857 43.8398 44.8054 44.2319 45.1207C44.6282 45.4361 45.1268 45.5938 45.7276 45.5938ZM57.0144 37.1818V38.7159H51.6515V37.1818H57.0144ZM53.0897 34.8295H55.0009V44.1172C55.0009 44.4879 55.0563 44.767 55.1671 44.9545C55.2779 45.1378 55.4206 45.2635 55.5953 45.3317C55.7743 45.3956 55.9682 45.4276 56.177 45.4276C56.3304 45.4276 56.4647 45.4169 56.5797 45.3956C56.6948 45.3743 56.7843 45.3572 56.8482 45.3445L57.1934 46.9233C57.0826 46.9659 56.9249 47.0085 56.7203 47.0511C56.5158 47.098 56.2601 47.1236 55.9533 47.1278C55.4505 47.1364 54.9817 47.0469 54.5471 46.8594C54.1124 46.6719 53.7608 46.3821 53.4924 45.9901C53.2239 45.598 53.0897 45.1058 53.0897 44.5135V34.8295ZM61.9858 47.2173C61.3636 47.2173 60.8011 47.1023 60.2983 46.8722C59.7955 46.6378 59.397 46.299 59.103 45.8558C58.8132 45.4126 58.6683 44.8693 58.6683 44.2259C58.6683 43.6719 58.7749 43.2159 58.9879 42.858C59.201 42.5 59.4886 42.2166 59.8509 42.0078C60.2131 41.799 60.6179 41.6413 61.0653 41.5348C61.5128 41.4283 61.9688 41.3473 62.4332 41.2919C63.0213 41.2237 63.4986 41.1683 63.8651 41.1257C64.2315 41.0788 64.4979 41.0043 64.6641 40.902C64.8303 40.7997 64.9134 40.6335 64.9134 40.4034V40.3587C64.9134 39.8004 64.7557 39.3679 64.4403 39.0611C64.1293 38.7543 63.6648 38.6009 63.0469 38.6009C62.4034 38.6009 61.8963 38.7436 61.5256 39.0291C61.1591 39.3104 60.9055 39.6236 60.7649 39.9688L58.9688 39.5597C59.1818 38.9631 59.4929 38.4815 59.902 38.1151C60.3153 37.7443 60.7905 37.4759 61.3274 37.3097C61.8643 37.1392 62.429 37.054 63.0213 37.054C63.4134 37.054 63.8288 37.1009 64.2678 37.1946C64.7109 37.2841 65.1243 37.4503 65.5078 37.6932C65.8956 37.9361 66.2131 38.2834 66.4602 38.7351C66.7074 39.1825 66.831 39.7642 66.831 40.4801V47H64.9645V45.6577H64.8878C64.7642 45.9048 64.5788 46.1477 64.3317 46.3864C64.0845 46.625 63.767 46.8232 63.3793 46.9808C62.9915 47.1385 62.527 47.2173 61.9858 47.2173ZM62.4013 45.6832C62.9297 45.6832 63.3814 45.5788 63.7564 45.37C64.1357 45.1612 64.4233 44.8885 64.6193 44.5518C64.8196 44.2109 64.9197 43.8466 64.9197 43.4588V42.1932C64.8516 42.2614 64.7195 42.3253 64.5234 42.3849C64.3317 42.4403 64.1122 42.4893 63.8651 42.532C63.6179 42.5703 63.3771 42.6065 63.1428 42.6406C62.9084 42.6705 62.7124 42.696 62.5547 42.7173C62.1839 42.7642 61.8452 42.843 61.5384 42.9538C61.2358 43.0646 60.9929 43.2244 60.8097 43.4332C60.6307 43.6378 60.5412 43.9105 60.5412 44.2514C60.5412 44.7244 60.7159 45.0824 61.0653 45.3253C61.4148 45.5639 61.8601 45.6832 62.4013 45.6832ZM71.2878 33.9091V47H69.3766V33.9091H71.2878ZM85.916 37.348C85.8478 36.7429 85.5666 36.2741 85.0723 35.9418C84.5779 35.6051 83.9558 35.4368 83.2058 35.4368C82.6689 35.4368 82.2044 35.522 81.8123 35.6925C81.4203 35.8587 81.1156 36.0888 80.8983 36.3828C80.6852 36.6726 80.5787 37.0028 80.5787 37.3736C80.5787 37.6847 80.6511 37.9531 80.796 38.179C80.9451 38.4048 81.139 38.5945 81.3777 38.7479C81.6206 38.897 81.8805 39.0227 82.1575 39.125C82.4345 39.223 82.7008 39.304 82.9565 39.3679L84.2349 39.7003C84.6525 39.8026 85.0808 39.9411 85.5197 40.1158C85.9586 40.2905 86.3656 40.5206 86.7406 40.8061C87.1156 41.0916 87.4181 41.4453 87.6483 41.8672C87.8826 42.2891 87.9998 42.794 87.9998 43.3821C87.9998 44.1236 87.8081 44.782 87.4245 45.3572C87.0453 45.9325 86.4934 46.3864 85.769 46.7188C85.0488 47.0511 84.1774 47.2173 83.1547 47.2173C82.1745 47.2173 81.3265 47.0618 80.6106 46.7507C79.8947 46.4396 79.3343 45.9986 78.9295 45.4276C78.5247 44.8523 78.301 44.1705 78.2583 43.3821H80.2399C80.2782 43.8551 80.4316 44.2493 80.7001 44.5646C80.9728 44.8757 81.3201 45.108 81.742 45.2614C82.1681 45.4105 82.6348 45.4851 83.1419 45.4851C83.7001 45.4851 84.1966 45.3977 84.6312 45.223C85.0701 45.044 85.4153 44.7969 85.6667 44.4815C85.9181 44.1619 86.0439 43.7891 86.0439 43.3629C86.0439 42.9751 85.9331 42.6577 85.7115 42.4105C85.4941 42.1634 85.198 41.9588 84.823 41.7969C84.4522 41.6349 84.0325 41.4922 83.5637 41.3686L82.0169 40.9467C80.9686 40.6612 80.1376 40.2415 79.524 39.6875C78.9146 39.1335 78.6099 38.4006 78.6099 37.4886C78.6099 36.7344 78.8145 36.076 79.2235 35.5135C79.6326 34.951 80.1866 34.5142 80.8855 34.2031C81.5843 33.8878 82.3727 33.7301 83.2505 33.7301C84.1369 33.7301 84.9189 33.8857 85.5964 34.1967C86.2782 34.5078 86.8152 34.9361 87.2072 35.4815C87.5993 36.0227 87.8038 36.6449 87.8208 37.348H85.916ZM93.0639 47.2173C92.4418 47.2173 91.8793 47.1023 91.3764 46.8722C90.8736 46.6378 90.4751 46.299 90.1811 45.8558C89.8913 45.4126 89.7464 44.8693 89.7464 44.2259C89.7464 43.6719 89.853 43.2159 90.0661 42.858C90.2791 42.5 90.5668 42.2166 90.929 42.0078C91.2912 41.799 91.696 41.6413 92.1435 41.5348C92.5909 41.4283 93.0469 41.3473 93.5114 41.2919C94.0994 41.2237 94.5767 41.1683 94.9432 41.1257C95.3097 41.0788 95.576 41.0043 95.7422 40.902C95.9084 40.7997 95.9915 40.6335 95.9915 40.4034V40.3587C95.9915 39.8004 95.8338 39.3679 95.5185 39.0611C95.2074 38.7543 94.7429 38.6009 94.125 38.6009C93.4815 38.6009 92.9744 38.7436 92.6037 39.0291C92.2372 39.3104 91.9837 39.6236 91.843 39.9688L90.0469 39.5597C90.2599 38.9631 90.571 38.4815 90.9801 38.1151C91.3935 37.7443 91.8686 37.4759 92.4055 37.3097C92.9425 37.1392 93.5071 37.054 94.0994 37.054C94.4915 37.054 94.907 37.1009 95.3459 37.1946C95.7891 37.2841 96.2024 37.4503 96.5859 37.6932C96.9737 37.9361 97.2912 38.2834 97.5384 38.7351C97.7855 39.1825 97.9091 39.7642 97.9091 40.4801V47H96.0426V45.6577H95.9659C95.8423 45.9048 95.657 46.1477 95.4098 46.3864C95.1626 46.625 94.8452 46.8232 94.4574 46.9808C94.0696 47.1385 93.6051 47.2173 93.0639 47.2173ZM93.4794 45.6832C94.0078 45.6832 94.4595 45.5788 94.8345 45.37C95.2138 45.1612 95.5014 44.8885 95.6974 44.5518C95.8977 44.2109 95.9979 43.8466 95.9979 43.4588V42.1932C95.9297 42.2614 95.7976 42.3253 95.6016 42.3849C95.4098 42.4403 95.1903 42.4893 94.9432 42.532C94.696 42.5703 94.4553 42.6065 94.2209 42.6406C93.9865 42.6705 93.7905 42.696 93.6328 42.7173C93.2621 42.7642 92.9233 42.843 92.6165 42.9538C92.3139 43.0646 92.071 43.2244 91.8878 43.4332C91.7088 43.6378 91.6193 43.9105 91.6193 44.2514C91.6193 44.7244 91.794 45.0824 92.1435 45.3253C92.4929 45.5639 92.9382 45.6832 93.4794 45.6832ZM102.366 33.9091V47H100.455V33.9091H102.366ZM109.169 47.1982C108.201 47.1982 107.368 46.9915 106.669 46.5781C105.975 46.1605 105.438 45.5746 105.059 44.8203C104.684 44.0618 104.496 43.1733 104.496 42.1548C104.496 41.1491 104.684 40.2628 105.059 39.4957C105.438 38.7287 105.966 38.13 106.644 37.6996C107.326 37.2692 108.123 37.054 109.034 37.054C109.588 37.054 110.125 37.1456 110.645 37.3288C111.165 37.5121 111.632 37.7997 112.045 38.1918C112.458 38.5838 112.784 39.093 113.023 39.7195C113.262 40.3416 113.381 41.098 113.381 41.9886V42.6662H105.576V41.2344H111.508C111.508 40.7315 111.406 40.2862 111.201 39.8984C110.997 39.5064 110.709 39.1974 110.338 38.9716C109.972 38.7457 109.542 38.6328 109.047 38.6328C108.51 38.6328 108.042 38.7649 107.641 39.0291C107.245 39.2891 106.938 39.63 106.721 40.0518C106.507 40.4695 106.401 40.9233 106.401 41.4134V42.532C106.401 43.1882 106.516 43.7464 106.746 44.2067C106.98 44.6669 107.306 45.0185 107.724 45.2614C108.142 45.5 108.63 45.6193 109.188 45.6193C109.55 45.6193 109.88 45.5682 110.179 45.4659C110.477 45.3594 110.735 45.2017 110.952 44.9929C111.169 44.7841 111.336 44.5263 111.451 44.2195L113.26 44.5455C113.115 45.0781 112.855 45.5447 112.48 45.9453C112.109 46.3416 111.642 46.6506 111.08 46.8722C110.522 47.0895 109.885 47.1982 109.169 47.1982ZM122.859 39.5788L121.127 39.8857C121.054 39.6641 120.939 39.4531 120.781 39.2528C120.628 39.0526 120.419 38.8885 120.155 38.7607C119.891 38.6328 119.561 38.5689 119.164 38.5689C118.623 38.5689 118.171 38.6903 117.809 38.9332C117.447 39.1719 117.266 39.4808 117.266 39.8601C117.266 40.1882 117.387 40.4524 117.63 40.6527C117.873 40.853 118.265 41.017 118.806 41.1449L120.366 41.5028C121.269 41.7116 121.943 42.0334 122.386 42.468C122.829 42.9027 123.051 43.4673 123.051 44.1619C123.051 44.75 122.88 45.2741 122.539 45.7344C122.203 46.1903 121.732 46.5483 121.127 46.8082C120.526 47.0682 119.829 47.1982 119.036 47.1982C117.937 47.1982 117.04 46.9638 116.345 46.495C115.651 46.022 115.225 45.3509 115.067 44.4815L116.914 44.2003C117.029 44.6818 117.266 45.0462 117.624 45.2933C117.982 45.5362 118.448 45.6577 119.024 45.6577C119.65 45.6577 120.151 45.5277 120.526 45.2678C120.901 45.0036 121.088 44.6818 121.088 44.3026C121.088 43.9957 120.973 43.7379 120.743 43.5291C120.517 43.3203 120.17 43.1626 119.701 43.0561L118.039 42.6918C117.123 42.483 116.445 42.1506 116.007 41.6946C115.572 41.2386 115.355 40.6612 115.355 39.9624C115.355 39.3828 115.517 38.8757 115.84 38.4411C116.164 38.0064 116.612 37.6676 117.183 37.4247C117.754 37.1776 118.408 37.054 119.145 37.054C120.206 37.054 121.041 37.2841 121.651 37.7443C122.26 38.2003 122.663 38.8118 122.859 39.5788Z" fill="#2E263D" fill-opacity="0.9"/>
<path d="M34.3466 75.3636V61.7273H35.2202V75.3636H34.3466ZM37.2869 65.8182C37.223 65.2784 36.9638 64.8594 36.5092 64.5611C36.0547 64.2628 35.4972 64.1136 34.8366 64.1136C34.3537 64.1136 33.9311 64.1918 33.5689 64.348C33.2102 64.5043 32.9297 64.7191 32.7273 64.9925C32.5284 65.266 32.429 65.5767 32.429 65.9247C32.429 66.2159 32.4982 66.4663 32.6367 66.6758C32.7788 66.8817 32.9599 67.054 33.18 67.1925C33.4002 67.3274 33.631 67.4393 33.8725 67.5281C34.114 67.6133 34.3359 67.6825 34.5384 67.7358L35.6463 68.0341C35.9304 68.1087 36.2464 68.2116 36.5945 68.343C36.946 68.4744 37.2816 68.6538 37.6012 68.881C37.9244 69.1048 38.1907 69.3924 38.4002 69.744C38.6097 70.0955 38.7145 70.527 38.7145 71.0384C38.7145 71.6278 38.56 72.1605 38.2511 72.6364C37.9457 73.1122 37.4982 73.4904 36.9087 73.771C36.3228 74.0515 35.6108 74.1918 34.7727 74.1918C33.9915 74.1918 33.315 74.0657 32.7433 73.8136C32.1751 73.5614 31.7276 73.2099 31.4009 72.7589C31.0778 72.3079 30.8949 71.7841 30.8523 71.1875H32.2159C32.2514 71.5994 32.3899 71.9403 32.6314 72.2102C32.8764 72.4766 33.1854 72.6754 33.5582 72.8068C33.9347 72.9347 34.3395 72.9986 34.7727 72.9986C35.277 72.9986 35.7298 72.9169 36.131 72.7536C36.5323 72.5866 36.8501 72.3558 37.0845 72.0611C37.3189 71.7628 37.4361 71.4148 37.4361 71.017C37.4361 70.6548 37.3349 70.3601 37.1325 70.1328C36.93 69.9055 36.6637 69.7209 36.3335 69.5788C36.0032 69.4368 35.6463 69.3125 35.2628 69.206L33.9205 68.8224C33.0682 68.5774 32.3935 68.2276 31.8963 67.7731C31.3991 67.3185 31.1506 66.7237 31.1506 65.9886C31.1506 65.3778 31.3157 64.8452 31.646 64.3906C31.9798 63.9325 32.4272 63.5774 32.9883 63.3253C33.5529 63.0696 34.1832 62.9418 34.8793 62.9418C35.5824 62.9418 36.2074 63.0678 36.7543 63.32C37.3011 63.5685 37.7344 63.9094 38.054 64.3427C38.3771 64.7759 38.5476 65.2678 38.5653 65.8182H37.2869ZM40.6947 74V73.0412L44.2955 69.0994C44.7181 68.6378 45.0661 68.2365 45.3396 67.8956C45.613 67.5511 45.8154 67.228 45.9468 66.9261C46.0818 66.6207 46.1492 66.3011 46.1492 65.9673C46.1492 65.5838 46.0569 65.2518 45.8722 64.9712C45.6911 64.6907 45.4426 64.4741 45.1265 64.3214C44.8105 64.1687 44.4553 64.0923 44.0612 64.0923C43.6421 64.0923 43.2764 64.1793 42.9639 64.3533C42.6549 64.5238 42.4152 64.7635 42.2448 65.0724C42.0779 65.3814 41.9944 65.7436 41.9944 66.1591H40.7373C40.7373 65.5199 40.8847 64.9588 41.1794 64.4759C41.4742 63.9929 41.8754 63.6165 42.3833 63.3466C42.8946 63.0767 43.4681 62.9418 44.1038 62.9418C44.743 62.9418 45.3094 63.0767 45.803 63.3466C46.2966 63.6165 46.6837 63.9805 46.9642 64.4386C47.2448 64.8967 47.385 65.4062 47.385 65.9673C47.385 66.3686 47.3122 66.761 47.1666 67.1445C47.0246 67.5245 46.776 67.9489 46.4209 68.4176C46.0693 68.8828 45.5811 69.451 44.9561 70.1222L42.5058 72.7429V72.8281H47.5768V74H40.6947ZM53.6119 63.0909V74H52.2909V64.4759H52.227L49.5637 66.2443V64.902L52.2909 63.0909H53.6119ZM58.0012 72.5085L57.9159 73.0838C57.8556 73.4886 57.7632 73.9219 57.6389 74.3835C57.5182 74.8452 57.3921 75.2802 57.2607 75.6886C57.1294 76.0969 57.021 76.4219 56.9358 76.6634H55.977C56.0232 76.4361 56.0835 76.136 56.1581 75.7631C56.2327 75.3903 56.3073 74.973 56.3818 74.5114C56.46 74.0533 56.5239 73.5845 56.5736 73.1051L56.6375 72.5085H58.0012ZM63.4664 74.1491C62.7348 74.1491 62.0885 74.0195 61.5274 73.7603C60.9699 73.4975 60.5349 73.1371 60.2224 72.679C59.9099 72.2173 59.7554 71.6918 59.759 71.1023C59.7554 70.6406 59.846 70.2145 60.0306 69.8239C60.2153 69.4297 60.4674 69.1012 60.787 68.8384C61.1102 68.5721 61.4706 68.4034 61.8683 68.3324V68.2685C61.3463 68.1335 60.9308 67.8406 60.6219 67.3896C60.3129 66.935 60.1602 66.4183 60.1638 65.8395C60.1602 65.2855 60.3005 64.7901 60.5846 64.3533C60.8687 63.9165 61.2593 63.5721 61.7565 63.32C62.2572 63.0678 62.8271 62.9418 63.4664 62.9418C64.0985 62.9418 64.6631 63.0678 65.1602 63.32C65.6574 63.5721 66.048 63.9165 66.3321 64.3533C66.6198 64.7901 66.7654 65.2855 66.7689 65.8395C66.7654 66.4183 66.6073 66.935 66.2948 67.3896C65.9859 67.8406 65.5757 68.1335 65.0644 68.2685V68.3324C65.4585 68.4034 65.8137 68.5721 66.1297 68.8384C66.4458 69.1012 66.6979 69.4297 66.8861 69.8239C67.0743 70.2145 67.1702 70.6406 67.1737 71.1023C67.1702 71.6918 67.0104 72.2173 66.6943 72.679C66.3818 73.1371 65.9468 73.4975 65.3893 73.7603C64.8353 74.0195 64.1943 74.1491 63.4664 74.1491ZM63.4664 72.9773C63.96 72.9773 64.3861 72.8974 64.7448 72.7376C65.1034 72.5778 65.3804 72.3523 65.5757 72.0611C65.771 71.7699 65.8705 71.429 65.874 71.0384C65.8705 70.6264 65.7639 70.2624 65.5544 69.9464C65.3449 69.6303 65.059 69.3817 64.6968 69.2006C64.3382 69.0195 63.928 68.929 63.4664 68.929C63.0012 68.929 62.5857 69.0195 62.2199 69.2006C61.8577 69.3817 61.5718 69.6303 61.3623 69.9464C61.1563 70.2624 61.0551 70.6264 61.0587 71.0384C61.0551 71.429 61.1492 71.7699 61.341 72.0611C61.5363 72.3523 61.8151 72.5778 62.1773 72.7376C62.5395 72.8974 62.9692 72.9773 63.4664 72.9773ZM63.4664 67.7997C63.857 67.7997 64.2032 67.7216 64.5051 67.5653C64.8105 67.4091 65.0502 67.1907 65.2242 66.9102C65.3982 66.6296 65.4869 66.3011 65.4905 65.9247C65.4869 65.5554 65.3999 65.234 65.2295 64.9606C65.059 64.6836 64.8229 64.4705 64.521 64.3214C64.2192 64.1687 63.8676 64.0923 63.4664 64.0923C63.058 64.0923 62.7011 64.1687 62.3957 64.3214C62.0903 64.4705 61.8541 64.6836 61.6872 64.9606C61.5203 65.234 61.4387 65.5554 61.4422 65.9247C61.4387 66.3011 61.5221 66.6296 61.6926 66.9102C61.8666 67.1907 62.1063 67.4091 62.4117 67.5653C62.7171 67.7216 63.0686 67.7997 63.4664 67.7997ZM68.9595 71.7628V70.6761L73.7536 63.0909H74.5419V64.7741H74.0092L70.3871 70.5057V70.5909H76.843V71.7628H68.9595ZM74.0945 74V71.4325V70.9265V63.0909H75.3516V74H74.0945ZM82.2483 74.1491C81.6233 74.1491 81.0605 74.0249 80.5597 73.7763C80.059 73.5277 79.6578 73.1868 79.3559 72.7536C79.0541 72.3203 78.8889 71.8267 78.8605 71.2727H80.1389C80.1887 71.7663 80.4124 72.1747 80.8101 72.4979C81.2114 72.8175 81.6908 72.9773 82.2483 72.9773C82.6958 72.9773 83.0935 72.8725 83.4415 72.663C83.7931 72.4535 84.0683 72.1658 84.2671 71.8001C84.4695 71.4308 84.5708 71.0135 84.5708 70.5483C84.5708 70.0724 84.466 69.6481 84.2565 69.2752C84.0505 68.8988 83.7664 68.6023 83.4042 68.3857C83.042 68.169 82.6283 68.0589 82.1631 68.0554C81.8293 68.0518 81.4866 68.1033 81.135 68.2099C80.7835 68.3129 80.4941 68.446 80.2668 68.6094L79.031 68.4602L79.6915 63.0909H85.3591V64.2628H80.7994L80.4159 67.4801H80.4798C80.7036 67.3026 80.9841 67.1552 81.3215 67.038C81.6588 66.9208 82.0104 66.8622 82.3762 66.8622C83.0438 66.8622 83.6386 67.022 84.1606 67.3416C84.6862 67.6577 85.0981 68.0909 85.3964 68.6413C85.6982 69.1918 85.8492 69.8203 85.8492 70.527C85.8492 71.223 85.6929 71.8445 85.3804 72.3913C85.0715 72.9347 84.6453 73.3643 84.102 73.6804C83.5587 73.9929 82.9408 74.1491 82.2483 74.1491Z" fill="#2E263D" fill-opacity="0.55"/>
<path d="M243 29C242.175 29 241.5 29.675 241.5 30.5C241.5 31.325 242.175 32 243 32C243.825 32 244.5 31.325 244.5 30.5C244.5 29.675 243.825 29 243 29ZM243 44C242.175 44 241.5 44.675 241.5 45.5C241.5 46.325 242.175 47 243 47C243.825 47 244.5 46.325 244.5 45.5C244.5 44.675 243.825 44 243 44ZM243 36.5C242.175 36.5 241.5 37.175 241.5 38C241.5 38.825 242.175 39.5 243 39.5C243.825 39.5 244.5 38.825 244.5 38C244.5 37.175 243.825 36.5 243 36.5Z" fill="#2E263D" fill-opacity="0.9"/>
<path d="M38.0616 298.091H39.3826V305.889C39.3826 306.585 39.2548 307.176 38.9991 307.663C38.7434 308.15 38.383 308.519 37.9178 308.771C37.4526 309.023 36.9039 309.149 36.2718 309.149C35.6752 309.149 35.1444 309.041 34.6792 308.824C34.214 308.604 33.8482 308.292 33.5819 307.887C33.3155 307.482 33.1824 307.001 33.1824 306.443H34.4821C34.4821 306.752 34.5584 307.022 34.7111 307.253C34.8674 307.48 35.0804 307.658 35.3503 307.786C35.6202 307.913 35.9274 307.977 36.2718 307.977C36.6518 307.977 36.975 307.897 37.2413 307.738C37.5076 307.578 37.71 307.343 37.8485 307.034C37.9906 306.722 38.0616 306.34 38.0616 305.889V298.091ZM44.2672 309.192C43.7488 309.192 43.2782 309.094 42.8556 308.899C42.4331 308.7 42.0975 308.414 41.8489 308.041C41.6003 307.665 41.476 307.21 41.476 306.678C41.476 306.209 41.5684 305.829 41.753 305.538C41.9377 305.243 42.1845 305.012 42.4934 304.845C42.8024 304.678 43.1433 304.554 43.5162 304.472C43.8926 304.387 44.2708 304.32 44.6507 304.27C45.1479 304.206 45.551 304.158 45.8599 304.126C46.1724 304.091 46.3997 304.032 46.5417 303.95C46.6873 303.869 46.7601 303.727 46.7601 303.524V303.482C46.7601 302.956 46.6163 302.548 46.3287 302.256C46.0446 301.965 45.6131 301.82 45.0343 301.82C44.4341 301.82 43.9636 301.951 43.6227 302.214C43.2818 302.477 43.0421 302.757 42.9036 303.055L41.7104 302.629C41.9235 302.132 42.2076 301.745 42.5627 301.468C42.9213 301.187 43.312 300.992 43.7346 300.882C44.1607 300.768 44.5797 300.712 44.9917 300.712C45.2544 300.712 45.5563 300.744 45.8972 300.808C46.2417 300.868 46.5737 300.994 46.8933 301.186C47.2164 301.377 47.4846 301.667 47.6976 302.054C47.9107 302.441 48.0172 302.96 48.0172 303.609V309H46.7601V307.892H46.6962C46.611 308.07 46.4689 308.26 46.2701 308.462C46.0712 308.664 45.8066 308.837 45.4764 308.979C45.1461 309.121 44.7431 309.192 44.2672 309.192ZM44.459 308.062C44.9561 308.062 45.3752 307.965 45.7161 307.77C46.0605 307.574 46.3198 307.322 46.4938 307.013C46.6713 306.704 46.7601 306.379 46.7601 306.038V304.888C46.7069 304.952 46.5897 305.01 46.4086 305.064C46.231 305.113 46.025 305.158 45.7907 305.197C45.5598 305.232 45.3343 305.264 45.1142 305.293C44.8975 305.317 44.7218 305.339 44.5868 305.357C44.2601 305.399 43.9547 305.468 43.6706 305.564C43.3901 305.657 43.1628 305.797 42.9888 305.985C42.8184 306.17 42.7331 306.422 42.7331 306.741C42.7331 307.178 42.8947 307.509 43.2179 307.732C43.5446 307.952 43.9583 308.062 44.459 308.062ZM51.5688 304.078V309H50.3117V300.818H51.5262V302.097H51.6327C51.8245 301.681 52.1157 301.347 52.5063 301.095C52.8969 300.839 53.4012 300.712 54.0191 300.712C54.5731 300.712 55.0578 300.825 55.4733 301.053C55.8888 301.276 56.2119 301.617 56.4427 302.075C56.6736 302.53 56.789 303.105 56.789 303.801V309H55.5319V303.886C55.5319 303.244 55.365 302.743 55.0312 302.384C54.6974 302.022 54.2393 301.841 53.6569 301.841C53.2556 301.841 52.8969 301.928 52.5809 302.102C52.2684 302.276 52.0216 302.53 51.8405 302.864C51.6594 303.197 51.5688 303.602 51.5688 304.078Z" fill="#2E263D" fill-opacity="0.7"/>
<path d="M71.946 309V298.091H78.4872V299.263H73.267V302.949H77.9972V304.121H73.267V309H71.946ZM83.4091 309.17C82.6207 309.17 81.9407 308.996 81.369 308.648C80.8008 308.297 80.3622 307.807 80.0533 307.178C79.7479 306.546 79.5952 305.811 79.5952 304.973C79.5952 304.135 79.7479 303.396 80.0533 302.757C80.3622 302.114 80.7919 301.614 81.3423 301.255C81.8963 300.893 82.5426 300.712 83.2812 300.712C83.7074 300.712 84.1282 300.783 84.5437 300.925C84.9592 301.067 85.3374 301.298 85.6783 301.617C86.0192 301.933 86.2908 302.352 86.4933 302.874C86.6957 303.396 86.7969 304.039 86.7969 304.803V305.335H80.4901V304.249H85.5185C85.5185 303.787 85.4261 303.375 85.2415 303.013C85.0604 302.651 84.8011 302.365 84.4638 302.155C84.13 301.946 83.7358 301.841 83.2812 301.841C82.7805 301.841 82.3473 301.965 81.9815 302.214C81.6193 302.459 81.3406 302.778 81.1452 303.173C80.9499 303.567 80.8523 303.989 80.8523 304.44V305.165C80.8523 305.783 80.9588 306.306 81.1719 306.736C81.3885 307.162 81.6886 307.487 82.0721 307.711C82.4556 307.931 82.9013 308.041 83.4091 308.041C83.7393 308.041 84.0376 307.995 84.304 307.903C84.5739 307.807 84.8065 307.665 85.0018 307.477C85.1971 307.285 85.348 307.047 85.4545 306.763L86.669 307.104C86.5412 307.516 86.3263 307.878 86.0245 308.19C85.7227 308.499 85.3498 308.741 84.9059 308.915C84.462 309.085 83.9631 309.17 83.4091 309.17ZM88.8796 309V298.091H90.1367V302.118H90.2433C90.3356 301.976 90.4634 301.795 90.6268 301.575C90.7937 301.351 91.0316 301.152 91.3406 300.978C91.6531 300.8 92.0756 300.712 92.6083 300.712C93.2972 300.712 93.9045 300.884 94.43 301.228C94.9556 301.573 95.3658 302.061 95.6605 302.693C95.9553 303.325 96.1026 304.071 96.1026 304.93C96.1026 305.797 95.9553 306.548 95.6605 307.184C95.3658 307.816 94.9574 308.306 94.4354 308.654C93.9134 308.998 93.3114 309.17 92.6296 309.17C92.104 309.17 91.6832 309.083 91.3672 308.909C91.0511 308.732 90.8079 308.531 90.6374 308.308C90.467 308.08 90.3356 307.892 90.2433 307.743H90.0941V309H88.8796ZM90.1154 304.909C90.1154 305.527 90.206 306.072 90.3871 306.544C90.5682 307.013 90.8327 307.381 91.1808 307.647C91.5288 307.91 91.9549 308.041 92.4592 308.041C92.9847 308.041 93.4233 307.903 93.7749 307.626C94.13 307.345 94.3963 306.969 94.5739 306.496C94.755 306.021 94.8455 305.491 94.8455 304.909C94.8455 304.334 94.7567 303.815 94.5792 303.354C94.4052 302.888 94.1406 302.521 93.7855 302.251C93.4339 301.978 92.9918 301.841 92.4592 301.841C91.9478 301.841 91.5181 301.971 91.1701 302.23C90.8221 302.485 90.5593 302.844 90.3817 303.306C90.2042 303.764 90.1154 304.298 90.1154 304.909Z" fill="#2E263D" fill-opacity="0.7"/>
<path d="M109.882 298.091H111.459L115.166 307.146H115.294L119.001 298.091H120.578V309H119.342V300.712H119.236L115.827 309H114.633L111.224 300.712H111.118V309H109.882V298.091ZM125.464 309.192C124.946 309.192 124.475 309.094 124.052 308.899C123.63 308.7 123.294 308.414 123.046 308.041C122.797 307.665 122.673 307.21 122.673 306.678C122.673 306.209 122.765 305.829 122.95 305.538C123.134 305.243 123.381 305.012 123.69 304.845C123.999 304.678 124.34 304.554 124.713 304.472C125.089 304.387 125.468 304.32 125.848 304.27C126.345 304.206 126.748 304.158 127.057 304.126C127.369 304.091 127.596 304.032 127.739 303.95C127.884 303.869 127.957 303.727 127.957 303.524V303.482C127.957 302.956 127.813 302.548 127.525 302.256C127.241 301.965 126.81 301.82 126.231 301.82C125.631 301.82 125.16 301.951 124.819 302.214C124.479 302.477 124.239 302.757 124.1 303.055L122.907 302.629C123.12 302.132 123.404 301.745 123.759 301.468C124.118 301.187 124.509 300.992 124.931 300.882C125.357 300.768 125.777 300.712 126.188 300.712C126.451 300.712 126.753 300.744 127.094 300.808C127.438 300.868 127.77 300.994 128.09 301.186C128.413 301.377 128.681 301.667 128.894 302.054C129.107 302.441 129.214 302.96 129.214 303.609V309H127.957V307.892H127.893C127.808 308.07 127.666 308.26 127.467 308.462C127.268 308.664 127.003 308.837 126.673 308.979C126.343 309.121 125.94 309.192 125.464 309.192ZM125.656 308.062C126.153 308.062 126.572 307.965 126.913 307.77C127.257 307.574 127.517 307.322 127.691 307.013C127.868 306.704 127.957 306.379 127.957 306.038V304.888C127.904 304.952 127.786 305.01 127.605 305.064C127.428 305.113 127.222 305.158 126.987 305.197C126.757 305.232 126.531 305.264 126.311 305.293C126.094 305.317 125.919 305.339 125.784 305.357C125.457 305.399 125.152 305.468 124.867 305.564C124.587 305.657 124.36 305.797 124.186 305.985C124.015 306.17 123.93 306.422 123.93 306.741C123.93 307.178 124.091 307.509 124.415 307.732C124.741 307.952 125.155 308.062 125.656 308.062ZM131.508 309V300.818H132.723V302.054H132.808C132.957 301.649 133.227 301.321 133.618 301.069C134.008 300.816 134.449 300.69 134.939 300.69C135.031 300.69 135.147 300.692 135.285 300.696C135.424 300.699 135.528 300.705 135.599 300.712V301.99C135.557 301.979 135.459 301.963 135.306 301.942C135.157 301.917 134.999 301.905 134.832 301.905C134.435 301.905 134.08 301.988 133.767 302.155C133.458 302.319 133.213 302.546 133.032 302.837C132.854 303.125 132.766 303.453 132.766 303.822V309H131.508Z" fill="#2E263D" fill-opacity="0.7"/>
<path d="M150.089 309H148.704L152.71 298.091H154.074L158.079 309H156.694L153.434 299.817H153.349L150.089 309ZM150.601 304.739H156.183V305.911H150.601V304.739ZM159.608 312.068V300.818H160.823V302.118H160.972C161.064 301.976 161.192 301.795 161.355 301.575C161.522 301.351 161.76 301.152 162.069 300.978C162.382 300.8 162.804 300.712 163.337 300.712C164.026 300.712 164.633 300.884 165.159 301.228C165.684 301.573 166.094 302.061 166.389 302.693C166.684 303.325 166.831 304.071 166.831 304.93C166.831 305.797 166.684 306.548 166.389 307.184C166.094 307.816 165.686 308.306 165.164 308.654C164.642 308.998 164.04 309.17 163.358 309.17C162.833 309.17 162.412 309.083 162.096 308.909C161.78 308.732 161.536 308.531 161.366 308.308C161.195 308.08 161.064 307.892 160.972 307.743H160.865V312.068H159.608ZM160.844 304.909C160.844 305.527 160.934 306.072 161.116 306.544C161.297 307.013 161.561 307.381 161.909 307.647C162.257 307.91 162.683 308.041 163.188 308.041C163.713 308.041 164.152 307.903 164.503 307.626C164.858 307.345 165.125 306.969 165.302 306.496C165.483 306.021 165.574 305.491 165.574 304.909C165.574 304.334 165.485 303.815 165.308 303.354C165.134 302.888 164.869 302.521 164.514 302.251C164.162 301.978 163.72 301.841 163.188 301.841C162.676 301.841 162.247 301.971 161.899 302.23C161.551 302.485 161.288 302.844 161.11 303.306C160.933 303.764 160.844 304.298 160.844 304.909ZM168.749 309V300.818H169.963V302.054H170.048C170.198 301.649 170.467 301.321 170.858 301.069C171.249 300.816 171.689 300.69 172.179 300.69C172.271 300.69 172.387 300.692 172.525 300.696C172.664 300.699 172.769 300.705 172.84 300.712V301.99C172.797 301.979 172.699 301.963 172.547 301.942C172.398 301.917 172.239 301.905 172.073 301.905C171.675 301.905 171.32 301.988 171.007 302.155C170.698 302.319 170.453 302.546 170.272 302.837C170.095 303.125 170.006 303.453 170.006 303.822V309H168.749Z" fill="#2E263D" fill-opacity="0.7"/>
<path d="M185.644 298.091H187.221L190.928 307.146H191.056L194.764 298.091H196.34V309H195.104V300.712H194.998L191.589 309H190.396L186.987 300.712H186.88V309H185.644V298.091ZM201.226 309.192C200.708 309.192 200.237 309.094 199.815 308.899C199.392 308.7 199.056 308.414 198.808 308.041C198.559 307.665 198.435 307.21 198.435 306.678C198.435 306.209 198.527 305.829 198.712 305.538C198.897 305.243 199.143 305.012 199.452 304.845C199.761 304.678 200.102 304.554 200.475 304.472C200.852 304.387 201.23 304.32 201.61 304.27C202.107 304.206 202.51 304.158 202.819 304.126C203.131 304.091 203.359 304.032 203.501 303.95C203.646 303.869 203.719 303.727 203.719 303.524V303.482C203.719 302.956 203.575 302.548 203.288 302.256C203.004 301.965 202.572 301.82 201.993 301.82C201.393 301.82 200.923 301.951 200.582 302.214C200.241 302.477 200.001 302.757 199.863 303.055L198.669 302.629C198.882 302.132 199.167 301.745 199.522 301.468C199.88 301.187 200.271 300.992 200.694 300.882C201.12 300.768 201.539 300.712 201.951 300.712C202.213 300.712 202.515 300.744 202.856 300.808C203.201 300.868 203.533 300.994 203.852 301.186C204.175 301.377 204.444 301.667 204.657 302.054C204.87 302.441 204.976 302.96 204.976 303.609V309H203.719V307.892H203.655C203.57 308.07 203.428 308.26 203.229 308.462C203.03 308.664 202.766 308.837 202.435 308.979C202.105 309.121 201.702 309.192 201.226 309.192ZM201.418 308.062C201.915 308.062 202.334 307.965 202.675 307.77C203.02 307.574 203.279 307.322 203.453 307.013C203.63 306.704 203.719 306.379 203.719 306.038V304.888C203.666 304.952 203.549 305.01 203.368 305.064C203.19 305.113 202.984 305.158 202.75 305.197C202.519 305.232 202.293 305.264 202.073 305.293C201.857 305.317 201.681 305.339 201.546 305.357C201.219 305.399 200.914 305.468 200.63 305.564C200.349 305.657 200.122 305.797 199.948 305.985C199.777 306.17 199.692 306.422 199.692 306.741C199.692 307.178 199.854 307.509 200.177 307.732C200.504 307.952 200.917 308.062 201.418 308.062ZM207.787 312.068C207.574 312.068 207.384 312.05 207.217 312.015C207.051 311.983 206.935 311.951 206.871 311.919L207.191 310.811C207.496 310.889 207.766 310.918 208 310.896C208.235 310.875 208.443 310.77 208.624 310.582C208.808 310.397 208.977 310.097 209.13 309.682L209.364 309.043L206.339 300.818H207.702L209.961 307.338H210.046L212.304 300.818H213.668L210.195 310.193C210.039 310.616 209.845 310.966 209.614 311.243C209.384 311.523 209.116 311.731 208.81 311.866C208.508 312.001 208.167 312.068 207.787 312.068Z" fill="#2E263D" fill-opacity="0.7"/>
<path d="M230.43 298.091H231.751V305.889C231.751 306.585 231.623 307.176 231.367 307.663C231.112 308.15 230.751 308.519 230.286 308.771C229.821 309.023 229.272 309.149 228.64 309.149C228.043 309.149 227.513 309.041 227.047 308.824C226.582 308.604 226.216 308.292 225.95 307.887C225.684 307.482 225.551 307.001 225.551 306.443H226.85C226.85 306.752 226.927 307.022 227.079 307.253C227.236 307.48 227.449 307.658 227.718 307.786C227.988 307.913 228.296 307.977 228.64 307.977C229.02 307.977 229.343 307.897 229.609 307.738C229.876 307.578 230.078 307.343 230.217 307.034C230.359 306.722 230.43 306.34 230.43 305.889V298.091ZM239.384 305.655V300.818H240.641V309H239.384V307.615H239.299C239.107 308.031 238.809 308.384 238.404 308.675C237.999 308.963 237.488 309.107 236.87 309.107C236.358 309.107 235.904 308.995 235.506 308.771C235.108 308.544 234.796 308.203 234.569 307.748C234.341 307.29 234.228 306.713 234.228 306.017V300.818H235.485V305.932C235.485 306.528 235.652 307.004 235.986 307.359C236.323 307.714 236.753 307.892 237.275 307.892C237.587 307.892 237.905 307.812 238.228 307.652C238.555 307.493 238.828 307.248 239.048 306.917C239.272 306.587 239.384 306.166 239.384 305.655ZM244.201 304.078V309H242.944V300.818H244.158V302.097H244.265C244.456 301.681 244.748 301.347 245.138 301.095C245.529 300.839 246.033 300.712 246.651 300.712C247.205 300.712 247.69 300.825 248.105 301.053C248.521 301.276 248.844 301.617 249.075 302.075C249.305 302.53 249.421 303.105 249.421 303.801V309H248.164V303.886C248.164 303.244 247.997 302.743 247.663 302.384C247.329 302.022 246.871 301.841 246.289 301.841C245.887 301.841 245.529 301.928 245.213 302.102C244.9 302.276 244.653 302.53 244.472 302.864C244.291 303.197 244.201 303.602 244.201 304.078Z" fill="#2E263D" fill-opacity="0.7"/>
<path d="M40.0897 264.5C43.5268 262.698 51.3779 256.449 55.2854 245.875C59.1929 235.301 71.3856 197.41 76.9935 179.786C79.707 171.776 86.9792 161.161 94.36 182.79C101.741 204.419 112.631 231.456 117.154 242.27C120.591 249.88 129.636 259.453 138.319 236.863C147.002 214.273 155.685 191.402 158.942 182.79C161.474 173.778 169.796 161.161 182.821 182.79C195.845 204.419 207.785 213.031 212.127 214.633C219.182 217.237 223.672 210.193 228.408 179.786C233.835 144.94 247.04 124.112 255 115.5" stroke="url(#paint0_linear_8003_4670)" stroke-width="6" stroke-linecap="round"/>
</g>
</g>
<defs>
<filter id="filter0_d_8003_4670" x="0" y="0" width="285" height="349" filterUnits="userSpaceOnUse" color-interpolation-filters="sRGB">
<feFlood flood-opacity="0" result="BackgroundImageFix"/>
<feColorMatrix in="SourceAlpha" type="matrix" values="0 0 0 0 0 0 0 0 0 0 0 0 0 0 0 0 0 0 127 0" result="hardAlpha"/>
<feOffset dy="4"/>
<feGaussianBlur stdDeviation="5"/>
<feComposite in2="hardAlpha" operator="out"/>
<feColorMatrix type="matrix" values="0 0 0 0 0.180392 0 0 0 0 0.14902 0 0 0 0 0.239216 0 0 0 0.2 0"/>
<feBlend mode="normal" in2="BackgroundImageFix" result="effect1_dropShadow_8003_4670"/>
<feBlend mode="normal" in="SourceGraphic" in2="effect1_dropShadow_8003_4670" result="shape"/>
</filter>
<linearGradient id="paint0_linear_8003_4670" x1="40.0897" y1="270.508" x2="288.815" y2="152.859" gradientUnits="userSpaceOnUse">
<stop stop-color="#56CA00"/>
<stop offset="1" stop-color="#56CA00" stop-opacity="0"/>
</linearGradient>
<clipPath id="clip0_8003_4670">
<path d="M10 12C10 8.68628 12.6863 6 16 6H269C272.314 6 275 8.68629 275 12V329C275 332.314 272.314 335 269 335H16C12.6863 335 10 332.314 10 329V12Z" fill="white"/>
</clipPath>
</defs>
</svg>
