<svg width="382" height="164" viewBox="0 0 382 164" fill="none" xmlns="http://www.w3.org/2000/svg">
<g filter="url(#filter0_d_8003_1790)">
<path d="M10 12C10 8.68629 12.6863 6 16 6H365.333C368.647 6 371.333 8.68629 371.333 12V144C371.333 147.314 368.647 150 365.333 150H16C12.6863 150 10 147.314 10 144V12Z" fill="white"/>
<path d="M30.7926 35.6094V33.9091H40.924V35.6094H36.8395V47H34.8707V35.6094H30.7926ZM45.7212 47.1982C44.8008 47.1982 43.9975 46.9872 43.3114 46.5653C42.6254 46.1435 42.0927 45.5533 41.7134 44.7947C41.3342 44.0362 41.1445 43.1499 41.1445 42.1357C41.1445 41.1172 41.3342 40.2266 41.7134 39.4638C42.0927 38.701 42.6254 38.1087 43.3114 37.6868C43.9975 37.2649 44.8008 37.054 45.7212 37.054C46.6417 37.054 47.445 37.2649 48.131 37.6868C48.8171 38.1087 49.3498 38.701 49.729 39.4638C50.1083 40.2266 50.2979 41.1172 50.2979 42.1357C50.2979 43.1499 50.1083 44.0362 49.729 44.7947C49.3498 45.5533 48.8171 46.1435 48.131 46.5653C47.445 46.9872 46.6417 47.1982 45.7212 47.1982ZM45.7276 45.5938C46.3242 45.5938 46.8185 45.4361 47.2106 45.1207C47.6026 44.8054 47.8924 44.3857 48.0799 43.8615C48.2717 43.3374 48.3675 42.7599 48.3675 42.1293C48.3675 41.5028 48.2717 40.9276 48.0799 40.4034C47.8924 39.875 47.6026 39.451 47.2106 39.1314C46.8185 38.8118 46.3242 38.652 45.7276 38.652C45.1268 38.652 44.6282 38.8118 44.2319 39.1314C43.8398 39.451 43.5479 39.875 43.3562 40.4034C43.1687 40.9276 43.0749 41.5028 43.0749 42.1293C43.0749 42.7599 43.1687 43.3374 43.3562 43.8615C43.5479 44.3857 43.8398 44.8054 44.2319 45.1207C44.6282 45.4361 45.1268 45.5938 45.7276 45.5938ZM57.0144 37.1818V38.7159H51.6515V37.1818H57.0144ZM53.0897 34.8295H55.0009V44.1172C55.0009 44.4879 55.0563 44.767 55.1671 44.9545C55.2779 45.1378 55.4206 45.2635 55.5953 45.3317C55.7743 45.3956 55.9682 45.4276 56.177 45.4276C56.3304 45.4276 56.4647 45.4169 56.5797 45.3956C56.6948 45.3743 56.7843 45.3572 56.8482 45.3445L57.1934 46.9233C57.0826 46.9659 56.9249 47.0085 56.7203 47.0511C56.5158 47.098 56.2601 47.1236 55.9533 47.1278C55.4505 47.1364 54.9817 47.0469 54.5471 46.8594C54.1124 46.6719 53.7608 46.3821 53.4924 45.9901C53.2239 45.598 53.0897 45.1058 53.0897 44.5135V34.8295ZM61.9858 47.2173C61.3636 47.2173 60.8011 47.1023 60.2983 46.8722C59.7955 46.6378 59.397 46.299 59.103 45.8558C58.8132 45.4126 58.6683 44.8693 58.6683 44.2259C58.6683 43.6719 58.7749 43.2159 58.9879 42.858C59.201 42.5 59.4886 42.2166 59.8509 42.0078C60.2131 41.799 60.6179 41.6413 61.0653 41.5348C61.5128 41.4283 61.9688 41.3473 62.4332 41.2919C63.0213 41.2237 63.4986 41.1683 63.8651 41.1257C64.2315 41.0788 64.4979 41.0043 64.6641 40.902C64.8303 40.7997 64.9134 40.6335 64.9134 40.4034V40.3587C64.9134 39.8004 64.7557 39.3679 64.4403 39.0611C64.1293 38.7543 63.6648 38.6009 63.0469 38.6009C62.4034 38.6009 61.8963 38.7436 61.5256 39.0291C61.1591 39.3104 60.9055 39.6236 60.7649 39.9688L58.9688 39.5597C59.1818 38.9631 59.4929 38.4815 59.902 38.1151C60.3153 37.7443 60.7905 37.4759 61.3274 37.3097C61.8643 37.1392 62.429 37.054 63.0213 37.054C63.4134 37.054 63.8288 37.1009 64.2678 37.1946C64.7109 37.2841 65.1243 37.4503 65.5078 37.6932C65.8956 37.9361 66.2131 38.2834 66.4602 38.7351C66.7074 39.1825 66.831 39.7642 66.831 40.4801V47H64.9645V45.6577H64.8878C64.7642 45.9048 64.5788 46.1477 64.3317 46.3864C64.0845 46.625 63.767 46.8232 63.3793 46.9808C62.9915 47.1385 62.527 47.2173 61.9858 47.2173ZM62.4013 45.6832C62.9297 45.6832 63.3814 45.5788 63.7564 45.37C64.1357 45.1612 64.4233 44.8885 64.6193 44.5518C64.8196 44.2109 64.9197 43.8466 64.9197 43.4588V42.1932C64.8516 42.2614 64.7195 42.3253 64.5234 42.3849C64.3317 42.4403 64.1122 42.4893 63.8651 42.532C63.6179 42.5703 63.3771 42.6065 63.1428 42.6406C62.9084 42.6705 62.7124 42.696 62.5547 42.7173C62.1839 42.7642 61.8452 42.843 61.5384 42.9538C61.2358 43.0646 60.9929 43.2244 60.8097 43.4332C60.6307 43.6378 60.5412 43.9105 60.5412 44.2514C60.5412 44.7244 60.7159 45.0824 61.0653 45.3253C61.4148 45.5639 61.8601 45.6832 62.4013 45.6832ZM71.2878 33.9091V47H69.3766V33.9091H71.2878ZM85.916 37.348C85.8478 36.7429 85.5666 36.2741 85.0723 35.9418C84.5779 35.6051 83.9558 35.4368 83.2058 35.4368C82.6689 35.4368 82.2044 35.522 81.8123 35.6925C81.4203 35.8587 81.1156 36.0888 80.8983 36.3828C80.6852 36.6726 80.5787 37.0028 80.5787 37.3736C80.5787 37.6847 80.6511 37.9531 80.796 38.179C80.9451 38.4048 81.139 38.5945 81.3777 38.7479C81.6206 38.897 81.8805 39.0227 82.1575 39.125C82.4345 39.223 82.7008 39.304 82.9565 39.3679L84.2349 39.7003C84.6525 39.8026 85.0808 39.9411 85.5197 40.1158C85.9586 40.2905 86.3656 40.5206 86.7406 40.8061C87.1156 41.0916 87.4181 41.4453 87.6483 41.8672C87.8826 42.2891 87.9998 42.794 87.9998 43.3821C87.9998 44.1236 87.8081 44.782 87.4245 45.3572C87.0453 45.9325 86.4934 46.3864 85.769 46.7188C85.0488 47.0511 84.1774 47.2173 83.1547 47.2173C82.1745 47.2173 81.3265 47.0618 80.6106 46.7507C79.8947 46.4396 79.3343 45.9986 78.9295 45.4276C78.5247 44.8523 78.301 44.1705 78.2583 43.3821H80.2399C80.2782 43.8551 80.4316 44.2493 80.7001 44.5646C80.9728 44.8757 81.3201 45.108 81.742 45.2614C82.1681 45.4105 82.6348 45.4851 83.1419 45.4851C83.7001 45.4851 84.1966 45.3977 84.6312 45.223C85.0701 45.044 85.4153 44.7969 85.6667 44.4815C85.9181 44.1619 86.0439 43.7891 86.0439 43.3629C86.0439 42.9751 85.9331 42.6577 85.7115 42.4105C85.4941 42.1634 85.198 41.9588 84.823 41.7969C84.4522 41.6349 84.0325 41.4922 83.5637 41.3686L82.0169 40.9467C80.9686 40.6612 80.1376 40.2415 79.524 39.6875C78.9146 39.1335 78.6099 38.4006 78.6099 37.4886C78.6099 36.7344 78.8145 36.076 79.2235 35.5135C79.6326 34.951 80.1866 34.5142 80.8855 34.2031C81.5843 33.8878 82.3727 33.7301 83.2505 33.7301C84.1369 33.7301 84.9189 33.8857 85.5964 34.1967C86.2782 34.5078 86.8152 34.9361 87.2072 35.4815C87.5993 36.0227 87.8038 36.6449 87.8208 37.348H85.916ZM93.0639 47.2173C92.4418 47.2173 91.8793 47.1023 91.3764 46.8722C90.8736 46.6378 90.4751 46.299 90.1811 45.8558C89.8913 45.4126 89.7464 44.8693 89.7464 44.2259C89.7464 43.6719 89.853 43.2159 90.0661 42.858C90.2791 42.5 90.5668 42.2166 90.929 42.0078C91.2912 41.799 91.696 41.6413 92.1435 41.5348C92.5909 41.4283 93.0469 41.3473 93.5114 41.2919C94.0994 41.2237 94.5767 41.1683 94.9432 41.1257C95.3097 41.0788 95.576 41.0043 95.7422 40.902C95.9084 40.7997 95.9915 40.6335 95.9915 40.4034V40.3587C95.9915 39.8004 95.8338 39.3679 95.5185 39.0611C95.2074 38.7543 94.7429 38.6009 94.125 38.6009C93.4815 38.6009 92.9744 38.7436 92.6037 39.0291C92.2372 39.3104 91.9837 39.6236 91.843 39.9688L90.0469 39.5597C90.2599 38.9631 90.571 38.4815 90.9801 38.1151C91.3935 37.7443 91.8686 37.4759 92.4055 37.3097C92.9425 37.1392 93.5071 37.054 94.0994 37.054C94.4915 37.054 94.907 37.1009 95.3459 37.1946C95.7891 37.2841 96.2024 37.4503 96.5859 37.6932C96.9737 37.9361 97.2912 38.2834 97.5384 38.7351C97.7855 39.1825 97.9091 39.7642 97.9091 40.4801V47H96.0426V45.6577H95.9659C95.8423 45.9048 95.657 46.1477 95.4098 46.3864C95.1626 46.625 94.8452 46.8232 94.4574 46.9808C94.0696 47.1385 93.6051 47.2173 93.0639 47.2173ZM93.4794 45.6832C94.0078 45.6832 94.4595 45.5788 94.8345 45.37C95.2138 45.1612 95.5014 44.8885 95.6974 44.5518C95.8977 44.2109 95.9979 43.8466 95.9979 43.4588V42.1932C95.9297 42.2614 95.7976 42.3253 95.6016 42.3849C95.4098 42.4403 95.1903 42.4893 94.9432 42.532C94.696 42.5703 94.4553 42.6065 94.2209 42.6406C93.9865 42.6705 93.7905 42.696 93.6328 42.7173C93.2621 42.7642 92.9233 42.843 92.6165 42.9538C92.3139 43.0646 92.071 43.2244 91.8878 43.4332C91.7088 43.6378 91.6193 43.9105 91.6193 44.2514C91.6193 44.7244 91.794 45.0824 92.1435 45.3253C92.4929 45.5639 92.9382 45.6832 93.4794 45.6832ZM102.366 33.9091V47H100.455V33.9091H102.366ZM109.169 47.1982C108.201 47.1982 107.368 46.9915 106.669 46.5781C105.975 46.1605 105.438 45.5746 105.059 44.8203C104.684 44.0618 104.496 43.1733 104.496 42.1548C104.496 41.1491 104.684 40.2628 105.059 39.4957C105.438 38.7287 105.966 38.13 106.644 37.6996C107.326 37.2692 108.123 37.054 109.034 37.054C109.588 37.054 110.125 37.1456 110.645 37.3288C111.165 37.5121 111.632 37.7997 112.045 38.1918C112.458 38.5838 112.784 39.093 113.023 39.7195C113.262 40.3416 113.381 41.098 113.381 41.9886V42.6662H105.576V41.2344H111.508C111.508 40.7315 111.406 40.2862 111.201 39.8984C110.997 39.5064 110.709 39.1974 110.338 38.9716C109.972 38.7457 109.542 38.6328 109.047 38.6328C108.51 38.6328 108.042 38.7649 107.641 39.0291C107.245 39.2891 106.938 39.63 106.721 40.0518C106.507 40.4695 106.401 40.9233 106.401 41.4134V42.532C106.401 43.1882 106.516 43.7464 106.746 44.2067C106.98 44.6669 107.306 45.0185 107.724 45.2614C108.142 45.5 108.63 45.6193 109.188 45.6193C109.55 45.6193 109.88 45.5682 110.179 45.4659C110.477 45.3594 110.735 45.2017 110.952 44.9929C111.169 44.7841 111.336 44.5263 111.451 44.2195L113.26 44.5455C113.115 45.0781 112.855 45.5447 112.48 45.9453C112.109 46.3416 111.642 46.6506 111.08 46.8722C110.522 47.0895 109.885 47.1982 109.169 47.1982ZM122.859 39.5788L121.127 39.8857C121.054 39.6641 120.939 39.4531 120.781 39.2528C120.628 39.0526 120.419 38.8885 120.155 38.7607C119.891 38.6328 119.561 38.5689 119.164 38.5689C118.623 38.5689 118.171 38.6903 117.809 38.9332C117.447 39.1719 117.266 39.4808 117.266 39.8601C117.266 40.1882 117.387 40.4524 117.63 40.6527C117.873 40.853 118.265 41.017 118.806 41.1449L120.366 41.5028C121.269 41.7116 121.943 42.0334 122.386 42.468C122.829 42.9027 123.051 43.4673 123.051 44.1619C123.051 44.75 122.88 45.2741 122.539 45.7344C122.203 46.1903 121.732 46.5483 121.127 46.8082C120.526 47.0682 119.829 47.1982 119.036 47.1982C117.937 47.1982 117.04 46.9638 116.345 46.495C115.651 46.022 115.225 45.3509 115.067 44.4815L116.914 44.2003C117.029 44.6818 117.266 45.0462 117.624 45.2933C117.982 45.5362 118.448 45.6577 119.024 45.6577C119.65 45.6577 120.151 45.5277 120.526 45.2678C120.901 45.0036 121.088 44.6818 121.088 44.3026C121.088 43.9957 120.973 43.7379 120.743 43.5291C120.517 43.3203 120.17 43.1626 119.701 43.0561L118.039 42.6918C117.123 42.483 116.445 42.1506 116.007 41.6946C115.572 41.2386 115.355 40.6612 115.355 39.9624C115.355 39.3828 115.517 38.8757 115.84 38.4411C116.164 38.0064 116.612 37.6676 117.183 37.4247C117.754 37.1776 118.408 37.054 119.145 37.054C120.206 37.054 121.041 37.2841 121.651 37.7443C122.26 38.2003 122.663 38.8118 122.859 39.5788Z" fill="#2E263D" fill-opacity="0.9"/>
<path d="M40.0994 66.5H38.7784C38.7003 66.12 38.5636 65.7862 38.3683 65.4986C38.1765 65.2109 37.9421 64.9695 37.6651 64.7741C37.3917 64.5753 37.0881 64.4261 36.7543 64.3267C36.4205 64.2273 36.0724 64.1776 35.7102 64.1776C35.0497 64.1776 34.4513 64.3445 33.9151 64.6783C33.3825 65.0121 32.9581 65.5039 32.642 66.1538C32.3295 66.8036 32.1733 67.6009 32.1733 68.5455C32.1733 69.4901 32.3295 70.2873 32.642 70.9371C32.9581 71.587 33.3825 72.0788 33.9151 72.4126C34.4513 72.7464 35.0497 72.9134 35.7102 72.9134C36.0724 72.9134 36.4205 72.8636 36.7543 72.7642C37.0881 72.6648 37.3917 72.5174 37.6651 72.3221C37.9421 72.1232 38.1765 71.88 38.3683 71.5923C38.5636 71.3011 38.7003 70.9673 38.7784 70.5909H40.0994C40 71.1484 39.8189 71.6474 39.5561 72.0877C39.2933 72.5281 38.9666 72.9027 38.576 73.2116C38.1854 73.517 37.7468 73.7496 37.2603 73.9094C36.7773 74.0692 36.2607 74.1491 35.7102 74.1491C34.7798 74.1491 33.9524 73.9219 33.228 73.4673C32.5036 73.0128 31.9336 72.3665 31.5181 71.5284C31.1026 70.6903 30.8949 69.696 30.8949 68.5455C30.8949 67.3949 31.1026 66.4006 31.5181 65.5625C31.9336 64.7244 32.5036 64.0781 33.228 63.6236C33.9524 63.169 34.7798 62.9418 35.7102 62.9418C36.2607 62.9418 36.7773 63.0217 37.2603 63.1815C37.7468 63.3413 38.1854 63.5756 38.576 63.8846C38.9666 64.19 39.2933 64.5629 39.5561 65.0032C39.8189 65.44 40 65.9389 40.0994 66.5ZM44.4713 74.1918C43.9529 74.1918 43.4823 74.0941 43.0597 73.8988C42.6372 73.6999 42.3016 73.4141 42.053 73.0412C41.8044 72.6648 41.6801 72.2102 41.6801 71.6776C41.6801 71.2088 41.7725 70.8288 41.9571 70.5376C42.1418 70.2429 42.3886 70.0121 42.6975 69.8452C43.0065 69.6783 43.3474 69.554 43.7203 69.4723C44.0967 69.3871 44.4749 69.3196 44.8548 69.2699C45.352 69.206 45.7551 69.158 46.064 69.1261C46.3765 69.0906 46.6038 69.032 46.7458 68.9503C46.8914 68.8686 46.9642 68.7266 46.9642 68.5241V68.4815C46.9642 67.956 46.8204 67.5476 46.5328 67.2564C46.2487 66.9652 45.8172 66.8196 45.2384 66.8196C44.6382 66.8196 44.1677 66.951 43.8268 67.2138C43.4859 67.4766 43.2462 67.7571 43.1077 68.0554L41.9145 67.6293C42.1276 67.1321 42.4117 66.745 42.7668 66.468C43.1254 66.1875 43.5161 65.9922 43.9387 65.8821C44.3648 65.7685 44.7838 65.7116 45.1958 65.7116C45.4585 65.7116 45.7604 65.7436 46.1013 65.8075C46.4458 65.8679 46.7778 65.994 47.0974 66.1857C47.4205 66.3775 47.6887 66.6669 47.9017 67.054C48.1148 67.4411 48.2213 67.9595 48.2213 68.6094V74H46.9642V72.892H46.9003C46.8151 73.0696 46.673 73.2596 46.4742 73.462C46.2753 73.6644 46.0107 73.8366 45.6805 73.9787C45.3502 74.1207 44.9472 74.1918 44.4713 74.1918ZM44.6631 73.0625C45.1602 73.0625 45.5793 72.9648 45.9202 72.7695C46.2646 72.5742 46.5239 72.3221 46.6979 72.0131C46.8754 71.7042 46.9642 71.3793 46.9642 71.0384V69.8878C46.911 69.9517 46.7938 70.0103 46.6127 70.0636C46.4351 70.1133 46.2291 70.1577 45.9948 70.1967C45.7639 70.2322 45.5384 70.2642 45.3183 70.2926C45.1017 70.3175 44.9259 70.3388 44.7909 70.3565C44.4642 70.3991 44.1588 70.4684 43.8747 70.5643C43.5942 70.6566 43.3669 70.7969 43.1929 70.9851C43.0225 71.1697 42.9372 71.4219 42.9372 71.7415C42.9372 72.1783 43.0988 72.5085 43.422 72.7322C43.7487 72.9524 44.1624 73.0625 44.6631 73.0625ZM51.7729 63.0909V74H50.5158V63.0909H51.7729ZM57.3992 74.1705C56.6322 74.1705 55.9717 73.9893 55.4177 73.6271C54.8637 73.2649 54.4376 72.766 54.1393 72.1303C53.841 71.4947 53.6919 70.7685 53.6919 69.9517C53.6919 69.1207 53.8445 68.3874 54.1499 67.7518C54.4589 67.1126 54.8886 66.6136 55.439 66.255C55.993 65.8928 56.6393 65.7116 57.3779 65.7116C57.9532 65.7116 58.4717 65.8182 58.9333 66.0312C59.395 66.2443 59.7732 66.5426 60.0679 66.9261C60.3627 67.3097 60.5455 67.7571 60.6166 68.2685H59.3595C59.2636 67.8956 59.0505 67.5653 58.7203 67.2777C58.3936 66.9865 57.9532 66.8409 57.3992 66.8409C56.9092 66.8409 56.4795 66.9687 56.1102 67.2244C55.7444 67.4766 55.4585 67.8335 55.2526 68.2951C55.0502 68.7532 54.949 69.2912 54.949 69.9091C54.949 70.5412 55.0484 71.0916 55.2472 71.5604C55.4497 72.0291 55.7338 72.3931 56.0995 72.6523C56.4688 72.9116 56.9021 73.0412 57.3992 73.0412C57.7259 73.0412 58.0225 72.9844 58.2888 72.8707C58.5551 72.7571 58.7806 72.5938 58.9653 72.3807C59.1499 72.1676 59.2813 71.9119 59.3595 71.6136H60.6166C60.5455 72.0966 60.3698 72.5316 60.0892 72.9187C59.8122 73.3022 59.4447 73.6076 58.9866 73.8349C58.532 74.0586 58.0029 74.1705 57.3992 74.1705ZM67.6105 70.6548V65.8182H68.8676V74H67.6105V72.6151H67.5253C67.3335 73.0305 67.0352 73.3839 66.6304 73.6751C66.2256 73.9627 65.7142 74.1065 65.0963 74.1065C64.585 74.1065 64.1304 73.9947 63.7327 73.771C63.335 73.5437 63.0225 73.2028 62.7952 72.7482C62.5679 72.2901 62.4543 71.7131 62.4543 71.017V65.8182H63.7114V70.9318C63.7114 71.5284 63.8783 72.0043 64.2121 72.3594C64.5494 72.7145 64.9791 72.892 65.5012 72.892C65.8137 72.892 66.1315 72.8121 66.4546 72.6523C66.7813 72.4925 67.0548 72.2475 67.2749 71.9173C67.4987 71.587 67.6105 71.1662 67.6105 70.6548ZM72.4272 63.0909V74H71.1701V63.0909H72.4272ZM77.1373 74.1918C76.6189 74.1918 76.1483 74.0941 75.7258 73.8988C75.3032 73.6999 74.9676 73.4141 74.719 73.0412C74.4704 72.6648 74.3461 72.2102 74.3461 71.6776C74.3461 71.2088 74.4385 70.8288 74.6231 70.5376C74.8078 70.2429 75.0546 70.0121 75.3635 69.8452C75.6725 69.6783 76.0134 69.554 76.3863 69.4723C76.7627 69.3871 77.1409 69.3196 77.5209 69.2699C78.018 69.206 78.4211 69.158 78.73 69.1261C79.0425 69.0906 79.2698 69.032 79.4118 68.9503C79.5574 68.8686 79.6302 68.7266 79.6302 68.5241V68.4815C79.6302 67.956 79.4864 67.5476 79.1988 67.2564C78.9147 66.9652 78.4832 66.8196 77.9044 66.8196C77.3042 66.8196 76.8337 66.951 76.4928 67.2138C76.1519 67.4766 75.9122 67.7571 75.7737 68.0554L74.5805 67.6293C74.7936 67.1321 75.0777 66.745 75.4328 66.468C75.7915 66.1875 76.1821 65.9922 76.6047 65.8821C77.0308 65.7685 77.4498 65.7116 77.8618 65.7116C78.1246 65.7116 78.4264 65.7436 78.7673 65.8075C79.1118 65.8679 79.4438 65.994 79.7634 66.1857C80.0866 66.3775 80.3547 66.6669 80.5677 67.054C80.7808 67.4411 80.8873 67.9595 80.8873 68.6094V74H79.6302V72.892H79.5663C79.4811 73.0696 79.339 73.2596 79.1402 73.462C78.9413 73.6644 78.6768 73.8366 78.3465 73.9787C78.0162 74.1207 77.6132 74.1918 77.1373 74.1918ZM77.3291 73.0625C77.8263 73.0625 78.2453 72.9648 78.5862 72.7695C78.9307 72.5742 79.1899 72.3221 79.3639 72.0131C79.5415 71.7042 79.6302 71.3793 79.6302 71.0384V69.8878C79.577 69.9517 79.4598 70.0103 79.2787 70.0636C79.1011 70.1133 78.8952 70.1577 78.6608 70.1967C78.43 70.2322 78.2045 70.2642 77.9843 70.2926C77.7677 70.3175 77.5919 70.3388 77.4569 70.3565C77.1302 70.3991 76.8248 70.4684 76.5407 70.5643C76.2602 70.6566 76.0329 70.7969 75.8589 70.9851C75.6885 71.1697 75.6032 71.4219 75.6032 71.7415C75.6032 72.1783 75.7648 72.5085 76.088 72.7322C76.4147 72.9524 76.8284 73.0625 77.3291 73.0625ZM86.7401 65.8182V66.8835H82.5V65.8182H86.7401ZM83.7358 63.858H84.9929V71.6562C84.9929 72.0114 85.0444 72.2777 85.1474 72.4553C85.2539 72.6293 85.3888 72.7464 85.5522 72.8068C85.7191 72.8636 85.8949 72.892 86.0795 72.892C86.218 72.892 86.3317 72.8849 86.4205 72.8707C86.5092 72.853 86.5803 72.8388 86.6335 72.8281L86.8892 73.9574C86.804 73.9893 86.685 74.0213 86.5323 74.0533C86.3796 74.0888 86.1861 74.1065 85.9517 74.1065C85.5966 74.1065 85.2486 74.0302 84.9077 73.8775C84.5703 73.7248 84.2898 73.4922 84.0661 73.1797C83.8459 72.8672 83.7358 72.473 83.7358 71.9972V63.858ZM91.9735 74.1705C91.1852 74.1705 90.5051 73.9964 89.9334 73.6484C89.3652 73.2969 88.9267 72.8068 88.6177 72.1783C88.3123 71.5462 88.1596 70.8111 88.1596 69.973C88.1596 69.1349 88.3123 68.3963 88.6177 67.7571C88.9267 67.1143 89.3564 66.6136 89.9068 66.255C90.4608 65.8928 91.1071 65.7116 91.8457 65.7116C92.2718 65.7116 92.6926 65.7827 93.1081 65.9247C93.5236 66.0668 93.9018 66.2976 94.2427 66.6172C94.5836 66.9332 94.8553 67.3523 95.0577 67.8743C95.2601 68.3963 95.3613 69.0391 95.3613 69.8026V70.3352H89.0545V69.2486H94.0829C94.0829 68.7869 93.9906 68.375 93.8059 68.0128C93.6248 67.6506 93.3656 67.3647 93.0282 67.1552C92.6944 66.9457 92.3002 66.8409 91.8457 66.8409C91.345 66.8409 90.9118 66.9652 90.546 67.2138C90.1838 67.4588 89.905 67.7784 89.7097 68.1726C89.5144 68.5668 89.4167 68.9893 89.4167 69.4403V70.1648C89.4167 70.7827 89.5233 71.3065 89.7363 71.7362C89.9529 72.1623 90.253 72.4872 90.6365 72.7109C91.0201 72.9311 91.4657 73.0412 91.9735 73.0412C92.3038 73.0412 92.6021 72.995 92.8684 72.9027C93.1383 72.8068 93.3709 72.6648 93.5662 72.4766C93.7615 72.2848 93.9125 72.0469 94.019 71.7628L95.2335 72.1037C95.1056 72.5156 94.8908 72.8778 94.589 73.1903C94.2871 73.4993 93.9142 73.7408 93.4703 73.9148C93.0265 74.0852 92.5275 74.1705 91.9735 74.1705ZM100.363 74.1705C99.6813 74.1705 99.0794 73.9982 98.5574 73.6538C98.0353 73.3058 97.627 72.8157 97.3322 72.1836C97.0375 71.5479 96.8901 70.7969 96.8901 69.9304C96.8901 69.071 97.0375 68.3253 97.3322 67.6932C97.627 67.0611 98.0371 66.5728 98.5627 66.2283C99.0882 65.8839 99.6955 65.7116 100.384 65.7116C100.917 65.7116 101.338 65.8004 101.647 65.978C101.959 66.152 102.197 66.3509 102.361 66.5746C102.528 66.7947 102.657 66.9759 102.749 67.1179H102.856V63.0909H104.113V74H102.899V72.7429H102.749C102.657 72.892 102.526 73.0803 102.355 73.3075C102.185 73.5312 101.942 73.7319 101.626 73.9094C101.309 74.0835 100.889 74.1705 100.363 74.1705ZM100.534 73.0412C101.038 73.0412 101.464 72.9098 101.812 72.647C102.16 72.3807 102.425 72.0131 102.606 71.5444C102.787 71.0721 102.877 70.527 102.877 69.9091C102.877 69.2983 102.789 68.7638 102.611 68.3058C102.433 67.8441 102.171 67.4854 101.823 67.2298C101.475 66.9705 101.045 66.8409 100.534 66.8409C100.001 66.8409 99.557 66.9776 99.2019 67.2511C98.8503 67.521 98.5858 67.8885 98.4082 68.3537C98.2342 68.8153 98.1472 69.3338 98.1472 69.9091C98.1472 70.4915 98.236 71.0206 98.4135 71.4964C98.5946 71.9687 98.861 72.3452 99.2125 72.6257C99.5676 72.9027 100.008 73.0412 100.534 73.0412ZM110.809 74V65.8182H112.066V74H110.809ZM111.448 64.4545C111.203 64.4545 110.992 64.3711 110.814 64.2042C110.64 64.0373 110.553 63.8366 110.553 63.6023C110.553 63.3679 110.64 63.1673 110.814 63.0004C110.992 62.8335 111.203 62.75 111.448 62.75C111.693 62.75 111.903 62.8335 112.077 63.0004C112.254 63.1673 112.343 63.3679 112.343 63.6023C112.343 63.8366 112.254 64.0373 112.077 64.2042C111.903 64.3711 111.693 64.4545 111.448 64.4545ZM115.625 69.0781V74H114.368V65.8182H115.583V67.0966H115.689C115.881 66.6811 116.172 66.3473 116.563 66.0952C116.954 65.8395 117.458 65.7116 118.076 65.7116C118.63 65.7116 119.114 65.8253 119.53 66.0526C119.945 66.2763 120.269 66.6172 120.499 67.0753C120.73 67.5298 120.846 68.1051 120.846 68.8011V74H119.589V68.8864C119.589 68.2436 119.422 67.7429 119.088 67.3842C118.754 67.022 118.296 66.8409 117.714 66.8409C117.312 66.8409 116.954 66.9279 116.638 67.1019C116.325 67.2759 116.078 67.5298 115.897 67.8636C115.716 68.1974 115.625 68.6023 115.625 69.0781ZM128.619 63.0909V74H127.362V63.0909H128.619ZM133.329 74.1918C132.81 74.1918 132.34 74.0941 131.917 73.8988C131.495 73.6999 131.159 73.4141 130.91 73.0412C130.662 72.6648 130.538 72.2102 130.538 71.6776C130.538 71.2088 130.63 70.8288 130.815 70.5376C130.999 70.2429 131.246 70.0121 131.555 69.8452C131.864 69.6783 132.205 69.554 132.578 69.4723C132.954 69.3871 133.332 69.3196 133.712 69.2699C134.209 69.206 134.612 69.158 134.921 69.1261C135.234 69.0906 135.461 69.032 135.603 68.9503C135.749 68.8686 135.822 68.7266 135.822 68.5241V68.4815C135.822 67.956 135.678 67.5476 135.39 67.2564C135.106 66.9652 134.675 66.8196 134.096 66.8196C133.496 66.8196 133.025 66.951 132.684 67.2138C132.343 67.4766 132.104 67.7571 131.965 68.0554L130.772 67.6293C130.985 67.1321 131.269 66.745 131.624 66.468C131.983 66.1875 132.373 65.9922 132.796 65.8821C133.222 65.7685 133.641 65.7116 134.053 65.7116C134.316 65.7116 134.618 65.7436 134.959 65.8075C135.303 65.8679 135.635 65.994 135.955 66.1857C136.278 66.3775 136.546 66.6669 136.759 67.054C136.972 67.4411 137.079 67.9595 137.079 68.6094V74H135.822V72.892H135.758C135.672 73.0696 135.53 73.2596 135.332 73.462C135.133 73.6644 134.868 73.8366 134.538 73.9787C134.208 74.1207 133.805 74.1918 133.329 74.1918ZM133.521 73.0625C134.018 73.0625 134.437 72.9648 134.778 72.7695C135.122 72.5742 135.381 72.3221 135.555 72.0131C135.733 71.7042 135.822 71.3793 135.822 71.0384V69.8878C135.768 69.9517 135.651 70.0103 135.47 70.0636C135.293 70.1133 135.087 70.1577 134.852 70.1967C134.621 70.2322 134.396 70.2642 134.176 70.2926C133.959 70.3175 133.783 70.3388 133.648 70.3565C133.322 70.3991 133.016 70.4684 132.732 70.5643C132.452 70.6566 132.224 70.7969 132.05 70.9851C131.88 71.1697 131.795 71.4219 131.795 71.7415C131.795 72.1783 131.956 72.5085 132.279 72.7322C132.606 72.9524 133.02 73.0625 133.521 73.0625ZM145.169 67.6506L144.039 67.9702C143.968 67.782 143.864 67.5991 143.725 67.4215C143.59 67.2404 143.406 67.0913 143.171 66.9741C142.937 66.8569 142.637 66.7983 142.271 66.7983C141.77 66.7983 141.353 66.9137 141.019 67.1445C140.689 67.3718 140.524 67.6612 140.524 68.0128C140.524 68.3253 140.637 68.5721 140.865 68.7532C141.092 68.9343 141.447 69.0852 141.93 69.206L143.145 69.5043C143.876 69.6818 144.421 69.9535 144.78 70.3192C145.138 70.6815 145.318 71.1484 145.318 71.7202C145.318 72.1889 145.183 72.608 144.913 72.9773C144.647 73.3466 144.274 73.6378 143.794 73.8509C143.315 74.0639 142.757 74.1705 142.122 74.1705C141.287 74.1705 140.597 73.9893 140.05 73.6271C139.503 73.2649 139.157 72.7358 139.011 72.0398L140.204 71.7415C140.318 72.1818 140.533 72.5121 140.849 72.7322C141.168 72.9524 141.586 73.0625 142.1 73.0625C142.686 73.0625 143.152 72.9382 143.496 72.6896C143.844 72.4375 144.018 72.1357 144.018 71.7841C144.018 71.5 143.919 71.2621 143.72 71.0703C143.521 70.875 143.216 70.7294 142.804 70.6335L141.44 70.3139C140.691 70.1364 140.14 69.8612 139.789 69.4883C139.441 69.1119 139.267 68.6413 139.267 68.0767C139.267 67.6151 139.396 67.2067 139.656 66.8516C139.918 66.4964 140.275 66.2177 140.726 66.0153C141.181 65.8129 141.696 65.7116 142.271 65.7116C143.081 65.7116 143.716 65.8892 144.178 66.2443C144.643 66.5994 144.973 67.0682 145.169 67.6506ZM150.768 65.8182V66.8835H146.528V65.8182H150.768ZM147.764 63.858H149.021V71.6562C149.021 72.0114 149.073 72.2777 149.176 72.4553C149.282 72.6293 149.417 72.7464 149.581 72.8068C149.747 72.8636 149.923 72.892 150.108 72.892C150.246 72.892 150.36 72.8849 150.449 72.8707C150.538 72.853 150.609 72.8388 150.662 72.8281L150.918 73.9574C150.832 73.9893 150.713 74.0213 150.561 74.0533C150.408 74.0888 150.214 74.1065 149.98 74.1065C149.625 74.1065 149.277 74.0302 148.936 73.8775C148.599 73.7248 148.318 73.4922 148.094 73.1797C147.874 72.8672 147.764 72.473 147.764 71.9972V63.858ZM157.198 74L162.077 64.348V64.2628H156.452V63.0909H163.441V64.3267L158.583 74H157.198ZM172.756 74.1705C172.074 74.1705 171.472 73.9982 170.95 73.6538C170.428 73.3058 170.02 72.8157 169.725 72.1836C169.43 71.5479 169.283 70.7969 169.283 69.9304C169.283 69.071 169.43 68.3253 169.725 67.6932C170.02 67.0611 170.43 66.5728 170.955 66.2283C171.481 65.8839 172.088 65.7116 172.777 65.7116C173.31 65.7116 173.73 65.8004 174.039 65.978C174.352 66.152 174.59 66.3509 174.753 66.5746C174.92 66.7947 175.05 66.9759 175.142 67.1179H175.249V63.0909H176.506V74H175.291V72.7429H175.142C175.05 72.892 174.918 73.0803 174.748 73.3075C174.577 73.5312 174.334 73.7319 174.018 73.9094C173.702 74.0835 173.281 74.1705 172.756 74.1705ZM172.926 73.0412C173.43 73.0412 173.857 72.9098 174.205 72.647C174.553 72.3807 174.817 72.0131 174.998 71.5444C175.179 71.0721 175.27 70.527 175.27 69.9091C175.27 69.2983 175.181 68.7638 175.004 68.3058C174.826 67.8441 174.563 67.4854 174.215 67.2298C173.867 66.9705 173.438 66.8409 172.926 66.8409C172.393 66.8409 171.95 66.9776 171.594 67.2511C171.243 67.521 170.978 67.8885 170.801 68.3537C170.627 68.8153 170.54 69.3338 170.54 69.9091C170.54 70.4915 170.629 71.0206 170.806 71.4964C170.987 71.9687 171.254 72.3452 171.605 72.6257C171.96 72.9027 172.401 73.0412 172.926 73.0412ZM181.39 74.1918C180.872 74.1918 180.401 74.0941 179.979 73.8988C179.556 73.6999 179.221 73.4141 178.972 73.0412C178.723 72.6648 178.599 72.2102 178.599 71.6776C178.599 71.2088 178.691 70.8288 178.876 70.5376C179.061 70.2429 179.308 70.0121 179.616 69.8452C179.925 69.6783 180.266 69.554 180.639 69.4723C181.016 69.3871 181.394 69.3196 181.774 69.2699C182.271 69.206 182.674 69.158 182.983 69.1261C183.295 69.0906 183.523 69.032 183.665 68.9503C183.81 68.8686 183.883 68.7266 183.883 68.5241V68.4815C183.883 67.956 183.739 67.5476 183.452 67.2564C183.168 66.9652 182.736 66.8196 182.157 66.8196C181.557 66.8196 181.087 66.951 180.746 67.2138C180.405 67.4766 180.165 67.7571 180.027 68.0554L178.833 67.6293C179.047 67.1321 179.331 66.745 179.686 66.468C180.044 66.1875 180.435 65.9922 180.858 65.8821C181.284 65.7685 181.703 65.7116 182.115 65.7116C182.377 65.7116 182.679 65.7436 183.02 65.8075C183.365 65.8679 183.697 65.994 184.016 66.1857C184.339 66.3775 184.608 66.6669 184.821 67.054C185.034 67.4411 185.14 67.9595 185.14 68.6094V74H183.883V72.892H183.819C183.734 73.0696 183.592 73.2596 183.393 73.462C183.194 73.6644 182.93 73.8366 182.599 73.9787C182.269 74.1207 181.866 74.1918 181.39 74.1918ZM181.582 73.0625C182.079 73.0625 182.498 72.9648 182.839 72.7695C183.184 72.5742 183.443 72.3221 183.617 72.0131C183.794 71.7042 183.883 71.3793 183.883 71.0384V69.8878C183.83 69.9517 183.713 70.0103 183.532 70.0636C183.354 70.1133 183.148 70.1577 182.914 70.1967C182.683 70.2322 182.457 70.2642 182.237 70.2926C182.021 70.3175 181.845 70.3388 181.71 70.3565C181.383 70.3991 181.078 70.4684 180.794 70.5643C180.513 70.6566 180.286 70.7969 180.112 70.9851C179.941 71.1697 179.856 71.4219 179.856 71.7415C179.856 72.1783 180.018 72.5085 180.341 72.7322C180.668 72.9524 181.081 73.0625 181.582 73.0625ZM187.951 77.0682C187.738 77.0682 187.548 77.0504 187.381 77.0149C187.215 76.983 187.099 76.951 187.035 76.919L187.355 75.8111C187.66 75.8892 187.93 75.9176 188.165 75.8963C188.399 75.875 188.607 75.7702 188.788 75.582C188.972 75.3974 189.141 75.0973 189.294 74.6818L189.528 74.0426L186.503 65.8182H187.866L190.125 72.3381H190.21L192.468 65.8182H193.832L190.359 75.1932C190.203 75.6158 190.009 75.9656 189.778 76.2425C189.548 76.5231 189.28 76.7308 188.974 76.8658C188.672 77.0007 188.331 77.0682 187.951 77.0682ZM201.287 67.6506L200.158 67.9702C200.087 67.782 199.982 67.5991 199.843 67.4215C199.708 67.2404 199.524 67.0913 199.289 66.9741C199.055 66.8569 198.755 66.7983 198.389 66.7983C197.888 66.7983 197.471 66.9137 197.137 67.1445C196.807 67.3718 196.642 67.6612 196.642 68.0128C196.642 68.3253 196.756 68.5721 196.983 68.7532C197.21 68.9343 197.565 69.0852 198.048 69.206L199.263 69.5043C199.994 69.6818 200.539 69.9535 200.898 70.3192C201.257 70.6815 201.436 71.1484 201.436 71.7202C201.436 72.1889 201.301 72.608 201.031 72.9773C200.765 73.3466 200.392 73.6378 199.913 73.8509C199.433 74.0639 198.876 74.1705 198.24 74.1705C197.405 74.1705 196.715 73.9893 196.168 73.6271C195.621 73.2649 195.275 72.7358 195.129 72.0398L196.322 71.7415C196.436 72.1818 196.651 72.5121 196.967 72.7322C197.286 72.9524 197.704 73.0625 198.219 73.0625C198.805 73.0625 199.27 72.9382 199.614 72.6896C199.962 72.4375 200.136 72.1357 200.136 71.7841C200.136 71.5 200.037 71.2621 199.838 71.0703C199.639 70.875 199.334 70.7294 198.922 70.6335L197.558 70.3139C196.809 70.1364 196.258 69.8612 195.907 69.4883C195.559 69.1119 195.385 68.6413 195.385 68.0767C195.385 67.6151 195.514 67.2067 195.774 66.8516C196.036 66.4964 196.393 66.2177 196.844 66.0153C197.299 65.8129 197.814 65.7116 198.389 65.7116C199.199 65.7116 199.834 65.8892 200.296 66.2443C200.761 66.5994 201.092 67.0682 201.287 67.6506Z" fill="#2E263D" fill-opacity="0.7"/>
<path d="M37.0653 122.182V100.364H38.4631V122.182H37.0653ZM41.4375 107.131C41.3466 106.324 40.9716 105.699 40.3125 105.256C39.6534 104.807 38.8239 104.582 37.8239 104.582C37.108 104.582 36.4886 104.696 35.9659 104.923C35.4432 105.145 35.0369 105.452 34.7472 105.844C34.4631 106.23 34.321 106.67 34.321 107.165C34.321 107.58 34.4176 107.937 34.6108 108.239C34.8097 108.54 35.0682 108.793 35.3864 108.997C35.7102 109.196 36.0568 109.364 36.4261 109.5C36.7955 109.631 37.1506 109.739 37.4915 109.824L39.196 110.267C39.7528 110.403 40.3239 110.588 40.9091 110.821C41.4943 111.054 42.0369 111.361 42.5369 111.741C43.0369 112.122 43.4403 112.594 43.7472 113.156C44.0597 113.719 44.2159 114.392 44.2159 115.176C44.2159 116.165 43.9602 117.043 43.4489 117.81C42.9432 118.577 42.2074 119.182 41.2415 119.625C40.2813 120.068 39.1193 120.29 37.7557 120.29C36.4489 120.29 35.3182 120.082 34.3636 119.668C33.4091 119.253 32.6619 118.665 32.1222 117.903C31.5824 117.136 31.2841 116.227 31.2273 115.176H33.8693C33.9205 115.807 34.125 116.332 34.483 116.753C34.8466 117.168 35.3097 117.477 35.8722 117.682C36.4403 117.881 37.0625 117.98 37.7386 117.98C38.483 117.98 39.1449 117.864 39.7244 117.631C40.3097 117.392 40.7699 117.062 41.1051 116.642C41.4403 116.216 41.608 115.719 41.608 115.151C41.608 114.634 41.4602 114.21 41.1648 113.881C40.875 113.551 40.4801 113.278 39.9801 113.062C39.4858 112.847 38.9261 112.656 38.3011 112.491L36.2386 111.929C34.8409 111.548 33.733 110.989 32.9148 110.25C32.1023 109.511 31.696 108.534 31.696 107.318C31.696 106.312 31.9688 105.435 32.5142 104.685C33.0597 103.935 33.7983 103.352 34.7301 102.938C35.6619 102.517 36.7131 102.307 37.8835 102.307C39.0653 102.307 40.108 102.514 41.0114 102.929C41.9205 103.344 42.6364 103.915 43.1591 104.642C43.6818 105.364 43.9545 106.193 43.9773 107.131H41.4375ZM47.1243 120V118.091L53.0305 111.972C53.6612 111.307 54.1811 110.724 54.5902 110.224C55.005 109.719 55.3146 109.239 55.5192 108.784C55.7237 108.33 55.826 107.847 55.826 107.335C55.826 106.756 55.6896 106.256 55.4169 105.835C55.1442 105.409 54.772 105.082 54.3004 104.855C53.8288 104.622 53.2976 104.506 52.7067 104.506C52.0817 104.506 51.5362 104.634 51.0703 104.889C50.6044 105.145 50.2464 105.506 49.9964 105.972C49.7464 106.437 49.6214 106.983 49.6214 107.608H47.1072C47.1072 106.545 47.3516 105.616 47.8402 104.821C48.3288 104.026 48.9993 103.409 49.8516 102.972C50.7038 102.528 51.6726 102.307 52.7578 102.307C53.8544 102.307 54.8203 102.526 55.6555 102.963C56.4964 103.395 57.1527 103.986 57.6243 104.736C58.0959 105.48 58.3317 106.321 58.3317 107.259C58.3317 107.906 58.2095 108.54 57.9652 109.159C57.7266 109.778 57.3089 110.469 56.7124 111.23C56.1158 111.986 55.2862 112.903 54.2237 113.983L50.755 117.614V117.741H58.6129V120H47.1243ZM67.6044 120.239C66.5362 120.239 65.576 120.034 64.7237 119.625C63.8771 119.21 63.201 118.642 62.6953 117.92C62.1896 117.199 61.9197 116.375 61.8857 115.449H64.4425C64.505 116.199 64.8374 116.815 65.4396 117.298C66.0419 117.781 66.7635 118.023 67.6044 118.023C68.2749 118.023 68.8686 117.869 69.3857 117.562C69.9084 117.25 70.3175 116.821 70.6129 116.276C70.9141 115.73 71.0646 115.108 71.0646 114.409C71.0646 113.699 70.9112 113.065 70.6044 112.509C70.2976 111.952 69.8743 111.514 69.3345 111.196C68.8004 110.878 68.1868 110.716 67.4936 110.71C66.9652 110.71 66.4339 110.801 65.8999 110.983C65.3658 111.165 64.9339 111.403 64.6044 111.699L62.1925 111.341L63.1726 102.545H72.7692V104.804H65.3629L64.8089 109.688H64.9112C65.2521 109.358 65.7038 109.082 66.2663 108.861C66.8345 108.639 67.4425 108.528 68.0902 108.528C69.1527 108.528 70.0987 108.781 70.9283 109.287C71.7635 109.793 72.4197 110.483 72.897 111.358C73.38 112.227 73.6186 113.227 73.6129 114.358C73.6186 115.489 73.3629 116.497 72.8459 117.384C72.3345 118.27 71.6243 118.969 70.7152 119.48C69.8118 119.986 68.7749 120.239 67.6044 120.239ZM79.4425 117.614L79.3146 118.543C79.2294 119.224 79.0845 119.935 78.88 120.673C78.6811 121.418 78.4737 122.108 78.2578 122.744C78.0476 123.381 77.8743 123.886 77.7379 124.261H75.9311C76.005 123.909 76.1072 123.432 76.2379 122.83C76.3686 122.233 76.4964 121.565 76.6214 120.827C76.7464 120.088 76.8402 119.335 76.9027 118.568L76.9879 117.614H79.4425ZM88.6001 102.307C89.3786 102.312 90.1456 102.455 90.9013 102.733C91.657 103.011 92.3388 103.466 92.9467 104.097C93.5604 104.727 94.049 105.58 94.4126 106.653C94.782 107.722 94.9695 109.051 94.9751 110.642C94.9751 112.17 94.8217 113.531 94.5149 114.724C94.2081 115.912 93.7678 116.915 93.1939 117.733C92.6257 118.551 91.9354 119.173 91.1229 119.599C90.3104 120.026 89.3956 120.239 88.3786 120.239C87.3388 120.239 86.4155 120.034 85.6087 119.625C84.8018 119.216 84.1456 118.651 83.6399 117.929C83.1342 117.202 82.8189 116.366 82.6939 115.423H85.2933C85.4638 116.173 85.8104 116.781 86.3331 117.247C86.8615 117.707 87.5433 117.938 88.3786 117.938C89.657 117.938 90.6541 117.381 91.37 116.267C92.0859 115.148 92.4467 113.585 92.4524 111.58H92.3161C92.0206 112.068 91.6513 112.489 91.2081 112.841C90.7706 113.193 90.2791 113.466 89.7337 113.659C89.1882 113.852 88.6058 113.949 87.9865 113.949C86.9808 113.949 86.0661 113.702 85.2422 113.207C84.4183 112.713 83.7621 112.034 83.2734 111.17C82.7848 110.307 82.5405 109.321 82.5405 108.213C82.5405 107.111 82.7905 106.111 83.2905 105.213C83.7962 104.315 84.5007 103.605 85.4041 103.082C86.3132 102.554 87.3786 102.295 88.6001 102.307ZM88.6087 104.523C87.9439 104.523 87.3445 104.687 86.8104 105.017C86.282 105.341 85.8643 105.781 85.5575 106.338C85.2507 106.889 85.0973 107.503 85.0973 108.179C85.0973 108.855 85.245 109.469 85.5405 110.02C85.8416 110.565 86.2507 111 86.7678 111.324C87.2905 111.642 87.8871 111.801 88.5575 111.801C89.0575 111.801 89.5234 111.705 89.9553 111.511C90.3871 111.318 90.7649 111.051 91.0888 110.71C91.4126 110.364 91.6655 109.972 91.8473 109.534C92.0291 109.097 92.12 108.636 92.12 108.153C92.12 107.511 91.9666 106.915 91.6598 106.364C91.3587 105.812 90.9439 105.369 90.4155 105.034C89.8871 104.693 89.2848 104.523 88.6087 104.523ZM103.952 120.239C102.73 120.239 101.651 120.028 100.713 119.608C99.7813 119.187 99.0511 118.608 98.5227 117.869C97.9943 117.131 97.733 116.29 97.7386 115.347C97.733 114.608 97.8835 113.929 98.1903 113.31C98.5028 112.685 98.9261 112.165 99.4602 111.75C99.9943 111.33 100.591 111.062 101.25 110.949V110.847C100.381 110.636 99.6847 110.17 99.1619 109.449C98.6392 108.727 98.3807 107.898 98.3864 106.96C98.3807 106.068 98.6165 105.273 99.0938 104.574C99.5767 103.869 100.239 103.315 101.08 102.912C101.92 102.509 102.878 102.307 103.952 102.307C105.014 102.307 105.963 102.511 106.798 102.92C107.639 103.324 108.301 103.878 108.784 104.582C109.267 105.281 109.511 106.074 109.517 106.96C109.511 107.898 109.244 108.727 108.716 109.449C108.188 110.17 107.5 110.636 106.653 110.847V110.949C107.307 111.062 107.895 111.33 108.418 111.75C108.946 112.165 109.366 112.685 109.679 113.31C109.997 113.929 110.159 114.608 110.165 115.347C110.159 116.29 109.892 117.131 109.364 117.869C108.835 118.608 108.102 119.187 107.165 119.608C106.233 120.028 105.162 120.239 103.952 120.239ZM103.952 118.082C104.673 118.082 105.298 117.963 105.827 117.724C106.355 117.48 106.764 117.142 107.054 116.71C107.344 116.273 107.491 115.761 107.497 115.176C107.491 114.568 107.332 114.031 107.02 113.565C106.713 113.099 106.295 112.733 105.767 112.466C105.239 112.199 104.634 112.065 103.952 112.065C103.264 112.065 102.653 112.199 102.119 112.466C101.585 112.733 101.165 113.099 100.858 113.565C100.551 114.031 100.401 114.568 100.406 115.176C100.401 115.761 100.54 116.273 100.824 116.71C101.114 117.142 101.526 117.48 102.06 117.724C102.594 117.963 103.224 118.082 103.952 118.082ZM103.952 109.96C104.531 109.96 105.045 109.844 105.494 109.611C105.943 109.378 106.295 109.054 106.551 108.639C106.813 108.224 106.946 107.739 106.952 107.182C106.946 106.636 106.815 106.159 106.56 105.75C106.31 105.341 105.96 105.026 105.511 104.804C105.063 104.577 104.543 104.463 103.952 104.463C103.349 104.463 102.821 104.577 102.366 104.804C101.918 105.026 101.568 105.341 101.318 105.75C101.068 106.159 100.946 106.636 100.952 107.182C100.946 107.739 101.071 108.224 101.327 108.639C101.582 109.054 101.935 109.378 102.384 109.611C102.838 109.844 103.361 109.96 103.952 109.96ZM119.295 120.29C117.948 120.284 116.798 119.929 115.843 119.224C114.888 118.52 114.158 117.494 113.653 116.148C113.147 114.801 112.894 113.179 112.894 111.281C112.894 109.389 113.147 107.773 113.653 106.432C114.164 105.091 114.897 104.068 115.852 103.364C116.812 102.659 117.96 102.307 119.295 102.307C120.63 102.307 121.775 102.662 122.729 103.372C123.684 104.077 124.414 105.099 124.92 106.44C125.431 107.776 125.687 109.389 125.687 111.281C125.687 113.185 125.434 114.81 124.928 116.156C124.423 117.497 123.692 118.523 122.738 119.233C121.783 119.938 120.636 120.29 119.295 120.29ZM119.295 118.014C120.477 118.014 121.4 117.438 122.065 116.284C122.735 115.131 123.07 113.463 123.07 111.281C123.07 109.832 122.917 108.608 122.61 107.608C122.309 106.602 121.874 105.841 121.306 105.324C120.744 104.801 120.073 104.54 119.295 104.54C118.119 104.54 117.195 105.119 116.525 106.278C115.854 107.437 115.516 109.105 115.511 111.281C115.511 112.736 115.661 113.966 115.962 114.972C116.269 115.972 116.704 116.73 117.266 117.247C117.829 117.759 118.505 118.014 119.295 118.014Z" fill="#2E263D" fill-opacity="0.9"/>
<path d="M135.41 114.41L140 109.83L144.59 114.41L146 113L140 107L134 113L135.41 114.41Z" fill="#56CA00"/>
<path d="M156.964 105.091V116H155.643V106.476H155.58L152.916 108.244V106.902L155.643 105.091H156.964ZM163.511 116.149C162.886 116.149 162.323 116.025 161.822 115.776C161.322 115.528 160.92 115.187 160.619 114.754C160.317 114.32 160.152 113.827 160.123 113.273H161.402C161.451 113.766 161.675 114.175 162.073 114.498C162.474 114.817 162.953 114.977 163.511 114.977C163.958 114.977 164.356 114.873 164.704 114.663C165.056 114.453 165.331 114.166 165.53 113.8C165.732 113.431 165.833 113.013 165.833 112.548C165.833 112.072 165.729 111.648 165.519 111.275C165.313 110.899 165.029 110.602 164.667 110.386C164.305 110.169 163.891 110.059 163.426 110.055C163.092 110.052 162.749 110.103 162.398 110.21C162.046 110.313 161.757 110.446 161.529 110.609L160.294 110.46L160.954 105.091H166.622V106.263H162.062L161.679 109.48H161.743C161.966 109.303 162.247 109.155 162.584 109.038C162.922 108.921 163.273 108.862 163.639 108.862C164.306 108.862 164.901 109.022 165.423 109.342C165.949 109.658 166.361 110.091 166.659 110.641C166.961 111.192 167.112 111.82 167.112 112.527C167.112 113.223 166.956 113.844 166.643 114.391C166.334 114.935 165.908 115.364 165.365 115.68C164.821 115.993 164.203 116.149 163.511 116.149ZM169.755 116.085C169.492 116.085 169.267 115.991 169.079 115.803C168.891 115.615 168.796 115.389 168.796 115.126C168.796 114.864 168.891 114.638 169.079 114.45C169.267 114.262 169.492 114.168 169.755 114.168C170.018 114.168 170.244 114.262 170.432 114.45C170.62 114.638 170.714 114.864 170.714 115.126C170.714 115.3 170.67 115.46 170.581 115.606C170.496 115.751 170.38 115.869 170.235 115.957C170.093 116.043 169.933 116.085 169.755 116.085ZM176.19 116.149C175.742 116.142 175.295 116.057 174.848 115.893C174.4 115.73 173.992 115.455 173.622 115.068C173.253 114.677 172.957 114.15 172.733 113.486C172.509 112.818 172.397 111.98 172.397 110.972C172.397 110.006 172.488 109.15 172.669 108.404C172.85 107.655 173.113 107.025 173.457 106.513C173.802 105.998 174.217 105.608 174.704 105.341C175.194 105.075 175.746 104.942 176.36 104.942C176.971 104.942 177.514 105.064 177.99 105.309C178.47 105.551 178.86 105.888 179.162 106.321C179.464 106.755 179.659 107.254 179.748 107.818H178.448C178.328 107.328 178.093 106.922 177.745 106.598C177.397 106.275 176.936 106.114 176.36 106.114C175.515 106.114 174.849 106.481 174.363 107.216C173.88 107.951 173.637 108.983 173.633 110.311H173.718C173.917 110.009 174.153 109.752 174.427 109.539C174.704 109.322 175.009 109.155 175.343 109.038C175.677 108.921 176.03 108.862 176.403 108.862C177.028 108.862 177.6 109.018 178.118 109.331C178.637 109.64 179.052 110.068 179.365 110.615C179.677 111.158 179.833 111.781 179.833 112.484C179.833 113.159 179.682 113.777 179.381 114.338C179.079 114.896 178.654 115.339 178.108 115.67C177.564 115.996 176.925 116.156 176.19 116.149ZM176.19 114.977C176.637 114.977 177.039 114.865 177.394 114.642C177.752 114.418 178.035 114.118 178.241 113.741C178.45 113.365 178.555 112.946 178.555 112.484C178.555 112.033 178.454 111.623 178.251 111.254C178.052 110.881 177.777 110.585 177.426 110.364C177.078 110.144 176.68 110.034 176.233 110.034C175.895 110.034 175.581 110.102 175.29 110.237C174.998 110.368 174.743 110.549 174.523 110.78C174.306 111.011 174.136 111.275 174.011 111.574C173.887 111.868 173.825 112.179 173.825 112.506C173.825 112.939 173.926 113.344 174.128 113.72C174.334 114.097 174.615 114.4 174.97 114.631C175.329 114.862 175.735 114.977 176.19 114.977ZM187.489 113.955V113.379C187.489 112.982 187.571 112.618 187.734 112.287C187.901 111.953 188.143 111.687 188.459 111.488C188.778 111.286 189.165 111.185 189.62 111.185C190.081 111.185 190.469 111.286 190.781 111.488C191.094 111.687 191.33 111.953 191.49 112.287C191.649 112.618 191.729 112.982 191.729 113.379V113.955C191.729 114.352 191.648 114.718 191.484 115.052C191.324 115.382 191.086 115.648 190.77 115.851C190.458 116.05 190.074 116.149 189.62 116.149C189.158 116.149 188.769 116.05 188.453 115.851C188.137 115.648 187.898 115.382 187.734 115.052C187.571 114.718 187.489 114.352 187.489 113.955ZM188.576 113.379V113.955C188.576 114.285 188.654 114.581 188.81 114.844C188.966 115.103 189.236 115.233 189.62 115.233C189.993 115.233 190.256 115.103 190.408 114.844C190.564 114.581 190.643 114.285 190.643 113.955V113.379C190.643 113.049 190.568 112.754 190.419 112.495C190.27 112.232 190.003 112.101 189.62 112.101C189.247 112.101 188.979 112.232 188.816 112.495C188.656 112.754 188.576 113.049 188.576 113.379ZM182.056 107.712V107.136C182.056 106.739 182.138 106.375 182.301 106.044C182.468 105.711 182.709 105.444 183.025 105.245C183.345 105.043 183.732 104.942 184.187 104.942C184.648 104.942 185.035 105.043 185.348 105.245C185.66 105.444 185.896 105.711 186.056 106.044C186.216 106.375 186.296 106.739 186.296 107.136V107.712C186.296 108.109 186.214 108.475 186.051 108.809C185.891 109.139 185.653 109.406 185.337 109.608C185.025 109.807 184.641 109.906 184.187 109.906C183.725 109.906 183.336 109.807 183.02 109.608C182.704 109.406 182.464 109.139 182.301 108.809C182.138 108.475 182.056 108.109 182.056 107.712ZM183.143 107.136V107.712C183.143 108.042 183.221 108.338 183.377 108.601C183.533 108.86 183.803 108.99 184.187 108.99C184.559 108.99 184.822 108.86 184.975 108.601C185.131 108.338 185.209 108.042 185.209 107.712V107.136C185.209 106.806 185.135 106.511 184.986 106.252C184.836 105.989 184.57 105.858 184.187 105.858C183.814 105.858 183.546 105.989 183.382 106.252C183.222 106.511 183.143 106.806 183.143 107.136ZM182.461 116L189.961 105.091H191.175L183.675 116H182.461Z" fill="#56CA00"/>
<mask id="path-7-outside-1_8003_1790" maskUnits="userSpaceOnUse" x="242.836" y="18.3679" width="116.102" height="119.651" fill="black">
<rect fill="white" x="242.836" y="18.3679" width="116.102" height="119.651"/>
<path d="M255.499 82.3324C257.8 108.658 280.186 128.06 305.499 125.668C330.813 123.275 349.468 99.9937 347.168 73.6676C344.867 47.3415 322.481 27.9397 297.168 30.3324C271.854 32.7251 253.198 56.0063 255.499 82.3324ZM340.292 74.3175C342.248 96.6946 326.391 116.484 304.874 118.517C283.358 120.551 264.33 104.06 262.374 81.6825C260.419 59.3054 276.276 39.5163 297.792 37.4825C319.309 35.4487 338.337 51.9403 340.292 74.3175Z"/>
</mask>
<path d="M255.499 82.3324C257.8 108.658 280.186 128.06 305.499 125.668C330.813 123.275 349.468 99.9937 347.168 73.6676C344.867 47.3415 322.481 27.9397 297.168 30.3324C271.854 32.7251 253.198 56.0063 255.499 82.3324ZM340.292 74.3175C342.248 96.6946 326.391 116.484 304.874 118.517C283.358 120.551 264.33 104.06 262.374 81.6825C260.419 59.3054 276.276 39.5163 297.792 37.4825C319.309 35.4487 338.337 51.9403 340.292 74.3175Z" fill="#FF4C51"/>
<path d="M255.499 82.3324C257.8 108.658 280.186 128.06 305.499 125.668C330.813 123.275 349.468 99.9937 347.168 73.6676C344.867 47.3415 322.481 27.9397 297.168 30.3324C271.854 32.7251 253.198 56.0063 255.499 82.3324ZM340.292 74.3175C342.248 96.6946 326.391 116.484 304.874 118.517C283.358 120.551 264.33 104.06 262.374 81.6825C260.419 59.3054 276.276 39.5163 297.792 37.4825C319.309 35.4487 338.337 51.9403 340.292 74.3175Z" stroke="white" stroke-width="14" mask="url(#path-7-outside-1_8003_1790)"/>
<mask id="path-8-outside-2_8003_1790" maskUnits="userSpaceOnUse" x="242.749" y="17.3716" width="116.189" height="120.648" fill="black">
<rect fill="white" x="242.749" y="17.3716" width="116.189" height="120.648"/>
<path d="M300.338 30.1471C309.438 29.9424 318.393 32.5488 326.069 37.6367C333.745 42.7247 339.798 50.0656 343.462 58.7312C347.127 67.3969 348.238 76.998 346.656 86.3205C345.073 95.6429 340.868 104.268 334.573 111.105C328.277 117.942 320.173 122.684 311.286 124.731C302.399 126.779 293.128 126.039 284.645 122.606C276.162 119.174 268.848 113.202 263.628 105.446C258.409 97.6906 255.518 88.4995 255.321 79.035L262.223 78.8798C262.39 86.9245 264.847 94.737 269.284 101.329C273.721 107.922 279.937 112.998 287.148 115.915C294.358 118.833 302.239 119.462 309.793 117.722C317.347 115.982 324.235 111.951 329.587 106.139C334.938 100.328 338.512 92.9965 339.857 85.0724C341.202 77.1483 340.258 68.9873 337.143 61.6215C334.028 54.2558 328.883 48.016 322.359 43.6912C315.834 39.3665 308.223 37.151 300.487 37.325L300.338 30.1471Z"/>
</mask>
<path d="M300.338 30.1471C309.438 29.9424 318.393 32.5488 326.069 37.6367C333.745 42.7247 339.798 50.0656 343.462 58.7312C347.127 67.3969 348.238 76.998 346.656 86.3205C345.073 95.6429 340.868 104.268 334.573 111.105C328.277 117.942 320.173 122.684 311.286 124.731C302.399 126.779 293.128 126.039 284.645 122.606C276.162 119.174 268.848 113.202 263.628 105.446C258.409 97.6906 255.518 88.4995 255.321 79.035L262.223 78.8798C262.39 86.9245 264.847 94.737 269.284 101.329C273.721 107.922 279.937 112.998 287.148 115.915C294.358 118.833 302.239 119.462 309.793 117.722C317.347 115.982 324.235 111.951 329.587 106.139C334.938 100.328 338.512 92.9965 339.857 85.0724C341.202 77.1483 340.258 68.9873 337.143 61.6215C334.028 54.2558 328.883 48.016 322.359 43.6912C315.834 39.3665 308.223 37.151 300.487 37.325L300.338 30.1471Z" fill="#FFB400"/>
<path d="M300.338 30.1471C309.438 29.9424 318.393 32.5488 326.069 37.6367C333.745 42.7247 339.798 50.0656 343.462 58.7312C347.127 67.3969 348.238 76.998 346.656 86.3205C345.073 95.6429 340.868 104.268 334.573 111.105C328.277 117.942 320.173 122.684 311.286 124.731C302.399 126.779 293.128 126.039 284.645 122.606C276.162 119.174 268.848 113.202 263.628 105.446C258.409 97.6906 255.518 88.4995 255.321 79.035L262.223 78.8798C262.39 86.9245 264.847 94.737 269.284 101.329C273.721 107.922 279.937 112.998 287.148 115.915C294.358 118.833 302.239 119.462 309.793 117.722C317.347 115.982 324.235 111.951 329.587 106.139C334.938 100.328 338.512 92.9965 339.857 85.0724C341.202 77.1483 340.258 68.9873 337.143 61.6215C334.028 54.2558 328.883 48.016 322.359 43.6912C315.834 39.3665 308.223 37.151 300.487 37.325L300.338 30.1471Z" stroke="white" stroke-width="14" mask="url(#path-8-outside-2_8003_1790)"/>
<mask id="path-9-outside-3_8003_1790" maskUnits="userSpaceOnUse" x="285.558" y="17.3716" width="73.3797" height="116.601" fill="black">
<rect fill="white" x="285.558" y="17.3716" width="73.3797" height="116.601"/>
<path d="M300.338 30.1471C306.381 30.0112 312.39 31.1143 318.022 33.3936C323.655 35.6729 328.8 39.0836 333.165 43.431C337.53 47.7784 341.029 52.9775 343.462 58.7312C345.895 64.485 347.215 70.6808 347.346 76.9649C347.476 83.2491 346.416 89.4984 344.224 95.3562C342.032 101.214 338.753 106.566 334.573 111.105C330.392 115.645 325.393 119.284 319.861 121.814C314.329 124.345 308.371 125.717 302.329 125.853L302.179 118.675C307.315 118.559 312.379 117.393 317.082 115.242C321.784 113.091 326.034 109.998 329.587 106.139C333.14 102.281 335.928 97.7319 337.79 92.7528C339.653 87.7737 340.555 82.4617 340.444 77.1202C340.333 71.7787 339.211 66.5122 337.143 61.6215C335.075 56.7308 332.101 52.3117 328.39 48.6164C324.68 44.921 320.306 42.0219 315.519 40.0846C310.731 38.1472 305.623 37.2095 300.487 37.325L300.338 30.1471Z"/>
</mask>
<path d="M300.338 30.1471C306.381 30.0112 312.39 31.1143 318.022 33.3936C323.655 35.6729 328.8 39.0836 333.165 43.431C337.53 47.7784 341.029 52.9775 343.462 58.7312C345.895 64.485 347.215 70.6808 347.346 76.9649C347.476 83.2491 346.416 89.4984 344.224 95.3562C342.032 101.214 338.753 106.566 334.573 111.105C330.392 115.645 325.393 119.284 319.861 121.814C314.329 124.345 308.371 125.717 302.329 125.853L302.179 118.675C307.315 118.559 312.379 117.393 317.082 115.242C321.784 113.091 326.034 109.998 329.587 106.139C333.14 102.281 335.928 97.7319 337.79 92.7528C339.653 87.7737 340.555 82.4617 340.444 77.1202C340.333 71.7787 339.211 66.5122 337.143 61.6215C335.075 56.7308 332.101 52.3117 328.39 48.6164C324.68 44.921 320.306 42.0219 315.519 40.0846C310.731 38.1472 305.623 37.2095 300.487 37.325L300.338 30.1471Z" fill="#16B1FF"/>
<path d="M300.338 30.1471C306.381 30.0112 312.39 31.1143 318.022 33.3936C323.655 35.6729 328.8 39.0836 333.165 43.431C337.53 47.7784 341.029 52.9775 343.462 58.7312C345.895 64.485 347.215 70.6808 347.346 76.9649C347.476 83.2491 346.416 89.4984 344.224 95.3562C342.032 101.214 338.753 106.566 334.573 111.105C330.392 115.645 325.393 119.284 319.861 121.814C314.329 124.345 308.371 125.717 302.329 125.853L302.179 118.675C307.315 118.559 312.379 117.393 317.082 115.242C321.784 113.091 326.034 109.998 329.587 106.139C333.14 102.281 335.928 97.7319 337.79 92.7528C339.653 87.7737 340.555 82.4617 340.444 77.1202C340.333 71.7787 339.211 66.5122 337.143 61.6215C335.075 56.7308 332.101 52.3117 328.39 48.6164C324.68 44.921 320.306 42.0219 315.519 40.0846C310.731 38.1472 305.623 37.2095 300.487 37.325L300.338 30.1471Z" stroke="white" stroke-width="14" mask="url(#path-9-outside-3_8003_1790)"/>
<mask id="path-10-outside-4_8003_1790" maskUnits="userSpaceOnUse" x="291.532" y="17.3716" width="66.1004" height="101.094" fill="black">
<rect fill="white" x="291.532" y="17.3716" width="66.1004" height="101.094"/>
<path d="M300.338 30.1471C308.747 29.958 317.045 32.1689 324.33 36.5397C331.616 40.9105 337.61 47.2741 341.663 54.9391C345.715 62.6041 347.67 71.2774 347.316 80.0168C346.961 88.7563 344.311 97.2276 339.652 104.511L333.904 100.534C337.864 94.3435 340.117 87.1428 340.418 79.7143C340.719 72.2858 339.058 64.9135 335.613 58.3982C332.169 51.883 327.073 46.4739 320.881 42.7587C314.688 39.0435 307.635 37.1643 300.487 37.325L300.338 30.1471Z"/>
</mask>
<path d="M300.338 30.1471C308.747 29.958 317.045 32.1689 324.33 36.5397C331.616 40.9105 337.61 47.2741 341.663 54.9391C345.715 62.6041 347.67 71.2774 347.316 80.0168C346.961 88.7563 344.311 97.2276 339.652 104.511L333.904 100.534C337.864 94.3435 340.117 87.1428 340.418 79.7143C340.719 72.2858 339.058 64.9135 335.613 58.3982C332.169 51.883 327.073 46.4739 320.881 42.7587C314.688 39.0435 307.635 37.1643 300.487 37.325L300.338 30.1471Z" fill="#8C57FF"/>
<path d="M300.338 30.1471C308.747 29.958 317.045 32.1689 324.33 36.5397C331.616 40.9105 337.61 47.2741 341.663 54.9391C345.715 62.6041 347.67 71.2774 347.316 80.0168C346.961 88.7563 344.311 97.2276 339.652 104.511L333.904 100.534C337.864 94.3435 340.117 87.1428 340.418 79.7143C340.719 72.2858 339.058 64.9135 335.613 58.3982C332.169 51.883 327.073 46.4739 320.881 42.7587C314.688 39.0435 307.635 37.1643 300.487 37.325L300.338 30.1471Z" stroke="white" stroke-width="14" mask="url(#path-10-outside-4_8003_1790)"/>
<path d="M283.933 75V73.5682L288.363 68.9787C288.836 68.4801 289.226 68.0433 289.533 67.6683C289.844 67.2891 290.076 66.929 290.23 66.5881C290.383 66.2472 290.46 65.8849 290.46 65.5014C290.46 65.0668 290.357 64.6918 290.153 64.3764C289.948 64.0568 289.669 63.8118 289.315 63.6413C288.962 63.4666 288.563 63.3793 288.12 63.3793C287.651 63.3793 287.242 63.4751 286.893 63.6669C286.543 63.8587 286.275 64.1293 286.087 64.4787C285.9 64.8281 285.806 65.2372 285.806 65.706H283.921C283.921 64.9091 284.104 64.2124 284.47 63.6158C284.837 63.0192 285.34 62.5568 285.979 62.2287C286.618 61.8963 287.345 61.7301 288.159 61.7301C288.981 61.7301 289.705 61.8942 290.332 62.2223C290.962 62.5462 291.455 62.9893 291.808 63.5518C292.162 64.1101 292.339 64.7408 292.339 65.4439C292.339 65.9297 292.247 66.4048 292.064 66.8693C291.885 67.3338 291.572 67.8516 291.124 68.4226C290.677 68.9893 290.055 69.6776 289.258 70.4872L286.656 73.2102V73.3061H292.55V75H283.933ZM299.396 75.179C298.48 75.179 297.67 75.0213 296.967 74.706C296.268 74.3906 295.72 73.956 295.324 73.402C294.928 72.848 294.732 72.2173 294.736 71.5099C294.732 70.956 294.845 70.4467 295.075 69.9822C295.309 69.5135 295.627 69.1236 296.027 68.8125C296.428 68.4972 296.875 68.2969 297.369 68.2116V68.1349C296.717 67.9773 296.195 67.6278 295.803 67.0866C295.411 66.5455 295.217 65.9233 295.222 65.2202C295.217 64.5511 295.394 63.9545 295.752 63.4304C296.114 62.902 296.611 62.4865 297.242 62.1839C297.872 61.8814 298.59 61.7301 299.396 61.7301C300.193 61.7301 300.904 61.8835 301.531 62.1903C302.161 62.4929 302.658 62.9084 303.02 63.4368C303.382 63.9609 303.565 64.5554 303.57 65.2202C303.565 65.9233 303.365 66.5455 302.969 67.0866C302.573 67.6278 302.057 67.9773 301.422 68.1349V68.2116C301.912 68.2969 302.353 68.4972 302.745 68.8125C303.141 69.1236 303.457 69.5135 303.691 69.9822C303.93 70.4467 304.051 70.956 304.056 71.5099C304.051 72.2173 303.851 72.848 303.455 73.402C303.058 73.956 302.509 74.3906 301.806 74.706C301.107 75.0213 300.303 75.179 299.396 75.179ZM299.396 73.5618C299.937 73.5618 300.406 73.4723 300.802 73.2933C301.198 73.1101 301.505 72.8565 301.722 72.5327C301.94 72.2045 302.051 71.821 302.055 71.3821C302.051 70.9261 301.931 70.5234 301.697 70.174C301.467 69.8246 301.154 69.5497 300.757 69.3494C300.361 69.1491 299.907 69.049 299.396 69.049C298.88 69.049 298.422 69.1491 298.021 69.3494C297.621 69.5497 297.306 69.8246 297.075 70.174C296.845 70.5234 296.732 70.9261 296.737 71.3821C296.732 71.821 296.837 72.2045 297.05 72.5327C297.267 72.8565 297.576 73.1101 297.977 73.2933C298.377 73.4723 298.85 73.5618 299.396 73.5618ZM299.396 67.4702C299.83 67.4702 300.216 67.3828 300.553 67.2081C300.889 67.0334 301.154 66.7905 301.345 66.4794C301.541 66.1683 301.641 65.804 301.646 65.3864C301.641 64.9773 301.543 64.6193 301.352 64.3125C301.164 64.0057 300.902 63.7692 300.565 63.603C300.229 63.4325 299.839 63.3473 299.396 63.3473C298.944 63.3473 298.548 63.4325 298.207 63.603C297.87 63.7692 297.608 64.0057 297.421 64.3125C297.233 64.6193 297.141 64.9773 297.146 65.3864C297.141 65.804 297.235 66.1683 297.427 66.4794C297.619 66.7905 297.883 67.0334 298.22 67.2081C298.56 67.3828 298.953 67.4702 299.396 67.4702ZM313.179 72.5455V71.8551C313.179 71.3608 313.281 70.9091 313.485 70.5C313.694 70.0866 313.997 69.7564 314.393 69.5092C314.794 69.2578 315.277 69.1321 315.844 69.1321C316.424 69.1321 316.909 69.2557 317.301 69.5028C317.693 69.75 317.99 70.0803 318.19 70.4936C318.394 70.907 318.497 71.3608 318.497 71.8551V72.5455C318.497 73.0398 318.394 73.4936 318.19 73.907C317.985 74.3161 317.685 74.6463 317.289 74.8977C316.897 75.1449 316.415 75.2685 315.844 75.2685C315.269 75.2685 314.783 75.1449 314.387 74.8977C313.99 74.6463 313.69 74.3161 313.485 73.907C313.281 73.4936 313.179 73.0398 313.179 72.5455ZM314.668 71.8551V72.5455C314.668 72.9119 314.755 73.2443 314.93 73.5426C315.105 73.8409 315.409 73.9901 315.844 73.9901C316.274 73.9901 316.575 73.8409 316.745 73.5426C316.916 73.2443 317.001 72.9119 317.001 72.5455V71.8551C317.001 71.4886 316.918 71.1562 316.752 70.858C316.59 70.5597 316.287 70.4105 315.844 70.4105C315.418 70.4105 315.115 70.5597 314.936 70.858C314.757 71.1562 314.668 71.4886 314.668 71.8551ZM306.595 65.054V64.3636C306.595 63.8693 306.697 63.4155 306.902 63.0021C307.11 62.5888 307.413 62.2585 307.809 62.0114C308.21 61.7642 308.693 61.6406 309.26 61.6406C309.84 61.6406 310.326 61.7642 310.718 62.0114C311.11 62.2585 311.406 62.5888 311.606 63.0021C311.806 63.4155 311.907 63.8693 311.907 64.3636V65.054C311.907 65.5483 311.804 66.0021 311.6 66.4155C311.399 66.8246 311.101 67.1548 310.705 67.4062C310.313 67.6534 309.831 67.777 309.26 67.777C308.681 67.777 308.193 67.6534 307.796 67.4062C307.404 67.1548 307.106 66.8246 306.902 66.4155C306.697 66.0021 306.595 65.5483 306.595 65.054ZM308.091 64.3636V65.054C308.091 65.4205 308.176 65.7528 308.346 66.0511C308.521 66.3494 308.826 66.4986 309.26 66.4986C309.686 66.4986 309.985 66.3494 310.155 66.0511C310.33 65.7528 310.417 65.4205 310.417 65.054V64.3636C310.417 63.9972 310.334 63.6648 310.168 63.3665C310.002 63.0682 309.699 62.919 309.26 62.919C308.834 62.919 308.532 63.0682 308.353 63.3665C308.178 63.6648 308.091 63.9972 308.091 64.3636ZM307.202 75L316.202 61.9091H317.73L308.73 75H307.202Z" fill="#2E263D" fill-opacity="0.9"/>
<path d="M279.871 87.5455V97H278.726V88.7457H278.67L276.362 90.2784V89.1151L278.726 87.5455H279.871ZM289.847 94.0455H291.103L292.155 95.4304L292.432 95.7997L294.002 97.8864H292.746L291.712 96.5014L291.453 96.1506L289.847 94.0455ZM294.39 92.2727C294.39 93.2699 294.21 94.1316 293.849 94.858C293.489 95.5843 292.995 96.1444 292.368 96.5384C291.74 96.9323 291.023 97.1293 290.216 97.1293C289.41 97.1293 288.693 96.9323 288.065 96.5384C287.437 96.1444 286.943 95.5843 286.583 94.858C286.223 94.1316 286.043 93.2699 286.043 92.2727C286.043 91.2756 286.223 90.4138 286.583 89.6875C286.943 88.9612 287.437 88.401 288.065 88.0071C288.693 87.6132 289.41 87.4162 290.216 87.4162C291.023 87.4162 291.74 87.6132 292.368 88.0071C292.995 88.401 293.489 88.9612 293.849 89.6875C294.21 90.4138 294.39 91.2756 294.39 92.2727ZM293.282 92.2727C293.282 91.4541 293.145 90.7631 292.871 90.1999C292.6 89.6367 292.232 89.2105 291.767 88.9212C291.306 88.6319 290.789 88.4872 290.216 88.4872C289.644 88.4872 289.125 88.6319 288.661 88.9212C288.199 89.2105 287.831 89.6367 287.557 90.1999C287.286 90.7631 287.151 91.4541 287.151 92.2727C287.151 93.0914 287.286 93.7823 287.557 94.3455C287.831 94.9087 288.199 95.335 288.661 95.6243C289.125 95.9136 289.644 96.0582 290.216 96.0582C290.789 96.0582 291.306 95.9136 291.767 95.6243C292.232 95.335 292.6 94.9087 292.871 94.3455C293.145 93.7823 293.282 93.0914 293.282 92.2727ZM300.636 94.1009V89.9091H301.725V97H300.636V95.7997H300.562C300.396 96.1598 300.137 96.466 299.786 96.7184C299.435 96.9677 298.992 97.0923 298.457 97.0923C298.013 97.0923 297.62 96.9954 297.275 96.8015C296.93 96.6045 296.659 96.3091 296.462 95.9151C296.265 95.5181 296.167 95.018 296.167 94.4148V89.9091H297.256V94.3409C297.256 94.858 297.401 95.2704 297.69 95.5781C297.983 95.8859 298.355 96.0398 298.808 96.0398C299.078 96.0398 299.354 95.9705 299.634 95.832C299.917 95.6935 300.154 95.4812 300.345 95.195C300.539 94.9087 300.636 94.544 300.636 94.1009ZM305.807 97.1662C305.358 97.1662 304.95 97.0816 304.584 96.9123C304.218 96.7399 303.927 96.4922 303.711 96.169C303.496 95.8428 303.388 95.4489 303.388 94.9872C303.388 94.581 303.468 94.2517 303.628 93.9993C303.788 93.7438 304.002 93.5438 304.27 93.3991C304.538 93.2545 304.833 93.1468 305.156 93.076C305.483 93.0021 305.81 92.9437 306.14 92.9006C306.571 92.8452 306.92 92.8036 307.188 92.7759C307.458 92.7451 307.655 92.6944 307.778 92.6236C307.905 92.5528 307.968 92.4297 307.968 92.2543V92.2173C307.968 91.7618 307.843 91.4079 307.594 91.1555C307.348 90.9032 306.974 90.777 306.472 90.777C305.952 90.777 305.544 90.8909 305.249 91.1186C304.953 91.3464 304.745 91.5895 304.625 91.848L303.591 91.4787C303.776 91.0478 304.022 90.7124 304.33 90.4723C304.641 90.2292 304.979 90.0599 305.346 89.9645C305.715 89.866 306.078 89.8168 306.435 89.8168C306.663 89.8168 306.924 89.8445 307.22 89.8999C307.518 89.9522 307.806 90.0614 308.083 90.2276C308.363 90.3938 308.596 90.6446 308.78 90.9801C308.965 91.3156 309.057 91.7649 309.057 92.3281V97H307.968V96.0398H307.912C307.839 96.1937 307.715 96.3583 307.543 96.5337C307.371 96.7092 307.141 96.8584 306.855 96.9815C306.569 97.1046 306.22 97.1662 305.807 97.1662ZM305.973 96.1875C306.404 96.1875 306.767 96.1029 307.063 95.9336C307.361 95.7643 307.586 95.5458 307.737 95.2781C307.891 95.0103 307.968 94.7287 307.968 94.4332V93.4361C307.922 93.4915 307.82 93.5423 307.663 93.5884C307.509 93.6315 307.331 93.67 307.128 93.7038C306.928 93.7346 306.732 93.7623 306.541 93.7869C306.354 93.8085 306.201 93.8269 306.084 93.8423C305.801 93.8793 305.536 93.9393 305.29 94.0224C305.047 94.1024 304.85 94.224 304.699 94.3871C304.552 94.5471 304.478 94.7656 304.478 95.0426C304.478 95.4212 304.618 95.7074 304.898 95.9013C305.181 96.0921 305.54 96.1875 305.973 96.1875ZM314.13 89.9091V90.8324H310.455V89.9091H314.13ZM311.526 88.2102H312.615V94.9688C312.615 95.2765 312.66 95.5073 312.749 95.6612C312.842 95.812 312.959 95.9136 313.1 95.9659C313.245 96.0152 313.397 96.0398 313.557 96.0398C313.677 96.0398 313.776 96.0336 313.853 96.0213C313.93 96.0059 313.991 95.9936 314.037 95.9844L314.259 96.9631C314.185 96.9908 314.082 97.0185 313.95 97.0462C313.817 97.0769 313.649 97.0923 313.446 97.0923C313.139 97.0923 312.837 97.0262 312.542 96.8938C312.249 96.7615 312.006 96.5599 311.812 96.2891C311.621 96.0182 311.526 95.6766 311.526 95.2642V88.2102ZM318.665 97.1477C317.982 97.1477 317.393 96.9969 316.897 96.6953C316.405 96.3906 316.025 95.9659 315.757 95.4212C315.492 94.8733 315.36 94.2363 315.36 93.5099C315.36 92.7836 315.492 92.1435 315.757 91.5895C316.025 91.0324 316.397 90.5985 316.874 90.2876C317.354 89.9737 317.914 89.8168 318.555 89.8168C318.924 89.8168 319.289 89.8783 319.649 90.0014C320.009 90.1245 320.336 90.3246 320.632 90.6016C320.927 90.8755 321.163 91.2386 321.338 91.6911C321.514 92.1435 321.601 92.7005 321.601 93.3622V93.8239H316.135V92.8821H320.493C320.493 92.482 320.413 92.125 320.253 91.8111C320.096 91.4972 319.872 91.2494 319.579 91.0678C319.29 90.8862 318.948 90.7955 318.555 90.7955C318.121 90.7955 317.745 90.9032 317.428 91.1186C317.114 91.331 316.873 91.608 316.703 91.9496C316.534 92.2912 316.449 92.6574 316.449 93.0483V93.6761C316.449 94.2116 316.542 94.6656 316.726 95.038C316.914 95.4073 317.174 95.6889 317.507 95.8828C317.839 96.0736 318.225 96.169 318.665 96.169C318.952 96.169 319.21 96.129 319.441 96.049C319.675 95.9659 319.876 95.8428 320.046 95.6797C320.215 95.5135 320.346 95.3073 320.438 95.0611L321.491 95.3565C321.38 95.7135 321.194 96.0275 320.932 96.2983C320.67 96.5661 320.347 96.7753 319.963 96.9261C319.578 97.0739 319.145 97.1477 318.665 97.1477ZM323.259 97V89.9091H324.311V90.9801H324.385C324.514 90.6293 324.748 90.3446 325.087 90.1261C325.425 89.9076 325.807 89.7983 326.232 89.7983C326.312 89.7983 326.412 89.7998 326.532 89.8029C326.652 89.806 326.743 89.8106 326.804 89.8168V90.9247C326.767 90.9155 326.683 90.9016 326.55 90.8832C326.421 90.8616 326.284 90.8509 326.139 90.8509C325.795 90.8509 325.487 90.9232 325.216 91.0678C324.948 91.2094 324.736 91.4064 324.579 91.6587C324.425 91.908 324.348 92.1927 324.348 92.5128V97H323.259Z" fill="#2E263D" fill-opacity="0.7"/>
</g>
<defs>
<filter id="filter0_d_8003_1790" x="0" y="0" width="381.333" height="164" filterUnits="userSpaceOnUse" color-interpolation-filters="sRGB">
<feFlood flood-opacity="0" result="BackgroundImageFix"/>
<feColorMatrix in="SourceAlpha" type="matrix" values="0 0 0 0 0 0 0 0 0 0 0 0 0 0 0 0 0 0 127 0" result="hardAlpha"/>
<feOffset dy="4"/>
<feGaussianBlur stdDeviation="5"/>
<feComposite in2="hardAlpha" operator="out"/>
<feColorMatrix type="matrix" values="0 0 0 0 0.180392 0 0 0 0 0.14902 0 0 0 0 0.239216 0 0 0 0.2 0"/>
<feBlend mode="normal" in2="BackgroundImageFix" result="effect1_dropShadow_8003_1790"/>
<feBlend mode="normal" in="SourceGraphic" in2="effect1_dropShadow_8003_1790" result="shape"/>
</filter>
</defs>
</svg>
