<svg width="767" height="200" viewBox="0 0 767 200" fill="none" xmlns="http://www.w3.org/2000/svg">
<g filter="url(#filter0_d_8003_6708)">
<g clip-path="url(#clip0_8003_6708)">
<path d="M10 12C10 8.6863 12.6863 6 16 6H751C754.314 6 757 8.68629 757 12V180C757 183.314 754.314 186 751 186H16C12.6863 186 10 183.314 10 180V12Z" fill="white"/>
<path d="M30.7926 35.6094V33.9091H40.924V35.6094H36.8395V47H34.8707V35.6094H30.7926ZM41.9899 47V37.1818H43.8372V38.7415H43.9395C44.1184 38.2131 44.4338 37.7976 44.8855 37.495C45.3414 37.1882 45.8571 37.0348 46.4324 37.0348C46.5517 37.0348 46.6923 37.0391 46.8542 37.0476C47.0204 37.0561 47.1504 37.0668 47.2441 37.0795V38.9077C47.1674 38.8864 47.0311 38.8629 46.8351 38.8374C46.639 38.8075 46.443 38.7926 46.247 38.7926C45.7953 38.7926 45.3926 38.8885 45.0389 39.0803C44.6895 39.2678 44.4125 39.5298 44.2079 39.8665C44.0034 40.1989 43.9011 40.5781 43.9011 41.0043V47H41.9899ZM51.6674 47.2173C51.0453 47.2173 50.4828 47.1023 49.9799 46.8722C49.4771 46.6378 49.0787 46.299 48.7846 45.8558C48.4949 45.4126 48.35 44.8693 48.35 44.2259C48.35 43.6719 48.4565 43.2159 48.6696 42.858C48.8826 42.5 49.1703 42.2166 49.5325 42.0078C49.8947 41.799 50.2995 41.6413 50.747 41.5348C51.1944 41.4283 51.6504 41.3473 52.1149 41.2919C52.7029 41.2237 53.1802 41.1683 53.5467 41.1257C53.9132 41.0788 54.1795 41.0043 54.3457 40.902C54.5119 40.7997 54.595 40.6335 54.595 40.4034V40.3587C54.595 39.8004 54.4373 39.3679 54.122 39.0611C53.8109 38.7543 53.3464 38.6009 52.7285 38.6009C52.085 38.6009 51.5779 38.7436 51.2072 39.0291C50.8407 39.3104 50.5872 39.6236 50.4466 39.9688L48.6504 39.5597C48.8635 38.9631 49.1745 38.4815 49.5836 38.1151C49.997 37.7443 50.4721 37.4759 51.0091 37.3097C51.546 37.1392 52.1106 37.054 52.7029 37.054C53.095 37.054 53.5105 37.1009 53.9494 37.1946C54.3926 37.2841 54.8059 37.4503 55.1895 37.6932C55.5772 37.9361 55.8947 38.2834 56.1419 38.7351C56.389 39.1825 56.5126 39.7642 56.5126 40.4801V47H54.6461V45.6577H54.5694C54.4458 45.9048 54.2605 46.1477 54.0133 46.3864C53.7662 46.625 53.4487 46.8232 53.0609 46.9808C52.6731 47.1385 52.2086 47.2173 51.6674 47.2173ZM52.0829 45.6832C52.6113 45.6832 53.063 45.5788 53.438 45.37C53.8173 45.1612 54.1049 44.8885 54.301 44.5518C54.5012 44.2109 54.6014 43.8466 54.6014 43.4588V42.1932C54.5332 42.2614 54.4011 42.3253 54.2051 42.3849C54.0133 42.4403 53.7939 42.4893 53.5467 42.532C53.2995 42.5703 53.0588 42.6065 52.8244 42.6406C52.59 42.6705 52.394 42.696 52.2363 42.7173C51.8656 42.7642 51.5268 42.843 51.22 42.9538C50.9174 43.0646 50.6745 43.2244 50.4913 43.4332C50.3123 43.6378 50.2228 43.9105 50.2228 44.2514C50.2228 44.7244 50.3975 45.0824 50.747 45.3253C51.0964 45.5639 51.5417 45.6832 52.0829 45.6832ZM60.9695 41.1705V47H59.0582V37.1818H60.8928V38.7798H61.0142C61.2401 38.2599 61.5938 37.8423 62.0753 37.527C62.5611 37.2116 63.1726 37.054 63.9098 37.054C64.5788 37.054 65.1648 37.1946 65.6676 37.4759C66.1705 37.7528 66.5604 38.1662 66.8374 38.7159C67.1143 39.2656 67.2528 39.9453 67.2528 40.755V47H65.3416V40.9851C65.3416 40.2734 65.1563 39.7173 64.7855 39.3168C64.4148 38.9119 63.9055 38.7095 63.2578 38.7095C62.8146 38.7095 62.4205 38.8054 62.0753 38.9972C61.7344 39.1889 61.4638 39.4702 61.2635 39.8409C61.0675 40.2074 60.9695 40.6506 60.9695 41.1705ZM77.1733 39.5788L75.4411 39.8857C75.3686 39.6641 75.2536 39.4531 75.0959 39.2528C74.9425 39.0526 74.7337 38.8885 74.4695 38.7607C74.2053 38.6328 73.875 38.5689 73.4787 38.5689C72.9375 38.5689 72.4858 38.6903 72.1236 38.9332C71.7614 39.1719 71.5803 39.4808 71.5803 39.8601C71.5803 40.1882 71.7017 40.4524 71.9446 40.6527C72.1875 40.853 72.5795 41.017 73.1207 41.1449L74.6804 41.5028C75.5838 41.7116 76.2571 42.0334 76.7003 42.468C77.1435 42.9027 77.3651 43.4673 77.3651 44.1619C77.3651 44.75 77.1946 45.2741 76.8537 45.7344C76.517 46.1903 76.0462 46.5483 75.4411 46.8082C74.8402 47.0682 74.1435 47.1982 73.3509 47.1982C72.2514 47.1982 71.3544 46.9638 70.6598 46.495C69.9652 46.022 69.5391 45.3509 69.3814 44.4815L71.2287 44.2003C71.3438 44.6818 71.5803 45.0462 71.9382 45.2933C72.2962 45.5362 72.7628 45.6577 73.3381 45.6577C73.9645 45.6577 74.4652 45.5277 74.8402 45.2678C75.2152 45.0036 75.4027 44.6818 75.4027 44.3026C75.4027 43.9957 75.2876 43.7379 75.0575 43.5291C74.8317 43.3203 74.4844 43.1626 74.0156 43.0561L72.3537 42.6918C71.4375 42.483 70.7599 42.1506 70.321 41.6946C69.8864 41.2386 69.669 40.6612 69.669 39.9624C69.669 39.3828 69.831 38.8757 70.1548 38.4411C70.4787 38.0064 70.9261 37.6676 71.4972 37.4247C72.0682 37.1776 72.7223 37.054 73.4595 37.054C74.5206 37.054 75.3558 37.2841 75.9652 37.7443C76.5746 38.2003 76.9773 38.8118 77.1733 39.5788ZM82.3237 47.2173C81.7015 47.2173 81.139 47.1023 80.6362 46.8722C80.1333 46.6378 79.7349 46.299 79.4409 45.8558C79.1511 45.4126 79.0062 44.8693 79.0062 44.2259C79.0062 43.6719 79.1127 43.2159 79.3258 42.858C79.5389 42.5 79.8265 42.2166 80.1887 42.0078C80.551 41.799 80.9558 41.6413 81.4032 41.5348C81.8507 41.4283 82.3066 41.3473 82.7711 41.2919C83.3592 41.2237 83.8365 41.1683 84.2029 41.1257C84.5694 41.0788 84.8358 41.0043 85.002 40.902C85.1681 40.7997 85.2512 40.6335 85.2512 40.4034V40.3587C85.2512 39.8004 85.0936 39.3679 84.7782 39.0611C84.4672 38.7543 84.0027 38.6009 83.3848 38.6009C82.7413 38.6009 82.2342 38.7436 81.8635 39.0291C81.497 39.3104 81.2434 39.6236 81.1028 39.9688L79.3066 39.5597C79.5197 38.9631 79.8308 38.4815 80.2399 38.1151C80.6532 37.7443 81.1284 37.4759 81.6653 37.3097C82.2022 37.1392 82.7669 37.054 83.3592 37.054C83.7512 37.054 84.1667 37.1009 84.6056 37.1946C85.0488 37.2841 85.4622 37.4503 85.8457 37.6932C86.2335 37.9361 86.551 38.2834 86.7981 38.7351C87.0453 39.1825 87.1689 39.7642 87.1689 40.4801V47H85.3024V45.6577H85.2257C85.1021 45.9048 84.9167 46.1477 84.6696 46.3864C84.4224 46.625 84.1049 46.8232 83.7172 46.9808C83.3294 47.1385 82.8649 47.2173 82.3237 47.2173ZM82.7392 45.6832C83.2676 45.6832 83.7193 45.5788 84.0943 45.37C84.4735 45.1612 84.7612 44.8885 84.9572 44.5518C85.1575 44.2109 85.2576 43.8466 85.2576 43.4588V42.1932C85.1895 42.2614 85.0574 42.3253 84.8613 42.3849C84.6696 42.4403 84.4501 42.4893 84.2029 42.532C83.9558 42.5703 83.715 42.6065 83.4806 42.6406C83.2463 42.6705 83.0502 42.696 82.8926 42.7173C82.5218 42.7642 82.1831 42.843 81.8762 42.9538C81.5737 43.0646 81.3308 43.2244 81.1475 43.4332C80.9686 43.6378 80.8791 43.9105 80.8791 44.2514C80.8791 44.7244 81.0538 45.0824 81.4032 45.3253C81.7527 45.5639 82.198 45.6832 82.7392 45.6832ZM93.8501 47.1982C92.8999 47.1982 92.0817 46.983 91.3956 46.5526C90.7138 46.1179 90.1896 45.5192 89.8232 44.7564C89.4567 43.9936 89.2734 43.12 89.2734 42.1357C89.2734 41.1385 89.4609 40.2585 89.8359 39.4957C90.2109 38.7287 90.7393 38.13 91.4212 37.6996C92.103 37.2692 92.9063 37.054 93.831 37.054C94.5767 37.054 95.2415 37.1925 95.8253 37.4695C96.4091 37.7422 96.88 38.1257 97.2379 38.62C97.6001 39.1143 97.8153 39.6918 97.8835 40.3523H96.0234C95.9212 39.892 95.6868 39.4957 95.3203 39.1634C94.9581 38.831 94.4723 38.6648 93.8629 38.6648C93.3303 38.6648 92.8636 38.8054 92.4631 39.0866C92.0668 39.3636 91.7578 39.7599 91.5362 40.2756C91.3146 40.7869 91.2038 41.392 91.2038 42.0909C91.2038 42.8068 91.3125 43.4247 91.5298 43.9446C91.7472 44.4645 92.054 44.8672 92.4503 45.1527C92.8509 45.4382 93.3217 45.581 93.8629 45.581C94.2251 45.581 94.5533 45.5149 94.8473 45.3828C95.1456 45.2464 95.3949 45.0526 95.5952 44.8011C95.7997 44.5497 95.9425 44.2472 96.0234 43.8935H97.8835C97.8153 44.5284 97.6087 45.0952 97.2635 45.5938C96.9183 46.0923 96.456 46.4844 95.8764 46.7699C95.3011 47.0554 94.6257 47.1982 93.8501 47.1982ZM104.51 37.1818V38.7159H99.1475V37.1818H104.51ZM100.586 34.8295H102.497V44.1172C102.497 44.4879 102.552 44.767 102.663 44.9545C102.774 45.1378 102.917 45.2635 103.091 45.3317C103.27 45.3956 103.464 45.4276 103.673 45.4276C103.827 45.4276 103.961 45.4169 104.076 45.3956C104.191 45.3743 104.28 45.3572 104.344 45.3445L104.689 46.9233C104.579 46.9659 104.421 47.0085 104.216 47.0511C104.012 47.098 103.756 47.1236 103.449 47.1278C102.947 47.1364 102.478 47.0469 102.043 46.8594C101.608 46.6719 101.257 46.3821 100.988 45.9901C100.72 45.598 100.586 45.1058 100.586 44.5135V34.8295ZM106.625 47V37.1818H108.536V47H106.625ZM107.59 35.6669C107.257 35.6669 106.972 35.5561 106.733 35.3345C106.499 35.1087 106.382 34.8402 106.382 34.5291C106.382 34.2138 106.499 33.9453 106.733 33.7237C106.972 33.4979 107.257 33.3849 107.59 33.3849C107.922 33.3849 108.206 33.4979 108.44 33.7237C108.679 33.9453 108.798 34.2138 108.798 34.5291C108.798 34.8402 108.679 35.1087 108.44 35.3345C108.206 35.5561 107.922 35.6669 107.59 35.6669ZM115.243 47.1982C114.322 47.1982 113.519 46.9872 112.833 46.5653C112.147 46.1435 111.614 45.5533 111.235 44.7947C110.856 44.0362 110.666 43.1499 110.666 42.1357C110.666 41.1172 110.856 40.2266 111.235 39.4638C111.614 38.701 112.147 38.1087 112.833 37.6868C113.519 37.2649 114.322 37.054 115.243 37.054C116.163 37.054 116.966 37.2649 117.653 37.6868C118.339 38.1087 118.871 38.701 119.251 39.4638C119.63 40.2266 119.819 41.1172 119.819 42.1357C119.819 43.1499 119.63 44.0362 119.251 44.7947C118.871 45.5533 118.339 46.1435 117.653 46.5653C116.966 46.9872 116.163 47.1982 115.243 47.1982ZM115.249 45.5938C115.846 45.5938 116.34 45.4361 116.732 45.1207C117.124 44.8054 117.414 44.3857 117.601 43.8615C117.793 43.3374 117.889 42.7599 117.889 42.1293C117.889 41.5028 117.793 40.9276 117.601 40.4034C117.414 39.875 117.124 39.451 116.732 39.1314C116.34 38.8118 115.846 38.652 115.249 38.652C114.648 38.652 114.15 38.8118 113.753 39.1314C113.361 39.451 113.069 39.875 112.878 40.4034C112.69 40.9276 112.596 41.5028 112.596 42.1293C112.596 42.7599 112.69 43.3374 112.878 43.8615C113.069 44.3857 113.361 44.8054 113.753 45.1207C114.15 45.4361 114.648 45.5938 115.249 45.5938ZM123.864 41.1705V47H121.953V37.1818H123.787V38.7798H123.909C124.135 38.2599 124.488 37.8423 124.97 37.527C125.456 37.2116 126.067 37.054 126.804 37.054C127.473 37.054 128.059 37.1946 128.562 37.4759C129.065 37.7528 129.455 38.1662 129.732 38.7159C130.009 39.2656 130.147 39.9453 130.147 40.755V47H128.236V40.9851C128.236 40.2734 128.051 39.7173 127.68 39.3168C127.309 38.9119 126.8 38.7095 126.152 38.7095C125.709 38.7095 125.315 38.8054 124.97 38.9972C124.629 39.1889 124.358 39.4702 124.158 39.8409C123.962 40.2074 123.864 40.6506 123.864 41.1705ZM140.068 39.5788L138.336 39.8857C138.263 39.6641 138.148 39.4531 137.99 39.2528C137.837 39.0526 137.628 38.8885 137.364 38.7607C137.1 38.6328 136.77 38.5689 136.373 38.5689C135.832 38.5689 135.38 38.6903 135.018 38.9332C134.656 39.1719 134.475 39.4808 134.475 39.8601C134.475 40.1882 134.596 40.4524 134.839 40.6527C135.082 40.853 135.474 41.017 136.015 41.1449L137.575 41.5028C138.478 41.7116 139.152 42.0334 139.595 42.468C140.038 42.9027 140.26 43.4673 140.26 44.1619C140.26 44.75 140.089 45.2741 139.748 45.7344C139.412 46.1903 138.941 46.5483 138.336 46.8082C137.735 47.0682 137.038 47.1982 136.245 47.1982C135.146 47.1982 134.249 46.9638 133.554 46.495C132.86 46.022 132.434 45.3509 132.276 44.4815L134.123 44.2003C134.238 44.6818 134.475 45.0462 134.833 45.2933C135.191 45.5362 135.657 45.6577 136.233 45.6577C136.859 45.6577 137.36 45.5277 137.735 45.2678C138.11 45.0036 138.297 44.6818 138.297 44.3026C138.297 43.9957 138.182 43.7379 137.952 43.5291C137.726 43.3203 137.379 43.1626 136.91 43.0561L135.248 42.6918C134.332 42.483 133.654 42.1506 133.216 41.6946C132.781 41.2386 132.564 40.6612 132.564 39.9624C132.564 39.3828 132.725 38.8757 133.049 38.4411C133.373 38.0064 133.821 37.6676 134.392 37.4247C134.963 37.1776 135.617 37.054 136.354 37.054C137.415 37.054 138.25 37.2841 138.86 37.7443C139.469 38.2003 139.872 38.8118 140.068 39.5788Z" fill="#2E263D" fill-opacity="0.9"/>
<path d="M30.6605 60.5078V59.0909H39.1033V60.5078H35.6996V70H34.0589V60.5078H30.6605ZM43.101 70.1651C42.334 70.1651 41.6646 69.9893 41.0929 69.6378C40.5211 69.2862 40.0772 68.7944 39.7612 68.1623C39.4451 67.5302 39.2871 66.7915 39.2871 65.9464C39.2871 65.0977 39.4451 64.3555 39.7612 63.7198C40.0772 63.0842 40.5211 62.5906 41.0929 62.239C41.6646 61.8874 42.334 61.7116 43.101 61.7116C43.8681 61.7116 44.5375 61.8874 45.1092 62.239C45.6809 62.5906 46.1248 63.0842 46.4409 63.7198C46.7569 64.3555 46.915 65.0977 46.915 65.9464C46.915 66.7915 46.7569 67.5302 46.4409 68.1623C46.1248 68.7944 45.6809 69.2862 45.1092 69.6378C44.5375 69.9893 43.8681 70.1651 43.101 70.1651ZM43.1064 68.8281C43.6035 68.8281 44.0154 68.6967 44.3422 68.4339C44.6689 68.1712 44.9103 67.8214 45.0666 67.3846C45.2264 66.9478 45.3063 66.4666 45.3063 65.9411C45.3063 65.419 45.2264 64.9396 45.0666 64.5028C44.9103 64.0625 44.6689 63.7092 44.3422 63.4428C44.0154 63.1765 43.6035 63.0433 43.1064 63.0433C42.6056 63.0433 42.1902 63.1765 41.8599 63.4428C41.5332 63.7092 41.29 64.0625 41.1301 64.5028C40.9739 64.9396 40.8958 65.419 40.8958 65.9411C40.8958 66.4666 40.9739 66.9478 41.1301 67.3846C41.29 67.8214 41.5332 68.1712 41.8599 68.4339C42.1902 68.6967 42.6056 68.8281 43.1064 68.8281ZM52.512 61.8182V63.0966H48.0429V61.8182H52.512ZM49.2414 59.858H50.8341V67.5977C50.8341 67.9066 50.8802 68.1392 50.9726 68.2955C51.0649 68.4482 51.1839 68.5529 51.3295 68.6097C51.4786 68.663 51.6402 68.6896 51.8142 68.6896C51.942 68.6896 52.0539 68.6808 52.1498 68.663C52.2456 68.6452 52.3202 68.631 52.3735 68.6204L52.6611 69.9361C52.5688 69.9716 52.4374 70.0071 52.267 70.0426C52.0965 70.0817 51.8834 70.103 51.6278 70.1065C51.2087 70.1136 50.8181 70.0391 50.4559 69.8828C50.0937 69.7266 49.8007 69.4851 49.577 69.1584C49.3532 68.8317 49.2414 68.4215 49.2414 67.9279V59.858ZM56.6548 70.1811C56.1364 70.1811 55.6676 70.0852 55.2486 69.8935C54.8295 69.6982 54.4975 69.4158 54.2525 69.0465C54.011 68.6772 53.8903 68.2244 53.8903 67.6882C53.8903 67.2266 53.979 66.8466 54.1566 66.5483C54.3342 66.25 54.5739 66.0138 54.8757 65.8398C55.1776 65.6658 55.5149 65.5344 55.8878 65.4457C56.2607 65.3569 56.6406 65.2894 57.0277 65.2433C57.5178 65.1864 57.9155 65.1403 58.2209 65.1048C58.5263 65.0657 58.7482 65.0036 58.8867 64.9183C59.0252 64.8331 59.0945 64.6946 59.0945 64.5028V64.4656C59.0945 64.0004 58.9631 63.6399 58.7003 63.3842C58.4411 63.1286 58.054 63.0007 57.5391 63.0007C57.0028 63.0007 56.5803 63.1197 56.2713 63.3576C55.9659 63.592 55.7546 63.853 55.6374 64.1406L54.1406 63.7997C54.3182 63.3026 54.5774 62.9013 54.9183 62.5959C55.2628 62.2869 55.6587 62.0632 56.1062 61.9247C56.5536 61.7827 57.0241 61.7116 57.5178 61.7116C57.8445 61.7116 58.1907 61.7507 58.5565 61.8288C58.9258 61.9034 59.2702 62.0419 59.5898 62.2443C59.913 62.4467 60.1776 62.7362 60.3835 63.1126C60.5895 63.4854 60.6925 63.9702 60.6925 64.5668V70H59.1371V68.8814H59.0732C58.9702 69.0874 58.8157 69.2898 58.6097 69.4886C58.4038 69.6875 58.1392 69.8526 57.8161 69.984C57.4929 70.1154 57.1058 70.1811 56.6548 70.1811ZM57.0011 68.9027C57.4414 68.9027 57.8178 68.8157 58.1303 68.6417C58.4464 68.4677 58.6861 68.2404 58.8494 67.9599C59.0163 67.6758 59.0998 67.3722 59.0998 67.049V65.9943C59.043 66.0511 58.9329 66.1044 58.7695 66.1541C58.6097 66.2003 58.4268 66.2411 58.2209 66.2766C58.0149 66.3086 57.8143 66.3388 57.619 66.3672C57.4237 66.392 57.2603 66.4134 57.1289 66.4311C56.82 66.4702 56.5376 66.5359 56.282 66.6282C56.0298 66.7205 55.8274 66.8537 55.6747 67.0277C55.5256 67.1982 55.451 67.4254 55.451 67.7095C55.451 68.1037 55.5966 68.402 55.8878 68.6044C56.179 68.8033 56.5501 68.9027 57.0011 68.9027ZM64.4065 59.0909V70H62.8138V59.0909H64.4065ZM70.2686 67.8693V66.5376L74.9827 59.0909H76.032V61.0511H75.3662L71.9944 66.3885V66.4737H78.4557V67.8693H70.2686ZM75.4408 70V67.4645L75.4514 66.8572V59.0909H77.0122V70H75.4408ZM83.9981 70.1491C83.2346 70.1491 82.5599 70.0178 81.974 69.755C81.3916 69.4922 80.9353 69.13 80.605 68.6683C80.2748 68.2067 80.1114 67.6811 80.115 67.0916C80.1114 66.63 80.2055 66.2056 80.3973 65.8185C80.5926 65.4279 80.8572 65.103 81.191 64.8438C81.5248 64.581 81.8976 64.4141 82.3096 64.343V64.2791C81.7662 64.1477 81.3312 63.8565 81.0045 63.4055C80.6778 62.9545 80.5162 62.4361 80.5198 61.8501C80.5162 61.2926 80.6636 60.7955 80.9619 60.3587C81.2638 59.9183 81.6775 59.5721 82.203 59.32C82.7286 59.0678 83.327 58.9418 83.9981 58.9418C84.6622 58.9418 85.2552 59.0696 85.7773 59.3253C86.3028 59.5774 86.7165 59.9237 87.0184 60.364C87.3202 60.8008 87.4729 61.2962 87.4765 61.8501C87.4729 62.4361 87.306 62.9545 86.9758 63.4055C86.6455 63.8565 86.2158 64.1477 85.6867 64.2791V64.343C86.0951 64.4141 86.4626 64.581 86.7893 64.8438C87.1196 65.103 87.3824 65.4279 87.5777 65.8185C87.7765 66.2056 87.8778 66.63 87.8813 67.0916C87.8778 67.6811 87.7108 68.2067 87.3806 68.6683C87.0503 69.13 86.5922 69.4922 86.0063 69.755C85.4239 70.0178 84.7545 70.1491 83.9981 70.1491ZM83.9981 68.8015C84.4491 68.8015 84.8398 68.7269 85.17 68.5778C85.5003 68.4251 85.7559 68.2138 85.9371 67.9439C86.1182 67.6705 86.2105 67.3509 86.214 66.9851C86.2105 66.6051 86.1111 66.2695 85.9157 65.9783C85.724 65.6871 85.463 65.4581 85.1327 65.2912C84.8025 65.1243 84.4243 65.0408 83.9981 65.0408C83.5684 65.0408 83.1867 65.1243 82.8529 65.2912C82.5191 65.4581 82.2563 65.6871 82.0645 65.9783C81.8728 66.2695 81.7787 66.6051 81.7822 66.9851C81.7787 67.3509 81.8657 67.6705 82.0432 67.9439C82.2243 68.2138 82.4818 68.4251 82.8156 68.5778C83.1494 68.7269 83.5436 68.8015 83.9981 68.8015ZM83.9981 63.7251C84.3604 63.7251 84.6817 63.6523 84.9623 63.5067C85.2428 63.3612 85.463 63.1587 85.6228 62.8995C85.7861 62.6403 85.8696 62.3366 85.8731 61.9886C85.8696 61.6477 85.7879 61.3494 85.6281 61.0938C85.4719 60.8381 85.2535 60.641 84.9729 60.5025C84.6924 60.3604 84.3675 60.2894 83.9981 60.2894C83.6217 60.2894 83.2915 60.3604 83.0074 60.5025C82.7268 60.641 82.5084 60.8381 82.3522 61.0938C82.1959 61.3494 82.1196 61.6477 82.1231 61.9886C82.1196 62.3366 82.1977 62.6403 82.3575 62.8995C82.5173 63.1587 82.7375 63.3612 83.018 63.5067C83.3021 63.6523 83.6288 63.7251 83.9981 63.7251ZM90.538 70.1012C90.2468 70.1012 89.9964 69.9982 89.7869 69.7923C89.5774 69.5827 89.4727 69.3306 89.4727 69.0359C89.4727 68.7447 89.5774 68.4961 89.7869 68.2901C89.9964 68.0806 90.2468 67.9759 90.538 67.9759C90.8292 67.9759 91.0795 68.0806 91.2891 68.2901C91.4986 68.4961 91.6033 68.7447 91.6033 69.0359C91.6033 69.2312 91.5536 69.4105 91.4542 69.5739C91.3583 69.7337 91.2305 69.8615 91.0707 69.9574C90.9109 70.0533 90.7333 70.1012 90.538 70.1012ZM97.1404 70.1491C96.4728 70.1491 95.8727 70.0213 95.34 69.7656C94.8109 69.5064 94.3883 69.1513 94.0723 68.7003C93.7562 68.2493 93.5875 67.7344 93.5662 67.1555H95.1642C95.2033 67.6243 95.411 68.0096 95.7875 68.3114C96.1639 68.6133 96.6149 68.7642 97.1404 68.7642C97.5595 68.7642 97.9306 68.6683 98.2537 68.4766C98.5804 68.2812 98.8361 68.0131 99.0208 67.6722C99.209 67.3313 99.3031 66.9425 99.3031 66.5057C99.3031 66.0618 99.2072 65.6658 99.0154 65.3178C98.8237 64.9698 98.5591 64.6964 98.2218 64.4975C97.888 64.2987 97.5044 64.1974 97.0712 64.1939C96.7409 64.1939 96.4089 64.2507 96.0751 64.3643C95.7413 64.478 95.4714 64.6271 95.2654 64.8118L93.758 64.5881L94.3706 59.0909H100.368V60.5025H95.7395L95.3933 63.5547H95.4572C95.6703 63.3487 95.9526 63.1765 96.3042 63.038C96.6593 62.8995 97.0392 62.8303 97.4441 62.8303C98.1081 62.8303 98.6994 62.9883 99.2179 63.3043C99.7399 63.6204 100.15 64.0518 100.448 64.5987C100.75 65.142 100.899 65.767 100.896 66.4737C100.899 67.1804 100.74 67.8107 100.416 68.3647C100.097 68.9187 99.6529 69.3555 99.0847 69.6751C98.5201 69.9911 97.872 70.1491 97.1404 70.1491ZM108.536 67.9545V67.3793C108.536 66.9673 108.621 66.5909 108.791 66.25C108.965 65.9055 109.217 65.6303 109.548 65.4244C109.881 65.2148 110.285 65.1101 110.757 65.1101C111.24 65.1101 111.645 65.2131 111.971 65.419C112.298 65.625 112.545 65.9002 112.712 66.2447C112.882 66.5891 112.967 66.9673 112.967 67.3793V67.9545C112.967 68.3665 112.882 68.7447 112.712 69.0891C112.541 69.43 112.291 69.7053 111.961 69.9148C111.634 70.1207 111.233 70.2237 110.757 70.2237C110.277 70.2237 109.873 70.1207 109.542 69.9148C109.212 69.7053 108.962 69.43 108.791 69.0891C108.621 68.7447 108.536 68.3665 108.536 67.9545ZM109.777 67.3793V67.9545C109.777 68.2599 109.85 68.5369 109.995 68.7855C110.141 69.0341 110.395 69.1584 110.757 69.1584C111.116 69.1584 111.366 69.0341 111.508 68.7855C111.65 68.5369 111.721 68.2599 111.721 67.9545V67.3793C111.721 67.0739 111.652 66.7969 111.513 66.5483C111.378 66.2997 111.126 66.1754 110.757 66.1754C110.402 66.1754 110.15 66.2997 110 66.5483C109.851 66.7969 109.777 67.0739 109.777 67.3793ZM103.049 61.7116V61.1364C103.049 60.7244 103.134 60.3462 103.305 60.0018C103.479 59.6573 103.731 59.3821 104.061 59.1761C104.395 58.9702 104.798 58.8672 105.27 58.8672C105.753 58.8672 106.158 58.9702 106.485 59.1761C106.812 59.3821 107.058 59.6573 107.225 60.0018C107.392 60.3462 107.476 60.7244 107.476 61.1364V61.7116C107.476 62.1236 107.39 62.5018 107.22 62.8462C107.053 63.1871 106.804 63.4624 106.474 63.6719C106.147 63.8778 105.746 63.9808 105.27 63.9808C104.787 63.9808 104.381 63.8778 104.051 63.6719C103.724 63.4624 103.475 63.1871 103.305 62.8462C103.134 62.5018 103.049 62.1236 103.049 61.7116ZM104.296 61.1364V61.7116C104.296 62.017 104.367 62.294 104.509 62.5426C104.654 62.7912 104.908 62.9155 105.27 62.9155C105.625 62.9155 105.874 62.7912 106.016 62.5426C106.162 62.294 106.234 62.017 106.234 61.7116V61.1364C106.234 60.831 106.165 60.554 106.027 60.3054C105.888 60.0568 105.636 59.9325 105.27 59.9325C104.915 59.9325 104.663 60.0568 104.514 60.3054C104.368 60.554 104.296 60.831 104.296 61.1364ZM103.555 70L111.055 59.0909H112.328L104.828 70H103.555ZM126.765 62.5373C126.662 62.2141 126.523 61.9247 126.349 61.669C126.179 61.4098 125.975 61.1896 125.737 61.0085C125.499 60.8239 125.227 60.6836 124.922 60.5877C124.62 60.4918 124.288 60.4439 123.926 60.4439C123.311 60.4439 122.757 60.6019 122.264 60.918C121.77 61.234 121.38 61.6974 121.092 62.3082C120.808 62.9155 120.666 63.6594 120.666 64.5401C120.666 65.4244 120.81 66.1719 121.097 66.7827C121.385 67.3935 121.779 67.8569 122.28 68.1729C122.781 68.489 123.35 68.647 123.99 68.647C124.583 68.647 125.099 68.5263 125.54 68.2848C125.984 68.0433 126.326 67.7024 126.568 67.2621C126.813 66.8182 126.935 66.2962 126.935 65.696L127.362 65.7759H124.24V64.4176H128.528V65.6587C128.528 66.5749 128.333 67.3704 127.942 68.0451C127.555 68.7163 127.019 69.2347 126.333 69.6005C125.652 69.9663 124.87 70.1491 123.99 70.1491C123.002 70.1491 122.136 69.9219 121.39 69.4673C120.648 69.0128 120.069 68.3683 119.654 67.5337C119.238 66.6957 119.031 65.7013 119.031 64.5508C119.031 63.6808 119.151 62.8995 119.393 62.207C119.634 61.5146 119.973 60.9268 120.41 60.4439C120.85 59.9574 121.367 59.5863 121.96 59.3306C122.557 59.0714 123.208 58.9418 123.915 58.9418C124.505 58.9418 125.053 59.0288 125.561 59.2028C126.072 59.3768 126.527 59.6236 126.925 59.9432C127.326 60.2628 127.658 60.6428 127.921 61.0831C128.184 61.5199 128.361 62.0046 128.453 62.5373H126.765ZM130.49 70V61.8182H132.029V63.1179H132.114C132.263 62.6776 132.526 62.3313 132.903 62.0792C133.283 61.8235 133.712 61.6957 134.192 61.6957C134.291 61.6957 134.408 61.6992 134.543 61.7063C134.682 61.7134 134.79 61.7223 134.868 61.733V63.2564C134.804 63.2386 134.691 63.2191 134.527 63.1978C134.364 63.1729 134.201 63.1605 134.037 63.1605C133.661 63.1605 133.325 63.2404 133.03 63.4002C132.739 63.5565 132.508 63.7749 132.338 64.0554C132.168 64.3324 132.082 64.6484 132.082 65.0036V70H130.49ZM139.4 70.1651C138.633 70.1651 137.963 69.9893 137.392 69.6378C136.82 69.2862 136.376 68.7944 136.06 68.1623C135.744 67.5302 135.586 66.7915 135.586 65.9464C135.586 65.0977 135.744 64.3555 136.06 63.7198C136.376 63.0842 136.82 62.5906 137.392 62.239C137.963 61.8874 138.633 61.7116 139.4 61.7116C140.167 61.7116 140.836 61.8874 141.408 62.239C141.98 62.5906 142.424 63.0842 142.74 63.7198C143.056 64.3555 143.214 65.0977 143.214 65.9464C143.214 66.7915 143.056 67.5302 142.74 68.1623C142.424 68.7944 141.98 69.2862 141.408 69.6378C140.836 69.9893 140.167 70.1651 139.4 70.1651ZM139.405 68.8281C139.902 68.8281 140.314 68.6967 140.641 68.4339C140.968 68.1712 141.209 67.8214 141.365 67.3846C141.525 66.9478 141.605 66.4666 141.605 65.9411C141.605 65.419 141.525 64.9396 141.365 64.5028C141.209 64.0625 140.968 63.7092 140.641 63.4428C140.314 63.1765 139.902 63.0433 139.405 63.0433C138.904 63.0433 138.489 63.1765 138.159 63.4428C137.832 63.7092 137.589 64.0625 137.429 64.5028C137.273 64.9396 137.195 65.419 137.195 65.9411C137.195 66.4666 137.273 66.9478 137.429 67.3846C137.589 67.8214 137.832 68.1712 138.159 68.4339C138.489 68.6967 138.904 68.8281 139.405 68.8281ZM146.516 70L144.109 61.8182H145.755L147.358 67.8267H147.438L149.047 61.8182H150.692L152.29 67.8001H152.37L153.963 61.8182H155.609L153.207 70H151.582L149.92 64.0927H149.798L148.136 70H146.516ZM160.94 61.8182V63.0966H156.471V61.8182H160.94ZM157.669 59.858H159.262V67.5977C159.262 67.9066 159.308 68.1392 159.4 68.2955C159.493 68.4482 159.612 68.5529 159.757 68.6097C159.906 68.663 160.068 68.6896 160.242 68.6896C160.37 68.6896 160.482 68.6808 160.578 68.663C160.673 68.6452 160.748 68.631 160.801 68.6204L161.089 69.9361C160.997 69.9716 160.865 70.0071 160.695 70.0426C160.524 70.0817 160.311 70.103 160.055 70.1065C159.636 70.1136 159.246 70.0391 158.884 69.8828C158.521 69.7266 158.228 69.4851 158.005 69.1584C157.781 68.8317 157.669 68.4215 157.669 67.9279V59.858ZM164.47 65.142V70H162.877V59.0909H164.449V63.1499H164.55C164.742 62.7095 165.035 62.3597 165.429 62.1005C165.823 61.8413 166.338 61.7116 166.974 61.7116C167.535 61.7116 168.025 61.8271 168.444 62.0579C168.866 62.2887 169.193 62.6332 169.424 63.0913C169.658 63.5458 169.775 64.114 169.775 64.7958V70H168.183V64.9876C168.183 64.3874 168.028 63.9222 167.719 63.592C167.41 63.2582 166.981 63.0913 166.43 63.0913C166.054 63.0913 165.716 63.1712 165.418 63.331C165.123 63.4908 164.891 63.7251 164.72 64.0341C164.553 64.3395 164.47 64.7088 164.47 65.142Z" fill="#2E263D" fill-opacity="0.9"/>
<path d="M174.486 71.05H189.486V56.05H174.486V71.05ZM198.414 61.8182V62.8835H194.174V61.8182H198.414ZM195.41 59.858H196.667V67.6562C196.667 68.0114 196.718 68.2777 196.821 68.4553C196.928 68.6293 197.063 68.7464 197.226 68.8068C197.393 68.8636 197.569 68.892 197.753 68.892C197.892 68.892 198.006 68.8849 198.094 68.8707C198.183 68.853 198.254 68.8388 198.307 68.8281L198.563 69.9574C198.478 69.9893 198.359 70.0213 198.206 70.0533C198.053 70.0888 197.86 70.1065 197.626 70.1065C197.27 70.1065 196.922 70.0302 196.581 69.8775C196.244 69.7248 195.964 69.4922 195.74 69.1797C195.52 68.8672 195.41 68.473 195.41 67.9972V59.858ZM201.738 65.0781V70H200.481V59.0909H201.738V63.0966H201.844C202.036 62.674 202.324 62.3384 202.707 62.0898C203.094 61.8377 203.609 61.7116 204.252 61.7116C204.809 61.7116 205.298 61.8235 205.717 62.0472C206.136 62.2674 206.461 62.6065 206.692 63.0646C206.926 63.5192 207.043 64.098 207.043 64.8011V70H205.786V64.8864C205.786 64.2365 205.617 63.734 205.28 63.3789C204.946 63.0202 204.483 62.8409 203.89 62.8409C203.478 62.8409 203.108 62.9279 202.782 63.1019C202.459 63.2759 202.203 63.5298 202.015 63.8636C201.83 64.1974 201.738 64.6023 201.738 65.0781ZM209.343 70V61.8182H210.6V70H209.343ZM209.982 60.4545C209.737 60.4545 209.526 60.3711 209.348 60.2042C209.174 60.0373 209.087 59.8366 209.087 59.6023C209.087 59.3679 209.174 59.1673 209.348 59.0004C209.526 58.8335 209.737 58.75 209.982 58.75C210.227 58.75 210.437 58.8335 210.611 59.0004C210.788 59.1673 210.877 59.3679 210.877 59.6023C210.877 59.8366 210.788 60.0373 210.611 60.2042C210.437 60.3711 210.227 60.4545 209.982 60.4545ZM218.698 63.6506L217.569 63.9702C217.498 63.782 217.393 63.5991 217.254 63.4215C217.119 63.2404 216.935 63.0913 216.7 62.9741C216.466 62.8569 216.166 62.7983 215.8 62.7983C215.3 62.7983 214.882 62.9137 214.548 63.1445C214.218 63.3718 214.053 63.6612 214.053 64.0128C214.053 64.3253 214.167 64.5721 214.394 64.7532C214.621 64.9343 214.976 65.0852 215.459 65.206L216.674 65.5043C217.405 65.6818 217.95 65.9535 218.309 66.3192C218.668 66.6815 218.847 67.1484 218.847 67.7202C218.847 68.1889 218.712 68.608 218.442 68.9773C218.176 69.3466 217.803 69.6378 217.324 69.8509C216.844 70.0639 216.287 70.1705 215.651 70.1705C214.817 70.1705 214.126 69.9893 213.579 69.6271C213.032 69.2649 212.686 68.7358 212.54 68.0398L213.733 67.7415C213.847 68.1818 214.062 68.5121 214.378 68.7322C214.698 68.9524 215.115 69.0625 215.63 69.0625C216.216 69.0625 216.681 68.9382 217.025 68.6896C217.373 68.4375 217.547 68.1357 217.547 67.7841C217.547 67.5 217.448 67.2621 217.249 67.0703C217.05 66.875 216.745 66.7294 216.333 66.6335L214.969 66.3139C214.22 66.1364 213.67 65.8612 213.318 65.4883C212.97 65.1119 212.796 64.6413 212.796 64.0767C212.796 63.6151 212.926 63.2067 213.185 62.8516C213.448 62.4964 213.805 62.2177 214.256 62.0153C214.71 61.8129 215.225 61.7116 215.8 61.7116C216.61 61.7116 217.246 61.8892 217.707 62.2443C218.172 62.5994 218.503 63.0682 218.698 63.6506ZM224.958 70V61.8182H226.173V63.0966H226.279C226.45 62.6598 226.725 62.3207 227.105 62.0792C227.485 61.8342 227.941 61.7116 228.474 61.7116C229.014 61.7116 229.463 61.8342 229.821 62.0792C230.184 62.3207 230.466 62.6598 230.668 63.0966H230.754C230.963 62.674 231.277 62.3384 231.696 62.0898C232.116 61.8377 232.618 61.7116 233.204 61.7116C233.935 61.7116 234.534 61.9407 234.999 62.3988C235.464 62.8533 235.697 63.5618 235.697 64.5241V70H234.44V64.5241C234.44 63.9205 234.275 63.489 233.944 63.2298C233.614 62.9705 233.225 62.8409 232.778 62.8409C232.203 62.8409 231.757 63.0149 231.441 63.3629C231.125 63.7074 230.967 64.1442 230.967 64.6733V70H229.688V64.3963C229.688 63.9311 229.537 63.5565 229.236 63.2724C228.934 62.9847 228.545 62.8409 228.069 62.8409C227.742 62.8409 227.437 62.9279 227.153 63.1019C226.872 63.2759 226.645 63.5174 226.471 63.8263C226.301 64.1317 226.215 64.4851 226.215 64.8864V70H224.958ZM241.319 70.1705C240.581 70.1705 239.932 69.9947 239.375 69.6431C238.821 69.2915 238.388 68.7997 238.075 68.1676C237.766 67.5355 237.612 66.7969 237.612 65.9517C237.612 65.0994 237.766 64.3555 238.075 63.7198C238.388 63.0842 238.821 62.5906 239.375 62.239C239.932 61.8874 240.581 61.7116 241.319 61.7116C242.058 61.7116 242.704 61.8874 243.258 62.239C243.816 62.5906 244.249 63.0842 244.558 63.7198C244.87 64.3555 245.027 65.0994 245.027 65.9517C245.027 66.7969 244.87 67.5355 244.558 68.1676C244.249 68.7997 243.816 69.2915 243.258 69.6431C242.704 69.9947 242.058 70.1705 241.319 70.1705ZM241.319 69.0412C241.88 69.0412 242.342 68.8974 242.704 68.6097C243.066 68.3221 243.334 67.9439 243.508 67.4751C243.682 67.0064 243.769 66.4986 243.769 65.9517C243.769 65.4048 243.682 64.8952 243.508 64.4229C243.334 63.9506 243.066 63.5689 242.704 63.2777C242.342 62.9865 241.88 62.8409 241.319 62.8409C240.758 62.8409 240.296 62.9865 239.934 63.2777C239.572 63.5689 239.304 63.9506 239.13 64.4229C238.956 64.8952 238.869 65.4048 238.869 65.9517C238.869 66.4986 238.956 67.0064 239.13 67.4751C239.304 67.9439 239.572 68.3221 239.934 68.6097C240.296 68.8974 240.758 69.0412 241.319 69.0412ZM248.203 65.0781V70H246.945V61.8182H248.16V63.0966H248.267C248.458 62.6811 248.749 62.3473 249.14 62.0952C249.531 61.8395 250.035 61.7116 250.653 61.7116C251.207 61.7116 251.692 61.8253 252.107 62.0526C252.523 62.2763 252.846 62.6172 253.077 63.0753C253.307 63.5298 253.423 64.1051 253.423 64.8011V70H252.166V64.8864C252.166 64.2436 251.999 63.7429 251.665 63.3842C251.331 63.022 250.873 62.8409 250.291 62.8409C249.889 62.8409 249.531 62.9279 249.215 63.1019C248.902 63.2759 248.655 63.5298 248.474 63.8636C248.293 64.1974 248.203 64.6023 248.203 65.0781ZM259.278 61.8182V62.8835H255.038V61.8182H259.278ZM256.274 59.858H257.531V67.6562C257.531 68.0114 257.582 68.2777 257.685 68.4553C257.792 68.6293 257.927 68.7464 258.09 68.8068C258.257 68.8636 258.433 68.892 258.618 68.892C258.756 68.892 258.87 68.8849 258.959 68.8707C259.047 68.853 259.118 68.8388 259.172 68.8281L259.427 69.9574C259.342 69.9893 259.223 70.0213 259.07 70.0533C258.918 70.0888 258.724 70.1065 258.49 70.1065C258.135 70.1065 257.787 70.0302 257.446 69.8775C257.108 69.7248 256.828 69.4922 256.604 69.1797C256.384 68.8672 256.274 68.473 256.274 67.9972V59.858ZM262.602 65.0781V70H261.345V59.0909H262.602V63.0966H262.709C262.9 62.674 263.188 62.3384 263.571 62.0898C263.959 61.8377 264.473 61.7116 265.116 61.7116C265.674 61.7116 266.162 61.8235 266.581 62.0472C267 62.2674 267.325 62.6065 267.556 63.0646C267.79 63.5192 267.907 64.098 267.907 64.8011V70H266.65V64.8864C266.65 64.2365 266.482 63.734 266.144 63.3789C265.81 63.0202 265.347 62.8409 264.754 62.8409C264.342 62.8409 263.973 62.9279 263.646 63.1019C263.323 63.2759 263.067 63.5298 262.879 63.8636C262.694 64.1974 262.602 64.6023 262.602 65.0781Z" fill="#2E263D" fill-opacity="0.7"/>
<path d="M725 29C724.175 29 723.5 29.675 723.5 30.5C723.5 31.325 724.175 32 725 32C725.825 32 726.5 31.325 726.5 30.5C726.5 29.675 725.825 29 725 29ZM725 44C724.175 44 723.5 44.675 723.5 45.5C723.5 46.325 724.175 47 725 47C725.825 47 726.5 46.325 726.5 45.5C726.5 44.675 725.825 44 725 44ZM725 36.5C724.175 36.5 723.5 37.175 723.5 38C723.5 38.825 724.175 39.5 725 39.5C725.825 39.5 726.5 38.825 726.5 38C726.5 37.175 725.825 36.5 725 36.5Z" fill="#2E263D" fill-opacity="0.9"/>
<g filter="url(#filter1_d_8003_6708)">
<path d="M30 127C30 123.686 32.6863 121 36 121H64C67.3137 121 70 123.686 70 127V155C70 158.314 67.3137 161 64 161H36C32.6863 161 30 158.314 30 155V127Z" fill="#8C57FF"/>
<path d="M49 129.543C49.33 129.514 49.663 129.5 50 129.5C56.351 129.5 61.5 134.649 61.5 141C61.5 141.337 61.486 141.67 61.457 142H59.951C59.449 147.053 55.185 151 50 151C44.477 151 40 146.523 40 141C40 135.815 43.947 131.551 49 131.05V129.542V129.543ZM49 142V133.062C46.9827 133.319 45.1389 134.334 43.8432 135.901C42.5475 137.469 41.8973 139.47 42.0246 141.5C42.152 143.53 43.0473 145.435 44.5287 146.828C46.0102 148.221 47.9664 148.997 50 149C51.9486 149 53.8302 148.289 55.2917 147C56.7533 145.711 57.6942 143.933 57.938 142H49ZM59.448 140C59.2187 137.838 58.255 135.82 56.7176 134.282C55.1802 132.745 53.1621 131.781 51 131.552V140H59.448Z" fill="white"/>
</g>
<path d="M89.2869 123.818C89.223 123.278 88.9638 122.859 88.5092 122.561C88.0547 122.263 87.4972 122.114 86.8366 122.114C86.3537 122.114 85.9311 122.192 85.5689 122.348C85.2102 122.504 84.9297 122.719 84.7273 122.993C84.5284 123.266 84.429 123.577 84.429 123.925C84.429 124.216 84.4982 124.466 84.6367 124.676C84.7788 124.882 84.9599 125.054 85.18 125.192C85.4002 125.327 85.631 125.439 85.8725 125.528C86.114 125.613 86.3359 125.683 86.5384 125.736L87.6463 126.034C87.9304 126.109 88.2464 126.212 88.5945 126.343C88.946 126.474 89.2816 126.654 89.6012 126.881C89.9244 127.105 90.1907 127.392 90.4002 127.744C90.6097 128.096 90.7145 128.527 90.7145 129.038C90.7145 129.628 90.56 130.161 90.2511 130.636C89.9457 131.112 89.4982 131.49 88.9087 131.771C88.3228 132.051 87.6108 132.192 86.7727 132.192C85.9915 132.192 85.315 132.066 84.7433 131.814C84.1751 131.561 83.7276 131.21 83.4009 130.759C83.0778 130.308 82.8949 129.784 82.8523 129.188H84.2159C84.2514 129.599 84.3899 129.94 84.6314 130.21C84.8764 130.477 85.1854 130.675 85.5582 130.807C85.9347 130.935 86.3395 130.999 86.7727 130.999C87.277 130.999 87.7298 130.917 88.131 130.754C88.5323 130.587 88.8501 130.356 89.0845 130.061C89.3189 129.763 89.4361 129.415 89.4361 129.017C89.4361 128.655 89.3349 128.36 89.1325 128.133C88.93 127.906 88.6637 127.721 88.3335 127.579C88.0032 127.437 87.6463 127.312 87.2628 127.206L85.9205 126.822C85.0682 126.577 84.3935 126.228 83.8963 125.773C83.3991 125.319 83.1506 124.724 83.1506 123.989C83.1506 123.378 83.3157 122.845 83.646 122.391C83.9798 121.933 84.4272 121.577 84.9883 121.325C85.5529 121.07 86.1832 120.942 86.8793 120.942C87.5824 120.942 88.2074 121.068 88.7543 121.32C89.3011 121.569 89.7344 121.909 90.054 122.343C90.3771 122.776 90.5476 123.268 90.5653 123.818H89.2869ZM95.1237 132.192C94.6052 132.192 94.1347 132.094 93.7121 131.899C93.2895 131.7 92.9539 131.414 92.7053 131.041C92.4568 130.665 92.3325 130.21 92.3325 129.678C92.3325 129.209 92.4248 128.829 92.6095 128.538C92.7941 128.243 93.0409 128.012 93.3499 127.845C93.6588 127.678 93.9997 127.554 94.3726 127.472C94.749 127.387 95.1272 127.32 95.5072 127.27C96.0044 127.206 96.4074 127.158 96.7164 127.126C97.0289 127.091 97.2561 127.032 97.3982 126.95C97.5438 126.869 97.6166 126.727 97.6166 126.524V126.482C97.6166 125.956 97.4727 125.548 97.1851 125.256C96.901 124.965 96.4695 124.82 95.8907 124.82C95.2906 124.82 94.82 124.951 94.4791 125.214C94.1382 125.477 93.8985 125.757 93.76 126.055L92.5669 125.629C92.7799 125.132 93.064 124.745 93.4191 124.468C93.7778 124.187 94.1684 123.992 94.591 123.882C95.0171 123.768 95.4362 123.712 95.8481 123.712C96.1109 123.712 96.4127 123.744 96.7536 123.808C97.0981 123.868 97.4301 123.994 97.7497 124.186C98.0729 124.377 98.341 124.667 98.5541 125.054C98.7671 125.441 98.8737 125.96 98.8737 126.609V132H97.6166V130.892H97.5526C97.4674 131.07 97.3254 131.26 97.1265 131.462C96.9276 131.664 96.6631 131.837 96.3328 131.979C96.0026 132.121 95.5995 132.192 95.1237 132.192ZM95.3154 131.062C95.8126 131.062 96.2316 130.965 96.5725 130.77C96.917 130.574 97.1762 130.322 97.3502 130.013C97.5278 129.704 97.6166 129.379 97.6166 129.038V127.888C97.5633 127.952 97.4461 128.01 97.265 128.064C97.0874 128.113 96.8815 128.158 96.6471 128.197C96.4163 128.232 96.1908 128.264 95.9706 128.293C95.754 128.317 95.5782 128.339 95.4433 128.357C95.1166 128.399 94.8112 128.468 94.5271 128.564C94.2465 128.657 94.0193 128.797 93.8453 128.985C93.6748 129.17 93.5896 129.422 93.5896 129.741C93.5896 130.178 93.7512 130.509 94.0743 130.732C94.401 130.952 94.8147 131.062 95.3154 131.062ZM102.425 121.091V132H101.168V121.091H102.425ZM108.158 132.17C107.37 132.17 106.69 131.996 106.118 131.648C105.55 131.297 105.111 130.807 104.802 130.178C104.497 129.546 104.344 128.811 104.344 127.973C104.344 127.135 104.497 126.396 104.802 125.757C105.111 125.114 105.541 124.614 106.091 124.255C106.645 123.893 107.292 123.712 108.03 123.712C108.456 123.712 108.877 123.783 109.293 123.925C109.708 124.067 110.086 124.298 110.427 124.617C110.768 124.933 111.04 125.352 111.242 125.874C111.445 126.396 111.546 127.039 111.546 127.803V128.335H105.239V127.249H110.267C110.267 126.787 110.175 126.375 109.991 126.013C109.809 125.651 109.55 125.365 109.213 125.155C108.879 124.946 108.485 124.841 108.03 124.841C107.53 124.841 107.096 124.965 106.731 125.214C106.368 125.459 106.09 125.778 105.894 126.173C105.699 126.567 105.601 126.989 105.601 127.44V128.165C105.601 128.783 105.708 129.306 105.921 129.736C106.138 130.162 106.438 130.487 106.821 130.711C107.205 130.931 107.65 131.041 108.158 131.041C108.488 131.041 108.787 130.995 109.053 130.903C109.323 130.807 109.555 130.665 109.751 130.477C109.946 130.285 110.097 130.047 110.204 129.763L111.418 130.104C111.29 130.516 111.075 130.878 110.774 131.19C110.472 131.499 110.099 131.741 109.655 131.915C109.211 132.085 108.712 132.17 108.158 132.17ZM119.254 125.651L118.124 125.97C118.053 125.782 117.949 125.599 117.81 125.422C117.675 125.24 117.491 125.091 117.256 124.974C117.022 124.857 116.722 124.798 116.356 124.798C115.855 124.798 115.438 124.914 115.104 125.145C114.774 125.372 114.609 125.661 114.609 126.013C114.609 126.325 114.722 126.572 114.95 126.753C115.177 126.934 115.532 127.085 116.015 127.206L117.229 127.504C117.961 127.682 118.506 127.953 118.865 128.319C119.223 128.681 119.403 129.148 119.403 129.72C119.403 130.189 119.268 130.608 118.998 130.977C118.732 131.347 118.359 131.638 117.879 131.851C117.4 132.064 116.842 132.17 116.207 132.17C115.372 132.17 114.682 131.989 114.135 131.627C113.588 131.265 113.242 130.736 113.096 130.04L114.289 129.741C114.403 130.182 114.618 130.512 114.934 130.732C115.253 130.952 115.671 131.062 116.185 131.062C116.771 131.062 117.237 130.938 117.581 130.69C117.929 130.437 118.103 130.136 118.103 129.784C118.103 129.5 118.004 129.262 117.805 129.07C117.606 128.875 117.301 128.729 116.889 128.634L115.525 128.314C114.776 128.136 114.225 127.861 113.874 127.488C113.526 127.112 113.352 126.641 113.352 126.077C113.352 125.615 113.481 125.207 113.741 124.852C114.003 124.496 114.36 124.218 114.811 124.015C115.266 123.813 115.781 123.712 116.356 123.712C117.166 123.712 117.801 123.889 118.263 124.244C118.728 124.599 119.058 125.068 119.254 125.651Z" fill="#2E263D" fill-opacity="0.7"/>
<path d="M83.2592 159V157.568L87.6889 152.979C88.1619 152.48 88.5518 152.043 88.8587 151.668C89.1697 151.289 89.402 150.929 89.5554 150.588C89.7088 150.247 89.7855 149.885 89.7855 149.501C89.7855 149.067 89.6832 148.692 89.4787 148.376C89.2741 148.057 88.995 147.812 88.6413 147.641C88.2876 147.467 87.8892 147.379 87.446 147.379C86.9773 147.379 86.5682 147.475 86.2188 147.667C85.8693 147.859 85.6009 148.129 85.4134 148.479C85.2259 148.828 85.1321 149.237 85.1321 149.706H83.2464C83.2464 148.909 83.4297 148.212 83.7962 147.616C84.1626 147.019 84.6655 146.557 85.3047 146.229C85.9439 145.896 86.6705 145.73 87.4844 145.73C88.3068 145.73 89.0313 145.894 89.6577 146.222C90.2884 146.546 90.7805 146.989 91.1342 147.552C91.4879 148.11 91.6648 148.741 91.6648 149.444C91.6648 149.93 91.5732 150.405 91.3899 150.869C91.2109 151.334 90.8977 151.852 90.4503 152.423C90.0028 152.989 89.3807 153.678 88.5838 154.487L85.9822 157.21V157.306H91.8757V159H83.2592ZM93.7422 156.443V154.845L99.3991 145.909H100.658V148.261H99.8594L95.8132 154.666V154.768H103.567V156.443H93.7422ZM99.9489 159V155.957L99.9616 155.229V145.909H101.835V159H99.9489ZM110.115 159.179C109.314 159.179 108.594 159.026 107.955 158.719C107.32 158.408 106.813 157.982 106.434 157.44C106.054 156.899 105.852 156.281 105.826 155.587H107.744C107.791 156.149 108.04 156.612 108.492 156.974C108.944 157.336 109.485 157.517 110.115 157.517C110.618 157.517 111.064 157.402 111.451 157.172C111.843 156.938 112.15 156.616 112.372 156.207C112.598 155.798 112.711 155.331 112.711 154.807C112.711 154.274 112.596 153.799 112.365 153.381C112.135 152.964 111.818 152.636 111.413 152.397C111.012 152.158 110.552 152.037 110.032 152.033C109.636 152.033 109.238 152.101 108.837 152.237C108.436 152.374 108.113 152.553 107.865 152.774L106.056 152.506L106.792 145.909H113.989V147.603H108.434L108.019 151.266H108.096C108.351 151.018 108.69 150.812 109.112 150.646C109.538 150.479 109.994 150.396 110.48 150.396C111.277 150.396 111.986 150.586 112.608 150.965C113.235 151.344 113.727 151.862 114.085 152.518C114.447 153.17 114.626 153.92 114.622 154.768C114.626 155.616 114.434 156.373 114.047 157.038C113.663 157.702 113.13 158.227 112.449 158.61C111.771 158.989 110.993 159.179 110.115 159.179ZM118.74 155.67L118.727 153.337H119.059L122.971 149.182H125.26L120.798 153.912H120.498L118.74 155.67ZM116.982 159V145.909H118.893V159H116.982ZM123.182 159L119.667 154.334L120.983 152.998L125.528 159H123.182Z" fill="#2E263D" fill-opacity="0.9"/>
<g filter="url(#filter2_d_8003_6708)">
<path d="M206.75 127C206.75 123.686 209.436 121 212.75 121H240.75C244.064 121 246.75 123.686 246.75 127V155C246.75 158.314 244.064 161 240.75 161H212.75C209.436 161 206.75 158.314 206.75 155V127Z" fill="#56CA00"/>
<path d="M216.75 151C216.75 148.878 217.593 146.843 219.093 145.343C220.593 143.843 222.628 143 224.75 143C226.872 143 228.907 143.843 230.407 145.343C231.907 146.843 232.75 148.878 232.75 151H230.75C230.75 149.409 230.118 147.883 228.993 146.757C227.867 145.632 226.341 145 224.75 145C223.159 145 221.633 145.632 220.507 146.757C219.382 147.883 218.75 149.409 218.75 151H216.75ZM224.75 142C221.435 142 218.75 139.315 218.75 136C218.75 132.685 221.435 130 224.75 130C228.065 130 230.75 132.685 230.75 136C230.75 139.315 228.065 142 224.75 142ZM224.75 140C226.96 140 228.75 138.21 228.75 136C228.75 133.79 226.96 132 224.75 132C222.54 132 220.75 133.79 220.75 136C220.75 138.21 222.54 140 224.75 140ZM233.034 143.703C234.439 144.336 235.632 145.361 236.469 146.656C237.305 147.95 237.75 149.459 237.75 151H235.75C235.75 149.844 235.417 148.712 234.789 147.742C234.162 146.771 233.267 146.002 232.213 145.527L233.033 143.703H233.034ZM232.346 132.413C233.354 132.828 234.215 133.534 234.821 134.439C235.427 135.345 235.75 136.41 235.75 137.5C235.75 138.872 235.238 140.195 234.313 141.209C233.387 142.222 232.117 142.853 230.75 142.978V140.965C231.491 140.859 232.178 140.518 232.711 139.992C233.244 139.467 233.595 138.784 233.711 138.045C233.828 137.306 233.704 136.548 233.358 135.884C233.013 135.22 232.463 134.685 231.791 134.356L232.346 132.413V132.413Z" fill="white"/>
</g>
<path d="M267.23 121.091H268.551V128.314C268.551 129.06 268.375 129.725 268.024 130.311C267.676 130.894 267.184 131.354 266.548 131.691C265.913 132.025 265.167 132.192 264.311 132.192C263.455 132.192 262.71 132.025 262.074 131.691C261.438 131.354 260.945 130.894 260.593 130.311C260.245 129.725 260.071 129.06 260.071 128.314V121.091H261.392V128.207C261.392 128.74 261.509 129.214 261.744 129.63C261.978 130.042 262.312 130.366 262.745 130.604C263.182 130.839 263.704 130.956 264.311 130.956C264.918 130.956 265.44 130.839 265.877 130.604C266.314 130.366 266.648 130.042 266.879 129.63C267.113 129.214 267.23 128.74 267.23 128.207V121.091ZM276.814 125.651L275.685 125.97C275.614 125.782 275.509 125.599 275.371 125.422C275.236 125.24 275.051 125.091 274.817 124.974C274.582 124.857 274.282 124.798 273.916 124.798C273.416 124.798 272.998 124.914 272.665 125.145C272.334 125.372 272.169 125.661 272.169 126.013C272.169 126.325 272.283 126.572 272.51 126.753C272.737 126.934 273.093 127.085 273.576 127.206L274.79 127.504C275.522 127.682 276.067 127.953 276.425 128.319C276.784 128.681 276.963 129.148 276.963 129.72C276.963 130.189 276.828 130.608 276.559 130.977C276.292 131.347 275.919 131.638 275.44 131.851C274.96 132.064 274.403 132.17 273.767 132.17C272.933 132.17 272.242 131.989 271.695 131.627C271.148 131.265 270.802 130.736 270.657 130.04L271.85 129.741C271.963 130.182 272.178 130.512 272.494 130.732C272.814 130.952 273.231 131.062 273.746 131.062C274.332 131.062 274.797 130.938 275.142 130.69C275.49 130.437 275.664 130.136 275.664 129.784C275.664 129.5 275.564 129.262 275.365 129.07C275.166 128.875 274.861 128.729 274.449 128.634L273.085 128.314C272.336 128.136 271.786 127.861 271.434 127.488C271.086 127.112 270.912 126.641 270.912 126.077C270.912 125.615 271.042 125.207 271.301 124.852C271.564 124.496 271.921 124.218 272.372 124.015C272.826 123.813 273.341 123.712 273.916 123.712C274.726 123.712 275.362 123.889 275.823 124.244C276.289 124.599 276.619 125.068 276.814 125.651ZM282.286 132.17C281.498 132.17 280.818 131.996 280.246 131.648C279.678 131.297 279.239 130.807 278.93 130.178C278.625 129.546 278.472 128.811 278.472 127.973C278.472 127.135 278.625 126.396 278.93 125.757C279.239 125.114 279.669 124.614 280.219 124.255C280.773 123.893 281.42 123.712 282.158 123.712C282.584 123.712 283.005 123.783 283.421 123.925C283.836 124.067 284.214 124.298 284.555 124.617C284.896 124.933 285.168 125.352 285.37 125.874C285.573 126.396 285.674 127.039 285.674 127.803V128.335H279.367V127.249H284.395C284.395 126.787 284.303 126.375 284.118 126.013C283.937 125.651 283.678 125.365 283.341 125.155C283.007 124.946 282.613 124.841 282.158 124.841C281.657 124.841 281.224 124.965 280.858 125.214C280.496 125.459 280.218 125.778 280.022 126.173C279.827 126.567 279.729 126.989 279.729 127.44V128.165C279.729 128.783 279.836 129.306 280.049 129.736C280.265 130.162 280.566 130.487 280.949 130.711C281.333 130.931 281.778 131.041 282.286 131.041C282.616 131.041 282.915 130.995 283.181 130.903C283.451 130.807 283.683 130.665 283.879 130.477C284.074 130.285 284.225 130.047 284.331 129.763L285.546 130.104C285.418 130.516 285.203 130.878 284.901 131.19C284.6 131.499 284.227 131.741 283.783 131.915C283.339 132.085 282.84 132.17 282.286 132.17ZM287.586 132V123.818H288.801V125.054H288.886C289.035 124.649 289.305 124.321 289.695 124.069C290.086 123.816 290.526 123.69 291.017 123.69C291.109 123.69 291.224 123.692 291.363 123.696C291.501 123.699 291.606 123.705 291.677 123.712V124.99C291.634 124.979 291.537 124.963 291.384 124.942C291.235 124.917 291.077 124.905 290.91 124.905C290.512 124.905 290.157 124.988 289.845 125.155C289.536 125.319 289.291 125.546 289.11 125.837C288.932 126.125 288.843 126.453 288.843 126.822V132H287.586ZM298.963 125.651L297.833 125.97C297.762 125.782 297.658 125.599 297.519 125.422C297.384 125.24 297.199 125.091 296.965 124.974C296.731 124.857 296.431 124.798 296.065 124.798C295.564 124.798 295.147 124.914 294.813 125.145C294.483 125.372 294.318 125.661 294.318 126.013C294.318 126.325 294.431 126.572 294.659 126.753C294.886 126.934 295.241 127.085 295.724 127.206L296.938 127.504C297.67 127.682 298.215 127.953 298.574 128.319C298.932 128.681 299.112 129.148 299.112 129.72C299.112 130.189 298.977 130.608 298.707 130.977C298.441 131.347 298.068 131.638 297.588 131.851C297.109 132.064 296.551 132.17 295.916 132.17C295.081 132.17 294.391 131.989 293.844 131.627C293.297 131.265 292.951 130.736 292.805 130.04L293.998 129.741C294.112 130.182 294.327 130.512 294.643 130.732C294.962 130.952 295.38 131.062 295.894 131.062C296.48 131.062 296.946 130.938 297.29 130.69C297.638 130.437 297.812 130.136 297.812 129.784C297.812 129.5 297.713 129.262 297.514 129.07C297.315 128.875 297.009 128.729 296.598 128.634L295.234 128.314C294.485 128.136 293.934 127.861 293.583 127.488C293.235 127.112 293.061 126.641 293.061 126.077C293.061 125.615 293.19 125.207 293.449 124.852C293.712 124.496 294.069 124.218 294.52 124.015C294.975 123.813 295.49 123.712 296.065 123.712C296.875 123.712 297.51 123.889 297.972 124.244C298.437 124.599 298.767 125.068 298.963 125.651Z" fill="#2E263D" fill-opacity="0.7"/>
<path d="M264.976 145.909V159H262.994V147.891H262.918L259.786 149.936V148.044L263.052 145.909H264.976ZM268.517 159V157.568L272.947 152.979C273.42 152.48 273.81 152.043 274.116 151.668C274.428 151.289 274.66 150.929 274.813 150.588C274.967 150.247 275.043 149.885 275.043 149.501C275.043 149.067 274.941 148.692 274.737 148.376C274.532 148.057 274.253 147.812 273.899 147.641C273.545 147.467 273.147 147.379 272.704 147.379C272.235 147.379 271.826 147.475 271.477 147.667C271.127 147.859 270.859 148.129 270.671 148.479C270.484 148.828 270.39 149.237 270.39 149.706H268.504C268.504 148.909 268.688 148.212 269.054 147.616C269.42 147.019 269.923 146.557 270.562 146.229C271.202 145.896 271.928 145.73 272.742 145.73C273.565 145.73 274.289 145.894 274.915 146.222C275.546 146.546 276.038 146.989 276.392 147.552C276.746 148.11 276.923 148.741 276.923 149.444C276.923 149.93 276.831 150.405 276.648 150.869C276.469 151.334 276.156 151.852 275.708 152.423C275.261 152.989 274.638 153.678 273.842 154.487L271.24 157.21V157.306H277.134V159H268.517ZM280.841 159.121C280.491 159.121 280.191 158.998 279.94 158.751C279.688 158.499 279.562 158.197 279.562 157.843C279.562 157.494 279.688 157.195 279.94 156.948C280.191 156.697 280.491 156.571 280.841 156.571C281.19 156.571 281.491 156.697 281.742 156.948C281.994 157.195 282.119 157.494 282.119 157.843C282.119 158.077 282.06 158.293 281.94 158.489C281.825 158.68 281.672 158.834 281.48 158.949C281.288 159.064 281.075 159.121 280.841 159.121ZM288.764 159.179C287.963 159.179 287.243 159.026 286.603 158.719C285.968 158.408 285.461 157.982 285.082 157.44C284.703 156.899 284.5 156.281 284.475 155.587H286.392C286.439 156.149 286.689 156.612 287.14 156.974C287.592 157.336 288.133 157.517 288.764 157.517C289.267 157.517 289.712 157.402 290.1 157.172C290.492 156.938 290.799 156.616 291.02 156.207C291.246 155.798 291.359 155.331 291.359 154.807C291.359 154.274 291.244 153.799 291.014 153.381C290.784 152.964 290.466 152.636 290.061 152.397C289.661 152.158 289.201 152.037 288.681 152.033C288.284 152.033 287.886 152.101 287.485 152.237C287.085 152.374 286.761 152.553 286.514 152.774L284.705 152.506L285.44 145.909H292.637V147.603H287.083L286.667 151.266H286.744C287 151.018 287.338 150.812 287.76 150.646C288.186 150.479 288.642 150.396 289.128 150.396C289.925 150.396 290.635 150.586 291.257 150.965C291.883 151.344 292.375 151.862 292.733 152.518C293.096 153.17 293.275 153.92 293.27 154.768C293.275 155.616 293.083 156.373 292.695 157.038C292.311 157.702 291.779 158.227 291.097 158.61C290.419 158.989 289.642 159.179 288.764 159.179ZM297.388 155.67L297.376 153.337H297.708L301.62 149.182H303.908L299.447 153.912H299.146L297.388 155.67ZM295.631 159V145.909H297.542V159H295.631ZM301.831 159L298.315 154.334L299.632 152.998L304.177 159H301.831Z" fill="#2E263D" fill-opacity="0.9"/>
<g filter="url(#filter3_d_8003_6708)">
<path d="M383.5 127C383.5 123.686 386.186 121 389.5 121H417.5C420.814 121 423.5 123.686 423.5 127V155C423.5 158.314 420.814 161 417.5 161H389.5C386.186 161 383.5 158.314 383.5 155V127Z" fill="#FFB400"/>
<path d="M395.5 134V145H411.5V134H395.5ZM393.5 133.007C393.5 132.451 393.955 132 394.492 132H412.508C413.056 132 413.5 132.449 413.5 133.007V147H393.5V133.007ZM392.5 148H414.5V150H392.5V148Z" fill="white"/>
</g>
<path d="M436.821 132V121.091H440.507C441.363 121.091 442.063 121.245 442.606 121.554C443.153 121.86 443.558 122.273 443.82 122.795C444.083 123.317 444.214 123.9 444.214 124.543C444.214 125.185 444.083 125.77 443.82 126.295C443.561 126.821 443.16 127.24 442.616 127.552C442.073 127.861 441.377 128.016 440.528 128.016H437.886V126.844H440.486C441.072 126.844 441.542 126.743 441.897 126.54C442.252 126.338 442.51 126.064 442.67 125.72C442.833 125.372 442.915 124.979 442.915 124.543C442.915 124.106 442.833 123.715 442.67 123.371C442.51 123.026 442.251 122.756 441.892 122.561C441.533 122.362 441.058 122.263 440.464 122.263H438.142V132H436.821ZM446.172 132V123.818H447.387V125.054H447.472C447.621 124.649 447.891 124.321 448.281 124.069C448.672 123.816 449.112 123.69 449.602 123.69C449.695 123.69 449.81 123.692 449.949 123.696C450.087 123.699 450.192 123.705 450.263 123.712V124.99C450.22 124.979 450.123 124.963 449.97 124.942C449.821 124.917 449.663 124.905 449.496 124.905C449.098 124.905 448.743 124.988 448.431 125.155C448.122 125.319 447.877 125.546 447.695 125.837C447.518 126.125 447.429 126.453 447.429 126.822V132H446.172ZM454.828 132.17C454.089 132.17 453.441 131.995 452.884 131.643C452.33 131.292 451.896 130.8 451.584 130.168C451.275 129.536 451.121 128.797 451.121 127.952C451.121 127.099 451.275 126.355 451.584 125.72C451.896 125.084 452.33 124.591 452.884 124.239C453.441 123.887 454.089 123.712 454.828 123.712C455.567 123.712 456.213 123.887 456.767 124.239C457.324 124.591 457.758 125.084 458.067 125.72C458.379 126.355 458.535 127.099 458.535 127.952C458.535 128.797 458.379 129.536 458.067 130.168C457.758 130.8 457.324 131.292 456.767 131.643C456.213 131.995 455.567 132.17 454.828 132.17ZM454.828 131.041C455.389 131.041 455.851 130.897 456.213 130.61C456.575 130.322 456.843 129.944 457.017 129.475C457.191 129.006 457.278 128.499 457.278 127.952C457.278 127.405 457.191 126.895 457.017 126.423C456.843 125.951 456.575 125.569 456.213 125.278C455.851 124.987 455.389 124.841 454.828 124.841C454.267 124.841 453.805 124.987 453.443 125.278C453.081 125.569 452.813 125.951 452.639 126.423C452.465 126.895 452.378 127.405 452.378 127.952C452.378 128.499 452.465 129.006 452.639 129.475C452.813 129.944 453.081 130.322 453.443 130.61C453.805 130.897 454.267 131.041 454.828 131.041ZM463.544 132.17C462.862 132.17 462.26 131.998 461.738 131.654C461.216 131.306 460.808 130.816 460.513 130.184C460.218 129.548 460.071 128.797 460.071 127.93C460.071 127.071 460.218 126.325 460.513 125.693C460.808 125.061 461.218 124.573 461.743 124.228C462.269 123.884 462.876 123.712 463.565 123.712C464.098 123.712 464.519 123.8 464.828 123.978C465.14 124.152 465.378 124.351 465.541 124.575C465.708 124.795 465.838 124.976 465.93 125.118H466.037V121.091H467.294V132H466.079V130.743H465.93C465.838 130.892 465.706 131.08 465.536 131.308C465.366 131.531 465.122 131.732 464.806 131.909C464.49 132.083 464.069 132.17 463.544 132.17ZM463.714 131.041C464.218 131.041 464.645 130.91 464.993 130.647C465.341 130.381 465.605 130.013 465.786 129.544C465.967 129.072 466.058 128.527 466.058 127.909C466.058 127.298 465.969 126.764 465.792 126.306C465.614 125.844 465.351 125.485 465.003 125.23C464.655 124.971 464.226 124.841 463.714 124.841C463.182 124.841 462.738 124.978 462.383 125.251C462.031 125.521 461.766 125.888 461.589 126.354C461.415 126.815 461.328 127.334 461.328 127.909C461.328 128.491 461.417 129.021 461.594 129.496C461.775 129.969 462.042 130.345 462.393 130.626C462.748 130.903 463.189 131.041 463.714 131.041ZM474.927 128.655V123.818H476.184V132H474.927V130.615H474.842C474.65 131.031 474.352 131.384 473.947 131.675C473.542 131.963 473.031 132.107 472.413 132.107C471.901 132.107 471.447 131.995 471.049 131.771C470.651 131.544 470.339 131.203 470.112 130.748C469.884 130.29 469.771 129.713 469.771 129.017V123.818H471.028V128.932C471.028 129.528 471.195 130.004 471.528 130.359C471.866 130.714 472.296 130.892 472.818 130.892C473.13 130.892 473.448 130.812 473.771 130.652C474.098 130.493 474.371 130.248 474.591 129.917C474.815 129.587 474.927 129.166 474.927 128.655ZM481.81 132.17C481.043 132.17 480.383 131.989 479.829 131.627C479.275 131.265 478.849 130.766 478.55 130.13C478.252 129.495 478.103 128.768 478.103 127.952C478.103 127.121 478.256 126.387 478.561 125.752C478.87 125.113 479.3 124.614 479.85 124.255C480.404 123.893 481.05 123.712 481.789 123.712C482.364 123.712 482.883 123.818 483.344 124.031C483.806 124.244 484.184 124.543 484.479 124.926C484.774 125.31 484.957 125.757 485.028 126.268H483.771C483.675 125.896 483.462 125.565 483.131 125.278C482.805 124.987 482.364 124.841 481.81 124.841C481.32 124.841 480.891 124.969 480.521 125.224C480.156 125.477 479.87 125.833 479.664 126.295C479.461 126.753 479.36 127.291 479.36 127.909C479.36 128.541 479.46 129.092 479.658 129.56C479.861 130.029 480.145 130.393 480.511 130.652C480.88 130.912 481.313 131.041 481.81 131.041C482.137 131.041 482.434 130.984 482.7 130.871C482.966 130.757 483.192 130.594 483.376 130.381C483.561 130.168 483.692 129.912 483.771 129.614H485.028C484.957 130.097 484.781 130.532 484.5 130.919C484.223 131.302 483.856 131.608 483.398 131.835C482.943 132.059 482.414 132.17 481.81 132.17ZM490.424 123.818V124.884H486.184V123.818H490.424ZM487.419 121.858H488.676V129.656C488.676 130.011 488.728 130.278 488.831 130.455C488.938 130.629 489.072 130.746 489.236 130.807C489.403 130.864 489.578 130.892 489.763 130.892C489.902 130.892 490.015 130.885 490.104 130.871C490.193 130.853 490.264 130.839 490.317 130.828L490.573 131.957C490.488 131.989 490.369 132.021 490.216 132.053C490.063 132.089 489.87 132.107 489.635 132.107C489.28 132.107 488.932 132.03 488.591 131.877C488.254 131.725 487.973 131.492 487.75 131.18C487.529 130.867 487.419 130.473 487.419 129.997V121.858Z" fill="#2E263D" fill-opacity="0.7"/>
<path d="M441.726 145.909V159H439.744V147.891H439.668L436.536 149.936V148.044L439.802 145.909H441.726ZM445.796 159.121C445.447 159.121 445.146 158.998 444.895 158.751C444.643 158.499 444.518 158.197 444.518 157.843C444.518 157.494 444.643 157.195 444.895 156.948C445.146 156.697 445.447 156.571 445.796 156.571C446.145 156.571 446.446 156.697 446.697 156.948C446.949 157.195 447.074 157.494 447.074 157.843C447.074 158.077 447.015 158.293 446.895 158.489C446.78 158.68 446.627 158.834 446.435 158.949C446.243 159.064 446.03 159.121 445.796 159.121ZM453.719 159.179C452.918 159.179 452.198 159.026 451.558 158.719C450.923 158.408 450.416 157.982 450.037 157.44C449.658 156.899 449.455 156.281 449.43 155.587H451.347C451.394 156.149 451.644 156.612 452.095 156.974C452.547 157.336 453.088 157.517 453.719 157.517C454.222 157.517 454.667 157.402 455.055 157.172C455.447 156.938 455.754 156.616 455.975 156.207C456.201 155.798 456.314 155.331 456.314 154.807C456.314 154.274 456.199 153.799 455.969 153.381C455.739 152.964 455.421 152.636 455.017 152.397C454.616 152.158 454.156 152.037 453.636 152.033C453.24 152.033 452.841 152.101 452.441 152.237C452.04 152.374 451.716 152.553 451.469 152.774L449.66 152.506L450.395 145.909H457.593V147.603H452.038L451.622 151.266H451.699C451.955 151.018 452.294 150.812 452.715 150.646C453.142 150.479 453.597 150.396 454.083 150.396C454.88 150.396 455.59 150.586 456.212 150.965C456.838 151.344 457.33 151.862 457.688 152.518C458.051 153.17 458.23 153.92 458.225 154.768C458.23 155.616 458.038 156.373 457.65 157.038C457.267 157.702 456.734 158.227 456.052 158.61C455.374 158.989 454.597 159.179 453.719 159.179ZM460.285 156.443V154.845L465.942 145.909H467.201V148.261H466.402L462.356 154.666V154.768H470.11V156.443H460.285ZM466.492 159V155.957L466.505 155.229V145.909H468.377V159H466.492ZM474.121 155.67L474.108 153.337H474.44L478.352 149.182H480.641L476.179 153.912H475.879L474.121 155.67ZM472.363 159V145.909H474.274V159H472.363ZM478.563 159L475.048 154.334L476.364 152.998L480.909 159H478.563Z" fill="#2E263D" fill-opacity="0.9"/>
<g filter="url(#filter4_d_8003_6708)">
<path d="M560.25 127C560.25 123.686 562.936 121 566.25 121H594.25C597.564 121 600.25 123.686 600.25 127V155C600.25 158.314 597.564 161 594.25 161H566.25C562.936 161 560.25 158.314 560.25 155V127Z" fill="#16B1FF"/>
<path d="M580.25 151C574.727 151 570.25 146.523 570.25 141C570.25 135.477 574.727 131 580.25 131C585.773 131 590.25 135.477 590.25 141C590.25 146.523 585.773 151 580.25 151ZM580.25 149C582.372 149 584.407 148.157 585.907 146.657C587.407 145.157 588.25 143.122 588.25 141C588.25 138.878 587.407 136.843 585.907 135.343C584.407 133.843 582.372 133 580.25 133C578.128 133 576.093 133.843 574.593 135.343C573.093 136.843 572.25 138.878 572.25 141C572.25 143.122 573.093 145.157 574.593 146.657C576.093 148.157 578.128 149 580.25 149V149ZM576.75 143H582.25C582.383 143 582.51 142.947 582.604 142.854C582.697 142.76 582.75 142.633 582.75 142.5C582.75 142.367 582.697 142.24 582.604 142.146C582.51 142.053 582.383 142 582.25 142H578.25C577.587 142 576.951 141.737 576.482 141.268C576.013 140.799 575.75 140.163 575.75 139.5C575.75 138.837 576.013 138.201 576.482 137.732C576.951 137.263 577.587 137 578.25 137H579.25V135H581.25V137H583.75V139H578.25C578.117 139 577.99 139.053 577.896 139.146C577.803 139.24 577.75 139.367 577.75 139.5C577.75 139.633 577.803 139.76 577.896 139.854C577.99 139.947 578.117 140 578.25 140H582.25C582.913 140 583.549 140.263 584.018 140.732C584.487 141.201 584.75 141.837 584.75 142.5C584.75 143.163 584.487 143.799 584.018 144.268C583.549 144.737 582.913 145 582.25 145H581.25V147H579.25V145H576.75V143Z" fill="white"/>
</g>
<path d="M613.571 132V121.091H617.257C618.109 121.091 618.809 121.237 619.356 121.528C619.903 121.815 620.308 122.211 620.57 122.716C620.833 123.22 620.964 123.793 620.964 124.436C620.964 125.079 620.833 125.649 620.57 126.146C620.308 126.643 619.904 127.034 619.361 127.318C618.818 127.598 618.124 127.739 617.278 127.739H614.295V126.545H617.236C617.818 126.545 618.287 126.46 618.642 126.29C619.001 126.119 619.26 125.878 619.42 125.565C619.583 125.249 619.665 124.873 619.665 124.436C619.665 123.999 619.583 123.618 619.42 123.291C619.256 122.964 618.995 122.712 618.637 122.534C618.278 122.353 617.804 122.263 617.214 122.263H614.892V132H613.571ZM618.706 127.099L621.391 132H619.857L617.214 127.099H618.706ZM626.338 132.17C625.549 132.17 624.869 131.996 624.298 131.648C623.729 131.297 623.291 130.807 622.982 130.178C622.677 129.546 622.524 128.811 622.524 127.973C622.524 127.135 622.677 126.396 622.982 125.757C623.291 125.114 623.721 124.614 624.271 124.255C624.825 123.893 625.471 123.712 626.21 123.712C626.636 123.712 627.057 123.783 627.472 123.925C627.888 124.067 628.266 124.298 628.607 124.617C628.948 124.933 629.22 125.352 629.422 125.874C629.624 126.396 629.726 127.039 629.726 127.803V128.335H623.419V127.249H628.447C628.447 126.787 628.355 126.375 628.17 126.013C627.989 125.651 627.73 125.365 627.392 125.155C627.059 124.946 626.665 124.841 626.21 124.841C625.709 124.841 625.276 124.965 624.91 125.214C624.548 125.459 624.269 125.778 624.074 126.173C623.879 126.567 623.781 126.989 623.781 127.44V128.165C623.781 128.783 623.888 129.306 624.101 129.736C624.317 130.162 624.617 130.487 625.001 130.711C625.384 130.931 625.83 131.041 626.338 131.041C626.668 131.041 626.966 130.995 627.233 130.903C627.503 130.807 627.735 130.665 627.93 130.477C628.126 130.285 628.277 130.047 628.383 129.763L629.598 130.104C629.47 130.516 629.255 130.878 628.953 131.19C628.651 131.499 628.278 131.741 627.835 131.915C627.391 132.085 626.892 132.17 626.338 132.17ZM638.079 123.818L635.054 132H633.775L630.75 123.818H632.113L634.372 130.338H634.457L636.716 123.818H638.079ZM642.876 132.17C642.088 132.17 641.407 131.996 640.836 131.648C640.268 131.297 639.829 130.807 639.52 130.178C639.215 129.546 639.062 128.811 639.062 127.973C639.062 127.135 639.215 126.396 639.52 125.757C639.829 125.114 640.259 124.614 640.809 124.255C641.363 123.893 642.009 123.712 642.748 123.712C643.174 123.712 643.595 123.783 644.01 123.925C644.426 124.067 644.804 124.298 645.145 124.617C645.486 124.933 645.758 125.352 645.96 125.874C646.162 126.396 646.264 127.039 646.264 127.803V128.335H639.957V127.249H644.985C644.985 126.787 644.893 126.375 644.708 126.013C644.527 125.651 644.268 125.365 643.931 125.155C643.597 124.946 643.203 124.841 642.748 124.841C642.247 124.841 641.814 124.965 641.448 125.214C641.086 125.459 640.807 125.778 640.612 126.173C640.417 126.567 640.319 126.989 640.319 127.44V128.165C640.319 128.783 640.426 129.306 640.639 129.736C640.855 130.162 641.155 130.487 641.539 130.711C641.922 130.931 642.368 131.041 642.876 131.041C643.206 131.041 643.504 130.995 643.771 130.903C644.041 130.807 644.273 130.665 644.469 130.477C644.664 130.285 644.815 130.047 644.921 129.763L646.136 130.104C646.008 130.516 645.793 130.878 645.491 131.19C645.189 131.499 644.817 131.741 644.373 131.915C643.929 132.085 643.43 132.17 642.876 132.17ZM649.433 127.078V132H648.176V123.818H649.39V125.097H649.497C649.689 124.681 649.98 124.347 650.371 124.095C650.761 123.839 651.265 123.712 651.883 123.712C652.437 123.712 652.922 123.825 653.338 124.053C653.753 124.276 654.076 124.617 654.307 125.075C654.538 125.53 654.653 126.105 654.653 126.801V132H653.396V126.886C653.396 126.244 653.229 125.743 652.895 125.384C652.562 125.022 652.104 124.841 651.521 124.841C651.12 124.841 650.761 124.928 650.445 125.102C650.133 125.276 649.886 125.53 649.705 125.864C649.524 126.197 649.433 126.602 649.433 127.078ZM662.107 128.655V123.818H663.364V132H662.107V130.615H662.021C661.83 131.031 661.531 131.384 661.127 131.675C660.722 131.963 660.21 132.107 659.592 132.107C659.081 132.107 658.627 131.995 658.229 131.771C657.831 131.544 657.519 131.203 657.291 130.748C657.064 130.29 656.95 129.713 656.95 129.017V123.818H658.207V128.932C658.207 129.528 658.374 130.004 658.708 130.359C659.046 130.714 659.475 130.892 659.997 130.892C660.31 130.892 660.628 130.812 660.951 130.652C661.277 130.493 661.551 130.248 661.771 129.917C661.995 129.587 662.107 129.166 662.107 128.655ZM669.097 132.17C668.308 132.17 667.628 131.996 667.056 131.648C666.488 131.297 666.05 130.807 665.741 130.178C665.435 129.546 665.283 128.811 665.283 127.973C665.283 127.135 665.435 126.396 665.741 125.757C666.05 125.114 666.479 124.614 667.03 124.255C667.584 123.893 668.23 123.712 668.969 123.712C669.395 123.712 669.816 123.783 670.231 123.925C670.647 124.067 671.025 124.298 671.366 124.617C671.707 124.933 671.978 125.352 672.181 125.874C672.383 126.396 672.484 127.039 672.484 127.803V128.335H666.178V127.249H671.206C671.206 126.787 671.114 126.375 670.929 126.013C670.748 125.651 670.489 125.365 670.151 125.155C669.817 124.946 669.423 124.841 668.969 124.841C668.468 124.841 668.035 124.965 667.669 125.214C667.307 125.459 667.028 125.778 666.833 126.173C666.637 126.567 666.54 126.989 666.54 127.44V128.165C666.54 128.783 666.646 129.306 666.859 129.736C667.076 130.162 667.376 130.487 667.76 130.711C668.143 130.931 668.589 131.041 669.097 131.041C669.427 131.041 669.725 130.995 669.991 130.903C670.261 130.807 670.494 130.665 670.689 130.477C670.885 130.285 671.036 130.047 671.142 129.763L672.357 130.104C672.229 130.516 672.014 130.878 671.712 131.19C671.41 131.499 671.037 131.741 670.593 131.915C670.15 132.085 669.651 132.17 669.097 132.17Z" fill="#2E263D" fill-opacity="0.7"/>
<path d="M617.549 160.636V144.273H618.597V160.636H617.549ZM620.828 149.348C620.76 148.743 620.479 148.274 619.984 147.942C619.49 147.605 618.868 147.437 618.118 147.437C617.581 147.437 617.116 147.522 616.724 147.692C616.332 147.859 616.028 148.089 615.81 148.383C615.597 148.673 615.491 149.003 615.491 149.374C615.491 149.685 615.563 149.953 615.708 150.179C615.857 150.405 616.051 150.594 616.29 150.748C616.533 150.897 616.793 151.023 617.07 151.125C617.347 151.223 617.613 151.304 617.869 151.368L619.147 151.7C619.565 151.803 619.993 151.941 620.432 152.116C620.871 152.29 621.278 152.521 621.653 152.806C622.028 153.092 622.33 153.445 622.56 153.867C622.795 154.289 622.912 154.794 622.912 155.382C622.912 156.124 622.72 156.782 622.337 157.357C621.957 157.933 621.406 158.386 620.681 158.719C619.961 159.051 619.089 159.217 618.067 159.217C617.087 159.217 616.239 159.062 615.523 158.751C614.807 158.44 614.246 157.999 613.842 157.428C613.437 156.852 613.213 156.17 613.17 155.382H615.152C615.19 155.855 615.344 156.249 615.612 156.565C615.885 156.876 616.232 157.108 616.654 157.261C617.08 157.411 617.547 157.485 618.054 157.485C618.612 157.485 619.109 157.398 619.543 157.223C619.982 157.044 620.327 156.797 620.579 156.482C620.83 156.162 620.956 155.789 620.956 155.363C620.956 154.975 620.845 154.658 620.624 154.411C620.406 154.163 620.11 153.959 619.735 153.797C619.364 153.635 618.945 153.492 618.476 153.369L616.929 152.947C615.881 152.661 615.05 152.241 614.436 151.688C613.827 151.134 613.522 150.401 613.522 149.489C613.522 148.734 613.727 148.076 614.136 147.513C614.545 146.951 615.099 146.514 615.798 146.203C616.496 145.888 617.285 145.73 618.163 145.73C619.049 145.73 619.831 145.886 620.509 146.197C621.19 146.508 621.727 146.936 622.119 147.482C622.511 148.023 622.716 148.645 622.733 149.348H620.828ZM629.517 159.179C628.6 159.179 627.791 159.021 627.088 158.706C626.389 158.391 625.841 157.956 625.445 157.402C625.048 156.848 624.852 156.217 624.857 155.51C624.852 154.956 624.965 154.447 625.195 153.982C625.43 153.513 625.747 153.124 626.148 152.812C626.548 152.497 626.996 152.297 627.49 152.212V152.135C626.838 151.977 626.316 151.628 625.924 151.087C625.532 150.545 625.338 149.923 625.343 149.22C625.338 148.551 625.515 147.955 625.873 147.43C626.235 146.902 626.732 146.487 627.362 146.184C627.993 145.881 628.711 145.73 629.517 145.73C630.313 145.73 631.025 145.884 631.651 146.19C632.282 146.493 632.779 146.908 633.141 147.437C633.503 147.961 633.686 148.555 633.691 149.22C633.686 149.923 633.486 150.545 633.09 151.087C632.693 151.628 632.178 151.977 631.543 152.135V152.212C632.033 152.297 632.474 152.497 632.866 152.812C633.262 153.124 633.578 153.513 633.812 153.982C634.051 154.447 634.172 154.956 634.176 155.51C634.172 156.217 633.972 156.848 633.575 157.402C633.179 157.956 632.629 158.391 631.926 158.706C631.227 159.021 630.424 159.179 629.517 159.179ZM629.517 157.562C630.058 157.562 630.526 157.472 630.923 157.293C631.319 157.11 631.626 156.857 631.843 156.533C632.061 156.205 632.171 155.821 632.176 155.382C632.171 154.926 632.052 154.523 631.818 154.174C631.588 153.825 631.274 153.55 630.878 153.349C630.482 153.149 630.028 153.049 629.517 153.049C629.001 153.049 628.543 153.149 628.142 153.349C627.742 153.55 627.426 153.825 627.196 154.174C626.966 154.523 626.853 154.926 626.857 155.382C626.853 155.821 626.958 156.205 627.171 156.533C627.388 156.857 627.697 157.11 628.097 157.293C628.498 157.472 628.971 157.562 629.517 157.562ZM629.517 151.47C629.951 151.47 630.337 151.383 630.673 151.208C631.01 151.033 631.274 150.79 631.466 150.479C631.662 150.168 631.762 149.804 631.767 149.386C631.762 148.977 631.664 148.619 631.472 148.312C631.285 148.006 631.023 147.769 630.686 147.603C630.35 147.433 629.96 147.347 629.517 147.347C629.065 147.347 628.669 147.433 628.328 147.603C627.991 147.769 627.729 148.006 627.541 148.312C627.354 148.619 627.262 148.977 627.267 149.386C627.262 149.804 627.356 150.168 627.548 150.479C627.74 150.79 628.004 151.033 628.34 151.208C628.681 151.383 629.073 151.47 629.517 151.47ZM640.89 159.179C639.973 159.179 639.164 159.021 638.461 158.706C637.762 158.391 637.214 157.956 636.818 157.402C636.422 156.848 636.225 156.217 636.23 155.51C636.225 154.956 636.338 154.447 636.569 153.982C636.803 153.513 637.12 153.124 637.521 152.812C637.922 152.497 638.369 152.297 638.863 152.212V152.135C638.211 151.977 637.689 151.628 637.297 151.087C636.905 150.545 636.711 149.923 636.716 149.22C636.711 148.551 636.888 147.955 637.246 147.43C637.608 146.902 638.105 146.487 638.735 146.184C639.366 145.881 640.084 145.73 640.89 145.73C641.686 145.73 642.398 145.884 643.025 146.19C643.655 146.493 644.152 146.908 644.514 147.437C644.876 147.961 645.059 148.555 645.064 149.22C645.059 149.923 644.859 150.545 644.463 151.087C644.066 151.628 643.551 151.977 642.916 152.135V152.212C643.406 152.297 643.847 152.497 644.239 152.812C644.635 153.124 644.951 153.513 645.185 153.982C645.424 154.447 645.545 154.956 645.549 155.51C645.545 156.217 645.345 156.848 644.949 157.402C644.552 157.956 644.002 158.391 643.299 158.706C642.6 159.021 641.797 159.179 640.89 159.179ZM640.89 157.562C641.431 157.562 641.9 157.472 642.296 157.293C642.692 157.11 642.999 156.857 643.216 156.533C643.434 156.205 643.544 155.821 643.549 155.382C643.544 154.926 643.425 154.523 643.191 154.174C642.961 153.825 642.647 153.55 642.251 153.349C641.855 153.149 641.401 153.049 640.89 153.049C640.374 153.049 639.916 153.149 639.515 153.349C639.115 153.55 638.799 153.825 638.569 154.174C638.339 154.523 638.226 154.926 638.23 155.382C638.226 155.821 638.331 156.205 638.544 156.533C638.761 156.857 639.07 157.11 639.471 157.293C639.871 157.472 640.344 157.562 640.89 157.562ZM640.89 151.47C641.324 151.47 641.71 151.383 642.047 151.208C642.383 151.033 642.647 150.79 642.839 150.479C643.035 150.168 643.135 149.804 643.14 149.386C643.135 148.977 643.037 148.619 642.846 148.312C642.658 148.006 642.396 147.769 642.059 147.603C641.723 147.433 641.333 147.347 640.89 147.347C640.438 147.347 640.042 147.433 639.701 147.603C639.364 147.769 639.102 148.006 638.914 148.312C638.727 148.619 638.635 148.977 638.64 149.386C638.635 149.804 638.729 150.168 638.921 150.479C639.113 150.79 639.377 151.033 639.713 151.208C640.054 151.383 640.446 151.47 640.89 151.47ZM649.623 155.67L649.61 153.337H649.942L653.854 149.182H656.143L651.681 153.912H651.381L649.623 155.67ZM647.865 159V145.909H649.776V159H647.865ZM654.065 159L650.55 154.334L651.866 152.998L656.411 159H654.065Z" fill="#2E263D" fill-opacity="0.9"/>
</g>
</g>
<defs>
<filter id="filter0_d_8003_6708" x="0" y="0" width="767" height="200" filterUnits="userSpaceOnUse" color-interpolation-filters="sRGB">
<feFlood flood-opacity="0" result="BackgroundImageFix"/>
<feColorMatrix in="SourceAlpha" type="matrix" values="0 0 0 0 0 0 0 0 0 0 0 0 0 0 0 0 0 0 127 0" result="hardAlpha"/>
<feOffset dy="4"/>
<feGaussianBlur stdDeviation="5"/>
<feComposite in2="hardAlpha" operator="out"/>
<feColorMatrix type="matrix" values="0 0 0 0 0.180392 0 0 0 0 0.14902 0 0 0 0 0.239216 0 0 0 0.2 0"/>
<feBlend mode="normal" in2="BackgroundImageFix" result="effect1_dropShadow_8003_6708"/>
<feBlend mode="normal" in="SourceGraphic" in2="effect1_dropShadow_8003_6708" result="shape"/>
</filter>
<filter id="filter1_d_8003_6708" x="26" y="119" width="48" height="48" filterUnits="userSpaceOnUse" color-interpolation-filters="sRGB">
<feFlood flood-opacity="0" result="BackgroundImageFix"/>
<feColorMatrix in="SourceAlpha" type="matrix" values="0 0 0 0 0 0 0 0 0 0 0 0 0 0 0 0 0 0 127 0" result="hardAlpha"/>
<feOffset dy="2"/>
<feGaussianBlur stdDeviation="2"/>
<feColorMatrix type="matrix" values="0 0 0 0 0.180392 0 0 0 0 0.14902 0 0 0 0 0.239216 0 0 0 0.16 0"/>
<feBlend mode="normal" in2="BackgroundImageFix" result="effect1_dropShadow_8003_6708"/>
<feBlend mode="normal" in="SourceGraphic" in2="effect1_dropShadow_8003_6708" result="shape"/>
</filter>
<filter id="filter2_d_8003_6708" x="202.75" y="119" width="48" height="48" filterUnits="userSpaceOnUse" color-interpolation-filters="sRGB">
<feFlood flood-opacity="0" result="BackgroundImageFix"/>
<feColorMatrix in="SourceAlpha" type="matrix" values="0 0 0 0 0 0 0 0 0 0 0 0 0 0 0 0 0 0 127 0" result="hardAlpha"/>
<feOffset dy="2"/>
<feGaussianBlur stdDeviation="2"/>
<feColorMatrix type="matrix" values="0 0 0 0 0.180392 0 0 0 0 0.14902 0 0 0 0 0.239216 0 0 0 0.16 0"/>
<feBlend mode="normal" in2="BackgroundImageFix" result="effect1_dropShadow_8003_6708"/>
<feBlend mode="normal" in="SourceGraphic" in2="effect1_dropShadow_8003_6708" result="shape"/>
</filter>
<filter id="filter3_d_8003_6708" x="379.5" y="119" width="48" height="48" filterUnits="userSpaceOnUse" color-interpolation-filters="sRGB">
<feFlood flood-opacity="0" result="BackgroundImageFix"/>
<feColorMatrix in="SourceAlpha" type="matrix" values="0 0 0 0 0 0 0 0 0 0 0 0 0 0 0 0 0 0 127 0" result="hardAlpha"/>
<feOffset dy="2"/>
<feGaussianBlur stdDeviation="2"/>
<feColorMatrix type="matrix" values="0 0 0 0 0.180392 0 0 0 0 0.14902 0 0 0 0 0.239216 0 0 0 0.16 0"/>
<feBlend mode="normal" in2="BackgroundImageFix" result="effect1_dropShadow_8003_6708"/>
<feBlend mode="normal" in="SourceGraphic" in2="effect1_dropShadow_8003_6708" result="shape"/>
</filter>
<filter id="filter4_d_8003_6708" x="556.25" y="119" width="48" height="48" filterUnits="userSpaceOnUse" color-interpolation-filters="sRGB">
<feFlood flood-opacity="0" result="BackgroundImageFix"/>
<feColorMatrix in="SourceAlpha" type="matrix" values="0 0 0 0 0 0 0 0 0 0 0 0 0 0 0 0 0 0 127 0" result="hardAlpha"/>
<feOffset dy="2"/>
<feGaussianBlur stdDeviation="2"/>
<feColorMatrix type="matrix" values="0 0 0 0 0.180392 0 0 0 0 0.14902 0 0 0 0 0.239216 0 0 0 0.16 0"/>
<feBlend mode="normal" in2="BackgroundImageFix" result="effect1_dropShadow_8003_6708"/>
<feBlend mode="normal" in="SourceGraphic" in2="effect1_dropShadow_8003_6708" result="shape"/>
</filter>
<clipPath id="clip0_8003_6708">
<path d="M10 12C10 8.6863 12.6863 6 16 6H751C754.314 6 757 8.68629 757 12V180C757 183.314 754.314 186 751 186H16C12.6863 186 10 183.314 10 180V12Z" fill="white"/>
</clipPath>
</defs>
</svg>
