<svg width="167" height="300" viewBox="0 0 167 300" fill="none" xmlns="http://www.w3.org/2000/svg">
<g clip-path="url(#clip0_8003_3033)">
<circle cx="10" cy="11" r="10" fill="#8C57FF"/>
<path d="M8.83331 12.8504L14.1953 7.48779L15.0207 8.31263L8.83331 14.5L5.12097 10.7877L5.94581 9.96288L8.83331 12.8504Z" fill="white"/>
<path d="M32.8473 16.1811C32.0057 16.1776 31.2866 15.9556 30.69 15.5153C30.0934 15.0749 29.6371 14.4339 29.321 13.5923C29.005 12.7507 28.8469 11.7369 28.8469 10.5508C28.8469 9.36825 29.005 8.35795 29.321 7.51989C29.6406 6.68182 30.0987 6.04261 30.6953 5.60227C31.2955 5.16193 32.0128 4.94176 32.8473 4.94176C33.6818 4.94176 34.3974 5.16371 34.994 5.6076C35.5906 6.04794 36.0469 6.68714 36.3629 7.52521C36.6825 8.35973 36.8423 9.36825 36.8423 10.5508C36.8423 11.7404 36.6843 12.756 36.3683 13.5977C36.0522 14.4357 35.5959 15.0767 34.9993 15.5206C34.4027 15.9609 33.6854 16.1811 32.8473 16.1811ZM32.8473 14.7589C33.5859 14.7589 34.163 14.3984 34.5785 13.6776C34.9975 12.9567 35.207 11.9144 35.207 10.5508C35.207 9.64524 35.1112 8.87997 34.9194 8.25497C34.7312 7.62642 34.4595 7.15057 34.1044 6.82741C33.7528 6.50071 33.3338 6.33736 32.8473 6.33736C32.1122 6.33736 31.5352 6.69957 31.1161 7.42401C30.6971 8.14844 30.4858 9.1907 30.4822 10.5508C30.4822 11.4599 30.5763 12.2287 30.7646 12.8572C30.9563 13.4822 31.228 13.9563 31.5795 14.2795C31.9311 14.5991 32.3537 14.7589 32.8473 14.7589ZM42.8708 5.09091V16H41.2195V6.74219H41.1556L38.5455 8.44673V6.87003L41.2675 5.09091H42.8708Z" fill="#2E263D" fill-opacity="0.9"/>
<path d="M55.12 16H53.3729L57.2987 5.09091H59.2003L63.1261 16H61.3789L58.2947 7.07244H58.2095L55.12 16ZM55.413 11.728H61.0806V13.1129H55.413V11.728ZM67.8881 16.1651C67.0962 16.1651 66.4144 15.9858 65.8427 15.6271C65.2745 15.2649 64.8377 14.766 64.5323 14.1303C64.2269 13.4947 64.0742 12.7667 64.0742 11.9464C64.0742 11.1154 64.2305 10.3821 64.543 9.74645C64.8555 9.10724 65.2958 8.60831 65.864 8.24964C66.4322 7.89098 67.1016 7.71165 67.8722 7.71165C68.4936 7.71165 69.0476 7.82706 69.5341 8.05788C70.0206 8.28516 70.413 8.60476 70.7113 9.01669C71.0131 9.42862 71.1925 9.9098 71.2493 10.4602H69.6992C69.614 10.0767 69.4187 9.74645 69.1133 9.46946C68.8114 9.19247 68.4066 9.05398 67.8988 9.05398C67.4549 9.05398 67.0661 9.17116 66.7322 9.40554C66.402 9.63636 66.1445 9.96662 65.9599 10.3963C65.7752 10.8224 65.6829 11.3267 65.6829 11.9091C65.6829 12.5057 65.7734 13.0206 65.9545 13.4538C66.1357 13.8871 66.3913 14.2227 66.7216 14.4606C67.0554 14.6985 67.4478 14.8175 67.8988 14.8175C68.2006 14.8175 68.4741 14.7624 68.7191 14.6523C68.9677 14.5387 69.1754 14.3771 69.3423 14.1676C69.5128 13.9581 69.6317 13.706 69.6992 13.4112H71.2493C71.1925 13.9403 71.0202 14.4126 70.7326 14.8281C70.445 15.2436 70.0597 15.5703 69.5767 15.8082C69.0973 16.0462 68.5344 16.1651 67.8881 16.1651ZM76.3989 16.1651C75.607 16.1651 74.9252 15.9858 74.3534 15.6271C73.7852 15.2649 73.3485 14.766 73.0431 14.1303C72.7377 13.4947 72.585 12.7667 72.585 11.9464C72.585 11.1154 72.7412 10.3821 73.0537 9.74645C73.3662 9.10724 73.8066 8.60831 74.3747 8.24964C74.9429 7.89098 75.6123 7.71165 76.3829 7.71165C77.0044 7.71165 77.5583 7.82706 78.0448 8.05788C78.5313 8.28516 78.9237 8.60476 79.222 9.01669C79.5239 9.42862 79.7032 9.9098 79.76 10.4602H78.21C78.1247 10.0767 77.9294 9.74645 77.624 9.46946C77.3222 9.19247 76.9173 9.05398 76.4095 9.05398C75.9656 9.05398 75.5768 9.17116 75.243 9.40554C74.9127 9.63636 74.6553 9.96662 74.4706 10.3963C74.286 10.8224 74.1936 11.3267 74.1936 11.9091C74.1936 12.5057 74.2842 13.0206 74.4653 13.4538C74.6464 13.8871 74.9021 14.2227 75.2323 14.4606C75.5661 14.6985 75.9585 14.8175 76.4095 14.8175C76.7114 14.8175 76.9848 14.7624 77.2298 14.6523C77.4784 14.5387 77.6862 14.3771 77.8531 14.1676C78.0235 13.9581 78.1425 13.706 78.21 13.4112H79.76C79.7032 13.9403 79.531 14.4126 79.2433 14.8281C78.9557 15.2436 78.5704 15.5703 78.0874 15.8082C77.608 16.0462 77.0452 16.1651 76.3989 16.1651ZM84.9096 16.1651C84.1426 16.1651 83.4732 15.9893 82.9015 15.6378C82.3297 15.2862 81.8858 14.7944 81.5698 14.1623C81.2537 13.5302 81.0957 12.7915 81.0957 11.9464C81.0957 11.0977 81.2537 10.3555 81.5698 9.71982C81.8858 9.08416 82.3297 8.59055 82.9015 8.23899C83.4732 7.88743 84.1426 7.71165 84.9096 7.71165C85.6767 7.71165 86.3461 7.88743 86.9178 8.23899C87.4895 8.59055 87.9334 9.08416 88.2495 9.71982C88.5655 10.3555 88.7235 11.0977 88.7235 11.9464C88.7235 12.7915 88.5655 13.5302 88.2495 14.1623C87.9334 14.7944 87.4895 15.2862 86.9178 15.6378C86.3461 15.9893 85.6767 16.1651 84.9096 16.1651ZM84.915 14.8281C85.4121 14.8281 85.824 14.6967 86.1507 14.4339C86.4775 14.1712 86.7189 13.8214 86.8752 13.3846C87.035 12.9478 87.1149 12.4666 87.1149 11.9411C87.1149 11.419 87.035 10.9396 86.8752 10.5028C86.7189 10.0625 86.4775 9.70916 86.1507 9.44283C85.824 9.17649 85.4121 9.04332 84.915 9.04332C84.4142 9.04332 83.9988 9.17649 83.6685 9.44283C83.3418 9.70916 83.0985 10.0625 82.9387 10.5028C82.7825 10.9396 82.7044 11.419 82.7044 11.9411C82.7044 12.4666 82.7825 12.9478 82.9387 13.3846C83.0985 13.8214 83.3418 14.1712 83.6685 14.4339C83.9988 14.6967 84.4142 14.8281 84.915 14.8281ZM95.6842 12.6069V7.81818H97.2822V16H95.7162V14.5831H95.6309C95.4427 15.0199 95.1409 15.3839 94.7254 15.6751C94.3135 15.9627 93.8003 16.1065 93.186 16.1065C92.6604 16.1065 92.1952 15.9911 91.7904 15.7603C91.3891 15.5259 91.0731 15.1797 90.8422 14.7216C90.615 14.2635 90.5013 13.6971 90.5013 13.0224V7.81818H92.094V12.8306C92.094 13.3881 92.2485 13.832 92.5574 14.1623C92.8664 14.4925 93.2677 14.6577 93.7613 14.6577C94.0596 14.6577 94.3561 14.5831 94.6508 14.4339C94.9491 14.2848 95.1959 14.0593 95.3912 13.7575C95.5901 13.4556 95.6878 13.0721 95.6842 12.6069ZM101.015 11.142V16H99.4222V7.81818H100.951V9.14986H101.052C101.24 8.71662 101.535 8.36861 101.936 8.10582C102.341 7.84304 102.851 7.71165 103.465 7.71165C104.023 7.71165 104.511 7.82884 104.93 8.06321C105.349 8.29403 105.674 8.63849 105.905 9.09659C106.136 9.55469 106.251 10.1211 106.251 10.7958V16H104.658V10.9876C104.658 10.3945 104.504 9.93111 104.195 9.5973C103.886 9.25994 103.462 9.09126 102.922 9.09126C102.553 9.09126 102.224 9.17116 101.936 9.33097C101.652 9.49077 101.427 9.72514 101.26 10.0341C101.097 10.3395 101.015 10.7088 101.015 11.142ZM112.206 7.81818V9.09659H107.737V7.81818H112.206ZM108.936 5.85795H110.528V13.5977C110.528 13.9066 110.575 14.1392 110.667 14.2955C110.759 14.4482 110.878 14.5529 111.024 14.6097C111.173 14.663 111.335 14.6896 111.509 14.6896C111.636 14.6896 111.748 14.6808 111.844 14.663C111.94 14.6452 112.015 14.631 112.068 14.6204L112.355 15.9361C112.263 15.9716 112.132 16.0071 111.961 16.0426C111.791 16.0817 111.578 16.103 111.322 16.1065C110.903 16.1136 110.512 16.0391 110.15 15.8828C109.788 15.7266 109.495 15.4851 109.271 15.1584C109.048 14.8317 108.936 14.4215 108.936 13.9279V5.85795ZM121.597 16H118.066V5.09091H121.709C122.778 5.09091 123.696 5.3093 124.463 5.74609C125.23 6.17933 125.818 6.80256 126.226 7.61577C126.638 8.42543 126.844 9.39666 126.844 10.5295C126.844 11.6658 126.636 12.6424 126.221 13.4592C125.809 14.2759 125.212 14.9045 124.431 15.3448C123.65 15.7816 122.705 16 121.597 16ZM119.712 14.5618H121.507C122.338 14.5618 123.028 14.4055 123.579 14.093C124.129 13.777 124.541 13.3207 124.815 12.7241C125.088 12.1239 125.225 11.3924 125.225 10.5295C125.225 9.67365 125.088 8.94744 124.815 8.35085C124.545 7.75426 124.142 7.30149 123.605 6.99254C123.069 6.68359 122.403 6.52912 121.608 6.52912H119.712V14.5618ZM132.289 16.1651C131.483 16.1651 130.789 15.9929 130.207 15.6484C129.628 15.3004 129.18 14.8121 128.864 14.1836C128.552 13.5515 128.396 12.8111 128.396 11.9624C128.396 11.1243 128.552 10.3857 128.864 9.74645C129.18 9.10724 129.621 8.60831 130.185 8.24964C130.753 7.89098 131.418 7.71165 132.177 7.71165C132.639 7.71165 133.087 7.788 133.52 7.9407C133.953 8.09339 134.342 8.3331 134.686 8.6598C135.031 8.98651 135.302 9.41087 135.501 9.93288C135.7 10.4513 135.8 11.0817 135.8 11.8239V12.3885H129.296V11.1953H134.239C134.239 10.7763 134.154 10.4052 133.983 10.082C133.813 9.75533 133.573 9.49787 133.264 9.30966C132.959 9.12145 132.6 9.02734 132.188 9.02734C131.741 9.02734 131.35 9.13743 131.016 9.3576C130.686 9.57422 130.43 9.85831 130.249 10.2099C130.072 10.5579 129.983 10.9361 129.983 11.3445V12.2766C129.983 12.8235 130.079 13.2887 130.271 13.6722C130.466 14.0558 130.737 14.3487 131.085 14.5511C131.434 14.75 131.84 14.8494 132.305 14.8494C132.607 14.8494 132.882 14.8068 133.131 14.7216C133.38 14.6328 133.594 14.5014 133.775 14.3274C133.957 14.1534 134.095 13.9386 134.191 13.6829L135.698 13.9545C135.578 14.3984 135.361 14.7873 135.049 15.1211C134.74 15.4513 134.351 15.7088 133.882 15.8935C133.417 16.0746 132.886 16.1651 132.289 16.1651ZM141.386 7.81818V9.09659H136.917V7.81818H141.386ZM138.115 5.85795H139.708V13.5977C139.708 13.9066 139.754 14.1392 139.847 14.2955C139.939 14.4482 140.058 14.5529 140.203 14.6097C140.353 14.663 140.514 14.6896 140.688 14.6896C140.816 14.6896 140.928 14.6808 141.024 14.663C141.12 14.6452 141.194 14.631 141.248 14.6204L141.535 15.9361C141.443 15.9716 141.311 16.0071 141.141 16.0426C140.971 16.0817 140.757 16.103 140.502 16.1065C140.083 16.1136 139.692 16.0391 139.33 15.8828C138.968 15.7266 138.675 15.4851 138.451 15.1584C138.227 14.8317 138.115 14.4215 138.115 13.9279V5.85795ZM145.529 16.1811C145.01 16.1811 144.542 16.0852 144.123 15.8935C143.704 15.6982 143.372 15.4158 143.127 15.0465C142.885 14.6772 142.764 14.2244 142.764 13.6882C142.764 13.2266 142.853 12.8466 143.031 12.5483C143.208 12.25 143.448 12.0138 143.75 11.8398C144.052 11.6658 144.389 11.5344 144.762 11.4457C145.135 11.3569 145.515 11.2894 145.902 11.2433C146.392 11.1864 146.79 11.1403 147.095 11.1048C147.4 11.0657 147.622 11.0036 147.761 10.9183C147.899 10.8331 147.968 10.6946 147.968 10.5028V10.4656C147.968 10.0004 147.837 9.63991 147.574 9.38423C147.315 9.12855 146.928 9.00071 146.413 9.00071C145.877 9.00071 145.454 9.11967 145.145 9.3576C144.84 9.59197 144.629 9.85298 144.511 10.1406L143.015 9.79972C143.192 9.30256 143.451 8.90128 143.792 8.59588C144.137 8.28693 144.533 8.06321 144.98 7.92472C145.428 7.78267 145.898 7.71165 146.392 7.71165C146.718 7.71165 147.065 7.75071 147.43 7.82884C147.8 7.90341 148.144 8.0419 148.464 8.24432C148.787 8.44673 149.052 8.73615 149.258 9.11257C149.464 9.48544 149.566 9.97017 149.566 10.5668V16H148.011V14.8814H147.947C147.844 15.0874 147.69 15.2898 147.484 15.4886C147.278 15.6875 147.013 15.8526 146.69 15.984C146.367 16.1154 145.98 16.1811 145.529 16.1811ZM145.875 14.9027C146.315 14.9027 146.692 14.8157 147.004 14.6417C147.32 14.4677 147.56 14.2404 147.723 13.9599C147.89 13.6758 147.974 13.3722 147.974 13.049V11.9943C147.917 12.0511 147.807 12.1044 147.644 12.1541C147.484 12.2003 147.301 12.2411 147.095 12.2766C146.889 12.3086 146.688 12.3388 146.493 12.3672C146.298 12.392 146.134 12.4134 146.003 12.4311C145.694 12.4702 145.412 12.5359 145.156 12.6282C144.904 12.7205 144.701 12.8537 144.549 13.0277C144.4 13.1982 144.325 13.4254 144.325 13.7095C144.325 14.1037 144.471 14.402 144.762 14.6044C145.053 14.8033 145.424 14.9027 145.875 14.9027ZM151.688 16V7.81818H153.281V16H151.688ZM152.492 6.55575C152.215 6.55575 151.977 6.46342 151.778 6.27876C151.583 6.09055 151.485 5.86683 151.485 5.6076C151.485 5.34482 151.583 5.12109 151.778 4.93643C151.977 4.74822 152.215 4.65412 152.492 4.65412C152.769 4.65412 153.005 4.74822 153.201 4.93643C153.4 5.12109 153.499 5.34482 153.499 5.6076C153.499 5.86683 153.4 6.09055 153.201 6.27876C153.005 6.46342 152.769 6.55575 152.492 6.55575ZM157.016 5.09091V16H155.423V5.09091H157.016ZM165.29 9.8157L163.846 10.0714C163.786 9.88672 163.69 9.71094 163.558 9.54403C163.431 9.37713 163.257 9.24041 163.036 9.13388C162.816 9.02734 162.541 8.97408 162.211 8.97408C161.76 8.97408 161.383 9.07528 161.081 9.2777C160.78 9.47656 160.629 9.73402 160.629 10.0501C160.629 10.3235 160.73 10.5437 160.932 10.7106C161.135 10.8775 161.461 11.0142 161.912 11.1207L163.212 11.419C163.965 11.593 164.526 11.8612 164.895 12.2234C165.265 12.5856 165.449 13.0561 165.449 13.6349C165.449 14.125 165.307 14.5618 165.023 14.9453C164.743 15.3253 164.35 15.6236 163.846 15.8402C163.345 16.0568 162.765 16.1651 162.104 16.1651C161.188 16.1651 160.441 15.9698 159.862 15.5792C159.283 15.185 158.928 14.6257 158.796 13.9013L160.336 13.6669C160.432 14.0682 160.629 14.3718 160.927 14.5778C161.225 14.7802 161.614 14.8814 162.094 14.8814C162.616 14.8814 163.033 14.7731 163.345 14.5565C163.658 14.3363 163.814 14.0682 163.814 13.7521C163.814 13.4964 163.718 13.2816 163.526 13.1076C163.338 12.9336 163.049 12.8022 162.658 12.7134L161.273 12.4098C160.51 12.2358 159.945 11.9588 159.579 11.5788C159.217 11.1989 159.036 10.7177 159.036 10.1353C159.036 9.65234 159.171 9.22976 159.441 8.86754C159.711 8.50533 160.084 8.22301 160.559 8.0206C161.035 7.81463 161.58 7.71165 162.195 7.71165C163.079 7.71165 163.775 7.90341 164.283 8.28693C164.791 8.6669 165.126 9.17649 165.29 9.8157Z" fill="#2E263D" fill-opacity="0.9"/>
</g>
<rect x="9" y="30" width="3" height="40" rx="1.5" fill="#8C57FF"/>
<g clip-path="url(#clip1_8003_3033)">
<circle cx="10" cy="89" r="10" fill="#8C57FF"/>
<circle cx="10" cy="89" r="5" fill="white"/>
<path d="M32.8473 94.1811C32.0057 94.1776 31.2866 93.9556 30.69 93.5153C30.0934 93.0749 29.6371 92.4339 29.321 91.5923C29.005 90.7507 28.8469 89.7369 28.8469 88.5508C28.8469 87.3683 29.005 86.358 29.321 85.5199C29.6406 84.6818 30.0987 84.0426 30.6953 83.6023C31.2955 83.1619 32.0128 82.9418 32.8473 82.9418C33.6818 82.9418 34.3974 83.1637 34.994 83.6076C35.5906 84.0479 36.0469 84.6871 36.3629 85.5252C36.6825 86.3597 36.8423 87.3683 36.8423 88.5508C36.8423 89.7404 36.6843 90.756 36.3683 91.5977C36.0522 92.4357 35.5959 93.0767 34.9993 93.5206C34.4027 93.9609 33.6854 94.1811 32.8473 94.1811ZM32.8473 92.7589C33.5859 92.7589 34.163 92.3984 34.5785 91.6776C34.9975 90.9567 35.207 89.9144 35.207 88.5508C35.207 87.6452 35.1112 86.88 34.9194 86.255C34.7312 85.6264 34.4595 85.1506 34.1044 84.8274C33.7528 84.5007 33.3338 84.3374 32.8473 84.3374C32.1122 84.3374 31.5352 84.6996 31.1161 85.424C30.6971 86.1484 30.4858 87.1907 30.4822 88.5508C30.4822 89.4599 30.5763 90.2287 30.7646 90.8572C30.9563 91.4822 31.228 91.9563 31.5795 92.2795C31.9311 92.5991 32.3537 92.7589 32.8473 92.7589ZM38.732 94V92.8068L42.4234 88.9822C42.8176 88.5668 43.1425 88.2028 43.3982 87.8903C43.6574 87.5742 43.8509 87.2741 43.9788 86.9901C44.1066 86.706 44.1705 86.4041 44.1705 86.0845C44.1705 85.7223 44.0853 85.4098 43.9149 85.147C43.7444 84.8807 43.5118 84.6765 43.2171 84.5344C42.9223 84.3888 42.5903 84.3161 42.221 84.3161C41.8303 84.3161 41.4894 84.396 41.1982 84.5558C40.907 84.7156 40.6833 84.9411 40.5271 85.2322C40.3708 85.5234 40.2927 85.8643 40.2927 86.255H38.7213C38.7213 85.5909 38.874 85.0103 39.1794 84.5131C39.4848 84.016 39.9039 83.6307 40.4365 83.3572C40.9692 83.0803 41.5747 82.9418 42.2529 82.9418C42.9383 82.9418 43.542 83.0785 44.064 83.3519C44.5896 83.6218 44.9997 83.9911 45.2945 84.4599C45.5892 84.9251 45.7366 85.4506 45.7366 86.0366C45.7366 86.4414 45.6602 86.8374 45.5075 87.2244C45.3584 87.6115 45.0974 88.043 44.7245 88.5188C44.3517 88.9911 43.8332 89.5646 43.1691 90.2393L41.0012 92.5085V92.5884H45.9124V94H38.732Z" fill="#2E263D" fill-opacity="0.9"/>
<path d="M56.1985 94V83.0909H60.087C60.9357 83.0909 61.6388 83.2454 62.1964 83.5543C62.7539 83.8633 63.1712 84.2859 63.4482 84.8221C63.7251 85.3548 63.8636 85.9549 63.8636 86.6225C63.8636 87.2937 63.7234 87.8974 63.4428 88.4336C63.1658 88.9663 62.7468 89.3888 62.1857 89.7013C61.6282 90.0103 60.9268 90.1648 60.0817 90.1648H57.4077V88.7692H59.9325C60.4688 88.7692 60.9038 88.6768 61.2376 88.4922C61.5714 88.304 61.8164 88.0483 61.9727 87.7251C62.1289 87.402 62.207 87.0344 62.207 86.6225C62.207 86.2106 62.1289 85.8448 61.9727 85.5252C61.8164 85.2056 61.5696 84.9553 61.2322 84.7741C60.8984 84.593 60.4581 84.5025 59.9112 84.5025H57.8445V94H56.1985ZM69.0891 94.1651C68.283 94.1651 67.5888 93.9929 67.0064 93.6484C66.4276 93.3004 65.9801 92.8121 65.6641 92.1836C65.3516 91.5515 65.1953 90.8111 65.1953 89.9624C65.1953 89.1243 65.3516 88.3857 65.6641 87.7464C65.9801 87.1072 66.4205 86.6083 66.9851 86.2496C67.5533 85.891 68.2173 85.7116 68.9773 85.7116C69.4389 85.7116 69.8864 85.788 70.3196 85.9407C70.7528 86.0934 71.1417 86.3331 71.4862 86.6598C71.8306 86.9865 72.1023 87.4109 72.3011 87.9329C72.5 88.4513 72.5994 89.0817 72.5994 89.8239V90.3885H66.0955V89.1953H71.0387C71.0387 88.7763 70.9535 88.4052 70.783 88.082C70.6126 87.7553 70.3729 87.4979 70.0639 87.3097C69.7585 87.1214 69.3999 87.0273 68.9879 87.0273C68.5405 87.0273 68.1499 87.1374 67.8161 87.3576C67.4858 87.5742 67.2301 87.8583 67.049 88.2099C66.8714 88.5579 66.7827 88.9361 66.7827 89.3445V90.2766C66.7827 90.8235 66.8786 91.2887 67.0703 91.6722C67.2656 92.0558 67.5373 92.3487 67.8853 92.5511C68.2333 92.75 68.6399 92.8494 69.1051 92.8494C69.407 92.8494 69.6822 92.8068 69.9308 92.7216C70.1793 92.6328 70.3942 92.5014 70.5753 92.3274C70.7564 92.1534 70.8949 91.9386 70.9908 91.6829L72.4982 91.9545C72.3775 92.3984 72.1609 92.7873 71.8484 93.1211C71.5394 93.4513 71.1506 93.7088 70.6818 93.8935C70.2166 94.0746 69.6857 94.1651 69.0891 94.1651ZM74.3666 94V85.8182H75.906V87.1179H75.9912C76.1404 86.6776 76.4031 86.3313 76.7796 86.0792C77.1595 85.8235 77.5892 85.6957 78.0686 85.6957C78.1681 85.6957 78.2852 85.6992 78.4202 85.7063C78.5587 85.7134 78.667 85.7223 78.7451 85.733V87.2564C78.6812 87.2386 78.5676 87.2191 78.4042 87.1978C78.2409 87.1729 78.0775 87.1605 77.9142 87.1605C77.5377 87.1605 77.2021 87.2404 76.9074 87.4002C76.6162 87.5565 76.3854 87.7749 76.2149 88.0554C76.0445 88.3324 75.9593 88.6484 75.9593 89.0036V94H74.3666ZM86.2544 87.8157L84.8109 88.0714C84.7505 87.8867 84.6547 87.7109 84.5233 87.544C84.3954 87.3771 84.2214 87.2404 84.0012 87.1339C83.7811 87.0273 83.5059 86.9741 83.1756 86.9741C82.7246 86.9741 82.3482 87.0753 82.0463 87.2777C81.7445 87.4766 81.5936 87.734 81.5936 88.0501C81.5936 88.3235 81.6948 88.5437 81.8972 88.7106C82.0996 88.8775 82.4263 89.0142 82.8773 89.1207L84.177 89.419C84.9299 89.593 85.4909 89.8612 85.8603 90.2234C86.2296 90.5856 86.4142 91.0561 86.4142 91.6349C86.4142 92.125 86.2722 92.5618 85.9881 92.9453C85.7076 93.3253 85.3152 93.6236 84.8109 93.8402C84.3102 94.0568 83.7296 94.1651 83.0691 94.1651C82.1529 94.1651 81.4054 93.9698 80.8265 93.5792C80.2477 93.185 79.8926 92.6257 79.7612 91.9013L81.3006 91.6669C81.3965 92.0682 81.5936 92.3718 81.8919 92.5778C82.1902 92.7802 82.579 92.8814 83.0584 92.8814C83.5804 92.8814 83.9977 92.7731 84.3102 92.5565C84.6227 92.3363 84.7789 92.0682 84.7789 91.7521C84.7789 91.4964 84.6831 91.2816 84.4913 91.1076C84.3031 90.9336 84.0137 90.8022 83.623 90.7134L82.2381 90.4098C81.4746 90.2358 80.91 89.9588 80.5442 89.5788C80.182 89.1989 80.0009 88.7177 80.0009 88.1353C80.0009 87.6523 80.1358 87.2298 80.4057 86.8675C80.6756 86.5053 81.0485 86.223 81.5243 86.0206C82.0002 85.8146 82.5453 85.7116 83.1596 85.7116C84.0439 85.7116 84.7399 85.9034 85.2477 86.2869C85.7555 86.6669 86.0911 87.1765 86.2544 87.8157ZM91.6118 94.1651C90.8447 94.1651 90.1753 93.9893 89.6036 93.6378C89.0319 93.2862 88.588 92.7944 88.2719 92.1623C87.9559 91.5302 87.7979 90.7915 87.7979 89.9464C87.7979 89.0977 87.9559 88.3555 88.2719 87.7198C88.588 87.0842 89.0319 86.5906 89.6036 86.239C90.1753 85.8874 90.8447 85.7116 91.6118 85.7116C92.3788 85.7116 93.0482 85.8874 93.6199 86.239C94.1917 86.5906 94.6356 87.0842 94.9516 87.7198C95.2677 88.3555 95.4257 89.0977 95.4257 89.9464C95.4257 90.7915 95.2677 91.5302 94.9516 92.1623C94.6356 92.7944 94.1917 93.2862 93.6199 93.6378C93.0482 93.9893 92.3788 94.1651 91.6118 94.1651ZM91.6171 92.8281C92.1143 92.8281 92.5262 92.6967 92.8529 92.4339C93.1796 92.1712 93.4211 91.8214 93.5773 91.3846C93.7371 90.9478 93.817 90.4666 93.817 89.9411C93.817 89.419 93.7371 88.9396 93.5773 88.5028C93.4211 88.0625 93.1796 87.7092 92.8529 87.4428C92.5262 87.1765 92.1143 87.0433 91.6171 87.0433C91.1164 87.0433 90.7009 87.1765 90.3706 87.4428C90.0439 87.7092 89.8007 88.0625 89.6409 88.5028C89.4846 88.9396 89.4065 89.419 89.4065 89.9411C89.4065 90.4666 89.4846 90.9478 89.6409 91.3846C89.8007 91.8214 90.0439 92.1712 90.3706 92.4339C90.7009 92.6967 91.1164 92.8281 91.6171 92.8281ZM98.7962 89.142V94H97.2035V85.8182H98.7322V87.1499H98.8335C99.0217 86.7166 99.3164 86.3686 99.7177 86.1058C100.123 85.843 100.632 85.7116 101.246 85.7116C101.804 85.7116 102.292 85.8288 102.711 86.0632C103.13 86.294 103.455 86.6385 103.686 87.0966C103.917 87.5547 104.032 88.1211 104.032 88.7958V94H102.44V88.9876C102.44 88.3945 102.285 87.9311 101.976 87.5973C101.667 87.2599 101.243 87.0913 100.703 87.0913C100.334 87.0913 100.005 87.1712 99.7177 87.331C99.4336 87.4908 99.2081 87.7251 99.0412 88.0341C98.8778 88.3395 98.7962 88.7088 98.7962 89.142ZM108.549 94.1811C108.031 94.1811 107.562 94.0852 107.143 93.8935C106.724 93.6982 106.392 93.4158 106.147 93.0465C105.906 92.6772 105.785 92.2244 105.785 91.6882C105.785 91.2266 105.874 90.8466 106.051 90.5483C106.229 90.25 106.468 90.0138 106.77 89.8398C107.072 89.6658 107.409 89.5344 107.782 89.4457C108.155 89.3569 108.535 89.2894 108.922 89.2433C109.412 89.1864 109.81 89.1403 110.115 89.1048C110.421 89.0657 110.643 89.0036 110.781 88.9183C110.92 88.8331 110.989 88.6946 110.989 88.5028V88.4656C110.989 88.0004 110.858 87.6399 110.595 87.3842C110.336 87.1286 109.949 87.0007 109.434 87.0007C108.897 87.0007 108.475 87.1197 108.166 87.3576C107.86 87.592 107.649 87.853 107.532 88.1406L106.035 87.7997C106.213 87.3026 106.472 86.9013 106.813 86.5959C107.157 86.2869 107.553 86.0632 108.001 85.9247C108.448 85.7827 108.919 85.7116 109.412 85.7116C109.739 85.7116 110.085 85.7507 110.451 85.8288C110.82 85.9034 111.165 86.0419 111.484 86.2443C111.808 86.4467 112.072 86.7362 112.278 87.1126C112.484 87.4854 112.587 87.9702 112.587 88.5668V94H111.032V92.8814H110.968C110.865 93.0874 110.71 93.2898 110.504 93.4886C110.298 93.6875 110.034 93.8526 109.711 93.984C109.387 94.1154 109 94.1811 108.549 94.1811ZM108.896 92.9027C109.336 92.9027 109.712 92.8157 110.025 92.6417C110.341 92.4677 110.581 92.2404 110.744 91.9599C110.911 91.6758 110.994 91.3722 110.994 91.049V89.9943C110.938 90.0511 110.827 90.1044 110.664 90.1541C110.504 90.2003 110.321 90.2411 110.115 90.2766C109.909 90.3086 109.709 90.3388 109.513 90.3672C109.318 90.392 109.155 90.4134 109.023 90.4311C108.714 90.4702 108.432 90.5359 108.176 90.6282C107.924 90.7205 107.722 90.8537 107.569 91.0277C107.42 91.1982 107.346 91.4254 107.346 91.7095C107.346 92.1037 107.491 92.402 107.782 92.6044C108.074 92.8033 108.445 92.9027 108.896 92.9027ZM116.301 83.0909V94H114.708V83.0909H116.301ZM124.187 83.0909V94H122.541V83.0909H124.187ZM128.049 89.142V94H126.456V85.8182H127.985V87.1499H128.086C128.275 86.7166 128.569 86.3686 128.971 86.1058C129.375 85.843 129.885 85.7116 130.499 85.7116C131.057 85.7116 131.545 85.8288 131.964 86.0632C132.383 86.294 132.708 86.6385 132.939 87.0966C133.17 87.5547 133.285 88.1211 133.285 88.7958V94H131.693V88.9876C131.693 88.3945 131.538 87.9311 131.229 87.5973C130.92 87.2599 130.496 87.0913 129.956 87.0913C129.587 87.0913 129.258 87.1712 128.971 87.331C128.687 87.4908 128.461 87.7251 128.294 88.0341C128.131 88.3395 128.049 88.7088 128.049 89.142ZM139.315 85.8182V87.0966H134.691V85.8182H139.315ZM135.959 94V84.87C135.959 84.3587 136.071 83.9343 136.295 83.5969C136.519 83.256 136.815 83.0021 137.184 82.8352C137.554 82.6648 137.955 82.5795 138.388 82.5795C138.708 82.5795 138.981 82.6062 139.209 82.6594C139.436 82.7092 139.604 82.7553 139.715 82.7979L139.342 84.087C139.267 84.0657 139.171 84.0408 139.054 84.0124C138.937 83.9805 138.795 83.9645 138.628 83.9645C138.241 83.9645 137.964 84.0604 137.797 84.2521C137.634 84.4439 137.552 84.7209 137.552 85.0831V94H135.959ZM144.082 94.1651C143.315 94.1651 142.646 93.9893 142.074 93.6378C141.503 93.2862 141.059 92.7944 140.743 92.1623C140.427 91.5302 140.269 90.7915 140.269 89.9464C140.269 89.0977 140.427 88.3555 140.743 87.7198C141.059 87.0842 141.503 86.5906 142.074 86.239C142.646 85.8874 143.315 85.7116 144.082 85.7116C144.85 85.7116 145.519 85.8874 146.091 86.239C146.662 86.5906 147.106 87.0842 147.422 87.7198C147.738 88.3555 147.896 89.0977 147.896 89.9464C147.896 90.7915 147.738 91.5302 147.422 92.1623C147.106 92.7944 146.662 93.2862 146.091 93.6378C145.519 93.9893 144.85 94.1651 144.082 94.1651ZM144.088 92.8281C144.585 92.8281 144.997 92.6967 145.324 92.4339C145.65 92.1712 145.892 91.8214 146.048 91.3846C146.208 90.9478 146.288 90.4666 146.288 89.9411C146.288 89.419 146.208 88.9396 146.048 88.5028C145.892 88.0625 145.65 87.7092 145.324 87.4428C144.997 87.1765 144.585 87.0433 144.088 87.0433C143.587 87.0433 143.172 87.1765 142.841 87.4428C142.515 87.7092 142.271 88.0625 142.112 88.5028C141.955 88.9396 141.877 89.419 141.877 89.9411C141.877 90.4666 141.955 90.9478 142.112 91.3846C142.271 91.8214 142.515 92.1712 142.841 92.4339C143.172 92.6967 143.587 92.8281 144.088 92.8281Z" fill="#2E263D" fill-opacity="0.9"/>
</g>
<rect x="8" y="108" width="3" height="40" rx="1.5" fill="#8C57FF" fill-opacity="0.16"/>
<g clip-path="url(#clip2_8003_3033)">
<circle cx="10" cy="167" r="10" fill="#8C57FF" fill-opacity="0.16"/>
<circle cx="10" cy="167" r="7" fill="white"/>
<path d="M32.8473 172.181C32.0057 172.178 31.2866 171.956 30.69 171.515C30.0934 171.075 29.6371 170.434 29.321 169.592C29.005 168.751 28.8469 167.737 28.8469 166.551C28.8469 165.368 29.005 164.358 29.321 163.52C29.6406 162.682 30.0987 162.043 30.6953 161.602C31.2955 161.162 32.0128 160.942 32.8473 160.942C33.6818 160.942 34.3974 161.164 34.994 161.608C35.5906 162.048 36.0469 162.687 36.3629 163.525C36.6825 164.36 36.8423 165.368 36.8423 166.551C36.8423 167.74 36.6843 168.756 36.3683 169.598C36.0522 170.436 35.5959 171.077 34.9993 171.521C34.4027 171.961 33.6854 172.181 32.8473 172.181ZM32.8473 170.759C33.5859 170.759 34.163 170.398 34.5785 169.678C34.9975 168.957 35.207 167.914 35.207 166.551C35.207 165.645 35.1112 164.88 34.9194 164.255C34.7312 163.626 34.4595 163.151 34.1044 162.827C33.7528 162.501 33.3338 162.337 32.8473 162.337C32.1122 162.337 31.5352 162.7 31.1161 163.424C30.6971 164.148 30.4858 165.191 30.4822 166.551C30.4822 167.46 30.5763 168.229 30.7646 168.857C30.9563 169.482 31.228 169.956 31.5795 170.279C31.9311 170.599 32.3537 170.759 32.8473 170.759ZM42.5299 172.149C41.7984 172.149 41.145 172.023 40.5697 171.771C39.998 171.519 39.5452 171.169 39.2114 170.722C38.8811 170.271 38.7036 169.749 38.6787 169.156H40.3513C40.3726 169.479 40.4809 169.759 40.6762 169.997C40.8751 170.232 41.1343 170.413 41.4539 170.54C41.7735 170.668 42.1286 170.732 42.5193 170.732C42.949 170.732 43.3289 170.658 43.6592 170.509C43.993 170.359 44.254 170.152 44.4422 169.885C44.6304 169.615 44.7245 169.305 44.7245 168.953C44.7245 168.587 44.6304 168.266 44.4422 167.989C44.2575 167.708 43.9859 167.488 43.6272 167.328C43.2721 167.169 42.8424 167.089 42.3382 167.089H41.4166V165.746H42.3382C42.743 165.746 43.0981 165.674 43.4035 165.528C43.7124 165.382 43.9539 165.18 44.1279 164.921C44.3019 164.658 44.3889 164.351 44.3889 163.999C44.3889 163.662 44.3126 163.369 44.1599 163.12C44.0107 162.868 43.7977 162.671 43.5207 162.529C43.2472 162.387 42.9241 162.316 42.5512 162.316C42.1961 162.316 41.8641 162.382 41.5551 162.513C41.2497 162.641 41.0012 162.826 40.8094 163.067C40.6176 163.305 40.5146 163.591 40.5004 163.925H38.9078C38.9255 163.335 39.0995 162.817 39.4298 162.369C39.7636 161.922 40.2039 161.572 40.7508 161.32C41.2977 161.068 41.9049 160.942 42.5725 160.942C43.2721 160.942 43.8758 161.078 44.3836 161.352C44.895 161.622 45.2892 161.982 45.5661 162.433C45.8467 162.884 45.9852 163.378 45.9816 163.914C45.9852 164.525 45.8147 165.043 45.4703 165.469C45.1294 165.896 44.6748 166.181 44.1066 166.327V166.412C44.8311 166.522 45.3921 166.81 45.7899 167.275C46.1911 167.74 46.39 168.317 46.3865 169.006C46.39 169.607 46.2231 170.145 45.8857 170.62C45.5519 171.096 45.0956 171.471 44.5168 171.744C43.9379 172.014 43.2757 172.149 42.5299 172.149Z" fill="#2E263D" fill-opacity="0.4"/>
<path d="M63.1484 163.957C63.0916 163.452 62.8572 163.062 62.4453 162.785C62.0334 162.504 61.5149 162.364 60.8899 162.364C60.4425 162.364 60.0554 162.435 59.7287 162.577C59.402 162.716 59.1481 162.907 58.967 163.152C58.7894 163.394 58.7006 163.669 58.7006 163.978C58.7006 164.237 58.761 164.461 58.8817 164.649C59.006 164.837 59.1676 164.995 59.3665 165.123C59.5689 165.248 59.7855 165.352 60.0163 165.438C60.2472 165.519 60.4691 165.587 60.6822 165.64L61.7475 165.917C62.0955 166.002 62.4524 166.118 62.8182 166.263C63.1839 166.409 63.5231 166.6 63.8356 166.838C64.1481 167.076 64.4002 167.371 64.592 167.723C64.7873 168.074 64.8849 168.495 64.8849 168.985C64.8849 169.603 64.7251 170.152 64.4055 170.631C64.0895 171.11 63.6296 171.489 63.0259 171.766C62.4258 172.043 61.6996 172.181 60.8473 172.181C60.0305 172.181 59.3239 172.051 58.7273 171.792C58.1307 171.533 57.6637 171.165 57.3263 170.69C56.989 170.21 56.8026 169.642 56.767 168.985H58.4183C58.4503 169.379 58.5781 169.708 58.8018 169.971C59.0291 170.23 59.3185 170.423 59.6701 170.551C60.0252 170.675 60.4141 170.738 60.8366 170.738C61.3018 170.738 61.7156 170.665 62.0778 170.519C62.4435 170.37 62.7312 170.164 62.9407 169.901C63.1502 169.635 63.255 169.324 63.255 168.969C63.255 168.646 63.1626 168.381 62.978 168.175C62.7969 167.969 62.5501 167.799 62.2376 167.664C61.9286 167.529 61.5788 167.41 61.1882 167.307L59.8991 166.956C59.0256 166.718 58.3331 166.368 57.8217 165.906C57.3139 165.445 57.06 164.834 57.06 164.074C57.06 163.445 57.2305 162.897 57.5714 162.428C57.9123 161.959 58.3739 161.595 58.9563 161.336C59.5387 161.073 60.1957 160.942 60.9272 160.942C61.6658 160.942 62.3175 161.071 62.8821 161.331C63.4503 161.59 63.8977 161.947 64.2244 162.401C64.5511 162.852 64.7216 163.371 64.7358 163.957H63.1484ZM70.1704 172.165C69.4033 172.165 68.7339 171.989 68.1622 171.638C67.5905 171.286 67.1466 170.794 66.8305 170.162C66.5145 169.53 66.3564 168.792 66.3564 167.946C66.3564 167.098 66.5145 166.355 66.8305 165.72C67.1466 165.084 67.5905 164.591 68.1622 164.239C68.7339 163.887 69.4033 163.712 70.1704 163.712C70.9374 163.712 71.6068 163.887 72.1785 164.239C72.7503 164.591 73.1942 165.084 73.5102 165.72C73.8263 166.355 73.9843 167.098 73.9843 167.946C73.9843 168.792 73.8263 169.53 73.5102 170.162C73.1942 170.794 72.7503 171.286 72.1785 171.638C71.6068 171.989 70.9374 172.165 70.1704 172.165ZM70.1757 170.828C70.6729 170.828 71.0848 170.697 71.4115 170.434C71.7382 170.171 71.9797 169.821 72.1359 169.385C72.2957 168.948 72.3756 168.467 72.3756 167.941C72.3756 167.419 72.2957 166.94 72.1359 166.503C71.9797 166.062 71.7382 165.709 71.4115 165.443C71.0848 165.176 70.6729 165.043 70.1757 165.043C69.675 165.043 69.2595 165.176 68.9292 165.443C68.6025 165.709 68.3593 166.062 68.1995 166.503C68.0432 166.94 67.9651 167.419 67.9651 167.941C67.9651 168.467 68.0432 168.948 68.1995 169.385C68.3593 169.821 68.6025 170.171 68.9292 170.434C69.2595 170.697 69.675 170.828 70.1757 170.828ZM79.2085 172.165C78.4165 172.165 77.7347 171.986 77.163 171.627C76.5948 171.265 76.158 170.766 75.8526 170.13C75.5472 169.495 75.3945 168.767 75.3945 167.946C75.3945 167.115 75.5508 166.382 75.8633 165.746C76.1758 165.107 76.6161 164.608 77.1843 164.25C77.7525 163.891 78.4219 163.712 79.1925 163.712C79.8139 163.712 80.3679 163.827 80.8544 164.058C81.3409 164.285 81.7333 164.605 82.0316 165.017C82.3335 165.429 82.5128 165.91 82.5696 166.46H81.0195C80.9343 166.077 80.739 165.746 80.4336 165.469C80.1317 165.192 79.7269 165.054 79.2191 165.054C78.7752 165.054 78.3864 165.171 78.0526 165.406C77.7223 165.636 77.4648 165.967 77.2802 166.396C77.0955 166.822 77.0032 167.327 77.0032 167.909C77.0032 168.506 77.0938 169.021 77.2749 169.454C77.456 169.887 77.7116 170.223 78.0419 170.461C78.3757 170.699 78.7681 170.817 79.2191 170.817C79.521 170.817 79.7944 170.762 80.0394 170.652C80.288 170.539 80.4957 170.377 80.6626 170.168C80.8331 169.958 80.9521 169.706 81.0195 169.411H82.5696C82.5128 169.94 82.3406 170.413 82.0529 170.828C81.7653 171.244 81.38 171.57 80.897 171.808C80.4176 172.046 79.8548 172.165 79.2085 172.165ZM84.2728 172V163.818H85.8655V172H84.2728ZM85.0771 162.556C84.8002 162.556 84.5622 162.463 84.3634 162.279C84.1681 162.091 84.0704 161.867 84.0704 161.608C84.0704 161.345 84.1681 161.121 84.3634 160.936C84.5622 160.748 84.8002 160.654 85.0771 160.654C85.3541 160.654 85.5903 160.748 85.7856 160.936C85.9845 161.121 86.0839 161.345 86.0839 161.608C86.0839 161.867 85.9845 162.091 85.7856 162.279C85.5903 162.463 85.3541 162.556 85.0771 162.556ZM90.3892 172.181C89.8707 172.181 89.402 172.085 88.983 171.893C88.5639 171.698 88.2319 171.416 87.9869 171.047C87.7454 170.677 87.6246 170.224 87.6246 169.688C87.6246 169.227 87.7134 168.847 87.891 168.548C88.0685 168.25 88.3082 168.014 88.6101 167.84C88.9119 167.666 89.2493 167.534 89.6222 167.446C89.995 167.357 90.375 167.289 90.7621 167.243C91.2521 167.186 91.6499 167.14 91.9553 167.105C92.2607 167.066 92.4826 167.004 92.6211 166.918C92.7596 166.833 92.8288 166.695 92.8288 166.503V166.466C92.8288 166 92.6974 165.64 92.4347 165.384C92.1754 165.129 91.7884 165.001 91.2734 165.001C90.7372 165.001 90.3146 165.12 90.0057 165.358C89.7003 165.592 89.489 165.853 89.3718 166.141L87.875 165.8C88.0526 165.303 88.3118 164.901 88.6527 164.596C88.9972 164.287 89.3931 164.063 89.8406 163.925C90.288 163.783 90.7585 163.712 91.2521 163.712C91.5788 163.712 91.9251 163.751 92.2908 163.829C92.6602 163.903 93.0046 164.042 93.3242 164.244C93.6474 164.447 93.9119 164.736 94.1179 165.113C94.3239 165.485 94.4268 165.97 94.4268 166.567V172H92.8714V170.881H92.8075C92.7045 171.087 92.5501 171.29 92.3441 171.489C92.1381 171.687 91.8736 171.853 91.5504 171.984C91.2273 172.115 90.8402 172.181 90.3892 172.181ZM90.7354 170.903C91.1758 170.903 91.5522 170.816 91.8647 170.642C92.1808 170.468 92.4205 170.24 92.5838 169.96C92.7507 169.676 92.8342 169.372 92.8342 169.049V167.994C92.7773 168.051 92.6673 168.104 92.5039 168.154C92.3441 168.2 92.1612 168.241 91.9553 168.277C91.7493 168.309 91.5487 168.339 91.3533 168.367C91.158 168.392 90.9947 168.413 90.8633 168.431C90.5543 168.47 90.272 168.536 90.0163 168.628C89.7642 168.721 89.5618 168.854 89.4091 169.028C89.2599 169.198 89.1854 169.425 89.1854 169.71C89.1854 170.104 89.331 170.402 89.6222 170.604C89.9134 170.803 90.2844 170.903 90.7354 170.903ZM98.1409 161.091V172H96.5482V161.091H98.1409ZM104.381 172V161.091H106.027V170.583H110.97V172H104.381ZM112.72 172V163.818H114.313V172H112.72ZM113.524 162.556C113.247 162.556 113.009 162.463 112.811 162.279C112.615 162.091 112.518 161.867 112.518 161.608C112.518 161.345 112.615 161.121 112.811 160.936C113.009 160.748 113.247 160.654 113.524 160.654C113.801 160.654 114.038 160.748 114.233 160.936C114.432 161.121 114.531 161.345 114.531 161.608C114.531 161.867 114.432 162.091 114.233 162.279C114.038 162.463 113.801 162.556 113.524 162.556ZM118.048 167.142V172H116.455V163.818H117.984V165.15H118.085C118.274 164.717 118.568 164.369 118.97 164.106C119.374 163.843 119.884 163.712 120.498 163.712C121.056 163.712 121.544 163.829 121.963 164.063C122.382 164.294 122.707 164.638 122.938 165.097C123.169 165.555 123.284 166.121 123.284 166.796V172H121.692V166.988C121.692 166.395 121.537 165.931 121.228 165.597C120.919 165.26 120.495 165.091 119.955 165.091C119.586 165.091 119.257 165.171 118.97 165.331C118.686 165.491 118.46 165.725 118.293 166.034C118.13 166.339 118.048 166.709 118.048 167.142ZM126.885 169.225L126.874 167.281H127.151L130.411 163.818H132.318L128.6 167.76H128.35L126.885 169.225ZM125.42 172V161.091H127.013V172H125.42ZM130.587 172L127.657 168.112L128.755 166.998L132.542 172H130.587ZM139.901 165.816L138.457 166.071C138.397 165.887 138.301 165.711 138.17 165.544C138.042 165.377 137.868 165.24 137.648 165.134C137.428 165.027 137.152 164.974 136.822 164.974C136.371 164.974 135.995 165.075 135.693 165.278C135.391 165.477 135.24 165.734 135.24 166.05C135.24 166.324 135.341 166.544 135.544 166.711C135.746 166.877 136.073 167.014 136.524 167.121L137.824 167.419C138.576 167.593 139.137 167.861 139.507 168.223C139.876 168.586 140.061 169.056 140.061 169.635C140.061 170.125 139.919 170.562 139.635 170.945C139.354 171.325 138.962 171.624 138.457 171.84C137.957 172.057 137.376 172.165 136.716 172.165C135.799 172.165 135.052 171.97 134.473 171.579C133.894 171.185 133.539 170.626 133.408 169.901L134.947 169.667C135.043 170.068 135.24 170.372 135.538 170.578C135.837 170.78 136.225 170.881 136.705 170.881C137.227 170.881 137.644 170.773 137.957 170.556C138.269 170.336 138.425 170.068 138.425 169.752C138.425 169.496 138.33 169.282 138.138 169.108C137.95 168.934 137.66 168.802 137.27 168.713L135.885 168.41C135.121 168.236 134.556 167.959 134.191 167.579C133.828 167.199 133.647 166.718 133.647 166.135C133.647 165.652 133.782 165.23 134.052 164.868C134.322 164.505 134.695 164.223 135.171 164.021C135.647 163.815 136.192 163.712 136.806 163.712C137.69 163.712 138.386 163.903 138.894 164.287C139.402 164.667 139.738 165.176 139.901 165.816Z" fill="#2E263D" fill-opacity="0.9"/>
</g>
<defs>
<clipPath id="clip0_8003_3033">
<rect width="167" height="22" fill="white"/>
</clipPath>
<clipPath id="clip1_8003_3033">
<rect width="149" height="22" fill="white" transform="translate(0 78)"/>
</clipPath>
<clipPath id="clip2_8003_3033">
<rect width="141" height="22" fill="white" transform="translate(0 156)"/>
</clipPath>
</defs>
</svg>
