<svg width="382" height="407" viewBox="0 0 382 407" fill="none" xmlns="http://www.w3.org/2000/svg">
<g filter="url(#filter0_d_8003_2434)">
<path d="M10 12C10 8.68629 12.6863 6 16 6H365.333C368.647 6 371.333 8.68629 371.333 12V387C371.333 390.314 368.647 393 365.333 393H16C12.6863 393 10 390.314 10 387V12Z" fill="white" shape-rendering="crispEdges"/>
<path d="M34.0014 47L30.3707 33.9091H32.4482L34.9986 44.0469H35.12L37.7727 33.9091H39.831L42.4837 44.0533H42.6051L45.1491 33.9091H47.233L43.5959 47H41.608L38.853 37.1946H38.7507L35.9957 47H34.0014ZM52.1452 47.1982C51.1779 47.1982 50.3448 46.9915 49.646 46.5781C48.9513 46.1605 48.4144 45.5746 48.0352 44.8203C47.6602 44.0618 47.4727 43.1733 47.4727 42.1548C47.4727 41.1491 47.6602 40.2628 48.0352 39.4957C48.4144 38.7287 48.9428 38.13 49.6204 37.6996C50.3022 37.2692 51.0991 37.054 52.011 37.054C52.565 37.054 53.1019 37.1456 53.6218 37.3288C54.1417 37.5121 54.6083 37.7997 55.0217 38.1918C55.435 38.5838 55.761 39.093 55.9996 39.7195C56.2383 40.3416 56.3576 41.098 56.3576 41.9886V42.6662H48.5529V41.2344H54.4847C54.4847 40.7315 54.3825 40.2862 54.1779 39.8984C53.9734 39.5064 53.6857 39.1974 53.315 38.9716C52.9485 38.7457 52.5181 38.6328 52.0238 38.6328C51.4869 38.6328 51.0181 38.7649 50.6175 39.0291C50.2212 39.2891 49.9144 39.63 49.6971 40.0518C49.484 40.4695 49.3775 40.9233 49.3775 41.4134V42.532C49.3775 43.1882 49.4925 43.7464 49.7227 44.2067C49.957 44.6669 50.283 45.0185 50.7006 45.2614C51.1183 45.5 51.6062 45.6193 52.1644 45.6193C52.5266 45.6193 52.8569 45.5682 53.1552 45.4659C53.4535 45.3594 53.7113 45.2017 53.9286 44.9929C54.146 44.7841 54.3121 44.5263 54.4272 44.2195L56.2362 44.5455C56.0913 45.0781 55.8313 45.5447 55.4563 45.9453C55.0856 46.3416 54.619 46.6506 54.0565 46.8722C53.4982 47.0895 52.8612 47.1982 52.1452 47.1982ZM62.7097 47.1982C61.7424 47.1982 60.9093 46.9915 60.2104 46.5781C59.5158 46.1605 58.9789 45.5746 58.5996 44.8203C58.2246 44.0618 58.0371 43.1733 58.0371 42.1548C58.0371 41.1491 58.2246 40.2628 58.5996 39.4957C58.9789 38.7287 59.5073 38.13 60.1848 37.6996C60.8667 37.2692 61.6635 37.054 62.5755 37.054C63.1294 37.054 63.6664 37.1456 64.1863 37.3288C64.7061 37.5121 65.1728 37.7997 65.5861 38.1918C65.9995 38.5838 66.3255 39.093 66.5641 39.7195C66.8027 40.3416 66.9221 41.098 66.9221 41.9886V42.6662H59.1174V41.2344H65.0492C65.0492 40.7315 64.9469 40.2862 64.7424 39.8984C64.5378 39.5064 64.2502 39.1974 63.8794 38.9716C63.513 38.7457 63.0826 38.6328 62.5882 38.6328C62.0513 38.6328 61.5826 38.7649 61.182 39.0291C60.7857 39.2891 60.4789 39.63 60.2615 40.0518C60.0485 40.4695 59.9419 40.9233 59.9419 41.4134V42.532C59.9419 43.1882 60.057 43.7464 60.2871 44.2067C60.5215 44.6669 60.8475 45.0185 61.2651 45.2614C61.6827 45.5 62.1706 45.6193 62.7289 45.6193C63.0911 45.6193 63.4213 45.5682 63.7196 45.4659C64.0179 45.3594 64.2757 45.2017 64.4931 44.9929C64.7104 44.7841 64.8766 44.5263 64.9917 44.2195L66.8006 44.5455C66.6557 45.0781 66.3958 45.5447 66.0208 45.9453C65.65 46.3416 65.1834 46.6506 64.6209 46.8722C64.0627 47.0895 63.4256 47.1982 62.7097 47.1982ZM70.8004 43.6697L70.7876 41.3366H71.12L75.032 37.1818H77.3203L72.8587 41.9119H72.5582L70.8004 43.6697ZM69.0426 47V33.9091H70.9538V47H69.0426ZM75.2429 47L71.7273 42.3338L73.044 40.9979L77.5888 47H75.2429ZM80.9734 33.9091V47H79.0621V33.9091H80.9734ZM84.7527 50.6818C84.4672 50.6818 84.2072 50.6584 83.9728 50.6115C83.7385 50.5689 83.5637 50.522 83.4487 50.4709L83.9089 48.9048C84.2583 48.9986 84.5694 49.0391 84.8422 49.0263C85.1149 49.0135 85.3556 48.9112 85.5645 48.7195C85.7775 48.5277 85.965 48.2145 86.127 47.7798L86.3635 47.1278L82.7711 37.1818H84.8166L87.3031 44.8011H87.4054L89.8919 37.1818H91.9437L87.8976 48.3104C87.7101 48.8217 87.4714 49.2543 87.1816 49.608C86.8919 49.9659 86.5467 50.2344 86.1461 50.4134C85.7456 50.5923 85.2811 50.6818 84.7527 50.6818ZM110.028 40.4545C110.028 41.8523 109.773 43.054 109.261 44.0597C108.75 45.0611 108.049 45.8324 107.158 46.3736C106.272 46.9105 105.264 47.179 104.135 47.179C103.001 47.179 101.989 46.9105 101.099 46.3736C100.212 45.8324 99.5135 45.0589 99.0021 44.0533C98.4908 43.0476 98.2351 41.848 98.2351 40.4545C98.2351 39.0568 98.4908 37.8572 99.0021 36.8558C99.5135 35.8501 100.212 35.0788 101.099 34.5419C101.989 34.0007 103.001 33.7301 104.135 33.7301C105.264 33.7301 106.272 34.0007 107.158 34.5419C108.049 35.0788 108.75 35.8501 109.261 36.8558C109.773 37.8572 110.028 39.0568 110.028 40.4545ZM108.072 40.4545C108.072 39.3892 107.9 38.4922 107.555 37.7635C107.214 37.0305 106.745 36.4766 106.148 36.1016C105.556 35.7223 104.885 35.5327 104.135 35.5327C103.381 35.5327 102.707 35.7223 102.115 36.1016C101.523 36.4766 101.054 37.0305 100.709 37.7635C100.368 38.4922 100.197 39.3892 100.197 40.4545C100.197 41.5199 100.368 42.419 100.709 43.152C101.054 43.8807 101.523 44.4347 102.115 44.8139C102.707 45.1889 103.381 45.3764 104.135 45.3764C104.885 45.3764 105.556 45.1889 106.148 44.8139C106.745 44.4347 107.214 43.8807 107.555 43.152C107.9 42.419 108.072 41.5199 108.072 40.4545ZM120.737 37.1818L117.176 47H115.131L111.564 37.1818H113.616L116.102 44.7372H116.205L118.685 37.1818H120.737ZM126.43 47.1982C125.463 47.1982 124.63 46.9915 123.931 46.5781C123.237 46.1605 122.7 45.5746 122.32 44.8203C121.945 44.0618 121.758 43.1733 121.758 42.1548C121.758 41.1491 121.945 40.2628 122.32 39.4957C122.7 38.7287 123.228 38.13 123.906 37.6996C124.587 37.2692 125.384 37.054 126.296 37.054C126.85 37.054 127.387 37.1456 127.907 37.3288C128.427 37.5121 128.893 37.7997 129.307 38.1918C129.72 38.5838 130.046 39.093 130.285 39.7195C130.523 40.3416 130.643 41.098 130.643 41.9886V42.6662H122.838V41.2344H128.77C128.77 40.7315 128.668 40.2862 128.463 39.8984C128.259 39.5064 127.971 39.1974 127.6 38.9716C127.234 38.7457 126.803 38.6328 126.309 38.6328C125.772 38.6328 125.303 38.7649 124.903 39.0291C124.506 39.2891 124.2 39.63 123.982 40.0518C123.769 40.4695 123.663 40.9233 123.663 41.4134V42.532C123.663 43.1882 123.778 43.7464 124.008 44.2067C124.242 44.6669 124.568 45.0185 124.986 45.2614C125.403 45.5 125.891 45.6193 126.45 45.6193C126.812 45.6193 127.142 45.5682 127.44 45.4659C127.739 45.3594 127.996 45.2017 128.214 44.9929C128.431 44.7841 128.597 44.5263 128.712 44.2195L130.521 44.5455C130.376 45.0781 130.116 45.5447 129.741 45.9453C129.371 46.3416 128.904 46.6506 128.342 46.8722C127.783 47.0895 127.146 47.1982 126.43 47.1982ZM132.763 47V37.1818H134.611V38.7415H134.713C134.892 38.2131 135.207 37.7976 135.659 37.495C136.115 37.1882 136.631 37.0348 137.206 37.0348C137.325 37.0348 137.466 37.0391 137.628 37.0476C137.794 37.0561 137.924 37.0668 138.018 37.0795V38.9077C137.941 38.8864 137.805 38.8629 137.608 38.8374C137.412 38.8075 137.216 38.7926 137.02 38.7926C136.569 38.7926 136.166 38.8885 135.812 39.0803C135.463 39.2678 135.186 39.5298 134.981 39.8665C134.777 40.1989 134.675 40.5781 134.675 41.0043V47H132.763ZM148.369 37.1818L144.809 47H142.764L139.197 37.1818H141.249L143.735 44.7372H143.838L146.318 37.1818H148.369ZM150.166 47V37.1818H152.077V47H150.166ZM151.131 35.6669C150.798 35.6669 150.513 35.5561 150.274 35.3345C150.04 35.1087 149.923 34.8402 149.923 34.5291C149.923 34.2138 150.04 33.9453 150.274 33.7237C150.513 33.4979 150.798 33.3849 151.131 33.3849C151.463 33.3849 151.747 33.4979 151.981 33.7237C152.22 33.9453 152.339 34.2138 152.339 34.5291C152.339 34.8402 152.22 35.1087 151.981 35.3345C151.747 35.5561 151.463 35.6669 151.131 35.6669ZM158.88 47.1982C157.912 47.1982 157.079 46.9915 156.38 46.5781C155.686 46.1605 155.149 45.5746 154.77 44.8203C154.395 44.0618 154.207 43.1733 154.207 42.1548C154.207 41.1491 154.395 40.2628 154.77 39.4957C155.149 38.7287 155.677 38.13 156.355 37.6996C157.037 37.2692 157.833 37.054 158.745 37.054C159.299 37.054 159.836 37.1456 160.356 37.3288C160.876 37.5121 161.343 37.7997 161.756 38.1918C162.169 38.5838 162.495 39.093 162.734 39.7195C162.973 40.3416 163.092 41.098 163.092 41.9886V42.6662H155.287V41.2344H161.219C161.219 40.7315 161.117 40.2862 160.912 39.8984C160.708 39.5064 160.42 39.1974 160.049 38.9716C159.683 38.7457 159.252 38.6328 158.758 38.6328C158.221 38.6328 157.752 38.7649 157.352 39.0291C156.956 39.2891 156.649 39.63 156.431 40.0518C156.218 40.4695 156.112 40.9233 156.112 41.4134V42.532C156.112 43.1882 156.227 43.7464 156.457 44.2067C156.691 44.6669 157.017 45.0185 157.435 45.2614C157.853 45.5 158.341 45.6193 158.899 45.6193C159.261 45.6193 159.591 45.5682 159.89 45.4659C160.188 45.3594 160.446 45.2017 160.663 44.9929C160.88 44.7841 161.047 44.5263 161.162 44.2195L162.971 44.5455C162.826 45.0781 162.566 45.5447 162.191 45.9453C161.82 46.3416 161.353 46.6506 160.791 46.8722C160.233 47.0895 159.596 47.1982 158.88 47.1982ZM167.324 47L164.434 37.1818H166.409L168.333 44.392H168.429L170.36 37.1818H172.335L174.252 44.3601H174.348L176.26 37.1818H178.235L175.352 47H173.402L171.408 39.9112H171.261L169.267 47H167.324Z" fill="#2E263D" fill-opacity="0.9"/>
<path d="M339.333 29C338.508 29 337.833 29.675 337.833 30.5C337.833 31.325 338.508 32 339.333 32C340.158 32 340.833 31.325 340.833 30.5C340.833 29.675 340.158 29 339.333 29ZM339.333 44C338.508 44 337.833 44.675 337.833 45.5C337.833 46.325 338.508 47 339.333 47C340.158 47 340.833 46.325 340.833 45.5C340.833 44.675 340.158 44 339.333 44ZM339.333 36.5C338.508 36.5 337.833 37.175 337.833 38C337.833 38.825 338.508 39.5 339.333 39.5C340.158 39.5 340.833 38.825 340.833 38C340.833 37.175 340.158 36.5 339.333 36.5Z" fill="#2E263D" fill-opacity="0.9"/>
<line x1="62.242" y1="84.2795" x2="351.333" y2="84.2795" stroke="#2E263D" stroke-opacity="0.12" stroke-dasharray="6 6"/>
<line x1="62.242" y1="138.5" x2="351.333" y2="138.5" stroke="#2E263D" stroke-opacity="0.12" stroke-dasharray="6 6"/>
<line x1="62.242" y1="192.5" x2="351.333" y2="192.5" stroke="#2E263D" stroke-opacity="0.12" stroke-dasharray="6 6"/>
<line x1="62.242" y1="246.5" x2="351.333" y2="246.5" stroke="#2E263D" stroke-opacity="0.12" stroke-dasharray="6 6"/>
<path d="M35.5254 79.4162C35.9132 79.4193 36.301 79.4931 36.6888 79.6378C37.0765 79.7824 37.4305 80.0225 37.7505 80.358C38.0706 80.6903 38.3276 81.1443 38.5215 81.7198C38.7154 82.2953 38.8123 83.017 38.8123 83.8849C38.8123 84.7251 38.7323 85.4715 38.5723 86.1239C38.4153 86.7733 38.1876 87.3211 37.889 87.7674C37.5936 88.2137 37.2335 88.5522 36.8088 88.783C36.3871 89.0138 35.9101 89.1293 35.3777 89.1293C34.8483 89.1293 34.3759 89.0246 33.9604 88.8153C33.548 88.603 33.2095 88.3091 32.9448 87.9336C32.6832 87.555 32.5155 87.1165 32.4416 86.6179H33.568C33.6696 87.0518 33.8712 87.4104 34.1728 87.6935C34.4775 87.9736 34.8791 88.1136 35.3777 88.1136C36.1071 88.1136 36.6826 87.7951 37.1042 87.158C37.529 86.521 37.7413 85.6207 37.7413 84.4574H37.6675C37.4951 84.7159 37.2904 84.939 37.0535 85.1268C36.8165 85.3145 36.5533 85.4592 36.264 85.5607C35.9747 85.6623 35.667 85.7131 35.3407 85.7131C34.7991 85.7131 34.302 85.5792 33.8496 85.3114C33.4003 85.0406 33.0402 84.6697 32.7694 84.1989C32.5016 83.7249 32.3677 83.1832 32.3677 82.5739C32.3677 81.9953 32.497 81.4659 32.7555 80.9858C33.0171 80.5026 33.3834 80.1179 33.8542 79.8317C34.3282 79.5455 34.8853 79.407 35.5254 79.4162ZM35.5254 80.4318C35.1376 80.4318 34.7883 80.5288 34.4775 80.7227C34.1697 80.9135 33.925 81.172 33.7434 81.4982C33.5649 81.8214 33.4757 82.1799 33.4757 82.5739C33.4757 82.9678 33.5619 83.3263 33.7342 83.6495C33.9096 83.9696 34.1482 84.225 34.4498 84.4158C34.7545 84.6036 35.1007 84.6974 35.4885 84.6974C35.7808 84.6974 36.0532 84.6405 36.3056 84.5266C36.558 84.4097 36.778 84.2512 36.9657 84.0511C37.1566 83.848 37.3058 83.6187 37.4135 83.3633C37.5213 83.1048 37.5751 82.8355 37.5751 82.5554C37.5751 82.1861 37.4859 81.8398 37.3074 81.5167C37.1319 81.1935 36.8888 80.9319 36.578 80.7319C36.2702 80.5318 35.9193 80.4318 35.5254 80.4318ZM43.7116 89.1293C43.016 89.1293 42.4236 88.94 41.9342 88.5614C41.4449 88.1798 41.0709 87.6274 40.8124 86.9041C40.5539 86.1778 40.4246 85.3007 40.4246 84.2727C40.4246 83.2509 40.5539 82.3784 40.8124 81.6552C41.074 80.9289 41.4495 80.3749 41.9388 79.9933C42.4313 79.6085 43.0222 79.4162 43.7116 79.4162C44.401 79.4162 44.9903 79.6085 45.4797 79.9933C45.9721 80.3749 46.3476 80.9289 46.6061 81.6552C46.8677 82.3784 46.9985 83.2509 46.9985 84.2727C46.9985 85.3007 46.8692 86.1778 46.6107 86.9041C46.3522 87.6274 45.9783 88.1798 45.4889 88.5614C44.9996 88.94 44.4071 89.1293 43.7116 89.1293ZM43.7116 88.1136C44.401 88.1136 44.9365 87.7812 45.3181 87.1165C45.6997 86.4517 45.8906 85.5038 45.8906 84.2727C45.8906 83.4541 45.8028 82.757 45.6274 82.1815C45.4551 81.6059 45.2058 81.1674 44.8795 80.8658C44.5564 80.5642 44.1671 80.4134 43.7116 80.4134C43.0283 80.4134 42.4944 80.7504 42.1097 81.4244C41.7249 82.0953 41.5326 83.0447 41.5326 84.2727C41.5326 85.0914 41.6188 85.7869 41.7911 86.3594C41.9635 86.9318 42.2112 87.3673 42.5344 87.6658C42.8606 87.9644 43.253 88.1136 43.7116 88.1136ZM49.7869 86.4148L49.7684 85.0668H49.99L53.0923 81.9091H54.4403L51.1349 85.2514H51.0425L49.7869 86.4148ZM48.7712 89V79.5455H49.8607V89H48.7712ZM53.2769 89L50.507 85.4915L51.2826 84.7344L54.6619 89H53.2769Z" fill="#2E263D" fill-opacity="0.4"/>
<path d="M35.7969 144.129C35.4091 144.123 35.0214 144.049 34.6336 143.908C34.2458 143.766 33.8919 143.528 33.5718 143.192C33.2517 142.854 32.9947 142.397 32.8008 141.821C32.6069 141.242 32.51 140.516 32.51 139.642C32.51 138.805 32.5885 138.063 32.7454 137.417C32.9024 136.768 33.1301 136.221 33.4287 135.778C33.7272 135.332 34.0873 134.993 34.5089 134.762C34.9336 134.532 35.4122 134.416 35.9447 134.416C36.474 134.416 36.9449 134.522 37.3573 134.735C37.7728 134.944 38.1113 135.236 38.3729 135.612C38.6345 135.987 38.8038 136.42 38.8807 136.909H37.7543C37.6497 136.484 37.4466 136.132 37.1449 135.852C36.8433 135.572 36.4432 135.432 35.9447 135.432C35.2122 135.432 34.6351 135.75 34.2135 136.387C33.7949 137.025 33.5841 137.919 33.581 139.07H33.6549C33.8272 138.808 34.0319 138.585 34.2689 138.4C34.5089 138.212 34.7736 138.068 35.0629 137.966C35.3522 137.865 35.6584 137.814 35.9816 137.814C36.5233 137.814 37.0188 137.949 37.4681 138.22C37.9174 138.488 38.2775 138.859 38.5483 139.333C38.8192 139.804 38.9546 140.344 38.9546 140.953C38.9546 141.538 38.8238 142.073 38.5622 142.56C38.3006 143.043 37.9328 143.428 37.4589 143.714C36.988 143.997 36.434 144.135 35.7969 144.129ZM35.7969 143.114C36.1847 143.114 36.5325 143.017 36.8403 142.823C37.1511 142.629 37.3958 142.369 37.5743 142.043C37.7559 141.716 37.8466 141.353 37.8466 140.953C37.8466 140.562 37.7589 140.207 37.5835 139.887C37.4112 139.564 37.1726 139.307 36.868 139.116C36.5663 138.925 36.2216 138.83 35.8339 138.83C35.5415 138.83 35.2691 138.888 35.0167 139.005C34.7644 139.119 34.5428 139.276 34.352 139.476C34.1642 139.676 34.0165 139.905 33.9088 140.164C33.8011 140.419 33.7472 140.688 33.7472 140.972C33.7472 141.347 33.8349 141.698 34.0104 142.024C34.1889 142.35 34.432 142.614 34.7398 142.814C35.0506 143.014 35.403 143.114 35.7969 143.114ZM43.8538 144.129C43.1583 144.129 42.5658 143.94 42.0765 143.561C41.5871 143.18 41.2132 142.627 40.9547 141.904C40.6962 141.178 40.5669 140.301 40.5669 139.273C40.5669 138.251 40.6962 137.378 40.9547 136.655C41.2163 135.929 41.5918 135.375 42.0811 134.993C42.5735 134.609 43.1644 134.416 43.8538 134.416C44.5432 134.416 45.1326 134.609 45.6219 134.993C46.1144 135.375 46.4898 135.929 46.7484 136.655C47.01 137.378 47.1408 138.251 47.1408 139.273C47.1408 140.301 47.0115 141.178 46.753 141.904C46.4945 142.627 46.1205 143.18 45.6312 143.561C45.1418 143.94 44.5494 144.129 43.8538 144.129ZM43.8538 143.114C44.5432 143.114 45.0787 142.781 45.4604 142.116C45.842 141.452 46.0328 140.504 46.0328 139.273C46.0328 138.454 45.9451 137.757 45.7697 137.181C45.5973 136.606 45.348 136.167 45.0218 135.866C44.6987 135.564 44.3093 135.413 43.8538 135.413C43.1706 135.413 42.6366 135.75 42.2519 136.424C41.8672 137.095 41.6749 138.045 41.6749 139.273C41.6749 140.091 41.761 140.787 41.9334 141.359C42.1057 141.932 42.3535 142.367 42.6766 142.666C43.0029 142.964 43.3953 143.114 43.8538 143.114ZM49.9291 141.415L49.9107 140.067H50.1322L53.2345 136.909H54.5825L51.2771 140.251H51.1848L49.9291 141.415ZM48.9135 144V134.545H50.003V144H48.9135ZM53.4192 144L50.6493 140.491L51.4249 139.734L54.8041 144H53.4192Z" fill="#2E263D" fill-opacity="0.4"/>
<path d="M35.6873 199.129C35.0779 199.129 34.5347 199.025 34.0577 198.815C33.5837 198.606 33.2067 198.315 32.9266 197.943C32.6496 197.567 32.4988 197.132 32.4742 196.636H33.6376C33.6622 196.941 33.7668 197.204 33.9515 197.426C34.1362 197.644 34.3777 197.814 34.6763 197.934C34.9748 198.054 35.3057 198.114 35.6688 198.114C36.0751 198.114 36.4352 198.043 36.7491 197.901C37.063 197.76 37.3092 197.563 37.4877 197.31C37.6662 197.058 37.7555 196.766 37.7555 196.433C37.7555 196.085 37.6693 195.779 37.4969 195.515C37.3246 195.247 37.0722 195.038 36.7398 194.887C36.4075 194.736 36.0012 194.661 35.5211 194.661H34.764V193.645H35.5211C35.8966 193.645 36.2259 193.577 36.509 193.442C36.7952 193.306 37.0184 193.116 37.1784 192.869C37.3415 192.623 37.4231 192.334 37.4231 192.001C37.4231 191.681 37.3523 191.403 37.2107 191.166C37.0692 190.929 36.8691 190.744 36.6106 190.612C36.3551 190.48 36.0535 190.413 35.7058 190.413C35.3795 190.413 35.0718 190.473 34.7825 190.593C34.4962 190.71 34.2623 190.881 34.0808 191.106C33.8992 191.327 33.8007 191.595 33.7853 191.909H32.6773C32.6958 191.414 32.8451 190.98 33.1251 190.607C33.4052 190.232 33.7714 189.939 34.2239 189.73C34.6794 189.521 35.1795 189.416 35.7242 189.416C36.309 189.416 36.8106 189.535 37.2292 189.772C37.6478 190.006 37.9694 190.315 38.194 190.7C38.4187 191.084 38.531 191.5 38.531 191.946C38.531 192.478 38.391 192.932 38.1109 193.308C37.8339 193.683 37.4569 193.943 36.9799 194.088V194.162C37.577 194.26 38.0432 194.514 38.3787 194.924C38.7142 195.33 38.8819 195.833 38.8819 196.433C38.8819 196.947 38.7419 197.409 38.4618 197.818C38.1848 198.224 37.8063 198.545 37.3261 198.778C36.846 199.012 36.2997 199.129 35.6873 199.129ZM43.8538 199.129C43.1583 199.129 42.5658 198.94 42.0765 198.561C41.5871 198.18 41.2132 197.627 40.9547 196.904C40.6962 196.178 40.5669 195.301 40.5669 194.273C40.5669 193.251 40.6962 192.378 40.9547 191.655C41.2163 190.929 41.5918 190.375 42.0811 189.993C42.5735 189.609 43.1644 189.416 43.8538 189.416C44.5432 189.416 45.1326 189.609 45.6219 189.993C46.1144 190.375 46.4898 190.929 46.7484 191.655C47.01 192.378 47.1408 193.251 47.1408 194.273C47.1408 195.301 47.0115 196.178 46.753 196.904C46.4945 197.627 46.1205 198.18 45.6312 198.561C45.1418 198.94 44.5494 199.129 43.8538 199.129ZM43.8538 198.114C44.5432 198.114 45.0787 197.781 45.4604 197.116C45.842 196.452 46.0328 195.504 46.0328 194.273C46.0328 193.454 45.9451 192.757 45.7697 192.181C45.5973 191.606 45.348 191.167 45.0218 190.866C44.6987 190.564 44.3093 190.413 43.8538 190.413C43.1706 190.413 42.6366 190.75 42.2519 191.424C41.8672 192.095 41.6749 193.045 41.6749 194.273C41.6749 195.091 41.761 195.787 41.9334 196.359C42.1057 196.932 42.3535 197.367 42.6766 197.666C43.0029 197.964 43.3953 198.114 43.8538 198.114ZM49.9291 196.415L49.9107 195.067H50.1322L53.2345 191.909H54.5825L51.2771 195.251H51.1848L49.9291 196.415ZM48.9135 199V189.545H50.003V199H48.9135ZM53.4192 199L50.6493 195.491L51.4249 194.734L54.8041 199H53.4192Z" fill="#2E263D" fill-opacity="0.4"/>
<path d="M44.0421 251.543C43.3466 251.543 42.7541 251.353 42.2648 250.975C41.7754 250.593 41.4015 250.041 41.143 249.317C40.8845 248.591 40.7552 247.714 40.7552 246.686C40.7552 245.664 40.8845 244.792 41.143 244.069C41.4046 243.342 41.7801 242.788 42.2694 242.407C42.7618 242.022 43.3527 241.83 44.0421 241.83C44.7315 241.83 45.3209 242.022 45.8102 242.407C46.3027 242.788 46.6781 243.342 46.9367 244.069C47.1983 244.792 47.3291 245.664 47.3291 246.686C47.3291 247.714 47.1998 248.591 46.9413 249.317C46.6828 250.041 46.3088 250.593 45.8195 250.975C45.3301 251.353 44.7377 251.543 44.0421 251.543ZM44.0421 250.527C44.7315 250.527 45.267 250.195 45.6487 249.53C46.0303 248.865 46.2211 247.917 46.2211 246.686C46.2211 245.867 46.1334 245.17 45.958 244.595C45.7856 244.019 45.5363 243.581 45.2101 243.279C44.8869 242.977 44.4976 242.827 44.0421 242.827C43.3589 242.827 42.8249 243.164 42.4402 243.838C42.0555 244.509 41.8632 245.458 41.8632 246.686C41.8632 247.505 41.9493 248.2 42.1217 248.773C42.294 249.345 42.5418 249.781 42.8649 250.079C43.1912 250.378 43.5836 250.527 44.0421 250.527ZM50.1174 248.828L50.0989 247.48H50.3205L53.4228 244.322H54.7708L51.4654 247.665H51.3731L50.1174 248.828ZM49.1018 251.413V241.959H50.1913V251.413H49.1018ZM53.6075 251.413L50.8376 247.905L51.6132 247.148L54.9924 251.413H53.6075Z" fill="#2E263D" fill-opacity="0.4"/>
<rect x="83.1652" y="180" width="11.9258" height="66" rx="5.96289" fill="#F0F2F8"/>
<rect x="122.918" y="143" width="11.9258" height="103" rx="5.96289" fill="#F0F2F8"/>
<rect x="162.671" y="161.645" width="11.9258" height="84.3298" rx="5.96289" fill="#F0F2F8"/>
<rect x="202.424" y="109" width="11.9258" height="137" rx="5.96289" fill="#8C57FF"/>
<rect x="281.929" y="176.424" width="11.9258" height="69.5503" rx="5.96289" fill="#F0F2F8"/>
<rect x="321.681" y="126" width="11.9258" height="119.974" rx="5.96289" fill="#F0F2F8"/>
<rect x="242.177" y="144.257" width="11.9258" height="101.717" rx="5.96289" fill="#F0F2F8"/>
<path d="M31.3125 304.004V301.874L38.8551 289.959H40.5341V293.095H39.4688L34.0739 301.635V301.771H44.4119V304.004H31.3125ZM39.5881 307.413V303.357L39.6051 302.385V289.959H42.1023V307.413H39.5881ZM53.1435 307.652C52.0753 307.652 51.1151 307.447 50.2628 307.038C49.4162 306.624 48.7401 306.055 48.2344 305.334C47.7287 304.612 47.4588 303.788 47.4247 302.862H49.9815C50.044 303.612 50.3764 304.229 50.9787 304.712C51.581 305.195 52.3026 305.436 53.1435 305.436C53.8139 305.436 54.4077 305.283 54.9247 304.976C55.4474 304.663 55.8565 304.234 56.152 303.689C56.4531 303.143 56.6037 302.521 56.6037 301.822C56.6037 301.112 56.4503 300.479 56.1435 299.922C55.8366 299.365 55.4134 298.928 54.8736 298.609C54.3395 298.291 53.7259 298.129 53.0327 298.124C52.5043 298.124 51.973 298.214 51.4389 298.396C50.9048 298.578 50.473 298.817 50.1435 299.112L47.7315 298.754L48.7116 289.959H58.3082V292.217H50.902L50.348 297.101H50.4503C50.7912 296.771 51.2429 296.496 51.8054 296.274C52.3736 296.053 52.9815 295.942 53.6293 295.942C54.6918 295.942 55.6378 296.195 56.4673 296.7C57.3026 297.206 57.9588 297.896 58.4361 298.771C58.919 299.641 59.1577 300.641 59.152 301.771C59.1577 302.902 58.902 303.91 58.3849 304.797C57.8736 305.683 57.1634 306.382 56.2543 306.893C55.3509 307.399 54.3139 307.652 53.1435 307.652ZM71.3757 304.141V303.22C71.3757 302.561 71.5121 301.959 71.7848 301.413C72.0632 300.862 72.4666 300.422 72.995 300.092C73.5291 299.757 74.174 299.589 74.9297 299.589C75.7024 299.589 76.3501 299.754 76.8729 300.084C77.3956 300.413 77.7905 300.854 78.0575 301.405C78.3303 301.956 78.4666 302.561 78.4666 303.22V304.141C78.4666 304.8 78.3303 305.405 78.0575 305.956C77.7848 306.501 77.3842 306.942 76.8558 307.277C76.3331 307.607 75.6911 307.771 74.9297 307.771C74.1626 307.771 73.5149 307.607 72.9865 307.277C72.4581 306.942 72.0575 306.501 71.7848 305.956C71.5121 305.405 71.3757 304.8 71.3757 304.141ZM73.3615 303.22V304.141C73.3615 304.629 73.478 305.072 73.7109 305.47C73.9439 305.868 74.3501 306.067 74.9297 306.067C75.5036 306.067 75.9041 305.868 76.1314 305.47C76.3587 305.072 76.4723 304.629 76.4723 304.141V303.22C76.4723 302.732 76.3615 302.288 76.1399 301.891C75.924 301.493 75.5206 301.294 74.9297 301.294C74.3615 301.294 73.9581 301.493 73.7195 301.891C73.4808 302.288 73.3615 302.732 73.3615 303.22ZM62.5973 294.152V293.232C62.5973 292.572 62.7337 291.967 63.0064 291.416C63.2848 290.865 63.6882 290.425 64.2166 290.095C64.7507 289.766 65.3956 289.601 66.1513 289.601C66.924 289.601 67.5717 289.766 68.0945 290.095C68.6172 290.425 69.0121 290.865 69.2791 291.416C69.5462 291.967 69.6797 292.572 69.6797 293.232V294.152C69.6797 294.811 69.5433 295.416 69.2706 295.967C69.0036 296.513 68.6058 296.953 68.0774 297.288C67.5547 297.618 66.9126 297.783 66.1513 297.783C65.3786 297.783 64.728 297.618 64.1996 297.288C63.6768 296.953 63.2791 296.513 63.0064 295.967C62.7337 295.416 62.5973 294.811 62.5973 294.152ZM64.5916 293.232V294.152C64.5916 294.641 64.7053 295.084 64.9325 295.482C65.1655 295.879 65.5717 296.078 66.1513 296.078C66.7195 296.078 67.1172 295.879 67.3445 295.482C67.5774 295.084 67.6939 294.641 67.6939 294.152V293.232C67.6939 292.743 67.5831 292.3 67.3615 291.902C67.1399 291.504 66.7365 291.305 66.1513 291.305C65.5831 291.305 65.1797 291.504 64.9411 291.902C64.7081 292.3 64.5916 292.743 64.5916 293.232ZM63.407 307.413L75.407 289.959H77.4439L65.4439 307.413H63.407Z" fill="#2E263D" fill-opacity="0.9"/>
<path d="M97.3835 281.504H98.8963L101.922 286.597H102.05L105.075 281.504H106.588L102.646 287.918V292.413H101.325V287.918L97.3835 281.504ZM110.293 292.584C109.554 292.584 108.906 292.408 108.349 292.056C107.795 291.705 107.361 291.213 107.049 290.581C106.74 289.949 106.585 289.21 106.585 288.365C106.585 287.513 106.74 286.769 107.049 286.133C107.361 285.497 107.795 285.004 108.349 284.652C108.906 284.301 109.554 284.125 110.293 284.125C111.031 284.125 111.678 284.301 112.232 284.652C112.789 285.004 113.222 285.497 113.531 286.133C113.844 286.769 114 287.513 114 288.365C114 289.21 113.844 289.949 113.531 290.581C113.222 291.213 112.789 291.705 112.232 292.056C111.678 292.408 111.031 292.584 110.293 292.584ZM110.293 291.455C110.854 291.455 111.316 291.311 111.678 291.023C112.04 290.735 112.308 290.357 112.482 289.888C112.656 289.42 112.743 288.912 112.743 288.365C112.743 287.818 112.656 287.309 112.482 286.836C112.308 286.364 112.04 285.982 111.678 285.691C111.316 285.4 110.854 285.254 110.293 285.254C109.732 285.254 109.27 285.4 108.908 285.691C108.546 285.982 108.278 286.364 108.104 286.836C107.93 287.309 107.843 287.818 107.843 288.365C107.843 288.912 107.93 289.42 108.104 289.888C108.278 290.357 108.546 290.735 108.908 291.023C109.27 291.311 109.732 291.455 110.293 291.455ZM121.075 289.068V284.232H122.332V292.413H121.075V291.028H120.99C120.798 291.444 120.5 291.797 120.095 292.088C119.69 292.376 119.179 292.52 118.561 292.52C118.05 292.52 117.595 292.408 117.198 292.184C116.8 291.957 116.487 291.616 116.26 291.162C116.033 290.703 115.919 290.126 115.919 289.43V284.232H117.176V289.345C117.176 289.942 117.343 290.418 117.677 290.773C118.014 291.128 118.444 291.305 118.966 291.305C119.278 291.305 119.596 291.225 119.919 291.066C120.246 290.906 120.52 290.661 120.74 290.331C120.964 290 121.075 289.58 121.075 289.068ZM124.635 292.413V284.232H125.849V285.467H125.935C126.084 285.062 126.354 284.734 126.744 284.482C127.135 284.23 127.575 284.104 128.065 284.104C128.158 284.104 128.273 284.105 128.412 284.109C128.55 284.113 128.655 284.118 128.726 284.125V285.403C128.683 285.393 128.586 285.377 128.433 285.355C128.284 285.331 128.126 285.318 127.959 285.318C127.561 285.318 127.206 285.402 126.893 285.569C126.585 285.732 126.339 285.959 126.158 286.25C125.981 286.538 125.892 286.866 125.892 287.236V292.413H124.635ZM140.23 286.064L139.101 286.384C139.03 286.195 138.925 286.012 138.787 285.835C138.652 285.654 138.467 285.505 138.233 285.387C137.998 285.27 137.698 285.212 137.332 285.212C136.832 285.212 136.415 285.327 136.081 285.558C135.75 285.785 135.585 286.075 135.585 286.426C135.585 286.739 135.699 286.985 135.926 287.167C136.153 287.348 136.509 287.499 136.992 287.619L138.206 287.918C138.938 288.095 139.483 288.367 139.841 288.733C140.2 289.095 140.379 289.562 140.379 290.134C140.379 290.602 140.244 291.021 139.975 291.391C139.708 291.76 139.335 292.051 138.856 292.264C138.377 292.477 137.819 292.584 137.183 292.584C136.349 292.584 135.658 292.403 135.111 292.04C134.564 291.678 134.218 291.149 134.073 290.453L135.266 290.155C135.379 290.595 135.594 290.925 135.91 291.146C136.23 291.366 136.647 291.476 137.162 291.476C137.748 291.476 138.213 291.352 138.558 291.103C138.906 290.851 139.08 290.549 139.08 290.197C139.08 289.913 138.98 289.675 138.781 289.484C138.582 289.288 138.277 289.143 137.865 289.047L136.502 288.727C135.752 288.55 135.202 288.274 134.85 287.902C134.502 287.525 134.328 287.055 134.328 286.49C134.328 286.028 134.458 285.62 134.717 285.265C134.98 284.91 135.337 284.631 135.788 284.429C136.242 284.226 136.757 284.125 137.332 284.125C138.142 284.125 138.778 284.303 139.239 284.658C139.705 285.013 140.035 285.482 140.23 286.064ZM144.679 292.605C144.161 292.605 143.69 292.507 143.268 292.312C142.845 292.113 142.51 291.827 142.261 291.455C142.012 291.078 141.888 290.624 141.888 290.091C141.888 289.622 141.98 289.242 142.165 288.951C142.35 288.656 142.597 288.425 142.906 288.259C143.214 288.092 143.555 287.967 143.928 287.886C144.305 287.8 144.683 287.733 145.063 287.683C145.56 287.619 145.963 287.571 146.272 287.539C146.585 287.504 146.812 287.445 146.954 287.364C147.099 287.282 147.172 287.14 147.172 286.937V286.895C147.172 286.369 147.028 285.961 146.741 285.67C146.457 285.379 146.025 285.233 145.446 285.233C144.846 285.233 144.376 285.364 144.035 285.627C143.694 285.89 143.454 286.17 143.316 286.469L142.123 286.043C142.336 285.545 142.62 285.158 142.975 284.881C143.333 284.601 143.724 284.406 144.147 284.295C144.573 284.182 144.992 284.125 145.404 284.125C145.667 284.125 145.968 284.157 146.309 284.221C146.654 284.281 146.986 284.407 147.305 284.599C147.629 284.791 147.897 285.08 148.11 285.467C148.323 285.854 148.429 286.373 148.429 287.023V292.413H147.172V291.305H147.108C147.023 291.483 146.881 291.673 146.682 291.875C146.483 292.078 146.219 292.25 145.888 292.392C145.558 292.534 145.155 292.605 144.679 292.605ZM144.871 291.476C145.368 291.476 145.787 291.378 146.128 291.183C146.473 290.988 146.732 290.735 146.906 290.426C147.083 290.118 147.172 289.793 147.172 289.452V288.301C147.119 288.365 147.002 288.424 146.821 288.477C146.643 288.527 146.437 288.571 146.203 288.61C145.972 288.646 145.746 288.678 145.526 288.706C145.31 288.731 145.134 288.752 144.999 288.77C144.672 288.812 144.367 288.882 144.083 288.978C143.802 289.07 143.575 289.21 143.401 289.398C143.23 289.583 143.145 289.835 143.145 290.155C143.145 290.592 143.307 290.922 143.63 291.146C143.957 291.366 144.37 291.476 144.871 291.476ZM151.981 281.504V292.413H150.724V281.504H151.981ZM157.714 292.584C156.925 292.584 156.245 292.41 155.674 292.062C155.105 291.71 154.667 291.22 154.358 290.592C154.053 289.959 153.9 289.224 153.9 288.386C153.9 287.548 154.053 286.81 154.358 286.17C154.667 285.528 155.097 285.027 155.647 284.668C156.201 284.306 156.847 284.125 157.586 284.125C158.012 284.125 158.433 284.196 158.848 284.338C159.264 284.48 159.642 284.711 159.983 285.031C160.324 285.347 160.596 285.766 160.798 286.288C161 286.81 161.102 287.452 161.102 288.216V288.749H154.795V287.662H159.823C159.823 287.2 159.731 286.788 159.546 286.426C159.365 286.064 159.106 285.778 158.768 285.569C158.435 285.359 158.04 285.254 157.586 285.254C157.085 285.254 156.652 285.379 156.286 285.627C155.924 285.872 155.645 286.192 155.45 286.586C155.255 286.98 155.157 287.403 155.157 287.854V288.578C155.157 289.196 155.263 289.72 155.477 290.149C155.693 290.576 155.993 290.901 156.377 291.124C156.76 291.344 157.206 291.455 157.714 291.455C158.044 291.455 158.342 291.408 158.609 291.316C158.879 291.22 159.111 291.078 159.306 290.89C159.502 290.698 159.653 290.46 159.759 290.176L160.974 290.517C160.846 290.929 160.631 291.291 160.329 291.604C160.027 291.913 159.654 292.154 159.211 292.328C158.767 292.499 158.268 292.584 157.714 292.584ZM168.809 286.064L167.68 286.384C167.609 286.195 167.504 286.012 167.366 285.835C167.231 285.654 167.046 285.505 166.812 285.387C166.577 285.27 166.277 285.212 165.912 285.212C165.411 285.212 164.994 285.327 164.66 285.558C164.33 285.785 164.164 286.075 164.164 286.426C164.164 286.739 164.278 286.985 164.505 287.167C164.733 287.348 165.088 287.499 165.571 287.619L166.785 287.918C167.517 288.095 168.062 288.367 168.42 288.733C168.779 289.095 168.958 289.562 168.958 290.134C168.958 290.602 168.824 291.021 168.554 291.391C168.287 291.76 167.914 292.051 167.435 292.264C166.956 292.477 166.398 292.584 165.762 292.584C164.928 292.584 164.237 292.403 163.69 292.04C163.143 291.678 162.797 291.149 162.652 290.453L163.845 290.155C163.958 290.595 164.173 290.925 164.489 291.146C164.809 291.366 165.226 291.476 165.741 291.476C166.327 291.476 166.792 291.352 167.137 291.103C167.485 290.851 167.659 290.549 167.659 290.197C167.659 289.913 167.559 289.675 167.36 289.484C167.162 289.288 166.856 289.143 166.444 289.047L165.081 288.727C164.331 288.55 163.781 288.274 163.429 287.902C163.081 287.525 162.907 287.055 162.907 286.49C162.907 286.028 163.037 285.62 163.296 285.265C163.559 284.91 163.916 284.631 164.367 284.429C164.821 284.226 165.336 284.125 165.912 284.125C166.721 284.125 167.357 284.303 167.819 284.658C168.284 285.013 168.614 285.482 168.809 286.064ZM175.07 295.482V284.232H176.284V285.531H176.433C176.525 285.389 176.653 285.208 176.817 284.988C176.984 284.764 177.222 284.565 177.53 284.391C177.843 284.214 178.266 284.125 178.798 284.125C179.487 284.125 180.094 284.297 180.62 284.642C181.146 284.986 181.556 285.474 181.85 286.107C182.145 286.739 182.293 287.484 182.293 288.344C182.293 289.21 182.145 289.961 181.85 290.597C181.556 291.229 181.147 291.719 180.625 292.067C180.103 292.412 179.501 292.584 178.82 292.584C178.294 292.584 177.873 292.497 177.557 292.323C177.241 292.145 176.998 291.945 176.827 291.721C176.657 291.494 176.525 291.305 176.433 291.156H176.327V295.482H175.07ZM176.305 288.322C176.305 288.94 176.396 289.485 176.577 289.958C176.758 290.426 177.023 290.794 177.371 291.06C177.719 291.323 178.145 291.455 178.649 291.455C179.175 291.455 179.613 291.316 179.965 291.039C180.32 290.759 180.586 290.382 180.764 289.91C180.945 289.434 181.035 288.905 181.035 288.322C181.035 287.747 180.947 287.229 180.769 286.767C180.595 286.302 180.331 285.934 179.975 285.664C179.624 285.391 179.182 285.254 178.649 285.254C178.138 285.254 177.708 285.384 177.36 285.643C177.012 285.899 176.749 286.257 176.572 286.719C176.394 287.177 176.305 287.712 176.305 288.322ZM187.641 292.584C186.852 292.584 186.172 292.41 185.6 292.062C185.032 291.71 184.594 291.22 184.285 290.592C183.979 289.959 183.827 289.224 183.827 288.386C183.827 287.548 183.979 286.81 184.285 286.17C184.594 285.528 185.023 285.027 185.574 284.668C186.128 284.306 186.774 284.125 187.513 284.125C187.939 284.125 188.36 284.196 188.775 284.338C189.191 284.48 189.569 284.711 189.91 285.031C190.251 285.347 190.522 285.766 190.725 286.288C190.927 286.81 191.028 287.452 191.028 288.216V288.749H184.722V287.662H189.75C189.75 287.2 189.658 286.788 189.473 286.426C189.292 286.064 189.033 285.778 188.695 285.569C188.361 285.359 187.967 285.254 187.513 285.254C187.012 285.254 186.579 285.379 186.213 285.627C185.851 285.872 185.572 286.192 185.377 286.586C185.181 286.98 185.084 287.403 185.084 287.854V288.578C185.084 289.196 185.19 289.72 185.403 290.149C185.62 290.576 185.92 290.901 186.304 291.124C186.687 291.344 187.133 291.455 187.641 291.455C187.971 291.455 188.269 291.408 188.535 291.316C188.805 291.22 189.038 291.078 189.233 290.89C189.429 290.698 189.579 290.46 189.686 290.176L190.9 290.517C190.773 290.929 190.558 291.291 190.256 291.604C189.954 291.913 189.581 292.154 189.137 292.328C188.693 292.499 188.195 292.584 187.641 292.584ZM192.941 292.413V284.232H194.155V285.467H194.24C194.389 285.062 194.659 284.734 195.05 284.482C195.441 284.23 195.881 284.104 196.371 284.104C196.463 284.104 196.579 284.105 196.717 284.109C196.856 284.113 196.96 284.118 197.032 284.125V285.403C196.989 285.393 196.891 285.377 196.739 285.355C196.589 285.331 196.431 285.318 196.264 285.318C195.867 285.318 195.512 285.402 195.199 285.569C194.89 285.732 194.645 285.959 194.464 286.25C194.286 286.538 194.198 286.866 194.198 287.236V292.413H192.941ZM202.678 284.232V285.297H198.267V284.232H202.678ZM199.588 292.413V283.102C199.588 282.634 199.698 282.243 199.919 281.93C200.139 281.618 200.425 281.383 200.776 281.227C201.128 281.071 201.499 280.993 201.889 280.993C202.198 280.993 202.451 281.018 202.646 281.067C202.841 281.117 202.987 281.163 203.083 281.206L202.72 282.293C202.657 282.271 202.568 282.245 202.454 282.213C202.344 282.181 202.198 282.165 202.017 282.165C201.602 282.165 201.302 282.27 201.117 282.479C200.936 282.689 200.845 282.996 200.845 283.401V292.413H199.588ZM207.427 292.584C206.688 292.584 206.04 292.408 205.482 292.056C204.928 291.705 204.495 291.213 204.183 290.581C203.874 289.949 203.719 289.21 203.719 288.365C203.719 287.513 203.874 286.769 204.183 286.133C204.495 285.497 204.928 285.004 205.482 284.652C206.04 284.301 206.688 284.125 207.427 284.125C208.165 284.125 208.812 284.301 209.366 284.652C209.923 285.004 210.356 285.497 210.665 286.133C210.978 286.769 211.134 287.513 211.134 288.365C211.134 289.21 210.978 289.949 210.665 290.581C210.356 291.213 209.923 291.705 209.366 292.056C208.812 292.408 208.165 292.584 207.427 292.584ZM207.427 291.455C207.988 291.455 208.449 291.311 208.812 291.023C209.174 290.735 209.442 290.357 209.616 289.888C209.79 289.42 209.877 288.912 209.877 288.365C209.877 287.818 209.79 287.309 209.616 286.836C209.442 286.364 209.174 285.982 208.812 285.691C208.449 285.4 207.988 285.254 207.427 285.254C206.866 285.254 206.404 285.4 206.042 285.691C205.679 285.982 205.411 286.364 205.237 286.836C205.063 287.309 204.976 287.818 204.976 288.365C204.976 288.912 205.063 289.42 205.237 289.888C205.411 290.357 205.679 290.735 206.042 291.023C206.404 291.311 206.866 291.455 207.427 291.455ZM213.053 292.413V284.232H214.267V285.467H214.353C214.502 285.062 214.772 284.734 215.162 284.482C215.553 284.23 215.993 284.104 216.483 284.104C216.576 284.104 216.691 284.105 216.83 284.109C216.968 284.113 217.073 284.118 217.144 284.125V285.403C217.101 285.393 217.004 285.377 216.851 285.355C216.702 285.331 216.544 285.318 216.377 285.318C215.979 285.318 215.624 285.402 215.311 285.569C215.002 285.732 214.757 285.959 214.576 286.25C214.399 286.538 214.31 286.866 214.31 287.236V292.413H213.053ZM218.634 292.413V284.232H219.848V285.51H219.955C220.125 285.073 220.401 284.734 220.781 284.493C221.161 284.247 221.617 284.125 222.15 284.125C222.689 284.125 223.139 284.247 223.497 284.493C223.859 284.734 224.142 285.073 224.344 285.51H224.429C224.639 285.087 224.953 284.752 225.372 284.503C225.791 284.251 226.294 284.125 226.88 284.125C227.611 284.125 228.21 284.354 228.675 284.812C229.14 285.267 229.373 285.975 229.373 286.937V292.413H228.116V286.937C228.116 286.334 227.95 285.902 227.62 285.643C227.29 285.384 226.901 285.254 226.454 285.254C225.878 285.254 225.433 285.428 225.117 285.776C224.801 286.121 224.642 286.558 224.642 287.087V292.413H223.364V286.81C223.364 286.344 223.213 285.97 222.911 285.686C222.609 285.398 222.221 285.254 221.745 285.254C221.418 285.254 221.113 285.341 220.829 285.515C220.548 285.689 220.321 285.931 220.147 286.24C219.976 286.545 219.891 286.898 219.891 287.3V292.413H218.634ZM234.079 292.605C233.56 292.605 233.09 292.507 232.667 292.312C232.245 292.113 231.909 291.827 231.66 291.455C231.412 291.078 231.288 290.624 231.288 290.091C231.288 289.622 231.38 289.242 231.565 288.951C231.749 288.656 231.996 288.425 232.305 288.259C232.614 288.092 232.955 287.967 233.328 287.886C233.704 287.8 234.082 287.733 234.462 287.683C234.959 287.619 235.362 287.571 235.671 287.539C235.984 287.504 236.211 287.445 236.353 287.364C236.499 287.282 236.572 287.14 236.572 286.937V286.895C236.572 286.369 236.428 285.961 236.14 285.67C235.856 285.379 235.425 285.233 234.846 285.233C234.246 285.233 233.775 285.364 233.434 285.627C233.093 285.89 232.854 286.17 232.715 286.469L231.522 286.043C231.735 285.545 232.019 285.158 232.374 284.881C232.733 284.601 233.123 284.406 233.546 284.295C233.972 284.182 234.391 284.125 234.803 284.125C235.066 284.125 235.368 284.157 235.709 284.221C236.053 284.281 236.385 284.407 236.705 284.599C237.028 284.791 237.296 285.08 237.509 285.467C237.722 285.854 237.829 286.373 237.829 287.023V292.413H236.572V291.305H236.508C236.422 291.483 236.28 291.673 236.082 291.875C235.883 292.078 235.618 292.25 235.288 292.392C234.958 292.534 234.555 292.605 234.079 292.605ZM234.271 291.476C234.768 291.476 235.187 291.378 235.528 291.183C235.872 290.988 236.131 290.735 236.305 290.426C236.483 290.118 236.572 289.793 236.572 289.452V288.301C236.518 288.365 236.401 288.424 236.22 288.477C236.043 288.527 235.837 288.571 235.602 288.61C235.371 288.646 235.146 288.678 234.926 288.706C234.709 288.731 234.533 288.752 234.398 288.77C234.072 288.812 233.766 288.882 233.482 288.978C233.202 289.07 232.974 289.21 232.8 289.398C232.63 289.583 232.545 289.835 232.545 290.155C232.545 290.592 232.706 290.922 233.029 291.146C233.356 291.366 233.77 291.476 234.271 291.476ZM241.38 287.491V292.413H240.123V284.232H241.338V285.51H241.444C241.636 285.094 241.927 284.761 242.318 284.509C242.708 284.253 243.213 284.125 243.831 284.125C244.385 284.125 244.869 284.239 245.285 284.466C245.7 284.69 246.023 285.031 246.254 285.489C246.485 285.943 246.6 286.518 246.6 287.214V292.413H245.343V287.3C245.343 286.657 245.176 286.156 244.843 285.798C244.509 285.435 244.051 285.254 243.468 285.254C243.067 285.254 242.708 285.341 242.392 285.515C242.08 285.689 241.833 285.943 241.652 286.277C241.471 286.611 241.38 287.016 241.38 287.491ZM252.222 292.584C251.454 292.584 250.794 292.403 250.24 292.04C249.686 291.678 249.26 291.179 248.962 290.544C248.663 289.908 248.514 289.182 248.514 288.365C248.514 287.534 248.667 286.801 248.972 286.165C249.281 285.526 249.711 285.027 250.261 284.668C250.815 284.306 251.462 284.125 252.2 284.125C252.775 284.125 253.294 284.232 253.756 284.445C254.217 284.658 254.595 284.956 254.89 285.339C255.185 285.723 255.368 286.17 255.439 286.682H254.182C254.086 286.309 253.873 285.979 253.543 285.691C253.216 285.4 252.775 285.254 252.222 285.254C251.731 285.254 251.302 285.382 250.932 285.638C250.567 285.89 250.281 286.247 250.075 286.708C249.872 287.167 249.771 287.705 249.771 288.322C249.771 288.955 249.871 289.505 250.07 289.974C250.272 290.442 250.556 290.806 250.922 291.066C251.291 291.325 251.724 291.455 252.222 291.455C252.548 291.455 252.845 291.398 253.111 291.284C253.377 291.17 253.603 291.007 253.788 290.794C253.972 290.581 254.104 290.325 254.182 290.027H255.439C255.368 290.51 255.192 290.945 254.911 291.332C254.634 291.716 254.267 292.021 253.809 292.248C253.354 292.472 252.825 292.584 252.222 292.584ZM260.707 292.584C259.919 292.584 259.239 292.41 258.667 292.062C258.099 291.71 257.66 291.22 257.351 290.592C257.046 289.959 256.893 289.224 256.893 288.386C256.893 287.548 257.046 286.81 257.351 286.17C257.66 285.528 258.09 285.027 258.64 284.668C259.194 284.306 259.84 284.125 260.579 284.125C261.005 284.125 261.426 284.196 261.842 284.338C262.257 284.48 262.635 284.711 262.976 285.031C263.317 285.347 263.589 285.766 263.791 286.288C263.994 286.81 264.095 287.452 264.095 288.216V288.749H257.788V287.662H262.816C262.816 287.2 262.724 286.788 262.539 286.426C262.358 286.064 262.099 285.778 261.762 285.569C261.428 285.359 261.034 285.254 260.579 285.254C260.078 285.254 259.645 285.379 259.279 285.627C258.917 285.872 258.638 286.192 258.443 286.586C258.248 286.98 258.15 287.403 258.15 287.854V288.578C258.15 289.196 258.257 289.72 258.47 290.149C258.686 290.576 258.986 290.901 259.37 291.124C259.753 291.344 260.199 291.455 260.707 291.455C261.037 291.455 261.335 291.408 261.602 291.316C261.872 291.22 262.104 291.078 262.3 290.89C262.495 290.698 262.646 290.46 262.752 290.176L263.967 290.517C263.839 290.929 263.624 291.291 263.322 291.604C263.021 291.913 262.648 292.154 262.204 292.328C261.76 292.499 261.261 292.584 260.707 292.584ZM270.226 292.413V284.232H271.483V292.413H270.226ZM270.865 282.868C270.62 282.868 270.409 282.784 270.231 282.618C270.057 282.451 269.97 282.25 269.97 282.016C269.97 281.781 270.057 281.581 270.231 281.414C270.409 281.247 270.62 281.163 270.865 281.163C271.11 281.163 271.32 281.247 271.494 281.414C271.671 281.581 271.76 281.781 271.76 282.016C271.76 282.25 271.671 282.451 271.494 282.618C271.32 282.784 271.11 282.868 270.865 282.868ZM279.581 286.064L278.452 286.384C278.381 286.195 278.276 286.012 278.137 285.835C278.002 285.654 277.818 285.505 277.583 285.387C277.349 285.27 277.049 285.212 276.683 285.212C276.182 285.212 275.765 285.327 275.431 285.558C275.101 285.785 274.936 286.075 274.936 286.426C274.936 286.739 275.05 286.985 275.277 287.167C275.504 287.348 275.859 287.499 276.342 287.619L277.557 287.918C278.288 288.095 278.833 288.367 279.192 288.733C279.551 289.095 279.73 289.562 279.73 290.134C279.73 290.602 279.595 291.021 279.325 291.391C279.059 291.76 278.686 292.051 278.206 292.264C277.727 292.477 277.17 292.584 276.534 292.584C275.699 292.584 275.009 292.403 274.462 292.04C273.915 291.678 273.569 291.149 273.423 290.453L274.616 290.155C274.73 290.595 274.945 290.925 275.261 291.146C275.58 291.366 275.998 291.476 276.513 291.476C277.099 291.476 277.564 291.352 277.908 291.103C278.256 290.851 278.43 290.549 278.43 290.197C278.43 289.913 278.331 289.675 278.132 289.484C277.933 289.288 277.628 289.143 277.216 289.047L275.852 288.727C275.103 288.55 274.552 288.274 274.201 287.902C273.853 287.525 273.679 287.055 273.679 286.49C273.679 286.028 273.808 285.62 274.068 285.265C274.33 284.91 274.687 284.631 275.138 284.429C275.593 284.226 276.108 284.125 276.683 284.125C277.493 284.125 278.128 284.303 278.59 284.658C279.055 285.013 279.385 285.482 279.581 286.064ZM285.564 290.176V289.089L290.358 281.504H291.146V283.187H290.614L286.992 288.919V289.004H293.448V290.176H285.564ZM290.699 292.413V289.846V289.34V281.504H291.956V292.413H290.699ZM298.853 292.562C298.228 292.562 297.665 292.438 297.164 292.19C296.664 291.941 296.262 291.6 295.96 291.167C295.659 290.734 295.493 290.24 295.465 289.686H296.743C296.793 290.18 297.017 290.588 297.415 290.911C297.816 291.231 298.295 291.391 298.853 291.391C299.3 291.391 299.698 291.286 300.046 291.076C300.398 290.867 300.673 290.579 300.872 290.213C301.074 289.844 301.175 289.427 301.175 288.962C301.175 288.486 301.07 288.061 300.861 287.689C300.655 287.312 300.371 287.016 300.009 286.799C299.646 286.582 299.233 286.472 298.768 286.469C298.434 286.465 298.091 286.517 297.74 286.623C297.388 286.726 297.099 286.859 296.871 287.023L295.635 286.874L296.296 281.504H301.964V282.676H297.404L297.02 285.893H297.084C297.308 285.716 297.589 285.569 297.926 285.451C298.263 285.334 298.615 285.276 298.981 285.276C299.648 285.276 300.243 285.435 300.765 285.755C301.291 286.071 301.703 286.504 302.001 287.055C302.303 287.605 302.454 288.234 302.454 288.94C302.454 289.636 302.297 290.258 301.985 290.805C301.676 291.348 301.25 291.778 300.706 292.094C300.163 292.406 299.545 292.562 298.853 292.562ZM310.131 290.368V289.793C310.131 289.395 310.212 289.031 310.376 288.701C310.543 288.367 310.784 288.1 311.1 287.902C311.42 287.699 311.807 287.598 312.261 287.598C312.723 287.598 313.11 287.699 313.423 287.902C313.735 288.1 313.971 288.367 314.131 288.701C314.291 289.031 314.371 289.395 314.371 289.793V290.368C314.371 290.766 314.289 291.131 314.126 291.465C313.966 291.795 313.728 292.062 313.412 292.264C313.1 292.463 312.716 292.562 312.261 292.562C311.8 292.562 311.411 292.463 311.095 292.264C310.779 292.062 310.539 291.795 310.376 291.465C310.212 291.131 310.131 290.766 310.131 290.368ZM311.217 289.793V290.368C311.217 290.698 311.296 290.995 311.452 291.257C311.608 291.517 311.878 291.646 312.261 291.646C312.634 291.646 312.897 291.517 313.05 291.257C313.206 290.995 313.284 290.698 313.284 290.368V289.793C313.284 289.462 313.21 289.168 313.06 288.908C312.911 288.646 312.645 288.514 312.261 288.514C311.889 288.514 311.62 288.646 311.457 288.908C311.297 289.168 311.217 289.462 311.217 289.793ZM304.698 284.125V283.55C304.698 283.152 304.779 282.788 304.943 282.458C305.109 282.124 305.351 281.858 305.667 281.659C305.987 281.456 306.374 281.355 306.828 281.355C307.29 281.355 307.677 281.456 307.989 281.659C308.302 281.858 308.538 282.124 308.698 282.458C308.858 282.788 308.938 283.152 308.938 283.55V284.125C308.938 284.523 308.856 284.888 308.693 285.222C308.533 285.553 308.295 285.819 307.979 286.021C307.666 286.22 307.283 286.32 306.828 286.32C306.367 286.32 305.978 286.22 305.662 286.021C305.346 285.819 305.106 285.553 304.943 285.222C304.779 284.888 304.698 284.523 304.698 284.125ZM305.784 283.55V284.125C305.784 284.455 305.862 284.752 306.019 285.015C306.175 285.274 306.445 285.403 306.828 285.403C307.201 285.403 307.464 285.274 307.617 285.015C307.773 284.752 307.851 284.455 307.851 284.125V283.55C307.851 283.219 307.776 282.925 307.627 282.665C307.478 282.403 307.212 282.271 306.828 282.271C306.455 282.271 306.187 282.403 306.024 282.665C305.864 282.925 305.784 283.219 305.784 283.55ZM305.102 292.413L312.602 281.504H313.817L306.317 292.413H305.102ZM319.847 293.463H334.847V278.463H319.847V293.463ZM98.321 314.413V303.504H99.5781V307.531H99.6847C99.777 307.389 99.9048 307.208 100.068 306.988C100.235 306.764 100.473 306.565 100.782 306.391C101.094 306.214 101.517 306.125 102.05 306.125C102.739 306.125 103.346 306.297 103.871 306.642C104.397 306.986 104.807 307.474 105.102 308.107C105.397 308.739 105.544 309.484 105.544 310.344C105.544 311.21 105.397 311.961 105.102 312.597C104.807 313.229 104.399 313.719 103.877 314.067C103.355 314.412 102.753 314.584 102.071 314.584C101.545 314.584 101.125 314.497 100.809 314.323C100.493 314.145 100.249 313.945 100.079 313.721C99.9084 313.494 99.777 313.305 99.6847 313.156H99.5355V314.413H98.321ZM99.5568 310.322C99.5568 310.94 99.6474 311.485 99.8285 311.958C100.01 312.426 100.274 312.794 100.622 313.06C100.97 313.323 101.396 313.455 101.901 313.455C102.426 313.455 102.865 313.316 103.216 313.039C103.571 312.759 103.838 312.382 104.015 311.91C104.196 311.434 104.287 310.905 104.287 310.322C104.287 309.747 104.198 309.229 104.021 308.767C103.847 308.302 103.582 307.934 103.227 307.664C102.875 307.391 102.433 307.254 101.901 307.254C101.389 307.254 100.96 307.384 100.612 307.643C100.263 307.899 100.001 308.257 99.8232 308.719C99.6456 309.177 99.5568 309.712 99.5568 310.322ZM110.897 314.584C110.109 314.584 109.429 314.41 108.857 314.062C108.289 313.71 107.85 313.22 107.542 312.592C107.236 311.959 107.083 311.224 107.083 310.386C107.083 309.548 107.236 308.81 107.542 308.17C107.85 307.528 108.28 307.027 108.831 306.668C109.385 306.306 110.031 306.125 110.77 306.125C111.196 306.125 111.616 306.196 112.032 306.338C112.447 306.48 112.826 306.711 113.167 307.031C113.507 307.347 113.779 307.766 113.982 308.288C114.184 308.81 114.285 309.452 114.285 310.216V310.749H107.978V309.662H113.007C113.007 309.2 112.914 308.788 112.73 308.426C112.549 308.064 112.289 307.778 111.952 307.569C111.618 307.359 111.224 307.254 110.77 307.254C110.269 307.254 109.836 307.379 109.47 307.627C109.108 307.872 108.829 308.192 108.634 308.586C108.438 308.98 108.341 309.403 108.341 309.854V310.578C108.341 311.196 108.447 311.72 108.66 312.149C108.877 312.576 109.177 312.901 109.56 313.124C109.944 313.344 110.39 313.455 110.897 313.455C111.228 313.455 111.526 313.408 111.792 313.316C112.062 313.22 112.295 313.078 112.49 312.89C112.685 312.698 112.836 312.46 112.943 312.176L114.157 312.517C114.029 312.929 113.815 313.291 113.513 313.604C113.211 313.913 112.838 314.154 112.394 314.328C111.95 314.499 111.451 314.584 110.897 314.584ZM119.756 306.232V307.297H115.516V306.232H119.756ZM116.751 304.271H118.009V312.07C118.009 312.425 118.06 312.691 118.163 312.869C118.27 313.043 118.404 313.16 118.568 313.22C118.735 313.277 118.911 313.305 119.095 313.305C119.234 313.305 119.347 313.298 119.436 313.284C119.525 313.266 119.596 313.252 119.649 313.241L119.905 314.371C119.82 314.403 119.701 314.435 119.548 314.467C119.395 314.502 119.202 314.52 118.967 314.52C118.612 314.52 118.264 314.444 117.923 314.291C117.586 314.138 117.305 313.906 117.082 313.593C116.862 313.281 116.751 312.886 116.751 312.41V304.271ZM125.205 306.232V307.297H120.965V306.232H125.205ZM122.201 304.271H123.458V312.07C123.458 312.425 123.509 312.691 123.612 312.869C123.719 313.043 123.854 313.16 124.017 313.22C124.184 313.277 124.36 313.305 124.544 313.305C124.683 313.305 124.797 313.298 124.885 313.284C124.974 313.266 125.045 313.252 125.098 313.241L125.354 314.371C125.269 314.403 125.15 314.435 124.997 314.467C124.844 314.502 124.651 314.52 124.417 314.52C124.061 314.52 123.713 314.444 123.373 314.291C123.035 314.138 122.755 313.906 122.531 313.593C122.311 313.281 122.201 312.886 122.201 312.41V304.271ZM130.438 314.584C129.65 314.584 128.97 314.41 128.398 314.062C127.83 313.71 127.392 313.22 127.083 312.592C126.777 311.959 126.624 311.224 126.624 310.386C126.624 309.548 126.777 308.81 127.083 308.17C127.392 307.528 127.821 307.027 128.372 306.668C128.926 306.306 129.572 306.125 130.311 306.125C130.737 306.125 131.157 306.196 131.573 306.338C131.988 306.48 132.367 306.711 132.708 307.031C133.048 307.347 133.32 307.766 133.523 308.288C133.725 308.81 133.826 309.452 133.826 310.216V310.749H127.519V309.662H132.548C132.548 309.2 132.455 308.788 132.271 308.426C132.09 308.064 131.83 307.778 131.493 307.569C131.159 307.359 130.765 307.254 130.311 307.254C129.81 307.254 129.377 307.379 129.011 307.627C128.649 307.872 128.37 308.192 128.175 308.586C127.979 308.98 127.882 309.403 127.882 309.854V310.578C127.882 311.196 127.988 311.72 128.201 312.149C128.418 312.576 128.718 312.901 129.101 313.124C129.485 313.344 129.931 313.455 130.438 313.455C130.769 313.455 131.067 313.408 131.333 313.316C131.603 313.22 131.836 313.078 132.031 312.89C132.226 312.698 132.377 312.46 132.484 312.176L133.698 312.517C133.57 312.929 133.356 313.291 133.054 313.604C132.752 313.913 132.379 314.154 131.935 314.328C131.491 314.499 130.992 314.584 130.438 314.584ZM135.738 314.413V306.232H136.953V307.467H137.038C137.187 307.062 137.457 306.734 137.848 306.482C138.238 306.23 138.679 306.104 139.169 306.104C139.261 306.104 139.377 306.105 139.515 306.109C139.654 306.113 139.758 306.118 139.829 306.125V307.403C139.787 307.393 139.689 307.377 139.536 307.355C139.387 307.331 139.229 307.318 139.062 307.318C138.665 307.318 138.309 307.402 137.997 307.569C137.688 307.732 137.443 307.959 137.262 308.25C137.084 308.538 136.996 308.866 136.996 309.236V314.413H135.738ZM148.862 314.584C148.095 314.584 147.435 314.403 146.881 314.04C146.327 313.678 145.9 313.179 145.602 312.544C145.304 311.908 145.155 311.182 145.155 310.365C145.155 309.534 145.307 308.801 145.613 308.165C145.922 307.526 146.351 307.027 146.902 306.668C147.456 306.306 148.102 306.125 148.841 306.125C149.416 306.125 149.935 306.232 150.396 306.445C150.858 306.658 151.236 306.956 151.531 307.339C151.826 307.723 152.008 308.17 152.079 308.682H150.822C150.726 308.309 150.513 307.979 150.183 307.691C149.856 307.4 149.416 307.254 148.862 307.254C148.372 307.254 147.942 307.382 147.573 307.638C147.207 307.89 146.921 308.247 146.715 308.708C146.513 309.167 146.412 309.705 146.412 310.322C146.412 310.955 146.511 311.505 146.71 311.974C146.913 312.442 147.197 312.806 147.562 313.066C147.932 313.325 148.365 313.455 148.862 313.455C149.189 313.455 149.485 313.398 149.752 313.284C150.018 313.17 150.244 313.007 150.428 312.794C150.613 312.581 150.744 312.325 150.822 312.027H152.079C152.008 312.51 151.833 312.945 151.552 313.332C151.275 313.716 150.908 314.021 150.449 314.248C149.995 314.472 149.466 314.584 148.862 314.584ZM157.241 314.584C156.502 314.584 155.854 314.408 155.297 314.056C154.743 313.705 154.31 313.213 153.997 312.581C153.688 311.949 153.534 311.21 153.534 310.365C153.534 309.513 153.688 308.769 153.997 308.133C154.31 307.497 154.743 307.004 155.297 306.652C155.854 306.301 156.502 306.125 157.241 306.125C157.98 306.125 158.626 306.301 159.18 306.652C159.737 307.004 160.171 307.497 160.48 308.133C160.792 308.769 160.948 309.513 160.948 310.365C160.948 311.21 160.792 311.949 160.48 312.581C160.171 313.213 159.737 313.705 159.18 314.056C158.626 314.408 157.98 314.584 157.241 314.584ZM157.241 313.455C157.802 313.455 158.264 313.311 158.626 313.023C158.988 312.735 159.256 312.357 159.43 311.888C159.604 311.42 159.691 310.912 159.691 310.365C159.691 309.818 159.604 309.309 159.43 308.836C159.256 308.364 158.988 307.982 158.626 307.691C158.264 307.4 157.802 307.254 157.241 307.254C156.68 307.254 156.218 307.4 155.856 307.691C155.494 307.982 155.226 308.364 155.052 308.836C154.878 309.309 154.791 309.818 154.791 310.365C154.791 310.912 154.878 311.42 155.052 311.888C155.226 312.357 155.494 312.735 155.856 313.023C156.218 313.311 156.68 313.455 157.241 313.455ZM162.867 314.413V306.232H164.082V307.51H164.188C164.359 307.073 164.634 306.734 165.014 306.493C165.394 306.247 165.85 306.125 166.383 306.125C166.923 306.125 167.372 306.247 167.731 306.493C168.093 306.734 168.375 307.073 168.578 307.51H168.663C168.872 307.087 169.187 306.752 169.606 306.503C170.025 306.251 170.527 306.125 171.113 306.125C171.845 306.125 172.443 306.354 172.908 306.812C173.373 307.267 173.606 307.975 173.606 308.937V314.413H172.349V308.937C172.349 308.334 172.184 307.902 171.854 307.643C171.523 307.384 171.134 307.254 170.687 307.254C170.112 307.254 169.666 307.428 169.35 307.776C169.034 308.121 168.876 308.558 168.876 309.087V314.413H167.597V308.81C167.597 308.344 167.447 307.97 167.145 307.686C166.843 307.398 166.454 307.254 165.978 307.254C165.651 307.254 165.346 307.341 165.062 307.515C164.781 307.689 164.554 307.931 164.38 308.24C164.21 308.545 164.124 308.898 164.124 309.3V314.413H162.867ZM175.904 317.482V306.232H177.119V307.531H177.268C177.36 307.389 177.488 307.208 177.652 306.988C177.819 306.764 178.056 306.565 178.365 306.391C178.678 306.214 179.1 306.125 179.633 306.125C180.322 306.125 180.929 306.297 181.455 306.642C181.98 306.986 182.391 307.474 182.685 308.107C182.98 308.739 183.127 309.484 183.127 310.344C183.127 311.21 182.98 311.961 182.685 312.597C182.391 313.229 181.982 313.719 181.46 314.067C180.938 314.412 180.336 314.584 179.654 314.584C179.129 314.584 178.708 314.497 178.392 314.323C178.076 314.145 177.833 313.945 177.662 313.721C177.492 313.494 177.36 313.305 177.268 313.156H177.162V317.482H175.904ZM177.14 310.322C177.14 310.94 177.231 311.485 177.412 311.958C177.593 312.426 177.858 312.794 178.206 313.06C178.554 313.323 178.98 313.455 179.484 313.455C180.01 313.455 180.448 313.316 180.8 313.039C181.155 312.759 181.421 312.382 181.599 311.91C181.78 311.434 181.87 310.905 181.87 310.322C181.87 309.747 181.782 309.229 181.604 308.767C181.43 308.302 181.165 307.934 180.81 307.664C180.459 307.391 180.017 307.254 179.484 307.254C178.973 307.254 178.543 307.384 178.195 307.643C177.847 307.899 177.584 308.257 177.407 308.719C177.229 309.177 177.14 309.712 177.14 310.322ZM187.453 314.605C186.934 314.605 186.464 314.507 186.041 314.312C185.619 314.113 185.283 313.827 185.034 313.455C184.786 313.078 184.662 312.624 184.662 312.091C184.662 311.622 184.754 311.242 184.939 310.951C185.123 310.656 185.37 310.425 185.679 310.259C185.988 310.092 186.329 309.967 186.702 309.886C187.078 309.8 187.456 309.733 187.836 309.683C188.333 309.619 188.737 309.571 189.045 309.539C189.358 309.504 189.585 309.445 189.727 309.364C189.873 309.282 189.946 309.14 189.946 308.937V308.895C189.946 308.369 189.802 307.961 189.514 307.67C189.23 307.379 188.799 307.233 188.22 307.233C187.62 307.233 187.149 307.364 186.808 307.627C186.467 307.89 186.228 308.17 186.089 308.469L184.896 308.043C185.109 307.545 185.393 307.158 185.748 306.881C186.107 306.601 186.498 306.406 186.92 306.295C187.346 306.182 187.765 306.125 188.177 306.125C188.44 306.125 188.742 306.157 189.083 306.221C189.427 306.281 189.759 306.407 190.079 306.599C190.402 306.791 190.67 307.08 190.883 307.467C191.096 307.854 191.203 308.373 191.203 309.023V314.413H189.946V313.305H189.882C189.797 313.483 189.654 313.673 189.456 313.875C189.257 314.078 188.992 314.25 188.662 314.392C188.332 314.534 187.929 314.605 187.453 314.605ZM187.645 313.476C188.142 313.476 188.561 313.378 188.902 313.183C189.246 312.988 189.505 312.735 189.679 312.426C189.857 312.118 189.946 311.793 189.946 311.452V310.301C189.892 310.365 189.775 310.424 189.594 310.477C189.417 310.527 189.211 310.571 188.976 310.61C188.745 310.646 188.52 310.678 188.3 310.706C188.083 310.731 187.907 310.752 187.772 310.77C187.446 310.812 187.14 310.882 186.856 310.978C186.576 311.07 186.348 311.21 186.174 311.398C186.004 311.583 185.919 311.835 185.919 312.155C185.919 312.592 186.08 312.922 186.403 313.146C186.73 313.366 187.144 313.476 187.645 313.476ZM193.497 314.413V306.232H194.712V307.467H194.797C194.946 307.062 195.216 306.734 195.607 306.482C195.997 306.23 196.438 306.104 196.928 306.104C197.02 306.104 197.135 306.105 197.274 306.109C197.412 306.113 197.517 306.118 197.588 306.125V307.403C197.546 307.393 197.448 307.377 197.295 307.355C197.146 307.331 196.988 307.318 196.821 307.318C196.423 307.318 196.068 307.402 195.756 307.569C195.447 307.732 195.202 307.959 195.021 308.25C194.843 308.538 194.754 308.866 194.754 309.236V314.413H193.497ZM202.26 314.584C201.471 314.584 200.791 314.41 200.22 314.062C199.651 313.71 199.213 313.22 198.904 312.592C198.598 311.959 198.446 311.224 198.446 310.386C198.446 309.548 198.598 308.81 198.904 308.17C199.213 307.528 199.642 307.027 200.193 306.668C200.747 306.306 201.393 306.125 202.132 306.125C202.558 306.125 202.979 306.196 203.394 306.338C203.81 306.48 204.188 306.711 204.529 307.031C204.87 307.347 205.141 307.766 205.344 308.288C205.546 308.81 205.647 309.452 205.647 310.216V310.749H199.341V309.662H204.369C204.369 309.2 204.277 308.788 204.092 308.426C203.911 308.064 203.652 307.778 203.314 307.569C202.981 307.359 202.586 307.254 202.132 307.254C201.631 307.254 201.198 307.379 200.832 307.627C200.47 307.872 200.191 308.192 199.996 308.586C199.801 308.98 199.703 309.403 199.703 309.854V310.578C199.703 311.196 199.809 311.72 200.022 312.149C200.239 312.576 200.539 312.901 200.923 313.124C201.306 313.344 201.752 313.455 202.26 313.455C202.59 313.455 202.888 313.408 203.155 313.316C203.424 313.22 203.657 313.078 203.852 312.89C204.048 312.698 204.199 312.46 204.305 312.176L205.52 312.517C205.392 312.929 205.177 313.291 204.875 313.604C204.573 313.913 204.2 314.154 203.756 314.328C203.313 314.499 202.814 314.584 202.26 314.584ZM210.649 314.584C209.967 314.584 209.366 314.412 208.843 314.067C208.321 313.719 207.913 313.229 207.618 312.597C207.324 311.961 207.176 311.21 207.176 310.344C207.176 309.484 207.324 308.739 207.618 308.107C207.913 307.474 208.323 306.986 208.849 306.642C209.374 306.297 209.982 306.125 210.671 306.125C211.203 306.125 211.624 306.214 211.933 306.391C212.245 306.565 212.483 306.764 212.647 306.988C212.814 307.208 212.943 307.389 213.036 307.531H213.142V303.504H214.399V314.413H213.185V313.156H213.036C212.943 313.305 212.812 313.494 212.641 313.721C212.471 313.945 212.228 314.145 211.912 314.323C211.596 314.497 211.175 314.584 210.649 314.584ZM210.82 313.455C211.324 313.455 211.75 313.323 212.098 313.06C212.446 312.794 212.711 312.426 212.892 311.958C213.073 311.485 213.163 310.94 213.163 310.322C213.163 309.712 213.075 309.177 212.897 308.719C212.72 308.257 212.457 307.899 212.109 307.643C211.761 307.384 211.331 307.254 210.82 307.254C210.287 307.254 209.843 307.391 209.488 307.664C209.136 307.934 208.872 308.302 208.694 308.767C208.52 309.229 208.433 309.747 208.433 310.322C208.433 310.905 208.522 311.434 208.7 311.91C208.881 312.382 209.147 312.759 209.499 313.039C209.854 313.316 210.294 313.455 210.82 313.455ZM224.653 306.232V307.297H220.413V306.232H224.653ZM221.649 304.271H222.906V312.07C222.906 312.425 222.957 312.691 223.06 312.869C223.167 313.043 223.302 313.16 223.465 313.22C223.632 313.277 223.808 313.305 223.993 313.305C224.131 313.305 224.245 313.298 224.334 313.284C224.422 313.266 224.493 313.252 224.547 313.241L224.802 314.371C224.717 314.403 224.598 314.435 224.445 314.467C224.293 314.502 224.099 314.52 223.865 314.52C223.51 314.52 223.162 314.444 222.821 314.291C222.483 314.138 222.203 313.906 221.979 313.593C221.759 313.281 221.649 312.886 221.649 312.41V304.271ZM229.78 314.584C229.041 314.584 228.393 314.408 227.836 314.056C227.282 313.705 226.849 313.213 226.536 312.581C226.227 311.949 226.073 311.21 226.073 310.365C226.073 309.513 226.227 308.769 226.536 308.133C226.849 307.497 227.282 307.004 227.836 306.652C228.393 306.301 229.041 306.125 229.78 306.125C230.519 306.125 231.165 306.301 231.719 306.652C232.277 307.004 232.71 307.497 233.019 308.133C233.331 308.769 233.487 309.513 233.487 310.365C233.487 311.21 233.331 311.949 233.019 312.581C232.71 313.213 232.277 313.705 231.719 314.056C231.165 314.408 230.519 314.584 229.78 314.584ZM229.78 313.455C230.341 313.455 230.803 313.311 231.165 313.023C231.527 312.735 231.795 312.357 231.969 311.888C232.143 311.42 232.23 310.912 232.23 310.365C232.23 309.818 232.143 309.309 231.969 308.836C231.795 308.364 231.527 307.982 231.165 307.691C230.803 307.4 230.341 307.254 229.78 307.254C229.219 307.254 228.757 307.4 228.395 307.691C228.033 307.982 227.765 308.364 227.591 308.836C227.417 309.309 227.33 309.818 227.33 310.365C227.33 310.912 227.417 311.42 227.591 311.888C227.765 312.357 228.033 312.735 228.395 313.023C228.757 313.311 229.219 313.455 229.78 313.455ZM240.882 303.504V314.413H239.625V303.504H240.882ZM245.592 314.605C245.074 314.605 244.603 314.507 244.181 314.312C243.758 314.113 243.423 313.827 243.174 313.455C242.926 313.078 242.801 312.624 242.801 312.091C242.801 311.622 242.894 311.242 243.078 310.951C243.263 310.656 243.51 310.425 243.819 310.259C244.128 310.092 244.468 309.967 244.841 309.886C245.218 309.8 245.596 309.733 245.976 309.683C246.473 309.619 246.876 309.571 247.185 309.539C247.498 309.504 247.725 309.445 247.867 309.364C248.013 309.282 248.085 309.14 248.085 308.937V308.895C248.085 308.369 247.941 307.961 247.654 307.67C247.37 307.379 246.938 307.233 246.359 307.233C245.759 307.233 245.289 307.364 244.948 307.627C244.607 307.89 244.367 308.17 244.229 308.469L243.036 308.043C243.249 307.545 243.533 307.158 243.888 306.881C244.247 306.601 244.637 306.406 245.06 306.295C245.486 306.182 245.905 306.125 246.317 306.125C246.58 306.125 246.881 306.157 247.222 306.221C247.567 306.281 247.899 306.407 248.218 306.599C248.542 306.791 248.81 307.08 249.023 307.467C249.236 307.854 249.342 308.373 249.342 309.023V314.413H248.085V313.305H248.021C247.936 313.483 247.794 313.673 247.595 313.875C247.396 314.078 247.132 314.25 246.802 314.392C246.471 314.534 246.068 314.605 245.592 314.605ZM245.784 313.476C246.281 313.476 246.7 313.378 247.041 313.183C247.386 312.988 247.645 312.735 247.819 312.426C247.997 312.118 248.085 311.793 248.085 311.452V310.301C248.032 310.365 247.915 310.424 247.734 310.477C247.556 310.527 247.35 310.571 247.116 310.61C246.885 310.646 246.66 310.678 246.439 310.706C246.223 310.731 246.047 310.752 245.912 310.77C245.585 310.812 245.28 310.882 244.996 310.978C244.715 311.07 244.488 311.21 244.314 311.398C244.144 311.583 244.058 311.835 244.058 312.155C244.058 312.592 244.22 312.922 244.543 313.146C244.87 313.366 245.283 313.476 245.784 313.476ZM257.432 308.064L256.303 308.384C256.232 308.195 256.127 308.012 255.989 307.835C255.854 307.654 255.669 307.505 255.435 307.387C255.2 307.27 254.9 307.212 254.535 307.212C254.034 307.212 253.617 307.327 253.283 307.558C252.953 307.785 252.787 308.075 252.787 308.426C252.787 308.739 252.901 308.985 253.128 309.167C253.356 309.348 253.711 309.499 254.194 309.619L255.408 309.918C256.14 310.095 256.685 310.367 257.044 310.733C257.402 311.095 257.581 311.562 257.581 312.134C257.581 312.602 257.447 313.021 257.177 313.391C256.91 313.76 256.537 314.051 256.058 314.264C255.579 314.477 255.021 314.584 254.385 314.584C253.551 314.584 252.86 314.403 252.313 314.04C251.767 313.678 251.42 313.149 251.275 312.453L252.468 312.155C252.581 312.595 252.796 312.925 253.112 313.146C253.432 313.366 253.849 313.476 254.364 313.476C254.95 313.476 255.415 313.352 255.76 313.103C256.108 312.851 256.282 312.549 256.282 312.197C256.282 311.913 256.182 311.675 255.983 311.484C255.785 311.288 255.479 311.143 255.067 311.047L253.704 310.727C252.954 310.55 252.404 310.274 252.052 309.902C251.704 309.525 251.53 309.055 251.53 308.49C251.53 308.028 251.66 307.62 251.919 307.265C252.182 306.91 252.539 306.631 252.99 306.429C253.444 306.226 253.959 306.125 254.535 306.125C255.344 306.125 255.98 306.303 256.442 306.658C256.907 307.013 257.237 307.482 257.432 308.064ZM263.032 306.232V307.297H258.792V306.232H263.032ZM260.028 304.271H261.285V312.07C261.285 312.425 261.336 312.691 261.439 312.869C261.546 313.043 261.681 313.16 261.844 313.22C262.011 313.277 262.187 313.305 262.372 313.305C262.51 313.305 262.624 313.298 262.712 313.284C262.801 313.266 262.872 313.252 262.926 313.241L263.181 314.371C263.096 314.403 262.977 314.435 262.824 314.467C262.672 314.502 262.478 314.52 262.244 314.52C261.889 314.52 261.541 314.444 261.2 314.291C260.862 314.138 260.582 313.906 260.358 313.593C260.138 313.281 260.028 312.886 260.028 312.41V304.271ZM269.142 314.413V306.232H270.356V307.51H270.463C270.633 307.073 270.908 306.734 271.288 306.493C271.668 306.247 272.125 306.125 272.657 306.125C273.197 306.125 273.646 306.247 274.005 306.493C274.367 306.734 274.65 307.073 274.852 307.51H274.937C275.147 307.087 275.461 306.752 275.88 306.503C276.299 306.251 276.802 306.125 277.388 306.125C278.119 306.125 278.717 306.354 279.183 306.812C279.648 307.267 279.88 307.975 279.88 308.937V314.413H278.623V308.937C278.623 308.334 278.458 307.902 278.128 307.643C277.798 307.384 277.409 307.254 276.961 307.254C276.386 307.254 275.94 307.428 275.624 307.776C275.308 308.121 275.15 308.558 275.15 309.087V314.413H273.872V308.81C273.872 308.344 273.721 307.97 273.419 307.686C273.117 307.398 272.728 307.254 272.253 307.254C271.926 307.254 271.62 307.341 271.336 307.515C271.056 307.689 270.829 307.931 270.655 308.24C270.484 308.545 270.399 308.898 270.399 309.3V314.413H269.142ZM285.503 314.584C284.764 314.584 284.116 314.408 283.559 314.056C283.005 313.705 282.571 313.213 282.259 312.581C281.95 311.949 281.795 311.21 281.795 310.365C281.795 309.513 281.95 308.769 282.259 308.133C282.571 307.497 283.005 307.004 283.559 306.652C284.116 306.301 284.764 306.125 285.503 306.125C286.241 306.125 286.888 306.301 287.442 306.652C287.999 307.004 288.432 307.497 288.741 308.133C289.054 308.769 289.21 309.513 289.21 310.365C289.21 311.21 289.054 311.949 288.741 312.581C288.432 313.213 287.999 313.705 287.442 314.056C286.888 314.408 286.241 314.584 285.503 314.584ZM285.503 313.455C286.064 313.455 286.525 313.311 286.888 313.023C287.25 312.735 287.518 312.357 287.692 311.888C287.866 311.42 287.953 310.912 287.953 310.365C287.953 309.818 287.866 309.309 287.692 308.836C287.518 308.364 287.25 307.982 286.888 307.691C286.525 307.4 286.064 307.254 285.503 307.254C284.942 307.254 284.48 307.4 284.118 307.691C283.756 307.982 283.487 308.364 283.313 308.836C283.139 309.309 283.052 309.818 283.052 310.365C283.052 310.912 283.139 311.42 283.313 311.888C283.487 312.357 283.756 312.735 284.118 313.023C284.48 313.311 284.942 313.455 285.503 313.455ZM292.386 309.491V314.413H291.129V306.232H292.344V307.51H292.45C292.642 307.094 292.933 306.761 293.324 306.509C293.714 306.253 294.219 306.125 294.836 306.125C295.39 306.125 295.875 306.239 296.291 306.466C296.706 306.69 297.029 307.031 297.26 307.489C297.491 307.943 297.606 308.518 297.606 309.214V314.413H296.349V309.3C296.349 308.657 296.182 308.156 295.849 307.798C295.515 307.435 295.057 307.254 294.474 307.254C294.073 307.254 293.714 307.341 293.398 307.515C293.086 307.689 292.839 307.943 292.658 308.277C292.477 308.611 292.386 309.016 292.386 309.491ZM303.462 306.232V307.297H299.222V306.232H303.462ZM300.457 304.271H301.715V312.07C301.715 312.425 301.766 312.691 301.869 312.869C301.976 313.043 302.111 313.16 302.274 313.22C302.441 313.277 302.617 313.305 302.801 313.305C302.94 313.305 303.053 313.298 303.142 313.284C303.231 313.266 303.302 313.252 303.355 313.241L303.611 314.371C303.526 314.403 303.407 314.435 303.254 314.467C303.101 314.502 302.908 314.52 302.673 314.52C302.318 314.52 301.97 314.444 301.629 314.291C301.292 314.138 301.011 313.906 300.788 313.593C300.568 313.281 300.457 312.886 300.457 312.41V304.271ZM306.786 309.491V314.413H305.528V303.504H306.786V307.51H306.892C307.084 307.087 307.372 306.752 307.755 306.503C308.142 306.251 308.657 306.125 309.3 306.125C309.857 306.125 310.346 306.237 310.765 306.461C311.184 306.681 311.509 307.02 311.739 307.478C311.974 307.933 312.091 308.511 312.091 309.214V314.413H310.834V309.3C310.834 308.65 310.665 308.147 310.328 307.792C309.994 307.434 309.531 307.254 308.938 307.254C308.526 307.254 308.156 307.341 307.83 307.515C307.506 307.689 307.251 307.943 307.063 308.277C306.878 308.611 306.786 309.016 306.786 309.491Z" fill="#2E263D" fill-opacity="0.7"/>
<g filter="url(#filter1_d_8003_2434)">
<path d="M30 341C30 337.686 32.6863 335 36 335H345.333C348.647 335 351.333 337.686 351.333 341V367C351.333 370.314 348.647 373 345.333 373H36C32.6863 373 30 370.314 30 367V341Z" fill="#8C57FF"/>
<path d="M170.397 359H166.865V348.091H170.509C171.578 348.091 172.496 348.309 173.263 348.746C174.03 349.179 174.617 349.803 175.026 350.616C175.438 351.425 175.644 352.397 175.644 353.529C175.644 354.666 175.436 355.642 175.02 356.459C174.608 357.276 174.012 357.904 173.231 358.345C172.449 358.782 171.505 359 170.397 359ZM168.511 357.562H170.306C171.137 357.562 171.828 357.406 172.378 357.093C172.929 356.777 173.341 356.321 173.614 355.724C173.888 355.124 174.024 354.392 174.024 353.529C174.024 352.674 173.888 351.947 173.614 351.351C173.344 350.754 172.941 350.301 172.405 349.993C171.869 349.684 171.203 349.529 170.407 349.529H168.511V357.562ZM181.089 359.165C180.283 359.165 179.588 358.993 179.006 358.648C178.427 358.3 177.98 357.812 177.664 357.184C177.351 356.551 177.195 355.811 177.195 354.962C177.195 354.124 177.351 353.386 177.664 352.746C177.98 352.107 178.42 351.608 178.985 351.25C179.553 350.891 180.217 350.712 180.977 350.712C181.439 350.712 181.886 350.788 182.319 350.941C182.753 351.093 183.141 351.333 183.486 351.66C183.83 351.987 184.102 352.411 184.301 352.933C184.5 353.451 184.599 354.082 184.599 354.824V355.388H178.095V354.195H183.038C183.038 353.776 182.953 353.405 182.783 353.082C182.612 352.755 182.373 352.498 182.064 352.31C181.758 352.121 181.4 352.027 180.988 352.027C180.54 352.027 180.15 352.137 179.816 352.358C179.485 352.574 179.23 352.858 179.049 353.21C178.871 353.558 178.782 353.936 178.782 354.344V355.277C178.782 355.824 178.878 356.289 179.07 356.672C179.265 357.056 179.537 357.349 179.885 357.551C180.233 357.75 180.64 357.849 181.105 357.849C181.407 357.849 181.682 357.807 181.93 357.722C182.179 357.633 182.394 357.501 182.575 357.327C182.756 357.153 182.895 356.939 182.99 356.683L184.498 356.955C184.377 357.398 184.161 357.787 183.848 358.121C183.539 358.451 183.15 358.709 182.681 358.893C182.216 359.075 181.685 359.165 181.089 359.165ZM190.185 350.818V352.097H185.716V350.818H190.185ZM186.915 348.858H188.508V356.598C188.508 356.907 188.554 357.139 188.646 357.295C188.738 357.448 188.857 357.553 189.003 357.61C189.152 357.663 189.314 357.69 189.488 357.69C189.616 357.69 189.727 357.681 189.823 357.663C189.919 357.645 189.994 357.631 190.047 357.62L190.335 358.936C190.242 358.972 190.111 359.007 189.94 359.043C189.77 359.082 189.557 359.103 189.301 359.107C188.882 359.114 188.492 359.039 188.129 358.883C187.767 358.727 187.474 358.485 187.25 358.158C187.027 357.832 186.915 357.422 186.915 356.928V348.858ZM194.328 359.181C193.81 359.181 193.341 359.085 192.922 358.893C192.503 358.698 192.171 358.416 191.926 358.047C191.685 357.677 191.564 357.224 191.564 356.688C191.564 356.227 191.653 355.847 191.83 355.548C192.008 355.25 192.247 355.014 192.549 354.84C192.851 354.666 193.188 354.534 193.561 354.446C193.934 354.357 194.314 354.289 194.701 354.243C195.191 354.186 195.589 354.14 195.894 354.105C196.2 354.066 196.422 354.004 196.56 353.918C196.699 353.833 196.768 353.695 196.768 353.503V353.466C196.768 353 196.637 352.64 196.374 352.384C196.115 352.129 195.727 352.001 195.213 352.001C194.676 352.001 194.254 352.12 193.945 352.358C193.639 352.592 193.428 352.853 193.311 353.141L191.814 352.8C191.992 352.303 192.251 351.901 192.592 351.596C192.936 351.287 193.332 351.063 193.78 350.925C194.227 350.783 194.698 350.712 195.191 350.712C195.518 350.712 195.864 350.751 196.23 350.829C196.599 350.903 196.944 351.042 197.263 351.244C197.587 351.447 197.851 351.736 198.057 352.113C198.263 352.485 198.366 352.97 198.366 353.567V359H196.811V357.881H196.747C196.644 358.087 196.489 358.29 196.283 358.489C196.077 358.687 195.813 358.853 195.49 358.984C195.166 359.115 194.779 359.181 194.328 359.181ZM194.675 357.903C195.115 357.903 195.491 357.816 195.804 357.642C196.12 357.468 196.36 357.24 196.523 356.96C196.69 356.676 196.773 356.372 196.773 356.049V354.994C196.716 355.051 196.606 355.104 196.443 355.154C196.283 355.2 196.1 355.241 195.894 355.277C195.688 355.309 195.488 355.339 195.292 355.367C195.097 355.392 194.934 355.413 194.802 355.431C194.493 355.47 194.211 355.536 193.955 355.628C193.703 355.721 193.501 355.854 193.348 356.028C193.199 356.198 193.125 356.425 193.125 356.71C193.125 357.104 193.27 357.402 193.561 357.604C193.852 357.803 194.224 357.903 194.675 357.903ZM200.487 359V350.818H202.08V359H200.487ZM201.292 349.556C201.015 349.556 200.777 349.463 200.578 349.279C200.383 349.091 200.285 348.867 200.285 348.608C200.285 348.345 200.383 348.121 200.578 347.936C200.777 347.748 201.015 347.654 201.292 347.654C201.569 347.654 201.805 347.748 202 347.936C202.199 348.121 202.298 348.345 202.298 348.608C202.298 348.867 202.199 349.091 202 349.279C201.805 349.463 201.569 349.556 201.292 349.556ZM205.815 348.091V359H204.223V348.091H205.815ZM214.089 352.816L212.646 353.071C212.585 352.887 212.489 352.711 212.358 352.544C212.23 352.377 212.056 352.24 211.836 352.134C211.616 352.027 211.341 351.974 211.01 351.974C210.559 351.974 210.183 352.075 209.881 352.278C209.579 352.477 209.428 352.734 209.428 353.05C209.428 353.324 209.529 353.544 209.732 353.711C209.934 353.877 210.261 354.014 210.712 354.121L212.012 354.419C212.765 354.593 213.326 354.861 213.695 355.223C214.064 355.586 214.249 356.056 214.249 356.635C214.249 357.125 214.107 357.562 213.823 357.945C213.542 358.325 213.15 358.624 212.646 358.84C212.145 359.057 211.564 359.165 210.904 359.165C209.988 359.165 209.24 358.97 208.661 358.579C208.082 358.185 207.727 357.626 207.596 356.901L209.135 356.667C209.231 357.068 209.428 357.372 209.727 357.578C210.025 357.78 210.414 357.881 210.893 357.881C211.415 357.881 211.832 357.773 212.145 357.556C212.457 357.336 212.614 357.068 212.614 356.752C212.614 356.496 212.518 356.282 212.326 356.108C212.138 355.934 211.848 355.802 211.458 355.713L210.073 355.41C209.309 355.236 208.745 354.959 208.379 354.579C208.017 354.199 207.836 353.718 207.836 353.135C207.836 352.652 207.97 352.23 208.24 351.868C208.51 351.505 208.883 351.223 209.359 351.021C209.835 350.815 210.38 350.712 210.994 350.712C211.878 350.712 212.575 350.903 213.082 351.287C213.59 351.667 213.926 352.176 214.089 352.816Z" fill="white"/>
</g>
</g>
<defs>
<filter id="filter0_d_8003_2434" x="0" y="0" width="381.333" height="407" filterUnits="userSpaceOnUse" color-interpolation-filters="sRGB">
<feFlood flood-opacity="0" result="BackgroundImageFix"/>
<feColorMatrix in="SourceAlpha" type="matrix" values="0 0 0 0 0 0 0 0 0 0 0 0 0 0 0 0 0 0 127 0" result="hardAlpha"/>
<feOffset dy="4"/>
<feGaussianBlur stdDeviation="5"/>
<feComposite in2="hardAlpha" operator="out"/>
<feColorMatrix type="matrix" values="0 0 0 0 0.180392 0 0 0 0 0.14902 0 0 0 0 0.239216 0 0 0 0.2 0"/>
<feBlend mode="normal" in2="BackgroundImageFix" result="effect1_dropShadow_8003_2434"/>
<feBlend mode="normal" in="SourceGraphic" in2="effect1_dropShadow_8003_2434" result="shape"/>
</filter>
<filter id="filter1_d_8003_2434" x="26" y="333" width="329.333" height="46" filterUnits="userSpaceOnUse" color-interpolation-filters="sRGB">
<feFlood flood-opacity="0" result="BackgroundImageFix"/>
<feColorMatrix in="SourceAlpha" type="matrix" values="0 0 0 0 0 0 0 0 0 0 0 0 0 0 0 0 0 0 127 0" result="hardAlpha"/>
<feOffset dy="2"/>
<feGaussianBlur stdDeviation="2"/>
<feColorMatrix type="matrix" values="0 0 0 0 0.180392 0 0 0 0 0.14902 0 0 0 0 0.239216 0 0 0 0.16 0"/>
<feBlend mode="normal" in2="BackgroundImageFix" result="effect1_dropShadow_8003_2434"/>
<feBlend mode="normal" in="SourceGraphic" in2="effect1_dropShadow_8003_2434" result="shape"/>
</filter>
</defs>
</svg>
