<svg width="382" height="407" viewBox="0 0 382 407" fill="none" xmlns="http://www.w3.org/2000/svg">
<g filter="url(#filter0_d_8003_5715)">
<path d="M10 12C10 8.68629 12.6863 6 16 6H365.333C368.647 6 371.333 8.68629 371.333 12V387C371.333 390.314 368.647 393 365.333 393H16C12.6863 393 10 390.314 10 387V12Z" fill="white" shape-rendering="crispEdges"/>
<path d="M34.0014 47L30.3707 33.9091H32.4482L34.9986 44.0469H35.12L37.7727 33.9091H39.831L42.4837 44.0533H42.6051L45.1491 33.9091H47.233L43.5959 47H41.608L38.853 37.1946H38.7507L35.9957 47H34.0014ZM52.1452 47.1982C51.1779 47.1982 50.3448 46.9915 49.646 46.5781C48.9513 46.1605 48.4144 45.5746 48.0352 44.8203C47.6602 44.0618 47.4727 43.1733 47.4727 42.1548C47.4727 41.1491 47.6602 40.2628 48.0352 39.4957C48.4144 38.7287 48.9428 38.13 49.6204 37.6996C50.3022 37.2692 51.0991 37.054 52.011 37.054C52.565 37.054 53.1019 37.1456 53.6218 37.3288C54.1417 37.5121 54.6083 37.7997 55.0217 38.1918C55.435 38.5838 55.761 39.093 55.9996 39.7195C56.2383 40.3416 56.3576 41.098 56.3576 41.9886V42.6662H48.5529V41.2344H54.4847C54.4847 40.7315 54.3825 40.2862 54.1779 39.8984C53.9734 39.5064 53.6857 39.1974 53.315 38.9716C52.9485 38.7457 52.5181 38.6328 52.0238 38.6328C51.4869 38.6328 51.0181 38.7649 50.6175 39.0291C50.2212 39.2891 49.9144 39.63 49.6971 40.0518C49.484 40.4695 49.3775 40.9233 49.3775 41.4134V42.532C49.3775 43.1882 49.4925 43.7464 49.7227 44.2067C49.957 44.6669 50.283 45.0185 50.7006 45.2614C51.1183 45.5 51.6062 45.6193 52.1644 45.6193C52.5266 45.6193 52.8569 45.5682 53.1552 45.4659C53.4535 45.3594 53.7113 45.2017 53.9286 44.9929C54.146 44.7841 54.3121 44.5263 54.4272 44.2195L56.2362 44.5455C56.0913 45.0781 55.8313 45.5447 55.4563 45.9453C55.0856 46.3416 54.619 46.6506 54.0565 46.8722C53.4982 47.0895 52.8612 47.1982 52.1452 47.1982ZM62.7097 47.1982C61.7424 47.1982 60.9093 46.9915 60.2104 46.5781C59.5158 46.1605 58.9789 45.5746 58.5996 44.8203C58.2246 44.0618 58.0371 43.1733 58.0371 42.1548C58.0371 41.1491 58.2246 40.2628 58.5996 39.4957C58.9789 38.7287 59.5073 38.13 60.1848 37.6996C60.8667 37.2692 61.6635 37.054 62.5755 37.054C63.1294 37.054 63.6664 37.1456 64.1863 37.3288C64.7061 37.5121 65.1728 37.7997 65.5861 38.1918C65.9995 38.5838 66.3255 39.093 66.5641 39.7195C66.8027 40.3416 66.9221 41.098 66.9221 41.9886V42.6662H59.1174V41.2344H65.0492C65.0492 40.7315 64.9469 40.2862 64.7424 39.8984C64.5378 39.5064 64.2502 39.1974 63.8794 38.9716C63.513 38.7457 63.0826 38.6328 62.5882 38.6328C62.0513 38.6328 61.5826 38.7649 61.182 39.0291C60.7857 39.2891 60.4789 39.63 60.2615 40.0518C60.0485 40.4695 59.9419 40.9233 59.9419 41.4134V42.532C59.9419 43.1882 60.057 43.7464 60.2871 44.2067C60.5215 44.6669 60.8475 45.0185 61.2651 45.2614C61.6827 45.5 62.1706 45.6193 62.7289 45.6193C63.0911 45.6193 63.4213 45.5682 63.7196 45.4659C64.0179 45.3594 64.2757 45.2017 64.4931 44.9929C64.7104 44.7841 64.8766 44.5263 64.9917 44.2195L66.8006 44.5455C66.6557 45.0781 66.3958 45.5447 66.0208 45.9453C65.65 46.3416 65.1834 46.6506 64.6209 46.8722C64.0627 47.0895 63.4256 47.1982 62.7097 47.1982ZM70.8004 43.6697L70.7876 41.3366H71.12L75.032 37.1818H77.3203L72.8587 41.9119H72.5582L70.8004 43.6697ZM69.0426 47V33.9091H70.9538V47H69.0426ZM75.2429 47L71.7273 42.3338L73.044 40.9979L77.5888 47H75.2429ZM80.9734 33.9091V47H79.0621V33.9091H80.9734ZM84.7527 50.6818C84.4672 50.6818 84.2072 50.6584 83.9728 50.6115C83.7385 50.5689 83.5637 50.522 83.4487 50.4709L83.9089 48.9048C84.2583 48.9986 84.5694 49.0391 84.8422 49.0263C85.1149 49.0135 85.3556 48.9112 85.5645 48.7195C85.7775 48.5277 85.965 48.2145 86.127 47.7798L86.3635 47.1278L82.7711 37.1818H84.8166L87.3031 44.8011H87.4054L89.8919 37.1818H91.9437L87.8976 48.3104C87.7101 48.8217 87.4714 49.2543 87.1816 49.608C86.8919 49.9659 86.5467 50.2344 86.1461 50.4134C85.7456 50.5923 85.2811 50.6818 84.7527 50.6818ZM105.797 37.348C105.729 36.7429 105.447 36.2741 104.953 35.9418C104.459 35.6051 103.837 35.4368 103.087 35.4368C102.55 35.4368 102.085 35.522 101.693 35.6925C101.301 35.8587 100.996 36.0888 100.779 36.3828C100.566 36.6726 100.46 37.0028 100.46 37.3736C100.46 37.6847 100.532 37.9531 100.677 38.179C100.826 38.4048 101.02 38.5945 101.259 38.7479C101.501 38.897 101.761 39.0227 102.038 39.125C102.315 39.223 102.582 39.304 102.837 39.3679L104.116 39.7003C104.533 39.8026 104.962 39.9411 105.401 40.1158C105.839 40.2905 106.246 40.5206 106.621 40.8061C106.996 41.0916 107.299 41.4453 107.529 41.8672C107.763 42.2891 107.881 42.794 107.881 43.3821C107.881 44.1236 107.689 44.782 107.305 45.3572C106.926 45.9325 106.374 46.3864 105.65 46.7188C104.93 47.0511 104.058 47.2173 103.036 47.2173C102.055 47.2173 101.207 47.0618 100.491 46.7507C99.7756 46.4396 99.2152 45.9986 98.8104 45.4276C98.4055 44.8523 98.1818 44.1705 98.1392 43.3821H100.121C100.159 43.8551 100.313 44.2493 100.581 44.5646C100.854 44.8757 101.201 45.108 101.623 45.2614C102.049 45.4105 102.516 45.4851 103.023 45.4851C103.581 45.4851 104.077 45.3977 104.512 45.223C104.951 45.044 105.296 44.7969 105.548 44.4815C105.799 44.1619 105.925 43.7891 105.925 43.3629C105.925 42.9751 105.814 42.6577 105.592 42.4105C105.375 42.1634 105.079 41.9588 104.704 41.7969C104.333 41.6349 103.913 41.4922 103.445 41.3686L101.898 40.9467C100.849 40.6612 100.018 40.2415 99.4048 39.6875C98.7955 39.1335 98.4908 38.4006 98.4908 37.4886C98.4908 36.7344 98.6953 36.076 99.1044 35.5135C99.5135 34.951 100.067 34.5142 100.766 34.2031C101.465 33.8878 102.254 33.7301 103.131 33.7301C104.018 33.7301 104.8 33.8857 105.477 34.1967C106.159 34.5078 106.696 34.9361 107.088 35.4815C107.48 36.0227 107.685 36.6449 107.702 37.348H105.797ZM112.945 47.2173C112.323 47.2173 111.76 47.1023 111.257 46.8722C110.754 46.6378 110.356 46.299 110.062 45.8558C109.772 45.4126 109.627 44.8693 109.627 44.2259C109.627 43.6719 109.734 43.2159 109.947 42.858C110.16 42.5 110.448 42.2166 110.81 42.0078C111.172 41.799 111.577 41.6413 112.024 41.5348C112.472 41.4283 112.928 41.3473 113.392 41.2919C113.98 41.2237 114.458 41.1683 114.824 41.1257C115.191 41.0788 115.457 41.0043 115.623 40.902C115.789 40.7997 115.872 40.6335 115.872 40.4034V40.3587C115.872 39.8004 115.715 39.3679 115.399 39.0611C115.088 38.7543 114.624 38.6009 114.006 38.6009C113.362 38.6009 112.855 38.7436 112.485 39.0291C112.118 39.3104 111.865 39.6236 111.724 39.9688L109.928 39.5597C110.141 38.9631 110.452 38.4815 110.861 38.1151C111.274 37.7443 111.749 37.4759 112.286 37.3097C112.823 37.1392 113.388 37.054 113.98 37.054C114.372 37.054 114.788 37.1009 115.227 37.1946C115.67 37.2841 116.083 37.4503 116.467 37.6932C116.855 37.9361 117.172 38.2834 117.419 38.7351C117.666 39.1825 117.79 39.7642 117.79 40.4801V47H115.923V45.6577H115.847C115.723 45.9048 115.538 46.1477 115.291 46.3864C115.044 46.625 114.726 46.8232 114.338 46.9808C113.95 47.1385 113.486 47.2173 112.945 47.2173ZM113.36 45.6832C113.889 45.6832 114.34 45.5788 114.715 45.37C115.095 45.1612 115.382 44.8885 115.578 44.5518C115.779 44.2109 115.879 43.8466 115.879 43.4588V42.1932C115.811 42.2614 115.678 42.3253 115.482 42.3849C115.291 42.4403 115.071 42.4893 114.824 42.532C114.577 42.5703 114.336 42.6065 114.102 42.6406C113.867 42.6705 113.671 42.696 113.514 42.7173C113.143 42.7642 112.804 42.843 112.497 42.9538C112.195 43.0646 111.952 43.2244 111.769 43.4332C111.59 43.6378 111.5 43.9105 111.5 44.2514C111.5 44.7244 111.675 45.0824 112.024 45.3253C112.374 45.5639 112.819 45.6832 113.36 45.6832ZM122.247 33.9091V47H120.336V33.9091H122.247ZM129.05 47.1982C128.082 47.1982 127.249 46.9915 126.55 46.5781C125.856 46.1605 125.319 45.5746 124.939 44.8203C124.564 44.0618 124.377 43.1733 124.377 42.1548C124.377 41.1491 124.564 40.2628 124.939 39.4957C125.319 38.7287 125.847 38.13 126.525 37.6996C127.206 37.2692 128.003 37.054 128.915 37.054C129.469 37.054 130.006 37.1456 130.526 37.3288C131.046 37.5121 131.513 37.7997 131.926 38.1918C132.339 38.5838 132.665 39.093 132.904 39.7195C133.143 40.3416 133.262 41.098 133.262 41.9886V42.6662H125.457V41.2344H131.389C131.389 40.7315 131.287 40.2862 131.082 39.8984C130.878 39.5064 130.59 39.1974 130.219 38.9716C129.853 38.7457 129.422 38.6328 128.928 38.6328C128.391 38.6328 127.922 38.7649 127.522 39.0291C127.126 39.2891 126.819 39.63 126.601 40.0518C126.388 40.4695 126.282 40.9233 126.282 41.4134V42.532C126.282 43.1882 126.397 43.7464 126.627 44.2067C126.861 44.6669 127.187 45.0185 127.605 45.2614C128.023 45.5 128.51 45.6193 129.069 45.6193C129.431 45.6193 129.761 45.5682 130.059 45.4659C130.358 45.3594 130.616 45.2017 130.833 44.9929C131.05 44.7841 131.216 44.5263 131.331 44.2195L133.14 44.5455C132.996 45.0781 132.736 45.5447 132.361 45.9453C131.99 46.3416 131.523 46.6506 130.961 46.8722C130.403 47.0895 129.765 47.1982 129.05 47.1982ZM142.74 39.5788L141.007 39.8857C140.935 39.6641 140.82 39.4531 140.662 39.2528C140.509 39.0526 140.3 38.8885 140.036 38.7607C139.772 38.6328 139.441 38.5689 139.045 38.5689C138.504 38.5689 138.052 38.6903 137.69 38.9332C137.328 39.1719 137.147 39.4808 137.147 39.8601C137.147 40.1882 137.268 40.4524 137.511 40.6527C137.754 40.853 138.146 41.017 138.687 41.1449L140.247 41.5028C141.15 41.7116 141.824 42.0334 142.267 42.468C142.71 42.9027 142.931 43.4673 142.931 44.1619C142.931 44.75 142.761 45.2741 142.42 45.7344C142.083 46.1903 141.613 46.5483 141.007 46.8082C140.407 47.0682 139.71 47.1982 138.917 47.1982C137.818 47.1982 136.921 46.9638 136.226 46.495C135.532 46.022 135.105 45.3509 134.948 44.4815L136.795 44.2003C136.91 44.6818 137.147 45.0462 137.505 45.2933C137.863 45.5362 138.329 45.6577 138.904 45.6577C139.531 45.6577 140.032 45.5277 140.407 45.2678C140.782 45.0036 140.969 44.6818 140.969 44.3026C140.969 43.9957 140.854 43.7379 140.624 43.5291C140.398 43.3203 140.051 43.1626 139.582 43.0561L137.92 42.6918C137.004 42.483 136.326 42.1506 135.887 41.6946C135.453 41.2386 135.235 40.6612 135.235 39.9624C135.235 39.3828 135.397 38.8757 135.721 38.4411C136.045 38.0064 136.493 37.6676 137.064 37.4247C137.635 37.1776 138.289 37.054 139.026 37.054C140.087 37.054 140.922 37.2841 141.532 37.7443C142.141 38.2003 142.544 38.8118 142.74 39.5788Z" fill="#2E263D" fill-opacity="0.9"/>
<path d="M30.7244 60.2628V59.0909H38.9062V60.2628H35.4759V70H34.1548V60.2628H30.7244ZM42.9119 70.1705C42.1733 70.1705 41.5252 69.9947 40.9677 69.6431C40.4137 69.2915 39.9805 68.7997 39.668 68.1676C39.359 67.5355 39.2045 66.7969 39.2045 65.9517C39.2045 65.0994 39.359 64.3555 39.668 63.7198C39.9805 63.0842 40.4137 62.5906 40.9677 62.239C41.5252 61.8874 42.1733 61.7116 42.9119 61.7116C43.6506 61.7116 44.2969 61.8874 44.8509 62.239C45.4084 62.5906 45.8416 63.0842 46.1506 63.7198C46.4631 64.3555 46.6193 65.0994 46.6193 65.9517C46.6193 66.7969 46.4631 67.5355 46.1506 68.1676C45.8416 68.7997 45.4084 69.2915 44.8509 69.6431C44.2969 69.9947 43.6506 70.1705 42.9119 70.1705ZM42.9119 69.0412C43.473 69.0412 43.9347 68.8974 44.2969 68.6097C44.6591 68.3221 44.9272 67.9439 45.1012 67.4751C45.2752 67.0064 45.3622 66.4986 45.3622 65.9517C45.3622 65.4048 45.2752 64.8952 45.1012 64.4229C44.9272 63.9506 44.6591 63.5689 44.2969 63.2777C43.9347 62.9865 43.473 62.8409 42.9119 62.8409C42.3509 62.8409 41.8892 62.9865 41.527 63.2777C41.1648 63.5689 40.8967 63.9506 40.7227 64.4229C40.5487 64.8952 40.4616 65.4048 40.4616 65.9517C40.4616 66.4986 40.5487 67.0064 40.7227 67.4751C40.8967 67.9439 41.1648 68.3221 41.527 68.6097C41.8892 68.8974 42.3509 69.0412 42.9119 69.0412ZM52.0965 61.8182V62.8835H47.8564V61.8182H52.0965ZM49.0922 59.858H50.3493V67.6562C50.3493 68.0114 50.4008 68.2777 50.5038 68.4553C50.6104 68.6293 50.7453 68.7464 50.9086 68.8068C51.0756 68.8636 51.2513 68.892 51.436 68.892C51.5745 68.892 51.6881 68.8849 51.7769 68.8707C51.8657 68.853 51.9367 68.8388 51.99 68.8281L52.2457 69.9574C52.1604 69.9893 52.0415 70.0213 51.8888 70.0533C51.7361 70.0888 51.5425 70.1065 51.3082 70.1065C50.953 70.1065 50.605 70.0302 50.2641 69.8775C49.9268 69.7248 49.6462 69.4922 49.4225 69.1797C49.2023 68.8672 49.0922 68.473 49.0922 67.9972V59.858ZM56.3952 70.1918C55.8767 70.1918 55.4062 70.0941 54.9836 69.8988C54.561 69.6999 54.2254 69.4141 53.9768 69.0412C53.7282 68.6648 53.604 68.2102 53.604 67.6776C53.604 67.2088 53.6963 66.8288 53.8809 66.5376C54.0656 66.2429 54.3124 66.0121 54.6214 65.8452C54.9303 65.6783 55.2712 65.554 55.6441 65.4723C56.0205 65.3871 56.3987 65.3196 56.7787 65.2699C57.2758 65.206 57.6789 65.158 57.9878 65.1261C58.3003 65.0906 58.5276 65.032 58.6697 64.9503C58.8153 64.8686 58.8881 64.7266 58.8881 64.5241V64.4815C58.8881 63.956 58.7442 63.5476 58.4566 63.2564C58.1725 62.9652 57.741 62.8196 57.1622 62.8196C56.5621 62.8196 56.0915 62.951 55.7506 63.2138C55.4097 63.4766 55.17 63.7571 55.0315 64.0554L53.8383 63.6293C54.0514 63.1321 54.3355 62.745 54.6906 62.468C55.0493 62.1875 55.4399 61.9922 55.8625 61.8821C56.2886 61.7685 56.7077 61.7116 57.1196 61.7116C57.3824 61.7116 57.6842 61.7436 58.0251 61.8075C58.3696 61.8679 58.7016 61.994 59.0212 62.1857C59.3444 62.3775 59.6125 62.6669 59.8256 63.054C60.0386 63.4411 60.1452 63.9595 60.1452 64.6094V70H58.8881V68.892H58.8241C58.7389 69.0696 58.5969 69.2596 58.398 69.462C58.1991 69.6644 57.9346 69.8366 57.6043 69.9787C57.2741 70.1207 56.871 70.1918 56.3952 70.1918ZM56.5869 69.0625C57.0841 69.0625 57.5031 68.9648 57.844 68.7695C58.1885 68.5742 58.4477 68.3221 58.6217 68.0131C58.7993 67.7042 58.8881 67.3793 58.8881 67.0384V65.8878C58.8348 65.9517 58.7176 66.0103 58.5365 66.0636C58.3589 66.1133 58.153 66.1577 57.9186 66.1967C57.6878 66.2322 57.4623 66.2642 57.2421 66.2926C57.0255 66.3175 56.8497 66.3388 56.7148 66.3565C56.3881 66.3991 56.0827 66.4684 55.7986 66.5643C55.518 66.6566 55.2907 66.7969 55.1167 66.9851C54.9463 67.1697 54.8611 67.4219 54.8611 67.7415C54.8611 68.1783 55.0226 68.5085 55.3458 68.7322C55.6725 68.9524 56.0862 69.0625 56.5869 69.0625ZM63.6967 59.0909V70H62.4396V59.0909H63.6967ZM73.691 70.1491C72.9594 70.1491 72.3131 70.0195 71.752 69.7603C71.1945 69.4975 70.7595 69.1371 70.447 68.679C70.1345 68.2173 69.98 67.6918 69.9836 67.1023C69.98 66.6406 70.0706 66.2145 70.2552 65.8239C70.4399 65.4297 70.692 65.1012 71.0116 64.8384C71.3348 64.5721 71.6952 64.4034 72.093 64.3324V64.2685C71.5709 64.1335 71.1555 63.8406 70.8465 63.3896C70.5376 62.935 70.3849 62.4183 70.3884 61.8395C70.3849 61.2855 70.5251 60.7901 70.8092 60.3533C71.0933 59.9165 71.4839 59.5721 71.9811 59.32C72.4818 59.0678 73.0518 58.9418 73.691 58.9418C74.3231 58.9418 74.8877 59.0678 75.3849 59.32C75.882 59.5721 76.2726 59.9165 76.5567 60.3533C76.8444 60.7901 76.99 61.2855 76.9935 61.8395C76.99 62.4183 76.8319 62.935 76.5194 63.3896C76.2105 63.8406 75.8003 64.1335 75.289 64.2685V64.3324C75.6831 64.4034 76.0383 64.5721 76.3543 64.8384C76.6704 65.1012 76.9225 65.4297 77.1107 65.8239C77.2989 66.2145 77.3948 66.6406 77.3983 67.1023C77.3948 67.6918 77.235 68.2173 76.9189 68.679C76.6064 69.1371 76.1714 69.4975 75.6139 69.7603C75.0599 70.0195 74.4189 70.1491 73.691 70.1491ZM73.691 68.9773C74.1846 68.9773 74.6107 68.8974 74.9694 68.7376C75.328 68.5778 75.605 68.3523 75.8003 68.0611C75.9957 67.7699 76.0951 67.429 76.0986 67.0384C76.0951 66.6264 75.9885 66.2624 75.779 65.9464C75.5695 65.6303 75.2836 65.3817 74.9214 65.2006C74.5628 65.0195 74.1526 64.929 73.691 64.929C73.2258 64.929 72.8103 65.0195 72.4445 65.2006C72.0823 65.3817 71.7964 65.6303 71.5869 65.9464C71.3809 66.2624 71.2797 66.6264 71.2833 67.0384C71.2797 67.429 71.3738 67.7699 71.5656 68.0611C71.7609 68.3523 72.0397 68.5778 72.4019 68.7376C72.7641 68.8974 73.1938 68.9773 73.691 68.9773ZM73.691 63.7997C74.0816 63.7997 74.4278 63.7216 74.7297 63.5653C75.0351 63.4091 75.2748 63.1907 75.4488 62.9102C75.6228 62.6296 75.7116 62.3011 75.7151 61.9247C75.7116 61.5554 75.6246 61.234 75.4541 60.9606C75.2836 60.6836 75.0475 60.4705 74.7457 60.3214C74.4438 60.1687 74.0922 60.0923 73.691 60.0923C73.2826 60.0923 72.9257 60.1687 72.6203 60.3214C72.3149 60.4705 72.0787 60.6836 71.9118 60.9606C71.7449 61.234 71.6633 61.5554 71.6668 61.9247C71.6633 62.3011 71.7467 62.6296 71.9172 62.9102C72.0912 63.1907 72.3309 63.4091 72.6363 63.5653C72.9417 63.7216 73.2932 63.7997 73.691 63.7997ZM82.8489 70.1491C82.2239 70.1491 81.661 70.0249 81.1603 69.7763C80.6596 69.5277 80.2583 69.1868 79.9565 68.7536C79.6547 68.3203 79.4895 67.8267 79.4611 67.2727H80.7395C80.7892 67.7663 81.013 68.1747 81.4107 68.4979C81.812 68.8175 82.2914 68.9773 82.8489 68.9773C83.2963 68.9773 83.6941 68.8725 84.0421 68.663C84.3936 68.4535 84.6689 68.1658 84.8677 67.8001C85.0701 67.4308 85.1713 67.0135 85.1713 66.5483C85.1713 66.0724 85.0666 65.6481 84.8571 65.2752C84.6511 64.8988 84.367 64.6023 84.0048 64.3857C83.6426 64.169 83.2289 64.0589 82.7637 64.0554C82.4299 64.0518 82.0872 64.1033 81.7356 64.2099C81.3841 64.3129 81.0946 64.446 80.8674 64.6094L79.6316 64.4602L80.2921 59.0909H85.9597V60.2628H81.4L81.0165 63.4801H81.0804C81.3042 63.3026 81.5847 63.1552 81.9221 63.038C82.2594 62.9208 82.611 62.8622 82.9767 62.8622C83.6444 62.8622 84.2392 63.022 84.7612 63.3416C85.2868 63.6577 85.6987 64.0909 85.997 64.6413C86.2988 65.1918 86.4498 65.8203 86.4498 66.527C86.4498 67.223 86.2935 67.8445 85.981 68.3913C85.6721 68.9347 85.2459 69.3643 84.7026 69.6804C84.1593 69.9929 83.5414 70.1491 82.8489 70.1491ZM89.0931 70.0852C88.8303 70.0852 88.6048 69.9911 88.4166 69.8029C88.2284 69.6147 88.1343 69.3892 88.1343 69.1264C88.1343 68.8636 88.2284 68.6381 88.4166 68.4499C88.6048 68.2617 88.8303 68.1676 89.0931 68.1676C89.3559 68.1676 89.5814 68.2617 89.7696 68.4499C89.9578 68.6381 90.0519 68.8636 90.0519 69.1264C90.0519 69.3004 90.0075 69.4602 89.9188 69.6058C89.8335 69.7514 89.7181 69.8686 89.5725 69.9574C89.4305 70.0426 89.2707 70.0852 89.0931 70.0852ZM92.0308 67.7628V66.6761L96.8248 59.0909H97.6132V60.7741H97.0805L93.4584 66.5057V66.5909H99.9143V67.7628H92.0308ZM97.1657 70V67.4325V66.9265V59.0909H98.4229V70H97.1657ZM103.104 67.017L103.082 65.4616H103.338L106.918 61.8182H108.473L104.659 65.6747H104.553L103.104 67.017ZM101.932 70V59.0909H103.189V70H101.932ZM107.131 70L103.935 65.9517L104.83 65.0781L108.729 70H107.131ZM120.446 61.8182C120.382 61.2784 120.123 60.8594 119.668 60.5611C119.214 60.2628 118.656 60.1136 117.996 60.1136C117.513 60.1136 117.09 60.1918 116.728 60.348C116.369 60.5043 116.089 60.7191 115.886 60.9925C115.688 61.266 115.588 61.5767 115.588 61.9247C115.588 62.2159 115.657 62.4663 115.796 62.6758C115.938 62.8817 116.119 63.054 116.339 63.1925C116.559 63.3274 116.79 63.4393 117.032 63.5281C117.273 63.6133 117.495 63.6825 117.698 63.7358L118.805 64.0341C119.09 64.1087 119.406 64.2116 119.754 64.343C120.105 64.4744 120.441 64.6538 120.76 64.881C121.084 65.1048 121.35 65.3924 121.559 65.744C121.769 66.0955 121.874 66.527 121.874 67.0384C121.874 67.6278 121.719 68.1605 121.41 68.6364C121.105 69.1122 120.657 69.4904 120.068 69.771C119.482 70.0515 118.77 70.1918 117.932 70.1918C117.151 70.1918 116.474 70.0657 115.902 69.8136C115.334 69.5614 114.887 69.2099 114.56 68.7589C114.237 68.3079 114.054 67.7841 114.011 67.1875H115.375C115.411 67.5994 115.549 67.9403 115.791 68.2102C116.036 68.4766 116.345 68.6754 116.717 68.8068C117.094 68.9347 117.499 68.9986 117.932 68.9986C118.436 68.9986 118.889 68.9169 119.29 68.7536C119.691 68.5866 120.009 68.3558 120.244 68.0611C120.478 67.7628 120.595 67.4148 120.595 67.017C120.595 66.6548 120.494 66.3601 120.292 66.1328C120.089 65.9055 119.823 65.7209 119.493 65.5788C119.162 65.4368 118.805 65.3125 118.422 65.206L117.08 64.8224C116.227 64.5774 115.553 64.2276 115.055 63.7731C114.558 63.3185 114.31 62.7237 114.31 61.9886C114.31 61.3778 114.475 60.8452 114.805 60.3906C115.139 59.9325 115.586 59.5774 116.147 59.3253C116.712 59.0696 117.342 58.9418 118.038 58.9418C118.742 58.9418 119.367 59.0678 119.913 59.32C120.46 59.5685 120.894 59.9094 121.213 60.3427C121.536 60.7759 121.707 61.2678 121.725 61.8182H120.446ZM126.283 70.1918C125.764 70.1918 125.294 70.0941 124.871 69.8988C124.449 69.6999 124.113 69.4141 123.865 69.0412C123.616 68.6648 123.492 68.2102 123.492 67.6776C123.492 67.2088 123.584 66.8288 123.769 66.5376C123.953 66.2429 124.2 66.0121 124.509 65.8452C124.818 65.6783 125.159 65.554 125.532 65.4723C125.908 65.3871 126.286 65.3196 126.666 65.2699C127.164 65.206 127.567 65.158 127.876 65.1261C128.188 65.0906 128.415 65.032 128.557 64.9503C128.703 64.8686 128.776 64.7266 128.776 64.5241V64.4815C128.776 63.956 128.632 63.5476 128.344 63.2564C128.06 62.9652 127.629 62.8196 127.05 62.8196C126.45 62.8196 125.979 62.951 125.638 63.2138C125.297 63.4766 125.058 63.7571 124.919 64.0554L123.726 63.6293C123.939 63.1321 124.223 62.745 124.578 62.468C124.937 62.1875 125.328 61.9922 125.75 61.8821C126.176 61.7685 126.595 61.7116 127.007 61.7116C127.27 61.7116 127.572 61.7436 127.913 61.8075C128.257 61.8679 128.589 61.994 128.909 62.1857C129.232 62.3775 129.5 62.6669 129.713 63.054C129.926 63.4411 130.033 63.9595 130.033 64.6094V70H128.776V68.892H128.712C128.627 69.0696 128.485 69.2596 128.286 69.462C128.087 69.6644 127.822 69.8366 127.492 69.9787C127.162 70.1207 126.759 70.1918 126.283 70.1918ZM126.475 69.0625C126.972 69.0625 127.391 68.9648 127.732 68.7695C128.076 68.5742 128.335 68.3221 128.509 68.0131C128.687 67.7042 128.776 67.3793 128.776 67.0384V65.8878C128.722 65.9517 128.605 66.0103 128.424 66.0636C128.247 66.1133 128.041 66.1577 127.806 66.1967C127.575 66.2322 127.35 66.2642 127.13 66.2926C126.913 66.3175 126.737 66.3388 126.602 66.3565C126.276 66.3991 125.97 66.4684 125.686 66.5643C125.406 66.6566 125.178 66.7969 125.004 66.9851C124.834 67.1697 124.749 67.4219 124.749 67.7415C124.749 68.1783 124.91 68.5085 125.233 68.7322C125.56 68.9524 125.974 69.0625 126.475 69.0625ZM133.584 59.0909V70H132.327V59.0909H133.584ZM139.317 70.1705C138.529 70.1705 137.849 69.9964 137.277 69.6484C136.709 69.2969 136.27 68.8068 135.961 68.1783C135.656 67.5462 135.503 66.8111 135.503 65.973C135.503 65.1349 135.656 64.3963 135.961 63.7571C136.27 63.1143 136.7 62.6136 137.251 62.255C137.805 61.8928 138.451 61.7116 139.189 61.7116C139.616 61.7116 140.036 61.7827 140.452 61.9247C140.867 62.0668 141.246 62.2976 141.586 62.6172C141.927 62.9332 142.199 63.3523 142.401 63.8743C142.604 64.3963 142.705 65.0391 142.705 65.8026V66.3352H136.398V65.2486H141.427C141.427 64.7869 141.334 64.375 141.15 64.0128C140.969 63.6506 140.709 63.3647 140.372 63.1552C140.038 62.9457 139.644 62.8409 139.189 62.8409C138.689 62.8409 138.256 62.9652 137.89 63.2138C137.528 63.4588 137.249 63.7784 137.053 64.1726C136.858 64.5668 136.76 64.9893 136.76 65.4403V66.1648C136.76 66.7827 136.867 67.3065 137.08 67.7362C137.297 68.1623 137.597 68.4872 137.98 68.7109C138.364 68.9311 138.809 69.0412 139.317 69.0412C139.648 69.0412 139.946 68.995 140.212 68.9027C140.482 68.8068 140.715 68.6648 140.91 68.4766C141.105 68.2848 141.256 68.0469 141.363 67.7628L142.577 68.1037C142.449 68.5156 142.235 68.8778 141.933 69.1903C141.631 69.4993 141.258 69.7408 140.814 69.9148C140.37 70.0852 139.871 70.1705 139.317 70.1705ZM150.413 63.6506L149.284 63.9702C149.213 63.782 149.108 63.5991 148.969 63.4215C148.834 63.2404 148.65 63.0913 148.415 62.9741C148.181 62.8569 147.881 62.7983 147.515 62.7983C147.014 62.7983 146.597 62.9137 146.263 63.1445C145.933 63.3718 145.768 63.6612 145.768 64.0128C145.768 64.3253 145.882 64.5721 146.109 64.7532C146.336 64.9343 146.691 65.0852 147.174 65.206L148.389 65.5043C149.12 65.6818 149.665 65.9535 150.024 66.3192C150.383 66.6815 150.562 67.1484 150.562 67.7202C150.562 68.1889 150.427 68.608 150.157 68.9773C149.891 69.3466 149.518 69.6378 149.039 69.8509C148.559 70.0639 148.002 70.1705 147.366 70.1705C146.531 70.1705 145.841 69.9893 145.294 69.6271C144.747 69.2649 144.401 68.7358 144.255 68.0398L145.448 67.7415C145.562 68.1818 145.777 68.5121 146.093 68.7322C146.412 68.9524 146.83 69.0625 147.345 69.0625C147.931 69.0625 148.396 68.9382 148.74 68.6896C149.088 68.4375 149.262 68.1357 149.262 67.7841C149.262 67.5 149.163 67.2621 148.964 67.0703C148.765 66.875 148.46 66.7294 148.048 66.6335L146.684 66.3139C145.935 66.1364 145.384 65.8612 145.033 65.4883C144.685 65.1119 144.511 64.6413 144.511 64.0767C144.511 63.6151 144.64 63.2067 144.9 62.8516C145.162 62.4964 145.519 62.2177 145.97 62.0153C146.425 61.8129 146.94 61.7116 147.515 61.7116C148.325 61.7116 148.96 61.8892 149.422 62.2443C149.887 62.5994 150.218 63.0682 150.413 63.6506Z" fill="#2E263D" fill-opacity="0.7"/>
<path d="M339.333 29C338.508 29 337.833 29.675 337.833 30.5C337.833 31.325 338.508 32 339.333 32C340.158 32 340.833 31.325 340.833 30.5C340.833 29.675 340.158 29 339.333 29ZM339.333 44C338.508 44 337.833 44.675 337.833 45.5C337.833 46.325 338.508 47 339.333 47C340.158 47 340.833 46.325 340.833 45.5C340.833 44.675 340.158 44 339.333 44ZM339.333 36.5C338.508 36.5 337.833 37.175 337.833 38C337.833 38.825 338.508 39.5 339.333 39.5C340.158 39.5 340.833 38.825 340.833 38C340.833 37.175 340.158 36.5 339.333 36.5Z" fill="#2E263D" fill-opacity="0.9"/>
<path d="M42.6574 283.909C42.602 283.441 42.3773 283.078 41.9834 282.82C41.5894 282.561 41.1062 282.432 40.5338 282.432C40.1152 282.432 39.749 282.5 39.4351 282.635C39.1242 282.77 38.8811 282.957 38.7057 283.194C38.5333 283.431 38.4472 283.7 38.4472 284.001C38.4472 284.254 38.5072 284.471 38.6272 284.652C38.7503 284.831 38.9073 284.98 39.0981 285.1C39.2889 285.217 39.4889 285.314 39.6982 285.391C39.9075 285.465 40.0999 285.525 40.2753 285.571L41.2355 285.83C41.4817 285.894 41.7556 285.983 42.0572 286.097C42.3619 286.211 42.6528 286.367 42.9298 286.564C43.2098 286.757 43.4406 287.007 43.6222 287.311C43.8038 287.616 43.8946 287.99 43.8946 288.433C43.8946 288.944 43.7607 289.406 43.493 289.818C43.2283 290.231 42.8405 290.558 42.3296 290.801C41.8218 291.045 41.2047 291.166 40.4784 291.166C39.8013 291.166 39.215 291.057 38.7195 290.838C38.2271 290.62 37.8393 290.315 37.5562 289.924C37.2761 289.533 37.1176 289.08 37.0807 288.562H38.2625C38.2933 288.92 38.4133 289.215 38.6226 289.449C38.8349 289.68 39.1027 289.852 39.4258 289.966C39.7521 290.077 40.1029 290.132 40.4784 290.132C40.9154 290.132 41.3078 290.061 41.6556 289.92C42.0034 289.775 42.2788 289.575 42.482 289.32C42.6851 289.061 42.7866 288.759 42.7866 288.415C42.7866 288.101 42.6989 287.845 42.5235 287.648C42.3481 287.451 42.1173 287.291 41.831 287.168C41.5448 287.045 41.2355 286.937 40.9031 286.845L39.7398 286.513C39.0011 286.3 38.4164 285.997 37.9855 285.603C37.5546 285.209 37.3392 284.694 37.3392 284.057C37.3392 283.527 37.4823 283.066 37.7685 282.672C38.0578 282.275 38.4456 281.967 38.9319 281.749C39.4212 281.527 39.9675 281.416 40.5707 281.416C41.1801 281.416 41.7218 281.525 42.1957 281.744C42.6697 281.959 43.0452 282.255 43.3222 282.63C43.6022 283.006 43.7499 283.432 43.7653 283.909H42.6574Z" fill="#2E263D" fill-opacity="0.7"/>
<path d="M86.1101 281.545H87.4766L90.6896 289.393H90.8004L94.0135 281.545H95.38V291H94.309V283.817H94.2166L91.2621 291H90.228L87.2734 283.817H87.1811V291H86.1101V281.545Z" fill="#2E263D" fill-opacity="0.7"/>
<path d="M137.387 282.561V281.545H144.478V282.561H141.505V291H140.36V282.561H137.387Z" fill="#2E263D" fill-opacity="0.7"/>
<path d="M187.187 291L184.602 281.545H185.765L187.741 289.246H187.833L189.846 281.545H191.139L193.151 289.246H193.244L195.22 281.545H196.383L193.798 291H192.616L190.529 283.466H190.455L188.369 291H187.187Z" fill="#2E263D" fill-opacity="0.7"/>
<path d="M236.747 282.561V281.545H243.838V282.561H240.865V291H239.72V282.561H236.747Z" fill="#2E263D" fill-opacity="0.7"/>
<path d="M286.943 291V281.545H292.612V282.561H288.088V285.756H292.187V286.771H288.088V291H286.943Z" fill="#2E263D" fill-opacity="0.7"/>
<path d="M341.794 283.909C341.738 283.441 341.514 283.078 341.12 282.82C340.726 282.561 340.242 282.432 339.67 282.432C339.251 282.432 338.885 282.5 338.571 282.635C338.26 282.77 338.017 282.957 337.842 283.194C337.67 283.431 337.583 283.7 337.583 284.001C337.583 284.254 337.643 284.471 337.763 284.652C337.887 284.831 338.043 284.98 338.234 285.1C338.425 285.217 338.625 285.314 338.834 285.391C339.044 285.465 339.236 285.525 339.412 285.571L340.372 285.83C340.618 285.894 340.892 285.983 341.193 286.097C341.498 286.211 341.789 286.367 342.066 286.564C342.346 286.757 342.577 287.007 342.758 287.311C342.94 287.616 343.031 287.99 343.031 288.433C343.031 288.944 342.897 289.406 342.629 289.818C342.365 290.231 341.977 290.558 341.466 290.801C340.958 291.045 340.341 291.166 339.615 291.166C338.938 291.166 338.351 291.057 337.856 290.838C337.363 290.62 336.976 290.315 336.692 289.924C336.412 289.533 336.254 289.08 336.217 288.562H337.399C337.43 288.92 337.55 289.215 337.759 289.449C337.971 289.68 338.239 289.852 338.562 289.966C338.888 290.077 339.239 290.132 339.615 290.132C340.052 290.132 340.444 290.061 340.792 289.92C341.14 289.775 341.415 289.575 341.618 289.32C341.821 289.061 341.923 288.759 341.923 288.415C341.923 288.101 341.835 287.845 341.66 287.648C341.484 287.451 341.253 287.291 340.967 287.168C340.681 287.045 340.372 286.937 340.039 286.845L338.876 286.513C338.137 286.3 337.553 285.997 337.122 285.603C336.691 285.209 336.475 284.694 336.475 284.057C336.475 283.527 336.619 283.066 336.905 282.672C337.194 282.275 337.582 281.967 338.068 281.749C338.557 281.527 339.104 281.416 339.707 281.416C340.316 281.416 340.858 281.525 341.332 281.744C341.806 281.959 342.181 282.255 342.458 282.63C342.738 283.006 342.886 283.432 342.902 283.909H341.794Z" fill="#2E263D" fill-opacity="0.7"/>
<rect x="30" y="205" width="29.5965" height="60" rx="4" fill="#8C57FF" fill-opacity="0.16"/>
<rect x="78.623" y="174" width="29.5965" height="91" rx="4" fill="#8C57FF" fill-opacity="0.16"/>
<rect x="127.245" y="190" width="29.5965" height="75" rx="4" fill="#8C57FF" fill-opacity="0.16"/>
<rect x="175.869" y="174" width="29.5965" height="91" rx="4" fill="#8C57FF" fill-opacity="0.16"/>
<rect x="224.491" y="129" width="29.5965" height="136" rx="4" fill="#8C57FF"/>
<rect x="273.114" y="205" width="29.5965" height="60" rx="4" fill="#8C57FF" fill-opacity="0.16"/>
<rect x="321.737" y="190" width="29.5965" height="75" rx="4" fill="#8C57FF" fill-opacity="0.16"/>
<path d="M55.1666 337C55.1666 333.686 57.8529 331 61.1666 331H89.1666C92.4803 331 95.1666 333.686 95.1666 337V365C95.1666 368.314 92.4803 371 89.1666 371H61.1666C57.8529 371 55.1666 368.314 55.1666 365V337Z" fill="#8C57FF" fill-opacity="0.16"/>
<path d="M74.1666 339.543C74.4966 339.514 74.8296 339.5 75.1666 339.5C81.5176 339.5 86.6666 344.649 86.6666 351C86.6666 351.337 86.6526 351.67 86.6236 352H85.1176C84.6156 357.053 80.3516 361 75.1666 361C69.6436 361 65.1666 356.523 65.1666 351C65.1666 345.815 69.1136 341.551 74.1666 341.05V339.542V339.543ZM74.1666 352V343.062C72.1493 343.319 70.3055 344.334 69.0098 345.901C67.7141 347.469 67.0639 349.47 67.1912 351.5C67.3186 353.53 68.214 355.435 69.6954 356.828C71.1768 358.221 73.1331 358.997 75.1666 359C77.1152 359 78.9969 358.289 80.4584 357C81.9199 355.711 82.8608 353.933 83.1046 352H74.1666ZM84.6146 350C84.3854 347.838 83.4216 345.82 81.8842 344.282C80.3468 342.745 78.3287 341.781 76.1666 341.552V350H84.6146Z" fill="#8C57FF"/>
<path d="M112.014 345.149C111.282 345.149 110.629 345.023 110.054 344.771C109.482 344.519 109.029 344.169 108.695 343.722C108.365 343.271 108.188 342.749 108.163 342.156H109.835C109.857 342.479 109.965 342.759 110.16 342.997C110.359 343.232 110.618 343.413 110.938 343.54C111.258 343.668 111.613 343.732 112.003 343.732C112.433 343.732 112.813 343.658 113.143 343.509C113.477 343.359 113.738 343.152 113.926 342.885C114.114 342.615 114.209 342.305 114.209 341.953C114.209 341.587 114.114 341.266 113.926 340.989C113.742 340.708 113.47 340.488 113.111 340.328C112.756 340.169 112.326 340.089 111.822 340.089H110.901V338.746H111.822C112.227 338.746 112.582 338.674 112.888 338.528C113.196 338.382 113.438 338.18 113.612 337.921C113.786 337.658 113.873 337.351 113.873 336.999C113.873 336.662 113.797 336.369 113.644 336.12C113.495 335.868 113.282 335.671 113.005 335.529C112.731 335.387 112.408 335.316 112.035 335.316C111.68 335.316 111.348 335.382 111.039 335.513C110.734 335.641 110.485 335.826 110.293 336.067C110.102 336.305 109.999 336.591 109.984 336.925H108.392C108.41 336.335 108.584 335.817 108.914 335.369C109.248 334.922 109.688 334.572 110.235 334.32C110.782 334.068 111.389 333.942 112.057 333.942C112.756 333.942 113.36 334.078 113.868 334.352C114.379 334.622 114.773 334.982 115.05 335.433C115.331 335.884 115.469 336.378 115.466 336.914C115.469 337.525 115.299 338.043 114.954 338.469C114.613 338.896 114.159 339.181 113.591 339.327V339.412C114.315 339.522 114.876 339.81 115.274 340.275C115.675 340.74 115.874 341.317 115.87 342.006C115.874 342.607 115.707 343.145 115.37 343.62C115.036 344.096 114.58 344.471 114.001 344.744C113.422 345.014 112.76 345.149 112.014 345.149ZM117.655 342.869V341.538L122.369 334.091H123.418V336.051H122.753L119.381 341.388V341.474H125.842V342.869H117.655ZM122.827 345V342.464L122.838 341.857V334.091H124.399V345H122.827ZM128.359 345.101C128.068 345.101 127.817 344.998 127.608 344.792C127.398 344.583 127.294 344.331 127.294 344.036C127.294 343.745 127.398 343.496 127.608 343.29C127.817 343.081 128.068 342.976 128.359 342.976C128.65 342.976 128.9 343.081 129.11 343.29C129.32 343.496 129.424 343.745 129.424 344.036C129.424 344.231 129.375 344.411 129.275 344.574C129.179 344.734 129.051 344.862 128.892 344.957C128.732 345.053 128.554 345.101 128.359 345.101ZM134.949 345.149C134.463 345.142 133.983 345.053 133.511 344.883C133.042 344.712 132.616 344.428 132.233 344.031C131.849 343.633 131.542 343.098 131.311 342.427C131.084 341.756 130.97 340.918 130.97 339.913C130.97 338.961 131.064 338.116 131.253 337.377C131.444 336.639 131.72 336.016 132.078 335.508C132.437 334.996 132.87 334.608 133.378 334.341C133.886 334.075 134.456 333.942 135.088 333.942C135.738 333.942 136.315 334.07 136.819 334.325C137.323 334.581 137.732 334.934 138.044 335.385C138.36 335.836 138.561 336.349 138.646 336.925H137.021C136.911 336.47 136.693 336.099 136.366 335.811C136.04 335.524 135.613 335.38 135.088 335.38C134.289 335.38 133.666 335.728 133.218 336.424C132.774 337.12 132.551 338.088 132.547 339.327H132.627C132.815 339.018 133.046 338.755 133.319 338.539C133.596 338.319 133.905 338.15 134.246 338.033C134.591 337.912 134.953 337.852 135.333 337.852C135.965 337.852 136.537 338.006 137.048 338.315C137.563 338.62 137.973 339.043 138.279 339.583C138.584 340.123 138.737 340.74 138.737 341.436C138.737 342.132 138.579 342.763 138.263 343.327C137.95 343.892 137.51 344.339 136.942 344.67C136.373 344.996 135.709 345.156 134.949 345.149ZM134.944 343.764C135.363 343.764 135.738 343.661 136.068 343.455C136.398 343.249 136.659 342.972 136.851 342.624C137.043 342.276 137.139 341.887 137.139 341.458C137.139 341.039 137.045 340.657 136.856 340.312C136.672 339.968 136.416 339.695 136.089 339.492C135.766 339.29 135.397 339.189 134.981 339.189C134.665 339.189 134.372 339.249 134.102 339.37C133.836 339.49 133.602 339.657 133.399 339.87C133.197 340.083 133.037 340.328 132.92 340.605C132.806 340.879 132.749 341.168 132.749 341.474C132.749 341.882 132.844 342.26 133.032 342.608C133.224 342.956 133.485 343.237 133.815 343.45C134.149 343.659 134.525 343.764 134.944 343.764ZM142.163 342.225L142.152 340.281H142.429L145.689 336.818H147.596L143.878 340.76H143.628L142.163 342.225ZM140.698 345V334.091H142.291V345H140.698ZM145.865 345L142.935 341.112L144.033 339.998L147.82 345H145.865Z" fill="#2E263D" fill-opacity="0.9"/>
<path d="M114.454 358.818C114.39 358.278 114.13 357.859 113.676 357.561C113.221 357.263 112.664 357.114 112.003 357.114C111.52 357.114 111.098 357.192 110.736 357.348C110.377 357.504 110.096 357.719 109.894 357.993C109.695 358.266 109.596 358.577 109.596 358.925C109.596 359.216 109.665 359.466 109.803 359.676C109.945 359.882 110.126 360.054 110.347 360.192C110.567 360.327 110.798 360.439 111.039 360.528C111.281 360.613 111.503 360.683 111.705 360.736L112.813 361.034C113.097 361.109 113.413 361.212 113.761 361.343C114.113 361.474 114.448 361.654 114.768 361.881C115.091 362.105 115.357 362.392 115.567 362.744C115.776 363.096 115.881 363.527 115.881 364.038C115.881 364.628 115.727 365.161 115.418 365.636C115.112 366.112 114.665 366.49 114.075 366.771C113.489 367.051 112.777 367.192 111.939 367.192C111.158 367.192 110.482 367.066 109.91 366.814C109.342 366.561 108.894 366.21 108.568 365.759C108.244 365.308 108.062 364.784 108.019 364.188H109.383C109.418 364.599 109.557 364.94 109.798 365.21C110.043 365.477 110.352 365.675 110.725 365.807C111.101 365.935 111.506 365.999 111.939 365.999C112.444 365.999 112.896 365.917 113.298 365.754C113.699 365.587 114.017 365.356 114.251 365.061C114.486 364.763 114.603 364.415 114.603 364.017C114.603 363.655 114.501 363.36 114.299 363.133C114.097 362.906 113.83 362.721 113.5 362.579C113.17 362.437 112.813 362.312 112.429 362.206L111.087 361.822C110.235 361.577 109.56 361.228 109.063 360.773C108.566 360.319 108.317 359.724 108.317 358.989C108.317 358.378 108.482 357.845 108.813 357.391C109.146 356.933 109.594 356.577 110.155 356.325C110.72 356.07 111.35 355.942 112.046 355.942C112.749 355.942 113.374 356.068 113.921 356.32C114.468 356.569 114.901 356.909 115.221 357.343C115.544 357.776 115.714 358.268 115.732 358.818H114.454ZM120.29 367.192C119.772 367.192 119.301 367.094 118.879 366.899C118.456 366.7 118.121 366.414 117.872 366.041C117.623 365.665 117.499 365.21 117.499 364.678C117.499 364.209 117.591 363.829 117.776 363.538C117.961 363.243 118.208 363.012 118.517 362.845C118.825 362.678 119.166 362.554 119.539 362.472C119.916 362.387 120.294 362.32 120.674 362.27C121.171 362.206 121.574 362.158 121.883 362.126C122.195 362.091 122.423 362.032 122.565 361.95C122.71 361.869 122.783 361.727 122.783 361.524V361.482C122.783 360.956 122.639 360.548 122.352 360.256C122.068 359.965 121.636 359.82 121.057 359.82C120.457 359.82 119.987 359.951 119.646 360.214C119.305 360.477 119.065 360.757 118.927 361.055L117.733 360.629C117.947 360.132 118.231 359.745 118.586 359.468C118.944 359.187 119.335 358.992 119.758 358.882C120.184 358.768 120.603 358.712 121.015 358.712C121.278 358.712 121.579 358.744 121.92 358.808C122.265 358.868 122.597 358.994 122.916 359.186C123.24 359.377 123.508 359.667 123.721 360.054C123.934 360.441 124.04 360.96 124.04 361.609V367H122.783V365.892H122.719C122.634 366.07 122.492 366.26 122.293 366.462C122.094 366.664 121.83 366.837 121.499 366.979C121.169 367.121 120.766 367.192 120.29 367.192ZM120.482 366.062C120.979 366.062 121.398 365.965 121.739 365.77C122.084 365.574 122.343 365.322 122.517 365.013C122.694 364.704 122.783 364.379 122.783 364.038V362.888C122.73 362.952 122.613 363.01 122.432 363.064C122.254 363.113 122.048 363.158 121.814 363.197C121.583 363.232 121.357 363.264 121.137 363.293C120.921 363.317 120.745 363.339 120.61 363.357C120.283 363.399 119.978 363.468 119.694 363.564C119.413 363.657 119.186 363.797 119.012 363.985C118.841 364.17 118.756 364.422 118.756 364.741C118.756 365.178 118.918 365.509 119.241 365.732C119.568 365.952 119.981 366.062 120.482 366.062ZM127.592 356.091V367H126.335V356.091H127.592ZM133.325 367.17C132.536 367.17 131.856 366.996 131.285 366.648C130.716 366.297 130.278 365.807 129.969 365.178C129.664 364.546 129.511 363.811 129.511 362.973C129.511 362.135 129.664 361.396 129.969 360.757C130.278 360.114 130.708 359.614 131.258 359.255C131.812 358.893 132.458 358.712 133.197 358.712C133.623 358.712 134.044 358.783 134.459 358.925C134.875 359.067 135.253 359.298 135.594 359.617C135.935 359.933 136.206 360.352 136.409 360.874C136.611 361.396 136.713 362.039 136.713 362.803V363.335H130.406V362.249H135.434C135.434 361.787 135.342 361.375 135.157 361.013C134.976 360.651 134.717 360.365 134.379 360.155C134.046 359.946 133.651 359.841 133.197 359.841C132.696 359.841 132.263 359.965 131.897 360.214C131.535 360.459 131.256 360.778 131.061 361.173C130.866 361.567 130.768 361.989 130.768 362.44V363.165C130.768 363.783 130.874 364.306 131.088 364.736C131.304 365.162 131.604 365.487 131.988 365.711C132.371 365.931 132.817 366.041 133.325 366.041C133.655 366.041 133.953 365.995 134.22 365.903C134.49 365.807 134.722 365.665 134.917 365.477C135.113 365.285 135.264 365.047 135.37 364.763L136.585 365.104C136.457 365.516 136.242 365.878 135.94 366.19C135.638 366.499 135.265 366.741 134.822 366.915C134.378 367.085 133.879 367.17 133.325 367.17ZM144.42 360.651L143.291 360.97C143.22 360.782 143.115 360.599 142.977 360.422C142.842 360.24 142.657 360.091 142.423 359.974C142.188 359.857 141.888 359.798 141.523 359.798C141.022 359.798 140.605 359.914 140.271 360.145C139.941 360.372 139.775 360.661 139.775 361.013C139.775 361.325 139.889 361.572 140.116 361.753C140.344 361.934 140.699 362.085 141.182 362.206L142.396 362.504C143.128 362.682 143.673 362.953 144.031 363.319C144.39 363.681 144.569 364.148 144.569 364.72C144.569 365.189 144.434 365.608 144.165 365.977C143.898 366.347 143.525 366.638 143.046 366.851C142.567 367.064 142.009 367.17 141.373 367.17C140.539 367.17 139.848 366.989 139.301 366.627C138.754 366.265 138.408 365.736 138.263 365.04L139.456 364.741C139.569 365.182 139.784 365.512 140.1 365.732C140.42 365.952 140.837 366.062 141.352 366.062C141.938 366.062 142.403 365.938 142.748 365.69C143.096 365.437 143.27 365.136 143.27 364.784C143.27 364.5 143.17 364.262 142.971 364.07C142.773 363.875 142.467 363.729 142.055 363.634L140.692 363.314C139.942 363.136 139.392 362.861 139.04 362.488C138.692 362.112 138.518 361.641 138.518 361.077C138.518 360.615 138.648 360.207 138.907 359.852C139.17 359.496 139.527 359.218 139.978 359.015C140.432 358.813 140.947 358.712 141.523 358.712C142.332 358.712 142.968 358.889 143.429 359.244C143.895 359.599 144.225 360.068 144.42 360.651Z" fill="#2E263D" fill-opacity="0.7"/>
<path d="M196.167 337C196.167 333.686 198.853 331 202.167 331H230.167C233.48 331 236.167 333.686 236.167 337V365C236.167 368.314 233.48 371 230.167 371H202.167C198.853 371 196.167 368.314 196.167 365V337Z" fill="#56CA00" fill-opacity="0.16"/>
<path d="M216.167 361C210.644 361 206.167 356.523 206.167 351C206.167 345.477 210.644 341 216.167 341C221.69 341 226.167 345.477 226.167 351C226.167 356.523 221.69 361 216.167 361ZM216.167 359C218.288 359 220.323 358.157 221.823 356.657C223.324 355.157 224.167 353.122 224.167 351C224.167 348.878 223.324 346.843 221.823 345.343C220.323 343.843 218.288 343 216.167 343C214.045 343 212.01 343.843 210.51 345.343C209.009 346.843 208.167 348.878 208.167 351C208.167 353.122 209.009 355.157 210.51 356.657C212.01 358.157 214.045 359 216.167 359V359ZM212.667 353H218.167C218.299 353 218.426 352.947 218.52 352.854C218.614 352.76 218.667 352.633 218.667 352.5C218.667 352.367 218.614 352.24 218.52 352.146C218.426 352.053 218.299 352 218.167 352H214.167C213.504 352 212.868 351.737 212.399 351.268C211.93 350.799 211.667 350.163 211.667 349.5C211.667 348.837 211.93 348.201 212.399 347.732C212.868 347.263 213.504 347 214.167 347H215.167V345H217.167V347H219.667V349H214.167C214.034 349 213.907 349.053 213.813 349.146C213.719 349.24 213.667 349.367 213.667 349.5C213.667 349.633 213.719 349.76 213.813 349.854C213.907 349.947 214.034 350 214.167 350H218.167C218.83 350 219.466 350.263 219.934 350.732C220.403 351.201 220.667 351.837 220.667 352.5C220.667 353.163 220.403 353.799 219.934 354.268C219.466 354.737 218.83 355 218.167 355H217.167V357H215.167V355H212.667V353Z" fill="#56CA00"/>
<path d="M252.582 346.364V332.727H253.456V346.364H252.582ZM255.315 336.957C255.258 336.452 255.024 336.062 254.612 335.785C254.2 335.504 253.682 335.364 253.057 335.364C252.609 335.364 252.222 335.435 251.895 335.577C251.569 335.716 251.315 335.907 251.134 336.152C250.956 336.394 250.867 336.669 250.867 336.978C250.867 337.237 250.928 337.461 251.048 337.649C251.173 337.837 251.334 337.995 251.533 338.123C251.736 338.248 251.952 338.352 252.183 338.438C252.414 338.519 252.636 338.587 252.849 338.64L253.914 338.917C254.262 339.002 254.619 339.118 254.985 339.263C255.351 339.409 255.69 339.6 256.002 339.838C256.315 340.076 256.567 340.371 256.759 340.723C256.954 341.074 257.052 341.495 257.052 341.985C257.052 342.603 256.892 343.152 256.572 343.631C256.256 344.11 255.796 344.489 255.193 344.766C254.592 345.043 253.866 345.181 253.014 345.181C252.197 345.181 251.49 345.051 250.894 344.792C250.297 344.533 249.83 344.165 249.493 343.69C249.156 343.21 248.969 342.642 248.934 341.985H250.585C250.617 342.379 250.745 342.708 250.968 342.971C251.196 343.23 251.485 343.423 251.837 343.551C252.192 343.675 252.581 343.738 253.003 343.738C253.468 343.738 253.882 343.665 254.244 343.519C254.61 343.37 254.898 343.164 255.107 342.901C255.317 342.635 255.422 342.324 255.422 341.969C255.422 341.646 255.329 341.381 255.145 341.175C254.964 340.969 254.717 340.799 254.404 340.664C254.095 340.529 253.745 340.41 253.355 340.307L252.066 339.956C251.192 339.718 250.5 339.368 249.988 338.906C249.481 338.445 249.227 337.834 249.227 337.074C249.227 336.445 249.397 335.897 249.738 335.428C250.079 334.959 250.541 334.595 251.123 334.336C251.705 334.073 252.362 333.942 253.094 333.942C253.832 333.942 254.484 334.071 255.049 334.331C255.617 334.59 256.064 334.947 256.391 335.401C256.718 335.852 256.888 336.371 256.902 336.957H255.315ZM258.64 342.869V341.538L263.354 334.091H264.404V336.051H263.738L260.366 341.388V341.474H266.827V342.869H258.64ZM263.812 345V342.464L263.823 341.857V334.091H265.384V345H263.812ZM272.37 345.149C271.606 345.149 270.932 345.018 270.346 344.755C269.763 344.492 269.307 344.13 268.977 343.668C268.646 343.207 268.483 342.681 268.487 342.092C268.483 341.63 268.577 341.206 268.769 340.819C268.964 340.428 269.229 340.103 269.563 339.844C269.896 339.581 270.269 339.414 270.681 339.343V339.279C270.138 339.148 269.703 338.857 269.376 338.406C269.05 337.955 268.888 337.436 268.892 336.85C268.888 336.293 269.035 335.795 269.334 335.359C269.635 334.918 270.049 334.572 270.575 334.32C271.1 334.068 271.699 333.942 272.37 333.942C273.034 333.942 273.627 334.07 274.149 334.325C274.675 334.577 275.088 334.924 275.39 335.364C275.692 335.801 275.845 336.296 275.848 336.85C275.845 337.436 275.678 337.955 275.347 338.406C275.017 338.857 274.588 339.148 274.058 339.279V339.343C274.467 339.414 274.834 339.581 275.161 339.844C275.491 340.103 275.754 340.428 275.949 340.819C276.148 341.206 276.249 341.63 276.253 342.092C276.249 342.681 276.083 343.207 275.752 343.668C275.422 344.13 274.964 344.492 274.378 344.755C273.796 345.018 273.126 345.149 272.37 345.149ZM272.37 343.801C272.821 343.801 273.211 343.727 273.542 343.578C273.872 343.425 274.128 343.214 274.309 342.944C274.49 342.67 274.582 342.351 274.586 341.985C274.582 341.605 274.483 341.27 274.287 340.978C274.096 340.687 273.835 340.458 273.504 340.291C273.174 340.124 272.796 340.041 272.37 340.041C271.94 340.041 271.558 340.124 271.225 340.291C270.891 340.458 270.628 340.687 270.436 340.978C270.244 341.27 270.15 341.605 270.154 341.985C270.15 342.351 270.237 342.67 270.415 342.944C270.596 343.214 270.854 343.425 271.187 343.578C271.521 343.727 271.915 343.801 272.37 343.801ZM272.37 338.725C272.732 338.725 273.053 338.652 273.334 338.507C273.615 338.361 273.835 338.159 273.994 337.9C274.158 337.64 274.241 337.337 274.245 336.989C274.241 336.648 274.16 336.349 274 336.094C273.844 335.838 273.625 335.641 273.345 335.502C273.064 335.36 272.739 335.289 272.37 335.289C271.993 335.289 271.663 335.36 271.379 335.502C271.099 335.641 270.88 335.838 270.724 336.094C270.568 336.349 270.491 336.648 270.495 336.989C270.491 337.337 270.569 337.64 270.729 337.9C270.889 338.159 271.109 338.361 271.39 338.507C271.674 338.652 272.001 338.725 272.37 338.725ZM278.161 345V343.807L281.853 339.982C282.247 339.567 282.572 339.203 282.827 338.89C283.087 338.574 283.28 338.274 283.408 337.99C283.536 337.706 283.6 337.404 283.6 337.085C283.6 336.722 283.515 336.41 283.344 336.147C283.174 335.881 282.941 335.676 282.646 335.534C282.352 335.389 282.02 335.316 281.65 335.316C281.26 335.316 280.919 335.396 280.628 335.556C280.336 335.716 280.113 335.941 279.956 336.232C279.8 336.523 279.722 336.864 279.722 337.255H278.151C278.151 336.591 278.303 336.01 278.609 335.513C278.914 335.016 279.333 334.631 279.866 334.357C280.399 334.08 281.004 333.942 281.682 333.942C282.368 333.942 282.971 334.078 283.493 334.352C284.019 334.622 284.429 334.991 284.724 335.46C285.019 335.925 285.166 336.451 285.166 337.037C285.166 337.441 285.09 337.837 284.937 338.224C284.788 338.612 284.527 339.043 284.154 339.519C283.781 339.991 283.263 340.565 282.598 341.239L280.43 343.509V343.588H285.342V345H278.161ZM288.847 342.225L288.836 340.281H289.113L292.373 336.818H294.28L290.562 340.76H290.312L288.847 342.225ZM287.382 345V334.091H288.975V345H287.382ZM292.549 345L289.619 341.112L290.716 339.998L294.504 345H292.549Z" fill="#2E263D" fill-opacity="0.9"/>
<path d="M248.891 357.263V356.091H257.073V357.263H253.642V367H252.321V357.263H248.891ZM261.079 367.17C260.34 367.17 259.692 366.995 259.134 366.643C258.58 366.292 258.147 365.8 257.835 365.168C257.526 364.536 257.371 363.797 257.371 362.952C257.371 362.099 257.526 361.355 257.835 360.72C258.147 360.084 258.58 359.591 259.134 359.239C259.692 358.887 260.34 358.712 261.079 358.712C261.817 358.712 262.464 358.887 263.017 359.239C263.575 359.591 264.008 360.084 264.317 360.72C264.63 361.355 264.786 362.099 264.786 362.952C264.786 363.797 264.63 364.536 264.317 365.168C264.008 365.8 263.575 366.292 263.017 366.643C262.464 366.995 261.817 367.17 261.079 367.17ZM261.079 366.041C261.64 366.041 262.101 365.897 262.464 365.61C262.826 365.322 263.094 364.944 263.268 364.475C263.442 364.006 263.529 363.499 263.529 362.952C263.529 362.405 263.442 361.895 263.268 361.423C263.094 360.951 262.826 360.569 262.464 360.278C262.101 359.987 261.64 359.841 261.079 359.841C260.517 359.841 260.056 359.987 259.694 360.278C259.331 360.569 259.063 360.951 258.889 361.423C258.715 361.895 258.628 362.405 258.628 362.952C258.628 363.499 258.715 364.006 258.889 364.475C259.063 364.944 259.331 365.322 259.694 365.61C260.056 365.897 260.517 366.041 261.079 366.041ZM270.263 358.818V359.884H266.023V358.818H270.263ZM267.259 356.858H268.516V364.656C268.516 365.011 268.567 365.278 268.67 365.455C268.777 365.629 268.912 365.746 269.075 365.807C269.242 365.864 269.418 365.892 269.603 365.892C269.741 365.892 269.855 365.885 269.944 365.871C270.032 365.853 270.103 365.839 270.157 365.828L270.412 366.957C270.327 366.989 270.208 367.021 270.055 367.053C269.903 367.089 269.709 367.107 269.475 367.107C269.12 367.107 268.772 367.03 268.431 366.877C268.093 366.725 267.813 366.492 267.589 366.18C267.369 365.867 267.259 365.473 267.259 364.997V356.858ZM274.562 367.192C274.043 367.192 273.573 367.094 273.15 366.899C272.728 366.7 272.392 366.414 272.143 366.041C271.895 365.665 271.771 365.21 271.771 364.678C271.771 364.209 271.863 363.829 272.048 363.538C272.232 363.243 272.479 363.012 272.788 362.845C273.097 362.678 273.438 362.554 273.811 362.472C274.187 362.387 274.565 362.32 274.945 362.27C275.442 362.206 275.846 362.158 276.154 362.126C276.467 362.091 276.694 362.032 276.836 361.95C276.982 361.869 277.055 361.727 277.055 361.524V361.482C277.055 360.956 276.911 360.548 276.623 360.256C276.339 359.965 275.908 359.82 275.329 359.82C274.729 359.82 274.258 359.951 273.917 360.214C273.576 360.477 273.337 360.757 273.198 361.055L272.005 360.629C272.218 360.132 272.502 359.745 272.857 359.468C273.216 359.187 273.607 358.992 274.029 358.882C274.455 358.768 274.874 358.712 275.286 358.712C275.549 358.712 275.851 358.744 276.192 358.808C276.536 358.868 276.868 358.994 277.188 359.186C277.511 359.377 277.779 359.667 277.992 360.054C278.205 360.441 278.312 360.96 278.312 361.609V367H277.055V365.892H276.991C276.906 366.07 276.763 366.26 276.565 366.462C276.366 366.664 276.101 366.837 275.771 366.979C275.441 367.121 275.038 367.192 274.562 367.192ZM274.754 366.062C275.251 366.062 275.67 365.965 276.011 365.77C276.355 365.574 276.614 365.322 276.788 365.013C276.966 364.704 277.055 364.379 277.055 364.038V362.888C277.001 362.952 276.884 363.01 276.703 363.064C276.526 363.113 276.32 363.158 276.085 363.197C275.854 363.232 275.629 363.264 275.409 363.293C275.192 363.317 275.016 363.339 274.881 363.357C274.555 363.399 274.249 363.468 273.965 363.564C273.685 363.657 273.457 363.797 273.283 363.985C273.113 364.17 273.028 364.422 273.028 364.741C273.028 365.178 273.189 365.509 273.512 365.732C273.839 365.952 274.253 366.062 274.754 366.062ZM281.863 356.091V367H280.606V356.091H281.863ZM288.555 367V356.091H292.241C293.097 356.091 293.797 356.245 294.34 356.554C294.887 356.86 295.292 357.273 295.554 357.795C295.817 358.317 295.948 358.9 295.948 359.543C295.948 360.185 295.817 360.77 295.554 361.295C295.295 361.821 294.894 362.24 294.35 362.552C293.807 362.861 293.111 363.016 292.262 363.016H289.62V361.844H292.22C292.806 361.844 293.276 361.743 293.631 361.54C293.986 361.338 294.244 361.064 294.404 360.72C294.567 360.372 294.649 359.979 294.649 359.543C294.649 359.106 294.567 358.715 294.404 358.371C294.244 358.026 293.985 357.756 293.626 357.561C293.267 357.362 292.792 357.263 292.198 357.263H289.876V367H288.555ZM297.906 367V358.818H299.121V360.054H299.206C299.355 359.649 299.625 359.321 300.015 359.069C300.406 358.816 300.846 358.69 301.336 358.69C301.429 358.69 301.544 358.692 301.683 358.696C301.821 358.699 301.926 358.705 301.997 358.712V359.99C301.954 359.979 301.857 359.963 301.704 359.942C301.555 359.917 301.397 359.905 301.23 359.905C300.832 359.905 300.477 359.988 300.165 360.155C299.856 360.319 299.611 360.546 299.429 360.837C299.252 361.125 299.163 361.453 299.163 361.822V367H297.906ZM306.562 367.17C305.823 367.17 305.175 366.995 304.618 366.643C304.064 366.292 303.63 365.8 303.318 365.168C303.009 364.536 302.855 363.797 302.855 362.952C302.855 362.099 303.009 361.355 303.318 360.72C303.63 360.084 304.064 359.591 304.618 359.239C305.175 358.887 305.823 358.712 306.562 358.712C307.301 358.712 307.947 358.887 308.501 359.239C309.058 359.591 309.492 360.084 309.801 360.72C310.113 361.355 310.269 362.099 310.269 362.952C310.269 363.797 310.113 364.536 309.801 365.168C309.492 365.8 309.058 366.292 308.501 366.643C307.947 366.995 307.301 367.17 306.562 367.17ZM306.562 366.041C307.123 366.041 307.585 365.897 307.947 365.61C308.309 365.322 308.577 364.944 308.751 364.475C308.925 364.006 309.012 363.499 309.012 362.952C309.012 362.405 308.925 361.895 308.751 361.423C308.577 360.951 308.309 360.569 307.947 360.278C307.585 359.987 307.123 359.841 306.562 359.841C306.001 359.841 305.539 359.987 305.177 360.278C304.815 360.569 304.547 360.951 304.373 361.423C304.199 361.895 304.112 362.405 304.112 362.952C304.112 363.499 304.199 364.006 304.373 364.475C304.547 364.944 304.815 365.322 305.177 365.61C305.539 365.897 306.001 366.041 306.562 366.041ZM315.832 358.818V359.884H311.421V358.818H315.832ZM312.742 367V357.689C312.742 357.22 312.852 356.83 313.073 356.517C313.293 356.205 313.579 355.97 313.93 355.814C314.282 355.658 314.653 355.58 315.043 355.58C315.352 355.58 315.604 355.604 315.8 355.654C315.995 355.704 316.141 355.75 316.237 355.793L315.874 356.879C315.81 356.858 315.722 356.831 315.608 356.799C315.498 356.767 315.352 356.751 315.171 356.751C314.756 356.751 314.456 356.856 314.271 357.066C314.09 357.275 313.999 357.582 313.999 357.987V367H312.742ZM317.594 367V358.818H318.851V367H317.594ZM318.233 357.455C317.988 357.455 317.776 357.371 317.599 357.204C317.425 357.037 317.338 356.837 317.338 356.602C317.338 356.368 317.425 356.167 317.599 356C317.776 355.833 317.988 355.75 318.233 355.75C318.478 355.75 318.687 355.833 318.861 356C319.039 356.167 319.128 356.368 319.128 356.602C319.128 356.837 319.039 357.037 318.861 357.204C318.687 357.371 318.478 357.455 318.233 357.455ZM324.711 358.818V359.884H320.471V358.818H324.711ZM321.707 356.858H322.964V364.656C322.964 365.011 323.016 365.278 323.119 365.455C323.225 365.629 323.36 365.746 323.524 365.807C323.69 365.864 323.866 365.892 324.051 365.892C324.189 365.892 324.303 365.885 324.392 365.871C324.481 365.853 324.552 365.839 324.605 365.828L324.861 366.957C324.775 366.989 324.656 367.021 324.504 367.053C324.351 367.089 324.157 367.107 323.923 367.107C323.568 367.107 323.22 367.03 322.879 366.877C322.542 366.725 322.261 366.492 322.037 366.18C321.817 365.867 321.707 365.473 321.707 364.997V356.858Z" fill="#2E263D" fill-opacity="0.7"/>
</g>
<defs>
<filter id="filter0_d_8003_5715" x="0" y="0" width="381.333" height="407" filterUnits="userSpaceOnUse" color-interpolation-filters="sRGB">
<feFlood flood-opacity="0" result="BackgroundImageFix"/>
<feColorMatrix in="SourceAlpha" type="matrix" values="0 0 0 0 0 0 0 0 0 0 0 0 0 0 0 0 0 0 127 0" result="hardAlpha"/>
<feOffset dy="4"/>
<feGaussianBlur stdDeviation="5"/>
<feComposite in2="hardAlpha" operator="out"/>
<feColorMatrix type="matrix" values="0 0 0 0 0.180392 0 0 0 0 0.14902 0 0 0 0 0.239216 0 0 0 0.2 0"/>
<feBlend mode="normal" in2="BackgroundImageFix" result="effect1_dropShadow_8003_5715"/>
<feBlend mode="normal" in="SourceGraphic" in2="effect1_dropShadow_8003_5715" result="shape"/>
</filter>
</defs>
</svg>
