<svg width="285" height="138" viewBox="0 0 285 138" fill="none" xmlns="http://www.w3.org/2000/svg">
<g filter="url(#filter0_d_8003_4434)">
<path d="M10 12C10 8.68629 12.6863 6 16 6H269C272.314 6 275 8.68629 275 12V118C275 121.314 272.314 124 269 124H16C12.6863 124 10 121.314 10 118V12Z" fill="white" shape-rendering="crispEdges"/>
<path d="M31.7685 42H30.3835L34.3892 31.0909H35.7528L39.7585 42H38.3736L35.1136 32.8168H35.0284L31.7685 42ZM32.2798 37.7386H37.8622V38.9105H32.2798V37.7386ZM44.6112 42.1705C43.8441 42.1705 43.1836 41.9893 42.6296 41.6271C42.0756 41.2649 41.6495 40.766 41.3512 40.1303C41.0529 39.4947 40.9038 38.7685 40.9038 37.9517C40.9038 37.1207 41.0565 36.3874 41.3619 35.7518C41.6708 35.1126 42.1005 34.6136 42.6509 34.255C43.2049 33.8928 43.8512 33.7116 44.5898 33.7116C45.1651 33.7116 45.6836 33.8182 46.1452 34.0312C46.6069 34.2443 46.9851 34.5426 47.2798 34.9261C47.5746 35.3097 47.7575 35.7571 47.8285 36.2685H46.5714C46.4755 35.8956 46.2624 35.5653 45.9322 35.2777C45.6055 34.9865 45.1651 34.8409 44.6112 34.8409C44.1211 34.8409 43.6914 34.9687 43.3221 35.2244C42.9563 35.4766 42.6705 35.8335 42.4645 36.2951C42.2621 36.7532 42.1609 37.2912 42.1609 37.9091C42.1609 38.5412 42.2603 39.0916 42.4592 39.5604C42.6616 40.0291 42.9457 40.3931 43.3114 40.6523C43.6808 40.9116 44.114 41.0412 44.6112 41.0412C44.9379 41.0412 45.2344 40.9844 45.5007 40.8707C45.767 40.7571 45.9925 40.5938 46.1772 40.3807C46.3619 40.1676 46.4933 39.9119 46.5714 39.6136H47.8285C47.7575 40.0966 47.5817 40.5316 47.3011 40.9187C47.0241 41.3022 46.6566 41.6076 46.1985 41.8349C45.744 42.0586 45.2148 42.1705 44.6112 42.1705ZM53.2244 33.8182V34.8835H48.9844V33.8182H53.2244ZM50.2202 31.858H51.4773V39.6562C51.4773 40.0114 51.5288 40.2777 51.6317 40.4553C51.7383 40.6293 51.8732 40.7464 52.0366 40.8068C52.2035 40.8636 52.3793 40.892 52.5639 40.892C52.7024 40.892 52.8161 40.8849 52.9048 40.8707C52.9936 40.853 53.0646 40.8388 53.1179 40.8281L53.3736 41.9574C53.2884 41.9893 53.1694 42.0213 53.0167 42.0533C52.864 42.0888 52.6705 42.1065 52.4361 42.1065C52.081 42.1065 51.733 42.0302 51.392 41.8775C51.0547 41.7248 50.7741 41.4922 50.5504 41.1797C50.3303 40.8672 50.2202 40.473 50.2202 39.9972V31.858ZM55.1154 42V33.8182H56.3725V42H55.1154ZM55.7546 32.4545C55.5096 32.4545 55.2983 32.3711 55.1207 32.2042C54.9467 32.0373 54.8597 31.8366 54.8597 31.6023C54.8597 31.3679 54.9467 31.1673 55.1207 31.0004C55.2983 30.8335 55.5096 30.75 55.7546 30.75C55.9996 30.75 56.2092 30.8335 56.3832 31.0004C56.5607 31.1673 56.6495 31.3679 56.6495 31.6023C56.6495 31.8366 56.5607 32.0373 56.3832 32.2042C56.2092 32.3711 55.9996 32.4545 55.7546 32.4545ZM65.3653 33.8182L62.3398 42H61.0613L58.0358 33.8182H59.3994L61.6579 40.3381H61.7432L64.0017 33.8182H65.3653ZM70.162 42.1705C69.3737 42.1705 68.6936 41.9964 68.1219 41.6484C67.5537 41.2969 67.1151 40.8068 66.8062 40.1783C66.5008 39.5462 66.3481 38.8111 66.3481 37.973C66.3481 37.1349 66.5008 36.3963 66.8062 35.7571C67.1151 35.1143 67.5448 34.6136 68.0953 34.255C68.6492 33.8928 69.2955 33.7116 70.0342 33.7116C70.4603 33.7116 70.8811 33.7827 71.2966 33.9247C71.7121 34.0668 72.0903 34.2976 72.4312 34.6172C72.7721 34.9332 73.0438 35.3523 73.2462 35.8743C73.4486 36.3963 73.5498 37.0391 73.5498 37.8026V38.3352H67.243V37.2486H72.2714C72.2714 36.7869 72.1791 36.375 71.9944 36.0128C71.8133 35.6506 71.5541 35.3647 71.2167 35.1552C70.8829 34.9457 70.4887 34.8409 70.0342 34.8409C69.5335 34.8409 69.1002 34.9652 68.7345 35.2138C68.3722 35.4588 68.0935 35.7784 67.8982 36.1726C67.7029 36.5668 67.6052 36.9893 67.6052 37.4403V38.1648C67.6052 38.7827 67.7117 39.3065 67.9248 39.7362C68.1414 40.1623 68.4415 40.4872 68.825 40.7109C69.2085 40.9311 69.6542 41.0412 70.162 41.0412C70.4923 41.0412 70.7906 40.995 71.0569 40.9027C71.3268 40.8068 71.5594 40.6648 71.7547 40.4766C71.95 40.2848 72.1009 40.0469 72.2075 39.7628L73.422 40.1037C73.2941 40.5156 73.0793 40.8778 72.7774 41.1903C72.4756 41.4993 72.1027 41.7408 71.6588 41.9148C71.2149 42.0852 70.716 42.1705 70.162 42.1705ZM87.0104 31.0909H88.3314V38.3139C88.3314 39.0597 88.1556 39.7255 87.8041 40.3114C87.4561 40.8938 86.9642 41.3537 86.3286 41.6911C85.6929 42.0249 84.9472 42.1918 84.0914 42.1918C83.2355 42.1918 82.4898 42.0249 81.8541 41.6911C81.2185 41.3537 80.7249 40.8938 80.3733 40.3114C80.0253 39.7255 79.8513 39.0597 79.8513 38.3139V31.0909H81.1723V38.2074C81.1723 38.7401 81.2895 39.2141 81.5239 39.6296C81.7583 40.0415 82.0921 40.3665 82.5253 40.6044C82.9621 40.8388 83.4841 40.956 84.0914 40.956C84.6986 40.956 85.2206 40.8388 85.6574 40.6044C86.0942 40.3665 86.428 40.0415 86.6588 39.6296C86.8932 39.2141 87.0104 38.7401 87.0104 38.2074V31.0909ZM96.5945 35.6506L95.4652 35.9702C95.3942 35.782 95.2894 35.5991 95.1509 35.4215C95.016 35.2404 94.8313 35.0913 94.5969 34.9741C94.3626 34.8569 94.0625 34.7983 93.6967 34.7983C93.196 34.7983 92.7788 34.9137 92.445 35.1445C92.1147 35.3718 91.9496 35.6612 91.9496 36.0128C91.9496 36.3253 92.0632 36.5721 92.2905 36.7532C92.5178 36.9343 92.8729 37.0852 93.3558 37.206L94.5703 37.5043C95.3018 37.6818 95.8469 37.9535 96.2056 38.3192C96.5643 38.6815 96.7436 39.1484 96.7436 39.7202C96.7436 40.1889 96.6087 40.608 96.3388 40.9773C96.0724 41.3466 95.6996 41.6378 95.2202 41.8509C94.7408 42.0639 94.1832 42.1705 93.5476 42.1705C92.7131 42.1705 92.0224 41.9893 91.4755 41.6271C90.9286 41.2649 90.5824 40.7358 90.4368 40.0398L91.63 39.7415C91.7436 40.1818 91.9585 40.5121 92.2745 40.7322C92.5941 40.9524 93.0114 41.0625 93.5263 41.0625C94.1122 41.0625 94.5774 40.9382 94.9219 40.6896C95.2699 40.4375 95.4439 40.1357 95.4439 39.7841C95.4439 39.5 95.3445 39.2621 95.1456 39.0703C94.9467 38.875 94.6413 38.7294 94.2294 38.6335L92.8658 38.3139C92.1165 38.1364 91.5661 37.8612 91.2145 37.4883C90.8665 37.1119 90.6925 36.6413 90.6925 36.0767C90.6925 35.6151 90.8221 35.2067 91.0813 34.8516C91.3441 34.4964 91.701 34.2177 92.152 34.0153C92.6065 33.8129 93.1214 33.7116 93.6967 33.7116C94.5064 33.7116 95.142 33.8892 95.6037 34.2443C96.0689 34.5994 96.3991 35.0682 96.5945 35.6506ZM102.066 42.1705C101.278 42.1705 100.598 41.9964 100.026 41.6484C99.458 41.2969 99.0194 40.8068 98.7105 40.1783C98.4051 39.5462 98.2524 38.8111 98.2524 37.973C98.2524 37.1349 98.4051 36.3963 98.7105 35.7571C99.0194 35.1143 99.4491 34.6136 99.9996 34.255C100.554 33.8928 101.2 33.7116 101.938 33.7116C102.365 33.7116 102.785 33.7827 103.201 33.9247C103.616 34.0668 103.995 34.2976 104.335 34.6172C104.676 34.9332 104.948 35.3523 105.15 35.8743C105.353 36.3963 105.454 37.0391 105.454 37.8026V38.3352H99.1473V37.2486H104.176C104.176 36.7869 104.083 36.375 103.899 36.0128C103.718 35.6506 103.458 35.3647 103.121 35.1552C102.787 34.9457 102.393 34.8409 101.938 34.8409C101.438 34.8409 101.005 34.9652 100.639 35.2138C100.277 35.4588 99.9978 35.7784 99.8025 36.1726C99.6072 36.5668 99.5095 36.9893 99.5095 37.4403V38.1648C99.5095 38.7827 99.616 39.3065 99.8291 39.7362C100.046 40.1623 100.346 40.4872 100.729 40.7109C101.113 40.9311 101.559 41.0412 102.066 41.0412C102.397 41.0412 102.695 40.995 102.961 40.9027C103.231 40.8068 103.464 40.6648 103.659 40.4766C103.854 40.2848 104.005 40.0469 104.112 39.7628L105.326 40.1037C105.198 40.5156 104.984 40.8778 104.682 41.1903C104.38 41.4993 104.007 41.7408 103.563 41.9148C103.119 42.0852 102.62 42.1705 102.066 42.1705ZM107.366 42V33.8182H108.581V35.054H108.666C108.815 34.6491 109.085 34.3207 109.476 34.0685C109.866 33.8164 110.307 33.6903 110.797 33.6903C110.889 33.6903 111.005 33.6921 111.143 33.6957C111.282 33.6992 111.386 33.7045 111.457 33.7116V34.9901C111.415 34.9794 111.317 34.9634 111.164 34.9421C111.015 34.9173 110.857 34.9048 110.69 34.9048C110.293 34.9048 109.937 34.9883 109.625 35.1552C109.316 35.3185 109.071 35.5458 108.89 35.837C108.712 36.1246 108.623 36.4531 108.623 36.8224V42H107.366ZM118.743 35.6506L117.614 35.9702C117.543 35.782 117.438 35.5991 117.299 35.4215C117.164 35.2404 116.98 35.0913 116.745 34.9741C116.511 34.8569 116.211 34.7983 115.845 34.7983C115.344 34.7983 114.927 34.9137 114.593 35.1445C114.263 35.3718 114.098 35.6612 114.098 36.0128C114.098 36.3253 114.212 36.5721 114.439 36.7532C114.666 36.9343 115.021 37.0852 115.504 37.206L116.719 37.5043C117.45 37.6818 117.995 37.9535 118.354 38.3192C118.713 38.6815 118.892 39.1484 118.892 39.7202C118.892 40.1889 118.757 40.608 118.487 40.9773C118.221 41.3466 117.848 41.6378 117.369 41.8509C116.889 42.0639 116.332 42.1705 115.696 42.1705C114.862 42.1705 114.171 41.9893 113.624 41.6271C113.077 41.2649 112.731 40.7358 112.585 40.0398L113.778 39.7415C113.892 40.1818 114.107 40.5121 114.423 40.7322C114.743 40.9524 115.16 41.0625 115.675 41.0625C116.261 41.0625 116.726 40.9382 117.07 40.6896C117.418 40.4375 117.592 40.1357 117.592 39.7841C117.592 39.5 117.493 39.2621 117.294 39.0703C117.095 38.875 116.79 38.7294 116.378 38.6335L115.014 38.3139C114.265 38.1364 113.714 37.8612 113.363 37.4883C113.015 37.1119 112.841 36.6413 112.841 36.0767C112.841 35.6151 112.971 35.2067 113.23 34.8516C113.493 34.4964 113.849 34.2177 114.3 34.0153C114.755 33.8129 115.27 33.7116 115.845 33.7116C116.655 33.7116 117.29 33.8892 117.752 34.2443C118.217 34.5994 118.548 35.0682 118.743 35.6506Z" fill="#2E263D" fill-opacity="0.9"/>
<path d="M36.2259 59.9091V73H34.2443V61.8906H34.1676L31.0355 63.9361V62.044L34.3018 59.9091H36.2259ZM44.12 59.7301C44.7038 59.7344 45.2791 59.8409 45.8459 60.0497C46.4126 60.2585 46.924 60.5994 47.38 61.0724C47.8402 61.5455 48.2067 62.1847 48.4794 62.9901C48.7564 63.7912 48.897 64.7884 48.9013 65.9815C48.9013 67.1278 48.7862 68.1484 48.5561 69.0433C48.326 69.9339 47.9957 70.6861 47.5653 71.2997C47.1392 71.9134 46.6214 72.38 46.0121 72.6996C45.4027 73.0192 44.7166 73.179 43.9538 73.179C43.174 73.179 42.4815 73.0256 41.8764 72.7188C41.2713 72.4119 40.7791 71.9879 40.3999 71.4467C40.0206 70.9013 39.7841 70.2749 39.6903 69.5675H41.6399C41.7678 70.13 42.0277 70.5859 42.4197 70.9354C42.8161 71.2805 43.3274 71.4531 43.9538 71.4531C44.9126 71.4531 45.6605 71.0355 46.1974 70.2003C46.7344 69.3608 47.005 68.1889 47.0092 66.6847H46.907C46.6854 67.0511 46.4084 67.3665 46.076 67.6307C45.7479 67.8949 45.3793 68.0994 44.9702 68.2443C44.5611 68.3892 44.1243 68.4616 43.6598 68.4616C42.9055 68.4616 42.2195 68.2763 41.6016 67.9055C40.9837 67.5348 40.4915 67.0256 40.125 66.3778C39.7585 65.7301 39.5753 64.9908 39.5753 64.1598C39.5753 63.3331 39.7628 62.5831 40.1378 61.9098C40.517 61.2365 41.0455 60.7038 41.723 60.3118C42.4048 59.9155 43.2038 59.7216 44.12 59.7301ZM44.1264 61.392C43.6278 61.392 43.1783 61.5156 42.7777 61.7628C42.3814 62.0057 42.0682 62.3359 41.8381 62.7536C41.608 63.1669 41.4929 63.6271 41.4929 64.1342C41.4929 64.6413 41.6037 65.1016 41.8253 65.5149C42.0511 65.924 42.358 66.25 42.7457 66.4929C43.1378 66.7315 43.5852 66.8509 44.0881 66.8509C44.4631 66.8509 44.8125 66.7784 45.1364 66.6335C45.4602 66.4886 45.7436 66.2884 45.9865 66.0327C46.2294 65.7727 46.419 65.4787 46.5554 65.1506C46.6918 64.8224 46.7599 64.4773 46.7599 64.1151C46.7599 63.6335 46.6449 63.1861 46.4148 62.7727C46.1889 62.3594 45.8778 62.027 45.4815 61.7756C45.0852 61.5199 44.6335 61.392 44.1264 61.392ZM53.2479 71.2102L53.152 71.907C53.0881 72.4183 52.9794 72.951 52.826 73.505C52.6768 74.0632 52.5213 74.581 52.3594 75.0582C52.2017 75.5355 52.0717 75.9148 51.9695 76.196H50.6143C50.6697 75.9318 50.7464 75.5739 50.8445 75.1222C50.9425 74.6747 51.0384 74.174 51.1321 73.62C51.2259 73.0661 51.2962 72.5014 51.343 71.9261L51.407 71.2102H53.2479ZM59.9052 73.179C58.989 73.179 58.1793 73.0213 57.4762 72.706C56.7773 72.3906 56.2298 71.956 55.8335 71.402C55.4371 70.848 55.2411 70.2173 55.2454 69.5099C55.2411 68.956 55.354 68.4467 55.5842 67.9822C55.8185 67.5135 56.136 67.1236 56.5366 66.8125C56.9371 66.4972 57.3846 66.2969 57.8789 66.2116V66.1349C57.2269 65.9773 56.7049 65.6278 56.3129 65.0866C55.9208 64.5455 55.7269 63.9233 55.7312 63.2202C55.7269 62.5511 55.9038 61.9545 56.2617 61.4304C56.6239 60.902 57.1204 60.4865 57.7511 60.1839C58.3817 59.8814 59.0998 59.7301 59.9052 59.7301C60.7021 59.7301 61.4137 59.8835 62.0401 60.1903C62.6708 60.4929 63.1673 60.9084 63.5295 61.4368C63.8917 61.9609 64.0749 62.5554 64.0792 63.2202C64.0749 63.9233 63.8746 64.5455 63.4783 65.0866C63.082 65.6278 62.5664 65.9773 61.9315 66.1349V66.2116C62.4215 66.2969 62.8626 66.4972 63.2546 66.8125C63.6509 67.1236 63.9663 67.5135 64.2006 67.9822C64.4393 68.4467 64.5607 68.956 64.565 69.5099C64.5607 70.2173 64.3604 70.848 63.9641 71.402C63.5678 71.956 63.0181 72.3906 62.315 72.706C61.6161 73.0213 60.8129 73.179 59.9052 73.179ZM59.9052 71.5618C60.4464 71.5618 60.9151 71.4723 61.3114 71.2933C61.7077 71.1101 62.0146 70.8565 62.2319 70.5327C62.4492 70.2045 62.56 69.821 62.5643 69.3821C62.56 68.9261 62.4407 68.5234 62.2063 68.174C61.9762 67.8246 61.663 67.5497 61.2667 67.3494C60.8704 67.1491 60.4165 67.049 59.9052 67.049C59.3896 67.049 58.9315 67.1491 58.5309 67.3494C58.1303 67.5497 57.815 67.8246 57.5849 68.174C57.3548 68.5234 57.2418 68.9261 57.2461 69.3821C57.2418 69.821 57.3462 70.2045 57.5593 70.5327C57.7766 70.8565 58.0856 71.1101 58.4862 71.2933C58.8867 71.4723 59.3597 71.5618 59.9052 71.5618ZM59.9052 65.4702C60.3398 65.4702 60.7255 65.3828 61.0621 65.2081C61.3988 65.0334 61.663 64.7905 61.8548 64.4794C62.0508 64.1683 62.1509 63.804 62.1552 63.3864C62.1509 62.9773 62.0529 62.6193 61.8612 62.3125C61.6737 62.0057 61.4116 61.7692 61.0749 61.603C60.7383 61.4325 60.3484 61.3473 59.9052 61.3473C59.4535 61.3473 59.0572 61.4325 58.7163 61.603C58.3796 61.7692 58.1175 62.0057 57.93 62.3125C57.7425 62.6193 57.6509 62.9773 57.6552 63.3864C57.6509 63.804 57.7447 64.1683 57.9364 64.4794C58.1282 64.7905 58.3924 65.0334 58.729 65.2081C59.07 65.3828 59.462 65.4702 59.9052 65.4702ZM71.4252 73.179C70.8414 73.1705 70.2662 73.0639 69.6994 72.8594C69.1369 72.6548 68.6255 72.3139 68.1653 71.8366C67.7051 71.3594 67.3365 70.718 67.0595 69.9126C66.7868 69.1072 66.6504 68.1016 66.6504 66.8956C66.6504 65.7536 66.7633 64.7393 66.9892 63.853C67.2193 62.9666 67.5495 62.2188 67.9799 61.6094C68.4103 60.9957 68.9302 60.5291 69.5396 60.2095C70.149 59.8899 70.8329 59.7301 71.5914 59.7301C72.3713 59.7301 73.0637 59.8835 73.6689 60.1903C74.274 60.4972 74.764 60.9212 75.139 61.4624C75.5183 62.0036 75.7591 62.6193 75.8613 63.3097H73.9118C73.7797 62.7642 73.5176 62.3189 73.1255 61.9737C72.7335 61.6286 72.2221 61.456 71.5914 61.456C70.6326 61.456 69.8848 61.8736 69.3478 62.7088C68.8152 63.544 68.5467 64.7053 68.5424 66.1925H68.6383C68.8642 65.8217 69.1412 65.5064 69.4693 65.2464C69.8017 64.9822 70.1724 64.7798 70.5815 64.6392C70.9949 64.4943 71.4295 64.4219 71.8855 64.4219C72.644 64.4219 73.3301 64.6072 73.9437 64.978C74.5616 65.3445 75.0538 65.8516 75.4203 66.4993C75.7868 67.147 75.97 67.8885 75.97 68.7237C75.97 69.5589 75.7804 70.3153 75.4011 70.9929C75.0261 71.6705 74.4977 72.2074 73.8159 72.6037C73.1341 72.9957 72.3372 73.1875 71.4252 73.179ZM71.4189 71.517C71.9217 71.517 72.3713 71.3935 72.7676 71.1463C73.1639 70.8991 73.4771 70.5668 73.7072 70.1491C73.9373 69.7315 74.0524 69.2649 74.0524 68.7493C74.0524 68.2464 73.9395 67.7884 73.7136 67.375C73.492 66.9616 73.1852 66.6335 72.7931 66.3906C72.4054 66.1477 71.9622 66.0263 71.4636 66.0263C71.0843 66.0263 70.7328 66.0987 70.4089 66.2436C70.0893 66.3885 69.8081 66.5888 69.5652 66.8445C69.3223 67.1001 69.1305 67.3942 68.9899 67.7266C68.8535 68.0547 68.7853 68.402 68.7853 68.7685C68.7853 69.2585 68.8983 69.7124 69.1241 70.13C69.3542 70.5476 69.6674 70.8842 70.0637 71.1399C70.4643 71.3913 70.916 71.517 71.4189 71.517ZM82.8558 73.2173C81.8459 73.2131 80.983 72.9467 80.267 72.4183C79.5511 71.8899 79.0036 71.1207 78.6243 70.1108C78.245 69.1009 78.0554 67.8842 78.0554 66.4609C78.0554 65.0419 78.245 63.8295 78.6243 62.8239C79.0078 61.8182 79.5575 61.0511 80.2734 60.5227C80.9936 59.9943 81.8544 59.7301 82.8558 59.7301C83.8572 59.7301 84.7159 59.9964 85.4318 60.5291C86.1477 61.0575 86.6953 61.8246 87.0746 62.8303C87.4581 63.8317 87.6499 65.0419 87.6499 66.4609C87.6499 67.8885 87.4602 69.1072 87.081 70.1172C86.7017 71.1229 86.1541 71.892 85.4382 72.4247C84.7223 72.9531 83.8615 73.2173 82.8558 73.2173ZM82.8558 71.5107C83.7422 71.5107 84.4347 71.0781 84.9332 70.2131C85.4361 69.348 85.6875 68.0973 85.6875 66.4609C85.6875 65.3743 85.5724 64.456 85.3423 63.706C85.1165 62.9517 84.7905 62.3807 84.3643 61.9929C83.9425 61.6009 83.4396 61.4048 82.8558 61.4048C81.9737 61.4048 81.2813 61.8395 80.7784 62.7088C80.2756 63.5781 80.022 64.8288 80.0178 66.4609C80.0178 67.5518 80.1307 68.4744 80.3565 69.2287C80.5866 69.9787 80.9126 70.5476 81.3345 70.9354C81.7564 71.3189 82.2635 71.5107 82.8558 71.5107Z" fill="#2E263D" fill-opacity="0.9"/>
<path d="M98.598 65.5455C98.598 64.2031 98.772 62.9691 99.12 61.8434C99.4716 60.7141 99.9723 59.6754 100.622 58.7273H101.73C101.474 59.0788 101.235 59.5121 101.011 60.027C100.791 60.5384 100.597 61.1012 100.43 61.7156C100.263 62.3263 100.132 62.9585 100.036 63.6119C99.9439 64.2653 99.8977 64.9098 99.8977 65.5455C99.8977 66.3906 99.9794 67.2482 100.143 68.1183C100.306 68.9883 100.526 69.7962 100.803 70.5419C101.08 71.2876 101.389 71.8949 101.73 72.3636H100.622C99.9723 71.4155 99.4716 70.3786 99.12 69.2528C98.772 68.1236 98.598 66.8878 98.598 65.5455ZM108.273 64.9595V66.1314H103.5V64.9595H108.273ZM114.298 60.0909V71H112.977V61.4759H112.914L110.25 63.2443V61.902L112.977 60.0909H114.298ZM117.18 68.7628V67.6761L121.974 60.0909H122.763V61.7741H122.23L118.608 67.5057V67.5909H125.064V68.7628H117.18ZM122.315 71V68.4325V67.9265V60.0909H123.572V71H122.315ZM132.621 68.9545V68.3793C132.621 67.9815 132.703 67.6175 132.866 67.2873C133.033 66.9535 133.274 66.6871 133.59 66.4883C133.91 66.2859 134.297 66.1847 134.752 66.1847C135.213 66.1847 135.6 66.2859 135.913 66.4883C136.225 66.6871 136.462 66.9535 136.621 67.2873C136.781 67.6175 136.861 67.9815 136.861 68.3793V68.9545C136.861 69.3523 136.779 69.718 136.616 70.0518C136.456 70.3821 136.218 70.6484 135.902 70.8509C135.59 71.0497 135.206 71.1491 134.752 71.1491C134.29 71.1491 133.901 71.0497 133.585 70.8509C133.269 70.6484 133.029 70.3821 132.866 70.0518C132.703 69.718 132.621 69.3523 132.621 68.9545ZM133.708 68.3793V68.9545C133.708 69.2848 133.786 69.5813 133.942 69.8441C134.098 70.1033 134.368 70.233 134.752 70.233C135.125 70.233 135.387 70.1033 135.54 69.8441C135.696 69.5813 135.774 69.2848 135.774 68.9545V68.3793C135.774 68.049 135.7 67.7543 135.551 67.495C135.402 67.2322 135.135 67.1009 134.752 67.1009C134.379 67.1009 134.111 67.2322 133.947 67.495C133.788 67.7543 133.708 68.049 133.708 68.3793ZM127.188 62.7116V62.1364C127.188 61.7386 127.269 61.3746 127.433 61.0444C127.6 60.7106 127.841 60.4442 128.157 60.2454C128.477 60.043 128.864 59.9418 129.318 59.9418C129.78 59.9418 130.167 60.043 130.48 60.2454C130.792 60.4442 131.028 60.7106 131.188 61.0444C131.348 61.3746 131.428 61.7386 131.428 62.1364V62.7116C131.428 63.1094 131.346 63.4751 131.183 63.8089C131.023 64.1392 130.785 64.4055 130.469 64.608C130.157 64.8068 129.773 64.9062 129.318 64.9062C128.857 64.9062 128.468 64.8068 128.152 64.608C127.836 64.4055 127.596 64.1392 127.433 63.8089C127.269 63.4751 127.188 63.1094 127.188 62.7116ZM128.274 62.1364V62.7116C128.274 63.0419 128.353 63.3384 128.509 63.6012C128.665 63.8604 128.935 63.9901 129.318 63.9901C129.691 63.9901 129.954 63.8604 130.107 63.6012C130.263 63.3384 130.341 63.0419 130.341 62.7116V62.1364C130.341 61.8061 130.267 61.5114 130.117 61.2521C129.968 60.9893 129.702 60.858 129.318 60.858C128.946 60.858 128.677 60.9893 128.514 61.2521C128.354 61.5114 128.274 61.8061 128.274 62.1364ZM127.593 71L135.093 60.0909H136.307L128.807 71H127.593ZM141.953 65.5455C141.953 66.8878 141.778 68.1236 141.426 69.2528C141.078 70.3786 140.579 71.4155 139.929 72.3636H138.821C139.077 72.0121 139.315 71.5788 139.535 71.0639C139.759 70.5526 139.954 69.9915 140.121 69.3807C140.288 68.7663 140.418 68.1325 140.51 67.479C140.606 66.8221 140.654 66.1776 140.654 65.5455C140.654 64.7003 140.572 63.8427 140.409 62.9727C140.245 62.1026 140.025 61.2947 139.748 60.549C139.471 59.8033 139.162 59.196 138.821 58.7273H139.929C140.579 59.6754 141.078 60.7141 141.426 61.8434C141.778 62.9691 141.953 64.2031 141.953 65.5455Z" fill="#FF4C51"/>
<path d="M31.1449 99V89.5455H32.2898V97.9844H36.6847V99H31.1449ZM40.3963 99.1662C39.947 99.1662 39.5392 99.0816 39.1729 98.9123C38.8067 98.7399 38.5159 98.4922 38.3004 98.169C38.085 97.8428 37.9773 97.4489 37.9773 96.9872C37.9773 96.581 38.0573 96.2517 38.2173 95.9993C38.3774 95.7438 38.5913 95.5438 38.859 95.3991C39.1268 95.2545 39.4222 95.1468 39.7454 95.076C40.0716 95.0021 40.3994 94.9437 40.7287 94.9006C41.1596 94.8452 41.5089 94.8036 41.7766 94.7759C42.0475 94.7451 42.2444 94.6944 42.3675 94.6236C42.4937 94.5528 42.5568 94.4297 42.5568 94.2543V94.2173C42.5568 93.7618 42.4322 93.4079 42.1829 93.1555C41.9367 92.9032 41.5627 92.777 41.0611 92.777C40.541 92.777 40.1332 92.8909 39.8377 93.1186C39.5423 93.3464 39.3345 93.5895 39.2145 93.848L38.1804 93.4787C38.3651 93.0478 38.6113 92.7124 38.919 92.4723C39.2299 92.2292 39.5684 92.0599 39.9347 91.9645C40.304 91.866 40.6671 91.8168 41.0241 91.8168C41.2519 91.8168 41.5135 91.8445 41.8089 91.8999C42.1075 91.9522 42.3952 92.0614 42.6722 92.2276C42.9523 92.3938 43.1847 92.6446 43.3693 92.9801C43.554 93.3156 43.6463 93.7649 43.6463 94.3281V99H42.5568V98.0398H42.5014C42.4276 98.1937 42.3045 98.3583 42.1321 98.5337C41.9598 98.7092 41.7305 98.8584 41.4442 98.9815C41.158 99.1046 40.8087 99.1662 40.3963 99.1662ZM40.5625 98.1875C40.9934 98.1875 41.3565 98.1029 41.652 97.9336C41.9505 97.7643 42.1752 97.5458 42.326 97.2781C42.4799 97.0103 42.5568 96.7287 42.5568 96.4332V95.4361C42.5107 95.4915 42.4091 95.5423 42.2521 95.5884C42.0982 95.6315 41.9197 95.67 41.7166 95.7038C41.5166 95.7346 41.3211 95.7623 41.1303 95.7869C40.9426 95.8085 40.7902 95.8269 40.6733 95.8423C40.3902 95.8793 40.1255 95.9393 39.8793 96.0224C39.6361 96.1024 39.4392 96.224 39.2884 96.3871C39.1406 96.5471 39.0668 96.7656 39.0668 97.0426C39.0668 97.4212 39.2068 97.7074 39.4869 97.9013C39.77 98.0921 40.1286 98.1875 40.5625 98.1875ZM50.6576 93.4972L49.6789 93.7741C49.6173 93.611 49.5265 93.4525 49.4065 93.2987C49.2896 93.1417 49.1295 93.0124 48.9264 92.9109C48.7233 92.8093 48.4632 92.7585 48.1462 92.7585C47.7123 92.7585 47.3506 92.8585 47.0613 93.0586C46.7751 93.2556 46.632 93.5064 46.632 93.8111C46.632 94.0819 46.7305 94.2958 46.9275 94.4528C47.1244 94.6097 47.4322 94.7405 47.8508 94.8452L48.9033 95.1037C49.5373 95.2576 50.0097 95.493 50.3206 95.81C50.6314 96.1239 50.7868 96.5286 50.7868 97.0241C50.7868 97.4304 50.6699 97.7936 50.436 98.1136C50.2052 98.4337 49.882 98.6861 49.4665 98.8707C49.051 99.0554 48.5679 99.1477 48.017 99.1477C47.2937 99.1477 46.6951 98.9908 46.2211 98.6768C45.7472 98.3629 45.4471 97.9044 45.3209 97.3011L46.355 97.0426C46.4535 97.4242 46.6397 97.7105 46.9136 97.9013C47.1906 98.0921 47.5522 98.1875 47.9985 98.1875C48.5063 98.1875 48.9095 98.0798 49.208 97.8643C49.5096 97.6458 49.6604 97.3842 49.6604 97.0795C49.6604 96.8333 49.5742 96.6271 49.4019 96.4609C49.2296 96.2917 48.9649 96.1655 48.6079 96.0824L47.426 95.8054C46.7767 95.6515 46.2996 95.413 45.9949 95.0898C45.6933 94.7636 45.5425 94.3558 45.5425 93.8665C45.5425 93.4664 45.6549 93.1125 45.8795 92.8047C46.1073 92.4969 46.4166 92.2553 46.8074 92.0799C47.2014 91.9045 47.6476 91.8168 48.1462 91.8168C48.8479 91.8168 49.3988 91.9706 49.7989 92.2784C50.2021 92.5862 50.4883 92.9924 50.6576 93.4972ZM55.5107 91.9091V92.8324H51.8359V91.9091H55.5107ZM52.907 90.2102H53.9964V96.9688C53.9964 97.2765 54.0411 97.5073 54.1303 97.6612C54.2227 97.812 54.3396 97.9136 54.4812 97.9659C54.6258 98.0152 54.7782 98.0398 54.9382 98.0398C55.0582 98.0398 55.1567 98.0336 55.2337 98.0213C55.3106 98.0059 55.3722 97.9936 55.4183 97.9844L55.6399 98.9631C55.5661 98.9908 55.4629 99.0185 55.3306 99.0462C55.1983 99.0769 55.0305 99.0923 54.8274 99.0923C54.5196 99.0923 54.218 99.0262 53.9226 98.8938C53.6302 98.7615 53.3871 98.5599 53.1932 98.2891C53.0024 98.0182 52.907 97.6766 52.907 97.2642V90.2102ZM62.4123 99L60.2518 91.9091H61.3967L62.9293 97.3381H63.0032L64.5174 91.9091H65.6808L67.1765 97.3196H67.2504L68.783 91.9091H69.9279L67.7674 99H66.6964L65.1452 93.5526H65.0344L63.4833 99H62.4123ZM74.1001 99.1477C73.4168 99.1477 72.8274 98.9969 72.3319 98.6953C71.8395 98.3906 71.4594 97.9659 71.1917 97.4212C70.927 96.8733 70.7947 96.2363 70.7947 95.5099C70.7947 94.7836 70.927 94.1435 71.1917 93.5895C71.4594 93.0324 71.8318 92.5985 72.3089 92.2876C72.789 91.9737 73.3491 91.8168 73.9893 91.8168C74.3586 91.8168 74.7233 91.8783 75.0834 92.0014C75.4434 92.1245 75.7712 92.3246 76.0667 92.6016C76.3621 92.8755 76.5976 93.2386 76.773 93.6911C76.9484 94.1435 77.0361 94.7005 77.0361 95.3622V95.8239H71.5702V94.8821H75.9282C75.9282 94.482 75.8482 94.125 75.6881 93.8111C75.5312 93.4972 75.3065 93.2494 75.0141 93.0678C74.7248 92.8862 74.3832 92.7955 73.9893 92.7955C73.5553 92.7955 73.1798 92.9032 72.8628 93.1186C72.5489 93.331 72.3073 93.608 72.1381 93.9496C71.9688 94.2912 71.8841 94.6574 71.8841 95.0483V95.6761C71.8841 96.2116 71.9765 96.6656 72.1611 97.038C72.3489 97.4073 72.6089 97.6889 72.9413 97.8828C73.2737 98.0736 73.6599 98.169 74.1001 98.169C74.3863 98.169 74.6448 98.129 74.8756 98.049C75.1095 97.9659 75.3111 97.8428 75.4804 97.6797C75.6497 97.5135 75.7805 97.3073 75.8728 97.0611L76.9253 97.3565C76.8145 97.7135 76.6283 98.0275 76.3667 98.2983C76.1051 98.5661 75.782 98.7753 75.3973 98.9261C75.0126 99.0739 74.5802 99.1477 74.1001 99.1477ZM81.6665 99.1477C80.9832 99.1477 80.3939 98.9969 79.8983 98.6953C79.4059 98.3906 79.0258 97.9659 78.7581 97.4212C78.4934 96.8733 78.3611 96.2363 78.3611 95.5099C78.3611 94.7836 78.4934 94.1435 78.7581 93.5895C79.0258 93.0324 79.3982 92.5985 79.8753 92.2876C80.3554 91.9737 80.9155 91.8168 81.5557 91.8168C81.925 91.8168 82.2897 91.8783 82.6498 92.0014C83.0099 92.1245 83.3376 92.3246 83.6331 92.6016C83.9285 92.8755 84.164 93.2386 84.3394 93.6911C84.5148 94.1435 84.6025 94.7005 84.6025 95.3622V95.8239H79.1366V94.8821H83.4946C83.4946 94.482 83.4146 94.125 83.2545 93.8111C83.0976 93.4972 82.8729 93.2494 82.5805 93.0678C82.2912 92.8862 81.9496 92.7955 81.5557 92.7955C81.1217 92.7955 80.7462 92.9032 80.4292 93.1186C80.1153 93.331 79.8737 93.608 79.7045 93.9496C79.5352 94.2912 79.4506 94.6574 79.4506 95.0483V95.6761C79.4506 96.2116 79.5429 96.6656 79.7275 97.038C79.9153 97.4073 80.1753 97.6889 80.5077 97.8828C80.8401 98.0736 81.2264 98.169 81.6665 98.169C81.9527 98.169 82.2112 98.129 82.442 98.049C82.6759 97.9659 82.8775 97.8428 83.0468 97.6797C83.2161 97.5135 83.3469 97.3073 83.4392 97.0611L84.4917 97.3565C84.3809 97.7135 84.1948 98.0275 83.9331 98.2983C83.6715 98.5661 83.3484 98.7753 82.9637 98.9261C82.579 99.0739 82.1466 99.1477 81.6665 99.1477ZM87.2755 96.4148L87.257 95.0668H87.4786L90.5809 91.9091H91.9289L88.6235 95.2514H88.5312L87.2755 96.4148ZM86.2599 99V89.5455H87.3493V99H86.2599ZM90.7655 99L87.9956 95.4915L88.7712 94.7344L92.1505 99H90.7655ZM99.074 99.1662C98.6247 99.1662 98.2169 99.0816 97.8507 98.9123C97.4844 98.7399 97.1936 98.4922 96.9782 98.169C96.7627 97.8428 96.655 97.4489 96.655 96.9872C96.655 96.581 96.735 96.2517 96.8951 95.9993C97.0551 95.7438 97.269 95.5438 97.5368 95.3991C97.8045 95.2545 98.1 95.1468 98.4231 95.076C98.7493 95.0021 99.0771 94.9437 99.4064 94.9006C99.8373 94.8452 100.187 94.8036 100.454 94.7759C100.725 94.7451 100.922 94.6944 101.045 94.6236C101.171 94.5528 101.235 94.4297 101.235 94.2543V94.2173C101.235 93.7618 101.11 93.4079 100.861 93.1555C100.614 92.9032 100.24 92.777 99.7388 92.777C99.2187 92.777 98.8109 92.8909 98.5154 93.1186C98.22 93.3464 98.0123 93.5895 97.8922 93.848L96.8581 93.4787C97.0428 93.0478 97.289 92.7124 97.5968 92.4723C97.9076 92.2292 98.2462 92.0599 98.6124 91.9645C98.9817 91.866 99.3449 91.8168 99.7019 91.8168C99.9296 91.8168 100.191 91.8445 100.487 91.8999C100.785 91.9522 101.073 92.0614 101.35 92.2276C101.63 92.3938 101.862 92.6446 102.047 92.9801C102.232 93.3156 102.324 93.7649 102.324 94.3281V99H101.235V98.0398H101.179C101.105 98.1937 100.982 98.3583 100.81 98.5337C100.637 98.7092 100.408 98.8584 100.122 98.9815C99.8358 99.1046 99.4864 99.1662 99.074 99.1662ZM99.2402 98.1875C99.6711 98.1875 100.034 98.1029 100.33 97.9336C100.628 97.7643 100.853 97.5458 101.004 97.2781C101.158 97.0103 101.235 96.7287 101.235 96.4332V95.4361C101.188 95.4915 101.087 95.5423 100.93 95.5884C100.776 95.6315 100.597 95.67 100.394 95.7038C100.194 95.7346 99.9989 95.7623 99.8081 95.7869C99.6203 95.8085 99.468 95.8269 99.351 95.8423C99.0679 95.8793 98.8032 95.9393 98.557 96.0224C98.3139 96.1024 98.1169 96.224 97.9661 96.3871C97.8184 96.5471 97.7445 96.7656 97.7445 97.0426C97.7445 97.4212 97.8845 97.7074 98.1646 97.9013C98.4477 98.0921 98.8063 98.1875 99.2402 98.1875ZM105.402 94.7344V99H104.313V91.9091H105.365V93.017H105.457C105.624 92.657 105.876 92.3677 106.215 92.1491C106.553 91.9276 106.99 91.8168 107.526 91.8168C108.006 91.8168 108.426 91.9152 108.786 92.1122C109.146 92.3061 109.426 92.6016 109.626 92.9986C109.826 93.3925 109.926 93.8911 109.926 94.4943V99H108.837V94.5682C108.837 94.0111 108.692 93.5772 108.403 93.2663C108.113 92.9524 107.716 92.7955 107.212 92.7955C106.864 92.7955 106.553 92.8709 106.279 93.0217C106.008 93.1725 105.794 93.3925 105.638 93.6818C105.481 93.9711 105.402 94.322 105.402 94.7344ZM114.004 99.1662C113.554 99.1662 113.147 99.0816 112.78 98.9123C112.414 98.7399 112.123 98.4922 111.908 98.169C111.692 97.8428 111.585 97.4489 111.585 96.9872C111.585 96.581 111.665 96.2517 111.825 95.9993C111.985 95.7438 112.199 95.5438 112.466 95.3991C112.734 95.2545 113.03 95.1468 113.353 95.076C113.679 95.0021 114.007 94.9437 114.336 94.9006C114.767 94.8452 115.116 94.8036 115.384 94.7759C115.655 94.7451 115.852 94.6944 115.975 94.6236C116.101 94.5528 116.164 94.4297 116.164 94.2543V94.2173C116.164 93.7618 116.04 93.4079 115.79 93.1555C115.544 92.9032 115.17 92.777 114.669 92.777C114.148 92.777 113.741 92.8909 113.445 93.1186C113.15 93.3464 112.942 93.5895 112.822 93.848L111.788 93.4787C111.972 93.0478 112.219 92.7124 112.526 92.4723C112.837 92.2292 113.176 92.0599 113.542 91.9645C113.911 91.866 114.275 91.8168 114.632 91.8168C114.859 91.8168 115.121 91.8445 115.416 91.8999C115.715 91.9522 116.003 92.0614 116.28 92.2276C116.56 92.3938 116.792 92.6446 116.977 92.9801C117.161 93.3156 117.254 93.7649 117.254 94.3281V99H116.164V98.0398H116.109C116.035 98.1937 115.912 98.3583 115.74 98.5337C115.567 98.7092 115.338 98.8584 115.052 98.9815C114.765 99.1046 114.416 99.1662 114.004 99.1662ZM114.17 98.1875C114.601 98.1875 114.964 98.1029 115.259 97.9336C115.558 97.7643 115.783 97.5458 115.933 97.2781C116.087 97.0103 116.164 96.7287 116.164 96.4332V95.4361C116.118 95.4915 116.017 95.5423 115.86 95.5884C115.706 95.6315 115.527 95.67 115.324 95.7038C115.124 95.7346 114.929 95.7623 114.738 95.7869C114.55 95.8085 114.398 95.8269 114.281 95.8423C113.998 95.8793 113.733 95.9393 113.487 96.0224C113.244 96.1024 113.047 96.224 112.896 96.3871C112.748 96.5471 112.674 96.7656 112.674 97.0426C112.674 97.4212 112.814 97.7074 113.094 97.9013C113.377 98.0921 113.736 98.1875 114.17 98.1875ZM120.332 89.5455V99H119.242V89.5455H120.332ZM123.029 101.659C122.844 101.659 122.68 101.644 122.535 101.613C122.39 101.585 122.29 101.558 122.235 101.53L122.512 100.57C122.777 100.637 123.01 100.662 123.214 100.643C123.417 100.625 123.597 100.534 123.754 100.371C123.914 100.211 124.06 99.951 124.192 99.5909L124.395 99.0369L121.773 91.9091H122.955L124.912 97.5597H124.986L126.944 91.9091H128.126L125.116 100.034C124.98 100.4 124.812 100.703 124.612 100.944C124.412 101.187 124.18 101.367 123.915 101.484C123.654 101.601 123.358 101.659 123.029 101.659ZM132.647 91.9091V92.8324H128.973V91.9091H132.647ZM130.044 90.2102H131.133V96.9688C131.133 97.2765 131.178 97.5073 131.267 97.6612C131.359 97.812 131.476 97.9136 131.618 97.9659C131.763 98.0152 131.915 98.0398 132.075 98.0398C132.195 98.0398 132.293 98.0336 132.37 98.0213C132.447 98.0059 132.509 97.9936 132.555 97.9844L132.777 98.9631C132.703 98.9908 132.6 99.0185 132.467 99.0462C132.335 99.0769 132.167 99.0923 131.964 99.0923C131.656 99.0923 131.355 99.0262 131.059 98.8938C130.767 98.7615 130.524 98.5599 130.33 98.2891C130.139 98.0182 130.044 97.6766 130.044 97.2642V90.2102ZM134.286 99V91.9091H135.376V99H134.286ZM134.84 90.7273C134.628 90.7273 134.445 90.6549 134.291 90.5103C134.14 90.3656 134.065 90.1918 134.065 89.9886C134.065 89.7855 134.14 89.6116 134.291 89.467C134.445 89.3223 134.628 89.25 134.84 89.25C135.053 89.25 135.234 89.3223 135.385 89.467C135.539 89.6116 135.616 89.7855 135.616 89.9886C135.616 90.1918 135.539 90.3656 135.385 90.5103C135.234 90.6549 135.053 90.7273 134.84 90.7273ZM140.252 99.1477C139.587 99.1477 139.015 98.9908 138.535 98.6768C138.054 98.3629 137.685 97.9305 137.427 97.3796C137.168 96.8287 137.039 96.1993 137.039 95.4915C137.039 94.7713 137.171 94.1358 137.436 93.5849C137.704 93.0309 138.076 92.5985 138.553 92.2876C139.033 91.9737 139.593 91.8168 140.233 91.8168C140.732 91.8168 141.181 91.9091 141.581 92.0938C141.982 92.2784 142.309 92.5369 142.565 92.8693C142.82 93.2017 142.979 93.5895 143.04 94.0327H141.951C141.868 93.7095 141.683 93.4233 141.397 93.174C141.114 92.9216 140.732 92.7955 140.252 92.7955C139.827 92.7955 139.455 92.9062 139.135 93.1278C138.818 93.3464 138.57 93.6557 138.391 94.0558C138.216 94.4528 138.128 94.919 138.128 95.4545C138.128 96.0024 138.214 96.4794 138.387 96.8857C138.562 97.2919 138.808 97.6074 139.125 97.832C139.446 98.0567 139.821 98.169 140.252 98.169C140.535 98.169 140.792 98.1198 141.023 98.0213C141.254 97.9228 141.449 97.7812 141.609 97.5966C141.769 97.4119 141.883 97.1903 141.951 96.9318H143.04C142.979 97.3504 142.826 97.7274 142.583 98.0629C142.343 98.3952 142.025 98.6599 141.628 98.8569C141.234 99.0508 140.775 99.1477 140.252 99.1477ZM149.656 93.4972L148.677 93.7741C148.615 93.611 148.525 93.4525 148.405 93.2987C148.288 93.1417 148.128 93.0124 147.924 92.9109C147.721 92.8093 147.461 92.7585 147.144 92.7585C146.71 92.7585 146.349 92.8585 146.059 93.0586C145.773 93.2556 145.63 93.5064 145.63 93.8111C145.63 94.0819 145.729 94.2958 145.926 94.4528C146.122 94.6097 146.43 94.7405 146.849 94.8452L147.901 95.1037C148.535 95.2576 149.008 95.493 149.319 95.81C149.629 96.1239 149.785 96.5286 149.785 97.0241C149.785 97.4304 149.668 97.7936 149.434 98.1136C149.203 98.4337 148.88 98.6861 148.465 98.8707C148.049 99.0554 147.566 99.1477 147.015 99.1477C146.292 99.1477 145.693 98.9908 145.219 98.6768C144.745 98.3629 144.445 97.9044 144.319 97.3011L145.353 97.0426C145.452 97.4242 145.638 97.7105 145.912 97.9013C146.189 98.0921 146.55 98.1875 146.997 98.1875C147.504 98.1875 147.908 98.0798 148.206 97.8643C148.508 97.6458 148.658 97.3842 148.658 97.0795C148.658 96.8333 148.572 96.6271 148.4 96.4609C148.228 96.2917 147.963 96.1655 147.606 96.0824L146.424 95.8054C145.775 95.6515 145.298 95.413 144.993 95.0898C144.691 94.7636 144.541 94.3558 144.541 93.8665C144.541 93.4664 144.653 93.1125 144.878 92.8047C145.105 92.4969 145.415 92.2553 145.805 92.0799C146.199 91.9045 146.646 91.8168 147.144 91.8168C147.846 91.8168 148.397 91.9706 148.797 92.2784C149.2 92.5862 149.486 92.9924 149.656 93.4972Z" fill="#2E263D" fill-opacity="0.7"/>
<path d="M213 32C213 28.6863 215.686 26 219 26H249C252.314 26 255 28.6863 255 32V62C255 65.3137 252.314 68 249 68H219C215.686 68 213 65.3137 213 62V32Z" fill="#56CA00" fill-opacity="0.16"/>
<path d="M236.167 49.4398V51.704C235.186 51.3573 234.137 51.251 233.107 51.3939C232.077 51.5369 231.096 51.9249 230.247 52.5254C229.398 53.1259 228.705 53.9214 228.227 54.845C227.749 55.7687 227.5 56.7935 227.5 57.8335L225.333 57.8324C225.333 56.5095 225.636 55.2041 226.218 54.0163C226.8 52.8284 227.646 51.7895 228.692 50.9793C229.738 50.1691 230.955 49.609 232.251 49.3419C233.546 49.0749 234.886 49.108 236.167 49.4387V49.4398ZM234 48.0835C230.409 48.0835 227.5 45.1747 227.5 41.5835C227.5 37.9922 230.409 35.0835 234 35.0835C237.591 35.0835 240.5 37.9922 240.5 41.5835C240.5 45.1747 237.591 48.0835 234 48.0835ZM234 45.9168C236.394 45.9168 238.333 43.9777 238.333 41.5835C238.333 39.1893 236.394 37.2502 234 37.2502C231.606 37.2502 229.667 39.1893 229.667 41.5835C229.667 43.9777 231.606 45.9168 234 45.9168ZM240.276 55.5737L244.105 51.7441L245.638 53.2759L240.276 58.6384L236.445 54.8077L237.978 53.2759L240.275 55.5737H240.276Z" fill="#56CA00"/>
</g>
<defs>
<filter id="filter0_d_8003_4434" x="0" y="0" width="285" height="138" filterUnits="userSpaceOnUse" color-interpolation-filters="sRGB">
<feFlood flood-opacity="0" result="BackgroundImageFix"/>
<feColorMatrix in="SourceAlpha" type="matrix" values="0 0 0 0 0 0 0 0 0 0 0 0 0 0 0 0 0 0 127 0" result="hardAlpha"/>
<feOffset dy="4"/>
<feGaussianBlur stdDeviation="5"/>
<feComposite in2="hardAlpha" operator="out"/>
<feColorMatrix type="matrix" values="0 0 0 0 0.180392 0 0 0 0 0.14902 0 0 0 0 0.239216 0 0 0 0.2 0"/>
<feBlend mode="normal" in2="BackgroundImageFix" result="effect1_dropShadow_8003_4434"/>
<feBlend mode="normal" in="SourceGraphic" in2="effect1_dropShadow_8003_4434" result="shape"/>
</filter>
</defs>
</svg>
