<svg width="260" height="108" viewBox="0 0 260 108" fill="none" xmlns="http://www.w3.org/2000/svg">
<path d="M6 0.5H254C257.038 0.500004 259.5 2.96244 259.5 6V102C259.5 105.038 257.038 107.5 254 107.5H6C2.96244 107.5 0.5 105.038 0.5 102V6C0.500002 2.96244 2.96244 0.5 6 0.5Z" stroke="#8C57FF"/>
<g clip-path="url(#clip0_8003_2899)">
<g filter="url(#filter0_d_8003_2899)">
<path d="M25 34C25 29.0294 29.0294 25 34 25V25C38.9706 25 43 29.0294 43 34V34C43 38.9706 38.9706 43 34 43V43C29.0294 43 25 38.9706 25 34V34Z" fill="white"/>
<path d="M34 27.5C37.5899 27.5 40.5 30.4101 40.5 34C40.5 37.5899 37.5899 40.5 34 40.5C30.4101 40.5 27.5 37.5899 27.5 34C27.5 30.4101 30.4101 27.5 34 27.5Z" stroke="#8C57FF" stroke-width="5"/>
</g>
</g>
<path d="M57.1985 39V28.0909H61.1935C61.9677 28.0909 62.6087 28.2187 63.1165 28.4744C63.6243 28.7266 64.0043 29.0692 64.2564 29.5025C64.5085 29.9322 64.6346 30.4169 64.6346 30.9567C64.6346 31.4112 64.5511 31.7947 64.3842 32.1072C64.2173 32.4162 63.9936 32.6648 63.7131 32.853C63.4361 33.0376 63.1307 33.1726 62.7969 33.2578V33.3643C63.1591 33.3821 63.5124 33.4993 63.8569 33.7159C64.2049 33.929 64.4925 34.2326 64.7198 34.6268C64.9471 35.021 65.0607 35.5004 65.0607 36.065C65.0607 36.6225 64.9293 37.1232 64.6665 37.5671C64.4073 38.0075 64.006 38.3572 63.4627 38.6165C62.9194 38.8722 62.2251 39 61.38 39H57.1985ZM58.8445 37.5884H61.2202C62.0085 37.5884 62.5732 37.4357 62.9141 37.1303C63.255 36.8249 63.4254 36.4432 63.4254 35.9851C63.4254 35.6406 63.3384 35.3246 63.1644 35.0369C62.9904 34.7493 62.7418 34.5202 62.4187 34.3498C62.0991 34.1793 61.7191 34.0941 61.2788 34.0941H58.8445V37.5884ZM58.8445 32.8104H61.0497C61.419 32.8104 61.7511 32.7393 62.0458 32.5973C62.3441 32.4553 62.5803 32.2564 62.7543 32.0007C62.9318 31.7415 63.0206 31.4361 63.0206 31.0845C63.0206 30.6335 62.8626 30.2553 62.5465 29.9499C62.2305 29.6445 61.7457 29.4918 61.0923 29.4918H58.8445V32.8104ZM69.2662 39.1811C68.7477 39.1811 68.2789 39.0852 67.8599 38.8935C67.4409 38.6982 67.1088 38.4158 66.8638 38.0465C66.6223 37.6772 66.5016 37.2244 66.5016 36.6882C66.5016 36.2266 66.5904 35.8466 66.7679 35.5483C66.9455 35.25 67.1852 35.0138 67.487 34.8398C67.7889 34.6658 68.1262 34.5344 68.4991 34.4457C68.872 34.3569 69.252 34.2894 69.639 34.2433C70.1291 34.1864 70.5268 34.1403 70.8322 34.1048C71.1376 34.0657 71.3596 34.0036 71.498 33.9183C71.6365 33.8331 71.7058 33.6946 71.7058 33.5028V33.4656C71.7058 33.0004 71.5744 32.6399 71.3116 32.3842C71.0524 32.1286 70.6653 32.0007 70.1504 32.0007C69.6142 32.0007 69.1916 32.1197 68.8826 32.3576C68.5772 32.592 68.3659 32.853 68.2488 33.1406L66.752 32.7997C66.9295 32.3026 67.1887 31.9013 67.5297 31.5959C67.8741 31.2869 68.2701 31.0632 68.7175 30.9247C69.165 30.7827 69.6355 30.7116 70.1291 30.7116C70.4558 30.7116 70.802 30.7507 71.1678 30.8288C71.5371 30.9034 71.8816 31.0419 72.2012 31.2443C72.5243 31.4467 72.7889 31.7362 72.9949 32.1126C73.2008 32.4854 73.3038 32.9702 73.3038 33.5668V39H71.7484V37.8814H71.6845C71.5815 38.0874 71.427 38.2898 71.2211 38.4886C71.0151 38.6875 70.7505 38.8526 70.4274 38.984C70.1042 39.1154 69.7172 39.1811 69.2662 39.1811ZM69.6124 37.9027C70.0527 37.9027 70.4292 37.8157 70.7417 37.6417C71.0577 37.4677 71.2974 37.2404 71.4608 36.9599C71.6277 36.6758 71.7111 36.3722 71.7111 36.049V34.9943C71.6543 35.0511 71.5442 35.1044 71.3809 35.1541C71.2211 35.2003 71.0382 35.2411 70.8322 35.2766C70.6262 35.3086 70.4256 35.3388 70.2303 35.3672C70.035 35.392 69.8716 35.4134 69.7402 35.4311C69.4313 35.4702 69.149 35.5359 68.8933 35.6282C68.6412 35.7205 68.4387 35.8537 68.286 36.0277C68.1369 36.1982 68.0623 36.4254 68.0623 36.7095C68.0623 37.1037 68.2079 37.402 68.4991 37.6044C68.7903 37.8033 69.1614 37.9027 69.6124 37.9027ZM81.5562 32.8157L80.1127 33.0714C80.0523 32.8867 79.9564 32.7109 79.825 32.544C79.6972 32.3771 79.5232 32.2404 79.303 32.1339C79.0828 32.0273 78.8076 31.9741 78.4774 31.9741C78.0264 31.9741 77.6499 32.0753 77.3481 32.2777C77.0463 32.4766 76.8953 32.734 76.8953 33.0501C76.8953 33.3235 76.9965 33.5437 77.199 33.7106C77.4014 33.8775 77.7281 34.0142 78.1791 34.1207L79.4788 34.419C80.2316 34.593 80.7927 34.8612 81.162 35.2234C81.5313 35.5856 81.716 36.0561 81.716 36.6349C81.716 37.125 81.574 37.5618 81.2899 37.9453C81.0093 38.3253 80.6169 38.6236 80.1127 38.8402C79.6119 39.0568 79.0313 39.1651 78.3708 39.1651C77.4546 39.1651 76.7071 38.9698 76.1283 38.5792C75.5494 38.185 75.1943 37.6257 75.0629 36.9013L76.6024 36.6669C76.6982 37.0682 76.8953 37.3718 77.1936 37.5778C77.4919 37.7802 77.8808 37.8814 78.3602 37.8814C78.8822 37.8814 79.2994 37.7731 79.6119 37.5565C79.9244 37.3363 80.0807 37.0682 80.0807 36.7521C80.0807 36.4964 79.9848 36.2816 79.7931 36.1076C79.6048 35.9336 79.3154 35.8022 78.9248 35.7134L77.5399 35.4098C76.7764 35.2358 76.2117 34.9588 75.846 34.5788C75.4838 34.1989 75.3026 33.7177 75.3026 33.1353C75.3026 32.6523 75.4376 32.2298 75.7075 31.8675C75.9774 31.5053 76.3502 31.223 76.8261 31.0206C77.3019 30.8146 77.847 30.7116 78.4614 30.7116C79.3456 30.7116 80.0416 30.9034 80.5494 31.2869C81.0573 31.6669 81.3928 32.1765 81.5562 32.8157ZM83.4672 39V30.8182H85.0598V39H83.4672ZM84.2715 29.5558C83.9945 29.5558 83.7566 29.4634 83.5577 29.2788C83.3624 29.0906 83.2647 28.8668 83.2647 28.6076C83.2647 28.3448 83.3624 28.1211 83.5577 27.9364C83.7566 27.7482 83.9945 27.6541 84.2715 27.6541C84.5485 27.6541 84.7846 27.7482 84.9799 27.9364C85.1788 28.1211 85.2782 28.3448 85.2782 28.6076C85.2782 28.8668 85.1788 29.0906 84.9799 29.2788C84.7846 29.4634 84.5485 29.5558 84.2715 29.5558ZM90.6489 39.1651C89.857 39.1651 89.1752 38.9858 88.6034 38.6271C88.0352 38.2649 87.5985 37.766 87.2931 37.1303C86.9877 36.4947 86.835 35.7667 86.835 34.9464C86.835 34.1154 86.9912 33.3821 87.3037 32.7464C87.6162 32.1072 88.0566 31.6083 88.6247 31.2496C89.1929 30.891 89.8623 30.7116 90.6329 30.7116C91.2544 30.7116 91.8083 30.8271 92.2948 31.0579C92.7813 31.2852 93.1737 31.6048 93.472 32.0167C93.7739 32.4286 93.9532 32.9098 94.01 33.4602H92.46C92.3747 33.0767 92.1794 32.7464 91.874 32.4695C91.5722 32.1925 91.1673 32.054 90.6595 32.054C90.2156 32.054 89.8268 32.1712 89.493 32.4055C89.1627 32.6364 88.9053 32.9666 88.7206 33.3963C88.536 33.8224 88.4436 34.3267 88.4436 34.9091C88.4436 35.5057 88.5342 36.0206 88.7153 36.4538C88.8964 36.8871 89.1521 37.2227 89.4823 37.4606C89.8161 37.6985 90.2085 37.8175 90.6595 37.8175C90.9614 37.8175 91.2348 37.7624 91.4798 37.6523C91.7284 37.5387 91.9362 37.3771 92.1031 37.1676C92.2735 36.9581 92.3925 36.706 92.46 36.4112H94.01C93.9532 36.9403 93.781 37.4126 93.4933 37.8281C93.2057 38.2436 92.8204 38.5703 92.3374 38.8082C91.858 39.0462 91.2952 39.1651 90.6489 39.1651Z" fill="#2E263D" fill-opacity="0.9"/>
<path d="M217.145 39V29.5455H222.814V30.5611H218.29V33.7557H222.389V34.7713H218.29V39H217.145ZM224.551 39V31.9091H225.603V32.9801H225.677C225.807 32.6293 226.04 32.3446 226.379 32.1261C226.718 31.9076 227.099 31.7983 227.524 31.7983C227.604 31.7983 227.704 31.7998 227.824 31.8029C227.944 31.806 228.035 31.8106 228.096 31.8168V32.9247C228.059 32.9155 227.975 32.9016 227.842 32.8832C227.713 32.8616 227.576 32.8509 227.432 32.8509C227.087 32.8509 226.779 32.9232 226.508 33.0678C226.241 33.2094 226.028 33.4064 225.871 33.6587C225.717 33.908 225.64 34.1927 225.64 34.5128V39H224.551ZM232.145 39.1477C231.462 39.1477 230.872 38.9969 230.377 38.6953C229.884 38.3906 229.504 37.9659 229.237 37.4212C228.972 36.8733 228.84 36.2363 228.84 35.5099C228.84 34.7836 228.972 34.1435 229.237 33.5895C229.504 33.0324 229.877 32.5985 230.354 32.2876C230.834 31.9737 231.394 31.8168 232.034 31.8168C232.403 31.8168 232.768 31.8783 233.128 32.0014C233.488 32.1245 233.816 32.3246 234.112 32.6016C234.407 32.8755 234.642 33.2386 234.818 33.6911C234.993 34.1435 235.081 34.7005 235.081 35.3622V35.8239H229.615V34.8821H233.973C233.973 34.482 233.893 34.125 233.733 33.8111C233.576 33.4972 233.351 33.2494 233.059 33.0678C232.77 32.8862 232.428 32.7955 232.034 32.7955C231.6 32.7955 231.225 32.9032 230.908 33.1186C230.594 33.331 230.352 33.608 230.183 33.9496C230.014 34.2912 229.929 34.6574 229.929 35.0483V35.6761C229.929 36.2116 230.021 36.6656 230.206 37.038C230.394 37.4073 230.654 37.6889 230.986 37.8828C231.319 38.0736 231.705 38.169 232.145 38.169C232.431 38.169 232.69 38.129 232.921 38.049C233.154 37.9659 233.356 37.8428 233.525 37.6797C233.695 37.5135 233.825 37.3073 233.918 37.0611L234.97 37.3565C234.859 37.7135 234.673 38.0275 234.412 38.2983C234.15 38.5661 233.827 38.7753 233.442 38.9261C233.057 39.0739 232.625 39.1477 232.145 39.1477ZM239.711 39.1477C239.028 39.1477 238.439 38.9969 237.943 38.6953C237.451 38.3906 237.071 37.9659 236.803 37.4212C236.538 36.8733 236.406 36.2363 236.406 35.5099C236.406 34.7836 236.538 34.1435 236.803 33.5895C237.071 33.0324 237.443 32.5985 237.92 32.2876C238.4 31.9737 238.96 31.8168 239.601 31.8168C239.97 31.8168 240.335 31.8783 240.695 32.0014C241.055 32.1245 241.383 32.3246 241.678 32.6016C241.973 32.8755 242.209 33.2386 242.384 33.6911C242.56 34.1435 242.647 34.7005 242.647 35.3622V35.8239H237.182V34.8821H241.54C241.54 34.482 241.459 34.125 241.299 33.8111C241.142 33.4972 240.918 33.2494 240.625 33.0678C240.336 32.8862 239.995 32.7955 239.601 32.7955C239.167 32.7955 238.791 32.9032 238.474 33.1186C238.16 33.331 237.919 33.608 237.749 33.9496C237.58 34.2912 237.495 34.6574 237.495 35.0483V35.6761C237.495 36.2116 237.588 36.6656 237.772 37.038C237.96 37.4073 238.22 37.6889 238.553 37.8828C238.885 38.0736 239.271 38.169 239.711 38.169C239.998 38.169 240.256 38.129 240.487 38.049C240.721 37.9659 240.922 37.8428 241.092 37.6797C241.261 37.5135 241.392 37.3073 241.484 37.0611L242.537 37.3565C242.426 37.7135 242.24 38.0275 241.978 38.2983C241.716 38.5661 241.393 38.7753 241.009 38.9261C240.624 39.0739 240.191 39.1477 239.711 39.1477Z" fill="#2E263D" fill-opacity="0.4"/>
<path d="M65.608 60.5C65.5064 60.1892 65.3725 59.9106 65.2063 59.6644C65.0432 59.4151 64.8478 59.2028 64.62 59.0273C64.3954 58.8519 64.1399 58.718 63.8537 58.6257C63.5675 58.5334 63.2536 58.4872 62.9119 58.4872C62.3518 58.4872 61.8424 58.6319 61.3839 58.9212C60.9253 59.2105 60.5606 59.6367 60.2898 60.1999C60.0189 60.7631 59.8835 61.4541 59.8835 62.2727C59.8835 63.0914 60.0205 63.7823 60.2944 64.3455C60.5683 64.9087 60.9392 65.335 61.407 65.6243C61.8748 65.9136 62.401 66.0582 62.9858 66.0582C63.5275 66.0582 64.0045 65.9428 64.4169 65.712C64.8324 65.4781 65.1555 65.1488 65.3864 64.7241C65.6203 64.2963 65.7372 63.7931 65.7372 63.2145L66.0881 63.2884H63.2443V62.2727H66.8452V63.2884C66.8452 64.067 66.679 64.7441 66.3466 65.3196C66.0173 65.8951 65.5618 66.3414 64.9801 66.6584C64.4015 66.9723 63.7367 67.1293 62.9858 67.1293C62.1487 67.1293 61.4131 66.9323 60.7791 66.5384C60.1482 66.1444 59.6558 65.5843 59.3018 64.858C58.951 64.1316 58.7756 63.2699 58.7756 62.2727C58.7756 61.5249 58.8756 60.8524 59.0756 60.2553C59.2788 59.6552 59.565 59.1443 59.9343 58.7227C60.3036 58.301 60.7406 57.9779 61.2454 57.7532C61.7501 57.5285 62.3056 57.4162 62.9119 57.4162C63.4105 57.4162 63.8752 57.4916 64.3061 57.6424C64.7401 57.7901 65.1263 58.0009 65.4648 58.2749C65.8065 58.5457 66.0911 58.8704 66.3189 59.2489C66.5466 59.6244 66.7036 60.0414 66.7898 60.5H65.608ZM71.6313 67.1477C70.9481 67.1477 70.3587 66.9969 69.8632 66.6953C69.3708 66.3906 68.9907 65.9659 68.7229 65.4212C68.4582 64.8733 68.3259 64.2363 68.3259 63.5099C68.3259 62.7836 68.4582 62.1435 68.7229 61.5895C68.9907 61.0324 69.3631 60.5985 69.8401 60.2876C70.3202 59.9737 70.8804 59.8168 71.5205 59.8168C71.8898 59.8168 72.2545 59.8783 72.6146 60.0014C72.9747 60.1245 73.3025 60.3246 73.5979 60.6016C73.8934 60.8755 74.1288 61.2386 74.3042 61.6911C74.4797 62.1435 74.5674 62.7005 74.5674 63.3622V63.8239H69.1015V62.8821H73.4594C73.4594 62.482 73.3794 62.125 73.2194 61.8111C73.0624 61.4972 72.8377 61.2494 72.5454 61.0678C72.2561 60.8862 71.9144 60.7955 71.5205 60.7955C71.0866 60.7955 70.7111 60.9032 70.3941 61.1186C70.0802 61.331 69.8386 61.608 69.6693 61.9496C69.5 62.2912 69.4154 62.6574 69.4154 63.0483V63.6761C69.4154 64.2116 69.5077 64.6656 69.6924 65.038C69.8801 65.4073 70.1402 65.6889 70.4726 65.8828C70.805 66.0736 71.1912 66.169 71.6313 66.169C71.9175 66.169 72.176 66.129 72.4069 66.049C72.6408 65.9659 72.8424 65.8428 73.0116 65.6797C73.1809 65.5135 73.3117 65.3073 73.404 65.0611L74.4566 65.3565C74.3458 65.7135 74.1596 66.0275 73.898 66.2983C73.6364 66.5661 73.3132 66.7753 72.9285 66.9261C72.5438 67.0739 72.1114 67.1477 71.6313 67.1477ZM79.3085 59.9091V60.8324H75.6338V59.9091H79.3085ZM76.7048 58.2102H77.7943V64.9688C77.7943 65.2765 77.8389 65.5073 77.9282 65.6612C78.0205 65.812 78.1375 65.9136 78.279 65.9659C78.4237 66.0152 78.576 66.0398 78.7361 66.0398C78.8561 66.0398 78.9546 66.0336 79.0315 66.0213C79.1085 66.0059 79.17 65.9936 79.2162 65.9844L79.4378 66.9631C79.3639 66.9908 79.2608 67.0185 79.1285 67.0462C78.9961 67.0769 78.8284 67.0923 78.6253 67.0923C78.3175 67.0923 78.0159 67.0262 77.7204 66.8938C77.4281 66.7615 77.1849 66.5599 76.991 66.2891C76.8002 66.0182 76.7048 65.6766 76.7048 65.2642V58.2102ZM87.909 57.5455V67H86.7641V58.7457H86.7087L84.4005 60.2784V59.1151L86.7641 57.5455H87.909ZM94.3028 69.6591V59.9091H95.3554V61.0355H95.4846C95.5647 60.9124 95.6755 60.7554 95.817 60.5646C95.9617 60.3707 96.1679 60.1984 96.4356 60.0476C96.7065 59.8937 97.0727 59.8168 97.5344 59.8168C98.1314 59.8168 98.6577 59.966 99.1132 60.2646C99.5687 60.5631 99.9242 60.9863 100.18 61.5341C100.435 62.0819 100.563 62.7282 100.563 63.473C100.563 64.224 100.435 64.8749 100.18 65.4258C99.9242 65.9736 99.5702 66.3983 99.1178 66.6999C98.6654 66.9985 98.1437 67.1477 97.5528 67.1477C97.0973 67.1477 96.7326 67.0723 96.4587 66.9215C96.1848 66.7676 95.974 66.5937 95.8263 66.3999C95.6785 66.2029 95.5647 66.0398 95.4846 65.9105H95.3923V69.6591H94.3028ZM95.3738 63.4545C95.3738 63.9901 95.4523 64.4625 95.6093 64.8718C95.7662 65.2781 95.9955 65.5966 96.2971 65.8274C96.5988 66.0552 96.9681 66.169 97.4051 66.169C97.8606 66.169 98.2407 66.049 98.5454 65.8089C98.8531 65.5658 99.084 65.2396 99.2378 64.8303C99.3948 64.4179 99.4733 63.9593 99.4733 63.4545C99.4733 62.956 99.3963 62.5066 99.2425 62.1065C99.0916 61.7034 98.8624 61.3848 98.5546 61.1509C98.2499 60.9139 97.8667 60.7955 97.4051 60.7955C96.9619 60.7955 96.5895 60.9078 96.2879 61.1325C95.9863 61.354 95.7586 61.6649 95.6047 62.065C95.4508 62.462 95.3738 62.9252 95.3738 63.4545ZM102.225 67V59.9091H103.277V60.9801H103.351C103.48 60.6293 103.714 60.3446 104.053 60.1261C104.391 59.9076 104.773 59.7983 105.198 59.7983C105.278 59.7983 105.378 59.7998 105.498 59.8029C105.618 59.806 105.709 59.8106 105.77 59.8168V60.9247C105.733 60.9155 105.649 60.9016 105.516 60.8832C105.387 60.8616 105.25 60.8509 105.105 60.8509C104.761 60.8509 104.453 60.9232 104.182 61.0678C103.914 61.2094 103.702 61.4064 103.545 61.6587C103.391 61.908 103.314 62.1927 103.314 62.5128V67H102.225ZM109.726 67.1477C109.086 67.1477 108.525 66.9954 108.041 66.6907C107.561 66.386 107.186 65.9598 106.915 65.4119C106.647 64.8641 106.513 64.224 106.513 63.4915C106.513 62.7528 106.647 62.1081 106.915 61.5572C107.186 61.0063 107.561 60.5785 108.041 60.2738C108.525 59.9691 109.086 59.8168 109.726 59.8168C110.367 59.8168 110.927 59.9691 111.407 60.2738C111.89 60.5785 112.266 61.0063 112.533 61.5572C112.804 62.1081 112.94 62.7528 112.94 63.4915C112.94 64.224 112.804 64.8641 112.533 65.4119C112.266 65.9598 111.89 66.386 111.407 66.6907C110.927 66.9954 110.367 67.1477 109.726 67.1477ZM109.726 66.169C110.213 66.169 110.613 66.0444 110.927 65.7951C111.241 65.5458 111.473 65.218 111.624 64.8118C111.775 64.4055 111.85 63.9654 111.85 63.4915C111.85 63.0175 111.775 62.5759 111.624 62.1665C111.473 61.7572 111.241 61.4264 110.927 61.174C110.613 60.9216 110.213 60.7955 109.726 60.7955C109.24 60.7955 108.84 60.9216 108.526 61.174C108.212 61.4264 107.98 61.7572 107.829 62.1665C107.678 62.5759 107.603 63.0175 107.603 63.4915C107.603 63.9654 107.678 64.4055 107.829 64.8118C107.98 65.218 108.212 65.5458 108.526 65.7951C108.84 66.0444 109.24 66.169 109.726 66.169ZM114.603 59.9091H115.692V67.517C115.692 67.9541 115.617 68.3326 115.466 68.6527C115.318 68.9728 115.094 69.2205 114.792 69.396C114.493 69.5714 114.116 69.6591 113.661 69.6591C113.624 69.6591 113.587 69.6591 113.55 69.6591C113.513 69.6591 113.476 69.6591 113.439 69.6591V68.6435C113.476 68.6435 113.51 68.6435 113.541 68.6435C113.572 68.6435 113.605 68.6435 113.642 68.6435C113.975 68.6435 114.218 68.545 114.372 68.348C114.526 68.1541 114.603 67.8771 114.603 67.517V59.9091ZM115.138 58.7273C114.926 58.7273 114.743 58.6549 114.589 58.5103C114.438 58.3656 114.363 58.1918 114.363 57.9886C114.363 57.7855 114.438 57.6116 114.589 57.467C114.743 57.3223 114.926 57.25 115.138 57.25C115.35 57.25 115.532 57.3223 115.683 57.467C115.837 57.6116 115.914 57.7855 115.914 57.9886C115.914 58.1918 115.837 58.3656 115.683 58.5103C115.532 58.6549 115.35 58.7273 115.138 58.7273ZM120.661 67.1477C119.977 67.1477 119.388 66.9969 118.892 66.6953C118.4 66.3906 118.02 65.9659 117.752 65.4212C117.488 64.8733 117.355 64.2363 117.355 63.5099C117.355 62.7836 117.488 62.1435 117.752 61.5895C118.02 61.0324 118.392 60.5985 118.869 60.2876C119.35 59.9737 119.91 59.8168 120.55 59.8168C120.919 59.8168 121.284 59.8783 121.644 60.0014C122.004 60.1245 122.332 60.3246 122.627 60.6016C122.923 60.8755 123.158 61.2386 123.334 61.6911C123.509 62.1435 123.597 62.7005 123.597 63.3622V63.8239H118.131V62.8821H122.489C122.489 62.482 122.409 62.125 122.249 61.8111C122.092 61.4972 121.867 61.2494 121.575 61.0678C121.285 60.8862 120.944 60.7955 120.55 60.7955C120.116 60.7955 119.74 60.9032 119.423 61.1186C119.109 61.331 118.868 61.608 118.699 61.9496C118.529 62.2912 118.445 62.6574 118.445 63.0483V63.6761C118.445 64.2116 118.537 64.6656 118.722 65.038C118.909 65.4073 119.169 65.6889 119.502 65.8828C119.834 66.0736 120.22 66.169 120.661 66.169C120.947 66.169 121.205 66.129 121.436 66.049C121.67 65.9659 121.872 65.8428 122.041 65.6797C122.21 65.5135 122.341 65.3073 122.433 65.0611L123.486 65.3565C123.375 65.7135 123.189 66.0275 122.927 66.2983C122.666 66.5661 122.343 66.7753 121.958 66.9261C121.573 67.0739 121.141 67.1477 120.661 67.1477ZM128.135 67.1477C127.47 67.1477 126.897 66.9908 126.417 66.6768C125.937 66.3629 125.568 65.9305 125.309 65.3796C125.051 64.8287 124.922 64.1993 124.922 63.4915C124.922 62.7713 125.054 62.1358 125.319 61.5849C125.586 61.0309 125.959 60.5985 126.436 60.2876C126.916 59.9737 127.476 59.8168 128.116 59.8168C128.615 59.8168 129.064 59.9091 129.464 60.0938C129.864 60.2784 130.192 60.5369 130.448 60.8693C130.703 61.2017 130.861 61.5895 130.923 62.0327H129.834C129.75 61.7095 129.566 61.4233 129.28 61.174C128.996 60.9216 128.615 60.7955 128.135 60.7955C127.71 60.7955 127.338 60.9062 127.017 61.1278C126.7 61.3464 126.453 61.6557 126.274 62.0558C126.099 62.4528 126.011 62.919 126.011 63.4545C126.011 64.0024 126.097 64.4794 126.27 64.8857C126.445 65.2919 126.691 65.6074 127.008 65.832C127.328 66.0567 127.704 66.169 128.135 66.169C128.418 66.169 128.675 66.1198 128.906 66.0213C129.136 65.9228 129.332 65.7812 129.492 65.5966C129.652 65.4119 129.766 65.1903 129.834 64.9318H130.923C130.861 65.3504 130.709 65.7274 130.466 66.0629C130.226 66.3952 129.907 66.6599 129.51 66.8569C129.116 67.0508 128.658 67.1477 128.135 67.1477ZM135.6 59.9091V60.8324H131.925V59.9091H135.6ZM132.996 58.2102H134.085V64.9688C134.085 65.2765 134.13 65.5073 134.219 65.6612C134.312 65.812 134.428 65.9136 134.57 65.9659C134.715 66.0152 134.867 66.0398 135.027 66.0398C135.147 66.0398 135.246 66.0336 135.323 66.0213C135.399 66.0059 135.461 65.9936 135.507 65.9844L135.729 66.9631C135.655 66.9908 135.552 67.0185 135.419 67.0462C135.287 67.0769 135.119 67.0923 134.916 67.0923C134.609 67.0923 134.307 67.0262 134.011 66.8938C133.719 66.7615 133.476 66.5599 133.282 66.2891C133.091 66.0182 132.996 65.6766 132.996 65.2642V58.2102ZM142.501 67L140.341 59.9091H141.486L143.018 65.3381H143.092L144.606 59.9091H145.77L147.265 65.3196H147.339L148.872 59.9091H150.017L147.856 67H146.785L145.234 61.5526H145.123L143.572 67H142.501ZM151.457 67V59.9091H152.547V67H151.457ZM152.011 58.7273C151.799 58.7273 151.616 58.6549 151.462 58.5103C151.311 58.3656 151.236 58.1918 151.236 57.9886C151.236 57.7855 151.311 57.6116 151.462 57.467C151.616 57.3223 151.799 57.25 152.011 57.25C152.223 57.25 152.405 57.3223 152.556 57.467C152.71 57.6116 152.787 57.7855 152.787 57.9886C152.787 58.1918 152.71 58.3656 152.556 58.5103C152.405 58.6549 152.223 58.7273 152.011 58.7273ZM157.626 59.9091V60.8324H153.951V59.9091H157.626ZM155.022 58.2102H156.112V64.9688C156.112 65.2765 156.156 65.5073 156.246 65.6612C156.338 65.812 156.455 65.9136 156.596 65.9659C156.741 66.0152 156.893 66.0398 157.053 66.0398C157.173 66.0398 157.272 66.0336 157.349 66.0213C157.426 66.0059 157.487 65.9936 157.534 65.9844L157.755 66.9631C157.681 66.9908 157.578 67.0185 157.446 67.0462C157.314 67.0769 157.146 67.0923 156.943 67.0923C156.635 67.0923 156.333 67.0262 156.038 66.8938C155.745 66.7615 155.502 66.5599 155.308 66.2891C155.118 66.0182 155.022 65.6766 155.022 65.2642V58.2102ZM160.507 62.7344V67H159.417V57.5455H160.507V61.017H160.599C160.765 60.6508 161.014 60.36 161.347 60.1445C161.682 59.926 162.128 59.8168 162.686 59.8168C163.169 59.8168 163.592 59.9137 163.955 60.1076C164.318 60.2984 164.6 60.5923 164.8 60.9893C165.003 61.3833 165.105 61.8849 165.105 62.4943V67H164.015V62.5682C164.015 62.005 163.869 61.5695 163.577 61.2617C163.287 60.9509 162.886 60.7955 162.372 60.7955C162.015 60.7955 161.695 60.8709 161.411 61.0217C161.131 61.1725 160.91 61.3925 160.747 61.6818C160.587 61.9711 160.507 62.322 160.507 62.7344ZM174.059 57.5455V67H172.915V58.7457H172.859L170.551 60.2784V59.1151L172.915 57.5455H174.059ZM183.537 59.9091V60.8324H179.862V59.9091H183.537ZM180.933 58.2102H182.023V64.9688C182.023 65.2765 182.067 65.5073 182.157 65.6612C182.249 65.812 182.366 65.9136 182.508 65.9659C182.652 66.0152 182.805 66.0398 182.965 66.0398C183.085 66.0398 183.183 66.0336 183.26 66.0213C183.337 66.0059 183.399 65.9936 183.445 65.9844L183.666 66.9631C183.592 66.9908 183.489 67.0185 183.357 67.0462C183.225 67.0769 183.057 67.0923 182.854 67.0923C182.546 67.0923 182.244 67.0262 181.949 66.8938C181.657 66.7615 181.413 66.5599 181.22 66.2891C181.029 66.0182 180.933 65.6766 180.933 65.2642V58.2102ZM188.073 67.1477C187.389 67.1477 186.8 66.9969 186.305 66.6953C185.812 66.3906 185.432 65.9659 185.164 65.4212C184.9 64.8733 184.767 64.2363 184.767 63.5099C184.767 62.7836 184.9 62.1435 185.164 61.5895C185.432 61.0324 185.804 60.5985 186.282 60.2876C186.762 59.9737 187.322 59.8168 187.962 59.8168C188.331 59.8168 188.696 59.8783 189.056 60.0014C189.416 60.1245 189.744 60.3246 190.039 60.6016C190.335 60.8755 190.57 61.2386 190.746 61.6911C190.921 62.1435 191.009 62.7005 191.009 63.3622V63.8239H185.543V62.8821H189.901C189.901 62.482 189.821 62.125 189.661 61.8111C189.504 61.4972 189.279 61.2494 188.987 61.0678C188.697 60.8862 188.356 60.7955 187.962 60.7955C187.528 60.7955 187.152 60.9032 186.835 61.1186C186.522 61.331 186.28 61.608 186.111 61.9496C185.941 62.2912 185.857 62.6574 185.857 63.0483V63.6761C185.857 64.2116 185.949 64.6656 186.134 65.038C186.322 65.4073 186.582 65.6889 186.914 65.8828C187.246 66.0736 187.633 66.169 188.073 66.169C188.359 66.169 188.617 66.129 188.848 66.049C189.082 65.9659 189.284 65.8428 189.453 65.6797C189.622 65.5135 189.753 65.3073 189.845 65.0611L190.898 65.3565C190.787 65.7135 190.601 66.0275 190.339 66.2983C190.078 66.5661 189.755 66.7753 189.37 66.9261C188.985 67.0739 188.553 67.1477 188.073 67.1477ZM194.753 67.1662C194.303 67.1662 193.896 67.0816 193.529 66.9123C193.163 66.7399 192.872 66.4922 192.657 66.169C192.441 65.8428 192.334 65.4489 192.334 64.9872C192.334 64.581 192.414 64.2517 192.574 63.9993C192.734 63.7438 192.948 63.5438 193.215 63.3991C193.483 63.2545 193.779 63.1468 194.102 63.076C194.428 63.0021 194.756 62.9437 195.085 62.9006C195.516 62.8452 195.865 62.8036 196.133 62.7759C196.404 62.7451 196.601 62.6944 196.724 62.6236C196.85 62.5528 196.913 62.4297 196.913 62.2543V62.2173C196.913 61.7618 196.789 61.4079 196.539 61.1555C196.293 60.9032 195.919 60.777 195.418 60.777C194.897 60.777 194.49 60.8909 194.194 61.1186C193.899 61.3464 193.691 61.5895 193.571 61.848L192.537 61.4787C192.722 61.0478 192.968 60.7124 193.275 60.4723C193.586 60.2292 193.925 60.0599 194.291 59.9645C194.66 59.866 195.024 59.8168 195.381 59.8168C195.608 59.8168 195.87 59.8445 196.165 59.8999C196.464 59.9522 196.752 60.0614 197.029 60.2276C197.309 60.3938 197.541 60.6446 197.726 60.9801C197.91 61.3156 198.003 61.7649 198.003 62.3281V67H196.913V66.0398H196.858C196.784 66.1937 196.661 66.3583 196.489 66.5337C196.316 66.7092 196.087 66.8584 195.801 66.9815C195.514 67.1046 195.165 67.1662 194.753 67.1662ZM194.919 66.1875C195.35 66.1875 195.713 66.1029 196.008 65.9336C196.307 65.7643 196.532 65.5458 196.682 65.2781C196.836 65.0103 196.913 64.7287 196.913 64.4332V63.4361C196.867 63.4915 196.766 63.5423 196.609 63.5884C196.455 63.6315 196.276 63.67 196.073 63.7038C195.873 63.7346 195.678 63.7623 195.487 63.7869C195.299 63.8085 195.147 63.8269 195.03 63.8423C194.747 63.8793 194.482 63.9393 194.236 64.0224C193.993 64.1024 193.796 64.224 193.645 64.3871C193.497 64.5471 193.423 64.7656 193.423 65.0426C193.423 65.4212 193.563 65.7074 193.843 65.9013C194.126 66.0921 194.485 66.1875 194.919 66.1875ZM199.991 67V59.9091H201.044V61.017H201.136C201.284 60.6385 201.522 60.3446 201.852 60.1353C202.181 59.9229 202.577 59.8168 203.038 59.8168C203.506 59.8168 203.895 59.9229 204.206 60.1353C204.52 60.3446 204.765 60.6385 204.94 61.017H205.014C205.196 60.6508 205.468 60.36 205.831 60.1445C206.194 59.926 206.63 59.8168 207.138 59.8168C207.772 59.8168 208.29 60.0153 208.693 60.4123C209.097 60.8062 209.298 61.4202 209.298 62.2543V67H208.209V62.2543C208.209 61.7311 208.066 61.3571 207.779 61.1325C207.493 60.9078 207.156 60.7955 206.768 60.7955C206.27 60.7955 205.883 60.9463 205.61 61.2479C205.336 61.5464 205.199 61.925 205.199 62.3835V67H204.091V62.1435C204.091 61.7403 203.96 61.4156 203.698 61.1694C203.437 60.9201 203.1 60.7955 202.687 60.7955C202.404 60.7955 202.14 60.8709 201.893 61.0217C201.65 61.1725 201.453 61.3817 201.302 61.6495C201.155 61.9142 201.081 62.2204 201.081 62.5682V67H199.991ZM216.313 61.4972L215.334 61.7741C215.273 61.611 215.182 61.4525 215.062 61.2987C214.945 61.1417 214.785 61.0124 214.582 60.9109C214.379 60.8093 214.118 60.7585 213.801 60.7585C213.368 60.7585 213.006 60.8585 212.717 61.0586C212.43 61.2556 212.287 61.5064 212.287 61.8111C212.287 62.0819 212.386 62.2958 212.583 62.4528C212.78 62.6097 213.087 62.7405 213.506 62.8452L214.559 63.1037C215.193 63.2576 215.665 63.493 215.976 63.81C216.287 64.1239 216.442 64.5286 216.442 65.0241C216.442 65.4304 216.325 65.7936 216.091 66.1136C215.86 66.4337 215.537 66.6861 215.122 66.8707C214.706 67.0554 214.223 67.1477 213.672 67.1477C212.949 67.1477 212.35 66.9908 211.876 66.6768C211.402 66.3629 211.102 65.9044 210.976 65.3011L212.01 65.0426C212.109 65.4242 212.295 65.7105 212.569 65.9013C212.846 66.0921 213.208 66.1875 213.654 66.1875C214.162 66.1875 214.565 66.0798 214.863 65.8643C215.165 65.6458 215.316 65.3842 215.316 65.0795C215.316 64.8333 215.23 64.6271 215.057 64.4609C214.885 64.2917 214.62 64.1655 214.263 64.0824L213.081 63.8054C212.432 63.6515 211.955 63.413 211.65 63.0898C211.349 62.7636 211.198 62.3558 211.198 61.8665C211.198 61.4664 211.31 61.1125 211.535 60.8047C211.763 60.4969 212.072 60.2553 212.463 60.0799C212.857 59.9045 213.303 59.8168 213.801 59.8168C214.503 59.8168 215.054 59.9706 215.454 60.2784C215.857 60.5862 216.144 60.9924 216.313 61.4972ZM58.9972 87V79.9091H60.0497V81.017H60.142C60.2898 80.6385 60.5283 80.3446 60.8576 80.1353C61.1869 79.9229 61.5824 79.8168 62.044 79.8168C62.5118 79.8168 62.9012 79.9229 63.212 80.1353C63.5259 80.3446 63.7706 80.6385 63.946 81.017H64.0199C64.2015 80.6508 64.4738 80.36 64.837 80.1445C65.2002 79.926 65.6357 79.8168 66.1435 79.8168C66.7775 79.8168 67.296 80.0153 67.6992 80.4123C68.1024 80.8062 68.304 81.4202 68.304 82.2543V87H67.2145V82.2543C67.2145 81.7311 67.0714 81.3571 66.7852 81.1325C66.4989 80.9078 66.1619 80.7955 65.7741 80.7955C65.2756 80.7955 64.8893 80.9463 64.6154 81.2479C64.3415 81.5464 64.2045 81.925 64.2045 82.3835V87H63.0966V82.1435C63.0966 81.7403 62.9658 81.4156 62.7042 81.1694C62.4426 80.9201 62.1056 80.7955 61.6932 80.7955C61.41 80.7955 61.1454 80.8709 60.8991 81.0217C60.656 81.1725 60.459 81.3817 60.3082 81.6495C60.1605 81.9142 60.0866 82.2204 60.0866 82.5682V87H58.9972ZM73.269 87.1477C72.5858 87.1477 71.9964 86.9969 71.5009 86.6953C71.0085 86.3906 70.6284 85.9659 70.3606 85.4212C70.0959 84.8733 69.9636 84.2363 69.9636 83.5099C69.9636 82.7836 70.0959 82.1435 70.3606 81.5895C70.6284 81.0324 71.0008 80.5985 71.4778 80.2876C71.9579 79.9737 72.5181 79.8168 73.1582 79.8168C73.5275 79.8168 73.8922 79.8783 74.2523 80.0014C74.6124 80.1245 74.9402 80.3246 75.2356 80.6016C75.5311 80.8755 75.7665 81.2386 75.9419 81.6911C76.1174 82.1435 76.2051 82.7005 76.2051 83.3622V83.8239H70.7392V82.8821H75.0971C75.0971 82.482 75.0171 82.125 74.8571 81.8111C74.7001 81.4972 74.4754 81.2494 74.1831 81.0678C73.8938 80.8862 73.5521 80.7955 73.1582 80.7955C72.7243 80.7955 72.3488 80.9032 72.0318 81.1186C71.7179 81.331 71.4763 81.608 71.307 81.9496C71.1377 82.2912 71.0531 82.6574 71.0531 83.0483V83.6761C71.0531 84.2116 71.1454 84.6656 71.3301 85.038C71.5178 85.4073 71.7779 85.6889 72.1103 85.8828C72.4426 86.0736 72.8289 86.169 73.269 86.169C73.5552 86.169 73.8137 86.129 74.0446 86.049C74.2785 85.9659 74.4801 85.8428 74.6493 85.6797C74.8186 85.5135 74.9494 85.3073 75.0417 85.0611L76.0943 85.3565C75.9835 85.7135 75.7973 86.0275 75.5357 86.2983C75.2741 86.5661 74.9509 86.7753 74.5662 86.9261C74.1815 87.0739 73.7491 87.1477 73.269 87.1477ZM77.8624 87V79.9091H78.915V81.017H79.0073C79.155 80.6385 79.3935 80.3446 79.7228 80.1353C80.0521 79.9229 80.4476 79.8168 80.9093 79.8168C81.3771 79.8168 81.7664 79.9229 82.0772 80.1353C82.3912 80.3446 82.6358 80.6385 82.8113 81.017H82.8851C83.0667 80.6508 83.3391 80.36 83.7022 80.1445C84.0654 79.926 84.5009 79.8168 85.0087 79.8168C85.6427 79.8168 86.1613 80.0153 86.5645 80.4123C86.9676 80.8062 87.1692 81.4202 87.1692 82.2543V87H86.0797V82.2543C86.0797 81.7311 85.9366 81.3571 85.6504 81.1325C85.3642 80.9078 85.0272 80.7955 84.6394 80.7955C84.1408 80.7955 83.7546 80.9463 83.4806 81.2479C83.2067 81.5464 83.0698 81.925 83.0698 82.3835V87H81.9618V82.1435C81.9618 81.7403 81.831 81.4156 81.5694 81.1694C81.3078 80.9201 80.9708 80.7955 80.5584 80.7955C80.2753 80.7955 80.0106 80.8709 79.7644 81.0217C79.5212 81.1725 79.3243 81.3817 79.1735 81.6495C79.0257 81.9142 78.9519 82.2204 78.9519 82.5682V87H77.8624ZM89.3089 87V77.5455H90.3984V81.0355H90.4908C90.5708 80.9124 90.6816 80.7554 90.8232 80.5646C90.9678 80.3707 91.174 80.1984 91.4418 80.0476C91.7126 79.8937 92.0788 79.8168 92.5405 79.8168C93.1375 79.8168 93.6638 79.966 94.1193 80.2646C94.5748 80.5631 94.9303 80.9863 95.1857 81.5341C95.4412 82.0819 95.5689 82.7282 95.5689 83.473C95.5689 84.224 95.4412 84.8749 95.1857 85.4258C94.9303 85.9736 94.5763 86.3983 94.1239 86.6999C93.6715 86.9985 93.1499 87.1477 92.5589 87.1477C92.1035 87.1477 91.7388 87.0723 91.4648 86.9215C91.1909 86.7676 90.9801 86.5937 90.8324 86.3999C90.6847 86.2029 90.5708 86.0398 90.4908 85.9105H90.3615V87H89.3089ZM90.38 83.4545C90.38 83.9901 90.4585 84.4625 90.6154 84.8718C90.7724 85.2781 91.0017 85.5966 91.3033 85.8274C91.6049 86.0552 91.9742 86.169 92.4112 86.169C92.8667 86.169 93.2468 86.049 93.5515 85.8089C93.8593 85.5658 94.0901 85.2396 94.244 84.8303C94.4009 84.4179 94.4794 83.9593 94.4794 83.4545C94.4794 82.956 94.4025 82.5066 94.2486 82.1065C94.0978 81.7034 93.8685 81.3848 93.5607 81.1509C93.256 80.9139 92.8729 80.7955 92.4112 80.7955C91.968 80.7955 91.5956 80.9078 91.294 81.1325C90.9924 81.354 90.7647 81.6649 90.6108 82.065C90.4569 82.462 90.38 82.9252 90.38 83.4545ZM100.208 87.1477C99.5252 87.1477 98.9358 86.9969 98.4403 86.6953C97.9479 86.3906 97.5678 85.9659 97.3001 85.4212C97.0354 84.8733 96.9031 84.2363 96.9031 83.5099C96.9031 82.7836 97.0354 82.1435 97.3001 81.5895C97.5678 81.0324 97.9402 80.5985 98.4173 80.2876C98.8974 79.9737 99.4575 79.8168 100.098 79.8168C100.467 79.8168 100.832 79.8783 101.192 80.0014C101.552 80.1245 101.88 80.3246 102.175 80.6016C102.471 80.8755 102.706 81.2386 102.881 81.6911C103.057 82.1435 103.145 82.7005 103.145 83.3622V83.8239H97.6786V82.8821H102.037C102.037 82.482 101.957 82.125 101.797 81.8111C101.64 81.4972 101.415 81.2494 101.123 81.0678C100.833 80.8862 100.492 80.7955 100.098 80.7955C99.6637 80.7955 99.2882 80.9032 98.9712 81.1186C98.6573 81.331 98.4157 81.608 98.2464 81.9496C98.0772 82.2912 97.9925 82.6574 97.9925 83.0483V83.6761C97.9925 84.2116 98.0849 84.6656 98.2695 85.038C98.4573 85.4073 98.7173 85.6889 99.0497 85.8828C99.3821 86.0736 99.7683 86.169 100.208 86.169C100.495 86.169 100.753 86.129 100.984 86.049C101.218 85.9659 101.42 85.8428 101.589 85.6797C101.758 85.5135 101.889 85.3073 101.981 85.0611L103.034 85.3565C102.923 85.7135 102.737 86.0275 102.475 86.2983C102.214 86.5661 101.89 86.7753 101.506 86.9261C101.121 87.0739 100.689 87.1477 100.208 87.1477ZM104.802 87V79.9091H105.854V80.9801H105.928C106.058 80.6293 106.291 80.3446 106.63 80.1261C106.969 79.9076 107.35 79.7983 107.775 79.7983C107.855 79.7983 107.955 79.7998 108.075 79.8029C108.195 79.806 108.286 79.8106 108.347 79.8168V80.9247C108.31 80.9155 108.226 80.9016 108.093 80.8832C107.964 80.8616 107.827 80.8509 107.683 80.8509C107.338 80.8509 107.03 80.9232 106.759 81.0678C106.491 81.2094 106.279 81.4064 106.122 81.6587C105.968 81.908 105.891 82.1927 105.891 82.5128V87H104.802ZM114.661 81.4972L113.683 81.7741C113.621 81.611 113.53 81.4525 113.41 81.2987C113.293 81.1417 113.133 81.0124 112.93 80.9109C112.727 80.8093 112.467 80.7585 112.15 80.7585C111.716 80.7585 111.355 80.8585 111.065 81.0586C110.779 81.2556 110.636 81.5064 110.636 81.8111C110.636 82.0819 110.734 82.2958 110.931 82.4528C111.128 82.6097 111.436 82.7405 111.855 82.8452L112.907 83.1037C113.541 83.2576 114.014 83.493 114.324 83.81C114.635 84.1239 114.791 84.5286 114.791 85.0241C114.791 85.4304 114.674 85.7936 114.44 86.1136C114.209 86.4337 113.886 86.6861 113.47 86.8707C113.055 87.0554 112.572 87.1477 112.021 87.1477C111.298 87.1477 110.699 86.9908 110.225 86.6768C109.751 86.3629 109.451 85.9044 109.325 85.3011L110.359 85.0426C110.457 85.4242 110.644 85.7105 110.918 85.9013C111.195 86.0921 111.556 86.1875 112.002 86.1875C112.51 86.1875 112.913 86.0798 113.212 85.8643C113.514 85.6458 113.664 85.3842 113.664 85.0795C113.664 84.8333 113.578 84.6271 113.406 84.4609C113.233 84.2917 112.969 84.1655 112.612 84.0824L111.43 83.8054C110.781 83.6515 110.304 83.413 109.999 83.0898C109.697 82.7636 109.546 82.3558 109.546 81.8665C109.546 81.4664 109.659 81.1125 109.883 80.8047C110.111 80.4969 110.42 80.2553 110.811 80.0799C111.205 79.9045 111.652 79.8168 112.15 79.8168C112.852 79.8168 113.403 79.9706 113.803 80.2784C114.206 80.5862 114.492 80.9924 114.661 81.4972ZM117.225 87.0739C116.997 87.0739 116.802 86.9923 116.638 86.8292C116.475 86.6661 116.394 86.4706 116.394 86.2429C116.394 86.0152 116.475 85.8197 116.638 85.6566C116.802 85.4935 116.997 85.4119 117.225 85.4119C117.453 85.4119 117.648 85.4935 117.811 85.6566C117.974 85.8197 118.056 86.0152 118.056 86.2429C118.056 86.3937 118.017 86.5322 117.94 86.6584C117.866 86.7846 117.766 86.8861 117.64 86.9631C117.517 87.0369 117.379 87.0739 117.225 87.0739Z" fill="#2E263D" fill-opacity="0.7"/>
<defs>
<filter id="filter0_d_8003_2899" x="21" y="23" width="26" height="26" filterUnits="userSpaceOnUse" color-interpolation-filters="sRGB">
<feFlood flood-opacity="0" result="BackgroundImageFix"/>
<feColorMatrix in="SourceAlpha" type="matrix" values="0 0 0 0 0 0 0 0 0 0 0 0 0 0 0 0 0 0 127 0" result="hardAlpha"/>
<feOffset dy="2"/>
<feGaussianBlur stdDeviation="2"/>
<feColorMatrix type="matrix" values="0 0 0 0 0.180392 0 0 0 0 0.14902 0 0 0 0 0.239216 0 0 0 0.16 0"/>
<feBlend mode="normal" in2="BackgroundImageFix" result="effect1_dropShadow_8003_2899"/>
<feBlend mode="normal" in="SourceGraphic" in2="effect1_dropShadow_8003_2899" result="shape"/>
</filter>
<clipPath id="clip0_8003_2899">
<rect width="36" height="36" fill="white" transform="translate(16 16)"/>
</clipPath>
</defs>
</svg>
