<svg width="260" height="108" viewBox="0 0 260 108" fill="none" xmlns="http://www.w3.org/2000/svg">
<path d="M6 0.5H254C257.038 0.500004 259.5 2.96244 259.5 6V102C259.5 105.038 257.038 107.5 254 107.5H6C2.96244 107.5 0.5 105.038 0.5 102V6C0.500002 2.96244 2.96244 0.5 6 0.5Z" stroke="#8C57FF"/>
<g clip-path="url(#clip0_8003_2885)">
<g filter="url(#filter0_d_8003_2885)">
<path d="M25 29C25 26.7909 26.7909 25 29 25H39C41.2091 25 43 26.7909 43 29V39C43 41.2091 41.2091 43 39 43H29C26.7909 43 25 41.2091 25 39V29Z" fill="#8C57FF"/>
<path d="M33 35.586L37.596 30.9895L38.3035 31.6965L33 37L29.818 33.818L30.525 33.111L33 35.586Z" fill="white"/>
</g>
</g>
<path d="M60.7301 39H57.1985V28.0909H60.842C61.9109 28.0909 62.8288 28.3093 63.5959 28.7461C64.3629 29.1793 64.9506 29.8026 65.359 30.6158C65.771 31.4254 65.9769 32.3967 65.9769 33.5295C65.9769 34.6658 65.7692 35.6424 65.3537 36.4592C64.9418 37.2759 64.3452 37.9045 63.5639 38.3448C62.7827 38.7816 61.8381 39 60.7301 39ZM58.8445 37.5618H60.6396C61.4705 37.5618 62.1612 37.4055 62.7116 37.093C63.2621 36.777 63.674 36.3207 63.9474 35.7241C64.2209 35.1239 64.3576 34.3924 64.3576 33.5295C64.3576 32.6737 64.2209 31.9474 63.9474 31.3509C63.6776 30.7543 63.2745 30.3015 62.7383 29.9925C62.2021 29.6836 61.5362 29.5291 60.7408 29.5291H58.8445V37.5618ZM67.8959 39V30.8182H69.4885V39H67.8959ZM68.7002 29.5558C68.4232 29.5558 68.1853 29.4634 67.9864 29.2788C67.7911 29.0906 67.6934 28.8668 67.6934 28.6076C67.6934 28.3448 67.7911 28.1211 67.9864 27.9364C68.1853 27.7482 68.4232 27.6541 68.7002 27.6541C68.9772 27.6541 69.2133 27.7482 69.4086 27.9364C69.6075 28.1211 69.7069 28.3448 69.7069 28.6076C69.7069 28.8668 69.6075 29.0906 69.4086 29.2788C69.2133 29.4634 68.9772 29.5558 68.7002 29.5558ZM77.7623 32.8157L76.3187 33.0714C76.2583 32.8867 76.1625 32.7109 76.0311 32.544C75.9032 32.3771 75.7292 32.2404 75.5091 32.1339C75.2889 32.0273 75.0137 31.9741 74.6834 31.9741C74.2324 31.9741 73.856 32.0753 73.5542 32.2777C73.2523 32.4766 73.1014 32.734 73.1014 33.0501C73.1014 33.3235 73.2026 33.5437 73.405 33.7106C73.6074 33.8775 73.9341 34.0142 74.3851 34.1207L75.6848 34.419C76.4377 34.593 76.9988 34.8612 77.3681 35.2234C77.7374 35.5856 77.9221 36.0561 77.9221 36.6349C77.9221 37.125 77.78 37.5618 77.4959 37.9453C77.2154 38.3253 76.823 38.6236 76.3187 38.8402C75.818 39.0568 75.2374 39.1651 74.5769 39.1651C73.6607 39.1651 72.9132 38.9698 72.3343 38.5792C71.7555 38.185 71.4004 37.6257 71.269 36.9013L72.8084 36.6669C72.9043 37.0682 73.1014 37.3718 73.3997 37.5778C73.698 37.7802 74.0868 37.8814 74.5662 37.8814C75.0882 37.8814 75.5055 37.7731 75.818 37.5565C76.1305 37.3363 76.2868 37.0682 76.2868 36.7521C76.2868 36.4964 76.1909 36.2816 75.9991 36.1076C75.8109 35.9336 75.5215 35.8022 75.1309 35.7134L73.7459 35.4098C72.9824 35.2358 72.4178 34.9588 72.052 34.5788C71.6898 34.1989 71.5087 33.7177 71.5087 33.1353C71.5087 32.6523 71.6436 32.2298 71.9135 31.8675C72.1834 31.5053 72.5563 31.223 73.0321 31.0206C73.508 30.8146 74.0531 30.7116 74.6674 30.7116C75.5517 30.7116 76.2477 30.9034 76.7555 31.2869C77.2633 31.6669 77.5989 32.1765 77.7623 32.8157ZM83.1196 39.1651C82.3277 39.1651 81.6459 38.9858 81.0741 38.6271C80.5059 38.2649 80.0692 37.766 79.7638 37.1303C79.4584 36.4947 79.3057 35.7667 79.3057 34.9464C79.3057 34.1154 79.4619 33.3821 79.7744 32.7464C80.0869 32.1072 80.5273 31.6083 81.0954 31.2496C81.6636 30.891 82.333 30.7116 83.1036 30.7116C83.7251 30.7116 84.279 30.8271 84.7655 31.0579C85.252 31.2852 85.6444 31.6048 85.9427 32.0167C86.2446 32.4286 86.4239 32.9098 86.4807 33.4602H84.9307C84.8454 33.0767 84.6501 32.7464 84.3447 32.4695C84.0429 32.1925 83.6381 32.054 83.1302 32.054C82.6863 32.054 82.2975 32.1712 81.9637 32.4055C81.6334 32.6364 81.376 32.9666 81.1913 33.3963C81.0067 33.8224 80.9143 34.3267 80.9143 34.9091C80.9143 35.5057 81.0049 36.0206 81.186 36.4538C81.3671 36.8871 81.6228 37.2227 81.953 37.4606C82.2868 37.6985 82.6792 37.8175 83.1302 37.8175C83.4321 37.8175 83.7055 37.7624 83.9506 37.6523C84.1991 37.5387 84.4069 37.3771 84.5738 37.1676C84.7442 36.9581 84.8632 36.706 84.9307 36.4112H86.4807C86.4239 36.9403 86.2517 37.4126 85.964 37.8281C85.6764 38.2436 85.2911 38.5703 84.8082 38.8082C84.3287 39.0462 83.7659 39.1651 83.1196 39.1651ZM91.6303 39.1651C90.8633 39.1651 90.1939 38.9893 89.6222 38.6378C89.0504 38.2862 88.6065 37.7944 88.2905 37.1623C87.9744 36.5302 87.8164 35.7915 87.8164 34.9464C87.8164 34.0977 87.9744 33.3555 88.2905 32.7198C88.6065 32.0842 89.0504 31.5906 89.6222 31.239C90.1939 30.8874 90.8633 30.7116 91.6303 30.7116C92.3974 30.7116 93.0668 30.8874 93.6385 31.239C94.2102 31.5906 94.6541 32.0842 94.9702 32.7198C95.2862 33.3555 95.4442 34.0977 95.4442 34.9464C95.4442 35.7915 95.2862 36.5302 94.9702 37.1623C94.6541 37.7944 94.2102 38.2862 93.6385 38.6378C93.0668 38.9893 92.3974 39.1651 91.6303 39.1651ZM91.6357 37.8281C92.1328 37.8281 92.5447 37.6967 92.8714 37.4339C93.1982 37.1712 93.4396 36.8214 93.5959 36.3846C93.7557 35.9478 93.8356 35.4666 93.8356 34.9411C93.8356 34.419 93.7557 33.9396 93.5959 33.5028C93.4396 33.0625 93.1982 32.7092 92.8714 32.4428C92.5447 32.1765 92.1328 32.0433 91.6357 32.0433C91.1349 32.0433 90.7195 32.1765 90.3892 32.4428C90.0625 32.7092 89.8192 33.0625 89.6594 33.5028C89.5032 33.9396 89.4251 34.419 89.4251 34.9411C89.4251 35.4666 89.5032 35.9478 89.6594 36.3846C89.8192 36.8214 90.0625 37.1712 90.3892 37.4339C90.7195 37.6967 91.1349 37.8281 91.6357 37.8281ZM102.405 35.6069V30.8182H104.003V39H102.437V37.5831H102.352C102.163 38.0199 101.862 38.3839 101.446 38.6751C101.034 38.9627 100.521 39.1065 99.9067 39.1065C99.3811 39.1065 98.9159 38.9911 98.5111 38.7603C98.1098 38.5259 97.7938 38.1797 97.5629 37.7216C97.3357 37.2635 97.222 36.6971 97.222 36.0224V30.8182H98.8147V35.8306C98.8147 36.3881 98.9692 36.832 99.2781 37.1623C99.5871 37.4925 99.9884 37.6577 100.482 37.6577C100.78 37.6577 101.077 37.5831 101.372 37.4339C101.67 37.2848 101.917 37.0593 102.112 36.7575C102.311 36.4556 102.408 36.0721 102.405 35.6069ZM107.736 34.142V39H106.143V30.8182H107.672V32.1499H107.773C107.961 31.7166 108.256 31.3686 108.657 31.1058C109.062 30.843 109.572 30.7116 110.186 30.7116C110.743 30.7116 111.232 30.8288 111.651 31.0632C112.07 31.294 112.395 31.6385 112.626 32.0966C112.856 32.5547 112.972 33.1211 112.972 33.7958V39H111.379V33.9876C111.379 33.3945 111.225 32.9311 110.916 32.5973C110.607 32.2599 110.182 32.0913 109.643 32.0913C109.273 32.0913 108.945 32.1712 108.657 32.331C108.373 32.4908 108.148 32.7251 107.981 33.0341C107.817 33.3395 107.736 33.7088 107.736 34.142ZM118.927 30.8182V32.0966H114.458V30.8182H118.927ZM115.656 28.858H117.249V36.5977C117.249 36.9066 117.295 37.1392 117.388 37.2955C117.48 37.4482 117.599 37.5529 117.744 37.6097C117.894 37.663 118.055 37.6896 118.229 37.6896C118.357 37.6896 118.469 37.6808 118.565 37.663C118.661 37.6452 118.735 37.631 118.789 37.6204L119.076 38.9361C118.984 38.9716 118.852 39.0071 118.682 39.0426C118.512 39.0817 118.298 39.103 118.043 39.1065C117.624 39.1136 117.233 39.0391 116.871 38.8828C116.509 38.7266 116.216 38.4851 115.992 38.1584C115.768 37.8317 115.656 37.4215 115.656 36.9279V28.858Z" fill="#2E263D" fill-opacity="0.9"/>
<path d="M217.979 39V38.169L221.099 34.7528C221.466 34.3527 221.767 34.005 222.004 33.7095C222.241 33.411 222.417 33.1309 222.531 32.8693C222.647 32.6046 222.706 32.3277 222.706 32.0384C222.706 31.706 222.626 31.4182 222.466 31.1751C222.309 30.9319 222.094 30.7442 221.82 30.6119C221.546 30.4795 221.238 30.4134 220.896 30.4134C220.533 30.4134 220.216 30.4888 219.945 30.6396C219.678 30.7873 219.47 30.995 219.322 31.2628C219.177 31.5305 219.105 31.8445 219.105 32.2045H218.016C218.016 31.6506 218.143 31.1643 218.399 30.7457C218.654 30.3272 219.002 30.0009 219.442 29.767C219.885 29.5331 220.382 29.4162 220.933 29.4162C221.487 29.4162 221.978 29.5331 222.406 29.767C222.834 30.0009 223.169 30.3164 223.412 30.7134C223.655 31.1104 223.777 31.5521 223.777 32.0384C223.777 32.3861 223.714 32.7262 223.588 33.0586C223.465 33.3879 223.249 33.7557 222.941 34.1619C222.637 34.5651 222.214 35.0575 221.672 35.6392L219.548 37.9105V37.9844H223.943V39H217.979ZM228.934 39.1293C228.238 39.1293 227.646 38.94 227.156 38.5614C226.667 38.1798 226.293 37.6274 226.034 36.9041C225.776 36.1778 225.647 35.3007 225.647 34.2727C225.647 33.2509 225.776 32.3784 226.034 31.6552C226.296 30.9289 226.672 30.3749 227.161 29.9933C227.653 29.6085 228.244 29.4162 228.934 29.4162C229.623 29.4162 230.212 29.6085 230.702 29.9933C231.194 30.3749 231.57 30.9289 231.828 31.6552C232.09 32.3784 232.221 33.2509 232.221 34.2727C232.221 35.3007 232.091 36.1778 231.833 36.9041C231.574 37.6274 231.2 38.1798 230.711 38.5614C230.222 38.94 229.629 39.1293 228.934 39.1293ZM228.934 38.1136C229.623 38.1136 230.158 37.7812 230.54 37.1165C230.922 36.4517 231.113 35.5038 231.113 34.2727C231.113 33.4541 231.025 32.757 230.849 32.1815C230.677 31.6059 230.428 31.1674 230.102 30.8658C229.778 30.5642 229.389 30.4134 228.934 30.4134C228.25 30.4134 227.716 30.7504 227.332 31.4244C226.947 32.0953 226.755 33.0447 226.755 34.2727C226.755 35.0914 226.841 35.7869 227.013 36.3594C227.185 36.9318 227.433 37.3673 227.756 37.6658C228.083 37.9644 228.475 38.1136 228.934 38.1136ZM238.794 37.2273V36.7287C238.794 36.384 238.865 36.0685 239.007 35.7823C239.151 35.493 239.361 35.2622 239.635 35.0898C239.912 34.9144 240.247 34.8267 240.641 34.8267C241.041 34.8267 241.377 34.9144 241.647 35.0898C241.918 35.2622 242.123 35.493 242.261 35.7823C242.4 36.0685 242.469 36.384 242.469 36.7287V37.2273C242.469 37.572 242.398 37.889 242.257 38.1783C242.118 38.4645 241.912 38.6953 241.638 38.8707C241.367 39.0431 241.035 39.1293 240.641 39.1293C240.241 39.1293 239.904 39.0431 239.63 38.8707C239.356 38.6953 239.148 38.4645 239.007 38.1783C238.865 37.889 238.794 37.572 238.794 37.2273ZM239.736 36.7287V37.2273C239.736 37.5135 239.804 37.7705 239.939 37.9982C240.075 38.2229 240.309 38.3352 240.641 38.3352C240.964 38.3352 241.192 38.2229 241.324 37.9982C241.46 37.7705 241.527 37.5135 241.527 37.2273V36.7287C241.527 36.4425 241.463 36.187 241.333 35.9624C241.204 35.7346 240.973 35.6207 240.641 35.6207C240.318 35.6207 240.085 35.7346 239.944 35.9624C239.805 36.187 239.736 36.4425 239.736 36.7287ZM234.086 31.8168V31.3182C234.086 30.9735 234.156 30.658 234.298 30.3718C234.443 30.0825 234.652 29.8517 234.926 29.6793C235.203 29.5039 235.538 29.4162 235.932 29.4162C236.332 29.4162 236.668 29.5039 236.939 29.6793C237.209 29.8517 237.414 30.0825 237.553 30.3718C237.691 30.658 237.76 30.9735 237.76 31.3182V31.8168C237.76 32.1615 237.69 32.4785 237.548 32.7678C237.409 33.054 237.203 33.2848 236.929 33.4602C236.658 33.6326 236.326 33.7188 235.932 33.7188C235.532 33.7188 235.195 33.6326 234.921 33.4602C234.647 33.2848 234.44 33.054 234.298 32.7678C234.156 32.4785 234.086 32.1615 234.086 31.8168ZM235.027 31.3182V31.8168C235.027 32.103 235.095 32.36 235.23 32.5877C235.366 32.8124 235.6 32.9247 235.932 32.9247C236.255 32.9247 236.483 32.8124 236.615 32.5877C236.751 32.36 236.819 32.103 236.819 31.8168V31.3182C236.819 31.032 236.754 30.7765 236.625 30.5518C236.495 30.3241 236.265 30.2102 235.932 30.2102C235.609 30.2102 235.377 30.3241 235.235 30.5518C235.097 30.7765 235.027 31.032 235.027 31.3182ZM234.436 39L240.936 29.5455H241.989L235.489 39H234.436Z" fill="#2E263D" fill-opacity="0.4"/>
<path d="M60.6037 67L58.4432 59.9091H59.5881L61.1207 65.3381H61.1946L62.7088 59.9091H63.8722L65.3679 65.3196H65.4418L66.9744 59.9091H68.1193L65.9588 67H64.8878L63.3366 61.5526H63.2259L61.6747 67H60.6037ZM72.1991 67.1477C71.559 67.1477 70.9973 66.9954 70.5141 66.6907C70.034 66.386 69.6585 65.9598 69.3877 65.4119C69.1199 64.8641 68.9861 64.224 68.9861 63.4915C68.9861 62.7528 69.1199 62.1081 69.3877 61.5572C69.6585 61.0063 70.034 60.5785 70.5141 60.2738C70.9973 59.9691 71.559 59.8168 72.1991 59.8168C72.8393 59.8168 73.3994 59.9691 73.8795 60.2738C74.3627 60.5785 74.7382 61.0063 75.0059 61.5572C75.2768 62.1081 75.4122 62.7528 75.4122 63.4915C75.4122 64.224 75.2768 64.8641 75.0059 65.4119C74.7382 65.9598 74.3627 66.386 73.8795 66.6907C73.3994 66.9954 72.8393 67.1477 72.1991 67.1477ZM72.1991 66.169C72.6854 66.169 73.0855 66.0444 73.3994 65.7951C73.7133 65.5458 73.9457 65.218 74.0965 64.8118C74.2473 64.4055 74.3227 63.9654 74.3227 63.4915C74.3227 63.0175 74.2473 62.5759 74.0965 62.1665C73.9457 61.7572 73.7133 61.4264 73.3994 61.174C73.0855 60.9216 72.6854 60.7955 72.1991 60.7955C71.7129 60.7955 71.3128 60.9216 70.9988 61.174C70.6849 61.4264 70.4526 61.7572 70.3018 62.1665C70.151 62.5759 70.0756 63.0175 70.0756 63.4915C70.0756 63.9654 70.151 64.4055 70.3018 64.8118C70.4526 65.218 70.6849 65.5458 70.9988 65.7951C71.3128 66.0444 71.7129 66.169 72.1991 66.169ZM78.4406 67L76.2801 59.9091H77.425L78.9577 65.3381H79.0315L80.5457 59.9091H81.7091L83.2048 65.3196H83.2787L84.8113 59.9091H85.9562L83.7957 67H82.7247L81.1736 61.5526H81.0628L79.5116 67H78.4406ZM97.6636 60.5C97.5621 60.1892 97.4282 59.9106 97.262 59.6644C97.0989 59.4151 96.9034 59.2028 96.6757 59.0273C96.451 58.8519 96.1956 58.718 95.9094 58.6257C95.6231 58.5334 95.3092 58.4872 94.9676 58.4872C94.4075 58.4872 93.8981 58.6319 93.4395 58.9212C92.981 59.2105 92.6163 59.6367 92.3454 60.1999C92.0746 60.7631 91.9392 61.4541 91.9392 62.2727C91.9392 63.0914 92.0761 63.7823 92.3501 64.3455C92.624 64.9087 92.9948 65.335 93.4626 65.6243C93.9304 65.9136 94.4567 66.0582 95.0415 66.0582C95.5831 66.0582 96.0602 65.9428 96.4726 65.712C96.8881 65.4781 97.2112 65.1488 97.442 64.7241C97.6759 64.2963 97.7929 63.7931 97.7929 63.2145L98.1437 63.2884H95.3V62.2727H98.9008V63.2884C98.9008 64.067 98.7346 64.7441 98.4023 65.3196C98.0729 65.8951 97.6175 66.3414 97.0358 66.6584C96.4572 66.9723 95.7924 67.1293 95.0415 67.1293C94.2043 67.1293 93.4688 66.9323 92.8348 66.5384C92.2039 66.1444 91.7114 65.5843 91.3575 64.858C91.0067 64.1316 90.8312 63.2699 90.8312 62.2727C90.8312 61.5249 90.9313 60.8524 91.1313 60.2553C91.3344 59.6552 91.6206 59.1443 91.99 58.7227C92.3593 58.301 92.7963 57.9779 93.301 57.7532C93.8058 57.5285 94.3613 57.4162 94.9676 57.4162C95.4662 57.4162 95.9309 57.4916 96.3618 57.6424C96.7957 57.7901 97.182 58.0009 97.5205 58.2749C97.8621 58.5457 98.1468 58.8704 98.3746 59.2489C98.6023 59.6244 98.7593 60.0414 98.8454 60.5H97.6636ZM103.687 67.1477C103.004 67.1477 102.414 66.9969 101.919 66.6953C101.426 66.3906 101.046 65.9659 100.779 65.4212C100.514 64.8733 100.382 64.2363 100.382 63.5099C100.382 62.7836 100.514 62.1435 100.779 61.5895C101.046 61.0324 101.419 60.5985 101.896 60.2876C102.376 59.9737 102.936 59.8168 103.576 59.8168C103.945 59.8168 104.31 59.8783 104.67 60.0014C105.03 60.1245 105.358 60.3246 105.654 60.6016C105.949 60.8755 106.184 61.2386 106.36 61.6911C106.535 62.1435 106.623 62.7005 106.623 63.3622V63.8239H101.157V62.8821H105.515C105.515 62.482 105.435 62.125 105.275 61.8111C105.118 61.4972 104.893 61.2494 104.601 61.0678C104.312 60.8862 103.97 60.7955 103.576 60.7955C103.142 60.7955 102.767 60.9032 102.45 61.1186C102.136 61.331 101.894 61.608 101.725 61.9496C101.556 62.2912 101.471 62.6574 101.471 63.0483V63.6761C101.471 64.2116 101.563 64.6656 101.748 65.038C101.936 65.4073 102.196 65.6889 102.528 65.8828C102.861 66.0736 103.247 66.169 103.687 66.169C103.973 66.169 104.232 66.129 104.463 66.049C104.696 65.9659 104.898 65.8428 105.067 65.6797C105.237 65.5135 105.367 65.3073 105.46 65.0611L106.512 65.3565C106.401 65.7135 106.215 66.0275 105.954 66.2983C105.692 66.5661 105.369 66.7753 104.984 66.9261C104.599 67.0739 104.167 67.1477 103.687 67.1477ZM111.364 59.9091V60.8324H107.689V59.9091H111.364ZM108.76 58.2102H109.85V64.9688C109.85 65.2765 109.895 65.5073 109.984 65.6612C110.076 65.812 110.193 65.9136 110.335 65.9659C110.479 66.0152 110.632 66.0398 110.792 66.0398C110.912 66.0398 111.01 66.0336 111.087 66.0213C111.164 66.0059 111.226 65.9936 111.272 65.9844L111.493 66.9631C111.42 66.9908 111.316 67.0185 111.184 67.0462C111.052 67.0769 110.884 67.0923 110.681 67.0923C110.373 67.0923 110.072 67.0262 109.776 66.8938C109.484 66.7615 109.241 66.5599 109.047 66.2891C108.856 66.0182 108.76 65.6766 108.76 65.2642V58.2102ZM116.641 67V66.169L119.762 62.7528C120.128 62.3527 120.429 62.005 120.666 61.7095C120.903 61.411 121.079 61.1309 121.193 60.8693C121.31 60.6046 121.368 60.3277 121.368 60.0384C121.368 59.706 121.288 59.4182 121.128 59.1751C120.971 58.9319 120.756 58.7442 120.482 58.6119C120.208 58.4795 119.9 58.4134 119.558 58.4134C119.195 58.4134 118.878 58.4888 118.607 58.6396C118.34 58.7873 118.132 58.995 117.984 59.2628C117.84 59.5305 117.767 59.8445 117.767 60.2045H116.678C116.678 59.6506 116.805 59.1643 117.061 58.7457C117.316 58.3272 117.664 58.0009 118.104 57.767C118.547 57.5331 119.044 57.4162 119.595 57.4162C120.149 57.4162 120.64 57.5331 121.068 57.767C121.496 58.0009 121.831 58.3164 122.074 58.7134C122.318 59.1104 122.439 59.5521 122.439 60.0384C122.439 60.3861 122.376 60.7262 122.25 61.0586C122.127 61.3879 121.911 61.7557 121.604 62.1619C121.299 62.5651 120.876 63.0575 120.334 63.6392L118.21 65.9105V65.9844H122.605V67H116.641ZM127.596 67.1293C126.9 67.1293 126.308 66.94 125.818 66.5614C125.329 66.1798 124.955 65.6274 124.697 64.9041C124.438 64.1778 124.309 63.3007 124.309 62.2727C124.309 61.2509 124.438 60.3784 124.697 59.6552C124.958 58.9289 125.334 58.3749 125.823 57.9933C126.315 57.6085 126.906 57.4162 127.596 57.4162C128.285 57.4162 128.874 57.6085 129.364 57.9933C129.856 58.3749 130.232 58.9289 130.49 59.6552C130.752 60.3784 130.883 61.2509 130.883 62.2727C130.883 63.3007 130.753 64.1778 130.495 64.9041C130.236 65.6274 129.862 66.1798 129.373 66.5614C128.884 66.94 128.291 67.1293 127.596 67.1293ZM127.596 66.1136C128.285 66.1136 128.821 65.7812 129.202 65.1165C129.584 64.4517 129.775 63.5038 129.775 62.2727C129.775 61.4541 129.687 60.757 129.512 60.1815C129.339 59.6059 129.09 59.1674 128.764 58.8658C128.441 58.5642 128.051 58.4134 127.596 58.4134C126.912 58.4134 126.378 58.7504 125.994 59.4244C125.609 60.0953 125.417 61.0447 125.417 62.2727C125.417 63.0914 125.503 63.7869 125.675 64.3594C125.848 64.9318 126.095 65.3673 126.419 65.6658C126.745 65.9644 127.137 66.1136 127.596 66.1136ZM137.456 65.2273V64.7287C137.456 64.384 137.527 64.0685 137.669 63.7823C137.814 63.493 138.023 63.2622 138.297 63.0898C138.574 62.9144 138.909 62.8267 139.303 62.8267C139.703 62.8267 140.039 62.9144 140.309 63.0898C140.58 63.2622 140.785 63.493 140.923 63.7823C141.062 64.0685 141.131 64.384 141.131 64.7287V65.2273C141.131 65.572 141.06 65.889 140.919 66.1783C140.78 66.4645 140.574 66.6953 140.3 66.8707C140.029 67.0431 139.697 67.1293 139.303 67.1293C138.903 67.1293 138.566 67.0431 138.292 66.8707C138.018 66.6953 137.81 66.4645 137.669 66.1783C137.527 65.889 137.456 65.572 137.456 65.2273ZM138.398 64.7287V65.2273C138.398 65.5135 138.466 65.7705 138.601 65.9982C138.737 66.2229 138.971 66.3352 139.303 66.3352C139.626 66.3352 139.854 66.2229 139.986 65.9982C140.122 65.7705 140.189 65.5135 140.189 65.2273V64.7287C140.189 64.4425 140.125 64.187 139.996 63.9624C139.866 63.7346 139.635 63.6207 139.303 63.6207C138.98 63.6207 138.748 63.7346 138.606 63.9624C138.468 64.187 138.398 64.4425 138.398 64.7287ZM132.748 59.8168V59.3182C132.748 58.9735 132.818 58.658 132.96 58.3718C133.105 58.0825 133.314 57.8517 133.588 57.6793C133.865 57.5039 134.2 57.4162 134.594 57.4162C134.994 57.4162 135.33 57.5039 135.601 57.6793C135.872 57.8517 136.076 58.0825 136.215 58.3718C136.353 58.658 136.422 58.9735 136.422 59.3182V59.8168C136.422 60.1615 136.352 60.4785 136.21 60.7678C136.072 61.054 135.865 61.2848 135.591 61.4602C135.321 61.6326 134.988 61.7188 134.594 61.7188C134.194 61.7188 133.857 61.6326 133.583 61.4602C133.309 61.2848 133.102 61.054 132.96 60.7678C132.818 60.4785 132.748 60.1615 132.748 59.8168ZM133.689 59.3182V59.8168C133.689 60.103 133.757 60.36 133.893 60.5877C134.028 60.8124 134.262 60.9247 134.594 60.9247C134.917 60.9247 135.145 60.8124 135.278 60.5877C135.413 60.36 135.481 60.103 135.481 59.8168V59.3182C135.481 59.032 135.416 58.7765 135.287 58.5518C135.157 58.3241 134.927 58.2102 134.594 58.2102C134.271 58.2102 134.039 58.3241 133.897 58.5518C133.759 58.7765 133.689 59.032 133.689 59.3182ZM133.099 67L139.599 57.5455H140.651L134.151 67H133.099ZM149.755 67.1477C149.115 67.1477 148.553 66.9954 148.07 66.6907C147.59 66.386 147.214 65.9598 146.943 65.4119C146.676 64.8641 146.542 64.224 146.542 63.4915C146.542 62.7528 146.676 62.1081 146.943 61.5572C147.214 61.0063 147.59 60.5785 148.07 60.2738C148.553 59.9691 149.115 59.8168 149.755 59.8168C150.395 59.8168 150.955 59.9691 151.435 60.2738C151.918 60.5785 152.294 61.0063 152.562 61.5572C152.832 62.1081 152.968 62.7528 152.968 63.4915C152.968 64.224 152.832 64.8641 152.562 65.4119C152.294 65.9598 151.918 66.386 151.435 66.6907C150.955 66.9954 150.395 67.1477 149.755 67.1477ZM149.755 66.169C150.241 66.169 150.641 66.0444 150.955 65.7951C151.269 65.5458 151.501 65.218 151.652 64.8118C151.803 64.4055 151.878 63.9654 151.878 63.4915C151.878 63.0175 151.803 62.5759 151.652 62.1665C151.501 61.7572 151.269 61.4264 150.955 61.174C150.641 60.9216 150.241 60.7955 149.755 60.7955C149.269 60.7955 148.868 60.9216 148.555 61.174C148.241 61.4264 148.008 61.7572 147.857 62.1665C147.707 62.5759 147.631 63.0175 147.631 63.4915C147.631 63.9654 147.707 64.4055 147.857 64.8118C148.008 65.218 148.241 65.5458 148.555 65.7951C148.868 66.0444 149.269 66.169 149.755 66.169ZM157.789 59.9091V60.8324H153.966V59.9091H157.789ZM155.111 67V58.9304C155.111 58.5241 155.206 58.1856 155.397 57.9148C155.588 57.6439 155.836 57.4408 156.141 57.3054C156.445 57.17 156.767 57.1023 157.105 57.1023C157.373 57.1023 157.592 57.1238 157.761 57.1669C157.93 57.21 158.056 57.25 158.139 57.2869L157.826 58.2287C157.77 58.2102 157.693 58.1871 157.595 58.1594C157.499 58.1317 157.373 58.1179 157.216 58.1179C156.856 58.1179 156.596 58.2087 156.436 58.3903C156.279 58.5719 156.201 58.8381 156.201 59.1889V67H155.111ZM162.473 59.9091V60.8324H158.651V59.9091H162.473ZM159.796 67V58.9304C159.796 58.5241 159.891 58.1856 160.082 57.9148C160.273 57.6439 160.52 57.4408 160.825 57.3054C161.13 57.17 161.451 57.1023 161.79 57.1023C162.058 57.1023 162.276 57.1238 162.445 57.1669C162.615 57.21 162.741 57.25 162.824 57.2869L162.51 58.2287C162.455 58.2102 162.378 58.1871 162.279 58.1594C162.184 58.1317 162.058 58.1179 161.901 58.1179C161.541 58.1179 161.281 58.2087 161.121 58.3903C160.964 58.5719 160.885 58.8381 160.885 59.1889V67H159.796ZM170.537 67.1477C169.897 67.1477 169.335 66.9954 168.852 66.6907C168.372 66.386 167.996 65.9598 167.726 65.4119C167.458 64.8641 167.324 64.224 167.324 63.4915C167.324 62.7528 167.458 62.1081 167.726 61.5572C167.996 61.0063 168.372 60.5785 168.852 60.2738C169.335 59.9691 169.897 59.8168 170.537 59.8168C171.177 59.8168 171.737 59.9691 172.217 60.2738C172.701 60.5785 173.076 61.0063 173.344 61.5572C173.615 62.1081 173.75 62.7528 173.75 63.4915C173.75 64.224 173.615 64.8641 173.344 65.4119C173.076 65.9598 172.701 66.386 172.217 66.6907C171.737 66.9954 171.177 67.1477 170.537 67.1477ZM170.537 66.169C171.023 66.169 171.423 66.0444 171.737 65.7951C172.051 65.5458 172.284 65.218 172.434 64.8118C172.585 64.4055 172.661 63.9654 172.661 63.4915C172.661 63.0175 172.585 62.5759 172.434 62.1665C172.284 61.7572 172.051 61.4264 171.737 61.174C171.423 60.9216 171.023 60.7955 170.537 60.7955C170.051 60.7955 169.651 60.9216 169.337 61.174C169.023 61.4264 168.79 61.7572 168.64 62.1665C168.489 62.5759 168.413 63.0175 168.413 63.4915C168.413 63.9654 168.489 64.4055 168.64 64.8118C168.79 65.218 169.023 65.5458 169.337 65.7951C169.651 66.0444 170.051 66.169 170.537 66.169ZM176.503 62.7344V67H175.413V59.9091H176.466V61.017H176.558C176.724 60.657 176.977 60.3677 177.315 60.1491C177.654 59.9276 178.091 59.8168 178.626 59.8168C179.106 59.8168 179.526 59.9152 179.887 60.1122C180.247 60.3061 180.527 60.6016 180.727 60.9986C180.927 61.3925 181.027 61.8911 181.027 62.4943V67H179.937V62.5682C179.937 62.0111 179.793 61.5772 179.503 61.2663C179.214 60.9524 178.817 60.7955 178.312 60.7955C177.965 60.7955 177.654 60.8709 177.38 61.0217C177.109 61.1725 176.895 61.3925 176.738 61.6818C176.581 61.9711 176.503 62.322 176.503 62.7344ZM187.376 69.6591C187.191 69.6591 187.026 69.6437 186.882 69.6129C186.737 69.5852 186.637 69.5575 186.582 69.5298L186.859 68.5696C187.123 68.6373 187.357 68.6619 187.56 68.6435C187.763 68.625 187.943 68.5342 188.1 68.3711C188.26 68.2111 188.407 67.951 188.539 67.5909L188.742 67.0369L186.12 59.9091H187.302L189.259 65.5597H189.333L191.29 59.9091H192.472L189.462 68.0341C189.327 68.4003 189.159 68.7035 188.959 68.9435C188.759 69.1867 188.527 69.3667 188.262 69.4837C188 69.6006 187.705 69.6591 187.376 69.6591ZM196.537 67.1477C195.897 67.1477 195.335 66.9954 194.852 66.6907C194.372 66.386 193.996 65.9598 193.726 65.4119C193.458 64.8641 193.324 64.224 193.324 63.4915C193.324 62.7528 193.458 62.1081 193.726 61.5572C193.996 61.0063 194.372 60.5785 194.852 60.2738C195.335 59.9691 195.897 59.8168 196.537 59.8168C197.177 59.8168 197.737 59.9691 198.217 60.2738C198.701 60.5785 199.076 61.0063 199.344 61.5572C199.615 62.1081 199.75 62.7528 199.75 63.4915C199.75 64.224 199.615 64.8641 199.344 65.4119C199.076 65.9598 198.701 66.386 198.217 66.6907C197.737 66.9954 197.177 67.1477 196.537 67.1477ZM196.537 66.169C197.023 66.169 197.423 66.0444 197.737 65.7951C198.051 65.5458 198.284 65.218 198.434 64.8118C198.585 64.4055 198.661 63.9654 198.661 63.4915C198.661 63.0175 198.585 62.5759 198.434 62.1665C198.284 61.7572 198.051 61.4264 197.737 61.174C197.423 60.9216 197.023 60.7955 196.537 60.7955C196.051 60.7955 195.651 60.9216 195.337 61.174C195.023 61.4264 194.79 61.7572 194.64 62.1665C194.489 62.5759 194.413 63.0175 194.413 63.4915C194.413 63.9654 194.489 64.4055 194.64 64.8118C194.79 65.218 195.023 65.5458 195.337 65.7951C195.651 66.0444 196.051 66.169 196.537 66.169ZM205.882 64.1009V59.9091H206.971V67H205.882V65.7997H205.808C205.642 66.1598 205.383 66.466 205.032 66.7184C204.682 66.9677 204.238 67.0923 203.703 67.0923C203.26 67.0923 202.866 66.9954 202.521 66.8015C202.176 66.6045 201.906 66.3091 201.709 65.9151C201.512 65.5181 201.413 65.018 201.413 64.4148V59.9091H202.503V64.3409C202.503 64.858 202.647 65.2704 202.937 65.5781C203.229 65.8859 203.601 66.0398 204.054 66.0398C204.325 66.0398 204.6 65.9705 204.88 65.832C205.163 65.6935 205.4 65.4812 205.591 65.195C205.785 64.9087 205.882 64.544 205.882 64.1009ZM208.967 67V59.9091H210.019V60.9801H210.093C210.223 60.6293 210.456 60.3446 210.795 60.1261C211.134 59.9076 211.515 59.7983 211.94 59.7983C212.02 59.7983 212.12 59.7998 212.24 59.8029C212.36 59.806 212.451 59.8106 212.512 59.8168V60.9247C212.475 60.9155 212.391 60.9016 212.258 60.8832C212.129 60.8616 211.992 60.8509 211.848 60.8509C211.503 60.8509 211.195 60.9232 210.924 61.0678C210.657 61.2094 210.444 61.4064 210.287 61.6587C210.133 61.908 210.056 62.1927 210.056 62.5128V67H208.967ZM60.0866 82.7344V87H58.9972V79.9091H60.0497V81.017H60.142C60.3082 80.657 60.5606 80.3677 60.8991 80.1491C61.2377 79.9276 61.6747 79.8168 62.2102 79.8168C62.6903 79.8168 63.1104 79.9152 63.4705 80.1122C63.8306 80.3061 64.1107 80.6016 64.3107 80.9986C64.5108 81.3925 64.6108 81.8911 64.6108 82.4943V87H63.5213V82.5682C63.5213 82.0111 63.3767 81.5772 63.0874 81.2663C62.7981 80.9524 62.401 80.7955 61.8963 80.7955C61.5485 80.7955 61.2377 80.8709 60.9638 81.0217C60.6929 81.1725 60.479 81.3925 60.3221 81.6818C60.1651 81.9711 60.0866 82.322 60.0866 82.7344ZM69.5747 87.1477C68.8914 87.1477 68.3021 86.9969 67.8066 86.6953C67.3141 86.3906 66.934 85.9659 66.6663 85.4212C66.4016 84.8733 66.2693 84.2363 66.2693 83.5099C66.2693 82.7836 66.4016 82.1435 66.6663 81.5895C66.934 81.0324 67.3064 80.5985 67.7835 80.2876C68.2636 79.9737 68.8237 79.8168 69.4639 79.8168C69.8332 79.8168 70.1979 79.8783 70.558 80.0014C70.9181 80.1245 71.2458 80.3246 71.5413 80.6016C71.8367 80.8755 72.0722 81.2386 72.2476 81.6911C72.423 82.1435 72.5107 82.7005 72.5107 83.3622V83.8239H67.0448V82.8821H71.4028C71.4028 82.482 71.3228 82.125 71.1627 81.8111C71.0058 81.4972 70.7811 81.2494 70.4887 81.0678C70.1994 80.8862 69.8578 80.7955 69.4639 80.7955C69.0299 80.7955 68.6544 80.9032 68.3374 81.1186C68.0235 81.331 67.7819 81.608 67.6127 81.9496C67.4434 82.2912 67.3588 82.6574 67.3588 83.0483V83.6761C67.3588 84.2116 67.4511 84.6656 67.6357 85.038C67.8235 85.4073 68.0835 85.6889 68.4159 85.8828C68.7483 86.0736 69.1346 86.169 69.5747 86.169C69.8609 86.169 70.1194 86.129 70.3502 86.049C70.5841 85.9659 70.7857 85.8428 70.955 85.6797C71.1243 85.5135 71.2551 85.3073 71.3474 85.0611L72.3999 85.3565C72.2892 85.7135 72.103 86.0275 71.8414 86.2983C71.5798 86.5661 71.2566 86.7753 70.8719 86.9261C70.4872 87.0739 70.0548 87.1477 69.5747 87.1477ZM74.7901 79.9091L76.489 82.8082L78.1879 79.9091H79.4435L77.1538 83.4545L79.4435 87H78.1879L76.489 84.2486L74.7901 87H73.5344L75.7873 83.4545L73.5344 79.9091H74.7901ZM84.0819 79.9091V80.8324H80.4072V79.9091H84.0819ZM81.4782 78.2102H82.5677V84.9688C82.5677 85.2765 82.6124 85.5073 82.7016 85.6612C82.7939 85.812 82.9109 85.9136 83.0525 85.9659C83.1971 86.0152 83.3495 86.0398 83.5095 86.0398C83.6295 86.0398 83.728 86.0336 83.805 86.0213C83.8819 86.0059 83.9434 85.9936 83.9896 85.9844L84.2112 86.9631C84.1373 86.9908 84.0342 87.0185 83.9019 87.0462C83.7696 87.0769 83.6018 87.0923 83.3987 87.0923C83.0909 87.0923 82.7893 87.0262 82.4939 86.8938C82.2015 86.7615 81.9584 86.5599 81.7645 86.2891C81.5737 86.0182 81.4782 85.6766 81.4782 85.2642V78.2102ZM89.377 89.6591V79.9091H90.4296V81.0355H90.5589C90.6389 80.9124 90.7497 80.7554 90.8912 80.5646C91.0359 80.3707 91.2421 80.1984 91.5099 80.0476C91.7807 79.8937 92.1469 79.8168 92.6086 79.8168C93.2056 79.8168 93.7319 79.966 94.1874 80.2646C94.6429 80.5631 94.9984 80.9863 95.2538 81.5341C95.5093 82.0819 95.637 82.7282 95.637 83.473C95.637 84.224 95.5093 84.8749 95.2538 85.4258C94.9984 85.9736 94.6444 86.3983 94.192 86.6999C93.7396 86.9985 93.218 87.1477 92.627 87.1477C92.1715 87.1477 91.8068 87.0723 91.5329 86.9215C91.259 86.7676 91.0482 86.5937 90.9005 86.3999C90.7528 86.2029 90.6389 86.0398 90.5589 85.9105H90.4665V89.6591H89.377ZM90.4481 83.4545C90.4481 83.9901 90.5265 84.4625 90.6835 84.8718C90.8405 85.2781 91.0698 85.5966 91.3714 85.8274C91.673 86.0552 92.0423 86.169 92.4793 86.169C92.9348 86.169 93.3149 86.049 93.6196 85.8089C93.9273 85.5658 94.1582 85.2396 94.3121 84.8303C94.469 84.4179 94.5475 83.9593 94.5475 83.4545C94.5475 82.956 94.4706 82.5066 94.3167 82.1065C94.1659 81.7034 93.9366 81.3848 93.6288 81.1509C93.3241 80.9139 92.941 80.7955 92.4793 80.7955C92.0361 80.7955 91.6637 80.9078 91.3621 81.1325C91.0605 81.354 90.8328 81.6649 90.6789 82.065C90.525 82.462 90.4481 82.9252 90.4481 83.4545ZM101.768 84.1009V79.9091H102.857V87H101.768V85.7997H101.694C101.528 86.1598 101.269 86.466 100.918 86.7184C100.567 86.9677 100.124 87.0923 99.5887 87.0923C99.1455 87.0923 98.7516 86.9954 98.4069 86.8015C98.0622 86.6045 97.7913 86.3091 97.5944 85.9151C97.3974 85.5181 97.2989 85.018 97.2989 84.4148V79.9091H98.3884V84.3409C98.3884 84.858 98.5331 85.2704 98.8224 85.5781C99.1147 85.8859 99.4871 86.0398 99.9395 86.0398C100.21 86.0398 100.486 85.9705 100.766 85.832C101.049 85.6935 101.286 85.4812 101.477 85.195C101.671 84.9087 101.768 84.544 101.768 84.1009ZM104.853 87V79.9091H105.905V80.9801H105.979C106.108 80.6293 106.342 80.3446 106.681 80.1261C107.019 79.9076 107.401 79.7983 107.826 79.7983C107.906 79.7983 108.006 79.7998 108.126 79.8029C108.246 79.806 108.337 79.8106 108.398 79.8168V80.9247C108.361 80.9155 108.277 80.9016 108.144 80.8832C108.015 80.8616 107.878 80.8509 107.733 80.8509C107.389 80.8509 107.081 80.9232 106.81 81.0678C106.542 81.2094 106.33 81.4064 106.173 81.6587C106.019 81.908 105.942 82.1927 105.942 82.5128V87H104.853ZM112.354 87.1477C111.69 87.1477 111.117 86.9908 110.637 86.6768C110.157 86.3629 109.788 85.9305 109.529 85.3796C109.271 84.8287 109.141 84.1993 109.141 83.4915C109.141 82.7713 109.274 82.1358 109.538 81.5849C109.806 81.0309 110.179 80.5985 110.656 80.2876C111.136 79.9737 111.696 79.8168 112.336 79.8168C112.835 79.8168 113.284 79.9091 113.684 80.0938C114.084 80.2784 114.412 80.5369 114.667 80.8693C114.923 81.2017 115.081 81.5895 115.143 82.0327H114.053C113.97 81.7095 113.786 81.4233 113.499 81.174C113.216 80.9216 112.835 80.7955 112.354 80.7955C111.93 80.7955 111.557 80.9062 111.237 81.1278C110.92 81.3464 110.672 81.6557 110.494 82.0558C110.319 82.4528 110.231 82.919 110.231 83.4545C110.231 84.0024 110.317 84.4794 110.489 84.8857C110.665 85.2919 110.911 85.6074 111.228 85.832C111.548 86.0567 111.924 86.169 112.354 86.169C112.638 86.169 112.895 86.1198 113.125 86.0213C113.356 85.9228 113.552 85.7812 113.712 85.5966C113.872 85.4119 113.986 85.1903 114.053 84.9318H115.143C115.081 85.3504 114.929 85.7274 114.686 86.0629C114.446 86.3952 114.127 86.6599 113.73 86.8569C113.336 87.0508 112.878 87.1477 112.354 87.1477ZM117.825 82.7344V87H116.735V77.5455H117.825V81.017H117.917C118.083 80.6508 118.333 80.36 118.665 80.1445C119.001 79.926 119.447 79.8168 120.004 79.8168C120.487 79.8168 120.91 79.9137 121.273 80.1076C121.637 80.2984 121.918 80.5923 122.118 80.9893C122.321 81.3833 122.423 81.8849 122.423 82.4943V87H121.333V82.5682C121.333 82.005 121.187 81.5695 120.895 81.2617C120.606 80.9509 120.204 80.7955 119.69 80.7955C119.333 80.7955 119.013 80.8709 118.73 81.0217C118.45 81.1725 118.228 81.3925 118.065 81.6818C117.905 81.9711 117.825 82.322 117.825 82.7344ZM126.503 87.1662C126.053 87.1662 125.646 87.0816 125.279 86.9123C124.913 86.7399 124.622 86.4922 124.407 86.169C124.191 85.8428 124.084 85.4489 124.084 84.9872C124.084 84.581 124.164 84.2517 124.324 83.9993C124.484 83.7438 124.698 83.5438 124.965 83.3991C125.233 83.2545 125.529 83.1468 125.852 83.076C126.178 83.0021 126.506 82.9437 126.835 82.9006C127.266 82.8452 127.615 82.8036 127.883 82.7759C128.154 82.7451 128.351 82.6944 128.474 82.6236C128.6 82.5528 128.663 82.4297 128.663 82.2543V82.2173C128.663 81.7618 128.539 81.4079 128.289 81.1555C128.043 80.9032 127.669 80.777 127.168 80.777C126.647 80.777 126.24 80.8909 125.944 81.1186C125.649 81.3464 125.441 81.5895 125.321 81.848L124.287 81.4787C124.472 81.0478 124.718 80.7124 125.025 80.4723C125.336 80.2292 125.675 80.0599 126.041 79.9645C126.41 79.866 126.774 79.8168 127.131 79.8168C127.358 79.8168 127.62 79.8445 127.915 79.8999C128.214 79.9522 128.502 80.0614 128.779 80.2276C129.059 80.3938 129.291 80.6446 129.476 80.9801C129.66 81.3156 129.753 81.7649 129.753 82.3281V87H128.663V86.0398H128.608C128.534 86.1937 128.411 86.3583 128.239 86.5337C128.066 86.7092 127.837 86.8584 127.551 86.9815C127.264 87.1046 126.915 87.1662 126.503 87.1662ZM126.669 86.1875C127.1 86.1875 127.463 86.1029 127.758 85.9336C128.057 85.7643 128.282 85.5458 128.432 85.2781C128.586 85.0103 128.663 84.7287 128.663 84.4332V83.4361C128.617 83.4915 128.516 83.5423 128.359 83.5884C128.205 83.6315 128.026 83.67 127.823 83.7038C127.623 83.7346 127.428 83.7623 127.237 83.7869C127.049 83.8085 126.897 83.8269 126.78 83.8423C126.497 83.8793 126.232 83.9393 125.986 84.0224C125.743 84.1024 125.546 84.224 125.395 84.3871C125.247 84.5471 125.173 84.7656 125.173 85.0426C125.173 85.4212 125.313 85.7074 125.593 85.9013C125.876 86.0921 126.235 86.1875 126.669 86.1875ZM136.764 81.4972L135.785 81.7741C135.724 81.611 135.633 81.4525 135.513 81.2987C135.396 81.1417 135.236 81.0124 135.033 80.9109C134.83 80.8093 134.57 80.7585 134.253 80.7585C133.819 80.7585 133.457 80.8585 133.168 81.0586C132.882 81.2556 132.738 81.5064 132.738 81.8111C132.738 82.0819 132.837 82.2958 133.034 82.4528C133.231 82.6097 133.539 82.7405 133.957 82.8452L135.01 83.1037C135.644 83.2576 136.116 83.493 136.427 83.81C136.738 84.1239 136.893 84.5286 136.893 85.0241C136.893 85.4304 136.776 85.7936 136.542 86.1136C136.312 86.4337 135.988 86.6861 135.573 86.8707C135.157 87.0554 134.674 87.1477 134.123 87.1477C133.4 87.1477 132.802 86.9908 132.328 86.6768C131.854 86.3629 131.554 85.9044 131.427 85.3011L132.461 85.0426C132.56 85.4242 132.746 85.7105 133.02 85.9013C133.297 86.0921 133.659 86.1875 134.105 86.1875C134.613 86.1875 135.016 86.0798 135.314 85.8643C135.616 85.6458 135.767 85.3842 135.767 85.0795C135.767 84.8333 135.681 84.6271 135.508 84.4609C135.336 84.2917 135.071 84.1655 134.714 84.0824L133.532 83.8054C132.883 83.6515 132.406 83.413 132.101 83.0898C131.8 82.7636 131.649 82.3558 131.649 81.8665C131.649 81.4664 131.761 81.1125 131.986 80.8047C132.214 80.4969 132.523 80.2553 132.914 80.0799C133.308 79.9045 133.754 79.8168 134.253 79.8168C134.954 79.8168 135.505 79.9706 135.905 80.2784C136.309 80.5862 136.595 80.9924 136.764 81.4972ZM141.506 87.1477C140.823 87.1477 140.234 86.9969 139.738 86.6953C139.246 86.3906 138.866 85.9659 138.598 85.4212C138.333 84.8733 138.201 84.2363 138.201 83.5099C138.201 82.7836 138.333 82.1435 138.598 81.5895C138.866 81.0324 139.238 80.5985 139.715 80.2876C140.195 79.9737 140.755 79.8168 141.396 79.8168C141.765 79.8168 142.13 79.8783 142.49 80.0014C142.85 80.1245 143.177 80.3246 143.473 80.6016C143.768 80.8755 144.004 81.2386 144.179 81.6911C144.355 82.1435 144.442 82.7005 144.442 83.3622V83.8239H138.976V82.8821H143.334C143.334 82.482 143.254 82.125 143.094 81.8111C142.937 81.4972 142.713 81.2494 142.42 81.0678C142.131 80.8862 141.789 80.7955 141.396 80.7955C140.962 80.7955 140.586 80.9032 140.269 81.1186C139.955 81.331 139.714 81.608 139.544 81.9496C139.375 82.2912 139.29 82.6574 139.29 83.0483V83.6761C139.29 84.2116 139.383 84.6656 139.567 85.038C139.755 85.4073 140.015 85.6889 140.348 85.8828C140.68 86.0736 141.066 86.169 141.506 86.169C141.793 86.169 142.051 86.129 142.282 86.049C142.516 85.9659 142.717 85.8428 142.887 85.6797C143.056 85.5135 143.187 85.3073 143.279 85.0611L144.332 85.3565C144.221 85.7135 144.035 86.0275 143.773 86.2983C143.511 86.5661 143.188 86.7753 142.804 86.9261C142.419 87.0739 141.986 87.1477 141.506 87.1477ZM151.122 81.4972L150.144 81.7741C150.082 81.611 149.991 81.4525 149.871 81.2987C149.754 81.1417 149.594 81.0124 149.391 80.9109C149.188 80.8093 148.928 80.7585 148.611 80.7585C148.177 80.7585 147.815 80.8585 147.526 81.0586C147.24 81.2556 147.097 81.5064 147.097 81.8111C147.097 82.0819 147.195 82.2958 147.392 82.4528C147.589 82.6097 147.897 82.7405 148.316 82.8452L149.368 83.1037C150.002 83.2576 150.475 83.493 150.785 83.81C151.096 84.1239 151.252 84.5286 151.252 85.0241C151.252 85.4304 151.135 85.7936 150.901 86.1136C150.67 86.4337 150.347 86.6861 149.931 86.8707C149.516 87.0554 149.033 87.1477 148.482 87.1477C147.759 87.1477 147.16 86.9908 146.686 86.6768C146.212 86.3629 145.912 85.9044 145.786 85.3011L146.82 85.0426C146.918 85.4242 147.105 85.7105 147.378 85.9013C147.655 86.0921 148.017 86.1875 148.463 86.1875C148.971 86.1875 149.374 86.0798 149.673 85.8643C149.974 85.6458 150.125 85.3842 150.125 85.0795C150.125 84.8333 150.039 84.6271 149.867 84.4609C149.694 84.2917 149.43 84.1655 149.073 84.0824L147.891 83.8054C147.242 83.6515 146.764 83.413 146.46 83.0898C146.158 82.7636 146.007 82.3558 146.007 81.8665C146.007 81.4664 146.12 81.1125 146.344 80.8047C146.572 80.4969 146.881 80.2553 147.272 80.0799C147.666 79.9045 148.112 79.8168 148.611 79.8168C149.313 79.8168 149.864 79.9706 150.264 80.2784C150.667 80.5862 150.953 80.9924 151.122 81.4972ZM154.332 77.5455L154.24 84.3409H153.169L153.076 77.5455H154.332ZM153.704 87.0739C153.476 87.0739 153.281 86.9923 153.118 86.8292C152.955 86.6661 152.873 86.4706 152.873 86.2429C152.873 86.0152 152.955 85.8197 153.118 85.6566C153.281 85.4935 153.476 85.4119 153.704 85.4119C153.932 85.4119 154.127 85.4935 154.29 85.6566C154.454 85.8197 154.535 86.0152 154.535 86.2429C154.535 86.3937 154.497 86.5322 154.42 86.6584C154.346 86.7846 154.246 86.8861 154.12 86.9631C153.997 87.0369 153.858 87.0739 153.704 87.0739Z" fill="#2E263D" fill-opacity="0.7"/>
<defs>
<filter id="filter0_d_8003_2885" x="21" y="23" width="26" height="26" filterUnits="userSpaceOnUse" color-interpolation-filters="sRGB">
<feFlood flood-opacity="0" result="BackgroundImageFix"/>
<feColorMatrix in="SourceAlpha" type="matrix" values="0 0 0 0 0 0 0 0 0 0 0 0 0 0 0 0 0 0 127 0" result="hardAlpha"/>
<feOffset dy="2"/>
<feGaussianBlur stdDeviation="2"/>
<feColorMatrix type="matrix" values="0 0 0 0 0.180392 0 0 0 0 0.14902 0 0 0 0 0.239216 0 0 0 0.16 0"/>
<feBlend mode="normal" in2="BackgroundImageFix" result="effect1_dropShadow_8003_2885"/>
<feBlend mode="normal" in="SourceGraphic" in2="effect1_dropShadow_8003_2885" result="shape"/>
</filter>
<clipPath id="clip0_8003_2885">
<rect width="36" height="36" fill="white" transform="translate(16 16)"/>
</clipPath>
</defs>
</svg>
