<svg width="132" height="42" viewBox="0 0 132 42" fill="none" xmlns="http://www.w3.org/2000/svg">
<g clip-path="url(#clip0_8003_3886)">
<g clip-path="url(#clip1_8003_3886)">
<path d="M23.3583 27V14.6364H25.2237V25.3942H30.826V27H23.3583ZM35.5076 27.2053C34.92 27.2053 34.3888 27.0966 33.9139 26.8793C33.439 26.6579 33.0627 26.3379 32.785 25.9194C32.5113 25.5008 32.3745 24.9877 32.3745 24.38C32.3745 23.8568 32.4751 23.4261 32.6763 23.0881C32.8775 22.75 33.1492 22.4824 33.4913 22.2852C33.8334 22.0879 34.2157 21.939 34.6383 21.8384C35.0609 21.7378 35.4915 21.6613 35.9302 21.609C36.4856 21.5446 36.9364 21.4923 37.2825 21.4521C37.6286 21.4078 37.8801 21.3374 38.0371 21.2408C38.1941 21.1442 38.2725 20.9872 38.2725 20.7699V20.7276C38.2725 20.2004 38.1236 19.7919 37.8258 19.5021C37.532 19.2124 37.0933 19.0675 36.5098 19.0675C35.902 19.0675 35.4231 19.2023 35.073 19.4719C34.7269 19.7376 34.4874 20.0334 34.3546 20.3594L32.6582 19.973C32.8594 19.4096 33.1532 18.9548 33.5396 18.6087C33.93 18.2585 34.3787 18.005 34.8858 17.848C35.3929 17.687 35.9262 17.6065 36.4856 17.6065C36.8559 17.6065 37.2483 17.6508 37.6628 17.7393C38.0814 17.8239 38.4718 17.9808 38.834 18.2102C39.2002 18.4396 39.5001 18.7676 39.7335 19.1942C39.9669 19.6168 40.0836 20.1662 40.0836 20.8423V27H38.3208V25.7322H38.2484C38.1317 25.9657 37.9566 26.1951 37.7232 26.4205C37.4898 26.6458 37.1899 26.833 36.8237 26.9819C36.4574 27.1308 36.0188 27.2053 35.5076 27.2053ZM35.9 25.7564C36.3991 25.7564 36.8257 25.6578 37.1799 25.4606C37.5381 25.2634 37.8097 25.0058 37.9949 24.6879C38.184 24.3659 38.2786 24.0218 38.2786 23.6555V22.4602C38.2142 22.5246 38.0894 22.585 37.9043 22.6413C37.7232 22.6937 37.5159 22.7399 37.2825 22.7802C37.0491 22.8164 36.8217 22.8506 36.6003 22.8828C36.379 22.911 36.1938 22.9351 36.0449 22.9553C35.6948 22.9995 35.3748 23.074 35.085 23.1786C34.7993 23.2833 34.5699 23.4342 34.3968 23.6314C34.2278 23.8246 34.1433 24.0821 34.1433 24.4041C34.1433 24.8509 34.3083 25.1889 34.6383 25.4183C34.9683 25.6437 35.3889 25.7564 35.9 25.7564ZM42.4878 27V17.7273H44.2325V19.2003H44.3291C44.4981 18.7012 44.796 18.3088 45.2226 18.0231C45.6532 17.7333 46.1402 17.5884 46.6835 17.5884C46.7962 17.5884 46.929 17.5924 47.0819 17.6005C47.2389 17.6085 47.3617 17.6186 47.4502 17.6307V19.3572C47.3778 19.3371 47.249 19.315 47.0638 19.2908C46.8787 19.2627 46.6936 19.2486 46.5084 19.2486C46.0818 19.2486 45.7015 19.3391 45.3675 19.5202C45.0374 19.6973 44.7758 19.9448 44.5827 20.2628C44.3895 20.5767 44.2929 20.9349 44.2929 21.3374V27H42.4878ZM52.568 30.6705C51.8315 30.6705 51.1976 30.5739 50.6664 30.3807C50.1391 30.1875 49.7085 29.9319 49.3745 29.614C49.0404 29.296 48.7909 28.9479 48.6259 28.5696L50.1774 27.9297C50.286 28.1068 50.4309 28.2939 50.612 28.4911C50.7972 28.6924 51.0467 28.8634 51.3606 29.0043C51.6786 29.1451 52.0871 29.2156 52.5861 29.2156C53.2703 29.2156 53.8358 29.0485 54.2825 28.7145C54.7292 28.3845 54.9526 27.8572 54.9526 27.1328V25.3097H54.8379C54.7292 25.5069 54.5723 25.7262 54.367 25.9677C54.1658 26.2092 53.8881 26.4184 53.5339 26.5955C53.1797 26.7726 52.7189 26.8612 52.1515 26.8612C51.419 26.8612 50.7589 26.6901 50.1713 26.348C49.5878 26.0019 49.1249 25.4928 48.7828 24.8207C48.4448 24.1445 48.2757 23.3134 48.2757 22.3274C48.2757 21.3414 48.4428 20.4962 48.7768 19.7919C49.1149 19.0876 49.5777 18.5483 50.1653 18.174C50.7529 17.7957 51.419 17.6065 52.1635 17.6065C52.7391 17.6065 53.2039 17.7031 53.5581 17.8963C53.9122 18.0855 54.1879 18.3068 54.3851 18.5604C54.5864 18.8139 54.7413 19.0373 54.85 19.2305H54.9828V17.7273H56.7516V27.2053C56.7516 28.0021 56.5665 28.6561 56.1962 29.1673C55.8259 29.6784 55.3249 30.0567 54.693 30.3022C54.0652 30.5477 53.3568 30.6705 52.568 30.6705ZM52.5499 25.364C53.0691 25.364 53.5078 25.2433 53.8659 25.0018C54.2282 24.7563 54.5018 24.4061 54.687 23.9513C54.8761 23.4925 54.9707 22.9432 54.9707 22.3033C54.9707 21.6795 54.8781 21.1301 54.693 20.6552C54.5079 20.1803 54.2362 19.81 53.878 19.5444C53.5198 19.2747 53.0771 19.1399 52.5499 19.1399C52.0066 19.1399 51.5538 19.2808 51.1916 19.5625C50.8294 19.8402 50.5557 20.2185 50.3706 20.6974C50.1895 21.1764 50.0989 21.7116 50.0989 22.3033C50.0989 22.911 50.1915 23.4442 50.3766 23.9031C50.5617 24.3619 50.8354 24.7201 51.1976 24.9776C51.5639 25.2352 52.0146 25.364 52.5499 25.364ZM63.1689 27.1871C62.2553 27.1871 61.4685 26.992 60.8084 26.6016C60.1524 26.2071 59.6453 25.6538 59.2871 24.9414C58.9329 24.225 58.7559 23.3859 58.7559 22.424C58.7559 21.4742 58.9329 20.6371 59.2871 19.9126C59.6453 19.1882 60.1444 18.6228 60.7843 18.2163C61.4282 17.8098 62.1808 17.6065 63.0421 17.6065C63.5653 17.6065 64.0724 17.6931 64.5634 17.8661C65.0544 18.0392 65.4951 18.3108 65.8855 18.6811C66.2759 19.0514 66.5837 19.5323 66.8091 20.1239C67.0345 20.7115 67.1472 21.4259 67.1472 22.267V22.907H59.7761V21.5547H65.3784C65.3784 21.0798 65.2818 20.6592 65.0886 20.293C64.8954 19.9227 64.6238 19.6309 64.2736 19.4176C63.9275 19.2043 63.521 19.0977 63.0542 19.0977C62.5471 19.0977 62.1043 19.2224 61.726 19.4719C61.3517 19.7174 61.062 20.0394 60.8567 20.4379C60.6555 20.8323 60.5549 21.2609 60.5549 21.7237V22.7802C60.5549 23.4 60.6635 23.9272 60.8809 24.3619C61.1022 24.7965 61.4101 25.1286 61.8045 25.358C62.1989 25.5833 62.6597 25.696 63.187 25.696C63.5291 25.696 63.841 25.6477 64.1227 25.5511C64.4044 25.4505 64.6479 25.3016 64.8532 25.1044C65.0584 24.9072 65.2154 24.6637 65.324 24.3739L67.0325 24.6818C66.8957 25.1849 66.6502 25.6256 66.296 26.0039C65.9458 26.3782 65.5051 26.67 64.9739 26.8793C64.4467 27.0845 63.845 27.1871 63.1689 27.1871Z" fill="#8C57FF"/>
</g>
<line x1="89.5" y1="42" x2="89.5" y2="2.18557e-08" stroke="#8C57FF"/>
<path d="M111 22.3673L116.775 16.5923L118.425 18.242L111 25.6666L103.575 18.242L105.225 16.5923L111 22.3673Z" fill="#8C57FF"/>
</g>
<path d="M8 0.5H124C128.142 0.5 131.5 3.85786 131.5 8V34C131.5 38.1421 128.142 41.5 124 41.5H8C3.85786 41.5 0.5 38.1421 0.5 34V8L0.509766 7.61426C0.704063 3.77915 3.77915 0.704063 7.61426 0.509766L8 0.5Z" stroke="#8C57FF"/>
<defs>
<clipPath id="clip0_8003_3886">
<path d="M0 8C0 3.58172 3.58172 0 8 0H124C128.418 0 132 3.58172 132 8V34C132 38.4183 128.418 42 124 42H8C3.58172 42 0 38.4183 0 34V8Z" fill="white"/>
</clipPath>
<clipPath id="clip1_8003_3886">
<path d="M0 8C0 3.58172 3.58172 0 8 0H90V42H8C3.58172 42 0 38.4183 0 34V8Z" fill="white"/>
</clipPath>
</defs>
</svg>
