<svg width="379" height="24" viewBox="0 0 379 24" fill="none" xmlns="http://www.w3.org/2000/svg">
<path d="M9.99999 16.1668L5.10166 19.1585L6.43332 13.5752L2.07499 9.84183L7.79582 9.3835L9.99999 4.0835L12.2042 9.3835L17.9258 9.84183L13.5667 13.5752L14.8983 19.1585L9.99999 16.1668Z" fill="#2E263D" fill-opacity="0.7"/>
<path d="M25.321 17V6.09091H29.1349C29.8949 6.09091 30.5217 6.2223 31.0153 6.48509C31.5089 6.74432 31.8764 7.0941 32.1179 7.53445C32.3594 7.97124 32.4801 8.45597 32.4801 8.98864C32.4801 9.45739 32.3967 9.84446 32.2298 10.1499C32.0664 10.4553 31.8498 10.6967 31.5799 10.8743C31.3136 11.0518 31.0241 11.1832 30.7116 11.2685V11.375C31.0455 11.3963 31.381 11.5135 31.7184 11.7266C32.0558 11.9396 32.3381 12.245 32.5653 12.6428C32.7926 13.0405 32.9062 13.527 32.9062 14.1023C32.9062 14.6491 32.782 15.141 32.5334 15.5778C32.2848 16.0146 31.8924 16.3608 31.3562 16.6165C30.82 16.8722 30.1222 17 29.2628 17H25.321ZM26.642 15.8281H29.2628C30.1257 15.8281 30.7383 15.6612 31.1005 15.3274C31.4663 14.9901 31.6491 14.5817 31.6491 14.1023C31.6491 13.733 31.555 13.392 31.3668 13.0795C31.1786 12.7635 30.9105 12.5114 30.5625 12.3232C30.2145 12.1314 29.8026 12.0355 29.3267 12.0355H26.642V15.8281ZM26.642 10.8849H29.0923C29.4901 10.8849 29.8487 10.8068 30.1683 10.6506C30.4915 10.4943 30.7472 10.2741 30.9354 9.99006C31.1271 9.70597 31.223 9.37216 31.223 8.98864C31.223 8.50923 31.0561 8.10263 30.7223 7.76882C30.3885 7.43146 29.8594 7.26278 29.1349 7.26278H26.642V10.8849ZM34.9064 17V8.81818H36.1209V10.054H36.2061C36.3553 9.64915 36.6252 9.32067 37.0158 9.06854C37.4064 8.81641 37.8468 8.69034 38.3368 8.69034C38.4292 8.69034 38.5446 8.69212 38.6831 8.69567C38.8216 8.69922 38.9263 8.70455 38.9973 8.71165V9.99006C38.9547 9.9794 38.8571 9.96342 38.7044 9.94212C38.5552 9.91726 38.3972 9.90483 38.2303 9.90483C37.8326 9.90483 37.4775 9.98828 37.165 10.1552C36.856 10.3185 36.611 10.5458 36.4299 10.837C36.2523 11.1246 36.1635 11.4531 36.1635 11.8224V17H34.9064ZM43.6689 17.1705C42.8805 17.1705 42.2005 16.9964 41.6287 16.6484C41.0605 16.2969 40.622 15.8068 40.313 15.1783C40.0076 14.5462 39.8549 13.8111 39.8549 12.973C39.8549 12.1349 40.0076 11.3963 40.313 10.7571C40.622 10.1143 41.0517 9.61364 41.6021 9.25497C42.1561 8.89276 42.8024 8.71165 43.541 8.71165C43.9672 8.71165 44.388 8.78267 44.8034 8.92472C45.2189 9.06676 45.5971 9.29759 45.938 9.61719C46.2789 9.93324 46.5506 10.3523 46.753 10.8743C46.9554 11.3963 47.0566 12.0391 47.0566 12.8026V13.3352H40.7498V12.2486H45.7782C45.7782 11.7869 45.6859 11.375 45.5012 11.0128C45.3201 10.6506 45.0609 10.3647 44.7235 10.1552C44.3897 9.94567 43.9956 9.84091 43.541 9.84091C43.0403 9.84091 42.6071 9.9652 42.2413 10.2138C41.8791 10.4588 41.6003 10.7784 41.405 11.1726C41.2097 11.5668 41.112 11.9893 41.112 12.4403V13.1648C41.112 13.7827 41.2186 14.3065 41.4316 14.7362C41.6483 15.1623 41.9483 15.4872 42.3319 15.7109C42.7154 15.9311 43.161 16.0412 43.6689 16.0412C43.9991 16.0412 44.2974 15.995 44.5637 15.9027C44.8336 15.8068 45.0662 15.6648 45.2615 15.4766C45.4569 15.2848 45.6078 15.0469 45.7143 14.7628L46.9288 15.1037C46.801 15.5156 46.5861 15.8778 46.2843 16.1903C45.9824 16.4993 45.6096 16.7408 45.1657 16.9148C44.7218 17.0852 44.2228 17.1705 43.6689 17.1705ZM51.3766 17.1918C50.8581 17.1918 50.3876 17.0941 49.965 16.8988C49.5424 16.6999 49.2069 16.4141 48.9583 16.0412C48.7097 15.6648 48.5854 15.2102 48.5854 14.6776C48.5854 14.2088 48.6777 13.8288 48.8624 13.5376C49.0471 13.2429 49.2939 13.0121 49.6028 12.8452C49.9118 12.6783 50.2527 12.554 50.6255 12.4723C51.002 12.3871 51.3801 12.3196 51.7601 12.2699C52.2573 12.206 52.6603 12.158 52.9693 12.1261C53.2818 12.0906 53.5091 12.032 53.6511 11.9503C53.7967 11.8686 53.8695 11.7266 53.8695 11.5241V11.4815C53.8695 10.956 53.7257 10.5476 53.438 10.2564C53.1539 9.9652 52.7225 9.8196 52.1436 9.8196C51.5435 9.8196 51.073 9.95099 50.7321 10.2138C50.3912 10.4766 50.1515 10.7571 50.013 11.0554L48.8198 10.6293C49.0328 10.1321 49.3169 9.74503 49.6721 9.46804C50.0307 9.1875 50.4213 8.99219 50.8439 8.8821C51.2701 8.76847 51.6891 8.71165 52.101 8.71165C52.3638 8.71165 52.6657 8.74361 53.0066 8.80753C53.351 8.8679 53.6831 8.99396 54.0027 9.18572C54.3258 9.37749 54.5939 9.6669 54.807 10.054C55.0201 10.4411 55.1266 10.9595 55.1266 11.6094V17H53.8695V15.892H53.8056C53.7203 16.0696 53.5783 16.2596 53.3794 16.462C53.1806 16.6644 52.916 16.8366 52.5858 16.9787C52.2555 17.1207 51.8525 17.1918 51.3766 17.1918ZM51.5684 16.0625C52.0655 16.0625 52.4846 15.9648 52.8255 15.7695C53.1699 15.5742 53.4292 15.3221 53.6032 15.0131C53.7807 14.7042 53.8695 14.3793 53.8695 14.0384V12.8878C53.8162 12.9517 53.699 13.0103 53.5179 13.0636C53.3404 13.1133 53.1344 13.1577 52.9 13.1967C52.6692 13.2322 52.4437 13.2642 52.2235 13.2926C52.0069 13.3175 51.8311 13.3388 51.6962 13.3565C51.3695 13.3991 51.0641 13.4684 50.78 13.5643C50.4995 13.6566 50.2722 13.7969 50.0982 13.9851C49.9277 14.1697 49.8425 14.4219 49.8425 14.7415C49.8425 15.1783 50.0041 15.5085 50.3272 15.7322C50.6539 15.9524 51.0676 16.0625 51.5684 16.0625ZM60.5106 17.1705C59.8287 17.1705 59.2268 16.9982 58.7048 16.6538C58.1828 16.3058 57.7744 15.8157 57.4797 15.1836C57.1849 14.5479 57.0376 13.7969 57.0376 12.9304C57.0376 12.071 57.1849 11.3253 57.4797 10.6932C57.7744 10.0611 58.1846 9.5728 58.7101 9.22834C59.2357 8.88388 59.843 8.71165 60.5319 8.71165C61.0645 8.71165 61.4854 8.80043 61.7943 8.97798C62.1068 9.15199 62.3447 9.35085 62.5081 9.57457C62.675 9.79474 62.8046 9.97585 62.8969 10.1179H63.0035V6.09091H64.2606V17H63.0461V15.7429H62.8969C62.8046 15.892 62.6732 16.0803 62.5028 16.3075C62.3323 16.5312 62.089 16.7319 61.773 16.9094C61.4569 17.0835 61.0361 17.1705 60.5106 17.1705ZM60.681 16.0412C61.1853 16.0412 61.6114 15.9098 61.9594 15.647C62.3074 15.3807 62.572 15.0131 62.7531 14.5444C62.9342 14.0721 63.0248 13.527 63.0248 12.9091C63.0248 12.2983 62.936 11.7638 62.7584 11.3058C62.5809 10.8441 62.3181 10.4854 61.9701 10.2298C61.6221 9.97053 61.1924 9.84091 60.681 9.84091C60.1483 9.84091 59.7045 9.97763 59.3493 10.2511C58.9978 10.521 58.7332 10.8885 58.5557 11.3537C58.3817 11.8153 58.2947 12.3338 58.2947 12.9091C58.2947 13.4915 58.3834 14.0206 58.561 14.4964C58.7421 14.9687 59.0084 15.3452 59.36 15.6257C59.7151 15.9027 60.1555 16.0412 60.681 16.0412ZM70.0613 17.1705C69.2943 17.1705 68.6338 16.9893 68.0798 16.6271C67.5258 16.2649 67.0997 15.766 66.8014 15.1303C66.5031 14.4947 66.354 13.7685 66.354 12.9517C66.354 12.1207 66.5067 11.3874 66.8121 10.7518C67.121 10.1126 67.5507 9.61364 68.1011 9.25497C68.6551 8.89276 69.3014 8.71165 70.04 8.71165C70.6153 8.71165 71.1338 8.81818 71.5954 9.03125C72.0571 9.24432 72.4353 9.54261 72.73 9.92614C73.0248 10.3097 73.2077 10.7571 73.2787 11.2685H72.0216C71.9257 10.8956 71.7126 10.5653 71.3824 10.2777C71.0557 9.98651 70.6153 9.84091 70.0613 9.84091C69.5713 9.84091 69.1416 9.96875 68.7723 10.2244C68.4065 10.4766 68.1206 10.8335 67.9147 11.2951C67.7123 11.7532 67.6111 12.2912 67.6111 12.9091C67.6111 13.5412 67.7105 14.0916 67.9094 14.5604C68.1118 15.0291 68.3959 15.3931 68.7616 15.6523C69.1309 15.9116 69.5642 16.0412 70.0613 16.0412C70.3881 16.0412 70.6846 15.9844 70.9509 15.8707C71.2172 15.7571 71.4427 15.5938 71.6274 15.3807C71.8121 15.1676 71.9434 14.9119 72.0216 14.6136H73.2787C73.2077 15.0966 73.0319 15.5316 72.7513 15.9187C72.4743 16.3022 72.1068 16.6076 71.6487 16.8349C71.1942 17.0586 70.665 17.1705 70.0613 17.1705ZM75.1164 17V8.81818H76.3309V10.054H76.4161C76.5653 9.64915 76.8351 9.32067 77.2258 9.06854C77.6164 8.81641 78.0567 8.69034 78.5468 8.69034C78.6391 8.69034 78.7545 8.69212 78.893 8.69567C79.0315 8.69922 79.1363 8.70455 79.2073 8.71165V9.99006C79.1647 9.9794 79.067 9.96342 78.9143 9.94212C78.7652 9.91726 78.6072 9.90483 78.4403 9.90483C78.0425 9.90483 77.6874 9.98828 77.3749 10.1552C77.066 10.3185 76.8209 10.5458 76.6398 10.837C76.4623 11.1246 76.3735 11.4531 76.3735 11.8224V17H75.1164ZM85.8537 13.6548V8.81818H87.1108V17H85.8537V15.6151H85.7685C85.5767 16.0305 85.2784 16.3839 84.8736 16.6751C84.4688 16.9627 83.9574 17.1065 83.3395 17.1065C82.8281 17.1065 82.3736 16.9947 81.9759 16.771C81.5781 16.5437 81.2656 16.2028 81.0384 15.7482C80.8111 15.2901 80.6974 14.7131 80.6974 14.017V8.81818H81.9545V13.9318C81.9545 14.5284 82.1214 15.0043 82.4553 15.3594C82.7926 15.7145 83.2223 15.892 83.7443 15.892C84.0568 15.892 84.3746 15.8121 84.6978 15.6523C85.0245 15.4925 85.2979 15.2475 85.5181 14.9173C85.7418 14.587 85.8537 14.1662 85.8537 13.6548ZM89.4133 17V8.81818H90.6278V10.0966H90.7343C90.9047 9.6598 91.18 9.32067 91.5599 9.07919C91.9399 8.83416 92.3962 8.71165 92.9289 8.71165C93.4687 8.71165 93.9179 8.83416 94.2765 9.07919C94.6388 9.32067 94.9211 9.6598 95.1235 10.0966H95.2087C95.4182 9.67401 95.7325 9.33842 96.1515 9.08984C96.5706 8.83771 97.0731 8.71165 97.659 8.71165C98.3905 8.71165 98.9889 8.9407 99.4541 9.39879C99.9193 9.85334 100.152 10.5618 100.152 11.5241V17H98.8948V11.5241C98.8948 10.9205 98.7297 10.489 98.3994 10.2298C98.0692 9.97053 97.6803 9.84091 97.2329 9.84091C96.6576 9.84091 96.2119 10.0149 95.8959 10.3629C95.5798 10.7074 95.4218 11.1442 95.4218 11.6733V17H94.1434V11.3963C94.1434 10.9311 93.9925 10.5565 93.6906 10.2724C93.3888 9.98473 92.9999 9.84091 92.5241 9.84091C92.1974 9.84091 91.892 9.92791 91.6079 10.1019C91.3273 10.2759 91.1001 10.5174 90.926 10.8263C90.7556 11.1317 90.6704 11.4851 90.6704 11.8864V17H89.4133ZM102.621 17V6.09091H103.878V10.1179H103.984C104.077 9.97585 104.205 9.79474 104.368 9.57457C104.535 9.35085 104.773 9.15199 105.082 8.97798C105.394 8.80043 105.817 8.71165 106.35 8.71165C107.038 8.71165 107.646 8.88388 108.171 9.22834C108.697 9.5728 109.107 10.0611 109.402 10.6932C109.696 11.3253 109.844 12.071 109.844 12.9304C109.844 13.7969 109.696 14.5479 109.402 15.1836C109.107 15.8157 108.699 16.3058 108.177 16.6538C107.655 16.9982 107.053 17.1705 106.371 17.1705C105.845 17.1705 105.424 17.0835 105.108 16.9094C104.792 16.7319 104.549 16.5312 104.379 16.3075C104.208 16.0803 104.077 15.892 103.984 15.7429H103.835V17H102.621ZM103.857 12.9091C103.857 13.527 103.947 14.0721 104.128 14.5444C104.309 15.0131 104.574 15.3807 104.922 15.647C105.27 15.9098 105.696 16.0412 106.2 16.0412C106.726 16.0412 107.165 15.9027 107.516 15.6257C107.871 15.3452 108.138 14.9687 108.315 14.4964C108.496 14.0206 108.587 13.4915 108.587 12.9091C108.587 12.3338 108.498 11.8153 108.32 11.3537C108.146 10.8885 107.882 10.521 107.527 10.2511C107.175 9.97763 106.733 9.84091 106.2 9.84091C105.689 9.84091 105.259 9.97053 104.911 10.2298C104.563 10.4854 104.301 10.8441 104.123 11.3058C103.945 11.7638 103.857 12.2983 103.857 12.9091Z" fill="#2E263D" fill-opacity="0.7"/>
<path d="M124.007 4.57954L120.491 17.6406H119.341L122.857 4.57954H124.007Z" fill="#2E263D" fill-opacity="0.7"/>
<path d="M144 16.1668L139.102 19.1585L140.433 13.5752L136.075 9.84183L141.796 9.3835L144 4.0835L146.204 9.3835L151.926 9.84183L147.567 13.5752L148.898 19.1585L144 16.1668Z" fill="#2E263D" fill-opacity="0.7"/>
<path d="M159.321 17V6.09091H163.135C163.895 6.09091 164.522 6.2223 165.015 6.48509C165.509 6.74432 165.876 7.0941 166.118 7.53445C166.359 7.97124 166.48 8.45597 166.48 8.98864C166.48 9.45739 166.397 9.84446 166.23 10.1499C166.066 10.4553 165.85 10.6967 165.58 10.8743C165.314 11.0518 165.024 11.1832 164.712 11.2685V11.375C165.045 11.3963 165.381 11.5135 165.718 11.7266C166.056 11.9396 166.338 12.245 166.565 12.6428C166.793 13.0405 166.906 13.527 166.906 14.1023C166.906 14.6491 166.782 15.141 166.533 15.5778C166.285 16.0146 165.892 16.3608 165.356 16.6165C164.82 16.8722 164.122 17 163.263 17H159.321ZM160.642 15.8281H163.263C164.126 15.8281 164.738 15.6612 165.1 15.3274C165.466 14.9901 165.649 14.5817 165.649 14.1023C165.649 13.733 165.555 13.392 165.367 13.0795C165.179 12.7635 164.911 12.5114 164.562 12.3232C164.214 12.1314 163.803 12.0355 163.327 12.0355H160.642V15.8281ZM160.642 10.8849H163.092C163.49 10.8849 163.849 10.8068 164.168 10.6506C164.491 10.4943 164.747 10.2741 164.935 9.99006C165.127 9.70597 165.223 9.37216 165.223 8.98864C165.223 8.50923 165.056 8.10263 164.722 7.76882C164.388 7.43146 163.859 7.26278 163.135 7.26278H160.642V10.8849ZM168.906 17V8.81818H170.121V10.054H170.206C170.355 9.64915 170.625 9.32067 171.016 9.06854C171.406 8.81641 171.847 8.69034 172.337 8.69034C172.429 8.69034 172.545 8.69212 172.683 8.69567C172.822 8.69922 172.926 8.70455 172.997 8.71165V9.99006C172.955 9.9794 172.857 9.96342 172.704 9.94212C172.555 9.91726 172.397 9.90483 172.23 9.90483C171.833 9.90483 171.477 9.98828 171.165 10.1552C170.856 10.3185 170.611 10.5458 170.43 10.837C170.252 11.1246 170.164 11.4531 170.164 11.8224V17H168.906ZM177.669 17.1705C176.881 17.1705 176.2 16.9964 175.629 16.6484C175.061 16.2969 174.622 15.8068 174.313 15.1783C174.008 14.5462 173.855 13.8111 173.855 12.973C173.855 12.1349 174.008 11.3963 174.313 10.7571C174.622 10.1143 175.052 9.61364 175.602 9.25497C176.156 8.89276 176.802 8.71165 177.541 8.71165C177.967 8.71165 178.388 8.78267 178.803 8.92472C179.219 9.06676 179.597 9.29759 179.938 9.61719C180.279 9.93324 180.551 10.3523 180.753 10.8743C180.955 11.3963 181.057 12.0391 181.057 12.8026V13.3352H174.75V12.2486H179.778C179.778 11.7869 179.686 11.375 179.501 11.0128C179.32 10.6506 179.061 10.3647 178.724 10.1552C178.39 9.94567 177.996 9.84091 177.541 9.84091C177.04 9.84091 176.607 9.9652 176.241 10.2138C175.879 10.4588 175.6 10.7784 175.405 11.1726C175.21 11.5668 175.112 11.9893 175.112 12.4403V13.1648C175.112 13.7827 175.219 14.3065 175.432 14.7362C175.648 15.1623 175.948 15.4872 176.332 15.7109C176.715 15.9311 177.161 16.0412 177.669 16.0412C177.999 16.0412 178.297 15.995 178.564 15.9027C178.834 15.8068 179.066 15.6648 179.262 15.4766C179.457 15.2848 179.608 15.0469 179.714 14.7628L180.929 15.1037C180.801 15.5156 180.586 15.8778 180.284 16.1903C179.982 16.4993 179.61 16.7408 179.166 16.9148C178.722 17.0852 178.223 17.1705 177.669 17.1705ZM185.377 17.1918C184.858 17.1918 184.388 17.0941 183.965 16.8988C183.542 16.6999 183.207 16.4141 182.958 16.0412C182.71 15.6648 182.585 15.2102 182.585 14.6776C182.585 14.2088 182.678 13.8288 182.862 13.5376C183.047 13.2429 183.294 13.0121 183.603 12.8452C183.912 12.6783 184.253 12.554 184.626 12.4723C185.002 12.3871 185.38 12.3196 185.76 12.2699C186.257 12.206 186.66 12.158 186.969 12.1261C187.282 12.0906 187.509 12.032 187.651 11.9503C187.797 11.8686 187.869 11.7266 187.869 11.5241V11.4815C187.869 10.956 187.726 10.5476 187.438 10.2564C187.154 9.9652 186.722 9.8196 186.144 9.8196C185.544 9.8196 185.073 9.95099 184.732 10.2138C184.391 10.4766 184.151 10.7571 184.013 11.0554L182.82 10.6293C183.033 10.1321 183.317 9.74503 183.672 9.46804C184.031 9.1875 184.421 8.99219 184.844 8.8821C185.27 8.76847 185.689 8.71165 186.101 8.71165C186.364 8.71165 186.666 8.74361 187.007 8.80753C187.351 8.8679 187.683 8.99396 188.003 9.18572C188.326 9.37749 188.594 9.6669 188.807 10.054C189.02 10.4411 189.127 10.9595 189.127 11.6094V17H187.869V15.892H187.806C187.72 16.0696 187.578 16.2596 187.379 16.462C187.181 16.6644 186.916 16.8366 186.586 16.9787C186.256 17.1207 185.852 17.1918 185.377 17.1918ZM185.568 16.0625C186.066 16.0625 186.485 15.9648 186.825 15.7695C187.17 15.5742 187.429 15.3221 187.603 15.0131C187.781 14.7042 187.869 14.3793 187.869 14.0384V12.8878C187.816 12.9517 187.699 13.0103 187.518 13.0636C187.34 13.1133 187.134 13.1577 186.9 13.1967C186.669 13.2322 186.444 13.2642 186.224 13.2926C186.007 13.3175 185.831 13.3388 185.696 13.3565C185.369 13.3991 185.064 13.4684 184.78 13.5643C184.499 13.6566 184.272 13.7969 184.098 13.9851C183.928 14.1697 183.843 14.4219 183.843 14.7415C183.843 15.1783 184.004 15.5085 184.327 15.7322C184.654 15.9524 185.068 16.0625 185.568 16.0625ZM194.511 17.1705C193.829 17.1705 193.227 16.9982 192.705 16.6538C192.183 16.3058 191.774 15.8157 191.48 15.1836C191.185 14.5479 191.038 13.7969 191.038 12.9304C191.038 12.071 191.185 11.3253 191.48 10.6932C191.774 10.0611 192.185 9.5728 192.71 9.22834C193.236 8.88388 193.843 8.71165 194.532 8.71165C195.065 8.71165 195.485 8.80043 195.794 8.97798C196.107 9.15199 196.345 9.35085 196.508 9.57457C196.675 9.79474 196.805 9.97585 196.897 10.1179H197.003V6.09091H198.261V17H197.046V15.7429H196.897C196.805 15.892 196.673 16.0803 196.503 16.3075C196.332 16.5312 196.089 16.7319 195.773 16.9094C195.457 17.0835 195.036 17.1705 194.511 17.1705ZM194.681 16.0412C195.185 16.0412 195.611 15.9098 195.959 15.647C196.307 15.3807 196.572 15.0131 196.753 14.5444C196.934 14.0721 197.025 13.527 197.025 12.9091C197.025 12.2983 196.936 11.7638 196.758 11.3058C196.581 10.8441 196.318 10.4854 195.97 10.2298C195.622 9.97053 195.192 9.84091 194.681 9.84091C194.148 9.84091 193.704 9.97763 193.349 10.2511C192.998 10.521 192.733 10.8885 192.556 11.3537C192.382 11.8153 192.295 12.3338 192.295 12.9091C192.295 13.4915 192.383 14.0206 192.561 14.4964C192.742 14.9687 193.008 15.3452 193.36 15.6257C193.715 15.9027 194.155 16.0412 194.681 16.0412ZM204.061 17.1705C203.294 17.1705 202.634 16.9893 202.08 16.6271C201.526 16.2649 201.1 15.766 200.801 15.1303C200.503 14.4947 200.354 13.7685 200.354 12.9517C200.354 12.1207 200.507 11.3874 200.812 10.7518C201.121 10.1126 201.551 9.61364 202.101 9.25497C202.655 8.89276 203.301 8.71165 204.04 8.71165C204.615 8.71165 205.134 8.81818 205.595 9.03125C206.057 9.24432 206.435 9.54261 206.73 9.92614C207.025 10.3097 207.208 10.7571 207.279 11.2685H206.022C205.926 10.8956 205.713 10.5653 205.382 10.2777C205.056 9.98651 204.615 9.84091 204.061 9.84091C203.571 9.84091 203.142 9.96875 202.772 10.2244C202.407 10.4766 202.121 10.8335 201.915 11.2951C201.712 11.7532 201.611 12.2912 201.611 12.9091C201.611 13.5412 201.71 14.0916 201.909 14.5604C202.112 15.0291 202.396 15.3931 202.762 15.6523C203.131 15.9116 203.564 16.0412 204.061 16.0412C204.388 16.0412 204.685 15.9844 204.951 15.8707C205.217 15.7571 205.443 15.5938 205.627 15.3807C205.812 15.1676 205.943 14.9119 206.022 14.6136H207.279C207.208 15.0966 207.032 15.5316 206.751 15.9187C206.474 16.3022 206.107 16.6076 205.649 16.8349C205.194 17.0586 204.665 17.1705 204.061 17.1705ZM209.116 17V8.81818H210.331V10.054H210.416C210.565 9.64915 210.835 9.32067 211.226 9.06854C211.616 8.81641 212.057 8.69034 212.547 8.69034C212.639 8.69034 212.755 8.69212 212.893 8.69567C213.032 8.69922 213.136 8.70455 213.207 8.71165V9.99006C213.165 9.9794 213.067 9.96342 212.914 9.94212C212.765 9.91726 212.607 9.90483 212.44 9.90483C212.043 9.90483 211.687 9.98828 211.375 10.1552C211.066 10.3185 210.821 10.5458 210.64 10.837C210.462 11.1246 210.373 11.4531 210.373 11.8224V17H209.116ZM219.854 13.6548V8.81818H221.111V17H219.854V15.6151H219.768C219.577 16.0305 219.278 16.3839 218.874 16.6751C218.469 16.9627 217.957 17.1065 217.339 17.1065C216.828 17.1065 216.374 16.9947 215.976 16.771C215.578 16.5437 215.266 16.2028 215.038 15.7482C214.811 15.2901 214.697 14.7131 214.697 14.017V8.81818H215.955V13.9318C215.955 14.5284 216.121 15.0043 216.455 15.3594C216.793 15.7145 217.222 15.892 217.744 15.892C218.057 15.892 218.375 15.8121 218.698 15.6523C219.025 15.4925 219.298 15.2475 219.518 14.9173C219.742 14.587 219.854 14.1662 219.854 13.6548ZM223.413 17V8.81818H224.628V10.0966H224.734C224.905 9.6598 225.18 9.32067 225.56 9.07919C225.94 8.83416 226.396 8.71165 226.929 8.71165C227.469 8.71165 227.918 8.83416 228.277 9.07919C228.639 9.32067 228.921 9.6598 229.123 10.0966H229.209C229.418 9.67401 229.733 9.33842 230.152 9.08984C230.571 8.83771 231.073 8.71165 231.659 8.71165C232.391 8.71165 232.989 8.9407 233.454 9.39879C233.919 9.85334 234.152 10.5618 234.152 11.5241V17H232.895V11.5241C232.895 10.9205 232.73 10.489 232.399 10.2298C232.069 9.97053 231.68 9.84091 231.233 9.84091C230.658 9.84091 230.212 10.0149 229.896 10.3629C229.58 10.7074 229.422 11.1442 229.422 11.6733V17H228.143V11.3963C228.143 10.9311 227.992 10.5565 227.691 10.2724C227.389 9.98473 227 9.84091 226.524 9.84091C226.197 9.84091 225.892 9.92791 225.608 10.1019C225.327 10.2759 225.1 10.5174 224.926 10.8263C224.756 11.1317 224.67 11.4851 224.67 11.8864V17H223.413ZM236.621 17V6.09091H237.878V10.1179H237.984C238.077 9.97585 238.205 9.79474 238.368 9.57457C238.535 9.35085 238.773 9.15199 239.082 8.97798C239.394 8.80043 239.817 8.71165 240.35 8.71165C241.038 8.71165 241.646 8.88388 242.171 9.22834C242.697 9.5728 243.107 10.0611 243.402 10.6932C243.696 11.3253 243.844 12.071 243.844 12.9304C243.844 13.7969 243.696 14.5479 243.402 15.1836C243.107 15.8157 242.699 16.3058 242.177 16.6538C241.655 16.9982 241.053 17.1705 240.371 17.1705C239.845 17.1705 239.424 17.0835 239.108 16.9094C238.792 16.7319 238.549 16.5312 238.379 16.3075C238.208 16.0803 238.077 15.892 237.984 15.7429H237.835V17H236.621ZM237.857 12.9091C237.857 13.527 237.947 14.0721 238.128 14.5444C238.309 15.0131 238.574 15.3807 238.922 15.647C239.27 15.9098 239.696 16.0412 240.2 16.0412C240.726 16.0412 241.165 15.9027 241.516 15.6257C241.871 15.3452 242.138 14.9687 242.315 14.4964C242.496 14.0206 242.587 13.4915 242.587 12.9091C242.587 12.3338 242.498 11.8153 242.32 11.3537C242.146 10.8885 241.882 10.521 241.527 10.2511C241.175 9.97763 240.733 9.84091 240.2 9.84091C239.689 9.84091 239.259 9.97053 238.911 10.2298C238.563 10.4854 238.301 10.8441 238.123 11.3058C237.945 11.7638 237.857 12.2983 237.857 12.9091Z" fill="#2E263D" fill-opacity="0.7"/>
<path d="M258.007 4.57954L254.491 17.6406H253.341L256.857 4.57954H258.007Z" fill="#2E263D" fill-opacity="0.7"/>
<path d="M278 16.1668L273.102 19.1585L274.433 13.5752L270.075 9.84183L275.796 9.3835L278 4.0835L280.204 9.3835L285.926 9.84183L281.567 13.5752L282.898 19.1585L278 16.1668Z" fill="#2E263D" fill-opacity="0.9"/>
<path d="M293.321 17V6.09091H297.135C297.895 6.09091 298.522 6.2223 299.015 6.48509C299.509 6.74432 299.876 7.0941 300.118 7.53445C300.359 7.97124 300.48 8.45597 300.48 8.98864C300.48 9.45739 300.397 9.84446 300.23 10.1499C300.066 10.4553 299.85 10.6967 299.58 10.8743C299.314 11.0518 299.024 11.1832 298.712 11.2685V11.375C299.045 11.3963 299.381 11.5135 299.718 11.7266C300.056 11.9396 300.338 12.245 300.565 12.6428C300.793 13.0405 300.906 13.527 300.906 14.1023C300.906 14.6491 300.782 15.141 300.533 15.5778C300.285 16.0146 299.892 16.3608 299.356 16.6165C298.82 16.8722 298.122 17 297.263 17H293.321ZM294.642 15.8281H297.263C298.126 15.8281 298.738 15.6612 299.1 15.3274C299.466 14.9901 299.649 14.5817 299.649 14.1023C299.649 13.733 299.555 13.392 299.367 13.0795C299.179 12.7635 298.911 12.5114 298.562 12.3232C298.214 12.1314 297.803 12.0355 297.327 12.0355H294.642V15.8281ZM294.642 10.8849H297.092C297.49 10.8849 297.849 10.8068 298.168 10.6506C298.491 10.4943 298.747 10.2741 298.935 9.99006C299.127 9.70597 299.223 9.37216 299.223 8.98864C299.223 8.50923 299.056 8.10263 298.722 7.76882C298.388 7.43146 297.859 7.26278 297.135 7.26278H294.642V10.8849ZM302.906 17V8.81818H304.121V10.054H304.206C304.355 9.64915 304.625 9.32067 305.016 9.06854C305.406 8.81641 305.847 8.69034 306.337 8.69034C306.429 8.69034 306.545 8.69212 306.683 8.69567C306.822 8.69922 306.926 8.70455 306.997 8.71165V9.99006C306.955 9.9794 306.857 9.96342 306.704 9.94212C306.555 9.91726 306.397 9.90483 306.23 9.90483C305.833 9.90483 305.477 9.98828 305.165 10.1552C304.856 10.3185 304.611 10.5458 304.43 10.837C304.252 11.1246 304.164 11.4531 304.164 11.8224V17H302.906ZM311.669 17.1705C310.881 17.1705 310.2 16.9964 309.629 16.6484C309.061 16.2969 308.622 15.8068 308.313 15.1783C308.008 14.5462 307.855 13.8111 307.855 12.973C307.855 12.1349 308.008 11.3963 308.313 10.7571C308.622 10.1143 309.052 9.61364 309.602 9.25497C310.156 8.89276 310.802 8.71165 311.541 8.71165C311.967 8.71165 312.388 8.78267 312.803 8.92472C313.219 9.06676 313.597 9.29759 313.938 9.61719C314.279 9.93324 314.551 10.3523 314.753 10.8743C314.955 11.3963 315.057 12.0391 315.057 12.8026V13.3352H308.75V12.2486H313.778C313.778 11.7869 313.686 11.375 313.501 11.0128C313.32 10.6506 313.061 10.3647 312.724 10.1552C312.39 9.94567 311.996 9.84091 311.541 9.84091C311.04 9.84091 310.607 9.9652 310.241 10.2138C309.879 10.4588 309.6 10.7784 309.405 11.1726C309.21 11.5668 309.112 11.9893 309.112 12.4403V13.1648C309.112 13.7827 309.219 14.3065 309.432 14.7362C309.648 15.1623 309.948 15.4872 310.332 15.7109C310.715 15.9311 311.161 16.0412 311.669 16.0412C311.999 16.0412 312.297 15.995 312.564 15.9027C312.834 15.8068 313.066 15.6648 313.262 15.4766C313.457 15.2848 313.608 15.0469 313.714 14.7628L314.929 15.1037C314.801 15.5156 314.586 15.8778 314.284 16.1903C313.982 16.4993 313.61 16.7408 313.166 16.9148C312.722 17.0852 312.223 17.1705 311.669 17.1705ZM319.377 17.1918C318.858 17.1918 318.388 17.0941 317.965 16.8988C317.542 16.6999 317.207 16.4141 316.958 16.0412C316.71 15.6648 316.585 15.2102 316.585 14.6776C316.585 14.2088 316.678 13.8288 316.862 13.5376C317.047 13.2429 317.294 13.0121 317.603 12.8452C317.912 12.6783 318.253 12.554 318.626 12.4723C319.002 12.3871 319.38 12.3196 319.76 12.2699C320.257 12.206 320.66 12.158 320.969 12.1261C321.282 12.0906 321.509 12.032 321.651 11.9503C321.797 11.8686 321.869 11.7266 321.869 11.5241V11.4815C321.869 10.956 321.726 10.5476 321.438 10.2564C321.154 9.9652 320.722 9.8196 320.144 9.8196C319.544 9.8196 319.073 9.95099 318.732 10.2138C318.391 10.4766 318.151 10.7571 318.013 11.0554L316.82 10.6293C317.033 10.1321 317.317 9.74503 317.672 9.46804C318.031 9.1875 318.421 8.99219 318.844 8.8821C319.27 8.76847 319.689 8.71165 320.101 8.71165C320.364 8.71165 320.666 8.74361 321.007 8.80753C321.351 8.8679 321.683 8.99396 322.003 9.18572C322.326 9.37749 322.594 9.6669 322.807 10.054C323.02 10.4411 323.127 10.9595 323.127 11.6094V17H321.869V15.892H321.806C321.72 16.0696 321.578 16.2596 321.379 16.462C321.181 16.6644 320.916 16.8366 320.586 16.9787C320.256 17.1207 319.852 17.1918 319.377 17.1918ZM319.568 16.0625C320.066 16.0625 320.485 15.9648 320.825 15.7695C321.17 15.5742 321.429 15.3221 321.603 15.0131C321.781 14.7042 321.869 14.3793 321.869 14.0384V12.8878C321.816 12.9517 321.699 13.0103 321.518 13.0636C321.34 13.1133 321.134 13.1577 320.9 13.1967C320.669 13.2322 320.444 13.2642 320.224 13.2926C320.007 13.3175 319.831 13.3388 319.696 13.3565C319.369 13.3991 319.064 13.4684 318.78 13.5643C318.499 13.6566 318.272 13.7969 318.098 13.9851C317.928 14.1697 317.843 14.4219 317.843 14.7415C317.843 15.1783 318.004 15.5085 318.327 15.7322C318.654 15.9524 319.068 16.0625 319.568 16.0625ZM328.511 17.1705C327.829 17.1705 327.227 16.9982 326.705 16.6538C326.183 16.3058 325.774 15.8157 325.48 15.1836C325.185 14.5479 325.038 13.7969 325.038 12.9304C325.038 12.071 325.185 11.3253 325.48 10.6932C325.774 10.0611 326.185 9.5728 326.71 9.22834C327.236 8.88388 327.843 8.71165 328.532 8.71165C329.065 8.71165 329.485 8.80043 329.794 8.97798C330.107 9.15199 330.345 9.35085 330.508 9.57457C330.675 9.79474 330.805 9.97585 330.897 10.1179H331.003V6.09091H332.261V17H331.046V15.7429H330.897C330.805 15.892 330.673 16.0803 330.503 16.3075C330.332 16.5312 330.089 16.7319 329.773 16.9094C329.457 17.0835 329.036 17.1705 328.511 17.1705ZM328.681 16.0412C329.185 16.0412 329.611 15.9098 329.959 15.647C330.307 15.3807 330.572 15.0131 330.753 14.5444C330.934 14.0721 331.025 13.527 331.025 12.9091C331.025 12.2983 330.936 11.7638 330.758 11.3058C330.581 10.8441 330.318 10.4854 329.97 10.2298C329.622 9.97053 329.192 9.84091 328.681 9.84091C328.148 9.84091 327.704 9.97763 327.349 10.2511C326.998 10.521 326.733 10.8885 326.556 11.3537C326.382 11.8153 326.295 12.3338 326.295 12.9091C326.295 13.4915 326.383 14.0206 326.561 14.4964C326.742 14.9687 327.008 15.3452 327.36 15.6257C327.715 15.9027 328.155 16.0412 328.681 16.0412ZM338.061 17.1705C337.294 17.1705 336.634 16.9893 336.08 16.6271C335.526 16.2649 335.1 15.766 334.801 15.1303C334.503 14.4947 334.354 13.7685 334.354 12.9517C334.354 12.1207 334.507 11.3874 334.812 10.7518C335.121 10.1126 335.551 9.61364 336.101 9.25497C336.655 8.89276 337.301 8.71165 338.04 8.71165C338.615 8.71165 339.134 8.81818 339.595 9.03125C340.057 9.24432 340.435 9.54261 340.73 9.92614C341.025 10.3097 341.208 10.7571 341.279 11.2685H340.022C339.926 10.8956 339.713 10.5653 339.382 10.2777C339.056 9.98651 338.615 9.84091 338.061 9.84091C337.571 9.84091 337.142 9.96875 336.772 10.2244C336.407 10.4766 336.121 10.8335 335.915 11.2951C335.712 11.7532 335.611 12.2912 335.611 12.9091C335.611 13.5412 335.71 14.0916 335.909 14.5604C336.112 15.0291 336.396 15.3931 336.762 15.6523C337.131 15.9116 337.564 16.0412 338.061 16.0412C338.388 16.0412 338.685 15.9844 338.951 15.8707C339.217 15.7571 339.443 15.5938 339.627 15.3807C339.812 15.1676 339.943 14.9119 340.022 14.6136H341.279C341.208 15.0966 341.032 15.5316 340.751 15.9187C340.474 16.3022 340.107 16.6076 339.649 16.8349C339.194 17.0586 338.665 17.1705 338.061 17.1705ZM343.116 17V8.81818H344.331V10.054H344.416C344.565 9.64915 344.835 9.32067 345.226 9.06854C345.616 8.81641 346.057 8.69034 346.547 8.69034C346.639 8.69034 346.755 8.69212 346.893 8.69567C347.032 8.69922 347.136 8.70455 347.207 8.71165V9.99006C347.165 9.9794 347.067 9.96342 346.914 9.94212C346.765 9.91726 346.607 9.90483 346.44 9.90483C346.043 9.90483 345.687 9.98828 345.375 10.1552C345.066 10.3185 344.821 10.5458 344.64 10.837C344.462 11.1246 344.373 11.4531 344.373 11.8224V17H343.116ZM353.854 13.6548V8.81818H355.111V17H353.854V15.6151H353.768C353.577 16.0305 353.278 16.3839 352.874 16.6751C352.469 16.9627 351.957 17.1065 351.339 17.1065C350.828 17.1065 350.374 16.9947 349.976 16.771C349.578 16.5437 349.266 16.2028 349.038 15.7482C348.811 15.2901 348.697 14.7131 348.697 14.017V8.81818H349.955V13.9318C349.955 14.5284 350.121 15.0043 350.455 15.3594C350.793 15.7145 351.222 15.892 351.744 15.892C352.057 15.892 352.375 15.8121 352.698 15.6523C353.025 15.4925 353.298 15.2475 353.518 14.9173C353.742 14.587 353.854 14.1662 353.854 13.6548ZM357.413 17V8.81818H358.628V10.0966H358.734C358.905 9.6598 359.18 9.32067 359.56 9.07919C359.94 8.83416 360.396 8.71165 360.929 8.71165C361.469 8.71165 361.918 8.83416 362.277 9.07919C362.639 9.32067 362.921 9.6598 363.123 10.0966H363.209C363.418 9.67401 363.733 9.33842 364.152 9.08984C364.571 8.83771 365.073 8.71165 365.659 8.71165C366.391 8.71165 366.989 8.9407 367.454 9.39879C367.919 9.85334 368.152 10.5618 368.152 11.5241V17H366.895V11.5241C366.895 10.9205 366.73 10.489 366.399 10.2298C366.069 9.97053 365.68 9.84091 365.233 9.84091C364.658 9.84091 364.212 10.0149 363.896 10.3629C363.58 10.7074 363.422 11.1442 363.422 11.6733V17H362.143V11.3963C362.143 10.9311 361.992 10.5565 361.691 10.2724C361.389 9.98473 361 9.84091 360.524 9.84091C360.197 9.84091 359.892 9.92791 359.608 10.1019C359.327 10.2759 359.1 10.5174 358.926 10.8263C358.756 11.1317 358.67 11.4851 358.67 11.8864V17H357.413ZM370.621 17V6.09091H371.878V10.1179H371.984C372.077 9.97585 372.205 9.79474 372.368 9.57457C372.535 9.35085 372.773 9.15199 373.082 8.97798C373.394 8.80043 373.817 8.71165 374.35 8.71165C375.038 8.71165 375.646 8.88388 376.171 9.22834C376.697 9.5728 377.107 10.0611 377.402 10.6932C377.696 11.3253 377.844 12.071 377.844 12.9304C377.844 13.7969 377.696 14.5479 377.402 15.1836C377.107 15.8157 376.699 16.3058 376.177 16.6538C375.655 16.9982 375.053 17.1705 374.371 17.1705C373.845 17.1705 373.424 17.0835 373.108 16.9094C372.792 16.7319 372.549 16.5312 372.379 16.3075C372.208 16.0803 372.077 15.892 371.984 15.7429H371.835V17H370.621ZM371.857 12.9091C371.857 13.527 371.947 14.0721 372.128 14.5444C372.309 15.0131 372.574 15.3807 372.922 15.647C373.27 15.9098 373.696 16.0412 374.2 16.0412C374.726 16.0412 375.165 15.9027 375.516 15.6257C375.871 15.3452 376.138 14.9687 376.315 14.4964C376.496 14.0206 376.587 13.4915 376.587 12.9091C376.587 12.3338 376.498 11.8153 376.32 11.3537C376.146 10.8885 375.882 10.521 375.527 10.2511C375.175 9.97763 374.733 9.84091 374.2 9.84091C373.689 9.84091 373.259 9.97053 372.911 10.2298C372.563 10.4854 372.301 10.8441 372.123 11.3058C371.945 11.7638 371.857 12.2983 371.857 12.9091Z" fill="#2E263D" fill-opacity="0.9"/>
</svg>
