<svg width="656" height="224" viewBox="0 0 656 224" fill="none" xmlns="http://www.w3.org/2000/svg">
<g filter="url(#filter0_d_8003_3715)">
<g clip-path="url(#clip0_8003_3715)">
<path d="M28 26C28 22.6863 30.6863 20 34 20H622C625.314 20 628 22.6863 628 26V182C628 185.314 625.314 188 622 188H34C30.6863 188 28 185.314 28 182V26Z" fill="white"/>
<path d="M53.6761 61H49.4382V47.9091H53.8104C55.093 47.9091 56.1946 48.1712 57.1151 48.6953C58.0355 49.2152 58.7408 49.9631 59.2308 50.9389C59.7251 51.9105 59.9723 53.076 59.9723 54.4354C59.9723 55.799 59.723 56.9709 59.2244 57.951C58.7301 58.9311 58.0142 59.6854 57.0767 60.2138C56.1392 60.7379 55.0057 61 53.6761 61ZM51.4134 59.2741H53.5675C54.5646 59.2741 55.3935 59.0866 56.054 58.7116C56.7145 58.3324 57.2088 57.7848 57.5369 57.0689C57.8651 56.3487 58.0291 55.4709 58.0291 54.4354C58.0291 53.4084 57.8651 52.5369 57.5369 51.821C57.2131 51.1051 56.7294 50.5618 56.0859 50.1911C55.4425 49.8203 54.6435 49.6349 53.6889 49.6349H51.4134V59.2741ZM62.275 61V51.1818H64.1863V61H62.275ZM63.2402 49.6669C62.9078 49.6669 62.6223 49.5561 62.3837 49.3345C62.1493 49.1087 62.0321 48.8402 62.0321 48.5291C62.0321 48.2138 62.1493 47.9453 62.3837 47.7237C62.6223 47.4979 62.9078 47.3849 63.2402 47.3849C63.5726 47.3849 63.856 47.4979 64.0904 47.7237C64.329 47.9453 64.4483 48.2138 64.4483 48.5291C64.4483 48.8402 64.329 49.1087 64.0904 49.3345C63.856 49.5561 63.5726 49.6669 63.2402 49.6669ZM69.6147 61.2173C68.9925 61.2173 68.43 61.1023 67.9272 60.8722C67.4244 60.6378 67.0259 60.299 66.7319 59.8558C66.4421 59.4126 66.2972 58.8693 66.2972 58.2259C66.2972 57.6719 66.4038 57.2159 66.6168 56.858C66.8299 56.5 67.1175 56.2166 67.4798 56.0078C67.842 55.799 68.2468 55.6413 68.6942 55.5348C69.1417 55.4283 69.5977 55.3473 70.0621 55.2919C70.6502 55.2237 71.1275 55.1683 71.494 55.1257C71.8604 55.0788 72.1268 55.0043 72.293 54.902C72.4592 54.7997 72.5423 54.6335 72.5423 54.4034V54.3587C72.5423 53.8004 72.3846 53.3679 72.0692 53.0611C71.7582 52.7543 71.2937 52.6009 70.6758 52.6009C70.0323 52.6009 69.5252 52.7436 69.1545 53.0291C68.788 53.3104 68.5344 53.6236 68.3938 53.9688L66.5977 53.5597C66.8107 52.9631 67.1218 52.4815 67.5309 52.1151C67.9442 51.7443 68.4194 51.4759 68.9563 51.3097C69.4933 51.1392 70.0579 51.054 70.6502 51.054C71.0423 51.054 71.4577 51.1009 71.8967 51.1946C72.3398 51.2841 72.7532 51.4503 73.1367 51.6932C73.5245 51.9361 73.842 52.2834 74.0891 52.7351C74.3363 53.1825 74.4599 53.7642 74.4599 54.4801V61H72.5934V59.6577H72.5167C72.3931 59.9048 72.2077 60.1477 71.9606 60.3864C71.7134 60.625 71.396 60.8232 71.0082 60.9808C70.6204 61.1385 70.1559 61.2173 69.6147 61.2173ZM70.0302 59.6832C70.5586 59.6832 71.0103 59.5788 71.3853 59.37C71.7646 59.1612 72.0522 58.8885 72.2482 58.5518C72.4485 58.2109 72.5487 57.8466 72.5487 57.4588V56.1932C72.4805 56.2614 72.3484 56.3253 72.1523 56.3849C71.9606 56.4403 71.7411 56.4893 71.494 56.532C71.2468 56.5703 71.006 56.6065 70.7717 56.6406C70.5373 56.6705 70.3413 56.696 70.1836 56.7173C69.8129 56.7642 69.4741 56.843 69.1673 56.9538C68.8647 57.0646 68.6218 57.2244 68.4386 57.4332C68.2596 57.6378 68.1701 57.9105 68.1701 58.2514C68.1701 58.7244 68.3448 59.0824 68.6942 59.3253C69.0437 59.5639 69.489 59.6832 70.0302 59.6832ZM78.9167 47.9091V61H77.0055V47.9091H78.9167ZM85.6236 61.1982C84.7031 61.1982 83.8999 60.9872 83.2138 60.5653C82.5277 60.1435 81.995 59.5533 81.6158 58.7947C81.2365 58.0362 81.0469 57.1499 81.0469 56.1357C81.0469 55.1172 81.2365 54.2266 81.6158 53.4638C81.995 52.701 82.5277 52.1087 83.2138 51.6868C83.8999 51.2649 84.7031 51.054 85.6236 51.054C86.544 51.054 87.3473 51.2649 88.0334 51.6868C88.7195 52.1087 89.2521 52.701 89.6314 53.4638C90.0107 54.2266 90.2003 55.1172 90.2003 56.1357C90.2003 57.1499 90.0107 58.0362 89.6314 58.7947C89.2521 59.5533 88.7195 60.1435 88.0334 60.5653C87.3473 60.9872 86.544 61.1982 85.6236 61.1982ZM85.63 59.5938C86.2266 59.5938 86.7209 59.4361 87.1129 59.1207C87.505 58.8054 87.7947 58.3857 87.9822 57.8615C88.174 57.3374 88.2699 56.7599 88.2699 56.1293C88.2699 55.5028 88.174 54.9276 87.9822 54.4034C87.7947 53.875 87.505 53.451 87.1129 53.1314C86.7209 52.8118 86.2266 52.652 85.63 52.652C85.0291 52.652 84.5305 52.8118 84.1342 53.1314C83.7422 53.451 83.4503 53.875 83.2585 54.4034C83.071 54.9276 82.9773 55.5028 82.9773 56.1293C82.9773 56.7599 83.071 57.3374 83.2585 57.8615C83.4503 58.3857 83.7422 58.8054 84.1342 59.1207C84.5305 59.4361 85.0291 59.5938 85.63 59.5938ZM96.4501 64.8864C95.6703 64.8864 94.9991 64.7841 94.4366 64.5795C93.8784 64.375 93.4224 64.1044 93.0687 63.7678C92.715 63.4311 92.4508 63.0625 92.2761 62.6619L93.9189 61.9844C94.0339 62.1719 94.1873 62.37 94.3791 62.5788C94.5751 62.7919 94.8393 62.973 95.1717 63.1222C95.5083 63.2713 95.9409 63.3459 96.4693 63.3459C97.1937 63.3459 97.7924 63.169 98.2654 62.8153C98.7385 62.4659 98.975 61.9077 98.975 61.1406V59.2102H98.8535C98.7385 59.419 98.5723 59.6513 98.3549 59.907C98.1419 60.1626 97.8478 60.3842 97.4728 60.5717C97.0978 60.7592 96.6099 60.853 96.0091 60.853C95.2335 60.853 94.5346 60.6719 93.9125 60.3097C93.2946 59.9432 92.8045 59.4041 92.4423 58.6925C92.0843 57.9766 91.9054 57.0966 91.9054 56.0526C91.9054 55.0085 92.0822 54.1136 92.4359 53.3679C92.7939 52.6222 93.2839 52.0511 93.9061 51.6548C94.5282 51.2543 95.2335 51.054 96.0218 51.054C96.6312 51.054 97.1234 51.1562 97.4984 51.3608C97.8734 51.5611 98.1653 51.7955 98.3741 52.0639C98.5872 52.3324 98.7512 52.5689 98.8663 52.7734H99.0069V51.1818H100.88V61.2173C100.88 62.0611 100.684 62.7536 100.292 63.2947C99.8997 63.8359 99.3691 64.2365 98.7001 64.4964C98.0353 64.7564 97.2853 64.8864 96.4501 64.8864ZM96.4309 59.2678C96.9806 59.2678 97.4451 59.1399 97.8244 58.8842C98.2079 58.6243 98.4977 58.2536 98.6937 57.772C98.894 57.2862 98.9941 56.7045 98.9941 56.027C98.9941 55.3665 98.8961 54.7848 98.7001 54.282C98.5041 53.7791 98.2164 53.3871 97.8372 53.1058C97.4579 52.8203 96.9892 52.6776 96.4309 52.6776C95.8556 52.6776 95.3762 52.8267 94.9927 53.125C94.6092 53.419 94.3194 53.8196 94.1234 54.3267C93.9316 54.8338 93.8358 55.4006 93.8358 56.027C93.8358 56.6705 93.9338 57.2351 94.1298 57.7209C94.3258 58.2067 94.6156 58.5859 94.9991 58.8587C95.3869 59.1314 95.8642 59.2678 96.4309 59.2678ZM107.714 49.6094V47.9091H117.846V49.6094H113.761V61H111.793V49.6094H107.714ZM119.931 61V51.1818H121.843V61H119.931ZM120.896 49.6669C120.564 49.6669 120.279 49.5561 120.04 49.3345C119.806 49.1087 119.688 48.8402 119.688 48.5291C119.688 48.2138 119.806 47.9453 120.04 47.7237C120.279 47.4979 120.564 47.3849 120.896 47.3849C121.229 47.3849 121.512 47.4979 121.747 47.7237C121.985 47.9453 122.105 48.2138 122.105 48.5291C122.105 48.8402 121.985 49.1087 121.747 49.3345C121.512 49.5561 121.229 49.6669 120.896 49.6669ZM128.997 51.1818V52.7159H123.634V51.1818H128.997ZM125.072 48.8295H126.983V58.1172C126.983 58.4879 127.039 58.767 127.15 58.9545C127.26 59.1378 127.403 59.2635 127.578 59.3317C127.757 59.3956 127.951 59.4276 128.159 59.4276C128.313 59.4276 128.447 59.4169 128.562 59.3956C128.677 59.3743 128.767 59.3572 128.831 59.3445L129.176 60.9233C129.065 60.9659 128.907 61.0085 128.703 61.0511C128.498 61.098 128.243 61.1236 127.936 61.1278C127.433 61.1364 126.964 61.0469 126.529 60.8594C126.095 60.6719 125.743 60.3821 125.475 59.9901C125.206 59.598 125.072 59.1058 125.072 58.5135V48.8295ZM133.233 47.9091V61H131.322V47.9091H133.233ZM140.036 61.1982C139.069 61.1982 138.235 60.9915 137.537 60.5781C136.842 60.1605 136.305 59.5746 135.926 58.8203C135.551 58.0618 135.363 57.1733 135.363 56.1548C135.363 55.1491 135.551 54.2628 135.926 53.4957C136.305 52.7287 136.833 52.13 137.511 51.6996C138.193 51.2692 138.99 51.054 139.902 51.054C140.456 51.054 140.993 51.1456 141.512 51.3288C142.032 51.5121 142.499 51.7997 142.912 52.1918C143.326 52.5838 143.652 53.093 143.89 53.7195C144.129 54.3416 144.248 55.098 144.248 55.9886V56.6662H136.444V55.2344H142.375C142.375 54.7315 142.273 54.2862 142.069 53.8984C141.864 53.5064 141.576 53.1974 141.206 52.9716C140.839 52.7457 140.409 52.6328 139.914 52.6328C139.377 52.6328 138.909 52.7649 138.508 53.0291C138.112 53.2891 137.805 53.63 137.588 54.0518C137.375 54.4695 137.268 54.9233 137.268 55.4134V56.532C137.268 57.1882 137.383 57.7464 137.613 58.2067C137.848 58.6669 138.174 59.0185 138.591 59.2614C139.009 59.5 139.497 59.6193 140.055 59.6193C140.417 59.6193 140.748 59.5682 141.046 59.4659C141.344 59.3594 141.602 59.2017 141.819 58.9929C142.037 58.7841 142.203 58.5263 142.318 58.2195L144.127 58.5455C143.982 59.0781 143.722 59.5447 143.347 59.9453C142.976 60.3416 142.51 60.6506 141.947 60.8722C141.389 61.0895 140.752 61.1982 140.036 61.1982Z" fill="#2E263D" fill-opacity="0.9"/>
<path d="M58.0994 96.5H56.7784C56.7003 96.12 56.5636 95.7862 56.3683 95.4986C56.1765 95.2109 55.9421 94.9695 55.6651 94.7741C55.3917 94.5753 55.0881 94.4261 54.7543 94.3267C54.4205 94.2273 54.0724 94.1776 53.7102 94.1776C53.0497 94.1776 52.4513 94.3445 51.9151 94.6783C51.3825 95.0121 50.9581 95.5039 50.642 96.1538C50.3295 96.8036 50.1733 97.6009 50.1733 98.5455C50.1733 99.4901 50.3295 100.287 50.642 100.937C50.9581 101.587 51.3825 102.079 51.9151 102.413C52.4513 102.746 53.0497 102.913 53.7102 102.913C54.0724 102.913 54.4205 102.864 54.7543 102.764C55.0881 102.665 55.3917 102.517 55.6651 102.322C55.9421 102.123 56.1765 101.88 56.3683 101.592C56.5636 101.301 56.7003 100.967 56.7784 100.591H58.0994C58 101.148 57.8189 101.647 57.5561 102.088C57.2933 102.528 56.9666 102.903 56.576 103.212C56.1854 103.517 55.7468 103.75 55.2603 103.909C54.7773 104.069 54.2607 104.149 53.7102 104.149C52.7798 104.149 51.9524 103.922 51.228 103.467C50.5036 103.013 49.9336 102.366 49.5181 101.528C49.1026 100.69 48.8949 99.696 48.8949 98.5455C48.8949 97.3949 49.1026 96.4006 49.5181 95.5625C49.9336 94.7244 50.5036 94.0781 51.228 93.6236C51.9524 93.169 52.7798 92.9418 53.7102 92.9418C54.2607 92.9418 54.7773 93.0217 55.2603 93.1815C55.7468 93.3413 56.1854 93.5756 56.576 93.8846C56.9666 94.19 57.2933 94.5629 57.5561 95.0032C57.8189 95.44 58 95.9389 58.0994 96.5ZM63.3875 104.17C62.6489 104.17 62.0008 103.995 61.4433 103.643C60.8893 103.292 60.4561 102.8 60.1436 102.168C59.8346 101.536 59.6801 100.797 59.6801 99.9517C59.6801 99.0994 59.8346 98.3555 60.1436 97.7198C60.4561 97.0842 60.8893 96.5906 61.4433 96.239C62.0008 95.8874 62.6489 95.7116 63.3875 95.7116C64.1262 95.7116 64.7725 95.8874 65.3264 96.239C65.884 96.5906 66.3172 97.0842 66.6262 97.7198C66.9387 98.3555 67.0949 99.0994 67.0949 99.9517C67.0949 100.797 66.9387 101.536 66.6262 102.168C66.3172 102.8 65.884 103.292 65.3264 103.643C64.7725 103.995 64.1262 104.17 63.3875 104.17ZM63.3875 103.041C63.9486 103.041 64.4102 102.897 64.7725 102.61C65.1347 102.322 65.4028 101.944 65.5768 101.475C65.7508 101.006 65.8378 100.499 65.8378 99.9517C65.8378 99.4048 65.7508 98.8952 65.5768 98.4229C65.4028 97.9506 65.1347 97.5689 64.7725 97.2777C64.4102 96.9865 63.9486 96.8409 63.3875 96.8409C62.8264 96.8409 62.3648 96.9865 62.0026 97.2777C61.6404 97.5689 61.3722 97.9506 61.1982 98.4229C61.0242 98.8952 60.9372 99.4048 60.9372 99.9517C60.9372 100.499 61.0242 101.006 61.1982 101.475C61.3722 101.944 61.6404 102.322 62.0026 102.61C62.3648 102.897 62.8264 103.041 63.3875 103.041ZM70.271 99.0781V104H69.0138V95.8182H70.2283V97.0966H70.3349C70.5266 96.6811 70.8178 96.3473 71.2085 96.0952C71.5991 95.8395 72.1033 95.7116 72.7212 95.7116C73.2752 95.7116 73.7599 95.8253 74.1754 96.0526C74.5909 96.2763 74.9141 96.6172 75.1449 97.0753C75.3757 97.5298 75.4911 98.1051 75.4911 98.8011V104H74.234V98.8864C74.234 98.2436 74.0671 97.7429 73.7333 97.3842C73.3995 97.022 72.9414 96.8409 72.359 96.8409C71.9577 96.8409 71.5991 96.9279 71.283 97.1019C70.9705 97.2759 70.7237 97.5298 70.5426 97.8636C70.3615 98.1974 70.271 98.6023 70.271 99.0781ZM81.3465 95.8182V96.8835H77.1064V95.8182H81.3465ZM78.3422 93.858H79.5993V101.656C79.5993 102.011 79.6508 102.278 79.7538 102.455C79.8604 102.629 79.9953 102.746 80.1586 102.807C80.3256 102.864 80.5013 102.892 80.686 102.892C80.8245 102.892 80.9381 102.885 81.0269 102.871C81.1157 102.853 81.1867 102.839 81.24 102.828L81.4957 103.957C81.4104 103.989 81.2915 104.021 81.1388 104.053C80.9861 104.089 80.7925 104.107 80.5582 104.107C80.203 104.107 79.855 104.03 79.5141 103.877C79.1768 103.725 78.8962 103.492 78.6725 103.18C78.4523 102.867 78.3422 102.473 78.3422 101.997V93.858ZM86.58 104.17C85.7916 104.17 85.1116 103.996 84.5399 103.648C83.9717 103.297 83.5331 102.807 83.2242 102.178C82.9188 101.546 82.7661 100.811 82.7661 99.973C82.7661 99.1349 82.9188 98.3963 83.2242 97.7571C83.5331 97.1143 83.9628 96.6136 84.5132 96.255C85.0672 95.8928 85.7135 95.7116 86.4521 95.7116C86.8783 95.7116 87.2991 95.7827 87.7146 95.9247C88.1301 96.0668 88.5083 96.2976 88.8492 96.6172C89.1901 96.9332 89.4617 97.3523 89.6642 97.8743C89.8666 98.3963 89.9678 99.0391 89.9678 99.8026V100.335H83.661V99.2486H88.6894C88.6894 98.7869 88.597 98.375 88.4124 98.0128C88.2313 97.6506 87.972 97.3647 87.6347 97.1552C87.3009 96.9457 86.9067 96.8409 86.4521 96.8409C85.9514 96.8409 85.5182 96.9652 85.1524 97.2138C84.7902 97.4588 84.5115 97.7784 84.3161 98.1726C84.1208 98.5668 84.0232 98.9893 84.0232 99.4403V100.165C84.0232 100.783 84.1297 101.306 84.3428 101.736C84.5594 102.162 84.8595 102.487 85.243 102.711C85.6265 102.931 86.0722 103.041 86.58 103.041C86.9102 103.041 87.2085 102.995 87.4749 102.903C87.7448 102.807 87.9774 102.665 88.1727 102.477C88.368 102.285 88.5189 102.047 88.6254 101.763L89.8399 102.104C89.7121 102.516 89.4972 102.878 89.1954 103.19C88.8936 103.499 88.5207 103.741 88.0768 103.915C87.6329 104.085 87.134 104.17 86.58 104.17ZM93.1372 99.0781V104H91.8801V95.8182H93.0945V97.0966H93.2011C93.3928 96.6811 93.684 96.3473 94.0747 96.0952C94.4653 95.8395 94.9695 95.7116 95.5874 95.7116C96.1414 95.7116 96.6262 95.8253 97.0416 96.0526C97.4571 96.2763 97.7803 96.6172 98.0111 97.0753C98.2419 97.5298 98.3573 98.1051 98.3573 98.8011V104H97.1002V98.8864C97.1002 98.2436 96.9333 97.7429 96.5995 97.3842C96.2657 97.022 95.8076 96.8409 95.2252 96.8409C94.824 96.8409 94.4653 96.9279 94.1492 97.1019C93.8367 97.2759 93.5899 97.5298 93.4088 97.8636C93.2277 98.1974 93.1372 98.6023 93.1372 99.0781ZM104.213 95.8182V96.8835H99.9727V95.8182H104.213ZM101.208 93.858H102.466V101.656C102.466 102.011 102.517 102.278 102.62 102.455C102.727 102.629 102.862 102.746 103.025 102.807C103.192 102.864 103.368 102.892 103.552 102.892C103.691 102.892 103.804 102.885 103.893 102.871C103.982 102.853 104.053 102.839 104.106 102.828L104.362 103.957C104.277 103.989 104.158 104.021 104.005 104.053C103.852 104.089 103.659 104.107 103.424 104.107C103.069 104.107 102.721 104.03 102.38 103.877C102.043 103.725 101.762 103.492 101.539 103.18C101.319 102.867 101.208 102.473 101.208 101.997V93.858Z" fill="#2E263D" fill-opacity="0.7"/>
<g clip-path="url(#clip1_8003_3715)">
<path d="M404.259 146.638H402.597C402.533 146.283 402.414 145.971 402.24 145.701C402.066 145.431 401.853 145.202 401.601 145.014C401.349 144.826 401.067 144.684 400.754 144.588C400.445 144.492 400.117 144.444 399.769 144.444C399.14 144.444 398.577 144.602 398.08 144.918C397.587 145.234 397.196 145.697 396.908 146.308C396.624 146.919 396.482 147.665 396.482 148.545C396.482 149.433 396.624 150.183 396.908 150.793C397.196 151.404 397.588 151.866 398.086 152.178C398.583 152.491 399.142 152.647 399.763 152.647C400.108 152.647 400.435 152.601 400.744 152.509C401.056 152.413 401.338 152.272 401.591 152.088C401.843 151.903 402.056 151.678 402.23 151.411C402.407 151.141 402.53 150.832 402.597 150.484L404.259 150.49C404.17 151.026 403.998 151.52 403.743 151.971C403.49 152.418 403.165 152.805 402.768 153.132C402.374 153.455 401.923 153.705 401.415 153.883C400.907 154.06 400.353 154.149 399.753 154.149C398.808 154.149 397.967 153.925 397.228 153.478C396.489 153.027 395.907 152.382 395.481 151.544C395.058 150.706 394.847 149.707 394.847 148.545C394.847 147.381 395.06 146.381 395.486 145.547C395.912 144.708 396.495 144.066 397.233 143.618C397.972 143.167 398.812 142.942 399.753 142.942C400.332 142.942 400.871 143.025 401.372 143.192C401.876 143.355 402.329 143.597 402.73 143.917C403.132 144.233 403.464 144.62 403.727 145.078C403.989 145.532 404.167 146.053 404.259 146.638ZM407.694 143.091V154H406.101V143.091H407.694ZM413.283 154.165C412.516 154.165 411.846 153.989 411.275 153.638C410.703 153.286 410.259 152.794 409.943 152.162C409.627 151.53 409.469 150.792 409.469 149.946C409.469 149.098 409.627 148.355 409.943 147.72C410.259 147.084 410.703 146.591 411.275 146.239C411.846 145.887 412.516 145.712 413.283 145.712C414.05 145.712 414.719 145.887 415.291 146.239C415.863 146.591 416.306 147.084 416.623 147.72C416.939 148.355 417.097 149.098 417.097 149.946C417.097 150.792 416.939 151.53 416.623 152.162C416.306 152.794 415.863 153.286 415.291 153.638C414.719 153.989 414.05 154.165 413.283 154.165ZM413.288 152.828C413.785 152.828 414.197 152.697 414.524 152.434C414.85 152.171 415.092 151.821 415.248 151.385C415.408 150.948 415.488 150.467 415.488 149.941C415.488 149.419 415.408 148.94 415.248 148.503C415.092 148.062 414.85 147.709 414.524 147.443C414.197 147.176 413.785 147.043 413.288 147.043C412.787 147.043 412.372 147.176 412.042 147.443C411.715 147.709 411.472 148.062 411.312 148.503C411.156 148.94 411.077 149.419 411.077 149.941C411.077 150.467 411.156 150.948 411.312 151.385C411.472 151.821 411.715 152.171 412.042 152.434C412.372 152.697 412.787 152.828 413.288 152.828ZM425.005 147.816L423.562 148.071C423.502 147.887 423.406 147.711 423.274 147.544C423.146 147.377 422.972 147.24 422.752 147.134C422.532 147.027 422.257 146.974 421.927 146.974C421.476 146.974 421.099 147.075 420.797 147.278C420.495 147.477 420.345 147.734 420.345 148.05C420.345 148.324 420.446 148.544 420.648 148.711C420.851 148.877 421.177 149.014 421.628 149.121L422.928 149.419C423.681 149.593 424.242 149.861 424.611 150.223C424.981 150.586 425.165 151.056 425.165 151.635C425.165 152.125 425.023 152.562 424.739 152.945C424.459 153.325 424.066 153.624 423.562 153.84C423.061 154.057 422.481 154.165 421.82 154.165C420.904 154.165 420.156 153.97 419.578 153.579C418.999 153.185 418.644 152.626 418.512 151.901L420.052 151.667C420.147 152.068 420.345 152.372 420.643 152.578C420.941 152.78 421.33 152.881 421.809 152.881C422.331 152.881 422.749 152.773 423.061 152.556C423.374 152.336 423.53 152.068 423.53 151.752C423.53 151.496 423.434 151.282 423.242 151.108C423.054 150.934 422.765 150.802 422.374 150.713L420.989 150.41C420.226 150.236 419.661 149.959 419.295 149.579C418.933 149.199 418.752 148.718 418.752 148.135C418.752 147.652 418.887 147.23 419.157 146.868C419.427 146.505 419.799 146.223 420.275 146.021C420.751 145.815 421.296 145.712 421.911 145.712C422.795 145.712 423.491 145.903 423.999 146.287C424.506 146.667 424.842 147.176 425.005 147.816ZM430.443 154.165C429.637 154.165 428.942 153.993 428.36 153.648C427.781 153.3 427.334 152.812 427.018 152.184C426.705 151.551 426.549 150.811 426.549 149.962C426.549 149.124 426.705 148.386 427.018 147.746C427.334 147.107 427.774 146.608 428.339 146.25C428.907 145.891 429.571 145.712 430.331 145.712C430.792 145.712 431.24 145.788 431.673 145.941C432.106 146.093 432.495 146.333 432.84 146.66C433.184 146.987 433.456 147.411 433.655 147.933C433.854 148.451 433.953 149.082 433.953 149.824V150.388H427.449V149.195H432.392C432.392 148.776 432.307 148.405 432.137 148.082C431.966 147.755 431.726 147.498 431.417 147.31C431.112 147.121 430.753 147.027 430.341 147.027C429.894 147.027 429.503 147.137 429.17 147.358C428.839 147.574 428.584 147.858 428.403 148.21C428.225 148.558 428.136 148.936 428.136 149.344V150.277C428.136 150.824 428.232 151.289 428.424 151.672C428.619 152.056 428.891 152.349 429.239 152.551C429.587 152.75 429.993 152.849 430.459 152.849C430.76 152.849 431.036 152.807 431.284 152.722C431.533 152.633 431.748 152.501 431.929 152.327C432.11 152.153 432.248 151.939 432.344 151.683L433.852 151.955C433.731 152.398 433.514 152.787 433.202 153.121C432.893 153.451 432.504 153.709 432.035 153.893C431.57 154.075 431.039 154.165 430.443 154.165Z" fill="#8A8D93"/>
</g>
<path d="M382 130.5H447C450.038 130.5 452.5 132.962 452.5 136V162C452.5 165.038 450.038 167.5 447 167.5H382C378.962 167.5 376.5 165.038 376.5 162V136C376.5 132.962 378.962 130.5 382 130.5Z" stroke="#8A8D93"/>
<g filter="url(#filter1_d_8003_3715)">
<g clip-path="url(#clip2_8003_3715)">
<path d="M469 136C469 132.686 471.686 130 475 130H602C605.314 130 608 132.686 608 136V162C608 165.314 605.314 168 602 168H475C471.686 168 469 165.314 469 162V136Z" fill="#8C57FF"/>
<path d="M494.148 145.957C494.092 145.452 493.857 145.062 493.445 144.785C493.033 144.504 492.515 144.364 491.89 144.364C491.442 144.364 491.055 144.435 490.729 144.577C490.402 144.716 490.148 144.907 489.967 145.152C489.789 145.394 489.701 145.669 489.701 145.978C489.701 146.237 489.761 146.461 489.882 146.649C490.006 146.837 490.168 146.995 490.366 147.123C490.569 147.248 490.786 147.352 491.016 147.438C491.247 147.519 491.469 147.587 491.682 147.64L492.748 147.917C493.096 148.002 493.452 148.118 493.818 148.263C494.184 148.409 494.523 148.6 494.836 148.838C495.148 149.076 495.4 149.371 495.592 149.723C495.787 150.074 495.885 150.495 495.885 150.985C495.885 151.603 495.725 152.152 495.406 152.631C495.089 153.11 494.63 153.489 494.026 153.766C493.426 154.043 492.7 154.181 491.847 154.181C491.031 154.181 490.324 154.051 489.727 153.792C489.131 153.533 488.664 153.165 488.326 152.69C487.989 152.21 487.803 151.642 487.767 150.985H489.418C489.45 151.379 489.578 151.708 489.802 151.971C490.029 152.23 490.319 152.423 490.67 152.551C491.025 152.675 491.414 152.738 491.837 152.738C492.302 152.738 492.716 152.665 493.078 152.519C493.444 152.37 493.731 152.164 493.941 151.901C494.15 151.635 494.255 151.324 494.255 150.969C494.255 150.646 494.163 150.381 493.978 150.175C493.797 149.969 493.55 149.799 493.238 149.664C492.929 149.529 492.579 149.41 492.188 149.307L490.899 148.956C490.026 148.718 489.333 148.368 488.822 147.906C488.314 147.445 488.06 146.834 488.06 146.074C488.06 145.445 488.23 144.897 488.571 144.428C488.912 143.959 489.374 143.595 489.956 143.336C490.539 143.073 491.196 142.942 491.927 142.942C492.666 142.942 493.317 143.071 493.882 143.331C494.45 143.59 494.898 143.947 495.224 144.401C495.551 144.852 495.722 145.371 495.736 145.957H494.148ZM500.105 154.181C499.587 154.181 499.118 154.085 498.699 153.893C498.28 153.698 497.948 153.416 497.703 153.047C497.461 152.677 497.34 152.224 497.34 151.688C497.34 151.227 497.429 150.847 497.607 150.548C497.784 150.25 498.024 150.014 498.326 149.84C498.628 149.666 498.965 149.534 499.338 149.446C499.711 149.357 500.091 149.289 500.478 149.243C500.968 149.186 501.366 149.14 501.671 149.105C501.976 149.066 502.198 149.004 502.337 148.918C502.475 148.833 502.545 148.695 502.545 148.503V148.466C502.545 148 502.413 147.64 502.15 147.384C501.891 147.129 501.504 147.001 500.989 147.001C500.453 147.001 500.03 147.12 499.722 147.358C499.416 147.592 499.205 147.853 499.088 148.141L497.591 147.8C497.768 147.303 498.028 146.901 498.369 146.596C498.713 146.287 499.109 146.063 499.556 145.925C500.004 145.783 500.474 145.712 500.968 145.712C501.295 145.712 501.641 145.751 502.007 145.829C502.376 145.903 502.72 146.042 503.04 146.244C503.363 146.447 503.628 146.736 503.834 147.113C504.04 147.485 504.143 147.97 504.143 148.567V154H502.587V152.881H502.523C502.42 153.087 502.266 153.29 502.06 153.489C501.854 153.687 501.589 153.853 501.266 153.984C500.943 154.115 500.556 154.181 500.105 154.181ZM500.451 152.903C500.892 152.903 501.268 152.816 501.581 152.642C501.897 152.468 502.136 152.24 502.3 151.96C502.467 151.676 502.55 151.372 502.55 151.049V149.994C502.493 150.051 502.383 150.104 502.22 150.154C502.06 150.2 501.877 150.241 501.671 150.277C501.465 150.309 501.264 150.339 501.069 150.367C500.874 150.392 500.71 150.413 500.579 150.431C500.27 150.47 499.988 150.536 499.732 150.628C499.48 150.721 499.278 150.854 499.125 151.028C498.976 151.198 498.901 151.425 498.901 151.71C498.901 152.104 499.047 152.402 499.338 152.604C499.629 152.803 500 152.903 500.451 152.903ZM512.97 145.818L510.003 154H508.299L505.327 145.818H507.036L509.108 152.114H509.194L511.26 145.818H512.97ZM517.715 154.165C516.909 154.165 516.215 153.993 515.632 153.648C515.054 153.3 514.606 152.812 514.29 152.184C513.978 151.551 513.821 150.811 513.821 149.962C513.821 149.124 513.978 148.386 514.29 147.746C514.606 147.107 515.046 146.608 515.611 146.25C516.179 145.891 516.843 145.712 517.603 145.712C518.065 145.712 518.512 145.788 518.946 145.941C519.379 146.093 519.768 146.333 520.112 146.66C520.457 146.987 520.728 147.411 520.927 147.933C521.126 148.451 521.225 149.082 521.225 149.824V150.388H514.722V149.195H519.665C519.665 148.776 519.579 148.405 519.409 148.082C519.239 147.755 518.999 147.498 518.69 147.31C518.384 147.121 518.026 147.027 517.614 147.027C517.166 147.027 516.776 147.137 516.442 147.358C516.112 147.574 515.856 147.858 515.675 148.21C515.497 148.558 515.409 148.936 515.409 149.344V150.277C515.409 150.824 515.505 151.289 515.696 151.672C515.892 152.056 516.163 152.349 516.511 152.551C516.859 152.75 517.266 152.849 517.731 152.849C518.033 152.849 518.308 152.807 518.557 152.722C518.805 152.633 519.02 152.501 519.201 152.327C519.382 152.153 519.521 151.939 519.617 151.683L521.124 151.955C521.003 152.398 520.787 152.787 520.474 153.121C520.165 153.451 519.777 153.709 519.308 153.893C518.843 154.075 518.312 154.165 517.715 154.165ZM536.151 146.638H534.489C534.425 146.283 534.306 145.971 534.132 145.701C533.958 145.431 533.745 145.202 533.493 145.014C533.241 144.826 532.958 144.684 532.646 144.588C532.337 144.492 532.008 144.444 531.66 144.444C531.032 144.444 530.469 144.602 529.972 144.918C529.478 145.234 529.088 145.697 528.8 146.308C528.516 146.919 528.374 147.665 528.374 148.545C528.374 149.433 528.516 150.183 528.8 150.793C529.088 151.404 529.48 151.866 529.977 152.178C530.474 152.491 531.034 152.647 531.655 152.647C532 152.647 532.326 152.601 532.635 152.509C532.948 152.413 533.23 152.272 533.482 152.088C533.734 151.903 533.947 151.678 534.121 151.411C534.299 151.141 534.421 150.832 534.489 150.484L536.151 150.49C536.062 151.026 535.89 151.52 535.634 151.971C535.382 152.418 535.057 152.805 534.659 153.132C534.265 153.455 533.814 153.705 533.306 153.883C532.799 154.06 532.245 154.149 531.644 154.149C530.7 154.149 529.858 153.925 529.12 153.478C528.381 153.027 527.799 152.382 527.372 151.544C526.95 150.706 526.739 149.707 526.739 148.545C526.739 147.381 526.952 146.381 527.378 145.547C527.804 144.708 528.386 144.066 529.125 143.618C529.864 143.167 530.703 142.942 531.644 142.942C532.223 142.942 532.763 143.025 533.264 143.192C533.768 143.355 534.221 143.597 534.622 143.917C535.023 144.233 535.355 144.62 535.618 145.078C535.881 145.532 536.059 146.053 536.151 146.638ZM539.585 149.142V154H537.993V143.091H539.564V147.15H539.665C539.857 146.71 540.15 146.36 540.544 146.1C540.938 145.841 541.453 145.712 542.089 145.712C542.65 145.712 543.14 145.827 543.559 146.058C543.982 146.289 544.308 146.633 544.539 147.091C544.773 147.546 544.891 148.114 544.891 148.796V154H543.298V148.988C543.298 148.387 543.143 147.922 542.835 147.592C542.526 147.258 542.096 147.091 541.545 147.091C541.169 147.091 540.832 147.171 540.533 147.331C540.239 147.491 540.006 147.725 539.836 148.034C539.669 148.339 539.585 148.709 539.585 149.142ZM549.397 154.181C548.879 154.181 548.41 154.085 547.991 153.893C547.572 153.698 547.24 153.416 546.995 153.047C546.753 152.677 546.632 152.224 546.632 151.688C546.632 151.227 546.721 150.847 546.899 150.548C547.076 150.25 547.316 150.014 547.618 149.84C547.92 149.666 548.257 149.534 548.63 149.446C549.003 149.357 549.383 149.289 549.77 149.243C550.26 149.186 550.658 149.14 550.963 149.105C551.268 149.066 551.49 149.004 551.629 148.918C551.767 148.833 551.837 148.695 551.837 148.503V148.466C551.837 148 551.705 147.64 551.442 147.384C551.183 147.129 550.796 147.001 550.281 147.001C549.745 147.001 549.322 147.12 549.013 147.358C548.708 147.592 548.497 147.853 548.38 148.141L546.883 147.8C547.06 147.303 547.32 146.901 547.661 146.596C548.005 146.287 548.401 146.063 548.848 145.925C549.296 145.783 549.766 145.712 550.26 145.712C550.587 145.712 550.933 145.751 551.299 145.829C551.668 145.903 552.012 146.042 552.332 146.244C552.655 146.447 552.92 146.736 553.126 147.113C553.332 147.485 553.435 147.97 553.435 148.567V154H551.879V152.881H551.815C551.712 153.087 551.558 153.29 551.352 153.489C551.146 153.687 550.881 153.853 550.558 153.984C550.235 154.115 549.848 154.181 549.397 154.181ZM549.743 152.903C550.184 152.903 550.56 152.816 550.873 152.642C551.189 152.468 551.428 152.24 551.592 151.96C551.759 151.676 551.842 151.372 551.842 151.049V149.994C551.785 150.051 551.675 150.104 551.512 150.154C551.352 150.2 551.169 150.241 550.963 150.277C550.757 150.309 550.556 150.339 550.361 150.367C550.166 150.392 550.002 150.413 549.871 150.431C549.562 150.47 549.28 150.536 549.024 150.628C548.772 150.721 548.57 150.854 548.417 151.028C548.268 151.198 548.193 151.425 548.193 151.71C548.193 152.104 548.339 152.402 548.63 152.604C548.921 152.803 549.292 152.903 549.743 152.903ZM557.149 149.142V154H555.556V145.818H557.085V147.15H557.186C557.374 146.717 557.669 146.369 558.07 146.106C558.475 145.843 558.985 145.712 559.599 145.712C560.157 145.712 560.645 145.829 561.064 146.063C561.483 146.294 561.808 146.638 562.039 147.097C562.269 147.555 562.385 148.121 562.385 148.796V154H560.792V148.988C560.792 148.395 560.638 147.931 560.329 147.597C560.02 147.26 559.595 147.091 559.056 147.091C558.686 147.091 558.358 147.171 558.07 147.331C557.786 147.491 557.561 147.725 557.394 148.034C557.23 148.339 557.149 148.709 557.149 149.142ZM567.951 157.239C567.301 157.239 566.742 157.153 566.273 156.983C565.808 156.813 565.428 156.587 565.133 156.306C564.839 156.026 564.619 155.719 564.473 155.385L565.842 154.82C565.938 154.977 566.066 155.142 566.225 155.316C566.389 155.493 566.609 155.644 566.886 155.768C567.166 155.893 567.527 155.955 567.967 155.955C568.571 155.955 569.07 155.808 569.464 155.513C569.858 155.222 570.055 154.756 570.055 154.117V152.509H569.954C569.858 152.683 569.72 152.876 569.539 153.089C569.361 153.302 569.116 153.487 568.804 153.643C568.491 153.799 568.084 153.877 567.584 153.877C566.937 153.877 566.355 153.727 565.837 153.425C565.322 153.119 564.913 152.67 564.611 152.077C564.313 151.48 564.164 150.747 564.164 149.877C564.164 149.007 564.311 148.261 564.606 147.64C564.904 147.018 565.313 146.543 565.831 146.212C566.35 145.879 566.937 145.712 567.594 145.712C568.102 145.712 568.512 145.797 568.825 145.967C569.137 146.134 569.381 146.33 569.555 146.553C569.732 146.777 569.869 146.974 569.965 147.145H570.082V145.818H571.643V154.181C571.643 154.884 571.479 155.461 571.153 155.912C570.826 156.363 570.384 156.697 569.826 156.914C569.272 157.13 568.647 157.239 567.951 157.239ZM567.935 152.556C568.393 152.556 568.78 152.45 569.097 152.237C569.416 152.02 569.658 151.711 569.821 151.31C569.988 150.905 570.071 150.42 570.071 149.856C570.071 149.305 569.99 148.821 569.826 148.402C569.663 147.983 569.423 147.656 569.107 147.422C568.791 147.184 568.4 147.065 567.935 147.065C567.456 147.065 567.056 147.189 566.737 147.438C566.417 147.683 566.176 148.016 566.012 148.439C565.853 148.862 565.773 149.334 565.773 149.856C565.773 150.392 565.854 150.863 566.018 151.267C566.181 151.672 566.422 151.988 566.742 152.216C567.065 152.443 567.463 152.556 567.935 152.556ZM577.305 154.165C576.499 154.165 575.805 153.993 575.222 153.648C574.643 153.3 574.196 152.812 573.88 152.184C573.567 151.551 573.411 150.811 573.411 149.962C573.411 149.124 573.567 148.386 573.88 147.746C574.196 147.107 574.636 146.608 575.201 146.25C575.769 145.891 576.433 145.712 577.193 145.712C577.655 145.712 578.102 145.788 578.535 145.941C578.969 146.093 579.358 146.333 579.702 146.66C580.046 146.987 580.318 147.411 580.517 147.933C580.716 148.451 580.815 149.082 580.815 149.824V150.388H574.311V149.195H579.255C579.255 148.776 579.169 148.405 578.999 148.082C578.828 147.755 578.589 147.498 578.28 147.31C577.974 147.121 577.616 147.027 577.204 147.027C576.756 147.027 576.366 147.137 576.032 147.358C575.702 147.574 575.446 147.858 575.265 148.21C575.087 148.558 574.998 148.936 574.998 149.344V150.277C574.998 150.824 575.094 151.289 575.286 151.672C575.481 152.056 575.753 152.349 576.101 152.551C576.449 152.75 576.856 152.849 577.321 152.849C577.623 152.849 577.898 152.807 578.147 152.722C578.395 152.633 578.61 152.501 578.791 152.327C578.972 152.153 579.111 151.939 579.207 151.683L580.714 151.955C580.593 152.398 580.377 152.787 580.064 153.121C579.755 153.451 579.366 153.709 578.898 153.893C578.432 154.075 577.902 154.165 577.305 154.165ZM588.713 147.816L587.27 148.071C587.21 147.887 587.114 147.711 586.982 147.544C586.854 147.377 586.68 147.24 586.46 147.134C586.24 147.027 585.965 146.974 585.635 146.974C585.184 146.974 584.807 147.075 584.505 147.278C584.203 147.477 584.053 147.734 584.053 148.05C584.053 148.324 584.154 148.544 584.356 148.711C584.559 148.877 584.885 149.014 585.336 149.121L586.636 149.419C587.389 149.593 587.95 149.861 588.319 150.223C588.689 150.586 588.873 151.056 588.873 151.635C588.873 152.125 588.731 152.562 588.447 152.945C588.167 153.325 587.774 153.624 587.27 153.84C586.769 154.057 586.189 154.165 585.528 154.165C584.612 154.165 583.864 153.97 583.286 153.579C582.707 153.185 582.352 152.626 582.22 151.901L583.76 151.667C583.855 152.068 584.053 152.372 584.351 152.578C584.649 152.78 585.038 152.881 585.517 152.881C586.039 152.881 586.457 152.773 586.769 152.556C587.082 152.336 587.238 152.068 587.238 151.752C587.238 151.496 587.142 151.282 586.95 151.108C586.762 150.934 586.473 150.802 586.082 150.713L584.697 150.41C583.934 150.236 583.369 149.959 583.003 149.579C582.641 149.199 582.46 148.718 582.46 148.135C582.46 147.652 582.595 147.23 582.865 146.868C583.135 146.505 583.507 146.223 583.983 146.021C584.459 145.815 585.004 145.712 585.619 145.712C586.503 145.712 587.199 145.903 587.707 146.287C588.214 146.667 588.55 147.176 588.713 147.816Z" fill="white"/>
</g>
<path d="M475 130.5H602C605.038 130.5 607.5 132.962 607.5 136V162C607.5 165.038 605.038 167.5 602 167.5H475C471.962 167.5 469.5 165.038 469.5 162V136C469.5 132.962 471.962 130.5 475 130.5Z" stroke="#8C57FF"/>
</g>
</g>
</g>
<defs>
<filter id="filter0_d_8003_3715" x="0" y="0" width="656" height="224" filterUnits="userSpaceOnUse" color-interpolation-filters="sRGB">
<feFlood flood-opacity="0" result="BackgroundImageFix"/>
<feColorMatrix in="SourceAlpha" type="matrix" values="0 0 0 0 0 0 0 0 0 0 0 0 0 0 0 0 0 0 127 0" result="hardAlpha"/>
<feOffset dy="8"/>
<feGaussianBlur stdDeviation="14"/>
<feColorMatrix type="matrix" values="0 0 0 0 0.180392 0 0 0 0 0.14902 0 0 0 0 0.239216 0 0 0 0.24 0"/>
<feBlend mode="normal" in2="BackgroundImageFix" result="effect1_dropShadow_8003_3715"/>
<feBlend mode="normal" in="SourceGraphic" in2="effect1_dropShadow_8003_3715" result="shape"/>
</filter>
<filter id="filter1_d_8003_3715" x="465" y="128" width="147" height="46" filterUnits="userSpaceOnUse" color-interpolation-filters="sRGB">
<feFlood flood-opacity="0" result="BackgroundImageFix"/>
<feColorMatrix in="SourceAlpha" type="matrix" values="0 0 0 0 0 0 0 0 0 0 0 0 0 0 0 0 0 0 127 0" result="hardAlpha"/>
<feOffset dy="2"/>
<feGaussianBlur stdDeviation="2"/>
<feColorMatrix type="matrix" values="0 0 0 0 0.180392 0 0 0 0 0.14902 0 0 0 0 0.239216 0 0 0 0.16 0"/>
<feBlend mode="normal" in2="BackgroundImageFix" result="effect1_dropShadow_8003_3715"/>
<feBlend mode="normal" in="SourceGraphic" in2="effect1_dropShadow_8003_3715" result="shape"/>
</filter>
<clipPath id="clip0_8003_3715">
<path d="M28 26C28 22.6863 30.6863 20 34 20H622C625.314 20 628 22.6863 628 26V182C628 185.314 625.314 188 622 188H34C30.6863 188 28 185.314 28 182V26Z" fill="white"/>
</clipPath>
<clipPath id="clip1_8003_3715">
<path d="M376 136C376 132.686 378.686 130 382 130H447C450.314 130 453 132.686 453 136V162C453 165.314 450.314 168 447 168H382C378.686 168 376 165.314 376 162V136Z" fill="white"/>
</clipPath>
<clipPath id="clip2_8003_3715">
<path d="M469 136C469 132.686 471.686 130 475 130H602C605.314 130 608 132.686 608 136V162C608 165.314 605.314 168 602 168H475C471.686 168 469 165.314 469 162V136Z" fill="white"/>
</clipPath>
</defs>
</svg>
