<svg width="1180" height="54" viewBox="0 0 1180 54" fill="none" xmlns="http://www.w3.org/2000/svg">
<rect width="1180" height="54" fill="#F4F5FA"/>
<path d="M27.75 26.5455C27.75 25.9631 27.892 25.4322 28.1761 24.9528C28.4602 24.4734 28.842 24.0916 29.3214 23.8075C29.8008 23.5234 30.3317 23.3814 30.9141 23.3814C31.4183 23.3814 31.8835 23.4897 32.3097 23.7063C32.7393 23.9229 33.0945 24.2195 33.375 24.5959C33.6555 24.9687 33.8295 25.3913 33.897 25.8636H32.608C32.5369 25.4979 32.3398 25.1996 32.0167 24.9688C31.6935 24.7344 31.326 24.6172 30.9141 24.6172C30.5589 24.6172 30.2358 24.7042 29.9446 24.8782C29.6534 25.0522 29.4208 25.2848 29.2468 25.576C29.0728 25.8672 28.9858 26.1903 28.9858 26.5455C28.9858 26.9006 29.0728 27.2237 29.2468 27.5149C29.4208 27.8061 29.6534 28.0387 29.9446 28.2127C30.2358 28.3867 30.5589 28.4737 30.9141 28.4737C31.326 28.4737 31.674 28.3583 31.9581 28.1275C32.2457 27.8931 32.4268 27.593 32.5014 27.2273H33.7905C33.723 27.6996 33.5579 28.1239 33.2951 28.5004C33.0323 28.8732 32.695 29.168 32.283 29.3846C31.8746 29.6012 31.4183 29.7095 30.9141 29.7095C30.3317 29.7095 29.8008 29.5675 29.3214 29.2834C28.842 28.9993 28.4602 28.6175 28.1761 28.1381C27.892 27.6587 27.75 27.1278 27.75 26.5455ZM30.8608 32.1705C30.0866 32.1705 29.3587 32.0249 28.6768 31.7337C27.9986 31.4425 27.4002 31.0394 26.8817 30.5245C26.3668 30.006 25.962 29.4077 25.6673 28.7294C25.3761 28.0511 25.2322 27.3232 25.2358 26.5455C25.2393 25.7678 25.3867 25.0398 25.6779 24.3615C25.9727 23.6832 26.3775 23.0866 26.8924 22.5717C27.4073 22.0533 28.0039 21.6484 28.6822 21.3572C29.3604 21.0661 30.0866 20.9205 30.8608 20.9205C31.6385 20.9205 32.3665 21.0661 33.0447 21.3572C33.7266 21.6484 34.3232 22.0533 34.8345 22.5717C35.3494 23.0866 35.7525 23.6832 36.0437 24.3615C36.3349 25.0398 36.4822 25.7678 36.4858 26.5455C36.4893 27.3232 36.3455 28.0511 36.0543 28.7294C35.7631 29.4077 35.3601 30.006 34.8452 30.5245C34.3303 31.0394 33.7319 31.4425 33.0501 31.7337C32.3683 32.0249 31.6385 32.1705 30.8608 32.1705ZM30.8608 30.9347C31.468 30.9347 32.038 30.821 32.5707 30.5938C33.1033 30.3665 33.5703 30.0522 33.9716 29.6509C34.3729 29.2496 34.6871 28.7844 34.9144 28.2553C35.1417 27.7227 35.2536 27.1545 35.25 26.5508C35.2464 25.9435 35.131 25.3736 34.9038 24.8409C34.6765 24.3082 34.3622 23.8413 33.9609 23.44C33.5597 23.0387 33.0945 22.7244 32.5653 22.4972C32.0362 22.2699 31.468 22.1562 30.8608 22.1562C30.2571 22.1562 29.6907 22.2699 29.1616 22.4972C28.6325 22.7244 28.1673 23.0405 27.766 23.4453C27.3647 23.8466 27.0487 24.3136 26.8178 24.8462C26.5906 25.3754 26.4751 25.9435 26.4716 26.5508C26.468 27.1509 26.5799 27.7173 26.8072 28.25C27.0344 28.7791 27.3487 29.2443 27.75 29.6456C28.1548 30.0469 28.6218 30.3629 29.1509 30.5938C29.6836 30.821 30.2536 30.9347 30.8608 30.9347ZM43.0736 32V31.0412L46.6744 27.0994C47.097 26.6378 47.445 26.2365 47.7185 25.8956C47.9919 25.5511 48.1943 25.228 48.3257 24.9261C48.4607 24.6207 48.5281 24.3011 48.5281 23.9673C48.5281 23.5838 48.4358 23.2518 48.2512 22.9712C48.07 22.6907 47.8215 22.4741 47.5054 22.3214C47.1894 22.1687 46.8343 22.0923 46.4401 22.0923C46.021 22.0923 45.6553 22.1793 45.3428 22.3533C45.0338 22.5238 44.7941 22.7635 44.6237 23.0724C44.4568 23.3814 44.3733 23.7436 44.3733 24.1591H43.1162C43.1162 23.5199 43.2636 22.9588 43.5583 22.4759C43.8531 21.9929 44.2544 21.6165 44.7622 21.3466C45.2735 21.0767 45.847 20.9418 46.4827 20.9418C47.1219 20.9418 47.6883 21.0767 48.1819 21.3466C48.6755 21.6165 49.0626 21.9805 49.3431 22.4386C49.6237 22.8967 49.7639 23.4062 49.7639 23.9673C49.7639 24.3686 49.6911 24.761 49.5455 25.1445C49.4035 25.5245 49.1549 25.9489 48.7998 26.4176C48.4482 26.8828 47.96 27.451 47.335 28.1222L44.8847 30.7429V30.8281H49.9557V32H43.0736ZM55.7139 32.1491C54.9113 32.1491 54.2277 31.9308 53.6631 31.494C53.0985 31.0536 52.667 30.4162 52.3687 29.5817C52.0704 28.7436 51.9213 27.7315 51.9213 26.5455C51.9213 25.3665 52.0704 24.3597 52.3687 23.5252C52.6705 22.6871 53.1038 22.0479 53.6684 21.6076C54.2366 21.1637 54.9184 20.9418 55.7139 20.9418C56.5093 20.9418 57.1894 21.1637 57.754 21.6076C58.3222 22.0479 58.7554 22.6871 59.0537 23.5252C59.3556 24.3597 59.5065 25.3665 59.5065 26.5455C59.5065 27.7315 59.3573 28.7436 59.059 29.5817C58.7607 30.4162 58.3293 31.0536 57.7646 31.494C57.2 31.9308 56.5164 32.1491 55.7139 32.1491ZM55.7139 30.9773C56.5093 30.9773 57.1272 30.5937 57.5676 29.8267C58.0079 29.0597 58.2281 27.9659 58.2281 26.5455C58.2281 25.6009 58.1269 24.7965 57.9244 24.1325C57.7256 23.4684 57.4379 22.9624 57.0615 22.6143C56.6887 22.2663 56.2394 22.0923 55.7139 22.0923C54.9255 22.0923 54.3094 22.4812 53.8655 23.2589C53.4216 24.033 53.1997 25.1286 53.1997 26.5455C53.1997 27.4901 53.2991 28.2926 53.498 28.9531C53.6968 29.6136 53.9827 30.1161 54.3556 30.4606C54.732 30.805 55.1847 30.9773 55.7139 30.9773ZM61.5306 32V31.0412L65.1315 27.0994C65.5541 26.6378 65.9021 26.2365 66.1755 25.8956C66.449 25.5511 66.6514 25.228 66.7828 24.9261C66.9177 24.6207 66.9852 24.3011 66.9852 23.9673C66.9852 23.5838 66.8928 23.2518 66.7082 22.9712C66.5271 22.6907 66.2785 22.4741 65.9624 22.3214C65.6464 22.1687 65.2913 22.0923 64.8971 22.0923C64.4781 22.0923 64.1123 22.1793 63.7998 22.3533C63.4909 22.5238 63.2512 22.7635 63.0807 23.0724C62.9138 23.3814 62.8303 23.7436 62.8303 24.1591H61.5732C61.5732 23.5199 61.7206 22.9588 62.0154 22.4759C62.3101 21.9929 62.7114 21.6165 63.2192 21.3466C63.7306 21.0767 64.3041 20.9418 64.9397 20.9418C65.5789 20.9418 66.1453 21.0767 66.6389 21.3466C67.1325 21.6165 67.5196 21.9805 67.8002 22.4386C68.0807 22.8967 68.221 23.4062 68.221 23.9673C68.221 24.3686 68.1482 24.761 68.0026 25.1445C67.8605 25.5245 67.6119 25.9489 67.2568 26.4176C66.9053 26.8828 66.417 27.451 65.792 28.1222L63.3417 30.7429V30.8281H68.4127V32H61.5306ZM70.1226 29.7628V28.6761L74.9166 21.0909H75.705V22.7741H75.1723L71.5502 28.5057V28.5909H78.0061V29.7628H70.1226ZM75.2575 32V29.4325V28.9265V21.0909H76.5146V32H75.2575ZM81.3859 30.5085L81.3007 31.0838C81.2403 31.4886 81.148 31.9219 81.0237 32.3835C80.903 32.8452 80.7769 33.2802 80.6455 33.6886C80.5141 34.0969 80.4058 34.4219 80.3206 34.6634H79.3618C79.4079 34.4361 79.4683 34.136 79.5429 33.7631C79.6175 33.3903 79.692 32.973 79.7666 32.5114C79.8447 32.0533 79.9086 31.5845 79.9584 31.1051L80.0223 30.5085H81.3859ZM88.1042 21.0909H89.6809L93.3883 30.1463H93.5162L97.2235 21.0909H98.8002V32H97.5645V23.7116H97.4579L94.0488 32H92.8556L89.4466 23.7116H89.34V32H88.1042V21.0909ZM103.686 32.1918C103.168 32.1918 102.697 32.0941 102.275 31.8988C101.852 31.6999 101.516 31.4141 101.268 31.0412C101.019 30.6648 100.895 30.2102 100.895 29.6776C100.895 29.2088 100.987 28.8288 101.172 28.5376C101.357 28.2429 101.603 28.0121 101.912 27.8452C102.221 27.6783 102.562 27.554 102.935 27.4723C103.312 27.3871 103.69 27.3196 104.07 27.2699C104.567 27.206 104.97 27.158 105.279 27.1261C105.591 27.0906 105.819 27.032 105.961 26.9503C106.106 26.8686 106.179 26.7266 106.179 26.5241V26.4815C106.179 25.956 106.035 25.5476 105.748 25.2564C105.464 24.9652 105.032 24.8196 104.453 24.8196C103.853 24.8196 103.383 24.951 103.042 25.2138C102.701 25.4766 102.461 25.7571 102.323 26.0554L101.129 25.6293C101.342 25.1321 101.627 24.745 101.982 24.468C102.34 24.1875 102.731 23.9922 103.153 23.8821C103.58 23.7685 103.999 23.7116 104.411 23.7116C104.673 23.7116 104.975 23.7436 105.316 23.8075C105.661 23.8679 105.993 23.994 106.312 24.1857C106.635 24.3775 106.903 24.6669 107.117 25.054C107.33 25.4411 107.436 25.9595 107.436 26.6094V32H106.179V30.892H106.115C106.03 31.0696 105.888 31.2596 105.689 31.462C105.49 31.6644 105.226 31.8366 104.895 31.9787C104.565 32.1207 104.162 32.1918 103.686 32.1918ZM103.878 31.0625C104.375 31.0625 104.794 30.9648 105.135 30.7695C105.479 30.5742 105.739 30.3221 105.913 30.0131C106.09 29.7042 106.179 29.3793 106.179 29.0384V27.8878C106.126 27.9517 106.009 28.0103 105.828 28.0636C105.65 28.1133 105.444 28.1577 105.21 28.1967C104.979 28.2322 104.753 28.2642 104.533 28.2926C104.316 28.3175 104.141 28.3388 104.006 28.3565C103.679 28.3991 103.374 28.4684 103.09 28.5643C102.809 28.6566 102.582 28.7969 102.408 28.9851C102.237 29.1697 102.152 29.4219 102.152 29.7415C102.152 30.1783 102.314 30.5085 102.637 30.7322C102.964 30.9524 103.377 31.0625 103.878 31.0625ZM112.82 32.1705C112.138 32.1705 111.536 31.9982 111.014 31.6538C110.492 31.3058 110.084 30.8157 109.789 30.1836C109.494 29.5479 109.347 28.7969 109.347 27.9304C109.347 27.071 109.494 26.3253 109.789 25.6932C110.084 25.0611 110.494 24.5728 111.02 24.2283C111.545 23.8839 112.153 23.7116 112.841 23.7116C113.374 23.7116 113.795 23.8004 114.104 23.978C114.416 24.152 114.654 24.3509 114.818 24.5746C114.985 24.7947 115.114 24.9759 115.206 25.1179H115.313V21.0909H116.57V32H115.356V30.7429H115.206C115.114 30.892 114.983 31.0803 114.812 31.3075C114.642 31.5312 114.399 31.7319 114.083 31.9094C113.767 32.0835 113.346 32.1705 112.82 32.1705ZM112.991 31.0412C113.495 31.0412 113.921 30.9098 114.269 30.647C114.617 30.3807 114.882 30.0131 115.063 29.5444C115.244 29.0721 115.334 28.527 115.334 27.9091C115.334 27.2983 115.246 26.7638 115.068 26.3058C114.89 25.8441 114.628 25.4854 114.28 25.2298C113.932 24.9705 113.502 24.8409 112.991 24.8409C112.458 24.8409 112.014 24.9776 111.659 25.2511C111.307 25.521 111.043 25.8885 110.865 26.3537C110.691 26.8153 110.604 27.3338 110.604 27.9091C110.604 28.4915 110.693 29.0206 110.871 29.4964C111.052 29.9687 111.318 30.3452 111.67 30.6257C112.025 30.9027 112.465 31.0412 112.991 31.0412ZM122.477 32.1705C121.689 32.1705 121.009 31.9964 120.437 31.6484C119.869 31.2969 119.431 30.8068 119.122 30.1783C118.816 29.5462 118.664 28.8111 118.664 27.973C118.664 27.1349 118.816 26.3963 119.122 25.7571C119.431 25.1143 119.86 24.6136 120.411 24.255C120.965 23.8928 121.611 23.7116 122.35 23.7116C122.776 23.7116 123.197 23.7827 123.612 23.9247C124.028 24.0668 124.406 24.2976 124.747 24.6172C125.088 24.9332 125.359 25.3523 125.562 25.8743C125.764 26.3963 125.865 27.0391 125.865 27.8026V28.3352H119.558V27.2486H124.587C124.587 26.7869 124.494 26.375 124.31 26.0128C124.129 25.6506 123.869 25.3647 123.532 25.1552C123.198 24.9457 122.804 24.8409 122.35 24.8409C121.849 24.8409 121.416 24.9652 121.05 25.2138C120.688 25.4588 120.409 25.7784 120.214 26.1726C120.018 26.5668 119.921 26.9893 119.921 27.4403V28.1648C119.921 28.7827 120.027 29.3065 120.24 29.7362C120.457 30.1623 120.757 30.4872 121.14 30.7109C121.524 30.9311 121.97 31.0412 122.477 31.0412C122.808 31.0412 123.106 30.995 123.372 30.9027C123.642 30.8068 123.875 30.6648 124.07 30.4766C124.265 30.2848 124.416 30.0469 124.523 29.7628L125.737 30.1037C125.61 30.5156 125.395 30.8778 125.093 31.1903C124.791 31.4993 124.418 31.7408 123.974 31.9148C123.53 32.0852 123.031 32.1705 122.477 32.1705ZM133.85 32L131.357 23.8182H132.678L134.447 30.0824H134.532L136.279 23.8182H137.621L139.347 30.0611H139.432L141.201 23.8182H142.522L140.029 32H138.793L137.003 25.7145H136.876L135.086 32H133.85ZM144.184 32V23.8182H145.441V32H144.184ZM144.823 22.4545C144.578 22.4545 144.367 22.3711 144.189 22.2042C144.015 22.0373 143.928 21.8366 143.928 21.6023C143.928 21.3679 144.015 21.1673 144.189 21.0004C144.367 20.8335 144.578 20.75 144.823 20.75C145.068 20.75 145.278 20.8335 145.452 21.0004C145.629 21.1673 145.718 21.3679 145.718 21.6023C145.718 21.8366 145.629 22.0373 145.452 22.2042C145.278 22.3711 145.068 22.4545 144.823 22.4545ZM151.302 23.8182V24.8835H147.062V23.8182H151.302ZM148.297 21.858H149.554V29.6562C149.554 30.0114 149.606 30.2777 149.709 30.4553C149.815 30.6293 149.95 30.7464 150.114 30.8068C150.281 30.8636 150.456 30.892 150.641 30.892C150.78 30.892 150.893 30.8849 150.982 30.8707C151.071 30.853 151.142 30.8388 151.195 30.8281L151.451 31.9574C151.366 31.9893 151.247 32.0213 151.094 32.0533C150.941 32.0888 150.748 32.1065 150.513 32.1065C150.158 32.1065 149.81 32.0302 149.469 31.8775C149.132 31.7248 148.851 31.4922 148.628 31.1797C148.407 30.8672 148.297 30.473 148.297 29.9972V21.858ZM154.625 27.0781V32H153.368V21.0909H154.625V25.0966H154.732C154.924 24.674 155.211 24.3384 155.595 24.0898C155.982 23.8377 156.497 23.7116 157.14 23.7116C157.697 23.7116 158.185 23.8235 158.604 24.0472C159.024 24.2674 159.348 24.6065 159.579 25.0646C159.814 25.5192 159.931 26.098 159.931 26.8011V32H158.674V26.8864C158.674 26.2365 158.505 25.734 158.168 25.3789C157.834 25.0202 157.37 24.8409 156.777 24.8409C156.366 24.8409 155.996 24.9279 155.669 25.1019C155.346 25.2759 155.091 25.5298 154.902 25.8636C154.718 26.1974 154.625 26.6023 154.625 27.0781ZM186.176 32V21.0909H187.433V25.1179H187.539C187.631 24.9759 187.759 24.7947 187.923 24.5746C188.09 24.3509 188.328 24.152 188.636 23.978C188.949 23.8004 189.372 23.7116 189.904 23.7116C190.593 23.7116 191.2 23.8839 191.726 24.2283C192.252 24.5728 192.662 25.0611 192.956 25.6932C193.251 26.3253 193.399 27.071 193.399 27.9304C193.399 28.7969 193.251 29.5479 192.956 30.1836C192.662 30.8157 192.253 31.3058 191.731 31.6538C191.209 31.9982 190.607 32.1705 189.926 32.1705C189.4 32.1705 188.979 32.0835 188.663 31.9094C188.347 31.7319 188.104 31.5312 187.933 31.3075C187.763 31.0803 187.631 30.892 187.539 30.7429H187.39V32H186.176ZM187.411 27.9091C187.411 28.527 187.502 29.0721 187.683 29.5444C187.864 30.0131 188.129 30.3807 188.477 30.647C188.825 30.9098 189.251 31.0412 189.755 31.0412C190.281 31.0412 190.719 30.9027 191.071 30.6257C191.426 30.3452 191.692 29.9687 191.87 29.4964C192.051 29.0206 192.141 28.4915 192.141 27.9091C192.141 27.3338 192.053 26.8153 191.875 26.3537C191.701 25.8885 191.437 25.521 191.081 25.2511C190.73 24.9776 190.288 24.8409 189.755 24.8409C189.244 24.8409 188.814 24.9705 188.466 25.2298C188.118 25.4854 187.855 25.8441 187.678 26.3058C187.5 26.7638 187.411 27.2983 187.411 27.9091ZM195.838 35.0682C195.625 35.0682 195.435 35.0504 195.268 35.0149C195.101 34.983 194.986 34.951 194.922 34.919L195.242 33.8111C195.547 33.8892 195.817 33.9176 196.051 33.8963C196.286 33.875 196.493 33.7702 196.674 33.582C196.859 33.3974 197.028 33.0973 197.18 32.6818L197.415 32.0426L194.389 23.8182H195.753L198.011 30.3381H198.097L200.355 23.8182H201.719L198.246 33.1932C198.09 33.6158 197.896 33.9656 197.665 34.2425C197.434 34.5231 197.166 34.7308 196.861 34.8658C196.559 35.0007 196.218 35.0682 195.838 35.0682Z" fill="#2E263D" fill-opacity="0.7"/>
<path d="M172.969 32.1705L167.493 26.6946C167.057 26.2578 166.765 25.75 166.62 25.1712C166.478 24.5923 166.48 24.017 166.625 23.4453C166.771 22.87 167.06 22.3693 167.493 21.9432C167.937 21.5064 168.443 21.217 169.012 21.0749C169.583 20.9293 170.153 20.9293 170.721 21.0749C171.293 21.2205 171.801 21.5099 172.245 21.9432L172.969 22.6463L173.694 21.9432C174.141 21.5099 174.649 21.2205 175.217 21.0749C175.785 20.9293 176.354 20.9293 176.922 21.0749C177.493 21.217 178.001 21.5064 178.445 21.9432C178.878 22.3693 179.168 22.87 179.313 23.4453C179.459 24.017 179.459 24.5923 179.313 25.1712C179.171 25.75 178.882 26.2578 178.445 26.6946L172.969 32.1705Z" fill="#FF4C51"/>
<path d="M207.171 22.2628V21.0909H215.353V22.2628H211.922V32H210.601V22.2628H207.171ZM218.478 27.0781V32H217.221V21.0909H218.478V25.0966H218.585C218.776 24.674 219.064 24.3384 219.447 24.0898C219.835 23.8377 220.349 23.7116 220.992 23.7116C221.55 23.7116 222.038 23.8235 222.457 24.0472C222.876 24.2674 223.201 24.6065 223.432 25.0646C223.666 25.5192 223.783 26.098 223.783 26.8011V32H222.526V26.8864C222.526 26.2365 222.358 25.734 222.02 25.3789C221.686 25.0202 221.223 24.8409 220.63 24.8409C220.218 24.8409 219.849 24.9279 219.522 25.1019C219.199 25.2759 218.943 25.5298 218.755 25.8636C218.57 26.1974 218.478 26.6023 218.478 27.0781ZM229.514 32.1705C228.725 32.1705 228.045 31.9964 227.473 31.6484C226.905 31.2969 226.467 30.8068 226.158 30.1783C225.852 29.5462 225.7 28.8111 225.7 27.973C225.7 27.1349 225.852 26.3963 226.158 25.7571C226.467 25.1143 226.896 24.6136 227.447 24.255C228.001 23.8928 228.647 23.7116 229.386 23.7116C229.812 23.7116 230.233 23.7827 230.648 23.9247C231.064 24.0668 231.442 24.2976 231.783 24.6172C232.124 24.9332 232.395 25.3523 232.598 25.8743C232.8 26.3963 232.901 27.0391 232.901 27.8026V28.3352H226.595V27.2486H231.623C231.623 26.7869 231.531 26.375 231.346 26.0128C231.165 25.6506 230.906 25.3647 230.568 25.1552C230.234 24.9457 229.84 24.8409 229.386 24.8409C228.885 24.8409 228.452 24.9652 228.086 25.2138C227.724 25.4588 227.445 25.7784 227.25 26.1726C227.054 26.5668 226.957 26.9893 226.957 27.4403V28.1648C226.957 28.7827 227.063 29.3065 227.276 29.7362C227.493 30.1623 227.793 30.4872 228.177 30.7109C228.56 30.9311 229.006 31.0412 229.514 31.0412C229.844 31.0412 230.142 30.995 230.408 30.9027C230.678 30.8068 230.911 30.6648 231.106 30.4766C231.302 30.2848 231.453 30.0469 231.559 29.7628L232.774 30.1037C232.646 30.5156 232.431 30.8778 232.129 31.1903C231.827 31.4993 231.454 31.7408 231.01 31.9148C230.566 32.0852 230.068 32.1705 229.514 32.1705ZM234.814 32V23.8182H236.028V25.0966H236.135C236.305 24.6598 236.58 24.3207 236.96 24.0792C237.34 23.8342 237.797 23.7116 238.329 23.7116C238.869 23.7116 239.318 23.8342 239.677 24.0792C240.039 24.3207 240.321 24.6598 240.524 25.0966H240.609C240.819 24.674 241.133 24.3384 241.552 24.0898C241.971 23.8377 242.473 23.7116 243.059 23.7116C243.791 23.7116 244.389 23.9407 244.854 24.3988C245.32 24.8533 245.552 25.5618 245.552 26.5241V32H244.295V26.5241C244.295 25.9205 244.13 25.489 243.8 25.2298C243.47 24.9705 243.081 24.8409 242.633 24.8409C242.058 24.8409 241.612 25.0149 241.296 25.3629C240.98 25.7074 240.822 26.1442 240.822 26.6733V32H239.544V26.3963C239.544 25.9311 239.393 25.5565 239.091 25.2724C238.789 24.9847 238.4 24.8409 237.924 24.8409C237.598 24.8409 237.292 24.9279 237.008 25.1019C236.728 25.2759 236.5 25.5174 236.326 25.8263C236.156 26.1317 236.071 26.4851 236.071 26.8864V32H234.814ZM251.281 32.1705C250.493 32.1705 249.813 31.9964 249.241 31.6484C248.673 31.2969 248.234 30.8068 247.925 30.1783C247.62 29.5462 247.467 28.8111 247.467 27.973C247.467 27.1349 247.62 26.3963 247.925 25.7571C248.234 25.1143 248.664 24.6136 249.214 24.255C249.768 23.8928 250.415 23.7116 251.153 23.7116C251.579 23.7116 252 23.7827 252.416 23.9247C252.831 24.0668 253.209 24.2976 253.55 24.6172C253.891 24.9332 254.163 25.3523 254.365 25.8743C254.568 26.3963 254.669 27.0391 254.669 27.8026V28.3352H248.362V27.2486H253.391C253.391 26.7869 253.298 26.375 253.114 26.0128C252.932 25.6506 252.673 25.3647 252.336 25.1552C252.002 24.9457 251.608 24.8409 251.153 24.8409C250.653 24.8409 250.219 24.9652 249.854 25.2138C249.491 25.4588 249.213 25.7784 249.017 26.1726C248.822 26.5668 248.724 26.9893 248.724 27.4403V28.1648C248.724 28.7827 248.831 29.3065 249.044 29.7362C249.261 30.1623 249.561 30.4872 249.944 30.7109C250.328 30.9311 250.773 31.0412 251.281 31.0412C251.611 31.0412 251.91 30.995 252.176 30.9027C252.446 30.8068 252.679 30.6648 252.874 30.4766C253.069 30.2848 253.22 30.0469 253.327 29.7628L254.541 30.1037C254.413 30.5156 254.198 30.8778 253.897 31.1903C253.595 31.4993 253.222 31.7408 252.778 31.9148C252.334 32.0852 251.835 32.1705 251.281 32.1705ZM262.718 23.8182C262.654 23.2784 262.394 22.8594 261.94 22.5611C261.485 22.2628 260.928 22.1136 260.267 22.1136C259.784 22.1136 259.362 22.1918 259 22.348C258.641 22.5043 258.36 22.7191 258.158 22.9925C257.959 23.266 257.86 23.5767 257.86 23.9247C257.86 24.2159 257.929 24.4663 258.067 24.6758C258.209 24.8817 258.391 25.054 258.611 25.1925C258.831 25.3274 259.062 25.4393 259.303 25.5281C259.545 25.6133 259.767 25.6825 259.969 25.7358L261.077 26.0341C261.361 26.1087 261.677 26.2116 262.025 26.343C262.377 26.4744 262.712 26.6538 263.032 26.881C263.355 27.1048 263.621 27.3924 263.831 27.744C264.04 28.0955 264.145 28.527 264.145 29.0384C264.145 29.6278 263.991 30.1605 263.682 30.6364C263.376 31.1122 262.929 31.4904 262.339 31.771C261.753 32.0515 261.041 32.1918 260.203 32.1918C259.422 32.1918 258.746 32.0657 258.174 31.8136C257.606 31.5614 257.158 31.2099 256.832 30.7589C256.508 30.3079 256.326 29.7841 256.283 29.1875H257.647C257.682 29.5994 257.821 29.9403 258.062 30.2102C258.307 30.4766 258.616 30.6754 258.989 30.8068C259.365 30.9347 259.77 30.9986 260.203 30.9986C260.708 30.9986 261.16 30.9169 261.562 30.7536C261.963 30.5866 262.281 30.3558 262.515 30.0611C262.75 29.7628 262.867 29.4148 262.867 29.017C262.867 28.6548 262.766 28.3601 262.563 28.1328C262.361 27.9055 262.094 27.7209 261.764 27.5788C261.434 27.4368 261.077 27.3125 260.693 27.206L259.351 26.8224C258.499 26.5774 257.824 26.2276 257.327 25.7731C256.83 25.3185 256.581 24.7237 256.581 23.9886C256.581 23.3778 256.746 22.8452 257.077 22.3906C257.41 21.9325 257.858 21.5774 258.419 21.3253C258.984 21.0696 259.614 20.9418 260.31 20.9418C261.013 20.9418 261.638 21.0678 262.185 21.32C262.732 21.5685 263.165 21.9094 263.485 22.3427C263.808 22.7759 263.978 23.2678 263.996 23.8182H262.718ZM269.577 32.1705C268.789 32.1705 268.109 31.9964 267.537 31.6484C266.969 31.2969 266.53 30.8068 266.221 30.1783C265.916 29.5462 265.763 28.8111 265.763 27.973C265.763 27.1349 265.916 26.3963 266.221 25.7571C266.53 25.1143 266.96 24.6136 267.51 24.255C268.064 23.8928 268.711 23.7116 269.449 23.7116C269.875 23.7116 270.296 23.7827 270.712 23.9247C271.127 24.0668 271.505 24.2976 271.846 24.6172C272.187 24.9332 272.459 25.3523 272.661 25.8743C272.864 26.3963 272.965 27.0391 272.965 27.8026V28.3352H266.658V27.2486H271.686C271.686 26.7869 271.594 26.375 271.409 26.0128C271.228 25.6506 270.969 25.3647 270.632 25.1552C270.298 24.9457 269.904 24.8409 269.449 24.8409C268.949 24.8409 268.515 24.9652 268.15 25.2138C267.787 25.4588 267.509 25.7784 267.313 26.1726C267.118 26.5668 267.02 26.9893 267.02 27.4403V28.1648C267.02 28.7827 267.127 29.3065 267.34 29.7362C267.556 30.1623 267.857 30.4872 268.24 30.7109C268.624 30.9311 269.069 31.0412 269.577 31.0412C269.907 31.0412 270.206 30.995 270.472 30.9027C270.742 30.8068 270.974 30.6648 271.17 30.4766C271.365 30.2848 271.516 30.0469 271.623 29.7628L272.837 30.1037C272.709 30.5156 272.494 30.8778 272.192 31.1903C271.891 31.4993 271.518 31.7408 271.074 31.9148C270.63 32.0852 270.131 32.1705 269.577 32.1705ZM276.134 21.0909V32H274.877V21.0909H276.134ZM281.867 32.1705C281.079 32.1705 280.399 31.9964 279.827 31.6484C279.259 31.2969 278.82 30.8068 278.511 30.1783C278.206 29.5462 278.053 28.8111 278.053 27.973C278.053 27.1349 278.206 26.3963 278.511 25.7571C278.82 25.1143 279.25 24.6136 279.8 24.255C280.354 23.8928 281.001 23.7116 281.739 23.7116C282.165 23.7116 282.586 23.7827 283.002 23.9247C283.417 24.0668 283.795 24.2976 284.136 24.6172C284.477 24.9332 284.749 25.3523 284.951 25.8743C285.154 26.3963 285.255 27.0391 285.255 27.8026V28.3352H278.948V27.2486H283.976C283.976 26.7869 283.884 26.375 283.699 26.0128C283.518 25.6506 283.259 25.3647 282.922 25.1552C282.588 24.9457 282.194 24.8409 281.739 24.8409C281.239 24.8409 280.805 24.9652 280.44 25.2138C280.077 25.4588 279.799 25.7784 279.603 26.1726C279.408 26.5668 279.31 26.9893 279.31 27.4403V28.1648C279.31 28.7827 279.417 29.3065 279.63 29.7362C279.847 30.1623 280.147 30.4872 280.53 30.7109C280.914 30.9311 281.359 31.0412 281.867 31.0412C282.197 31.0412 282.496 30.995 282.762 30.9027C283.032 30.8068 283.264 30.6648 283.46 30.4766C283.655 30.2848 283.806 30.0469 283.913 29.7628L285.127 30.1037C284.999 30.5156 284.784 30.8778 284.483 31.1903C284.181 31.4993 283.808 31.7408 283.364 31.9148C282.92 32.0852 282.421 32.1705 281.867 32.1705ZM290.491 32.1705C289.724 32.1705 289.063 31.9893 288.509 31.6271C287.956 31.2649 287.529 30.766 287.231 30.1303C286.933 29.4947 286.784 28.7685 286.784 27.9517C286.784 27.1207 286.936 26.3874 287.242 25.7518C287.551 25.1126 287.98 24.6136 288.531 24.255C289.085 23.8928 289.731 23.7116 290.47 23.7116C291.045 23.7116 291.563 23.8182 292.025 24.0312C292.487 24.2443 292.865 24.5426 293.16 24.9261C293.454 25.3097 293.637 25.7571 293.708 26.2685H292.451C292.355 25.8956 292.142 25.5653 291.812 25.2777C291.485 24.9865 291.045 24.8409 290.491 24.8409C290.001 24.8409 289.571 24.9687 289.202 25.2244C288.836 25.4766 288.55 25.8335 288.344 26.2951C288.142 26.7532 288.041 27.2912 288.041 27.9091C288.041 28.5412 288.14 29.0916 288.339 29.5604C288.541 30.0291 288.826 30.3931 289.191 30.6523C289.561 30.9116 289.994 31.0412 290.491 31.0412C290.818 31.0412 291.114 30.9844 291.381 30.8707C291.647 30.7571 291.872 30.5938 292.057 30.3807C292.242 30.1676 292.373 29.9119 292.451 29.6136H293.708C293.637 30.0966 293.462 30.5316 293.181 30.9187C292.904 31.3022 292.536 31.6076 292.078 31.8349C291.624 32.0586 291.095 32.1705 290.491 32.1705ZM299.104 23.8182V24.8835H294.864V23.8182H299.104ZM296.1 21.858H297.357V29.6562C297.357 30.0114 297.409 30.2777 297.512 30.4553C297.618 30.6293 297.753 30.7464 297.916 30.8068C298.083 30.8636 298.259 30.892 298.444 30.892C298.582 30.892 298.696 30.8849 298.785 30.8707C298.873 30.853 298.945 30.8388 298.998 30.8281L299.253 31.9574C299.168 31.9893 299.049 32.0213 298.897 32.0533C298.744 32.0888 298.55 32.1065 298.316 32.1065C297.961 32.1065 297.613 32.0302 297.272 31.8775C296.935 31.7248 296.654 31.4922 296.43 31.1797C296.21 30.8672 296.1 30.473 296.1 29.9972V21.858ZM300.995 32V23.8182H302.252V32H300.995ZM301.634 22.4545C301.389 22.4545 301.178 22.3711 301.001 22.2042C300.827 22.0373 300.74 21.8366 300.74 21.6023C300.74 21.3679 300.827 21.1673 301.001 21.0004C301.178 20.8335 301.389 20.75 301.634 20.75C301.88 20.75 302.089 20.8335 302.263 21.0004C302.441 21.1673 302.529 21.3679 302.529 21.6023C302.529 21.8366 302.441 22.0373 302.263 22.2042C302.089 22.3711 301.88 22.4545 301.634 22.4545ZM307.879 32.1705C307.14 32.1705 306.492 31.9947 305.934 31.6431C305.381 31.2915 304.947 30.7997 304.635 30.1676C304.326 29.5355 304.171 28.7969 304.171 27.9517C304.171 27.0994 304.326 26.3555 304.635 25.7198C304.947 25.0842 305.381 24.5906 305.934 24.239C306.492 23.8874 307.14 23.7116 307.879 23.7116C308.617 23.7116 309.264 23.8874 309.818 24.239C310.375 24.5906 310.808 25.0842 311.117 25.7198C311.43 26.3555 311.586 27.0994 311.586 27.9517C311.586 28.7969 311.43 29.5355 311.117 30.1676C310.808 30.7997 310.375 31.2915 309.818 31.6431C309.264 31.9947 308.617 32.1705 307.879 32.1705ZM307.879 31.0412C308.44 31.0412 308.901 30.8974 309.264 30.6097C309.626 30.3221 309.894 29.9439 310.068 29.4751C310.242 29.0064 310.329 28.4986 310.329 27.9517C310.329 27.4048 310.242 26.8952 310.068 26.4229C309.894 25.9506 309.626 25.5689 309.264 25.2777C308.901 24.9865 308.44 24.8409 307.879 24.8409C307.318 24.8409 306.856 24.9865 306.494 25.2777C306.132 25.5689 305.863 25.9506 305.689 26.4229C305.515 26.8952 305.428 27.4048 305.428 27.9517C305.428 28.4986 305.515 29.0064 305.689 29.4751C305.863 29.9439 306.132 30.3221 306.494 30.6097C306.856 30.8974 307.318 31.0412 307.879 31.0412ZM314.762 27.0781V32H313.505V23.8182H314.72V25.0966H314.826C315.018 24.6811 315.309 24.3473 315.7 24.0952C316.09 23.8395 316.595 23.7116 317.212 23.7116C317.766 23.7116 318.251 23.8253 318.667 24.0526C319.082 24.2763 319.405 24.6172 319.636 25.0753C319.867 25.5298 319.982 26.1051 319.982 26.8011V32H318.725V26.8864C318.725 26.2436 318.558 25.7429 318.225 25.3842C317.891 25.022 317.433 24.8409 316.85 24.8409C316.449 24.8409 316.09 24.9279 315.774 25.1019C315.462 25.2759 315.215 25.5298 315.034 25.8636C314.853 26.1974 314.762 26.6023 314.762 27.0781Z" fill="#8C57FF"/>
<path d="M789.321 32V21.0909H790.642V30.8281H795.713V32H789.321ZM797.588 32V23.8182H798.845V32H797.588ZM798.227 22.4545C797.982 22.4545 797.771 22.3711 797.593 22.2042C797.419 22.0373 797.332 21.8366 797.332 21.6023C797.332 21.3679 797.419 21.1673 797.593 21.0004C797.771 20.8335 797.982 20.75 798.227 20.75C798.472 20.75 798.682 20.8335 798.856 21.0004C799.033 21.1673 799.122 21.3679 799.122 21.6023C799.122 21.8366 799.033 22.0373 798.856 22.2042C798.682 22.3711 798.472 22.4545 798.227 22.4545ZM804.472 32.1705C803.704 32.1705 803.044 31.9893 802.49 31.6271C801.936 31.2649 801.51 30.766 801.212 30.1303C800.913 29.4947 800.764 28.7685 800.764 27.9517C800.764 27.1207 800.917 26.3874 801.222 25.7518C801.531 25.1126 801.961 24.6136 802.511 24.255C803.065 23.8928 803.712 23.7116 804.45 23.7116C805.025 23.7116 805.544 23.8182 806.006 24.0312C806.467 24.2443 806.845 24.5426 807.14 24.9261C807.435 25.3097 807.618 25.7571 807.689 26.2685H806.432C806.336 25.8956 806.123 25.5653 805.793 25.2777C805.466 24.9865 805.025 24.8409 804.472 24.8409C803.981 24.8409 803.552 24.9687 803.182 25.2244C802.817 25.4766 802.531 25.8335 802.325 26.2951C802.122 26.7532 802.021 27.2912 802.021 27.9091C802.021 28.5412 802.121 29.0916 802.32 29.5604C802.522 30.0291 802.806 30.3931 803.172 30.6523C803.541 30.9116 803.974 31.0412 804.472 31.0412C804.798 31.0412 805.095 30.9844 805.361 30.8707C805.627 30.7571 805.853 30.5938 806.038 30.3807C806.222 30.1676 806.354 29.9119 806.432 29.6136H807.689C807.618 30.0966 807.442 30.5316 807.161 30.9187C806.884 31.3022 806.517 31.6076 806.059 31.8349C805.604 32.0586 805.075 32.1705 804.472 32.1705ZM812.957 32.1705C812.169 32.1705 811.489 31.9964 810.917 31.6484C810.349 31.2969 809.91 30.8068 809.601 30.1783C809.296 29.5462 809.143 28.8111 809.143 27.973C809.143 27.1349 809.296 26.3963 809.601 25.7571C809.91 25.1143 810.34 24.6136 810.89 24.255C811.444 23.8928 812.09 23.7116 812.829 23.7116C813.255 23.7116 813.676 23.7827 814.092 23.9247C814.507 24.0668 814.885 24.2976 815.226 24.6172C815.567 24.9332 815.839 25.3523 816.041 25.8743C816.244 26.3963 816.345 27.0391 816.345 27.8026V28.3352H810.038V27.2486H815.066C815.066 26.7869 814.974 26.375 814.789 26.0128C814.608 25.6506 814.349 25.3647 814.012 25.1552C813.678 24.9457 813.284 24.8409 812.829 24.8409C812.328 24.8409 811.895 24.9652 811.529 25.2138C811.167 25.4588 810.888 25.7784 810.693 26.1726C810.498 26.5668 810.4 26.9893 810.4 27.4403V28.1648C810.4 28.7827 810.507 29.3065 810.72 29.7362C810.936 30.1623 811.236 30.4872 811.62 30.7109C812.003 30.9311 812.449 31.0412 812.957 31.0412C813.287 31.0412 813.585 30.995 813.852 30.9027C814.122 30.8068 814.354 30.6648 814.55 30.4766C814.745 30.2848 814.896 30.0469 815.002 29.7628L816.217 30.1037C816.089 30.5156 815.874 30.8778 815.572 31.1903C815.271 31.4993 814.898 31.7408 814.454 31.9148C814.01 32.0852 813.511 32.1705 812.957 32.1705ZM819.514 27.0781V32H818.257V23.8182H819.472V25.0966H819.578C819.77 24.6811 820.061 24.3473 820.452 24.0952C820.842 23.8395 821.347 23.7116 821.964 23.7116C822.518 23.7116 823.003 23.8253 823.419 24.0526C823.834 24.2763 824.157 24.6172 824.388 25.0753C824.619 25.5298 824.734 26.1051 824.734 26.8011V32H823.477V26.8864C823.477 26.2436 823.31 25.7429 822.976 25.3842C822.643 25.022 822.185 24.8409 821.602 24.8409C821.201 24.8409 820.842 24.9279 820.526 25.1019C820.214 25.2759 819.967 25.5298 819.786 25.8636C819.605 26.1974 819.514 26.6023 819.514 27.0781ZM832.827 25.6506L831.698 25.9702C831.627 25.782 831.522 25.5991 831.383 25.4215C831.248 25.2404 831.064 25.0913 830.829 24.9741C830.595 24.8569 830.295 24.7983 829.929 24.7983C829.428 24.7983 829.011 24.9137 828.677 25.1445C828.347 25.3718 828.182 25.6612 828.182 26.0128C828.182 26.3253 828.296 26.5721 828.523 26.7532C828.75 26.9343 829.105 27.0852 829.588 27.206L830.803 27.5043C831.534 27.6818 832.079 27.9535 832.438 28.3192C832.797 28.6815 832.976 29.1484 832.976 29.7202C832.976 30.1889 832.841 30.608 832.571 30.9773C832.305 31.3466 831.932 31.6378 831.453 31.8509C830.973 32.0639 830.416 32.1705 829.78 32.1705C828.945 32.1705 828.255 31.9893 827.708 31.6271C827.161 31.2649 826.815 30.7358 826.669 30.0398L827.862 29.7415C827.976 30.1818 828.191 30.5121 828.507 30.7322C828.827 30.9524 829.244 31.0625 829.759 31.0625C830.345 31.0625 830.81 30.9382 831.154 30.6896C831.502 30.4375 831.676 30.1357 831.676 29.7841C831.676 29.5 831.577 29.2621 831.378 29.0703C831.179 28.875 830.874 28.7294 830.462 28.6335L829.098 28.3139C828.349 28.1364 827.798 27.8612 827.447 27.4883C827.099 27.1119 826.925 26.6413 826.925 26.0767C826.925 25.6151 827.055 25.2067 827.314 24.8516C827.577 24.4964 827.933 24.2177 828.384 24.0153C828.839 23.8129 829.354 23.7116 829.929 23.7116C830.739 23.7116 831.374 23.8892 831.836 24.2443C832.301 24.5994 832.632 25.0682 832.827 25.6506ZM838.299 32.1705C837.51 32.1705 836.83 31.9964 836.259 31.6484C835.69 31.2969 835.252 30.8068 834.943 30.1783C834.638 29.5462 834.485 28.8111 834.485 27.973C834.485 27.1349 834.638 26.3963 834.943 25.7571C835.252 25.1143 835.682 24.6136 836.232 24.255C836.786 23.8928 837.432 23.7116 838.171 23.7116C838.597 23.7116 839.018 23.7827 839.433 23.9247C839.849 24.0668 840.227 24.2976 840.568 24.6172C840.909 24.9332 841.18 25.3523 841.383 25.8743C841.585 26.3963 841.687 27.0391 841.687 27.8026V28.3352H835.38V27.2486H840.408C840.408 26.7869 840.316 26.375 840.131 26.0128C839.95 25.6506 839.691 25.3647 839.353 25.1552C839.02 24.9457 838.625 24.8409 838.171 24.8409C837.67 24.8409 837.237 24.9652 836.871 25.2138C836.509 25.4588 836.23 25.7784 836.035 26.1726C835.84 26.5668 835.742 26.9893 835.742 27.4403V28.1648C835.742 28.7827 835.848 29.3065 836.062 29.7362C836.278 30.1623 836.578 30.4872 836.962 30.7109C837.345 30.9311 837.791 31.0412 838.299 31.0412C838.629 31.0412 838.927 30.995 839.194 30.9027C839.464 30.8068 839.696 30.6648 839.891 30.4766C840.087 30.2848 840.238 30.0469 840.344 29.7628L841.559 30.1037C841.431 30.5156 841.216 30.8778 840.914 31.1903C840.612 31.4993 840.239 31.7408 839.796 31.9148C839.352 32.0852 838.853 32.1705 838.299 32.1705Z" fill="#8C57FF"/>
<path d="M860.321 21.0909H861.898L865.605 30.1463H865.733L869.44 21.0909H871.017V32H869.781V23.7116H869.675L866.266 32H865.072L861.663 23.7116H861.557V32H860.321V21.0909ZM876.819 32.1705C876.081 32.1705 875.432 31.9947 874.875 31.6431C874.321 31.2915 873.888 30.7997 873.575 30.1676C873.266 29.5355 873.112 28.7969 873.112 27.9517C873.112 27.0994 873.266 26.3555 873.575 25.7198C873.888 25.0842 874.321 24.5906 874.875 24.239C875.432 23.8874 876.081 23.7116 876.819 23.7116C877.558 23.7116 878.204 23.8874 878.758 24.239C879.316 24.5906 879.749 25.0842 880.058 25.7198C880.37 26.3555 880.527 27.0994 880.527 27.9517C880.527 28.7969 880.37 29.5355 880.058 30.1676C879.749 30.7997 879.316 31.2915 878.758 31.6431C878.204 31.9947 877.558 32.1705 876.819 32.1705ZM876.819 31.0412C877.38 31.0412 877.842 30.8974 878.204 30.6097C878.566 30.3221 878.834 29.9439 879.008 29.4751C879.182 29.0064 879.269 28.4986 879.269 27.9517C879.269 27.4048 879.182 26.8952 879.008 26.4229C878.834 25.9506 878.566 25.5689 878.204 25.2777C877.842 24.9865 877.38 24.8409 876.819 24.8409C876.258 24.8409 875.796 24.9865 875.434 25.2777C875.072 25.5689 874.804 25.9506 874.63 26.4229C874.456 26.8952 874.369 27.4048 874.369 27.9517C874.369 28.4986 874.456 29.0064 874.63 29.4751C874.804 29.9439 875.072 30.3221 875.434 30.6097C875.796 30.8974 876.258 31.0412 876.819 31.0412ZM882.445 32V23.8182H883.66V25.054H883.745C883.894 24.6491 884.164 24.3207 884.555 24.0685C884.945 23.8164 885.386 23.6903 885.876 23.6903C885.968 23.6903 886.084 23.6921 886.222 23.6957C886.361 23.6992 886.465 23.7045 886.536 23.7116V24.9901C886.494 24.9794 886.396 24.9634 886.243 24.9421C886.094 24.9173 885.936 24.9048 885.769 24.9048C885.372 24.9048 885.017 24.9883 884.704 25.1552C884.395 25.3185 884.15 25.5458 883.969 25.837C883.791 26.1246 883.703 26.4531 883.703 26.8224V32H882.445ZM891.208 32.1705C890.42 32.1705 889.74 31.9964 889.168 31.6484C888.6 31.2969 888.161 30.8068 887.852 30.1783C887.547 29.5462 887.394 28.8111 887.394 27.973C887.394 27.1349 887.547 26.3963 887.852 25.7571C888.161 25.1143 888.591 24.6136 889.141 24.255C889.695 23.8928 890.341 23.7116 891.08 23.7116C891.506 23.7116 891.927 23.7827 892.343 23.9247C892.758 24.0668 893.136 24.2976 893.477 24.6172C893.818 24.9332 894.09 25.3523 894.292 25.8743C894.494 26.3963 894.596 27.0391 894.596 27.8026V28.3352H888.289V27.2486H893.317C893.317 26.7869 893.225 26.375 893.04 26.0128C892.859 25.6506 892.6 25.3647 892.263 25.1552C891.929 24.9457 891.535 24.8409 891.08 24.8409C890.579 24.8409 890.146 24.9652 889.78 25.2138C889.418 25.4588 889.139 25.7784 888.944 26.1726C888.749 26.5668 888.651 26.9893 888.651 27.4403V28.1648C888.651 28.7827 888.758 29.3065 888.971 29.7362C889.187 30.1623 889.487 30.4872 889.871 30.7109C890.254 30.9311 890.7 31.0412 891.208 31.0412C891.538 31.0412 891.836 30.995 892.103 30.9027C892.373 30.8068 892.605 30.6648 892.801 30.4766C892.996 30.2848 893.147 30.0469 893.253 29.7628L894.468 30.1037C894.34 30.5156 894.125 30.8778 893.823 31.1903C893.521 31.4993 893.149 31.7408 892.705 31.9148C892.261 32.0852 891.762 32.1705 891.208 32.1705ZM900.301 22.2628V21.0909H908.482V22.2628H905.052V32H903.731V22.2628H900.301ZM911.608 27.0781V32H910.351V21.0909H911.608V25.0966H911.714C911.906 24.674 912.194 24.3384 912.577 24.0898C912.964 23.8377 913.479 23.7116 914.122 23.7116C914.68 23.7116 915.168 23.8235 915.587 24.0472C916.006 24.2674 916.331 24.6065 916.562 25.0646C916.796 25.5192 916.913 26.098 916.913 26.8011V32H915.656V26.8864C915.656 26.2365 915.487 25.734 915.15 25.3789C914.816 25.0202 914.353 24.8409 913.76 24.8409C913.348 24.8409 912.979 24.9279 912.652 25.1019C912.329 25.2759 912.073 25.5298 911.885 25.8636C911.7 26.1974 911.608 26.6023 911.608 27.0781ZM922.643 32.1705C921.855 32.1705 921.175 31.9964 920.603 31.6484C920.035 31.2969 919.597 30.8068 919.288 30.1783C918.982 29.5462 918.83 28.8111 918.83 27.973C918.83 27.1349 918.982 26.3963 919.288 25.7571C919.597 25.1143 920.026 24.6136 920.577 24.255C921.131 23.8928 921.777 23.7116 922.516 23.7116C922.942 23.7116 923.363 23.7827 923.778 23.9247C924.194 24.0668 924.572 24.2976 924.913 24.6172C925.254 24.9332 925.525 25.3523 925.728 25.8743C925.93 26.3963 926.031 27.0391 926.031 27.8026V28.3352H919.724V27.2486H924.753C924.753 26.7869 924.661 26.375 924.476 26.0128C924.295 25.6506 924.036 25.3647 923.698 25.1552C923.364 24.9457 922.97 24.8409 922.516 24.8409C922.015 24.8409 921.582 24.9652 921.216 25.2138C920.854 25.4588 920.575 25.7784 920.38 26.1726C920.184 26.5668 920.087 26.9893 920.087 27.4403V28.1648C920.087 28.7827 920.193 29.3065 920.406 29.7362C920.623 30.1623 920.923 30.4872 921.306 30.7109C921.69 30.9311 922.136 31.0412 922.643 31.0412C922.974 31.0412 923.272 30.995 923.538 30.9027C923.808 30.8068 924.041 30.6648 924.236 30.4766C924.431 30.2848 924.582 30.0469 924.689 29.7628L925.903 30.1037C925.776 30.5156 925.561 30.8778 925.259 31.1903C924.957 31.4993 924.584 31.7408 924.14 31.9148C923.696 32.0852 923.197 32.1705 922.643 32.1705ZM927.944 32V23.8182H929.158V25.0966H929.265C929.435 24.6598 929.71 24.3207 930.09 24.0792C930.47 23.8342 930.926 23.7116 931.459 23.7116C931.999 23.7116 932.448 23.8342 932.807 24.0792C933.169 24.3207 933.451 24.6598 933.654 25.0966H933.739C933.949 24.674 934.263 24.3384 934.682 24.0898C935.101 23.8377 935.603 23.7116 936.189 23.7116C936.921 23.7116 937.519 23.9407 937.984 24.3988C938.45 24.8533 938.682 25.5618 938.682 26.5241V32H937.425V26.5241C937.425 25.9205 937.26 25.489 936.93 25.2298C936.599 24.9705 936.211 24.8409 935.763 24.8409C935.188 24.8409 934.742 25.0149 934.426 25.3629C934.11 25.7074 933.952 26.1442 933.952 26.6733V32H932.674V26.3963C932.674 25.9311 932.523 25.5565 932.221 25.2724C931.919 24.9847 931.53 24.8409 931.054 24.8409C930.728 24.8409 930.422 24.9279 930.138 25.1019C929.858 25.2759 929.63 25.5174 929.456 25.8263C929.286 26.1317 929.201 26.4851 929.201 26.8864V32H927.944ZM944.411 32.1705C943.623 32.1705 942.943 31.9964 942.371 31.6484C941.803 31.2969 941.364 30.8068 941.055 30.1783C940.75 29.5462 940.597 28.8111 940.597 27.973C940.597 27.1349 940.75 26.3963 941.055 25.7571C941.364 25.1143 941.794 24.6136 942.344 24.255C942.898 23.8928 943.545 23.7116 944.283 23.7116C944.709 23.7116 945.13 23.7827 945.546 23.9247C945.961 24.0668 946.339 24.2976 946.68 24.6172C947.021 24.9332 947.293 25.3523 947.495 25.8743C947.698 26.3963 947.799 27.0391 947.799 27.8026V28.3352H941.492V27.2486H946.52C946.52 26.7869 946.428 26.375 946.243 26.0128C946.062 25.6506 945.803 25.3647 945.466 25.1552C945.132 24.9457 944.738 24.8409 944.283 24.8409C943.782 24.8409 943.349 24.9652 942.983 25.2138C942.621 25.4588 942.343 25.7784 942.147 26.1726C941.952 26.5668 941.854 26.9893 941.854 27.4403V28.1648C941.854 28.7827 941.961 29.3065 942.174 29.7362C942.39 30.1623 942.691 30.4872 943.074 30.7109C943.458 30.9311 943.903 31.0412 944.411 31.0412C944.741 31.0412 945.04 30.995 945.306 30.9027C945.576 30.8068 945.808 30.6648 946.004 30.4766C946.199 30.2848 946.35 30.0469 946.456 29.7628L947.671 30.1037C947.543 30.5156 947.328 30.8778 947.026 31.1903C946.725 31.4993 946.352 31.7408 945.908 31.9148C945.464 32.0852 944.965 32.1705 944.411 32.1705ZM955.507 25.6506L954.377 25.9702C954.306 25.782 954.202 25.5991 954.063 25.4215C953.928 25.2404 953.743 25.0913 953.509 24.9741C953.275 24.8569 952.975 24.7983 952.609 24.7983C952.108 24.7983 951.691 24.9137 951.357 25.1445C951.027 25.3718 950.862 25.6612 950.862 26.0128C950.862 26.3253 950.975 26.5721 951.203 26.7532C951.43 26.9343 951.785 27.0852 952.268 27.206L953.482 27.5043C954.214 27.6818 954.759 27.9535 955.118 28.3192C955.476 28.6815 955.656 29.1484 955.656 29.7202C955.656 30.1889 955.521 30.608 955.251 30.9773C954.985 31.3466 954.612 31.6378 954.132 31.8509C953.653 32.0639 953.095 32.1705 952.46 32.1705C951.625 32.1705 950.934 31.9893 950.388 31.6271C949.841 31.2649 949.494 30.7358 949.349 30.0398L950.542 29.7415C950.656 30.1818 950.871 30.5121 951.187 30.7322C951.506 30.9524 951.923 31.0625 952.438 31.0625C953.024 31.0625 953.49 30.9382 953.834 30.6896C954.182 30.4375 954.356 30.1357 954.356 29.7841C954.356 29.5 954.257 29.2621 954.058 29.0703C953.859 28.875 953.553 28.7294 953.142 28.6335L951.778 28.3139C951.029 28.1364 950.478 27.8612 950.127 27.4883C949.779 27.1119 949.605 26.6413 949.605 26.0767C949.605 25.6151 949.734 25.2067 949.993 24.8516C950.256 24.4964 950.613 24.2177 951.064 24.0153C951.519 23.8129 952.034 23.7116 952.609 23.7116C953.419 23.7116 954.054 23.8892 954.516 24.2443C954.981 24.5994 955.311 25.0682 955.507 25.6506Z" fill="#8C57FF"/>
<path d="M977.688 32H974.321V21.0909H977.837C978.895 21.0909 979.8 21.3093 980.553 21.7461C981.306 22.1793 981.883 22.8026 982.284 23.6158C982.686 24.4254 982.886 25.3949 982.886 26.5241C982.886 27.6605 982.684 28.6388 982.279 29.4592C981.874 30.2759 981.285 30.9045 980.511 31.3448C979.737 31.7816 978.795 32 977.688 32ZM975.642 30.8281H977.602C978.504 30.8281 979.252 30.6541 979.845 30.3061C980.438 29.9581 980.88 29.4627 981.171 28.82C981.462 28.1772 981.608 27.4119 981.608 26.5241C981.608 25.6435 981.464 24.8853 981.176 24.2496C980.889 23.6104 980.459 23.1204 979.887 22.7795C979.316 22.435 978.604 22.2628 977.751 22.2628H975.642V30.8281ZM988.256 32.1705C987.517 32.1705 986.869 31.9947 986.311 31.6431C985.757 31.2915 985.324 30.7997 985.012 30.1676C984.703 29.5355 984.548 28.7969 984.548 27.9517C984.548 27.0994 984.703 26.3555 985.012 25.7198C985.324 25.0842 985.757 24.5906 986.311 24.239C986.869 23.8874 987.517 23.7116 988.256 23.7116C988.994 23.7116 989.641 23.8874 990.195 24.239C990.752 24.5906 991.185 25.0842 991.494 25.7198C991.807 26.3555 991.963 27.0994 991.963 27.9517C991.963 28.7969 991.807 29.5355 991.494 30.1676C991.185 30.7997 990.752 31.2915 990.195 31.6431C989.641 31.9947 988.994 32.1705 988.256 32.1705ZM988.256 31.0412C988.817 31.0412 989.278 30.8974 989.641 30.6097C990.003 30.3221 990.271 29.9439 990.445 29.4751C990.619 29.0064 990.706 28.4986 990.706 27.9517C990.706 27.4048 990.619 26.8952 990.445 26.4229C990.271 25.9506 990.003 25.5689 989.641 25.2777C989.278 24.9865 988.817 24.8409 988.256 24.8409C987.695 24.8409 987.233 24.9865 986.871 25.2777C986.509 25.5689 986.24 25.9506 986.066 26.4229C985.892 26.8952 985.805 27.4048 985.805 27.9517C985.805 28.4986 985.892 29.0064 986.066 29.4751C986.24 29.9439 986.509 30.3221 986.871 30.6097C987.233 30.8974 987.695 31.0412 988.256 31.0412ZM997.206 32.1705C996.439 32.1705 995.778 31.9893 995.224 31.6271C994.67 31.2649 994.244 30.766 993.946 30.1303C993.648 29.4947 993.498 28.7685 993.498 27.9517C993.498 27.1207 993.651 26.3874 993.957 25.7518C994.266 25.1126 994.695 24.6136 995.246 24.255C995.8 23.8928 996.446 23.7116 997.185 23.7116C997.76 23.7116 998.278 23.8182 998.74 24.0312C999.202 24.2443 999.58 24.5426 999.875 24.9261C1000.17 25.3097 1000.35 25.7571 1000.42 26.2685H999.166C999.07 25.8956 998.857 25.5653 998.527 25.2777C998.2 24.9865 997.76 24.8409 997.206 24.8409C996.716 24.8409 996.286 24.9687 995.917 25.2244C995.551 25.4766 995.265 25.8335 995.059 26.2951C994.857 26.7532 994.756 27.2912 994.756 27.9091C994.756 28.5412 994.855 29.0916 995.054 29.5604C995.256 30.0291 995.54 30.3931 995.906 30.6523C996.275 30.9116 996.709 31.0412 997.206 31.0412C997.533 31.0412 997.829 30.9844 998.095 30.8707C998.362 30.7571 998.587 30.5938 998.772 30.3807C998.957 30.1676 999.088 29.9119 999.166 29.6136H1000.42C1000.35 30.0966 1000.18 30.5316 999.896 30.9187C999.619 31.3022 999.251 31.6076 998.793 31.8349C998.339 32.0586 997.81 32.1705 997.206 32.1705ZM1007.42 28.6548V23.8182H1008.67V32H1007.42V30.6151H1007.33C1007.14 31.0305 1006.84 31.3839 1006.44 31.6751C1006.03 31.9627 1005.52 32.1065 1004.9 32.1065C1004.39 32.1065 1003.94 31.9947 1003.54 31.771C1003.14 31.5437 1002.83 31.2028 1002.6 30.7482C1002.37 30.2901 1002.26 29.7131 1002.26 29.017V23.8182H1003.52V28.9318C1003.52 29.5284 1003.68 30.0043 1004.02 30.3594C1004.36 30.7145 1004.79 30.892 1005.31 30.892C1005.62 30.892 1005.94 30.8121 1006.26 30.6523C1006.59 30.4925 1006.86 30.2475 1007.08 29.9173C1007.31 29.587 1007.42 29.1662 1007.42 28.6548ZM1010.98 32V23.8182H1012.19V25.0966H1012.3C1012.47 24.6598 1012.74 24.3207 1013.12 24.0792C1013.5 23.8342 1013.96 23.7116 1014.49 23.7116C1015.03 23.7116 1015.48 23.8342 1015.84 24.0792C1016.2 24.3207 1016.48 24.6598 1016.69 25.0966H1016.77C1016.98 24.674 1017.3 24.3384 1017.72 24.0898C1018.13 23.8377 1018.64 23.7116 1019.22 23.7116C1019.95 23.7116 1020.55 23.9407 1021.02 24.3988C1021.48 24.8533 1021.72 25.5618 1021.72 26.5241V32H1020.46V26.5241C1020.46 25.9205 1020.29 25.489 1019.96 25.2298C1019.63 24.9705 1019.24 24.8409 1018.8 24.8409C1018.22 24.8409 1017.78 25.0149 1017.46 25.3629C1017.14 25.7074 1016.99 26.1442 1016.99 26.6733V32H1015.71V26.3963C1015.71 25.9311 1015.56 25.5565 1015.25 25.2724C1014.95 24.9847 1014.56 24.8409 1014.09 24.8409C1013.76 24.8409 1013.46 24.9279 1013.17 25.1019C1012.89 25.2759 1012.66 25.5174 1012.49 25.8263C1012.32 26.1317 1012.23 26.4851 1012.23 26.8864V32H1010.98ZM1027.44 32.1705C1026.66 32.1705 1025.98 31.9964 1025.4 31.6484C1024.84 31.2969 1024.4 30.8068 1024.09 30.1783C1023.78 29.5462 1023.63 28.8111 1023.63 27.973C1023.63 27.1349 1023.78 26.3963 1024.09 25.7571C1024.4 25.1143 1024.83 24.6136 1025.38 24.255C1025.93 23.8928 1026.58 23.7116 1027.32 23.7116C1027.74 23.7116 1028.16 23.7827 1028.58 23.9247C1028.99 24.0668 1029.37 24.2976 1029.71 24.6172C1030.05 24.9332 1030.33 25.3523 1030.53 25.8743C1030.73 26.3963 1030.83 27.0391 1030.83 27.8026V28.3352H1024.53V27.2486H1029.55C1029.55 26.7869 1029.46 26.375 1029.28 26.0128C1029.1 25.6506 1028.84 25.3647 1028.5 25.1552C1028.17 24.9457 1027.77 24.8409 1027.32 24.8409C1026.82 24.8409 1026.38 24.9652 1026.02 25.2138C1025.65 25.4588 1025.38 25.7784 1025.18 26.1726C1024.99 26.5668 1024.89 26.9893 1024.89 27.4403V28.1648C1024.89 28.7827 1024.99 29.3065 1025.21 29.7362C1025.42 30.1623 1025.72 30.4872 1026.11 30.7109C1026.49 30.9311 1026.94 31.0412 1027.44 31.0412C1027.77 31.0412 1028.07 30.995 1028.34 30.9027C1028.61 30.8068 1028.84 30.6648 1029.04 30.4766C1029.23 30.2848 1029.38 30.0469 1029.49 29.7628L1030.7 30.1037C1030.58 30.5156 1030.36 30.8778 1030.06 31.1903C1029.76 31.4993 1029.38 31.7408 1028.94 31.9148C1028.5 32.0852 1028 32.1705 1027.44 32.1705ZM1034 27.0781V32H1032.74V23.8182H1033.96V25.0966H1034.07C1034.26 24.6811 1034.55 24.3473 1034.94 24.0952C1035.33 23.8395 1035.83 23.7116 1036.45 23.7116C1037.01 23.7116 1037.49 23.8253 1037.91 24.0526C1038.32 24.2763 1038.64 24.6172 1038.88 25.0753C1039.11 25.5298 1039.22 26.1051 1039.22 26.8011V32H1037.96V26.8864C1037.96 26.2436 1037.8 25.7429 1037.46 25.3842C1037.13 25.022 1036.67 24.8409 1036.09 24.8409C1035.69 24.8409 1035.33 24.9279 1035.01 25.1019C1034.7 25.2759 1034.45 25.5298 1034.27 25.8636C1034.09 26.1974 1034 26.6023 1034 27.0781ZM1045.08 23.8182V24.8835H1040.84V23.8182H1045.08ZM1042.07 21.858H1043.33V29.6562C1043.33 30.0114 1043.38 30.2777 1043.48 30.4553C1043.59 30.6293 1043.73 30.7464 1043.89 30.8068C1044.06 30.8636 1044.23 30.892 1044.42 30.892C1044.55 30.892 1044.67 30.8849 1044.76 30.8707C1044.85 30.853 1044.92 30.8388 1044.97 30.8281L1045.23 31.9574C1045.14 31.9893 1045.02 32.0213 1044.87 32.0533C1044.72 32.0888 1044.52 32.1065 1044.29 32.1065C1043.93 32.1065 1043.59 32.0302 1043.24 31.8775C1042.91 31.7248 1042.63 31.4922 1042.4 31.1797C1042.18 30.8672 1042.07 30.473 1042.07 29.9972V21.858ZM1049.38 32.1918C1048.86 32.1918 1048.39 32.0941 1047.96 31.8988C1047.54 31.6999 1047.21 31.4141 1046.96 31.0412C1046.71 30.6648 1046.58 30.2102 1046.58 29.6776C1046.58 29.2088 1046.68 28.8288 1046.86 28.5376C1047.05 28.2429 1047.29 28.0121 1047.6 27.8452C1047.91 27.6783 1048.25 27.554 1048.62 27.4723C1049 27.3871 1049.38 27.3196 1049.76 27.2699C1050.26 27.206 1050.66 27.158 1050.97 27.1261C1051.28 27.0906 1051.51 27.032 1051.65 26.9503C1051.8 26.8686 1051.87 26.7266 1051.87 26.5241V26.4815C1051.87 25.956 1051.72 25.5476 1051.44 25.2564C1051.15 24.9652 1050.72 24.8196 1050.14 24.8196C1049.54 24.8196 1049.07 24.951 1048.73 25.2138C1048.39 25.4766 1048.15 25.7571 1048.01 26.0554L1046.82 25.6293C1047.03 25.1321 1047.32 24.745 1047.67 24.468C1048.03 24.1875 1048.42 23.9922 1048.84 23.8821C1049.27 23.7685 1049.69 23.7116 1050.1 23.7116C1050.36 23.7116 1050.66 23.7436 1051.01 23.8075C1051.35 23.8679 1051.68 23.994 1052 24.1857C1052.32 24.3775 1052.59 24.6669 1052.81 25.054C1053.02 25.4411 1053.13 25.9595 1053.13 26.6094V32H1051.87V30.892H1051.8C1051.72 31.0696 1051.58 31.2596 1051.38 31.462C1051.18 31.6644 1050.92 31.8366 1050.58 31.9787C1050.25 32.1207 1049.85 32.1918 1049.38 32.1918ZM1049.57 31.0625C1050.06 31.0625 1050.48 30.9648 1050.82 30.7695C1051.17 30.5742 1051.43 30.3221 1051.6 30.0131C1051.78 29.7042 1051.87 29.3793 1051.87 29.0384V27.8878C1051.82 27.9517 1051.7 28.0103 1051.52 28.0636C1051.34 28.1133 1051.13 28.1577 1050.9 28.1967C1050.67 28.2322 1050.44 28.2642 1050.22 28.2926C1050.01 28.3175 1049.83 28.3388 1049.7 28.3565C1049.37 28.3991 1049.06 28.4684 1048.78 28.5643C1048.5 28.6566 1048.27 28.7969 1048.1 28.9851C1047.93 29.1697 1047.84 29.4219 1047.84 29.7415C1047.84 30.1783 1048 30.5085 1048.33 30.7322C1048.65 30.9524 1049.07 31.0625 1049.57 31.0625ZM1058.98 23.8182V24.8835H1054.74V23.8182H1058.98ZM1055.97 21.858H1057.23V29.6562C1057.23 30.0114 1057.28 30.2777 1057.39 30.4553C1057.49 30.6293 1057.63 30.7464 1057.79 30.8068C1057.96 30.8636 1058.13 30.892 1058.32 30.892C1058.46 30.892 1058.57 30.8849 1058.66 30.8707C1058.75 30.853 1058.82 30.8388 1058.87 30.8281L1059.13 31.9574C1059.04 31.9893 1058.92 32.0213 1058.77 32.0533C1058.62 32.0888 1058.42 32.1065 1058.19 32.1065C1057.83 32.1065 1057.49 32.0302 1057.15 31.8775C1056.81 31.7248 1056.53 31.4922 1056.3 31.1797C1056.08 30.8672 1055.97 30.473 1055.97 29.9972V21.858ZM1060.87 32V23.8182H1062.13V32H1060.87ZM1061.51 22.4545C1061.26 22.4545 1061.05 22.3711 1060.87 22.2042C1060.7 22.0373 1060.61 21.8366 1060.61 21.6023C1060.61 21.3679 1060.7 21.1673 1060.87 21.0004C1061.05 20.8335 1061.26 20.75 1061.51 20.75C1061.75 20.75 1061.96 20.8335 1062.14 21.0004C1062.31 21.1673 1062.4 21.3679 1062.4 21.6023C1062.4 21.8366 1062.31 22.0373 1062.14 22.2042C1061.96 22.3711 1061.75 22.4545 1061.51 22.4545ZM1067.75 32.1705C1067.01 32.1705 1066.37 31.9947 1065.81 31.6431C1065.25 31.2915 1064.82 30.7997 1064.51 30.1676C1064.2 29.5355 1064.05 28.7969 1064.05 27.9517C1064.05 27.0994 1064.2 26.3555 1064.51 25.7198C1064.82 25.0842 1065.25 24.5906 1065.81 24.239C1066.37 23.8874 1067.01 23.7116 1067.75 23.7116C1068.49 23.7116 1069.14 23.8874 1069.69 24.239C1070.25 24.5906 1070.68 25.0842 1070.99 25.7198C1071.3 26.3555 1071.46 27.0994 1071.46 27.9517C1071.46 28.7969 1071.3 29.5355 1070.99 30.1676C1070.68 30.7997 1070.25 31.2915 1069.69 31.6431C1069.14 31.9947 1068.49 32.1705 1067.75 32.1705ZM1067.75 31.0412C1068.31 31.0412 1068.78 30.8974 1069.14 30.6097C1069.5 30.3221 1069.77 29.9439 1069.94 29.4751C1070.12 29.0064 1070.2 28.4986 1070.2 27.9517C1070.2 27.4048 1070.12 26.8952 1069.94 26.4229C1069.77 25.9506 1069.5 25.5689 1069.14 25.2777C1068.78 24.9865 1068.31 24.8409 1067.75 24.8409C1067.19 24.8409 1066.73 24.9865 1066.37 25.2777C1066.01 25.5689 1065.74 25.9506 1065.56 26.4229C1065.39 26.8952 1065.3 27.4048 1065.3 27.9517C1065.3 28.4986 1065.39 29.0064 1065.56 29.4751C1065.74 29.9439 1066.01 30.3221 1066.37 30.6097C1066.73 30.8974 1067.19 31.0412 1067.75 31.0412ZM1074.64 27.0781V32H1073.38V23.8182H1074.59V25.0966H1074.7C1074.89 24.6811 1075.18 24.3473 1075.57 24.0952C1075.96 23.8395 1076.47 23.7116 1077.09 23.7116C1077.64 23.7116 1078.13 23.8253 1078.54 24.0526C1078.96 24.2763 1079.28 24.6172 1079.51 25.0753C1079.74 25.5298 1079.86 26.1051 1079.86 26.8011V32H1078.6V26.8864C1078.6 26.2436 1078.43 25.7429 1078.1 25.3842C1077.76 25.022 1077.31 24.8409 1076.72 24.8409C1076.32 24.8409 1075.96 24.9279 1075.65 25.1019C1075.34 25.2759 1075.09 25.5298 1074.91 25.8636C1074.73 26.1974 1074.64 26.6023 1074.64 27.0781Z" fill="#8C57FF"/>
<path d="M1105.29 23.8182C1105.22 23.2784 1104.96 22.8594 1104.51 22.5611C1104.05 22.2628 1103.5 22.1136 1102.84 22.1136C1102.35 22.1136 1101.93 22.1918 1101.57 22.348C1101.21 22.5043 1100.93 22.7191 1100.73 22.9925C1100.53 23.266 1100.43 23.5767 1100.43 23.9247C1100.43 24.2159 1100.5 24.4663 1100.64 24.6758C1100.78 24.8817 1100.96 25.054 1101.18 25.1925C1101.4 25.3274 1101.63 25.4393 1101.87 25.5281C1102.11 25.6133 1102.34 25.6825 1102.54 25.7358L1103.65 26.0341C1103.93 26.1087 1104.25 26.2116 1104.59 26.343C1104.95 26.4744 1105.28 26.6538 1105.6 26.881C1105.92 27.1048 1106.19 27.3924 1106.4 27.744C1106.61 28.0955 1106.71 28.527 1106.71 29.0384C1106.71 29.6278 1106.56 30.1605 1106.25 30.6364C1105.95 31.1122 1105.5 31.4904 1104.91 31.771C1104.32 32.0515 1103.61 32.1918 1102.77 32.1918C1101.99 32.1918 1101.31 32.0657 1100.74 31.8136C1100.18 31.5614 1099.73 31.2099 1099.4 30.7589C1099.08 30.3079 1098.89 29.7841 1098.85 29.1875H1100.22C1100.25 29.5994 1100.39 29.9403 1100.63 30.2102C1100.88 30.4766 1101.19 30.6754 1101.56 30.8068C1101.93 30.9347 1102.34 30.9986 1102.77 30.9986C1103.28 30.9986 1103.73 30.9169 1104.13 30.7536C1104.53 30.5866 1104.85 30.3558 1105.08 30.0611C1105.32 29.7628 1105.44 29.4148 1105.44 29.017C1105.44 28.6548 1105.33 28.3601 1105.13 28.1328C1104.93 27.9055 1104.66 27.7209 1104.33 27.5788C1104 27.4368 1103.65 27.3125 1103.26 27.206L1101.92 26.8224C1101.07 26.5774 1100.39 26.2276 1099.9 25.7731C1099.4 25.3185 1099.15 24.7237 1099.15 23.9886C1099.15 23.3778 1099.32 22.8452 1099.65 22.3906C1099.98 21.9325 1100.43 21.5774 1100.99 21.3253C1101.55 21.0696 1102.18 20.9418 1102.88 20.9418C1103.58 20.9418 1104.21 21.0678 1104.75 21.32C1105.3 21.5685 1105.73 21.9094 1106.05 22.3427C1106.38 22.7759 1106.55 23.2678 1106.57 23.8182H1105.29ZM1113.87 28.6548V23.8182H1115.13V32H1113.87V30.6151H1113.79C1113.6 31.0305 1113.3 31.3839 1112.89 31.6751C1112.49 31.9627 1111.98 32.1065 1111.36 32.1065C1110.85 32.1065 1110.39 31.9947 1109.99 31.771C1109.6 31.5437 1109.28 31.2028 1109.06 30.7482C1108.83 30.2901 1108.72 29.7131 1108.72 29.017V23.8182H1109.97V28.9318C1109.97 29.5284 1110.14 30.0043 1110.47 30.3594C1110.81 30.7145 1111.24 30.892 1111.76 30.892C1112.08 30.892 1112.39 30.8121 1112.72 30.6523C1113.04 30.4925 1113.32 30.2475 1113.54 29.9173C1113.76 29.587 1113.87 29.1662 1113.87 28.6548ZM1117.43 35.0682V23.8182H1118.65V25.1179H1118.8C1118.89 24.9759 1119.02 24.7947 1119.18 24.5746C1119.35 24.3509 1119.58 24.152 1119.89 23.978C1120.21 23.8004 1120.63 23.7116 1121.16 23.7116C1121.85 23.7116 1122.46 23.8839 1122.98 24.2283C1123.51 24.5728 1123.92 25.0611 1124.21 25.6932C1124.51 26.3253 1124.65 27.071 1124.65 27.9304C1124.65 28.7969 1124.51 29.5479 1124.21 30.1836C1123.92 30.8157 1123.51 31.3058 1122.99 31.6538C1122.47 31.9982 1121.86 32.1705 1121.18 32.1705C1120.66 32.1705 1120.24 32.0835 1119.92 31.9094C1119.6 31.7319 1119.36 31.5312 1119.19 31.3075C1119.02 31.0803 1118.89 30.892 1118.8 30.7429H1118.69V35.0682H1117.43ZM1118.67 27.9091C1118.67 28.527 1118.76 29.0721 1118.94 29.5444C1119.12 30.0131 1119.38 30.3807 1119.73 30.647C1120.08 30.9098 1120.51 31.0412 1121.01 31.0412C1121.54 31.0412 1121.98 30.9027 1122.33 30.6257C1122.68 30.3452 1122.95 29.9687 1123.13 29.4964C1123.31 29.0206 1123.4 28.4915 1123.4 27.9091C1123.4 27.3338 1123.31 26.8153 1123.13 26.3537C1122.96 25.8885 1122.69 25.521 1122.34 25.2511C1121.99 24.9776 1121.54 24.8409 1121.01 24.8409C1120.5 24.8409 1120.07 24.9705 1119.72 25.2298C1119.37 25.4854 1119.11 25.8441 1118.93 26.3058C1118.76 26.7638 1118.67 27.2983 1118.67 27.9091ZM1126.57 35.0682V23.8182H1127.79V25.1179H1127.94C1128.03 24.9759 1128.16 24.7947 1128.32 24.5746C1128.49 24.3509 1128.72 24.152 1129.03 23.978C1129.35 23.8004 1129.77 23.7116 1130.3 23.7116C1130.99 23.7116 1131.6 23.8839 1132.12 24.2283C1132.65 24.5728 1133.06 25.0611 1133.35 25.6932C1133.65 26.3253 1133.8 27.071 1133.8 27.9304C1133.8 28.7969 1133.65 29.5479 1133.35 30.1836C1133.06 30.8157 1132.65 31.3058 1132.13 31.6538C1131.61 31.9982 1131 32.1705 1130.32 32.1705C1129.8 32.1705 1129.38 32.0835 1129.06 31.9094C1128.74 31.7319 1128.5 31.5312 1128.33 31.3075C1128.16 31.0803 1128.03 30.892 1127.94 30.7429H1127.83V35.0682H1126.57ZM1127.81 27.9091C1127.81 28.527 1127.9 29.0721 1128.08 29.5444C1128.26 30.0131 1128.53 30.3807 1128.87 30.647C1129.22 30.9098 1129.65 31.0412 1130.15 31.0412C1130.68 31.0412 1131.12 30.9027 1131.47 30.6257C1131.82 30.3452 1132.09 29.9687 1132.27 29.4964C1132.45 29.0206 1132.54 28.4915 1132.54 27.9091C1132.54 27.3338 1132.45 26.8153 1132.27 26.3537C1132.1 25.8885 1131.83 25.521 1131.48 25.2511C1131.13 24.9776 1130.68 24.8409 1130.15 24.8409C1129.64 24.8409 1129.21 24.9705 1128.86 25.2298C1128.51 25.4854 1128.25 25.8441 1128.07 26.3058C1127.9 26.7638 1127.81 27.2983 1127.81 27.9091ZM1139.04 32.1705C1138.3 32.1705 1137.65 31.9947 1137.09 31.6431C1136.54 31.2915 1136.11 30.7997 1135.79 30.1676C1135.48 29.5355 1135.33 28.7969 1135.33 27.9517C1135.33 27.0994 1135.48 26.3555 1135.79 25.7198C1136.11 25.0842 1136.54 24.5906 1137.09 24.239C1137.65 23.8874 1138.3 23.7116 1139.04 23.7116C1139.78 23.7116 1140.42 23.8874 1140.98 24.239C1141.53 24.5906 1141.97 25.0842 1142.28 25.7198C1142.59 26.3555 1142.74 27.0994 1142.74 27.9517C1142.74 28.7969 1142.59 29.5355 1142.28 30.1676C1141.97 30.7997 1141.53 31.2915 1140.98 31.6431C1140.42 31.9947 1139.78 32.1705 1139.04 32.1705ZM1139.04 31.0412C1139.6 31.0412 1140.06 30.8974 1140.42 30.6097C1140.78 30.3221 1141.05 29.9439 1141.23 29.4751C1141.4 29.0064 1141.49 28.4986 1141.49 27.9517C1141.49 27.4048 1141.4 26.8952 1141.23 26.4229C1141.05 25.9506 1140.78 25.5689 1140.42 25.2777C1140.06 24.9865 1139.6 24.8409 1139.04 24.8409C1138.48 24.8409 1138.01 24.9865 1137.65 25.2777C1137.29 25.5689 1137.02 25.9506 1136.85 26.4229C1136.67 26.8952 1136.59 27.4048 1136.59 27.9517C1136.59 28.4986 1136.67 29.0064 1136.85 29.4751C1137.02 29.9439 1137.29 30.3221 1137.65 30.6097C1138.01 30.8974 1138.48 31.0412 1139.04 31.0412ZM1144.66 32V23.8182H1145.88V25.054H1145.96C1146.11 24.6491 1146.38 24.3207 1146.77 24.0685C1147.16 23.8164 1147.6 23.6903 1148.09 23.6903C1148.19 23.6903 1148.3 23.6921 1148.44 23.6957C1148.58 23.6992 1148.68 23.7045 1148.75 23.7116V24.9901C1148.71 24.9794 1148.61 24.9634 1148.46 24.9421C1148.31 24.9173 1148.15 24.9048 1147.99 24.9048C1147.59 24.9048 1147.23 24.9883 1146.92 25.1552C1146.61 25.3185 1146.37 25.5458 1146.19 25.837C1146.01 26.1246 1145.92 26.4531 1145.92 26.8224V32H1144.66ZM1154.32 23.8182V24.8835H1150.08V23.8182H1154.32ZM1151.31 21.858H1152.57V29.6562C1152.57 30.0114 1152.62 30.2777 1152.72 30.4553C1152.83 30.6293 1152.96 30.7464 1153.13 30.8068C1153.29 30.8636 1153.47 30.892 1153.65 30.892C1153.79 30.892 1153.91 30.8849 1154 30.8707C1154.08 30.853 1154.16 30.8388 1154.21 30.8281L1154.46 31.9574C1154.38 31.9893 1154.26 32.0213 1154.11 32.0533C1153.95 32.0888 1153.76 32.1065 1153.53 32.1065C1153.17 32.1065 1152.82 32.0302 1152.48 31.8775C1152.15 31.7248 1151.86 31.4922 1151.64 31.1797C1151.42 30.8672 1151.31 30.473 1151.31 29.9972V21.858Z" fill="#8C57FF"/>
</svg>
