<svg width="1280" height="58" viewBox="0 0 1280 58" fill="none" xmlns="http://www.w3.org/2000/svg">
<rect width="1280" height="58" fill="white"/>
<path d="M24 29C24 18.5066 32.5066 10 43 10H183C193.493 10 202 18.5066 202 29C202 39.4934 193.493 48 183 48H43C32.5066 48 24 39.4934 24 29Z" fill="#2E263D" fill-opacity="0.04"/>
<path d="M45.5 35.4169H56.5V26.3942L51 21.3947L45.5 26.3942V35.4169ZM57.4167 37.2503H44.5834C44.3402 37.2503 44.1071 37.1537 43.9352 36.9818C43.7633 36.8099 43.6667 36.5767 43.6667 36.3336V28.0836H40.9167L50.3831 19.4779C50.5519 19.3244 50.7718 19.2393 51 19.2393C51.2282 19.2393 51.4482 19.3244 51.6169 19.4779L61.0834 28.0836H58.3334V36.3336C58.3334 36.5767 58.2368 36.8099 58.0649 36.9818C57.893 37.1537 57.6598 37.2503 57.4167 37.2503ZM46.875 29.9169H48.7084C48.7084 30.5247 48.9498 31.1076 49.3796 31.5374C49.8093 31.9671 50.3922 32.2086 51 32.2086C51.6078 32.2086 52.1907 31.9671 52.6205 31.5374C53.0502 31.1076 53.2917 30.5247 53.2917 29.9169H55.125C55.125 31.0109 54.6904 32.0601 53.9168 32.8337C53.1432 33.6073 52.094 34.0419 51 34.0419C49.906 34.0419 48.8568 33.6073 48.0832 32.8337C47.3096 32.0601 46.875 31.0109 46.875 29.9169V29.9169Z" fill="#2E263D" fill-opacity="0.9"/>
<path d="M74.6875 34H71.321V23.0909H74.8366C75.8949 23.0909 76.8004 23.3093 77.5533 23.7461C78.3061 24.1793 78.8832 24.8026 79.2844 25.6158C79.6857 26.4254 79.8864 27.3949 79.8864 28.5241C79.8864 29.6605 79.6839 30.6388 79.2791 31.4592C78.8743 32.2759 78.2848 32.9045 77.5107 33.3448C76.7365 33.7816 75.7955 34 74.6875 34ZM72.642 32.8281H74.6023C75.5043 32.8281 76.2518 32.6541 76.8448 32.3061C77.4379 31.9581 77.88 31.4627 78.1712 30.82C78.4624 30.1772 78.608 29.4119 78.608 28.5241C78.608 27.6435 78.4641 26.8853 78.1765 26.2496C77.8888 25.6104 77.4592 25.1204 76.8874 24.7795C76.3157 24.435 75.6037 24.2628 74.7514 24.2628H72.642V32.8281ZM84.3395 34.1918C83.821 34.1918 83.3505 34.0941 82.9279 33.8988C82.5053 33.6999 82.1697 33.4141 81.9212 33.0412C81.6726 32.6648 81.5483 32.2102 81.5483 31.6776C81.5483 31.2088 81.6406 30.8288 81.8253 30.5376C82.0099 30.2429 82.2567 30.0121 82.5657 29.8452C82.8746 29.6783 83.2156 29.554 83.5884 29.4723C83.9648 29.3871 84.343 29.3196 84.723 29.2699C85.2202 29.206 85.6232 29.158 85.9322 29.1261C86.2447 29.0906 86.4719 29.032 86.614 28.9503C86.7596 28.8686 86.8324 28.7266 86.8324 28.5241V28.4815C86.8324 27.956 86.6886 27.5476 86.4009 27.2564C86.1168 26.9652 85.6854 26.8196 85.1065 26.8196C84.5064 26.8196 84.0359 26.951 83.695 27.2138C83.354 27.4766 83.1143 27.7571 82.9759 28.0554L81.7827 27.6293C81.9957 27.1321 82.2798 26.745 82.6349 26.468C82.9936 26.1875 83.3842 25.9922 83.8068 25.8821C84.233 25.7685 84.652 25.7116 85.0639 25.7116C85.3267 25.7116 85.6286 25.7436 85.9695 25.8075C86.3139 25.8679 86.646 25.994 86.9656 26.1857C87.2887 26.3775 87.5568 26.6669 87.7699 27.054C87.983 27.4411 88.0895 27.9595 88.0895 28.6094V34H86.8324V32.892H86.7685C86.6832 33.0696 86.5412 33.2596 86.3423 33.462C86.1435 33.6644 85.8789 33.8366 85.5487 33.9787C85.2184 34.1207 84.8153 34.1918 84.3395 34.1918ZM84.5312 33.0625C85.0284 33.0625 85.4474 32.9648 85.7884 32.7695C86.1328 32.5742 86.392 32.3221 86.5661 32.0131C86.7436 31.7042 86.8324 31.3793 86.8324 31.0384V29.8878C86.7791 29.9517 86.6619 30.0103 86.4808 30.0636C86.3033 30.1133 86.0973 30.1577 85.8629 30.1967C85.6321 30.2322 85.4066 30.2642 85.1864 30.2926C84.9698 30.3175 84.794 30.3388 84.6591 30.3565C84.3324 30.3991 84.027 30.4684 83.7429 30.5643C83.4624 30.6566 83.2351 30.7969 83.0611 30.9851C82.8906 31.1697 82.8054 31.4219 82.8054 31.7415C82.8054 32.1783 82.967 32.5085 83.2901 32.7322C83.6168 32.9524 84.0305 33.0625 84.5312 33.0625ZM96.1794 27.6506L95.0502 27.9702C94.9791 27.782 94.8744 27.5991 94.7359 27.4215C94.6009 27.2404 94.4163 27.0913 94.1819 26.9741C93.9475 26.8569 93.6475 26.7983 93.2817 26.7983C92.781 26.7983 92.3637 26.9137 92.0299 27.1445C91.6997 27.3718 91.5345 27.6612 91.5345 28.0128C91.5345 28.3253 91.6482 28.5721 91.8754 28.7532C92.1027 28.9343 92.4578 29.0852 92.9408 29.206L94.1553 29.5043C94.8868 29.6818 95.4319 29.9535 95.7906 30.3192C96.1492 30.6815 96.3286 31.1484 96.3286 31.7202C96.3286 32.1889 96.1936 32.608 95.9237 32.9773C95.6574 33.3466 95.2845 33.6378 94.8051 33.8509C94.3257 34.0639 93.7682 34.1705 93.1325 34.1705C92.298 34.1705 91.6073 33.9893 91.0605 33.6271C90.5136 33.2649 90.1673 32.7358 90.0218 32.0398L91.2149 31.7415C91.3286 32.1818 91.5434 32.5121 91.8595 32.7322C92.1791 32.9524 92.5963 33.0625 93.1112 33.0625C93.6972 33.0625 94.1624 32.9382 94.5068 32.6896C94.8548 32.4375 95.0289 32.1357 95.0289 31.7841C95.0289 31.5 94.9294 31.2621 94.7306 31.0703C94.5317 30.875 94.2263 30.7294 93.8144 30.6335L92.4507 30.3139C91.7014 30.1364 91.151 29.8612 90.7994 29.4883C90.4514 29.1119 90.2774 28.6413 90.2774 28.0767C90.2774 27.6151 90.407 27.2067 90.6663 26.8516C90.9291 26.4964 91.286 26.2177 91.7369 26.0153C92.1915 25.8129 92.7064 25.7116 93.2817 25.7116C94.0914 25.7116 94.727 25.8892 95.1887 26.2443C95.6539 26.5994 95.9841 27.0682 96.1794 27.6506ZM99.478 29.0781V34H98.2209V23.0909H99.478V27.0966H99.5845C99.7763 26.674 100.064 26.3384 100.447 26.0898C100.835 25.8377 101.349 25.7116 101.992 25.7116C102.55 25.7116 103.038 25.8235 103.457 26.0472C103.876 26.2674 104.201 26.6065 104.432 27.0646C104.666 27.5192 104.783 28.098 104.783 28.8011V34H103.526V28.8864C103.526 28.2365 103.358 27.734 103.02 27.3789C102.686 27.0202 102.223 26.8409 101.63 26.8409C101.218 26.8409 100.849 26.9279 100.522 27.1019C100.199 27.2759 99.9432 27.5298 99.755 27.8636C99.5703 28.1974 99.478 28.6023 99.478 29.0781ZM107.254 34V23.0909H108.511V27.1179H108.617C108.71 26.9759 108.837 26.7947 109.001 26.5746C109.168 26.3509 109.406 26.152 109.715 25.978C110.027 25.8004 110.45 25.7116 110.982 25.7116C111.671 25.7116 112.278 25.8839 112.804 26.2283C113.33 26.5728 113.74 27.0611 114.035 27.6932C114.329 28.3253 114.477 29.071 114.477 29.9304C114.477 30.7969 114.329 31.5479 114.035 32.1836C113.74 32.8157 113.331 33.3058 112.809 33.6538C112.287 33.9982 111.685 34.1705 111.004 34.1705C110.478 34.1705 110.057 34.0835 109.741 33.9094C109.425 33.7319 109.182 33.5312 109.011 33.3075C108.841 33.0803 108.71 32.892 108.617 32.7429H108.468V34H107.254ZM108.489 29.9091C108.489 30.527 108.58 31.0721 108.761 31.5444C108.942 32.0131 109.207 32.3807 109.555 32.647C109.903 32.9098 110.329 33.0412 110.833 33.0412C111.359 33.0412 111.797 32.9027 112.149 32.6257C112.504 32.3452 112.77 31.9687 112.948 31.4964C113.129 31.0206 113.22 30.4915 113.22 29.9091C113.22 29.3338 113.131 28.8153 112.953 28.3537C112.779 27.8885 112.515 27.521 112.16 27.2511C111.808 26.9776 111.366 26.8409 110.833 26.8409C110.322 26.8409 109.892 26.9705 109.544 27.2298C109.196 27.4854 108.933 27.8441 108.756 28.3058C108.578 28.7638 108.489 29.2983 108.489 29.9091ZM119.723 34.1705C118.985 34.1705 118.337 33.9947 117.779 33.6431C117.225 33.2915 116.792 32.7997 116.479 32.1676C116.171 31.5355 116.016 30.7969 116.016 29.9517C116.016 29.0994 116.171 28.3555 116.479 27.7198C116.792 27.0842 117.225 26.5906 117.779 26.239C118.337 25.8874 118.985 25.7116 119.723 25.7116C120.462 25.7116 121.108 25.8874 121.662 26.239C122.22 26.5906 122.653 27.0842 122.962 27.7198C123.275 28.3555 123.431 29.0994 123.431 29.9517C123.431 30.7969 123.275 31.5355 122.962 32.1676C122.653 32.7997 122.22 33.2915 121.662 33.6431C121.108 33.9947 120.462 34.1705 119.723 34.1705ZM119.723 33.0412C120.285 33.0412 120.746 32.8974 121.108 32.6097C121.471 32.3221 121.739 31.9439 121.913 31.4751C122.087 31.0064 122.174 30.4986 122.174 29.9517C122.174 29.4048 122.087 28.8952 121.913 28.4229C121.739 27.9506 121.471 27.5689 121.108 27.2777C120.746 26.9865 120.285 26.8409 119.723 26.8409C119.162 26.8409 118.701 26.9865 118.339 27.2777C117.976 27.5689 117.708 27.9506 117.534 28.4229C117.36 28.8952 117.273 29.4048 117.273 29.9517C117.273 30.4986 117.36 31.0064 117.534 31.4751C117.708 31.9439 117.976 32.3221 118.339 32.6097C118.701 32.8974 119.162 33.0412 119.723 33.0412ZM127.757 34.1918C127.239 34.1918 126.768 34.0941 126.346 33.8988C125.923 33.6999 125.588 33.4141 125.339 33.0412C125.091 32.6648 124.966 32.2102 124.966 31.6776C124.966 31.2088 125.059 30.8288 125.243 30.5376C125.428 30.2429 125.675 30.0121 125.984 29.8452C126.293 29.6783 126.634 29.554 127.006 29.4723C127.383 29.3871 127.761 29.3196 128.141 29.2699C128.638 29.206 129.041 29.158 129.35 29.1261C129.663 29.0906 129.89 29.032 130.032 28.9503C130.178 28.8686 130.25 28.7266 130.25 28.5241V28.4815C130.25 27.956 130.107 27.5476 129.819 27.2564C129.535 26.9652 129.103 26.8196 128.525 26.8196C127.924 26.8196 127.454 26.951 127.113 27.2138C126.772 27.4766 126.532 27.7571 126.394 28.0554L125.201 27.6293C125.414 27.1321 125.698 26.745 126.053 26.468C126.412 26.1875 126.802 25.9922 127.225 25.8821C127.651 25.7685 128.07 25.7116 128.482 25.7116C128.745 25.7116 129.047 25.7436 129.387 25.8075C129.732 25.8679 130.064 25.994 130.384 26.1857C130.707 26.3775 130.975 26.6669 131.188 27.054C131.401 27.4411 131.507 27.9595 131.507 28.6094V34H130.25V32.892H130.186C130.101 33.0696 129.959 33.2596 129.76 33.462C129.561 33.6644 129.297 33.8366 128.967 33.9787C128.636 34.1207 128.233 34.1918 127.757 34.1918ZM127.949 33.0625C128.446 33.0625 128.865 32.9648 129.206 32.7695C129.551 32.5742 129.81 32.3221 129.984 32.0131C130.162 31.7042 130.25 31.3793 130.25 31.0384V29.8878C130.197 29.9517 130.08 30.0103 129.899 30.0636C129.721 30.1133 129.515 30.1577 129.281 30.1967C129.05 30.2322 128.825 30.2642 128.604 30.2926C128.388 30.3175 128.212 30.3388 128.077 30.3565C127.75 30.3991 127.445 30.4684 127.161 30.5643C126.88 30.6566 126.653 30.7969 126.479 30.9851C126.309 31.1697 126.223 31.4219 126.223 31.7415C126.223 32.1783 126.385 32.5085 126.708 32.7322C127.035 32.9524 127.449 33.0625 127.949 33.0625ZM133.802 34V25.8182H135.016V27.054H135.102C135.251 26.6491 135.521 26.3207 135.911 26.0685C136.302 25.8164 136.742 25.6903 137.232 25.6903C137.325 25.6903 137.44 25.6921 137.579 25.6957C137.717 25.6992 137.822 25.7045 137.893 25.7116V26.9901C137.85 26.9794 137.753 26.9634 137.6 26.9421C137.451 26.9173 137.293 26.9048 137.126 26.9048C136.728 26.9048 136.373 26.9883 136.06 27.1552C135.752 27.3185 135.506 27.5458 135.325 27.837C135.148 28.1246 135.059 28.4531 135.059 28.8224V34H133.802ZM142.223 34.1705C141.542 34.1705 140.94 33.9982 140.418 33.6538C139.896 33.3058 139.487 32.8157 139.193 32.1836C138.898 31.5479 138.75 30.7969 138.75 29.9304C138.75 29.071 138.898 28.3253 139.193 27.6932C139.487 27.0611 139.897 26.5728 140.423 26.2283C140.949 25.8839 141.556 25.7116 142.245 25.7116C142.777 25.7116 143.198 25.8004 143.507 25.978C143.82 26.152 144.058 26.3509 144.221 26.5746C144.388 26.7947 144.517 26.9759 144.61 27.1179H144.716V23.0909H145.973V34H144.759V32.7429H144.61C144.517 32.892 144.386 33.0803 144.216 33.3075C144.045 33.5312 143.802 33.7319 143.486 33.9094C143.17 34.0835 142.749 34.1705 142.223 34.1705ZM142.394 33.0412C142.898 33.0412 143.324 32.9098 143.672 32.647C144.02 32.3807 144.285 32.0131 144.466 31.5444C144.647 31.0721 144.738 30.527 144.738 29.9091C144.738 29.2983 144.649 28.7638 144.471 28.3058C144.294 27.8441 144.031 27.4854 143.683 27.2298C143.335 26.9705 142.905 26.8409 142.394 26.8409C141.861 26.8409 141.417 26.9776 141.062 27.2511C140.711 27.521 140.446 27.8885 140.269 28.3537C140.095 28.8153 140.008 29.3338 140.008 29.9091C140.008 30.4915 140.096 31.0206 140.274 31.4964C140.455 31.9687 140.721 32.3452 141.073 32.6257C141.428 32.9027 141.868 33.0412 142.394 33.0412ZM154.246 27.6506L153.117 27.9702C153.046 27.782 152.941 27.5991 152.802 27.4215C152.667 27.2404 152.483 27.0913 152.248 26.9741C152.014 26.8569 151.714 26.7983 151.348 26.7983C150.847 26.7983 150.43 26.9137 150.096 27.1445C149.766 27.3718 149.601 27.6612 149.601 28.0128C149.601 28.3253 149.715 28.5721 149.942 28.7532C150.169 28.9343 150.524 29.0852 151.007 29.206L152.222 29.5043C152.953 29.6818 153.498 29.9535 153.857 30.3192C154.216 30.6815 154.395 31.1484 154.395 31.7202C154.395 32.1889 154.26 32.608 153.99 32.9773C153.724 33.3466 153.351 33.6378 152.872 33.8509C152.392 34.0639 151.835 34.1705 151.199 34.1705C150.364 34.1705 149.674 33.9893 149.127 33.6271C148.58 33.2649 148.234 32.7358 148.088 32.0398L149.281 31.7415C149.395 32.1818 149.61 32.5121 149.926 32.7322C150.245 32.9524 150.663 33.0625 151.178 33.0625C151.764 33.0625 152.229 32.9382 152.573 32.6896C152.921 32.4375 153.095 32.1357 153.095 31.7841C153.095 31.5 152.996 31.2621 152.797 31.0703C152.598 30.875 152.293 30.7294 151.881 30.6335L150.517 30.3139C149.768 30.1364 149.217 29.8612 148.866 29.4883C148.518 29.1119 148.344 28.6413 148.344 28.0767C148.344 27.6151 148.473 27.2067 148.733 26.8516C148.995 26.4964 149.352 26.2177 149.803 26.0153C150.258 25.8129 150.773 25.7116 151.348 25.7116C152.158 25.7116 152.793 25.8892 153.255 26.2443C153.72 26.5994 154.051 27.0682 154.246 27.6506Z" fill="#2E263D" fill-opacity="0.9"/>
<path d="M175 30.0741L179.537 25.5366L180.834 26.8328L175 32.6665L169.166 26.8328L170.462 25.5366L175 30.0741Z" fill="#2E263D" fill-opacity="0.9"/>
<g filter="url(#filter0_d_8003_3329)">
<path d="M210 29C210 18.5066 218.507 10 229 10H320C330.493 10 339 18.5066 339 29C339 39.4934 330.493 48 320 48H229C218.507 48 210 39.4934 210 29Z" fill="url(#paint0_linear_8003_3329)"/>
<path d="M228.056 24.2829L236.532 19.2009C236.675 19.1155 236.838 19.0703 237.004 19.0703C237.17 19.0703 237.333 19.1155 237.476 19.2009L245.944 24.2839C246.012 24.3246 246.068 24.3822 246.107 24.4511C246.146 24.52 246.167 24.5979 246.167 24.6771V36.3334C246.167 36.5766 246.07 36.8097 245.898 36.9816C245.726 37.1535 245.493 37.2501 245.25 37.2501H228.75C228.507 37.2501 228.274 37.1535 228.102 36.9816C227.93 36.8097 227.833 36.5766 227.833 36.3334V24.6762C227.833 24.597 227.854 24.5191 227.893 24.4502C227.932 24.3813 227.988 24.3237 228.056 24.2829ZM229.667 25.4554V35.4168H244.333V25.4544L237.004 21.0544L229.667 25.4544V25.4554ZM237.055 30.5566L241.91 26.4655L243.09 27.868L237.068 32.9436L230.917 27.8744L232.083 26.4591L237.055 30.5566V30.5566Z" fill="white"/>
<path d="M257.768 34H256.384L260.389 23.0909H261.753L265.759 34H264.374L261.114 24.8168H261.028L257.768 34ZM258.28 29.7386H263.862V30.9105H258.28V29.7386ZM267.287 37.0682V25.8182H268.502V27.1179H268.651C268.743 26.9759 268.871 26.7947 269.034 26.5746C269.201 26.3509 269.439 26.152 269.748 25.978C270.061 25.8004 270.483 25.7116 271.016 25.7116C271.705 25.7116 272.312 25.8839 272.838 26.2283C273.363 26.5728 273.773 27.0611 274.068 27.6932C274.363 28.3253 274.51 29.071 274.51 29.9304C274.51 30.7969 274.363 31.5479 274.068 32.1836C273.773 32.8157 273.365 33.3058 272.843 33.6538C272.321 33.9982 271.719 34.1705 271.037 34.1705C270.512 34.1705 270.091 34.0835 269.775 33.9094C269.459 33.7319 269.216 33.5312 269.045 33.3075C268.875 33.0803 268.743 32.892 268.651 32.7429H268.544V37.0682H267.287ZM268.523 29.9091C268.523 30.527 268.614 31.0721 268.795 31.5444C268.976 32.0131 269.24 32.3807 269.588 32.647C269.936 32.9098 270.363 33.0412 270.867 33.0412C271.392 33.0412 271.831 32.9027 272.183 32.6257C272.538 32.3452 272.804 31.9687 272.982 31.4964C273.163 31.0206 273.253 30.4915 273.253 29.9091C273.253 29.3338 273.164 28.8153 272.987 28.3537C272.813 27.8885 272.548 27.521 272.193 27.2511C271.842 26.9776 271.4 26.8409 270.867 26.8409C270.355 26.8409 269.926 26.9705 269.578 27.2298C269.23 27.4854 268.967 27.8441 268.789 28.3058C268.612 28.7638 268.523 29.2983 268.523 29.9091ZM276.428 37.0682V25.8182H277.642V27.1179H277.792C277.884 26.9759 278.012 26.7947 278.175 26.5746C278.342 26.3509 278.58 26.152 278.889 25.978C279.201 25.8004 279.624 25.7116 280.157 25.7116C280.846 25.7116 281.453 25.8839 281.978 26.2283C282.504 26.5728 282.914 27.0611 283.209 27.6932C283.504 28.3253 283.651 29.071 283.651 29.9304C283.651 30.7969 283.504 31.5479 283.209 32.1836C282.914 32.8157 282.506 33.3058 281.984 33.6538C281.462 33.9982 280.86 34.1705 280.178 34.1705C279.652 34.1705 279.232 34.0835 278.915 33.9094C278.599 33.7319 278.356 33.5312 278.186 33.3075C278.015 33.0803 277.884 32.892 277.792 32.7429H277.685V37.0682H276.428ZM277.664 29.9091C277.664 30.527 277.754 31.0721 277.935 31.5444C278.116 32.0131 278.381 32.3807 278.729 32.647C279.077 32.9098 279.503 33.0412 280.007 33.0412C280.533 33.0412 280.972 32.9027 281.323 32.6257C281.678 32.3452 281.945 31.9687 282.122 31.4964C282.303 31.0206 282.394 30.4915 282.394 29.9091C282.394 29.3338 282.305 28.8153 282.127 28.3537C281.953 27.8885 281.689 27.521 281.334 27.2511C280.982 26.9776 280.54 26.8409 280.007 26.8409C279.496 26.8409 279.066 26.9705 278.718 27.2298C278.37 27.4854 278.108 27.8441 277.93 28.3058C277.752 28.7638 277.664 29.2983 277.664 29.9091ZM291.364 27.6506L290.235 27.9702C290.164 27.782 290.059 27.5991 289.92 27.4215C289.786 27.2404 289.601 27.0913 289.366 26.9741C289.132 26.8569 288.832 26.7983 288.466 26.7983C287.966 26.7983 287.548 26.9137 287.214 27.1445C286.884 27.3718 286.719 27.6612 286.719 28.0128C286.719 28.3253 286.833 28.5721 287.06 28.7532C287.287 28.9343 287.642 29.0852 288.125 29.206L289.34 29.5043C290.071 29.6818 290.616 29.9535 290.975 30.3192C291.334 30.6815 291.513 31.1484 291.513 31.7202C291.513 32.1889 291.378 32.608 291.108 32.9773C290.842 33.3466 290.469 33.6378 289.99 33.8509C289.51 34.0639 288.953 34.1705 288.317 34.1705C287.483 34.1705 286.792 33.9893 286.245 33.6271C285.698 33.2649 285.352 32.7358 285.206 32.0398L286.4 31.7415C286.513 32.1818 286.728 32.5121 287.044 32.7322C287.364 32.9524 287.781 33.0625 288.296 33.0625C288.882 33.0625 289.347 32.9382 289.691 32.6896C290.039 32.4375 290.213 32.1357 290.213 31.7841C290.213 31.5 290.114 31.2621 289.915 31.0703C289.716 30.875 289.411 30.7294 288.999 30.6335L287.635 30.3139C286.886 30.1364 286.336 29.8612 285.984 29.4883C285.636 29.1119 285.462 28.6413 285.462 28.0767C285.462 27.6151 285.592 27.2067 285.851 26.8516C286.114 26.4964 286.471 26.2177 286.922 26.0153C287.376 25.8129 287.891 25.7116 288.466 25.7116C289.276 25.7116 289.912 25.8892 290.373 26.2443C290.838 26.5994 291.169 27.0682 291.364 27.6506Z" fill="white"/>
<path d="M312 30.0741L316.537 25.5366L317.834 26.8328L312 32.6665L306.166 26.8328L307.462 25.5366L312 30.0741Z" fill="white"/>
</g>
<path d="M368.284 25.3333L368.013 24.6641C367.968 24.5525 367.945 24.433 367.947 24.3126C367.948 24.1922 367.972 24.0732 368.019 23.9623C368.066 23.8515 368.135 23.751 368.221 23.6667C368.307 23.5823 368.408 23.5157 368.52 23.4706L377.019 20.0368C377.245 19.9459 377.497 19.9482 377.72 20.043C377.944 20.1379 378.121 20.3176 378.212 20.5428L383.364 33.2918C383.409 33.4034 383.432 33.5229 383.43 33.6433C383.429 33.7637 383.405 33.8827 383.358 33.9936C383.31 34.1044 383.242 34.2049 383.156 34.2892C383.07 34.3736 382.968 34.4402 382.857 34.4853L374.357 37.9191C374.246 37.9642 374.126 37.9869 374.006 37.9858C373.886 37.9848 373.767 37.96 373.656 37.9129C373.545 37.8659 373.444 37.7974 373.36 37.7115C373.276 37.6256 373.209 37.5239 373.164 37.4122L373.083 37.2133V37.25H369.417C369.174 37.25 368.94 37.1534 368.768 36.9815C368.597 36.8096 368.5 36.5764 368.5 36.3333V36.0858L365.429 34.8455C365.204 34.7544 365.024 34.5774 364.929 34.3536C364.834 34.1298 364.832 33.8774 364.923 33.652L368.284 25.3333ZM370.333 35.4166H372.358L370.333 30.4052V35.4166ZM368.5 29.693L366.966 33.4889L368.5 34.1406V29.693ZM370.056 24.8264L374.521 35.8759L381.32 33.1286L376.856 22.08L370.056 24.8264V24.8264ZM372.786 26.69C372.561 26.781 372.308 26.7787 372.085 26.6837C371.861 26.5886 371.684 26.4085 371.593 26.183C371.502 25.9575 371.504 25.7051 371.599 25.4813C371.694 25.2575 371.874 25.0806 372.1 24.9895C372.325 24.8984 372.578 24.9005 372.802 24.9955C373.026 25.0905 373.203 25.2705 373.294 25.496C373.385 25.7215 373.383 25.974 373.288 26.1979C373.193 26.4218 373.013 26.5988 372.787 26.69H372.786Z" fill="#2E263D" fill-opacity="0.9"/>
<path d="M401.48 23.0909H402.801V30.3139C402.801 31.0597 402.625 31.7255 402.274 32.3114C401.926 32.8938 401.434 33.3537 400.798 33.6911C400.163 34.0249 399.417 34.1918 398.561 34.1918C397.705 34.1918 396.96 34.0249 396.324 33.6911C395.688 33.3537 395.195 32.8938 394.843 32.3114C394.495 31.7255 394.321 31.0597 394.321 30.3139V23.0909H395.642V30.2074C395.642 30.7401 395.759 31.2141 395.994 31.6296C396.228 32.0415 396.562 32.3665 396.995 32.6044C397.432 32.8388 397.954 32.956 398.561 32.956C399.168 32.956 399.69 32.8388 400.127 32.6044C400.564 32.3665 400.898 32.0415 401.129 31.6296C401.363 31.2141 401.48 30.7401 401.48 30.2074V23.0909ZM406.76 23.0909V34H405.439V23.0909H406.76Z" fill="#2E263D" fill-opacity="0.9"/>
<path d="M434 30.0741L438.537 25.5366L439.834 26.8328L434 32.6665L428.166 26.8328L429.462 25.5366L434 30.0741Z" fill="#2E263D" fill-opacity="0.9"/>
<path d="M503.333 38.1668H488.667C488.424 38.1668 488.19 38.0703 488.018 37.8983C487.847 37.7264 487.75 37.4933 487.75 37.2502V20.7502C487.75 20.507 487.847 20.2739 488.018 20.102C488.19 19.9301 488.424 19.8335 488.667 19.8335H503.333C503.576 19.8335 503.81 19.9301 503.982 20.102C504.153 20.2739 504.25 20.507 504.25 20.7502V37.2502C504.25 37.4933 504.153 37.7264 503.982 37.8983C503.81 38.0703 503.576 38.1668 503.333 38.1668ZM502.417 36.3335V21.6668H489.583V36.3335H502.417ZM492.333 24.4168H499.667V26.2502H492.333V24.4168ZM492.333 28.0835H499.667V29.9168H492.333V28.0835ZM492.333 31.7502H496.917V33.5835H492.333V31.7502Z" fill="#2E263D" fill-opacity="0.9"/>
<path d="M516.321 34V23.0909H520.007C520.863 23.0909 521.563 23.2454 522.106 23.5543C522.653 23.8597 523.058 24.2734 523.32 24.7955C523.583 25.3175 523.714 25.8999 523.714 26.5426C523.714 27.1854 523.583 27.7695 523.32 28.2951C523.061 28.8207 522.66 29.2397 522.116 29.5522C521.573 29.8612 520.877 30.0156 520.028 30.0156H517.386V28.8438H519.986C520.572 28.8438 521.042 28.7425 521.397 28.5401C521.752 28.3377 522.01 28.0643 522.17 27.7198C522.333 27.3718 522.415 26.9794 522.415 26.5426C522.415 26.1058 522.333 25.7152 522.17 25.3707C522.01 25.0263 521.751 24.7564 521.392 24.5611C521.033 24.3622 520.558 24.2628 519.964 24.2628H517.642V34H516.321ZM528.08 34.1918C527.561 34.1918 527.091 34.0941 526.668 33.8988C526.246 33.6999 525.91 33.4141 525.661 33.0412C525.413 32.6648 525.289 32.2102 525.289 31.6776C525.289 31.2088 525.381 30.8288 525.566 30.5376C525.75 30.2429 525.997 30.0121 526.306 29.8452C526.615 29.6783 526.956 29.554 527.329 29.4723C527.705 29.3871 528.083 29.3196 528.463 29.2699C528.96 29.206 529.363 29.158 529.672 29.1261C529.985 29.0906 530.212 29.032 530.354 28.9503C530.5 28.8686 530.573 28.7266 530.573 28.5241V28.4815C530.573 27.956 530.429 27.5476 530.141 27.2564C529.857 26.9652 529.426 26.8196 528.847 26.8196C528.247 26.8196 527.776 26.951 527.435 27.2138C527.094 27.4766 526.855 27.7571 526.716 28.0554L525.523 27.6293C525.736 27.1321 526.02 26.745 526.375 26.468C526.734 26.1875 527.124 25.9922 527.547 25.8821C527.973 25.7685 528.392 25.7116 528.804 25.7116C529.067 25.7116 529.369 25.7436 529.71 25.8075C530.054 25.8679 530.386 25.994 530.706 26.1857C531.029 26.3775 531.297 26.6669 531.51 27.054C531.723 27.4411 531.83 27.9595 531.83 28.6094V34H530.573V32.892H530.509C530.423 33.0696 530.281 33.2596 530.083 33.462C529.884 33.6644 529.619 33.8366 529.289 33.9787C528.959 34.1207 528.556 34.1918 528.08 34.1918ZM528.271 33.0625C528.769 33.0625 529.188 32.9648 529.529 32.7695C529.873 32.5742 530.132 32.3221 530.306 32.0131C530.484 31.7042 530.573 31.3793 530.573 31.0384V29.8878C530.519 29.9517 530.402 30.0103 530.221 30.0636C530.044 30.1133 529.838 30.1577 529.603 30.1967C529.372 30.2322 529.147 30.2642 528.927 30.2926C528.71 30.3175 528.534 30.3388 528.399 30.3565C528.073 30.3991 527.767 30.4684 527.483 30.5643C527.203 30.6566 526.975 30.7969 526.801 30.9851C526.631 31.1697 526.546 31.4219 526.546 31.7415C526.546 32.1783 526.707 32.5085 527.03 32.7322C527.357 32.9524 527.771 33.0625 528.271 33.0625ZM537.427 37.2386C536.82 37.2386 536.297 37.1605 535.861 37.0043C535.424 36.8516 535.06 36.6491 534.769 36.397C534.481 36.1484 534.252 35.8821 534.082 35.598L535.083 34.8949C535.197 35.044 535.34 35.2145 535.514 35.4062C535.688 35.6016 535.926 35.7702 536.228 35.9123C536.534 36.0579 536.933 36.1307 537.427 36.1307C538.087 36.1307 538.632 35.9709 539.062 35.6513C539.492 35.3317 539.707 34.831 539.707 34.1491V32.4872H539.6C539.508 32.6364 539.376 32.821 539.206 33.0412C539.039 33.2578 538.797 33.4513 538.481 33.6218C538.169 33.7887 537.746 33.8722 537.214 33.8722C536.553 33.8722 535.96 33.7159 535.435 33.4034C534.913 33.0909 534.499 32.6364 534.193 32.0398C533.892 31.4432 533.741 30.7187 533.741 29.8665C533.741 29.0284 533.888 28.2987 534.183 27.6772C534.478 27.0522 534.888 26.5692 535.413 26.2283C535.939 25.8839 536.546 25.7116 537.235 25.7116C537.768 25.7116 538.19 25.8004 538.503 25.978C538.819 26.152 539.06 26.3509 539.227 26.5746C539.398 26.7947 539.529 26.9759 539.621 27.1179H539.749V25.8182H540.964V34.2344C540.964 34.9375 540.804 35.5092 540.484 35.9496C540.168 36.3935 539.742 36.7184 539.206 36.9244C538.673 37.1339 538.08 37.2386 537.427 37.2386ZM537.384 32.7429C537.888 32.7429 538.315 32.6275 538.663 32.3967C539.011 32.1658 539.275 31.8338 539.456 31.4006C539.637 30.9673 539.728 30.4489 539.728 29.8452C539.728 29.2557 539.639 28.7354 539.462 28.2844C539.284 27.8335 539.021 27.4801 538.673 27.2244C538.325 26.9687 537.896 26.8409 537.384 26.8409C536.851 26.8409 536.408 26.9759 536.052 27.2457C535.701 27.5156 535.436 27.8778 535.259 28.3324C535.085 28.7869 534.998 29.2912 534.998 29.8452C534.998 30.4134 535.087 30.9158 535.264 31.3526C535.445 31.7859 535.712 32.1268 536.063 32.3754C536.418 32.6204 536.859 32.7429 537.384 32.7429ZM546.695 34.1705C545.907 34.1705 545.227 33.9964 544.655 33.6484C544.087 33.2969 543.648 32.8068 543.339 32.1783C543.034 31.5462 542.881 30.8111 542.881 29.973C542.881 29.1349 543.034 28.3963 543.339 27.7571C543.648 27.1143 544.078 26.6136 544.628 26.255C545.182 25.8928 545.829 25.7116 546.567 25.7116C546.994 25.7116 547.414 25.7827 547.83 25.9247C548.245 26.0668 548.623 26.2976 548.964 26.6172C549.305 26.9332 549.577 27.3523 549.779 27.8743C549.982 28.3963 550.083 29.0391 550.083 29.8026V30.3352H543.776V29.2486H548.805C548.805 28.7869 548.712 28.375 548.528 28.0128C548.347 27.6506 548.087 27.3647 547.75 27.1552C547.416 26.9457 547.022 26.8409 546.567 26.8409C546.067 26.8409 545.633 26.9652 545.268 27.2138C544.905 27.4588 544.627 27.7784 544.431 28.1726C544.236 28.5668 544.138 28.9893 544.138 29.4403V30.1648C544.138 30.7827 544.245 31.3065 544.458 31.7362C544.675 32.1623 544.975 32.4872 545.358 32.7109C545.742 32.9311 546.187 33.0412 546.695 33.0412C547.025 33.0412 547.324 32.995 547.59 32.9027C547.86 32.8068 548.093 32.6648 548.288 32.4766C548.483 32.2848 548.634 32.0469 548.741 31.7628L549.955 32.1037C549.827 32.5156 549.612 32.8778 549.311 33.1903C549.009 33.4993 548.636 33.7408 548.192 33.9148C547.748 34.0852 547.249 34.1705 546.695 34.1705ZM557.791 27.6506L556.661 27.9702C556.59 27.782 556.486 27.5991 556.347 27.4215C556.212 27.2404 556.028 27.0913 555.793 26.9741C555.559 26.8569 555.259 26.7983 554.893 26.7983C554.392 26.7983 553.975 26.9137 553.641 27.1445C553.311 27.3718 553.146 27.6612 553.146 28.0128C553.146 28.3253 553.259 28.5721 553.487 28.7532C553.714 28.9343 554.069 29.0852 554.552 29.206L555.767 29.5043C556.498 29.6818 557.043 29.9535 557.402 30.3192C557.761 30.6815 557.94 31.1484 557.94 31.7202C557.94 32.1889 557.805 32.608 557.535 32.9773C557.269 33.3466 556.896 33.6378 556.416 33.8509C555.937 34.0639 555.38 34.1705 554.744 34.1705C553.909 34.1705 553.219 33.9893 552.672 33.6271C552.125 33.2649 551.779 32.7358 551.633 32.0398L552.826 31.7415C552.94 32.1818 553.155 32.5121 553.471 32.7322C553.79 32.9524 554.208 33.0625 554.723 33.0625C555.309 33.0625 555.774 32.9382 556.118 32.6896C556.466 32.4375 556.64 32.1357 556.64 31.7841C556.64 31.5 556.541 31.2621 556.342 31.0703C556.143 30.875 555.838 30.7294 555.426 30.6335L554.062 30.3139C553.313 30.1364 552.762 29.8612 552.411 29.4883C552.063 29.1119 551.889 28.6413 551.889 28.0767C551.889 27.6151 552.018 27.2067 552.278 26.8516C552.54 26.4964 552.897 26.2177 553.348 26.0153C553.803 25.8129 554.318 25.7116 554.893 25.7116C555.703 25.7116 556.338 25.8892 556.8 26.2443C557.265 26.5994 557.595 27.0682 557.791 27.6506Z" fill="#2E263D" fill-opacity="0.9"/>
<path d="M578 30.0741L582.537 25.5366L583.834 26.8328L578 32.6665L572.166 26.8328L573.462 25.5366L578 30.0741Z" fill="#2E263D" fill-opacity="0.9"/>
<path d="M633.583 25.3335V36.3335H646.417V25.3335H633.583ZM633.583 23.5002H646.417V21.6668H633.583V23.5002ZM647.333 38.1668H632.667C632.424 38.1668 632.19 38.0703 632.018 37.8983C631.847 37.7264 631.75 37.4933 631.75 37.2502V20.7502C631.75 20.507 631.847 20.2739 632.018 20.102C632.19 19.9301 632.424 19.8335 632.667 19.8335H647.333C647.576 19.8335 647.81 19.9301 647.982 20.102C648.153 20.2739 648.25 20.507 648.25 20.7502V37.2502C648.25 37.4933 648.153 37.7264 647.982 37.8983C647.81 38.0703 647.576 38.1668 647.333 38.1668ZM635.417 27.1668H639.083V30.8335H635.417V27.1668ZM635.417 32.6668H644.583V34.5002H635.417V32.6668ZM640.917 28.0835H644.583V29.9168H640.917V28.0835Z" fill="#2E263D" fill-opacity="0.9"/>
<path d="M660.321 34V23.0909H666.862V24.2628H661.642V27.9489H666.372V29.1207H661.642V34H660.321ZM671.678 34.1705C670.939 34.1705 670.291 33.9947 669.733 33.6431C669.179 33.2915 668.746 32.7997 668.434 32.1676C668.125 31.5355 667.97 30.7969 667.97 29.9517C667.97 29.0994 668.125 28.3555 668.434 27.7198C668.746 27.0842 669.179 26.5906 669.733 26.239C670.291 25.8874 670.939 25.7116 671.678 25.7116C672.416 25.7116 673.063 25.8874 673.616 26.239C674.174 26.5906 674.607 27.0842 674.916 27.7198C675.229 28.3555 675.385 29.0994 675.385 29.9517C675.385 30.7969 675.229 31.5355 674.916 32.1676C674.607 32.7997 674.174 33.2915 673.616 33.6431C673.063 33.9947 672.416 34.1705 671.678 34.1705ZM671.678 33.0412C672.239 33.0412 672.7 32.8974 673.062 32.6097C673.425 32.3221 673.693 31.9439 673.867 31.4751C674.041 31.0064 674.128 30.4986 674.128 29.9517C674.128 29.4048 674.041 28.8952 673.867 28.4229C673.693 27.9506 673.425 27.5689 673.062 27.2777C672.7 26.9865 672.239 26.8409 671.678 26.8409C671.116 26.8409 670.655 26.9865 670.293 27.2777C669.93 27.5689 669.662 27.9506 669.488 28.4229C669.314 28.8952 669.227 29.4048 669.227 29.9517C669.227 30.4986 669.314 31.0064 669.488 31.4751C669.662 31.9439 669.93 32.3221 670.293 32.6097C670.655 32.8974 671.116 33.0412 671.678 33.0412ZM677.304 34V25.8182H678.518V27.054H678.604C678.753 26.6491 679.023 26.3207 679.413 26.0685C679.804 25.8164 680.244 25.6903 680.734 25.6903C680.827 25.6903 680.942 25.6921 681.081 25.6957C681.219 25.6992 681.324 25.7045 681.395 25.7116V26.9901C681.352 26.9794 681.255 26.9634 681.102 26.9421C680.953 26.9173 680.795 26.9048 680.628 26.9048C680.23 26.9048 679.875 26.9883 679.562 27.1552C679.253 27.3185 679.008 27.5458 678.827 27.837C678.65 28.1246 678.561 28.4531 678.561 28.8224V34H677.304ZM682.885 34V25.8182H684.099V27.0966H684.206C684.376 26.6598 684.652 26.3207 685.032 26.0792C685.412 25.8342 685.868 25.7116 686.401 25.7116C686.94 25.7116 687.39 25.8342 687.748 26.0792C688.11 26.3207 688.393 26.6598 688.595 27.0966H688.68C688.89 26.674 689.204 26.3384 689.623 26.0898C690.042 25.8377 690.545 25.7116 691.131 25.7116C691.862 25.7116 692.461 25.9407 692.926 26.3988C693.391 26.8533 693.624 27.5618 693.624 28.5241V34H692.366V28.5241C692.366 27.9205 692.201 27.489 691.871 27.2298C691.541 26.9705 691.152 26.8409 690.705 26.8409C690.129 26.8409 689.684 27.0149 689.368 27.3629C689.051 27.7074 688.893 28.1442 688.893 28.6733V34H687.615V28.3963C687.615 27.9311 687.464 27.5565 687.162 27.2724C686.86 26.9847 686.472 26.8409 685.996 26.8409C685.669 26.8409 685.364 26.9279 685.08 27.1019C684.799 27.2759 684.572 27.5174 684.398 27.8263C684.227 28.1317 684.142 28.4851 684.142 28.8864V34H682.885ZM701.718 27.6506L700.588 27.9702C700.517 27.782 700.412 27.5991 700.274 27.4215C700.139 27.2404 699.954 27.0913 699.72 26.9741C699.486 26.8569 699.186 26.7983 698.82 26.7983C698.319 26.7983 697.902 26.9137 697.568 27.1445C697.238 27.3718 697.073 27.6612 697.073 28.0128C697.073 28.3253 697.186 28.5721 697.414 28.7532C697.641 28.9343 697.996 29.0852 698.479 29.206L699.693 29.5043C700.425 29.6818 700.97 29.9535 701.329 30.3192C701.687 30.6815 701.867 31.1484 701.867 31.7202C701.867 32.1889 701.732 32.608 701.462 32.9773C701.195 33.3466 700.823 33.6378 700.343 33.8509C699.864 34.0639 699.306 34.1705 698.671 34.1705C697.836 34.1705 697.145 33.9893 696.599 33.6271C696.052 33.2649 695.705 32.7358 695.56 32.0398L696.753 31.7415C696.867 32.1818 697.081 32.5121 697.398 32.7322C697.717 32.9524 698.134 33.0625 698.649 33.0625C699.235 33.0625 699.7 32.9382 700.045 32.6896C700.393 32.4375 700.567 32.1357 700.567 31.7841C700.567 31.5 700.468 31.2621 700.269 31.0703C700.07 30.875 699.764 30.7294 699.352 30.6335L697.989 30.3139C697.24 30.1364 696.689 29.8612 696.338 29.4883C695.99 29.1119 695.816 28.6413 695.816 28.0767C695.816 27.6151 695.945 27.2067 696.204 26.8516C696.467 26.4964 696.824 26.2177 697.275 26.0153C697.73 25.8129 698.244 25.7116 698.82 25.7116C699.629 25.7116 700.265 25.8892 700.727 26.2443C701.192 26.5994 701.522 27.0682 701.718 27.6506ZM711.067 34.1491C710.35 34.1491 709.732 34.0178 709.214 33.755C708.695 33.4922 708.296 33.1317 708.015 32.6737C707.734 32.2156 707.594 31.6918 707.594 31.1023C707.594 30.6477 707.69 30.2447 707.882 29.8931C708.077 29.538 708.345 29.2095 708.686 28.9077C709.031 28.6023 709.427 28.2969 709.874 27.9915L711.451 26.8196C711.76 26.6172 712.006 26.4006 712.191 26.1697C712.379 25.9389 712.473 25.6371 712.473 25.2642C712.473 24.9872 712.351 24.7191 712.106 24.4599C711.864 24.2006 711.547 24.071 711.152 24.071C710.875 24.071 710.63 24.142 710.417 24.2841C710.208 24.4226 710.043 24.6001 709.922 24.8168C709.805 25.0298 709.746 25.25 709.746 25.4773C709.746 25.733 709.815 25.9922 709.954 26.255C710.096 26.5142 710.275 26.7805 710.492 27.054C710.712 27.3239 710.939 27.6009 711.174 27.8849L716.181 34H714.668L710.535 29.0142C710.151 28.5526 709.803 28.1335 709.491 27.7571C709.178 27.3807 708.929 27.0096 708.745 26.6438C708.56 26.2781 708.468 25.8821 708.468 25.456C708.468 24.9659 708.576 24.5362 708.793 24.1669C709.013 23.794 709.32 23.5046 709.714 23.2987C710.112 23.0891 710.577 22.9844 711.11 22.9844C711.657 22.9844 712.127 23.0909 712.521 23.304C712.916 23.5135 713.219 23.7923 713.432 24.1403C713.645 24.4847 713.752 24.8594 713.752 25.2642C713.752 25.7862 713.622 26.239 713.363 26.6225C713.104 27.006 712.75 27.3629 712.303 27.6932L710.13 29.3125C709.64 29.6747 709.308 30.0263 709.134 30.3672C708.96 30.7081 708.873 30.9531 708.873 31.1023C708.873 31.4432 708.961 31.761 709.139 32.0558C709.316 32.3505 709.567 32.5884 709.89 32.7695C710.213 32.9506 710.591 33.0412 711.025 33.0412C711.437 33.0412 711.838 32.9542 712.228 32.7802C712.619 32.6026 712.972 32.3469 713.288 32.0131C713.608 31.6793 713.86 31.2781 714.045 30.8093C714.233 30.3406 714.327 29.8132 714.327 29.2273H715.542C715.542 29.9517 715.458 30.543 715.291 31.0011C715.124 31.4592 714.936 31.8178 714.727 32.0771C714.517 32.3363 714.348 32.5298 714.221 32.6577C714.178 32.7109 714.139 32.7642 714.103 32.8175C714.068 32.8707 714.029 32.924 713.986 32.9773C713.635 33.3714 713.191 33.6662 712.655 33.8615C712.118 34.0533 711.589 34.1491 711.067 34.1491ZM721.365 24.2628V23.0909H729.547V24.2628H726.116V34H724.795V24.2628H721.365ZM732.71 34.1918C732.191 34.1918 731.721 34.0941 731.298 33.8988C730.875 33.6999 730.54 33.4141 730.291 33.0412C730.043 32.6648 729.918 32.2102 729.918 31.6776C729.918 31.2088 730.011 30.8288 730.195 30.5376C730.38 30.2429 730.627 30.0121 730.936 29.8452C731.245 29.6783 731.586 29.554 731.959 29.4723C732.335 29.3871 732.713 29.3196 733.093 29.2699C733.59 29.206 733.993 29.158 734.302 29.1261C734.615 29.0906 734.842 29.032 734.984 28.9503C735.13 28.8686 735.203 28.7266 735.203 28.5241V28.4815C735.203 27.956 735.059 27.5476 734.771 27.2564C734.487 26.9652 734.055 26.8196 733.477 26.8196C732.877 26.8196 732.406 26.951 732.065 27.2138C731.724 27.4766 731.484 27.7571 731.346 28.0554L730.153 27.6293C730.366 27.1321 730.65 26.745 731.005 26.468C731.364 26.1875 731.754 25.9922 732.177 25.8821C732.603 25.7685 733.022 25.7116 733.434 25.7116C733.697 25.7116 733.999 25.7436 734.34 25.8075C734.684 25.8679 735.016 25.994 735.336 26.1857C735.659 26.3775 735.927 26.6669 736.14 27.054C736.353 27.4411 736.46 27.9595 736.46 28.6094V34H735.203V32.892H735.139C735.053 33.0696 734.911 33.2596 734.712 33.462C734.514 33.6644 734.249 33.8366 733.919 33.9787C733.589 34.1207 733.185 34.1918 732.71 34.1918ZM732.901 33.0625C733.399 33.0625 733.818 32.9648 734.158 32.7695C734.503 32.5742 734.762 32.3221 734.936 32.0131C735.114 31.7042 735.203 31.3793 735.203 31.0384V29.8878C735.149 29.9517 735.032 30.0103 734.851 30.0636C734.673 30.1133 734.467 30.1577 734.233 30.1967C734.002 30.2322 733.777 30.2642 733.557 30.2926C733.34 30.3175 733.164 30.3388 733.029 30.3565C732.703 30.3991 732.397 30.4684 732.113 30.5643C731.832 30.6566 731.605 30.7969 731.431 30.9851C731.261 31.1697 731.176 31.4219 731.176 31.7415C731.176 32.1783 731.337 32.5085 731.66 32.7322C731.987 32.9524 732.401 33.0625 732.901 33.0625ZM738.925 34V23.0909H740.182V27.1179H740.288C740.381 26.9759 740.508 26.7947 740.672 26.5746C740.839 26.3509 741.077 26.152 741.385 25.978C741.698 25.8004 742.121 25.7116 742.653 25.7116C743.342 25.7116 743.949 25.8839 744.475 26.2283C745.001 26.5728 745.411 27.0611 745.705 27.6932C746 28.3253 746.148 29.071 746.148 29.9304C746.148 30.7969 746 31.5479 745.705 32.1836C745.411 32.8157 745.002 33.3058 744.48 33.6538C743.958 33.9982 743.356 34.1705 742.675 34.1705C742.149 34.1705 741.728 34.0835 741.412 33.9094C741.096 33.7319 740.853 33.5312 740.682 33.3075C740.512 33.0803 740.381 32.892 740.288 32.7429H740.139V34H738.925ZM740.16 29.9091C740.16 30.527 740.251 31.0721 740.432 31.5444C740.613 32.0131 740.878 32.3807 741.226 32.647C741.574 32.9098 742 33.0412 742.504 33.0412C743.03 33.0412 743.468 32.9027 743.82 32.6257C744.175 32.3452 744.441 31.9687 744.619 31.4964C744.8 31.0206 744.89 30.4915 744.89 29.9091C744.89 29.3338 744.802 28.8153 744.624 28.3537C744.45 27.8885 744.186 27.521 743.83 27.2511C743.479 26.9776 743.037 26.8409 742.504 26.8409C741.993 26.8409 741.563 26.9705 741.215 27.2298C740.867 27.4854 740.604 27.8441 740.427 28.3058C740.249 28.7638 740.16 29.2983 740.16 29.9091ZM749.328 23.0909V34H748.07V23.0909H749.328ZM755.06 34.1705C754.272 34.1705 753.592 33.9964 753.02 33.6484C752.452 33.2969 752.014 32.8068 751.705 32.1783C751.399 31.5462 751.247 30.8111 751.247 29.973C751.247 29.1349 751.399 28.3963 751.705 27.7571C752.014 27.1143 752.443 26.6136 752.994 26.255C753.548 25.8928 754.194 25.7116 754.933 25.7116C755.359 25.7116 755.78 25.7827 756.195 25.9247C756.611 26.0668 756.989 26.2976 757.33 26.6172C757.671 26.9332 757.942 27.3523 758.145 27.8743C758.347 28.3963 758.448 29.0391 758.448 29.8026V30.3352H752.141V29.2486H757.17C757.17 28.7869 757.078 28.375 756.893 28.0128C756.712 27.6506 756.453 27.3647 756.115 27.1552C755.781 26.9457 755.387 26.8409 754.933 26.8409C754.432 26.8409 753.999 26.9652 753.633 27.2138C753.271 27.4588 752.992 27.7784 752.797 28.1726C752.601 28.5668 752.504 28.9893 752.504 29.4403V30.1648C752.504 30.7827 752.61 31.3065 752.823 31.7362C753.04 32.1623 753.34 32.4872 753.723 32.7109C754.107 32.9311 754.553 33.0412 755.06 33.0412C755.391 33.0412 755.689 32.995 755.955 32.9027C756.225 32.8068 756.458 32.6648 756.653 32.4766C756.848 32.2848 756.999 32.0469 757.106 31.7628L758.32 32.1037C758.193 32.5156 757.978 32.8778 757.676 33.1903C757.374 33.4993 757.001 33.7408 756.557 33.9148C756.113 34.0852 755.614 34.1705 755.06 34.1705ZM766.156 27.6506L765.027 27.9702C764.956 27.782 764.851 27.5991 764.712 27.4215C764.578 27.2404 764.393 27.0913 764.158 26.9741C763.924 26.8569 763.624 26.7983 763.258 26.7983C762.758 26.7983 762.34 26.9137 762.006 27.1445C761.676 27.3718 761.511 27.6612 761.511 28.0128C761.511 28.3253 761.625 28.5721 761.852 28.7532C762.079 28.9343 762.434 29.0852 762.917 29.206L764.132 29.5043C764.863 29.6818 765.408 29.9535 765.767 30.3192C766.126 30.6815 766.305 31.1484 766.305 31.7202C766.305 32.1889 766.17 32.608 765.9 32.9773C765.634 33.3466 765.261 33.6378 764.782 33.8509C764.302 34.0639 763.745 34.1705 763.109 34.1705C762.275 34.1705 761.584 33.9893 761.037 33.6271C760.49 33.2649 760.144 32.7358 759.998 32.0398L761.191 31.7415C761.305 32.1818 761.52 32.5121 761.836 32.7322C762.156 32.9524 762.573 33.0625 763.088 33.0625C763.674 33.0625 764.139 32.9382 764.483 32.6896C764.831 32.4375 765.005 32.1357 765.005 31.7841C765.005 31.5 764.906 31.2621 764.707 31.0703C764.508 30.875 764.203 30.7294 763.791 30.6335L762.427 30.3139C761.678 30.1364 761.128 29.8612 760.776 29.4883C760.428 29.1119 760.254 28.6413 760.254 28.0767C760.254 27.6151 760.384 27.2067 760.643 26.8516C760.906 26.4964 761.263 26.2177 761.714 26.0153C762.168 25.8129 762.683 25.7116 763.258 25.7116C764.068 25.7116 764.704 25.8892 765.165 26.2443C765.63 26.5994 765.961 27.0682 766.156 27.6506Z" fill="#2E263D" fill-opacity="0.9"/>
<path d="M787 30.0741L791.537 25.5366L792.834 26.8328L787 32.6665L781.166 26.8328L782.462 25.5366L787 30.0741Z" fill="#2E263D" fill-opacity="0.9"/>
<path d="M839.833 29.9167H845.333V37.25H839.833V29.9167ZM852.667 25.3333H858.167V37.25H852.667V25.3333ZM846.25 20.75H851.75V37.25H846.25V20.75ZM841.667 31.75V35.4167H843.5V31.75H841.667ZM848.083 22.5833V35.4167H849.917V22.5833H848.083ZM854.5 27.1667V35.4167H856.333V27.1667H854.5Z" fill="#2E263D" fill-opacity="0.9"/>
<path d="M878.099 26.5H876.778C876.7 26.12 876.564 25.7862 876.368 25.4986C876.176 25.2109 875.942 24.9695 875.665 24.7741C875.392 24.5753 875.088 24.4261 874.754 24.3267C874.42 24.2273 874.072 24.1776 873.71 24.1776C873.05 24.1776 872.451 24.3445 871.915 24.6783C871.382 25.0121 870.958 25.5039 870.642 26.1538C870.33 26.8036 870.173 27.6009 870.173 28.5455C870.173 29.4901 870.33 30.2873 870.642 30.9371C870.958 31.587 871.382 32.0788 871.915 32.4126C872.451 32.7464 873.05 32.9134 873.71 32.9134C874.072 32.9134 874.42 32.8636 874.754 32.7642C875.088 32.6648 875.392 32.5174 875.665 32.3221C875.942 32.1232 876.176 31.88 876.368 31.5923C876.564 31.3011 876.7 30.9673 876.778 30.5909H878.099C878 31.1484 877.819 31.6474 877.556 32.0877C877.293 32.5281 876.967 32.9027 876.576 33.2116C876.185 33.517 875.747 33.7496 875.26 33.9094C874.777 34.0692 874.261 34.1491 873.71 34.1491C872.78 34.1491 871.952 33.9219 871.228 33.4673C870.504 33.0128 869.934 32.3665 869.518 31.5284C869.103 30.6903 868.895 29.696 868.895 28.5455C868.895 27.3949 869.103 26.4006 869.518 25.5625C869.934 24.7244 870.504 24.0781 871.228 23.6236C871.952 23.169 872.78 22.9418 873.71 22.9418C874.261 22.9418 874.777 23.0217 875.26 23.1815C875.747 23.3413 876.185 23.5756 876.576 23.8846C876.967 24.19 877.293 24.5629 877.556 25.0032C877.819 25.44 878 25.9389 878.099 26.5ZM881.321 29.0781V34H880.064V23.0909H881.321V27.0966H881.427C881.619 26.674 881.907 26.3384 882.29 26.0898C882.677 25.8377 883.192 25.7116 883.835 25.7116C884.392 25.7116 884.881 25.8235 885.3 26.0472C885.719 26.2674 886.044 26.6065 886.275 27.0646C886.509 27.5192 886.626 28.098 886.626 28.8011V34H885.369V28.8864C885.369 28.2365 885.2 27.734 884.863 27.3789C884.529 27.0202 884.066 26.8409 883.473 26.8409C883.061 26.8409 882.691 26.9279 882.365 27.1019C882.042 27.2759 881.786 27.5298 881.598 27.8636C881.413 28.1974 881.321 28.6023 881.321 29.0781ZM891.334 34.1918C890.815 34.1918 890.345 34.0941 889.922 33.8988C889.499 33.6999 889.164 33.4141 888.915 33.0412C888.667 32.6648 888.542 32.2102 888.542 31.6776C888.542 31.2088 888.635 30.8288 888.819 30.5376C889.004 30.2429 889.251 30.0121 889.56 29.8452C889.869 29.6783 890.21 29.554 890.583 29.4723C890.959 29.3871 891.337 29.3196 891.717 29.2699C892.214 29.206 892.617 29.158 892.926 29.1261C893.239 29.0906 893.466 29.032 893.608 28.9503C893.754 28.8686 893.827 28.7266 893.827 28.5241V28.4815C893.827 27.956 893.683 27.5476 893.395 27.2564C893.111 26.9652 892.68 26.8196 892.101 26.8196C891.501 26.8196 891.03 26.951 890.689 27.2138C890.348 27.4766 890.108 27.7571 889.97 28.0554L888.777 27.6293C888.99 27.1321 889.274 26.745 889.629 26.468C889.988 26.1875 890.378 25.9922 890.801 25.8821C891.227 25.7685 891.646 25.7116 892.058 25.7116C892.321 25.7116 892.623 25.7436 892.964 25.8075C893.308 25.8679 893.64 25.994 893.96 26.1857C894.283 26.3775 894.551 26.6669 894.764 27.054C894.977 27.4411 895.084 27.9595 895.084 28.6094V34H893.827V32.892H893.763C893.677 33.0696 893.535 33.2596 893.336 33.462C893.138 33.6644 892.873 33.8366 892.543 33.9787C892.213 34.1207 891.809 34.1918 891.334 34.1918ZM891.525 33.0625C892.023 33.0625 892.442 32.9648 892.782 32.7695C893.127 32.5742 893.386 32.3221 893.56 32.0131C893.738 31.7042 893.827 31.3793 893.827 31.0384V29.8878C893.773 29.9517 893.656 30.0103 893.475 30.0636C893.297 30.1133 893.091 30.1577 892.857 30.1967C892.626 30.2322 892.401 30.2642 892.181 30.2926C891.964 30.3175 891.788 30.3388 891.653 30.3565C891.327 30.3991 891.021 30.4684 890.737 30.5643C890.456 30.6566 890.229 30.7969 890.055 30.9851C889.885 31.1697 889.8 31.4219 889.8 31.7415C889.8 32.1783 889.961 32.5085 890.284 32.7322C890.611 32.9524 891.025 33.0625 891.525 33.0625ZM897.378 34V25.8182H898.593V27.054H898.678C898.827 26.6491 899.097 26.3207 899.487 26.0685C899.878 25.8164 900.318 25.6903 900.809 25.6903C900.901 25.6903 901.016 25.6921 901.155 25.6957C901.293 25.6992 901.398 25.7045 901.469 25.7116V26.9901C901.426 26.9794 901.329 26.9634 901.176 26.9421C901.027 26.9173 900.869 26.9048 900.702 26.9048C900.304 26.9048 899.949 26.9883 899.637 27.1552C899.328 27.3185 899.083 27.5458 898.902 27.837C898.724 28.1246 898.635 28.4531 898.635 28.8224V34H897.378ZM907.03 25.8182V26.8835H902.79V25.8182H907.03ZM904.026 23.858H905.283V31.6562C905.283 32.0114 905.334 32.2777 905.437 32.4553C905.544 32.6293 905.679 32.7464 905.842 32.8068C906.009 32.8636 906.185 32.892 906.37 32.892C906.508 32.892 906.622 32.8849 906.71 32.8707C906.799 32.853 906.87 32.8388 906.924 32.8281L907.179 33.9574C907.094 33.9893 906.975 34.0213 906.822 34.0533C906.67 34.0888 906.476 34.1065 906.242 34.1065C905.887 34.1065 905.539 34.0302 905.198 33.8775C904.86 33.7248 904.58 33.4922 904.356 33.1797C904.136 32.8672 904.026 32.473 904.026 31.9972V23.858ZM914.57 27.6506L913.441 27.9702C913.37 27.782 913.265 27.5991 913.127 27.4215C912.992 27.2404 912.807 27.0913 912.573 26.9741C912.338 26.8569 912.038 26.7983 911.672 26.7983C911.172 26.7983 910.754 26.9137 910.421 27.1445C910.09 27.3718 909.925 27.6612 909.925 28.0128C909.925 28.3253 910.039 28.5721 910.266 28.7532C910.493 28.9343 910.848 29.0852 911.331 29.206L912.546 29.5043C913.277 29.6818 913.823 29.9535 914.181 30.3192C914.54 30.6815 914.719 31.1484 914.719 31.7202C914.719 32.1889 914.584 32.608 914.314 32.9773C914.048 33.3466 913.675 33.6378 913.196 33.8509C912.716 34.0639 912.159 34.1705 911.523 34.1705C910.689 34.1705 909.998 33.9893 909.451 33.6271C908.904 33.2649 908.558 32.7358 908.412 32.0398L909.606 31.7415C909.719 32.1818 909.934 32.5121 910.25 32.7322C910.57 32.9524 910.987 33.0625 911.502 33.0625C912.088 33.0625 912.553 32.9382 912.897 32.6896C913.245 32.4375 913.419 32.1357 913.419 31.7841C913.419 31.5 913.32 31.2621 913.121 31.0703C912.922 30.875 912.617 30.7294 912.205 30.6335L910.841 30.3139C910.092 30.1364 909.542 29.8612 909.19 29.4883C908.842 29.1119 908.668 28.6413 908.668 28.0767C908.668 27.6151 908.798 27.2067 909.057 26.8516C909.32 26.4964 909.677 26.2177 910.128 26.0153C910.582 25.8129 911.097 25.7116 911.672 25.7116C912.482 25.7116 913.118 25.8892 913.579 26.2443C914.044 26.5994 914.375 27.0682 914.57 27.6506Z" fill="#2E263D" fill-opacity="0.9"/>
<path d="M935 30.0741L939.537 25.5366L940.834 26.8328L935 32.6665L929.166 26.8328L930.462 25.5366L935 30.0741Z" fill="#2E263D" fill-opacity="0.9"/>
<path d="M990.125 27.625C989.369 27.625 988.75 28.2438 988.75 29C988.75 29.7563 989.369 30.375 990.125 30.375C990.881 30.375 991.5 29.7563 991.5 29C991.5 28.2438 990.881 27.625 990.125 27.625ZM1003.88 27.625C1003.12 27.625 1002.5 28.2438 1002.5 29C1002.5 29.7563 1003.12 30.375 1003.88 30.375C1004.63 30.375 1005.25 29.7563 1005.25 29C1005.25 28.2438 1004.63 27.625 1003.88 27.625ZM997 27.625C996.244 27.625 995.625 28.2438 995.625 29C995.625 29.7563 996.244 30.375 997 30.375C997.756 30.375 998.375 29.7563 998.375 29C998.375 28.2438 997.756 27.625 997 27.625Z" fill="#2E263D" fill-opacity="0.9"/>
<path d="M1026.53 28.5455C1026.53 29.696 1026.32 30.6903 1025.9 31.5284C1025.49 32.3665 1024.92 33.0128 1024.19 33.4673C1023.47 33.9219 1022.64 34.1491 1021.71 34.1491C1020.78 34.1491 1019.95 33.9219 1019.23 33.4673C1018.5 33.0128 1017.93 32.3665 1017.52 31.5284C1017.1 30.6903 1016.89 29.696 1016.89 28.5455C1016.89 27.3949 1017.1 26.4006 1017.52 25.5625C1017.93 24.7244 1018.5 24.0781 1019.23 23.6236C1019.95 23.169 1020.78 22.9418 1021.71 22.9418C1022.64 22.9418 1023.47 23.169 1024.19 23.6236C1024.92 24.0781 1025.49 24.7244 1025.9 25.5625C1026.32 26.4006 1026.53 27.3949 1026.53 28.5455ZM1025.25 28.5455C1025.25 27.6009 1025.09 26.8036 1024.77 26.1538C1024.46 25.5039 1024.04 25.0121 1023.5 24.6783C1022.97 24.3445 1022.37 24.1776 1021.71 24.1776C1021.05 24.1776 1020.45 24.3445 1019.92 24.6783C1019.38 25.0121 1018.96 25.5039 1018.64 26.1538C1018.33 26.8036 1018.17 27.6009 1018.17 28.5455C1018.17 29.4901 1018.33 30.2873 1018.64 30.9371C1018.96 31.587 1019.38 32.0788 1019.92 32.4126C1020.45 32.7464 1021.05 32.9134 1021.71 32.9134C1022.37 32.9134 1022.97 32.7464 1023.5 32.4126C1024.04 32.0788 1024.46 31.587 1024.77 30.9371C1025.09 30.2873 1025.25 29.4901 1025.25 28.5455ZM1032.13 25.8182V26.8835H1027.89V25.8182H1032.13ZM1029.13 23.858H1030.39V31.6562C1030.39 32.0114 1030.44 32.2777 1030.54 32.4553C1030.65 32.6293 1030.78 32.7464 1030.95 32.8068C1031.11 32.8636 1031.29 32.892 1031.47 32.892C1031.61 32.892 1031.73 32.8849 1031.81 32.8707C1031.9 32.853 1031.97 32.8388 1032.03 32.8281L1032.28 33.9574C1032.2 33.9893 1032.08 34.0213 1031.93 34.0533C1031.77 34.0888 1031.58 34.1065 1031.35 34.1065C1030.99 34.1065 1030.64 34.0302 1030.3 33.8775C1029.96 33.7248 1029.68 33.4922 1029.46 33.1797C1029.24 32.8672 1029.13 32.473 1029.13 31.9972V23.858ZM1035.46 29.0781V34H1034.2V23.0909H1035.46V27.0966H1035.56C1035.76 26.674 1036.04 26.3384 1036.43 26.0898C1036.81 25.8377 1037.33 25.7116 1037.97 25.7116C1038.53 25.7116 1039.02 25.8235 1039.44 26.0472C1039.86 26.2674 1040.18 26.6065 1040.41 27.0646C1040.65 27.5192 1040.76 28.098 1040.76 28.8011V34H1039.51V28.8864C1039.51 28.2365 1039.34 27.734 1039 27.3789C1038.67 27.0202 1038.2 26.8409 1037.61 26.8409C1037.2 26.8409 1036.83 26.9279 1036.5 27.1019C1036.18 27.2759 1035.92 27.5298 1035.74 27.8636C1035.55 28.1974 1035.46 28.6023 1035.46 29.0781ZM1046.49 34.1705C1045.71 34.1705 1045.03 33.9964 1044.45 33.6484C1043.89 33.2969 1043.45 32.8068 1043.14 32.1783C1042.83 31.5462 1042.68 30.8111 1042.68 29.973C1042.68 29.1349 1042.83 28.3963 1043.14 27.7571C1043.45 27.1143 1043.88 26.6136 1044.43 26.255C1044.98 25.8928 1045.63 25.7116 1046.37 25.7116C1046.79 25.7116 1047.21 25.7827 1047.63 25.9247C1048.04 26.0668 1048.42 26.2976 1048.76 26.6172C1049.1 26.9332 1049.38 27.3523 1049.58 27.8743C1049.78 28.3963 1049.88 29.0391 1049.88 29.8026V30.3352H1043.58V29.2486H1048.6C1048.6 28.7869 1048.51 28.375 1048.33 28.0128C1048.15 27.6506 1047.89 27.3647 1047.55 27.1552C1047.21 26.9457 1046.82 26.8409 1046.37 26.8409C1045.87 26.8409 1045.43 26.9652 1045.07 27.2138C1044.7 27.4588 1044.43 27.7784 1044.23 28.1726C1044.03 28.5668 1043.94 28.9893 1043.94 29.4403V30.1648C1043.94 30.7827 1044.04 31.3065 1044.26 31.7362C1044.47 32.1623 1044.77 32.4872 1045.16 32.7109C1045.54 32.9311 1045.99 33.0412 1046.49 33.0412C1046.82 33.0412 1047.12 32.995 1047.39 32.9027C1047.66 32.8068 1047.89 32.6648 1048.09 32.4766C1048.28 32.2848 1048.43 32.0469 1048.54 31.7628L1049.75 32.1037C1049.63 32.5156 1049.41 32.8778 1049.11 33.1903C1048.81 33.4993 1048.43 33.7408 1047.99 33.9148C1047.55 34.0852 1047.05 34.1705 1046.49 34.1705ZM1051.79 34V25.8182H1053.01V27.054H1053.09C1053.24 26.6491 1053.51 26.3207 1053.9 26.0685C1054.29 25.8164 1054.73 25.6903 1055.22 25.6903C1055.32 25.6903 1055.43 25.6921 1055.57 25.6957C1055.71 25.6992 1055.81 25.7045 1055.89 25.7116V26.9901C1055.84 26.9794 1055.74 26.9634 1055.59 26.9421C1055.44 26.9173 1055.28 26.9048 1055.12 26.9048C1054.72 26.9048 1054.37 26.9883 1054.05 27.1552C1053.74 27.3185 1053.5 27.5458 1053.32 27.837C1053.14 28.1246 1053.05 28.4531 1053.05 28.8224V34H1051.79ZM1063.17 27.6506L1062.04 27.9702C1061.97 27.782 1061.87 27.5991 1061.73 27.4215C1061.59 27.2404 1061.41 27.0913 1061.17 26.9741C1060.94 26.8569 1060.64 26.7983 1060.27 26.7983C1059.77 26.7983 1059.35 26.9137 1059.02 27.1445C1058.69 27.3718 1058.53 27.6612 1058.53 28.0128C1058.53 28.3253 1058.64 28.5721 1058.87 28.7532C1059.09 28.9343 1059.45 29.0852 1059.93 29.206L1061.15 29.5043C1061.88 29.6818 1062.42 29.9535 1062.78 30.3192C1063.14 30.6815 1063.32 31.1484 1063.32 31.7202C1063.32 32.1889 1063.18 32.608 1062.91 32.9773C1062.65 33.3466 1062.28 33.6378 1061.8 33.8509C1061.32 34.0639 1060.76 34.1705 1060.12 34.1705C1059.29 34.1705 1058.6 33.9893 1058.05 33.6271C1057.5 33.2649 1057.16 32.7358 1057.01 32.0398L1058.21 31.7415C1058.32 32.1818 1058.53 32.5121 1058.85 32.7322C1059.17 32.9524 1059.59 33.0625 1060.1 33.0625C1060.69 33.0625 1061.15 32.9382 1061.5 32.6896C1061.85 32.4375 1062.02 32.1357 1062.02 31.7841C1062.02 31.5 1061.92 31.2621 1061.72 31.0703C1061.52 30.875 1061.22 30.7294 1060.81 30.6335L1059.44 30.3139C1058.69 30.1364 1058.14 29.8612 1057.79 29.4883C1057.44 29.1119 1057.27 28.6413 1057.27 28.0767C1057.27 27.6151 1057.4 27.2067 1057.66 26.8516C1057.92 26.4964 1058.28 26.2177 1058.73 26.0153C1059.18 25.8129 1059.7 25.7116 1060.27 25.7116C1061.08 25.7116 1061.72 25.8892 1062.18 26.2443C1062.65 26.5994 1062.98 27.0682 1063.17 27.6506Z" fill="#2E263D" fill-opacity="0.9"/>
<path d="M1084 30.0741L1088.54 25.5366L1089.83 26.8328L1084 32.6665L1078.17 26.8328L1079.46 25.5366L1084 30.0741Z" fill="#2E263D" fill-opacity="0.9"/>
<defs>
<filter id="filter0_d_8003_3329" x="204" y="7" width="141" height="50" filterUnits="userSpaceOnUse" color-interpolation-filters="sRGB">
<feFlood flood-opacity="0" result="BackgroundImageFix"/>
<feColorMatrix in="SourceAlpha" type="matrix" values="0 0 0 0 0 0 0 0 0 0 0 0 0 0 0 0 0 0 127 0" result="hardAlpha"/>
<feOffset dy="3"/>
<feGaussianBlur stdDeviation="3"/>
<feColorMatrix type="matrix" values="0 0 0 0 0.180392 0 0 0 0 0.14902 0 0 0 0 0.239216 0 0 0 0.18 0"/>
<feBlend mode="normal" in2="BackgroundImageFix" result="effect1_dropShadow_8003_3329"/>
<feBlend mode="normal" in="SourceGraphic" in2="effect1_dropShadow_8003_3329" result="shape"/>
</filter>
<linearGradient id="paint0_linear_8003_3329" x1="339" y1="29" x2="210" y2="29" gradientUnits="userSpaceOnUse">
<stop stop-color="#8146FF"/>
<stop offset="1" stop-color="#CDB5FF"/>
<stop offset="1" stop-color="#C0A3FF"/>
</linearGradient>
</defs>
</svg>
