<svg width="800" height="22" viewBox="0 0 800 22" fill="none" xmlns="http://www.w3.org/2000/svg">
<g clip-path="url(#clip0_8003_3060)">
<circle cx="10" cy="11" r="10" fill="#8C57FF"/>
<path d="M8.83331 12.8504L14.1953 7.48779L15.0207 8.31263L8.83331 14.5L5.12097 10.7877L5.94581 9.96288L8.83331 12.8504Z" fill="white"/>
<path d="M32.8473 16.1811C32.0057 16.1776 31.2866 15.9556 30.69 15.5153C30.0934 15.0749 29.6371 14.4339 29.321 13.5923C29.005 12.7507 28.8469 11.7369 28.8469 10.5508C28.8469 9.36825 29.005 8.35795 29.321 7.51989C29.6406 6.68182 30.0987 6.04261 30.6953 5.60227C31.2955 5.16193 32.0128 4.94176 32.8473 4.94176C33.6818 4.94176 34.3974 5.16371 34.994 5.6076C35.5906 6.04794 36.0469 6.68714 36.3629 7.52521C36.6825 8.35973 36.8423 9.36825 36.8423 10.5508C36.8423 11.7404 36.6843 12.756 36.3683 13.5977C36.0522 14.4357 35.5959 15.0767 34.9993 15.5206C34.4027 15.9609 33.6854 16.1811 32.8473 16.1811ZM32.8473 14.7589C33.5859 14.7589 34.163 14.3984 34.5785 13.6776C34.9975 12.9567 35.207 11.9144 35.207 10.5508C35.207 9.64524 35.1112 8.87997 34.9194 8.25497C34.7312 7.62642 34.4595 7.15057 34.1044 6.82741C33.7528 6.50071 33.3338 6.33736 32.8473 6.33736C32.1122 6.33736 31.5352 6.69957 31.1161 7.42401C30.6971 8.14844 30.4858 9.1907 30.4822 10.5508C30.4822 11.4599 30.5763 12.2287 30.7646 12.8572C30.9563 13.4822 31.228 13.9563 31.5795 14.2795C31.9311 14.5991 32.3537 14.7589 32.8473 14.7589ZM42.8708 5.09091V16H41.2195V6.74219H41.1556L38.5455 8.44673V6.87003L41.2675 5.09091H42.8708Z" fill="#2E263D" fill-opacity="0.9"/>
<path d="M55.12 16H53.3729L57.2987 5.09091H59.2003L63.1261 16H61.3789L58.2947 7.07244H58.2095L55.12 16ZM55.413 11.728H61.0806V13.1129H55.413V11.728ZM67.8881 16.1651C67.0962 16.1651 66.4144 15.9858 65.8427 15.6271C65.2745 15.2649 64.8377 14.766 64.5323 14.1303C64.2269 13.4947 64.0742 12.7667 64.0742 11.9464C64.0742 11.1154 64.2305 10.3821 64.543 9.74645C64.8555 9.10724 65.2958 8.60831 65.864 8.24964C66.4322 7.89098 67.1016 7.71165 67.8722 7.71165C68.4936 7.71165 69.0476 7.82706 69.5341 8.05788C70.0206 8.28516 70.413 8.60476 70.7113 9.01669C71.0131 9.42862 71.1925 9.9098 71.2493 10.4602H69.6992C69.614 10.0767 69.4187 9.74645 69.1133 9.46946C68.8114 9.19247 68.4066 9.05398 67.8988 9.05398C67.4549 9.05398 67.0661 9.17116 66.7322 9.40554C66.402 9.63636 66.1445 9.96662 65.9599 10.3963C65.7752 10.8224 65.6829 11.3267 65.6829 11.9091C65.6829 12.5057 65.7734 13.0206 65.9545 13.4538C66.1357 13.8871 66.3913 14.2227 66.7216 14.4606C67.0554 14.6985 67.4478 14.8175 67.8988 14.8175C68.2006 14.8175 68.4741 14.7624 68.7191 14.6523C68.9677 14.5387 69.1754 14.3771 69.3423 14.1676C69.5128 13.9581 69.6317 13.706 69.6992 13.4112H71.2493C71.1925 13.9403 71.0202 14.4126 70.7326 14.8281C70.445 15.2436 70.0597 15.5703 69.5767 15.8082C69.0973 16.0462 68.5344 16.1651 67.8881 16.1651ZM76.3989 16.1651C75.607 16.1651 74.9252 15.9858 74.3534 15.6271C73.7852 15.2649 73.3485 14.766 73.0431 14.1303C72.7377 13.4947 72.585 12.7667 72.585 11.9464C72.585 11.1154 72.7412 10.3821 73.0537 9.74645C73.3662 9.10724 73.8066 8.60831 74.3747 8.24964C74.9429 7.89098 75.6123 7.71165 76.3829 7.71165C77.0044 7.71165 77.5583 7.82706 78.0448 8.05788C78.5313 8.28516 78.9237 8.60476 79.222 9.01669C79.5239 9.42862 79.7032 9.9098 79.76 10.4602H78.21C78.1247 10.0767 77.9294 9.74645 77.624 9.46946C77.3222 9.19247 76.9173 9.05398 76.4095 9.05398C75.9656 9.05398 75.5768 9.17116 75.243 9.40554C74.9127 9.63636 74.6553 9.96662 74.4706 10.3963C74.286 10.8224 74.1936 11.3267 74.1936 11.9091C74.1936 12.5057 74.2842 13.0206 74.4653 13.4538C74.6464 13.8871 74.9021 14.2227 75.2323 14.4606C75.5661 14.6985 75.9585 14.8175 76.4095 14.8175C76.7114 14.8175 76.9848 14.7624 77.2298 14.6523C77.4784 14.5387 77.6862 14.3771 77.8531 14.1676C78.0235 13.9581 78.1425 13.706 78.21 13.4112H79.76C79.7032 13.9403 79.531 14.4126 79.2433 14.8281C78.9557 15.2436 78.5704 15.5703 78.0874 15.8082C77.608 16.0462 77.0452 16.1651 76.3989 16.1651ZM84.9096 16.1651C84.1426 16.1651 83.4732 15.9893 82.9015 15.6378C82.3297 15.2862 81.8858 14.7944 81.5698 14.1623C81.2537 13.5302 81.0957 12.7915 81.0957 11.9464C81.0957 11.0977 81.2537 10.3555 81.5698 9.71982C81.8858 9.08416 82.3297 8.59055 82.9015 8.23899C83.4732 7.88743 84.1426 7.71165 84.9096 7.71165C85.6767 7.71165 86.3461 7.88743 86.9178 8.23899C87.4895 8.59055 87.9334 9.08416 88.2495 9.71982C88.5655 10.3555 88.7235 11.0977 88.7235 11.9464C88.7235 12.7915 88.5655 13.5302 88.2495 14.1623C87.9334 14.7944 87.4895 15.2862 86.9178 15.6378C86.3461 15.9893 85.6767 16.1651 84.9096 16.1651ZM84.915 14.8281C85.4121 14.8281 85.824 14.6967 86.1507 14.4339C86.4775 14.1712 86.7189 13.8214 86.8752 13.3846C87.035 12.9478 87.1149 12.4666 87.1149 11.9411C87.1149 11.419 87.035 10.9396 86.8752 10.5028C86.7189 10.0625 86.4775 9.70916 86.1507 9.44283C85.824 9.17649 85.4121 9.04332 84.915 9.04332C84.4142 9.04332 83.9988 9.17649 83.6685 9.44283C83.3418 9.70916 83.0985 10.0625 82.9387 10.5028C82.7825 10.9396 82.7044 11.419 82.7044 11.9411C82.7044 12.4666 82.7825 12.9478 82.9387 13.3846C83.0985 13.8214 83.3418 14.1712 83.6685 14.4339C83.9988 14.6967 84.4142 14.8281 84.915 14.8281ZM95.6842 12.6069V7.81818H97.2822V16H95.7162V14.5831H95.6309C95.4427 15.0199 95.1409 15.3839 94.7254 15.6751C94.3135 15.9627 93.8003 16.1065 93.186 16.1065C92.6604 16.1065 92.1952 15.9911 91.7904 15.7603C91.3891 15.5259 91.0731 15.1797 90.8422 14.7216C90.615 14.2635 90.5013 13.6971 90.5013 13.0224V7.81818H92.094V12.8306C92.094 13.3881 92.2485 13.832 92.5574 14.1623C92.8664 14.4925 93.2677 14.6577 93.7613 14.6577C94.0596 14.6577 94.3561 14.5831 94.6508 14.4339C94.9491 14.2848 95.1959 14.0593 95.3912 13.7575C95.5901 13.4556 95.6878 13.0721 95.6842 12.6069ZM101.015 11.142V16H99.4222V7.81818H100.951V9.14986H101.052C101.24 8.71662 101.535 8.36861 101.936 8.10582C102.341 7.84304 102.851 7.71165 103.465 7.71165C104.023 7.71165 104.511 7.82884 104.93 8.06321C105.349 8.29403 105.674 8.63849 105.905 9.09659C106.136 9.55469 106.251 10.1211 106.251 10.7958V16H104.658V10.9876C104.658 10.3945 104.504 9.93111 104.195 9.5973C103.886 9.25994 103.462 9.09126 102.922 9.09126C102.553 9.09126 102.224 9.17116 101.936 9.33097C101.652 9.49077 101.427 9.72514 101.26 10.0341C101.097 10.3395 101.015 10.7088 101.015 11.142ZM112.206 7.81818V9.09659H107.737V7.81818H112.206ZM108.936 5.85795H110.528V13.5977C110.528 13.9066 110.575 14.1392 110.667 14.2955C110.759 14.4482 110.878 14.5529 111.024 14.6097C111.173 14.663 111.335 14.6896 111.509 14.6896C111.636 14.6896 111.748 14.6808 111.844 14.663C111.94 14.6452 112.015 14.631 112.068 14.6204L112.355 15.9361C112.263 15.9716 112.132 16.0071 111.961 16.0426C111.791 16.0817 111.578 16.103 111.322 16.1065C110.903 16.1136 110.512 16.0391 110.15 15.8828C109.788 15.7266 109.495 15.4851 109.271 15.1584C109.048 14.8317 108.936 14.4215 108.936 13.9279V5.85795ZM121.597 16H118.066V5.09091H121.709C122.778 5.09091 123.696 5.3093 124.463 5.74609C125.23 6.17933 125.818 6.80256 126.226 7.61577C126.638 8.42543 126.844 9.39666 126.844 10.5295C126.844 11.6658 126.636 12.6424 126.221 13.4592C125.809 14.2759 125.212 14.9045 124.431 15.3448C123.65 15.7816 122.705 16 121.597 16ZM119.712 14.5618H121.507C122.338 14.5618 123.028 14.4055 123.579 14.093C124.129 13.777 124.541 13.3207 124.815 12.7241C125.088 12.1239 125.225 11.3924 125.225 10.5295C125.225 9.67365 125.088 8.94744 124.815 8.35085C124.545 7.75426 124.142 7.30149 123.605 6.99254C123.069 6.68359 122.403 6.52912 121.608 6.52912H119.712V14.5618ZM132.289 16.1651C131.483 16.1651 130.789 15.9929 130.207 15.6484C129.628 15.3004 129.18 14.8121 128.864 14.1836C128.552 13.5515 128.396 12.8111 128.396 11.9624C128.396 11.1243 128.552 10.3857 128.864 9.74645C129.18 9.10724 129.621 8.60831 130.185 8.24964C130.753 7.89098 131.418 7.71165 132.177 7.71165C132.639 7.71165 133.087 7.788 133.52 7.9407C133.953 8.09339 134.342 8.3331 134.686 8.6598C135.031 8.98651 135.302 9.41087 135.501 9.93288C135.7 10.4513 135.8 11.0817 135.8 11.8239V12.3885H129.296V11.1953H134.239C134.239 10.7763 134.154 10.4052 133.983 10.082C133.813 9.75533 133.573 9.49787 133.264 9.30966C132.959 9.12145 132.6 9.02734 132.188 9.02734C131.741 9.02734 131.35 9.13743 131.016 9.3576C130.686 9.57422 130.43 9.85831 130.249 10.2099C130.072 10.5579 129.983 10.9361 129.983 11.3445V12.2766C129.983 12.8235 130.079 13.2887 130.271 13.6722C130.466 14.0558 130.737 14.3487 131.085 14.5511C131.434 14.75 131.84 14.8494 132.305 14.8494C132.607 14.8494 132.882 14.8068 133.131 14.7216C133.38 14.6328 133.594 14.5014 133.775 14.3274C133.957 14.1534 134.095 13.9386 134.191 13.6829L135.698 13.9545C135.578 14.3984 135.361 14.7873 135.049 15.1211C134.74 15.4513 134.351 15.7088 133.882 15.8935C133.417 16.0746 132.886 16.1651 132.289 16.1651ZM141.386 7.81818V9.09659H136.917V7.81818H141.386ZM138.115 5.85795H139.708V13.5977C139.708 13.9066 139.754 14.1392 139.847 14.2955C139.939 14.4482 140.058 14.5529 140.203 14.6097C140.353 14.663 140.514 14.6896 140.688 14.6896C140.816 14.6896 140.928 14.6808 141.024 14.663C141.12 14.6452 141.194 14.631 141.248 14.6204L141.535 15.9361C141.443 15.9716 141.311 16.0071 141.141 16.0426C140.971 16.0817 140.757 16.103 140.502 16.1065C140.083 16.1136 139.692 16.0391 139.33 15.8828C138.968 15.7266 138.675 15.4851 138.451 15.1584C138.227 14.8317 138.115 14.4215 138.115 13.9279V5.85795ZM145.529 16.1811C145.01 16.1811 144.542 16.0852 144.123 15.8935C143.704 15.6982 143.372 15.4158 143.127 15.0465C142.885 14.6772 142.764 14.2244 142.764 13.6882C142.764 13.2266 142.853 12.8466 143.031 12.5483C143.208 12.25 143.448 12.0138 143.75 11.8398C144.052 11.6658 144.389 11.5344 144.762 11.4457C145.135 11.3569 145.515 11.2894 145.902 11.2433C146.392 11.1864 146.79 11.1403 147.095 11.1048C147.4 11.0657 147.622 11.0036 147.761 10.9183C147.899 10.8331 147.968 10.6946 147.968 10.5028V10.4656C147.968 10.0004 147.837 9.63991 147.574 9.38423C147.315 9.12855 146.928 9.00071 146.413 9.00071C145.877 9.00071 145.454 9.11967 145.145 9.3576C144.84 9.59197 144.629 9.85298 144.511 10.1406L143.015 9.79972C143.192 9.30256 143.451 8.90128 143.792 8.59588C144.137 8.28693 144.533 8.06321 144.98 7.92472C145.428 7.78267 145.898 7.71165 146.392 7.71165C146.718 7.71165 147.065 7.75071 147.43 7.82884C147.8 7.90341 148.144 8.0419 148.464 8.24432C148.787 8.44673 149.052 8.73615 149.258 9.11257C149.464 9.48544 149.566 9.97017 149.566 10.5668V16H148.011V14.8814H147.947C147.844 15.0874 147.69 15.2898 147.484 15.4886C147.278 15.6875 147.013 15.8526 146.69 15.984C146.367 16.1154 145.98 16.1811 145.529 16.1811ZM145.875 14.9027C146.315 14.9027 146.692 14.8157 147.004 14.6417C147.32 14.4677 147.56 14.2404 147.723 13.9599C147.89 13.6758 147.974 13.3722 147.974 13.049V11.9943C147.917 12.0511 147.807 12.1044 147.644 12.1541C147.484 12.2003 147.301 12.2411 147.095 12.2766C146.889 12.3086 146.688 12.3388 146.493 12.3672C146.298 12.392 146.134 12.4134 146.003 12.4311C145.694 12.4702 145.412 12.5359 145.156 12.6282C144.904 12.7205 144.701 12.8537 144.549 13.0277C144.4 13.1982 144.325 13.4254 144.325 13.7095C144.325 14.1037 144.471 14.402 144.762 14.6044C145.053 14.8033 145.424 14.9027 145.875 14.9027ZM151.688 16V7.81818H153.281V16H151.688ZM152.492 6.55575C152.215 6.55575 151.977 6.46342 151.778 6.27876C151.583 6.09055 151.485 5.86683 151.485 5.6076C151.485 5.34482 151.583 5.12109 151.778 4.93643C151.977 4.74822 152.215 4.65412 152.492 4.65412C152.769 4.65412 153.005 4.74822 153.201 4.93643C153.4 5.12109 153.499 5.34482 153.499 5.6076C153.499 5.86683 153.4 6.09055 153.201 6.27876C153.005 6.46342 152.769 6.55575 152.492 6.55575ZM157.016 5.09091V16H155.423V5.09091H157.016ZM165.29 9.8157L163.846 10.0714C163.786 9.88672 163.69 9.71094 163.558 9.54403C163.431 9.37713 163.257 9.24041 163.036 9.13388C162.816 9.02734 162.541 8.97408 162.211 8.97408C161.76 8.97408 161.383 9.07528 161.081 9.2777C160.78 9.47656 160.629 9.73402 160.629 10.0501C160.629 10.3235 160.73 10.5437 160.932 10.7106C161.135 10.8775 161.461 11.0142 161.912 11.1207L163.212 11.419C163.965 11.593 164.526 11.8612 164.895 12.2234C165.265 12.5856 165.449 13.0561 165.449 13.6349C165.449 14.125 165.307 14.5618 165.023 14.9453C164.743 15.3253 164.35 15.6236 163.846 15.8402C163.345 16.0568 162.765 16.1651 162.104 16.1651C161.188 16.1651 160.441 15.9698 159.862 15.5792C159.283 15.185 158.928 14.6257 158.796 13.9013L160.336 13.6669C160.432 14.0682 160.629 14.3718 160.927 14.5778C161.225 14.7802 161.614 14.8814 162.094 14.8814C162.616 14.8814 163.033 14.7731 163.345 14.5565C163.658 14.3363 163.814 14.0682 163.814 13.7521C163.814 13.4964 163.718 13.2816 163.526 13.1076C163.338 12.9336 163.049 12.8022 162.658 12.7134L161.273 12.4098C160.51 12.2358 159.945 11.9588 159.579 11.5788C159.217 11.1989 159.036 10.7177 159.036 10.1353C159.036 9.65234 159.171 9.22976 159.441 8.86754C159.711 8.50533 160.084 8.22301 160.559 8.0206C161.035 7.81463 161.58 7.71165 162.195 7.71165C163.079 7.71165 163.775 7.90341 164.283 8.28693C164.791 8.6669 165.126 9.17649 165.29 9.8157Z" fill="#2E263D" fill-opacity="0.9"/>
</g>
<rect x="175" y="9.5" width="155.5" height="3" rx="1.5" fill="#8C57FF"/>
<circle cx="348.5" cy="11" r="10" fill="#8C57FF"/>
<circle cx="348.5" cy="11" r="5" fill="white"/>
<path d="M371.347 16.1811C370.506 16.1776 369.787 15.9556 369.19 15.5153C368.593 15.0749 368.137 14.4339 367.821 13.5923C367.505 12.7507 367.347 11.7369 367.347 10.5508C367.347 9.36825 367.505 8.35795 367.821 7.51989C368.141 6.68182 368.599 6.04261 369.195 5.60227C369.795 5.16193 370.513 4.94176 371.347 4.94176C372.182 4.94176 372.897 5.16371 373.494 5.6076C374.091 6.04794 374.547 6.68714 374.863 7.52521C375.183 8.35973 375.342 9.36825 375.342 10.5508C375.342 11.7404 375.184 12.756 374.868 13.5977C374.552 14.4357 374.096 15.0767 373.499 15.5206C372.903 15.9609 372.185 16.1811 371.347 16.1811ZM371.347 14.7589C372.086 14.7589 372.663 14.3984 373.078 13.6776C373.498 12.9567 373.707 11.9144 373.707 10.5508C373.707 9.64524 373.611 8.87997 373.419 8.25497C373.231 7.62642 372.96 7.15057 372.604 6.82741C372.253 6.50071 371.834 6.33736 371.347 6.33736C370.612 6.33736 370.035 6.69957 369.616 7.42401C369.197 8.14844 368.986 9.1907 368.982 10.5508C368.982 11.4599 369.076 12.2287 369.265 12.8572C369.456 13.4822 369.728 13.9563 370.08 14.2795C370.431 14.5991 370.854 14.7589 371.347 14.7589ZM377.232 16V14.8068L380.923 10.9822C381.318 10.5668 381.642 10.2028 381.898 9.89027C382.157 9.57422 382.351 9.27415 382.479 8.99006C382.607 8.70597 382.671 8.40412 382.671 8.08452C382.671 7.7223 382.585 7.4098 382.415 7.14702C382.244 6.88068 382.012 6.67649 381.717 6.53445C381.422 6.38885 381.09 6.31605 380.721 6.31605C380.33 6.31605 379.989 6.39595 379.698 6.55575C379.407 6.71555 379.183 6.94105 379.027 7.23224C378.871 7.52344 378.793 7.86435 378.793 8.25497H377.221C377.221 7.59091 377.374 7.0103 377.679 6.51314C377.985 6.01598 378.404 5.63068 378.937 5.35724C379.469 5.08026 380.075 4.94176 380.753 4.94176C381.438 4.94176 382.042 5.07848 382.564 5.35192C383.09 5.6218 383.5 5.99112 383.794 6.45987C384.089 6.92507 384.237 7.45064 384.237 8.03658C384.237 8.44141 384.16 8.83736 384.008 9.22443C383.858 9.61151 383.597 10.043 383.225 10.5188C382.852 10.9911 382.333 11.5646 381.669 12.2393L379.501 14.5085V14.5884H384.412V16H377.232Z" fill="#2E263D" fill-opacity="0.9"/>
<path d="M394.699 16V5.09091H398.587C399.436 5.09091 400.139 5.24538 400.696 5.55433C401.254 5.86328 401.671 6.28587 401.948 6.82209C402.225 7.35476 402.364 7.9549 402.364 8.62251C402.364 9.29368 402.223 9.89737 401.943 10.4336C401.666 10.9663 401.247 11.3888 400.686 11.7013C400.128 12.0103 399.427 12.1648 398.582 12.1648H395.908V10.7692H398.433C398.969 10.7692 399.404 10.6768 399.738 10.4922C400.071 10.304 400.316 10.0483 400.473 9.72514C400.629 9.40199 400.707 9.03445 400.707 8.62251C400.707 8.21058 400.629 7.84482 400.473 7.52521C400.316 7.20561 400.07 6.95526 399.732 6.77415C399.398 6.59304 398.958 6.50249 398.411 6.50249H396.344V16H394.699ZM407.589 16.1651C406.783 16.1651 406.089 15.9929 405.506 15.6484C404.928 15.3004 404.48 14.8121 404.164 14.1836C403.852 13.5515 403.695 12.8111 403.695 11.9624C403.695 11.1243 403.852 10.3857 404.164 9.74645C404.48 9.10724 404.92 8.60831 405.485 8.24964C406.053 7.89098 406.717 7.71165 407.477 7.71165C407.939 7.71165 408.386 7.788 408.82 7.9407C409.253 8.09339 409.642 8.3331 409.986 8.6598C410.331 8.98651 410.602 9.41087 410.801 9.93288C411 10.4513 411.099 11.0817 411.099 11.8239V12.3885H404.596V11.1953H409.539C409.539 10.7763 409.453 10.4052 409.283 10.082C409.113 9.75533 408.873 9.49787 408.564 9.30966C408.259 9.12145 407.9 9.02734 407.488 9.02734C407.04 9.02734 406.65 9.13743 406.316 9.3576C405.986 9.57422 405.73 9.85831 405.549 10.2099C405.371 10.5579 405.283 10.9361 405.283 11.3445V12.2766C405.283 12.8235 405.379 13.2887 405.57 13.6722C405.766 14.0558 406.037 14.3487 406.385 14.5511C406.733 14.75 407.14 14.8494 407.605 14.8494C407.907 14.8494 408.182 14.8068 408.431 14.7216C408.679 14.6328 408.894 14.5014 409.075 14.3274C409.256 14.1534 409.395 13.9386 409.491 13.6829L410.998 13.9545C410.877 14.3984 410.661 14.7873 410.348 15.1211C410.039 15.4513 409.651 15.7088 409.182 15.8935C408.717 16.0746 408.186 16.1651 407.589 16.1651ZM412.867 16V7.81818H414.406V9.1179H414.491C414.64 8.67756 414.903 8.33132 415.28 8.07919C415.66 7.82351 416.089 7.69567 416.569 7.69567C416.668 7.69567 416.785 7.69922 416.92 7.70632C417.059 7.71342 417.167 7.7223 417.245 7.73295V9.25639C417.181 9.23864 417.068 9.21911 416.904 9.1978C416.741 9.17294 416.578 9.16051 416.414 9.16051C416.038 9.16051 415.702 9.24041 415.407 9.40021C415.116 9.55646 414.885 9.77486 414.715 10.0554C414.544 10.3324 414.459 10.6484 414.459 11.0036V16H412.867ZM424.754 9.8157L423.311 10.0714C423.251 9.88672 423.155 9.71094 423.023 9.54403C422.895 9.37713 422.721 9.24041 422.501 9.13388C422.281 9.02734 422.006 8.97408 421.676 8.97408C421.225 8.97408 420.848 9.07528 420.546 9.2777C420.244 9.47656 420.094 9.73402 420.094 10.0501C420.094 10.3235 420.195 10.5437 420.397 10.7106C420.6 10.8775 420.926 11.0142 421.377 11.1207L422.677 11.419C423.43 11.593 423.991 11.8612 424.36 12.2234C424.73 12.5856 424.914 13.0561 424.914 13.6349C424.914 14.125 424.772 14.5618 424.488 14.9453C424.208 15.3253 423.815 15.6236 423.311 15.8402C422.81 16.0568 422.23 16.1651 421.569 16.1651C420.653 16.1651 419.905 15.9698 419.327 15.5792C418.748 15.185 418.393 14.6257 418.261 13.9013L419.801 13.6669C419.896 14.0682 420.094 14.3718 420.392 14.5778C420.69 14.7802 421.079 14.8814 421.558 14.8814C422.08 14.8814 422.498 14.7731 422.81 14.5565C423.123 14.3363 423.279 14.0682 423.279 13.7521C423.279 13.4964 423.183 13.2816 422.991 13.1076C422.803 12.9336 422.514 12.8022 422.123 12.7134L420.738 12.4098C419.975 12.2358 419.41 11.9588 419.044 11.5788C418.682 11.1989 418.501 10.7177 418.501 10.1353C418.501 9.65234 418.636 9.22976 418.906 8.86754C419.176 8.50533 419.548 8.22301 420.024 8.0206C420.5 7.81463 421.045 7.71165 421.66 7.71165C422.544 7.71165 423.24 7.90341 423.748 8.28693C424.256 8.6669 424.591 9.17649 424.754 9.8157ZM430.112 16.1651C429.345 16.1651 428.675 15.9893 428.104 15.6378C427.532 15.2862 427.088 14.7944 426.772 14.1623C426.456 13.5302 426.298 12.7915 426.298 11.9464C426.298 11.0977 426.456 10.3555 426.772 9.71982C427.088 9.08416 427.532 8.59055 428.104 8.23899C428.675 7.88743 429.345 7.71165 430.112 7.71165C430.879 7.71165 431.548 7.88743 432.12 8.23899C432.692 8.59055 433.136 9.08416 433.452 9.71982C433.768 10.3555 433.926 11.0977 433.926 11.9464C433.926 12.7915 433.768 13.5302 433.452 14.1623C433.136 14.7944 432.692 15.2862 432.12 15.6378C431.548 15.9893 430.879 16.1651 430.112 16.1651ZM430.117 14.8281C430.614 14.8281 431.026 14.6967 431.353 14.4339C431.68 14.1712 431.921 13.8214 432.077 13.3846C432.237 12.9478 432.317 12.4666 432.317 11.9411C432.317 11.419 432.237 10.9396 432.077 10.5028C431.921 10.0625 431.68 9.70916 431.353 9.44283C431.026 9.17649 430.614 9.04332 430.117 9.04332C429.616 9.04332 429.201 9.17649 428.871 9.44283C428.544 9.70916 428.301 10.0625 428.141 10.5028C427.985 10.9396 427.907 11.419 427.907 11.9411C427.907 12.4666 427.985 12.9478 428.141 13.3846C428.301 13.8214 428.544 14.1712 428.871 14.4339C429.201 14.6967 429.616 14.8281 430.117 14.8281ZM437.296 11.142V16H435.703V7.81818H437.232V9.14986H437.333C437.522 8.71662 437.816 8.36861 438.218 8.10582C438.623 7.84304 439.132 7.71165 439.746 7.71165C440.304 7.71165 440.792 7.82884 441.211 8.06321C441.63 8.29403 441.955 8.63849 442.186 9.09659C442.417 9.55469 442.532 10.1211 442.532 10.7958V16H440.94V10.9876C440.94 10.3945 440.785 9.93111 440.476 9.5973C440.167 9.25994 439.743 9.09126 439.203 9.09126C438.834 9.09126 438.505 9.17116 438.218 9.33097C437.934 9.49077 437.708 9.72514 437.541 10.0341C437.378 10.3395 437.296 10.7088 437.296 11.142ZM447.049 16.1811C446.531 16.1811 446.062 16.0852 445.643 15.8935C445.224 15.6982 444.892 15.4158 444.647 15.0465C444.406 14.6772 444.285 14.2244 444.285 13.6882C444.285 13.2266 444.374 12.8466 444.551 12.5483C444.729 12.25 444.968 12.0138 445.27 11.8398C445.572 11.6658 445.909 11.5344 446.282 11.4457C446.655 11.3569 447.035 11.2894 447.422 11.2433C447.912 11.1864 448.31 11.1403 448.615 11.1048C448.921 11.0657 449.143 11.0036 449.281 10.9183C449.42 10.8331 449.489 10.6946 449.489 10.5028V10.4656C449.489 10.0004 449.358 9.63991 449.095 9.38423C448.836 9.12855 448.449 9.00071 447.934 9.00071C447.397 9.00071 446.975 9.11967 446.666 9.3576C446.36 9.59197 446.149 9.85298 446.032 10.1406L444.535 9.79972C444.713 9.30256 444.972 8.90128 445.313 8.59588C445.657 8.28693 446.053 8.06321 446.501 7.92472C446.948 7.78267 447.419 7.71165 447.912 7.71165C448.239 7.71165 448.585 7.75071 448.951 7.82884C449.32 7.90341 449.665 8.0419 449.984 8.24432C450.308 8.44673 450.572 8.73615 450.778 9.11257C450.984 9.48544 451.087 9.97017 451.087 10.5668V16H449.532V14.8814H449.468C449.365 15.0874 449.21 15.2898 449.004 15.4886C448.798 15.6875 448.534 15.8526 448.211 15.984C447.887 16.1154 447.5 16.1811 447.049 16.1811ZM447.396 14.9027C447.836 14.9027 448.212 14.8157 448.525 14.6417C448.841 14.4677 449.081 14.2404 449.244 13.9599C449.411 13.6758 449.494 13.3722 449.494 13.049V11.9943C449.438 12.0511 449.327 12.1044 449.164 12.1541C449.004 12.2003 448.821 12.2411 448.615 12.2766C448.409 12.3086 448.209 12.3388 448.013 12.3672C447.818 12.392 447.655 12.4134 447.523 12.4311C447.214 12.4702 446.932 12.5359 446.676 12.6282C446.424 12.7205 446.222 12.8537 446.069 13.0277C445.92 13.1982 445.846 13.4254 445.846 13.7095C445.846 14.1037 445.991 14.402 446.282 14.6044C446.574 14.8033 446.945 14.9027 447.396 14.9027ZM454.801 5.09091V16H453.208V5.09091H454.801ZM462.687 5.09091V16H461.041V5.09091H462.687ZM466.549 11.142V16H464.956V7.81818H466.485V9.14986H466.586C466.775 8.71662 467.069 8.36861 467.471 8.10582C467.875 7.84304 468.385 7.71165 468.999 7.71165C469.557 7.71165 470.045 7.82884 470.464 8.06321C470.883 8.29403 471.208 8.63849 471.439 9.09659C471.67 9.55469 471.785 10.1211 471.785 10.7958V16H470.193V10.9876C470.193 10.3945 470.038 9.93111 469.729 9.5973C469.42 9.25994 468.996 9.09126 468.456 9.09126C468.087 9.09126 467.758 9.17116 467.471 9.33097C467.187 9.49077 466.961 9.72514 466.794 10.0341C466.631 10.3395 466.549 10.7088 466.549 11.142ZM477.815 7.81818V9.09659H473.191V7.81818H477.815ZM474.459 16V6.87003C474.459 6.35866 474.571 5.9343 474.795 5.59695C475.019 5.25604 475.315 5.00213 475.684 4.83523C476.054 4.66477 476.455 4.57954 476.888 4.57954C477.208 4.57954 477.481 4.60618 477.709 4.65945C477.936 4.70916 478.104 4.75533 478.215 4.79794L477.842 6.087C477.767 6.0657 477.671 6.04084 477.554 6.01243C477.437 5.98047 477.295 5.96449 477.128 5.96449C476.741 5.96449 476.464 6.06037 476.297 6.25213C476.134 6.44389 476.052 6.72088 476.052 7.0831V16H474.459ZM482.582 16.1651C481.815 16.1651 481.146 15.9893 480.574 15.6378C480.003 15.2862 479.559 14.7944 479.243 14.1623C478.927 13.5302 478.769 12.7915 478.769 11.9464C478.769 11.0977 478.927 10.3555 479.243 9.71982C479.559 9.08416 480.003 8.59055 480.574 8.23899C481.146 7.88743 481.815 7.71165 482.582 7.71165C483.35 7.71165 484.019 7.88743 484.591 8.23899C485.162 8.59055 485.606 9.08416 485.922 9.71982C486.238 10.3555 486.396 11.0977 486.396 11.9464C486.396 12.7915 486.238 13.5302 485.922 14.1623C485.606 14.7944 485.162 15.2862 484.591 15.6378C484.019 15.9893 483.35 16.1651 482.582 16.1651ZM482.588 14.8281C483.085 14.8281 483.497 14.6967 483.824 14.4339C484.15 14.1712 484.392 13.8214 484.548 13.3846C484.708 12.9478 484.788 12.4666 484.788 11.9411C484.788 11.419 484.708 10.9396 484.548 10.5028C484.392 10.0625 484.15 9.70916 483.824 9.44283C483.497 9.17649 483.085 9.04332 482.588 9.04332C482.087 9.04332 481.672 9.17649 481.341 9.44283C481.015 9.70916 480.771 10.0625 480.612 10.5028C480.455 10.9396 480.377 11.419 480.377 11.9411C480.377 12.4666 480.455 12.9478 480.612 13.3846C480.771 13.8214 481.015 14.1712 481.341 14.4339C481.672 14.6967 482.087 14.8281 482.588 14.8281Z" fill="#2E263D" fill-opacity="0.9"/>
<rect x="495.5" y="9.5" width="155.5" height="3" rx="1.5" fill="#8C57FF" fill-opacity="0.16"/>
<g clip-path="url(#clip1_8003_3060)">
<circle cx="669" cy="11" r="10" fill="#8C57FF" fill-opacity="0.16"/>
<circle cx="669" cy="11" r="7" fill="white"/>
<path d="M691.847 16.1811C691.006 16.1776 690.287 15.9556 689.69 15.5153C689.093 15.0749 688.637 14.4339 688.321 13.5923C688.005 12.7507 687.847 11.7369 687.847 10.5508C687.847 9.36825 688.005 8.35795 688.321 7.51989C688.641 6.68182 689.099 6.04261 689.695 5.60227C690.295 5.16193 691.013 4.94176 691.847 4.94176C692.682 4.94176 693.397 5.16371 693.994 5.6076C694.591 6.04794 695.047 6.68714 695.363 7.52521C695.683 8.35973 695.842 9.36825 695.842 10.5508C695.842 11.7404 695.684 12.756 695.368 13.5977C695.052 14.4357 694.596 15.0767 693.999 15.5206C693.403 15.9609 692.685 16.1811 691.847 16.1811ZM691.847 14.7589C692.586 14.7589 693.163 14.3984 693.578 13.6776C693.998 12.9567 694.207 11.9144 694.207 10.5508C694.207 9.64524 694.111 8.87997 693.919 8.25497C693.731 7.62642 693.46 7.15057 693.104 6.82741C692.753 6.50071 692.334 6.33736 691.847 6.33736C691.112 6.33736 690.535 6.69957 690.116 7.42401C689.697 8.14844 689.486 9.1907 689.482 10.5508C689.482 11.4599 689.576 12.2287 689.765 12.8572C689.956 13.4822 690.228 13.9563 690.58 14.2795C690.931 14.5991 691.354 14.7589 691.847 14.7589ZM701.53 16.1491C700.798 16.1491 700.145 16.0231 699.57 15.771C698.998 15.5188 698.545 15.169 698.211 14.7216C697.881 14.2706 697.704 13.7486 697.679 13.1555H699.351C699.373 13.4787 699.481 13.7592 699.676 13.9972C699.875 14.2315 700.134 14.4126 700.454 14.5405C700.774 14.6683 701.129 14.7322 701.519 14.7322C701.949 14.7322 702.329 14.6577 702.659 14.5085C702.993 14.3594 703.254 14.1516 703.442 13.8853C703.63 13.6154 703.725 13.3047 703.725 12.9531C703.725 12.5874 703.63 12.266 703.442 11.989C703.258 11.7085 702.986 11.4883 702.627 11.3285C702.272 11.1687 701.842 11.0888 701.338 11.0888H700.417V9.74645H701.338C701.743 9.74645 702.098 9.67365 702.403 9.52805C702.712 9.38246 702.954 9.18004 703.128 8.92081C703.302 8.65803 703.389 8.35085 703.389 7.99929C703.389 7.66193 703.313 7.36896 703.16 7.12038C703.011 6.86825 702.798 6.67116 702.521 6.52912C702.247 6.38707 701.924 6.31605 701.551 6.31605C701.196 6.31605 700.864 6.38175 700.555 6.51314C700.25 6.64098 700.001 6.82564 699.809 7.06712C699.618 7.30504 699.515 7.59091 699.5 7.92472H697.908C697.926 7.33523 698.1 6.81676 698.43 6.36932C698.764 5.92187 699.204 5.57209 699.751 5.31996C700.298 5.06783 700.905 4.94176 701.573 4.94176C702.272 4.94176 702.876 5.07848 703.384 5.35192C703.895 5.6218 704.289 5.98224 704.566 6.43324C704.847 6.88423 704.985 7.37784 704.982 7.91406C704.985 8.52486 704.815 9.04332 704.47 9.46946C704.129 9.8956 703.675 10.1815 703.107 10.3271V10.4123C703.831 10.5224 704.392 10.81 704.79 11.2752C705.191 11.7404 705.39 12.3175 705.386 13.0064C705.39 13.6065 705.223 14.1445 704.886 14.6204C704.552 15.0962 704.096 15.4709 703.517 15.7443C702.938 16.0142 702.276 16.1491 701.53 16.1491Z" fill="#2E263D" fill-opacity="0.9"/>
<path d="M722.148 7.95668C722.092 7.45241 721.857 7.06179 721.445 6.7848C721.033 6.50426 720.515 6.36399 719.89 6.36399C719.442 6.36399 719.055 6.43501 718.729 6.57706C718.402 6.71555 718.148 6.90732 717.967 7.15234C717.789 7.39382 717.701 7.66903 717.701 7.97798C717.701 8.23722 717.761 8.46094 717.882 8.64915C718.006 8.83736 718.168 8.99538 718.366 9.12322C718.569 9.24751 718.786 9.35227 719.016 9.4375C719.247 9.51918 719.469 9.58665 719.682 9.63991L720.748 9.9169C721.096 10.0021 721.452 10.1175 721.818 10.2631C722.184 10.4087 722.523 10.6005 722.836 10.8384C723.148 11.0763 723.4 11.3711 723.592 11.7227C723.787 12.0742 723.885 12.495 723.885 12.9851C723.885 13.603 723.725 14.1516 723.406 14.631C723.089 15.1104 722.63 15.4886 722.026 15.7656C721.426 16.0426 720.7 16.1811 719.847 16.1811C719.031 16.1811 718.324 16.0515 717.727 15.7923C717.131 15.533 716.664 15.1655 716.326 14.6896C715.989 14.2102 715.803 13.642 715.767 12.9851H717.418C717.45 13.3793 717.578 13.7077 717.802 13.9705C718.029 14.2298 718.319 14.4233 718.67 14.5511C719.025 14.6754 719.414 14.7376 719.837 14.7376C720.302 14.7376 720.716 14.6648 721.078 14.5192C721.444 14.37 721.731 14.1641 721.941 13.9013C722.15 13.6349 722.255 13.3242 722.255 12.9691C722.255 12.646 722.163 12.3814 721.978 12.1754C721.797 11.9695 721.55 11.799 721.238 11.6641C720.929 11.5291 720.579 11.4102 720.188 11.3072L718.899 10.9556C718.026 10.7177 717.333 10.3679 716.822 9.90625C716.314 9.4446 716.06 8.83381 716.06 8.07386C716.06 7.44531 716.23 6.89666 716.571 6.42791C716.912 5.95916 717.374 5.59517 717.956 5.33594C718.539 5.07315 719.196 4.94176 719.927 4.94176C720.666 4.94176 721.317 5.07138 721.882 5.33061C722.45 5.58984 722.898 5.94673 723.224 6.40128C723.551 6.85227 723.722 7.37074 723.736 7.95668H722.148ZM729.17 16.1651C728.403 16.1651 727.734 15.9893 727.162 15.6378C726.59 15.2862 726.147 14.7944 725.831 14.1623C725.514 13.5302 725.356 12.7915 725.356 11.9464C725.356 11.0977 725.514 10.3555 725.831 9.71982C726.147 9.08416 726.59 8.59055 727.162 8.23899C727.734 7.88743 728.403 7.71165 729.17 7.71165C729.937 7.71165 730.607 7.88743 731.179 8.23899C731.75 8.59055 732.194 9.08416 732.51 9.71982C732.826 10.3555 732.984 11.0977 732.984 11.9464C732.984 12.7915 732.826 13.5302 732.51 14.1623C732.194 14.7944 731.75 15.2862 731.179 15.6378C730.607 15.9893 729.937 16.1651 729.17 16.1651ZM729.176 14.8281C729.673 14.8281 730.085 14.6967 730.411 14.4339C730.738 14.1712 730.98 13.8214 731.136 13.3846C731.296 12.9478 731.376 12.4666 731.376 11.9411C731.376 11.419 731.296 10.9396 731.136 10.5028C730.98 10.0625 730.738 9.70916 730.411 9.44283C730.085 9.17649 729.673 9.04332 729.176 9.04332C728.675 9.04332 728.259 9.17649 727.929 9.44283C727.603 9.70916 727.359 10.0625 727.199 10.5028C727.043 10.9396 726.965 11.419 726.965 11.9411C726.965 12.4666 727.043 12.9478 727.199 13.3846C727.359 13.8214 727.603 14.1712 727.929 14.4339C728.259 14.6967 728.675 14.8281 729.176 14.8281ZM738.208 16.1651C737.417 16.1651 736.735 15.9858 736.163 15.6271C735.595 15.2649 735.158 14.766 734.853 14.1303C734.547 13.4947 734.395 12.7667 734.395 11.9464C734.395 11.1154 734.551 10.3821 734.863 9.74645C735.176 9.10724 735.616 8.60831 736.184 8.24964C736.752 7.89098 737.422 7.71165 738.192 7.71165C738.814 7.71165 739.368 7.82706 739.854 8.05788C740.341 8.28516 740.733 8.60476 741.032 9.01669C741.333 9.42862 741.513 9.9098 741.57 10.4602H740.02C739.934 10.0767 739.739 9.74645 739.434 9.46946C739.132 9.19247 738.727 9.05398 738.219 9.05398C737.775 9.05398 737.386 9.17116 737.053 9.40554C736.722 9.63636 736.465 9.96662 736.28 10.3963C736.096 10.8224 736.003 11.3267 736.003 11.9091C736.003 12.5057 736.094 13.0206 736.275 13.4538C736.456 13.8871 736.712 14.2227 737.042 14.4606C737.376 14.6985 737.768 14.8175 738.219 14.8175C738.521 14.8175 738.794 14.7624 739.039 14.6523C739.288 14.5387 739.496 14.3771 739.663 14.1676C739.833 13.9581 739.952 13.706 740.02 13.4112H741.57C741.513 13.9403 741.341 14.4126 741.053 14.8281C740.765 15.2436 740.38 15.5703 739.897 15.8082C739.418 16.0462 738.855 16.1651 738.208 16.1651ZM743.273 16V7.81818H744.866V16H743.273ZM744.077 6.55575C743.8 6.55575 743.562 6.46342 743.363 6.27876C743.168 6.09055 743.07 5.86683 743.07 5.6076C743.07 5.34482 743.168 5.12109 743.363 4.93643C743.562 4.74822 743.8 4.65412 744.077 4.65412C744.354 4.65412 744.59 4.74822 744.786 4.93643C744.984 5.12109 745.084 5.34482 745.084 5.6076C745.084 5.86683 744.984 6.09055 744.786 6.27876C744.59 6.46342 744.354 6.55575 744.077 6.55575ZM749.389 16.1811C748.871 16.1811 748.402 16.0852 747.983 15.8935C747.564 15.6982 747.232 15.4158 746.987 15.0465C746.745 14.6772 746.625 14.2244 746.625 13.6882C746.625 13.2266 746.713 12.8466 746.891 12.5483C747.069 12.25 747.308 12.0138 747.61 11.8398C747.912 11.6658 748.249 11.5344 748.622 11.4457C748.995 11.3569 749.375 11.2894 749.762 11.2433C750.252 11.1864 750.65 11.1403 750.955 11.1048C751.261 11.0657 751.483 11.0036 751.621 10.9183C751.76 10.8331 751.829 10.6946 751.829 10.5028V10.4656C751.829 10.0004 751.697 9.63991 751.435 9.38423C751.175 9.12855 750.788 9.00071 750.273 9.00071C749.737 9.00071 749.315 9.11967 749.006 9.3576C748.7 9.59197 748.489 9.85298 748.372 10.1406L746.875 9.79972C747.053 9.30256 747.312 8.90128 747.653 8.59588C747.997 8.28693 748.393 8.06321 748.841 7.92472C749.288 7.78267 749.759 7.71165 750.252 7.71165C750.579 7.71165 750.925 7.75071 751.291 7.82884C751.66 7.90341 752.005 8.0419 752.324 8.24432C752.647 8.44673 752.912 8.73615 753.118 9.11257C753.324 9.48544 753.427 9.97017 753.427 10.5668V16H751.871V14.8814H751.808C751.705 15.0874 751.55 15.2898 751.344 15.4886C751.138 15.6875 750.874 15.8526 750.55 15.984C750.227 16.1154 749.84 16.1811 749.389 16.1811ZM749.735 14.9027C750.176 14.9027 750.552 14.8157 750.865 14.6417C751.181 14.4677 751.42 14.2404 751.584 13.9599C751.751 13.6758 751.834 13.3722 751.834 13.049V11.9943C751.777 12.0511 751.667 12.1044 751.504 12.1541C751.344 12.2003 751.161 12.2411 750.955 12.2766C750.749 12.3086 750.549 12.3388 750.353 12.3672C750.158 12.392 749.995 12.4134 749.863 12.4311C749.554 12.4702 749.272 12.5359 749.016 12.6282C748.764 12.7205 748.562 12.8537 748.409 13.0277C748.26 13.1982 748.185 13.4254 748.185 13.7095C748.185 14.1037 748.331 14.402 748.622 14.6044C748.913 14.8033 749.284 14.9027 749.735 14.9027ZM757.141 5.09091V16H755.548V5.09091H757.141ZM763.381 16V5.09091H765.027V14.5831H769.97V16H763.381ZM771.72 16V7.81818H773.313V16H771.72ZM772.524 6.55575C772.247 6.55575 772.009 6.46342 771.811 6.27876C771.615 6.09055 771.518 5.86683 771.518 5.6076C771.518 5.34482 771.615 5.12109 771.811 4.93643C772.009 4.74822 772.247 4.65412 772.524 4.65412C772.801 4.65412 773.038 4.74822 773.233 4.93643C773.432 5.12109 773.531 5.34482 773.531 5.6076C773.531 5.86683 773.432 6.09055 773.233 6.27876C773.038 6.46342 772.801 6.55575 772.524 6.55575ZM777.048 11.142V16H775.455V7.81818H776.984V9.14986H777.085C777.274 8.71662 777.568 8.36861 777.97 8.10582C778.374 7.84304 778.884 7.71165 779.498 7.71165C780.056 7.71165 780.544 7.82884 780.963 8.06321C781.382 8.29403 781.707 8.63849 781.938 9.09659C782.169 9.55469 782.284 10.1211 782.284 10.7958V16H780.692V10.9876C780.692 10.3945 780.537 9.93111 780.228 9.5973C779.919 9.25994 779.495 9.09126 778.955 9.09126C778.586 9.09126 778.257 9.17116 777.97 9.33097C777.686 9.49077 777.46 9.72514 777.293 10.0341C777.13 10.3395 777.048 10.7088 777.048 11.142ZM785.885 13.2248L785.874 11.2805H786.151L789.411 7.81818H791.318L787.6 11.7599H787.35L785.885 13.2248ZM784.42 16V5.09091H786.013V16H784.42ZM789.587 16L786.657 12.1115L787.755 10.9982L791.542 16H789.587ZM798.901 9.8157L797.457 10.0714C797.397 9.88672 797.301 9.71094 797.17 9.54403C797.042 9.37713 796.868 9.24041 796.648 9.13388C796.428 9.02734 796.152 8.97408 795.822 8.97408C795.371 8.97408 794.995 9.07528 794.693 9.2777C794.391 9.47656 794.24 9.73402 794.24 10.0501C794.24 10.3235 794.341 10.5437 794.544 10.7106C794.746 10.8775 795.073 11.0142 795.524 11.1207L796.824 11.419C797.576 11.593 798.137 11.8612 798.507 12.2234C798.876 12.5856 799.061 13.0561 799.061 13.6349C799.061 14.125 798.919 14.5618 798.635 14.9453C798.354 15.3253 797.962 15.6236 797.457 15.8402C796.957 16.0568 796.376 16.1651 795.716 16.1651C794.799 16.1651 794.052 15.9698 793.473 15.5792C792.894 15.185 792.539 14.6257 792.408 13.9013L793.947 13.6669C794.043 14.0682 794.24 14.3718 794.538 14.5778C794.837 14.7802 795.225 14.8814 795.705 14.8814C796.227 14.8814 796.644 14.7731 796.957 14.5565C797.269 14.3363 797.425 14.0682 797.425 13.7521C797.425 13.4964 797.33 13.2816 797.138 13.1076C796.95 12.9336 796.66 12.8022 796.27 12.7134L794.885 12.4098C794.121 12.2358 793.556 11.9588 793.191 11.5788C792.828 11.1989 792.647 10.7177 792.647 10.1353C792.647 9.65234 792.782 9.22976 793.052 8.86754C793.322 8.50533 793.695 8.22301 794.171 8.0206C794.647 7.81463 795.192 7.71165 795.806 7.71165C796.69 7.71165 797.386 7.90341 797.894 8.28693C798.402 8.6669 798.738 9.17649 798.901 9.8157Z" fill="#2E263D" fill-opacity="0.9"/>
</g>
<defs>
<clipPath id="clip0_8003_3060">
<rect width="167" height="22" fill="white"/>
</clipPath>
<clipPath id="clip1_8003_3060">
<rect width="141" height="22" fill="white" transform="translate(659)"/>
</clipPath>
</defs>
</svg>
