<svg width="150" height="74" viewBox="0 0 150 74" fill="none" xmlns="http://www.w3.org/2000/svg">
<g clip-path="url(#clip0_8003_3142)">
<path d="M0 6C0 2.68629 2.68629 0 6 0H144C147.314 0 150 2.68629 150 6V56H0V6Z" fill="#2E263D" fill-opacity="0.04"/>
<path d="M17.1449 20.5V11.0455H18.2898V19.4844H22.6847V20.5H17.1449ZM26.3963 20.6662C25.947 20.6662 25.5392 20.5816 25.1729 20.4123C24.8067 20.2399 24.5159 19.9922 24.3004 19.669C24.085 19.3428 23.9773 18.9489 23.9773 18.4872C23.9773 18.081 24.0573 17.7517 24.2173 17.4993C24.3774 17.2438 24.5913 17.0438 24.859 16.8991C25.1268 16.7545 25.4222 16.6468 25.7454 16.576C26.0716 16.5021 26.3994 16.4437 26.7287 16.4006C27.1596 16.3452 27.5089 16.3036 27.7766 16.2759C28.0475 16.2451 28.2444 16.1944 28.3675 16.1236C28.4937 16.0528 28.5568 15.9297 28.5568 15.7543V15.7173C28.5568 15.2618 28.4322 14.9079 28.1829 14.6555C27.9367 14.4032 27.5627 14.277 27.0611 14.277C26.541 14.277 26.1332 14.3909 25.8377 14.6186C25.5423 14.8464 25.3345 15.0895 25.2145 15.348L24.1804 14.9787C24.3651 14.5478 24.6113 14.2124 24.919 13.9723C25.2299 13.7292 25.5684 13.5599 25.9347 13.4645C26.304 13.366 26.6671 13.3168 27.0241 13.3168C27.2519 13.3168 27.5135 13.3445 27.8089 13.3999C28.1075 13.4522 28.3952 13.5614 28.6722 13.7276C28.9523 13.8938 29.1847 14.1446 29.3693 14.4801C29.554 14.8156 29.6463 15.2649 29.6463 15.8281V20.5H28.5568V19.5398H28.5014C28.4276 19.6937 28.3045 19.8583 28.1321 20.0337C27.9598 20.2092 27.7305 20.3584 27.4442 20.4815C27.158 20.6046 26.8087 20.6662 26.3963 20.6662ZM26.5625 19.6875C26.9934 19.6875 27.3565 19.6029 27.652 19.4336C27.9505 19.2643 28.1752 19.0458 28.326 18.7781C28.4799 18.5103 28.5568 18.2287 28.5568 17.9332V16.9361C28.5107 16.9915 28.4091 17.0423 28.2521 17.0884C28.0982 17.1315 27.9197 17.17 27.7166 17.2038C27.5166 17.2346 27.3211 17.2623 27.1303 17.2869C26.9426 17.3085 26.7902 17.3269 26.6733 17.3423C26.3902 17.3793 26.1255 17.4393 25.8793 17.5224C25.6361 17.6024 25.4392 17.724 25.2884 17.8871C25.1406 18.0471 25.0668 18.2656 25.0668 18.5426C25.0668 18.9212 25.2068 19.2074 25.4869 19.4013C25.77 19.5921 26.1286 19.6875 26.5625 19.6875ZM31.7826 20.5V11.0455H32.8721V14.5355H32.9644C33.0444 14.4124 33.1552 14.2554 33.2968 14.0646C33.4414 13.8707 33.6476 13.6984 33.9154 13.5476C34.1862 13.3937 34.5525 13.3168 35.0141 13.3168C35.6112 13.3168 36.1375 13.466 36.593 13.7646C37.0484 14.0631 37.4039 14.4863 37.6594 15.0341C37.9148 15.5819 38.0425 16.2282 38.0425 16.973C38.0425 17.724 37.9148 18.3749 37.6594 18.9258C37.4039 19.4736 37.05 19.8983 36.5976 20.1999C36.1452 20.4985 35.6235 20.6477 35.0326 20.6477C34.5771 20.6477 34.2124 20.5723 33.9385 20.4215C33.6646 20.2676 33.4537 20.0937 33.306 19.8999C33.1583 19.7029 33.0444 19.5398 32.9644 19.4105H32.8351V20.5H31.7826ZM32.8536 16.9545C32.8536 17.4901 32.9321 17.9625 33.089 18.3718C33.246 18.7781 33.4753 19.0966 33.7769 19.3274C34.0785 19.5552 34.4478 19.669 34.8849 19.669C35.3403 19.669 35.7204 19.549 36.0251 19.3089C36.3329 19.0658 36.5637 18.7396 36.7176 18.3303C36.8746 17.9179 36.953 17.4593 36.953 16.9545C36.953 16.456 36.8761 16.0066 36.7222 15.6065C36.5714 15.2034 36.3421 14.8848 36.0344 14.6509C35.7297 14.4139 35.3465 14.2955 34.8849 14.2955C34.4417 14.2955 34.0693 14.4078 33.7677 14.6325C33.4661 14.854 33.2383 15.1649 33.0844 15.565C32.9305 15.962 32.8536 16.4252 32.8536 16.9545ZM42.6821 20.6477C41.9988 20.6477 41.4095 20.4969 40.914 20.1953C40.4215 19.8906 40.0415 19.4659 39.7737 18.9212C39.509 18.3733 39.3767 17.7363 39.3767 17.0099C39.3767 16.2836 39.509 15.6435 39.7737 15.0895C40.0415 14.5324 40.4139 14.0985 40.8909 13.7876C41.371 13.4737 41.9311 13.3168 42.5713 13.3168C42.9406 13.3168 43.3053 13.3783 43.6654 13.5014C44.0255 13.6245 44.3532 13.8246 44.6487 14.1016C44.9442 14.3755 45.1796 14.7386 45.355 15.1911C45.5305 15.6435 45.6182 16.2005 45.6182 16.8622V17.3239H40.1523V16.3821H44.5102C44.5102 15.982 44.4302 15.625 44.2702 15.3111C44.1132 14.9972 43.8885 14.7494 43.5961 14.5678C43.3068 14.3862 42.9652 14.2955 42.5713 14.2955C42.1373 14.2955 41.7619 14.4032 41.4449 14.6186C41.1309 14.831 40.8894 15.108 40.7201 15.4496C40.5508 15.7912 40.4662 16.1574 40.4662 16.5483V17.1761C40.4662 17.7116 40.5585 18.1656 40.7432 18.538C40.9309 18.9073 41.191 19.1889 41.5233 19.3828C41.8557 19.5736 42.242 19.669 42.6821 19.669C42.9683 19.669 43.2268 19.629 43.4577 19.549C43.6916 19.4659 43.8931 19.3428 44.0624 19.1797C44.2317 19.0135 44.3625 18.8073 44.4548 18.5611L45.5074 18.8565C45.3966 19.2135 45.2104 19.5275 44.9488 19.7983C44.6872 20.0661 44.364 20.2753 43.9793 20.4261C43.5946 20.5739 43.1622 20.6477 42.6821 20.6477ZM48.365 11.0455V20.5H47.2755V11.0455H48.365Z" fill="#2E263D" fill-opacity="0.7"/>
<path d="M18.642 29.5909V40.5H17.321V29.5909H18.642ZM22.3774 35.5781V40.5H21.1203V32.3182H22.3348V33.5966H22.4413C22.6331 33.1811 22.9243 32.8473 23.3149 32.5952C23.7055 32.3395 24.2098 32.2116 24.8277 32.2116C25.3817 32.2116 25.8664 32.3253 26.2819 32.5526C26.6974 32.7763 27.0205 33.1172 27.2513 33.5753C27.4822 34.0298 27.5976 34.6051 27.5976 35.3011V40.5H26.3405V35.3864C26.3405 34.7436 26.1736 34.2429 25.8398 33.8842C25.5059 33.522 25.0479 33.3409 24.4655 33.3409C24.0642 33.3409 23.7055 33.4279 23.3895 33.6019C23.077 33.7759 22.8302 34.0298 22.6491 34.3636C22.468 34.6974 22.3774 35.1023 22.3774 35.5781ZM29.8947 43.5682V32.3182H31.1092V33.6179H31.2583C31.3507 33.4759 31.4785 33.2947 31.6419 33.0746C31.8088 32.8509 32.0467 32.652 32.3556 32.478C32.6681 32.3004 33.0907 32.2116 33.6234 32.2116C34.3123 32.2116 34.9196 32.3839 35.4451 32.7283C35.9707 33.0728 36.3809 33.5611 36.6756 34.1932C36.9703 34.8253 37.1177 35.571 37.1177 36.4304C37.1177 37.2969 36.9703 38.0479 36.6756 38.6836C36.3809 39.3157 35.9725 39.8058 35.4505 40.1538C34.9284 40.4982 34.3265 40.6705 33.6447 40.6705C33.1191 40.6705 32.6983 40.5835 32.3823 40.4094C32.0662 40.2319 31.823 40.0312 31.6525 39.8075C31.4821 39.5803 31.3507 39.392 31.2583 39.2429H31.1518V43.5682H29.8947ZM31.1305 36.4091C31.1305 37.027 31.2211 37.5721 31.4022 38.0444C31.5833 38.5131 31.8478 38.8807 32.1958 39.147C32.5439 39.4098 32.97 39.5412 33.4743 39.5412C33.9998 39.5412 34.4384 39.4027 34.79 39.1257C35.1451 38.8452 35.4114 38.4687 35.589 37.9964C35.7701 37.5206 35.8606 36.9915 35.8606 36.4091C35.8606 35.8338 35.7718 35.3153 35.5943 34.8537C35.4203 34.3885 35.1557 34.021 34.8006 33.7511C34.449 33.4776 34.0069 33.3409 33.4743 33.3409C32.9629 33.3409 32.5332 33.4705 32.1852 33.7298C31.8372 33.9854 31.5744 34.3441 31.3968 34.8058C31.2193 35.2638 31.1305 35.7983 31.1305 36.4091ZM44.1916 37.1548V32.3182H45.4487V40.5H44.1916V39.1151H44.1064C43.9146 39.5305 43.6163 39.8839 43.2115 40.1751C42.8066 40.4627 42.2953 40.6065 41.6774 40.6065C41.166 40.6065 40.7115 40.4947 40.3137 40.271C39.916 40.0437 39.6035 39.7028 39.3762 39.2482C39.149 38.7901 39.0353 38.2131 39.0353 37.517V32.3182H40.2924V37.4318C40.2924 38.0284 40.4593 38.5043 40.7931 38.8594C41.1305 39.2145 41.5602 39.392 42.0822 39.392C42.3947 39.392 42.7125 39.3121 43.0357 39.1523C43.3624 38.9925 43.6358 38.7475 43.856 38.4173C44.0797 38.087 44.1916 37.6662 44.1916 37.1548ZM51.3094 32.3182V33.3835H47.0693V32.3182H51.3094ZM48.3051 30.358H49.5622V38.1562C49.5622 38.5114 49.6137 38.7777 49.7167 38.9553C49.8232 39.1293 49.9582 39.2464 50.1215 39.3068C50.2884 39.3636 50.4642 39.392 50.6489 39.392C50.7874 39.392 50.901 39.3849 50.9898 39.3707C51.0786 39.353 51.1496 39.3388 51.2029 39.3281L51.4585 40.4574C51.3733 40.4893 51.2544 40.5213 51.1017 40.5533C50.949 40.5888 50.7554 40.6065 50.521 40.6065C50.1659 40.6065 49.8179 40.5302 49.477 40.3775C49.1396 40.2248 48.8591 39.9922 48.6354 39.6797C48.4152 39.3672 48.3051 38.973 48.3051 38.4972V30.358Z" fill="#2E263D" fill-opacity="0.9"/>
</g>
<line y1="55.5" x2="150" y2="55.5" stroke="#2E263D" stroke-opacity="0.7"/>
<path d="M17.1449 71V61.5455H18.2898V65.7557H23.331V61.5455H24.4759V71H23.331V66.7713H18.2898V71H17.1449ZM29.5932 71.1477C28.91 71.1477 28.3206 70.9969 27.8251 70.6953C27.3327 70.3906 26.9526 69.9659 26.6848 69.4212C26.4202 68.8733 26.2878 68.2363 26.2878 67.5099C26.2878 66.7836 26.4202 66.1435 26.6848 65.5895C26.9526 65.0324 27.325 64.5985 27.802 64.2876C28.2821 63.9737 28.8423 63.8168 29.4824 63.8168C29.8517 63.8168 30.2164 63.8783 30.5765 64.0014C30.9366 64.1245 31.2644 64.3246 31.5598 64.6016C31.8553 64.8755 32.0907 65.2386 32.2662 65.6911C32.4416 66.1435 32.5293 66.7005 32.5293 67.3622V67.8239H27.0634V66.8821H31.4213C31.4213 66.482 31.3413 66.125 31.1813 65.8111C31.0243 65.4972 30.7997 65.2494 30.5073 65.0678C30.218 64.8862 29.8764 64.7955 29.4824 64.7955C29.0485 64.7955 28.673 64.9032 28.356 65.1186C28.0421 65.331 27.8005 65.608 27.6312 65.9496C27.4619 66.2912 27.3773 66.6574 27.3773 67.0483V67.6761C27.3773 68.2116 27.4696 68.6656 27.6543 69.038C27.842 69.4073 28.1021 69.6889 28.4345 69.8828C28.7669 70.0736 29.1531 70.169 29.5932 70.169C29.8794 70.169 30.138 70.129 30.3688 70.049C30.6027 69.9659 30.8043 69.8428 30.9735 69.6797C31.1428 69.5135 31.2736 69.3073 31.3659 69.0611L32.4185 69.3565C32.3077 69.7135 32.1215 70.0275 31.8599 70.2983C31.5983 70.5661 31.2752 70.7753 30.8904 70.9261C30.5057 71.0739 30.0733 71.1477 29.5932 71.1477ZM35.2761 61.5455V71H34.1866V61.5455H35.2761ZM37.2716 73.6591V63.9091H38.3241V65.0355H38.4534C38.5334 64.9124 38.6442 64.7554 38.7858 64.5646C38.9304 64.3707 39.1366 64.1984 39.4044 64.0476C39.6752 63.8937 40.0415 63.8168 40.5031 63.8168C41.1002 63.8168 41.6265 63.966 42.0819 64.2646C42.5374 64.5631 42.8929 64.9863 43.1483 65.5341C43.4038 66.0819 43.5315 66.7282 43.5315 67.473C43.5315 68.224 43.4038 68.8749 43.1483 69.4258C42.8929 69.9736 42.539 70.3983 42.0866 70.6999C41.6341 70.9985 41.1125 71.1477 40.5216 71.1477C40.0661 71.1477 39.7014 71.0723 39.4275 70.9215C39.1536 70.7676 38.9427 70.5937 38.795 70.3999C38.6473 70.2029 38.5334 70.0398 38.4534 69.9105H38.3611V73.6591H37.2716ZM38.3426 67.4545C38.3426 67.9901 38.4211 68.4625 38.578 68.8718C38.735 69.2781 38.9643 69.5966 39.2659 69.8274C39.5675 70.0552 39.9368 70.169 40.3738 70.169C40.8293 70.169 41.2094 70.049 41.5141 69.8089C41.8219 69.5658 42.0527 69.2396 42.2066 68.8303C42.3635 68.4179 42.442 67.9593 42.442 67.4545C42.442 66.956 42.3651 66.5066 42.2112 66.1065C42.0604 65.7034 41.8311 65.3848 41.5233 65.1509C41.2187 64.9139 40.8355 64.7955 40.3738 64.7955C39.9307 64.7955 39.5583 64.9078 39.2567 65.1325C38.955 65.354 38.7273 65.6649 38.5734 66.065C38.4195 66.462 38.3426 66.9252 38.3426 67.4545ZM51.9335 63.9091V64.8324H48.2588V63.9091H51.9335ZM49.3298 62.2102H50.4193V68.9688C50.4193 69.2765 50.4639 69.5073 50.5532 69.6612C50.6455 69.812 50.7625 69.9136 50.904 69.9659C51.0487 70.0152 51.201 70.0398 51.3611 70.0398C51.4811 70.0398 51.5796 70.0336 51.6565 70.0213C51.7335 70.0059 51.795 69.9936 51.8412 69.9844L52.0628 70.9631C51.9889 70.9908 51.8858 71.0185 51.7535 71.0462C51.6211 71.0769 51.4534 71.0923 51.2503 71.0923C50.9425 71.0923 50.6409 71.0262 50.3454 70.8938C50.0531 70.7615 49.8099 70.5599 49.616 70.2891C49.4252 70.0182 49.3298 69.6766 49.3298 69.2642V62.2102ZM56.4692 71.1477C55.786 71.1477 55.1966 70.9969 54.7011 70.6953C54.2087 70.3906 53.8286 69.9659 53.5608 69.4212C53.2961 68.8733 53.1638 68.2363 53.1638 67.5099C53.1638 66.7836 53.2961 66.1435 53.5608 65.5895C53.8286 65.0324 54.201 64.5985 54.678 64.2876C55.1581 63.9737 55.7182 63.8168 56.3584 63.8168C56.7277 63.8168 57.0924 63.8783 57.4525 64.0014C57.8126 64.1245 58.1404 64.3246 58.4358 64.6016C58.7313 64.8755 58.9667 65.2386 59.1421 65.6911C59.3176 66.1435 59.4053 66.7005 59.4053 67.3622V67.8239H53.9394V66.8821H58.2973C58.2973 66.482 58.2173 66.125 58.0573 65.8111C57.9003 65.4972 57.6756 65.2494 57.3833 65.0678C57.094 64.8862 56.7523 64.7955 56.3584 64.7955C55.9244 64.7955 55.549 64.9032 55.232 65.1186C54.9181 65.331 54.6765 65.608 54.5072 65.9496C54.3379 66.2912 54.2533 66.6574 54.2533 67.0483V67.6761C54.2533 68.2116 54.3456 68.6656 54.5303 69.038C54.718 69.4073 54.9781 69.6889 55.3105 69.8828C55.6428 70.0736 56.0291 70.169 56.4692 70.169C56.7554 70.169 57.0139 70.129 57.2448 70.049C57.4787 69.9659 57.6802 69.8428 57.8495 69.6797C58.0188 69.5135 58.1496 69.3073 58.2419 69.0611L59.2945 69.3565C59.1837 69.7135 58.9975 70.0275 58.7359 70.2983C58.4743 70.5661 58.1511 70.7753 57.7664 70.9261C57.3817 71.0739 56.9493 71.1477 56.4692 71.1477ZM61.6847 63.9091L63.3835 66.8082L65.0824 63.9091H66.3381L64.0483 67.4545L66.3381 71H65.0824L63.3835 68.2486L61.6847 71H60.429L62.6818 67.4545L60.429 63.9091H61.6847ZM70.9765 63.9091V64.8324H67.3018V63.9091H70.9765ZM68.3728 62.2102H69.4623V68.9688C69.4623 69.2765 69.5069 69.5073 69.5961 69.6612C69.6885 69.812 69.8054 69.9136 69.947 69.9659C70.0916 70.0152 70.244 70.0398 70.404 70.0398C70.5241 70.0398 70.6225 70.0336 70.6995 70.0213C70.7764 70.0059 70.838 69.9936 70.8841 69.9844L71.1057 70.9631C71.0319 70.9908 70.9288 71.0185 70.7964 71.0462C70.6641 71.0769 70.4964 71.0923 70.2932 71.0923C69.9855 71.0923 69.6839 71.0262 69.3884 70.8938C69.096 70.7615 68.8529 70.5599 68.659 70.2891C68.4682 70.0182 68.3728 69.6766 68.3728 69.2642V62.2102Z" fill="#2E263D" fill-opacity="0.7"/>
<defs>
<clipPath id="clip0_8003_3142">
<path d="M0 6C0 2.68629 2.68629 0 6 0H144C147.314 0 150 2.68629 150 6V56H0V6Z" fill="white"/>
</clipPath>
</defs>
</svg>
