<svg width="341" height="288" viewBox="0 0 341 288" fill="none" xmlns="http://www.w3.org/2000/svg">
<rect width="340.8" height="288" fill="white"/>
<path d="M21.1449 33V23.5455H24.4503C25.1089 23.5455 25.6521 23.6593 26.0799 23.8871C26.5077 24.1117 26.8262 24.4149 27.0355 24.7965C27.2448 25.1751 27.3494 25.5952 27.3494 26.0568C27.3494 26.4631 27.2771 26.7985 27.1325 27.0632C26.9909 27.3279 26.8031 27.5372 26.5692 27.6911C26.3384 27.8449 26.0876 27.9588 25.8168 28.0327V28.125C26.1061 28.1435 26.3969 28.245 26.6893 28.4297C26.9817 28.6143 27.2263 28.879 27.4233 29.2237C27.6203 29.5684 27.7188 29.9901 27.7188 30.4886C27.7188 30.9626 27.611 31.3888 27.3956 31.7674C27.1802 32.146 26.8401 32.446 26.3754 32.6676C25.9106 32.8892 25.3059 33 24.5611 33H21.1449ZM22.2898 31.9844H24.5611C25.3089 31.9844 25.8398 31.8397 26.1538 31.5504C26.4708 31.258 26.6293 30.9041 26.6293 30.4886C26.6293 30.1686 26.5477 29.8731 26.3846 29.6023C26.2215 29.3284 25.9891 29.1098 25.6875 28.9467C25.3859 28.7805 25.0289 28.6974 24.6165 28.6974H22.2898V31.9844ZM22.2898 27.7003H24.4134C24.758 27.7003 25.0689 27.6326 25.3459 27.4972C25.6259 27.3617 25.8475 27.1709 26.0107 26.9247C26.1768 26.6785 26.2599 26.3892 26.2599 26.0568C26.2599 25.6413 26.1153 25.2889 25.826 24.9996C25.5367 24.7073 25.0781 24.5611 24.4503 24.5611H22.2898V27.7003ZM31.5389 33.1662C31.0895 33.1662 30.6818 33.0816 30.3155 32.9123C29.9493 32.7399 29.6584 32.4922 29.443 32.169C29.2276 31.8428 29.1199 31.4489 29.1199 30.9872C29.1199 30.581 29.1999 30.2517 29.3599 29.9993C29.5199 29.7438 29.7338 29.5438 30.0016 29.3991C30.2694 29.2545 30.5648 29.1468 30.888 29.076C31.2142 29.0021 31.542 28.9437 31.8713 28.9006C32.3021 28.8452 32.6515 28.8036 32.9192 28.7759C33.19 28.7451 33.387 28.6944 33.5101 28.6236C33.6363 28.5528 33.6994 28.4297 33.6994 28.2543V28.2173C33.6994 27.7618 33.5748 27.4079 33.3255 27.1555C33.0792 26.9032 32.7053 26.777 32.2037 26.777C31.6835 26.777 31.2757 26.8909 30.9803 27.1186C30.6848 27.3464 30.4771 27.5895 30.3571 27.848L29.323 27.4787C29.5076 27.0478 29.7538 26.7124 30.0616 26.4723C30.3725 26.2292 30.711 26.0599 31.0772 25.9645C31.4466 25.866 31.8097 25.8168 32.1667 25.8168C32.3945 25.8168 32.6561 25.8445 32.9515 25.8999C33.2501 25.9522 33.5378 26.0614 33.8148 26.2276C34.0949 26.3938 34.3272 26.6446 34.5119 26.9801C34.6966 27.3156 34.7889 27.7649 34.7889 28.3281V33H33.6994V32.0398H33.644C33.5701 32.1937 33.447 32.3583 33.2747 32.5337C33.1023 32.7092 32.873 32.8584 32.5868 32.9815C32.3006 33.1046 31.9513 33.1662 31.5389 33.1662ZM31.7051 32.1875C32.1359 32.1875 32.4991 32.1029 32.7946 31.9336C33.0931 31.7643 33.3178 31.5458 33.4686 31.2781C33.6225 31.0103 33.6994 30.7287 33.6994 30.4332V29.4361C33.6532 29.4915 33.5517 29.5423 33.3947 29.5884C33.2408 29.6315 33.0623 29.67 32.8592 29.7038C32.6592 29.7346 32.4637 29.7623 32.2729 29.7869C32.0852 29.8085 31.9328 29.8269 31.8159 29.8423C31.5327 29.8793 31.2681 29.9393 31.0218 30.0224C30.7787 30.1024 30.5817 30.224 30.4309 30.3871C30.2832 30.5471 30.2093 30.7656 30.2093 31.0426C30.2093 31.4212 30.3494 31.7074 30.6294 31.9013C30.9126 32.0921 31.2711 32.1875 31.7051 32.1875ZM41.8002 27.4972L40.8215 27.7741C40.7599 27.611 40.6691 27.4525 40.5491 27.2987C40.4321 27.1417 40.2721 27.0124 40.069 26.9109C39.8659 26.8093 39.6058 26.7585 39.2888 26.7585C38.8548 26.7585 38.4932 26.8585 38.2039 27.0586C37.9177 27.2556 37.7746 27.5064 37.7746 27.8111C37.7746 28.0819 37.8731 28.2958 38.07 28.4528C38.267 28.6097 38.5748 28.7405 38.9933 28.8452L40.0459 29.1037C40.6799 29.2576 41.1523 29.493 41.4632 29.81C41.774 30.1239 41.9294 30.5286 41.9294 31.0241C41.9294 31.4304 41.8125 31.7936 41.5786 32.1136C41.3477 32.4337 41.0246 32.6861 40.6091 32.8707C40.1936 33.0554 39.7104 33.1477 39.1595 33.1477C38.4363 33.1477 37.8377 32.9908 37.3637 32.6768C36.8898 32.3629 36.5897 31.9044 36.4635 31.3011L37.4976 31.0426C37.5961 31.4242 37.7823 31.7105 38.0562 31.9013C38.3332 32.0921 38.6948 32.1875 39.1411 32.1875C39.6489 32.1875 40.0521 32.0798 40.3506 31.8643C40.6522 31.6458 40.803 31.3842 40.803 31.0795C40.803 30.8333 40.7168 30.6271 40.5445 30.4609C40.3721 30.2917 40.1075 30.1655 39.7504 30.0824L38.5686 29.8054C37.9192 29.6515 37.4422 29.413 37.1375 29.0898C36.8359 28.7636 36.6851 28.3558 36.6851 27.8665C36.6851 27.4664 36.7974 27.1125 37.0221 26.8047C37.2499 26.4969 37.5592 26.2553 37.95 26.0799C38.344 25.9045 38.7902 25.8168 39.2888 25.8168C39.9905 25.8168 40.5414 25.9706 40.9415 26.2784C41.3447 26.5862 41.6309 26.9924 41.8002 27.4972ZM43.5694 33V25.9091H44.6589V33H43.5694ZM44.1234 24.7273C43.911 24.7273 43.7279 24.6549 43.574 24.5103C43.4232 24.3656 43.3478 24.1918 43.3478 23.9886C43.3478 23.7855 43.4232 23.6116 43.574 23.467C43.7279 23.3223 43.911 23.25 44.1234 23.25C44.3358 23.25 44.5173 23.3223 44.6681 23.467C44.822 23.6116 44.899 23.7855 44.899 23.9886C44.899 24.1918 44.822 24.3656 44.6681 24.5103C44.5173 24.6549 44.3358 24.7273 44.1234 24.7273ZM49.5351 33.1477C48.8703 33.1477 48.2979 32.9908 47.8177 32.6768C47.3376 32.3629 46.9683 31.9305 46.7098 31.3796C46.4513 30.8287 46.322 30.1993 46.322 29.4915C46.322 28.7713 46.4543 28.1358 46.719 27.5849C46.9868 27.0309 47.3592 26.5985 47.8362 26.2876C48.3163 25.9737 48.8765 25.8168 49.5166 25.8168C50.0152 25.8168 50.4645 25.9091 50.8646 26.0938C51.2647 26.2784 51.5925 26.5369 51.8479 26.8693C52.1034 27.2017 52.2619 27.5895 52.3234 28.0327H51.2339C51.1508 27.7095 50.9662 27.4233 50.68 27.174C50.3968 26.9216 50.0152 26.7955 49.5351 26.7955C49.1104 26.7955 48.738 26.9062 48.4179 27.1278C48.1009 27.3464 47.8531 27.6557 47.6746 28.0558C47.4992 28.4528 47.4115 28.919 47.4115 29.4545C47.4115 30.0024 47.4977 30.4794 47.67 30.8857C47.8454 31.2919 48.0916 31.6074 48.4086 31.832C48.7287 32.0567 49.1042 32.169 49.5351 32.169C49.8182 32.169 50.0752 32.1198 50.306 32.0213C50.5368 31.9228 50.7323 31.7812 50.8923 31.5966C51.0523 31.4119 51.1662 31.1903 51.2339 30.9318H52.3234C52.2619 31.3504 52.1095 31.7274 51.8664 32.0629C51.6263 32.3952 51.3078 32.6599 50.9108 32.8569C50.5168 33.0508 50.0583 33.1477 49.5351 33.1477ZM58.6618 23.5455V33H57.5724V23.5455H58.6618ZM60.6573 33V25.9091H61.7468V33H60.6573ZM61.2113 24.7273C60.9989 24.7273 60.8158 24.6549 60.6619 24.5103C60.5111 24.3656 60.4357 24.1918 60.4357 23.9886C60.4357 23.7855 60.5111 23.6116 60.6619 23.467C60.8158 23.3223 60.9989 23.25 61.2113 23.25C61.4237 23.25 61.6052 23.3223 61.756 23.467C61.9099 23.6116 61.9869 23.7855 61.9869 23.9886C61.9869 24.1918 61.9099 24.3656 61.756 24.5103C61.6052 24.6549 61.4237 24.7273 61.2113 24.7273ZM68.765 27.4972L67.7863 27.7741C67.7248 27.611 67.634 27.4525 67.5139 27.2987C67.397 27.1417 67.2369 27.0124 67.0338 26.9109C66.8307 26.8093 66.5706 26.7585 66.2536 26.7585C65.8197 26.7585 65.4581 26.8585 65.1688 27.0586C64.8825 27.2556 64.7394 27.5064 64.7394 27.8111C64.7394 28.0819 64.8379 28.2958 65.0349 28.4528C65.2319 28.6097 65.5396 28.7405 65.9582 28.8452L67.0107 29.1037C67.6447 29.2576 68.1172 29.493 68.428 29.81C68.7388 30.1239 68.8943 30.5286 68.8943 31.0241C68.8943 31.4304 68.7773 31.7936 68.5434 32.1136C68.3126 32.4337 67.9894 32.6861 67.574 32.8707C67.1585 33.0554 66.6753 33.1477 66.1244 33.1477C65.4011 33.1477 64.8025 32.9908 64.3286 32.6768C63.8546 32.3629 63.5545 31.9044 63.4284 31.3011L64.4624 31.0426C64.5609 31.4242 64.7471 31.7105 65.021 31.9013C65.298 32.0921 65.6597 32.1875 66.1059 32.1875C66.6137 32.1875 67.0169 32.0798 67.3154 31.8643C67.617 31.6458 67.7678 31.3842 67.7678 31.0795C67.7678 30.8333 67.6817 30.6271 67.5093 30.4609C67.337 30.2917 67.0723 30.1655 66.7153 30.0824L65.5335 29.8054C64.8841 29.6515 64.407 29.413 64.1024 29.0898C63.8008 28.7636 63.6499 28.3558 63.6499 27.8665C63.6499 27.4664 63.7623 27.1125 63.9869 26.8047C64.2147 26.4969 64.524 26.2553 64.9149 26.0799C65.3088 25.9045 65.7551 25.8168 66.2536 25.8168C66.9553 25.8168 67.5062 25.9706 67.9063 26.2784C68.3095 26.5862 68.5957 26.9924 68.765 27.4972ZM73.6181 25.9091V26.8324H69.9434V25.9091H73.6181ZM71.0144 24.2102H72.1039V30.9688C72.1039 31.2765 72.1485 31.5073 72.2377 31.6612C72.3301 31.812 72.447 31.9136 72.5886 31.9659C72.7333 32.0152 72.8856 32.0398 73.0456 32.0398C73.1657 32.0398 73.2641 32.0336 73.3411 32.0213C73.418 32.0059 73.4796 31.9936 73.5257 31.9844L73.7473 32.9631C73.6735 32.9908 73.5704 33.0185 73.438 33.0462C73.3057 33.0769 73.138 33.0923 72.9348 33.0923C72.6271 33.0923 72.3255 33.0262 72.03 32.8938C71.7376 32.7615 71.4945 32.5599 71.3006 32.2891C71.1098 32.0182 71.0144 31.6766 71.0144 31.2642V24.2102ZM78.9132 33V25.9091H80.0027V33H78.9132ZM79.4672 24.7273C79.2548 24.7273 79.0717 24.6549 78.9178 24.5103C78.767 24.3656 78.6916 24.1918 78.6916 23.9886C78.6916 23.7855 78.767 23.6116 78.9178 23.467C79.0717 23.3223 79.2548 23.25 79.4672 23.25C79.6795 23.25 79.8611 23.3223 80.0119 23.467C80.1658 23.6116 80.2427 23.7855 80.2427 23.9886C80.2427 24.1918 80.1658 24.3656 80.0119 24.5103C79.8611 24.6549 79.6795 24.7273 79.4672 24.7273ZM85.0819 25.9091V26.8324H81.4072V25.9091H85.0819ZM82.4782 24.2102H83.5677V30.9688C83.5677 31.2765 83.6124 31.5073 83.7016 31.6612C83.7939 31.812 83.9109 31.9136 84.0525 31.9659C84.1971 32.0152 84.3495 32.0398 84.5095 32.0398C84.6295 32.0398 84.728 32.0336 84.805 32.0213C84.8819 32.0059 84.9434 31.9936 84.9896 31.9844L85.2112 32.9631C85.1373 32.9908 85.0342 33.0185 84.9019 33.0462C84.7696 33.0769 84.6018 33.0923 84.3987 33.0923C84.0909 33.0923 83.7893 33.0262 83.4939 32.8938C83.2015 32.7615 82.9584 32.5599 82.7645 32.2891C82.5737 32.0182 82.4782 31.6766 82.4782 31.2642V24.2102ZM89.6176 33.1477C88.9344 33.1477 88.345 32.9969 87.8495 32.6953C87.3571 32.3906 86.977 31.9659 86.7093 31.4212C86.4446 30.8733 86.3122 30.2363 86.3122 29.5099C86.3122 28.7836 86.4446 28.1435 86.7093 27.5895C86.977 27.0324 87.3494 26.5985 87.8264 26.2876C88.3066 25.9737 88.8667 25.8168 89.5068 25.8168C89.8762 25.8168 90.2409 25.8783 90.6009 26.0014C90.961 26.1245 91.2888 26.3246 91.5843 26.6016C91.8797 26.8755 92.1151 27.2386 92.2906 27.6911C92.466 28.1435 92.5537 28.7005 92.5537 29.3622V29.8239H87.0878V28.8821H91.4458C91.4458 28.482 91.3657 28.125 91.2057 27.8111C91.0487 27.4972 90.8241 27.2494 90.5317 27.0678C90.2424 26.8862 89.9008 26.7955 89.5068 26.7955C89.0729 26.7955 88.6974 26.9032 88.3804 27.1186C88.0665 27.331 87.8249 27.608 87.6556 27.9496C87.4864 28.2912 87.4017 28.6574 87.4017 29.0483V29.6761C87.4017 30.2116 87.4941 30.6656 87.6787 31.038C87.8664 31.4073 88.1265 31.6889 88.4589 31.8828C88.7913 32.0736 89.1775 32.169 89.6176 32.169C89.9039 32.169 90.1624 32.129 90.3932 32.049C90.6271 31.9659 90.8287 31.8428 90.998 31.6797C91.1672 31.5135 91.298 31.3073 91.3904 31.0611L92.4429 31.3565C92.3321 31.7135 92.1459 32.0275 91.8843 32.2983C91.6227 32.5661 91.2996 32.7753 90.9149 32.9261C90.5302 33.0739 90.0977 33.1477 89.6176 33.1477ZM94.211 33V25.9091H95.2636V27.017H95.3559C95.5036 26.6385 95.7422 26.3446 96.0715 26.1353C96.4008 25.9229 96.7963 25.8168 97.2579 25.8168C97.7257 25.8168 98.115 25.9229 98.4259 26.1353C98.7398 26.3446 98.9845 26.6385 99.1599 27.017H99.2338C99.4153 26.6508 99.6877 26.36 100.051 26.1445C100.414 25.926 100.85 25.8168 101.357 25.8168C101.991 25.8168 102.51 26.0153 102.913 26.4123C103.316 26.8062 103.518 27.4202 103.518 28.2543V33H102.428V28.2543C102.428 27.7311 102.285 27.3571 101.999 27.1325C101.713 26.9078 101.376 26.7955 100.988 26.7955C100.489 26.7955 100.103 26.9463 99.8293 27.2479C99.5554 27.5464 99.4184 27.925 99.4184 28.3835V33H98.3105V28.1435C98.3105 27.7403 98.1797 27.4156 97.9181 27.1694C97.6565 26.9201 97.3195 26.7955 96.907 26.7955C96.6239 26.7955 96.3592 26.8709 96.113 27.0217C95.8699 27.1725 95.6729 27.3817 95.5221 27.6495C95.3744 27.9142 95.3005 28.2204 95.3005 28.5682V33H94.211ZM110.533 27.4972L109.554 27.7741C109.492 27.611 109.402 27.4525 109.282 27.2987C109.165 27.1417 109.005 27.0124 108.801 26.9109C108.598 26.8093 108.338 26.7585 108.021 26.7585C107.587 26.7585 107.226 26.8585 106.936 27.0586C106.65 27.2556 106.507 27.5064 106.507 27.8111C106.507 28.0819 106.605 28.2958 106.802 28.4528C106.999 28.6097 107.307 28.7405 107.726 28.8452L108.778 29.1037C109.412 29.2576 109.885 29.493 110.196 29.81C110.506 30.1239 110.662 30.5286 110.662 31.0241C110.662 31.4304 110.545 31.7936 110.311 32.1136C110.08 32.4337 109.757 32.6861 109.342 32.8707C108.926 33.0554 108.443 33.1477 107.892 33.1477C107.169 33.1477 106.57 32.9908 106.096 32.6768C105.622 32.3629 105.322 31.9044 105.196 31.3011L106.23 31.0426C106.329 31.4242 106.515 31.7105 106.789 31.9013C107.066 32.0921 107.427 32.1875 107.873 32.1875C108.381 32.1875 108.784 32.0798 109.083 31.8643C109.385 31.6458 109.535 31.3842 109.535 31.0795C109.535 30.8333 109.449 30.6271 109.277 30.4609C109.105 30.2917 108.84 30.1655 108.483 30.0824L107.301 29.8054C106.652 29.6515 106.175 29.413 105.87 29.0898C105.568 28.7636 105.418 28.3558 105.418 27.8665C105.418 27.4664 105.53 27.1125 105.755 26.8047C105.982 26.4969 106.292 26.2553 106.682 26.0799C107.076 25.9045 107.523 25.8168 108.021 25.8168C108.723 25.8168 109.274 25.9706 109.674 26.2784C110.077 26.5862 110.363 26.9924 110.533 27.4972Z" fill="#2E263D" fill-opacity="0.7"/>
<rect width="340.8" height="40" transform="translate(0 48)" fill="#8C57FF" fill-opacity="0.16"/>
<path d="M24.6875 73H21.321V62.0909H24.8366C25.8949 62.0909 26.8004 62.3093 27.5533 62.7461C28.3061 63.1793 28.8832 63.8026 29.2844 64.6158C29.6857 65.4254 29.8864 66.3949 29.8864 67.5241C29.8864 68.6605 29.6839 69.6388 29.2791 70.4592C28.8743 71.2759 28.2848 71.9045 27.5107 72.3448C26.7365 72.7816 25.7955 73 24.6875 73ZM22.642 71.8281H24.6023C25.5043 71.8281 26.2518 71.6541 26.8448 71.3061C27.4379 70.9581 27.88 70.4627 28.1712 69.82C28.4624 69.1772 28.608 68.4119 28.608 67.5241C28.608 66.6435 28.4641 65.8853 28.1765 65.2496C27.8888 64.6104 27.4592 64.1204 26.8874 63.7795C26.3157 63.435 25.6037 63.2628 24.7514 63.2628H22.642V71.8281ZM34.3395 73.1918C33.821 73.1918 33.3505 73.0941 32.9279 72.8988C32.5053 72.6999 32.1697 72.4141 31.9212 72.0412C31.6726 71.6648 31.5483 71.2102 31.5483 70.6776C31.5483 70.2088 31.6406 69.8288 31.8253 69.5376C32.0099 69.2429 32.2567 69.0121 32.5657 68.8452C32.8746 68.6783 33.2156 68.554 33.5884 68.4723C33.9648 68.3871 34.343 68.3196 34.723 68.2699C35.2202 68.206 35.6232 68.158 35.9322 68.1261C36.2447 68.0906 36.4719 68.032 36.614 67.9503C36.7596 67.8686 36.8324 67.7266 36.8324 67.5241V67.4815C36.8324 66.956 36.6886 66.5476 36.4009 66.2564C36.1168 65.9652 35.6854 65.8196 35.1065 65.8196C34.5064 65.8196 34.0359 65.951 33.695 66.2138C33.354 66.4766 33.1143 66.7571 32.9759 67.0554L31.7827 66.6293C31.9957 66.1321 32.2798 65.745 32.6349 65.468C32.9936 65.1875 33.3842 64.9922 33.8068 64.8821C34.233 64.7685 34.652 64.7116 35.0639 64.7116C35.3267 64.7116 35.6286 64.7436 35.9695 64.8075C36.3139 64.8679 36.646 64.994 36.9656 65.1857C37.2887 65.3775 37.5568 65.6669 37.7699 66.054C37.983 66.4411 38.0895 66.9595 38.0895 67.6094V73H36.8324V71.892H36.7685C36.6832 72.0696 36.5412 72.2596 36.3423 72.462C36.1435 72.6644 35.8789 72.8366 35.5487 72.9787C35.2184 73.1207 34.8153 73.1918 34.3395 73.1918ZM34.5312 72.0625C35.0284 72.0625 35.4474 71.9648 35.7884 71.7695C36.1328 71.5742 36.392 71.3221 36.5661 71.0131C36.7436 70.7042 36.8324 70.3793 36.8324 70.0384V68.8878C36.7791 68.9517 36.6619 69.0103 36.4808 69.0636C36.3033 69.1133 36.0973 69.1577 35.8629 69.1967C35.6321 69.2322 35.4066 69.2642 35.1864 69.2926C34.9698 69.3175 34.794 69.3388 34.6591 69.3565C34.3324 69.3991 34.027 69.4684 33.7429 69.5643C33.4624 69.6566 33.2351 69.7969 33.0611 69.9851C32.8906 70.1697 32.8054 70.4219 32.8054 70.7415C32.8054 71.1783 32.967 71.5085 33.2901 71.7322C33.6168 71.9524 34.0305 72.0625 34.5312 72.0625ZM46.1794 66.6506L45.0502 66.9702C44.9791 66.782 44.8744 66.5991 44.7359 66.4215C44.6009 66.2404 44.4163 66.0913 44.1819 65.9741C43.9475 65.8569 43.6475 65.7983 43.2817 65.7983C42.781 65.7983 42.3637 65.9137 42.0299 66.1445C41.6997 66.3718 41.5345 66.6612 41.5345 67.0128C41.5345 67.3253 41.6482 67.5721 41.8754 67.7532C42.1027 67.9343 42.4578 68.0852 42.9408 68.206L44.1553 68.5043C44.8868 68.6818 45.4319 68.9535 45.7906 69.3192C46.1492 69.6815 46.3286 70.1484 46.3286 70.7202C46.3286 71.1889 46.1936 71.608 45.9237 71.9773C45.6574 72.3466 45.2845 72.6378 44.8051 72.8509C44.3257 73.0639 43.7682 73.1705 43.1325 73.1705C42.298 73.1705 41.6073 72.9893 41.0605 72.6271C40.5136 72.2649 40.1673 71.7358 40.0218 71.0398L41.2149 70.7415C41.3286 71.1818 41.5434 71.5121 41.8595 71.7322C42.1791 71.9524 42.5963 72.0625 43.1112 72.0625C43.6972 72.0625 44.1624 71.9382 44.5068 71.6896C44.8548 71.4375 45.0289 71.1357 45.0289 70.7841C45.0289 70.5 44.9294 70.2621 44.7306 70.0703C44.5317 69.875 44.2263 69.7294 43.8144 69.6335L42.4507 69.3139C41.7014 69.1364 41.151 68.8612 40.7994 68.4883C40.4514 68.1119 40.2774 67.6413 40.2774 67.0767C40.2774 66.6151 40.407 66.2067 40.6663 65.8516C40.9291 65.4964 41.286 65.2177 41.7369 65.0153C42.1915 64.8129 42.7064 64.7116 43.2817 64.7116C44.0914 64.7116 44.727 64.8892 45.1887 65.2443C45.6539 65.5994 45.9841 66.0682 46.1794 66.6506ZM49.478 68.0781V73H48.2209V62.0909H49.478V66.0966H49.5845C49.7763 65.674 50.0639 65.3384 50.4474 65.0898C50.8345 64.8377 51.3494 64.7116 51.9922 64.7116C52.5497 64.7116 53.038 64.8235 53.457 65.0472C53.8761 65.2674 54.201 65.6065 54.4318 66.0646C54.6662 66.5192 54.7834 67.098 54.7834 67.8011V73H53.5263V67.8864C53.5263 67.2365 53.3576 66.734 53.0202 66.3789C52.6864 66.0202 52.223 65.8409 51.63 65.8409C51.218 65.8409 50.8487 65.9279 50.522 66.1019C50.1989 66.2759 49.9432 66.5298 49.755 66.8636C49.5703 67.1974 49.478 67.6023 49.478 68.0781ZM57.2536 73V62.0909H58.5107V66.1179H58.6173C58.7096 65.9759 58.8374 65.7947 59.0008 65.5746C59.1677 65.3509 59.4056 65.152 59.7146 64.978C60.0271 64.8004 60.4497 64.7116 60.9823 64.7116C61.6713 64.7116 62.2785 64.8839 62.8041 65.2283C63.3296 65.5728 63.7398 66.0611 64.0345 66.6932C64.3293 67.3253 64.4767 68.071 64.4767 68.9304C64.4767 69.7969 64.3293 70.5479 64.0345 71.1836C63.7398 71.8157 63.3314 72.3058 62.8094 72.6538C62.2874 72.9982 61.6855 73.1705 61.0036 73.1705C60.4781 73.1705 60.0573 73.0835 59.7412 72.9094C59.4252 72.7319 59.1819 72.5312 59.0115 72.3075C58.841 72.0803 58.7096 71.892 58.6173 71.7429H58.4681V73H57.2536ZM58.4894 68.9091C58.4894 69.527 58.58 70.0721 58.7611 70.5444C58.9422 71.0131 59.2068 71.3807 59.5548 71.647C59.9028 71.9098 60.3289 72.0412 60.8332 72.0412C61.3588 72.0412 61.7973 71.9027 62.1489 71.6257C62.504 71.3452 62.7703 70.9687 62.9479 70.4964C63.129 70.0206 63.2195 69.4915 63.2195 68.9091C63.2195 68.3338 63.1308 67.8153 62.9532 67.3537C62.7792 66.8885 62.5146 66.521 62.1595 66.2511C61.808 65.9776 61.3659 65.8409 60.8332 65.8409C60.3218 65.8409 59.8921 65.9705 59.5441 66.2298C59.1961 66.4854 58.9333 66.8441 58.7558 67.3058C58.5782 67.7638 58.4894 68.2983 58.4894 68.9091ZM69.7235 73.1705C68.9848 73.1705 68.3367 72.9947 67.7792 72.6431C67.2252 72.2915 66.792 71.7997 66.4795 71.1676C66.1705 70.5355 66.0161 69.7969 66.0161 68.9517C66.0161 68.0994 66.1705 67.3555 66.4795 66.7198C66.792 66.0842 67.2252 65.5906 67.7792 65.239C68.3367 64.8874 68.9848 64.7116 69.7235 64.7116C70.4621 64.7116 71.1084 64.8874 71.6624 65.239C72.2199 65.5906 72.6531 66.0842 72.9621 66.7198C73.2746 67.3555 73.4308 68.0994 73.4308 68.9517C73.4308 69.7969 73.2746 70.5355 72.9621 71.1676C72.6531 71.7997 72.2199 72.2915 71.6624 72.6431C71.1084 72.9947 70.4621 73.1705 69.7235 73.1705ZM69.7235 72.0412C70.2845 72.0412 70.7462 71.8974 71.1084 71.6097C71.4706 71.3221 71.7387 70.9439 71.9127 70.4751C72.0867 70.0064 72.1737 69.4986 72.1737 68.9517C72.1737 68.4048 72.0867 67.8952 71.9127 67.4229C71.7387 66.9506 71.4706 66.5689 71.1084 66.2777C70.7462 65.9865 70.2845 65.8409 69.7235 65.8409C69.1624 65.8409 68.7007 65.9865 68.3385 66.2777C67.9763 66.5689 67.7082 66.9506 67.5342 67.4229C67.3602 67.8952 67.2732 68.4048 67.2732 68.9517C67.2732 69.4986 67.3602 70.0064 67.5342 70.4751C67.7082 70.9439 67.9763 71.3221 68.3385 71.6097C68.7007 71.8974 69.1624 72.0412 69.7235 72.0412ZM77.7575 73.1918C77.239 73.1918 76.7685 73.0941 76.3459 72.8988C75.9233 72.6999 75.5877 72.4141 75.3391 72.0412C75.0906 71.6648 74.9663 71.2102 74.9663 70.6776C74.9663 70.2088 75.0586 69.8288 75.2433 69.5376C75.4279 69.2429 75.6747 69.0121 75.9837 68.8452C76.2926 68.6783 76.6335 68.554 77.0064 68.4723C77.3828 68.3871 77.761 68.3196 78.141 68.2699C78.6381 68.206 79.0412 68.158 79.3501 68.1261C79.6626 68.0906 79.8899 68.032 80.032 67.9503C80.1776 67.8686 80.2504 67.7266 80.2504 67.5241V67.4815C80.2504 66.956 80.1065 66.5476 79.8189 66.2564C79.5348 65.9652 79.1033 65.8196 78.5245 65.8196C77.9244 65.8196 77.4538 65.951 77.1129 66.2138C76.772 66.4766 76.5323 66.7571 76.3938 67.0554L75.2006 66.6293C75.4137 66.1321 75.6978 65.745 76.0529 65.468C76.4116 65.1875 76.8022 64.9922 77.2248 64.8821C77.6509 64.7685 78.07 64.7116 78.4819 64.7116C78.7447 64.7116 79.0465 64.7436 79.3874 64.8075C79.7319 64.8679 80.0639 64.994 80.3835 65.1857C80.7067 65.3775 80.9748 65.6669 81.1879 66.054C81.4009 66.4411 81.5075 66.9595 81.5075 67.6094V73H80.2504V71.892H80.1864C80.1012 72.0696 79.9592 72.2596 79.7603 72.462C79.5614 72.6644 79.2969 72.8366 78.9666 72.9787C78.6364 73.1207 78.2333 73.1918 77.7575 73.1918ZM77.9492 72.0625C78.4464 72.0625 78.8654 71.9648 79.2063 71.7695C79.5508 71.5742 79.81 71.3221 79.984 71.0131C80.1616 70.7042 80.2504 70.3793 80.2504 70.0384V68.8878C80.1971 68.9517 80.0799 69.0103 79.8988 69.0636C79.7212 69.1133 79.5153 69.1577 79.2809 69.1967C79.0501 69.2322 78.8246 69.2642 78.6044 69.2926C78.3878 69.3175 78.212 69.3388 78.0771 69.3565C77.7504 69.3991 77.445 69.4684 77.1609 69.5643C76.8803 69.6566 76.6531 69.7969 76.479 69.9851C76.3086 70.1697 76.2234 70.4219 76.2234 70.7415C76.2234 71.1783 76.3849 71.5085 76.7081 71.7322C77.0348 71.9524 77.4485 72.0625 77.9492 72.0625ZM83.8019 73V64.8182H85.0164V66.054H85.1017C85.2508 65.6491 85.5207 65.3207 85.9113 65.0685C86.3019 64.8164 86.7423 64.6903 87.2323 64.6903C87.3247 64.6903 87.4401 64.6921 87.5786 64.6957C87.7171 64.6992 87.8218 64.7045 87.8928 64.7116V65.9901C87.8502 65.9794 87.7526 65.9634 87.5999 65.9421C87.4507 65.9173 87.2927 65.9048 87.1258 65.9048C86.7281 65.9048 86.373 65.9883 86.0605 66.1552C85.7515 66.3185 85.5065 66.5458 85.3254 66.837C85.1478 67.1246 85.059 67.4531 85.059 67.8224V73H83.8019ZM92.2235 73.1705C91.5416 73.1705 90.9397 72.9982 90.4177 72.6538C89.8957 72.3058 89.4873 71.8157 89.1926 71.1836C88.8978 70.5479 88.7504 69.7969 88.7504 68.9304C88.7504 68.071 88.8978 67.3253 89.1926 66.6932C89.4873 66.0611 89.8975 65.5728 90.423 65.2283C90.9486 64.8839 91.5558 64.7116 92.2448 64.7116C92.7774 64.7116 93.1982 64.8004 93.5072 64.978C93.8197 65.152 94.0576 65.3509 94.221 65.5746C94.3879 65.7947 94.5175 65.9759 94.6098 66.1179H94.7164V62.0909H95.9735V73H94.759V71.7429H94.6098C94.5175 71.892 94.3861 72.0803 94.2156 72.3075C94.0452 72.5312 93.8019 72.7319 93.4859 72.9094C93.1698 73.0835 92.749 73.1705 92.2235 73.1705ZM92.3939 72.0412C92.8982 72.0412 93.3243 71.9098 93.6723 71.647C94.0203 71.3807 94.2849 71.0131 94.466 70.5444C94.6471 70.0721 94.7377 69.527 94.7377 68.9091C94.7377 68.2983 94.6489 67.7638 94.4713 67.3058C94.2938 66.8441 94.031 66.4854 93.683 66.2298C93.335 65.9705 92.9053 65.8409 92.3939 65.8409C91.8612 65.8409 91.4173 65.9776 91.0622 66.2511C90.7107 66.521 90.4461 66.8885 90.2686 67.3537C90.0945 67.8153 90.0075 68.3338 90.0075 68.9091C90.0075 69.4915 90.0963 70.0206 90.2739 70.4964C90.455 70.9687 90.7213 71.3452 91.0729 71.6257C91.428 71.9027 91.8683 72.0412 92.3939 72.0412Z" fill="#8C57FF"/>
<path d="M296.8 68C296.8 61.3726 302.173 56 308.8 56C315.427 56 320.8 61.3726 320.8 68C320.8 74.6274 315.427 80 308.8 80C302.173 80 296.8 74.6274 296.8 68Z" fill="#8C57FF"/>
<path d="M305.758 71.1534V69.9993L309.844 63.5455H310.753V65.2443H310.176L307.254 69.87V69.9439H312.854V71.1534H305.758ZM310.241 73V70.8026L310.25 70.2763V63.5455H311.602V73H310.241Z" fill="white"/>
<path d="M23.3026 112L20.3196 101.091H21.6619L23.9418 109.976H24.0483L26.3707 101.091H27.8622L30.1847 109.976H30.2912L32.571 101.091H33.9134L30.9304 112H29.5668L27.1591 103.307H27.0739L24.6662 112H23.3026ZM35.3888 112V103.818H36.646V112H35.3888ZM36.0281 102.455C35.783 102.455 35.5717 102.371 35.3942 102.204C35.2202 102.037 35.1332 101.837 35.1332 101.602C35.1332 101.368 35.2202 101.167 35.3942 101C35.5717 100.833 35.783 100.75 36.0281 100.75C36.2731 100.75 36.4826 100.833 36.6566 101C36.8342 101.167 36.9229 101.368 36.9229 101.602C36.9229 101.837 36.8342 102.037 36.6566 102.204C36.4826 102.371 36.2731 102.455 36.0281 102.455ZM42.0379 112.17C41.3561 112.17 40.7542 111.998 40.2322 111.654C39.7101 111.306 39.3018 110.816 39.007 110.184C38.7123 109.548 38.5649 108.797 38.5649 107.93C38.5649 107.071 38.7123 106.325 39.007 105.693C39.3018 105.061 39.7119 104.573 40.2375 104.228C40.7631 103.884 41.3703 103.712 42.0592 103.712C42.5919 103.712 43.0127 103.8 43.3216 103.978C43.6341 104.152 43.8721 104.351 44.0354 104.575C44.2023 104.795 44.3319 104.976 44.4243 105.118H44.5308V101.091H45.7879V112H44.5734V110.743H44.4243C44.3319 110.892 44.2006 111.08 44.0301 111.308C43.8596 111.531 43.6164 111.732 43.3003 111.909C42.9843 112.083 42.5635 112.17 42.0379 112.17ZM42.2084 111.041C42.7126 111.041 43.1388 110.91 43.4868 110.647C43.8348 110.381 44.0993 110.013 44.2805 109.544C44.4616 109.072 44.5521 108.527 44.5521 107.909C44.5521 107.298 44.4633 106.764 44.2858 106.306C44.1082 105.844 43.8454 105.485 43.4974 105.23C43.1494 104.971 42.7197 104.841 42.2084 104.841C41.6757 104.841 41.2318 104.978 40.8767 105.251C40.5251 105.521 40.2606 105.888 40.083 106.354C39.909 106.815 39.822 107.334 39.822 107.909C39.822 108.491 39.9108 109.021 40.0883 109.496C40.2694 109.969 40.5358 110.345 40.8873 110.626C41.2425 110.903 41.6828 111.041 42.2084 111.041ZM51.5674 115.239C50.9601 115.239 50.4381 115.161 50.0013 115.004C49.5645 114.852 49.2006 114.649 48.9094 114.397C48.6217 114.148 48.3927 113.882 48.2222 113.598L49.2236 112.895C49.3373 113.044 49.4811 113.214 49.6551 113.406C49.8291 113.602 50.067 113.77 50.3689 113.912C50.6743 114.058 51.0738 114.131 51.5674 114.131C52.2279 114.131 52.773 113.971 53.2027 113.651C53.6324 113.332 53.8472 112.831 53.8472 112.149V110.487H53.7407C53.6483 110.636 53.517 110.821 53.3465 111.041C53.1796 111.258 52.9381 111.451 52.6221 111.622C52.3096 111.789 51.887 111.872 51.3543 111.872C50.6938 111.872 50.1008 111.716 49.5752 111.403C49.0532 111.091 48.6395 110.636 48.3341 110.04C48.0322 109.443 47.8813 108.719 47.8813 107.866C47.8813 107.028 48.0287 106.299 48.3234 105.677C48.6182 105.052 49.0283 104.569 49.5539 104.228C50.0795 103.884 50.6867 103.712 51.3756 103.712C51.9083 103.712 52.3309 103.8 52.6434 103.978C52.9594 104.152 53.2009 104.351 53.3678 104.575C53.5383 104.795 53.6697 104.976 53.762 105.118H53.8898V103.818H55.1043V112.234C55.1043 112.938 54.9445 113.509 54.6249 113.95C54.3089 114.393 53.8827 114.718 53.3465 114.924C52.8138 115.134 52.2208 115.239 51.5674 115.239ZM51.5248 110.743C52.029 110.743 52.4552 110.627 52.8032 110.397C53.1512 110.166 53.4157 109.834 53.5969 109.401C53.778 108.967 53.8685 108.449 53.8685 107.845C53.8685 107.256 53.7797 106.735 53.6022 106.284C53.4246 105.833 53.1618 105.48 52.8138 105.224C52.4658 104.969 52.0361 104.841 51.5248 104.841C50.9921 104.841 50.5482 104.976 50.1931 105.246C49.8415 105.516 49.577 105.878 49.3994 106.332C49.2254 106.787 49.1384 107.291 49.1384 107.845C49.1384 108.413 49.2272 108.916 49.4047 109.353C49.5858 109.786 49.8522 110.127 50.2037 110.375C50.5589 110.62 50.9992 110.743 51.5248 110.743ZM60.8358 112.17C60.0475 112.17 59.3675 111.996 58.7957 111.648C58.2275 111.297 57.789 110.807 57.48 110.178C57.1746 109.546 57.0219 108.811 57.0219 107.973C57.0219 107.135 57.1746 106.396 57.48 105.757C57.789 105.114 58.2187 104.614 58.7691 104.255C59.3231 103.893 59.9694 103.712 60.708 103.712C61.1341 103.712 61.555 103.783 61.9704 103.925C62.3859 104.067 62.7641 104.298 63.105 104.617C63.4459 104.933 63.7176 105.352 63.92 105.874C64.1224 106.396 64.2236 107.039 64.2236 107.803V108.335H57.9168V107.249H62.9452C62.9452 106.787 62.8529 106.375 62.6682 106.013C62.4871 105.651 62.2279 105.365 61.8905 105.155C61.5567 104.946 61.1626 104.841 60.708 104.841C60.2073 104.841 59.7741 104.965 59.4083 105.214C59.0461 105.459 58.7673 105.778 58.572 106.173C58.3767 106.567 58.279 106.989 58.279 107.44V108.165C58.279 108.783 58.3856 109.306 58.5986 109.736C58.8153 110.162 59.1153 110.487 59.4988 110.711C59.8824 110.931 60.328 111.041 60.8358 111.041C61.1661 111.041 61.4644 110.995 61.7307 110.903C62.0006 110.807 62.2332 110.665 62.4285 110.477C62.6238 110.285 62.7748 110.047 62.8813 109.763L64.0958 110.104C63.968 110.516 63.7531 110.878 63.4513 111.19C63.1494 111.499 62.7765 111.741 62.3327 111.915C61.8888 112.085 61.3898 112.17 60.8358 112.17ZM69.6942 103.818V104.884H65.4541V103.818H69.6942ZM66.6899 101.858H67.947V109.656C67.947 110.011 67.9985 110.278 68.1015 110.455C68.208 110.629 68.343 110.746 68.5063 110.807C68.6732 110.864 68.849 110.892 69.0336 110.892C69.1721 110.892 69.2858 110.885 69.3746 110.871C69.4633 110.853 69.5344 110.839 69.5876 110.828L69.8433 111.957C69.7581 111.989 69.6391 112.021 69.4864 112.053C69.3337 112.089 69.1402 112.107 68.9058 112.107C68.5507 112.107 68.2027 112.03 67.8618 111.877C67.5244 111.725 67.2439 111.492 67.0202 111.18C66.8 110.867 66.6899 110.473 66.6899 109.997V101.858Z" fill="#2E263D" fill-opacity="0.9"/>
<rect width="340.8" height="40" transform="translate(0 126)" fill="#2E263D" fill-opacity="0.04"/>
<path d="M24.581 151.17C23.7926 151.17 23.1126 150.996 22.5408 150.648C21.9727 150.297 21.5341 149.807 21.2251 149.178C20.9197 148.546 20.767 147.811 20.767 146.973C20.767 146.135 20.9197 145.396 21.2251 144.757C21.5341 144.114 21.9638 143.614 22.5142 143.255C23.0682 142.893 23.7145 142.712 24.4531 142.712C24.8793 142.712 25.3001 142.783 25.7156 142.925C26.131 143.067 26.5092 143.298 26.8501 143.617C27.1911 143.933 27.4627 144.352 27.6651 144.874C27.8675 145.396 27.9688 146.039 27.9688 146.803V147.335H21.6619V146.249H26.6903C26.6903 145.787 26.598 145.375 26.4134 145.013C26.2322 144.651 25.973 144.365 25.6357 144.155C25.3018 143.946 24.9077 143.841 24.4531 143.841C23.9524 143.841 23.5192 143.965 23.1534 144.214C22.7912 144.459 22.5124 144.778 22.3171 145.173C22.1218 145.567 22.0241 145.989 22.0241 146.44V147.165C22.0241 147.783 22.1307 148.306 22.3438 148.736C22.5604 149.162 22.8604 149.487 23.244 149.711C23.6275 149.931 24.0732 150.041 24.581 150.041C24.9112 150.041 25.2095 149.995 25.4759 149.903C25.7457 149.807 25.9783 149.665 26.1737 149.477C26.369 149.285 26.5199 149.047 26.6264 148.763L27.8409 149.104C27.7131 149.516 27.4982 149.878 27.1964 150.19C26.8945 150.499 26.5217 150.741 26.0778 150.915C25.6339 151.085 25.1349 151.17 24.581 151.17ZM38.8299 143.5H37.5089C37.4308 143.12 37.294 142.786 37.0987 142.499C36.907 142.211 36.6726 141.969 36.3956 141.774C36.1222 141.575 35.8185 141.426 35.4847 141.327C35.1509 141.227 34.8029 141.178 34.4407 141.178C33.7802 141.178 33.1818 141.344 32.6456 141.678C32.1129 142.012 31.6886 142.504 31.3725 143.154C31.06 143.804 30.9038 144.601 30.9038 145.545C30.9038 146.49 31.06 147.287 31.3725 147.937C31.6886 148.587 32.1129 149.079 32.6456 149.413C33.1818 149.746 33.7802 149.913 34.4407 149.913C34.8029 149.913 35.1509 149.864 35.4847 149.764C35.8185 149.665 36.1222 149.517 36.3956 149.322C36.6726 149.123 36.907 148.88 37.0987 148.592C37.294 148.301 37.4308 147.967 37.5089 147.591H38.8299C38.7305 148.148 38.5494 148.647 38.2866 149.088C38.0238 149.528 37.6971 149.903 37.3065 150.212C36.9158 150.517 36.4773 150.75 35.9908 150.909C35.5078 151.069 34.9911 151.149 34.4407 151.149C33.5103 151.149 32.6829 150.922 31.9585 150.467C31.234 150.013 30.6641 149.366 30.2486 148.528C29.8331 147.69 29.6254 146.696 29.6254 145.545C29.6254 144.395 29.8331 143.401 30.2486 142.562C30.6641 141.724 31.234 141.078 31.9585 140.624C32.6829 140.169 33.5103 139.942 34.4407 139.942C34.9911 139.942 35.5078 140.022 35.9908 140.181C36.4773 140.341 36.9158 140.576 37.3065 140.885C37.6971 141.19 38.0238 141.563 38.2866 142.003C38.5494 142.44 38.7305 142.939 38.8299 143.5ZM44.118 151.17C43.3794 151.17 42.7313 150.995 42.1737 150.643C41.6198 150.292 41.1865 149.8 40.874 149.168C40.5651 148.536 40.4106 147.797 40.4106 146.952C40.4106 146.099 40.5651 145.355 40.874 144.72C41.1865 144.084 41.6198 143.591 42.1737 143.239C42.7313 142.887 43.3794 142.712 44.118 142.712C44.8566 142.712 45.5029 142.887 46.0569 143.239C46.6144 143.591 47.0477 144.084 47.3566 144.72C47.6691 145.355 47.8254 146.099 47.8254 146.952C47.8254 147.797 47.6691 148.536 47.3566 149.168C47.0477 149.8 46.6144 150.292 46.0569 150.643C45.5029 150.995 44.8566 151.17 44.118 151.17ZM44.118 150.041C44.6791 150.041 45.1407 149.897 45.5029 149.61C45.8651 149.322 46.1333 148.944 46.3073 148.475C46.4813 148.006 46.5683 147.499 46.5683 146.952C46.5683 146.405 46.4813 145.895 46.3073 145.423C46.1333 144.951 45.8651 144.569 45.5029 144.278C45.1407 143.987 44.6791 143.841 44.118 143.841C43.5569 143.841 43.0953 143.987 42.733 144.278C42.3708 144.569 42.1027 144.951 41.9287 145.423C41.7547 145.895 41.6677 146.405 41.6677 146.952C41.6677 147.499 41.7547 148.006 41.9287 148.475C42.1027 148.944 42.3708 149.322 42.733 149.61C43.0953 149.897 43.5569 150.041 44.118 150.041ZM49.7443 151V142.818H50.9588V144.097H51.0653C51.2358 143.66 51.511 143.321 51.891 143.079C52.271 142.834 52.7273 142.712 53.2599 142.712C53.7997 142.712 54.2489 142.834 54.6076 143.079C54.9698 143.321 55.2521 143.66 55.4545 144.097H55.5398C55.7493 143.674 56.0636 143.338 56.4826 143.09C56.9016 142.838 57.4041 142.712 57.9901 142.712C58.7216 142.712 59.32 142.941 59.7852 143.399C60.2504 143.853 60.483 144.562 60.483 145.524V151H59.2259V145.524C59.2259 144.92 59.0607 144.489 58.7305 144.23C58.4002 143.971 58.0114 143.841 57.5639 143.841C56.9886 143.841 56.543 144.015 56.2269 144.363C55.9109 144.707 55.7528 145.144 55.7528 145.673V151H54.4744V145.396C54.4744 144.931 54.3235 144.556 54.0217 144.272C53.7198 143.985 53.331 143.841 52.8551 143.841C52.5284 143.841 52.223 143.928 51.9389 144.102C51.6584 144.276 51.4311 144.517 51.2571 144.826C51.0866 145.132 51.0014 145.485 51.0014 145.886V151H49.7443ZM62.7814 151V142.818H63.9959V144.097H64.1025C64.2729 143.66 64.5481 143.321 64.9281 143.079C65.3081 142.834 65.7644 142.712 66.2971 142.712C66.8368 142.712 67.286 142.834 67.6447 143.079C68.0069 143.321 68.2892 143.66 68.4917 144.097H68.5769C68.7864 143.674 69.1007 143.338 69.5197 143.09C69.9387 142.838 70.4412 142.712 71.0272 142.712C71.7587 142.712 72.3571 142.941 72.8223 143.399C73.2875 143.853 73.5201 144.562 73.5201 145.524V151H72.263V145.524C72.263 144.92 72.0978 144.489 71.7676 144.23C71.4373 143.971 71.0485 143.841 70.601 143.841C70.0257 143.841 69.5801 144.015 69.264 144.363C68.948 144.707 68.79 145.144 68.79 145.673V151H67.5115V145.396C67.5115 144.931 67.3606 144.556 67.0588 144.272C66.7569 143.985 66.3681 143.841 65.8922 143.841C65.5655 143.841 65.2601 143.928 64.976 144.102C64.6955 144.276 64.4682 144.517 64.2942 144.826C64.1238 145.132 64.0385 145.485 64.0385 145.886V151H62.7814ZM79.2489 151.17C78.4606 151.17 77.7805 150.996 77.2088 150.648C76.6406 150.297 76.2021 149.807 75.8931 149.178C75.5877 148.546 75.435 147.811 75.435 146.973C75.435 146.135 75.5877 145.396 75.8931 144.757C76.2021 144.114 76.6317 143.614 77.1822 143.255C77.7362 142.893 78.3825 142.712 79.1211 142.712C79.5472 142.712 79.968 142.783 80.3835 142.925C80.799 143.067 81.1772 143.298 81.5181 143.617C81.859 143.933 82.1307 144.352 82.3331 144.874C82.5355 145.396 82.6367 146.039 82.6367 146.803V147.335H76.3299V146.249H81.3583C81.3583 145.787 81.266 145.375 81.0813 145.013C80.9002 144.651 80.641 144.365 80.3036 144.155C79.9698 143.946 79.5756 143.841 79.1211 143.841C78.6204 143.841 78.1871 143.965 77.8214 144.214C77.4592 144.459 77.1804 144.778 76.9851 145.173C76.7898 145.567 76.6921 145.989 76.6921 146.44V147.165C76.6921 147.783 76.7987 148.306 77.0117 148.736C77.2283 149.162 77.5284 149.487 77.9119 149.711C78.2955 149.931 78.7411 150.041 79.2489 150.041C79.5792 150.041 79.8775 149.995 80.1438 149.903C80.4137 149.807 80.6463 149.665 80.8416 149.477C81.0369 149.285 81.1879 149.047 81.2944 148.763L82.5089 149.104C82.381 149.516 82.1662 149.878 81.8643 150.19C81.5625 150.499 81.1896 150.741 80.7457 150.915C80.3018 151.085 79.8029 151.17 79.2489 151.17ZM84.549 151V142.818H85.7635V144.054H85.8487C85.9979 143.649 86.2678 143.321 86.6584 143.069C87.049 142.816 87.4893 142.69 87.9794 142.69C88.0717 142.69 88.1871 142.692 88.3256 142.696C88.4641 142.699 88.5689 142.705 88.6399 142.712V143.99C88.5973 143.979 88.4996 143.963 88.3469 143.942C88.1978 143.917 88.0398 143.905 87.8729 143.905C87.4751 143.905 87.12 143.988 86.8075 144.155C86.4986 144.319 86.2536 144.546 86.0724 144.837C85.8949 145.125 85.8061 145.453 85.8061 145.822V151H84.549ZM93.2049 151.17C92.4379 151.17 91.7773 150.989 91.2234 150.627C90.6694 150.265 90.2433 149.766 89.945 149.13C89.6467 148.495 89.4975 147.768 89.4975 146.952C89.4975 146.121 89.6502 145.387 89.9556 144.752C90.2646 144.113 90.6942 143.614 91.2447 143.255C91.7987 142.893 92.445 142.712 93.1836 142.712C93.7589 142.712 94.2773 142.818 94.739 143.031C95.2006 143.244 95.5788 143.543 95.8736 143.926C96.1683 144.31 96.3512 144.757 96.4222 145.268H95.1651C95.0692 144.896 94.8562 144.565 94.5259 144.278C94.1992 143.987 93.7589 143.841 93.2049 143.841C92.7148 143.841 92.2852 143.969 91.9158 144.224C91.5501 144.477 91.2642 144.833 91.0582 145.295C90.8558 145.753 90.7546 146.291 90.7546 146.909C90.7546 147.541 90.854 148.092 91.0529 148.56C91.2553 149.029 91.5394 149.393 91.9052 149.652C92.2745 149.912 92.7077 150.041 93.2049 150.041C93.5316 150.041 93.8281 149.984 94.0945 149.871C94.3608 149.757 94.5863 149.594 94.771 149.381C94.9556 149.168 95.087 148.912 95.1651 148.614H96.4222C96.3512 149.097 96.1754 149.532 95.8949 149.919C95.6179 150.302 95.2504 150.608 94.7923 150.835C94.3377 151.059 93.8086 151.17 93.2049 151.17ZM101.69 151.17C100.902 151.17 100.222 150.996 99.6502 150.648C99.082 150.297 98.6435 149.807 98.3345 149.178C98.0291 148.546 97.8764 147.811 97.8764 146.973C97.8764 146.135 98.0291 145.396 98.3345 144.757C98.6435 144.114 99.0732 143.614 99.6236 143.255C100.178 142.893 100.824 142.712 101.562 142.712C101.989 142.712 102.409 142.783 102.825 142.925C103.24 143.067 103.619 143.298 103.96 143.617C104.3 143.933 104.572 144.352 104.775 144.874C104.977 145.396 105.078 146.039 105.078 146.803V147.335H98.7713V146.249H103.8C103.8 145.787 103.707 145.375 103.523 145.013C103.342 144.651 103.082 144.365 102.745 144.155C102.411 143.946 102.017 143.841 101.562 143.841C101.062 143.841 100.629 143.965 100.263 144.214C99.9006 144.459 99.6218 144.778 99.4265 145.173C99.2312 145.567 99.1335 145.989 99.1335 146.44V147.165C99.1335 147.783 99.2401 148.306 99.4531 148.736C99.6697 149.162 99.9698 149.487 100.353 149.711C100.737 149.931 101.183 150.041 101.69 150.041C102.021 150.041 102.319 149.995 102.585 149.903C102.855 149.807 103.088 149.665 103.283 149.477C103.478 149.285 103.629 149.047 103.736 148.763L104.95 149.104C104.822 149.516 104.608 149.878 104.306 150.19C104.004 150.499 103.631 150.741 103.187 150.915C102.743 151.085 102.244 151.17 101.69 151.17Z" fill="#2E263D" fill-opacity="0.9"/>
<path d="M281.8 146C281.8 139.373 287.173 134 293.8 134H308.8C315.427 134 320.8 139.373 320.8 146C320.8 152.627 315.427 158 308.8 158H293.8C287.173 158 281.8 152.627 281.8 146Z" fill="#56CA00"/>
<path d="M298.738 141.545V151H297.307V142.977H297.251L294.989 144.454V143.087L297.348 141.545H298.738ZM301.295 151V149.966L304.495 146.651C304.836 146.291 305.118 145.976 305.339 145.705C305.564 145.431 305.732 145.171 305.843 144.925C305.953 144.679 306.009 144.417 306.009 144.14C306.009 143.826 305.935 143.555 305.787 143.327C305.639 143.097 305.438 142.92 305.182 142.797C304.927 142.67 304.639 142.607 304.319 142.607C303.981 142.607 303.685 142.676 303.433 142.815C303.18 142.953 302.987 143.149 302.851 143.401C302.716 143.654 302.648 143.949 302.648 144.288H301.286C301.286 143.712 301.418 143.209 301.683 142.778C301.948 142.347 302.311 142.013 302.773 141.776C303.234 141.536 303.759 141.416 304.347 141.416C304.941 141.416 305.464 141.535 305.916 141.772C306.372 142.006 306.727 142.326 306.983 142.732C307.238 143.135 307.366 143.591 307.366 144.098C307.366 144.449 307.3 144.792 307.168 145.128C307.038 145.463 306.812 145.837 306.489 146.25C306.166 146.659 305.716 147.156 305.141 147.741L303.262 149.707V149.777H307.518V151H301.295Z" fill="white"/>
<path d="M21.7685 190H20.3835L24.3892 179.091H25.7528L29.7585 190H28.3736L25.1136 180.817H25.0284L21.7685 190ZM22.2798 185.739H27.8622V186.911H22.2798V185.739ZM34.6112 190.17C33.8441 190.17 33.1836 189.989 32.6296 189.627C32.0756 189.265 31.6495 188.766 31.3512 188.13C31.0529 187.495 30.9038 186.768 30.9038 185.952C30.9038 185.121 31.0565 184.387 31.3619 183.752C31.6708 183.113 32.1005 182.614 32.6509 182.255C33.2049 181.893 33.8512 181.712 34.5898 181.712C35.1651 181.712 35.6836 181.818 36.1452 182.031C36.6069 182.244 36.9851 182.543 37.2798 182.926C37.5746 183.31 37.7575 183.757 37.8285 184.268H36.5714C36.4755 183.896 36.2624 183.565 35.9322 183.278C35.6055 182.987 35.1651 182.841 34.6112 182.841C34.1211 182.841 33.6914 182.969 33.3221 183.224C32.9563 183.477 32.6705 183.833 32.4645 184.295C32.2621 184.753 32.1609 185.291 32.1609 185.909C32.1609 186.541 32.2603 187.092 32.4592 187.56C32.6616 188.029 32.9457 188.393 33.3114 188.652C33.6808 188.912 34.114 189.041 34.6112 189.041C34.9379 189.041 35.2344 188.984 35.5007 188.871C35.767 188.757 35.9925 188.594 36.1772 188.381C36.3619 188.168 36.4933 187.912 36.5714 187.614H37.8285C37.7575 188.097 37.5817 188.532 37.3011 188.919C37.0241 189.302 36.6566 189.608 36.1985 189.835C35.744 190.059 35.2148 190.17 34.6112 190.17ZM42.0739 190.192C41.5554 190.192 41.0849 190.094 40.6623 189.899C40.2397 189.7 39.9041 189.414 39.6555 189.041C39.407 188.665 39.2827 188.21 39.2827 187.678C39.2827 187.209 39.375 186.829 39.5597 186.538C39.7443 186.243 39.9911 186.012 40.3001 185.845C40.609 185.678 40.9499 185.554 41.3228 185.472C41.6992 185.387 42.0774 185.32 42.4574 185.27C42.9545 185.206 43.3576 185.158 43.6665 185.126C43.979 185.091 44.2063 185.032 44.3484 184.95C44.494 184.869 44.5668 184.727 44.5668 184.524V184.482C44.5668 183.956 44.4229 183.548 44.1353 183.256C43.8512 182.965 43.4197 182.82 42.8409 182.82C42.2408 182.82 41.7702 182.951 41.4293 183.214C41.0884 183.477 40.8487 183.757 40.7102 184.055L39.517 183.629C39.7301 183.132 40.0142 182.745 40.3693 182.468C40.728 182.187 41.1186 181.992 41.5412 181.882C41.9673 181.768 42.3864 181.712 42.7983 181.712C43.0611 181.712 43.3629 181.744 43.7038 181.808C44.0483 181.868 44.3803 181.994 44.6999 182.186C45.0231 182.377 45.2912 182.667 45.5043 183.054C45.7173 183.441 45.8239 183.96 45.8239 184.609V190H44.5668V188.892H44.5028C44.4176 189.07 44.2756 189.26 44.0767 189.462C43.8778 189.664 43.6133 189.837 43.283 189.979C42.9528 190.121 42.5497 190.192 42.0739 190.192ZM42.2656 189.062C42.7628 189.062 43.1818 188.965 43.5227 188.77C43.8672 188.574 44.1264 188.322 44.3004 188.013C44.478 187.704 44.5668 187.379 44.5668 187.038V185.888C44.5135 185.952 44.3963 186.01 44.2152 186.064C44.0376 186.113 43.8317 186.158 43.5973 186.197C43.3665 186.232 43.141 186.264 42.9208 186.293C42.7042 186.317 42.5284 186.339 42.3935 186.357C42.0668 186.399 41.7614 186.468 41.4773 186.564C41.1967 186.657 40.9695 186.797 40.7955 186.985C40.625 187.17 40.5398 187.422 40.5398 187.741C40.5398 188.178 40.7013 188.509 41.0245 188.732C41.3512 188.952 41.7649 189.062 42.2656 189.062ZM51.2078 190.17C50.526 190.17 49.9241 189.998 49.4021 189.654C48.8801 189.306 48.4717 188.816 48.1769 188.184C47.8822 187.548 47.7348 186.797 47.7348 185.93C47.7348 185.071 47.8822 184.325 48.1769 183.693C48.4717 183.061 48.8818 182.573 49.4074 182.228C49.933 181.884 50.5402 181.712 51.2291 181.712C51.7618 181.712 52.1826 181.8 52.4916 181.978C52.8041 182.152 53.042 182.351 53.2053 182.575C53.3722 182.795 53.5019 182.976 53.5942 183.118H53.7007V179.091H54.9578V190H53.7433V188.743H53.5942C53.5019 188.892 53.3705 189.08 53.2 189.308C53.0296 189.531 52.7863 189.732 52.4703 189.909C52.1542 190.083 51.7334 190.17 51.2078 190.17ZM51.3783 189.041C51.8825 189.041 52.3087 188.91 52.6567 188.647C53.0047 188.381 53.2693 188.013 53.4504 187.544C53.6315 187.072 53.722 186.527 53.722 185.909C53.722 185.298 53.6333 184.764 53.4557 184.306C53.2781 183.844 53.0154 183.485 52.6673 183.23C52.3193 182.971 51.8896 182.841 51.3783 182.841C50.8456 182.841 50.4017 182.978 50.0466 183.251C49.695 183.521 49.4305 183.888 49.2529 184.354C49.0789 184.815 48.9919 185.334 48.9919 185.909C48.9919 186.491 49.0807 187.021 49.2583 187.496C49.4394 187.969 49.7057 188.345 50.0573 188.626C50.4124 188.903 50.8527 189.041 51.3783 189.041ZM60.8651 190.17C60.0768 190.17 59.3968 189.996 58.825 189.648C58.2568 189.297 57.8183 188.807 57.5093 188.178C57.2039 187.546 57.0512 186.811 57.0512 185.973C57.0512 185.135 57.2039 184.396 57.5093 183.757C57.8183 183.114 58.248 182.614 58.7984 182.255C59.3524 181.893 59.9987 181.712 60.7373 181.712C61.1634 181.712 61.5843 181.783 61.9997 181.925C62.4152 182.067 62.7934 182.298 63.1343 182.617C63.4752 182.933 63.7469 183.352 63.9493 183.874C64.1517 184.396 64.2529 185.039 64.2529 185.803V186.335H57.9461V185.249H62.9745C62.9745 184.787 62.8822 184.375 62.6975 184.013C62.5164 183.651 62.2572 183.365 61.9198 183.155C61.586 182.946 61.1919 182.841 60.7373 182.841C60.2366 182.841 59.8034 182.965 59.4376 183.214C59.0754 183.459 58.7966 183.778 58.6013 184.173C58.406 184.567 58.3083 184.989 58.3083 185.44V186.165C58.3083 186.783 58.4149 187.306 58.6279 187.736C58.8445 188.162 59.1446 188.487 59.5281 188.711C59.9117 188.931 60.3573 189.041 60.8651 189.041C61.1954 189.041 61.4937 188.995 61.76 188.903C62.0299 188.807 62.2625 188.665 62.4578 188.477C62.6531 188.285 62.8041 188.047 62.9106 187.763L64.1251 188.104C63.9972 188.516 63.7824 188.878 63.4806 189.19C63.1787 189.499 62.8058 189.741 62.3619 189.915C61.9181 190.085 61.4191 190.17 60.8651 190.17ZM66.1652 190V181.818H67.3797V183.097H67.4862C67.6567 182.66 67.9319 182.321 68.3119 182.079C68.6919 181.834 69.1482 181.712 69.6808 181.712C70.2206 181.712 70.6698 181.834 71.0285 182.079C71.3907 182.321 71.673 182.66 71.8754 183.097H71.9607C72.1702 182.674 72.4845 182.338 72.9035 182.09C73.3225 181.838 73.825 181.712 74.411 181.712C75.1425 181.712 75.7409 181.941 76.2061 182.399C76.6713 182.853 76.9039 183.562 76.9039 184.524V190H75.6468V184.524C75.6468 183.92 75.4816 183.489 75.1514 183.23C74.8211 182.971 74.4323 182.841 73.9848 182.841C73.4095 182.841 72.9639 183.015 72.6478 183.363C72.3318 183.707 72.1737 184.144 72.1737 184.673V190H70.8953V184.396C70.8953 183.931 70.7444 183.556 70.4426 183.272C70.1407 182.985 69.7519 182.841 69.276 182.841C68.9493 182.841 68.6439 182.928 68.3598 183.102C68.0793 183.276 67.852 183.517 67.678 183.826C67.5075 184.132 67.4223 184.485 67.4223 184.886V190H66.1652ZM79.719 193.068C79.5059 193.068 79.316 193.05 79.1491 193.015C78.9822 192.983 78.8667 192.951 78.8028 192.919L79.1224 191.811C79.4278 191.889 79.6977 191.918 79.9321 191.896C80.1665 191.875 80.3742 191.77 80.5553 191.582C80.74 191.397 80.9086 191.097 81.0613 190.682L81.2957 190.043L78.2702 181.818H79.6338L81.8923 188.338H81.9775L84.2361 181.818H85.5997L82.1267 191.193C81.9704 191.616 81.7769 191.966 81.5461 192.243C81.3153 192.523 81.0471 192.731 80.7417 192.866C80.4399 193.001 80.099 193.068 79.719 193.068Z" fill="#2E263D" fill-opacity="0.9"/>
<path d="M21.321 228V217.091H22.642V226.828H27.7131V228H21.321ZM32.9119 228.17C32.1733 228.17 31.5252 227.995 30.9677 227.643C30.4137 227.292 29.9805 226.8 29.668 226.168C29.359 225.536 29.2045 224.797 29.2045 223.952C29.2045 223.099 29.359 222.355 29.668 221.72C29.9805 221.084 30.4137 220.591 30.9677 220.239C31.5252 219.887 32.1733 219.712 32.9119 219.712C33.6506 219.712 34.2969 219.887 34.8509 220.239C35.4084 220.591 35.8416 221.084 36.1506 221.72C36.4631 222.355 36.6193 223.099 36.6193 223.952C36.6193 224.797 36.4631 225.536 36.1506 226.168C35.8416 226.8 35.4084 227.292 34.8509 227.643C34.2969 227.995 33.6506 228.17 32.9119 228.17ZM32.9119 227.041C33.473 227.041 33.9347 226.897 34.2969 226.61C34.6591 226.322 34.9272 225.944 35.1012 225.475C35.2752 225.006 35.3622 224.499 35.3622 223.952C35.3622 223.405 35.2752 222.895 35.1012 222.423C34.9272 221.951 34.6591 221.569 34.2969 221.278C33.9347 220.987 33.473 220.841 32.9119 220.841C32.3509 220.841 31.8892 220.987 31.527 221.278C31.1648 221.569 30.8967 221.951 30.7227 222.423C30.5487 222.895 30.4616 223.405 30.4616 223.952C30.4616 224.499 30.5487 225.006 30.7227 225.475C30.8967 225.944 31.1648 226.322 31.527 226.61C31.8892 226.897 32.3509 227.041 32.9119 227.041ZM41.8408 231.239C41.2336 231.239 40.7116 231.161 40.2748 231.004C39.838 230.852 39.474 230.649 39.1828 230.397C38.8952 230.148 38.6661 229.882 38.4956 229.598L39.4971 228.895C39.6107 229.044 39.7545 229.214 39.9285 229.406C40.1025 229.602 40.3405 229.77 40.6423 229.912C40.9477 230.058 41.3472 230.131 41.8408 230.131C42.5013 230.131 43.0464 229.971 43.4761 229.651C43.9058 229.332 44.1207 228.831 44.1207 228.149V226.487H44.0141C43.9218 226.636 43.7904 226.821 43.6199 227.041C43.453 227.258 43.2116 227.451 42.8955 227.622C42.583 227.789 42.1604 227.872 41.6278 227.872C40.9672 227.872 40.3742 227.716 39.8486 227.403C39.3266 227.091 38.9129 226.636 38.6075 226.04C38.3057 225.443 38.1547 224.719 38.1547 223.866C38.1547 223.028 38.3021 222.299 38.5969 221.677C38.8916 221.052 39.3018 220.569 39.8273 220.228C40.3529 219.884 40.9601 219.712 41.6491 219.712C42.1817 219.712 42.6043 219.8 42.9168 219.978C43.2329 220.152 43.4743 220.351 43.6412 220.575C43.8117 220.795 43.9431 220.976 44.0354 221.118H44.1633V219.818H45.3778V228.234C45.3778 228.938 45.218 229.509 44.8983 229.95C44.5823 230.393 44.1562 230.718 43.6199 230.924C43.0873 231.134 42.4942 231.239 41.8408 231.239ZM41.7982 226.743C42.3025 226.743 42.7286 226.627 43.0766 226.397C43.4246 226.166 43.6892 225.834 43.8703 225.401C44.0514 224.967 44.142 224.449 44.142 223.845C44.142 223.256 44.0532 222.735 43.8756 222.284C43.6981 221.833 43.4353 221.48 43.0873 221.224C42.7393 220.969 42.3096 220.841 41.7982 220.841C41.2655 220.841 40.8216 220.976 40.4665 221.246C40.115 221.516 39.8504 221.878 39.6729 222.332C39.4988 222.787 39.4118 223.291 39.4118 223.845C39.4118 224.413 39.5006 224.916 39.6782 225.353C39.8593 225.786 40.1256 226.127 40.4772 226.375C40.8323 226.62 41.2726 226.743 41.7982 226.743ZM47.6789 228V219.818H48.936V228H47.6789ZM48.3181 218.455C48.0731 218.455 47.8618 218.371 47.6842 218.204C47.5102 218.037 47.4232 217.837 47.4232 217.602C47.4232 217.368 47.5102 217.167 47.6842 217C47.8618 216.833 48.0731 216.75 48.3181 216.75C48.5631 216.75 48.7726 216.833 48.9466 217C49.1242 217.167 49.213 217.368 49.213 217.602C49.213 217.837 49.1242 218.037 48.9466 218.204C48.7726 218.371 48.5631 218.455 48.3181 218.455ZM57.0339 221.651L55.9047 221.97C55.8336 221.782 55.7289 221.599 55.5904 221.422C55.4554 221.24 55.2708 221.091 55.0364 220.974C54.802 220.857 54.502 220.798 54.1362 220.798C53.6355 220.798 53.2182 220.914 52.8844 221.145C52.5542 221.372 52.389 221.661 52.389 222.013C52.389 222.325 52.5027 222.572 52.7299 222.753C52.9572 222.934 53.3123 223.085 53.7953 223.206L55.0098 223.504C55.7413 223.682 56.2864 223.953 56.6451 224.319C57.0037 224.681 57.1831 225.148 57.1831 225.72C57.1831 226.189 57.0481 226.608 56.7782 226.977C56.5119 227.347 56.139 227.638 55.6596 227.851C55.1802 228.064 54.6227 228.17 53.987 228.17C53.1525 228.17 52.4618 227.989 51.915 227.627C51.3681 227.265 51.0218 226.736 50.8762 226.04L52.0694 225.741C52.1831 226.182 52.3979 226.512 52.714 226.732C53.0336 226.952 53.4508 227.062 53.9657 227.062C54.5517 227.062 55.0169 226.938 55.3613 226.69C55.7093 226.437 55.8833 226.136 55.8833 225.784C55.8833 225.5 55.7839 225.262 55.585 225.07C55.3862 224.875 55.0808 224.729 54.6689 224.634L53.3052 224.314C52.5559 224.136 52.0055 223.861 51.6539 223.488C51.3059 223.112 51.1319 222.641 51.1319 222.077C51.1319 221.615 51.2615 221.207 51.5208 220.852C51.7836 220.496 52.1404 220.218 52.5914 220.015C53.046 219.813 53.5609 219.712 54.1362 219.712C54.9458 219.712 55.5815 219.889 56.0431 220.244C56.5083 220.599 56.8386 221.068 57.0339 221.651ZM62.6336 219.818V220.884H58.3936V219.818H62.6336ZM59.6294 217.858H60.8865V225.656C60.8865 226.011 60.9379 226.278 61.0409 226.455C61.1475 226.629 61.2824 226.746 61.4458 226.807C61.6127 226.864 61.7884 226.892 61.9731 226.892C62.1116 226.892 62.2252 226.885 62.314 226.871C62.4028 226.853 62.4738 226.839 62.5271 226.828L62.7828 227.957C62.6975 227.989 62.5786 228.021 62.4259 228.053C62.2732 228.089 62.0796 228.107 61.8453 228.107C61.4901 228.107 61.1421 228.03 60.8012 227.877C60.4639 227.725 60.1833 227.492 59.9596 227.18C59.7394 226.867 59.6294 226.473 59.6294 225.997V217.858ZM64.5246 228V219.818H65.7817V228H64.5246ZM65.1638 218.455C64.9188 218.455 64.7075 218.371 64.5299 218.204C64.3559 218.037 64.2689 217.837 64.2689 217.602C64.2689 217.368 64.3559 217.167 64.5299 217C64.7075 216.833 64.9188 216.75 65.1638 216.75C65.4088 216.75 65.6183 216.833 65.7923 217C65.9699 217.167 66.0587 217.368 66.0587 217.602C66.0587 217.837 65.9699 218.037 65.7923 218.204C65.6183 218.371 65.4088 218.455 65.1638 218.455ZM71.408 228.17C70.641 228.17 69.9805 227.989 69.4265 227.627C68.8725 227.265 68.4464 226.766 68.1481 226.13C67.8498 225.495 67.7006 224.768 67.7006 223.952C67.7006 223.121 67.8533 222.387 68.1587 221.752C68.4677 221.113 68.8974 220.614 69.4478 220.255C70.0018 219.893 70.6481 219.712 71.3867 219.712C71.962 219.712 72.4805 219.818 72.9421 220.031C73.4038 220.244 73.782 220.543 74.0767 220.926C74.3714 221.31 74.5543 221.757 74.6254 222.268H73.3683C73.2724 221.896 73.0593 221.565 72.729 221.278C72.4023 220.987 71.962 220.841 71.408 220.841C70.918 220.841 70.4883 220.969 70.119 221.224C69.7532 221.477 69.4673 221.833 69.2614 222.295C69.0589 222.753 68.9577 223.291 68.9577 223.909C68.9577 224.541 69.0572 225.092 69.256 225.56C69.4585 226.029 69.7425 226.393 70.1083 226.652C70.4776 226.912 70.9109 227.041 71.408 227.041C71.7347 227.041 72.0312 226.984 72.2976 226.871C72.5639 226.757 72.7894 226.594 72.9741 226.381C73.1587 226.168 73.2901 225.912 73.3683 225.614H74.6254C74.5543 226.097 74.3786 226.532 74.098 226.919C73.821 227.302 73.4535 227.608 72.9954 227.835C72.5408 228.059 72.0117 228.17 71.408 228.17ZM82.2585 221.651L81.1293 221.97C81.0582 221.782 80.9535 221.599 80.815 221.422C80.68 221.24 80.4954 221.091 80.261 220.974C80.0266 220.857 79.7266 220.798 79.3608 220.798C78.8601 220.798 78.4428 220.914 78.109 221.145C77.7788 221.372 77.6136 221.661 77.6136 222.013C77.6136 222.325 77.7273 222.572 77.9545 222.753C78.1818 222.934 78.5369 223.085 79.0199 223.206L80.2344 223.504C80.9659 223.682 81.511 223.953 81.8697 224.319C82.2283 224.681 82.4077 225.148 82.4077 225.72C82.4077 226.189 82.2727 226.608 82.0028 226.977C81.7365 227.347 81.3636 227.638 80.8842 227.851C80.4048 228.064 79.8473 228.17 79.2116 228.17C78.3771 228.17 77.6864 227.989 77.1396 227.627C76.5927 227.265 76.2464 226.736 76.1009 226.04L77.294 225.741C77.4077 226.182 77.6225 226.512 77.9386 226.732C78.2582 226.952 78.6754 227.062 79.1903 227.062C79.7763 227.062 80.2415 226.938 80.5859 226.69C80.9339 226.437 81.108 226.136 81.108 225.784C81.108 225.5 81.0085 225.262 80.8097 225.07C80.6108 224.875 80.3054 224.729 79.8935 224.634L78.5298 224.314C77.7805 224.136 77.2301 223.861 76.8786 223.488C76.5305 223.112 76.3565 222.641 76.3565 222.077C76.3565 221.615 76.4862 221.207 76.7454 220.852C77.0082 220.496 77.3651 220.218 77.8161 220.015C78.2706 219.813 78.7855 219.712 79.3608 219.712C80.1705 219.712 80.8061 219.889 81.2678 220.244C81.733 220.599 82.0632 221.068 82.2585 221.651Z" fill="#2E263D" fill-opacity="0.9"/>
<path d="M24.6875 266H21.321V255.091H24.8366C25.8949 255.091 26.8004 255.309 27.5533 255.746C28.3061 256.179 28.8832 256.803 29.2844 257.616C29.6857 258.425 29.8864 259.395 29.8864 260.524C29.8864 261.661 29.6839 262.639 29.2791 263.459C28.8743 264.276 28.2848 264.904 27.5107 265.345C26.7365 265.782 25.7955 266 24.6875 266ZM22.642 264.828H24.6023C25.5043 264.828 26.2518 264.654 26.8448 264.306C27.4379 263.958 27.88 263.463 28.1712 262.82C28.4624 262.177 28.608 261.412 28.608 260.524C28.608 259.643 28.4641 258.885 28.1765 258.25C27.8888 257.61 27.4592 257.12 26.8874 256.779C26.3157 256.435 25.6037 256.263 24.7514 256.263H22.642V264.828ZM31.9318 266V257.818H33.1889V266H31.9318ZM32.571 256.455C32.326 256.455 32.1147 256.371 31.9371 256.204C31.7631 256.037 31.6761 255.837 31.6761 255.602C31.6761 255.368 31.7631 255.167 31.9371 255C32.1147 254.833 32.326 254.75 32.571 254.75C32.8161 254.75 33.0256 254.833 33.1996 255C33.3771 255.167 33.4659 255.368 33.4659 255.602C33.4659 255.837 33.3771 256.037 33.1996 256.204C33.0256 256.371 32.8161 256.455 32.571 256.455ZM41.2868 259.651L40.1576 259.97C40.0866 259.782 39.9818 259.599 39.8433 259.422C39.7084 259.24 39.5237 259.091 39.2893 258.974C39.055 258.857 38.7549 258.798 38.3891 258.798C37.8884 258.798 37.4711 258.914 37.1373 259.145C36.8071 259.372 36.642 259.661 36.642 260.013C36.642 260.325 36.7556 260.572 36.9829 260.753C37.2101 260.934 37.5653 261.085 38.0482 261.206L39.2627 261.504C39.9942 261.682 40.5393 261.953 40.898 262.319C41.2567 262.681 41.436 263.148 41.436 263.72C41.436 264.189 41.301 264.608 41.0312 264.977C40.7648 265.347 40.392 265.638 39.9126 265.851C39.4331 266.064 38.8756 266.17 38.24 266.17C37.4055 266.17 36.7148 265.989 36.1679 265.627C35.621 265.265 35.2748 264.736 35.1292 264.04L36.3224 263.741C36.436 264.182 36.6508 264.512 36.9669 264.732C37.2865 264.952 37.7037 265.062 38.2187 265.062C38.8046 265.062 39.2698 264.938 39.6143 264.69C39.9623 264.437 40.1363 264.136 40.1363 263.784C40.1363 263.5 40.0368 263.262 39.838 263.07C39.6391 262.875 39.3337 262.729 38.9218 262.634L37.5581 262.314C36.8089 262.136 36.2584 261.861 35.9069 261.488C35.5589 261.112 35.3849 260.641 35.3849 260.077C35.3849 259.615 35.5145 259.207 35.7737 258.852C36.0365 258.496 36.3934 258.218 36.8444 258.015C37.2989 257.813 37.8138 257.712 38.3891 257.712C39.1988 257.712 39.8344 257.889 40.2961 258.244C40.7613 258.599 41.0915 259.068 41.2868 259.651ZM45.736 266.192C45.2175 266.192 44.747 266.094 44.3244 265.899C43.9018 265.7 43.5662 265.414 43.3176 265.041C43.0691 264.665 42.9448 264.21 42.9448 263.678C42.9448 263.209 43.0371 262.829 43.2218 262.538C43.4064 262.243 43.6532 262.012 43.9622 261.845C44.2711 261.678 44.612 261.554 44.9849 261.472C45.3613 261.387 45.7395 261.32 46.1195 261.27C46.6167 261.206 47.0197 261.158 47.3287 261.126C47.6412 261.091 47.8684 261.032 48.0105 260.95C48.1561 260.869 48.2289 260.727 48.2289 260.524V260.482C48.2289 259.956 48.085 259.548 47.7974 259.256C47.5133 258.965 47.0819 258.82 46.503 258.82C45.9029 258.82 45.4324 258.951 45.0914 259.214C44.7505 259.477 44.5108 259.757 44.3723 260.055L43.1792 259.629C43.3922 259.132 43.6763 258.745 44.0314 258.468C44.3901 258.187 44.7807 257.992 45.2033 257.882C45.6294 257.768 46.0485 257.712 46.4604 257.712C46.7232 257.712 47.025 257.744 47.3659 257.808C47.7104 257.868 48.0424 257.994 48.362 258.186C48.6852 258.377 48.9533 258.667 49.1664 259.054C49.3794 259.441 49.486 259.96 49.486 260.609V266H48.2289V264.892H48.165C48.0797 265.07 47.9377 265.26 47.7388 265.462C47.54 265.664 47.2754 265.837 46.9451 265.979C46.6149 266.121 46.2118 266.192 45.736 266.192ZM45.9277 265.062C46.4249 265.062 46.8439 264.965 47.1848 264.77C47.5293 264.574 47.7885 264.322 47.9625 264.013C48.1401 263.704 48.2289 263.379 48.2289 263.038V261.888C48.1756 261.952 48.0584 262.01 47.8773 262.064C47.6998 262.113 47.4938 262.158 47.2594 262.197C47.0286 262.232 46.8031 262.264 46.5829 262.293C46.3663 262.317 46.1905 262.339 46.0556 262.357C45.7289 262.399 45.4235 262.468 45.1394 262.564C44.8588 262.657 44.6316 262.797 44.4576 262.985C44.2871 263.17 44.2019 263.422 44.2019 263.741C44.2019 264.178 44.3635 264.509 44.6866 264.732C45.0133 264.952 45.427 265.062 45.9277 265.062ZM51.9509 266V255.091H53.208V259.118H53.3145C53.4069 258.976 53.5347 258.795 53.6981 258.575C53.865 258.351 54.1029 258.152 54.4118 257.978C54.7243 257.8 55.1469 257.712 55.6796 257.712C56.3685 257.712 56.9758 257.884 57.5013 258.228C58.0269 258.573 58.4371 259.061 58.7318 259.693C59.0265 260.325 59.1739 261.071 59.1739 261.93C59.1739 262.797 59.0265 263.548 58.7318 264.184C58.4371 264.816 58.0287 265.306 57.5067 265.654C56.9846 265.998 56.3827 266.17 55.7009 266.17C55.1753 266.17 54.7545 266.083 54.4385 265.909C54.1224 265.732 53.8792 265.531 53.7087 265.308C53.5383 265.08 53.4069 264.892 53.3145 264.743H53.1654V266H51.9509ZM53.1867 261.909C53.1867 262.527 53.2773 263.072 53.4584 263.544C53.6395 264.013 53.904 264.381 54.252 264.647C54.6001 264.91 55.0262 265.041 55.5305 265.041C56.056 265.041 56.4946 264.903 56.8461 264.626C57.2013 264.345 57.4676 263.969 57.6452 263.496C57.8263 263.021 57.9168 262.491 57.9168 261.909C57.9168 261.334 57.828 260.815 57.6505 260.354C57.4765 259.888 57.2119 259.521 56.8568 259.251C56.5052 258.978 56.0631 258.841 55.5305 258.841C55.0191 258.841 54.5894 258.971 54.2414 259.23C53.8934 259.485 53.6306 259.844 53.453 260.306C53.2755 260.764 53.1867 261.298 53.1867 261.909ZM62.354 255.091V266H61.0969V255.091H62.354ZM68.0868 266.17C67.2985 266.17 66.6184 265.996 66.0467 265.648C65.4785 265.297 65.04 264.807 64.731 264.178C64.4256 263.546 64.2729 262.811 64.2729 261.973C64.2729 261.135 64.4256 260.396 64.731 259.757C65.04 259.114 65.4696 258.614 66.0201 258.255C66.574 257.893 67.2203 257.712 67.959 257.712C68.3851 257.712 68.8059 257.783 69.2214 257.925C69.6369 258.067 70.0151 258.298 70.356 258.617C70.6969 258.933 70.9686 259.352 71.171 259.874C71.3734 260.396 71.4746 261.039 71.4746 261.803V262.335H65.1678V261.249H70.1962C70.1962 260.787 70.1039 260.375 69.9192 260.013C69.7381 259.651 69.4789 259.365 69.1415 259.155C68.8077 258.946 68.4135 258.841 67.959 258.841C67.4583 258.841 67.025 258.965 66.6593 259.214C66.2971 259.459 66.0183 259.778 65.823 260.173C65.6277 260.567 65.53 260.989 65.53 261.44V262.165C65.53 262.783 65.6365 263.306 65.8496 263.736C66.0662 264.162 66.3663 264.487 66.7498 264.711C67.1333 264.931 67.579 265.041 68.0868 265.041C68.4171 265.041 68.7154 264.995 68.9817 264.903C69.2516 264.807 69.4842 264.665 69.6795 264.477C69.8748 264.285 70.0257 264.047 70.1323 263.763L71.3468 264.104C71.2189 264.516 71.0041 264.878 70.7022 265.19C70.4004 265.499 70.0275 265.741 69.5836 265.915C69.1397 266.085 68.6408 266.17 68.0868 266.17ZM76.4764 266.17C75.7946 266.17 75.1926 265.998 74.6706 265.654C74.1486 265.306 73.7402 264.816 73.4455 264.184C73.1507 263.548 73.0034 262.797 73.0034 261.93C73.0034 261.071 73.1507 260.325 73.4455 259.693C73.7402 259.061 74.1504 258.573 74.676 258.228C75.2015 257.884 75.8088 257.712 76.4977 257.712C77.0304 257.712 77.4512 257.8 77.7601 257.978C78.0726 258.152 78.3105 258.351 78.4739 258.575C78.6408 258.795 78.7704 258.976 78.8627 259.118H78.9693V255.091H80.2264V266H79.0119V264.743H78.8627C78.7704 264.892 78.639 265.08 78.4686 265.308C78.2981 265.531 78.0549 265.732 77.7388 265.909C77.4228 266.083 77.002 266.17 76.4764 266.17ZM76.6468 265.041C77.1511 265.041 77.5772 264.91 77.9252 264.647C78.2733 264.381 78.5378 264.013 78.7189 263.544C78.9 263.072 78.9906 262.527 78.9906 261.909C78.9906 261.298 78.9018 260.764 78.7243 260.306C78.5467 259.844 78.2839 259.485 77.9359 259.23C77.5879 258.971 77.1582 258.841 76.6468 258.841C76.1142 258.841 75.6703 258.978 75.3152 259.251C74.9636 259.521 74.699 259.888 74.5215 260.354C74.3475 260.815 74.2605 261.334 74.2605 261.909C74.2605 262.491 74.3493 263.021 74.5268 263.496C74.7079 263.969 74.9743 264.345 75.3258 264.626C75.6809 264.903 76.1213 265.041 76.6468 265.041Z" fill="#2E263D" fill-opacity="0.4"/>
</svg>
