<svg width="82" height="38" viewBox="0 0 82 38" fill="none" xmlns="http://www.w3.org/2000/svg">
<mask id="path-1-inside-1_8003_3097" fill="white">
<path d="M0 0H82V38H0V0Z"/>
</mask>
<path d="M82 38V36H0V38V40H82V38Z" fill="#8C57FF" mask="url(#path-1-inside-1_8003_3097)"/>
<path d="M22.8373 14.5078V13.0909H31.2801V14.5078H27.8763V24H26.2357V14.5078H22.8373ZM34.2857 24.1811C33.7672 24.1811 33.2985 24.0852 32.8794 23.8935C32.4604 23.6982 32.1284 23.4158 31.8833 23.0465C31.6419 22.6772 31.5211 22.2244 31.5211 21.6882C31.5211 21.2266 31.6099 20.8466 31.7875 20.5483C31.965 20.25 32.2047 20.0138 32.5066 19.8398C32.8084 19.6658 33.1458 19.5344 33.5186 19.4457C33.8915 19.3569 34.2715 19.2894 34.6586 19.2433C35.1486 19.1864 35.5463 19.1403 35.8517 19.1048C36.1571 19.0657 36.3791 19.0036 36.5176 18.9183C36.6561 18.8331 36.7253 18.6946 36.7253 18.5028V18.4656C36.7253 18.0004 36.5939 17.6399 36.3311 17.3842C36.0719 17.1286 35.6848 17.0007 35.1699 17.0007C34.6337 17.0007 34.2111 17.1197 33.9022 17.3576C33.5968 17.592 33.3855 17.853 33.2683 18.1406L31.7715 17.7997C31.949 17.3026 32.2083 16.9013 32.5492 16.5959C32.8936 16.2869 33.2896 16.0632 33.737 15.9247C34.1845 15.7827 34.655 15.7116 35.1486 15.7116C35.4753 15.7116 35.8216 15.7507 36.1873 15.8288C36.5566 15.9034 36.9011 16.0419 37.2207 16.2443C37.5439 16.4467 37.8084 16.7362 38.0144 17.1126C38.2203 17.4854 38.3233 17.9702 38.3233 18.5668V24H36.7679V22.8814H36.704C36.601 23.0874 36.4466 23.2898 36.2406 23.4886C36.0346 23.6875 35.7701 23.8526 35.4469 23.984C35.1238 24.1154 34.7367 24.1811 34.2857 24.1811ZM34.6319 22.9027C35.0723 22.9027 35.4487 22.8157 35.7612 22.6417C36.0772 22.4677 36.3169 22.2404 36.4803 21.9599C36.6472 21.6758 36.7306 21.3722 36.7306 21.049V19.9943C36.6738 20.0511 36.5637 20.1044 36.4004 20.1541C36.2406 20.2003 36.0577 20.2411 35.8517 20.2766C35.6458 20.3086 35.4451 20.3388 35.2498 20.3672C35.0545 20.392 34.8912 20.4134 34.7598 20.4311C34.4508 20.4702 34.1685 20.5359 33.9128 20.6282C33.6607 20.7205 33.4583 20.8537 33.3056 21.0277C33.1564 21.1982 33.0819 21.4254 33.0819 21.7095C33.0819 22.1037 33.2275 22.402 33.5186 22.6044C33.8098 22.8033 34.1809 22.9027 34.6319 22.9027ZM40.5725 24V13.0909H42.1652V17.1445H42.2611C42.3534 16.9741 42.4866 16.777 42.6606 16.5533C42.8346 16.3295 43.0761 16.1342 43.385 15.9673C43.694 15.7969 44.1024 15.7116 44.6102 15.7116C45.2707 15.7116 45.8602 15.8786 46.3786 16.2124C46.8971 16.5462 47.3037 17.0273 47.5985 17.6559C47.8968 18.2844 48.0459 19.0408 48.0459 19.9251C48.0459 20.8093 47.8985 21.5675 47.6038 22.1996C47.309 22.8281 46.9042 23.3129 46.3893 23.6538C45.8744 23.9911 45.2867 24.1598 44.6262 24.1598C44.129 24.1598 43.7224 24.0763 43.4063 23.9094C43.0938 23.7425 42.8488 23.5472 42.6713 23.3235C42.4937 23.0998 42.357 22.9009 42.2611 22.7269H42.1279V24H40.5725ZM42.1333 19.9091C42.1333 20.4844 42.2167 20.9886 42.3836 21.4219C42.5505 21.8551 42.792 22.1942 43.108 22.4393C43.4241 22.6808 43.8112 22.8015 44.2693 22.8015C44.7451 22.8015 45.1428 22.6754 45.4624 22.4233C45.782 22.1676 46.0235 21.8214 46.1869 21.3846C46.3538 20.9478 46.4372 20.456 46.4372 19.9091C46.4372 19.3693 46.3556 18.8846 46.1922 18.4549C46.0324 18.0252 45.7909 17.6861 45.4678 17.4375C45.1482 17.1889 44.7487 17.0646 44.2693 17.0646C43.8076 17.0646 43.417 17.1836 43.0974 17.4215C42.7813 17.6594 42.5416 17.9915 42.3783 18.4176C42.2149 18.8437 42.1333 19.3409 42.1333 19.9091ZM57.9216 13.0909V24H56.2703V14.7422H56.2064L53.5963 16.4467V14.87L56.3183 13.0909H57.9216Z" fill="#8C57FF"/>
</svg>
