<svg width="381" height="178" viewBox="0 0 381 178" fill="none" xmlns="http://www.w3.org/2000/svg">
<g filter="url(#filter0_d_8003_5011)">
<path d="M10 12C10 8.68629 12.6863 6 16 6H365C368.314 6 371 8.68629 371 12V158C371 161.314 368.314 164 365 164H16C12.6863 164 10 161.314 10 158V12Z" fill="white" shape-rendering="crispEdges"/>
<path d="M42.0043 33.9091V47H40.1889L33.5348 37.3991H33.4134V47H31.4382V33.9091H33.2663L39.9268 43.5227H40.0483V33.9091H42.0043ZM48.9636 47.1982C47.9963 47.1982 47.1632 46.9915 46.4643 46.5781C45.7697 46.1605 45.2328 45.5746 44.8535 44.8203C44.4785 44.0618 44.291 43.1733 44.291 42.1548C44.291 41.1491 44.4785 40.2628 44.8535 39.4957C45.2328 38.7287 45.7612 38.13 46.4387 37.6996C47.1206 37.2692 47.9174 37.054 48.8294 37.054C49.3833 37.054 49.9203 37.1456 50.4402 37.3288C50.96 37.5121 51.4267 37.7997 51.84 38.1918C52.2534 38.5838 52.5794 39.093 52.818 39.7195C53.0566 40.3416 53.176 41.098 53.176 41.9886V42.6662H45.3713V41.2344H51.3031C51.3031 40.7315 51.2008 40.2862 50.9963 39.8984C50.7917 39.5064 50.5041 39.1974 50.1333 38.9716C49.7669 38.7457 49.3365 38.6328 48.8422 38.6328C48.3052 38.6328 47.8365 38.7649 47.4359 39.0291C47.0396 39.2891 46.7328 39.63 46.5154 40.0518C46.3024 40.4695 46.1958 40.9233 46.1958 41.4134V42.532C46.1958 43.1882 46.3109 43.7464 46.541 44.2067C46.7754 44.6669 47.1014 45.0185 47.519 45.2614C47.9366 45.5 48.4245 45.6193 48.9828 45.6193C49.345 45.6193 49.6752 45.5682 49.9735 45.4659C50.2718 45.3594 50.5297 45.2017 50.747 44.9929C50.9643 44.7841 51.1305 44.5263 51.2456 44.2195L53.0545 44.5455C52.9096 45.0781 52.6497 45.5447 52.2747 45.9453C51.9039 46.3416 51.4373 46.6506 50.8748 46.8722C50.3166 47.0895 49.6795 47.1982 48.9636 47.1982ZM57.4075 47L54.5183 37.1818H56.4934L58.4174 44.392H58.5133L60.4437 37.1818H62.4189L64.3365 44.3601H64.4324L66.3436 37.1818H68.3187L65.4359 47H63.4863L61.492 39.9112H61.345L59.3507 47H57.4075ZM76.1937 33.9091L79.8372 44.571H79.9842L83.6277 33.9091H85.7626L81.0517 47H78.7697L74.0588 33.9091H76.1937ZM87.4996 47V37.1818H89.4109V47H87.4996ZM88.4648 35.6669C88.1325 35.6669 87.8469 35.5561 87.6083 35.3345C87.3739 35.1087 87.2567 34.8402 87.2567 34.5291C87.2567 34.2138 87.3739 33.9453 87.6083 33.7237C87.8469 33.4979 88.1325 33.3849 88.4648 33.3849C88.7972 33.3849 89.0806 33.4979 89.315 33.7237C89.5536 33.9453 89.6729 34.2138 89.6729 34.5291C89.6729 34.8402 89.5536 35.1087 89.315 35.3345C89.0806 35.5561 88.7972 35.6669 88.4648 35.6669ZM99.3393 39.5788L97.6071 39.8857C97.5346 39.6641 97.4196 39.4531 97.2619 39.2528C97.1085 39.0526 96.8997 38.8885 96.6355 38.7607C96.3713 38.6328 96.041 38.5689 95.6447 38.5689C95.1035 38.5689 94.6518 38.6903 94.2896 38.9332C93.9274 39.1719 93.7463 39.4808 93.7463 39.8601C93.7463 40.1882 93.8677 40.4524 94.1106 40.6527C94.3535 40.853 94.7456 41.017 95.2868 41.1449L96.8464 41.5028C97.7498 41.7116 98.4231 42.0334 98.8663 42.468C99.3095 42.9027 99.5311 43.4673 99.5311 44.1619C99.5311 44.75 99.3606 45.2741 99.0197 45.7344C98.6831 46.1903 98.2122 46.5483 97.6071 46.8082C97.0062 47.0682 96.3095 47.1982 95.5169 47.1982C94.4174 47.1982 93.5204 46.9638 92.8258 46.495C92.1312 46.022 91.7051 45.3509 91.5474 44.4815L93.3947 44.2003C93.5098 44.6818 93.7463 45.0462 94.1042 45.2933C94.4622 45.5362 94.9288 45.6577 95.5041 45.6577C96.1305 45.6577 96.6312 45.5277 97.0062 45.2678C97.3812 45.0036 97.5687 44.6818 97.5687 44.3026C97.5687 43.9957 97.4537 43.7379 97.2235 43.5291C96.9977 43.3203 96.6504 43.1626 96.1816 43.0561L94.5197 42.6918C93.6035 42.483 92.926 42.1506 92.487 41.6946C92.0524 41.2386 91.835 40.6612 91.835 39.9624C91.835 39.3828 91.997 38.8757 92.3208 38.4411C92.6447 38.0064 93.0922 37.6676 93.6632 37.4247C94.2342 37.1776 94.8883 37.054 95.6255 37.054C96.6866 37.054 97.5218 37.2841 98.1312 37.7443C98.7406 38.2003 99.1433 38.8118 99.3393 39.5788ZM101.632 47V37.1818H103.544V47H101.632ZM102.598 35.6669C102.265 35.6669 101.98 35.5561 101.741 35.3345C101.507 35.1087 101.39 34.8402 101.39 34.5291C101.39 34.2138 101.507 33.9453 101.741 33.7237C101.98 33.4979 102.265 33.3849 102.598 33.3849C102.93 33.3849 103.213 33.4979 103.448 33.7237C103.686 33.9453 103.806 34.2138 103.806 34.5291C103.806 34.8402 103.686 35.1087 103.448 35.3345C103.213 35.5561 102.93 35.6669 102.598 35.6669ZM110.698 37.1818V38.7159H105.335V37.1818H110.698ZM106.773 34.8295H108.684V44.1172C108.684 44.4879 108.74 44.767 108.851 44.9545C108.961 45.1378 109.104 45.2635 109.279 45.3317C109.458 45.3956 109.652 45.4276 109.861 45.4276C110.014 45.4276 110.148 45.4169 110.263 45.3956C110.378 45.3743 110.468 45.3572 110.532 45.3445L110.877 46.9233C110.766 46.9659 110.608 47.0085 110.404 47.0511C110.199 47.098 109.944 47.1236 109.637 47.1278C109.134 47.1364 108.665 47.0469 108.231 46.8594C107.796 46.6719 107.444 46.3821 107.176 45.9901C106.907 45.598 106.773 45.1058 106.773 44.5135V34.8295ZM116.842 47.1982C115.922 47.1982 115.119 46.9872 114.433 46.5653C113.746 46.1435 113.214 45.5533 112.835 44.7947C112.455 44.0362 112.266 43.1499 112.266 42.1357C112.266 41.1172 112.455 40.2266 112.835 39.4638C113.214 38.701 113.746 38.1087 114.433 37.6868C115.119 37.2649 115.922 37.054 116.842 37.054C117.763 37.054 118.566 37.2649 119.252 37.6868C119.938 38.1087 120.471 38.701 120.85 39.4638C121.229 40.2266 121.419 41.1172 121.419 42.1357C121.419 43.1499 121.229 44.0362 120.85 44.7947C120.471 45.5533 119.938 46.1435 119.252 46.5653C118.566 46.9872 117.763 47.1982 116.842 47.1982ZM116.849 45.5938C117.445 45.5938 117.94 45.4361 118.332 45.1207C118.724 44.8054 119.013 44.3857 119.201 43.8615C119.393 43.3374 119.489 42.7599 119.489 42.1293C119.489 41.5028 119.393 40.9276 119.201 40.4034C119.013 39.875 118.724 39.451 118.332 39.1314C117.94 38.8118 117.445 38.652 116.849 38.652C116.248 38.652 115.749 38.8118 115.353 39.1314C114.961 39.451 114.669 39.875 114.477 40.4034C114.29 40.9276 114.196 41.5028 114.196 42.1293C114.196 42.7599 114.29 43.3374 114.477 43.8615C114.669 44.3857 114.961 44.8054 115.353 45.1207C115.749 45.4361 116.248 45.5938 116.849 45.5938ZM123.552 47V37.1818H125.4V38.7415H125.502C125.681 38.2131 125.996 37.7976 126.448 37.495C126.904 37.1882 127.42 37.0348 127.995 37.0348C128.114 37.0348 128.255 37.0391 128.417 37.0476C128.583 37.0561 128.713 37.0668 128.807 37.0795V38.9077C128.73 38.8864 128.594 38.8629 128.398 38.8374C128.202 38.8075 128.006 38.7926 127.809 38.7926C127.358 38.7926 126.955 38.8885 126.601 39.0803C126.252 39.2678 125.975 39.5298 125.77 39.8665C125.566 40.1989 125.464 40.5781 125.464 41.0043V47H123.552ZM137.818 39.5788L136.086 39.8857C136.013 39.6641 135.898 39.4531 135.74 39.2528C135.587 39.0526 135.378 38.8885 135.114 38.7607C134.85 38.6328 134.52 38.5689 134.123 38.5689C133.582 38.5689 133.13 38.6903 132.768 38.9332C132.406 39.1719 132.225 39.4808 132.225 39.8601C132.225 40.1882 132.346 40.4524 132.589 40.6527C132.832 40.853 133.224 41.017 133.765 41.1449L135.325 41.5028C136.228 41.7116 136.902 42.0334 137.345 42.468C137.788 42.9027 138.01 43.4673 138.01 44.1619C138.01 44.75 137.839 45.2741 137.498 45.7344C137.162 46.1903 136.691 46.5483 136.086 46.8082C135.485 47.0682 134.788 47.1982 133.995 47.1982C132.896 47.1982 131.999 46.9638 131.304 46.495C130.61 46.022 130.184 45.3509 130.026 44.4815L131.873 44.2003C131.988 44.6818 132.225 45.0462 132.583 45.2933C132.941 45.5362 133.407 45.6577 133.983 45.6577C134.609 45.6577 135.11 45.5277 135.485 45.2678C135.86 45.0036 136.047 44.6818 136.047 44.3026C136.047 43.9957 135.932 43.7379 135.702 43.5291C135.476 43.3203 135.129 43.1626 134.66 43.0561L132.998 42.6918C132.082 42.483 131.404 42.1506 130.966 41.6946C130.531 41.2386 130.314 40.6612 130.314 39.9624C130.314 39.3828 130.475 38.8757 130.799 38.4411C131.123 38.0064 131.571 37.6676 132.142 37.4247C132.713 37.1776 133.367 37.054 134.104 37.054C135.165 37.054 136 37.2841 136.61 37.7443C137.219 38.2003 137.622 38.8118 137.818 39.5788Z" fill="#2E263D" fill-opacity="0.9"/>
<path d="M30.8736 67.7628V66.6761L35.6676 59.0909H36.456V60.7741H35.9233L32.3011 66.5057V66.5909H38.7571V67.7628H30.8736ZM36.0085 70V67.4325V66.9265V59.0909H37.2656V70H36.0085ZM44.2476 70.1491C43.5161 70.1491 42.8698 70.0195 42.3087 69.7603C41.7512 69.4975 41.3161 69.1371 41.0036 68.679C40.6911 68.2173 40.5367 67.6918 40.5402 67.1023C40.5367 66.6406 40.6272 66.2145 40.8119 65.8239C40.9965 65.4297 41.2487 65.1012 41.5683 64.8384C41.8914 64.5721 42.2519 64.4034 42.6496 64.3324V64.2685C42.1276 64.1335 41.7121 63.8406 41.4031 63.3896C41.0942 62.935 40.9415 62.4183 40.945 61.8395C40.9415 61.2855 41.0818 60.7901 41.3659 60.3533C41.6499 59.9165 42.0406 59.5721 42.5377 59.32C43.0384 59.0678 43.6084 58.9418 44.2476 58.9418C44.8797 58.9418 45.4443 59.0678 45.9415 59.32C46.4387 59.5721 46.8293 59.9165 47.1134 60.3533C47.401 60.7901 47.5466 61.2855 47.5502 61.8395C47.5466 62.4183 47.3886 62.935 47.0761 63.3896C46.7671 63.8406 46.357 64.1335 45.8456 64.2685V64.3324C46.2398 64.4034 46.5949 64.5721 46.911 64.8384C47.227 65.1012 47.4791 65.4297 47.6673 65.8239C47.8556 66.2145 47.9514 66.6406 47.955 67.1023C47.9514 67.6918 47.7916 68.2173 47.4756 68.679C47.1631 69.1371 46.7281 69.4975 46.1705 69.7603C45.6166 70.0195 44.9756 70.1491 44.2476 70.1491ZM44.2476 68.9773C44.7412 68.9773 45.1673 68.8974 45.526 68.7376C45.8847 68.5778 46.1617 68.3523 46.357 68.0611C46.5523 67.7699 46.6517 67.429 46.6553 67.0384C46.6517 66.6264 46.5452 66.2624 46.3357 65.9464C46.1262 65.6303 45.8403 65.3817 45.4781 65.2006C45.1194 65.0195 44.7093 64.929 44.2476 64.929C43.7824 64.929 43.3669 65.0195 43.0012 65.2006C42.6389 65.3817 42.3531 65.6303 42.1436 65.9464C41.9376 66.2624 41.8364 66.6264 41.8399 67.0384C41.8364 67.429 41.9305 67.7699 42.1222 68.0611C42.3176 68.3523 42.5963 68.5778 42.9585 68.7376C43.3208 68.8974 43.7504 68.9773 44.2476 68.9773ZM44.2476 63.7997C44.6382 63.7997 44.9845 63.7216 45.2863 63.5653C45.5917 63.4091 45.8314 63.1907 46.0054 62.9102C46.1794 62.6296 46.2682 62.3011 46.2718 61.9247C46.2682 61.5554 46.1812 61.234 46.0107 60.9606C45.8403 60.6836 45.6041 60.4705 45.3023 60.3214C45.0004 60.1687 44.6489 60.0923 44.2476 60.0923C43.8392 60.0923 43.4823 60.1687 43.1769 60.3214C42.8715 60.4705 42.6354 60.6836 42.4685 60.9606C42.3016 61.234 42.2199 61.5554 42.2235 61.9247C42.2199 62.3011 42.3034 62.6296 42.4738 62.9102C42.6478 63.1907 42.8875 63.4091 43.1929 63.5653C43.4983 63.7216 43.8499 63.7997 44.2476 63.7997ZM55.5575 67.9545V67.3793C55.5575 66.9815 55.6392 66.6175 55.8026 66.2873C55.9695 65.9535 56.2109 65.6871 56.527 65.4883C56.8466 65.2859 57.2337 65.1847 57.6882 65.1847C58.1499 65.1847 58.5369 65.2859 58.8494 65.4883C59.1619 65.6871 59.3981 65.9535 59.5579 66.2873C59.7177 66.6175 59.7976 66.9815 59.7976 67.3793V67.9545C59.7976 68.3523 59.7159 68.718 59.5526 69.0518C59.3928 69.3821 59.1548 69.6484 58.8388 69.8509C58.5263 70.0497 58.1428 70.1491 57.6882 70.1491C57.2266 70.1491 56.8377 70.0497 56.5217 69.8509C56.2056 69.6484 55.9659 69.3821 55.8026 69.0518C55.6392 68.718 55.5575 68.3523 55.5575 67.9545ZM56.6442 67.3793V67.9545C56.6442 68.2848 56.7223 68.5813 56.8786 68.8441C57.0348 69.1033 57.3047 69.233 57.6882 69.233C58.0611 69.233 58.3239 69.1033 58.4766 68.8441C58.6328 68.5813 58.7109 68.2848 58.7109 67.9545V67.3793C58.7109 67.049 58.6364 66.7543 58.4872 66.495C58.3381 66.2322 58.0717 66.1009 57.6882 66.1009C57.3153 66.1009 57.0472 66.2322 56.8839 66.495C56.7241 66.7543 56.6442 67.049 56.6442 67.3793ZM50.1243 61.7116V61.1364C50.1243 60.7386 50.206 60.3746 50.3693 60.0444C50.5362 59.7106 50.7777 59.4442 51.0938 59.2454C51.4134 59.043 51.8004 58.9418 52.255 58.9418C52.7166 58.9418 53.1037 59.043 53.4162 59.2454C53.7287 59.4442 53.9648 59.7106 54.1246 60.0444C54.2844 60.3746 54.3643 60.7386 54.3643 61.1364V61.7116C54.3643 62.1094 54.2827 62.4751 54.1193 62.8089C53.9595 63.1392 53.7216 63.4055 53.4055 63.608C53.093 63.8068 52.7095 63.9062 52.255 63.9062C51.7933 63.9062 51.4045 63.8068 51.0884 63.608C50.7724 63.4055 50.5327 63.1392 50.3693 62.8089C50.206 62.4751 50.1243 62.1094 50.1243 61.7116ZM51.2109 61.1364V61.7116C51.2109 62.0419 51.2891 62.3384 51.4453 62.6012C51.6016 62.8604 51.8714 62.9901 52.255 62.9901C52.6278 62.9901 52.8906 62.8604 53.0433 62.6012C53.1996 62.3384 53.2777 62.0419 53.2777 61.7116V61.1364C53.2777 60.8061 53.2031 60.5114 53.054 60.2521C52.9048 59.9893 52.6385 59.858 52.255 59.858C51.8821 59.858 51.614 59.9893 51.4506 60.2521C51.2908 60.5114 51.2109 60.8061 51.2109 61.1364ZM50.5291 70L58.0291 59.0909H59.2436L51.7436 70H50.5291ZM67.6811 65.0781V70H66.424V61.8182H67.6385V63.0966H67.745C67.9368 62.6811 68.228 62.3473 68.6186 62.0952C69.0092 61.8395 69.5135 61.7116 70.1314 61.7116C70.6854 61.7116 71.1701 61.8253 71.5856 62.0526C72.0011 62.2763 72.3242 62.6172 72.555 63.0753C72.7859 63.5298 72.9013 64.1051 72.9013 64.8011V70H71.6442V64.8864C71.6442 64.2436 71.4773 63.7429 71.1435 63.3842C70.8097 63.022 70.3516 62.8409 69.7692 62.8409C69.3679 62.8409 69.0092 62.9279 68.6932 63.1019C68.3807 63.2759 68.1339 63.5298 67.9528 63.8636C67.7717 64.1974 67.6811 64.6023 67.6811 65.0781ZM78.6288 70.1705C77.8405 70.1705 77.1604 69.9964 76.5887 69.6484C76.0205 69.2969 75.5819 68.8068 75.273 68.1783C74.9676 67.5462 74.8149 66.8111 74.8149 65.973C74.8149 65.1349 74.9676 64.3963 75.273 63.7571C75.5819 63.1143 76.0116 62.6136 76.5621 62.255C77.116 61.8928 77.7623 61.7116 78.501 61.7116C78.9271 61.7116 79.3479 61.7827 79.7634 61.9247C80.1789 62.0668 80.5571 62.2976 80.898 62.6172C81.2389 62.9332 81.5106 63.3523 81.713 63.8743C81.9154 64.3963 82.0166 65.0391 82.0166 65.8026V66.3352H75.7098V65.2486H80.7382C80.7382 64.7869 80.6459 64.375 80.4612 64.0128C80.2801 63.6506 80.0209 63.3647 79.6835 63.1552C79.3497 62.9457 78.9555 62.8409 78.501 62.8409C78.0003 62.8409 77.567 62.9652 77.2013 63.2138C76.839 63.4588 76.5603 63.7784 76.365 64.1726C76.1697 64.5668 76.072 64.9893 76.072 65.4403V66.1648C76.072 66.7827 76.1785 67.3065 76.3916 67.7362C76.6082 68.1623 76.9083 68.4872 77.2918 68.7109C77.6753 68.9311 78.121 69.0412 78.6288 69.0412C78.9591 69.0412 79.2574 68.995 79.5237 68.9027C79.7936 68.8068 80.0262 68.6648 80.2215 68.4766C80.4168 68.2848 80.5677 68.0469 80.6743 67.7628L81.8888 68.1037C81.7609 68.5156 81.5461 68.8778 81.2442 69.1903C80.9424 69.4993 80.5695 69.7408 80.1256 69.9148C79.6817 70.0852 79.1828 70.1705 78.6288 70.1705ZM85.7826 70L83.2897 61.8182H84.6107L86.3792 68.0824H86.4644L88.2116 61.8182H89.5539L91.2797 68.0611H91.365L93.1334 61.8182H94.4545L91.9616 70H90.7258L88.936 63.7145H88.8082L87.0184 70H85.7826ZM107.025 61.8182L104 70H102.722L99.6959 61.8182H101.06L103.318 68.3381H103.403L105.662 61.8182H107.025ZM108.685 70V61.8182H109.942V70H108.685ZM109.324 60.4545C109.079 60.4545 108.868 60.3711 108.69 60.2042C108.516 60.0373 108.429 59.8366 108.429 59.6023C108.429 59.3679 108.516 59.1673 108.69 59.0004C108.868 58.8335 109.079 58.75 109.324 58.75C109.569 58.75 109.778 58.8335 109.953 59.0004C110.13 59.1673 110.219 59.3679 110.219 59.6023C110.219 59.8366 110.13 60.0373 109.953 60.2042C109.778 60.3711 109.569 60.4545 109.324 60.4545ZM118.04 63.6506L116.911 63.9702C116.839 63.782 116.735 63.5991 116.596 63.4215C116.461 63.2404 116.277 63.0913 116.042 62.9741C115.808 62.8569 115.508 62.7983 115.142 62.7983C114.641 62.7983 114.224 62.9137 113.89 63.1445C113.56 63.3718 113.395 63.6612 113.395 64.0128C113.395 64.3253 113.509 64.5721 113.736 64.7532C113.963 64.9343 114.318 65.0852 114.801 65.206L116.016 65.5043C116.747 65.6818 117.292 65.9535 117.651 66.3192C118.01 66.6815 118.189 67.1484 118.189 67.7202C118.189 68.1889 118.054 68.608 117.784 68.9773C117.518 69.3466 117.145 69.6378 116.665 69.8509C116.186 70.0639 115.629 70.1705 114.993 70.1705C114.158 70.1705 113.468 69.9893 112.921 69.6271C112.374 69.2649 112.028 68.7358 111.882 68.0398L113.075 67.7415C113.189 68.1818 113.404 68.5121 113.72 68.7322C114.039 68.9524 114.457 69.0625 114.972 69.0625C115.558 69.0625 116.023 68.9382 116.367 68.6896C116.715 68.4375 116.889 68.1357 116.889 67.7841C116.889 67.5 116.79 67.2621 116.591 67.0703C116.392 66.875 116.087 66.7294 115.675 66.6335L114.311 66.3139C113.562 66.1364 113.011 65.8612 112.66 65.4883C112.312 65.1119 112.138 64.6413 112.138 64.0767C112.138 63.6151 112.267 63.2067 112.527 62.8516C112.789 62.4964 113.146 62.2177 113.597 62.0153C114.052 61.8129 114.567 61.7116 115.142 61.7116C115.952 61.7116 116.587 61.8892 117.049 62.2443C117.514 62.5994 117.844 63.0682 118.04 63.6506ZM120.081 70V61.8182H121.338V70H120.081ZM120.72 60.4545C120.475 60.4545 120.264 60.3711 120.087 60.2042C119.913 60.0373 119.826 59.8366 119.826 59.6023C119.826 59.3679 119.913 59.1673 120.087 59.0004C120.264 58.8335 120.475 58.75 120.72 58.75C120.965 58.75 121.175 58.8335 121.349 59.0004C121.527 59.1673 121.615 59.3679 121.615 59.6023C121.615 59.8366 121.527 60.0373 121.349 60.2042C121.175 60.3711 120.965 60.4545 120.72 60.4545ZM127.199 61.8182V62.8835H122.959V61.8182H127.199ZM124.195 59.858H125.452V67.6562C125.452 68.0114 125.503 68.2777 125.606 68.4553C125.713 68.6293 125.848 68.7464 126.011 68.8068C126.178 68.8636 126.354 68.892 126.539 68.892C126.677 68.892 126.791 68.8849 126.879 68.8707C126.968 68.853 127.039 68.8388 127.093 68.8281L127.348 69.9574C127.263 69.9893 127.144 70.0213 126.991 70.0533C126.839 70.0888 126.645 70.1065 126.411 70.1065C126.056 70.1065 125.708 70.0302 125.367 69.8775C125.029 69.7248 124.749 69.4922 124.525 69.1797C124.305 68.8672 124.195 68.473 124.195 67.9972V59.858ZM132.326 70.1705C131.587 70.1705 130.939 69.9947 130.382 69.6431C129.828 69.2915 129.395 68.7997 129.082 68.1676C128.773 67.5355 128.619 66.7969 128.619 65.9517C128.619 65.0994 128.773 64.3555 129.082 63.7198C129.395 63.0842 129.828 62.5906 130.382 62.239C130.939 61.8874 131.587 61.7116 132.326 61.7116C133.065 61.7116 133.711 61.8874 134.265 62.239C134.822 62.5906 135.256 63.0842 135.565 63.7198C135.877 64.3555 136.033 65.0994 136.033 65.9517C136.033 66.7969 135.877 67.5355 135.565 68.1676C135.256 68.7997 134.822 69.2915 134.265 69.6431C133.711 69.9947 133.065 70.1705 132.326 70.1705ZM132.326 69.0412C132.887 69.0412 133.349 68.8974 133.711 68.6097C134.073 68.3221 134.341 67.9439 134.515 67.4751C134.689 67.0064 134.776 66.4986 134.776 65.9517C134.776 65.4048 134.689 64.8952 134.515 64.4229C134.341 63.9506 134.073 63.5689 133.711 63.2777C133.349 62.9865 132.887 62.8409 132.326 62.8409C131.765 62.8409 131.303 62.9865 130.941 63.2777C130.579 63.5689 130.311 63.9506 130.137 64.4229C129.963 64.8952 129.876 65.4048 129.876 65.9517C129.876 66.4986 129.963 67.0064 130.137 67.4751C130.311 67.9439 130.579 68.3221 130.941 68.6097C131.303 68.8974 131.765 69.0412 132.326 69.0412ZM137.952 70V61.8182H139.167V63.054H139.252C139.401 62.6491 139.671 62.3207 140.062 62.0685C140.452 61.8164 140.893 61.6903 141.383 61.6903C141.475 61.6903 141.59 61.6921 141.729 61.6957C141.867 61.6992 141.972 61.7045 142.043 61.7116V62.9901C142.001 62.9794 141.903 62.9634 141.75 62.9421C141.601 62.9173 141.443 62.9048 141.276 62.9048C140.878 62.9048 140.523 62.9883 140.211 63.1552C139.902 63.3185 139.657 63.5458 139.476 63.837C139.298 64.1246 139.209 64.4531 139.209 64.8224V70H137.952ZM149.329 63.6506L148.2 63.9702C148.129 63.782 148.024 63.5991 147.885 63.4215C147.75 63.2404 147.566 63.0913 147.331 62.9741C147.097 62.8569 146.797 62.7983 146.431 62.7983C145.93 62.7983 145.513 62.9137 145.179 63.1445C144.849 63.3718 144.684 63.6612 144.684 64.0128C144.684 64.3253 144.798 64.5721 145.025 64.7532C145.252 64.9343 145.607 65.0852 146.09 65.206L147.305 65.5043C148.036 65.6818 148.581 65.9535 148.94 66.3192C149.299 66.6815 149.478 67.1484 149.478 67.7202C149.478 68.1889 149.343 68.608 149.073 68.9773C148.807 69.3466 148.434 69.6378 147.955 69.8509C147.475 70.0639 146.918 70.1705 146.282 70.1705C145.447 70.1705 144.757 69.9893 144.21 69.6271C143.663 69.2649 143.317 68.7358 143.171 68.0398L144.364 67.7415C144.478 68.1818 144.693 68.5121 145.009 68.7322C145.328 68.9524 145.746 69.0625 146.261 69.0625C146.847 69.0625 147.312 68.9382 147.656 68.6896C148.004 68.4375 148.178 68.1357 148.178 67.7841C148.178 67.5 148.079 67.2621 147.88 67.0703C147.681 66.875 147.376 66.7294 146.964 66.6335L145.6 66.3139C144.851 66.1364 144.3 65.8612 143.949 65.4883C143.601 65.1119 143.427 64.6413 143.427 64.0767C143.427 63.6151 143.556 63.2067 143.816 62.8516C144.078 62.4964 144.435 62.2177 144.886 62.0153C145.341 61.8129 145.856 61.7116 146.431 61.7116C147.241 61.7116 147.876 61.8892 148.338 62.2443C148.803 62.5994 149.134 63.0682 149.329 63.6506ZM159.147 61.8182V62.8835H154.907V61.8182H159.147ZM156.143 59.858H157.4V67.6562C157.4 68.0114 157.452 68.2777 157.555 68.4553C157.661 68.6293 157.796 68.7464 157.959 68.8068C158.126 68.8636 158.302 68.892 158.487 68.892C158.625 68.892 158.739 68.8849 158.828 68.8707C158.916 68.853 158.987 68.8388 159.041 68.8281L159.296 69.9574C159.211 69.9893 159.092 70.0213 158.94 70.0533C158.787 70.0888 158.593 70.1065 158.359 70.1065C158.004 70.1065 157.656 70.0302 157.315 69.8775C156.978 69.7248 156.697 69.4922 156.473 69.1797C156.253 68.8672 156.143 68.473 156.143 67.9972V59.858ZM162.471 65.0781V70H161.214V59.0909H162.471V63.0966H162.578C162.769 62.674 163.057 62.3384 163.441 62.0898C163.828 61.8377 164.343 61.7116 164.985 61.7116C165.543 61.7116 166.031 61.8235 166.45 62.0472C166.869 62.2674 167.194 62.6065 167.425 63.0646C167.659 63.5192 167.777 64.098 167.777 64.8011V70H166.519V64.8864C166.519 64.2365 166.351 63.734 166.013 63.3789C165.68 63.0202 165.216 62.8409 164.623 62.8409C164.211 62.8409 163.842 62.9279 163.515 63.1019C163.192 63.2759 162.936 63.5298 162.748 63.8636C162.563 64.1974 162.471 64.6023 162.471 65.0781ZM170.076 70V61.8182H171.333V70H170.076ZM170.716 60.4545C170.471 60.4545 170.259 60.3711 170.082 60.2042C169.908 60.0373 169.821 59.8366 169.821 59.6023C169.821 59.3679 169.908 59.1673 170.082 59.0004C170.259 58.8335 170.471 58.75 170.716 58.75C170.961 58.75 171.17 58.8335 171.344 59.0004C171.522 59.1673 171.61 59.3679 171.61 59.6023C171.61 59.8366 171.522 60.0373 171.344 60.2042C171.17 60.3711 170.961 60.4545 170.716 60.4545ZM179.431 63.6506L178.302 63.9702C178.231 63.782 178.126 63.5991 177.988 63.4215C177.853 63.2404 177.668 63.0913 177.434 62.9741C177.199 62.8569 176.899 62.7983 176.534 62.7983C176.033 62.7983 175.616 62.9137 175.282 63.1445C174.952 63.3718 174.786 63.6612 174.786 64.0128C174.786 64.3253 174.9 64.5721 175.127 64.7532C175.355 64.9343 175.71 65.0852 176.193 65.206L177.407 65.5043C178.139 65.6818 178.684 65.9535 179.043 66.3192C179.401 66.6815 179.581 67.1484 179.581 67.7202C179.581 68.1889 179.446 68.608 179.176 68.9773C178.909 69.3466 178.536 69.6378 178.057 69.8509C177.578 70.0639 177.02 70.1705 176.384 70.1705C175.55 70.1705 174.859 69.9893 174.312 69.6271C173.766 69.2649 173.419 68.7358 173.274 68.0398L174.467 67.7415C174.581 68.1818 174.795 68.5121 175.111 68.7322C175.431 68.9524 175.848 69.0625 176.363 69.0625C176.949 69.0625 177.414 68.9382 177.759 68.6896C178.107 68.4375 178.281 68.1357 178.281 67.7841C178.281 67.5 178.181 67.2621 177.983 67.0703C177.784 66.875 177.478 66.7294 177.066 66.6335L175.703 66.3139C174.953 66.1364 174.403 65.8612 174.051 65.4883C173.703 65.1119 173.529 64.6413 173.529 64.0767C173.529 63.6151 173.659 63.2067 173.918 62.8516C174.181 62.4964 174.538 62.2177 174.989 62.0153C175.443 61.8129 175.958 61.7116 176.534 61.7116C177.343 61.7116 177.979 61.8892 178.441 62.2443C178.906 62.5994 179.236 63.0682 179.431 63.6506ZM33.0043 92L30.5114 83.8182H31.8324L33.6009 90.0824H33.6861L35.4332 83.8182H36.7756L38.5014 90.0611H38.5866L40.3551 83.8182H41.6761L39.1832 92H37.9474L36.1577 85.7145H36.0298L34.2401 92H33.0043ZM46.4901 92.1705C45.7018 92.1705 45.0218 91.9964 44.45 91.6484C43.8818 91.2969 43.4433 90.8068 43.1343 90.1783C42.8289 89.5462 42.6762 88.8111 42.6762 87.973C42.6762 87.1349 42.8289 86.3963 43.1343 85.7571C43.4433 85.1143 43.873 84.6136 44.4234 84.255C44.9774 83.8928 45.6237 83.7116 46.3623 83.7116C46.7884 83.7116 47.2093 83.7827 47.6247 83.9247C48.0402 84.0668 48.4184 84.2976 48.7593 84.6172C49.1002 84.9332 49.3719 85.3523 49.5743 85.8743C49.7767 86.3963 49.8779 87.0391 49.8779 87.8026V88.3352H43.5711V87.2486H48.5995C48.5995 86.7869 48.5072 86.375 48.3225 86.0128C48.1414 85.6506 47.8822 85.3647 47.5448 85.1552C47.211 84.9457 46.8169 84.8409 46.3623 84.8409C45.8616 84.8409 45.4284 84.9652 45.0626 85.2138C44.7004 85.4588 44.4216 85.7784 44.2263 86.1726C44.031 86.5668 43.9333 86.9893 43.9333 87.4403V88.1648C43.9333 88.7827 44.0399 89.3065 44.2529 89.7362C44.4695 90.1623 44.7696 90.4872 45.1531 90.7109C45.5367 90.9311 45.9823 91.0412 46.4901 91.0412C46.8204 91.0412 47.1187 90.995 47.385 90.9027C47.6549 90.8068 47.8875 90.6648 48.0828 90.4766C48.2781 90.2848 48.4291 90.0469 48.5356 89.7628L49.7501 90.1037C49.6222 90.5156 49.4074 90.8778 49.1056 91.1903C48.8037 91.4993 48.4308 91.7408 47.9869 91.9148C47.5431 92.0852 47.0441 92.1705 46.4901 92.1705ZM55.2206 92.1705C54.4323 92.1705 53.7522 91.9964 53.1805 91.6484C52.6123 91.2969 52.1737 90.8068 51.8648 90.1783C51.5594 89.5462 51.4067 88.8111 51.4067 87.973C51.4067 87.1349 51.5594 86.3963 51.8648 85.7571C52.1737 85.1143 52.6034 84.6136 53.1539 84.255C53.7078 83.8928 54.3541 83.7116 55.0928 83.7116C55.5189 83.7116 55.9397 83.7827 56.3552 83.9247C56.7707 84.0668 57.1489 84.2976 57.4898 84.6172C57.8307 84.9332 58.1024 85.3523 58.3048 85.8743C58.5072 86.3963 58.6084 87.0391 58.6084 87.8026V88.3352H52.3016V87.2486H57.33C57.33 86.7869 57.2377 86.375 57.053 86.0128C56.8719 85.6506 56.6127 85.3647 56.2753 85.1552C55.9415 84.9457 55.5473 84.8409 55.0928 84.8409C54.5921 84.8409 54.1588 84.9652 53.7931 85.2138C53.4308 85.4588 53.1521 85.7784 52.9568 86.1726C52.7615 86.5668 52.6638 86.9893 52.6638 87.4403V88.1648C52.6638 88.7827 52.7703 89.3065 52.9834 89.7362C53.2 90.1623 53.5001 90.4872 53.8836 90.7109C54.2671 90.9311 54.7128 91.0412 55.2206 91.0412C55.5509 91.0412 55.8492 90.995 56.1155 90.9027C56.3854 90.8068 56.618 90.6648 56.8133 90.4766C57.0086 90.2848 57.1595 90.0469 57.2661 89.7628L58.4806 90.1037C58.3527 90.5156 58.1379 90.8778 57.836 91.1903C57.5342 91.4993 57.1613 91.7408 56.7174 91.9148C56.2735 92.0852 55.7746 92.1705 55.2206 92.1705ZM61.6926 89.017L61.6713 87.4616H61.9269L65.5065 83.8182H67.0619L63.248 87.6747H63.1414L61.6926 89.017ZM60.5207 92V81.0909H61.7778V92H60.5207ZM65.7195 92L62.5235 87.9517L63.4184 87.0781L67.3176 92H65.7195ZM69.5961 92.0852C69.3333 92.0852 69.1078 91.9911 68.9196 91.8029C68.7314 91.6147 68.6373 91.3892 68.6373 91.1264C68.6373 90.8636 68.7314 90.6381 68.9196 90.4499C69.1078 90.2617 69.3333 90.1676 69.5961 90.1676C69.8588 90.1676 70.0843 90.2617 70.2725 90.4499C70.4608 90.6381 70.5549 90.8636 70.5549 91.1264C70.5549 91.3004 70.5105 91.4602 70.4217 91.6058C70.3365 91.7514 70.2211 91.8686 70.0755 91.9574C69.9334 92.0426 69.7736 92.0852 69.5961 92.0852Z" fill="#2E263D" fill-opacity="0.7"/>
<path d="M38.3011 116.545V134H35.6591V119.188H35.5568L31.3807 121.915V119.392L35.7358 116.545H38.3011ZM43.0227 134V132.091L48.929 125.972C49.5597 125.307 50.0795 124.724 50.4886 124.224C50.9034 123.719 51.2131 123.239 51.4176 122.784C51.6222 122.33 51.7244 121.847 51.7244 121.335C51.7244 120.756 51.5881 120.256 51.3153 119.835C51.0426 119.409 50.6705 119.082 50.1989 118.855C49.7273 118.622 49.196 118.506 48.6051 118.506C47.9801 118.506 47.4347 118.634 46.9688 118.889C46.5028 119.145 46.1449 119.506 45.8949 119.972C45.6449 120.437 45.5199 120.983 45.5199 121.608H43.0057C43.0057 120.545 43.25 119.616 43.7386 118.821C44.2273 118.026 44.8977 117.409 45.75 116.972C46.6023 116.528 47.571 116.307 48.6562 116.307C49.7528 116.307 50.7188 116.526 51.554 116.963C52.3949 117.395 53.0511 117.986 53.5227 118.736C53.9943 119.48 54.2301 120.321 54.2301 121.259C54.2301 121.906 54.108 122.54 53.8636 123.159C53.625 123.778 53.2074 124.469 52.6108 125.23C52.0142 125.986 51.1847 126.903 50.1222 127.983L46.6534 131.614V131.741H54.5114V134H43.0227ZM61.0909 131.614L60.9631 132.543C60.8778 133.224 60.733 133.935 60.5284 134.673C60.3295 135.418 60.1222 136.108 59.9062 136.744C59.696 137.381 59.5227 137.886 59.3864 138.261H57.5795C57.6534 137.909 57.7557 137.432 57.8864 136.83C58.017 136.233 58.1449 135.565 58.2699 134.827C58.3949 134.088 58.4886 133.335 58.5511 132.568L58.6364 131.614H61.0909ZM64.2891 130.591V128.46L71.8317 116.545H73.5107V119.682H72.4453L67.0504 128.222V128.358H77.3885V130.591H64.2891ZM72.5646 134V129.943L72.5817 128.972V116.545H75.0788V134H72.5646ZM86.2564 134.239C85.0348 134.239 83.9553 134.028 83.0178 133.608C82.0859 133.187 81.3558 132.608 80.8274 131.869C80.299 131.131 80.0376 130.29 80.0433 129.347C80.0376 128.608 80.1882 127.929 80.495 127.31C80.8075 126.685 81.2308 126.165 81.7649 125.75C82.299 125.33 82.8956 125.062 83.5547 124.949V124.847C82.6854 124.636 81.9893 124.17 81.4666 123.449C80.9439 122.727 80.6854 121.898 80.6911 120.96C80.6854 120.068 80.9212 119.273 81.3984 118.574C81.8814 117.869 82.5433 117.315 83.3842 116.912C84.2251 116.509 85.1825 116.307 86.2564 116.307C87.3189 116.307 88.2678 116.511 89.103 116.92C89.9439 117.324 90.6058 117.878 91.0888 118.582C91.5717 119.281 91.8161 120.074 91.8217 120.96C91.8161 121.898 91.549 122.727 91.0206 123.449C90.4922 124.17 89.8047 124.636 88.9581 124.847V124.949C89.6115 125.062 90.1996 125.33 90.7223 125.75C91.2507 126.165 91.6712 126.685 91.9837 127.31C92.3018 127.929 92.4638 128.608 92.4695 129.347C92.4638 130.29 92.1967 131.131 91.6683 131.869C91.1399 132.608 90.407 133.187 89.4695 133.608C88.5376 134.028 87.4666 134.239 86.2564 134.239ZM86.2564 132.082C86.978 132.082 87.603 131.963 88.1314 131.724C88.6598 131.48 89.0689 131.142 89.3587 130.71C89.6484 130.273 89.7962 129.761 89.8018 129.176C89.7962 128.568 89.6371 128.031 89.3246 127.565C89.0178 127.099 88.6001 126.733 88.0717 126.466C87.5433 126.199 86.9382 126.065 86.2564 126.065C85.5689 126.065 84.9581 126.199 84.424 126.466C83.8899 126.733 83.4695 127.099 83.1626 127.565C82.8558 128.031 82.7053 128.568 82.7109 129.176C82.7053 129.761 82.8445 130.273 83.1286 130.71C83.4183 131.142 83.8303 131.48 84.3643 131.724C84.8984 131.963 85.5291 132.082 86.2564 132.082ZM86.2564 123.96C86.8359 123.96 87.3501 123.844 87.799 123.611C88.2479 123.378 88.6001 123.054 88.8558 122.639C89.1172 122.224 89.2507 121.739 89.2564 121.182C89.2507 120.636 89.12 120.159 88.8643 119.75C88.6143 119.341 88.2649 119.026 87.8161 118.804C87.3672 118.577 86.8473 118.463 86.2564 118.463C85.6541 118.463 85.1257 118.577 84.6712 118.804C84.2223 119.026 83.8729 119.341 83.6229 119.75C83.3729 120.159 83.2507 120.636 83.2564 121.182C83.2507 121.739 83.3757 122.224 83.6314 122.639C83.8871 123.054 84.2393 123.378 84.6882 123.611C85.1428 123.844 85.6655 123.96 86.2564 123.96ZM101.599 134.29C100.253 134.284 99.1023 133.929 98.1477 133.224C97.1932 132.52 96.4631 131.494 95.9574 130.148C95.4517 128.801 95.1989 127.179 95.1989 125.281C95.1989 123.389 95.4517 121.773 95.9574 120.432C96.4688 119.091 97.2017 118.068 98.1562 117.364C99.1165 116.659 100.264 116.307 101.599 116.307C102.935 116.307 104.08 116.662 105.034 117.372C105.989 118.077 106.719 119.099 107.224 120.44C107.736 121.776 107.991 123.389 107.991 125.281C107.991 127.185 107.739 128.81 107.233 130.156C106.727 131.497 105.997 132.523 105.043 133.233C104.088 133.938 102.94 134.29 101.599 134.29ZM101.599 132.014C102.781 132.014 103.705 131.438 104.369 130.284C105.04 129.131 105.375 127.463 105.375 125.281C105.375 123.832 105.222 122.608 104.915 121.608C104.614 120.602 104.179 119.841 103.611 119.324C103.048 118.801 102.378 118.54 101.599 118.54C100.423 118.54 99.5 119.119 98.8295 120.278C98.1591 121.437 97.821 123.105 97.8153 125.281C97.8153 126.736 97.9659 127.966 98.267 128.972C98.5739 129.972 99.0085 130.73 99.571 131.247C100.134 131.759 100.81 132.014 101.599 132.014Z" fill="#2E263D" fill-opacity="0.9"/>
<path d="M117.41 128.41L122 123.83L126.59 128.41L128 127L122 121L116 127L117.41 128.41Z" fill="#56CA00"/>
<path d="M135.129 130V129.041L138.73 125.099C139.153 124.638 139.501 124.237 139.774 123.896C140.048 123.551 140.25 123.228 140.381 122.926C140.516 122.621 140.584 122.301 140.584 121.967C140.584 121.584 140.491 121.252 140.307 120.971C140.126 120.691 139.877 120.474 139.561 120.321C139.245 120.169 138.89 120.092 138.496 120.092C138.077 120.092 137.711 120.179 137.398 120.353C137.089 120.524 136.85 120.763 136.679 121.072C136.512 121.381 136.429 121.744 136.429 122.159H135.172C135.172 121.52 135.319 120.959 135.614 120.476C135.909 119.993 136.31 119.616 136.818 119.347C137.329 119.077 137.903 118.942 138.538 118.942C139.178 118.942 139.744 119.077 140.238 119.347C140.731 119.616 141.118 119.98 141.399 120.439C141.679 120.897 141.82 121.406 141.82 121.967C141.82 122.369 141.747 122.761 141.601 123.145C141.459 123.525 141.211 123.949 140.855 124.418C140.504 124.883 140.016 125.451 139.391 126.122L136.94 128.743V128.828H142.011V130H135.129ZM147.706 130.149C146.974 130.149 146.328 130.02 145.767 129.76C145.209 129.498 144.774 129.137 144.462 128.679C144.149 128.217 143.995 127.692 143.998 127.102C143.995 126.641 144.085 126.214 144.27 125.824C144.455 125.43 144.707 125.101 145.026 124.838C145.349 124.572 145.71 124.403 146.108 124.332V124.268C145.586 124.134 145.17 123.841 144.861 123.39C144.552 122.935 144.4 122.418 144.403 121.839C144.4 121.286 144.54 120.79 144.824 120.353C145.108 119.917 145.499 119.572 145.996 119.32C146.496 119.068 147.066 118.942 147.706 118.942C148.338 118.942 148.902 119.068 149.4 119.32C149.897 119.572 150.287 119.917 150.571 120.353C150.859 120.79 151.005 121.286 151.008 121.839C151.005 122.418 150.847 122.935 150.534 123.39C150.225 123.841 149.815 124.134 149.304 124.268V124.332C149.698 124.403 150.053 124.572 150.369 124.838C150.685 125.101 150.937 125.43 151.125 125.824C151.314 126.214 151.409 126.641 151.413 127.102C151.409 127.692 151.25 128.217 150.934 128.679C150.621 129.137 150.186 129.498 149.629 129.76C149.075 130.02 148.434 130.149 147.706 130.149ZM147.706 128.977C148.199 128.977 148.625 128.897 148.984 128.738C149.343 128.578 149.62 128.352 149.815 128.061C150.01 127.77 150.11 127.429 150.113 127.038C150.11 126.626 150.003 126.262 149.794 125.946C149.584 125.63 149.298 125.382 148.936 125.201C148.577 125.02 148.167 124.929 147.706 124.929C147.24 124.929 146.825 125.02 146.459 125.201C146.097 125.382 145.811 125.63 145.602 125.946C145.396 126.262 145.294 126.626 145.298 127.038C145.294 127.429 145.388 127.77 145.58 128.061C145.776 128.352 146.054 128.578 146.417 128.738C146.779 128.897 147.208 128.977 147.706 128.977ZM147.706 123.8C148.096 123.8 148.442 123.722 148.744 123.565C149.05 123.409 149.289 123.191 149.463 122.91C149.637 122.63 149.726 122.301 149.73 121.925C149.726 121.555 149.639 121.234 149.469 120.961C149.298 120.684 149.062 120.471 148.76 120.321C148.458 120.169 148.107 120.092 147.706 120.092C147.297 120.092 146.94 120.169 146.635 120.321C146.33 120.471 146.093 120.684 145.926 120.961C145.76 121.234 145.678 121.555 145.681 121.925C145.678 122.301 145.761 122.63 145.932 122.91C146.106 123.191 146.346 123.409 146.651 123.565C146.956 123.722 147.308 123.8 147.706 123.8Z" fill="#56CA00"/>
<rect opacity="0.12" x="219" y="100" width="12" height="44" rx="3" fill="#8C57FF"/>
<rect opacity="0.12" x="239" y="79" width="12" height="65" rx="3" fill="#8C57FF"/>
<rect opacity="0.12" x="259" y="94" width="12" height="50" rx="3" fill="#8C57FF"/>
<rect opacity="0.12" x="279" y="71" width="12" height="73" rx="3" fill="#8C57FF"/>
<rect x="299" y="37" width="12" height="107" rx="3" fill="#8C57FF"/>
<rect opacity="0.12" x="319" y="106" width="12" height="38" rx="3" fill="#8C57FF"/>
<rect opacity="0.12" x="339" y="83" width="12" height="61" rx="3" fill="#8C57FF"/>
</g>
<defs>
<filter id="filter0_d_8003_5011" x="0" y="0" width="381" height="178" filterUnits="userSpaceOnUse" color-interpolation-filters="sRGB">
<feFlood flood-opacity="0" result="BackgroundImageFix"/>
<feColorMatrix in="SourceAlpha" type="matrix" values="0 0 0 0 0 0 0 0 0 0 0 0 0 0 0 0 0 0 127 0" result="hardAlpha"/>
<feOffset dy="4"/>
<feGaussianBlur stdDeviation="5"/>
<feComposite in2="hardAlpha" operator="out"/>
<feColorMatrix type="matrix" values="0 0 0 0 0.180392 0 0 0 0 0.14902 0 0 0 0 0.239216 0 0 0 0.2 0"/>
<feBlend mode="normal" in2="BackgroundImageFix" result="effect1_dropShadow_8003_5011"/>
<feBlend mode="normal" in="SourceGraphic" in2="effect1_dropShadow_8003_5011" result="shape"/>
</filter>
</defs>
</svg>
