<svg width="266" height="91" viewBox="0 0 266 91" fill="none" xmlns="http://www.w3.org/2000/svg">
<path d="M0.5 6.5C0.5 3.18629 3.18629 0.5 6.5 0.5H259.5C262.814 0.5 265.5 3.18629 265.5 6.5V84.5C265.5 87.8137 262.814 90.5 259.5 90.5H6.50001C3.1863 90.5 0.5 87.8137 0.5 84.5V6.5Z" stroke="#2E263D" stroke-opacity="0.12" stroke-linejoin="bevel"/>
<g filter="url(#filter0_d_8003_4266)">
<path d="M20.5 31.5C20.5 28.1863 23.1863 25.5 26.5 25.5H54.5C57.8137 25.5 60.5 28.1863 60.5 31.5V59.5C60.5 62.8137 57.8137 65.5 54.5 65.5H26.5C23.1863 65.5 20.5 62.8137 20.5 59.5V31.5Z" fill="white"/>
<path d="M39.5 34.043C39.83 34.014 40.163 34 40.5 34C46.851 34 52 39.149 52 45.5C52 45.837 51.986 46.17 51.957 46.5H50.451C49.949 51.553 45.685 55.5 40.5 55.5C34.977 55.5 30.5 51.023 30.5 45.5C30.5 40.315 34.447 36.051 39.5 35.55V34.042V34.043ZM39.5 46.5V37.562C37.4827 37.8187 35.6389 38.8339 34.3432 40.4012C33.0475 41.9686 32.3973 43.9705 32.5246 46C32.652 48.0296 33.5473 49.9345 35.0287 51.3276C36.5102 52.7207 38.4664 53.4975 40.5 53.5C42.4486 53.5 44.3302 52.7888 45.7917 51.5C47.2533 50.2112 48.1942 48.4333 48.438 46.5H39.5ZM49.948 44.5C49.7187 42.3379 48.755 40.3198 47.2176 38.7824C45.6802 37.245 43.6621 36.2813 41.5 36.052V44.5H49.948Z" fill="#16B1FF"/>
</g>
<path d="M86.4716 25.5909V36.5H85.1932L79.2486 27.9347H79.142V36.5H77.821V25.5909H79.0994L85.0653 34.1776H85.1719V25.5909H86.4716ZM92.3749 36.6705C91.5866 36.6705 90.9065 36.4964 90.3348 36.1484C89.7666 35.7969 89.328 35.3068 89.0191 34.6783C88.7137 34.0462 88.561 33.3111 88.561 32.473C88.561 31.6349 88.7137 30.8963 89.0191 30.2571C89.328 29.6143 89.7577 29.1136 90.3081 28.755C90.8621 28.3928 91.5084 28.2116 92.2471 28.2116C92.6732 28.2116 93.094 28.2827 93.5095 28.4247C93.925 28.5668 94.3032 28.7976 94.6441 29.1172C94.985 29.4332 95.2567 29.8523 95.4591 30.3743C95.6615 30.8963 95.7627 31.5391 95.7627 32.3026V32.8352H89.4559V31.7486H94.4843C94.4843 31.2869 94.392 30.875 94.2073 30.5128C94.0262 30.1506 93.767 29.8647 93.4296 29.6552C93.0958 29.4457 92.7016 29.3409 92.2471 29.3409C91.7464 29.3409 91.3131 29.4652 90.9474 29.7138C90.5851 29.9588 90.3064 30.2784 90.1111 30.6726C89.9157 31.0668 89.8181 31.4893 89.8181 31.9403V32.6648C89.8181 33.2827 89.9246 33.8065 90.1377 34.2362C90.3543 34.6623 90.6544 34.9872 91.0379 35.2109C91.4214 35.4311 91.8671 35.5412 92.3749 35.5412C92.7052 35.5412 93.0035 35.495 93.2698 35.4027C93.5397 35.3068 93.7723 35.1648 93.9676 34.9766C94.1629 34.7848 94.3138 34.5469 94.4204 34.2628L95.6349 34.6037C95.507 35.0156 95.2922 35.3778 94.9903 35.6903C94.6885 35.9993 94.3156 36.2408 93.8717 36.4148C93.4278 36.5852 92.9289 36.6705 92.3749 36.6705ZM99.5287 36.5L97.0358 28.3182H98.3568L100.125 34.5824H100.21L101.958 28.3182H103.3L105.026 34.5611H105.111L106.88 28.3182H108.201L105.708 36.5H104.472L102.682 30.2145H102.554L100.764 36.5H99.5287ZM113.655 26.7628V25.5909H121.837V26.7628H118.407V36.5H117.085V26.7628H113.655ZM122.856 36.5V28.3182H124.07V29.554H124.155C124.305 29.1491 124.574 28.8207 124.965 28.5685C125.356 28.3164 125.796 28.1903 126.286 28.1903C126.378 28.1903 126.494 28.1921 126.632 28.1957C126.771 28.1992 126.876 28.2045 126.947 28.2116V29.4901C126.904 29.4794 126.806 29.4634 126.654 29.4421C126.504 29.4173 126.346 29.4048 126.18 29.4048C125.782 29.4048 125.427 29.4883 125.114 29.6552C124.805 29.8185 124.56 30.0458 124.379 30.337C124.202 30.6246 124.113 30.9531 124.113 31.3224V36.5H122.856ZM130.844 36.6918C130.326 36.6918 129.855 36.5941 129.433 36.3988C129.01 36.1999 128.675 35.9141 128.426 35.5412C128.177 35.1648 128.053 34.7102 128.053 34.1776C128.053 33.7088 128.146 33.3288 128.33 33.0376C128.515 32.7429 128.762 32.5121 129.071 32.3452C129.38 32.1783 129.72 32.054 130.093 31.9723C130.47 31.8871 130.848 31.8196 131.228 31.7699C131.725 31.706 132.128 31.658 132.437 31.6261C132.75 31.5906 132.977 31.532 133.119 31.4503C133.264 31.3686 133.337 31.2266 133.337 31.0241V30.9815C133.337 30.456 133.193 30.0476 132.906 29.7564C132.622 29.4652 132.19 29.3196 131.611 29.3196C131.011 29.3196 130.541 29.451 130.2 29.7138C129.859 29.9766 129.619 30.2571 129.481 30.5554L128.288 30.1293C128.501 29.6321 128.785 29.245 129.14 28.968C129.498 28.6875 129.889 28.4922 130.312 28.3821C130.738 28.2685 131.157 28.2116 131.569 28.2116C131.832 28.2116 132.133 28.2436 132.474 28.3075C132.819 28.3679 133.151 28.494 133.47 28.6857C133.794 28.8775 134.062 29.1669 134.275 29.554C134.488 29.9411 134.594 30.4595 134.594 31.1094V36.5H133.337V35.392H133.273C133.188 35.5696 133.046 35.7596 132.847 35.962C132.648 36.1644 132.384 36.3366 132.054 36.4787C131.723 36.6207 131.32 36.6918 130.844 36.6918ZM131.036 35.5625C131.533 35.5625 131.952 35.4648 132.293 35.2695C132.638 35.0742 132.897 34.8221 133.071 34.5131C133.248 34.2042 133.337 33.8793 133.337 33.5384V32.3878C133.284 32.4517 133.167 32.5103 132.986 32.5636C132.808 32.6133 132.602 32.6577 132.368 32.6967C132.137 32.7322 131.911 32.7642 131.691 32.7926C131.475 32.8175 131.299 32.8388 131.164 32.8565C130.837 32.8991 130.532 32.9684 130.248 33.0643C129.967 33.1566 129.74 33.2969 129.566 33.4851C129.396 33.6697 129.31 33.9219 129.31 34.2415C129.31 34.6783 129.472 35.0085 129.795 35.2322C130.122 35.4524 130.535 35.5625 131.036 35.5625ZM138.146 31.5781V36.5H136.889V28.3182H138.103V29.5966H138.21C138.402 29.1811 138.693 28.8473 139.083 28.5952C139.474 28.3395 139.978 28.2116 140.596 28.2116C141.15 28.2116 141.635 28.3253 142.05 28.5526C142.466 28.7763 142.789 29.1172 143.02 29.5753C143.251 30.0298 143.366 30.6051 143.366 31.3011V36.5H142.109V31.3864C142.109 30.7436 141.942 30.2429 141.608 29.8842C141.275 29.522 140.816 29.3409 140.234 29.3409C139.833 29.3409 139.474 29.4279 139.158 29.6019C138.846 29.7759 138.599 30.0298 138.418 30.3636C138.237 30.6974 138.146 31.1023 138.146 31.5781ZM151.459 30.1506L150.329 30.4702C150.258 30.282 150.154 30.0991 150.015 29.9215C149.88 29.7404 149.696 29.5913 149.461 29.4741C149.227 29.3569 148.927 29.2983 148.561 29.2983C148.06 29.2983 147.643 29.4137 147.309 29.6445C146.979 29.8718 146.814 30.1612 146.814 30.5128C146.814 30.8253 146.927 31.0721 147.155 31.2532C147.382 31.4343 147.737 31.5852 148.22 31.706L149.435 32.0043C150.166 32.1818 150.711 32.4535 151.07 32.8192C151.429 33.1815 151.608 33.6484 151.608 34.2202C151.608 34.6889 151.473 35.108 151.203 35.4773C150.937 35.8466 150.564 36.1378 150.084 36.3509C149.605 36.5639 149.047 36.6705 148.412 36.6705C147.577 36.6705 146.887 36.4893 146.34 36.1271C145.793 35.7649 145.447 35.2358 145.301 34.5398L146.494 34.2415C146.608 34.6818 146.823 35.0121 147.139 35.2322C147.458 35.4524 147.876 35.5625 148.391 35.5625C148.976 35.5625 149.442 35.4382 149.786 35.1896C150.134 34.9375 150.308 34.6357 150.308 34.2841C150.308 34 150.209 33.7621 150.01 33.5703C149.811 33.375 149.506 33.2294 149.094 33.1335L147.73 32.8139C146.981 32.6364 146.43 32.3612 146.079 31.9883C145.731 31.6119 145.557 31.1413 145.557 30.5767C145.557 30.1151 145.686 29.7067 145.946 29.3516C146.208 28.9964 146.565 28.7177 147.016 28.5153C147.471 28.3129 147.986 28.2116 148.561 28.2116C149.371 28.2116 150.006 28.3892 150.468 28.7443C150.933 29.0994 151.263 29.5682 151.459 30.1506ZM155.908 36.6918C155.389 36.6918 154.919 36.5941 154.496 36.3988C154.074 36.1999 153.738 35.9141 153.49 35.5412C153.241 35.1648 153.117 34.7102 153.117 34.1776C153.117 33.7088 153.209 33.3288 153.394 33.0376C153.578 32.7429 153.825 32.5121 154.134 32.3452C154.443 32.1783 154.784 32.054 155.157 31.9723C155.533 31.8871 155.911 31.8196 156.291 31.7699C156.789 31.706 157.192 31.658 157.501 31.6261C157.813 31.5906 158.04 31.532 158.182 31.4503C158.328 31.3686 158.401 31.2266 158.401 31.0241V30.9815C158.401 30.456 158.257 30.0476 157.969 29.7564C157.685 29.4652 157.254 29.3196 156.675 29.3196C156.075 29.3196 155.604 29.451 155.263 29.7138C154.922 29.9766 154.683 30.2571 154.544 30.5554L153.351 30.1293C153.564 29.6321 153.848 29.245 154.203 28.968C154.562 28.6875 154.953 28.4922 155.375 28.3821C155.801 28.2685 156.22 28.2116 156.632 28.2116C156.895 28.2116 157.197 28.2436 157.538 28.3075C157.882 28.3679 158.214 28.494 158.534 28.6857C158.857 28.8775 159.125 29.1669 159.338 29.554C159.551 29.9411 159.658 30.4595 159.658 31.1094V36.5H158.401V35.392H158.337C158.252 35.5696 158.11 35.7596 157.911 35.962C157.712 36.1644 157.447 36.3366 157.117 36.4787C156.787 36.6207 156.384 36.6918 155.908 36.6918ZM156.1 35.5625C156.597 35.5625 157.016 35.4648 157.357 35.2695C157.701 35.0742 157.96 34.8221 158.134 34.5131C158.312 34.2042 158.401 33.8793 158.401 33.5384V32.3878C158.347 32.4517 158.23 32.5103 158.049 32.5636C157.872 32.6133 157.666 32.6577 157.431 32.6967C157.2 32.7322 156.975 32.7642 156.755 32.7926C156.538 32.8175 156.362 32.8388 156.227 32.8565C155.901 32.8991 155.595 32.9684 155.311 33.0643C155.031 33.1566 154.803 33.2969 154.629 33.4851C154.459 33.6697 154.374 33.9219 154.374 34.2415C154.374 34.6783 154.535 35.0085 154.858 35.2322C155.185 35.4524 155.599 35.5625 156.1 35.5625ZM165.276 36.6705C164.509 36.6705 163.849 36.4893 163.295 36.1271C162.741 35.7649 162.315 35.266 162.016 34.6303C161.718 33.9947 161.569 33.2685 161.569 32.4517C161.569 31.6207 161.722 30.8874 162.027 30.2518C162.336 29.6126 162.766 29.1136 163.316 28.755C163.87 28.3928 164.516 28.2116 165.255 28.2116C165.83 28.2116 166.349 28.3182 166.81 28.5312C167.272 28.7443 167.65 29.0426 167.945 29.4261C168.24 29.8097 168.422 30.2571 168.494 30.7685H167.236C167.141 30.3956 166.927 30.0653 166.597 29.7777C166.271 29.4865 165.83 29.3409 165.276 29.3409C164.786 29.3409 164.356 29.4687 163.987 29.7244C163.621 29.9766 163.335 30.3335 163.13 30.7951C162.927 31.2532 162.826 31.7912 162.826 32.4091C162.826 33.0412 162.925 33.5916 163.124 34.0604C163.327 34.5291 163.611 34.8931 163.976 35.1523C164.346 35.4116 164.779 35.5412 165.276 35.5412C165.603 35.5412 165.899 35.4844 166.166 35.3707C166.432 35.2571 166.658 35.0938 166.842 34.8807C167.027 34.6676 167.158 34.4119 167.236 34.1136H168.494C168.422 34.5966 168.247 35.0316 167.966 35.4187C167.689 35.8022 167.322 36.1076 166.864 36.3349C166.409 36.5586 165.88 36.6705 165.276 36.6705ZM173.889 28.3182V29.3835H169.649V28.3182H173.889ZM170.885 26.358H172.142V34.1562C172.142 34.5114 172.194 34.7777 172.297 34.9553C172.403 35.1293 172.538 35.2464 172.702 35.3068C172.869 35.3636 173.044 35.392 173.229 35.392C173.367 35.392 173.481 35.3849 173.57 35.3707C173.659 35.353 173.73 35.3388 173.783 35.3281L174.039 36.4574C173.953 36.4893 173.834 36.5213 173.682 36.5533C173.529 36.5888 173.335 36.6065 173.101 36.6065C172.746 36.6065 172.398 36.5302 172.057 36.3775C171.72 36.2248 171.439 35.9922 171.215 35.6797C170.995 35.3672 170.885 34.973 170.885 34.4972V26.358ZM175.78 36.5V28.3182H177.038V36.5H175.78ZM176.42 26.9545C176.175 26.9545 175.963 26.8711 175.786 26.7042C175.612 26.5373 175.525 26.3366 175.525 26.1023C175.525 25.8679 175.612 25.6673 175.786 25.5004C175.963 25.3335 176.175 25.25 176.42 25.25C176.665 25.25 176.874 25.3335 177.048 25.5004C177.226 25.6673 177.315 25.8679 177.315 26.1023C177.315 26.3366 177.226 26.5373 177.048 26.7042C176.874 26.8711 176.665 26.9545 176.42 26.9545ZM182.664 36.6705C181.925 36.6705 181.277 36.4947 180.72 36.1431C180.166 35.7915 179.732 35.2997 179.42 34.6676C179.111 34.0355 178.956 33.2969 178.956 32.4517C178.956 31.5994 179.111 30.8555 179.42 30.2198C179.732 29.5842 180.166 29.0906 180.72 28.739C181.277 28.3874 181.925 28.2116 182.664 28.2116C183.403 28.2116 184.049 28.3874 184.603 28.739C185.16 29.0906 185.594 29.5842 185.903 30.2198C186.215 30.8555 186.371 31.5994 186.371 32.4517C186.371 33.2969 186.215 34.0355 185.903 34.6676C185.594 35.2997 185.16 35.7915 184.603 36.1431C184.049 36.4947 183.403 36.6705 182.664 36.6705ZM182.664 35.5412C183.225 35.5412 183.687 35.3974 184.049 35.1097C184.411 34.8221 184.679 34.4439 184.853 33.9751C185.027 33.5064 185.114 32.9986 185.114 32.4517C185.114 31.9048 185.027 31.3952 184.853 30.9229C184.679 30.4506 184.411 30.0689 184.049 29.7777C183.687 29.4865 183.225 29.3409 182.664 29.3409C182.103 29.3409 181.641 29.4865 181.279 29.7777C180.917 30.0689 180.649 30.4506 180.475 30.9229C180.301 31.3952 180.214 31.9048 180.214 32.4517C180.214 32.9986 180.301 33.5064 180.475 33.9751C180.649 34.4439 180.917 34.8221 181.279 35.1097C181.641 35.3974 182.103 35.5412 182.664 35.5412ZM189.547 31.5781V36.5H188.29V28.3182H189.505V29.5966H189.611C189.803 29.1811 190.094 28.8473 190.485 28.5952C190.875 28.3395 191.38 28.2116 191.998 28.2116C192.552 28.2116 193.036 28.3253 193.452 28.5526C193.867 28.7763 194.19 29.1172 194.421 29.5753C194.652 30.0298 194.767 30.6051 194.767 31.3011V36.5H193.51V31.3864C193.51 30.7436 193.343 30.2429 193.01 29.8842C192.676 29.522 192.218 29.3409 191.635 29.3409C191.234 29.3409 190.875 29.4279 190.559 29.6019C190.247 29.7759 190 30.0298 189.819 30.3636C189.638 30.6974 189.547 31.1023 189.547 31.5781ZM202.86 30.1506L201.731 30.4702C201.66 30.282 201.555 30.0991 201.417 29.9215C201.282 29.7404 201.097 29.5913 200.863 29.4741C200.628 29.3569 200.328 29.2983 199.962 29.2983C199.462 29.2983 199.044 29.4137 198.711 29.6445C198.38 29.8718 198.215 30.1612 198.215 30.5128C198.215 30.8253 198.329 31.0721 198.556 31.2532C198.783 31.4343 199.138 31.5852 199.621 31.706L200.836 32.0043C201.567 32.1818 202.113 32.4535 202.471 32.8192C202.83 33.1815 203.009 33.6484 203.009 34.2202C203.009 34.6889 202.874 35.108 202.604 35.4773C202.338 35.8466 201.965 36.1378 201.486 36.3509C201.006 36.5639 200.449 36.6705 199.813 36.6705C198.979 36.6705 198.288 36.4893 197.741 36.1271C197.194 35.7649 196.848 35.2358 196.702 34.5398L197.896 34.2415C198.009 34.6818 198.224 35.0121 198.54 35.2322C198.86 35.4524 199.277 35.5625 199.792 35.5625C200.378 35.5625 200.843 35.4382 201.188 35.1896C201.536 34.9375 201.71 34.6357 201.71 34.2841C201.71 34 201.61 33.7621 201.411 33.5703C201.212 33.375 200.907 33.2294 200.495 33.1335L199.131 32.8139C198.382 32.6364 197.832 32.3612 197.48 31.9883C197.132 31.6119 196.958 31.1413 196.958 30.5767C196.958 30.1151 197.088 29.7067 197.347 29.3516C197.61 28.9964 197.967 28.7177 198.418 28.5153C198.872 28.3129 199.387 28.2116 199.962 28.2116C200.772 28.2116 201.408 28.3892 201.869 28.7443C202.335 29.0994 202.665 29.5682 202.86 30.1506Z" fill="#2E263D" fill-opacity="0.7"/>
<path d="M82.7259 50.4091V63.5H80.7443V52.3906H80.6676L77.5355 54.4361V52.544L80.8018 50.4091H82.7259ZM90.8246 63.679C89.9467 63.679 89.1626 63.5277 88.4723 63.2251C87.7862 62.9226 87.2429 62.5028 86.8423 61.9659C86.446 61.4247 86.233 60.7983 86.2031 60.0866H88.2102C88.2358 60.4744 88.3658 60.8111 88.6001 61.0966C88.8388 61.3778 89.1499 61.5952 89.5334 61.7486C89.9169 61.902 90.343 61.9787 90.8118 61.9787C91.3274 61.9787 91.7834 61.8892 92.1797 61.7102C92.5803 61.5312 92.8935 61.282 93.1193 60.9624C93.3452 60.6385 93.4581 60.2656 93.4581 59.8438C93.4581 59.4048 93.3452 59.0192 93.1193 58.6868C92.8977 58.3501 92.5717 58.0859 92.1413 57.8942C91.7152 57.7024 91.1996 57.6065 90.5945 57.6065H89.4886V55.9957H90.5945C91.0803 55.9957 91.5064 55.9084 91.8729 55.7337C92.2436 55.5589 92.5334 55.3161 92.7422 55.005C92.951 54.6896 93.0554 54.321 93.0554 53.8991C93.0554 53.4943 92.9638 53.1428 92.7805 52.8445C92.6016 52.5419 92.3459 52.3054 92.0135 52.1349C91.6854 51.9645 91.2976 51.8793 90.8501 51.8793C90.424 51.8793 90.0256 51.9581 89.6548 52.1158C89.2884 52.2692 88.9901 52.4908 88.7599 52.7805C88.5298 53.0661 88.4063 53.4091 88.3892 53.8097H86.478C86.4993 53.1023 86.7081 52.4801 87.1044 51.9432C87.505 51.4062 88.0334 50.9865 88.6896 50.6839C89.3459 50.3814 90.0746 50.2301 90.8757 50.2301C91.7152 50.2301 92.4396 50.3942 93.049 50.7223C93.6626 51.0462 94.1357 51.4787 94.468 52.0199C94.8047 52.5611 94.9709 53.1534 94.9666 53.7969C94.9709 54.5298 94.7663 55.152 94.353 55.6634C93.9439 56.1747 93.3984 56.5178 92.7166 56.6925V56.7947C93.5859 56.9268 94.2592 57.272 94.7365 57.8303C95.218 58.3885 95.4567 59.081 95.4524 59.9077C95.4567 60.6278 95.2564 61.2734 94.8516 61.8445C94.451 62.4155 93.9034 62.8651 93.2088 63.1932C92.5142 63.517 91.7195 63.679 90.8246 63.679ZM98.7667 63.6214C98.4173 63.6214 98.1168 63.4979 97.8654 63.2507C97.614 62.9993 97.4883 62.6967 97.4883 62.343C97.4883 61.9936 97.614 61.6953 97.8654 61.4482C98.1168 61.1967 98.4173 61.071 98.7667 61.071C99.1161 61.071 99.4165 61.1967 99.668 61.4482C99.9194 61.6953 100.045 61.9936 100.045 62.343C100.045 62.5774 99.9854 62.7926 99.8661 62.9886C99.7511 63.1804 99.5977 63.3338 99.4059 63.4489C99.2141 63.5639 99.0011 63.6214 98.7667 63.6214ZM106.675 63.679C106.091 63.6705 105.516 63.5639 104.949 63.3594C104.387 63.1548 103.876 62.8139 103.415 62.3366C102.955 61.8594 102.586 61.218 102.309 60.4126C102.037 59.6072 101.9 58.6016 101.9 57.3956C101.9 56.2536 102.013 55.2393 102.239 54.353C102.469 53.4666 102.8 52.7188 103.23 52.1094C103.66 51.4957 104.18 51.0291 104.79 50.7095C105.399 50.3899 106.083 50.2301 106.841 50.2301C107.621 50.2301 108.314 50.3835 108.919 50.6903C109.524 50.9972 110.014 51.4212 110.389 51.9624C110.768 52.5036 111.009 53.1193 111.111 53.8097H109.162C109.03 53.2642 108.768 52.8189 108.376 52.4737C107.983 52.1286 107.472 51.956 106.841 51.956C105.883 51.956 105.135 52.3736 104.598 53.2088C104.065 54.044 103.797 55.2053 103.792 56.6925H103.888C104.114 56.3217 104.391 56.0064 104.719 55.7464C105.052 55.4822 105.422 55.2798 105.831 55.1392C106.245 54.9943 106.68 54.9219 107.135 54.9219C107.894 54.9219 108.58 55.1072 109.194 55.478C109.812 55.8445 110.304 56.3516 110.67 56.9993C111.037 57.647 111.22 58.3885 111.22 59.2237C111.22 60.0589 111.03 60.8153 110.651 61.4929C110.276 62.1705 109.748 62.7074 109.066 63.1037C108.384 63.4957 107.587 63.6875 106.675 63.679ZM106.669 62.017C107.172 62.017 107.621 61.8935 108.018 61.6463C108.414 61.3991 108.727 61.0668 108.957 60.6491C109.187 60.2315 109.302 59.7649 109.302 59.2493C109.302 58.7464 109.189 58.2884 108.964 57.875C108.742 57.4616 108.435 57.1335 108.043 56.8906C107.655 56.6477 107.212 56.5263 106.714 56.5263C106.334 56.5263 105.983 56.5987 105.659 56.7436C105.339 56.8885 105.058 57.0888 104.815 57.3445C104.572 57.6001 104.381 57.8942 104.24 58.2266C104.104 58.5547 104.035 58.902 104.035 59.2685C104.035 59.7585 104.148 60.2124 104.374 60.63C104.604 61.0476 104.917 61.3842 105.314 61.6399C105.714 61.8913 106.166 62.017 106.669 62.017ZM115.332 60.1697L115.319 57.8366H115.651L119.563 53.6818H121.852L117.39 58.4119H117.089L115.332 60.1697ZM113.574 63.5V50.4091H115.485V63.5H113.574ZM119.774 63.5L116.259 58.8338L117.575 57.4979L122.12 63.5H119.774Z" fill="#2E263D" fill-opacity="0.9"/>
<path d="M134.5 57.6717L139.45 52.7217L140.864 54.1357L134.5 60.4997L128.136 54.1357L129.55 52.7217L134.5 57.6717Z" fill="#FF4C51"/>
<path d="M147.374 59.2628V58.1761L152.168 50.5909H152.956V52.2741H152.423L148.801 58.0057V58.0909H155.257V59.2628H147.374ZM152.509 61.5V58.9325V58.4265V50.5909H153.766V61.5H152.509ZM157.253 61.5V60.5412L160.854 56.5994C161.277 56.1378 161.625 55.7365 161.898 55.3956C162.172 55.0511 162.374 54.728 162.505 54.4261C162.64 54.1207 162.708 53.8011 162.708 53.4673C162.708 53.0838 162.616 52.7518 162.431 52.4712C162.25 52.1907 162.001 51.9741 161.685 51.8214C161.369 51.6687 161.014 51.5923 160.62 51.5923C160.201 51.5923 159.835 51.6793 159.522 51.8533C159.214 52.0238 158.974 52.2635 158.803 52.5724C158.636 52.8814 158.553 53.2436 158.553 53.6591H157.296C157.296 53.0199 157.443 52.4588 157.738 51.9759C158.033 51.4929 158.434 51.1165 158.942 50.8466C159.453 50.5767 160.027 50.4418 160.662 50.4418C161.302 50.4418 161.868 50.5767 162.362 50.8466C162.855 51.1165 163.242 51.4805 163.523 51.9386C163.803 52.3967 163.944 52.9062 163.944 53.4673C163.944 53.8686 163.871 54.261 163.725 54.6445C163.583 55.0245 163.335 55.4489 162.979 55.9176C162.628 56.3828 162.14 56.951 161.515 57.6222L159.064 60.2429V60.3281H164.135V61.5H157.253ZM167.273 61.5852C167.01 61.5852 166.785 61.4911 166.596 61.3029C166.408 61.1147 166.314 60.8892 166.314 60.6264C166.314 60.3636 166.408 60.1381 166.596 59.9499C166.785 59.7617 167.01 59.6676 167.273 59.6676C167.536 59.6676 167.761 59.7617 167.949 59.9499C168.138 60.1381 168.232 60.3636 168.232 60.6264C168.232 60.8004 168.187 60.9602 168.098 61.1058C168.013 61.2514 167.898 61.3686 167.752 61.4574C167.61 61.5426 167.45 61.5852 167.273 61.5852ZM170.21 59.2628V58.1761L175.005 50.5909H175.793V52.2741H175.26L171.638 58.0057V58.0909H178.094V59.2628H170.21ZM175.345 61.5V58.9325V58.4265V50.5909H176.603V61.5H175.345ZM185.651 59.4545V58.8793C185.651 58.4815 185.733 58.1175 185.896 57.7873C186.063 57.4535 186.305 57.1871 186.621 56.9883C186.94 56.7859 187.327 56.6847 187.782 56.6847C188.244 56.6847 188.631 56.7859 188.943 56.9883C189.256 57.1871 189.492 57.4535 189.652 57.7873C189.811 58.1175 189.891 58.4815 189.891 58.8793V59.4545C189.891 59.8523 189.81 60.218 189.646 60.5518C189.487 60.8821 189.249 61.1484 188.933 61.3509C188.62 61.5497 188.237 61.6491 187.782 61.6491C187.32 61.6491 186.931 61.5497 186.615 61.3509C186.299 61.1484 186.06 60.8821 185.896 60.5518C185.733 60.218 185.651 59.8523 185.651 59.4545ZM186.738 58.8793V59.4545C186.738 59.7848 186.816 60.0813 186.972 60.3441C187.129 60.6033 187.398 60.733 187.782 60.733C188.155 60.733 188.418 60.6033 188.57 60.3441C188.727 60.0813 188.805 59.7848 188.805 59.4545V58.8793C188.805 58.549 188.73 58.2543 188.581 57.995C188.432 57.7322 188.165 57.6009 187.782 57.6009C187.409 57.6009 187.141 57.7322 186.978 57.995C186.818 58.2543 186.738 58.549 186.738 58.8793ZM180.218 53.2116V52.6364C180.218 52.2386 180.3 51.8746 180.463 51.5444C180.63 51.2106 180.871 50.9442 181.188 50.7454C181.507 50.543 181.894 50.4418 182.349 50.4418C182.81 50.4418 183.197 50.543 183.51 50.7454C183.822 50.9442 184.059 51.2106 184.218 51.5444C184.378 51.8746 184.458 52.2386 184.458 52.6364V53.2116C184.458 53.6094 184.376 53.9751 184.213 54.3089C184.053 54.6392 183.815 54.9055 183.499 55.108C183.187 55.3068 182.803 55.4062 182.349 55.4062C181.887 55.4062 181.498 55.3068 181.182 55.108C180.866 54.9055 180.626 54.6392 180.463 54.3089C180.3 53.9751 180.218 53.6094 180.218 53.2116ZM181.305 52.6364V53.2116C181.305 53.5419 181.383 53.8384 181.539 54.1012C181.695 54.3604 181.965 54.4901 182.349 54.4901C182.722 54.4901 182.984 54.3604 183.137 54.1012C183.293 53.8384 183.371 53.5419 183.371 53.2116V52.6364C183.371 52.3061 183.297 52.0114 183.148 51.7521C182.999 51.4893 182.732 51.358 182.349 51.358C181.976 51.358 181.708 51.4893 181.544 51.7521C181.385 52.0114 181.305 52.3061 181.305 52.6364ZM180.623 61.5L188.123 50.5909H189.337L181.837 61.5H180.623Z" fill="#FF4C51"/>
<defs>
<filter id="filter0_d_8003_4266" x="16.5" y="23.5" width="48" height="48" filterUnits="userSpaceOnUse" color-interpolation-filters="sRGB">
<feFlood flood-opacity="0" result="BackgroundImageFix"/>
<feColorMatrix in="SourceAlpha" type="matrix" values="0 0 0 0 0 0 0 0 0 0 0 0 0 0 0 0 0 0 127 0" result="hardAlpha"/>
<feOffset dy="2"/>
<feGaussianBlur stdDeviation="2"/>
<feColorMatrix type="matrix" values="0 0 0 0 0.180392 0 0 0 0 0.14902 0 0 0 0 0.239216 0 0 0 0.16 0"/>
<feBlend mode="normal" in2="BackgroundImageFix" result="effect1_dropShadow_8003_4266"/>
<feBlend mode="normal" in="SourceGraphic" in2="effect1_dropShadow_8003_4266" result="shape"/>
</filter>
</defs>
</svg>
