<svg width="92" height="44" viewBox="0 0 92 44" fill="none" xmlns="http://www.w3.org/2000/svg">
<g clip-path="url(#clip0_8003_4016)">
<path d="M24.3583 28V15.6364H26.2237V26.3942H31.826V28H24.3583ZM36.5076 28.2053C35.92 28.2053 35.3888 28.0966 34.9139 27.8793C34.439 27.6579 34.0627 27.3379 33.785 26.9194C33.5113 26.5008 33.3745 25.9877 33.3745 25.38C33.3745 24.8568 33.4751 24.4261 33.6763 24.0881C33.8775 23.75 34.1492 23.4824 34.4913 23.2852C34.8334 23.0879 35.2157 22.939 35.6383 22.8384C36.0609 22.7378 36.4915 22.6613 36.9302 22.609C37.4856 22.5446 37.9364 22.4923 38.2825 22.4521C38.6286 22.4078 38.8801 22.3374 39.0371 22.2408C39.1941 22.1442 39.2725 21.9872 39.2725 21.7699V21.7276C39.2725 21.2004 39.1236 20.7919 38.8258 20.5021C38.532 20.2124 38.0933 20.0675 37.5098 20.0675C36.902 20.0675 36.4231 20.2023 36.073 20.4719C35.7269 20.7376 35.4874 21.0334 35.3546 21.3594L33.6582 20.973C33.8594 20.4096 34.1532 19.9548 34.5396 19.6087C34.93 19.2585 35.3787 19.005 35.8858 18.848C36.3929 18.687 36.9262 18.6065 37.4856 18.6065C37.8559 18.6065 38.2483 18.6508 38.6628 18.7393C39.0814 18.8239 39.4718 18.9808 39.834 19.2102C40.2002 19.4396 40.5001 19.7676 40.7335 20.1942C40.9669 20.6168 41.0836 21.1662 41.0836 21.8423V28H39.3208V26.7322H39.2484C39.1317 26.9657 38.9566 27.1951 38.7232 27.4205C38.4898 27.6458 38.1899 27.833 37.8237 27.9819C37.4574 28.1308 37.0188 28.2053 36.5076 28.2053ZM36.9 26.7564C37.3991 26.7564 37.8257 26.6578 38.1799 26.4606C38.5381 26.2634 38.8097 26.0058 38.9949 25.6879C39.184 25.3659 39.2786 25.0218 39.2786 24.6555V23.4602C39.2142 23.5246 39.0894 23.585 38.9043 23.6413C38.7232 23.6937 38.5159 23.7399 38.2825 23.7802C38.0491 23.8164 37.8217 23.8506 37.6003 23.8828C37.379 23.911 37.1938 23.9351 37.0449 23.9553C36.6948 23.9995 36.3748 24.074 36.085 24.1786C35.7993 24.2833 35.5699 24.4342 35.3968 24.6314C35.2278 24.8246 35.1433 25.0821 35.1433 25.4041C35.1433 25.8509 35.3083 26.1889 35.6383 26.4183C35.9683 26.6437 36.3889 26.7564 36.9 26.7564ZM43.4878 28V18.7273H45.2325V20.2003H45.3291C45.4981 19.7012 45.796 19.3088 46.2226 19.0231C46.6532 18.7333 47.1402 18.5884 47.6835 18.5884C47.7962 18.5884 47.929 18.5924 48.0819 18.6005C48.2389 18.6085 48.3617 18.6186 48.4502 18.6307V20.3572C48.3778 20.3371 48.249 20.315 48.0638 20.2908C47.8787 20.2627 47.6936 20.2486 47.5084 20.2486C47.0818 20.2486 46.7015 20.3391 46.3675 20.5202C46.0374 20.6973 45.7758 20.9448 45.5827 21.2628C45.3895 21.5767 45.2929 21.9349 45.2929 22.3374V28H43.4878ZM53.568 31.6705C52.8315 31.6705 52.1976 31.5739 51.6664 31.3807C51.1391 31.1875 50.7085 30.9319 50.3745 30.614C50.0404 30.296 49.7909 29.9479 49.6259 29.5696L51.1774 28.9297C51.286 29.1068 51.4309 29.2939 51.612 29.4911C51.7972 29.6924 52.0467 29.8634 52.3606 30.0043C52.6786 30.1451 53.0871 30.2156 53.5861 30.2156C54.2703 30.2156 54.8358 30.0485 55.2825 29.7145C55.7292 29.3845 55.9526 28.8572 55.9526 28.1328V26.3097H55.8379C55.7292 26.5069 55.5723 26.7262 55.367 26.9677C55.1658 27.2092 54.8881 27.4184 54.5339 27.5955C54.1797 27.7726 53.7189 27.8612 53.1515 27.8612C52.419 27.8612 51.7589 27.6901 51.1713 27.348C50.5878 27.0019 50.1249 26.4928 49.7828 25.8207C49.4448 25.1445 49.2757 24.3134 49.2757 23.3274C49.2757 22.3414 49.4428 21.4962 49.7768 20.7919C50.1149 20.0876 50.5777 19.5483 51.1653 19.174C51.7529 18.7957 52.419 18.6065 53.1635 18.6065C53.7391 18.6065 54.2039 18.7031 54.5581 18.8963C54.9122 19.0855 55.1879 19.3068 55.3851 19.5604C55.5864 19.8139 55.7413 20.0373 55.85 20.2305H55.9828V18.7273H57.7516V28.2053C57.7516 29.0021 57.5665 29.6561 57.1962 30.1673C56.8259 30.6784 56.3249 31.0567 55.693 31.3022C55.0652 31.5477 54.3568 31.6705 53.568 31.6705ZM53.5499 26.364C54.0691 26.364 54.5078 26.2433 54.8659 26.0018C55.2282 25.7563 55.5018 25.4061 55.687 24.9513C55.8761 24.4925 55.9707 23.9432 55.9707 23.3033C55.9707 22.6795 55.8781 22.1301 55.693 21.6552C55.5079 21.1803 55.2362 20.81 54.878 20.5444C54.5198 20.2747 54.0771 20.1399 53.5499 20.1399C53.0066 20.1399 52.5538 20.2808 52.1916 20.5625C51.8294 20.8402 51.5557 21.2185 51.3706 21.6974C51.1895 22.1764 51.0989 22.7116 51.0989 23.3033C51.0989 23.911 51.1915 24.4442 51.3766 24.9031C51.5617 25.3619 51.8354 25.7201 52.1976 25.9776C52.5639 26.2352 53.0146 26.364 53.5499 26.364ZM64.1689 28.1871C63.2553 28.1871 62.4685 27.992 61.8084 27.6016C61.1524 27.2071 60.6453 26.6538 60.2871 25.9414C59.9329 25.225 59.7559 24.3859 59.7559 23.424C59.7559 22.4742 59.9329 21.6371 60.2871 20.9126C60.6453 20.1882 61.1444 19.6228 61.7843 19.2163C62.4282 18.8098 63.1808 18.6065 64.0421 18.6065C64.5653 18.6065 65.0724 18.6931 65.5634 18.8661C66.0544 19.0392 66.4951 19.3108 66.8855 19.6811C67.2759 20.0514 67.5837 20.5323 67.8091 21.1239C68.0345 21.7115 68.1472 22.4259 68.1472 23.267V23.907H60.7761V22.5547H66.3784C66.3784 22.0798 66.2818 21.6592 66.0886 21.293C65.8954 20.9227 65.6238 20.6309 65.2736 20.4176C64.9275 20.2043 64.521 20.0977 64.0542 20.0977C63.5471 20.0977 63.1043 20.2224 62.726 20.4719C62.3517 20.7174 62.062 21.0394 61.8567 21.4379C61.6555 21.8323 61.5549 22.2609 61.5549 22.7237V23.7802C61.5549 24.4 61.6635 24.9272 61.8809 25.3619C62.1022 25.7965 62.4101 26.1286 62.8045 26.358C63.1989 26.5833 63.6597 26.696 64.187 26.696C64.5291 26.696 64.841 26.6477 65.1227 26.5511C65.4044 26.4505 65.6479 26.3016 65.8532 26.1044C66.0584 25.9072 66.2154 25.6637 66.324 25.3739L68.0325 25.6818C67.8957 26.1849 67.6502 26.6256 67.296 27.0039C66.9458 27.3782 66.5051 27.67 65.9739 27.8793C65.4467 28.0845 64.845 28.1871 64.1689 28.1871Z" fill="#8C57FF"/>
</g>
<path d="M83 0.5C87.6944 0.5 91.5 4.30558 91.5 9V35C91.5 39.6944 87.6944 43.5 83 43.5H9C4.30558 43.5 0.5 39.6944 0.5 35V9L0.510742 8.5625C0.738436 4.07139 4.45231 0.5 9 0.5H83Z" stroke="#8C57FF"/>
<defs>
<clipPath id="clip0_8003_4016">
<path d="M1 9C1 4.58172 4.58172 1 9 1H83C87.4183 1 91 4.58172 91 9V35C91 39.4183 87.4183 43 83 43H9C4.58172 43 1 39.4183 1 35V9Z" fill="white"/>
</clipPath>
</defs>
</svg>
