<svg width="285" height="138" viewBox="0 0 285 138" fill="none" xmlns="http://www.w3.org/2000/svg">
<g filter="url(#filter0_d_8003_4532)">
<path d="M10 12C10 8.68629 12.6863 6 16 6H269C272.314 6 275 8.68629 275 12V118C275 121.314 272.314 124 269 124H16C12.6863 124 10 121.314 10 118V12Z" fill="white" shape-rendering="crispEdges"/>
<path d="M31.321 42V31.0909H35.0071C35.8629 31.0909 36.5625 31.2454 37.1058 31.5543C37.6527 31.8597 38.0575 32.2734 38.3203 32.7955C38.5831 33.3175 38.7145 33.8999 38.7145 34.5426C38.7145 35.1854 38.5831 35.7695 38.3203 36.2951C38.0611 36.8207 37.6598 37.2397 37.1165 37.5522C36.5732 37.8612 35.8771 38.0156 35.0284 38.0156H32.3864V36.8438H34.9858C35.5717 36.8438 36.0423 36.7425 36.3974 36.5401C36.7525 36.3377 37.0099 36.0643 37.1697 35.7198C37.3331 35.3718 37.4148 34.9794 37.4148 34.5426C37.4148 34.1058 37.3331 33.7152 37.1697 33.3707C37.0099 33.0263 36.7507 32.7564 36.392 32.5611C36.0334 32.3622 35.5575 32.2628 34.9645 32.2628H32.642V42H31.321ZM44.0146 42.1705C43.2262 42.1705 42.5462 41.9964 41.9744 41.6484C41.4062 41.2969 40.9677 40.8068 40.6587 40.1783C40.3533 39.5462 40.2006 38.8111 40.2006 37.973C40.2006 37.1349 40.3533 36.3963 40.6587 35.7571C40.9677 35.1143 41.3974 34.6136 41.9478 34.255C42.5018 33.8928 43.1481 33.7116 43.8867 33.7116C44.3129 33.7116 44.7337 33.7827 45.1491 33.9247C45.5646 34.0668 45.9428 34.2976 46.2837 34.6172C46.6246 34.9332 46.8963 35.3523 47.0987 35.8743C47.3011 36.3963 47.4023 37.0391 47.4023 37.8026V38.3352H41.0955V37.2486H46.1239C46.1239 36.7869 46.0316 36.375 45.8469 36.0128C45.6658 35.6506 45.4066 35.3647 45.0692 35.1552C44.7354 34.9457 44.3413 34.8409 43.8867 34.8409C43.386 34.8409 42.9528 34.9652 42.587 35.2138C42.2248 35.4588 41.946 35.7784 41.7507 36.1726C41.5554 36.5668 41.4577 36.9893 41.4577 37.4403V38.1648C41.4577 38.7827 41.5643 39.3065 41.7773 39.7362C41.994 40.1623 42.294 40.4872 42.6776 40.7109C43.0611 40.9311 43.5067 41.0412 44.0146 41.0412C44.3448 41.0412 44.6431 40.995 44.9094 40.9027C45.1793 40.8068 45.4119 40.6648 45.6072 40.4766C45.8026 40.2848 45.9535 40.0469 46.06 39.7628L47.2745 40.1037C47.1467 40.5156 46.9318 40.8778 46.63 41.1903C46.3281 41.4993 45.9553 41.7408 45.5114 41.9148C45.0675 42.0852 44.5685 42.1705 44.0146 42.1705ZM50.5717 37.0781V42H49.3146V33.8182H50.5291V35.0966H50.6357C50.8274 34.6811 51.1186 34.3473 51.5092 34.0952C51.8999 33.8395 52.4041 33.7116 53.022 33.7116C53.576 33.7116 54.0607 33.8253 54.4762 34.0526C54.8917 34.2763 55.2148 34.6172 55.4457 35.0753C55.6765 35.5298 55.7919 36.1051 55.7919 36.8011V42H54.5348V36.8864C54.5348 36.2436 54.3679 35.7429 54.0341 35.3842C53.7003 35.022 53.2422 34.8409 52.6598 34.8409C52.2585 34.8409 51.8999 34.9279 51.5838 35.1019C51.2713 35.2759 51.0245 35.5298 50.8434 35.8636C50.6623 36.1974 50.5717 36.6023 50.5717 37.0781ZM61.1785 42.1705C60.4967 42.1705 59.8948 41.9982 59.3728 41.6538C58.8508 41.3058 58.4424 40.8157 58.1476 40.1836C57.8529 39.5479 57.7055 38.7969 57.7055 37.9304C57.7055 37.071 57.8529 36.3253 58.1476 35.6932C58.4424 35.0611 58.8525 34.5728 59.3781 34.2283C59.9037 33.8839 60.5109 33.7116 61.1998 33.7116C61.7325 33.7116 62.1533 33.8004 62.4623 33.978C62.7748 34.152 63.0127 34.3509 63.176 34.5746C63.343 34.7947 63.4726 34.9759 63.5649 35.1179H63.6714V31.0909H64.9285V42H63.714V40.7429H63.5649C63.4726 40.892 63.3412 41.0803 63.1707 41.3075C63.0003 41.5312 62.757 41.7319 62.441 41.9094C62.1249 42.0835 61.7041 42.1705 61.1785 42.1705ZM61.349 41.0412C61.8532 41.0412 62.2794 40.9098 62.6274 40.647C62.9754 40.3807 63.24 40.0131 63.4211 39.5444C63.6022 39.0721 63.6927 38.527 63.6927 37.9091C63.6927 37.2983 63.604 36.7638 63.4264 36.3058C63.2488 35.8441 62.9861 35.4854 62.6381 35.2298C62.29 34.9705 61.8604 34.8409 61.349 34.8409C60.8163 34.8409 60.3724 34.9776 60.0173 35.2511C59.6657 35.521 59.4012 35.8885 59.2236 36.3537C59.0496 36.8153 58.9626 37.3338 58.9626 37.9091C58.9626 38.4915 59.0514 39.0206 59.229 39.4964C59.4101 39.9687 59.6764 40.3452 60.028 40.6257C60.3831 40.9027 60.8234 41.0412 61.349 41.0412ZM67.4055 42V33.8182H68.6626V42H67.4055ZM68.0447 32.4545C67.7996 32.4545 67.5883 32.3711 67.4108 32.2042C67.2368 32.0373 67.1498 31.8366 67.1498 31.6023C67.1498 31.3679 67.2368 31.1673 67.4108 31.0004C67.5883 30.8335 67.7996 30.75 68.0447 30.75C68.2897 30.75 68.4992 30.8335 68.6732 31.0004C68.8508 31.1673 68.9395 31.3679 68.9395 31.6023C68.9395 31.8366 68.8508 32.0373 68.6732 32.2042C68.4992 32.3711 68.2897 32.4545 68.0447 32.4545ZM72.2221 37.0781V42H70.965V33.8182H72.1795V35.0966H72.286C72.4778 34.6811 72.769 34.3473 73.1596 34.0952C73.5502 33.8395 74.0545 33.7116 74.6724 33.7116C75.2264 33.7116 75.7111 33.8253 76.1266 34.0526C76.5421 34.2763 76.8652 34.6172 77.0961 35.0753C77.3269 35.5298 77.4423 36.1051 77.4423 36.8011V42H76.1852V36.8864C76.1852 36.2436 76.0183 35.7429 75.6845 35.3842C75.3507 35.022 74.8926 34.8409 74.3102 34.8409C73.9089 34.8409 73.5502 34.9279 73.2342 35.1019C72.9217 35.2759 72.6749 35.5298 72.4938 35.8636C72.3127 36.1974 72.2221 36.6023 72.2221 37.0781ZM83.042 45.2386C82.4347 45.2386 81.9127 45.1605 81.4759 45.0043C81.0392 44.8516 80.6752 44.6491 80.384 44.397C80.0963 44.1484 79.8673 43.8821 79.6968 43.598L80.6982 42.8949C80.8119 43.044 80.9557 43.2145 81.1297 43.4062C81.3037 43.6016 81.5416 43.7702 81.8435 43.9123C82.1489 44.0579 82.5484 44.1307 83.042 44.1307C83.7025 44.1307 84.2476 43.9709 84.6773 43.6513C85.107 43.3317 85.3218 42.831 85.3218 42.1491V40.4872H85.2153C85.123 40.6364 84.9916 40.821 84.8211 41.0412C84.6542 41.2578 84.4127 41.4513 84.0967 41.6218C83.7842 41.7887 83.3616 41.8722 82.8289 41.8722C82.1684 41.8722 81.5754 41.7159 81.0498 41.4034C80.5278 41.0909 80.1141 40.6364 79.8087 40.0398C79.5068 39.4432 79.3559 38.7187 79.3559 37.8665C79.3559 37.0284 79.5033 36.2987 79.798 35.6772C80.0928 35.0522 80.5029 34.5692 81.0285 34.2283C81.5541 33.8839 82.1613 33.7116 82.8502 33.7116C83.3829 33.7116 83.8055 33.8004 84.118 33.978C84.434 34.152 84.6755 34.3509 84.8424 34.5746C85.0129 34.7947 85.1443 34.9759 85.2366 35.1179H85.3644V33.8182H86.5789V42.2344C86.5789 42.9375 86.4191 43.5092 86.0995 43.9496C85.7835 44.3935 85.3573 44.7184 84.8211 44.9244C84.2884 45.1339 83.6954 45.2386 83.042 45.2386ZM82.9994 40.7429C83.5036 40.7429 83.9298 40.6275 84.2778 40.3967C84.6258 40.1658 84.8904 39.8338 85.0715 39.4006C85.2526 38.9673 85.3431 38.4489 85.3431 37.8452C85.3431 37.2557 85.2544 36.7354 85.0768 36.2844C84.8992 35.8335 84.6365 35.4801 84.2884 35.2244C83.9404 34.9687 83.5107 34.8409 82.9994 34.8409C82.4667 34.8409 82.0228 34.9759 81.6677 35.2457C81.3161 35.5156 81.0516 35.8778 80.874 36.3324C80.7 36.7869 80.613 37.2912 80.613 37.8452C80.613 38.4134 80.7018 38.9158 80.8794 39.3526C81.0605 39.7859 81.3268 40.1268 81.6784 40.3754C82.0335 40.6204 82.4738 40.7429 82.9994 40.7429ZM100.428 31.0909H101.749V38.3139C101.749 39.0597 101.574 39.7255 101.222 40.3114C100.874 40.8938 100.382 41.3537 99.7465 41.6911C99.1109 42.0249 98.3651 42.1918 97.5093 42.1918C96.6535 42.1918 95.9078 42.0249 95.2721 41.6911C94.6365 41.3537 94.1428 40.8938 93.7913 40.3114C93.4433 39.7255 93.2693 39.0597 93.2693 38.3139V31.0909H94.5903V38.2074C94.5903 38.7401 94.7075 39.2141 94.9419 39.6296C95.1762 40.0415 95.51 40.3665 95.9433 40.6044C96.3801 40.8388 96.9021 40.956 97.5093 40.956C98.1166 40.956 98.6386 40.8388 99.0754 40.6044C99.5122 40.3665 99.846 40.0415 100.077 39.6296C100.311 39.2141 100.428 38.7401 100.428 38.2074V31.0909ZM110.012 35.6506L108.883 35.9702C108.812 35.782 108.707 35.5991 108.569 35.4215C108.434 35.2404 108.249 35.0913 108.015 34.9741C107.781 34.8569 107.48 34.7983 107.115 34.7983C106.614 34.7983 106.197 34.9137 105.863 35.1445C105.533 35.3718 105.368 35.6612 105.368 36.0128C105.368 36.3253 105.481 36.5721 105.708 36.7532C105.936 36.9343 106.291 37.0852 106.774 37.206L107.988 37.5043C108.72 37.6818 109.265 37.9535 109.624 38.3192C109.982 38.6815 110.162 39.1484 110.162 39.7202C110.162 40.1889 110.027 40.608 109.757 40.9773C109.49 41.3466 109.118 41.6378 108.638 41.8509C108.159 42.0639 107.601 42.1705 106.966 42.1705C106.131 42.1705 105.44 41.9893 104.893 41.6271C104.347 41.2649 104 40.7358 103.855 40.0398L105.048 39.7415C105.162 40.1818 105.376 40.5121 105.692 40.7322C106.012 40.9524 106.429 41.0625 106.944 41.0625C107.53 41.0625 107.995 40.9382 108.34 40.6896C108.688 40.4375 108.862 40.1357 108.862 39.7841C108.862 39.5 108.762 39.2621 108.564 39.0703C108.365 38.875 108.059 38.7294 107.647 38.6335L106.284 38.3139C105.534 38.1364 104.984 37.8612 104.632 37.4883C104.284 37.1119 104.11 36.6413 104.11 36.0767C104.11 35.6151 104.24 35.2067 104.499 34.8516C104.762 34.4964 105.119 34.2177 105.57 34.0153C106.025 33.8129 106.539 33.7116 107.115 33.7116C107.924 33.7116 108.56 33.8892 109.022 34.2443C109.487 34.5994 109.817 35.0682 110.012 35.6506ZM115.484 42.1705C114.696 42.1705 114.016 41.9964 113.444 41.6484C112.876 41.2969 112.437 40.8068 112.128 40.1783C111.823 39.5462 111.67 38.8111 111.67 37.973C111.67 37.1349 111.823 36.3963 112.128 35.7571C112.437 35.1143 112.867 34.6136 113.418 34.255C113.972 33.8928 114.618 33.7116 115.356 33.7116C115.783 33.7116 116.203 33.7827 116.619 33.9247C117.034 34.0668 117.413 34.2976 117.753 34.6172C118.094 34.9332 118.366 35.3523 118.568 35.8743C118.771 36.3963 118.872 37.0391 118.872 37.8026V38.3352H112.565V37.2486H117.594C117.594 36.7869 117.501 36.375 117.317 36.0128C117.136 35.6506 116.876 35.3647 116.539 35.1552C116.205 34.9457 115.811 34.8409 115.356 34.8409C114.856 34.8409 114.422 34.9652 114.057 35.2138C113.695 35.4588 113.416 35.7784 113.22 36.1726C113.025 36.5668 112.927 36.9893 112.927 37.4403V38.1648C112.927 38.7827 113.034 39.3065 113.247 39.7362C113.464 40.1623 113.764 40.4872 114.147 40.7109C114.531 40.9311 114.976 41.0412 115.484 41.0412C115.815 41.0412 116.113 40.995 116.379 40.9027C116.649 40.8068 116.882 40.6648 117.077 40.4766C117.272 40.2848 117.423 40.0469 117.53 39.7628L118.744 40.1037C118.616 40.5156 118.402 40.8778 118.1 41.1903C117.798 41.4993 117.425 41.7408 116.981 41.9148C116.537 42.0852 116.038 42.1705 115.484 42.1705ZM120.784 42V33.8182H121.999V35.054H122.084C122.233 34.6491 122.503 34.3207 122.894 34.0685C123.284 33.8164 123.725 33.6903 124.215 33.6903C124.307 33.6903 124.422 33.6921 124.561 33.6957C124.699 33.6992 124.804 33.7045 124.875 33.7116V34.9901C124.833 34.9794 124.735 34.9634 124.582 34.9421C124.433 34.9173 124.275 34.9048 124.108 34.9048C123.71 34.9048 123.355 34.9883 123.043 35.1552C122.734 35.3185 122.489 35.5458 122.308 35.837C122.13 36.1246 122.041 36.4531 122.041 36.8224V42H120.784ZM132.161 35.6506L131.032 35.9702C130.961 35.782 130.856 35.5991 130.717 35.4215C130.582 35.2404 130.398 35.0913 130.163 34.9741C129.929 34.8569 129.629 34.7983 129.263 34.7983C128.762 34.7983 128.345 34.9137 128.011 35.1445C127.681 35.3718 127.516 35.6612 127.516 36.0128C127.516 36.3253 127.63 36.5721 127.857 36.7532C128.084 36.9343 128.439 37.0852 128.922 37.206L130.137 37.5043C130.868 37.6818 131.413 37.9535 131.772 38.3192C132.131 38.6815 132.31 39.1484 132.31 39.7202C132.31 40.1889 132.175 40.608 131.905 40.9773C131.639 41.3466 131.266 41.6378 130.787 41.8509C130.307 42.0639 129.75 42.1705 129.114 42.1705C128.279 42.1705 127.589 41.9893 127.042 41.6271C126.495 41.2649 126.149 40.7358 126.003 40.0398L127.196 39.7415C127.31 40.1818 127.525 40.5121 127.841 40.7322C128.161 40.9524 128.578 41.0625 129.093 41.0625C129.679 41.0625 130.144 40.9382 130.488 40.6896C130.836 40.4375 131.01 40.1357 131.01 39.7841C131.01 39.5 130.911 39.2621 130.712 39.0703C130.513 38.875 130.208 38.7294 129.796 38.6335L128.432 38.3139C127.683 38.1364 127.132 37.8612 126.781 37.4883C126.433 37.1119 126.259 36.6413 126.259 36.0767C126.259 35.6151 126.388 35.2067 126.648 34.8516C126.911 34.4964 127.267 34.2177 127.718 34.0153C128.173 33.8129 128.688 33.7116 129.263 33.7116C130.073 33.7116 130.708 33.8892 131.17 34.2443C131.635 34.5994 131.966 35.0682 132.161 35.6506Z" fill="#2E263D" fill-opacity="0.9"/>
<path d="M31.2592 73V71.5682L35.6889 66.9787C36.1619 66.4801 36.5518 66.0433 36.8587 65.6683C37.1697 65.2891 37.402 64.929 37.5554 64.5881C37.7088 64.2472 37.7855 63.8849 37.7855 63.5014C37.7855 63.0668 37.6832 62.6918 37.4787 62.3764C37.2741 62.0568 36.995 61.8118 36.6413 61.6413C36.2876 61.4666 35.8892 61.3793 35.446 61.3793C34.9773 61.3793 34.5682 61.4751 34.2188 61.6669C33.8693 61.8587 33.6009 62.1293 33.4134 62.4787C33.2259 62.8281 33.1321 63.2372 33.1321 63.706H31.2464C31.2464 62.9091 31.4297 62.2124 31.7962 61.6158C32.1626 61.0192 32.6655 60.5568 33.3047 60.2287C33.9439 59.8963 34.6705 59.7301 35.4844 59.7301C36.3068 59.7301 37.0313 59.8942 37.6577 60.2223C38.2884 60.5462 38.7805 60.9893 39.1342 61.5518C39.4879 62.1101 39.6648 62.7408 39.6648 63.4439C39.6648 63.9297 39.5732 64.4048 39.3899 64.8693C39.2109 65.3338 38.8977 65.8516 38.4503 66.4226C38.0028 66.9893 37.3807 67.6776 36.5838 68.4872L33.9822 71.2102V71.3061H39.8757V73H31.2592ZM46.8558 73.179C45.978 73.179 45.1939 73.0277 44.5036 72.7251C43.8175 72.4226 43.2741 72.0028 42.8736 71.4659C42.4773 70.9247 42.2642 70.2983 42.2344 69.5866H44.2415C44.267 69.9744 44.397 70.3111 44.6314 70.5966C44.87 70.8778 45.1811 71.0952 45.5646 71.2486C45.9482 71.402 46.3743 71.4787 46.843 71.4787C47.3587 71.4787 47.8146 71.3892 48.2109 71.2102C48.6115 71.0312 48.9247 70.782 49.1506 70.4624C49.3764 70.1385 49.4893 69.7656 49.4893 69.3438C49.4893 68.9048 49.3764 68.5192 49.1506 68.1868C48.929 67.8501 48.603 67.5859 48.1726 67.3942C47.7464 67.2024 47.2308 67.1065 46.6257 67.1065H45.5199V65.4957H46.6257C47.1115 65.4957 47.5376 65.4084 47.9041 65.2337C48.2749 65.0589 48.5646 64.8161 48.7734 64.505C48.9822 64.1896 49.0866 63.821 49.0866 63.3991C49.0866 62.9943 48.995 62.6428 48.8118 62.3445C48.6328 62.0419 48.3771 61.8054 48.0447 61.6349C47.7166 61.4645 47.3288 61.3793 46.8814 61.3793C46.4553 61.3793 46.0568 61.4581 45.6861 61.6158C45.3196 61.7692 45.0213 61.9908 44.7912 62.2805C44.5611 62.5661 44.4375 62.9091 44.4205 63.3097H42.5092C42.5305 62.6023 42.7393 61.9801 43.1357 61.4432C43.5362 60.9062 44.0646 60.4865 44.7209 60.1839C45.3771 59.8814 46.1058 59.7301 46.907 59.7301C47.7464 59.7301 48.4709 59.8942 49.0803 60.2223C49.6939 60.5462 50.1669 60.9787 50.4993 61.5199C50.8359 62.0611 51.0021 62.6534 50.9979 63.2969C51.0021 64.0298 50.7976 64.652 50.3842 65.1634C49.9751 65.6747 49.4297 66.0178 48.7479 66.1925V66.2947C49.6172 66.4268 50.2905 66.772 50.7678 67.3303C51.2493 67.8885 51.4879 68.581 51.4837 69.4077C51.4879 70.1278 51.2876 70.7734 50.8828 71.3445C50.4822 71.9155 49.9347 72.3651 49.2401 72.6932C48.5455 73.017 47.7507 73.179 46.8558 73.179ZM54.3409 73L60.0554 61.6989V61.603H53.446V59.9091H62.1009V61.6605L56.4055 73H54.3409Z" fill="#2E263D" fill-opacity="0.9"/>
<path d="M73.598 65.5455C73.598 64.2031 73.772 62.9691 74.12 61.8434C74.4716 60.7141 74.9723 59.6754 75.6222 58.7273H76.7301C76.4744 59.0788 76.2347 59.5121 76.011 60.027C75.7908 60.5384 75.5973 61.1012 75.4304 61.7156C75.2635 62.3263 75.1321 62.9585 75.0362 63.6119C74.9439 64.2653 74.8977 64.9098 74.8977 65.5455C74.8977 66.3906 74.9794 67.2482 75.1428 68.1183C75.3061 68.9883 75.5263 69.7962 75.8033 70.5419C76.0803 71.2876 76.3892 71.8949 76.7301 72.3636H75.6222C74.9723 71.4155 74.4716 70.3786 74.12 69.2528C73.772 68.1236 73.598 66.8878 73.598 65.5455ZM81.7812 69.0824V62.0511H82.9743V69.0824H81.7812ZM78.8621 66.1634V64.9702H85.8934V66.1634H78.8621ZM88.1958 68.7628V67.6761L92.9899 60.0909H93.7782V61.7741H93.2456L89.6234 67.5057V67.5909H96.0794V68.7628H88.1958ZM93.3308 71V68.4325V67.9265V60.0909H94.5879V71H93.3308ZM98.0756 71V70.0412L101.676 66.0994C102.099 65.6378 102.447 65.2365 102.72 64.8956C102.994 64.5511 103.196 64.228 103.328 63.9261C103.463 63.6207 103.53 63.3011 103.53 62.9673C103.53 62.5838 103.438 62.2518 103.253 61.9712C103.072 61.6907 102.823 61.4741 102.507 61.3214C102.191 61.1687 101.836 61.0923 101.442 61.0923C101.023 61.0923 100.657 61.1793 100.345 61.3533C100.036 61.5238 99.7961 61.7635 99.6256 62.0724C99.4587 62.3814 99.3753 62.7436 99.3753 63.1591H98.1182C98.1182 62.5199 98.2655 61.9588 98.5603 61.4759C98.855 60.9929 99.2563 60.6165 99.7641 60.3466C100.275 60.0767 100.849 59.9418 101.485 59.9418C102.124 59.9418 102.69 60.0767 103.184 60.3466C103.677 60.6165 104.065 60.9805 104.345 61.4386C104.626 61.8967 104.766 62.4062 104.766 62.9673C104.766 63.3686 104.693 63.761 104.547 64.1445C104.405 64.5245 104.157 64.9489 103.802 65.4176C103.45 65.8828 102.962 66.451 102.337 67.1222L99.8866 69.7429V69.8281H104.958V71H98.0756ZM112.719 68.9545V68.3793C112.719 67.9815 112.8 67.6175 112.964 67.2873C113.131 66.9535 113.372 66.6871 113.688 66.4883C114.008 66.2859 114.395 66.1847 114.849 66.1847C115.311 66.1847 115.698 66.2859 116.011 66.4883C116.323 66.6871 116.559 66.9535 116.719 67.2873C116.879 67.6175 116.959 67.9815 116.959 68.3793V68.9545C116.959 69.3523 116.877 69.718 116.714 70.0518C116.554 70.3821 116.316 70.6484 116 70.8509C115.687 71.0497 115.304 71.1491 114.849 71.1491C114.388 71.1491 113.999 71.0497 113.683 70.8509C113.367 70.6484 113.127 70.3821 112.964 70.0518C112.8 69.718 112.719 69.3523 112.719 68.9545ZM113.805 68.3793V68.9545C113.805 69.2848 113.883 69.5813 114.04 69.8441C114.196 70.1033 114.466 70.233 114.849 70.233C115.222 70.233 115.485 70.1033 115.638 69.8441C115.794 69.5813 115.872 69.2848 115.872 68.9545V68.3793C115.872 68.049 115.797 67.7543 115.648 67.495C115.499 67.2322 115.233 67.1009 114.849 67.1009C114.476 67.1009 114.208 67.2322 114.045 67.495C113.885 67.7543 113.805 68.049 113.805 68.3793ZM107.285 62.7116V62.1364C107.285 61.7386 107.367 61.3746 107.53 61.0444C107.697 60.7106 107.939 60.4442 108.255 60.2454C108.574 60.043 108.962 59.9418 109.416 59.9418C109.878 59.9418 110.265 60.043 110.577 60.2454C110.89 60.4442 111.126 60.7106 111.286 61.0444C111.446 61.3746 111.525 61.7386 111.525 62.1364V62.7116C111.525 63.1094 111.444 63.4751 111.28 63.8089C111.121 64.1392 110.883 64.4055 110.567 64.608C110.254 64.8068 109.871 64.9062 109.416 64.9062C108.954 64.9062 108.566 64.8068 108.25 64.608C107.934 64.4055 107.694 64.1392 107.53 63.8089C107.367 63.4751 107.285 63.1094 107.285 62.7116ZM108.372 62.1364V62.7116C108.372 63.0419 108.45 63.3384 108.606 63.6012C108.763 63.8604 109.033 63.9901 109.416 63.9901C109.789 63.9901 110.052 63.8604 110.204 63.6012C110.361 63.3384 110.439 63.0419 110.439 62.7116V62.1364C110.439 61.8061 110.364 61.5114 110.215 61.2521C110.066 60.9893 109.8 60.858 109.416 60.858C109.043 60.858 108.775 60.9893 108.612 61.2521C108.452 61.5114 108.372 61.8061 108.372 62.1364ZM107.69 71L115.19 60.0909H116.405L108.905 71H107.69ZM122.051 65.5455C122.051 66.8878 121.875 68.1236 121.524 69.2528C121.176 70.3786 120.677 71.4155 120.027 72.3636H118.919C119.175 72.0121 119.413 71.5788 119.633 71.0639C119.856 70.5526 120.052 69.9915 120.219 69.3807C120.386 68.7663 120.515 68.1325 120.608 67.479C120.703 66.8221 120.751 66.1776 120.751 65.5455C120.751 64.7003 120.67 63.8427 120.506 62.9727C120.343 62.1026 120.123 61.2947 119.846 60.549C119.569 59.8033 119.26 59.196 118.919 58.7273H120.027C120.677 59.6754 121.176 60.7141 121.524 61.8434C121.875 62.9691 122.051 64.2031 122.051 65.5455Z" fill="#56CA00"/>
<path d="M31.1449 99V89.5455H32.2898V97.9844H36.6847V99H31.1449ZM40.3963 99.1662C39.947 99.1662 39.5392 99.0816 39.1729 98.9123C38.8067 98.7399 38.5159 98.4922 38.3004 98.169C38.085 97.8428 37.9773 97.4489 37.9773 96.9872C37.9773 96.581 38.0573 96.2517 38.2173 95.9993C38.3774 95.7438 38.5913 95.5438 38.859 95.3991C39.1268 95.2545 39.4222 95.1468 39.7454 95.076C40.0716 95.0021 40.3994 94.9437 40.7287 94.9006C41.1596 94.8452 41.5089 94.8036 41.7766 94.7759C42.0475 94.7451 42.2444 94.6944 42.3675 94.6236C42.4937 94.5528 42.5568 94.4297 42.5568 94.2543V94.2173C42.5568 93.7618 42.4322 93.4079 42.1829 93.1555C41.9367 92.9032 41.5627 92.777 41.0611 92.777C40.541 92.777 40.1332 92.8909 39.8377 93.1186C39.5423 93.3464 39.3345 93.5895 39.2145 93.848L38.1804 93.4787C38.3651 93.0478 38.6113 92.7124 38.919 92.4723C39.2299 92.2292 39.5684 92.0599 39.9347 91.9645C40.304 91.866 40.6671 91.8168 41.0241 91.8168C41.2519 91.8168 41.5135 91.8445 41.8089 91.8999C42.1075 91.9522 42.3952 92.0614 42.6722 92.2276C42.9523 92.3938 43.1847 92.6446 43.3693 92.9801C43.554 93.3156 43.6463 93.7649 43.6463 94.3281V99H42.5568V98.0398H42.5014C42.4276 98.1937 42.3045 98.3583 42.1321 98.5337C41.9598 98.7092 41.7305 98.8584 41.4442 98.9815C41.158 99.1046 40.8087 99.1662 40.3963 99.1662ZM40.5625 98.1875C40.9934 98.1875 41.3565 98.1029 41.652 97.9336C41.9505 97.7643 42.1752 97.5458 42.326 97.2781C42.4799 97.0103 42.5568 96.7287 42.5568 96.4332V95.4361C42.5107 95.4915 42.4091 95.5423 42.2521 95.5884C42.0982 95.6315 41.9197 95.67 41.7166 95.7038C41.5166 95.7346 41.3211 95.7623 41.1303 95.7869C40.9426 95.8085 40.7902 95.8269 40.6733 95.8423C40.3902 95.8793 40.1255 95.9393 39.8793 96.0224C39.6361 96.1024 39.4392 96.224 39.2884 96.3871C39.1406 96.5471 39.0668 96.7656 39.0668 97.0426C39.0668 97.4212 39.2068 97.7074 39.4869 97.9013C39.77 98.0921 40.1286 98.1875 40.5625 98.1875ZM50.6576 93.4972L49.6789 93.7741C49.6173 93.611 49.5265 93.4525 49.4065 93.2987C49.2896 93.1417 49.1295 93.0124 48.9264 92.9109C48.7233 92.8093 48.4632 92.7585 48.1462 92.7585C47.7123 92.7585 47.3506 92.8585 47.0613 93.0586C46.7751 93.2556 46.632 93.5064 46.632 93.8111C46.632 94.0819 46.7305 94.2958 46.9275 94.4528C47.1244 94.6097 47.4322 94.7405 47.8508 94.8452L48.9033 95.1037C49.5373 95.2576 50.0097 95.493 50.3206 95.81C50.6314 96.1239 50.7868 96.5286 50.7868 97.0241C50.7868 97.4304 50.6699 97.7936 50.436 98.1136C50.2052 98.4337 49.882 98.6861 49.4665 98.8707C49.051 99.0554 48.5679 99.1477 48.017 99.1477C47.2937 99.1477 46.6951 98.9908 46.2211 98.6768C45.7472 98.3629 45.4471 97.9044 45.3209 97.3011L46.355 97.0426C46.4535 97.4242 46.6397 97.7105 46.9136 97.9013C47.1906 98.0921 47.5522 98.1875 47.9985 98.1875C48.5063 98.1875 48.9095 98.0798 49.208 97.8643C49.5096 97.6458 49.6604 97.3842 49.6604 97.0795C49.6604 96.8333 49.5742 96.6271 49.4019 96.4609C49.2296 96.2917 48.9649 96.1655 48.6079 96.0824L47.426 95.8054C46.7767 95.6515 46.2996 95.413 45.9949 95.0898C45.6933 94.7636 45.5425 94.3558 45.5425 93.8665C45.5425 93.4664 45.6549 93.1125 45.8795 92.8047C46.1073 92.4969 46.4166 92.2553 46.8074 92.0799C47.2014 91.9045 47.6476 91.8168 48.1462 91.8168C48.8479 91.8168 49.3988 91.9706 49.7989 92.2784C50.2021 92.5862 50.4883 92.9924 50.6576 93.4972ZM55.5107 91.9091V92.8324H51.8359V91.9091H55.5107ZM52.907 90.2102H53.9964V96.9688C53.9964 97.2765 54.0411 97.5073 54.1303 97.6612C54.2227 97.812 54.3396 97.9136 54.4812 97.9659C54.6258 98.0152 54.7782 98.0398 54.9382 98.0398C55.0582 98.0398 55.1567 98.0336 55.2337 98.0213C55.3106 98.0059 55.3722 97.9936 55.4183 97.9844L55.6399 98.9631C55.5661 98.9908 55.4629 99.0185 55.3306 99.0462C55.1983 99.0769 55.0305 99.0923 54.8274 99.0923C54.5196 99.0923 54.218 99.0262 53.9226 98.8938C53.6302 98.7615 53.3871 98.5599 53.1932 98.2891C53.0024 98.0182 52.907 97.6766 52.907 97.2642V90.2102ZM62.4123 99L60.2518 91.9091H61.3967L62.9293 97.3381H63.0032L64.5174 91.9091H65.6808L67.1765 97.3196H67.2504L68.783 91.9091H69.9279L67.7674 99H66.6964L65.1452 93.5526H65.0344L63.4833 99H62.4123ZM74.1001 99.1477C73.4168 99.1477 72.8274 98.9969 72.3319 98.6953C71.8395 98.3906 71.4594 97.9659 71.1917 97.4212C70.927 96.8733 70.7947 96.2363 70.7947 95.5099C70.7947 94.7836 70.927 94.1435 71.1917 93.5895C71.4594 93.0324 71.8318 92.5985 72.3089 92.2876C72.789 91.9737 73.3491 91.8168 73.9893 91.8168C74.3586 91.8168 74.7233 91.8783 75.0834 92.0014C75.4434 92.1245 75.7712 92.3246 76.0667 92.6016C76.3621 92.8755 76.5976 93.2386 76.773 93.6911C76.9484 94.1435 77.0361 94.7005 77.0361 95.3622V95.8239H71.5702V94.8821H75.9282C75.9282 94.482 75.8482 94.125 75.6881 93.8111C75.5312 93.4972 75.3065 93.2494 75.0141 93.0678C74.7248 92.8862 74.3832 92.7955 73.9893 92.7955C73.5553 92.7955 73.1798 92.9032 72.8628 93.1186C72.5489 93.331 72.3073 93.608 72.1381 93.9496C71.9688 94.2912 71.8841 94.6574 71.8841 95.0483V95.6761C71.8841 96.2116 71.9765 96.6656 72.1611 97.038C72.3489 97.4073 72.6089 97.6889 72.9413 97.8828C73.2737 98.0736 73.6599 98.169 74.1001 98.169C74.3863 98.169 74.6448 98.129 74.8756 98.049C75.1095 97.9659 75.3111 97.8428 75.4804 97.6797C75.6497 97.5135 75.7805 97.3073 75.8728 97.0611L76.9253 97.3565C76.8145 97.7135 76.6283 98.0275 76.3667 98.2983C76.1051 98.5661 75.782 98.7753 75.3973 98.9261C75.0126 99.0739 74.5802 99.1477 74.1001 99.1477ZM81.6665 99.1477C80.9832 99.1477 80.3939 98.9969 79.8983 98.6953C79.4059 98.3906 79.0258 97.9659 78.7581 97.4212C78.4934 96.8733 78.3611 96.2363 78.3611 95.5099C78.3611 94.7836 78.4934 94.1435 78.7581 93.5895C79.0258 93.0324 79.3982 92.5985 79.8753 92.2876C80.3554 91.9737 80.9155 91.8168 81.5557 91.8168C81.925 91.8168 82.2897 91.8783 82.6498 92.0014C83.0099 92.1245 83.3376 92.3246 83.6331 92.6016C83.9285 92.8755 84.164 93.2386 84.3394 93.6911C84.5148 94.1435 84.6025 94.7005 84.6025 95.3622V95.8239H79.1366V94.8821H83.4946C83.4946 94.482 83.4146 94.125 83.2545 93.8111C83.0976 93.4972 82.8729 93.2494 82.5805 93.0678C82.2912 92.8862 81.9496 92.7955 81.5557 92.7955C81.1217 92.7955 80.7462 92.9032 80.4292 93.1186C80.1153 93.331 79.8737 93.608 79.7045 93.9496C79.5352 94.2912 79.4506 94.6574 79.4506 95.0483V95.6761C79.4506 96.2116 79.5429 96.6656 79.7275 97.038C79.9153 97.4073 80.1753 97.6889 80.5077 97.8828C80.8401 98.0736 81.2264 98.169 81.6665 98.169C81.9527 98.169 82.2112 98.129 82.442 98.049C82.6759 97.9659 82.8775 97.8428 83.0468 97.6797C83.2161 97.5135 83.3469 97.3073 83.4392 97.0611L84.4917 97.3565C84.3809 97.7135 84.1948 98.0275 83.9331 98.2983C83.6715 98.5661 83.3484 98.7753 82.9637 98.9261C82.579 99.0739 82.1466 99.1477 81.6665 99.1477ZM87.2755 96.4148L87.257 95.0668H87.4786L90.5809 91.9091H91.9289L88.6235 95.2514H88.5312L87.2755 96.4148ZM86.2599 99V89.5455H87.3493V99H86.2599ZM90.7655 99L87.9956 95.4915L88.7712 94.7344L92.1505 99H90.7655ZM99.074 99.1662C98.6247 99.1662 98.2169 99.0816 97.8507 98.9123C97.4844 98.7399 97.1936 98.4922 96.9782 98.169C96.7627 97.8428 96.655 97.4489 96.655 96.9872C96.655 96.581 96.735 96.2517 96.8951 95.9993C97.0551 95.7438 97.269 95.5438 97.5368 95.3991C97.8045 95.2545 98.1 95.1468 98.4231 95.076C98.7493 95.0021 99.0771 94.9437 99.4064 94.9006C99.8373 94.8452 100.187 94.8036 100.454 94.7759C100.725 94.7451 100.922 94.6944 101.045 94.6236C101.171 94.5528 101.235 94.4297 101.235 94.2543V94.2173C101.235 93.7618 101.11 93.4079 100.861 93.1555C100.614 92.9032 100.24 92.777 99.7388 92.777C99.2187 92.777 98.8109 92.8909 98.5154 93.1186C98.22 93.3464 98.0123 93.5895 97.8922 93.848L96.8581 93.4787C97.0428 93.0478 97.289 92.7124 97.5968 92.4723C97.9076 92.2292 98.2462 92.0599 98.6124 91.9645C98.9817 91.866 99.3449 91.8168 99.7019 91.8168C99.9296 91.8168 100.191 91.8445 100.487 91.8999C100.785 91.9522 101.073 92.0614 101.35 92.2276C101.63 92.3938 101.862 92.6446 102.047 92.9801C102.232 93.3156 102.324 93.7649 102.324 94.3281V99H101.235V98.0398H101.179C101.105 98.1937 100.982 98.3583 100.81 98.5337C100.637 98.7092 100.408 98.8584 100.122 98.9815C99.8358 99.1046 99.4864 99.1662 99.074 99.1662ZM99.2402 98.1875C99.6711 98.1875 100.034 98.1029 100.33 97.9336C100.628 97.7643 100.853 97.5458 101.004 97.2781C101.158 97.0103 101.235 96.7287 101.235 96.4332V95.4361C101.188 95.4915 101.087 95.5423 100.93 95.5884C100.776 95.6315 100.597 95.67 100.394 95.7038C100.194 95.7346 99.9989 95.7623 99.8081 95.7869C99.6203 95.8085 99.468 95.8269 99.351 95.8423C99.0679 95.8793 98.8032 95.9393 98.557 96.0224C98.3139 96.1024 98.1169 96.224 97.9661 96.3871C97.8184 96.5471 97.7445 96.7656 97.7445 97.0426C97.7445 97.4212 97.8845 97.7074 98.1646 97.9013C98.4477 98.0921 98.8063 98.1875 99.2402 98.1875ZM105.402 94.7344V99H104.313V91.9091H105.365V93.017H105.457C105.624 92.657 105.876 92.3677 106.215 92.1491C106.553 91.9276 106.99 91.8168 107.526 91.8168C108.006 91.8168 108.426 91.9152 108.786 92.1122C109.146 92.3061 109.426 92.6016 109.626 92.9986C109.826 93.3925 109.926 93.8911 109.926 94.4943V99H108.837V94.5682C108.837 94.0111 108.692 93.5772 108.403 93.2663C108.113 92.9524 107.716 92.7955 107.212 92.7955C106.864 92.7955 106.553 92.8709 106.279 93.0217C106.008 93.1725 105.794 93.3925 105.638 93.6818C105.481 93.9711 105.402 94.322 105.402 94.7344ZM114.004 99.1662C113.554 99.1662 113.147 99.0816 112.78 98.9123C112.414 98.7399 112.123 98.4922 111.908 98.169C111.692 97.8428 111.585 97.4489 111.585 96.9872C111.585 96.581 111.665 96.2517 111.825 95.9993C111.985 95.7438 112.199 95.5438 112.466 95.3991C112.734 95.2545 113.03 95.1468 113.353 95.076C113.679 95.0021 114.007 94.9437 114.336 94.9006C114.767 94.8452 115.116 94.8036 115.384 94.7759C115.655 94.7451 115.852 94.6944 115.975 94.6236C116.101 94.5528 116.164 94.4297 116.164 94.2543V94.2173C116.164 93.7618 116.04 93.4079 115.79 93.1555C115.544 92.9032 115.17 92.777 114.669 92.777C114.148 92.777 113.741 92.8909 113.445 93.1186C113.15 93.3464 112.942 93.5895 112.822 93.848L111.788 93.4787C111.972 93.0478 112.219 92.7124 112.526 92.4723C112.837 92.2292 113.176 92.0599 113.542 91.9645C113.911 91.866 114.275 91.8168 114.632 91.8168C114.859 91.8168 115.121 91.8445 115.416 91.8999C115.715 91.9522 116.003 92.0614 116.28 92.2276C116.56 92.3938 116.792 92.6446 116.977 92.9801C117.161 93.3156 117.254 93.7649 117.254 94.3281V99H116.164V98.0398H116.109C116.035 98.1937 115.912 98.3583 115.74 98.5337C115.567 98.7092 115.338 98.8584 115.052 98.9815C114.765 99.1046 114.416 99.1662 114.004 99.1662ZM114.17 98.1875C114.601 98.1875 114.964 98.1029 115.259 97.9336C115.558 97.7643 115.783 97.5458 115.933 97.2781C116.087 97.0103 116.164 96.7287 116.164 96.4332V95.4361C116.118 95.4915 116.017 95.5423 115.86 95.5884C115.706 95.6315 115.527 95.67 115.324 95.7038C115.124 95.7346 114.929 95.7623 114.738 95.7869C114.55 95.8085 114.398 95.8269 114.281 95.8423C113.998 95.8793 113.733 95.9393 113.487 96.0224C113.244 96.1024 113.047 96.224 112.896 96.3871C112.748 96.5471 112.674 96.7656 112.674 97.0426C112.674 97.4212 112.814 97.7074 113.094 97.9013C113.377 98.0921 113.736 98.1875 114.17 98.1875ZM120.332 89.5455V99H119.242V89.5455H120.332ZM123.029 101.659C122.844 101.659 122.68 101.644 122.535 101.613C122.39 101.585 122.29 101.558 122.235 101.53L122.512 100.57C122.777 100.637 123.01 100.662 123.214 100.643C123.417 100.625 123.597 100.534 123.754 100.371C123.914 100.211 124.06 99.951 124.192 99.5909L124.395 99.0369L121.773 91.9091H122.955L124.912 97.5597H124.986L126.944 91.9091H128.126L125.116 100.034C124.98 100.4 124.812 100.703 124.612 100.944C124.412 101.187 124.18 101.367 123.915 101.484C123.654 101.601 123.358 101.659 123.029 101.659ZM132.647 91.9091V92.8324H128.973V91.9091H132.647ZM130.044 90.2102H131.133V96.9688C131.133 97.2765 131.178 97.5073 131.267 97.6612C131.359 97.812 131.476 97.9136 131.618 97.9659C131.763 98.0152 131.915 98.0398 132.075 98.0398C132.195 98.0398 132.293 98.0336 132.37 98.0213C132.447 98.0059 132.509 97.9936 132.555 97.9844L132.777 98.9631C132.703 98.9908 132.6 99.0185 132.467 99.0462C132.335 99.0769 132.167 99.0923 131.964 99.0923C131.656 99.0923 131.355 99.0262 131.059 98.8938C130.767 98.7615 130.524 98.5599 130.33 98.2891C130.139 98.0182 130.044 97.6766 130.044 97.2642V90.2102ZM134.286 99V91.9091H135.376V99H134.286ZM134.84 90.7273C134.628 90.7273 134.445 90.6549 134.291 90.5103C134.14 90.3656 134.065 90.1918 134.065 89.9886C134.065 89.7855 134.14 89.6116 134.291 89.467C134.445 89.3223 134.628 89.25 134.84 89.25C135.053 89.25 135.234 89.3223 135.385 89.467C135.539 89.6116 135.616 89.7855 135.616 89.9886C135.616 90.1918 135.539 90.3656 135.385 90.5103C135.234 90.6549 135.053 90.7273 134.84 90.7273ZM140.252 99.1477C139.587 99.1477 139.015 98.9908 138.535 98.6768C138.054 98.3629 137.685 97.9305 137.427 97.3796C137.168 96.8287 137.039 96.1993 137.039 95.4915C137.039 94.7713 137.171 94.1358 137.436 93.5849C137.704 93.0309 138.076 92.5985 138.553 92.2876C139.033 91.9737 139.593 91.8168 140.233 91.8168C140.732 91.8168 141.181 91.9091 141.581 92.0938C141.982 92.2784 142.309 92.5369 142.565 92.8693C142.82 93.2017 142.979 93.5895 143.04 94.0327H141.951C141.868 93.7095 141.683 93.4233 141.397 93.174C141.114 92.9216 140.732 92.7955 140.252 92.7955C139.827 92.7955 139.455 92.9062 139.135 93.1278C138.818 93.3464 138.57 93.6557 138.391 94.0558C138.216 94.4528 138.128 94.919 138.128 95.4545C138.128 96.0024 138.214 96.4794 138.387 96.8857C138.562 97.2919 138.808 97.6074 139.125 97.832C139.446 98.0567 139.821 98.169 140.252 98.169C140.535 98.169 140.792 98.1198 141.023 98.0213C141.254 97.9228 141.449 97.7812 141.609 97.5966C141.769 97.4119 141.883 97.1903 141.951 96.9318H143.04C142.979 97.3504 142.826 97.7274 142.583 98.0629C142.343 98.3952 142.025 98.6599 141.628 98.8569C141.234 99.0508 140.775 99.1477 140.252 99.1477ZM149.656 93.4972L148.677 93.7741C148.615 93.611 148.525 93.4525 148.405 93.2987C148.288 93.1417 148.128 93.0124 147.924 92.9109C147.721 92.8093 147.461 92.7585 147.144 92.7585C146.71 92.7585 146.349 92.8585 146.059 93.0586C145.773 93.2556 145.63 93.5064 145.63 93.8111C145.63 94.0819 145.729 94.2958 145.926 94.4528C146.122 94.6097 146.43 94.7405 146.849 94.8452L147.901 95.1037C148.535 95.2576 149.008 95.493 149.319 95.81C149.629 96.1239 149.785 96.5286 149.785 97.0241C149.785 97.4304 149.668 97.7936 149.434 98.1136C149.203 98.4337 148.88 98.6861 148.465 98.8707C148.049 99.0554 147.566 99.1477 147.015 99.1477C146.292 99.1477 145.693 98.9908 145.219 98.6768C144.745 98.3629 144.445 97.9044 144.319 97.3011L145.353 97.0426C145.452 97.4242 145.638 97.7105 145.912 97.9013C146.189 98.0921 146.55 98.1875 146.997 98.1875C147.504 98.1875 147.908 98.0798 148.206 97.8643C148.508 97.6458 148.658 97.3842 148.658 97.0795C148.658 96.8333 148.572 96.6271 148.4 96.4609C148.228 96.2917 147.963 96.1655 147.606 96.0824L146.424 95.8054C145.775 95.6515 145.298 95.413 144.993 95.0898C144.691 94.7636 144.541 94.3558 144.541 93.8665C144.541 93.4664 144.653 93.1125 144.878 92.8047C145.105 92.4969 145.415 92.2553 145.805 92.0799C146.199 91.9045 146.646 91.8168 147.144 91.8168C147.846 91.8168 148.397 91.9706 148.797 92.2784C149.2 92.5862 149.486 92.9924 149.656 93.4972Z" fill="#2E263D" fill-opacity="0.7"/>
<path d="M213 32C213 28.6863 215.686 26 219 26H249C252.314 26 255 28.6863 255 32V62C255 65.3137 252.314 68 249 68H219C215.686 68 213 65.3137 213 62V32Z" fill="#FFB400" fill-opacity="0.16"/>
<path d="M234 49.1668V51.3335C232.276 51.3335 230.623 52.0183 229.404 53.2373C228.185 54.4563 227.5 56.1096 227.5 57.8335H225.333C225.333 55.535 226.246 53.3306 227.872 51.7052C229.497 50.0799 231.701 49.1668 234 49.1668V49.1668ZM234 48.0835C230.409 48.0835 227.5 45.1747 227.5 41.5835C227.5 37.9922 230.409 35.0835 234 35.0835C237.591 35.0835 240.5 37.9922 240.5 41.5835C240.5 45.1747 237.591 48.0835 234 48.0835ZM234 45.9168C236.394 45.9168 238.333 43.9777 238.333 41.5835C238.333 39.1893 236.394 37.2502 234 37.2502C231.606 37.2502 229.667 39.1893 229.667 41.5835C229.667 43.9777 231.606 45.9168 234 45.9168ZM244.233 55.7015L245.863 57.3308L244.331 58.8627L242.701 57.2333C241.793 57.769 240.72 57.955 239.684 57.7563C238.648 57.5577 237.721 56.9881 237.075 56.1542C236.429 55.3204 236.109 54.2797 236.176 53.227C236.242 52.1744 236.691 51.1822 237.436 50.4364C238.182 49.6906 239.174 49.2424 240.227 49.1759C241.28 49.1093 242.32 49.4289 243.154 50.0748C243.988 50.7207 244.558 51.6485 244.756 52.6844C244.955 53.7202 244.769 54.793 244.233 55.7015V55.7015ZM240.5 55.6668C241.075 55.6668 241.626 55.4386 242.032 55.0322C242.438 54.6259 242.667 54.0748 242.667 53.5002C242.667 52.9255 242.438 52.3744 242.032 51.9681C241.626 51.5618 241.075 51.3335 240.5 51.3335C239.925 51.3335 239.374 51.5618 238.968 51.9681C238.562 52.3744 238.333 52.9255 238.333 53.5002C238.333 54.0748 238.562 54.6259 238.968 55.0322C239.374 55.4386 239.925 55.6668 240.5 55.6668V55.6668Z" fill="#FFB400"/>
</g>
<defs>
<filter id="filter0_d_8003_4532" x="0" y="0" width="285" height="138" filterUnits="userSpaceOnUse" color-interpolation-filters="sRGB">
<feFlood flood-opacity="0" result="BackgroundImageFix"/>
<feColorMatrix in="SourceAlpha" type="matrix" values="0 0 0 0 0 0 0 0 0 0 0 0 0 0 0 0 0 0 127 0" result="hardAlpha"/>
<feOffset dy="4"/>
<feGaussianBlur stdDeviation="5"/>
<feComposite in2="hardAlpha" operator="out"/>
<feColorMatrix type="matrix" values="0 0 0 0 0.180392 0 0 0 0 0.14902 0 0 0 0 0.239216 0 0 0 0.2 0"/>
<feBlend mode="normal" in2="BackgroundImageFix" result="effect1_dropShadow_8003_4532"/>
<feBlend mode="normal" in="SourceGraphic" in2="effect1_dropShadow_8003_4532" result="shape"/>
</filter>
</defs>
</svg>
