<svg width="200" height="20" viewBox="0 0 200 20" fill="none" xmlns="http://www.w3.org/2000/svg">
<path d="M0 10C0 8.34315 1.34315 7 3 7H88C89.6569 7 91 8.34315 91 10V10C91 11.6569 89.6569 13 88 13H3C1.34315 13 0 11.6569 0 10V10Z" fill="#8C57FF"/>
<path opacity="0.68" d="M0 10C0 8.34315 1.34315 7 3 7H161C162.657 7 164 8.34315 164 10V10C164 11.6569 162.657 13 161 13H3C1.34314 13 0 11.6569 0 10V10Z" fill="#8C57FF" fill-opacity="0.24"/>
<path d="M176.03 15.1293C175.452 15.1293 174.931 15.0185 174.47 14.7969C174.011 14.5722 173.645 14.2644 173.371 13.8736C173.097 13.4827 172.951 13.0365 172.933 12.5348H174.317C174.351 12.9411 174.531 13.275 174.858 13.5366C175.184 13.7982 175.575 13.929 176.03 13.929C176.393 13.929 176.715 13.8459 176.995 13.6797C177.278 13.5104 177.5 13.2781 177.66 12.9826C177.823 12.6871 177.904 12.3501 177.904 11.9716C177.904 11.5869 177.821 11.2437 177.655 10.9421C177.489 10.6405 177.26 10.4035 176.967 10.2312C176.678 10.0588 176.346 9.97112 175.97 9.96804C175.684 9.96804 175.396 10.0173 175.107 10.1158C174.818 10.2143 174.584 10.3435 174.405 10.5036L173.099 10.3097L173.63 5.54545H178.828V6.76882H174.816L174.516 9.41406H174.571C174.756 9.23556 175.001 9.08629 175.305 8.96626C175.613 8.84624 175.942 8.78622 176.293 8.78622C176.869 8.78622 177.381 8.92318 177.831 9.19709C178.283 9.471 178.638 9.84493 178.897 10.3189C179.159 10.7898 179.288 11.3314 179.285 11.9439C179.288 12.5563 179.149 13.1026 178.869 13.5827C178.592 14.0629 178.208 14.4414 177.715 14.7184C177.226 14.9923 176.664 15.1293 176.03 15.1293ZM184.263 15.157C183.533 15.1539 182.91 14.9615 182.393 14.5799C181.876 14.1983 181.48 13.6428 181.206 12.9134C180.932 12.1839 180.796 11.3053 180.796 10.2773C180.796 9.25249 180.932 8.37689 181.206 7.65057C181.483 6.92424 181.88 6.37026 182.397 5.98864C182.918 5.60701 183.539 5.41619 184.263 5.41619C184.986 5.41619 185.606 5.60855 186.123 5.99325C186.64 6.37488 187.035 6.92886 187.309 7.65518C187.586 8.37843 187.725 9.25249 187.725 10.2773C187.725 11.3084 187.588 12.1886 187.314 12.918C187.04 13.6443 186.645 14.1998 186.128 14.5845C185.611 14.9661 184.989 15.157 184.263 15.157ZM184.263 13.9244C184.903 13.9244 185.403 13.612 185.763 12.9872C186.126 12.3625 186.308 11.4592 186.308 10.2773C186.308 9.49254 186.225 8.82931 186.058 8.28764C185.895 7.7429 185.66 7.33049 185.352 7.05043C185.047 6.76728 184.684 6.62571 184.263 6.62571C183.625 6.62571 183.125 6.93963 182.762 7.56747C182.399 8.19531 182.216 9.0986 182.213 10.2773C182.213 11.0652 182.294 11.7315 182.457 12.2763C182.624 12.8179 182.859 13.2288 183.164 13.5089C183.468 13.7859 183.835 13.9244 184.263 13.9244ZM194.298 13.2273V12.7287C194.298 12.3717 194.371 12.0455 194.519 11.75C194.67 11.4515 194.888 11.2129 195.175 11.0344C195.464 10.8529 195.813 10.7621 196.223 10.7621C196.641 10.7621 196.992 10.8513 197.275 11.0298C197.558 11.2083 197.772 11.4469 197.917 11.7454C198.065 12.0439 198.138 12.3717 198.138 12.7287V13.2273C198.138 13.5843 198.065 13.9121 197.917 14.2106C197.769 14.506 197.552 14.7446 197.266 14.9261C196.983 15.1046 196.635 15.1939 196.223 15.1939C195.807 15.1939 195.456 15.1046 195.17 14.9261C194.884 14.7446 194.667 14.506 194.519 14.2106C194.371 13.9121 194.298 13.5843 194.298 13.2273ZM195.373 12.7287V13.2273C195.373 13.492 195.436 13.732 195.562 13.9474C195.689 14.1629 195.909 14.2706 196.223 14.2706C196.533 14.2706 196.75 14.1629 196.874 13.9474C196.997 13.732 197.058 13.492 197.058 13.2273V12.7287C197.058 12.464 196.998 12.224 196.878 12.0085C196.761 11.7931 196.543 11.6854 196.223 11.6854C195.915 11.6854 195.696 11.7931 195.567 12.0085C195.438 12.224 195.373 12.464 195.373 12.7287ZM189.543 7.81676V7.31818C189.543 6.96117 189.616 6.6334 189.764 6.33487C189.915 6.03634 190.134 5.79782 190.42 5.61932C190.709 5.44081 191.058 5.35156 191.468 5.35156C191.886 5.35156 192.237 5.44081 192.52 5.61932C192.803 5.79782 193.017 6.03634 193.162 6.33487C193.307 6.6334 193.379 6.96117 193.379 7.31818V7.81676C193.379 8.17377 193.305 8.50154 193.157 8.80007C193.013 9.09553 192.797 9.33404 192.511 9.51562C192.228 9.69413 191.88 9.78338 191.468 9.78338C191.049 9.78338 190.697 9.69413 190.411 9.51562C190.127 9.33404 189.912 9.09553 189.764 8.80007C189.616 8.50154 189.543 8.17377 189.543 7.81676ZM190.623 7.31818V7.81676C190.623 8.08144 190.684 8.3215 190.808 8.53693C190.934 8.75237 191.154 8.86008 191.468 8.86008C191.775 8.86008 191.991 8.75237 192.114 8.53693C192.24 8.3215 192.303 8.08144 192.303 7.81676V7.31818C192.303 7.0535 192.243 6.81345 192.123 6.59801C192.003 6.38258 191.785 6.27486 191.468 6.27486C191.16 6.27486 190.941 6.38258 190.812 6.59801C190.686 6.81345 190.623 7.0535 190.623 7.31818ZM189.981 15L196.481 5.54545H197.585L191.085 15H189.981Z" fill="#2E263D" fill-opacity="0.7"/>
</svg>
