<svg width="75" height="36" viewBox="0 0 75 36" fill="none" xmlns="http://www.w3.org/2000/svg">
<g clip-path="url(#clip0_8003_2939)">
<path d="M18 10C22.4183 10 26 13.5817 26 18C26 22.4183 22.4183 26 18 26C13.5817 26 10 22.4183 10 18C10 13.5817 13.5817 10 18 10Z" stroke="#2E263D" stroke-opacity="0.7" stroke-width="2"/>
<path d="M37.321 23V12.0909H38.642V21.8281H43.7131V23H37.321ZM47.9957 23.1918C47.4773 23.1918 47.0067 23.0941 46.5842 22.8988C46.1616 22.6999 45.826 22.4141 45.5774 22.0412C45.3288 21.6648 45.2045 21.2102 45.2045 20.6776C45.2045 20.2088 45.2969 19.8288 45.4815 19.5376C45.6662 19.2429 45.913 19.0121 46.2219 18.8452C46.5309 18.6783 46.8718 18.554 47.2447 18.4723C47.6211 18.3871 47.9993 18.3196 48.3793 18.2699C48.8764 18.206 49.2795 18.158 49.5884 18.1261C49.9009 18.0906 50.1282 18.032 50.2702 17.9503C50.4158 17.8686 50.4886 17.7266 50.4886 17.5241V17.4815C50.4886 16.956 50.3448 16.5476 50.0572 16.2564C49.7731 15.9652 49.3416 15.8196 48.7628 15.8196C48.1626 15.8196 47.6921 15.951 47.3512 16.2138C47.0103 16.4766 46.7706 16.7571 46.6321 17.0554L45.4389 16.6293C45.652 16.1321 45.9361 15.745 46.2912 15.468C46.6499 15.1875 47.0405 14.9922 47.4631 14.8821C47.8892 14.7685 48.3082 14.7116 48.7202 14.7116C48.983 14.7116 49.2848 14.7436 49.6257 14.8075C49.9702 14.8679 50.3022 14.994 50.6218 15.1857C50.945 15.3775 51.2131 15.6669 51.4261 16.054C51.6392 16.4411 51.7457 16.9595 51.7457 17.6094V23H50.4886V21.892H50.4247C50.3395 22.0696 50.1974 22.2596 49.9986 22.462C49.7997 22.6644 49.5352 22.8366 49.2049 22.9787C48.8746 23.1207 48.4716 23.1918 47.9957 23.1918ZM48.1875 22.0625C48.6847 22.0625 49.1037 21.9648 49.4446 21.7695C49.7891 21.5742 50.0483 21.3221 50.2223 21.0131C50.3999 20.7042 50.4886 20.3793 50.4886 20.0384V18.8878C50.4354 18.9517 50.3182 19.0103 50.1371 19.0636C49.9595 19.1133 49.7536 19.1577 49.5192 19.1967C49.2884 19.2322 49.0629 19.2642 48.8427 19.2926C48.6261 19.3175 48.4503 19.3388 48.3153 19.3565C47.9886 19.3991 47.6832 19.4684 47.3991 19.5643C47.1186 19.6566 46.8913 19.7969 46.7173 19.9851C46.5469 20.1697 46.4616 20.4219 46.4616 20.7415C46.4616 21.1783 46.6232 21.5085 46.9464 21.7322C47.2731 21.9524 47.6868 22.0625 48.1875 22.0625ZM54.2107 23V12.0909H55.4678V16.1179H55.5743C55.6666 15.9759 55.7945 15.7947 55.9578 15.5746C56.1247 15.3509 56.3627 15.152 56.6716 14.978C56.9841 14.8004 57.4067 14.7116 57.9394 14.7116C58.6283 14.7116 59.2355 14.8839 59.7611 15.2283C60.2867 15.5728 60.6968 16.0611 60.9916 16.6932C61.2863 17.3253 61.4337 18.071 61.4337 18.9304C61.4337 19.7969 61.2863 20.5479 60.9916 21.1836C60.6968 21.8157 60.2884 22.3058 59.7664 22.6538C59.2444 22.9982 58.6425 23.1705 57.9607 23.1705C57.4351 23.1705 57.0143 23.0835 56.6982 22.9094C56.3822 22.7319 56.1389 22.5312 55.9685 22.3075C55.798 22.0803 55.6666 21.892 55.5743 21.7429H55.4252V23H54.2107ZM55.4465 18.9091C55.4465 19.527 55.537 20.0721 55.7181 20.5444C55.8992 21.0131 56.1638 21.3807 56.5118 21.647C56.8598 21.9098 57.286 22.0412 57.7902 22.0412C58.3158 22.0412 58.7544 21.9027 59.1059 21.6257C59.461 21.3452 59.7274 20.9687 59.9049 20.4964C60.086 20.0206 60.1766 19.4915 60.1766 18.9091C60.1766 18.3338 60.0878 17.8153 59.9102 17.3537C59.7362 16.8885 59.4717 16.521 59.1166 16.2511C58.765 15.9776 58.3229 15.8409 57.7902 15.8409C57.2789 15.8409 56.8492 15.9705 56.5012 16.2298C56.1531 16.4854 55.8904 16.8441 55.7128 17.3058C55.5352 17.7638 55.4465 18.2983 55.4465 18.9091ZM66.787 23.1705C65.9987 23.1705 65.3186 22.9964 64.7469 22.6484C64.1787 22.2969 63.7401 21.8068 63.4312 21.1783C63.1258 20.5462 62.9731 19.8111 62.9731 18.973C62.9731 18.1349 63.1258 17.3963 63.4312 16.7571C63.7401 16.1143 64.1698 15.6136 64.7203 15.255C65.2742 14.8928 65.9205 14.7116 66.6592 14.7116C67.0853 14.7116 67.5061 14.7827 67.9216 14.9247C68.3371 15.0668 68.7153 15.2976 69.0562 15.6172C69.3971 15.9332 69.6688 16.3523 69.8712 16.8743C70.0736 17.3963 70.1748 18.0391 70.1748 18.8026V19.3352H63.868V18.2486H68.8964C68.8964 17.7869 68.8041 17.375 68.6194 17.0128C68.4383 16.6506 68.1791 16.3647 67.8417 16.1552C67.5079 15.9457 67.1137 15.8409 66.6592 15.8409C66.1585 15.8409 65.7252 15.9652 65.3595 16.2138C64.9972 16.4588 64.7185 16.7784 64.5232 17.1726C64.3279 17.5668 64.2302 17.9893 64.2302 18.4403V19.1648C64.2302 19.7827 64.3367 20.3065 64.5498 20.7362C64.7664 21.1623 65.0665 21.4872 65.45 21.7109C65.8335 21.9311 66.2792 22.0412 66.787 22.0412C67.1173 22.0412 67.4156 21.995 67.6819 21.9027C67.9518 21.8068 68.1844 21.6648 68.3797 21.4766C68.575 21.2848 68.7259 21.0469 68.8325 20.7628L70.047 21.1037C69.9191 21.5156 69.7043 21.8778 69.4024 22.1903C69.1006 22.4993 68.7277 22.7408 68.2838 22.9148C67.8399 23.0852 67.341 23.1705 66.787 23.1705ZM73.3442 12.0909V23H72.0871V12.0909H73.3442Z" fill="#2E263D" fill-opacity="0.9"/>
</g>
<defs>
<clipPath id="clip0_8003_2939">
<rect width="75" height="36" fill="white"/>
</clipPath>
</defs>
</svg>
