<svg width="189" height="208" viewBox="0 0 189 208" fill="none" xmlns="http://www.w3.org/2000/svg">
<g filter="url(#filter0_d_8003_2600)">
<path d="M10 12C10 8.68629 12.6863 6 16 6H172.667C175.98 6 178.667 8.68629 178.667 12V188C178.667 191.314 175.98 194 172.667 194H16C12.6863 194 10 191.314 10 188V12Z" fill="white" shape-rendering="crispEdges"/>
<g filter="url(#filter1_d_8003_2600)">
<rect x="30" y="26" width="40" height="40" rx="20" fill="#FFB400"/>
<path d="M49 41H51V51H49V41ZM53 45H55V51H53V45ZM45 47H47V51H45V47ZM53 38H43V54H57V42H53V38ZM41 36.992C41 36.444 41.447 36 41.999 36H54L59 41V54.993C59.0009 55.1243 58.976 55.2545 58.9266 55.3762C58.8772 55.4979 58.8043 55.6087 58.7121 55.7022C58.6199 55.7957 58.5101 55.8701 58.3892 55.9212C58.2682 55.9723 58.1383 55.9991 58.007 56H41.993C41.7304 55.9982 41.479 55.8931 41.2932 55.7075C41.1074 55.5219 41.0021 55.2706 41 55.008V36.992Z" fill="white"/>
</g>
<path d="M146.667 29C145.842 29 145.167 29.675 145.167 30.5C145.167 31.325 145.842 32 146.667 32C147.492 32 148.167 31.325 148.167 30.5C148.167 29.675 147.492 29 146.667 29ZM146.667 44C145.842 44 145.167 44.675 145.167 45.5C145.167 46.325 145.842 47 146.667 47C147.492 47 148.167 46.325 148.167 45.5C148.167 44.675 147.492 44 146.667 44ZM146.667 36.5C145.842 36.5 145.167 37.175 145.167 38C145.167 38.825 145.842 39.5 146.667 39.5C147.492 39.5 148.167 38.825 148.167 38C148.167 37.175 147.492 36.5 146.667 36.5Z" fill="#2E263D" fill-opacity="0.9"/>
<path d="M31.1985 102V91.0909H35.087C35.9322 91.0909 36.6335 91.2365 37.1911 91.5277C37.7521 91.8189 38.1712 92.2219 38.4482 92.7369C38.7251 93.2482 38.8636 93.8395 38.8636 94.5107C38.8636 95.1783 38.7234 95.766 38.4428 96.2738C38.1658 96.7781 37.7468 97.1705 37.1857 97.451C36.6282 97.7315 35.9268 97.8718 35.0817 97.8718H32.136V96.4549H34.9325C35.4652 96.4549 35.8984 96.3786 36.2322 96.2259C36.5696 96.0732 36.8164 95.8512 36.9727 95.56C37.1289 95.2688 37.207 94.919 37.207 94.5107C37.207 94.0987 37.1271 93.7418 36.9673 93.44C36.8111 93.1381 36.5643 92.9073 36.2269 92.7475C35.8931 92.5842 35.4545 92.5025 34.9112 92.5025H32.8445V102H31.1985ZM36.5838 97.0781L39.2791 102H37.4041L34.7621 97.0781H36.5838ZM44.1624 102.165C43.3563 102.165 42.662 101.993 42.0796 101.648C41.5008 101.3 41.0534 100.812 40.7373 100.184C40.4248 99.5515 40.2686 98.8111 40.2686 97.9624C40.2686 97.1243 40.4248 96.3857 40.7373 95.7464C41.0534 95.1072 41.4937 94.6083 42.0583 94.2496C42.6265 93.891 43.2906 93.7116 44.0505 93.7116C44.5122 93.7116 44.9596 93.788 45.3928 93.9407C45.8261 94.0934 46.2149 94.3331 46.5594 94.6598C46.9039 94.9865 47.1755 95.4109 47.3744 95.9329C47.5732 96.4513 47.6727 97.0817 47.6727 97.8239V98.3885H41.1688V97.1953H46.1119C46.1119 96.7763 46.0267 96.4052 45.8563 96.082C45.6858 95.7553 45.4461 95.4979 45.1372 95.3097C44.8318 95.1214 44.4731 95.0273 44.0612 95.0273C43.6137 95.0273 43.2231 95.1374 42.8893 95.3576C42.559 95.5742 42.3034 95.8583 42.1222 96.2099C41.9447 96.5579 41.8559 96.9361 41.8559 97.3445V98.2766C41.8559 98.8235 41.9518 99.2887 42.1436 99.6722C42.3389 100.056 42.6105 100.349 42.9585 100.551C43.3066 100.75 43.7132 100.849 44.1784 100.849C44.4802 100.849 44.7554 100.807 45.004 100.722C45.2526 100.633 45.4674 100.501 45.6485 100.327C45.8296 100.153 45.9681 99.9386 46.064 99.6829L47.5715 99.9545C47.4507 100.398 47.2341 100.787 46.9216 101.121C46.6127 101.451 46.2238 101.709 45.7551 101.893C45.2899 102.075 44.759 102.165 44.1624 102.165ZM49.4398 105.068V93.8182H50.9952V95.1445H51.1284C51.2207 94.9741 51.3539 94.777 51.5279 94.5533C51.7019 94.3295 51.9434 94.1342 52.2523 93.9673C52.5613 93.7969 52.9696 93.7116 53.4775 93.7116C54.138 93.7116 54.7275 93.8786 55.2459 94.2124C55.7644 94.5462 56.171 95.0273 56.4657 95.6559C56.764 96.2844 56.9132 97.0408 56.9132 97.9251C56.9132 98.8093 56.7658 99.5675 56.4711 100.2C56.1763 100.828 55.7715 101.313 55.2566 101.654C54.7417 101.991 54.1539 102.16 53.4934 102.16C52.9963 102.16 52.5897 102.076 52.2736 101.909C51.9611 101.743 51.7161 101.547 51.5385 101.324C51.361 101.1 51.2243 100.901 51.1284 100.727H51.0325V105.068H49.4398ZM51.0005 97.9091C51.0005 98.4844 51.084 98.9886 51.2509 99.4219C51.4178 99.8551 51.6593 100.194 51.9753 100.439C52.2914 100.681 52.6784 100.801 53.1365 100.801C53.6124 100.801 54.0101 100.675 54.3297 100.423C54.6493 100.168 54.8908 99.8214 55.0542 99.3846C55.2211 98.9478 55.3045 98.456 55.3045 97.9091C55.3045 97.3693 55.2228 96.8846 55.0595 96.4549C54.8997 96.0252 54.6582 95.6861 54.335 95.4375C54.0154 95.1889 53.6159 95.0646 53.1365 95.0646C52.6749 95.0646 52.2843 95.1836 51.9647 95.4215C51.6486 95.6594 51.4089 95.9915 51.2456 96.4176C51.0822 96.8437 51.0005 97.3409 51.0005 97.9091ZM62.144 102.165C61.377 102.165 60.7076 101.989 60.1358 101.638C59.5641 101.286 59.1202 100.794 58.8042 100.162C58.4881 99.5302 58.3301 98.7915 58.3301 97.9464C58.3301 97.0977 58.4881 96.3555 58.8042 95.7198C59.1202 95.0842 59.5641 94.5906 60.1358 94.239C60.7076 93.8874 61.377 93.7116 62.144 93.7116C62.911 93.7116 63.5804 93.8874 64.1522 94.239C64.7239 94.5906 65.1678 95.0842 65.4838 95.7198C65.7999 96.3555 65.9579 97.0977 65.9579 97.9464C65.9579 98.7915 65.7999 99.5302 65.4838 100.162C65.1678 100.794 64.7239 101.286 64.1522 101.638C63.5804 101.989 62.911 102.165 62.144 102.165ZM62.1493 100.828C62.6465 100.828 63.0584 100.697 63.3851 100.434C63.7118 100.171 63.9533 99.8214 64.1096 99.3846C64.2694 98.9478 64.3493 98.4666 64.3493 97.9411C64.3493 97.419 64.2694 96.9396 64.1096 96.5028C63.9533 96.0625 63.7118 95.7092 63.3851 95.4428C63.0584 95.1765 62.6465 95.0433 62.1493 95.0433C61.6486 95.0433 61.2331 95.1765 60.9029 95.4428C60.5762 95.7092 60.3329 96.0625 60.1731 96.5028C60.0169 96.9396 59.9387 97.419 59.9387 97.9411C59.9387 98.4666 60.0169 98.9478 60.1731 99.3846C60.3329 99.8214 60.5762 100.171 60.9029 100.434C61.2331 100.697 61.6486 100.828 62.1493 100.828ZM67.7357 102V93.8182H69.2751V95.1179H69.3604C69.5095 94.6776 69.7723 94.3313 70.1487 94.0792C70.5287 93.8235 70.9584 93.6957 71.4378 93.6957C71.5372 93.6957 71.6544 93.6992 71.7893 93.7063C71.9278 93.7134 72.0361 93.7223 72.1143 93.733V95.2564C72.0503 95.2386 71.9367 95.2191 71.7733 95.1978C71.61 95.1729 71.4466 95.1605 71.2833 95.1605C70.9069 95.1605 70.5713 95.2404 70.2765 95.4002C69.9854 95.5565 69.7545 95.7749 69.5841 96.0554C69.4136 96.3324 69.3284 96.6484 69.3284 97.0036V102H67.7357ZM77.7952 93.8182V95.0966H73.3261V93.8182H77.7952ZM74.5246 91.858H76.1173V99.5977C76.1173 99.9066 76.1634 100.139 76.2558 100.295C76.3481 100.448 76.4671 100.553 76.6127 100.61C76.7618 100.663 76.9234 100.69 77.0974 100.69C77.2252 100.69 77.3371 100.681 77.433 100.663C77.5289 100.645 77.6034 100.631 77.6567 100.62L77.9443 101.936C77.852 101.972 77.7206 102.007 77.5502 102.043C77.3797 102.082 77.1666 102.103 76.911 102.107C76.4919 102.114 76.1013 102.039 75.7391 101.883C75.3769 101.727 75.0839 101.485 74.8602 101.158C74.6365 100.832 74.5246 100.422 74.5246 99.9279V91.858ZM85.5562 95.8157L84.1127 96.0714C84.0523 95.8867 83.9564 95.7109 83.825 95.544C83.6972 95.3771 83.5232 95.2404 83.303 95.1339C83.0828 95.0273 82.8076 94.9741 82.4774 94.9741C82.0264 94.9741 81.6499 95.0753 81.3481 95.2777C81.0463 95.4766 80.8953 95.734 80.8953 96.0501C80.8953 96.3235 80.9965 96.5437 81.199 96.7106C81.4014 96.8775 81.7281 97.0142 82.1791 97.1207L83.4788 97.419C84.2316 97.593 84.7927 97.8612 85.162 98.2234C85.5313 98.5856 85.716 99.0561 85.716 99.6349C85.716 100.125 85.574 100.562 85.2899 100.945C85.0093 101.325 84.6169 101.624 84.1127 101.84C83.6119 102.057 83.0313 102.165 82.3708 102.165C81.4546 102.165 80.7071 101.97 80.1283 101.579C79.5494 101.185 79.1943 100.626 79.0629 99.9013L80.6024 99.6669C80.6982 100.068 80.8953 100.372 81.1936 100.578C81.4919 100.78 81.8808 100.881 82.3602 100.881C82.8822 100.881 83.2994 100.773 83.6119 100.556C83.9244 100.336 84.0807 100.068 84.0807 99.7521C84.0807 99.4964 83.9848 99.2816 83.7931 99.1076C83.6048 98.9336 83.3154 98.8022 82.9248 98.7134L81.5399 98.4098C80.7764 98.2358 80.2117 97.9588 79.846 97.5788C79.4838 97.1989 79.3026 96.7177 79.3026 96.1353C79.3026 95.6523 79.4376 95.2298 79.7075 94.8675C79.9774 94.5053 80.3502 94.223 80.8261 94.0206C81.3019 93.8146 81.847 93.7116 82.4614 93.7116C83.3456 93.7116 84.0416 93.9034 84.5494 94.2869C85.0573 94.6669 85.3928 95.1765 85.5562 95.8157Z" fill="#2E263D" fill-opacity="0.9"/>
<path d="M31.679 140V138.091L37.5852 131.972C38.2159 131.307 38.7358 130.724 39.1449 130.224C39.5597 129.719 39.8693 129.239 40.0739 128.784C40.2784 128.33 40.3807 127.847 40.3807 127.335C40.3807 126.756 40.2443 126.256 39.9716 125.835C39.6989 125.409 39.3267 125.082 38.8551 124.855C38.3835 124.622 37.8523 124.506 37.2614 124.506C36.6364 124.506 36.0909 124.634 35.625 124.889C35.1591 125.145 34.8011 125.506 34.5511 125.972C34.3011 126.437 34.1761 126.983 34.1761 127.608H31.6619C31.6619 126.545 31.9063 125.616 32.3949 124.821C32.8835 124.026 33.554 123.409 34.4062 122.972C35.2585 122.528 36.2273 122.307 37.3125 122.307C38.4091 122.307 39.375 122.526 40.2102 122.963C41.0511 123.395 41.7074 123.986 42.179 124.736C42.6506 125.48 42.8864 126.321 42.8864 127.259C42.8864 127.906 42.7642 128.54 42.5199 129.159C42.2813 129.778 41.8636 130.469 41.267 131.23C40.6705 131.986 39.8409 132.903 38.7784 133.983L35.3097 137.614V137.741H43.1676V140H31.679ZM52.4915 140.239C51.7131 140.227 50.946 140.085 50.1903 139.812C49.4403 139.54 48.7585 139.085 48.1449 138.449C47.5313 137.812 47.0398 136.957 46.6705 135.884C46.3068 134.81 46.125 133.469 46.125 131.861C46.125 130.338 46.2756 128.986 46.5767 127.804C46.8835 126.622 47.3239 125.625 47.8977 124.812C48.4716 123.994 49.1648 123.372 49.9773 122.946C50.7898 122.52 51.7017 122.307 52.7131 122.307C53.7528 122.307 54.6761 122.511 55.483 122.92C56.2898 123.33 56.9432 123.895 57.4432 124.616C57.9489 125.338 58.2699 126.159 58.4062 127.08H55.8068C55.6307 126.352 55.2813 125.759 54.7585 125.298C54.2358 124.838 53.554 124.608 52.7131 124.608C51.4347 124.608 50.4375 125.165 49.7216 126.278C49.0114 127.392 48.6534 128.94 48.6477 130.923H48.7756C49.0767 130.429 49.446 130.009 49.8835 129.662C50.3267 129.31 50.821 129.04 51.3665 128.852C51.9176 128.659 52.4972 128.562 53.1051 128.562C54.1165 128.562 55.0313 128.81 55.8494 129.304C56.6733 129.793 57.3295 130.469 57.8182 131.332C58.3068 132.196 58.5511 133.185 58.5511 134.298C58.5511 135.412 58.2983 136.42 57.7926 137.324C57.2926 138.227 56.5881 138.943 55.679 139.472C54.7699 139.994 53.7074 140.25 52.4915 140.239ZM52.483 138.023C53.1534 138.023 53.7528 137.858 54.2812 137.528C54.8097 137.199 55.2273 136.756 55.5341 136.199C55.8409 135.642 55.9943 135.02 55.9943 134.332C55.9943 133.662 55.8438 133.051 55.5426 132.5C55.2472 131.949 54.8381 131.511 54.3153 131.188C53.7983 130.864 53.2074 130.702 52.5426 130.702C52.0369 130.702 51.5682 130.798 51.1364 130.991C50.7102 131.185 50.3352 131.452 50.0114 131.793C49.6875 132.134 49.4318 132.526 49.2443 132.969C49.0625 133.406 48.9716 133.869 48.9716 134.358C48.9716 135.011 49.1222 135.616 49.4233 136.173C49.7301 136.73 50.1477 137.179 50.6761 137.52C51.2102 137.855 51.8125 138.023 52.483 138.023ZM67.5533 140.239C66.3317 140.239 65.2521 140.028 64.3146 139.608C63.3828 139.187 62.6527 138.608 62.1243 137.869C61.5959 137.131 61.3345 136.29 61.3402 135.347C61.3345 134.608 61.4851 133.929 61.7919 133.31C62.1044 132.685 62.5277 132.165 63.0618 131.75C63.5959 131.33 64.1925 131.062 64.8516 130.949V130.847C63.9822 130.636 63.2862 130.17 62.7635 129.449C62.2408 128.727 61.9822 127.898 61.9879 126.96C61.9822 126.068 62.218 125.273 62.6953 124.574C63.1783 123.869 63.8402 123.315 64.6811 122.912C65.522 122.509 66.4794 122.307 67.5533 122.307C68.6158 122.307 69.5646 122.511 70.3999 122.92C71.2408 123.324 71.9027 123.878 72.3857 124.582C72.8686 125.281 73.1129 126.074 73.1186 126.96C73.1129 127.898 72.8459 128.727 72.3175 129.449C71.7891 130.17 71.1016 130.636 70.255 130.847V130.949C70.9084 131.062 71.4964 131.33 72.0192 131.75C72.5476 132.165 72.968 132.685 73.2805 133.31C73.5987 133.929 73.7607 134.608 73.7663 135.347C73.7607 136.29 73.4936 137.131 72.9652 137.869C72.4368 138.608 71.7038 139.187 70.7663 139.608C69.8345 140.028 68.7635 140.239 67.5533 140.239ZM67.5533 138.082C68.2749 138.082 68.8999 137.963 69.4283 137.724C69.9567 137.48 70.3658 137.142 70.6555 136.71C70.9453 136.273 71.093 135.761 71.0987 135.176C71.093 134.568 70.9339 134.031 70.6214 133.565C70.3146 133.099 69.897 132.733 69.3686 132.466C68.8402 132.199 68.2351 132.065 67.5533 132.065C66.8658 132.065 66.255 132.199 65.7209 132.466C65.1868 132.733 64.7663 133.099 64.4595 133.565C64.1527 134.031 64.0021 134.568 64.0078 135.176C64.0021 135.761 64.1413 136.273 64.4254 136.71C64.7152 137.142 65.1271 137.48 65.6612 137.724C66.1953 137.963 66.826 138.082 67.5533 138.082ZM67.5533 129.96C68.1328 129.96 68.647 129.844 69.0959 129.611C69.5447 129.378 69.897 129.054 70.1527 128.639C70.4141 128.224 70.5476 127.739 70.5533 127.182C70.5476 126.636 70.4169 126.159 70.1612 125.75C69.9112 125.341 69.5618 125.026 69.1129 124.804C68.6641 124.577 68.1442 124.463 67.5533 124.463C66.951 124.463 66.4226 124.577 65.968 124.804C65.5192 125.026 65.1697 125.341 64.9197 125.75C64.6697 126.159 64.5476 126.636 64.5533 127.182C64.5476 127.739 64.6726 128.224 64.9283 128.639C65.1839 129.054 65.5362 129.378 65.9851 129.611C66.4396 129.844 66.9624 129.96 67.5533 129.96Z" fill="#2E263D" fill-opacity="0.9"/>
<path d="M89.8381 129.96V131.131H85.0653V129.96H89.8381ZM91.516 136V135.041L95.1168 131.099C95.5394 130.638 95.8874 130.237 96.1609 129.896C96.4343 129.551 96.6367 129.228 96.7681 128.926C96.9031 128.621 96.9705 128.301 96.9705 127.967C96.9705 127.584 96.8782 127.252 96.6935 126.971C96.5124 126.691 96.2638 126.474 95.9478 126.321C95.6317 126.169 95.2766 126.092 94.8825 126.092C94.4634 126.092 94.0977 126.179 93.7852 126.353C93.4762 126.524 93.2365 126.763 93.0661 127.072C92.8991 127.381 92.8157 127.744 92.8157 128.159H91.5586C91.5586 127.52 91.706 126.959 92.0007 126.476C92.2955 125.993 92.6967 125.616 93.2045 125.347C93.7159 125.077 94.2894 124.942 94.9251 124.942C95.5643 124.942 96.1307 125.077 96.6243 125.347C97.1179 125.616 97.505 125.98 97.7855 126.439C98.0661 126.897 98.2063 127.406 98.2063 127.967C98.2063 128.369 98.1335 128.761 97.9879 129.145C97.8459 129.525 97.5973 129.949 97.2422 130.418C96.8906 130.883 96.4023 131.451 95.7773 132.122L93.3271 134.743V134.828H98.3981V136H91.516ZM104.092 136.149C103.361 136.149 102.714 136.02 102.153 135.76C101.596 135.498 101.161 135.137 100.848 134.679C100.536 134.217 100.381 133.692 100.385 133.102C100.381 132.641 100.472 132.214 100.657 131.824C100.841 131.43 101.093 131.101 101.413 130.838C101.736 130.572 102.097 130.403 102.494 130.332V130.268C101.972 130.134 101.557 129.841 101.248 129.39C100.939 128.935 100.786 128.418 100.79 127.839C100.786 127.286 100.926 126.79 101.211 126.353C101.495 125.917 101.885 125.572 102.382 125.32C102.883 125.068 103.453 124.942 104.092 124.942C104.724 124.942 105.289 125.068 105.786 125.32C106.283 125.572 106.674 125.917 106.958 126.353C107.246 126.79 107.391 127.286 107.395 127.839C107.391 128.418 107.233 128.935 106.921 129.39C106.612 129.841 106.202 130.134 105.69 130.268V130.332C106.085 130.403 106.44 130.572 106.756 130.838C107.072 131.101 107.324 131.43 107.512 131.824C107.7 132.214 107.796 132.641 107.8 133.102C107.796 133.692 107.636 134.217 107.32 134.679C107.008 135.137 106.573 135.498 106.015 135.76C105.461 136.02 104.82 136.149 104.092 136.149ZM104.092 134.977C104.586 134.977 105.012 134.897 105.371 134.738C105.729 134.578 106.006 134.352 106.202 134.061C106.397 133.77 106.496 133.429 106.5 133.038C106.496 132.626 106.39 132.262 106.18 131.946C105.971 131.63 105.685 131.382 105.323 131.201C104.964 131.02 104.554 130.929 104.092 130.929C103.627 130.929 103.212 131.02 102.846 131.201C102.484 131.382 102.198 131.63 101.988 131.946C101.782 132.262 101.681 132.626 101.685 133.038C101.681 133.429 101.775 133.77 101.967 134.061C102.162 134.352 102.441 134.578 102.803 134.738C103.165 134.897 103.595 134.977 104.092 134.977ZM104.092 129.8C104.483 129.8 104.829 129.722 105.131 129.565C105.436 129.409 105.676 129.191 105.85 128.91C106.024 128.63 106.113 128.301 106.116 127.925C106.113 127.555 106.026 127.234 105.855 126.961C105.685 126.684 105.449 126.471 105.147 126.321C104.845 126.169 104.494 126.092 104.092 126.092C103.684 126.092 103.327 126.169 103.022 126.321C102.716 126.471 102.48 126.684 102.313 126.961C102.146 127.234 102.065 127.555 102.068 127.925C102.065 128.301 102.148 128.63 102.319 128.91C102.493 129.191 102.732 129.409 103.038 129.565C103.343 129.722 103.695 129.8 104.092 129.8ZM115.402 133.955V133.379C115.402 132.982 115.484 132.618 115.647 132.287C115.814 131.953 116.056 131.687 116.372 131.488C116.691 131.286 117.078 131.185 117.533 131.185C117.995 131.185 118.382 131.286 118.694 131.488C119.007 131.687 119.243 131.953 119.403 132.287C119.562 132.618 119.642 132.982 119.642 133.379V133.955C119.642 134.352 119.561 134.718 119.397 135.052C119.237 135.382 119 135.648 118.684 135.851C118.371 136.05 117.987 136.149 117.533 136.149C117.071 136.149 116.682 136.05 116.366 135.851C116.05 135.648 115.811 135.382 115.647 135.052C115.484 134.718 115.402 134.352 115.402 133.955ZM116.489 133.379V133.955C116.489 134.285 116.567 134.581 116.723 134.844C116.88 135.103 117.149 135.233 117.533 135.233C117.906 135.233 118.169 135.103 118.321 134.844C118.478 134.581 118.556 134.285 118.556 133.955V133.379C118.556 133.049 118.481 132.754 118.332 132.495C118.183 132.232 117.916 132.101 117.533 132.101C117.16 132.101 116.892 132.232 116.729 132.495C116.569 132.754 116.489 133.049 116.489 133.379ZM109.969 127.712V127.136C109.969 126.739 110.051 126.375 110.214 126.044C110.381 125.711 110.622 125.444 110.938 125.245C111.258 125.043 111.645 124.942 112.1 124.942C112.561 124.942 112.948 125.043 113.261 125.245C113.573 125.444 113.81 125.711 113.969 126.044C114.129 126.375 114.209 126.739 114.209 127.136V127.712C114.209 128.109 114.127 128.475 113.964 128.809C113.804 129.139 113.566 129.406 113.25 129.608C112.938 129.807 112.554 129.906 112.1 129.906C111.638 129.906 111.249 129.807 110.933 129.608C110.617 129.406 110.377 129.139 110.214 128.809C110.051 128.475 109.969 128.109 109.969 127.712ZM111.056 127.136V127.712C111.056 128.042 111.134 128.338 111.29 128.601C111.446 128.86 111.716 128.99 112.1 128.99C112.473 128.99 112.735 128.86 112.888 128.601C113.044 128.338 113.122 128.042 113.122 127.712V127.136C113.122 126.806 113.048 126.511 112.899 126.252C112.75 125.989 112.483 125.858 112.1 125.858C111.727 125.858 111.459 125.989 111.295 126.252C111.136 126.511 111.056 126.806 111.056 127.136ZM110.374 136L117.874 125.091H119.088L111.588 136H110.374Z" fill="#FF4C51"/>
<path d="M36.3153 161.909C36.2599 161.441 36.0353 161.078 35.6413 160.82C35.2474 160.561 34.7642 160.432 34.1918 160.432C33.7732 160.432 33.407 160.5 33.093 160.635C32.7822 160.77 32.5391 160.957 32.3636 161.194C32.1913 161.431 32.1051 161.7 32.1051 162.001C32.1051 162.254 32.1651 162.471 32.2852 162.652C32.4083 162.831 32.5652 162.98 32.756 163.1C32.9469 163.217 33.1469 163.314 33.3562 163.391C33.5655 163.465 33.7578 163.525 33.9332 163.571L34.8935 163.83C35.1397 163.894 35.4136 163.983 35.7152 164.097C36.0199 164.211 36.3107 164.367 36.5877 164.564C36.8678 164.757 37.0986 165.007 37.2802 165.311C37.4618 165.616 37.5526 165.99 37.5526 166.433C37.5526 166.944 37.4187 167.406 37.1509 167.818C36.8862 168.231 36.4985 168.558 35.9876 168.801C35.4798 169.045 34.8627 169.166 34.1364 169.166C33.4593 169.166 32.873 169.057 32.3775 168.838C31.8851 168.62 31.4973 168.315 31.2141 167.924C30.9341 167.533 30.7756 167.08 30.7386 166.562H31.9205C31.9512 166.92 32.0713 167.215 32.2805 167.449C32.4929 167.68 32.7607 167.852 33.0838 167.966C33.41 168.077 33.7609 168.132 34.1364 168.132C34.5734 168.132 34.9658 168.061 35.3136 167.92C35.6613 167.775 35.9368 167.575 36.1399 167.32C36.343 167.061 36.4446 166.759 36.4446 166.415C36.4446 166.101 36.3569 165.845 36.1815 165.648C36.006 165.451 35.7752 165.291 35.489 165.168C35.2028 165.045 34.8935 164.937 34.5611 164.845L33.3977 164.513C32.6591 164.3 32.0743 163.997 31.6435 163.603C31.2126 163.209 30.9972 162.694 30.9972 162.057C30.9972 161.527 31.1403 161.066 31.4265 160.672C31.7158 160.275 32.1036 159.967 32.5898 159.749C33.0792 159.527 33.6255 159.416 34.2287 159.416C34.8381 159.416 35.3797 159.525 35.8537 159.744C36.3277 159.959 36.7031 160.255 36.9801 160.63C37.2602 161.006 37.4079 161.432 37.4233 161.909H36.3153ZM39.9889 171.659C39.8042 171.659 39.6396 171.644 39.4949 171.613C39.3503 171.585 39.2503 171.558 39.1949 171.53L39.4719 170.57C39.7365 170.637 39.9704 170.662 40.1736 170.643C40.3767 170.625 40.5567 170.534 40.7137 170.371C40.8737 170.211 41.0199 169.951 41.1523 169.591L41.3554 169.037L38.7332 161.909H39.915L41.8724 167.56H41.9463L43.9037 161.909H45.0855L42.0756 170.034C41.9401 170.4 41.7724 170.703 41.5724 170.944C41.3723 171.187 41.1399 171.367 40.8753 171.484C40.6137 171.601 40.3182 171.659 39.9889 171.659ZM51.5463 163.497L50.5676 163.774C50.506 163.611 50.4152 163.453 50.2952 163.299C50.1782 163.142 50.0182 163.012 49.8151 162.911C49.6119 162.809 49.3519 162.759 49.0349 162.759C48.6009 162.759 48.2393 162.859 47.95 163.059C47.6638 163.256 47.5207 163.506 47.5207 163.811C47.5207 164.082 47.6192 164.296 47.8161 164.453C48.0131 164.61 48.3209 164.741 48.7394 164.845L49.792 165.104C50.426 165.258 50.8984 165.493 51.2093 165.81C51.5201 166.124 51.6755 166.529 51.6755 167.024C51.6755 167.43 51.5586 167.794 51.3247 168.114C51.0938 168.434 50.7707 168.686 50.3552 168.871C49.9397 169.055 49.4565 169.148 48.9056 169.148C48.1824 169.148 47.5838 168.991 47.1098 168.677C46.6359 168.363 46.3358 167.904 46.2096 167.301L47.2437 167.043C47.3422 167.424 47.5284 167.71 47.8023 167.901C48.0793 168.092 48.4409 168.188 48.8872 168.188C49.395 168.188 49.7981 168.08 50.0967 167.864C50.3983 167.646 50.5491 167.384 50.5491 167.08C50.5491 166.833 50.4629 166.627 50.2906 166.461C50.1182 166.292 49.8535 166.165 49.4965 166.082L48.3147 165.805C47.6653 165.652 47.1883 165.413 46.8836 165.09C46.582 164.764 46.4312 164.356 46.4312 163.866C46.4312 163.466 46.5435 163.112 46.7682 162.805C46.9959 162.497 47.3052 162.255 47.6961 162.08C48.0901 161.904 48.5363 161.817 49.0349 161.817C49.7366 161.817 50.2875 161.971 50.6876 162.278C51.0908 162.586 51.377 162.992 51.5463 163.497ZM56.3993 161.909V162.832H52.7246V161.909H56.3993ZM53.7956 160.21H54.8851V166.969C54.8851 167.277 54.9297 167.507 55.019 167.661C55.1113 167.812 55.2283 167.914 55.3699 167.966C55.5145 168.015 55.6668 168.04 55.8269 168.04C55.9469 168.04 56.0454 168.034 56.1223 168.021C56.1993 168.006 56.2608 167.994 56.307 167.984L56.5286 168.963C56.4547 168.991 56.3516 169.018 56.2193 169.046C56.0869 169.077 55.9192 169.092 55.7161 169.092C55.4083 169.092 55.1067 169.026 54.8113 168.894C54.5189 168.761 54.2757 168.56 54.0819 168.289C53.891 168.018 53.7956 167.677 53.7956 167.264V160.21ZM60.935 169.148C60.2518 169.148 59.6624 168.997 59.1669 168.695C58.6745 168.391 58.2944 167.966 58.0266 167.421C57.762 166.873 57.6296 166.236 57.6296 165.51C57.6296 164.784 57.762 164.143 58.0266 163.589C58.2944 163.032 58.6668 162.598 59.1438 162.288C59.6239 161.974 60.1841 161.817 60.8242 161.817C61.1935 161.817 61.5582 161.878 61.9183 162.001C62.2784 162.125 62.6062 162.325 62.9016 162.602C63.1971 162.875 63.4325 163.239 63.608 163.691C63.7834 164.143 63.8711 164.701 63.8711 165.362V165.824H58.4052V164.882H62.7631C62.7631 164.482 62.6831 164.125 62.5231 163.811C62.3661 163.497 62.1415 163.249 61.8491 163.068C61.5598 162.886 61.2182 162.795 60.8242 162.795C60.3903 162.795 60.0148 162.903 59.6978 163.119C59.3839 163.331 59.1423 163.608 58.973 163.95C58.8037 164.291 58.7191 164.657 58.7191 165.048V165.676C58.7191 166.212 58.8114 166.666 58.9961 167.038C59.1838 167.407 59.4439 167.689 59.7763 167.883C60.1087 168.074 60.4949 168.169 60.935 168.169C61.2212 168.169 61.4798 168.129 61.7106 168.049C61.9445 167.966 62.1461 167.843 62.3153 167.68C62.4846 167.513 62.6154 167.307 62.7077 167.061L63.7603 167.357C63.6495 167.714 63.4633 168.027 63.2017 168.298C62.9401 168.566 62.617 168.775 62.2322 168.926C61.8475 169.074 61.4151 169.148 60.935 169.148ZM65.5284 169V161.909H66.581V163.017H66.6733C66.821 162.638 67.0595 162.345 67.3888 162.135C67.7182 161.923 68.1136 161.817 68.5753 161.817C69.0431 161.817 69.4324 161.923 69.7433 162.135C70.0572 162.345 70.3018 162.638 70.4773 163.017H70.5511C70.7327 162.651 71.0051 162.36 71.3683 162.145C71.7314 161.926 72.1669 161.817 72.6747 161.817C73.3087 161.817 73.8273 162.015 74.2305 162.412C74.6336 162.806 74.8352 163.42 74.8352 164.254V169H73.7457V164.254C73.7457 163.731 73.6026 163.357 73.3164 163.132C73.0302 162.908 72.6932 162.795 72.3054 162.795C71.8068 162.795 71.4206 162.946 71.1467 163.248C70.8728 163.546 70.7358 163.925 70.7358 164.384V169H69.6278V164.143C69.6278 163.74 69.497 163.416 69.2354 163.169C68.9738 162.92 68.6368 162.795 68.2244 162.795C67.9413 162.795 67.6766 162.871 67.4304 163.022C67.1873 163.172 66.9903 163.382 66.8395 163.65C66.6918 163.914 66.6179 164.22 66.6179 164.568V169H65.5284ZM80.6312 169V159.545H83.9366C84.5952 159.545 85.1384 159.659 85.5662 159.887C85.994 160.112 86.3126 160.415 86.5218 160.797C86.7311 161.175 86.8358 161.595 86.8358 162.057C86.8358 162.463 86.7634 162.799 86.6188 163.063C86.4772 163.328 86.2895 163.537 86.0556 163.691C85.8248 163.845 85.5739 163.959 85.3031 164.033V164.125C85.5924 164.143 85.8832 164.245 86.1756 164.43C86.468 164.614 86.7127 164.879 86.9096 165.224C87.1066 165.568 87.2051 165.99 87.2051 166.489C87.2051 166.963 87.0974 167.389 86.8819 167.767C86.6665 168.146 86.3264 168.446 85.8617 168.668C85.397 168.889 84.7922 169 84.0474 169H80.6312ZM81.7761 167.984H84.0474C84.7953 167.984 85.3262 167.84 85.6401 167.55C85.9571 167.258 86.1156 166.904 86.1156 166.489C86.1156 166.169 86.034 165.873 85.8709 165.602C85.7078 165.328 85.4754 165.11 85.1738 164.947C84.8722 164.781 84.5152 164.697 84.1028 164.697H81.7761V167.984ZM81.7761 163.7H83.8997C84.2444 163.7 84.5552 163.633 84.8322 163.497C85.1123 163.362 85.3339 163.171 85.497 162.925C85.6632 162.679 85.7463 162.389 85.7463 162.057C85.7463 161.641 85.6016 161.289 85.3123 161C85.023 160.707 84.5645 160.561 83.9366 160.561H81.7761V163.7ZM93.4073 166.101V161.909H94.4968V169H93.4073V167.8H93.3335C93.1673 168.16 92.9087 168.466 92.5579 168.718C92.207 168.968 91.7638 169.092 91.2283 169.092C90.7852 169.092 90.3912 168.995 90.0465 168.801C89.7018 168.605 89.431 168.309 89.234 167.915C89.0371 167.518 88.9386 167.018 88.9386 166.415V161.909H90.0281V166.341C90.0281 166.858 90.1727 167.27 90.462 167.578C90.7544 167.886 91.1268 168.04 91.5792 168.04C91.85 168.04 92.1255 167.971 92.4055 167.832C92.6887 167.694 92.9257 167.481 93.1165 167.195C93.3104 166.909 93.4073 166.544 93.4073 166.101ZM99.3545 171.807C98.8282 171.807 98.3758 171.739 97.9972 171.604C97.6187 171.471 97.3032 171.296 97.0509 171.077C96.8016 170.862 96.6031 170.631 96.4553 170.385L97.3232 169.776C97.4217 169.905 97.5464 170.053 97.6972 170.219C97.848 170.388 98.0542 170.534 98.3158 170.657C98.5805 170.783 98.9267 170.847 99.3545 170.847C99.9269 170.847 100.399 170.708 100.772 170.431C101.144 170.154 101.33 169.72 101.33 169.129V167.689H101.238C101.158 167.818 101.044 167.978 100.896 168.169C100.752 168.357 100.542 168.525 100.269 168.672C99.9977 168.817 99.6315 168.889 99.1698 168.889C98.5974 168.889 98.0834 168.754 97.6279 168.483C97.1755 168.212 96.817 167.818 96.5523 167.301C96.2907 166.784 96.1599 166.156 96.1599 165.418C96.1599 164.691 96.2876 164.059 96.5431 163.52C96.7985 162.979 97.154 162.56 97.6095 162.265C98.065 161.966 98.5912 161.817 99.1883 161.817C99.6499 161.817 100.016 161.894 100.287 162.048C100.561 162.198 100.77 162.371 100.915 162.565C101.063 162.755 101.176 162.912 101.256 163.036H101.367V161.909H102.42V169.203C102.42 169.812 102.281 170.308 102.004 170.69C101.73 171.074 101.361 171.356 100.896 171.534C100.435 171.716 99.9208 171.807 99.3545 171.807ZM99.3176 167.911C99.7546 167.911 100.124 167.81 100.426 167.61C100.727 167.41 100.956 167.123 101.113 166.747C101.27 166.372 101.349 165.922 101.349 165.399C101.349 164.888 101.272 164.437 101.118 164.047C100.964 163.656 100.736 163.349 100.435 163.128C100.133 162.906 99.7607 162.795 99.3176 162.795C98.8559 162.795 98.4712 162.912 98.1634 163.146C97.8588 163.38 97.6295 163.694 97.4756 164.088C97.3248 164.482 97.2494 164.919 97.2494 165.399C97.2494 165.892 97.3263 166.327 97.4802 166.706C97.6372 167.081 97.868 167.377 98.1727 167.592C98.4804 167.804 98.8621 167.911 99.3176 167.911ZM109.437 163.497L108.458 163.774C108.397 163.611 108.306 163.453 108.186 163.299C108.069 163.142 107.909 163.012 107.706 162.911C107.503 162.809 107.243 162.759 106.926 162.759C106.492 162.759 106.13 162.859 105.841 163.059C105.554 163.256 105.411 163.506 105.411 163.811C105.411 164.082 105.51 164.296 105.707 164.453C105.904 164.61 106.211 164.741 106.63 164.845L107.683 165.104C108.317 165.258 108.789 165.493 109.1 165.81C109.411 166.124 109.566 166.529 109.566 167.024C109.566 167.43 109.449 167.794 109.215 168.114C108.984 168.434 108.661 168.686 108.246 168.871C107.83 169.055 107.347 169.148 106.796 169.148C106.073 169.148 105.474 168.991 105 168.677C104.526 168.363 104.226 167.904 104.1 167.301L105.134 167.043C105.233 167.424 105.419 167.71 105.693 167.901C105.97 168.092 106.332 168.188 106.778 168.188C107.286 168.188 107.689 168.08 107.987 167.864C108.289 167.646 108.44 167.384 108.44 167.08C108.44 166.833 108.354 166.627 108.181 166.461C108.009 166.292 107.744 166.165 107.387 166.082L106.205 165.805C105.556 165.652 105.079 165.413 104.774 165.09C104.473 164.764 104.322 164.356 104.322 163.866C104.322 163.466 104.434 163.112 104.659 162.805C104.887 162.497 105.196 162.255 105.587 162.08C105.981 161.904 106.427 161.817 106.926 161.817C107.627 161.817 108.178 161.971 108.578 162.278C108.981 162.586 109.268 162.992 109.437 163.497Z" fill="#2E263D" fill-opacity="0.7"/>
</g>
<defs>
<filter id="filter0_d_8003_2600" x="0" y="0" width="188.667" height="208" filterUnits="userSpaceOnUse" color-interpolation-filters="sRGB">
<feFlood flood-opacity="0" result="BackgroundImageFix"/>
<feColorMatrix in="SourceAlpha" type="matrix" values="0 0 0 0 0 0 0 0 0 0 0 0 0 0 0 0 0 0 127 0" result="hardAlpha"/>
<feOffset dy="4"/>
<feGaussianBlur stdDeviation="5"/>
<feComposite in2="hardAlpha" operator="out"/>
<feColorMatrix type="matrix" values="0 0 0 0 0.180392 0 0 0 0 0.14902 0 0 0 0 0.239216 0 0 0 0.2 0"/>
<feBlend mode="normal" in2="BackgroundImageFix" result="effect1_dropShadow_8003_2600"/>
<feBlend mode="normal" in="SourceGraphic" in2="effect1_dropShadow_8003_2600" result="shape"/>
</filter>
<filter id="filter1_d_8003_2600" x="26" y="24" width="48" height="48" filterUnits="userSpaceOnUse" color-interpolation-filters="sRGB">
<feFlood flood-opacity="0" result="BackgroundImageFix"/>
<feColorMatrix in="SourceAlpha" type="matrix" values="0 0 0 0 0 0 0 0 0 0 0 0 0 0 0 0 0 0 127 0" result="hardAlpha"/>
<feOffset dy="2"/>
<feGaussianBlur stdDeviation="2"/>
<feColorMatrix type="matrix" values="0 0 0 0 0.180392 0 0 0 0 0.14902 0 0 0 0 0.239216 0 0 0 0.16 0"/>
<feBlend mode="normal" in2="BackgroundImageFix" result="effect1_dropShadow_8003_2600"/>
<feBlend mode="normal" in="SourceGraphic" in2="effect1_dropShadow_8003_2600" result="shape"/>
</filter>
</defs>
</svg>
