<svg width="189" height="208" viewBox="0 0 189 208" fill="none" xmlns="http://www.w3.org/2000/svg">
<g filter="url(#filter0_d_8003_2555)">
<path d="M10 12C10 8.68629 12.6863 6 16 6H172.667C175.98 6 178.667 8.68629 178.667 12V188C178.667 191.314 175.98 194 172.667 194H16C12.6863 194 10 191.314 10 188V12Z" fill="white" shape-rendering="crispEdges"/>
<g filter="url(#filter1_d_8003_2555)">
<rect x="30" y="26" width="40" height="40" rx="20" fill="#56CA00"/>
<path d="M50 56C44.477 56 40 51.523 40 46C40 40.477 44.477 36 50 36C55.523 36 60 40.477 60 46C60 51.523 55.523 56 50 56ZM50 54C52.1217 54 54.1566 53.1571 55.6569 51.6569C57.1571 50.1566 58 48.1217 58 46C58 43.8783 57.1571 41.8434 55.6569 40.3431C54.1566 38.8429 52.1217 38 50 38C47.8783 38 45.8434 38.8429 44.3431 40.3431C42.8429 41.8434 42 43.8783 42 46C42 48.1217 42.8429 50.1566 44.3431 51.6569C45.8434 53.1571 47.8783 54 50 54V54ZM46.5 48H52C52.1326 48 52.2598 47.9473 52.3536 47.8536C52.4473 47.7598 52.5 47.6326 52.5 47.5C52.5 47.3674 52.4473 47.2402 52.3536 47.1464C52.2598 47.0527 52.1326 47 52 47H48C47.337 47 46.7011 46.7366 46.2322 46.2678C45.7634 45.7989 45.5 45.163 45.5 44.5C45.5 43.837 45.7634 43.2011 46.2322 42.7322C46.7011 42.2634 47.337 42 48 42H49V40H51V42H53.5V44H48C47.8674 44 47.7402 44.0527 47.6464 44.1464C47.5527 44.2402 47.5 44.3674 47.5 44.5C47.5 44.6326 47.5527 44.7598 47.6464 44.8536C47.7402 44.9473 47.8674 45 48 45H52C52.663 45 53.2989 45.2634 53.7678 45.7322C54.2366 46.2011 54.5 46.837 54.5 47.5C54.5 48.163 54.2366 48.7989 53.7678 49.2678C53.2989 49.7366 52.663 50 52 50H51V52H49V50H46.5V48Z" fill="white"/>
</g>
<path d="M146.667 29C145.842 29 145.167 29.675 145.167 30.5C145.167 31.325 145.842 32 146.667 32C147.492 32 148.167 31.325 148.167 30.5C148.167 29.675 147.492 29 146.667 29ZM146.667 44C145.842 44 145.167 44.675 145.167 45.5C145.167 46.325 145.842 47 146.667 47C147.492 47 148.167 46.325 148.167 45.5C148.167 44.675 147.492 44 146.667 44ZM146.667 36.5C145.842 36.5 145.167 37.175 145.167 38C145.167 38.825 145.842 39.5 146.667 39.5C147.492 39.5 148.167 38.825 148.167 38C148.167 37.175 147.492 36.5 146.667 36.5Z" fill="#2E263D" fill-opacity="0.9"/>
<path d="M31.1985 102V91.0909H35.087C35.9322 91.0909 36.6335 91.2365 37.1911 91.5277C37.7521 91.8189 38.1712 92.2219 38.4482 92.7369C38.7251 93.2482 38.8636 93.8395 38.8636 94.5107C38.8636 95.1783 38.7234 95.766 38.4428 96.2738C38.1658 96.7781 37.7468 97.1705 37.1857 97.451C36.6282 97.7315 35.9268 97.8718 35.0817 97.8718H32.136V96.4549H34.9325C35.4652 96.4549 35.8984 96.3786 36.2322 96.2259C36.5696 96.0732 36.8164 95.8512 36.9727 95.56C37.1289 95.2688 37.207 94.919 37.207 94.5107C37.207 94.0987 37.1271 93.7418 36.9673 93.44C36.8111 93.1381 36.5643 92.9073 36.2269 92.7475C35.8931 92.5842 35.4545 92.5025 34.9112 92.5025H32.8445V102H31.1985ZM36.5838 97.0781L39.2791 102H37.4041L34.7621 97.0781H36.5838ZM44.1624 102.165C43.3563 102.165 42.662 101.993 42.0796 101.648C41.5008 101.3 41.0534 100.812 40.7373 100.184C40.4248 99.5515 40.2686 98.8111 40.2686 97.9624C40.2686 97.1243 40.4248 96.3857 40.7373 95.7464C41.0534 95.1072 41.4937 94.6083 42.0583 94.2496C42.6265 93.891 43.2906 93.7116 44.0505 93.7116C44.5122 93.7116 44.9596 93.788 45.3928 93.9407C45.8261 94.0934 46.2149 94.3331 46.5594 94.6598C46.9039 94.9865 47.1755 95.4109 47.3744 95.9329C47.5732 96.4513 47.6727 97.0817 47.6727 97.8239V98.3885H41.1688V97.1953H46.1119C46.1119 96.7763 46.0267 96.4052 45.8563 96.082C45.6858 95.7553 45.4461 95.4979 45.1372 95.3097C44.8318 95.1214 44.4731 95.0273 44.0612 95.0273C43.6137 95.0273 43.2231 95.1374 42.8893 95.3576C42.559 95.5742 42.3034 95.8583 42.1222 96.2099C41.9447 96.5579 41.8559 96.9361 41.8559 97.3445V98.2766C41.8559 98.8235 41.9518 99.2887 42.1436 99.6722C42.3389 100.056 42.6105 100.349 42.9585 100.551C43.3066 100.75 43.7132 100.849 44.1784 100.849C44.4802 100.849 44.7554 100.807 45.004 100.722C45.2526 100.633 45.4674 100.501 45.6485 100.327C45.8296 100.153 45.9681 99.9386 46.064 99.6829L47.5715 99.9545C47.4507 100.398 47.2341 100.787 46.9216 101.121C46.6127 101.451 46.2238 101.709 45.7551 101.893C45.2899 102.075 44.759 102.165 44.1624 102.165ZM56.2047 93.8182L53.2377 102H51.5332L48.5609 93.8182H50.2708L52.3429 100.114H52.4281L54.4949 93.8182H56.2047ZM60.9495 102.165C60.1434 102.165 59.4491 101.993 58.8667 101.648C58.2879 101.3 57.8405 100.812 57.5244 100.184C57.2119 99.5515 57.0557 98.8111 57.0557 97.9624C57.0557 97.1243 57.2119 96.3857 57.5244 95.7464C57.8405 95.1072 58.2808 94.6083 58.8454 94.2496C59.4136 93.891 60.0777 93.7116 60.8376 93.7116C61.2993 93.7116 61.7467 93.788 62.18 93.9407C62.6132 94.0934 63.002 94.3331 63.3465 94.6598C63.691 94.9865 63.9626 95.4109 64.1615 95.9329C64.3604 96.4513 64.4598 97.0817 64.4598 97.8239V98.3885H57.9559V97.1953H62.8991C62.8991 96.7763 62.8138 96.4052 62.6434 96.082C62.4729 95.7553 62.2332 95.4979 61.9243 95.3097C61.6189 95.1214 61.2602 95.0273 60.8483 95.0273C60.4008 95.0273 60.0102 95.1374 59.6764 95.3576C59.3461 95.5742 59.0905 95.8583 58.9094 96.2099C58.7318 96.5579 58.643 96.9361 58.643 97.3445V98.2766C58.643 98.8235 58.7389 99.2887 58.9307 99.6722C59.126 100.056 59.3976 100.349 59.7456 100.551C60.0937 100.75 60.5003 100.849 60.9655 100.849C61.2673 100.849 61.5425 100.807 61.7911 100.722C62.0397 100.633 62.2545 100.501 62.4356 100.327C62.6167 100.153 62.7552 99.9386 62.8511 99.6829L64.3586 99.9545C64.2378 100.398 64.0212 100.787 63.7087 101.121C63.3998 101.451 63.0109 101.709 62.5422 101.893C62.077 102.075 61.5461 102.165 60.9495 102.165ZM67.8196 97.142V102H66.2269V93.8182H67.7557V95.1499H67.8569C68.0451 94.7166 68.3398 94.3686 68.7411 94.1058C69.146 93.843 69.6555 93.7116 70.2699 93.7116C70.8274 93.7116 71.3157 93.8288 71.7347 94.0632C72.1538 94.294 72.4787 94.6385 72.7095 95.0966C72.9403 95.5547 73.0558 96.1211 73.0558 96.7958V102H71.4631V96.9876C71.4631 96.3945 71.3086 95.9311 70.9996 95.5973C70.6907 95.2599 70.2663 95.0913 69.7266 95.0913C69.3572 95.0913 69.0288 95.1712 68.7411 95.331C68.457 95.4908 68.2315 95.7251 68.0646 96.0341C67.9013 96.3395 67.8196 96.7088 67.8196 97.142ZM80.3746 98.6069V93.8182H81.9727V102H80.4066V100.583H80.3214C80.1332 101.02 79.8313 101.384 79.4158 101.675C79.0039 101.963 78.4908 102.107 77.8764 102.107C77.3509 102.107 76.8857 101.991 76.4808 101.76C76.0795 101.526 75.7635 101.18 75.5327 100.722C75.3054 100.263 75.1918 99.6971 75.1918 99.0224V93.8182H76.7844V98.8306C76.7844 99.3881 76.9389 99.832 77.2479 100.162C77.5568 100.493 77.9581 100.658 78.4517 100.658C78.75 100.658 79.0465 100.583 79.3413 100.434C79.6396 100.285 79.8864 100.059 80.0817 99.7575C80.2805 99.4556 80.3782 99.0721 80.3746 98.6069ZM87.6389 102.165C86.8328 102.165 86.1386 101.993 85.5562 101.648C84.9774 101.3 84.5299 100.812 84.2139 100.184C83.9014 99.5515 83.7451 98.8111 83.7451 97.9624C83.7451 97.1243 83.9014 96.3857 84.2139 95.7464C84.5299 95.1072 84.9703 94.6083 85.5349 94.2496C86.1031 93.891 86.7671 93.7116 87.5271 93.7116C87.9887 93.7116 88.4362 93.788 88.8694 93.9407C89.3026 94.0934 89.6915 94.3331 90.036 94.6598C90.3804 94.9865 90.6521 95.4109 90.8509 95.9329C91.0498 96.4513 91.1492 97.0817 91.1492 97.8239V98.3885H84.6453V97.1953H89.5885C89.5885 96.7763 89.5033 96.4052 89.3328 96.082C89.1624 95.7553 88.9227 95.4979 88.6137 95.3097C88.3083 95.1214 87.9497 95.0273 87.5377 95.0273C87.0903 95.0273 86.6997 95.1374 86.3659 95.3576C86.0356 95.5742 85.7799 95.8583 85.5988 96.2099C85.4213 96.5579 85.3325 96.9361 85.3325 97.3445V98.2766C85.3325 98.8235 85.4284 99.2887 85.6201 99.6722C85.8154 100.056 86.0871 100.349 86.4351 100.551C86.7831 100.75 87.1897 100.849 87.6549 100.849C87.9568 100.849 88.232 100.807 88.4806 100.722C88.7291 100.633 88.944 100.501 89.1251 100.327C89.3062 100.153 89.4447 99.9386 89.5406 99.6829L91.048 99.9545C90.9273 100.398 90.7107 100.787 90.3982 101.121C90.0892 101.451 89.7004 101.709 89.2316 101.893C88.7664 102.075 88.2355 102.165 87.6389 102.165Z" fill="#2E263D" fill-opacity="0.9"/>
<path d="M37.0653 142.182V120.364H38.4631V142.182H37.0653ZM41.4375 127.131C41.3466 126.324 40.9716 125.699 40.3125 125.256C39.6534 124.807 38.8239 124.582 37.8239 124.582C37.108 124.582 36.4886 124.696 35.9659 124.923C35.4432 125.145 35.0369 125.452 34.7472 125.844C34.4631 126.23 34.321 126.67 34.321 127.165C34.321 127.58 34.4176 127.937 34.6108 128.239C34.8097 128.54 35.0682 128.793 35.3864 128.997C35.7102 129.196 36.0568 129.364 36.4261 129.5C36.7955 129.631 37.1506 129.739 37.4915 129.824L39.196 130.267C39.7528 130.403 40.3239 130.588 40.9091 130.821C41.4943 131.054 42.0369 131.361 42.5369 131.741C43.0369 132.122 43.4403 132.594 43.7472 133.156C44.0597 133.719 44.2159 134.392 44.2159 135.176C44.2159 136.165 43.9602 137.043 43.4489 137.81C42.9432 138.577 42.2074 139.182 41.2415 139.625C40.2813 140.068 39.1193 140.29 37.7557 140.29C36.4489 140.29 35.3182 140.082 34.3636 139.668C33.4091 139.253 32.6619 138.665 32.1222 137.903C31.5824 137.136 31.2841 136.227 31.2273 135.176H33.8693C33.9205 135.807 34.125 136.332 34.483 136.753C34.8466 137.168 35.3097 137.477 35.8722 137.682C36.4403 137.881 37.0625 137.98 37.7386 137.98C38.483 137.98 39.1449 137.864 39.7244 137.631C40.3097 137.392 40.7699 137.062 41.1051 136.642C41.4403 136.216 41.608 135.719 41.608 135.151C41.608 134.634 41.4602 134.21 41.1648 133.881C40.875 133.551 40.4801 133.278 39.9801 133.062C39.4858 132.847 38.9261 132.656 38.3011 132.491L36.2386 131.929C34.8409 131.548 33.733 130.989 32.9148 130.25C32.1023 129.511 31.696 128.534 31.696 127.318C31.696 126.312 31.9688 125.435 32.5142 124.685C33.0597 123.935 33.7983 123.352 34.7301 122.938C35.6619 122.517 36.7131 122.307 37.8835 122.307C39.0653 122.307 40.108 122.514 41.0114 122.929C41.9205 123.344 42.6364 123.915 43.1591 124.642C43.6818 125.364 43.9545 126.193 43.9773 127.131H41.4375ZM52.9283 122.307C53.7067 122.312 54.4737 122.455 55.2294 122.733C55.9851 123.011 56.6669 123.466 57.2749 124.097C57.8885 124.727 58.3771 125.58 58.7408 126.653C59.1101 127.722 59.2976 129.051 59.3033 130.642C59.3033 132.17 59.1499 133.531 58.843 134.724C58.5362 135.912 58.0959 136.915 57.522 137.733C56.9538 138.551 56.2635 139.173 55.451 139.599C54.6385 140.026 53.7237 140.239 52.7067 140.239C51.6669 140.239 50.7436 140.034 49.9368 139.625C49.13 139.216 48.4737 138.651 47.968 137.929C47.4624 137.202 47.147 136.366 47.022 135.423H49.6214C49.7919 136.173 50.1385 136.781 50.6612 137.247C51.1896 137.707 51.8714 137.938 52.7067 137.938C53.9851 137.938 54.9822 137.381 55.6982 136.267C56.4141 135.148 56.7749 133.585 56.7805 131.58H56.6442C56.3487 132.068 55.9794 132.489 55.5362 132.841C55.0987 133.193 54.6072 133.466 54.0618 133.659C53.5163 133.852 52.9339 133.949 52.3146 133.949C51.3089 133.949 50.3942 133.702 49.5703 133.207C48.7464 132.713 48.0902 132.034 47.6016 131.17C47.1129 130.307 46.8686 129.321 46.8686 128.213C46.8686 127.111 47.1186 126.111 47.6186 125.213C48.1243 124.315 48.8288 123.605 49.7322 123.082C50.6413 122.554 51.7067 122.295 52.9283 122.307ZM52.9368 124.523C52.272 124.523 51.6726 124.687 51.1385 125.017C50.6101 125.341 50.1925 125.781 49.8857 126.338C49.5788 126.889 49.4254 127.503 49.4254 128.179C49.4254 128.855 49.5732 129.469 49.8686 130.02C50.1697 130.565 50.5788 131 51.0959 131.324C51.6186 131.642 52.2152 131.801 52.8857 131.801C53.3857 131.801 53.8516 131.705 54.2834 131.511C54.7152 131.318 55.093 131.051 55.4169 130.71C55.7408 130.364 55.9936 129.972 56.1754 129.534C56.3572 129.097 56.4482 128.636 56.4482 128.153C56.4482 127.511 56.2947 126.915 55.9879 126.364C55.6868 125.812 55.272 125.369 54.7436 125.034C54.2152 124.693 53.6129 124.523 52.9368 124.523ZM68.1435 140.239C67.0753 140.239 66.1151 140.034 65.2628 139.625C64.4162 139.21 63.7401 138.642 63.2344 137.92C62.7287 137.199 62.4588 136.375 62.4247 135.449H64.9815C65.044 136.199 65.3764 136.815 65.9787 137.298C66.581 137.781 67.3026 138.023 68.1435 138.023C68.8139 138.023 69.4077 137.869 69.9247 137.562C70.4474 137.25 70.8565 136.821 71.152 136.276C71.4531 135.73 71.6037 135.108 71.6037 134.409C71.6037 133.699 71.4503 133.065 71.1435 132.509C70.8366 131.952 70.4134 131.514 69.8736 131.196C69.3395 130.878 68.7259 130.716 68.0327 130.71C67.5043 130.71 66.973 130.801 66.4389 130.983C65.9048 131.165 65.473 131.403 65.1435 131.699L62.7315 131.341L63.7116 122.545H73.3082V124.804H65.902L65.348 129.688H65.4503C65.7912 129.358 66.2429 129.082 66.8054 128.861C67.3736 128.639 67.9815 128.528 68.6293 128.528C69.6918 128.528 70.6378 128.781 71.4673 129.287C72.3026 129.793 72.9588 130.483 73.4361 131.358C73.919 132.227 74.1577 133.227 74.152 134.358C74.1577 135.489 73.902 136.497 73.3849 137.384C72.8736 138.27 72.1634 138.969 71.2543 139.48C70.3509 139.986 69.3139 140.239 68.1435 140.239ZM78.3452 140.162C77.8793 140.162 77.4787 139.997 77.1435 139.668C76.8082 139.332 76.6406 138.929 76.6406 138.457C76.6406 137.991 76.8082 137.594 77.1435 137.264C77.4787 136.929 77.8793 136.761 78.3452 136.761C78.8111 136.761 79.2116 136.929 79.5469 137.264C79.8821 137.594 80.0497 137.991 80.0497 138.457C80.0497 138.77 79.9702 139.057 79.8111 139.318C79.6577 139.574 79.4531 139.778 79.1974 139.932C78.9418 140.085 78.6577 140.162 78.3452 140.162ZM83.429 140V138.091L89.3352 131.972C89.9659 131.307 90.4858 130.724 90.8949 130.224C91.3097 129.719 91.6193 129.239 91.8239 128.784C92.0284 128.33 92.1307 127.847 92.1307 127.335C92.1307 126.756 91.9943 126.256 91.7216 125.835C91.4489 125.409 91.0767 125.082 90.6051 124.855C90.1335 124.622 89.6023 124.506 89.0114 124.506C88.3864 124.506 87.8409 124.634 87.375 124.889C86.9091 125.145 86.5511 125.506 86.3011 125.972C86.0511 126.437 85.9261 126.983 85.9261 127.608H83.4119C83.4119 126.545 83.6563 125.616 84.1449 124.821C84.6335 124.026 85.304 123.409 86.1562 122.972C87.0085 122.528 87.9773 122.307 89.0625 122.307C90.1591 122.307 91.125 122.526 91.9602 122.963C92.8011 123.395 93.4574 123.986 93.929 124.736C94.4006 125.48 94.6364 126.321 94.6364 127.259C94.6364 127.906 94.5142 128.54 94.2699 129.159C94.0313 129.778 93.6136 130.469 93.017 131.23C92.4205 131.986 91.5909 132.903 90.5284 133.983L87.0597 137.614V137.741H94.9176V140H83.429ZM100.526 135.56L100.509 132.449H100.952L106.168 126.909H109.219L103.27 133.216H102.869L100.526 135.56ZM98.1818 140V122.545H100.73V140H98.1818ZM106.449 140L101.761 133.778L103.517 131.997L109.577 140H106.449Z" fill="#2E263D" fill-opacity="0.9"/>
<path d="M122.347 134.082V127.051H123.54V134.082H122.347ZM119.428 131.163V129.97H126.459V131.163H119.428ZM132.852 125.091V136H131.531V126.476H131.467L128.804 128.244V126.902L131.531 125.091H132.852ZM135.99 136V135.041L139.59 131.099C140.013 130.638 140.361 130.237 140.634 129.896C140.908 129.551 141.11 129.228 141.242 128.926C141.377 128.621 141.444 128.301 141.444 127.967C141.444 127.584 141.352 127.252 141.167 126.971C140.986 126.691 140.737 126.474 140.421 126.321C140.105 126.169 139.75 126.092 139.356 126.092C138.937 126.092 138.571 126.179 138.259 126.353C137.95 126.524 137.71 126.763 137.54 127.072C137.373 127.381 137.289 127.744 137.289 128.159H136.032C136.032 127.52 136.18 126.959 136.474 126.476C136.769 125.993 137.17 125.616 137.678 125.347C138.19 125.077 138.763 124.942 139.399 124.942C140.038 124.942 140.604 125.077 141.098 125.347C141.592 125.616 141.979 125.98 142.259 126.439C142.54 126.897 142.68 127.406 142.68 127.967C142.68 128.369 142.607 128.761 142.462 129.145C142.32 129.525 142.071 129.949 141.716 130.418C141.364 130.883 140.876 131.451 140.251 132.122L137.801 134.743V134.828H142.872V136H135.99ZM150.633 133.955V133.379C150.633 132.982 150.714 132.618 150.878 132.287C151.045 131.953 151.286 131.687 151.602 131.488C151.922 131.286 152.309 131.185 152.763 131.185C153.225 131.185 153.612 131.286 153.925 131.488C154.237 131.687 154.473 131.953 154.633 132.287C154.793 132.618 154.873 132.982 154.873 133.379V133.955C154.873 134.352 154.791 134.718 154.628 135.052C154.468 135.382 154.23 135.648 153.914 135.851C153.601 136.05 153.218 136.149 152.763 136.149C152.302 136.149 151.913 136.05 151.597 135.851C151.281 135.648 151.041 135.382 150.878 135.052C150.714 134.718 150.633 134.352 150.633 133.955ZM151.719 133.379V133.955C151.719 134.285 151.797 134.581 151.954 134.844C152.11 135.103 152.38 135.233 152.763 135.233C153.136 135.233 153.399 135.103 153.552 134.844C153.708 134.581 153.786 134.285 153.786 133.955V133.379C153.786 133.049 153.712 132.754 153.562 132.495C153.413 132.232 153.147 132.101 152.763 132.101C152.391 132.101 152.122 132.232 151.959 132.495C151.799 132.754 151.719 133.049 151.719 133.379ZM145.199 127.712V127.136C145.199 126.739 145.281 126.375 145.445 126.044C145.611 125.711 145.853 125.444 146.169 125.245C146.489 125.043 146.876 124.942 147.33 124.942C147.792 124.942 148.179 125.043 148.491 125.245C148.804 125.444 149.04 125.711 149.2 126.044C149.36 126.375 149.44 126.739 149.44 127.136V127.712C149.44 128.109 149.358 128.475 149.195 128.809C149.035 129.139 148.797 129.406 148.481 129.608C148.168 129.807 147.785 129.906 147.33 129.906C146.869 129.906 146.48 129.807 146.164 129.608C145.848 129.406 145.608 129.139 145.445 128.809C145.281 128.475 145.199 128.109 145.199 127.712ZM146.286 127.136V127.712C146.286 128.042 146.364 128.338 146.521 128.601C146.677 128.86 146.947 128.99 147.33 128.99C147.703 128.99 147.966 128.86 148.119 128.601C148.275 128.338 148.353 128.042 148.353 127.712V127.136C148.353 126.806 148.278 126.511 148.129 126.252C147.98 125.989 147.714 125.858 147.33 125.858C146.957 125.858 146.689 125.989 146.526 126.252C146.366 126.511 146.286 126.806 146.286 127.136ZM145.604 136L153.104 125.091H154.319L146.819 136H145.604Z" fill="#56CA00"/>
<path d="M31.1449 169V159.545H34.3395C35.0781 159.545 35.6844 159.672 36.1584 159.924C36.6323 160.173 36.9832 160.516 37.2109 160.953C37.4387 161.391 37.5526 161.888 37.5526 162.445C37.5526 163.002 37.4387 163.496 37.2109 163.926C36.9832 164.357 36.6339 164.696 36.163 164.942C35.6921 165.185 35.0904 165.307 34.358 165.307H31.7727V164.273H34.321C34.8258 164.273 35.232 164.199 35.5398 164.051C35.8506 163.903 36.0753 163.694 36.2138 163.423C36.3554 163.149 36.4261 162.823 36.4261 162.445C36.4261 162.066 36.3554 161.735 36.2138 161.452C36.0722 161.169 35.846 160.95 35.5352 160.797C35.2243 160.64 34.8134 160.561 34.3026 160.561H32.2898V169H31.1449ZM35.5952 164.753L37.9219 169H36.5923L34.3026 164.753H35.5952ZM42.2094 169.148C41.5262 169.148 40.9368 168.997 40.4413 168.695C39.9489 168.391 39.5688 167.966 39.301 167.421C39.0364 166.873 38.904 166.236 38.904 165.51C38.904 164.784 39.0364 164.143 39.301 163.589C39.5688 163.032 39.9412 162.598 40.4182 162.288C40.8983 161.974 41.4585 161.817 42.0986 161.817C42.468 161.817 42.8327 161.878 43.1927 162.001C43.5528 162.125 43.8806 162.325 44.176 162.602C44.4715 162.875 44.7069 163.239 44.8824 163.691C45.0578 164.143 45.1455 164.701 45.1455 165.362V165.824H39.6796V164.882H44.0376C44.0376 164.482 43.9575 164.125 43.7975 163.811C43.6405 163.497 43.4159 163.249 43.1235 163.068C42.8342 162.886 42.4926 162.795 42.0986 162.795C41.6647 162.795 41.2892 162.903 40.9722 163.119C40.6583 163.331 40.4167 163.608 40.2474 163.95C40.0782 164.291 39.9935 164.657 39.9935 165.048V165.676C39.9935 166.212 40.0858 166.666 40.2705 167.038C40.4582 167.407 40.7183 167.689 41.0507 167.883C41.3831 168.074 41.7693 168.169 42.2094 168.169C42.4957 168.169 42.7542 168.129 42.985 168.049C43.2189 167.966 43.4205 167.843 43.5898 167.68C43.759 167.513 43.8898 167.307 43.9822 167.061L45.0347 167.357C44.9239 167.714 44.7377 168.027 44.4761 168.298C44.2145 168.566 43.8914 168.775 43.5067 168.926C43.122 169.074 42.6895 169.148 42.2094 169.148ZM52.3853 161.909L49.7631 169H48.6552L46.033 161.909H47.2148L49.1722 167.56H49.2461L51.2035 161.909H52.3853ZM56.5424 169.148C55.8592 169.148 55.2698 168.997 54.7743 168.695C54.2819 168.391 53.9018 167.966 53.6341 167.421C53.3694 166.873 53.237 166.236 53.237 165.51C53.237 164.784 53.3694 164.143 53.6341 163.589C53.9018 163.032 54.2742 162.598 54.7512 162.288C55.2314 161.974 55.7915 161.817 56.4316 161.817C56.801 161.817 57.1657 161.878 57.5257 162.001C57.8858 162.125 58.2136 162.325 58.5091 162.602C58.8045 162.875 59.04 163.239 59.2154 163.691C59.3908 164.143 59.4785 164.701 59.4785 165.362V165.824H54.0126V164.882H58.3706C58.3706 164.482 58.2905 164.125 58.1305 163.811C57.9735 163.497 57.7489 163.249 57.4565 163.068C57.1672 162.886 56.8256 162.795 56.4316 162.795C55.9977 162.795 55.6222 162.903 55.3052 163.119C54.9913 163.331 54.7497 163.608 54.5804 163.95C54.4112 164.291 54.3265 164.657 54.3265 165.048V165.676C54.3265 166.212 54.4189 166.666 54.6035 167.038C54.7913 167.407 55.0513 167.689 55.3837 167.883C55.7161 168.074 56.1023 168.169 56.5424 168.169C56.8287 168.169 57.0872 168.129 57.318 168.049C57.5519 167.966 57.7535 167.843 57.9228 167.68C58.092 167.513 58.2228 167.307 58.3152 167.061L59.3677 167.357C59.2569 167.714 59.0707 168.027 58.8091 168.298C58.5475 168.566 58.2244 168.775 57.8397 168.926C57.455 169.074 57.0225 169.148 56.5424 169.148ZM62.2253 164.734V169H61.1358V161.909H62.1884V163.017H62.2807C62.4469 162.657 62.6993 162.368 63.0378 162.149C63.3764 161.928 63.8134 161.817 64.3489 161.817C64.829 161.817 65.2491 161.915 65.6092 162.112C65.9693 162.306 66.2493 162.602 66.4494 162.999C66.6494 163.393 66.7495 163.891 66.7495 164.494V169H65.66V164.568C65.66 164.011 65.5153 163.577 65.226 163.266C64.9367 162.952 64.5397 162.795 64.035 162.795C63.6872 162.795 63.3764 162.871 63.1025 163.022C62.8316 163.172 62.6177 163.393 62.4608 163.682C62.3038 163.971 62.2253 164.322 62.2253 164.734ZM73.2091 166.101V161.909H74.2986V169H73.2091V167.8H73.1352C72.969 168.16 72.7105 168.466 72.3596 168.718C72.0088 168.968 71.5656 169.092 71.0301 169.092C70.5869 169.092 70.193 168.995 69.8483 168.801C69.5036 168.605 69.2327 168.309 69.0358 167.915C68.8388 167.518 68.7403 167.018 68.7403 166.415V161.909H69.8298V166.341C69.8298 166.858 69.9745 167.27 70.2638 167.578C70.5561 167.886 70.9285 168.04 71.3809 168.04C71.6518 168.04 71.9272 167.971 72.2073 167.832C72.4904 167.694 72.7274 167.481 72.9182 167.195C73.1121 166.909 73.2091 166.544 73.2091 166.101ZM79.267 169.148C78.5838 169.148 77.9944 168.997 77.4989 168.695C77.0065 168.391 76.6264 167.966 76.3587 167.421C76.094 166.873 75.9616 166.236 75.9616 165.51C75.9616 164.784 76.094 164.143 76.3587 163.589C76.6264 163.032 76.9988 162.598 77.4759 162.288C77.956 161.974 78.5161 161.817 79.1562 161.817C79.5256 161.817 79.8903 161.878 80.2504 162.001C80.6104 162.125 80.9382 162.325 81.2337 162.602C81.5291 162.875 81.7646 163.239 81.94 163.691C82.1154 164.143 82.2031 164.701 82.2031 165.362V165.824H76.7372V164.882H81.0952C81.0952 164.482 81.0152 164.125 80.8551 163.811C80.6982 163.497 80.4735 163.249 80.1811 163.068C79.8918 162.886 79.5502 162.795 79.1562 162.795C78.7223 162.795 78.3468 162.903 78.0298 163.119C77.7159 163.331 77.4743 163.608 77.305 163.95C77.1358 164.291 77.0511 164.657 77.0511 165.048V165.676C77.0511 166.212 77.1435 166.666 77.3281 167.038C77.5159 167.407 77.7759 167.689 78.1083 167.883C78.4407 168.074 78.8269 168.169 79.267 168.169C79.5533 168.169 79.8118 168.129 80.0426 168.049C80.2765 167.966 80.4781 167.843 80.6474 167.68C80.8166 167.513 80.9474 167.307 81.0398 167.061L82.0923 167.357C81.9815 167.714 81.7953 168.027 81.5337 168.298C81.2721 168.566 80.949 168.775 80.5643 168.926C80.1796 169.074 79.7472 169.148 79.267 169.148ZM88.8093 159.545V169H87.6644V159.545H88.8093ZM92.0466 164.734V169H90.9571V161.909H92.0097V163.017H92.102C92.2682 162.657 92.5206 162.368 92.8591 162.149C93.1977 161.928 93.6347 161.817 94.1702 161.817C94.6503 161.817 95.0704 161.915 95.4305 162.112C95.7906 162.306 96.0706 162.602 96.2707 162.999C96.4707 163.393 96.5708 163.891 96.5708 164.494V169H95.4813V164.568C95.4813 164.011 95.3366 163.577 95.0473 163.266C94.758 162.952 94.361 162.795 93.8563 162.795C93.5085 162.795 93.1977 162.871 92.9237 163.022C92.6529 163.172 92.439 163.393 92.282 163.682C92.1251 163.971 92.0466 164.322 92.0466 164.734ZM101.442 169.148C100.778 169.148 100.205 168.991 99.725 168.677C99.2449 168.363 98.8755 167.931 98.617 167.38C98.3585 166.829 98.2292 166.199 98.2292 165.491C98.2292 164.771 98.3616 164.136 98.6262 163.585C98.894 163.031 99.2664 162.598 99.7434 162.288C100.224 161.974 100.784 161.817 101.424 161.817C101.922 161.817 102.372 161.909 102.772 162.094C103.172 162.278 103.5 162.537 103.755 162.869C104.011 163.202 104.169 163.589 104.231 164.033H103.141C103.058 163.71 102.873 163.423 102.587 163.174C102.304 162.922 101.922 162.795 101.442 162.795C101.018 162.795 100.645 162.906 100.325 163.128C100.008 163.346 99.7604 163.656 99.5819 164.056C99.4064 164.453 99.3187 164.919 99.3187 165.455C99.3187 166.002 99.4049 166.479 99.5772 166.886C99.7527 167.292 99.9989 167.607 100.316 167.832C100.636 168.057 101.011 168.169 101.442 168.169C101.725 168.169 101.982 168.12 102.213 168.021C102.444 167.923 102.64 167.781 102.8 167.597C102.96 167.412 103.073 167.19 103.141 166.932H104.231C104.169 167.35 104.017 167.727 103.774 168.063C103.534 168.395 103.215 168.66 102.818 168.857C102.424 169.051 101.965 169.148 101.442 169.148ZM105.823 169V161.909H106.876V162.98H106.95C107.079 162.629 107.313 162.345 107.651 162.126C107.99 161.908 108.372 161.798 108.796 161.798C108.876 161.798 108.976 161.8 109.096 161.803C109.216 161.806 109.307 161.811 109.369 161.817V162.925C109.332 162.915 109.247 162.902 109.115 162.883C108.986 162.862 108.849 162.851 108.704 162.851C108.359 162.851 108.052 162.923 107.781 163.068C107.513 163.209 107.301 163.406 107.144 163.659C106.99 163.908 106.913 164.193 106.913 164.513V169H105.823ZM113.417 169.148C112.734 169.148 112.145 168.997 111.649 168.695C111.157 168.391 110.777 167.966 110.509 167.421C110.244 166.873 110.112 166.236 110.112 165.51C110.112 164.784 110.244 164.143 110.509 163.589C110.777 163.032 111.149 162.598 111.626 162.288C112.106 161.974 112.666 161.817 113.307 161.817C113.676 161.817 114.041 161.878 114.401 162.001C114.761 162.125 115.089 162.325 115.384 162.602C115.68 162.875 115.915 163.239 116.09 163.691C116.266 164.143 116.354 164.701 116.354 165.362V165.824H110.888V164.882H115.246C115.246 164.482 115.166 164.125 115.006 163.811C114.849 163.497 114.624 163.249 114.331 163.068C114.042 162.886 113.701 162.795 113.307 162.795C112.873 162.795 112.497 162.903 112.18 163.119C111.866 163.331 111.625 163.608 111.455 163.95C111.286 164.291 111.202 164.657 111.202 165.048V165.676C111.202 166.212 111.294 166.666 111.479 167.038C111.666 167.407 111.926 167.689 112.259 167.883C112.591 168.074 112.977 168.169 113.417 168.169C113.704 168.169 113.962 168.129 114.193 168.049C114.427 167.966 114.628 167.843 114.798 167.68C114.967 167.513 115.098 167.307 115.19 167.061L116.243 167.357C116.132 167.714 115.946 168.027 115.684 168.298C115.423 168.566 115.099 168.775 114.715 168.926C114.33 169.074 113.898 169.148 113.417 169.148ZM120.097 169.166C119.648 169.166 119.24 169.082 118.874 168.912C118.508 168.74 118.217 168.492 118.002 168.169C117.786 167.843 117.678 167.449 117.678 166.987C117.678 166.581 117.758 166.252 117.919 165.999C118.079 165.744 118.292 165.544 118.56 165.399C118.828 165.254 119.123 165.147 119.447 165.076C119.773 165.002 120.101 164.944 120.43 164.901C120.861 164.845 121.21 164.804 121.478 164.776C121.749 164.745 121.946 164.694 122.069 164.624C122.195 164.553 122.258 164.43 122.258 164.254V164.217C122.258 163.762 122.133 163.408 121.884 163.156C121.638 162.903 121.264 162.777 120.762 162.777C120.242 162.777 119.834 162.891 119.539 163.119C119.243 163.346 119.036 163.589 118.916 163.848L117.882 163.479C118.066 163.048 118.312 162.712 118.62 162.472C118.931 162.229 119.27 162.06 119.636 161.964C120.005 161.866 120.368 161.817 120.725 161.817C120.953 161.817 121.215 161.844 121.51 161.9C121.809 161.952 122.096 162.061 122.373 162.228C122.653 162.394 122.886 162.645 123.07 162.98C123.255 163.316 123.347 163.765 123.347 164.328V169H122.258V168.04H122.203C122.129 168.194 122.006 168.358 121.833 168.534C121.661 168.709 121.432 168.858 121.145 168.982C120.859 169.105 120.51 169.166 120.097 169.166ZM120.264 168.188C120.695 168.188 121.058 168.103 121.353 167.934C121.652 167.764 121.876 167.546 122.027 167.278C122.181 167.01 122.258 166.729 122.258 166.433V165.436C122.212 165.491 122.11 165.542 121.953 165.588C121.799 165.632 121.621 165.67 121.418 165.704C121.218 165.735 121.022 165.762 120.831 165.787C120.644 165.808 120.491 165.827 120.374 165.842C120.091 165.879 119.827 165.939 119.58 166.022C119.337 166.102 119.14 166.224 118.99 166.387C118.842 166.547 118.768 166.766 118.768 167.043C118.768 167.421 118.908 167.707 119.188 167.901C119.471 168.092 119.83 168.188 120.264 168.188ZM130.359 163.497L129.38 163.774C129.319 163.611 129.228 163.453 129.108 163.299C128.991 163.142 128.831 163.012 128.628 162.911C128.424 162.809 128.164 162.759 127.847 162.759C127.413 162.759 127.052 162.859 126.763 163.059C126.476 163.256 126.333 163.506 126.333 163.811C126.333 164.082 126.432 164.296 126.629 164.453C126.826 164.61 127.133 164.741 127.552 164.845L128.604 165.104C129.238 165.258 129.711 165.493 130.022 165.81C130.333 166.124 130.488 166.529 130.488 167.024C130.488 167.43 130.371 167.794 130.137 168.114C129.906 168.434 129.583 168.686 129.168 168.871C128.752 169.055 128.269 169.148 127.718 169.148C126.995 169.148 126.396 168.991 125.922 168.677C125.448 168.363 125.148 167.904 125.022 167.301L126.056 167.043C126.155 167.424 126.341 167.71 126.615 167.901C126.892 168.092 127.253 168.188 127.7 168.188C128.207 168.188 128.611 168.08 128.909 167.864C129.211 167.646 129.362 167.384 129.362 167.08C129.362 166.833 129.275 166.627 129.103 166.461C128.931 166.292 128.666 166.165 128.309 166.082L127.127 165.805C126.478 165.652 126.001 165.413 125.696 165.09C125.395 164.764 125.244 164.356 125.244 163.866C125.244 163.466 125.356 163.112 125.581 162.805C125.808 162.497 126.118 162.255 126.509 162.08C126.903 161.904 127.349 161.817 127.847 161.817C128.549 161.817 129.1 161.971 129.5 162.278C129.903 162.586 130.189 162.992 130.359 163.497ZM135.101 169.148C134.418 169.148 133.828 168.997 133.333 168.695C132.84 168.391 132.46 167.966 132.193 167.421C131.928 166.873 131.796 166.236 131.796 165.51C131.796 164.784 131.928 164.143 132.193 163.589C132.46 163.032 132.833 162.598 133.31 162.288C133.79 161.974 134.35 161.817 134.99 161.817C135.36 161.817 135.724 161.878 136.084 162.001C136.444 162.125 136.772 162.325 137.068 162.602C137.363 162.875 137.599 163.239 137.774 163.691C137.949 164.143 138.037 164.701 138.037 165.362V165.824H132.571V164.882H136.929C136.929 164.482 136.849 164.125 136.689 163.811C136.532 163.497 136.307 163.249 136.015 163.068C135.726 162.886 135.384 162.795 134.99 162.795C134.556 162.795 134.181 162.903 133.864 163.119C133.55 163.331 133.308 163.608 133.139 163.95C132.97 164.291 132.885 164.657 132.885 165.048V165.676C132.885 166.212 132.977 166.666 133.162 167.038C133.35 167.407 133.61 167.689 133.942 167.883C134.275 168.074 134.661 168.169 135.101 168.169C135.387 168.169 135.646 168.129 135.877 168.049C136.11 167.966 136.312 167.843 136.481 167.68C136.651 167.513 136.781 167.307 136.874 167.061L137.926 167.357C137.816 167.714 137.629 168.027 137.368 168.298C137.106 168.566 136.783 168.775 136.398 168.926C136.014 169.074 135.581 169.148 135.101 169.148Z" fill="#2E263D" fill-opacity="0.7"/>
</g>
<defs>
<filter id="filter0_d_8003_2555" x="0" y="0" width="188.667" height="208" filterUnits="userSpaceOnUse" color-interpolation-filters="sRGB">
<feFlood flood-opacity="0" result="BackgroundImageFix"/>
<feColorMatrix in="SourceAlpha" type="matrix" values="0 0 0 0 0 0 0 0 0 0 0 0 0 0 0 0 0 0 127 0" result="hardAlpha"/>
<feOffset dy="4"/>
<feGaussianBlur stdDeviation="5"/>
<feComposite in2="hardAlpha" operator="out"/>
<feColorMatrix type="matrix" values="0 0 0 0 0.180392 0 0 0 0 0.14902 0 0 0 0 0.239216 0 0 0 0.2 0"/>
<feBlend mode="normal" in2="BackgroundImageFix" result="effect1_dropShadow_8003_2555"/>
<feBlend mode="normal" in="SourceGraphic" in2="effect1_dropShadow_8003_2555" result="shape"/>
</filter>
<filter id="filter1_d_8003_2555" x="26" y="24" width="48" height="48" filterUnits="userSpaceOnUse" color-interpolation-filters="sRGB">
<feFlood flood-opacity="0" result="BackgroundImageFix"/>
<feColorMatrix in="SourceAlpha" type="matrix" values="0 0 0 0 0 0 0 0 0 0 0 0 0 0 0 0 0 0 127 0" result="hardAlpha"/>
<feOffset dy="2"/>
<feGaussianBlur stdDeviation="2"/>
<feColorMatrix type="matrix" values="0 0 0 0 0.180392 0 0 0 0 0.14902 0 0 0 0 0.239216 0 0 0 0.16 0"/>
<feBlend mode="normal" in2="BackgroundImageFix" result="effect1_dropShadow_8003_2555"/>
<feBlend mode="normal" in="SourceGraphic" in2="effect1_dropShadow_8003_2555" result="shape"/>
</filter>
</defs>
</svg>
