<svg width="574" height="350" viewBox="0 0 574 350" fill="none" xmlns="http://www.w3.org/2000/svg">
<g filter="url(#filter0_d_8003_5954)">
<g clip-path="url(#clip0_8003_5954)">
<path d="M10 12C10 8.68629 12.6863 6 16 6H558C561.314 6 564 8.68629 564 12V330C564 333.314 561.314 336 558 336H16C12.6863 336 10 333.314 10 330V12Z" fill="white"/>
<path d="M38.5781 37.348C38.5099 36.7429 38.2287 36.2741 37.7344 35.9418C37.2401 35.6051 36.6179 35.4368 35.8679 35.4368C35.331 35.4368 34.8665 35.522 34.4744 35.6925C34.0824 35.8587 33.7777 36.0888 33.5604 36.3828C33.3473 36.6726 33.2408 37.0028 33.2408 37.3736C33.2408 37.6847 33.3132 37.9531 33.4581 38.179C33.6072 38.4048 33.8011 38.5945 34.0398 38.7479C34.2827 38.897 34.5426 39.0227 34.8196 39.125C35.0966 39.223 35.3629 39.304 35.6186 39.3679L36.897 39.7003C37.3146 39.8026 37.7429 39.9411 38.1818 40.1158C38.6207 40.2905 39.0277 40.5206 39.4027 40.8061C39.7777 41.0916 40.0803 41.4453 40.3104 41.8672C40.5447 42.2891 40.6619 42.794 40.6619 43.3821C40.6619 44.1236 40.4702 44.782 40.0866 45.3572C39.7074 45.9325 39.1555 46.3864 38.4311 46.7188C37.7109 47.0511 36.8395 47.2173 35.8168 47.2173C34.8366 47.2173 33.9886 47.0618 33.2727 46.7507C32.5568 46.4396 31.9964 45.9986 31.5916 45.4276C31.1868 44.8523 30.9631 44.1705 30.9205 43.3821H32.902C32.9403 43.8551 33.0938 44.2493 33.3622 44.5646C33.6349 44.8757 33.9822 45.108 34.4041 45.2614C34.8303 45.4105 35.2969 45.4851 35.804 45.4851C36.3622 45.4851 36.8587 45.3977 37.2933 45.223C37.7322 45.044 38.0774 44.7969 38.3288 44.4815C38.5803 44.1619 38.706 43.7891 38.706 43.3629C38.706 42.9751 38.5952 42.6577 38.3736 42.4105C38.1563 42.1634 37.8601 41.9588 37.4851 41.7969C37.1143 41.6349 36.6946 41.4922 36.2259 41.3686L34.679 40.9467C33.6307 40.6612 32.7997 40.2415 32.1861 39.6875C31.5767 39.1335 31.272 38.4006 31.272 37.4886C31.272 36.7344 31.4766 36.076 31.8857 35.5135C32.2947 34.951 32.8487 34.5142 33.5476 34.2031C34.2464 33.8878 35.0348 33.7301 35.9126 33.7301C36.799 33.7301 37.581 33.8857 38.2585 34.1967C38.9403 34.5078 39.4773 34.9361 39.8693 35.4815C40.2614 36.0227 40.4659 36.6449 40.483 37.348H38.5781ZM45.726 47.2173C45.1039 47.2173 44.5414 47.1023 44.0385 46.8722C43.5357 46.6378 43.1373 46.299 42.8432 45.8558C42.5534 45.4126 42.4086 44.8693 42.4086 44.2259C42.4086 43.6719 42.5151 43.2159 42.7282 42.858C42.9412 42.5 43.2289 42.2166 43.5911 42.0078C43.9533 41.799 44.3581 41.6413 44.8056 41.5348C45.253 41.4283 45.709 41.3473 46.1735 41.2919C46.7615 41.2237 47.2388 41.1683 47.6053 41.1257C47.9718 41.0788 48.2381 41.0043 48.4043 40.902C48.5705 40.7997 48.6536 40.6335 48.6536 40.4034V40.3587C48.6536 39.8004 48.4959 39.3679 48.1806 39.0611C47.8695 38.7543 47.405 38.6009 46.7871 38.6009C46.1436 38.6009 45.6365 38.7436 45.2658 39.0291C44.8993 39.3104 44.6458 39.6236 44.5051 39.9688L42.709 39.5597C42.9221 38.9631 43.2331 38.4815 43.6422 38.1151C44.0556 37.7443 44.5307 37.4759 45.0676 37.3097C45.6046 37.1392 46.1692 37.054 46.7615 37.054C47.1536 37.054 47.5691 37.1009 48.008 37.1946C48.4512 37.2841 48.8645 37.4503 49.248 37.6932C49.6358 37.9361 49.9533 38.2834 50.2005 38.7351C50.4476 39.1825 50.5712 39.7642 50.5712 40.4801V47H48.7047V45.6577H48.628C48.5044 45.9048 48.3191 46.1477 48.0719 46.3864C47.8248 46.625 47.5073 46.8232 47.1195 46.9808C46.7317 47.1385 46.2672 47.2173 45.726 47.2173ZM46.1415 45.6832C46.6699 45.6832 47.1216 45.5788 47.4966 45.37C47.8759 45.1612 48.1635 44.8885 48.3596 44.5518C48.5598 44.2109 48.66 43.8466 48.66 43.4588V42.1932C48.5918 42.2614 48.4597 42.3253 48.2637 42.3849C48.0719 42.4403 47.8525 42.4893 47.6053 42.532C47.3581 42.5703 47.1174 42.6065 46.883 42.6406C46.6486 42.6705 46.4526 42.696 46.2949 42.7173C45.9242 42.7642 45.5854 42.843 45.2786 42.9538C44.976 43.0646 44.7331 43.2244 44.5499 43.4332C44.3709 43.6378 44.2814 43.9105 44.2814 44.2514C44.2814 44.7244 44.4561 45.0824 44.8056 45.3253C45.155 45.5639 45.6003 45.6832 46.1415 45.6832ZM55.0281 33.9091V47H53.1168V33.9091H55.0281ZM61.8308 47.1982C60.8635 47.1982 60.0304 46.9915 59.3315 46.5781C58.6369 46.1605 58.1 45.5746 57.7207 44.8203C57.3457 44.0618 57.1582 43.1733 57.1582 42.1548C57.1582 41.1491 57.3457 40.2628 57.7207 39.4957C58.1 38.7287 58.6284 38.13 59.3059 37.6996C59.9877 37.2692 60.7846 37.054 61.6966 37.054C62.2505 37.054 62.7875 37.1456 63.3074 37.3288C63.8272 37.5121 64.2939 37.7997 64.7072 38.1918C65.1206 38.5838 65.4466 39.093 65.6852 39.7195C65.9238 40.3416 66.0431 41.098 66.0431 41.9886V42.6662H58.2385V41.2344H64.1703C64.1703 40.7315 64.068 40.2862 63.8635 39.8984C63.6589 39.5064 63.3713 39.1974 63.0005 38.9716C62.6341 38.7457 62.2037 38.6328 61.7093 38.6328C61.1724 38.6328 60.7037 38.7649 60.3031 39.0291C59.9068 39.2891 59.6 39.63 59.3826 40.0518C59.1696 40.4695 59.063 40.9233 59.063 41.4134V42.532C59.063 43.1882 59.1781 43.7464 59.4082 44.2067C59.6426 44.6669 59.9686 45.0185 60.3862 45.2614C60.8038 45.5 61.2917 45.6193 61.85 45.6193C62.2122 45.6193 62.5424 45.5682 62.8407 45.4659C63.139 45.3594 63.3968 45.2017 63.6142 44.9929C63.8315 44.7841 63.9977 44.5263 64.1127 44.2195L65.9217 44.5455C65.7768 45.0781 65.5169 45.5447 65.1419 45.9453C64.7711 46.3416 64.3045 46.6506 63.742 46.8722C63.1838 47.0895 62.5467 47.1982 61.8308 47.1982ZM75.521 39.5788L73.7887 39.8857C73.7163 39.6641 73.6012 39.4531 73.4435 39.2528C73.2901 39.0526 73.0813 38.8885 72.8171 38.7607C72.5529 38.6328 72.2227 38.5689 71.8263 38.5689C71.2852 38.5689 70.8335 38.6903 70.4712 38.9332C70.109 39.1719 69.9279 39.4808 69.9279 39.8601C69.9279 40.1882 70.0494 40.4524 70.2923 40.6527C70.5352 40.853 70.9272 41.017 71.4684 41.1449L73.0281 41.5028C73.9315 41.7116 74.6048 42.0334 75.0479 42.468C75.4911 42.9027 75.7127 43.4673 75.7127 44.1619C75.7127 44.75 75.5423 45.2741 75.2013 45.7344C74.8647 46.1903 74.3938 46.5483 73.7887 46.8082C73.1879 47.0682 72.4911 47.1982 71.6985 47.1982C70.5991 47.1982 69.7021 46.9638 69.0075 46.495C68.3129 46.022 67.8867 45.3509 67.729 44.4815L69.5763 44.2003C69.6914 44.6818 69.9279 45.0462 70.2859 45.2933C70.6438 45.5362 71.1104 45.6577 71.6857 45.6577C72.3121 45.6577 72.8129 45.5277 73.1879 45.2678C73.5629 45.0036 73.7504 44.6818 73.7504 44.3026C73.7504 43.9957 73.6353 43.7379 73.4052 43.5291C73.1793 43.3203 72.832 43.1626 72.3633 43.0561L70.7013 42.6918C69.7852 42.483 69.1076 42.1506 68.6687 41.6946C68.234 41.2386 68.0167 40.6612 68.0167 39.9624C68.0167 39.3828 68.1786 38.8757 68.5025 38.4411C68.8263 38.0064 69.2738 37.6676 69.8448 37.4247C70.4158 37.1776 71.07 37.054 71.8072 37.054C72.8683 37.054 73.7035 37.2841 74.3129 37.7443C74.9222 38.2003 75.3249 38.8118 75.521 39.5788ZM94.1026 40.4545C94.1026 41.8523 93.8469 43.054 93.3356 44.0597C92.8242 45.0611 92.1232 45.8324 91.2326 46.3736C90.3462 46.9105 89.3384 47.179 88.2092 47.179C87.0756 47.179 86.0636 46.9105 85.1729 46.3736C84.2866 45.8324 83.5877 45.0589 83.0763 44.0533C82.565 43.0476 82.3093 41.848 82.3093 40.4545C82.3093 39.0568 82.565 37.8572 83.0763 36.8558C83.5877 35.8501 84.2866 35.0788 85.1729 34.5419C86.0636 34.0007 87.0756 33.7301 88.2092 33.7301C89.3384 33.7301 90.3462 34.0007 91.2326 34.5419C92.1232 35.0788 92.8242 35.8501 93.3356 36.8558C93.8469 37.8572 94.1026 39.0568 94.1026 40.4545ZM92.1467 40.4545C92.1467 39.3892 91.9741 38.4922 91.6289 37.7635C91.288 37.0305 90.8192 36.4766 90.2227 36.1016C89.6303 35.7223 88.9592 35.5327 88.2092 35.5327C87.4549 35.5327 86.7816 35.7223 86.1893 36.1016C85.5969 36.4766 85.1282 37.0305 84.783 37.7635C84.4421 38.4922 84.2717 39.3892 84.2717 40.4545C84.2717 41.5199 84.4421 42.419 84.783 43.152C85.1282 43.8807 85.5969 44.4347 86.1893 44.8139C86.7816 45.1889 87.4549 45.3764 88.2092 45.3764C88.9592 45.3764 89.6303 45.1889 90.2227 44.8139C90.8192 44.4347 91.288 43.8807 91.6289 43.152C91.9741 42.419 92.1467 41.5199 92.1467 40.4545ZM104.811 37.1818L101.251 47H99.2051L95.6383 37.1818H97.6902L100.177 44.7372H100.279L102.759 37.1818H104.811ZM110.505 47.1982C109.537 47.1982 108.704 46.9915 108.005 46.5781C107.311 46.1605 106.774 45.5746 106.395 44.8203C106.02 44.0618 105.832 43.1733 105.832 42.1548C105.832 41.1491 106.02 40.2628 106.395 39.4957C106.774 38.7287 107.302 38.13 107.98 37.6996C108.662 37.2692 109.458 37.054 110.37 37.054C110.924 37.054 111.461 37.1456 111.981 37.3288C112.501 37.5121 112.968 37.7997 113.381 38.1918C113.794 38.5838 114.12 39.093 114.359 39.7195C114.598 40.3416 114.717 41.098 114.717 41.9886V42.6662H106.912V41.2344H112.844C112.844 40.7315 112.742 40.2862 112.537 39.8984C112.333 39.5064 112.045 39.1974 111.674 38.9716C111.308 38.7457 110.877 38.6328 110.383 38.6328C109.846 38.6328 109.377 38.7649 108.977 39.0291C108.581 39.2891 108.274 39.63 108.056 40.0518C107.843 40.4695 107.737 40.9233 107.737 41.4134V42.532C107.737 43.1882 107.852 43.7464 108.082 44.2067C108.316 44.6669 108.642 45.0185 109.06 45.2614C109.478 45.5 109.966 45.6193 110.524 45.6193C110.886 45.6193 111.216 45.5682 111.515 45.4659C111.813 45.3594 112.071 45.2017 112.288 44.9929C112.505 44.7841 112.672 44.5263 112.787 44.2195L114.596 44.5455C114.451 45.0781 114.191 45.5447 113.816 45.9453C113.445 46.3416 112.978 46.6506 112.416 46.8722C111.858 47.0895 111.221 47.1982 110.505 47.1982ZM116.838 47V37.1818H118.685V38.7415H118.787C118.966 38.2131 119.281 37.7976 119.733 37.495C120.189 37.1882 120.705 37.0348 121.28 37.0348C121.399 37.0348 121.54 37.0391 121.702 37.0476C121.868 37.0561 121.998 37.0668 122.092 37.0795V38.9077C122.015 38.8864 121.879 38.8629 121.683 38.8374C121.487 38.8075 121.291 38.7926 121.095 38.7926C120.643 38.7926 120.24 38.8885 119.887 39.0803C119.537 39.2678 119.26 39.5298 119.056 39.8665C118.851 40.1989 118.749 40.5781 118.749 41.0043V47H116.838ZM132.444 37.1818L128.883 47H126.838L123.271 37.1818H125.323L127.809 44.7372H127.912L130.392 37.1818H132.444ZM134.24 47V37.1818H136.151V47H134.24ZM135.205 35.6669C134.873 35.6669 134.587 35.5561 134.349 35.3345C134.114 35.1087 133.997 34.8402 133.997 34.5291C133.997 34.2138 134.114 33.9453 134.349 33.7237C134.587 33.4979 134.873 33.3849 135.205 33.3849C135.537 33.3849 135.821 33.4979 136.055 33.7237C136.294 33.9453 136.413 34.2138 136.413 34.5291C136.413 34.8402 136.294 35.1087 136.055 35.3345C135.821 35.5561 135.537 35.6669 135.205 35.6669ZM142.954 47.1982C141.987 47.1982 141.153 46.9915 140.455 46.5781C139.76 46.1605 139.223 45.5746 138.844 44.8203C138.469 44.0618 138.281 43.1733 138.281 42.1548C138.281 41.1491 138.469 40.2628 138.844 39.4957C139.223 38.7287 139.751 38.13 140.429 37.6996C141.111 37.2692 141.908 37.054 142.82 37.054C143.374 37.054 143.911 37.1456 144.43 37.3288C144.95 37.5121 145.417 37.7997 145.83 38.1918C146.244 38.5838 146.57 39.093 146.808 39.7195C147.047 40.3416 147.166 41.098 147.166 41.9886V42.6662H139.362V41.2344H145.293C145.293 40.7315 145.191 40.2862 144.987 39.8984C144.782 39.5064 144.494 39.1974 144.124 38.9716C143.757 38.7457 143.327 38.6328 142.832 38.6328C142.295 38.6328 141.827 38.7649 141.426 39.0291C141.03 39.2891 140.723 39.63 140.506 40.0518C140.293 40.4695 140.186 40.9233 140.186 41.4134V42.532C140.186 43.1882 140.301 43.7464 140.531 44.2067C140.766 44.6669 141.092 45.0185 141.509 45.2614C141.927 45.5 142.415 45.6193 142.973 45.6193C143.335 45.6193 143.665 45.5682 143.964 45.4659C144.262 45.3594 144.52 45.2017 144.737 44.9929C144.955 44.7841 145.121 44.5263 145.236 44.2195L147.045 44.5455C146.9 45.0781 146.64 45.5447 146.265 45.9453C145.894 46.3416 145.428 46.6506 144.865 46.8722C144.307 47.0895 143.67 47.1982 142.954 47.1982ZM151.398 47L148.509 37.1818H150.484L152.408 44.392H152.504L154.434 37.1818H156.409L158.327 44.3601H158.423L160.334 37.1818H162.309L159.426 47H157.477L155.482 39.9112H155.335L153.341 47H151.398Z" fill="#2E263D" fill-opacity="0.9"/>
<path d="M532 29C531.175 29 530.5 29.675 530.5 30.5C530.5 31.325 531.175 32 532 32C532.825 32 533.5 31.325 533.5 30.5C533.5 29.675 532.825 29 532 29ZM532 44C531.175 44 530.5 44.675 530.5 45.5C530.5 46.325 531.175 47 532 47C532.825 47 533.5 46.325 533.5 45.5C533.5 44.675 532.825 44 532 44ZM532 36.5C531.175 36.5 530.5 37.175 530.5 38C530.5 38.825 531.175 39.5 532 39.5C532.825 39.5 533.5 38.825 533.5 38C533.5 37.175 532.825 36.5 532 36.5Z" fill="#2E263D" fill-opacity="0.9"/>
<path d="M140.062 101.745C113.012 101.991 87.1379 112.842 68.0045 131.966C48.871 151.089 38.0061 176.957 37.746 204.007C37.4858 231.057 47.8512 257.129 66.6133 276.617C85.3753 296.105 111.036 307.451 138.076 308.217L138.953 277.252C120.025 276.716 102.063 268.773 88.9293 255.132C75.7958 241.491 68.5401 223.24 68.7222 204.305C68.9043 185.37 76.5097 167.262 89.9031 153.876C103.297 140.49 121.408 132.894 140.343 132.722L140.062 101.745Z" fill="#F0F2F8"/>
<path opacity="0.5" d="M211.172 280.751C201.224 289.967 189.559 297.132 176.842 301.839C164.125 306.546 150.605 308.702 137.055 308.183L138.238 277.228C147.723 277.591 157.187 276.082 166.089 272.787C174.991 269.492 183.157 264.477 190.12 258.026L211.172 280.751Z" fill="#8C57FF"/>
<path d="M140.062 101.745C166.902 101.502 192.782 111.718 212.217 130.23L190.852 152.661C177.247 139.703 159.131 132.551 140.343 132.722L140.062 101.745Z" fill="#8C57FF"/>
<path opacity="0.7" d="M212.088 130.107C222.326 139.826 230.464 151.54 235.997 164.528C241.53 177.515 244.341 191.498 244.257 205.615C244.173 219.731 241.195 233.681 235.508 246.601C229.821 259.521 221.544 271.138 211.191 280.734L190.133 258.014C197.381 251.297 203.174 243.165 207.156 234.121C211.137 225.076 213.221 215.312 213.28 205.43C213.339 195.549 211.371 185.76 207.498 176.669C203.625 167.578 197.928 159.378 190.761 152.575L212.088 130.107Z" fill="#8C57FF"/>
<path d="M122.592 185.971V203.426H119.95V188.613H119.847L115.671 191.341V188.818L120.026 185.971H122.592ZM133.39 203.716C132.043 203.71 130.893 203.355 129.938 202.65C128.984 201.946 128.254 200.92 127.748 199.574C127.242 198.227 126.989 196.605 126.989 194.707C126.989 192.815 127.242 191.199 127.748 189.858C128.259 188.517 128.992 187.494 129.947 186.789C130.907 186.085 132.055 185.733 133.39 185.733C134.725 185.733 135.87 186.088 136.825 186.798C137.779 187.502 138.509 188.525 139.015 189.866C139.526 191.201 139.782 192.815 139.782 194.707C139.782 196.61 139.529 198.235 139.024 199.582C138.518 200.923 137.788 201.949 136.833 202.659C135.879 203.363 134.731 203.716 133.39 203.716ZM133.39 201.44C134.572 201.44 135.495 200.863 136.16 199.71C136.83 198.556 137.166 196.889 137.166 194.707C137.166 193.258 137.012 192.034 136.705 191.034C136.404 190.028 135.97 189.267 135.401 188.75C134.839 188.227 134.168 187.966 133.39 187.966C132.214 187.966 131.291 188.545 130.62 189.704C129.95 190.863 129.612 192.531 129.606 194.707C129.606 196.162 129.756 197.392 130.058 198.397C130.364 199.397 130.799 200.156 131.362 200.673C131.924 201.184 132.6 201.44 133.39 201.44ZM142.805 203.426V201.517L148.712 195.397C149.342 194.733 149.862 194.15 150.271 193.65C150.686 193.145 150.996 192.664 151.2 192.21C151.405 191.755 151.507 191.272 151.507 190.761C151.507 190.181 151.371 189.681 151.098 189.261C150.825 188.835 150.453 188.508 149.982 188.281C149.51 188.048 148.979 187.931 148.388 187.931C147.763 187.931 147.217 188.059 146.751 188.315C146.286 188.571 145.928 188.931 145.678 189.397C145.428 189.863 145.303 190.409 145.303 191.034H142.788C142.788 189.971 143.033 189.042 143.521 188.247C144.01 187.451 144.68 186.835 145.533 186.397C146.385 185.954 147.354 185.733 148.439 185.733C149.536 185.733 150.501 185.951 151.337 186.389C152.178 186.821 152.834 187.412 153.305 188.162C153.777 188.906 154.013 189.747 154.013 190.684C154.013 191.332 153.891 191.966 153.646 192.585C153.408 193.204 152.99 193.895 152.394 194.656C151.797 195.412 150.967 196.329 149.905 197.409L146.436 201.039V201.167H154.294V203.426H142.805ZM159.902 198.985L159.885 195.875H160.328L165.544 190.335H168.595L162.646 196.642H162.246L159.902 198.985ZM157.558 203.426V185.971H160.107V203.426H157.558ZM165.825 203.426L161.138 197.204L162.894 195.423L168.953 203.426H165.825Z" fill="#2E263D" fill-opacity="0.9"/>
<path d="M97.9188 227.311L94.9358 216.401H96.2781L98.558 225.286H98.6645L100.987 216.401H102.478L104.801 225.286H104.907L107.187 216.401H108.53L105.547 227.311H104.183L101.775 218.617H101.69L99.2824 227.311H97.9188ZM112.674 227.481C111.885 227.481 111.205 227.307 110.634 226.959C110.065 226.607 109.627 226.117 109.318 225.489C109.013 224.857 108.86 224.122 108.86 223.284C108.86 222.445 109.013 221.707 109.318 221.068C109.627 220.425 110.057 219.924 110.607 219.566C111.161 219.203 111.807 219.022 112.546 219.022C112.972 219.022 113.393 219.093 113.808 219.235C114.224 219.377 114.602 219.608 114.943 219.928C115.284 220.244 115.555 220.663 115.758 221.185C115.96 221.707 116.062 222.35 116.062 223.113V223.646H109.755V222.559H114.783C114.783 222.097 114.691 221.686 114.506 221.323C114.325 220.961 114.066 220.675 113.728 220.466C113.395 220.256 113 220.151 112.546 220.151C112.045 220.151 111.612 220.276 111.246 220.524C110.884 220.769 110.605 221.089 110.41 221.483C110.215 221.877 110.117 222.3 110.117 222.751V223.475C110.117 224.093 110.223 224.617 110.437 225.047C110.653 225.473 110.953 225.798 111.337 226.021C111.72 226.242 112.166 226.352 112.674 226.352C113.004 226.352 113.302 226.306 113.569 226.213C113.839 226.117 114.071 225.975 114.266 225.787C114.462 225.595 114.613 225.357 114.719 225.073L115.934 225.414C115.806 225.826 115.591 226.188 115.289 226.501C114.987 226.81 114.614 227.051 114.171 227.225C113.727 227.396 113.228 227.481 112.674 227.481ZM121.404 227.481C120.616 227.481 119.936 227.307 119.364 226.959C118.796 226.607 118.357 226.117 118.048 225.489C117.743 224.857 117.59 224.122 117.59 223.284C117.59 222.445 117.743 221.707 118.048 221.068C118.357 220.425 118.787 219.924 119.337 219.566C119.891 219.203 120.538 219.022 121.276 219.022C121.703 219.022 122.123 219.093 122.539 219.235C122.954 219.377 123.332 219.608 123.673 219.928C124.014 220.244 124.286 220.663 124.488 221.185C124.691 221.707 124.792 222.35 124.792 223.113V223.646H118.485V222.559H123.514C123.514 222.097 123.421 221.686 123.237 221.323C123.055 220.961 122.796 220.675 122.459 220.466C122.125 220.256 121.731 220.151 121.276 220.151C120.776 220.151 120.342 220.276 119.977 220.524C119.614 220.769 119.336 221.089 119.14 221.483C118.945 221.877 118.847 222.3 118.847 222.751V223.475C118.847 224.093 118.954 224.617 119.167 225.047C119.384 225.473 119.684 225.798 120.067 226.021C120.451 226.242 120.896 226.352 121.404 226.352C121.734 226.352 122.033 226.306 122.299 226.213C122.569 226.117 122.802 225.975 122.997 225.787C123.192 225.595 123.343 225.357 123.45 225.073L124.664 225.414C124.536 225.826 124.321 226.188 124.02 226.501C123.718 226.81 123.345 227.051 122.901 227.225C122.457 227.396 121.958 227.481 121.404 227.481ZM127.876 224.328L127.855 222.772H128.111L131.69 219.129H133.245L129.432 222.985H129.325L127.876 224.328ZM126.704 227.311V216.401H127.961V227.311H126.704ZM131.903 227.311L128.707 223.262L129.602 222.389L133.501 227.311H131.903ZM136.121 216.401V227.311H134.863V216.401H136.121ZM139.233 230.379C139.02 230.379 138.83 230.361 138.663 230.325C138.496 230.294 138.38 230.262 138.316 230.23L138.636 229.122C138.941 229.2 139.211 229.228 139.446 229.207C139.68 229.186 139.888 229.081 140.069 228.893C140.254 228.708 140.422 228.408 140.575 227.992L140.809 227.353L137.784 219.129H139.147L141.406 225.649H141.491L143.75 219.129H145.113L141.64 228.504C141.484 228.926 141.291 229.276 141.06 229.553C140.829 229.834 140.561 230.041 140.255 230.176C139.954 230.311 139.613 230.379 139.233 230.379ZM151.609 216.401L154.848 225.585H154.976L158.214 216.401H159.599L155.594 227.311H154.23L150.224 216.401H151.609ZM161.128 227.311V219.129H162.385V227.311H161.128ZM161.767 217.765C161.522 217.765 161.311 217.682 161.133 217.515C160.959 217.348 160.872 217.147 160.872 216.913C160.872 216.678 160.959 216.478 161.133 216.311C161.311 216.144 161.522 216.061 161.767 216.061C162.012 216.061 162.222 216.144 162.396 216.311C162.573 216.478 162.662 216.678 162.662 216.913C162.662 217.147 162.573 217.348 162.396 217.515C162.222 217.682 162.012 217.765 161.767 217.765ZM170.483 220.961L169.354 221.281C169.283 221.093 169.178 220.91 169.04 220.732C168.905 220.551 168.72 220.402 168.486 220.285C168.251 220.167 167.951 220.109 167.585 220.109C167.085 220.109 166.667 220.224 166.334 220.455C166.003 220.682 165.838 220.972 165.838 221.323C165.838 221.636 165.952 221.883 166.179 222.064C166.406 222.245 166.762 222.396 167.244 222.517L168.459 222.815C169.191 222.992 169.736 223.264 170.094 223.63C170.453 223.992 170.632 224.459 170.632 225.031C170.632 225.499 170.497 225.919 170.227 226.288C169.961 226.657 169.588 226.948 169.109 227.161C168.629 227.374 168.072 227.481 167.436 227.481C166.602 227.481 165.911 227.3 165.364 226.938C164.817 226.575 164.471 226.046 164.325 225.35L165.519 225.052C165.632 225.492 165.847 225.823 166.163 226.043C166.483 226.263 166.9 226.373 167.415 226.373C168.001 226.373 168.466 226.249 168.811 226C169.159 225.748 169.333 225.446 169.333 225.095C169.333 224.811 169.233 224.573 169.034 224.381C168.835 224.186 168.53 224.04 168.118 223.944L166.754 223.624C166.005 223.447 165.455 223.172 165.103 222.799C164.755 222.422 164.581 221.952 164.581 221.387C164.581 220.926 164.711 220.517 164.97 220.162C165.233 219.807 165.59 219.528 166.041 219.326C166.495 219.123 167.01 219.022 167.585 219.022C168.395 219.022 169.031 219.2 169.492 219.555C169.958 219.91 170.288 220.379 170.483 220.961ZM172.525 227.311V219.129H173.782V227.311H172.525ZM173.164 217.765C172.919 217.765 172.707 217.682 172.53 217.515C172.356 217.348 172.269 217.147 172.269 216.913C172.269 216.678 172.356 216.478 172.53 216.311C172.707 216.144 172.919 216.061 173.164 216.061C173.409 216.061 173.618 216.144 173.792 216.311C173.97 216.478 174.059 216.678 174.059 216.913C174.059 217.147 173.97 217.348 173.792 217.515C173.618 217.682 173.409 217.765 173.164 217.765ZM179.642 219.129V220.194H175.402V219.129H179.642ZM176.638 217.169H177.895V224.967C177.895 225.322 177.947 225.588 178.05 225.766C178.156 225.94 178.291 226.057 178.455 226.117C178.621 226.174 178.797 226.203 178.982 226.203C179.12 226.203 179.234 226.195 179.323 226.181C179.412 226.164 179.483 226.149 179.536 226.139L179.792 227.268C179.706 227.3 179.587 227.332 179.435 227.364C179.282 227.399 179.088 227.417 178.854 227.417C178.499 227.417 178.151 227.341 177.81 227.188C177.473 227.035 177.192 226.803 176.968 226.49C176.748 226.178 176.638 225.784 176.638 225.308V217.169ZM187.182 220.961L186.053 221.281C185.982 221.093 185.877 220.91 185.739 220.732C185.604 220.551 185.419 220.402 185.185 220.285C184.95 220.167 184.65 220.109 184.285 220.109C183.784 220.109 183.367 220.224 183.033 220.455C182.703 220.682 182.537 220.972 182.537 221.323C182.537 221.636 182.651 221.883 182.878 222.064C183.106 222.245 183.461 222.396 183.944 222.517L185.158 222.815C185.89 222.992 186.435 223.264 186.794 223.63C187.152 223.992 187.331 224.459 187.331 225.031C187.331 225.499 187.197 225.919 186.927 226.288C186.66 226.657 186.287 226.948 185.808 227.161C185.329 227.374 184.771 227.481 184.135 227.481C183.301 227.481 182.61 227.3 182.063 226.938C181.517 226.575 181.17 226.046 181.025 225.35L182.218 225.052C182.331 225.492 182.546 225.823 182.862 226.043C183.182 226.263 183.599 226.373 184.114 226.373C184.7 226.373 185.165 226.249 185.51 226C185.858 225.748 186.032 225.446 186.032 225.095C186.032 224.811 185.932 224.573 185.733 224.381C185.535 224.186 185.229 224.04 184.817 223.944L183.454 223.624C182.704 223.447 182.154 223.172 181.802 222.799C181.454 222.422 181.28 221.952 181.28 221.387C181.28 220.926 181.41 220.517 181.669 220.162C181.932 219.807 182.289 219.528 182.74 219.326C183.194 219.123 183.709 219.022 184.285 219.022C185.094 219.022 185.73 219.2 186.192 219.555C186.657 219.91 186.987 220.379 187.182 220.961Z" fill="#2E263D" fill-opacity="0.7"/>
<path d="M276 107C276 103.686 278.686 101 282 101H310C313.314 101 316 103.686 316 107V135C316 138.314 313.314 141 310 141H282C278.686 141 276 138.314 276 135V107Z" fill="#8C57FF" fill-opacity="0.16"/>
<path d="M302 116H305C305.265 116 305.52 116.105 305.707 116.293C305.895 116.48 306 116.735 306 117V129C306 129.265 305.895 129.52 305.707 129.707C305.52 129.895 305.265 130 305 130H287C286.735 130 286.48 129.895 286.293 129.707C286.105 129.52 286 129.265 286 129V113C286 112.735 286.105 112.48 286.293 112.293C286.48 112.105 286.735 112 287 112H302V116ZM288 118V128H304V118H288ZM288 114V116H300V114H288ZM299 122H302V124H299V122Z" fill="#8C57FF"/>
<path d="M337.972 101.091V112H336.693L330.749 103.435H330.642V112H329.321V101.091H330.599L336.565 109.678H336.672V101.091H337.972ZM345.601 108.655V103.818H346.858V112H345.601V110.615H345.516C345.324 111.031 345.025 111.384 344.621 111.675C344.216 111.963 343.704 112.107 343.087 112.107C342.575 112.107 342.121 111.995 341.723 111.771C341.325 111.544 341.013 111.203 340.785 110.748C340.558 110.29 340.445 109.713 340.445 109.017V103.818H341.702V108.932C341.702 109.528 341.869 110.004 342.202 110.359C342.54 110.714 342.969 110.892 343.491 110.892C343.804 110.892 344.122 110.812 344.445 110.652C344.772 110.493 345.045 110.248 345.265 109.917C345.489 109.587 345.601 109.166 345.601 108.655ZM349.16 112V103.818H350.375V105.097H350.481C350.652 104.66 350.927 104.321 351.307 104.079C351.687 103.834 352.143 103.712 352.676 103.712C353.216 103.712 353.665 103.834 354.024 104.079C354.386 104.321 354.668 104.66 354.871 105.097H354.956C355.165 104.674 355.48 104.338 355.899 104.09C356.318 103.838 356.82 103.712 357.406 103.712C358.138 103.712 358.736 103.941 359.201 104.399C359.666 104.853 359.899 105.562 359.899 106.524V112H358.642V106.524C358.642 105.92 358.477 105.489 358.146 105.23C357.816 104.971 357.427 104.841 356.98 104.841C356.405 104.841 355.959 105.015 355.643 105.363C355.327 105.707 355.169 106.144 355.169 106.673V112H353.89V106.396C353.89 105.931 353.74 105.556 353.438 105.272C353.136 104.985 352.747 104.841 352.271 104.841C351.944 104.841 351.639 104.928 351.355 105.102C351.074 105.276 350.847 105.517 350.673 105.826C350.503 106.132 350.417 106.485 350.417 106.886V112H349.16ZM362.368 112V101.091H363.625V105.118H363.732C363.824 104.976 363.952 104.795 364.115 104.575C364.282 104.351 364.52 104.152 364.829 103.978C365.141 103.8 365.564 103.712 366.097 103.712C366.786 103.712 367.393 103.884 367.918 104.228C368.444 104.573 368.854 105.061 369.149 105.693C369.444 106.325 369.591 107.071 369.591 107.93C369.591 108.797 369.444 109.548 369.149 110.184C368.854 110.816 368.446 111.306 367.924 111.654C367.402 111.998 366.8 112.17 366.118 112.17C365.592 112.17 365.172 112.083 364.855 111.909C364.539 111.732 364.296 111.531 364.126 111.308C363.955 111.08 363.824 110.892 363.732 110.743H363.582V112H362.368ZM363.604 107.909C363.604 108.527 363.694 109.072 363.875 109.544C364.056 110.013 364.321 110.381 364.669 110.647C365.017 110.91 365.443 111.041 365.947 111.041C366.473 111.041 366.912 110.903 367.263 110.626C367.618 110.345 367.885 109.969 368.062 109.496C368.243 109.021 368.334 108.491 368.334 107.909C368.334 107.334 368.245 106.815 368.067 106.354C367.893 105.888 367.629 105.521 367.274 105.251C366.922 104.978 366.48 104.841 365.947 104.841C365.436 104.841 365.006 104.971 364.658 105.23C364.31 105.485 364.048 105.844 363.87 106.306C363.692 106.764 363.604 107.298 363.604 107.909ZM374.944 112.17C374.156 112.17 373.476 111.996 372.904 111.648C372.336 111.297 371.897 110.807 371.588 110.178C371.283 109.546 371.13 108.811 371.13 107.973C371.13 107.135 371.283 106.396 371.588 105.757C371.897 105.114 372.327 104.614 372.877 104.255C373.431 103.893 374.078 103.712 374.816 103.712C375.243 103.712 375.663 103.783 376.079 103.925C376.494 104.067 376.873 104.298 377.213 104.617C377.554 104.933 377.826 105.352 378.028 105.874C378.231 106.396 378.332 107.039 378.332 107.803V108.335H372.025V107.249H377.054C377.054 106.787 376.961 106.375 376.777 106.013C376.596 105.651 376.336 105.365 375.999 105.155C375.665 104.946 375.271 104.841 374.816 104.841C374.316 104.841 373.882 104.965 373.517 105.214C373.154 105.459 372.876 105.778 372.68 106.173C372.485 106.567 372.387 106.989 372.387 107.44V108.165C372.387 108.783 372.494 109.306 372.707 109.736C372.924 110.162 373.224 110.487 373.607 110.711C373.991 110.931 374.436 111.041 374.944 111.041C375.275 111.041 375.573 110.995 375.839 110.903C376.109 110.807 376.342 110.665 376.537 110.477C376.732 110.285 376.883 110.047 376.99 109.763L378.204 110.104C378.076 110.516 377.862 110.878 377.56 111.19C377.258 111.499 376.885 111.741 376.441 111.915C375.997 112.085 375.498 112.17 374.944 112.17ZM380.244 112V103.818H381.459V105.054H381.544C381.693 104.649 381.963 104.321 382.354 104.069C382.744 103.816 383.185 103.69 383.675 103.69C383.767 103.69 383.882 103.692 384.021 103.696C384.159 103.699 384.264 103.705 384.335 103.712V104.99C384.293 104.979 384.195 104.963 384.042 104.942C383.893 104.917 383.735 104.905 383.568 104.905C383.17 104.905 382.815 104.988 382.503 105.155C382.194 105.319 381.949 105.546 381.768 105.837C381.59 106.125 381.501 106.453 381.501 106.822V112H380.244ZM393.368 112.17C392.629 112.17 391.981 111.995 391.424 111.643C390.87 111.292 390.437 110.8 390.124 110.168C389.815 109.536 389.661 108.797 389.661 107.952C389.661 107.099 389.815 106.355 390.124 105.72C390.437 105.084 390.87 104.591 391.424 104.239C391.981 103.887 392.629 103.712 393.368 103.712C394.107 103.712 394.753 103.887 395.307 104.239C395.864 104.591 396.298 105.084 396.607 105.72C396.919 106.355 397.075 107.099 397.075 107.952C397.075 108.797 396.919 109.536 396.607 110.168C396.298 110.8 395.864 111.292 395.307 111.643C394.753 111.995 394.107 112.17 393.368 112.17ZM393.368 111.041C393.929 111.041 394.391 110.897 394.753 110.61C395.115 110.322 395.383 109.944 395.557 109.475C395.731 109.006 395.818 108.499 395.818 107.952C395.818 107.405 395.731 106.895 395.557 106.423C395.383 105.951 395.115 105.569 394.753 105.278C394.391 104.987 393.929 104.841 393.368 104.841C392.807 104.841 392.345 104.987 391.983 105.278C391.621 105.569 391.353 105.951 391.179 106.423C391.005 106.895 390.918 107.405 390.918 107.952C390.918 108.499 391.005 109.006 391.179 109.475C391.353 109.944 391.621 110.322 391.983 110.61C392.345 110.897 392.807 111.041 393.368 111.041ZM402.638 103.818V104.884H398.227V103.818H402.638ZM399.548 112V102.689C399.548 102.22 399.658 101.83 399.879 101.517C400.099 101.205 400.385 100.97 400.736 100.814C401.088 100.658 401.459 100.58 401.849 100.58C402.158 100.58 402.411 100.604 402.606 100.654C402.801 100.704 402.947 100.75 403.043 100.793L402.68 101.879C402.616 101.858 402.528 101.831 402.414 101.799C402.304 101.767 402.158 101.751 401.977 101.751C401.562 101.751 401.262 101.856 401.077 102.066C400.896 102.275 400.805 102.582 400.805 102.987V112H399.548ZM414.755 103.818C414.691 103.278 414.432 102.859 413.977 102.561C413.522 102.263 412.965 102.114 412.304 102.114C411.821 102.114 411.399 102.192 411.037 102.348C410.678 102.504 410.397 102.719 410.195 102.993C409.996 103.266 409.897 103.577 409.897 103.925C409.897 104.216 409.966 104.466 410.104 104.676C410.247 104.882 410.428 105.054 410.648 105.192C410.868 105.327 411.099 105.439 411.34 105.528C411.582 105.613 411.804 105.683 412.006 105.736L413.114 106.034C413.398 106.109 413.714 106.212 414.062 106.343C414.414 106.474 414.749 106.654 415.069 106.881C415.392 107.105 415.658 107.392 415.868 107.744C416.078 108.096 416.182 108.527 416.182 109.038C416.182 109.628 416.028 110.161 415.719 110.636C415.413 111.112 414.966 111.49 414.377 111.771C413.791 112.051 413.079 112.192 412.241 112.192C411.459 112.192 410.783 112.066 410.211 111.814C409.643 111.561 409.195 111.21 408.869 110.759C408.546 110.308 408.363 109.784 408.32 109.188H409.684C409.719 109.599 409.858 109.94 410.099 110.21C410.344 110.477 410.653 110.675 411.026 110.807C411.402 110.935 411.807 110.999 412.241 110.999C412.745 110.999 413.198 110.917 413.599 110.754C414 110.587 414.318 110.356 414.552 110.061C414.787 109.763 414.904 109.415 414.904 109.017C414.904 108.655 414.803 108.36 414.6 108.133C414.398 107.906 414.131 107.721 413.801 107.579C413.471 107.437 413.114 107.312 412.731 107.206L411.388 106.822C410.536 106.577 409.861 106.228 409.364 105.773C408.867 105.319 408.618 104.724 408.618 103.989C408.618 103.378 408.783 102.845 409.114 102.391C409.448 101.933 409.895 101.577 410.456 101.325C411.021 101.07 411.651 100.942 412.347 100.942C413.05 100.942 413.675 101.068 414.222 101.32C414.769 101.569 415.202 101.909 415.522 102.343C415.845 102.776 416.015 103.268 416.033 103.818H414.755ZM420.591 112.192C420.073 112.192 419.602 112.094 419.18 111.899C418.757 111.7 418.422 111.414 418.173 111.041C417.925 110.665 417.8 110.21 417.8 109.678C417.8 109.209 417.893 108.829 418.077 108.538C418.262 108.243 418.509 108.012 418.818 107.845C419.127 107.678 419.468 107.554 419.84 107.472C420.217 107.387 420.595 107.32 420.975 107.27C421.472 107.206 421.875 107.158 422.184 107.126C422.497 107.091 422.724 107.032 422.866 106.95C423.012 106.869 423.084 106.727 423.084 106.524V106.482C423.084 105.956 422.941 105.548 422.653 105.256C422.369 104.965 421.937 104.82 421.358 104.82C420.758 104.82 420.288 104.951 419.947 105.214C419.606 105.477 419.366 105.757 419.228 106.055L418.035 105.629C418.248 105.132 418.532 104.745 418.887 104.468C419.246 104.187 419.636 103.992 420.059 103.882C420.485 103.768 420.904 103.712 421.316 103.712C421.579 103.712 421.881 103.744 422.221 103.808C422.566 103.868 422.898 103.994 423.218 104.186C423.541 104.377 423.809 104.667 424.022 105.054C424.235 105.441 424.341 105.96 424.341 106.609V112H423.084V110.892H423.02C422.935 111.07 422.793 111.26 422.594 111.462C422.395 111.664 422.131 111.837 421.801 111.979C421.47 112.121 421.067 112.192 420.591 112.192ZM420.783 111.062C421.28 111.062 421.699 110.965 422.04 110.77C422.385 110.574 422.644 110.322 422.818 110.013C422.996 109.704 423.084 109.379 423.084 109.038V107.888C423.031 107.952 422.914 108.01 422.733 108.064C422.555 108.113 422.349 108.158 422.115 108.197C421.884 108.232 421.659 108.264 421.438 108.293C421.222 108.317 421.046 108.339 420.911 108.357C420.584 108.399 420.279 108.468 419.995 108.564C419.714 108.657 419.487 108.797 419.313 108.985C419.143 109.17 419.057 109.422 419.057 109.741C419.057 110.178 419.219 110.509 419.542 110.732C419.869 110.952 420.282 111.062 420.783 111.062ZM427.893 101.091V112H426.636V101.091H427.893ZM433.626 112.17C432.838 112.17 432.157 111.996 431.586 111.648C431.018 111.297 430.579 110.807 430.27 110.178C429.965 109.546 429.812 108.811 429.812 107.973C429.812 107.135 429.965 106.396 430.27 105.757C430.579 105.114 431.009 104.614 431.559 104.255C432.113 103.893 432.759 103.712 433.498 103.712C433.924 103.712 434.345 103.783 434.76 103.925C435.176 104.067 435.554 104.298 435.895 104.617C436.236 104.933 436.508 105.352 436.71 105.874C436.912 106.396 437.014 107.039 437.014 107.803V108.335H430.707V107.249H435.735C435.735 106.787 435.643 106.375 435.458 106.013C435.277 105.651 435.018 105.365 434.681 105.155C434.347 104.946 433.953 104.841 433.498 104.841C432.997 104.841 432.564 104.965 432.198 105.214C431.836 105.459 431.557 105.778 431.362 106.173C431.167 106.567 431.069 106.989 431.069 107.44V108.165C431.069 108.783 431.176 109.306 431.389 109.736C431.605 110.162 431.905 110.487 432.289 110.711C432.672 110.931 433.118 111.041 433.626 111.041C433.956 111.041 434.254 110.995 434.521 110.903C434.791 110.807 435.023 110.665 435.219 110.477C435.414 110.285 435.565 110.047 435.671 109.763L436.886 110.104C436.758 110.516 436.543 110.878 436.241 111.19C435.939 111.499 435.567 111.741 435.123 111.915C434.679 112.085 434.18 112.17 433.626 112.17ZM444.721 105.651L443.592 105.97C443.521 105.782 443.416 105.599 443.278 105.422C443.143 105.24 442.958 105.091 442.724 104.974C442.49 104.857 442.189 104.798 441.824 104.798C441.323 104.798 440.906 104.914 440.572 105.145C440.242 105.372 440.077 105.661 440.077 106.013C440.077 106.325 440.19 106.572 440.417 106.753C440.645 106.934 441 107.085 441.483 107.206L442.697 107.504C443.429 107.682 443.974 107.953 444.333 108.319C444.691 108.681 444.871 109.148 444.871 109.72C444.871 110.189 444.736 110.608 444.466 110.977C444.199 111.347 443.827 111.638 443.347 111.851C442.868 112.064 442.31 112.17 441.675 112.17C440.84 112.17 440.149 111.989 439.602 111.627C439.056 111.265 438.709 110.736 438.564 110.04L439.757 109.741C439.871 110.182 440.085 110.512 440.401 110.732C440.721 110.952 441.138 111.062 441.653 111.062C442.239 111.062 442.704 110.938 443.049 110.69C443.397 110.437 443.571 110.136 443.571 109.784C443.571 109.5 443.471 109.262 443.273 109.07C443.074 108.875 442.768 108.729 442.356 108.634L440.993 108.314C440.243 108.136 439.693 107.861 439.341 107.488C438.993 107.112 438.819 106.641 438.819 106.077C438.819 105.615 438.949 105.207 439.208 104.852C439.471 104.496 439.828 104.218 440.279 104.015C440.733 103.813 441.248 103.712 441.824 103.712C442.633 103.712 443.269 103.889 443.731 104.244C444.196 104.599 444.526 105.068 444.721 105.651Z" fill="#2E263D" fill-opacity="0.7"/>
<path d="M333.299 140.636V124.273H334.347V140.636H333.299ZM336.578 129.348C336.51 128.743 336.229 128.274 335.734 127.942C335.24 127.605 334.618 127.437 333.868 127.437C333.331 127.437 332.866 127.522 332.474 127.692C332.082 127.859 331.778 128.089 331.56 128.383C331.347 128.673 331.241 129.003 331.241 129.374C331.241 129.685 331.313 129.953 331.458 130.179C331.607 130.405 331.801 130.594 332.04 130.748C332.283 130.897 332.543 131.023 332.82 131.125C333.097 131.223 333.363 131.304 333.619 131.368L334.897 131.7C335.315 131.803 335.743 131.941 336.182 132.116C336.621 132.29 337.028 132.521 337.403 132.806C337.778 133.092 338.08 133.445 338.31 133.867C338.545 134.289 338.662 134.794 338.662 135.382C338.662 136.124 338.47 136.782 338.087 137.357C337.707 137.933 337.156 138.386 336.431 138.719C335.711 139.051 334.839 139.217 333.817 139.217C332.837 139.217 331.989 139.062 331.273 138.751C330.557 138.44 329.996 137.999 329.592 137.428C329.187 136.852 328.963 136.17 328.92 135.382H330.902C330.94 135.855 331.094 136.249 331.362 136.565C331.635 136.876 331.982 137.108 332.404 137.261C332.83 137.411 333.297 137.485 333.804 137.485C334.362 137.485 334.859 137.398 335.293 137.223C335.732 137.044 336.077 136.797 336.329 136.482C336.58 136.162 336.706 135.789 336.706 135.363C336.706 134.975 336.595 134.658 336.374 134.411C336.156 134.163 335.86 133.959 335.485 133.797C335.114 133.635 334.695 133.492 334.226 133.369L332.679 132.947C331.631 132.661 330.8 132.241 330.186 131.688C329.577 131.134 329.272 130.401 329.272 129.489C329.272 128.734 329.477 128.076 329.886 127.513C330.295 126.951 330.849 126.514 331.548 126.203C332.246 125.888 333.035 125.73 333.913 125.73C334.799 125.73 335.581 125.886 336.259 126.197C336.94 126.508 337.477 126.936 337.869 127.482C338.261 128.023 338.466 128.645 338.483 129.348H336.578ZM345.267 139.179C344.35 139.179 343.541 139.021 342.838 138.706C342.139 138.391 341.591 137.956 341.195 137.402C340.798 136.848 340.602 136.217 340.607 135.51C340.602 134.956 340.715 134.447 340.945 133.982C341.18 133.513 341.497 133.124 341.898 132.812C342.298 132.497 342.746 132.297 343.24 132.212V132.135C342.588 131.977 342.066 131.628 341.674 131.087C341.282 130.545 341.088 129.923 341.093 129.22C341.088 128.551 341.265 127.955 341.623 127.43C341.985 126.902 342.482 126.487 343.112 126.184C343.743 125.881 344.461 125.73 345.267 125.73C346.063 125.73 346.775 125.884 347.401 126.19C348.032 126.493 348.529 126.908 348.891 127.437C349.253 127.961 349.436 128.555 349.441 129.22C349.436 129.923 349.236 130.545 348.84 131.087C348.443 131.628 347.928 131.977 347.293 132.135V132.212C347.783 132.297 348.224 132.497 348.616 132.812C349.012 133.124 349.328 133.513 349.562 133.982C349.801 134.447 349.922 134.956 349.926 135.51C349.922 136.217 349.722 136.848 349.325 137.402C348.929 137.956 348.379 138.391 347.676 138.706C346.977 139.021 346.174 139.179 345.267 139.179ZM345.267 137.562C345.808 137.562 346.276 137.472 346.673 137.293C347.069 137.11 347.376 136.857 347.593 136.533C347.811 136.205 347.921 135.821 347.926 135.382C347.921 134.926 347.802 134.523 347.568 134.174C347.338 133.825 347.024 133.55 346.628 133.349C346.232 133.149 345.778 133.049 345.267 133.049C344.751 133.049 344.293 133.149 343.892 133.349C343.492 133.55 343.176 133.825 342.946 134.174C342.716 134.523 342.603 134.926 342.607 135.382C342.603 135.821 342.708 136.205 342.921 136.533C343.138 136.857 343.447 137.11 343.847 137.293C344.248 137.472 344.721 137.562 345.267 137.562ZM345.267 131.47C345.701 131.47 346.087 131.383 346.423 131.208C346.76 131.033 347.024 130.79 347.216 130.479C347.412 130.168 347.512 129.804 347.517 129.386C347.512 128.977 347.414 128.619 347.222 128.312C347.035 128.006 346.773 127.769 346.436 127.603C346.1 127.433 345.71 127.347 345.267 127.347C344.815 127.347 344.419 127.433 344.078 127.603C343.741 127.769 343.479 128.006 343.291 128.312C343.104 128.619 343.012 128.977 343.017 129.386C343.012 129.804 343.106 130.168 343.298 130.479C343.49 130.79 343.754 131.033 344.09 131.208C344.431 131.383 344.823 131.47 345.267 131.47ZM356.787 139.179C356.203 139.17 355.627 139.064 355.061 138.859C354.498 138.655 353.987 138.314 353.527 137.837C353.066 137.359 352.698 136.718 352.421 135.913C352.148 135.107 352.012 134.102 352.012 132.896C352.012 131.754 352.125 130.739 352.35 129.853C352.581 128.967 352.911 128.219 353.341 127.609C353.772 126.996 354.292 126.529 354.901 126.21C355.51 125.89 356.194 125.73 356.953 125.73C357.733 125.73 358.425 125.884 359.03 126.19C359.635 126.497 360.125 126.921 360.5 127.462C360.88 128.004 361.12 128.619 361.223 129.31H359.273C359.141 128.764 358.879 128.319 358.487 127.974C358.095 127.629 357.583 127.456 356.953 127.456C355.994 127.456 355.246 127.874 354.709 128.709C354.176 129.544 353.908 130.705 353.904 132.192H354C354.225 131.822 354.502 131.506 354.831 131.246C355.163 130.982 355.534 130.78 355.943 130.639C356.356 130.494 356.791 130.422 357.247 130.422C358.005 130.422 358.691 130.607 359.305 130.978C359.923 131.344 360.415 131.852 360.782 132.499C361.148 133.147 361.331 133.888 361.331 134.724C361.331 135.559 361.142 136.315 360.762 136.993C360.387 137.67 359.859 138.207 359.177 138.604C358.495 138.996 357.699 139.188 356.787 139.179ZM356.78 137.517C357.283 137.517 357.733 137.393 358.129 137.146C358.525 136.899 358.838 136.567 359.069 136.149C359.299 135.732 359.414 135.265 359.414 134.749C359.414 134.246 359.301 133.788 359.075 133.375C358.853 132.962 358.547 132.634 358.154 132.391C357.767 132.148 357.324 132.026 356.825 132.026C356.446 132.026 356.094 132.099 355.77 132.244C355.451 132.388 355.169 132.589 354.926 132.844C354.684 133.1 354.492 133.394 354.351 133.727C354.215 134.055 354.147 134.402 354.147 134.768C354.147 135.259 354.26 135.712 354.485 136.13C354.716 136.548 355.029 136.884 355.425 137.14C355.826 137.391 356.277 137.517 356.78 137.517ZM365.574 137.21L365.478 137.907C365.414 138.418 365.306 138.951 365.152 139.505C365.003 140.063 364.847 140.581 364.686 141.058C364.528 141.536 364.398 141.915 364.296 142.196H362.941C362.996 141.932 363.073 141.574 363.171 141.122C363.269 140.675 363.365 140.174 363.458 139.62C363.552 139.066 363.622 138.501 363.669 137.926L363.733 137.21H365.574ZM367.973 136.443V134.845L373.63 125.909H374.889V128.261H374.09L370.044 134.666V134.768H377.797V136.443H367.973ZM374.179 139V135.957L374.192 135.229V125.909H376.065V139H374.179ZM384.582 139.217C383.572 139.213 382.71 138.947 381.994 138.418C381.278 137.89 380.73 137.121 380.351 136.111C379.972 135.101 379.782 133.884 379.782 132.461C379.782 131.042 379.972 129.83 380.351 128.824C380.734 127.818 381.284 127.051 382 126.523C382.72 125.994 383.581 125.73 384.582 125.73C385.584 125.73 386.442 125.996 387.158 126.529C387.874 127.058 388.422 127.825 388.801 128.83C389.185 129.832 389.376 131.042 389.376 132.461C389.376 133.888 389.187 135.107 388.808 136.117C388.428 137.123 387.881 137.892 387.165 138.425C386.449 138.953 385.588 139.217 384.582 139.217ZM384.582 137.511C385.469 137.511 386.161 137.078 386.66 136.213C387.163 135.348 387.414 134.097 387.414 132.461C387.414 131.374 387.299 130.456 387.069 129.706C386.843 128.952 386.517 128.381 386.091 127.993C385.669 127.601 385.166 127.405 384.582 127.405C383.7 127.405 383.008 127.839 382.505 128.709C382.002 129.578 381.749 130.829 381.744 132.461C381.744 133.552 381.857 134.474 382.083 135.229C382.313 135.979 382.639 136.548 383.061 136.935C383.483 137.319 383.99 137.511 384.582 137.511ZM396.202 139.217C395.192 139.213 394.329 138.947 393.613 138.418C392.897 137.89 392.349 137.121 391.97 136.111C391.591 135.101 391.401 133.884 391.401 132.461C391.401 131.042 391.591 129.83 391.97 128.824C392.354 127.818 392.903 127.051 393.619 126.523C394.339 125.994 395.2 125.73 396.202 125.73C397.203 125.73 398.062 125.996 398.778 126.529C399.493 127.058 400.041 127.825 400.42 128.83C400.804 129.832 400.996 131.042 400.996 132.461C400.996 133.888 400.806 135.107 400.427 136.117C400.047 137.123 399.5 137.892 398.784 138.425C398.068 138.953 397.207 139.217 396.202 139.217ZM396.202 137.511C397.088 137.511 397.78 137.078 398.279 136.213C398.782 135.348 399.033 134.097 399.033 132.461C399.033 131.374 398.918 130.456 398.688 129.706C398.462 128.952 398.136 128.381 397.71 127.993C397.288 127.601 396.785 127.405 396.202 127.405C395.319 127.405 394.627 127.839 394.124 128.709C393.621 129.578 393.368 130.829 393.363 132.461C393.363 133.552 393.476 134.474 393.702 135.229C393.932 135.979 394.258 136.548 394.68 136.935C395.102 137.319 395.609 137.511 396.202 137.511Z" fill="#2E263D" fill-opacity="0.9"/>
<line x1="276" y1="169.5" x2="544" y2="169.5" stroke="#2E263D" stroke-opacity="0.12"/>
<circle cx="281" cy="205" r="5" fill="#8C57FF"/>
<path d="M295.768 210H294.384L298.389 199.091H299.753L303.759 210H302.374L299.114 200.817H299.028L295.768 210ZM296.28 205.739H301.862V206.911H296.28V205.739ZM305.287 213.068V201.818H306.502V203.118H306.651C306.743 202.976 306.871 202.795 307.034 202.575C307.201 202.351 307.439 202.152 307.748 201.978C308.061 201.8 308.483 201.712 309.016 201.712C309.705 201.712 310.312 201.884 310.838 202.228C311.363 202.573 311.773 203.061 312.068 203.693C312.363 204.325 312.51 205.071 312.51 205.93C312.51 206.797 312.363 207.548 312.068 208.184C311.773 208.816 311.365 209.306 310.843 209.654C310.321 209.998 309.719 210.17 309.037 210.17C308.512 210.17 308.091 210.083 307.775 209.909C307.459 209.732 307.216 209.531 307.045 209.308C306.875 209.08 306.743 208.892 306.651 208.743H306.544V213.068H305.287ZM306.523 205.909C306.523 206.527 306.614 207.072 306.795 207.544C306.976 208.013 307.24 208.381 307.588 208.647C307.936 208.91 308.363 209.041 308.867 209.041C309.392 209.041 309.831 208.903 310.183 208.626C310.538 208.345 310.804 207.969 310.982 207.496C311.163 207.021 311.253 206.491 311.253 205.909C311.253 205.334 311.164 204.815 310.987 204.354C310.813 203.888 310.548 203.521 310.193 203.251C309.842 202.978 309.4 202.841 308.867 202.841C308.355 202.841 307.926 202.971 307.578 203.23C307.23 203.485 306.967 203.844 306.789 204.306C306.612 204.764 306.523 205.298 306.523 205.909ZM314.428 213.068V201.818H315.642V203.118H315.792C315.884 202.976 316.012 202.795 316.175 202.575C316.342 202.351 316.58 202.152 316.889 201.978C317.201 201.8 317.624 201.712 318.157 201.712C318.846 201.712 319.453 201.884 319.978 202.228C320.504 202.573 320.914 203.061 321.209 203.693C321.504 204.325 321.651 205.071 321.651 205.93C321.651 206.797 321.504 207.548 321.209 208.184C320.914 208.816 320.506 209.306 319.984 209.654C319.462 209.998 318.86 210.17 318.178 210.17C317.652 210.17 317.232 210.083 316.915 209.909C316.599 209.732 316.356 209.531 316.186 209.308C316.015 209.08 315.884 208.892 315.792 208.743H315.685V213.068H314.428ZM315.664 205.909C315.664 206.527 315.754 207.072 315.935 207.544C316.116 208.013 316.381 208.381 316.729 208.647C317.077 208.91 317.503 209.041 318.007 209.041C318.533 209.041 318.972 208.903 319.323 208.626C319.678 208.345 319.945 207.969 320.122 207.496C320.303 207.021 320.394 206.491 320.394 205.909C320.394 205.334 320.305 204.815 320.127 204.354C319.953 203.888 319.689 203.521 319.334 203.251C318.982 202.978 318.54 202.841 318.007 202.841C317.496 202.841 317.066 202.971 316.718 203.23C316.37 203.485 316.108 203.844 315.93 204.306C315.752 204.764 315.664 205.298 315.664 205.909ZM325.976 210.192C325.458 210.192 324.987 210.094 324.565 209.899C324.142 209.7 323.806 209.414 323.558 209.041C323.309 208.665 323.185 208.21 323.185 207.678C323.185 207.209 323.277 206.829 323.462 206.538C323.647 206.243 323.893 206.012 324.202 205.845C324.511 205.678 324.852 205.554 325.225 205.472C325.602 205.387 325.98 205.32 326.36 205.27C326.857 205.206 327.26 205.158 327.569 205.126C327.881 205.091 328.109 205.032 328.251 204.95C328.396 204.869 328.469 204.727 328.469 204.524V204.482C328.469 203.956 328.325 203.548 328.038 203.256C327.754 202.965 327.322 202.82 326.743 202.82C326.143 202.82 325.673 202.951 325.332 203.214C324.991 203.477 324.751 203.757 324.613 204.055L323.419 203.629C323.632 203.132 323.917 202.745 324.272 202.468C324.63 202.187 325.021 201.992 325.444 201.882C325.87 201.768 326.289 201.712 326.701 201.712C326.963 201.712 327.265 201.744 327.606 201.808C327.951 201.868 328.283 201.994 328.602 202.186C328.925 202.377 329.194 202.667 329.407 203.054C329.62 203.441 329.726 203.96 329.726 204.609V210H328.469V208.892H328.405C328.32 209.07 328.178 209.26 327.979 209.462C327.78 209.664 327.516 209.837 327.185 209.979C326.855 210.121 326.452 210.192 325.976 210.192ZM326.168 209.062C326.665 209.062 327.084 208.965 327.425 208.77C327.77 208.574 328.029 208.322 328.203 208.013C328.38 207.704 328.469 207.379 328.469 207.038V205.888C328.416 205.952 328.299 206.01 328.118 206.064C327.94 206.113 327.734 206.158 327.5 206.197C327.269 206.232 327.043 206.264 326.823 206.293C326.607 206.317 326.431 206.339 326.296 206.357C325.969 206.399 325.664 206.468 325.38 206.564C325.099 206.657 324.872 206.797 324.698 206.985C324.527 207.17 324.442 207.422 324.442 207.741C324.442 208.178 324.604 208.509 324.927 208.732C325.254 208.952 325.667 209.062 326.168 209.062ZM332.021 210V201.818H333.235V203.054H333.32C333.47 202.649 333.739 202.321 334.13 202.069C334.521 201.816 334.961 201.69 335.451 201.69C335.543 201.69 335.659 201.692 335.797 201.696C335.936 201.699 336.041 201.705 336.112 201.712V202.99C336.069 202.979 335.971 202.963 335.819 202.942C335.669 202.917 335.511 202.905 335.345 202.905C334.947 202.905 334.592 202.988 334.279 203.155C333.97 203.319 333.725 203.546 333.544 203.837C333.367 204.125 333.278 204.453 333.278 204.822V210H332.021ZM340.783 210.17C339.995 210.17 339.315 209.996 338.743 209.648C338.175 209.297 337.736 208.807 337.427 208.178C337.122 207.546 336.969 206.811 336.969 205.973C336.969 205.135 337.122 204.396 337.427 203.757C337.736 203.114 338.166 202.614 338.716 202.255C339.27 201.893 339.917 201.712 340.655 201.712C341.081 201.712 341.502 201.783 341.918 201.925C342.333 202.067 342.711 202.298 343.052 202.617C343.393 202.933 343.665 203.352 343.867 203.874C344.07 204.396 344.171 205.039 344.171 205.803V206.335H337.864V205.249H342.892C342.892 204.787 342.8 204.375 342.616 204.013C342.434 203.651 342.175 203.365 341.838 203.155C341.504 202.946 341.11 202.841 340.655 202.841C340.155 202.841 339.721 202.965 339.356 203.214C338.993 203.459 338.715 203.778 338.519 204.173C338.324 204.567 338.226 204.989 338.226 205.44V206.165C338.226 206.783 338.333 207.306 338.546 207.736C338.763 208.162 339.063 208.487 339.446 208.711C339.83 208.931 340.275 209.041 340.783 209.041C341.113 209.041 341.412 208.995 341.678 208.903C341.948 208.807 342.18 208.665 342.376 208.477C342.571 208.285 342.722 208.047 342.829 207.763L344.043 208.104C343.915 208.516 343.7 208.878 343.399 209.19C343.097 209.499 342.724 209.741 342.28 209.915C341.836 210.085 341.337 210.17 340.783 210.17ZM347.34 199.091V210H346.083V199.091H347.34Z" fill="#2E263D" fill-opacity="0.7"/>
<path d="M280.416 237.364V223.727H281.289V237.364H280.416ZM283.148 227.957C283.092 227.452 282.857 227.062 282.445 226.785C282.033 226.504 281.515 226.364 280.89 226.364C280.442 226.364 280.055 226.435 279.729 226.577C279.402 226.716 279.148 226.907 278.967 227.152C278.789 227.394 278.701 227.669 278.701 227.978C278.701 228.237 278.761 228.461 278.882 228.649C279.006 228.837 279.168 228.995 279.366 229.123C279.569 229.248 279.786 229.352 280.016 229.438C280.247 229.519 280.469 229.587 280.682 229.64L281.748 229.917C282.096 230.002 282.452 230.118 282.818 230.263C283.184 230.409 283.523 230.6 283.836 230.838C284.148 231.076 284.4 231.371 284.592 231.723C284.787 232.074 284.885 232.495 284.885 232.985C284.885 233.603 284.725 234.152 284.406 234.631C284.089 235.11 283.63 235.489 283.026 235.766C282.426 236.043 281.7 236.181 280.847 236.181C280.031 236.181 279.324 236.051 278.727 235.792C278.131 235.533 277.664 235.165 277.326 234.69C276.989 234.21 276.803 233.642 276.767 232.985H278.418C278.45 233.379 278.578 233.708 278.802 233.971C279.029 234.23 279.319 234.423 279.67 234.551C280.025 234.675 280.414 234.738 280.837 234.738C281.302 234.738 281.716 234.665 282.078 234.519C282.444 234.37 282.731 234.164 282.941 233.901C283.15 233.635 283.255 233.324 283.255 232.969C283.255 232.646 283.163 232.381 282.978 232.175C282.797 231.969 282.55 231.799 282.238 231.664C281.929 231.529 281.579 231.41 281.188 231.307L279.899 230.956C279.026 230.718 278.333 230.368 277.822 229.906C277.314 229.445 277.06 228.834 277.06 228.074C277.06 227.445 277.23 226.897 277.571 226.428C277.912 225.959 278.374 225.595 278.956 225.336C279.539 225.073 280.196 224.942 280.927 224.942C281.666 224.942 282.317 225.071 282.882 225.331C283.45 225.59 283.898 225.947 284.224 226.401C284.551 226.852 284.722 227.371 284.736 227.957H283.148ZM290.842 225.091V236H289.19V226.742H289.126L286.516 228.447V226.87L289.238 225.091H290.842ZM295.256 234.509L295.176 235.089C295.123 235.515 295.032 235.959 294.904 236.421C294.78 236.886 294.651 237.317 294.516 237.715C294.384 238.113 294.276 238.429 294.191 238.663H293.061C293.108 238.443 293.172 238.145 293.253 237.768C293.335 237.396 293.415 236.978 293.493 236.517C293.571 236.055 293.63 235.585 293.669 235.105L293.722 234.509H295.256ZM300.804 236.149C300.04 236.149 299.366 236.018 298.78 235.755C298.197 235.492 297.741 235.13 297.411 234.668C297.08 234.207 296.917 233.681 296.921 233.092C296.917 232.63 297.011 232.206 297.203 231.819C297.398 231.428 297.663 231.103 297.997 230.844C298.33 230.581 298.703 230.414 299.115 230.343V230.279C298.572 230.148 298.137 229.857 297.81 229.406C297.483 228.955 297.322 228.436 297.325 227.85C297.322 227.293 297.469 226.795 297.768 226.359C298.069 225.918 298.483 225.572 299.009 225.32C299.534 225.068 300.133 224.942 300.804 224.942C301.468 224.942 302.061 225.07 302.583 225.325C303.108 225.577 303.522 225.924 303.824 226.364C304.126 226.801 304.279 227.296 304.282 227.85C304.279 228.436 304.112 228.955 303.781 229.406C303.451 229.857 303.021 230.148 302.492 230.279V230.343C302.901 230.414 303.268 230.581 303.595 230.844C303.925 231.103 304.188 231.428 304.383 231.819C304.582 232.206 304.683 232.63 304.687 233.092C304.683 233.681 304.517 234.207 304.186 234.668C303.856 235.13 303.398 235.492 302.812 235.755C302.23 236.018 301.56 236.149 300.804 236.149ZM300.804 234.801C301.255 234.801 301.645 234.727 301.976 234.578C302.306 234.425 302.562 234.214 302.743 233.944C302.924 233.67 303.016 233.351 303.02 232.985C303.016 232.605 302.917 232.27 302.721 231.978C302.53 231.687 302.269 231.458 301.938 231.291C301.608 231.124 301.23 231.041 300.804 231.041C300.374 231.041 299.992 231.124 299.659 231.291C299.325 231.458 299.062 231.687 298.87 231.978C298.678 232.27 298.584 232.605 298.588 232.985C298.584 233.351 298.671 233.67 298.849 233.944C299.03 234.214 299.287 234.425 299.621 234.578C299.955 234.727 300.349 234.801 300.804 234.801ZM300.804 229.725C301.166 229.725 301.487 229.652 301.768 229.507C302.048 229.361 302.269 229.159 302.428 228.9C302.592 228.64 302.675 228.337 302.679 227.989C302.675 227.648 302.594 227.349 302.434 227.094C302.278 226.838 302.059 226.641 301.779 226.502C301.498 226.36 301.173 226.289 300.804 226.289C300.427 226.289 300.097 226.36 299.813 226.502C299.532 226.641 299.314 226.838 299.158 227.094C299.002 227.349 298.925 227.648 298.929 227.989C298.925 228.337 299.003 228.64 299.163 228.9C299.323 229.159 299.543 229.361 299.824 229.507C300.108 229.652 300.434 229.725 300.804 229.725ZM306.366 233.869V232.538L311.08 225.091H312.13V227.051H311.464L308.092 232.388V232.474H314.553V233.869H306.366ZM311.538 236V233.464L311.549 232.857V225.091H313.11V236H311.538ZM320.208 236.181C319.366 236.178 318.647 235.956 318.05 235.515C317.454 235.075 316.997 234.434 316.681 233.592C316.365 232.751 316.207 231.737 316.207 230.551C316.207 229.368 316.365 228.358 316.681 227.52C317.001 226.682 317.459 226.043 318.056 225.602C318.656 225.162 319.373 224.942 320.208 224.942C321.042 224.942 321.758 225.164 322.354 225.608C322.951 226.048 323.407 226.687 323.723 227.525C324.043 228.36 324.203 229.368 324.203 230.551C324.203 231.74 324.045 232.756 323.729 233.598C323.413 234.436 322.956 235.077 322.36 235.521C321.763 235.961 321.046 236.181 320.208 236.181ZM320.208 234.759C320.946 234.759 321.523 234.398 321.939 233.678C322.358 232.957 322.567 231.914 322.567 230.551C322.567 229.645 322.472 228.88 322.28 228.255C322.092 227.626 321.82 227.151 321.465 226.827C321.113 226.501 320.694 226.337 320.208 226.337C319.473 226.337 318.896 226.7 318.476 227.424C318.057 228.148 317.846 229.191 317.843 230.551C317.843 231.46 317.937 232.229 318.125 232.857C318.317 233.482 318.588 233.956 318.94 234.279C319.291 234.599 319.714 234.759 320.208 234.759Z" fill="#2E263D" fill-opacity="0.7"/>
<circle cx="415" cy="205" r="5" fill="#8C57FF"/>
<path d="M429.321 210V199.091H435.905V200.263H430.642V203.949H435.564V205.121H430.642V208.828H435.99V210H429.321ZM439.373 199.091V210H438.115V199.091H439.373ZM445.105 210.17C444.317 210.17 443.637 209.996 443.065 209.648C442.497 209.297 442.059 208.807 441.75 208.178C441.444 207.546 441.291 206.811 441.291 205.973C441.291 205.135 441.444 204.396 441.75 203.757C442.059 203.114 442.488 202.614 443.039 202.255C443.593 201.893 444.239 201.712 444.978 201.712C445.404 201.712 445.824 201.783 446.24 201.925C446.655 202.067 447.034 202.298 447.375 202.617C447.715 202.933 447.987 203.352 448.19 203.874C448.392 204.396 448.493 205.039 448.493 205.803V206.335H442.186V205.249H447.215C447.215 204.787 447.122 204.375 446.938 204.013C446.757 203.651 446.497 203.365 446.16 203.155C445.826 202.946 445.432 202.841 444.978 202.841C444.477 202.841 444.044 202.965 443.678 203.214C443.316 203.459 443.037 203.778 442.842 204.173C442.646 204.567 442.549 204.989 442.549 205.44V206.165C442.549 206.783 442.655 207.306 442.868 207.736C443.085 208.162 443.385 208.487 443.768 208.711C444.152 208.931 444.598 209.041 445.105 209.041C445.436 209.041 445.734 208.995 446 208.903C446.27 208.807 446.503 208.665 446.698 208.477C446.893 208.285 447.044 208.047 447.151 207.763L448.365 208.104C448.237 208.516 448.023 208.878 447.721 209.19C447.419 209.499 447.046 209.741 446.602 209.915C446.158 210.085 445.659 210.17 445.105 210.17ZM453.729 210.17C452.962 210.17 452.302 209.989 451.748 209.627C451.194 209.265 450.768 208.766 450.469 208.13C450.171 207.495 450.022 206.768 450.022 205.952C450.022 205.121 450.175 204.387 450.48 203.752C450.789 203.113 451.219 202.614 451.769 202.255C452.323 201.893 452.969 201.712 453.708 201.712C454.283 201.712 454.802 201.818 455.263 202.031C455.725 202.244 456.103 202.543 456.398 202.926C456.693 203.31 456.876 203.757 456.947 204.268H455.69C455.594 203.896 455.381 203.565 455.05 203.278C454.724 202.987 454.283 202.841 453.729 202.841C453.239 202.841 452.81 202.969 452.44 203.224C452.074 203.477 451.789 203.833 451.583 204.295C451.38 204.753 451.279 205.291 451.279 205.909C451.279 206.541 451.378 207.092 451.577 207.56C451.78 208.029 452.064 208.393 452.43 208.652C452.799 208.912 453.232 209.041 453.729 209.041C454.056 209.041 454.353 208.984 454.619 208.871C454.885 208.757 455.111 208.594 455.295 208.381C455.48 208.168 455.611 207.912 455.69 207.614H456.947C456.876 208.097 456.7 208.532 456.419 208.919C456.142 209.302 455.775 209.608 455.317 209.835C454.862 210.059 454.333 210.17 453.729 210.17ZM462.343 201.818V202.884H458.103V201.818H462.343ZM459.338 199.858H460.595V207.656C460.595 208.011 460.647 208.278 460.75 208.455C460.856 208.629 460.991 208.746 461.155 208.807C461.322 208.864 461.497 208.892 461.682 208.892C461.821 208.892 461.934 208.885 462.023 208.871C462.112 208.853 462.183 208.839 462.236 208.828L462.492 209.957C462.407 209.989 462.288 210.021 462.135 210.053C461.982 210.089 461.789 210.107 461.554 210.107C461.199 210.107 460.851 210.03 460.51 209.877C460.173 209.725 459.892 209.492 459.669 209.18C459.448 208.867 459.338 208.473 459.338 207.997V199.858ZM464.234 210V201.818H465.448V203.054H465.533C465.682 202.649 465.952 202.321 466.343 202.069C466.734 201.816 467.174 201.69 467.664 201.69C467.756 201.69 467.872 201.692 468.01 201.696C468.149 201.699 468.253 201.705 468.324 201.712V202.99C468.282 202.979 468.184 202.963 468.032 202.942C467.882 202.917 467.724 202.905 467.557 202.905C467.16 202.905 466.805 202.988 466.492 203.155C466.183 203.319 465.938 203.546 465.757 203.837C465.579 204.125 465.491 204.453 465.491 204.822V210H464.234ZM472.889 210.17C472.151 210.17 471.503 209.995 470.945 209.643C470.391 209.292 469.958 208.8 469.646 208.168C469.337 207.536 469.182 206.797 469.182 205.952C469.182 205.099 469.337 204.355 469.646 203.72C469.958 203.084 470.391 202.591 470.945 202.239C471.503 201.887 472.151 201.712 472.889 201.712C473.628 201.712 474.274 201.887 474.828 202.239C475.386 202.591 475.819 203.084 476.128 203.72C476.441 204.355 476.597 205.099 476.597 205.952C476.597 206.797 476.441 207.536 476.128 208.168C475.819 208.8 475.386 209.292 474.828 209.643C474.274 209.995 473.628 210.17 472.889 210.17ZM472.889 209.041C473.451 209.041 473.912 208.897 474.274 208.61C474.637 208.322 474.905 207.944 475.079 207.475C475.253 207.006 475.34 206.499 475.34 205.952C475.34 205.405 475.253 204.895 475.079 204.423C474.905 203.951 474.637 203.569 474.274 203.278C473.912 202.987 473.451 202.841 472.889 202.841C472.328 202.841 471.867 202.987 471.505 203.278C471.142 203.569 470.874 203.951 470.7 204.423C470.526 204.895 470.439 205.405 470.439 205.952C470.439 206.499 470.526 207.006 470.7 207.475C470.874 207.944 471.142 208.322 471.505 208.61C471.867 208.897 472.328 209.041 472.889 209.041ZM479.773 205.078V210H478.516V201.818H479.73V203.097H479.837C480.029 202.681 480.32 202.347 480.71 202.095C481.101 201.839 481.605 201.712 482.223 201.712C482.777 201.712 483.262 201.825 483.677 202.053C484.093 202.276 484.416 202.617 484.647 203.075C484.878 203.53 484.993 204.105 484.993 204.801V210H483.736V204.886C483.736 204.244 483.569 203.743 483.235 203.384C482.901 203.022 482.443 202.841 481.861 202.841C481.46 202.841 481.101 202.928 480.785 203.102C480.472 203.276 480.226 203.53 480.045 203.864C479.863 204.197 479.773 204.602 479.773 205.078ZM487.29 210V201.818H488.547V210H487.29ZM487.929 200.455C487.684 200.455 487.473 200.371 487.296 200.204C487.122 200.037 487.035 199.837 487.035 199.602C487.035 199.368 487.122 199.167 487.296 199C487.473 198.833 487.684 198.75 487.929 198.75C488.174 198.75 488.384 198.833 488.558 199C488.736 199.167 488.824 199.368 488.824 199.602C488.824 199.837 488.736 200.037 488.558 200.204C488.384 200.371 488.174 200.455 487.929 200.455ZM494.174 210.17C493.407 210.17 492.746 209.989 492.192 209.627C491.638 209.265 491.212 208.766 490.914 208.13C490.615 207.495 490.466 206.768 490.466 205.952C490.466 205.121 490.619 204.387 490.924 203.752C491.233 203.113 491.663 202.614 492.213 202.255C492.767 201.893 493.414 201.712 494.152 201.712C494.728 201.712 495.246 201.818 495.708 202.031C496.169 202.244 496.548 202.543 496.842 202.926C497.137 203.31 497.32 203.757 497.391 204.268H496.134C496.038 203.896 495.825 203.565 495.495 203.278C495.168 202.987 494.728 202.841 494.174 202.841C493.684 202.841 493.254 202.969 492.885 203.224C492.519 203.477 492.233 203.833 492.027 204.295C491.825 204.753 491.723 205.291 491.723 205.909C491.723 206.541 491.823 207.092 492.022 207.56C492.224 208.029 492.508 208.393 492.874 208.652C493.243 208.912 493.676 209.041 494.174 209.041C494.5 209.041 494.797 208.984 495.063 208.871C495.33 208.757 495.555 208.594 495.74 208.381C495.924 208.168 496.056 207.912 496.134 207.614H497.391C497.32 208.097 497.144 208.532 496.864 208.919C496.587 209.302 496.219 209.608 495.761 209.835C495.306 210.059 494.777 210.17 494.174 210.17ZM505.024 203.651L503.895 203.97C503.824 203.782 503.719 203.599 503.581 203.422C503.446 203.24 503.261 203.091 503.027 202.974C502.792 202.857 502.492 202.798 502.126 202.798C501.626 202.798 501.208 202.914 500.875 203.145C500.544 203.372 500.379 203.661 500.379 204.013C500.379 204.325 500.493 204.572 500.72 204.753C500.947 204.934 501.303 205.085 501.786 205.206L503 205.504C503.732 205.682 504.277 205.953 504.635 206.319C504.994 206.681 505.173 207.148 505.173 207.72C505.173 208.189 505.038 208.608 504.768 208.977C504.502 209.347 504.129 209.638 503.65 209.851C503.17 210.064 502.613 210.17 501.977 210.17C501.143 210.17 500.452 209.989 499.905 209.627C499.358 209.265 499.012 208.736 498.866 208.04L500.06 207.741C500.173 208.182 500.388 208.512 500.704 208.732C501.024 208.952 501.441 209.062 501.956 209.062C502.542 209.062 503.007 208.938 503.352 208.69C503.7 208.437 503.874 208.136 503.874 207.784C503.874 207.5 503.774 207.262 503.575 207.07C503.376 206.875 503.071 206.729 502.659 206.634L501.295 206.314C500.546 206.136 499.996 205.861 499.644 205.488C499.296 205.112 499.122 204.641 499.122 204.077C499.122 203.615 499.252 203.207 499.511 202.852C499.774 202.496 500.131 202.218 500.582 202.015C501.036 201.813 501.551 201.712 502.126 201.712C502.936 201.712 503.572 201.889 504.033 202.244C504.499 202.599 504.829 203.068 505.024 203.651Z" fill="#2E263D" fill-opacity="0.7"/>
<path d="M414.416 237.364V223.727H415.289V237.364H414.416ZM417.148 227.957C417.092 227.452 416.857 227.062 416.445 226.785C416.033 226.504 415.515 226.364 414.89 226.364C414.442 226.364 414.055 226.435 413.729 226.577C413.402 226.716 413.148 226.907 412.967 227.152C412.789 227.394 412.701 227.669 412.701 227.978C412.701 228.237 412.761 228.461 412.882 228.649C413.006 228.837 413.168 228.995 413.366 229.123C413.569 229.248 413.786 229.352 414.016 229.438C414.247 229.519 414.469 229.587 414.682 229.64L415.748 229.917C416.096 230.002 416.452 230.118 416.818 230.263C417.184 230.409 417.523 230.6 417.836 230.838C418.148 231.076 418.4 231.371 418.592 231.723C418.787 232.074 418.885 232.495 418.885 232.985C418.885 233.603 418.725 234.152 418.406 234.631C418.089 235.11 417.63 235.489 417.026 235.766C416.426 236.043 415.7 236.181 414.847 236.181C414.031 236.181 413.324 236.051 412.727 235.792C412.131 235.533 411.664 235.165 411.326 234.69C410.989 234.21 410.803 233.642 410.767 232.985H412.418C412.45 233.379 412.578 233.708 412.802 233.971C413.029 234.23 413.319 234.423 413.67 234.551C414.025 234.675 414.414 234.738 414.837 234.738C415.302 234.738 415.716 234.665 416.078 234.519C416.444 234.37 416.731 234.164 416.941 233.901C417.15 233.635 417.255 233.324 417.255 232.969C417.255 232.646 417.163 232.381 416.978 232.175C416.797 231.969 416.55 231.799 416.238 231.664C415.929 231.529 415.579 231.41 415.188 231.307L413.899 230.956C413.026 230.718 412.333 230.368 411.822 229.906C411.314 229.445 411.06 228.834 411.06 228.074C411.06 227.445 411.23 226.897 411.571 226.428C411.912 225.959 412.374 225.595 412.956 225.336C413.539 225.073 414.196 224.942 414.927 224.942C415.666 224.942 416.317 225.071 416.882 225.331C417.45 225.59 417.898 225.947 418.224 226.401C418.551 226.852 418.722 227.371 418.736 227.957H417.148ZM424.842 225.091V236H423.19V226.742H423.126L420.516 228.447V226.87L423.238 225.091H424.842ZM431.931 225.091V236H430.28V226.742H430.216L427.606 228.447V226.87L430.328 225.091H431.931ZM436.346 234.509L436.266 235.089C436.213 235.515 436.122 235.959 435.994 236.421C435.87 236.886 435.74 237.317 435.605 237.715C435.474 238.113 435.366 238.429 435.281 238.663H434.151C434.197 238.443 434.261 238.145 434.343 237.768C434.425 237.396 434.505 236.978 434.583 236.517C434.661 236.055 434.719 235.585 434.759 235.105L434.812 234.509H436.346ZM438.345 233.869V232.538L443.059 225.091H444.108V227.051H443.442L440.071 232.388V232.474H446.532V233.869H438.345ZM443.517 236V233.464L443.528 232.857V225.091H445.088V236H443.517ZM448.388 236V234.807L452.08 230.982C452.474 230.567 452.799 230.203 453.054 229.89C453.314 229.574 453.507 229.274 453.635 228.99C453.763 228.706 453.827 228.404 453.827 228.085C453.827 227.722 453.742 227.41 453.571 227.147C453.401 226.881 453.168 226.676 452.873 226.534C452.579 226.389 452.247 226.316 451.877 226.316C451.487 226.316 451.146 226.396 450.854 226.556C450.563 226.716 450.34 226.941 450.183 227.232C450.027 227.523 449.949 227.864 449.949 228.255H448.378C448.378 227.591 448.53 227.01 448.836 226.513C449.141 226.016 449.56 225.631 450.093 225.357C450.625 225.08 451.231 224.942 451.909 224.942C452.595 224.942 453.198 225.078 453.72 225.352C454.246 225.622 454.656 225.991 454.951 226.46C455.245 226.925 455.393 227.451 455.393 228.037C455.393 228.441 455.316 228.837 455.164 229.224C455.015 229.612 454.754 230.043 454.381 230.519C454.008 230.991 453.489 231.565 452.825 232.239L450.657 234.509V234.588H455.569V236H448.388ZM461.385 236.181C460.544 236.178 459.825 235.956 459.228 235.515C458.631 235.075 458.175 234.434 457.859 233.592C457.543 232.751 457.385 231.737 457.385 230.551C457.385 229.368 457.543 228.358 457.859 227.52C458.179 226.682 458.637 226.043 459.233 225.602C459.834 225.162 460.551 224.942 461.385 224.942C462.22 224.942 462.935 225.164 463.532 225.608C464.129 226.048 464.585 226.687 464.901 227.525C465.221 228.36 465.38 229.368 465.38 230.551C465.38 231.74 465.222 232.756 464.906 233.598C464.59 234.436 464.134 235.077 463.537 235.521C462.941 235.961 462.223 236.181 461.385 236.181ZM461.385 234.759C462.124 234.759 462.701 234.398 463.117 233.678C463.536 232.957 463.745 231.914 463.745 230.551C463.745 229.645 463.649 228.88 463.457 228.255C463.269 227.626 462.998 227.151 462.642 226.827C462.291 226.501 461.872 226.337 461.385 226.337C460.65 226.337 460.073 226.7 459.654 227.424C459.235 228.148 459.024 229.191 459.02 230.551C459.02 231.46 459.114 232.229 459.303 232.857C459.494 233.482 459.766 233.956 460.118 234.279C460.469 234.599 460.892 234.759 461.385 234.759Z" fill="#2E263D" fill-opacity="0.7"/>
<circle cx="281" cy="277" r="5" fill="#8C57FF"/>
<path d="M295.321 282V271.091H301.862V272.263H296.642V275.949H301.372V277.121H296.642V282H295.321ZM304.125 271.091H305.701L309.409 280.146H309.537L313.244 271.091H314.821V282H313.585V273.712H313.478L310.069 282H308.876L305.467 273.712H305.361V282H304.125V271.091ZM326.248 274.5H324.927C324.849 274.12 324.712 273.786 324.517 273.499C324.325 273.211 324.091 272.969 323.814 272.774C323.54 272.575 323.237 272.426 322.903 272.327C322.569 272.227 322.221 272.178 321.859 272.178C321.198 272.178 320.6 272.344 320.064 272.678C319.531 273.012 319.107 273.504 318.79 274.154C318.478 274.804 318.322 275.601 318.322 276.545C318.322 277.49 318.478 278.287 318.79 278.937C319.107 279.587 319.531 280.079 320.064 280.413C320.6 280.746 321.198 280.913 321.859 280.913C322.221 280.913 322.569 280.864 322.903 280.764C323.237 280.665 323.54 280.517 323.814 280.322C324.091 280.123 324.325 279.88 324.517 279.592C324.712 279.301 324.849 278.967 324.927 278.591H326.248C326.148 279.148 325.967 279.647 325.705 280.088C325.442 280.528 325.115 280.903 324.724 281.212C324.334 281.517 323.895 281.75 323.409 281.909C322.926 282.069 322.409 282.149 321.859 282.149C320.928 282.149 320.101 281.922 319.376 281.467C318.652 281.013 318.082 280.366 317.667 279.528C317.251 278.69 317.043 277.696 317.043 276.545C317.043 275.395 317.251 274.401 317.667 273.562C318.082 272.724 318.652 272.078 319.376 271.624C320.101 271.169 320.928 270.942 321.859 270.942C322.409 270.942 322.926 271.022 323.409 271.181C323.895 271.341 324.334 271.576 324.724 271.885C325.115 272.19 325.442 272.563 325.705 273.003C325.967 273.44 326.148 273.939 326.248 274.5ZM335.84 274.5C335.723 274.141 335.568 273.82 335.377 273.536C335.188 273.248 334.963 273.003 334.7 272.801C334.441 272.598 334.146 272.444 333.816 272.337C333.486 272.231 333.123 272.178 332.729 272.178C332.083 272.178 331.495 272.344 330.966 272.678C330.437 273.012 330.016 273.504 329.704 274.154C329.391 274.804 329.235 275.601 329.235 276.545C329.235 277.49 329.393 278.287 329.709 278.937C330.025 279.587 330.453 280.079 330.993 280.413C331.532 280.746 332.14 280.913 332.814 280.913C333.439 280.913 333.99 280.78 334.466 280.514C334.945 280.244 335.318 279.864 335.584 279.374C335.854 278.88 335.989 278.3 335.989 277.632L336.394 277.717H333.113V276.545H337.267V277.717C337.267 278.616 337.076 279.397 336.692 280.061C336.312 280.725 335.787 281.24 335.116 281.606C334.448 281.968 333.681 282.149 332.814 282.149C331.848 282.149 331 281.922 330.268 281.467C329.54 281.013 328.972 280.366 328.564 279.528C328.159 278.69 327.956 277.696 327.956 276.545C327.956 275.683 328.072 274.907 328.303 274.218C328.537 273.525 328.867 272.936 329.293 272.449C329.72 271.963 330.224 271.59 330.806 271.331C331.389 271.071 332.03 270.942 332.729 270.942C333.304 270.942 333.841 271.029 334.338 271.203C334.839 271.373 335.284 271.616 335.675 271.933C336.069 272.245 336.397 272.62 336.66 273.056C336.923 273.49 337.104 273.971 337.204 274.5H335.84Z" fill="#2E263D" fill-opacity="0.7"/>
<path d="M280.416 309.364V295.727H281.289V309.364H280.416ZM283.148 299.957C283.092 299.452 282.857 299.062 282.445 298.785C282.033 298.504 281.515 298.364 280.89 298.364C280.442 298.364 280.055 298.435 279.729 298.577C279.402 298.716 279.148 298.907 278.967 299.152C278.789 299.394 278.701 299.669 278.701 299.978C278.701 300.237 278.761 300.461 278.882 300.649C279.006 300.837 279.168 300.995 279.366 301.123C279.569 301.248 279.786 301.352 280.016 301.438C280.247 301.519 280.469 301.587 280.682 301.64L281.748 301.917C282.096 302.002 282.452 302.118 282.818 302.263C283.184 302.409 283.523 302.6 283.836 302.838C284.148 303.076 284.4 303.371 284.592 303.723C284.787 304.074 284.885 304.495 284.885 304.985C284.885 305.603 284.725 306.152 284.406 306.631C284.089 307.11 283.63 307.489 283.026 307.766C282.426 308.043 281.7 308.181 280.847 308.181C280.031 308.181 279.324 308.051 278.727 307.792C278.131 307.533 277.664 307.165 277.326 306.69C276.989 306.21 276.803 305.642 276.767 304.985H278.418C278.45 305.379 278.578 305.708 278.802 305.971C279.029 306.23 279.319 306.423 279.67 306.551C280.025 306.675 280.414 306.738 280.837 306.738C281.302 306.738 281.716 306.665 282.078 306.519C282.444 306.37 282.731 306.164 282.941 305.901C283.15 305.635 283.255 305.324 283.255 304.969C283.255 304.646 283.163 304.381 282.978 304.175C282.797 303.969 282.55 303.799 282.238 303.664C281.929 303.529 281.579 303.41 281.188 303.307L279.899 302.956C279.026 302.718 278.333 302.368 277.822 301.906C277.314 301.445 277.06 300.834 277.06 300.074C277.06 299.445 277.23 298.897 277.571 298.428C277.912 297.959 278.374 297.595 278.956 297.336C279.539 297.073 280.196 296.942 280.927 296.942C281.666 296.942 282.317 297.071 282.882 297.331C283.45 297.59 283.898 297.947 284.224 298.401C284.551 298.852 284.722 299.371 284.736 299.957H283.148ZM290.842 297.091V308H289.19V298.742H289.126L286.516 300.447V298.87L289.238 297.091H290.842ZM295.256 306.509L295.176 307.089C295.123 307.515 295.032 307.959 294.904 308.421C294.78 308.886 294.651 309.317 294.516 309.715C294.384 310.113 294.276 310.429 294.191 310.663H293.061C293.108 310.443 293.172 310.145 293.253 309.768C293.335 309.396 293.415 308.978 293.493 308.517C293.571 308.055 293.63 307.585 293.669 307.105L293.722 306.509H295.256ZM300.804 308.149C300.04 308.149 299.366 308.018 298.78 307.755C298.197 307.492 297.741 307.13 297.411 306.668C297.08 306.207 296.917 305.681 296.921 305.092C296.917 304.63 297.011 304.206 297.203 303.819C297.398 303.428 297.663 303.103 297.997 302.844C298.33 302.581 298.703 302.414 299.115 302.343V302.279C298.572 302.148 298.137 301.857 297.81 301.406C297.483 300.955 297.322 300.436 297.325 299.85C297.322 299.293 297.469 298.795 297.768 298.359C298.069 297.918 298.483 297.572 299.009 297.32C299.534 297.068 300.133 296.942 300.804 296.942C301.468 296.942 302.061 297.07 302.583 297.325C303.108 297.577 303.522 297.924 303.824 298.364C304.126 298.801 304.279 299.296 304.282 299.85C304.279 300.436 304.112 300.955 303.781 301.406C303.451 301.857 303.021 302.148 302.492 302.279V302.343C302.901 302.414 303.268 302.581 303.595 302.844C303.925 303.103 304.188 303.428 304.383 303.819C304.582 304.206 304.683 304.63 304.687 305.092C304.683 305.681 304.517 306.207 304.186 306.668C303.856 307.13 303.398 307.492 302.812 307.755C302.23 308.018 301.56 308.149 300.804 308.149ZM300.804 306.801C301.255 306.801 301.645 306.727 301.976 306.578C302.306 306.425 302.562 306.214 302.743 305.944C302.924 305.67 303.016 305.351 303.02 304.985C303.016 304.605 302.917 304.27 302.721 303.978C302.53 303.687 302.269 303.458 301.938 303.291C301.608 303.124 301.23 303.041 300.804 303.041C300.374 303.041 299.992 303.124 299.659 303.291C299.325 303.458 299.062 303.687 298.87 303.978C298.678 304.27 298.584 304.605 298.588 304.985C298.584 305.351 298.671 305.67 298.849 305.944C299.03 306.214 299.287 306.425 299.621 306.578C299.955 306.727 300.349 306.801 300.804 306.801ZM300.804 301.725C301.166 301.725 301.487 301.652 301.768 301.507C302.048 301.361 302.269 301.159 302.428 300.9C302.592 300.64 302.675 300.337 302.679 299.989C302.675 299.648 302.594 299.349 302.434 299.094C302.278 298.838 302.059 298.641 301.779 298.502C301.498 298.36 301.173 298.289 300.804 298.289C300.427 298.289 300.097 298.36 299.813 298.502C299.532 298.641 299.314 298.838 299.158 299.094C299.002 299.349 298.925 299.648 298.929 299.989C298.925 300.337 299.003 300.64 299.163 300.9C299.323 301.159 299.543 301.361 299.824 301.507C300.108 301.652 300.434 301.725 300.804 301.725ZM306.366 305.869V304.538L311.08 297.091H312.13V299.051H311.464L308.092 304.388V304.474H314.553V305.869H306.366ZM311.538 308V305.464L311.549 304.857V297.091H313.11V308H311.538ZM320.208 308.181C319.366 308.178 318.647 307.956 318.05 307.515C317.454 307.075 316.997 306.434 316.681 305.592C316.365 304.751 316.207 303.737 316.207 302.551C316.207 301.368 316.365 300.358 316.681 299.52C317.001 298.682 317.459 298.043 318.056 297.602C318.656 297.162 319.373 296.942 320.208 296.942C321.042 296.942 321.758 297.164 322.354 297.608C322.951 298.048 323.407 298.687 323.723 299.525C324.043 300.36 324.203 301.368 324.203 302.551C324.203 303.74 324.045 304.756 323.729 305.598C323.413 306.436 322.956 307.077 322.36 307.521C321.763 307.961 321.046 308.181 320.208 308.181ZM320.208 306.759C320.946 306.759 321.523 306.398 321.939 305.678C322.358 304.957 322.567 303.914 322.567 302.551C322.567 301.645 322.472 300.88 322.28 300.255C322.092 299.626 321.82 299.151 321.465 298.827C321.113 298.501 320.694 298.337 320.208 298.337C319.473 298.337 318.896 298.7 318.476 299.424C318.057 300.148 317.846 301.191 317.843 302.551C317.843 303.46 317.937 304.229 318.125 304.857C318.317 305.482 318.588 305.956 318.94 306.279C319.291 306.599 319.714 306.759 320.208 306.759Z" fill="#2E263D" fill-opacity="0.7"/>
<circle cx="415" cy="277" r="5" fill="#8C57FF"/>
<path d="M438.526 276.545C438.526 277.696 438.318 278.69 437.902 279.528C437.487 280.366 436.917 281.013 436.192 281.467C435.468 281.922 434.641 282.149 433.71 282.149C432.78 282.149 431.952 281.922 431.228 281.467C430.504 281.013 429.934 280.366 429.518 279.528C429.103 278.69 428.895 277.696 428.895 276.545C428.895 275.395 429.103 274.401 429.518 273.562C429.934 272.724 430.504 272.078 431.228 271.624C431.952 271.169 432.78 270.942 433.71 270.942C434.641 270.942 435.468 271.169 436.192 271.624C436.917 272.078 437.487 272.724 437.902 273.562C438.318 274.401 438.526 275.395 438.526 276.545ZM437.247 276.545C437.247 275.601 437.089 274.804 436.773 274.154C436.461 273.504 436.036 273.012 435.5 272.678C434.967 272.344 434.371 272.178 433.71 272.178C433.05 272.178 432.451 272.344 431.915 272.678C431.382 273.012 430.958 273.504 430.642 274.154C430.33 274.804 430.173 275.601 430.173 276.545C430.173 277.49 430.33 278.287 430.642 278.937C430.958 279.587 431.382 280.079 431.915 280.413C432.451 280.746 433.05 280.913 433.71 280.913C434.371 280.913 434.967 280.746 435.5 280.413C436.036 280.079 436.461 279.587 436.773 278.937C437.089 278.287 437.247 277.49 437.247 276.545ZM444.135 273.818V274.884H439.895V273.818H444.135ZM441.13 271.858H442.387V279.656C442.387 280.011 442.439 280.278 442.542 280.455C442.648 280.629 442.783 280.746 442.947 280.807C443.114 280.864 443.289 280.892 443.474 280.892C443.613 280.892 443.726 280.885 443.815 280.871C443.904 280.853 443.975 280.839 444.028 280.828L444.284 281.957C444.199 281.989 444.08 282.021 443.927 282.053C443.774 282.089 443.581 282.107 443.346 282.107C442.991 282.107 442.643 282.03 442.302 281.877C441.965 281.725 441.684 281.492 441.461 281.18C441.24 280.867 441.13 280.473 441.13 279.997V271.858ZM447.458 277.078V282H446.201V271.091H447.458V275.097H447.565C447.757 274.674 448.044 274.338 448.428 274.09C448.815 273.838 449.33 273.712 449.973 273.712C450.53 273.712 451.018 273.824 451.438 274.047C451.857 274.267 452.181 274.607 452.412 275.065C452.647 275.519 452.764 276.098 452.764 276.801V282H451.507V276.886C451.507 276.237 451.338 275.734 451.001 275.379C450.667 275.02 450.203 274.841 449.61 274.841C449.199 274.841 448.829 274.928 448.502 275.102C448.179 275.276 447.924 275.53 447.735 275.864C447.551 276.197 447.458 276.602 447.458 277.078ZM458.494 282.17C457.706 282.17 457.026 281.996 456.454 281.648C455.886 281.297 455.447 280.807 455.138 280.178C454.833 279.546 454.68 278.811 454.68 277.973C454.68 277.135 454.833 276.396 455.138 275.757C455.447 275.114 455.877 274.614 456.427 274.255C456.981 273.893 457.628 273.712 458.366 273.712C458.792 273.712 459.213 273.783 459.629 273.925C460.044 274.067 460.422 274.298 460.763 274.617C461.104 274.933 461.376 275.352 461.578 275.874C461.781 276.396 461.882 277.039 461.882 277.803V278.335H455.575V277.249H460.603C460.603 276.787 460.511 276.375 460.326 276.013C460.145 275.651 459.886 275.365 459.549 275.155C459.215 274.946 458.821 274.841 458.366 274.841C457.866 274.841 457.432 274.965 457.066 275.214C456.704 275.459 456.426 275.778 456.23 276.173C456.035 276.567 455.937 276.989 455.937 277.44V278.165C455.937 278.783 456.044 279.306 456.257 279.736C456.473 280.162 456.774 280.487 457.157 280.711C457.541 280.931 457.986 281.041 458.494 281.041C458.824 281.041 459.123 280.995 459.389 280.903C459.659 280.807 459.891 280.665 460.087 280.477C460.282 280.285 460.433 280.047 460.54 279.763L461.754 280.104C461.626 280.516 461.411 280.878 461.109 281.19C460.808 281.499 460.435 281.741 459.991 281.915C459.547 282.085 459.048 282.17 458.494 282.17ZM463.794 282V273.818H465.009V275.054H465.094C465.243 274.649 465.513 274.321 465.903 274.069C466.294 273.816 466.734 273.69 467.225 273.69C467.317 273.69 467.432 273.692 467.571 273.696C467.709 273.699 467.814 273.705 467.885 273.712V274.99C467.842 274.979 467.745 274.963 467.592 274.942C467.443 274.917 467.285 274.905 467.118 274.905C466.72 274.905 466.365 274.988 466.053 275.155C465.744 275.319 465.499 275.546 465.318 275.837C465.14 276.125 465.051 276.453 465.051 276.822V282H463.794ZM479.73 273.818C479.666 273.278 479.407 272.859 478.953 272.561C478.498 272.263 477.941 272.114 477.28 272.114C476.797 272.114 476.374 272.192 476.012 272.348C475.654 272.504 475.373 272.719 475.171 272.993C474.972 273.266 474.872 273.577 474.872 273.925C474.872 274.216 474.942 274.466 475.08 274.676C475.222 274.882 475.403 275.054 475.623 275.192C475.844 275.327 476.074 275.439 476.316 275.528C476.557 275.613 476.779 275.683 476.982 275.736L478.09 276.034C478.374 276.109 478.69 276.212 479.038 276.343C479.389 276.474 479.725 276.654 480.045 276.881C480.368 277.105 480.634 277.392 480.844 277.744C481.053 278.096 481.158 278.527 481.158 279.038C481.158 279.628 481.003 280.161 480.694 280.636C480.389 281.112 479.942 281.49 479.352 281.771C478.766 282.051 478.054 282.192 477.216 282.192C476.435 282.192 475.758 282.066 475.187 281.814C474.618 281.561 474.171 281.21 473.844 280.759C473.521 280.308 473.338 279.784 473.296 279.188H474.659C474.695 279.599 474.833 279.94 475.075 280.21C475.32 280.477 475.629 280.675 476.002 280.807C476.378 280.935 476.783 280.999 477.216 280.999C477.72 280.999 478.173 280.917 478.574 280.754C478.976 280.587 479.294 280.356 479.528 280.061C479.762 279.763 479.879 279.415 479.879 279.017C479.879 278.655 479.778 278.36 479.576 278.133C479.373 277.906 479.107 277.721 478.777 277.579C478.447 277.437 478.09 277.312 477.706 277.206L476.364 276.822C475.512 276.577 474.837 276.228 474.34 275.773C473.843 275.319 473.594 274.724 473.594 273.989C473.594 273.378 473.759 272.845 474.089 272.391C474.423 271.933 474.871 271.577 475.432 271.325C475.996 271.07 476.627 270.942 477.323 270.942C478.026 270.942 478.651 271.068 479.198 271.32C479.744 271.569 480.178 271.909 480.497 272.343C480.82 272.776 480.991 273.268 481.009 273.818H479.73ZM485.567 282.192C485.049 282.192 484.578 282.094 484.155 281.899C483.733 281.7 483.397 281.414 483.149 281.041C482.9 280.665 482.776 280.21 482.776 279.678C482.776 279.209 482.868 278.829 483.053 278.538C483.237 278.243 483.484 278.012 483.793 277.845C484.102 277.678 484.443 277.554 484.816 277.472C485.192 277.387 485.571 277.32 485.951 277.27C486.448 277.206 486.851 277.158 487.16 277.126C487.472 277.091 487.699 277.032 487.842 276.95C487.987 276.869 488.06 276.727 488.06 276.524V276.482C488.06 275.956 487.916 275.548 487.628 275.256C487.344 274.965 486.913 274.82 486.334 274.82C485.734 274.82 485.263 274.951 484.922 275.214C484.582 275.477 484.342 275.757 484.203 276.055L483.01 275.629C483.223 275.132 483.507 274.745 483.862 274.468C484.221 274.187 484.612 273.992 485.034 273.882C485.46 273.768 485.88 273.712 486.291 273.712C486.554 273.712 486.856 273.744 487.197 273.808C487.541 273.868 487.873 273.994 488.193 274.186C488.516 274.377 488.784 274.667 488.997 275.054C489.21 275.441 489.317 275.96 489.317 276.609V282H488.06V280.892H487.996C487.911 281.07 487.769 281.26 487.57 281.462C487.371 281.664 487.106 281.837 486.776 281.979C486.446 282.121 486.043 282.192 485.567 282.192ZM485.759 281.062C486.256 281.062 486.675 280.965 487.016 280.77C487.36 280.574 487.62 280.322 487.794 280.013C487.971 279.704 488.06 279.379 488.06 279.038V277.888C488.007 277.952 487.889 278.01 487.708 278.064C487.531 278.113 487.325 278.158 487.09 278.197C486.86 278.232 486.634 278.264 486.414 278.293C486.197 278.317 486.022 278.339 485.887 278.357C485.56 278.399 485.255 278.468 484.97 278.564C484.69 278.657 484.463 278.797 484.289 278.985C484.118 279.17 484.033 279.422 484.033 279.741C484.033 280.178 484.195 280.509 484.518 280.732C484.844 280.952 485.258 281.062 485.759 281.062ZM492.869 271.091V282H491.612V271.091H492.869ZM498.601 282.17C497.813 282.17 497.133 281.996 496.561 281.648C495.993 281.297 495.555 280.807 495.246 280.178C494.94 279.546 494.788 278.811 494.788 277.973C494.788 277.135 494.94 276.396 495.246 275.757C495.555 275.114 495.984 274.614 496.535 274.255C497.089 273.893 497.735 273.712 498.474 273.712C498.9 273.712 499.321 273.783 499.736 273.925C500.152 274.067 500.53 274.298 500.871 274.617C501.212 274.933 501.483 275.352 501.686 275.874C501.888 276.396 501.989 277.039 501.989 277.803V278.335H495.682V277.249H500.711C500.711 276.787 500.619 276.375 500.434 276.013C500.253 275.651 499.994 275.365 499.656 275.155C499.322 274.946 498.928 274.841 498.474 274.841C497.973 274.841 497.54 274.965 497.174 275.214C496.812 275.459 496.533 275.778 496.338 276.173C496.142 276.567 496.045 276.989 496.045 277.44V278.165C496.045 278.783 496.151 279.306 496.364 279.736C496.581 280.162 496.881 280.487 497.264 280.711C497.648 280.931 498.094 281.041 498.601 281.041C498.932 281.041 499.23 280.995 499.496 280.903C499.766 280.807 499.999 280.665 500.194 280.477C500.389 280.285 500.54 280.047 500.647 279.763L501.861 280.104C501.734 280.516 501.519 280.878 501.217 281.19C500.915 281.499 500.542 281.741 500.098 281.915C499.654 282.085 499.155 282.17 498.601 282.17ZM509.697 275.651L508.568 275.97C508.497 275.782 508.392 275.599 508.253 275.422C508.119 275.24 507.934 275.091 507.699 274.974C507.465 274.857 507.165 274.798 506.799 274.798C506.299 274.798 505.881 274.914 505.547 275.145C505.217 275.372 505.052 275.661 505.052 276.013C505.052 276.325 505.166 276.572 505.393 276.753C505.62 276.934 505.975 277.085 506.458 277.206L507.673 277.504C508.404 277.682 508.949 277.953 509.308 278.319C509.667 278.681 509.846 279.148 509.846 279.72C509.846 280.189 509.711 280.608 509.441 280.977C509.175 281.347 508.802 281.638 508.323 281.851C507.843 282.064 507.286 282.17 506.65 282.17C505.816 282.17 505.125 281.989 504.578 281.627C504.031 281.265 503.685 280.736 503.539 280.04L504.733 279.741C504.846 280.182 505.061 280.512 505.377 280.732C505.697 280.952 506.114 281.062 506.629 281.062C507.215 281.062 507.68 280.938 508.024 280.69C508.372 280.437 508.546 280.136 508.546 279.784C508.546 279.5 508.447 279.262 508.248 279.07C508.049 278.875 507.744 278.729 507.332 278.634L505.968 278.314C505.219 278.136 504.669 277.861 504.317 277.488C503.969 277.112 503.795 276.641 503.795 276.077C503.795 275.615 503.925 275.207 504.184 274.852C504.447 274.496 504.804 274.218 505.255 274.015C505.709 273.813 506.224 273.712 506.799 273.712C507.609 273.712 508.245 273.889 508.706 274.244C509.171 274.599 509.502 275.068 509.697 275.651Z" fill="#2E263D" fill-opacity="0.7"/>
<path d="M414.416 309.364V295.727H415.289V309.364H414.416ZM417.148 299.957C417.092 299.452 416.857 299.062 416.445 298.785C416.033 298.504 415.515 298.364 414.89 298.364C414.442 298.364 414.055 298.435 413.729 298.577C413.402 298.716 413.148 298.907 412.967 299.152C412.789 299.394 412.701 299.669 412.701 299.978C412.701 300.237 412.761 300.461 412.882 300.649C413.006 300.837 413.168 300.995 413.366 301.123C413.569 301.248 413.786 301.352 414.016 301.438C414.247 301.519 414.469 301.587 414.682 301.64L415.748 301.917C416.096 302.002 416.452 302.118 416.818 302.263C417.184 302.409 417.523 302.6 417.836 302.838C418.148 303.076 418.4 303.371 418.592 303.723C418.787 304.074 418.885 304.495 418.885 304.985C418.885 305.603 418.725 306.152 418.406 306.631C418.089 307.11 417.63 307.489 417.026 307.766C416.426 308.043 415.7 308.181 414.847 308.181C414.031 308.181 413.324 308.051 412.727 307.792C412.131 307.533 411.664 307.165 411.326 306.69C410.989 306.21 410.803 305.642 410.767 304.985H412.418C412.45 305.379 412.578 305.708 412.802 305.971C413.029 306.23 413.319 306.423 413.67 306.551C414.025 306.675 414.414 306.738 414.837 306.738C415.302 306.738 415.716 306.665 416.078 306.519C416.444 306.37 416.731 306.164 416.941 305.901C417.15 305.635 417.255 305.324 417.255 304.969C417.255 304.646 417.163 304.381 416.978 304.175C416.797 303.969 416.55 303.799 416.238 303.664C415.929 303.529 415.579 303.41 415.188 303.307L413.899 302.956C413.026 302.718 412.333 302.368 411.822 301.906C411.314 301.445 411.06 300.834 411.06 300.074C411.06 299.445 411.23 298.897 411.571 298.428C411.912 297.959 412.374 297.595 412.956 297.336C413.539 297.073 414.196 296.942 414.927 296.942C415.666 296.942 416.317 297.071 416.882 297.331C417.45 297.59 417.898 297.947 418.224 298.401C418.551 298.852 418.722 299.371 418.736 299.957H417.148ZM424.842 297.091V308H423.19V298.742H423.126L420.516 300.447V298.87L423.238 297.091H424.842ZM431.931 297.091V308H430.28V298.742H430.216L427.606 300.447V298.87L430.328 297.091H431.931ZM436.346 306.509L436.266 307.089C436.213 307.515 436.122 307.959 435.994 308.421C435.87 308.886 435.74 309.317 435.605 309.715C435.474 310.113 435.366 310.429 435.281 310.663H434.151C434.197 310.443 434.261 310.145 434.343 309.768C434.425 309.396 434.505 308.978 434.583 308.517C434.661 308.055 434.719 307.585 434.759 307.105L434.812 306.509H436.346ZM438.345 305.869V304.538L443.059 297.091H444.108V299.051H443.442L440.071 304.388V304.474H446.532V305.869H438.345ZM443.517 308V305.464L443.528 304.857V297.091H445.088V308H443.517ZM448.388 308V306.807L452.08 302.982C452.474 302.567 452.799 302.203 453.054 301.89C453.314 301.574 453.507 301.274 453.635 300.99C453.763 300.706 453.827 300.404 453.827 300.085C453.827 299.722 453.742 299.41 453.571 299.147C453.401 298.881 453.168 298.676 452.873 298.534C452.579 298.389 452.247 298.316 451.877 298.316C451.487 298.316 451.146 298.396 450.854 298.556C450.563 298.716 450.34 298.941 450.183 299.232C450.027 299.523 449.949 299.864 449.949 300.255H448.378C448.378 299.591 448.53 299.01 448.836 298.513C449.141 298.016 449.56 297.631 450.093 297.357C450.625 297.08 451.231 296.942 451.909 296.942C452.595 296.942 453.198 297.078 453.72 297.352C454.246 297.622 454.656 297.991 454.951 298.46C455.245 298.925 455.393 299.451 455.393 300.037C455.393 300.441 455.316 300.837 455.164 301.224C455.015 301.612 454.754 302.043 454.381 302.519C454.008 302.991 453.489 303.565 452.825 304.239L450.657 306.509V306.588H455.569V308H448.388ZM461.385 308.181C460.544 308.178 459.825 307.956 459.228 307.515C458.631 307.075 458.175 306.434 457.859 305.592C457.543 304.751 457.385 303.737 457.385 302.551C457.385 301.368 457.543 300.358 457.859 299.52C458.179 298.682 458.637 298.043 459.233 297.602C459.834 297.162 460.551 296.942 461.385 296.942C462.22 296.942 462.935 297.164 463.532 297.608C464.129 298.048 464.585 298.687 464.901 299.525C465.221 300.36 465.38 301.368 465.38 302.551C465.38 303.74 465.222 304.756 464.906 305.598C464.59 306.436 464.134 307.077 463.537 307.521C462.941 307.961 462.223 308.181 461.385 308.181ZM461.385 306.759C462.124 306.759 462.701 306.398 463.117 305.678C463.536 304.957 463.745 303.914 463.745 302.551C463.745 301.645 463.649 300.88 463.457 300.255C463.269 299.626 462.998 299.151 462.642 298.827C462.291 298.501 461.872 298.337 461.385 298.337C460.65 298.337 460.073 298.7 459.654 299.424C459.235 300.148 459.024 301.191 459.02 302.551C459.02 303.46 459.114 304.229 459.303 304.857C459.494 305.482 459.766 305.956 460.118 306.279C460.469 306.599 460.892 306.759 461.385 306.759Z" fill="#2E263D" fill-opacity="0.7"/>
</g>
</g>
<defs>
<filter id="filter0_d_8003_5954" x="0" y="0" width="574" height="350" filterUnits="userSpaceOnUse" color-interpolation-filters="sRGB">
<feFlood flood-opacity="0" result="BackgroundImageFix"/>
<feColorMatrix in="SourceAlpha" type="matrix" values="0 0 0 0 0 0 0 0 0 0 0 0 0 0 0 0 0 0 127 0" result="hardAlpha"/>
<feOffset dy="4"/>
<feGaussianBlur stdDeviation="5"/>
<feComposite in2="hardAlpha" operator="out"/>
<feColorMatrix type="matrix" values="0 0 0 0 0.180392 0 0 0 0 0.14902 0 0 0 0 0.239216 0 0 0 0.2 0"/>
<feBlend mode="normal" in2="BackgroundImageFix" result="effect1_dropShadow_8003_5954"/>
<feBlend mode="normal" in="SourceGraphic" in2="effect1_dropShadow_8003_5954" result="shape"/>
</filter>
<clipPath id="clip0_8003_5954">
<path d="M10 12C10 8.68629 12.6863 6 16 6H558C561.314 6 564 8.68629 564 12V330C564 333.314 561.314 336 558 336H16C12.6863 336 10 333.314 10 330V12Z" fill="white"/>
</clipPath>
</defs>
</svg>
