<svg width="160" height="82" viewBox="0 0 160 82" fill="none" xmlns="http://www.w3.org/2000/svg">
<path d="M0 8H160V81H0V8Z" stroke="#2E263D" stroke-opacity="0.22"/>
<path d="M6 8.5H154C157.038 8.5 159.5 10.9624 159.5 14V58C159.5 61.0376 157.038 63.5 154 63.5H6C2.96244 63.5 0.5 61.0376 0.5 58V14C0.5 10.9624 2.96243 8.5 6 8.5Z" stroke="#2E263D" stroke-opacity="0.22"/>
<rect x="10" width="46" height="19" rx="3" fill="white"/>
<path d="M17.1449 14V4.54545H18.2898V12.9844H22.6847V14H17.1449ZM26.3963 14.1662C25.947 14.1662 25.5392 14.0816 25.1729 13.9123C24.8067 13.7399 24.5159 13.4922 24.3004 13.169C24.085 12.8428 23.9773 12.4489 23.9773 11.9872C23.9773 11.581 24.0573 11.2517 24.2173 10.9993C24.3774 10.7438 24.5913 10.5438 24.859 10.3991C25.1268 10.2545 25.4222 10.1468 25.7454 10.076C26.0716 10.0021 26.3994 9.94366 26.7287 9.90057C27.1596 9.84517 27.5089 9.80362 27.7766 9.77592C28.0475 9.74515 28.2444 9.69437 28.3675 9.62358C28.4937 9.55279 28.5568 9.42969 28.5568 9.25426V9.21733C28.5568 8.76184 28.4322 8.40791 28.1829 8.15554C27.9367 7.90317 27.5627 7.77699 27.0611 7.77699C26.541 7.77699 26.1332 7.89086 25.8377 8.11861C25.5423 8.34635 25.3345 8.58949 25.2145 8.84801L24.1804 8.47869C24.3651 8.04782 24.6113 7.71236 24.919 7.4723C25.2299 7.22917 25.5684 7.0599 25.9347 6.96449C26.304 6.866 26.6671 6.81676 27.0241 6.81676C27.2519 6.81676 27.5135 6.84446 27.8089 6.89986C28.1075 6.95218 28.3952 7.06143 28.6722 7.22763C28.9523 7.39382 29.1847 7.64465 29.3693 7.98011C29.554 8.31558 29.6463 8.76491 29.6463 9.32812V14H28.5568V13.0398H28.5014C28.4276 13.1937 28.3045 13.3583 28.1321 13.5337C27.9598 13.7092 27.7305 13.8584 27.4442 13.9815C27.158 14.1046 26.8087 14.1662 26.3963 14.1662ZM26.5625 13.1875C26.9934 13.1875 27.3565 13.1029 27.652 12.9336C27.9505 12.7643 28.1752 12.5458 28.326 12.2781C28.4799 12.0103 28.5568 11.7287 28.5568 11.4332V10.4361C28.5107 10.4915 28.4091 10.5423 28.2521 10.5884C28.0982 10.6315 27.9197 10.67 27.7166 10.7038C27.5166 10.7346 27.3211 10.7623 27.1303 10.7869C26.9426 10.8085 26.7902 10.8269 26.6733 10.8423C26.3902 10.8793 26.1255 10.9393 25.8793 11.0224C25.6361 11.1024 25.4392 11.224 25.2884 11.3871C25.1406 11.5471 25.0668 11.7656 25.0668 12.0426C25.0668 12.4212 25.2068 12.7074 25.4869 12.9013C25.77 13.0921 26.1286 13.1875 26.5625 13.1875ZM31.7826 14V4.54545H32.8721V8.03551H32.9644C33.0444 7.91241 33.1552 7.75544 33.2968 7.56463C33.4414 7.37074 33.6476 7.19839 33.9154 7.04759C34.1862 6.8937 34.5525 6.81676 35.0141 6.81676C35.6112 6.81676 36.1375 6.96603 36.593 7.26456C37.0484 7.56309 37.4039 7.98627 37.6594 8.53409C37.9148 9.08191 38.0425 9.72822 38.0425 10.473C38.0425 11.224 37.9148 11.8749 37.6594 12.4258C37.4039 12.9736 37.05 13.3983 36.5976 13.6999C36.1452 13.9985 35.6235 14.1477 35.0326 14.1477C34.5771 14.1477 34.2124 14.0723 33.9385 13.9215C33.6646 13.7676 33.4537 13.5937 33.306 13.3999C33.1583 13.2029 33.0444 13.0398 32.9644 12.9105H32.8351V14H31.7826ZM32.8536 10.4545C32.8536 10.9901 32.9321 11.4625 33.089 11.8718C33.246 12.2781 33.4753 12.5966 33.7769 12.8274C34.0785 13.0552 34.4478 13.169 34.8849 13.169C35.3403 13.169 35.7204 13.049 36.0251 12.8089C36.3329 12.5658 36.5637 12.2396 36.7176 11.8303C36.8746 11.4179 36.953 10.9593 36.953 10.4545C36.953 9.95597 36.8761 9.50663 36.7222 9.10653C36.5714 8.70336 36.3421 8.38482 36.0344 8.15092C35.7297 7.91394 35.3465 7.79545 34.8849 7.79545C34.4417 7.79545 34.0693 7.90779 33.7677 8.13246C33.4661 8.35405 33.2383 8.66489 33.0844 9.06499C32.9305 9.462 32.8536 9.92519 32.8536 10.4545ZM42.6821 14.1477C41.9988 14.1477 41.4095 13.9969 40.914 13.6953C40.4215 13.3906 40.0415 12.9659 39.7737 12.4212C39.509 11.8733 39.3767 11.2363 39.3767 10.5099C39.3767 9.78362 39.509 9.14347 39.7737 8.58949C40.0415 8.03243 40.4139 7.59848 40.8909 7.28764C41.371 6.97372 41.9311 6.81676 42.5713 6.81676C42.9406 6.81676 43.3053 6.87831 43.6654 7.00142C44.0255 7.12453 44.3532 7.32457 44.6487 7.60156C44.9442 7.87547 45.1796 8.23864 45.355 8.69105C45.5305 9.14347 45.6182 9.70052 45.6182 10.3622V10.8239H40.1523V9.8821H44.5102C44.5102 9.48201 44.4302 9.125 44.2702 8.81108C44.1132 8.49716 43.8885 8.24941 43.5961 8.06783C43.3068 7.88625 42.9652 7.79545 42.5713 7.79545C42.1373 7.79545 41.7619 7.90317 41.4449 8.11861C41.1309 8.33097 40.8894 8.60795 40.7201 8.94957C40.5508 9.29119 40.4662 9.65743 40.4662 10.0483V10.6761C40.4662 11.2116 40.5585 11.6656 40.7432 12.038C40.9309 12.4073 41.191 12.6889 41.5233 12.8828C41.8557 13.0736 42.242 13.169 42.6821 13.169C42.9683 13.169 43.2268 13.129 43.4577 13.049C43.6916 12.9659 43.8931 12.8428 44.0624 12.6797C44.2317 12.5135 44.3625 12.3073 44.4548 12.0611L45.5074 12.3565C45.3966 12.7135 45.2104 13.0275 44.9488 13.2983C44.6872 13.5661 44.364 13.7753 43.9793 13.9261C43.5946 14.0739 43.1622 14.1477 42.6821 14.1477ZM48.365 4.54545V14H47.2755V4.54545H48.365Z" fill="#2E263D" fill-opacity="0.7"/>
<path d="M18.642 30.0909V41H17.321V30.0909H18.642ZM22.3774 36.0781V41H21.1203V32.8182H22.3348V34.0966H22.4413C22.6331 33.6811 22.9243 33.3473 23.3149 33.0952C23.7055 32.8395 24.2098 32.7116 24.8277 32.7116C25.3817 32.7116 25.8664 32.8253 26.2819 33.0526C26.6974 33.2763 27.0205 33.6172 27.2513 34.0753C27.4822 34.5298 27.5976 35.1051 27.5976 35.8011V41H26.3405V35.8864C26.3405 35.2436 26.1736 34.7429 25.8398 34.3842C25.5059 34.022 25.0479 33.8409 24.4655 33.8409C24.0642 33.8409 23.7055 33.9279 23.3895 34.1019C23.077 34.2759 22.8302 34.5298 22.6491 34.8636C22.468 35.1974 22.3774 35.6023 22.3774 36.0781ZM29.8947 44.0682V32.8182H31.1092V34.1179H31.2583C31.3507 33.9759 31.4785 33.7947 31.6419 33.5746C31.8088 33.3509 32.0467 33.152 32.3556 32.978C32.6681 32.8004 33.0907 32.7116 33.6234 32.7116C34.3123 32.7116 34.9196 32.8839 35.4451 33.2283C35.9707 33.5728 36.3809 34.0611 36.6756 34.6932C36.9703 35.3253 37.1177 36.071 37.1177 36.9304C37.1177 37.7969 36.9703 38.5479 36.6756 39.1836C36.3809 39.8157 35.9725 40.3058 35.4505 40.6538C34.9284 40.9982 34.3265 41.1705 33.6447 41.1705C33.1191 41.1705 32.6983 41.0835 32.3823 40.9094C32.0662 40.7319 31.823 40.5312 31.6525 40.3075C31.4821 40.0803 31.3507 39.892 31.2583 39.7429H31.1518V44.0682H29.8947ZM31.1305 36.9091C31.1305 37.527 31.2211 38.0721 31.4022 38.5444C31.5833 39.0131 31.8478 39.3807 32.1958 39.647C32.5439 39.9098 32.97 40.0412 33.4743 40.0412C33.9998 40.0412 34.4384 39.9027 34.79 39.6257C35.1451 39.3452 35.4114 38.9687 35.589 38.4964C35.7701 38.0206 35.8606 37.4915 35.8606 36.9091C35.8606 36.3338 35.7718 35.8153 35.5943 35.3537C35.4203 34.8885 35.1557 34.521 34.8006 34.2511C34.449 33.9776 34.0069 33.8409 33.4743 33.8409C32.9629 33.8409 32.5332 33.9705 32.1852 34.2298C31.8372 34.4854 31.5744 34.8441 31.3968 35.3058C31.2193 35.7638 31.1305 36.2983 31.1305 36.9091ZM44.1916 37.6548V32.8182H45.4487V41H44.1916V39.6151H44.1064C43.9146 40.0305 43.6163 40.3839 43.2115 40.6751C42.8066 40.9627 42.2953 41.1065 41.6774 41.1065C41.166 41.1065 40.7115 40.9947 40.3137 40.771C39.916 40.5437 39.6035 40.2028 39.3762 39.7482C39.149 39.2901 39.0353 38.7131 39.0353 38.017V32.8182H40.2924V37.9318C40.2924 38.5284 40.4593 39.0043 40.7931 39.3594C41.1305 39.7145 41.5602 39.892 42.0822 39.892C42.3947 39.892 42.7125 39.8121 43.0357 39.6523C43.3624 39.4925 43.6358 39.2475 43.856 38.9173C44.0797 38.587 44.1916 38.1662 44.1916 37.6548ZM51.3094 32.8182V33.8835H47.0693V32.8182H51.3094ZM48.3051 30.858H49.5622V38.6562C49.5622 39.0114 49.6137 39.2777 49.7167 39.4553C49.8232 39.6293 49.9582 39.7464 50.1215 39.8068C50.2884 39.8636 50.4642 39.892 50.6489 39.892C50.7874 39.892 50.901 39.8849 50.9898 39.8707C51.0786 39.853 51.1496 39.8388 51.2029 39.8281L51.4585 40.9574C51.3733 40.9893 51.2544 41.0213 51.1017 41.0533C50.949 41.0888 50.7554 41.1065 50.521 41.1065C50.1659 41.1065 49.8179 41.0302 49.477 40.8775C49.1396 40.7248 48.8591 40.4922 48.6354 40.1797C48.4152 39.8672 48.3051 39.473 48.3051 38.9972V30.858Z" fill="#2E263D" fill-opacity="0.9"/>
<path d="M134 36.9766L138.125 32.8516L139.303 34.0299L134 39.3332L128.697 34.0299L129.875 32.8516L134 36.9766Z" fill="#2E263D" fill-opacity="0.9"/>
<path d="M17.1449 79V69.5455H18.2898V73.7557H23.331V69.5455H24.4759V79H23.331V74.7713H18.2898V79H17.1449ZM29.5932 79.1477C28.91 79.1477 28.3206 78.9969 27.8251 78.6953C27.3327 78.3906 26.9526 77.9659 26.6848 77.4212C26.4202 76.8733 26.2878 76.2363 26.2878 75.5099C26.2878 74.7836 26.4202 74.1435 26.6848 73.5895C26.9526 73.0324 27.325 72.5985 27.802 72.2876C28.2821 71.9737 28.8423 71.8168 29.4824 71.8168C29.8517 71.8168 30.2164 71.8783 30.5765 72.0014C30.9366 72.1245 31.2644 72.3246 31.5598 72.6016C31.8553 72.8755 32.0907 73.2386 32.2662 73.6911C32.4416 74.1435 32.5293 74.7005 32.5293 75.3622V75.8239H27.0634V74.8821H31.4213C31.4213 74.482 31.3413 74.125 31.1813 73.8111C31.0243 73.4972 30.7997 73.2494 30.5073 73.0678C30.218 72.8862 29.8764 72.7955 29.4824 72.7955C29.0485 72.7955 28.673 72.9032 28.356 73.1186C28.0421 73.331 27.8005 73.608 27.6312 73.9496C27.4619 74.2912 27.3773 74.6574 27.3773 75.0483V75.6761C27.3773 76.2116 27.4696 76.6656 27.6543 77.038C27.842 77.4073 28.1021 77.6889 28.4345 77.8828C28.7669 78.0736 29.1531 78.169 29.5932 78.169C29.8794 78.169 30.138 78.129 30.3688 78.049C30.6027 77.9659 30.8043 77.8428 30.9735 77.6797C31.1428 77.5135 31.2736 77.3073 31.3659 77.0611L32.4185 77.3565C32.3077 77.7135 32.1215 78.0275 31.8599 78.2983C31.5983 78.5661 31.2752 78.7753 30.8904 78.9261C30.5057 79.0739 30.0733 79.1477 29.5932 79.1477ZM35.2761 69.5455V79H34.1866V69.5455H35.2761ZM37.2716 81.6591V71.9091H38.3241V73.0355H38.4534C38.5334 72.9124 38.6442 72.7554 38.7858 72.5646C38.9304 72.3707 39.1366 72.1984 39.4044 72.0476C39.6752 71.8937 40.0415 71.8168 40.5031 71.8168C41.1002 71.8168 41.6265 71.966 42.0819 72.2646C42.5374 72.5631 42.8929 72.9863 43.1483 73.5341C43.4038 74.0819 43.5315 74.7282 43.5315 75.473C43.5315 76.224 43.4038 76.8749 43.1483 77.4258C42.8929 77.9736 42.539 78.3983 42.0866 78.6999C41.6341 78.9985 41.1125 79.1477 40.5216 79.1477C40.0661 79.1477 39.7014 79.0723 39.4275 78.9215C39.1536 78.7676 38.9427 78.5937 38.795 78.3999C38.6473 78.2029 38.5334 78.0398 38.4534 77.9105H38.3611V81.6591H37.2716ZM38.3426 75.4545C38.3426 75.9901 38.4211 76.4625 38.578 76.8718C38.735 77.2781 38.9643 77.5966 39.2659 77.8274C39.5675 78.0552 39.9368 78.169 40.3738 78.169C40.8293 78.169 41.2094 78.049 41.5141 77.8089C41.8219 77.5658 42.0527 77.2396 42.2066 76.8303C42.3635 76.4179 42.442 75.9593 42.442 75.4545C42.442 74.956 42.3651 74.5066 42.2112 74.1065C42.0604 73.7034 41.8311 73.3848 41.5233 73.1509C41.2187 72.9139 40.8355 72.7955 40.3738 72.7955C39.9307 72.7955 39.5583 72.9078 39.2567 73.1325C38.955 73.354 38.7273 73.6649 38.5734 74.065C38.4195 74.462 38.3426 74.9252 38.3426 75.4545ZM51.9335 71.9091V72.8324H48.2588V71.9091H51.9335ZM49.3298 70.2102H50.4193V76.9688C50.4193 77.2765 50.4639 77.5073 50.5532 77.6612C50.6455 77.812 50.7625 77.9136 50.904 77.9659C51.0487 78.0152 51.201 78.0398 51.3611 78.0398C51.4811 78.0398 51.5796 78.0336 51.6565 78.0213C51.7335 78.0059 51.795 77.9936 51.8412 77.9844L52.0628 78.9631C51.9889 78.9908 51.8858 79.0185 51.7535 79.0462C51.6211 79.0769 51.4534 79.0923 51.2503 79.0923C50.9425 79.0923 50.6409 79.0262 50.3454 78.8938C50.0531 78.7615 49.8099 78.5599 49.616 78.2891C49.4252 78.0182 49.3298 77.6766 49.3298 77.2642V70.2102ZM56.4692 79.1477C55.786 79.1477 55.1966 78.9969 54.7011 78.6953C54.2087 78.3906 53.8286 77.9659 53.5608 77.4212C53.2961 76.8733 53.1638 76.2363 53.1638 75.5099C53.1638 74.7836 53.2961 74.1435 53.5608 73.5895C53.8286 73.0324 54.201 72.5985 54.678 72.2876C55.1581 71.9737 55.7182 71.8168 56.3584 71.8168C56.7277 71.8168 57.0924 71.8783 57.4525 72.0014C57.8126 72.1245 58.1404 72.3246 58.4358 72.6016C58.7313 72.8755 58.9667 73.2386 59.1421 73.6911C59.3176 74.1435 59.4053 74.7005 59.4053 75.3622V75.8239H53.9394V74.8821H58.2973C58.2973 74.482 58.2173 74.125 58.0573 73.8111C57.9003 73.4972 57.6756 73.2494 57.3833 73.0678C57.094 72.8862 56.7523 72.7955 56.3584 72.7955C55.9244 72.7955 55.549 72.9032 55.232 73.1186C54.9181 73.331 54.6765 73.608 54.5072 73.9496C54.3379 74.2912 54.2533 74.6574 54.2533 75.0483V75.6761C54.2533 76.2116 54.3456 76.6656 54.5303 77.038C54.718 77.4073 54.9781 77.6889 55.3105 77.8828C55.6428 78.0736 56.0291 78.169 56.4692 78.169C56.7554 78.169 57.0139 78.129 57.2448 78.049C57.4787 77.9659 57.6802 77.8428 57.8495 77.6797C58.0188 77.5135 58.1496 77.3073 58.2419 77.0611L59.2945 77.3565C59.1837 77.7135 58.9975 78.0275 58.7359 78.2983C58.4743 78.5661 58.1511 78.7753 57.7664 78.9261C57.3817 79.0739 56.9493 79.1477 56.4692 79.1477ZM61.6847 71.9091L63.3835 74.8082L65.0824 71.9091H66.3381L64.0483 75.4545L66.3381 79H65.0824L63.3835 76.2486L61.6847 79H60.429L62.6818 75.4545L60.429 71.9091H61.6847ZM70.9765 71.9091V72.8324H67.3018V71.9091H70.9765ZM68.3728 70.2102H69.4623V76.9688C69.4623 77.2765 69.5069 77.5073 69.5961 77.6612C69.6885 77.812 69.8054 77.9136 69.947 77.9659C70.0916 78.0152 70.244 78.0398 70.404 78.0398C70.5241 78.0398 70.6225 78.0336 70.6995 78.0213C70.7764 78.0059 70.838 77.9936 70.8841 77.9844L71.1057 78.9631C71.0319 78.9908 70.9288 79.0185 70.7964 79.0462C70.6641 79.0769 70.4964 79.0923 70.2932 79.0923C69.9855 79.0923 69.6839 79.0262 69.3884 78.8938C69.096 78.7615 68.8529 78.5599 68.659 78.2891C68.4682 78.0182 68.3728 77.6766 68.3728 77.2642V70.2102Z" fill="#2E263D" fill-opacity="0.7"/>
</svg>
