<svg width="160" height="66" viewBox="0 0 160 66" fill="none" xmlns="http://www.w3.org/2000/svg">
<path d="M4 16.5H156C157.933 16.5 159.5 18.067 159.5 20V44C159.5 45.933 157.933 47.5 156 47.5H4C2.067 47.5 0.5 45.933 0.5 44V20C0.5 18.067 2.067 16.5 4 16.5Z" stroke="#2E263D" stroke-opacity="0.22"/>
<path d="M1.14489 12V2.54545H2.28977V10.9844H6.68466V12H1.14489ZM10.3963 12.1662C9.94697 12.1662 9.53918 12.0816 9.17294 11.9123C8.8067 11.7399 8.51586 11.4922 8.30043 11.169C8.08499 10.8428 7.97727 10.4489 7.97727 9.98722C7.97727 9.58097 8.05729 9.25166 8.21733 8.99929C8.37737 8.74384 8.59126 8.5438 8.85902 8.39915C9.12678 8.2545 9.42223 8.14678 9.74538 8.07599C10.0716 8.00213 10.3994 7.94366 10.7287 7.90057C11.1596 7.84517 11.5089 7.80362 11.7766 7.77592C12.0475 7.74515 12.2444 7.69437 12.3675 7.62358C12.4937 7.55279 12.5568 7.42969 12.5568 7.25426V7.21733C12.5568 6.76184 12.4322 6.40791 12.1829 6.15554C11.9367 5.90317 11.5627 5.77699 11.0611 5.77699C10.541 5.77699 10.1332 5.89086 9.83771 6.11861C9.54226 6.34635 9.33452 6.58949 9.21449 6.84801L8.1804 6.47869C8.36506 6.04782 8.61127 5.71236 8.91903 5.4723C9.22988 5.22917 9.56842 5.0599 9.93466 4.96449C10.304 4.866 10.6671 4.81676 11.0241 4.81676C11.2519 4.81676 11.5135 4.84446 11.8089 4.89986C12.1075 4.95218 12.3952 5.06143 12.6722 5.22763C12.9523 5.39382 13.1847 5.64465 13.3693 5.98011C13.554 6.31558 13.6463 6.76491 13.6463 7.32812V12H12.5568V11.0398H12.5014C12.4276 11.1937 12.3045 11.3583 12.1321 11.5337C11.9598 11.7092 11.7305 11.8584 11.4442 11.9815C11.158 12.1046 10.8087 12.1662 10.3963 12.1662ZM10.5625 11.1875C10.9934 11.1875 11.3565 11.1029 11.652 10.9336C11.9505 10.7643 12.1752 10.5458 12.326 10.2781C12.4799 10.0103 12.5568 9.72869 12.5568 9.43324V8.43608C12.5107 8.49148 12.4091 8.54226 12.2521 8.58842C12.0982 8.63151 11.9197 8.66998 11.7166 8.70383C11.5166 8.73461 11.3211 8.76231 11.1303 8.78693C10.9426 8.80848 10.7902 8.82694 10.6733 8.84233C10.3902 8.87926 10.1255 8.93928 9.87926 9.02237C9.63613 9.10239 9.43916 9.22396 9.28835 9.38707C9.14063 9.54711 9.06676 9.76562 9.06676 10.0426C9.06676 10.4212 9.20679 10.7074 9.48686 10.9013C9.77 11.0921 10.1286 11.1875 10.5625 11.1875ZM15.7826 12V2.54545H16.8721V6.03551H16.9644C17.0444 5.91241 17.1552 5.75544 17.2968 5.56463C17.4414 5.37074 17.6476 5.19839 17.9154 5.04759C18.1862 4.8937 18.5525 4.81676 19.0141 4.81676C19.6112 4.81676 20.1375 4.96603 20.593 5.26456C21.0484 5.56309 21.4039 5.98627 21.6594 6.53409C21.9148 7.08191 22.0425 7.72822 22.0425 8.47301C22.0425 9.22396 21.9148 9.87488 21.6594 10.4258C21.4039 10.9736 21.05 11.3983 20.5976 11.6999C20.1452 11.9985 19.6235 12.1477 19.0326 12.1477C18.5771 12.1477 18.2124 12.0723 17.9385 11.9215C17.6646 11.7676 17.4537 11.5937 17.306 11.3999C17.1583 11.2029 17.0444 11.0398 16.9644 10.9105H16.8351V12H15.7826ZM16.8536 8.45455C16.8536 8.99006 16.9321 9.46248 17.089 9.8718C17.246 10.2781 17.4753 10.5966 17.7769 10.8274C18.0785 11.0552 18.4478 11.169 18.8849 11.169C19.3403 11.169 19.7204 11.049 20.0251 10.8089C20.3329 10.5658 20.5637 10.2396 20.7176 9.83026C20.8746 9.41785 20.953 8.95928 20.953 8.45455C20.953 7.95597 20.8761 7.50663 20.7222 7.10653C20.5714 6.70336 20.3421 6.38482 20.0344 6.15092C19.7297 5.91394 19.3465 5.79545 18.8849 5.79545C18.4417 5.79545 18.0693 5.90779 17.7677 6.13246C17.4661 6.35405 17.2383 6.66489 17.0844 7.06499C16.9305 7.462 16.8536 7.92519 16.8536 8.45455ZM26.6821 12.1477C25.9988 12.1477 25.4095 11.9969 24.914 11.6953C24.4215 11.3906 24.0415 10.9659 23.7737 10.4212C23.509 9.87334 23.3767 9.23627 23.3767 8.50994C23.3767 7.78362 23.509 7.14347 23.7737 6.58949C24.0415 6.03243 24.4139 5.59848 24.8909 5.28764C25.371 4.97372 25.9311 4.81676 26.5713 4.81676C26.9406 4.81676 27.3053 4.87831 27.6654 5.00142C28.0255 5.12453 28.3532 5.32457 28.6487 5.60156C28.9442 5.87547 29.1796 6.23864 29.355 6.69105C29.5305 7.14347 29.6182 7.70052 29.6182 8.36222V8.82386H24.1523V7.8821H28.5102C28.5102 7.48201 28.4302 7.125 28.2702 6.81108C28.1132 6.49716 27.8885 6.24941 27.5961 6.06783C27.3068 5.88625 26.9652 5.79545 26.5713 5.79545C26.1373 5.79545 25.7619 5.90317 25.4449 6.11861C25.1309 6.33097 24.8894 6.60795 24.7201 6.94957C24.5508 7.29119 24.4662 7.65743 24.4662 8.0483V8.67614C24.4662 9.21165 24.5585 9.6656 24.7432 10.038C24.9309 10.4073 25.191 10.6889 25.5233 10.8828C25.8557 11.0736 26.242 11.169 26.6821 11.169C26.9683 11.169 27.2268 11.129 27.4577 11.049C27.6916 10.9659 27.8931 10.8428 28.0624 10.6797C28.2317 10.5135 28.3625 10.3073 28.4548 10.0611L29.5074 10.3565C29.3966 10.7135 29.2104 11.0275 28.9488 11.2983C28.6872 11.5661 28.364 11.7753 27.9793 11.9261C27.5946 12.0739 27.1622 12.1477 26.6821 12.1477ZM32.365 2.54545V12H31.2755V2.54545H32.365Z" fill="#2E263D" fill-opacity="0.9"/>
<path d="M18.2898 27.5455V37H17.1449V27.5455H18.2898ZM21.5271 32.7344V37H20.4376V29.9091H21.4901V31.017H21.5825C21.7487 30.657 22.001 30.3677 22.3396 30.1491C22.6781 29.9276 23.1151 29.8168 23.6507 29.8168C24.1308 29.8168 24.5509 29.9152 24.911 30.1122C25.271 30.3061 25.5511 30.6016 25.7512 30.9986C25.9512 31.3925 26.0512 31.8911 26.0512 32.4943V37H24.9617V32.5682C24.9617 32.0111 24.8171 31.5772 24.5278 31.2663C24.2385 30.9524 23.8415 30.7955 23.3367 30.7955C22.989 30.7955 22.6781 30.8709 22.4042 31.0217C22.1334 31.1725 21.9195 31.3925 21.7625 31.6818C21.6056 31.9711 21.5271 32.322 21.5271 32.7344ZM28.0421 39.6591V29.9091H29.0946V31.0355H29.2239C29.3039 30.9124 29.4147 30.7554 29.5563 30.5646C29.7009 30.3707 29.9071 30.1984 30.1749 30.0476C30.4457 29.8937 30.812 29.8168 31.2736 29.8168C31.8707 29.8168 32.397 29.966 32.8525 30.2646C33.3079 30.5631 33.6634 30.9863 33.9189 31.5341C34.1743 32.0819 34.302 32.7282 34.302 33.473C34.302 34.224 34.1743 34.8749 33.9189 35.4258C33.6634 35.9736 33.3095 36.3983 32.8571 36.6999C32.4047 36.9985 31.883 37.1477 31.2921 37.1477C30.8366 37.1477 30.4719 37.0723 30.198 36.9215C29.9241 36.7676 29.7132 36.5937 29.5655 36.3999C29.4178 36.2029 29.3039 36.0398 29.2239 35.9105H29.1316V39.6591H28.0421ZM29.1131 33.4545C29.1131 33.9901 29.1916 34.4625 29.3485 34.8718C29.5055 35.2781 29.7348 35.5966 30.0364 35.8274C30.338 36.0552 30.7073 36.169 31.1444 36.169C31.5998 36.169 31.9799 36.049 32.2846 35.8089C32.5924 35.5658 32.8232 35.2396 32.9771 34.8303C33.1341 34.4179 33.2125 33.9593 33.2125 33.4545C33.2125 32.956 33.1356 32.5066 32.9817 32.1065C32.8309 31.7034 32.6016 31.3848 32.2939 31.1509C31.9892 30.9139 31.606 30.7955 31.1444 30.7955C30.7012 30.7955 30.3288 30.9078 30.0272 31.1325C29.7256 31.354 29.4978 31.6649 29.3439 32.065C29.19 32.462 29.1131 32.9252 29.1131 33.4545ZM40.4327 34.1009V29.9091H41.5222V37H40.4327V35.7997H40.3588C40.1926 36.1598 39.9341 36.466 39.5833 36.7184C39.2324 36.9677 38.7892 37.0923 38.2537 37.0923C37.8105 37.0923 37.4166 36.9954 37.0719 36.8015C36.7272 36.6045 36.4564 36.3091 36.2594 35.9151C36.0624 35.5181 35.964 35.018 35.964 34.4148V29.9091H37.0534V34.3409C37.0534 34.858 37.1981 35.2704 37.4874 35.5781C37.7798 35.8859 38.1522 36.0398 38.6046 36.0398C38.8754 36.0398 39.1509 35.9705 39.4309 35.832C39.7141 35.6935 39.9511 35.4812 40.1419 35.195C40.3358 34.9087 40.4327 34.544 40.4327 34.1009ZM46.6015 29.9091V30.8324H42.9268V29.9091H46.6015ZM43.9978 28.2102H45.0873V34.9688C45.0873 35.2765 45.1319 35.5073 45.2211 35.6612C45.3135 35.812 45.4304 35.9136 45.572 35.9659C45.7166 36.0152 45.869 36.0398 46.029 36.0398C46.1491 36.0398 46.2475 36.0336 46.3245 36.0213C46.4014 36.0059 46.463 35.9936 46.5091 35.9844L46.7307 36.9631C46.6569 36.9908 46.5538 37.0185 46.4214 37.0462C46.2891 37.0769 46.1214 37.0923 45.9182 37.0923C45.6105 37.0923 45.3089 37.0262 45.0134 36.8938C44.721 36.7615 44.4779 36.5599 44.284 36.2891C44.0932 36.0182 43.9978 35.6766 43.9978 35.2642V28.2102Z" fill="#2E263D" fill-opacity="0.9"/>
<path d="M134 32.9766L138.125 28.8516L139.303 30.0299L134 35.3332L128.697 30.0299L129.875 28.8516L134 32.9766Z" fill="#2E263D" fill-opacity="0.9"/>
<path d="M1.14489 63V53.5455H2.28977V57.7557H7.33097V53.5455H8.47585V63H7.33097V58.7713H2.28977V63H1.14489ZM13.5932 63.1477C12.91 63.1477 12.3206 62.9969 11.8251 62.6953C11.3327 62.3906 10.9526 61.9659 10.6848 61.4212C10.4202 60.8733 10.2878 60.2363 10.2878 59.5099C10.2878 58.7836 10.4202 58.1435 10.6848 57.5895C10.9526 57.0324 11.325 56.5985 11.802 56.2876C12.2821 55.9737 12.8423 55.8168 13.4824 55.8168C13.8517 55.8168 14.2164 55.8783 14.5765 56.0014C14.9366 56.1245 15.2644 56.3246 15.5598 56.6016C15.8553 56.8755 16.0907 57.2386 16.2662 57.6911C16.4416 58.1435 16.5293 58.7005 16.5293 59.3622V59.8239H11.0634V58.8821H15.4213C15.4213 58.482 15.3413 58.125 15.1813 57.8111C15.0243 57.4972 14.7997 57.2494 14.5073 57.0678C14.218 56.8862 13.8764 56.7955 13.4824 56.7955C13.0485 56.7955 12.673 56.9032 12.356 57.1186C12.0421 57.331 11.8005 57.608 11.6312 57.9496C11.4619 58.2912 11.3773 58.6574 11.3773 59.0483V59.6761C11.3773 60.2116 11.4696 60.6656 11.6543 61.038C11.842 61.4073 12.1021 61.6889 12.4345 61.8828C12.7669 62.0736 13.1531 62.169 13.5932 62.169C13.8794 62.169 14.138 62.129 14.3688 62.049C14.6027 61.9659 14.8043 61.8428 14.9735 61.6797C15.1428 61.5135 15.2736 61.3073 15.3659 61.0611L16.4185 61.3565C16.3077 61.7135 16.1215 62.0275 15.8599 62.2983C15.5983 62.5661 15.2752 62.7753 14.8904 62.9261C14.5057 63.0739 14.0733 63.1477 13.5932 63.1477ZM19.2761 53.5455V63H18.1866V53.5455H19.2761ZM21.2716 65.6591V55.9091H22.3241V57.0355H22.4534C22.5334 56.9124 22.6442 56.7554 22.7858 56.5646C22.9304 56.3707 23.1366 56.1984 23.4044 56.0476C23.6752 55.8937 24.0415 55.8168 24.5031 55.8168C25.1002 55.8168 25.6265 55.966 26.0819 56.2646C26.5374 56.5631 26.8929 56.9863 27.1483 57.5341C27.4038 58.0819 27.5315 58.7282 27.5315 59.473C27.5315 60.224 27.4038 60.8749 27.1483 61.4258C26.8929 61.9736 26.539 62.3983 26.0866 62.6999C25.6341 62.9985 25.1125 63.1477 24.5216 63.1477C24.0661 63.1477 23.7014 63.0723 23.4275 62.9215C23.1536 62.7676 22.9427 62.5937 22.795 62.3999C22.6473 62.2029 22.5334 62.0398 22.4534 61.9105H22.3611V65.6591H21.2716ZM22.3426 59.4545C22.3426 59.9901 22.4211 60.4625 22.578 60.8718C22.735 61.2781 22.9643 61.5966 23.2659 61.8274C23.5675 62.0552 23.9368 62.169 24.3738 62.169C24.8293 62.169 25.2094 62.049 25.5141 61.8089C25.8219 61.5658 26.0527 61.2396 26.2066 60.8303C26.3635 60.4179 26.442 59.9593 26.442 59.4545C26.442 58.956 26.3651 58.5066 26.2112 58.1065C26.0604 57.7034 25.8311 57.3848 25.5233 57.1509C25.2187 56.9139 24.8355 56.7955 24.3738 56.7955C23.9307 56.7955 23.5583 56.9078 23.2567 57.1325C22.955 57.354 22.7273 57.6649 22.5734 58.065C22.4195 58.462 22.3426 58.9252 22.3426 59.4545ZM35.9335 55.9091V56.8324H32.2588V55.9091H35.9335ZM33.3298 54.2102H34.4193V60.9688C34.4193 61.2765 34.4639 61.5073 34.5532 61.6612C34.6455 61.812 34.7625 61.9136 34.904 61.9659C35.0487 62.0152 35.201 62.0398 35.3611 62.0398C35.4811 62.0398 35.5796 62.0336 35.6565 62.0213C35.7335 62.0059 35.795 61.9936 35.8412 61.9844L36.0628 62.9631C35.9889 62.9908 35.8858 63.0185 35.7535 63.0462C35.6211 63.0769 35.4534 63.0923 35.2503 63.0923C34.9425 63.0923 34.6409 63.0262 34.3454 62.8938C34.0531 62.7615 33.8099 62.5599 33.616 62.2891C33.4252 62.0182 33.3298 61.6766 33.3298 61.2642V54.2102ZM40.4692 63.1477C39.786 63.1477 39.1966 62.9969 38.7011 62.6953C38.2087 62.3906 37.8286 61.9659 37.5608 61.4212C37.2961 60.8733 37.1638 60.2363 37.1638 59.5099C37.1638 58.7836 37.2961 58.1435 37.5608 57.5895C37.8286 57.0324 38.201 56.5985 38.678 56.2876C39.1581 55.9737 39.7182 55.8168 40.3584 55.8168C40.7277 55.8168 41.0924 55.8783 41.4525 56.0014C41.8126 56.1245 42.1404 56.3246 42.4358 56.6016C42.7313 56.8755 42.9667 57.2386 43.1421 57.6911C43.3176 58.1435 43.4053 58.7005 43.4053 59.3622V59.8239H37.9394V58.8821H42.2973C42.2973 58.482 42.2173 58.125 42.0573 57.8111C41.9003 57.4972 41.6756 57.2494 41.3833 57.0678C41.094 56.8862 40.7523 56.7955 40.3584 56.7955C39.9244 56.7955 39.549 56.9032 39.232 57.1186C38.9181 57.331 38.6765 57.608 38.5072 57.9496C38.3379 58.2912 38.2533 58.6574 38.2533 59.0483V59.6761C38.2533 60.2116 38.3456 60.6656 38.5303 61.038C38.718 61.4073 38.9781 61.6889 39.3105 61.8828C39.6428 62.0736 40.0291 62.169 40.4692 62.169C40.7554 62.169 41.0139 62.129 41.2448 62.049C41.4787 61.9659 41.6802 61.8428 41.8495 61.6797C42.0188 61.5135 42.1496 61.3073 42.2419 61.0611L43.2945 61.3565C43.1837 61.7135 42.9975 62.0275 42.7359 62.2983C42.4743 62.5661 42.1511 62.7753 41.7664 62.9261C41.3817 63.0739 40.9493 63.1477 40.4692 63.1477ZM45.6847 55.9091L47.3835 58.8082L49.0824 55.9091H50.3381L48.0483 59.4545L50.3381 63H49.0824L47.3835 60.2486L45.6847 63H44.429L46.6818 59.4545L44.429 55.9091H45.6847ZM54.9765 55.9091V56.8324H51.3018V55.9091H54.9765ZM52.3728 54.2102H53.4623V60.9688C53.4623 61.2765 53.5069 61.5073 53.5961 61.6612C53.6885 61.812 53.8054 61.9136 53.947 61.9659C54.0916 62.0152 54.244 62.0398 54.404 62.0398C54.5241 62.0398 54.6225 62.0336 54.6995 62.0213C54.7764 62.0059 54.838 61.9936 54.8841 61.9844L55.1057 62.9631C55.0319 62.9908 54.9288 63.0185 54.7964 63.0462C54.6641 63.0769 54.4964 63.0923 54.2932 63.0923C53.9855 63.0923 53.6839 63.0262 53.3884 62.8938C53.096 62.7615 52.8529 62.5599 52.659 62.2891C52.4682 62.0182 52.3728 61.6766 52.3728 61.2642V54.2102Z" fill="#2E263D" fill-opacity="0.7"/>
</svg>
