<svg width="285" height="138" viewBox="0 0 285 138" fill="none" xmlns="http://www.w3.org/2000/svg">
<g filter="url(#filter0_d_8003_4556)">
<path d="M10 12C10 8.68629 12.6863 6 16 6H269C272.314 6 275 8.68629 275 12V118C275 121.314 272.314 124 269 124H16C12.6863 124 10 121.314 10 118V12Z" fill="white" shape-rendering="crispEdges"/>
<path d="M37.2869 33.8182C37.223 33.2784 36.9638 32.8594 36.5092 32.5611C36.0547 32.2628 35.4972 32.1136 34.8366 32.1136C34.3537 32.1136 33.9311 32.1918 33.5689 32.348C33.2102 32.5043 32.9297 32.7191 32.7273 32.9925C32.5284 33.266 32.429 33.5767 32.429 33.9247C32.429 34.2159 32.4982 34.4663 32.6367 34.6758C32.7788 34.8817 32.9599 35.054 33.18 35.1925C33.4002 35.3274 33.631 35.4393 33.8725 35.5281C34.114 35.6133 34.3359 35.6825 34.5384 35.7358L35.6463 36.0341C35.9304 36.1087 36.2464 36.2116 36.5945 36.343C36.946 36.4744 37.2816 36.6538 37.6012 36.881C37.9244 37.1048 38.1907 37.3924 38.4002 37.744C38.6097 38.0955 38.7145 38.527 38.7145 39.0384C38.7145 39.6278 38.56 40.1605 38.2511 40.6364C37.9457 41.1122 37.4982 41.4904 36.9087 41.771C36.3228 42.0515 35.6108 42.1918 34.7727 42.1918C33.9915 42.1918 33.315 42.0657 32.7433 41.8136C32.1751 41.5614 31.7276 41.2099 31.4009 40.7589C31.0778 40.3079 30.8949 39.7841 30.8523 39.1875H32.2159C32.2514 39.5994 32.3899 39.9403 32.6314 40.2102C32.8764 40.4766 33.1854 40.6754 33.5582 40.8068C33.9347 40.9347 34.3395 40.9986 34.7727 40.9986C35.277 40.9986 35.7298 40.9169 36.131 40.7536C36.5323 40.5866 36.8501 40.3558 37.0845 40.0611C37.3189 39.7628 37.4361 39.4148 37.4361 39.017C37.4361 38.6548 37.3349 38.3601 37.1325 38.1328C36.93 37.9055 36.6637 37.7209 36.3335 37.5788C36.0032 37.4368 35.6463 37.3125 35.2628 37.206L33.9205 36.8224C33.0682 36.5774 32.3935 36.2276 31.8963 35.7731C31.3991 35.3185 31.1506 34.7237 31.1506 33.9886C31.1506 33.3778 31.3157 32.8452 31.646 32.3906C31.9798 31.9325 32.4272 31.5774 32.9883 31.3253C33.5529 31.0696 34.1832 30.9418 34.8793 30.9418C35.5824 30.9418 36.2074 31.0678 36.7543 31.32C37.3011 31.5685 37.7344 31.9094 38.054 32.3427C38.3771 32.7759 38.5476 33.2678 38.5653 33.8182H37.2869ZM44.1464 42.1705C43.358 42.1705 42.678 41.9964 42.1063 41.6484C41.5381 41.2969 41.0995 40.8068 40.7906 40.1783C40.4852 39.5462 40.3325 38.8111 40.3325 37.973C40.3325 37.1349 40.4852 36.3963 40.7906 35.7571C41.0995 35.1143 41.5292 34.6136 42.0796 34.255C42.6336 33.8928 43.2799 33.7116 44.0186 33.7116C44.4447 33.7116 44.8655 33.7827 45.281 33.9247C45.6965 34.0668 46.0747 34.2976 46.4156 34.6172C46.7565 34.9332 47.0281 35.3523 47.2306 35.8743C47.433 36.3963 47.5342 37.0391 47.5342 37.8026V38.3352H41.2274V37.2486H46.2558C46.2558 36.7869 46.1634 36.375 45.9788 36.0128C45.7977 35.6506 45.5384 35.3647 45.2011 35.1552C44.8673 34.9457 44.4731 34.8409 44.0186 34.8409C43.5178 34.8409 43.0846 34.9652 42.7188 35.2138C42.3566 35.4588 42.0779 35.7784 41.8825 36.1726C41.6872 36.5668 41.5896 36.9893 41.5896 37.4403V38.1648C41.5896 38.7827 41.6961 39.3065 41.9092 39.7362C42.1258 40.1623 42.4259 40.4872 42.8094 40.7109C43.1929 40.9311 43.6386 41.0412 44.1464 41.0412C44.4767 41.0412 44.7749 40.995 45.0413 40.9027C45.3112 40.8068 45.5438 40.6648 45.7391 40.4766C45.9344 40.2848 46.0853 40.0469 46.1919 39.7628L47.4063 40.1037C47.2785 40.5156 47.0637 40.8778 46.7618 41.1903C46.46 41.4993 46.0871 41.7408 45.6432 41.9148C45.1993 42.0852 44.7004 42.1705 44.1464 42.1705ZM55.2419 35.6506L54.1127 35.9702C54.0416 35.782 53.9369 35.5991 53.7984 35.4215C53.6634 35.2404 53.4788 35.0913 53.2444 34.9741C53.01 34.8569 52.71 34.7983 52.3442 34.7983C51.8435 34.7983 51.4262 34.9137 51.0924 35.1445C50.7622 35.3718 50.597 35.6612 50.597 36.0128C50.597 36.3253 50.7107 36.5721 50.9379 36.7532C51.1652 36.9343 51.5203 37.0852 52.0033 37.206L53.2178 37.5043C53.9493 37.6818 54.4944 37.9535 54.8531 38.3192C55.2117 38.6815 55.3911 39.1484 55.3911 39.7202C55.3911 40.1889 55.2561 40.608 54.9862 40.9773C54.7199 41.3466 54.347 41.6378 53.8676 41.8509C53.3882 42.0639 52.8307 42.1705 52.195 42.1705C51.3605 42.1705 50.6698 41.9893 50.123 41.6271C49.5761 41.2649 49.2298 40.7358 49.0843 40.0398L50.2774 39.7415C50.3911 40.1818 50.6059 40.5121 50.922 40.7322C51.2416 40.9524 51.6588 41.0625 52.1737 41.0625C52.7597 41.0625 53.2249 40.9382 53.5693 40.6896C53.9173 40.4375 54.0914 40.1357 54.0914 39.7841C54.0914 39.5 53.9919 39.2621 53.7931 39.0703C53.5942 38.875 53.2888 38.7294 52.8769 38.6335L51.5132 38.3139C50.7639 38.1364 50.2135 37.8612 49.8619 37.4883C49.5139 37.1119 49.3399 36.6413 49.3399 36.0767C49.3399 35.6151 49.4695 35.2067 49.7288 34.8516C49.9916 34.4964 50.3485 34.2177 50.7994 34.0153C51.254 33.8129 51.7689 33.7116 52.3442 33.7116C53.1539 33.7116 53.7895 33.8892 54.2512 34.2443C54.7164 34.5994 55.0466 35.0682 55.2419 35.6506ZM63.0788 35.6506L61.9496 35.9702C61.8786 35.782 61.7738 35.5991 61.6353 35.4215C61.5004 35.2404 61.3157 35.0913 61.0813 34.9741C60.8469 34.8569 60.5469 34.7983 60.1811 34.7983C59.6804 34.7983 59.2631 34.9137 58.9293 35.1445C58.5991 35.3718 58.4339 35.6612 58.4339 36.0128C58.4339 36.3253 58.5476 36.5721 58.7749 36.7532C59.0021 36.9343 59.3572 37.0852 59.8402 37.206L61.0547 37.5043C61.7862 37.6818 62.3313 37.9535 62.69 38.3192C63.0487 38.6815 63.228 39.1484 63.228 39.7202C63.228 40.1889 63.093 40.608 62.8232 40.9773C62.5568 41.3466 62.1839 41.6378 61.7045 41.8509C61.2251 42.0639 60.6676 42.1705 60.032 42.1705C59.1974 42.1705 58.5067 41.9893 57.9599 41.6271C57.413 41.2649 57.0668 40.7358 56.9212 40.0398L58.1143 39.7415C58.228 40.1818 58.4428 40.5121 58.7589 40.7322C59.0785 40.9524 59.4957 41.0625 60.0107 41.0625C60.5966 41.0625 61.0618 40.9382 61.4062 40.6896C61.7543 40.4375 61.9283 40.1357 61.9283 39.7841C61.9283 39.5 61.8288 39.2621 61.63 39.0703C61.4311 38.875 61.1257 38.7294 60.7138 38.6335L59.3501 38.3139C58.6009 38.1364 58.0504 37.8612 57.6989 37.4883C57.3509 37.1119 57.1768 36.6413 57.1768 36.0767C57.1768 35.6151 57.3065 35.2067 57.5657 34.8516C57.8285 34.4964 58.1854 34.2177 58.6364 34.0153C59.0909 33.8129 59.6058 33.7116 60.1811 33.7116C60.9908 33.7116 61.6264 33.8892 62.0881 34.2443C62.5533 34.5994 62.8835 35.0682 63.0788 35.6506ZM65.1203 42V33.8182H66.3774V42H65.1203ZM65.7595 32.4545C65.5145 32.4545 65.3032 32.3711 65.1256 32.2042C64.9516 32.0373 64.8646 31.8366 64.8646 31.6023C64.8646 31.3679 64.9516 31.1673 65.1256 31.0004C65.3032 30.8335 65.5145 30.75 65.7595 30.75C66.0045 30.75 66.214 30.8335 66.3881 31.0004C66.5656 31.1673 66.6544 31.3679 66.6544 31.6023C66.6544 31.8366 66.5656 32.0373 66.3881 32.2042C66.214 32.3711 66.0045 32.4545 65.7595 32.4545ZM72.0037 42.1705C71.2651 42.1705 70.617 41.9947 70.0595 41.6431C69.5055 41.2915 69.0723 40.7997 68.7598 40.1676C68.4508 39.5355 68.2963 38.7969 68.2963 37.9517C68.2963 37.0994 68.4508 36.3555 68.7598 35.7198C69.0723 35.0842 69.5055 34.5906 70.0595 34.239C70.617 33.8874 71.2651 33.7116 72.0037 33.7116C72.7424 33.7116 73.3887 33.8874 73.9426 34.239C74.5002 34.5906 74.9334 35.0842 75.2424 35.7198C75.5549 36.3555 75.7111 37.0994 75.7111 37.9517C75.7111 38.7969 75.5549 39.5355 75.2424 40.1676C74.9334 40.7997 74.5002 41.2915 73.9426 41.6431C73.3887 41.9947 72.7424 42.1705 72.0037 42.1705ZM72.0037 41.0412C72.5648 41.0412 73.0265 40.8974 73.3887 40.6097C73.7509 40.3221 74.019 39.9439 74.193 39.4751C74.367 39.0064 74.454 38.4986 74.454 37.9517C74.454 37.4048 74.367 36.8952 74.193 36.4229C74.019 35.9506 73.7509 35.5689 73.3887 35.2777C73.0265 34.9865 72.5648 34.8409 72.0037 34.8409C71.4426 34.8409 70.981 34.9865 70.6188 35.2777C70.2566 35.5689 69.9885 35.9506 69.8145 36.4229C69.6404 36.8952 69.5534 37.4048 69.5534 37.9517C69.5534 38.4986 69.6404 39.0064 69.8145 39.4751C69.9885 39.9439 70.2566 40.3221 70.6188 40.6097C70.981 40.8974 71.4426 41.0412 72.0037 41.0412ZM78.8872 37.0781V42H77.6301V33.8182H78.8445V35.0966H78.9511C79.1428 34.6811 79.434 34.3473 79.8247 34.0952C80.2153 33.8395 80.7195 33.7116 81.3374 33.7116C81.8914 33.7116 82.3762 33.8253 82.7916 34.0526C83.2071 34.2763 83.5303 34.6172 83.7611 35.0753C83.9919 35.5298 84.1073 36.1051 84.1073 36.8011V42H82.8502V36.8864C82.8502 36.2436 82.6833 35.7429 82.3495 35.3842C82.0157 35.022 81.5576 34.8409 80.9752 34.8409C80.574 34.8409 80.2153 34.9279 79.8992 35.1019C79.5867 35.2759 79.3399 35.5298 79.1588 35.8636C78.9777 36.1974 78.8872 36.6023 78.8872 37.0781Z" fill="#2E263D" fill-opacity="0.9"/>
<path d="M31.2592 73V71.5682L35.6889 66.9787C36.1619 66.4801 36.5518 66.0433 36.8587 65.6683C37.1697 65.2891 37.402 64.929 37.5554 64.5881C37.7088 64.2472 37.7855 63.8849 37.7855 63.5014C37.7855 63.0668 37.6832 62.6918 37.4787 62.3764C37.2741 62.0568 36.995 61.8118 36.6413 61.6413C36.2876 61.4666 35.8892 61.3793 35.446 61.3793C34.9773 61.3793 34.5682 61.4751 34.2188 61.6669C33.8693 61.8587 33.6009 62.1293 33.4134 62.4787C33.2259 62.8281 33.1321 63.2372 33.1321 63.706H31.2464C31.2464 62.9091 31.4297 62.2124 31.7962 61.6158C32.1626 61.0192 32.6655 60.5568 33.3047 60.2287C33.9439 59.8963 34.6705 59.7301 35.4844 59.7301C36.3068 59.7301 37.0313 59.8942 37.6577 60.2223C38.2884 60.5462 38.7805 60.9893 39.1342 61.5518C39.4879 62.1101 39.6648 62.7408 39.6648 63.4439C39.6648 63.9297 39.5732 64.4048 39.3899 64.8693C39.2109 65.3338 38.8977 65.8516 38.4503 66.4226C38.0028 66.9893 37.3807 67.6776 36.5838 68.4872L33.9822 71.2102V71.3061H39.8757V73H31.2592ZM47.2649 59.9091V73H45.2834V61.8906H45.2067L42.0746 63.9361V62.044L45.3409 59.9091H47.2649ZM52.5623 71.2102L52.4664 71.907C52.4025 72.4183 52.2939 72.951 52.1404 73.505C51.9913 74.0632 51.8358 74.581 51.6738 75.0582C51.5162 75.5355 51.3862 75.9148 51.2839 76.196H49.9288C49.9842 75.9318 50.0609 75.5739 50.1589 75.1222C50.2569 74.6747 50.3528 74.174 50.4466 73.62C50.5403 73.0661 50.6106 72.5014 50.6575 71.9261L50.7214 71.2102H52.5623ZM54.9609 70.4432V68.8452L60.6179 59.9091H61.8771V62.2614H61.0781L57.032 68.6662V68.7685H64.7855V70.4432H54.9609ZM61.1676 73V69.9574L61.1804 69.2287V59.9091H63.0533V73H61.1676ZM71.3342 73.179C70.533 73.179 69.8129 73.0256 69.1737 72.7188C68.5387 72.4077 68.0316 71.9815 67.6523 71.4403C67.2731 70.8991 67.0707 70.2812 67.0451 69.5866H68.9627C69.0096 70.1491 69.2589 70.6115 69.7106 70.9737C70.1623 71.3359 70.7035 71.517 71.3342 71.517C71.837 71.517 72.2823 71.402 72.6701 71.1719C73.0621 70.9375 73.369 70.6158 73.5906 70.2067C73.8164 69.7976 73.9293 69.331 73.9293 68.8068C73.9293 68.2741 73.8143 67.799 73.5842 67.3814C73.354 66.9638 73.0366 66.6357 72.6317 66.397C72.2312 66.1584 71.771 66.0369 71.2511 66.0327C70.8548 66.0327 70.4563 66.1009 70.0558 66.2372C69.6552 66.3736 69.3313 66.5526 69.0842 66.7741L67.2752 66.5057L68.0103 59.9091H75.2077V61.603H69.6531L69.2376 65.2656H69.3143C69.57 65.0185 69.9087 64.8118 70.3306 64.6456C70.7567 64.4794 71.2127 64.3963 71.6985 64.3963C72.4954 64.3963 73.2049 64.5859 73.8271 64.9652C74.4535 65.3445 74.9457 65.8622 75.3036 66.5185C75.6658 67.1705 75.8448 67.9205 75.8406 68.7685C75.8448 69.6165 75.6531 70.3729 75.2653 71.0376C74.8817 71.7024 74.3491 72.2266 73.6673 72.6101C72.9897 72.9893 72.212 73.179 71.3342 73.179ZM82.5282 59.7301C83.112 59.7344 83.6873 59.8409 84.2541 60.0497C84.8208 60.2585 85.3322 60.5994 85.7882 61.0724C86.2484 61.5455 86.6149 62.1847 86.8876 62.9901C87.1646 63.7912 87.3052 64.7884 87.3095 65.9815C87.3095 67.1278 87.1944 68.1484 86.9643 69.0433C86.7342 69.9339 86.4039 70.6861 85.9735 71.2997C85.5474 71.9134 85.0297 72.38 84.4203 72.6996C83.8109 73.0192 83.1248 73.179 82.362 73.179C81.5822 73.179 80.8897 73.0256 80.2846 72.7188C79.6795 72.4119 79.1873 71.9879 78.8081 71.4467C78.4288 70.9013 78.1923 70.2749 78.0985 69.5675H80.0481C80.176 70.13 80.4359 70.5859 80.8279 70.9354C81.2243 71.2805 81.7356 71.4531 82.362 71.4531C83.3208 71.4531 84.0687 71.0355 84.6056 70.2003C85.1426 69.3608 85.4132 68.1889 85.4174 66.6847H85.3152C85.0936 67.0511 84.8166 67.3665 84.4842 67.6307C84.1561 67.8949 83.7875 68.0994 83.3784 68.2443C82.9693 68.3892 82.5325 68.4616 82.068 68.4616C81.3137 68.4616 80.6277 68.2763 80.0098 67.9055C79.3919 67.5348 78.8997 67.0256 78.5332 66.3778C78.1667 65.7301 77.9835 64.9908 77.9835 64.1598C77.9835 63.3331 78.171 62.5831 78.546 61.9098C78.9252 61.2365 79.4537 60.7038 80.1312 60.3118C80.813 59.9155 81.612 59.7216 82.5282 59.7301ZM82.5346 61.392C82.036 61.392 81.5865 61.5156 81.1859 61.7628C80.7896 62.0057 80.4764 62.3359 80.2463 62.7536C80.0162 63.1669 79.9011 63.6271 79.9011 64.1342C79.9011 64.6413 80.0119 65.1016 80.2335 65.5149C80.4593 65.924 80.7662 66.25 81.1539 66.4929C81.546 66.7315 81.9934 66.8509 82.4963 66.8509C82.8713 66.8509 83.2207 66.7784 83.5446 66.6335C83.8684 66.4886 84.1518 66.2884 84.3947 66.0327C84.6376 65.7727 84.8272 65.4787 84.9636 65.1506C85.1 64.8224 85.1681 64.4773 85.1681 64.1151C85.1681 63.6335 85.0531 63.1861 84.823 62.7727C84.5971 62.3594 84.286 62.027 83.8897 61.7756C83.4934 61.5199 83.0417 61.392 82.5346 61.392Z" fill="#2E263D" fill-opacity="0.9"/>
<path d="M98.598 65.5455C98.598 64.2031 98.772 62.9691 99.12 61.8434C99.4716 60.7141 99.9723 59.6754 100.622 58.7273H101.73C101.474 59.0788 101.235 59.5121 101.011 60.027C100.791 60.5384 100.597 61.1012 100.43 61.7156C100.263 62.3263 100.132 62.9585 100.036 63.6119C99.9439 64.2653 99.8977 64.9098 99.8977 65.5455C99.8977 66.3906 99.9794 67.2482 100.143 68.1183C100.306 68.9883 100.526 69.7962 100.803 70.5419C101.08 71.2876 101.389 71.8949 101.73 72.3636H100.622C99.9723 71.4155 99.4716 70.3786 99.12 69.2528C98.772 68.1236 98.598 66.8878 98.598 65.5455ZM106.781 69.0824V62.0511H107.974V69.0824H106.781ZM103.862 66.1634V64.9702H110.893V66.1634H103.862ZM112.939 71V70.0412L116.54 66.0994C116.962 65.6378 117.31 65.2365 117.584 64.8956C117.857 64.5511 118.06 64.228 118.191 63.9261C118.326 63.6207 118.393 63.3011 118.393 62.9673C118.393 62.5838 118.301 62.2518 118.116 61.9712C117.935 61.6907 117.687 61.4741 117.371 61.3214C117.055 61.1687 116.699 61.0923 116.305 61.0923C115.886 61.0923 115.521 61.1793 115.208 61.3533C114.899 61.5238 114.659 61.7635 114.489 62.0724C114.322 62.3814 114.239 62.7436 114.239 63.1591H112.981C112.981 62.5199 113.129 61.9588 113.424 61.4759C113.718 60.9929 114.12 60.6165 114.627 60.3466C115.139 60.0767 115.712 59.9418 116.348 59.9418C116.987 59.9418 117.554 60.0767 118.047 60.3466C118.541 60.6165 118.928 60.9805 119.208 61.4386C119.489 61.8967 119.629 62.4062 119.629 62.9673C119.629 63.3686 119.556 63.761 119.411 64.1445C119.269 64.5245 119.02 64.9489 118.665 65.4176C118.313 65.8828 117.825 66.451 117.2 67.1222L114.75 69.7429V69.8281H119.821V71H112.939ZM125.494 59.9418C125.941 59.9453 126.389 60.0305 126.836 60.1974C127.284 60.3643 127.692 60.6413 128.061 61.0284C128.431 61.4119 128.727 61.9357 128.951 62.5998C129.175 63.2638 129.286 64.0966 129.286 65.098C129.286 66.0675 129.194 66.9286 129.009 67.6815C128.828 68.4308 128.566 69.0629 128.221 69.5778C127.88 70.0927 127.465 70.4833 126.975 70.7496C126.488 71.016 125.938 71.1491 125.323 71.1491C124.713 71.1491 124.168 71.0284 123.688 70.7869C123.212 70.5419 122.822 70.2028 122.516 69.7695C122.214 69.3327 122.021 68.8267 121.936 68.2514H123.235C123.353 68.7521 123.585 69.1658 123.933 69.4925C124.285 69.8157 124.748 69.9773 125.323 69.9773C126.165 69.9773 126.829 69.6097 127.316 68.8746C127.806 68.1396 128.051 67.1009 128.051 65.7585H127.965C127.767 66.0568 127.53 66.3143 127.257 66.5309C126.984 66.7475 126.68 66.9144 126.346 67.0316C126.012 67.1488 125.657 67.2074 125.281 67.2074C124.656 67.2074 124.082 67.0529 123.56 66.744C123.042 66.4315 122.626 66.0036 122.314 65.4602C122.005 64.9134 121.85 64.2884 121.85 63.5852C121.85 62.9176 122 62.3068 122.298 61.7528C122.6 61.1953 123.022 60.7514 123.566 60.4212C124.112 60.0909 124.755 59.9311 125.494 59.9418ZM125.494 61.1136C125.046 61.1136 124.643 61.2255 124.285 61.4492C123.93 61.6694 123.647 61.9677 123.438 62.3441C123.232 62.717 123.129 63.1307 123.129 63.5852C123.129 64.0398 123.228 64.4535 123.427 64.8263C123.63 65.1957 123.905 65.4904 124.253 65.7106C124.604 65.9272 125.004 66.0355 125.451 66.0355C125.789 66.0355 126.103 65.9698 126.394 65.8384C126.685 65.7035 126.939 65.5206 127.156 65.2898C127.376 65.0554 127.548 64.7908 127.672 64.4961C127.797 64.1978 127.859 63.8871 127.859 63.5639C127.859 63.1378 127.756 62.7383 127.55 62.3654C127.348 61.9925 127.067 61.6907 126.708 61.4599C126.353 61.229 125.948 61.1136 125.494 61.1136ZM136.942 68.9545V68.3793C136.942 67.9815 137.024 67.6175 137.187 67.2873C137.354 66.9535 137.596 66.6871 137.912 66.4883C138.231 66.2859 138.618 66.1847 139.073 66.1847C139.535 66.1847 139.922 66.2859 140.234 66.4883C140.547 66.6871 140.783 66.9535 140.943 67.2873C141.102 67.6175 141.182 67.9815 141.182 68.3793V68.9545C141.182 69.3523 141.101 69.718 140.937 70.0518C140.778 70.3821 140.54 70.6484 140.224 70.8509C139.911 71.0497 139.528 71.1491 139.073 71.1491C138.611 71.1491 138.222 71.0497 137.906 70.8509C137.59 70.6484 137.351 70.3821 137.187 70.0518C137.024 69.718 136.942 69.3523 136.942 68.9545ZM138.029 68.3793V68.9545C138.029 69.2848 138.107 69.5813 138.263 69.8441C138.42 70.1033 138.689 70.233 139.073 70.233C139.446 70.233 139.709 70.1033 139.861 69.8441C140.018 69.5813 140.096 69.2848 140.096 68.9545V68.3793C140.096 68.049 140.021 67.7543 139.872 67.495C139.723 67.2322 139.456 67.1009 139.073 67.1009C138.7 67.1009 138.432 67.2322 138.269 67.495C138.109 67.7543 138.029 68.049 138.029 68.3793ZM131.509 62.7116V62.1364C131.509 61.7386 131.591 61.3746 131.754 61.0444C131.921 60.7106 132.162 60.4442 132.479 60.2454C132.798 60.043 133.185 59.9418 133.64 59.9418C134.101 59.9418 134.488 60.043 134.801 60.2454C135.113 60.4442 135.35 60.7106 135.509 61.0444C135.669 61.3746 135.749 61.7386 135.749 62.1364V62.7116C135.749 63.1094 135.667 63.4751 135.504 63.8089C135.344 64.1392 135.106 64.4055 134.79 64.608C134.478 64.8068 134.094 64.9062 133.64 64.9062C133.178 64.9062 132.789 64.8068 132.473 64.608C132.157 64.4055 131.917 64.1392 131.754 63.8089C131.591 63.4751 131.509 63.1094 131.509 62.7116ZM132.596 62.1364V62.7116C132.596 63.0419 132.674 63.3384 132.83 63.6012C132.986 63.8604 133.256 63.9901 133.64 63.9901C134.013 63.9901 134.275 63.8604 134.428 63.6012C134.584 63.3384 134.662 63.0419 134.662 62.7116V62.1364C134.662 61.8061 134.588 61.5114 134.439 61.2521C134.29 60.9893 134.023 60.858 133.64 60.858C133.267 60.858 132.999 60.9893 132.835 61.2521C132.676 61.5114 132.596 61.8061 132.596 62.1364ZM131.914 71L139.414 60.0909H140.628L133.128 71H131.914ZM146.275 65.5455C146.275 66.8878 146.099 68.1236 145.747 69.2528C145.399 70.3786 144.9 71.4155 144.251 72.3636H143.143C143.398 72.0121 143.636 71.5788 143.856 71.0639C144.08 70.5526 144.275 69.9915 144.442 69.3807C144.609 68.7663 144.739 68.1325 144.831 67.479C144.927 66.8221 144.975 66.1776 144.975 65.5455C144.975 64.7003 144.893 63.8427 144.73 62.9727C144.567 62.1026 144.346 61.2947 144.069 60.549C143.792 59.8033 143.483 59.196 143.143 58.7273H144.251C144.9 59.6754 145.399 60.7141 145.747 61.8434C146.099 62.9691 146.275 64.2031 146.275 65.5455Z" fill="#56CA00"/>
<path d="M30.6278 90.5611V89.5455H37.7188V90.5611H34.7457V99H33.6009V90.5611H30.6278ZM41.1903 99.1477C40.5502 99.1477 39.9885 98.9954 39.5053 98.6907C39.0252 98.386 38.6497 97.9598 38.3789 97.4119C38.1112 96.8641 37.9773 96.224 37.9773 95.4915C37.9773 94.7528 38.1112 94.1081 38.3789 93.5572C38.6497 93.0063 39.0252 92.5785 39.5053 92.2738C39.9885 91.9691 40.5502 91.8168 41.1903 91.8168C41.8305 91.8168 42.3906 91.9691 42.8707 92.2738C43.3539 92.5785 43.7294 93.0063 43.9972 93.5572C44.268 94.1081 44.4034 94.7528 44.4034 95.4915C44.4034 96.224 44.268 96.8641 43.9972 97.4119C43.7294 97.9598 43.3539 98.386 42.8707 98.6907C42.3906 98.9954 41.8305 99.1477 41.1903 99.1477ZM41.1903 98.169C41.6766 98.169 42.0767 98.0444 42.3906 97.7951C42.7045 97.5458 42.9369 97.218 43.0877 96.8118C43.2385 96.4055 43.3139 95.9654 43.3139 95.4915C43.3139 95.0175 43.2385 94.5759 43.0877 94.1665C42.9369 93.7572 42.7045 93.4264 42.3906 93.174C42.0767 92.9216 41.6766 92.7955 41.1903 92.7955C40.7041 92.7955 40.304 92.9216 39.9901 93.174C39.6761 93.4264 39.4438 93.7572 39.293 94.1665C39.1422 94.5759 39.0668 95.0175 39.0668 95.4915C39.0668 95.9654 39.1422 96.4055 39.293 96.8118C39.4438 97.218 39.6761 97.5458 39.9901 97.7951C40.304 98.0444 40.7041 98.169 41.1903 98.169ZM49.1503 91.9091V92.8324H45.4756V91.9091H49.1503ZM46.5466 90.2102H47.6361V96.9688C47.6361 97.2765 47.6807 97.5073 47.77 97.6612C47.8623 97.812 47.9793 97.9136 48.1208 97.9659C48.2655 98.0152 48.4178 98.0398 48.5779 98.0398C48.6979 98.0398 48.7964 98.0336 48.8733 98.0213C48.9503 98.0059 49.0118 97.9936 49.058 97.9844L49.2796 98.9631C49.2057 98.9908 49.1026 99.0185 48.9703 99.0462C48.8379 99.0769 48.6702 99.0923 48.4671 99.0923C48.1593 99.0923 47.8577 99.0262 47.5622 98.8938C47.2699 98.7615 47.0267 98.5599 46.8328 98.2891C46.642 98.0182 46.5466 97.6766 46.5466 97.2642V90.2102ZM52.8758 99.1662C52.4265 99.1662 52.0187 99.0816 51.6524 98.9123C51.2862 98.7399 50.9954 98.4922 50.7799 98.169C50.5645 97.8428 50.4568 97.4489 50.4568 96.9872C50.4568 96.581 50.5368 96.2517 50.6968 95.9993C50.8569 95.7438 51.0708 95.5438 51.3385 95.3991C51.6063 95.2545 51.9017 95.1468 52.2249 95.076C52.5511 95.0021 52.8789 94.9437 53.2082 94.9006C53.6391 94.8452 53.9884 94.8036 54.2561 94.7759C54.527 94.7451 54.7239 94.6944 54.847 94.6236C54.9732 94.5528 55.0363 94.4297 55.0363 94.2543V94.2173C55.0363 93.7618 54.9117 93.4079 54.6624 93.1555C54.4162 92.9032 54.0422 92.777 53.5406 92.777C53.0204 92.777 52.6127 92.8909 52.3172 93.1186C52.0218 93.3464 51.814 93.5895 51.694 93.848L50.6599 93.4787C50.8445 93.0478 51.0908 92.7124 51.3985 92.4723C51.7094 92.2292 52.0479 92.0599 52.4142 91.9645C52.7835 91.866 53.1466 91.8168 53.5036 91.8168C53.7314 91.8168 53.993 91.8445 54.2884 91.8999C54.587 91.9522 54.8747 92.0614 55.1517 92.2276C55.4318 92.3938 55.6642 92.6446 55.8488 92.9801C56.0335 93.3156 56.1258 93.7649 56.1258 94.3281V99H55.0363V98.0398H54.9809C54.907 98.1937 54.7839 98.3583 54.6116 98.5337C54.4392 98.7092 54.21 98.8584 53.9237 98.9815C53.6375 99.1046 53.2882 99.1662 52.8758 99.1662ZM53.042 98.1875C53.4729 98.1875 53.836 98.1029 54.1315 97.9336C54.43 97.7643 54.6547 97.5458 54.8055 97.2781C54.9594 97.0103 55.0363 96.7287 55.0363 96.4332V95.4361C54.9901 95.4915 54.8886 95.5423 54.7316 95.5884C54.5777 95.6315 54.3992 95.67 54.1961 95.7038C53.9961 95.7346 53.8006 95.7623 53.6098 95.7869C53.4221 95.8085 53.2697 95.8269 53.1528 95.8423C52.8696 95.8793 52.605 95.9393 52.3588 96.0224C52.1156 96.1024 51.9186 96.224 51.7678 96.3871C51.6201 96.5471 51.5463 96.7656 51.5463 97.0426C51.5463 97.4212 51.6863 97.7074 51.9664 97.9013C52.2495 98.0921 52.608 98.1875 53.042 98.1875ZM59.2038 89.5455V99H58.1143V89.5455H59.2038ZM71.2078 89.5455H72.3527V95.8054C72.3527 96.4517 72.2004 97.0288 71.8957 97.5366C71.5941 98.0413 71.1678 98.4399 70.6169 98.7322C70.066 99.0215 69.4197 99.1662 68.678 99.1662C67.9363 99.1662 67.29 99.0215 66.7391 98.7322C66.1882 98.4399 65.7604 98.0413 65.4557 97.5366C65.1541 97.0288 65.0033 96.4517 65.0033 95.8054V89.5455H66.1482V95.7131C66.1482 96.1747 66.2497 96.5856 66.4529 96.9457C66.656 97.3027 66.9453 97.5843 67.3208 97.7905C67.6993 97.9936 68.1517 98.0952 68.678 98.0952C69.2043 98.0952 69.6567 97.9936 70.0352 97.7905C70.4138 97.5843 70.7031 97.3027 70.9031 96.9457C71.1063 96.5856 71.2078 96.1747 71.2078 95.7131V89.5455ZM79.514 93.4972L78.5353 93.7741C78.4738 93.611 78.383 93.4525 78.263 93.2987C78.146 93.1417 77.986 93.0124 77.7828 92.9109C77.5797 92.8093 77.3197 92.7585 77.0027 92.7585C76.5687 92.7585 76.2071 92.8585 75.9178 93.0586C75.6316 93.2556 75.4885 93.5064 75.4885 93.8111C75.4885 94.0819 75.5869 94.2958 75.7839 94.4528C75.9809 94.6097 76.2886 94.7405 76.7072 94.8452L77.7598 95.1037C78.3938 95.2576 78.8662 95.493 79.177 95.81C79.4879 96.1239 79.6433 96.5286 79.6433 97.0241C79.6433 97.4304 79.5263 97.7936 79.2924 98.1136C79.0616 98.4337 78.7385 98.6861 78.323 98.8707C77.9075 99.0554 77.4243 99.1477 76.8734 99.1477C76.1502 99.1477 75.5516 98.9908 75.0776 98.6768C74.6036 98.3629 74.3036 97.9044 74.1774 97.3011L75.2115 97.0426C75.31 97.4242 75.4962 97.7105 75.7701 97.9013C76.0471 98.0921 76.4087 98.1875 76.8549 98.1875C77.3627 98.1875 77.7659 98.0798 78.0645 97.8643C78.3661 97.6458 78.5169 97.3842 78.5169 97.0795C78.5169 96.8333 78.4307 96.6271 78.2583 96.4609C78.086 96.2917 77.8213 96.1655 77.4643 96.0824L76.2825 95.8054C75.6331 95.6515 75.1561 95.413 74.8514 95.0898C74.5498 94.7636 74.399 94.3558 74.399 93.8665C74.399 93.4664 74.5113 93.1125 74.736 92.8047C74.9637 92.4969 75.273 92.2553 75.6639 92.0799C76.0578 91.9045 76.5041 91.8168 77.0027 91.8168C77.7044 91.8168 78.2553 91.9706 78.6554 92.2784C79.0585 92.5862 79.3448 92.9924 79.514 93.4972ZM84.2563 99.1477C83.5731 99.1477 82.9837 98.9969 82.4882 98.6953C81.9958 98.3906 81.6157 97.9659 81.3479 97.4212C81.0832 96.8733 80.9509 96.2363 80.9509 95.5099C80.9509 94.7836 81.0832 94.1435 81.3479 93.5895C81.6157 93.0324 81.9881 92.5985 82.4651 92.2876C82.9452 91.9737 83.5054 91.8168 84.1455 91.8168C84.5148 91.8168 84.8795 91.8783 85.2396 92.0014C85.5997 92.1245 85.9275 92.3246 86.2229 92.6016C86.5184 92.8755 86.7538 93.2386 86.9292 93.6911C87.1047 94.1435 87.1924 94.7005 87.1924 95.3622V95.8239H81.7265V94.8821H86.0844C86.0844 94.482 86.0044 94.125 85.8444 93.8111C85.6874 93.4972 85.4627 93.2494 85.1704 93.0678C84.8811 92.8862 84.5394 92.7955 84.1455 92.7955C83.7116 92.7955 83.3361 92.9032 83.0191 93.1186C82.7052 93.331 82.4636 93.608 82.2943 93.9496C82.125 94.2912 82.0404 94.6574 82.0404 95.0483V95.6761C82.0404 96.2116 82.1327 96.6656 82.3174 97.038C82.5051 97.4073 82.7652 97.6889 83.0976 97.8828C83.43 98.0736 83.8162 98.169 84.2563 98.169C84.5425 98.169 84.801 98.129 85.0319 98.049C85.2658 97.9659 85.4674 97.8428 85.6366 97.6797C85.8059 97.5135 85.9367 97.3073 86.029 97.0611L87.0816 97.3565C86.9708 97.7135 86.7846 98.0275 86.523 98.2983C86.2614 98.5661 85.9382 98.7753 85.5535 98.9261C85.1688 99.0739 84.7364 99.1477 84.2563 99.1477ZM88.8497 99V91.9091H89.9023V92.9801H89.9761C90.1054 92.6293 90.3393 92.3446 90.6778 92.1261C91.0164 91.9076 91.398 91.7983 91.8227 91.7983C91.9027 91.7983 92.0028 91.7998 92.1228 91.8029C92.2428 91.806 92.3336 91.8106 92.3952 91.8168V92.9247C92.3582 92.9155 92.2736 92.9016 92.1412 92.8832C92.012 92.8616 91.875 92.8509 91.7304 92.8509C91.3857 92.8509 91.0779 92.9232 90.8071 93.0678C90.5393 93.2094 90.327 93.4064 90.17 93.6587C90.0161 93.908 89.9392 94.1927 89.9392 94.5128V99H88.8497ZM98.7093 93.4972L97.7306 93.7741C97.6691 93.611 97.5783 93.4525 97.4583 93.2987C97.3413 93.1417 97.1813 93.0124 96.9782 92.9109C96.775 92.8093 96.515 92.7585 96.198 92.7585C95.764 92.7585 95.4024 92.8585 95.1131 93.0586C94.8269 93.2556 94.6838 93.5064 94.6838 93.8111C94.6838 94.0819 94.7823 94.2958 94.9792 94.4528C95.1762 94.6097 95.484 94.7405 95.9025 94.8452L96.9551 95.1037C97.5891 95.2576 98.0615 95.493 98.3723 95.81C98.6832 96.1239 98.8386 96.5286 98.8386 97.0241C98.8386 97.4304 98.7217 97.7936 98.4877 98.1136C98.2569 98.4337 97.9338 98.6861 97.5183 98.8707C97.1028 99.0554 96.6196 99.1477 96.0687 99.1477C95.3455 99.1477 94.7469 98.9908 94.2729 98.6768C93.7989 98.3629 93.4989 97.9044 93.3727 97.3011L94.4068 97.0426C94.5053 97.4242 94.6915 97.7105 94.9654 97.9013C95.2424 98.0921 95.604 98.1875 96.0502 98.1875C96.5581 98.1875 96.9612 98.0798 97.2598 97.8643C97.5614 97.6458 97.7122 97.3842 97.7122 97.0795C97.7122 96.8333 97.626 96.6271 97.4537 96.4609C97.2813 96.2917 97.0166 96.1655 96.6596 96.0824L95.4778 95.8054C94.8284 95.6515 94.3514 95.413 94.0467 95.0898C93.7451 94.7636 93.5943 94.3558 93.5943 93.8665C93.5943 93.4664 93.7066 93.1125 93.9313 92.8047C94.159 92.4969 94.4683 92.2553 94.8592 92.0799C95.2531 91.9045 95.6994 91.8168 96.198 91.8168C96.8997 91.8168 97.4506 91.9706 97.8507 92.2784C98.2538 92.5862 98.5401 92.9924 98.7093 93.4972Z" fill="#2E263D" fill-opacity="0.7"/>
<path d="M213 32C213 28.6863 215.686 26 219 26H249C252.314 26 255 28.6863 255 32V62C255 65.3137 252.314 68 249 68H219C215.686 68 213 65.3137 213 62V32Z" fill="#8C57FF" fill-opacity="0.16"/>
<path d="M223.167 57.8335C223.167 55.535 224.08 53.3306 225.705 51.7052C227.33 50.0799 229.535 49.1668 231.833 49.1668C234.132 49.1668 236.336 50.0799 237.962 51.7052C239.587 53.3306 240.5 55.535 240.5 57.8335H238.333C238.333 56.1096 237.649 54.4563 236.43 53.2373C235.211 52.0183 233.557 51.3335 231.833 51.3335C230.11 51.3335 228.456 52.0183 227.237 53.2373C226.018 54.4563 225.333 56.1096 225.333 57.8335H223.167ZM231.833 48.0835C228.242 48.0835 225.333 45.1747 225.333 41.5835C225.333 37.9922 228.242 35.0835 231.833 35.0835C235.425 35.0835 238.333 37.9922 238.333 41.5835C238.333 45.1747 235.425 48.0835 231.833 48.0835ZM231.833 45.9168C234.228 45.9168 236.167 43.9777 236.167 41.5835C236.167 39.1893 234.228 37.2502 231.833 37.2502C229.439 37.2502 227.5 39.1893 227.5 41.5835C227.5 43.9777 229.439 45.9168 231.833 45.9168ZM240.808 49.9284C242.33 50.6141 243.622 51.7248 244.529 53.1272C245.435 54.5295 245.917 56.1638 245.917 57.8335H243.75C243.75 56.5811 243.389 55.3554 242.709 54.3035C242.029 53.2517 241.06 52.4186 239.918 51.9044L240.807 49.9284H240.808ZM240.062 37.6976C241.154 38.1475 242.087 38.9115 242.744 39.8927C243.4 40.8738 243.751 42.0279 243.75 43.2085C243.751 44.6952 243.195 46.1283 242.193 47.2264C241.191 48.3245 239.814 49.0081 238.333 49.143V46.9622C239.136 46.8473 239.881 46.478 240.458 45.9087C241.036 45.3393 241.415 44.5998 241.541 43.7988C241.668 42.9978 241.534 42.1775 241.159 41.4582C240.785 40.7389 240.19 40.1586 239.461 39.8025L240.062 37.6976V37.6976Z" fill="#8C57FF"/>
</g>
<defs>
<filter id="filter0_d_8003_4556" x="0" y="0" width="285" height="138" filterUnits="userSpaceOnUse" color-interpolation-filters="sRGB">
<feFlood flood-opacity="0" result="BackgroundImageFix"/>
<feColorMatrix in="SourceAlpha" type="matrix" values="0 0 0 0 0 0 0 0 0 0 0 0 0 0 0 0 0 0 127 0" result="hardAlpha"/>
<feOffset dy="4"/>
<feGaussianBlur stdDeviation="5"/>
<feComposite in2="hardAlpha" operator="out"/>
<feColorMatrix type="matrix" values="0 0 0 0 0.180392 0 0 0 0 0.14902 0 0 0 0 0.239216 0 0 0 0.2 0"/>
<feBlend mode="normal" in2="BackgroundImageFix" result="effect1_dropShadow_8003_4556"/>
<feBlend mode="normal" in="SourceGraphic" in2="effect1_dropShadow_8003_4556" result="shape"/>
</filter>
</defs>
</svg>
