<svg width="189" height="232" viewBox="0 0 189 232" fill="none" xmlns="http://www.w3.org/2000/svg">
<g filter="url(#filter0_d_8003_4338)">
<path d="M10 12C10 8.68629 12.6863 6 16 6H172.667C175.98 6 178.667 8.68629 178.667 12V212C178.667 215.314 175.98 218 172.667 218H16C12.6863 218 10 215.314 10 212V12Z" fill="white" shape-rendering="crispEdges"/>
<path d="M31.679 54V52.0909L37.5852 45.9716C38.2159 45.3068 38.7358 44.7244 39.1449 44.2244C39.5597 43.7187 39.8693 43.2386 40.0739 42.7841C40.2784 42.3295 40.3807 41.8466 40.3807 41.3352C40.3807 40.7557 40.2443 40.2557 39.9716 39.8352C39.6989 39.4091 39.3267 39.0824 38.8551 38.8551C38.3835 38.6222 37.8523 38.5057 37.2614 38.5057C36.6364 38.5057 36.0909 38.6335 35.625 38.8892C35.1591 39.1449 34.8011 39.5057 34.5511 39.9716C34.3011 40.4375 34.1761 40.983 34.1761 41.608H31.6619C31.6619 40.5455 31.9063 39.6165 32.3949 38.821C32.8835 38.0256 33.554 37.4091 34.4062 36.9716C35.2585 36.5284 36.2273 36.3068 37.3125 36.3068C38.4091 36.3068 39.375 36.5256 40.2102 36.9631C41.0511 37.3949 41.7074 37.9858 42.179 38.7358C42.6506 39.4801 42.8864 40.321 42.8864 41.2585C42.8864 41.9062 42.7642 42.5398 42.5199 43.1591C42.2813 43.7784 41.8636 44.4687 41.267 45.2301C40.6705 45.9858 39.8409 46.9034 38.7784 47.983L35.3097 51.6136V51.7415H43.1676V54H31.679ZM49.7472 51.6136L49.6193 52.5426C49.5341 53.2244 49.3892 53.9347 49.1847 54.6733C48.9858 55.4176 48.7784 56.108 48.5625 56.7443C48.3523 57.3807 48.179 57.8864 48.0426 58.2614H46.2358C46.3097 57.9091 46.4119 57.4318 46.5426 56.8295C46.6733 56.233 46.8011 55.5653 46.9261 54.8267C47.0511 54.0881 47.1449 53.3352 47.2074 52.5682L47.2926 51.6136H49.7472ZM58.6236 54.2386C57.402 54.2386 56.3224 54.0284 55.3849 53.608C54.4531 53.1875 53.723 52.608 53.1946 51.8693C52.6662 51.1307 52.4048 50.2898 52.4105 49.3466C52.4048 48.608 52.5554 47.929 52.8622 47.3097C53.1747 46.6847 53.598 46.1648 54.1321 45.75C54.6662 45.3295 55.2628 45.0625 55.9219 44.9489V44.8466C55.0526 44.6364 54.3565 44.1705 53.8338 43.4489C53.3111 42.7273 53.0526 41.8977 53.0582 40.9602C53.0526 40.0682 53.2884 39.2727 53.7656 38.5739C54.2486 37.8693 54.9105 37.3153 55.7514 36.9119C56.5923 36.5085 57.5497 36.3068 58.6236 36.3068C59.6861 36.3068 60.6349 36.5114 61.4702 36.9205C62.3111 37.3239 62.973 37.8778 63.456 38.5824C63.9389 39.2812 64.1832 40.0739 64.1889 40.9602C64.1832 41.8977 63.9162 42.7273 63.3878 43.4489C62.8594 44.1705 62.1719 44.6364 61.3253 44.8466V44.9489C61.9787 45.0625 62.5668 45.3295 63.0895 45.75C63.6179 46.1648 64.0384 46.6847 64.3509 47.3097C64.669 47.929 64.831 48.608 64.8366 49.3466C64.831 50.2898 64.5639 51.1307 64.0355 51.8693C63.5071 52.608 62.7741 53.1875 61.8366 53.608C60.9048 54.0284 59.8338 54.2386 58.6236 54.2386ZM58.6236 52.0824C59.3452 52.0824 59.9702 51.9631 60.4986 51.7244C61.027 51.4801 61.4361 51.142 61.7259 50.7102C62.0156 50.2727 62.1634 49.7614 62.169 49.1761C62.1634 48.5682 62.0043 48.0312 61.6918 47.5653C61.3849 47.0994 60.9673 46.733 60.4389 46.4659C59.9105 46.1989 59.3054 46.0653 58.6236 46.0653C57.9361 46.0653 57.3253 46.1989 56.7912 46.4659C56.2571 46.733 55.8366 47.0994 55.5298 47.5653C55.223 48.0312 55.0724 48.5682 55.0781 49.1761C55.0724 49.7614 55.2116 50.2727 55.4957 50.7102C55.7855 51.142 56.1974 51.4801 56.7315 51.7244C57.2656 51.9631 57.8963 52.0824 58.6236 52.0824ZM58.6236 43.9602C59.2031 43.9602 59.7173 43.8437 60.1662 43.6108C60.6151 43.3778 60.9673 43.054 61.223 42.6392C61.4844 42.2244 61.6179 41.7386 61.6236 41.1818C61.6179 40.6364 61.4872 40.1591 61.2315 39.75C60.9815 39.3409 60.6321 39.0256 60.1832 38.804C59.7344 38.5767 59.2145 38.4631 58.6236 38.4631C58.0213 38.4631 57.4929 38.5767 57.0384 38.804C56.5895 39.0256 56.2401 39.3409 55.9901 39.75C55.7401 40.1591 55.6179 40.6364 55.6236 41.1818C55.6179 41.7386 55.7429 42.2244 55.9986 42.6392C56.2543 43.054 56.6065 43.3778 57.0554 43.6108C57.5099 43.8437 58.0327 43.9602 58.6236 43.9602ZM73.6513 54.2386C72.5831 54.2386 71.6229 54.0341 70.7706 53.625C69.924 53.2102 69.2479 52.642 68.7422 51.9205C68.2365 51.1989 67.9666 50.375 67.9325 49.4489H70.4893C70.5518 50.1989 70.8842 50.8153 71.4865 51.2983C72.0888 51.7812 72.8104 52.0227 73.6513 52.0227C74.3217 52.0227 74.9155 51.8693 75.4325 51.5625C75.9553 51.25 76.3643 50.821 76.6598 50.2756C76.9609 49.7301 77.1115 49.108 77.1115 48.4091C77.1115 47.6989 76.9581 47.0653 76.6513 46.5085C76.3445 45.9517 75.9212 45.5142 75.3814 45.196C74.8473 44.8778 74.2337 44.7159 73.5405 44.7102C73.0121 44.7102 72.4808 44.8011 71.9467 44.983C71.4126 45.1648 70.9808 45.4034 70.6513 45.6989L68.2393 45.3409L69.2195 36.5455H78.8161V38.804H71.4098L70.8558 43.6875H70.9581C71.299 43.358 71.7507 43.0824 72.3132 42.8608C72.8814 42.6392 73.4893 42.5284 74.1371 42.5284C75.1996 42.5284 76.1456 42.7812 76.9751 43.2869C77.8104 43.7926 78.4666 44.483 78.9439 45.358C79.4268 46.2273 79.6655 47.2273 79.6598 48.358C79.6655 49.4886 79.4098 50.4972 78.8928 51.3835C78.3814 52.2699 77.6712 52.9687 76.7621 53.4801C75.8587 53.9858 74.8217 54.2386 73.6513 54.2386ZM88.8665 54.2386C88.0881 54.2273 87.321 54.0852 86.5653 53.8125C85.8153 53.5398 85.1335 53.0852 84.5199 52.4489C83.9063 51.8125 83.4148 50.9574 83.0455 49.8835C82.6818 48.8097 82.5 47.4687 82.5 45.8608C82.5 44.3381 82.6506 42.9858 82.9517 41.804C83.2585 40.6222 83.6989 39.625 84.2727 38.8125C84.8466 37.9943 85.5398 37.3722 86.3523 36.946C87.1648 36.5199 88.0767 36.3068 89.0881 36.3068C90.1278 36.3068 91.0511 36.5114 91.858 36.9205C92.6648 37.3295 93.3182 37.8949 93.8182 38.6165C94.3239 39.3381 94.6449 40.1591 94.7812 41.0795H92.1818C92.0057 40.3523 91.6563 39.7585 91.1335 39.2983C90.6108 38.8381 89.929 38.608 89.0881 38.608C87.8097 38.608 86.8125 39.1648 86.0966 40.2784C85.3864 41.392 85.0284 42.9403 85.0227 44.9233H85.1506C85.4517 44.429 85.821 44.0085 86.2585 43.6619C86.7017 43.3097 87.196 43.0398 87.7415 42.8523C88.2926 42.6591 88.8722 42.5625 89.4801 42.5625C90.4915 42.5625 91.4063 42.8097 92.2244 43.304C93.0483 43.7926 93.7045 44.4687 94.1932 45.3324C94.6818 46.196 94.9261 47.1847 94.9261 48.2983C94.9261 49.4119 94.6733 50.4205 94.1676 51.3239C93.6676 52.2273 92.9631 52.9432 92.054 53.4716C91.1449 53.9943 90.0824 54.25 88.8665 54.2386ZM88.858 52.0227C89.5284 52.0227 90.1278 51.858 90.6562 51.5284C91.1847 51.1989 91.6023 50.7557 91.9091 50.1989C92.2159 49.642 92.3693 49.0199 92.3693 48.3324C92.3693 47.6619 92.2188 47.0511 91.9176 46.5C91.6222 45.9489 91.2131 45.5114 90.6903 45.1875C90.1733 44.8636 89.5824 44.7017 88.9176 44.7017C88.4119 44.7017 87.9432 44.7983 87.5114 44.9915C87.0852 45.1847 86.7102 45.4517 86.3864 45.7926C86.0625 46.1335 85.8068 46.5256 85.6193 46.9688C85.4375 47.4062 85.3466 47.8693 85.3466 48.358C85.3466 49.0114 85.4972 49.6165 85.7983 50.1733C86.1051 50.7301 86.5227 51.179 87.0511 51.5199C87.5852 51.8551 88.1875 52.0227 88.858 52.0227Z" fill="#2E263D" fill-opacity="0.9"/>
<path d="M30 83.2712C30 81.4646 31.4646 80 33.2712 80V80C35.0778 80 36.5424 81.4646 36.5424 83.2712V156.729C36.5424 158.535 35.0778 160 33.2712 160V160C31.4646 160 30 158.535 30 156.729V83.2712Z" fill="#F0F2F8"/>
<path d="M60.5312 83.2712C60.5312 81.4646 61.9958 80 63.8024 80V80C65.6091 80 67.0736 81.4646 67.0736 83.2712V156.729C67.0736 158.535 65.6091 160 63.8024 160V160C61.9958 160 60.5312 158.535 60.5312 156.729V83.2712Z" fill="#F0F2F8"/>
<path d="M91.0625 83.2712C91.0625 81.4646 92.5271 80 94.3337 80V80C96.1403 80 97.6049 81.4646 97.6049 83.2712V156.729C97.6049 158.535 96.1403 160 94.3337 160V160C92.5271 160 91.0625 158.535 91.0625 156.729V83.2712Z" fill="#F0F2F8"/>
<path d="M121.593 83.2712C121.593 81.4646 123.058 80 124.864 80V80C126.671 80 128.135 81.4646 128.135 83.2712V156.729C128.135 158.535 126.671 160 124.864 160V160C123.058 160 121.593 158.535 121.593 156.729V83.2712Z" fill="#F0F2F8"/>
<path d="M152.124 83.2712C152.124 81.4646 153.589 80 155.395 80V80C157.202 80 158.667 81.4646 158.667 83.2712V156.729C158.667 158.535 157.202 160 155.395 160V160C153.589 160 152.124 158.535 152.124 156.729V83.2712Z" fill="#F0F2F8"/>
<path d="M30 127.619C30 125.812 31.4646 124.348 33.2712 124.348V124.348C35.0778 124.348 36.5424 125.812 36.5424 127.619V156.729C36.5424 158.535 35.0778 160 33.2712 160V160C31.4646 160 30 158.535 30 156.729V127.619Z" fill="#FF4C51"/>
<path d="M60.5312 95.445C60.5312 93.6384 61.9958 92.1738 63.8024 92.1738V92.1738C65.6091 92.1738 67.0736 93.6384 67.0736 95.445V156.729C67.0736 158.535 65.6091 160 63.8024 160V160C61.9958 160 60.5312 158.535 60.5312 156.729V95.445Z" fill="#8C57FF"/>
<path d="M91.0625 111.097C91.0625 109.29 92.5271 107.826 94.3337 107.826V107.826C96.1403 107.826 97.6049 109.29 97.6049 111.097V156.728C97.6049 158.535 96.1403 160 94.3337 160V160C92.5271 160 91.0625 158.535 91.0625 156.728V111.097Z" fill="#FF4C51"/>
<path d="M121.593 122.402C121.593 120.595 123.058 119.13 124.864 119.13V119.13C126.671 119.13 128.135 120.595 128.135 122.402V156.729C128.135 158.535 126.671 160 124.864 160V160C123.058 160 121.593 158.535 121.593 156.729V122.402Z" fill="#8C57FF"/>
<path d="M152.124 107.619C152.124 105.812 153.589 104.348 155.395 104.348V104.348C157.202 104.348 158.667 105.812 158.667 107.619V156.729C158.667 158.535 157.202 160 155.395 160V160C153.589 160 152.124 158.535 152.124 156.729V107.619Z" fill="#8C57FF"/>
<path d="M69.3211 183.957C69.2643 183.452 69.0299 183.062 68.618 182.785C68.2061 182.504 67.6876 182.364 67.0626 182.364C66.6152 182.364 66.2281 182.435 65.9014 182.577C65.5747 182.716 65.3208 182.907 65.1397 183.152C64.9621 183.394 64.8733 183.669 64.8733 183.978C64.8733 184.237 64.9337 184.461 65.0544 184.649C65.1787 184.837 65.3403 184.995 65.5392 185.123C65.7416 185.248 65.9582 185.352 66.189 185.438C66.4198 185.519 66.6418 185.587 66.8549 185.64L67.9202 185.917C68.2682 186.002 68.6251 186.118 68.9909 186.263C69.3566 186.409 69.6958 186.6 70.0083 186.838C70.3208 187.076 70.5729 187.371 70.7647 187.723C70.96 188.074 71.0576 188.495 71.0576 188.985C71.0576 189.603 70.8978 190.152 70.5782 190.631C70.2622 191.11 69.8023 191.489 69.1986 191.766C68.5985 192.043 67.8723 192.181 67.02 192.181C66.2032 192.181 65.4965 192.051 64.9 191.792C64.3034 191.533 63.8364 191.165 63.499 190.69C63.1617 190.21 62.9752 189.642 62.9397 188.985H64.591C64.623 189.379 64.7508 189.708 64.9745 189.971C65.2018 190.23 65.4912 190.423 65.8428 190.551C66.1979 190.675 66.5867 190.738 67.0093 190.738C67.4745 190.738 67.8882 190.665 68.2505 190.519C68.6162 190.37 68.9039 190.164 69.1134 189.901C69.3229 189.635 69.4277 189.324 69.4277 188.969C69.4277 188.646 69.3353 188.381 69.1507 188.175C68.9696 187.969 68.7228 187.799 68.4103 187.664C68.1013 187.529 67.7515 187.41 67.3609 187.307L66.0718 186.956C65.1983 186.718 64.5058 186.368 63.9944 185.906C63.4866 185.445 63.2327 184.834 63.2327 184.074C63.2327 183.445 63.4032 182.897 63.7441 182.428C64.085 181.959 64.5466 181.595 65.129 181.336C65.7114 181.073 66.3684 180.942 67.0999 180.942C67.8385 180.942 68.4902 181.071 69.0548 181.331C69.623 181.59 70.0704 181.947 70.3971 182.401C70.7238 182.852 70.8943 183.371 70.9085 183.957H69.3211ZM76.4229 192.165C75.6168 192.165 74.9226 191.993 74.3402 191.648C73.7614 191.3 73.3139 190.812 72.9979 190.184C72.6854 189.551 72.5291 188.811 72.5291 187.962C72.5291 187.124 72.6854 186.386 72.9979 185.746C73.3139 185.107 73.7543 184.608 74.3189 184.25C74.8871 183.891 75.5511 183.712 76.3111 183.712C76.7727 183.712 77.2202 183.788 77.6534 183.941C78.0867 184.093 78.4755 184.333 78.82 184.66C79.1644 184.987 79.4361 185.411 79.635 185.933C79.8338 186.451 79.9332 187.082 79.9332 187.824V188.388H73.4293V187.195H78.3725C78.3725 186.776 78.2873 186.405 78.1168 186.082C77.9464 185.755 77.7067 185.498 77.3977 185.31C77.0923 185.121 76.7337 185.027 76.3217 185.027C75.8743 185.027 75.4837 185.137 75.1499 185.358C74.8196 185.574 74.5639 185.858 74.3828 186.21C74.2053 186.558 74.1165 186.936 74.1165 187.344V188.277C74.1165 188.824 74.2124 189.289 74.4041 189.672C74.5994 190.056 74.8711 190.349 75.2191 190.551C75.5671 190.75 75.9737 190.849 76.4389 190.849C76.7408 190.849 77.016 190.807 77.2646 190.722C77.5131 190.633 77.728 190.501 77.9091 190.327C78.0902 190.153 78.2287 189.939 78.3246 189.683L79.832 189.955C79.7113 190.398 79.4947 190.787 79.1822 191.121C78.8732 191.451 78.4844 191.709 78.0156 191.893C77.5504 192.075 77.0195 192.165 76.4229 192.165ZM87.8314 185.816L86.3879 186.071C86.3275 185.887 86.2316 185.711 86.1002 185.544C85.9724 185.377 85.7984 185.24 85.5782 185.134C85.3581 185.027 85.0828 184.974 84.7526 184.974C84.3016 184.974 83.9252 185.075 83.6233 185.278C83.3215 185.477 83.1706 185.734 83.1706 186.05C83.1706 186.324 83.2718 186.544 83.4742 186.711C83.6766 186.877 84.0033 187.014 84.4543 187.121L85.754 187.419C86.5068 187.593 87.0679 187.861 87.4372 188.223C87.8066 188.586 87.9912 189.056 87.9912 189.635C87.9912 190.125 87.8492 190.562 87.5651 190.945C87.2845 191.325 86.8921 191.624 86.3879 191.84C85.8872 192.057 85.3066 192.165 84.6461 192.165C83.7299 192.165 82.9823 191.97 82.4035 191.579C81.8247 191.185 81.4696 190.626 81.3382 189.901L82.8776 189.667C82.9735 190.068 83.1706 190.372 83.4688 190.578C83.7671 190.78 84.156 190.881 84.6354 190.881C85.1574 190.881 85.5747 190.773 85.8872 190.556C86.1997 190.336 86.3559 190.068 86.3559 189.752C86.3559 189.496 86.26 189.282 86.0683 189.108C85.8801 188.934 85.5907 188.802 85.2 188.713L83.8151 188.41C83.0516 188.236 82.487 187.959 82.1212 187.579C81.759 187.199 81.5779 186.718 81.5779 186.135C81.5779 185.652 81.7128 185.23 81.9827 184.868C82.2526 184.505 82.6255 184.223 83.1013 184.021C83.5772 183.815 84.1223 183.712 84.7366 183.712C85.6208 183.712 86.3169 183.903 86.8247 184.287C87.3325 184.667 87.6681 185.176 87.8314 185.816ZM95.8734 185.816L94.4299 186.071C94.3695 185.887 94.2736 185.711 94.1422 185.544C94.0144 185.377 93.8404 185.24 93.6202 185.134C93.4 185.027 93.1248 184.974 92.7946 184.974C92.3436 184.974 91.9672 185.075 91.6653 185.278C91.3635 185.477 91.2125 185.734 91.2125 186.05C91.2125 186.324 91.3138 186.544 91.5162 186.711C91.7186 186.877 92.0453 187.014 92.4963 187.121L93.796 187.419C94.5488 187.593 95.1099 187.861 95.4792 188.223C95.8486 188.586 96.0332 189.056 96.0332 189.635C96.0332 190.125 95.8912 190.562 95.6071 190.945C95.3265 191.325 94.9341 191.624 94.4299 191.84C93.9292 192.057 93.3486 192.165 92.688 192.165C91.7718 192.165 91.0243 191.97 90.4455 191.579C89.8667 191.185 89.5116 190.626 89.3802 189.901L90.9196 189.667C91.0155 190.068 91.2125 190.372 91.5108 190.578C91.8091 190.78 92.198 190.881 92.6774 190.881C93.1994 190.881 93.6167 190.773 93.9292 190.556C94.2417 190.336 94.3979 190.068 94.3979 189.752C94.3979 189.496 94.302 189.282 94.1103 189.108C93.9221 188.934 93.6326 188.802 93.242 188.713L91.8571 188.41C91.0936 188.236 90.529 187.959 90.1632 187.579C89.801 187.199 89.6199 186.718 89.6199 186.135C89.6199 185.652 89.7548 185.23 90.0247 184.868C90.2946 184.505 90.6674 184.223 91.1433 184.021C91.6192 183.815 92.1642 183.712 92.7786 183.712C93.6628 183.712 94.3589 183.903 94.8667 184.287C95.3745 184.667 95.7101 185.176 95.8734 185.816ZM97.7844 192V183.818H99.3771V192H97.7844ZM98.5887 182.556C98.3117 182.556 98.0738 182.463 97.8749 182.279C97.6796 182.091 97.582 181.867 97.582 181.608C97.582 181.345 97.6796 181.121 97.8749 180.936C98.0738 180.748 98.3117 180.654 98.5887 180.654C98.8657 180.654 99.1018 180.748 99.2972 180.936C99.496 181.121 99.5954 181.345 99.5954 181.608C99.5954 181.867 99.496 182.091 99.2972 182.279C99.1018 182.463 98.8657 182.556 98.5887 182.556ZM104.966 192.165C104.199 192.165 103.53 191.989 102.958 191.638C102.386 191.286 101.942 190.794 101.626 190.162C101.31 189.53 101.152 188.792 101.152 187.946C101.152 187.098 101.31 186.355 101.626 185.72C101.942 185.084 102.386 184.591 102.958 184.239C103.53 183.887 104.199 183.712 104.966 183.712C105.733 183.712 106.403 183.887 106.974 184.239C107.546 184.591 107.99 185.084 108.306 185.72C108.622 186.355 108.78 187.098 108.78 187.946C108.78 188.792 108.622 189.53 108.306 190.162C107.99 190.794 107.546 191.286 106.974 191.638C106.403 191.989 105.733 192.165 104.966 192.165ZM104.971 190.828C105.469 190.828 105.881 190.697 106.207 190.434C106.534 190.171 106.775 189.821 106.932 189.385C107.091 188.948 107.171 188.467 107.171 187.941C107.171 187.419 107.091 186.94 106.932 186.503C106.775 186.062 106.534 185.709 106.207 185.443C105.881 185.176 105.469 185.043 104.971 185.043C104.471 185.043 104.055 185.176 103.725 185.443C103.398 185.709 103.155 186.062 102.995 186.503C102.839 186.94 102.761 187.419 102.761 187.941C102.761 188.467 102.839 188.948 102.995 189.385C103.155 189.821 103.398 190.171 103.725 190.434C104.055 190.697 104.471 190.828 104.971 190.828ZM112.15 187.142V192H110.558V183.818H112.087V185.15H112.188C112.376 184.717 112.671 184.369 113.072 184.106C113.477 183.843 113.986 183.712 114.601 183.712C115.158 183.712 115.647 183.829 116.066 184.063C116.485 184.294 116.81 184.638 117.04 185.097C117.271 185.555 117.387 186.121 117.387 186.796V192H115.794V186.988C115.794 186.395 115.639 185.931 115.331 185.597C115.022 185.26 114.597 185.091 114.057 185.091C113.688 185.091 113.36 185.171 113.072 185.331C112.788 185.491 112.562 185.725 112.396 186.034C112.232 186.339 112.15 186.709 112.15 187.142ZM125.654 185.816L124.21 186.071C124.15 185.887 124.054 185.711 123.923 185.544C123.795 185.377 123.621 185.24 123.4 185.134C123.18 185.027 122.905 184.974 122.575 184.974C122.124 184.974 121.747 185.075 121.446 185.278C121.144 185.477 120.993 185.734 120.993 186.05C120.993 186.324 121.094 186.544 121.296 186.711C121.499 186.877 121.826 187.014 122.277 187.121L123.576 187.419C124.329 187.593 124.89 187.861 125.26 188.223C125.629 188.586 125.813 189.056 125.813 189.635C125.813 190.125 125.671 190.562 125.387 190.945C125.107 191.325 124.714 191.624 124.21 191.84C123.709 192.057 123.129 192.165 122.468 192.165C121.552 192.165 120.805 191.97 120.226 191.579C119.647 191.185 119.292 190.626 119.16 189.901L120.7 189.667C120.796 190.068 120.993 190.372 121.291 190.578C121.589 190.78 121.978 190.881 122.458 190.881C122.98 190.881 123.397 190.773 123.709 190.556C124.022 190.336 124.178 190.068 124.178 189.752C124.178 189.496 124.082 189.282 123.891 189.108C123.702 188.934 123.413 188.802 123.022 188.713L121.637 188.41C120.874 188.236 120.309 187.959 119.943 187.579C119.581 187.199 119.4 186.718 119.4 186.135C119.4 185.652 119.535 185.23 119.805 184.868C120.075 184.505 120.448 184.223 120.924 184.021C121.399 183.815 121.945 183.712 122.559 183.712C123.443 183.712 124.139 183.903 124.647 184.287C125.155 184.667 125.49 185.176 125.654 185.816Z" fill="#2E263D" fill-opacity="0.9"/>
</g>
<defs>
<filter id="filter0_d_8003_4338" x="0" y="0" width="188.667" height="232" filterUnits="userSpaceOnUse" color-interpolation-filters="sRGB">
<feFlood flood-opacity="0" result="BackgroundImageFix"/>
<feColorMatrix in="SourceAlpha" type="matrix" values="0 0 0 0 0 0 0 0 0 0 0 0 0 0 0 0 0 0 127 0" result="hardAlpha"/>
<feOffset dy="4"/>
<feGaussianBlur stdDeviation="5"/>
<feComposite in2="hardAlpha" operator="out"/>
<feColorMatrix type="matrix" values="0 0 0 0 0.180392 0 0 0 0 0.14902 0 0 0 0 0.239216 0 0 0 0.2 0"/>
<feBlend mode="normal" in2="BackgroundImageFix" result="effect1_dropShadow_8003_4338"/>
<feBlend mode="normal" in="SourceGraphic" in2="effect1_dropShadow_8003_4338" result="shape"/>
</filter>
</defs>
</svg>
