<svg width="146" height="68" viewBox="0 0 146 68" fill="none" xmlns="http://www.w3.org/2000/svg">
<path d="M0 47.1191C0 45.4623 1.34315 44.1191 3 44.1191H143C144.657 44.1191 146 45.4623 146 47.1191V47.1191C146 48.776 144.657 50.1191 143 50.1191H3C1.34314 50.1191 0 48.776 0 47.1191V47.1191Z" fill="#8C57FF" fill-opacity="0.16"/>
<path d="M0 47.1191C0 45.4623 1.34315 44.1191 3 44.1191H46C47.6569 44.1191 49 45.4623 49 47.1191V47.1191C49 48.776 47.6569 50.1191 46 50.1191H3C1.34314 50.1191 0 48.776 0 47.1191V47.1191Z" fill="#8C57FF"/>
<circle cx="48" cy="47.1191" r="19" fill="#8C57FF" fill-opacity="0.16"/>
<g filter="url(#filter0_d_8003_3019)">
<circle cx="48" cy="47.1191" r="11" fill="white"/>
<circle cx="48" cy="47.1191" r="9" stroke="#8C57FF" stroke-width="4"/>
</g>
<path d="M29.5 6C29.5 2.68629 32.1863 0 35.5 0H60.5C63.8137 0 66.5 2.68629 66.5 6V22C66.5 25.3137 63.8137 28 60.5 28H35.5C32.1863 28 29.5 25.3137 29.5 22V6Z" fill="#1A0E33"/>
<path d="M43.701 19.1293C43.067 19.1293 42.5007 19.02 42.0021 18.8015C41.5066 18.583 41.1142 18.2798 40.8249 17.892C40.5387 17.5012 40.3848 17.0488 40.3633 16.5348H41.8129C41.8313 16.8149 41.9252 17.058 42.0945 17.2642C42.2668 17.4673 42.4915 17.6243 42.7685 17.7351C43.0455 17.8459 43.3532 17.9013 43.6918 17.9013C44.0642 17.9013 44.3935 17.8366 44.6797 17.7074C44.969 17.5781 45.1952 17.3981 45.3583 17.1673C45.5214 16.9334 45.603 16.6641 45.603 16.3594C45.603 16.0424 45.5214 15.7638 45.3583 15.5238C45.1983 15.2807 44.9628 15.0898 44.652 14.9513C44.3442 14.8129 43.9718 14.7436 43.5348 14.7436H42.7362V13.5803H43.5348C43.8857 13.5803 44.1934 13.5172 44.4581 13.391C44.7259 13.2648 44.9351 13.0894 45.0859 12.8647C45.2367 12.637 45.3121 12.3707 45.3121 12.0661C45.3121 11.7737 45.246 11.5198 45.1136 11.3043C44.9844 11.0858 44.7997 10.915 44.5597 10.7919C44.3227 10.6688 44.0426 10.6072 43.7195 10.6072C43.4117 10.6072 43.1239 10.6642 42.8562 10.7781C42.5915 10.8888 42.3761 11.0489 42.2099 11.2582C42.0437 11.4644 41.9544 11.7121 41.9421 12.0014H40.5618C40.5772 11.4905 40.728 11.0412 41.0142 10.6534C41.3035 10.2656 41.6851 9.96248 42.1591 9.74396C42.633 9.52545 43.1593 9.41619 43.7379 9.41619C44.3442 9.41619 44.8674 9.53468 45.3075 9.77166C45.7507 10.0056 46.0923 10.3179 46.3324 10.7088C46.5755 11.0997 46.6955 11.5275 46.6925 11.9922C46.6955 12.5215 46.5478 12.9709 46.2493 13.3402C45.9538 13.7095 45.5599 13.9573 45.0675 14.0835V14.1573C45.6953 14.2527 46.1816 14.502 46.5263 14.9052C46.8741 15.3084 47.0464 15.8085 47.0433 16.4055C47.0464 16.9257 46.9018 17.3919 46.6094 17.8043C46.3201 18.2167 45.9246 18.5414 45.4229 18.7784C44.9213 19.0123 44.3473 19.1293 43.701 19.1293ZM51.9091 19.1293C51.3305 19.1293 50.8104 19.0185 50.3487 18.7969C49.8902 18.5722 49.5239 18.2644 49.25 17.8736C48.9761 17.4827 48.8299 17.0365 48.8114 16.5348H50.1964C50.2302 16.9411 50.4103 17.275 50.7365 17.5366C51.0627 17.7982 51.4536 17.929 51.9091 17.929C52.2723 17.929 52.5939 17.8459 52.8739 17.6797C53.1571 17.5104 53.3787 17.2781 53.5387 16.9826C53.7018 16.6871 53.7834 16.3501 53.7834 15.9716C53.7834 15.5869 53.7003 15.2437 53.5341 14.9421C53.3679 14.6405 53.1386 14.4035 52.8462 14.2312C52.5569 14.0588 52.2246 13.9711 51.8491 13.968C51.5629 13.968 51.2751 14.0173 50.9858 14.1158C50.6965 14.2143 50.4626 14.3435 50.2841 14.5036L48.9776 14.3097L49.5085 9.54545H54.7067V10.7688H50.695L50.3949 13.4141H50.4503C50.6349 13.2356 50.8796 13.0863 51.1843 12.9663C51.4921 12.8462 51.8214 12.7862 52.1722 12.7862C52.7478 12.7862 53.2602 12.9232 53.7095 13.1971C54.1619 13.471 54.5174 13.8449 54.7759 14.3189C55.0375 14.7898 55.1668 15.3314 55.1637 15.9439C55.1668 16.5563 55.0283 17.1026 54.7482 17.5827C54.4712 18.0629 54.0865 18.4414 53.5941 18.7184C53.1048 18.9923 52.5431 19.1293 51.9091 19.1293Z" fill="white"/>
<defs>
<filter id="filter0_d_8003_3019" x="31" y="33.1191" width="34" height="34" filterUnits="userSpaceOnUse" color-interpolation-filters="sRGB">
<feFlood flood-opacity="0" result="BackgroundImageFix"/>
<feColorMatrix in="SourceAlpha" type="matrix" values="0 0 0 0 0 0 0 0 0 0 0 0 0 0 0 0 0 0 127 0" result="hardAlpha"/>
<feOffset dy="3"/>
<feGaussianBlur stdDeviation="3"/>
<feColorMatrix type="matrix" values="0 0 0 0 0.180392 0 0 0 0 0.14902 0 0 0 0 0.239216 0 0 0 0.18 0"/>
<feBlend mode="normal" in2="BackgroundImageFix" result="effect1_dropShadow_8003_3019"/>
<feBlend mode="normal" in="SourceGraphic" in2="effect1_dropShadow_8003_3019" result="shape"/>
</filter>
</defs>
</svg>
