<svg width="505" height="39" viewBox="0 0 505 39" fill="none" xmlns="http://www.w3.org/2000/svg">
<mask id="path-1-outside-1_8003_3107" maskUnits="userSpaceOnUse" x="0" y="0" width="505" height="39" fill="black">
<rect fill="white" width="505" height="39"/>
<path d="M0 0H505V38H0V0Z"/>
</mask>
<path d="M505 38V37H0V38V39H505V38Z" fill="#2E263D" fill-opacity="0.12" mask="url(#path-1-outside-1_8003_3107)"/>
<mask id="path-3-inside-2_8003_3107" fill="white">
<path d="M0 0H82V38H0V0Z"/>
</mask>
<path d="M82 38V36H0V38V40H82V38Z" fill="#8C57FF" mask="url(#path-3-inside-2_8003_3107)"/>
<path d="M22.8373 14.5078V13.0909H31.2801V14.5078H27.8763V24H26.2357V14.5078H22.8373ZM34.2857 24.1811C33.7672 24.1811 33.2985 24.0852 32.8794 23.8935C32.4604 23.6982 32.1284 23.4158 31.8833 23.0465C31.6419 22.6772 31.5211 22.2244 31.5211 21.6882C31.5211 21.2266 31.6099 20.8466 31.7875 20.5483C31.965 20.25 32.2047 20.0138 32.5066 19.8398C32.8084 19.6658 33.1458 19.5344 33.5186 19.4457C33.8915 19.3569 34.2715 19.2894 34.6586 19.2433C35.1486 19.1864 35.5463 19.1403 35.8517 19.1048C36.1571 19.0657 36.3791 19.0036 36.5176 18.9183C36.6561 18.8331 36.7253 18.6946 36.7253 18.5028V18.4656C36.7253 18.0004 36.5939 17.6399 36.3311 17.3842C36.0719 17.1286 35.6848 17.0007 35.1699 17.0007C34.6337 17.0007 34.2111 17.1197 33.9022 17.3576C33.5968 17.592 33.3855 17.853 33.2683 18.1406L31.7715 17.7997C31.949 17.3026 32.2083 16.9013 32.5492 16.5959C32.8936 16.2869 33.2896 16.0632 33.737 15.9247C34.1845 15.7827 34.655 15.7116 35.1486 15.7116C35.4753 15.7116 35.8216 15.7507 36.1873 15.8288C36.5566 15.9034 36.9011 16.0419 37.2207 16.2443C37.5439 16.4467 37.8084 16.7362 38.0144 17.1126C38.2203 17.4854 38.3233 17.9702 38.3233 18.5668V24H36.7679V22.8814H36.704C36.601 23.0874 36.4466 23.2898 36.2406 23.4886C36.0346 23.6875 35.7701 23.8526 35.4469 23.984C35.1238 24.1154 34.7367 24.1811 34.2857 24.1811ZM34.6319 22.9027C35.0723 22.9027 35.4487 22.8157 35.7612 22.6417C36.0772 22.4677 36.3169 22.2404 36.4803 21.9599C36.6472 21.6758 36.7306 21.3722 36.7306 21.049V19.9943C36.6738 20.0511 36.5637 20.1044 36.4004 20.1541C36.2406 20.2003 36.0577 20.2411 35.8517 20.2766C35.6458 20.3086 35.4451 20.3388 35.2498 20.3672C35.0545 20.392 34.8912 20.4134 34.7598 20.4311C34.4508 20.4702 34.1685 20.5359 33.9128 20.6282C33.6607 20.7205 33.4583 20.8537 33.3056 21.0277C33.1564 21.1982 33.0819 21.4254 33.0819 21.7095C33.0819 22.1037 33.2275 22.402 33.5186 22.6044C33.8098 22.8033 34.1809 22.9027 34.6319 22.9027ZM40.5725 24V13.0909H42.1652V17.1445H42.2611C42.3534 16.9741 42.4866 16.777 42.6606 16.5533C42.8346 16.3295 43.0761 16.1342 43.385 15.9673C43.694 15.7969 44.1024 15.7116 44.6102 15.7116C45.2707 15.7116 45.8602 15.8786 46.3786 16.2124C46.8971 16.5462 47.3037 17.0273 47.5985 17.6559C47.8968 18.2844 48.0459 19.0408 48.0459 19.9251C48.0459 20.8093 47.8985 21.5675 47.6038 22.1996C47.309 22.8281 46.9042 23.3129 46.3893 23.6538C45.8744 23.9911 45.2867 24.1598 44.6262 24.1598C44.129 24.1598 43.7224 24.0763 43.4063 23.9094C43.0938 23.7425 42.8488 23.5472 42.6713 23.3235C42.4937 23.0998 42.357 22.9009 42.2611 22.7269H42.1279V24H40.5725ZM42.1333 19.9091C42.1333 20.4844 42.2167 20.9886 42.3836 21.4219C42.5505 21.8551 42.792 22.1942 43.108 22.4393C43.4241 22.6808 43.8112 22.8015 44.2693 22.8015C44.7451 22.8015 45.1428 22.6754 45.4624 22.4233C45.782 22.1676 46.0235 21.8214 46.1869 21.3846C46.3538 20.9478 46.4372 20.456 46.4372 19.9091C46.4372 19.3693 46.3556 18.8846 46.1922 18.4549C46.0324 18.0252 45.7909 17.6861 45.4678 17.4375C45.1482 17.1889 44.7487 17.0646 44.2693 17.0646C43.8076 17.0646 43.417 17.1836 43.0974 17.4215C42.7813 17.6594 42.5416 17.9915 42.3783 18.4176C42.2149 18.8437 42.1333 19.3409 42.1333 19.9091ZM57.9216 13.0909V24H56.2703V14.7422H56.2064L53.5963 16.4467V14.87L56.3183 13.0909H57.9216Z" fill="#8C57FF"/>
<mask id="path-6-inside-3_8003_3107" fill="white">
<path d="M82 0H166V38H82V0Z"/>
</mask>
<path d="M166 38V36H82V38V40H166V38Z" fill="#8C57FF" fill-opacity="0.16" mask="url(#path-6-inside-3_8003_3107)"/>
<path d="M104.783 14.5078V13.0909H113.225V14.5078H109.822V24H108.181V14.5078H104.783ZM116.231 24.1811C115.713 24.1811 115.244 24.0852 114.825 23.8935C114.406 23.6982 114.074 23.4158 113.829 23.0465C113.587 22.6772 113.466 22.2244 113.466 21.6882C113.466 21.2266 113.555 20.8466 113.733 20.5483C113.91 20.25 114.15 20.0138 114.452 19.8398C114.754 19.6658 115.091 19.5344 115.464 19.4457C115.837 19.3569 116.217 19.2894 116.604 19.2433C117.094 19.1864 117.492 19.1403 117.797 19.1048C118.102 19.0657 118.324 19.0036 118.463 18.9183C118.601 18.8331 118.671 18.6946 118.671 18.5028V18.4656C118.671 18.0004 118.539 17.6399 118.276 17.3842C118.017 17.1286 117.63 17.0007 117.115 17.0007C116.579 17.0007 116.156 17.1197 115.847 17.3576C115.542 17.592 115.331 17.853 115.214 18.1406L113.717 17.7997C113.894 17.3026 114.154 16.9013 114.494 16.5959C114.839 16.2869 115.235 16.0632 115.682 15.9247C116.13 15.7827 116.6 15.7116 117.094 15.7116C117.421 15.7116 117.767 15.7507 118.133 15.8288C118.502 15.9034 118.846 16.0419 119.166 16.2443C119.489 16.4467 119.754 16.7362 119.96 17.1126C120.166 17.4854 120.269 17.9702 120.269 18.5668V24H118.713V22.8814H118.649C118.546 23.0874 118.392 23.2898 118.186 23.4886C117.98 23.6875 117.715 23.8526 117.392 23.984C117.069 24.1154 116.682 24.1811 116.231 24.1811ZM116.577 22.9027C117.018 22.9027 117.394 22.8157 117.706 22.6417C118.023 22.4677 118.262 22.2404 118.426 21.9599C118.593 21.6758 118.676 21.3722 118.676 21.049V19.9943C118.619 20.0511 118.509 20.1044 118.346 20.1541C118.186 20.2003 118.003 20.2411 117.797 20.2766C117.591 20.3086 117.39 20.3388 117.195 20.3672C117 20.392 116.836 20.4134 116.705 20.4311C116.396 20.4702 116.114 20.5359 115.858 20.6282C115.606 20.7205 115.404 20.8537 115.251 21.0277C115.102 21.1982 115.027 21.4254 115.027 21.7095C115.027 22.1037 115.173 22.402 115.464 22.6044C115.755 22.8033 116.126 22.9027 116.577 22.9027ZM122.518 24V13.0909H124.111V17.1445H124.206C124.299 16.9741 124.432 16.777 124.606 16.5533C124.78 16.3295 125.021 16.1342 125.33 15.9673C125.639 15.7969 126.048 15.7116 126.555 15.7116C127.216 15.7116 127.805 15.8786 128.324 16.2124C128.842 16.5462 129.249 17.0273 129.544 17.6559C129.842 18.2844 129.991 19.0408 129.991 19.9251C129.991 20.8093 129.844 21.5675 129.549 22.1996C129.254 22.8281 128.85 23.3129 128.335 23.6538C127.82 23.9911 127.232 24.1598 126.571 24.1598C126.074 24.1598 125.668 24.0763 125.352 23.9094C125.039 23.7425 124.794 23.5472 124.617 23.3235C124.439 23.0998 124.302 22.9009 124.206 22.7269H124.073V24H122.518ZM124.079 19.9091C124.079 20.4844 124.162 20.9886 124.329 21.4219C124.496 21.8551 124.737 22.1942 125.053 22.4393C125.369 22.6808 125.756 22.8015 126.215 22.8015C126.69 22.8015 127.088 22.6754 127.408 22.4233C127.727 22.1676 127.969 21.8214 128.132 21.3846C128.299 20.9478 128.383 20.456 128.383 19.9091C128.383 19.3693 128.301 18.8846 128.138 18.4549C127.978 18.0252 127.736 17.6861 127.413 17.4375C127.093 17.1889 126.694 17.0646 126.215 17.0646C125.753 17.0646 125.362 17.1836 125.043 17.4215C124.727 17.6594 124.487 17.9915 124.324 18.4176C124.16 18.8437 124.079 19.3409 124.079 19.9091ZM135.728 24V22.8068L139.419 18.9822C139.814 18.5668 140.139 18.2028 140.394 17.8903C140.653 17.5742 140.847 17.2741 140.975 16.9901C141.103 16.706 141.167 16.4041 141.167 16.0845C141.167 15.7223 141.081 15.4098 140.911 15.147C140.741 14.8807 140.508 14.6765 140.213 14.5344C139.918 14.3888 139.586 14.3161 139.217 14.3161C138.826 14.3161 138.486 14.396 138.194 14.5558C137.903 14.7156 137.679 14.9411 137.523 15.2322C137.367 15.5234 137.289 15.8643 137.289 16.255H135.717C135.717 15.5909 135.87 15.0103 136.176 14.5131C136.481 14.016 136.9 13.6307 137.433 13.3572C137.965 13.0803 138.571 12.9418 139.249 12.9418C139.934 12.9418 140.538 13.0785 141.06 13.3519C141.586 13.6218 141.996 13.9911 142.291 14.4599C142.585 14.9251 142.733 15.4506 142.733 16.0366C142.733 16.4414 142.656 16.8374 142.504 17.2244C142.354 17.6115 142.093 18.043 141.721 18.5188C141.348 18.9911 140.829 19.5646 140.165 20.2393L137.997 22.5085V22.5884H142.908V24H135.728Z" fill="#8C57FF"/>
<path d="M189.048 14.5078V13.0909H197.491V14.5078H194.087V24H192.447V14.5078H189.048ZM200.497 24.1811C199.978 24.1811 199.509 24.0852 199.09 23.8935C198.671 23.6982 198.339 23.4158 198.094 23.0465C197.853 22.6772 197.732 22.2244 197.732 21.6882C197.732 21.2266 197.821 20.8466 197.998 20.5483C198.176 20.25 198.416 20.0138 198.718 19.8398C199.019 19.6658 199.357 19.5344 199.73 19.4457C200.102 19.3569 200.482 19.2894 200.869 19.2433C201.36 19.1864 201.757 19.1403 202.063 19.1048C202.368 19.0657 202.59 19.0036 202.729 18.9183C202.867 18.8331 202.936 18.6946 202.936 18.5028V18.4656C202.936 18.0004 202.805 17.6399 202.542 17.3842C202.283 17.1286 201.896 17.0007 201.381 17.0007C200.845 17.0007 200.422 17.1197 200.113 17.3576C199.808 17.592 199.596 17.853 199.479 18.1406L197.982 17.7997C198.16 17.3026 198.419 16.9013 198.76 16.5959C199.105 16.2869 199.501 16.0632 199.948 15.9247C200.395 15.7827 200.866 15.7116 201.36 15.7116C201.686 15.7116 202.032 15.7507 202.398 15.8288C202.768 15.9034 203.112 16.0419 203.432 16.2443C203.755 16.4467 204.019 16.7362 204.225 17.1126C204.431 17.4854 204.534 17.9702 204.534 18.5668V24H202.979V22.8814H202.915C202.812 23.0874 202.657 23.2898 202.452 23.4886C202.246 23.6875 201.981 23.8526 201.658 23.984C201.335 24.1154 200.948 24.1811 200.497 24.1811ZM200.843 22.9027C201.283 22.9027 201.66 22.8157 201.972 22.6417C202.288 22.4677 202.528 22.2404 202.691 21.9599C202.858 21.6758 202.942 21.3722 202.942 21.049V19.9943C202.885 20.0511 202.775 20.1044 202.611 20.1541C202.452 20.2003 202.269 20.2411 202.063 20.2766C201.857 20.3086 201.656 20.3388 201.461 20.3672C201.265 20.392 201.102 20.4134 200.971 20.4311C200.662 20.4702 200.379 20.5359 200.124 20.6282C199.872 20.7205 199.669 20.8537 199.517 21.0277C199.367 21.1982 199.293 21.4254 199.293 21.7095C199.293 22.1037 199.438 22.402 199.73 22.6044C200.021 22.8033 200.392 22.9027 200.843 22.9027ZM206.783 24V13.0909H208.376V17.1445H208.472C208.564 16.9741 208.698 16.777 208.872 16.5533C209.046 16.3295 209.287 16.1342 209.596 15.9673C209.905 15.7969 210.313 15.7116 210.821 15.7116C211.482 15.7116 212.071 15.8786 212.59 16.2124C213.108 16.5462 213.515 17.0273 213.809 17.6559C214.108 18.2844 214.257 19.0408 214.257 19.9251C214.257 20.8093 214.109 21.5675 213.815 22.1996C213.52 22.8281 213.115 23.3129 212.6 23.6538C212.085 23.9911 211.498 24.1598 210.837 24.1598C210.34 24.1598 209.933 24.0763 209.617 23.9094C209.305 23.7425 209.06 23.5472 208.882 23.3235C208.705 23.0998 208.568 22.9009 208.472 22.7269H208.339V24H206.783ZM208.344 19.9091C208.344 20.4844 208.428 20.9886 208.595 21.4219C208.761 21.8551 209.003 22.1942 209.319 22.4393C209.635 22.6808 210.022 22.8015 210.48 22.8015C210.956 22.8015 211.354 22.6754 211.673 22.4233C211.993 22.1676 212.234 21.8214 212.398 21.3846C212.565 20.9478 212.648 20.456 212.648 19.9091C212.648 19.3693 212.566 18.8846 212.403 18.4549C212.243 18.0252 212.002 17.6861 211.679 17.4375C211.359 17.1889 210.96 17.0646 210.48 17.0646C210.019 17.0646 209.628 17.1836 209.308 17.4215C208.992 17.6594 208.753 17.9915 208.589 18.4176C208.426 18.8437 208.344 19.3409 208.344 19.9091ZM223.792 24.1491C223.06 24.1491 222.407 24.0231 221.831 23.771C221.26 23.5188 220.807 23.169 220.473 22.7216C220.143 22.2706 219.965 21.7486 219.94 21.1555H221.613C221.634 21.4787 221.743 21.7592 221.938 21.9972C222.137 22.2315 222.396 22.4126 222.716 22.5405C223.035 22.6683 223.39 22.7322 223.781 22.7322C224.211 22.7322 224.591 22.6577 224.921 22.5085C225.255 22.3594 225.516 22.1516 225.704 21.8853C225.892 21.6154 225.986 21.3047 225.986 20.9531C225.986 20.5874 225.892 20.266 225.704 19.989C225.519 19.7085 225.248 19.4883 224.889 19.3285C224.534 19.1687 224.104 19.0888 223.6 19.0888H222.678V17.7464H223.6C224.005 17.7464 224.36 17.6737 224.665 17.5281C224.974 17.3825 225.216 17.18 225.39 16.9208C225.564 16.658 225.651 16.3509 225.651 15.9993C225.651 15.6619 225.574 15.369 225.422 15.1204C225.272 14.8683 225.059 14.6712 224.782 14.5291C224.509 14.3871 224.186 14.3161 223.813 14.3161C223.458 14.3161 223.126 14.3817 222.817 14.5131C222.511 14.641 222.263 14.8256 222.071 15.0671C221.879 15.305 221.776 15.5909 221.762 15.9247H220.169C220.187 15.3352 220.361 14.8168 220.691 14.3693C221.025 13.9219 221.466 13.5721 222.013 13.32C222.559 13.0678 223.167 12.9418 223.834 12.9418C224.534 12.9418 225.138 13.0785 225.645 13.3519C226.157 13.6218 226.551 13.9822 226.828 14.4332C227.108 14.8842 227.247 15.3778 227.243 15.9141C227.247 16.5249 227.076 17.0433 226.732 17.4695C226.391 17.8956 225.937 18.1815 225.368 18.3271V18.4123C226.093 18.5224 226.654 18.81 227.052 19.2752C227.453 19.7404 227.652 20.3175 227.648 21.0064C227.652 21.6065 227.485 22.1445 227.147 22.6204C226.814 23.0962 226.357 23.4709 225.778 23.7443C225.2 24.0142 224.537 24.1491 223.792 24.1491Z" fill="#2E263D" fill-opacity="0.9"/>
<path d="M273.975 14.5078V13.0909H282.418V14.5078H279.014V24H277.373V14.5078H273.975ZM285.423 24.1811C284.905 24.1811 284.436 24.0852 284.017 23.8935C283.598 23.6982 283.266 23.4158 283.021 23.0465C282.78 22.6772 282.659 22.2244 282.659 21.6882C282.659 21.2266 282.748 20.8466 282.925 20.5483C283.103 20.25 283.342 20.0138 283.644 19.8398C283.946 19.6658 284.283 19.5344 284.656 19.4457C285.029 19.3569 285.409 19.2894 285.796 19.2433C286.286 19.1864 286.684 19.1403 286.989 19.1048C287.295 19.0657 287.517 19.0036 287.655 18.9183C287.794 18.8331 287.863 18.6946 287.863 18.5028V18.4656C287.863 18.0004 287.732 17.6399 287.469 17.3842C287.21 17.1286 286.823 17.0007 286.308 17.0007C285.771 17.0007 285.349 17.1197 285.04 17.3576C284.734 17.592 284.523 17.853 284.406 18.1406L282.909 17.7997C283.087 17.3026 283.346 16.9013 283.687 16.5959C284.031 16.2869 284.427 16.0632 284.875 15.9247C285.322 15.7827 285.793 15.7116 286.286 15.7116C286.613 15.7116 286.959 15.7507 287.325 15.8288C287.694 15.9034 288.039 16.0419 288.358 16.2443C288.682 16.4467 288.946 16.7362 289.152 17.1126C289.358 17.4854 289.461 17.9702 289.461 18.5668V24H287.906V22.8814H287.842C287.739 23.0874 287.584 23.2898 287.378 23.4886C287.172 23.6875 286.908 23.8526 286.585 23.984C286.261 24.1154 285.874 24.1811 285.423 24.1811ZM285.77 22.9027C286.21 22.9027 286.586 22.8157 286.899 22.6417C287.215 22.4677 287.455 22.2404 287.618 21.9599C287.785 21.6758 287.868 21.3722 287.868 21.049V19.9943C287.812 20.0511 287.701 20.1044 287.538 20.1541C287.378 20.2003 287.195 20.2411 286.989 20.2766C286.783 20.3086 286.583 20.3388 286.388 20.3672C286.192 20.392 286.029 20.4134 285.897 20.4311C285.589 20.4702 285.306 20.5359 285.051 20.6282C284.798 20.7205 284.596 20.8537 284.443 21.0277C284.294 21.1982 284.22 21.4254 284.22 21.7095C284.22 22.1037 284.365 22.402 284.656 22.6044C284.948 22.8033 285.319 22.9027 285.77 22.9027ZM291.71 24V13.0909H293.303V17.1445H293.399C293.491 16.9741 293.624 16.777 293.798 16.5533C293.972 16.3295 294.214 16.1342 294.523 15.9673C294.832 15.7969 295.24 15.7116 295.748 15.7116C296.408 15.7116 296.998 15.8786 297.516 16.2124C298.035 16.5462 298.441 17.0273 298.736 17.6559C299.034 18.2844 299.184 19.0408 299.184 19.9251C299.184 20.8093 299.036 21.5675 298.741 22.1996C298.447 22.8281 298.042 23.3129 297.527 23.6538C297.012 23.9911 296.424 24.1598 295.764 24.1598C295.267 24.1598 294.86 24.0763 294.544 23.9094C294.232 23.7425 293.987 23.5472 293.809 23.3235C293.631 23.0998 293.495 22.9009 293.399 22.7269H293.266V24H291.71ZM293.271 19.9091C293.271 20.4844 293.354 20.9886 293.521 21.4219C293.688 21.8551 293.93 22.1942 294.246 22.4393C294.562 22.6808 294.949 22.8015 295.407 22.8015C295.883 22.8015 296.281 22.6754 296.6 22.4233C296.92 22.1676 297.161 21.8214 297.325 21.3846C297.491 20.9478 297.575 20.456 297.575 19.9091C297.575 19.3693 297.493 18.8846 297.33 18.4549C297.17 18.0252 296.929 17.6861 296.605 17.4375C296.286 17.1889 295.886 17.0646 295.407 17.0646C294.945 17.0646 294.555 17.1836 294.235 17.4215C293.919 17.6594 293.679 17.9915 293.516 18.4176C293.353 18.8437 293.271 19.3409 293.271 19.9091ZM304.691 21.8693V20.5376L309.406 13.0909H310.455V15.0511H309.789L306.417 20.3885V20.4737H312.879V21.8693H304.691ZM309.864 24V21.4645L309.874 20.8572V13.0909H311.435V24H309.864Z" fill="#2E263D" fill-opacity="0.9"/>
<path d="M358.731 14.5078V13.0909H367.174V14.5078H363.77V24H362.13V14.5078H358.731ZM370.18 24.1811C369.661 24.1811 369.193 24.0852 368.773 23.8935C368.354 23.6982 368.022 23.4158 367.777 23.0465C367.536 22.6772 367.415 22.2244 367.415 21.6882C367.415 21.2266 367.504 20.8466 367.682 20.5483C367.859 20.25 368.099 20.0138 368.401 19.8398C368.702 19.6658 369.04 19.5344 369.413 19.4457C369.786 19.3569 370.166 19.2894 370.553 19.2433C371.043 19.1864 371.44 19.1403 371.746 19.1048C372.051 19.0657 372.273 19.0036 372.412 18.9183C372.55 18.8331 372.619 18.6946 372.619 18.5028V18.4656C372.619 18.0004 372.488 17.6399 372.225 17.3842C371.966 17.1286 371.579 17.0007 371.064 17.0007C370.528 17.0007 370.105 17.1197 369.796 17.3576C369.491 17.592 369.28 17.853 369.162 18.1406L367.666 17.7997C367.843 17.3026 368.102 16.9013 368.443 16.5959C368.788 16.2869 369.184 16.0632 369.631 15.9247C370.079 15.7827 370.549 15.7116 371.043 15.7116C371.369 15.7116 371.716 15.7507 372.081 15.8288C372.451 15.9034 372.795 16.0419 373.115 16.2443C373.438 16.4467 373.702 16.7362 373.908 17.1126C374.114 17.4854 374.217 17.9702 374.217 18.5668V24H372.662V22.8814H372.598C372.495 23.0874 372.341 23.2898 372.135 23.4886C371.929 23.6875 371.664 23.8526 371.341 23.984C371.018 24.1154 370.631 24.1811 370.18 24.1811ZM370.526 22.9027C370.966 22.9027 371.343 22.8157 371.655 22.6417C371.971 22.4677 372.211 22.2404 372.374 21.9599C372.541 21.6758 372.625 21.3722 372.625 21.049V19.9943C372.568 20.0511 372.458 20.1044 372.294 20.1541C372.135 20.2003 371.952 20.2411 371.746 20.2766C371.54 20.3086 371.339 20.3388 371.144 20.3672C370.949 20.392 370.785 20.4134 370.654 20.4311C370.345 20.4702 370.063 20.5359 369.807 20.6282C369.555 20.7205 369.352 20.8537 369.2 21.0277C369.05 21.1982 368.976 21.4254 368.976 21.7095C368.976 22.1037 369.121 22.402 369.413 22.6044C369.704 22.8033 370.075 22.9027 370.526 22.9027ZM376.467 24V13.0909H378.059V17.1445H378.155C378.247 16.9741 378.381 16.777 378.555 16.5533C378.729 16.3295 378.97 16.1342 379.279 15.9673C379.588 15.7969 379.996 15.7116 380.504 15.7116C381.165 15.7116 381.754 15.8786 382.273 16.2124C382.791 16.5462 383.198 17.0273 383.492 17.6559C383.791 18.2844 383.94 19.0408 383.94 19.9251C383.94 20.8093 383.793 21.5675 383.498 22.1996C383.203 22.8281 382.798 23.3129 382.283 23.6538C381.768 23.9911 381.181 24.1598 380.52 24.1598C380.023 24.1598 379.616 24.0763 379.3 23.9094C378.988 23.7425 378.743 23.5472 378.565 23.3235C378.388 23.0998 378.251 22.9009 378.155 22.7269H378.022V24H376.467ZM378.027 19.9091C378.027 20.4844 378.111 20.9886 378.278 21.4219C378.445 21.8551 378.686 22.1942 379.002 22.4393C379.318 22.6808 379.705 22.8015 380.163 22.8015C380.639 22.8015 381.037 22.6754 381.356 22.4233C381.676 22.1676 381.918 21.8214 382.081 21.3846C382.248 20.9478 382.331 20.456 382.331 19.9091C382.331 19.3693 382.25 18.8846 382.086 18.4549C381.926 18.0252 381.685 17.6861 381.362 17.4375C381.042 17.1889 380.643 17.0646 380.163 17.0646C379.702 17.0646 379.311 17.1836 378.991 17.4215C378.675 17.6594 378.436 17.9915 378.272 18.4176C378.109 18.8437 378.027 19.3409 378.027 19.9091ZM393.278 24.1491C392.61 24.1491 392.01 24.0213 391.477 23.7656C390.948 23.5064 390.526 23.1513 390.209 22.7003C389.893 22.2493 389.725 21.7344 389.703 21.1555H391.301C391.341 21.6243 391.548 22.0096 391.925 22.3114C392.301 22.6133 392.752 22.7642 393.278 22.7642C393.697 22.7642 394.068 22.6683 394.391 22.4766C394.718 22.2812 394.973 22.0131 395.158 21.6722C395.346 21.3313 395.44 20.9425 395.44 20.5057C395.44 20.0618 395.344 19.6658 395.153 19.3178C394.961 18.9698 394.696 18.6964 394.359 18.4975C394.025 18.2987 393.642 18.1974 393.208 18.1939C392.878 18.1939 392.546 18.2507 392.212 18.3643C391.879 18.478 391.609 18.6271 391.403 18.8118L389.895 18.5881L390.508 13.0909H396.506V14.5025H391.877L391.53 17.5547H391.594C391.807 17.3487 392.09 17.1765 392.441 17.038C392.796 16.8995 393.176 16.8303 393.581 16.8303C394.245 16.8303 394.837 16.9883 395.355 17.3043C395.877 17.6204 396.287 18.0518 396.586 18.5987C396.887 19.142 397.037 19.767 397.033 20.4737C397.037 21.1804 396.877 21.8107 396.554 22.3647C396.234 22.9187 395.79 23.3555 395.222 23.6751C394.657 23.9911 394.009 24.1491 393.278 24.1491Z" fill="#2E263D" fill-opacity="0.9"/>
<path d="M443.114 14.5078V13.0909H451.557V14.5078H448.153V24H446.513V14.5078H443.114ZM454.563 24.1811C454.044 24.1811 453.575 24.0852 453.156 23.8935C452.737 23.6982 452.405 23.4158 452.16 23.0465C451.919 22.6772 451.798 22.2244 451.798 21.6882C451.798 21.2266 451.887 20.8466 452.064 20.5483C452.242 20.25 452.482 20.0138 452.783 19.8398C453.085 19.6658 453.423 19.5344 453.795 19.4457C454.168 19.3569 454.548 19.2894 454.935 19.2433C455.425 19.1864 455.823 19.1403 456.129 19.1048C456.434 19.0657 456.656 19.0036 456.794 18.9183C456.933 18.8331 457.002 18.6946 457.002 18.5028V18.4656C457.002 18.0004 456.871 17.6399 456.608 17.3842C456.349 17.1286 455.962 17.0007 455.447 17.0007C454.911 17.0007 454.488 17.1197 454.179 17.3576C453.874 17.592 453.662 17.853 453.545 18.1406L452.048 17.7997C452.226 17.3026 452.485 16.9013 452.826 16.5959C453.17 16.2869 453.566 16.0632 454.014 15.9247C454.461 15.7827 454.932 15.7116 455.425 15.7116C455.752 15.7116 456.098 15.7507 456.464 15.8288C456.833 15.9034 457.178 16.0419 457.498 16.2443C457.821 16.4467 458.085 16.7362 458.291 17.1126C458.497 17.4854 458.6 17.9702 458.6 18.5668V24H457.045V22.8814H456.981C456.878 23.0874 456.723 23.2898 456.517 23.4886C456.311 23.6875 456.047 23.8526 455.724 23.984C455.401 24.1154 455.014 24.1811 454.563 24.1811ZM454.909 22.9027C455.349 22.9027 455.726 22.8157 456.038 22.6417C456.354 22.4677 456.594 22.2404 456.757 21.9599C456.924 21.6758 457.008 21.3722 457.008 21.049V19.9943C456.951 20.0511 456.841 20.1044 456.677 20.1541C456.517 20.2003 456.335 20.2411 456.129 20.2766C455.923 20.3086 455.722 20.3388 455.527 20.3672C455.331 20.392 455.168 20.4134 455.037 20.4311C454.728 20.4702 454.445 20.5359 454.19 20.6282C453.938 20.7205 453.735 20.8537 453.582 21.0277C453.433 21.1982 453.359 21.4254 453.359 21.7095C453.359 22.1037 453.504 22.402 453.795 22.6044C454.087 22.8033 454.458 22.9027 454.909 22.9027ZM460.849 24V13.0909H462.442V17.1445H462.538C462.63 16.9741 462.763 16.777 462.937 16.5533C463.111 16.3295 463.353 16.1342 463.662 15.9673C463.971 15.7969 464.379 15.7116 464.887 15.7116C465.548 15.7116 466.137 15.8786 466.655 16.2124C467.174 16.5462 467.581 17.0273 467.875 17.6559C468.174 18.2844 468.323 19.0408 468.323 19.9251C468.323 20.8093 468.175 21.5675 467.881 22.1996C467.586 22.8281 467.181 23.3129 466.666 23.6538C466.151 23.9911 465.564 24.1598 464.903 24.1598C464.406 24.1598 463.999 24.0763 463.683 23.9094C463.371 23.7425 463.126 23.5472 462.948 23.3235C462.771 23.0998 462.634 22.9009 462.538 22.7269H462.405V24H460.849ZM462.41 19.9091C462.41 20.4844 462.494 20.9886 462.66 21.4219C462.827 21.8551 463.069 22.1942 463.385 22.4393C463.701 22.6808 464.088 22.8015 464.546 22.8015C465.022 22.8015 465.42 22.6754 465.739 22.4233C466.059 22.1676 466.3 21.8214 466.464 21.3846C466.631 20.9478 466.714 20.456 466.714 19.9091C466.714 19.3693 466.632 18.8846 466.469 18.4549C466.309 18.0252 466.068 17.6861 465.745 17.4375C465.425 17.1889 465.026 17.0646 464.546 17.0646C464.084 17.0646 463.694 17.1836 463.374 17.4215C463.058 17.6594 462.818 17.9915 462.655 18.4176C462.492 18.8437 462.41 19.3409 462.41 19.9091ZM477.868 24.1491C477.382 24.142 476.902 24.0533 476.43 23.8828C475.961 23.7124 475.535 23.4283 475.152 23.0305C474.768 22.6328 474.461 22.0984 474.23 21.4272C474.003 20.756 473.889 19.918 473.889 18.913C473.889 17.9613 473.983 17.1161 474.171 16.3775C474.363 15.6388 474.638 15.0156 474.997 14.5078C475.356 13.9964 475.789 13.6076 476.297 13.3413C476.805 13.0749 477.375 12.9418 478.007 12.9418C478.657 12.9418 479.234 13.0696 479.738 13.3253C480.242 13.581 480.651 13.9343 480.963 14.3853C481.279 14.8363 481.48 15.3494 481.565 15.9247H479.94C479.83 15.4702 479.612 15.0991 479.285 14.8114C478.958 14.5238 478.532 14.38 478.007 14.38C477.208 14.38 476.584 14.728 476.137 15.424C475.693 16.12 475.469 17.0877 475.466 18.3271H475.546C475.734 18.0181 475.965 17.7553 476.238 17.5387C476.515 17.3185 476.824 17.1499 477.165 17.0327C477.51 16.9119 477.872 16.8516 478.252 16.8516C478.884 16.8516 479.456 17.006 479.967 17.315C480.482 17.6204 480.892 18.043 481.197 18.5827C481.503 19.1225 481.655 19.7404 481.655 20.4364C481.655 21.1325 481.497 21.7628 481.181 22.3274C480.869 22.892 480.429 23.3395 479.86 23.6697C479.292 23.9964 478.628 24.1562 477.868 24.1491ZM477.863 22.7642C478.282 22.7642 478.657 22.6612 478.987 22.4553C479.317 22.2493 479.578 21.9723 479.77 21.6243C479.962 21.2763 480.057 20.8874 480.057 20.4577C480.057 20.0387 479.963 19.657 479.775 19.3125C479.591 18.968 479.335 18.6946 479.008 18.4922C478.685 18.2898 478.316 18.1886 477.9 18.1886C477.584 18.1886 477.291 18.2489 477.021 18.3697C476.755 18.4904 476.521 18.6573 476.318 18.8704C476.116 19.0835 475.956 19.3285 475.839 19.6055C475.725 19.8789 475.668 20.1683 475.668 20.4737C475.668 20.8821 475.762 21.2603 475.951 21.6083C476.142 21.9563 476.403 22.2369 476.734 22.4499C477.067 22.6594 477.444 22.7642 477.863 22.7642Z" fill="#2E263D" fill-opacity="0.9"/>
</svg>
