<svg width="124" height="42" viewBox="0 0 124 42" fill="none" xmlns="http://www.w3.org/2000/svg">
<g clip-path="url(#clip0_8003_3964)">
<g clip-path="url(#clip1_8003_3964)">
<path d="M19.3583 27V14.6364H21.2237V25.3942H26.826V27H19.3583ZM31.5076 27.2053C30.92 27.2053 30.3888 27.0966 29.9139 26.8793C29.439 26.6579 29.0627 26.3379 28.785 25.9194C28.5113 25.5008 28.3745 24.9877 28.3745 24.38C28.3745 23.8568 28.4751 23.4261 28.6763 23.0881C28.8775 22.75 29.1492 22.4824 29.4913 22.2852C29.8334 22.0879 30.2157 21.939 30.6383 21.8384C31.0609 21.7378 31.4915 21.6613 31.9302 21.609C32.4856 21.5446 32.9364 21.4923 33.2825 21.4521C33.6286 21.4078 33.8801 21.3374 34.0371 21.2408C34.1941 21.1442 34.2725 20.9872 34.2725 20.7699V20.7276C34.2725 20.2004 34.1236 19.7919 33.8258 19.5021C33.532 19.2124 33.0933 19.0675 32.5098 19.0675C31.902 19.0675 31.4231 19.2023 31.073 19.4719C30.7269 19.7376 30.4874 20.0334 30.3546 20.3594L28.6582 19.973C28.8594 19.4096 29.1532 18.9548 29.5396 18.6087C29.93 18.2585 30.3787 18.005 30.8858 17.848C31.3929 17.687 31.9262 17.6065 32.4856 17.6065C32.8559 17.6065 33.2483 17.6508 33.6628 17.7393C34.0814 17.8239 34.4718 17.9808 34.834 18.2102C35.2002 18.4396 35.5001 18.7676 35.7335 19.1942C35.9669 19.6168 36.0836 20.1662 36.0836 20.8423V27H34.3208V25.7322H34.2484C34.1317 25.9657 33.9566 26.1951 33.7232 26.4205C33.4898 26.6458 33.1899 26.833 32.8237 26.9819C32.4574 27.1308 32.0188 27.2053 31.5076 27.2053ZM31.9 25.7564C32.3991 25.7564 32.8257 25.6578 33.1799 25.4606C33.5381 25.2634 33.8097 25.0058 33.9949 24.6879C34.184 24.3659 34.2786 24.0218 34.2786 23.6555V22.4602C34.2142 22.5246 34.0894 22.585 33.9043 22.6413C33.7232 22.6937 33.5159 22.7399 33.2825 22.7802C33.0491 22.8164 32.8217 22.8506 32.6003 22.8828C32.379 22.911 32.1938 22.9351 32.0449 22.9553C31.6948 22.9995 31.3748 23.074 31.085 23.1786C30.7993 23.2833 30.5699 23.4342 30.3968 23.6314C30.2278 23.8246 30.1433 24.0821 30.1433 24.4041C30.1433 24.8509 30.3083 25.1889 30.6383 25.4183C30.9683 25.6437 31.3889 25.7564 31.9 25.7564ZM38.4878 27V17.7273H40.2325V19.2003H40.3291C40.4981 18.7012 40.796 18.3088 41.2226 18.0231C41.6532 17.7333 42.1402 17.5884 42.6835 17.5884C42.7962 17.5884 42.929 17.5924 43.0819 17.6005C43.2389 17.6085 43.3617 17.6186 43.4502 17.6307V19.3572C43.3778 19.3371 43.249 19.315 43.0638 19.2908C42.8787 19.2627 42.6936 19.2486 42.5084 19.2486C42.0818 19.2486 41.7015 19.3391 41.3675 19.5202C41.0374 19.6973 40.7758 19.9448 40.5827 20.2628C40.3895 20.5767 40.2929 20.9349 40.2929 21.3374V27H38.4878ZM48.568 30.6705C47.8315 30.6705 47.1976 30.5739 46.6664 30.3807C46.1391 30.1875 45.7085 29.9319 45.3745 29.614C45.0404 29.296 44.7909 28.9479 44.6259 28.5696L46.1774 27.9297C46.286 28.1068 46.4309 28.2939 46.612 28.4911C46.7972 28.6924 47.0467 28.8634 47.3606 29.0043C47.6786 29.1451 48.0871 29.2156 48.5861 29.2156C49.2703 29.2156 49.8358 29.0485 50.2825 28.7145C50.7292 28.3845 50.9526 27.8572 50.9526 27.1328V25.3097H50.8379C50.7292 25.5069 50.5723 25.7262 50.367 25.9677C50.1658 26.2092 49.8881 26.4184 49.5339 26.5955C49.1797 26.7726 48.7189 26.8612 48.1515 26.8612C47.419 26.8612 46.7589 26.6901 46.1713 26.348C45.5878 26.0019 45.1249 25.4928 44.7828 24.8207C44.4448 24.1445 44.2757 23.3134 44.2757 22.3274C44.2757 21.3414 44.4428 20.4962 44.7768 19.7919C45.1149 19.0876 45.5777 18.5483 46.1653 18.174C46.7529 17.7957 47.419 17.6065 48.1635 17.6065C48.7391 17.6065 49.2039 17.7031 49.5581 17.8963C49.9122 18.0855 50.1879 18.3068 50.3851 18.5604C50.5864 18.8139 50.7413 19.0373 50.85 19.2305H50.9828V17.7273H52.7516V27.2053C52.7516 28.0021 52.5665 28.6561 52.1962 29.1673C51.8259 29.6784 51.3249 30.0567 50.693 30.3022C50.0652 30.5477 49.3568 30.6705 48.568 30.6705ZM48.5499 25.364C49.0691 25.364 49.5078 25.2433 49.8659 25.0018C50.2282 24.7563 50.5018 24.4061 50.687 23.9513C50.8761 23.4925 50.9707 22.9432 50.9707 22.3033C50.9707 21.6795 50.8781 21.1301 50.693 20.6552C50.5079 20.1803 50.2362 19.81 49.878 19.5444C49.5198 19.2747 49.0771 19.1399 48.5499 19.1399C48.0066 19.1399 47.5538 19.2808 47.1916 19.5625C46.8294 19.8402 46.5557 20.2185 46.3706 20.6974C46.1895 21.1764 46.0989 21.7116 46.0989 22.3033C46.0989 22.911 46.1915 23.4442 46.3766 23.9031C46.5617 24.3619 46.8354 24.7201 47.1976 24.9776C47.5639 25.2352 48.0146 25.364 48.5499 25.364ZM59.1689 27.1871C58.2553 27.1871 57.4685 26.992 56.8084 26.6016C56.1524 26.2071 55.6453 25.6538 55.2871 24.9414C54.9329 24.225 54.7559 23.3859 54.7559 22.424C54.7559 21.4742 54.9329 20.6371 55.2871 19.9126C55.6453 19.1882 56.1444 18.6228 56.7843 18.2163C57.4282 17.8098 58.1808 17.6065 59.0421 17.6065C59.5653 17.6065 60.0724 17.6931 60.5634 17.8661C61.0544 18.0392 61.4951 18.3108 61.8855 18.6811C62.2759 19.0514 62.5837 19.5323 62.8091 20.1239C63.0345 20.7115 63.1472 21.4259 63.1472 22.267V22.907H55.7761V21.5547H61.3784C61.3784 21.0798 61.2818 20.6592 61.0886 20.293C60.8954 19.9227 60.6238 19.6309 60.2736 19.4176C59.9275 19.2043 59.521 19.0977 59.0542 19.0977C58.5471 19.0977 58.1043 19.2224 57.726 19.4719C57.3517 19.7174 57.062 20.0394 56.8567 20.4379C56.6555 20.8323 56.5549 21.2609 56.5549 21.7237V22.7802C56.5549 23.4 56.6635 23.9272 56.8809 24.3619C57.1022 24.7965 57.4101 25.1286 57.8045 25.358C58.1989 25.5833 58.6597 25.696 59.187 25.696C59.5291 25.696 59.841 25.6477 60.1227 25.5511C60.4044 25.4505 60.6479 25.3016 60.8532 25.1044C61.0584 24.9072 61.2154 24.6637 61.324 24.3739L63.0325 24.6818C62.8957 25.1849 62.6502 25.6256 62.296 26.0039C61.9458 26.3782 61.5051 26.67 60.9739 26.8793C60.4467 27.0845 59.845 27.1871 59.1689 27.1871Z" fill="#8C57FF"/>
</g>
<line x1="81.5" y1="42" x2="81.5" y2="2.18557e-08" stroke="#8C57FF"/>
<path d="M103 22.3673L108.775 16.5923L110.425 18.242L103 25.6666L95.5753 18.242L97.225 16.5923L103 22.3673Z" fill="#8C57FF"/>
</g>
<defs>
<clipPath id="clip0_8003_3964">
<path d="M0 8C0 3.58172 3.58172 0 8 0H116C120.418 0 124 3.58172 124 8V34C124 38.4183 120.418 42 116 42H8C3.58172 42 0 38.4183 0 34V8Z" fill="white"/>
</clipPath>
<clipPath id="clip1_8003_3964">
<path d="M0 8C0 3.58172 3.58172 0 8 0H74C78.4183 0 82 3.58172 82 8V34C82 38.4183 78.4183 42 74 42H8C3.58172 42 0 38.4183 0 34V8Z" fill="white"/>
</clipPath>
</defs>
</svg>
