<svg width="222" height="66" viewBox="0 0 222 66" fill="none" xmlns="http://www.w3.org/2000/svg">
<path d="M8 0.5H214C218.142 0.5 221.5 3.85786 221.5 8V58C221.5 62.1421 218.142 65.5 214 65.5H8C3.85786 65.5 0.5 62.1421 0.5 58V8C0.5 3.85786 3.85786 0.5 8 0.5Z" stroke="#2E263D" stroke-opacity="0.12"/>
<path d="M7 15C7 10.5817 10.5817 7 15 7H51C55.4183 7 59 10.5817 59 15V51C59 55.4183 55.4183 59 51 59H15C10.5817 59 7 55.4183 7 51V15Z" fill="#2E263D" fill-opacity="0.08"/>
<path d="M24 25H42V27H24V25ZM24 40H38V42H24V40ZM24 35H42V37H24V35ZM24 30H38V32H24V30Z" fill="#2E263D" fill-opacity="0.9"/>
<path d="M76 25H94V27H76V25ZM76 40H90V42H76V40ZM76 35H94V37H76V35ZM76 30H90V32H76V30Z" fill="#2E263D" fill-opacity="0.7"/>
<path d="M128 25H146V27H128V25ZM128 40H142V42H128V40ZM128 35H146V37H128V35ZM128 30H142V32H128V30Z" fill="#2E263D" fill-opacity="0.7"/>
<path d="M180 25H198V27H180V25ZM180 40H194V42H180V40ZM180 35H198V37H180V35ZM180 30H194V32H180V30Z" fill="#2E263D" fill-opacity="0.4"/>
</svg>
