<svg width="270" height="42" viewBox="0 0 270 42" fill="none" xmlns="http://www.w3.org/2000/svg">
<g clip-path="url(#clip0_8003_3976)">
<g clip-path="url(#clip1_8003_3976)">
<rect width="90" height="42" fill="#8C57FF" fill-opacity="0.16"/>
<path d="M23.3583 27V14.6364H25.2237V25.3942H30.826V27H23.3583ZM35.5076 27.2053C34.92 27.2053 34.3888 27.0966 33.9139 26.8793C33.439 26.6579 33.0627 26.3379 32.785 25.9194C32.5113 25.5008 32.3745 24.9877 32.3745 24.38C32.3745 23.8568 32.4751 23.4261 32.6763 23.0881C32.8775 22.75 33.1492 22.4824 33.4913 22.2852C33.8334 22.0879 34.2157 21.939 34.6383 21.8384C35.0609 21.7378 35.4915 21.6613 35.9302 21.609C36.4856 21.5446 36.9364 21.4923 37.2825 21.4521C37.6286 21.4078 37.8801 21.3374 38.0371 21.2408C38.1941 21.1442 38.2725 20.9872 38.2725 20.7699V20.7276C38.2725 20.2004 38.1236 19.7919 37.8258 19.5021C37.532 19.2124 37.0933 19.0675 36.5098 19.0675C35.902 19.0675 35.4231 19.2023 35.073 19.4719C34.7269 19.7376 34.4874 20.0334 34.3546 20.3594L32.6582 19.973C32.8594 19.4096 33.1532 18.9548 33.5396 18.6087C33.93 18.2585 34.3787 18.005 34.8858 17.848C35.3929 17.687 35.9262 17.6065 36.4856 17.6065C36.8559 17.6065 37.2483 17.6508 37.6628 17.7393C38.0814 17.8239 38.4718 17.9808 38.834 18.2102C39.2002 18.4396 39.5001 18.7676 39.7335 19.1942C39.9669 19.6168 40.0836 20.1662 40.0836 20.8423V27H38.3208V25.7322H38.2484C38.1317 25.9657 37.9566 26.1951 37.7232 26.4205C37.4898 26.6458 37.1899 26.833 36.8237 26.9819C36.4574 27.1308 36.0188 27.2053 35.5076 27.2053ZM35.9 25.7564C36.3991 25.7564 36.8257 25.6578 37.1799 25.4606C37.5381 25.2634 37.8097 25.0058 37.9949 24.6879C38.184 24.3659 38.2786 24.0218 38.2786 23.6555V22.4602C38.2142 22.5246 38.0894 22.585 37.9043 22.6413C37.7232 22.6937 37.5159 22.7399 37.2825 22.7802C37.0491 22.8164 36.8217 22.8506 36.6003 22.8828C36.379 22.911 36.1938 22.9351 36.0449 22.9553C35.6948 22.9995 35.3748 23.074 35.085 23.1786C34.7993 23.2833 34.5699 23.4342 34.3968 23.6314C34.2278 23.8246 34.1433 24.0821 34.1433 24.4041C34.1433 24.8509 34.3083 25.1889 34.6383 25.4183C34.9683 25.6437 35.3889 25.7564 35.9 25.7564ZM42.4878 27V17.7273H44.2325V19.2003H44.3291C44.4981 18.7012 44.796 18.3088 45.2226 18.0231C45.6532 17.7333 46.1402 17.5884 46.6835 17.5884C46.7962 17.5884 46.929 17.5924 47.0819 17.6005C47.2389 17.6085 47.3617 17.6186 47.4502 17.6307V19.3572C47.3778 19.3371 47.249 19.315 47.0638 19.2908C46.8787 19.2627 46.6936 19.2486 46.5084 19.2486C46.0818 19.2486 45.7015 19.3391 45.3675 19.5202C45.0374 19.6973 44.7758 19.9448 44.5827 20.2628C44.3895 20.5767 44.2929 20.9349 44.2929 21.3374V27H42.4878ZM52.568 30.6705C51.8315 30.6705 51.1976 30.5739 50.6664 30.3807C50.1391 30.1875 49.7085 29.9319 49.3745 29.614C49.0404 29.296 48.7909 28.9479 48.6259 28.5696L50.1774 27.9297C50.286 28.1068 50.4309 28.2939 50.612 28.4911C50.7972 28.6924 51.0467 28.8634 51.3606 29.0043C51.6786 29.1451 52.0871 29.2156 52.5861 29.2156C53.2703 29.2156 53.8358 29.0485 54.2825 28.7145C54.7292 28.3845 54.9526 27.8572 54.9526 27.1328V25.3097H54.8379C54.7292 25.5069 54.5723 25.7262 54.367 25.9677C54.1658 26.2092 53.8881 26.4184 53.5339 26.5955C53.1797 26.7726 52.7189 26.8612 52.1515 26.8612C51.419 26.8612 50.7589 26.6901 50.1713 26.348C49.5878 26.0019 49.1249 25.4928 48.7828 24.8207C48.4448 24.1445 48.2757 23.3134 48.2757 22.3274C48.2757 21.3414 48.4428 20.4962 48.7768 19.7919C49.1149 19.0876 49.5777 18.5483 50.1653 18.174C50.7529 17.7957 51.419 17.6065 52.1635 17.6065C52.7391 17.6065 53.2039 17.7031 53.5581 17.8963C53.9122 18.0855 54.1879 18.3068 54.3851 18.5604C54.5864 18.8139 54.7413 19.0373 54.85 19.2305H54.9828V17.7273H56.7516V27.2053C56.7516 28.0021 56.5665 28.6561 56.1962 29.1673C55.8259 29.6784 55.3249 30.0567 54.693 30.3022C54.0652 30.5477 53.3568 30.6705 52.568 30.6705ZM52.5499 25.364C53.0691 25.364 53.5078 25.2433 53.8659 25.0018C54.2282 24.7563 54.5018 24.4061 54.687 23.9513C54.8761 23.4925 54.9707 22.9432 54.9707 22.3033C54.9707 21.6795 54.8781 21.1301 54.693 20.6552C54.5079 20.1803 54.2362 19.81 53.878 19.5444C53.5198 19.2747 53.0771 19.1399 52.5499 19.1399C52.0066 19.1399 51.5538 19.2808 51.1916 19.5625C50.8294 19.8402 50.5557 20.2185 50.3706 20.6974C50.1895 21.1764 50.0989 21.7116 50.0989 22.3033C50.0989 22.911 50.1915 23.4442 50.3766 23.9031C50.5617 24.3619 50.8354 24.7201 51.1976 24.9776C51.5639 25.2352 52.0146 25.364 52.5499 25.364ZM63.1689 27.1871C62.2553 27.1871 61.4685 26.992 60.8084 26.6016C60.1524 26.2071 59.6453 25.6538 59.2871 24.9414C58.9329 24.225 58.7559 23.3859 58.7559 22.424C58.7559 21.4742 58.9329 20.6371 59.2871 19.9126C59.6453 19.1882 60.1444 18.6228 60.7843 18.2163C61.4282 17.8098 62.1808 17.6065 63.0421 17.6065C63.5653 17.6065 64.0724 17.6931 64.5634 17.8661C65.0544 18.0392 65.4951 18.3108 65.8855 18.6811C66.2759 19.0514 66.5837 19.5323 66.8091 20.1239C67.0345 20.7115 67.1472 21.4259 67.1472 22.267V22.907H59.7761V21.5547H65.3784C65.3784 21.0798 65.2818 20.6592 65.0886 20.293C64.8954 19.9227 64.6238 19.6309 64.2736 19.4176C63.9275 19.2043 63.521 19.0977 63.0542 19.0977C62.5471 19.0977 62.1043 19.2224 61.726 19.4719C61.3517 19.7174 61.062 20.0394 60.8567 20.4379C60.6555 20.8323 60.5549 21.2609 60.5549 21.7237V22.7802C60.5549 23.4 60.6635 23.9272 60.8809 24.3619C61.1022 24.7965 61.4101 25.1286 61.8045 25.358C62.1989 25.5833 62.6597 25.696 63.187 25.696C63.5291 25.696 63.841 25.6477 64.1227 25.5511C64.4044 25.4505 64.6479 25.3016 64.8532 25.1044C65.0584 24.9072 65.2154 24.6637 65.324 24.3739L67.0325 24.6818C66.8957 25.1849 66.6502 25.6256 66.296 26.0039C65.9458 26.3782 65.5051 26.67 64.9739 26.8793C64.4467 27.0845 63.845 27.1871 63.1689 27.1871Z" fill="#8C57FF"/>
</g>
<line x1="89.5" y1="42" x2="89.5" y2="2.18557e-08" stroke="#8C57FF" stroke-opacity="0.32"/>
<g clip-path="url(#clip2_8003_3976)">
<rect width="90" height="42" transform="translate(90)" fill="#8C57FF" fill-opacity="0.16"/>
<path d="M113.358 27V14.6364H115.224V25.3942H120.826V27H113.358ZM125.508 27.2053C124.92 27.2053 124.389 27.0966 123.914 26.8793C123.439 26.6579 123.063 26.3379 122.785 25.9194C122.511 25.5008 122.374 24.9877 122.374 24.38C122.374 23.8568 122.475 23.4261 122.676 23.0881C122.878 22.75 123.149 22.4824 123.491 22.2852C123.833 22.0879 124.216 21.939 124.638 21.8384C125.061 21.7378 125.492 21.6613 125.93 21.609C126.486 21.5446 126.936 21.4923 127.282 21.4521C127.629 21.4078 127.88 21.3374 128.037 21.2408C128.194 21.1442 128.273 20.9872 128.273 20.7699V20.7276C128.273 20.2004 128.124 19.7919 127.826 19.5021C127.532 19.2124 127.093 19.0675 126.51 19.0675C125.902 19.0675 125.423 19.2023 125.073 19.4719C124.727 19.7376 124.487 20.0334 124.355 20.3594L122.658 19.973C122.859 19.4096 123.153 18.9548 123.54 18.6087C123.93 18.2585 124.379 18.005 124.886 17.848C125.393 17.687 125.926 17.6065 126.486 17.6065C126.856 17.6065 127.248 17.6508 127.663 17.7393C128.081 17.8239 128.472 17.9808 128.834 18.2102C129.2 18.4396 129.5 18.7676 129.733 19.1942C129.967 19.6168 130.084 20.1662 130.084 20.8423V27H128.321V25.7322H128.248C128.132 25.9657 127.957 26.1951 127.723 26.4205C127.49 26.6458 127.19 26.833 126.824 26.9819C126.457 27.1308 126.019 27.2053 125.508 27.2053ZM125.9 25.7564C126.399 25.7564 126.826 25.6578 127.18 25.4606C127.538 25.2634 127.81 25.0058 127.995 24.6879C128.184 24.3659 128.279 24.0218 128.279 23.6555V22.4602C128.214 22.5246 128.089 22.585 127.904 22.6413C127.723 22.6937 127.516 22.7399 127.282 22.7802C127.049 22.8164 126.822 22.8506 126.6 22.8828C126.379 22.911 126.194 22.9351 126.045 22.9553C125.695 22.9995 125.375 23.074 125.085 23.1786C124.799 23.2833 124.57 23.4342 124.397 23.6314C124.228 23.8246 124.143 24.0821 124.143 24.4041C124.143 24.8509 124.308 25.1889 124.638 25.4183C124.968 25.6437 125.389 25.7564 125.9 25.7564ZM132.488 27V17.7273H134.233V19.2003H134.329C134.498 18.7012 134.796 18.3088 135.223 18.0231C135.653 17.7333 136.14 17.5884 136.684 17.5884C136.796 17.5884 136.929 17.5924 137.082 17.6005C137.239 17.6085 137.362 17.6186 137.45 17.6307V19.3572C137.378 19.3371 137.249 19.315 137.064 19.2908C136.879 19.2627 136.694 19.2486 136.508 19.2486C136.082 19.2486 135.701 19.3391 135.367 19.5202C135.037 19.6973 134.776 19.9448 134.583 20.2628C134.389 20.5767 134.293 20.9349 134.293 21.3374V27H132.488ZM142.568 30.6705C141.831 30.6705 141.198 30.5739 140.666 30.3807C140.139 30.1875 139.709 29.9319 139.374 29.614C139.04 29.296 138.791 28.9479 138.626 28.5696L140.177 27.9297C140.286 28.1068 140.431 28.2939 140.612 28.4911C140.797 28.6924 141.047 28.8634 141.361 29.0043C141.679 29.1451 142.087 29.2156 142.586 29.2156C143.27 29.2156 143.836 29.0485 144.282 28.7145C144.729 28.3845 144.953 27.8572 144.953 27.1328V25.3097H144.838C144.729 25.5069 144.572 25.7262 144.367 25.9677C144.166 26.2092 143.888 26.4184 143.534 26.5955C143.18 26.7726 142.719 26.8612 142.151 26.8612C141.419 26.8612 140.759 26.6901 140.171 26.348C139.588 26.0019 139.125 25.4928 138.783 24.8207C138.445 24.1445 138.276 23.3134 138.276 22.3274C138.276 21.3414 138.443 20.4962 138.777 19.7919C139.115 19.0876 139.578 18.5483 140.165 18.174C140.753 17.7957 141.419 17.6065 142.164 17.6065C142.739 17.6065 143.204 17.7031 143.558 17.8963C143.912 18.0855 144.188 18.3068 144.385 18.5604C144.586 18.8139 144.741 19.0373 144.85 19.2305H144.983V17.7273H146.752V27.2053C146.752 28.0021 146.566 28.6561 146.196 29.1673C145.826 29.6784 145.325 30.0567 144.693 30.3022C144.065 30.5477 143.357 30.6705 142.568 30.6705ZM142.55 25.364C143.069 25.364 143.508 25.2433 143.866 25.0018C144.228 24.7563 144.502 24.4061 144.687 23.9513C144.876 23.4925 144.971 22.9432 144.971 22.3033C144.971 21.6795 144.878 21.1301 144.693 20.6552C144.508 20.1803 144.236 19.81 143.878 19.5444C143.52 19.2747 143.077 19.1399 142.55 19.1399C142.007 19.1399 141.554 19.2808 141.192 19.5625C140.829 19.8402 140.556 20.2185 140.371 20.6974C140.189 21.1764 140.099 21.7116 140.099 22.3033C140.099 22.911 140.191 23.4442 140.377 23.9031C140.562 24.3619 140.835 24.7201 141.198 24.9776C141.564 25.2352 142.015 25.364 142.55 25.364ZM153.169 27.1871C152.255 27.1871 151.468 26.992 150.808 26.6016C150.152 26.2071 149.645 25.6538 149.287 24.9414C148.933 24.225 148.756 23.3859 148.756 22.424C148.756 21.4742 148.933 20.6371 149.287 19.9126C149.645 19.1882 150.144 18.6228 150.784 18.2163C151.428 17.8098 152.181 17.6065 153.042 17.6065C153.565 17.6065 154.072 17.6931 154.563 17.8661C155.054 18.0392 155.495 18.3108 155.885 18.6811C156.276 19.0514 156.584 19.5323 156.809 20.1239C157.035 20.7115 157.147 21.4259 157.147 22.267V22.907H149.776V21.5547H155.378C155.378 21.0798 155.282 20.6592 155.089 20.293C154.895 19.9227 154.624 19.6309 154.274 19.4176C153.927 19.2043 153.521 19.0977 153.054 19.0977C152.547 19.0977 152.104 19.2224 151.726 19.4719C151.352 19.7174 151.062 20.0394 150.857 20.4379C150.655 20.8323 150.555 21.2609 150.555 21.7237V22.7802C150.555 23.4 150.664 23.9272 150.881 24.3619C151.102 24.7965 151.41 25.1286 151.805 25.358C152.199 25.5833 152.66 25.696 153.187 25.696C153.529 25.696 153.841 25.6477 154.123 25.5511C154.404 25.4505 154.648 25.3016 154.853 25.1044C155.058 24.9072 155.215 24.6637 155.324 24.3739L157.032 24.6818C156.896 25.1849 156.65 25.6256 156.296 26.0039C155.946 26.3782 155.505 26.67 154.974 26.8793C154.447 27.0845 153.845 27.1871 153.169 27.1871Z" fill="#8C57FF"/>
</g>
<line x1="179.5" y1="42" x2="179.5" y2="2.18557e-08" stroke="#8C57FF" stroke-opacity="0.32"/>
<g clip-path="url(#clip3_8003_3976)">
<rect width="90" height="42" transform="translate(180)" fill="#8C57FF" fill-opacity="0.16"/>
<path d="M203.358 27V14.6364H205.224V25.3942H210.826V27H203.358ZM215.508 27.2053C214.92 27.2053 214.389 27.0966 213.914 26.8793C213.439 26.6579 213.063 26.3379 212.785 25.9194C212.511 25.5008 212.374 24.9877 212.374 24.38C212.374 23.8568 212.475 23.4261 212.676 23.0881C212.878 22.75 213.149 22.4824 213.491 22.2852C213.833 22.0879 214.216 21.939 214.638 21.8384C215.061 21.7378 215.492 21.6613 215.93 21.609C216.486 21.5446 216.936 21.4923 217.282 21.4521C217.629 21.4078 217.88 21.3374 218.037 21.2408C218.194 21.1442 218.273 20.9872 218.273 20.7699V20.7276C218.273 20.2004 218.124 19.7919 217.826 19.5021C217.532 19.2124 217.093 19.0675 216.51 19.0675C215.902 19.0675 215.423 19.2023 215.073 19.4719C214.727 19.7376 214.487 20.0334 214.355 20.3594L212.658 19.973C212.859 19.4096 213.153 18.9548 213.54 18.6087C213.93 18.2585 214.379 18.005 214.886 17.848C215.393 17.687 215.926 17.6065 216.486 17.6065C216.856 17.6065 217.248 17.6508 217.663 17.7393C218.081 17.8239 218.472 17.9808 218.834 18.2102C219.2 18.4396 219.5 18.7676 219.733 19.1942C219.967 19.6168 220.084 20.1662 220.084 20.8423V27H218.321V25.7322H218.248C218.132 25.9657 217.957 26.1951 217.723 26.4205C217.49 26.6458 217.19 26.833 216.824 26.9819C216.457 27.1308 216.019 27.2053 215.508 27.2053ZM215.9 25.7564C216.399 25.7564 216.826 25.6578 217.18 25.4606C217.538 25.2634 217.81 25.0058 217.995 24.6879C218.184 24.3659 218.279 24.0218 218.279 23.6555V22.4602C218.214 22.5246 218.089 22.585 217.904 22.6413C217.723 22.6937 217.516 22.7399 217.282 22.7802C217.049 22.8164 216.822 22.8506 216.6 22.8828C216.379 22.911 216.194 22.9351 216.045 22.9553C215.695 22.9995 215.375 23.074 215.085 23.1786C214.799 23.2833 214.57 23.4342 214.397 23.6314C214.228 23.8246 214.143 24.0821 214.143 24.4041C214.143 24.8509 214.308 25.1889 214.638 25.4183C214.968 25.6437 215.389 25.7564 215.9 25.7564ZM222.488 27V17.7273H224.233V19.2003H224.329C224.498 18.7012 224.796 18.3088 225.223 18.0231C225.653 17.7333 226.14 17.5884 226.684 17.5884C226.796 17.5884 226.929 17.5924 227.082 17.6005C227.239 17.6085 227.362 17.6186 227.45 17.6307V19.3572C227.378 19.3371 227.249 19.315 227.064 19.2908C226.879 19.2627 226.694 19.2486 226.508 19.2486C226.082 19.2486 225.701 19.3391 225.367 19.5202C225.037 19.6973 224.776 19.9448 224.583 20.2628C224.389 20.5767 224.293 20.9349 224.293 21.3374V27H222.488ZM232.568 30.6705C231.831 30.6705 231.198 30.5739 230.666 30.3807C230.139 30.1875 229.709 29.9319 229.374 29.614C229.04 29.296 228.791 28.9479 228.626 28.5696L230.177 27.9297C230.286 28.1068 230.431 28.2939 230.612 28.4911C230.797 28.6924 231.047 28.8634 231.361 29.0043C231.679 29.1451 232.087 29.2156 232.586 29.2156C233.27 29.2156 233.836 29.0485 234.282 28.7145C234.729 28.3845 234.953 27.8572 234.953 27.1328V25.3097H234.838C234.729 25.5069 234.572 25.7262 234.367 25.9677C234.166 26.2092 233.888 26.4184 233.534 26.5955C233.18 26.7726 232.719 26.8612 232.151 26.8612C231.419 26.8612 230.759 26.6901 230.171 26.348C229.588 26.0019 229.125 25.4928 228.783 24.8207C228.445 24.1445 228.276 23.3134 228.276 22.3274C228.276 21.3414 228.443 20.4962 228.777 19.7919C229.115 19.0876 229.578 18.5483 230.165 18.174C230.753 17.7957 231.419 17.6065 232.164 17.6065C232.739 17.6065 233.204 17.7031 233.558 17.8963C233.912 18.0855 234.188 18.3068 234.385 18.5604C234.586 18.8139 234.741 19.0373 234.85 19.2305H234.983V17.7273H236.752V27.2053C236.752 28.0021 236.566 28.6561 236.196 29.1673C235.826 29.6784 235.325 30.0567 234.693 30.3022C234.065 30.5477 233.357 30.6705 232.568 30.6705ZM232.55 25.364C233.069 25.364 233.508 25.2433 233.866 25.0018C234.228 24.7563 234.502 24.4061 234.687 23.9513C234.876 23.4925 234.971 22.9432 234.971 22.3033C234.971 21.6795 234.878 21.1301 234.693 20.6552C234.508 20.1803 234.236 19.81 233.878 19.5444C233.52 19.2747 233.077 19.1399 232.55 19.1399C232.007 19.1399 231.554 19.2808 231.192 19.5625C230.829 19.8402 230.556 20.2185 230.371 20.6974C230.189 21.1764 230.099 21.7116 230.099 22.3033C230.099 22.911 230.191 23.4442 230.377 23.9031C230.562 24.3619 230.835 24.7201 231.198 24.9776C231.564 25.2352 232.015 25.364 232.55 25.364ZM243.169 27.1871C242.255 27.1871 241.468 26.992 240.808 26.6016C240.152 26.2071 239.645 25.6538 239.287 24.9414C238.933 24.225 238.756 23.3859 238.756 22.424C238.756 21.4742 238.933 20.6371 239.287 19.9126C239.645 19.1882 240.144 18.6228 240.784 18.2163C241.428 17.8098 242.181 17.6065 243.042 17.6065C243.565 17.6065 244.072 17.6931 244.563 17.8661C245.054 18.0392 245.495 18.3108 245.885 18.6811C246.276 19.0514 246.584 19.5323 246.809 20.1239C247.035 20.7115 247.147 21.4259 247.147 22.267V22.907H239.776V21.5547H245.378C245.378 21.0798 245.282 20.6592 245.089 20.293C244.895 19.9227 244.624 19.6309 244.274 19.4176C243.927 19.2043 243.521 19.0977 243.054 19.0977C242.547 19.0977 242.104 19.2224 241.726 19.4719C241.352 19.7174 241.062 20.0394 240.857 20.4379C240.655 20.8323 240.555 21.2609 240.555 21.7237V22.7802C240.555 23.4 240.664 23.9272 240.881 24.3619C241.102 24.7965 241.41 25.1286 241.805 25.358C242.199 25.5833 242.66 25.696 243.187 25.696C243.529 25.696 243.841 25.6477 244.123 25.5511C244.404 25.4505 244.648 25.3016 244.853 25.1044C245.058 24.9072 245.215 24.6637 245.324 24.3739L247.032 24.6818C246.896 25.1849 246.65 25.6256 246.296 26.0039C245.946 26.3782 245.505 26.67 244.974 26.8793C244.447 27.0845 243.845 27.1871 243.169 27.1871Z" fill="#8C57FF"/>
</g>
</g>
<defs>
<clipPath id="clip0_8003_3976">
<path d="M0 8C0 3.58172 3.58172 0 8 0H262C266.418 0 270 3.58172 270 8V34C270 38.4183 266.418 42 262 42H8C3.58173 42 0 38.4183 0 34V8Z" fill="white"/>
</clipPath>
<clipPath id="clip1_8003_3976">
<rect width="90" height="42" fill="white"/>
</clipPath>
<clipPath id="clip2_8003_3976">
<rect width="90" height="42" fill="white" transform="translate(90)"/>
</clipPath>
<clipPath id="clip3_8003_3976">
<rect width="90" height="42" fill="white" transform="translate(180)"/>
</clipPath>
</defs>
</svg>
