<svg width="89" height="28" viewBox="0 0 89 28" fill="none" xmlns="http://www.w3.org/2000/svg">
<path d="M0 4C0 1.79086 1.79086 0 4 0H85C87.2091 0 89 1.79086 89 4V24C89 26.2091 87.2091 28 85 28H4C1.79086 28 0 26.2091 0 24V4Z" fill="#1A0E33"/>
<path d="M13.0387 9.54545H14.7699L17.7798 16.8949H17.8906L20.9006 9.54545H22.6317V19H21.2745V12.1584H21.1868L18.3984 18.9862H17.272L14.4837 12.1538H14.396V19H13.0387V9.54545ZM25.4674 21.6591C25.2612 21.6591 25.0735 21.6422 24.9042 21.6083C24.7349 21.5775 24.6088 21.5437 24.5257 21.5067L24.858 20.3757C25.1104 20.4434 25.3351 20.4727 25.532 20.4634C25.729 20.4542 25.9029 20.3803 26.0537 20.2418C26.2076 20.1033 26.343 19.8771 26.46 19.5632L26.6308 19.0923L24.0363 11.9091H25.5136L27.3094 17.4119H27.3833L29.1791 11.9091H30.661L27.7387 19.9464C27.6033 20.3157 27.431 20.6281 27.2217 20.8835C27.0124 21.142 26.7631 21.3359 26.4738 21.4652C26.1845 21.5945 25.849 21.6591 25.4674 21.6591ZM35.0431 10.7734V9.54545H42.3603V10.7734H39.4103V19H37.9885V10.7734H35.0431ZM45.8249 19.1431C45.1602 19.1431 44.58 18.9908 44.0845 18.6861C43.589 18.3814 43.2043 17.9551 42.9304 17.4073C42.6565 16.8595 42.5195 16.2193 42.5195 15.4869C42.5195 14.7513 42.6565 14.1081 42.9304 13.5572C43.2043 13.0063 43.589 12.5785 44.0845 12.2738C44.58 11.9691 45.1602 11.8168 45.8249 11.8168C46.4897 11.8168 47.0698 11.9691 47.5653 12.2738C48.0608 12.5785 48.4455 13.0063 48.7195 13.5572C48.9934 14.1081 49.1303 14.7513 49.1303 15.4869C49.1303 16.2193 48.9934 16.8595 48.7195 17.4073C48.4455 17.9551 48.0608 18.3814 47.5653 18.6861C47.0698 18.9908 46.4897 19.1431 45.8249 19.1431ZM45.8295 17.9844C46.2604 17.9844 46.6174 17.8705 46.9006 17.6428C47.1837 17.415 47.393 17.1119 47.5284 16.7333C47.6669 16.3548 47.7362 15.9377 47.7362 15.4822C47.7362 15.0298 47.6669 14.6143 47.5284 14.2358C47.393 13.8542 47.1837 13.5479 46.9006 13.3171C46.6174 13.0863 46.2604 12.9709 45.8295 12.9709C45.3956 12.9709 45.0355 13.0863 44.7493 13.3171C44.4661 13.5479 44.2553 13.8542 44.1168 14.2358C43.9814 14.6143 43.9137 15.0298 43.9137 15.4822C43.9137 15.9377 43.9814 16.3548 44.1168 16.7333C44.2553 17.1119 44.4661 17.415 44.7493 17.6428C45.0355 17.8705 45.3956 17.9844 45.8295 17.9844ZM53.6579 19.1431C52.9932 19.1431 52.413 18.9908 51.9175 18.6861C51.422 18.3814 51.0373 17.9551 50.7634 17.4073C50.4895 16.8595 50.3525 16.2193 50.3525 15.4869C50.3525 14.7513 50.4895 14.1081 50.7634 13.5572C51.0373 13.0063 51.422 12.5785 51.9175 12.2738C52.413 11.9691 52.9932 11.8168 53.6579 11.8168C54.3227 11.8168 54.9028 11.9691 55.3983 12.2738C55.8939 12.5785 56.2786 13.0063 56.5525 13.5572C56.8264 14.1081 56.9633 14.7513 56.9633 15.4869C56.9633 16.2193 56.8264 16.8595 56.5525 17.4073C56.2786 17.9551 55.8939 18.3814 55.3983 18.6861C54.9028 18.9908 54.3227 19.1431 53.6579 19.1431ZM53.6626 17.9844C54.0934 17.9844 54.4504 17.8705 54.7336 17.6428C55.0167 17.415 55.226 17.1119 55.3614 16.7333C55.4999 16.3548 55.5692 15.9377 55.5692 15.4822C55.5692 15.0298 55.4999 14.6143 55.3614 14.2358C55.226 13.8542 55.0167 13.5479 54.7336 13.3171C54.4504 13.0863 54.0934 12.9709 53.6626 12.9709C53.2286 12.9709 52.8685 13.0863 52.5823 13.3171C52.2992 13.5479 52.0883 13.8542 51.9498 14.2358C51.8144 14.6143 51.7467 15.0298 51.7467 15.4822C51.7467 15.9377 51.8144 16.3548 51.9498 16.7333C52.0883 17.1119 52.2992 17.415 52.5823 17.6428C52.8685 17.8705 53.2286 17.9844 53.6626 17.9844ZM59.8844 9.54545V19H58.5041V9.54545H59.8844ZM65.0514 11.9091V13.017H61.1782V11.9091H65.0514ZM62.2169 10.2102H63.5972V16.918C63.5972 17.1857 63.6372 17.3873 63.7172 17.5227C63.7973 17.6551 63.9004 17.7459 64.0265 17.7951C64.1558 17.8413 64.2958 17.8643 64.4466 17.8643C64.5574 17.8643 64.6544 17.8567 64.7375 17.8413C64.8206 17.8259 64.8852 17.8136 64.9314 17.8043L65.1807 18.9446C65.1006 18.9754 64.9868 19.0062 64.839 19.0369C64.6913 19.0708 64.5067 19.0893 64.2851 19.0923C63.9219 19.0985 63.5834 19.0339 63.2694 18.8984C62.9555 18.763 62.7016 18.5537 62.5077 18.2706C62.3138 17.9875 62.2169 17.632 62.2169 17.2042V10.2102ZM66.5783 19V11.9091H67.9586V19H66.5783ZM67.2754 10.815C67.0353 10.815 66.8291 10.735 66.6568 10.5749C66.4875 10.4118 66.4029 10.2179 66.4029 9.99325C66.4029 9.76551 66.4875 9.57161 66.6568 9.41158C66.8291 9.24846 67.0353 9.1669 67.2754 9.1669C67.5154 9.1669 67.7201 9.24846 67.8894 9.41158C68.0617 9.57161 68.1479 9.76551 68.1479 9.99325C68.1479 10.2179 68.0617 10.4118 67.8894 10.5749C67.7201 10.735 67.5154 10.815 67.2754 10.815ZM69.8156 21.6591V11.9091H71.1636V13.0586H71.279C71.359 12.9109 71.4745 12.7401 71.6253 12.5462C71.7761 12.3523 71.9854 12.183 72.2531 12.0384C72.5209 11.8906 72.8748 11.8168 73.3149 11.8168C73.8873 11.8168 74.3982 11.9614 74.8476 12.2507C75.2969 12.54 75.6493 12.957 75.9047 13.5018C76.1633 14.0465 76.2925 14.7021 76.2925 15.4684C76.2925 16.2347 76.1648 16.8918 75.9094 17.4396C75.6539 17.9844 75.3031 18.4045 74.8568 18.6999C74.4105 18.9923 73.9012 19.1385 73.3287 19.1385C72.8979 19.1385 72.5455 19.0662 72.2716 18.9215C72.0007 18.7769 71.7884 18.6076 71.6345 18.4137C71.4806 18.2198 71.3621 18.0475 71.279 17.8967H71.1959V21.6591H69.8156ZM71.1682 15.4545C71.1682 15.9531 71.2406 16.3902 71.3852 16.7656C71.5299 17.1411 71.7391 17.435 72.0131 17.6474C72.287 17.8567 72.6224 17.9613 73.0194 17.9613C73.4318 17.9613 73.7765 17.852 74.0535 17.6335C74.3305 17.4119 74.5398 17.1119 74.6814 16.7333C74.826 16.3548 74.8983 15.9285 74.8983 15.4545C74.8983 14.9867 74.8276 14.5666 74.686 14.1942C74.5475 13.8219 74.3382 13.5279 74.0581 13.3125C73.7812 13.0971 73.4349 12.9893 73.0194 12.9893C72.6193 12.9893 72.2808 13.0924 72.0038 13.2987C71.7299 13.5049 71.5222 13.7926 71.3806 14.1619C71.239 14.5312 71.1682 14.9621 71.1682 15.4545Z" fill="white"/>
</svg>
