<svg width="266" height="91" viewBox="0 0 266 91" fill="none" xmlns="http://www.w3.org/2000/svg">
<path d="M0.5 6.5C0.5 3.18629 3.18629 0.5 6.5 0.5H259.5C262.814 0.5 265.5 3.18629 265.5 6.5V84.5C265.5 87.8137 262.814 90.5 259.5 90.5H6.50001C3.1863 90.5 0.5 87.8137 0.5 84.5V6.5Z" stroke="#2E263D" stroke-opacity="0.12" stroke-linejoin="bevel"/>
<g filter="url(#filter0_d_8003_4646)">
<path d="M20.5 31.5C20.5 28.1863 23.1863 25.5 26.5 25.5H54.5C57.8137 25.5 60.5 28.1863 60.5 31.5V59.5C60.5 62.8137 57.8137 65.5 54.5 65.5H26.5C23.1863 65.5 20.5 62.8137 20.5 59.5V31.5Z" fill="white"/>
<path d="M31.5 45.5H33.5V54.5H31.5V45.5ZM47.5 41.5H49.5V54.5H47.5V41.5ZM39.5 35.5H41.5V54.5H39.5V35.5Z" fill="#FFB400"/>
</g>
<path d="M77.2244 26.7628V25.5909H85.4062V26.7628H81.9759V36.5H80.6548V26.7628H77.2244ZM89.4119 36.6705C88.6733 36.6705 88.0252 36.4947 87.4677 36.1431C86.9137 35.7915 86.4805 35.2997 86.168 34.6676C85.859 34.0355 85.7045 33.2969 85.7045 32.4517C85.7045 31.5994 85.859 30.8555 86.168 30.2198C86.4805 29.5842 86.9137 29.0906 87.4677 28.739C88.0252 28.3874 88.6733 28.2116 89.4119 28.2116C90.1506 28.2116 90.7969 28.3874 91.3509 28.739C91.9084 29.0906 92.3416 29.5842 92.6506 30.2198C92.9631 30.8555 93.1193 31.5994 93.1193 32.4517C93.1193 33.2969 92.9631 34.0355 92.6506 34.6676C92.3416 35.2997 91.9084 35.7915 91.3509 36.1431C90.7969 36.4947 90.1506 36.6705 89.4119 36.6705ZM89.4119 35.5412C89.973 35.5412 90.4347 35.3974 90.7969 35.1097C91.1591 34.8221 91.4272 34.4439 91.6012 33.9751C91.7752 33.5064 91.8622 32.9986 91.8622 32.4517C91.8622 31.9048 91.7752 31.3952 91.6012 30.9229C91.4272 30.4506 91.1591 30.0689 90.7969 29.7777C90.4347 29.4865 89.973 29.3409 89.4119 29.3409C88.8509 29.3409 88.3892 29.4865 88.027 29.7777C87.6648 30.0689 87.3967 30.4506 87.2227 30.9229C87.0487 31.3952 86.9616 31.9048 86.9616 32.4517C86.9616 32.9986 87.0487 33.5064 87.2227 33.9751C87.3967 34.4439 87.6648 34.8221 88.027 35.1097C88.3892 35.3974 88.8509 35.5412 89.4119 35.5412ZM98.5965 28.3182V29.3835H94.3564V28.3182H98.5965ZM95.5922 26.358H96.8493V34.1562C96.8493 34.5114 96.9008 34.7777 97.0038 34.9553C97.1104 35.1293 97.2453 35.2464 97.4086 35.3068C97.5756 35.3636 97.7513 35.392 97.936 35.392C98.0745 35.392 98.1881 35.3849 98.2769 35.3707C98.3657 35.353 98.4367 35.3388 98.49 35.3281L98.7457 36.4574C98.6604 36.4893 98.5415 36.5213 98.3888 36.5533C98.2361 36.5888 98.0425 36.6065 97.8082 36.6065C97.453 36.6065 97.105 36.5302 96.7641 36.3775C96.4268 36.2248 96.1462 35.9922 95.9225 35.6797C95.7023 35.3672 95.5922 34.973 95.5922 34.4972V26.358ZM102.895 36.6918C102.377 36.6918 101.906 36.5941 101.484 36.3988C101.061 36.1999 100.725 35.9141 100.477 35.5412C100.228 35.1648 100.104 34.7102 100.104 34.1776C100.104 33.7088 100.196 33.3288 100.381 33.0376C100.566 32.7429 100.812 32.5121 101.121 32.3452C101.43 32.1783 101.771 32.054 102.144 31.9723C102.521 31.8871 102.899 31.8196 103.279 31.7699C103.776 31.706 104.179 31.658 104.488 31.6261C104.8 31.5906 105.028 31.532 105.17 31.4503C105.315 31.3686 105.388 31.2266 105.388 31.0241V30.9815C105.388 30.456 105.244 30.0476 104.957 29.7564C104.672 29.4652 104.241 29.3196 103.662 29.3196C103.062 29.3196 102.592 29.451 102.251 29.7138C101.91 29.9766 101.67 30.2571 101.532 30.5554L100.338 30.1293C100.551 29.6321 100.835 29.245 101.191 28.968C101.549 28.6875 101.94 28.4922 102.362 28.3821C102.789 28.2685 103.208 28.2116 103.62 28.2116C103.882 28.2116 104.184 28.2436 104.525 28.3075C104.87 28.3679 105.202 28.494 105.521 28.6857C105.844 28.8775 106.112 29.1669 106.326 29.554C106.539 29.9411 106.645 30.4595 106.645 31.1094V36.5H105.388V35.392H105.324C105.239 35.5696 105.097 35.7596 104.898 35.962C104.699 36.1644 104.435 36.3366 104.104 36.4787C103.774 36.6207 103.371 36.6918 102.895 36.6918ZM103.087 35.5625C103.584 35.5625 104.003 35.4648 104.344 35.2695C104.688 35.0742 104.948 34.8221 105.122 34.5131C105.299 34.2042 105.388 33.8793 105.388 33.5384V32.3878C105.335 32.4517 105.218 32.5103 105.036 32.5636C104.859 32.6133 104.653 32.6577 104.419 32.6967C104.188 32.7322 103.962 32.7642 103.742 32.7926C103.525 32.8175 103.35 32.8388 103.215 32.8565C102.888 32.8991 102.583 32.9684 102.299 33.0643C102.018 33.1566 101.791 33.2969 101.617 33.4851C101.446 33.6697 101.361 33.9219 101.361 34.2415C101.361 34.6783 101.523 35.0085 101.846 35.2322C102.172 35.4524 102.586 35.5625 103.087 35.5625ZM110.197 25.5909V36.5H108.94V25.5909H110.197ZM116.888 36.5V25.5909H120.574C121.43 25.5909 122.13 25.7454 122.673 26.0543C123.22 26.3597 123.625 26.7734 123.888 27.2955C124.15 27.8175 124.282 28.3999 124.282 29.0426C124.282 29.6854 124.15 30.2695 123.888 30.7951C123.628 31.3207 123.227 31.7397 122.684 32.0522C122.141 32.3612 121.445 32.5156 120.596 32.5156H117.954V31.3438H120.553C121.139 31.3438 121.61 31.2425 121.965 31.0401C122.32 30.8377 122.577 30.5643 122.737 30.2198C122.9 29.8718 122.982 29.4794 122.982 29.0426C122.982 28.6058 122.9 28.2152 122.737 27.8707C122.577 27.5263 122.318 27.2564 121.959 27.0611C121.601 26.8622 121.125 26.7628 120.532 26.7628H118.209V36.5H116.888ZM126.239 36.5V28.3182H127.454V29.554H127.539C127.688 29.1491 127.958 28.8207 128.349 28.5685C128.739 28.3164 129.18 28.1903 129.67 28.1903C129.762 28.1903 129.878 28.1921 130.016 28.1957C130.155 28.1992 130.259 28.2045 130.33 28.2116V29.4901C130.288 29.4794 130.19 29.4634 130.037 29.4421C129.888 29.4173 129.73 29.4048 129.563 29.4048C129.166 29.4048 128.81 29.4883 128.498 29.6552C128.189 29.8185 127.944 30.0458 127.763 30.337C127.585 30.6246 127.497 30.9531 127.497 31.3224V36.5H126.239ZM134.895 36.6705C134.157 36.6705 133.509 36.4947 132.951 36.1431C132.397 35.7915 131.964 35.2997 131.651 34.6676C131.342 34.0355 131.188 33.2969 131.188 32.4517C131.188 31.5994 131.342 30.8555 131.651 30.2198C131.964 29.5842 132.397 29.0906 132.951 28.739C133.509 28.3874 134.157 28.2116 134.895 28.2116C135.634 28.2116 136.28 28.3874 136.834 28.739C137.392 29.0906 137.825 29.5842 138.134 30.2198C138.446 30.8555 138.603 31.5994 138.603 32.4517C138.603 33.2969 138.446 34.0355 138.134 34.6676C137.825 35.2997 137.392 35.7915 136.834 36.1431C136.28 36.4947 135.634 36.6705 134.895 36.6705ZM134.895 35.5412C135.456 35.5412 135.918 35.3974 136.28 35.1097C136.642 34.8221 136.911 34.4439 137.085 33.9751C137.259 33.5064 137.346 32.9986 137.346 32.4517C137.346 31.9048 137.259 31.3952 137.085 30.9229C136.911 30.4506 136.642 30.0689 136.28 29.7777C135.918 29.4865 135.456 29.3409 134.895 29.3409C134.334 29.3409 133.873 29.4865 133.51 29.7777C133.148 30.0689 132.88 30.4506 132.706 30.9229C132.532 31.3952 132.445 31.9048 132.445 32.4517C132.445 32.9986 132.532 33.5064 132.706 33.9751C132.88 34.4439 133.148 34.8221 133.51 35.1097C133.873 35.3974 134.334 35.5412 134.895 35.5412ZM144.165 28.3182V29.3835H139.755V28.3182H144.165ZM141.076 36.5V27.1889C141.076 26.7202 141.186 26.3295 141.406 26.017C141.626 25.7045 141.912 25.4702 142.263 25.3139C142.615 25.1577 142.986 25.0795 143.377 25.0795C143.686 25.0795 143.938 25.1044 144.133 25.1541C144.328 25.2038 144.474 25.25 144.57 25.2926L144.208 26.3793C144.144 26.358 144.055 26.3313 143.941 26.2994C143.831 26.2674 143.686 26.2514 143.505 26.2514C143.089 26.2514 142.789 26.3562 142.604 26.5657C142.423 26.7752 142.333 27.0824 142.333 27.4872V36.5H141.076ZM145.927 36.5V28.3182H147.184V36.5H145.927ZM146.566 26.9545C146.321 26.9545 146.11 26.8711 145.932 26.7042C145.758 26.5373 145.671 26.3366 145.671 26.1023C145.671 25.8679 145.758 25.6673 145.932 25.5004C146.11 25.3335 146.321 25.25 146.566 25.25C146.811 25.25 147.021 25.3335 147.195 25.5004C147.372 25.6673 147.461 25.8679 147.461 26.1023C147.461 26.3366 147.372 26.5373 147.195 26.7042C147.021 26.8711 146.811 26.9545 146.566 26.9545ZM153.045 28.3182V29.3835H148.805V28.3182H153.045ZM150.04 26.358H151.298V34.1562C151.298 34.5114 151.349 34.7777 151.452 34.9553C151.559 35.1293 151.694 35.2464 151.857 35.3068C152.024 35.3636 152.2 35.392 152.384 35.392C152.523 35.392 152.636 35.3849 152.725 35.3707C152.814 35.353 152.885 35.3388 152.938 35.3281L153.194 36.4574C153.109 36.4893 152.99 36.5213 152.837 36.5533C152.684 36.5888 152.491 36.6065 152.256 36.6065C151.901 36.6065 151.553 36.5302 151.212 36.3775C150.875 36.2248 150.594 35.9922 150.371 35.6797C150.151 35.3672 150.04 34.973 150.04 34.4972V26.358Z" fill="#2E263D" fill-opacity="0.7"/>
<path d="M77.7592 63.5V62.0682L82.1889 57.4787C82.6619 56.9801 83.0518 56.5433 83.3587 56.1683C83.6697 55.7891 83.902 55.429 84.0554 55.0881C84.2088 54.7472 84.2855 54.3849 84.2855 54.0014C84.2855 53.5668 84.1832 53.1918 83.9787 52.8764C83.7741 52.5568 83.495 52.3118 83.1413 52.1413C82.7876 51.9666 82.3892 51.8793 81.946 51.8793C81.4773 51.8793 81.0682 51.9751 80.7188 52.1669C80.3693 52.3587 80.1009 52.6293 79.9134 52.9787C79.7259 53.3281 79.6321 53.7372 79.6321 54.206H77.7464C77.7464 53.4091 77.9297 52.7124 78.2962 52.1158C78.6626 51.5192 79.1655 51.0568 79.8047 50.7287C80.4439 50.3963 81.1705 50.2301 81.9844 50.2301C82.8068 50.2301 83.5313 50.3942 84.1577 50.7223C84.7884 51.0462 85.2805 51.4893 85.6342 52.0518C85.9879 52.6101 86.1648 53.2408 86.1648 53.9439C86.1648 54.4297 86.0732 54.9048 85.8899 55.3693C85.7109 55.8338 85.3977 56.3516 84.9503 56.9226C84.5028 57.4893 83.8807 58.1776 83.0838 58.9872L80.4822 61.7102V61.8061H86.3757V63.5H77.7592ZM91.3104 61.7102L91.2145 62.407C91.1506 62.9183 91.0419 63.451 90.8885 64.005C90.7393 64.5632 90.5838 65.081 90.4219 65.5582C90.2642 66.0355 90.1342 66.4148 90.032 66.696H88.6768C88.7322 66.4318 88.8089 66.0739 88.907 65.6222C89.005 65.1747 89.1009 64.674 89.1946 64.12C89.2884 63.5661 89.3587 63.0014 89.4055 62.4261L89.4695 61.7102H91.3104ZM97.9677 63.679C97.0515 63.679 96.2418 63.5213 95.5387 63.206C94.8398 62.8906 94.2923 62.456 93.896 61.902C93.4996 61.348 93.3036 60.7173 93.3079 60.0099C93.3036 59.456 93.4165 58.9467 93.6467 58.4822C93.881 58.0135 94.1985 57.6236 94.5991 57.3125C94.9996 56.9972 95.4471 56.7969 95.9414 56.7116V56.6349C95.2894 56.4773 94.7674 56.1278 94.3754 55.5866C93.9833 55.0455 93.7894 54.4233 93.7937 53.7202C93.7894 53.0511 93.9663 52.4545 94.3242 51.9304C94.6864 51.402 95.1829 50.9865 95.8136 50.6839C96.4442 50.3814 97.1623 50.2301 97.9677 50.2301C98.7646 50.2301 99.4762 50.3835 100.103 50.6903C100.733 50.9929 101.23 51.4084 101.592 51.9368C101.954 52.4609 102.137 53.0554 102.142 53.7202C102.137 54.4233 101.937 55.0455 101.541 55.5866C101.145 56.1278 100.629 56.4773 99.994 56.6349V56.7116C100.484 56.7969 100.925 56.9972 101.317 57.3125C101.713 57.6236 102.029 58.0135 102.263 58.4822C102.502 58.9467 102.623 59.456 102.627 60.0099C102.623 60.7173 102.423 61.348 102.027 61.902C101.63 62.456 101.081 62.8906 100.377 63.206C99.6786 63.5213 98.8754 63.679 97.9677 63.679ZM97.9677 62.0618C98.5089 62.0618 98.9776 61.9723 99.3739 61.7933C99.7702 61.6101 100.077 61.3565 100.294 61.0327C100.512 60.7045 100.623 60.321 100.627 59.8821C100.623 59.4261 100.503 59.0234 100.269 58.674C100.039 58.3246 99.7255 58.0497 99.3292 57.8494C98.9329 57.6491 98.479 57.549 97.9677 57.549C97.4521 57.549 96.994 57.6491 96.5934 57.8494C96.1928 58.0497 95.8775 58.3246 95.6474 58.674C95.4173 59.0234 95.3043 59.4261 95.3086 59.8821C95.3043 60.321 95.4087 60.7045 95.6218 61.0327C95.8391 61.3565 96.1481 61.6101 96.5487 61.7933C96.9492 61.9723 97.4222 62.0618 97.9677 62.0618ZM97.9677 55.9702C98.4023 55.9702 98.788 55.8828 99.1246 55.7081C99.4613 55.5334 99.7255 55.2905 99.9173 54.9794C100.113 54.6683 100.213 54.304 100.218 53.8864C100.213 53.4773 100.115 53.1193 99.9237 52.8125C99.7362 52.5057 99.4741 52.2692 99.1374 52.103C98.8008 51.9325 98.4109 51.8473 97.9677 51.8473C97.516 51.8473 97.1197 51.9325 96.7788 52.103C96.4421 52.2692 96.18 52.5057 95.9925 52.8125C95.805 53.1193 95.7134 53.4773 95.7177 53.8864C95.7134 54.304 95.8072 54.6683 95.9989 54.9794C96.1907 55.2905 96.4549 55.5334 96.7915 55.7081C97.1325 55.8828 97.5245 55.9702 97.9677 55.9702ZM109.238 63.679C108.437 63.679 107.717 63.5256 107.078 63.2188C106.443 62.9077 105.936 62.4815 105.557 61.9403C105.177 61.3991 104.975 60.7812 104.949 60.0866H106.867C106.914 60.6491 107.163 61.1115 107.615 61.4737C108.067 61.8359 108.608 62.017 109.238 62.017C109.741 62.017 110.187 61.902 110.574 61.6719C110.966 61.4375 111.273 61.1158 111.495 60.7067C111.721 60.2976 111.834 59.831 111.834 59.3068C111.834 58.7741 111.719 58.299 111.488 57.8814C111.258 57.4638 110.941 57.1357 110.536 56.897C110.135 56.6584 109.675 56.5369 109.155 56.5327C108.759 56.5327 108.361 56.6009 107.96 56.7372C107.559 56.8736 107.236 57.0526 106.988 57.2741L105.18 57.0057L105.915 50.4091H113.112V52.103H107.557L107.142 55.7656H107.219C107.474 55.5185 107.813 55.3118 108.235 55.1456C108.661 54.9794 109.117 54.8963 109.603 54.8963C110.4 54.8963 111.109 55.0859 111.731 55.4652C112.358 55.8445 112.85 56.3622 113.208 57.0185C113.57 57.6705 113.749 58.4205 113.745 59.2685C113.749 60.1165 113.557 60.8729 113.17 61.5376C112.786 62.2024 112.253 62.7266 111.572 63.1101C110.894 63.4893 110.116 63.679 109.238 63.679ZM120.65 63.679C120.066 63.6705 119.491 63.5639 118.924 63.3594C118.362 63.1548 117.85 62.8139 117.39 62.3366C116.93 61.8594 116.561 61.218 116.284 60.4126C116.011 59.6072 115.875 58.6016 115.875 57.3956C115.875 56.2536 115.988 55.2393 116.214 54.353C116.444 53.4666 116.774 52.7188 117.205 52.1094C117.635 51.4957 118.155 51.0291 118.764 50.7095C119.374 50.3899 120.058 50.2301 120.816 50.2301C121.596 50.2301 122.288 50.3835 122.893 50.6903C123.499 50.9972 123.989 51.4212 124.364 51.9624C124.743 52.5036 124.984 53.1193 125.086 53.8097H123.136C123.004 53.2642 122.742 52.8189 122.35 52.4737C121.958 52.1286 121.447 51.956 120.816 51.956C119.857 51.956 119.109 52.3736 118.572 53.2088C118.04 54.044 117.771 55.2053 117.767 56.6925H117.863C118.089 56.3217 118.366 56.0064 118.694 55.7464C119.026 55.4822 119.397 55.2798 119.806 55.1392C120.219 54.9943 120.654 54.9219 121.11 54.9219C121.869 54.9219 122.555 55.1072 123.168 55.478C123.786 55.8445 124.278 56.3516 124.645 56.9993C125.011 57.647 125.195 58.3885 125.195 59.2237C125.195 60.0589 125.005 60.8153 124.626 61.4929C124.251 62.1705 123.722 62.7074 123.04 63.1037C122.359 63.4957 121.562 63.6875 120.65 63.679ZM120.643 62.017C121.146 62.017 121.596 61.8935 121.992 61.6463C122.388 61.3991 122.702 61.0668 122.932 60.6491C123.162 60.2315 123.277 59.7649 123.277 59.2493C123.277 58.7464 123.164 58.2884 122.938 57.875C122.717 57.4616 122.41 57.1335 122.018 56.8906C121.63 56.6477 121.187 56.5263 120.688 56.5263C120.309 56.5263 119.957 56.5987 119.634 56.7436C119.314 56.8885 119.033 57.0888 118.79 57.3445C118.547 57.6001 118.355 57.8942 118.214 58.2266C118.078 58.5547 118.01 58.902 118.01 59.2685C118.01 59.7585 118.123 60.2124 118.349 60.63C118.579 61.0476 118.892 61.3842 119.288 61.6399C119.689 61.8913 120.141 62.017 120.643 62.017Z" fill="#2E263D" fill-opacity="0.9"/>
<path d="M133.91 59.91L138.5 55.33L143.09 59.91L144.5 58.5L138.5 52.5L132.5 58.5L133.91 59.91Z" fill="#56CA00"/>
<path d="M155.464 50.5909V61.5H154.143V51.9759H154.08L151.416 53.7443V52.402L154.143 50.5909H155.464ZM162.096 61.6491C161.365 61.6491 160.718 61.5195 160.157 61.2603C159.6 60.9975 159.165 60.6371 158.852 60.179C158.54 59.7173 158.385 59.1918 158.389 58.6023C158.385 58.1406 158.476 57.7145 158.661 57.3239C158.845 56.9297 159.097 56.6012 159.417 56.3384C159.74 56.0721 160.1 55.9034 160.498 55.8324V55.7685C159.976 55.6335 159.561 55.3406 159.252 54.8896C158.943 54.435 158.79 53.9183 158.794 53.3395C158.79 52.7855 158.93 52.2901 159.214 51.8533C159.499 51.4165 159.889 51.0721 160.386 50.82C160.887 50.5678 161.457 50.4418 162.096 50.4418C162.728 50.4418 163.293 50.5678 163.79 50.82C164.287 51.0721 164.678 51.4165 164.962 51.8533C165.25 52.2901 165.395 52.7855 165.399 53.3395C165.395 53.9183 165.237 54.435 164.925 54.8896C164.616 55.3406 164.206 55.6335 163.694 55.7685V55.8324C164.088 55.9034 164.444 56.0721 164.76 56.3384C165.076 56.6012 165.328 56.9297 165.516 57.3239C165.704 57.7145 165.8 58.1406 165.804 58.6023C165.8 59.1918 165.64 59.7173 165.324 60.179C165.012 60.6371 164.577 60.9975 164.019 61.2603C163.465 61.5195 162.824 61.6491 162.096 61.6491ZM162.096 60.4773C162.59 60.4773 163.016 60.3974 163.375 60.2376C163.733 60.0778 164.01 59.8523 164.206 59.5611C164.401 59.2699 164.5 58.929 164.504 58.5384C164.5 58.1264 164.394 57.7624 164.184 57.4464C163.975 57.1303 163.689 56.8817 163.327 56.7006C162.968 56.5195 162.558 56.429 162.096 56.429C161.631 56.429 161.216 56.5195 160.85 56.7006C160.488 56.8817 160.202 57.1303 159.992 57.4464C159.786 57.7624 159.685 58.1264 159.689 58.5384C159.685 58.929 159.779 59.2699 159.971 59.5611C160.166 59.8523 160.445 60.0778 160.807 60.2376C161.169 60.3974 161.599 60.4773 162.096 60.4773ZM162.096 55.2997C162.487 55.2997 162.833 55.2216 163.135 55.0653C163.44 54.9091 163.68 54.6907 163.854 54.4102C164.028 54.1296 164.117 53.8011 164.12 53.4247C164.117 53.0554 164.03 52.734 163.859 52.4606C163.689 52.1836 163.453 51.9705 163.151 51.8214C162.849 51.6687 162.498 51.5923 162.096 51.5923C161.688 51.5923 161.331 51.6687 161.026 51.8214C160.72 51.9705 160.484 52.1836 160.317 52.4606C160.15 52.734 160.069 53.0554 160.072 53.4247C160.069 53.8011 160.152 54.1296 160.322 54.4102C160.496 54.6907 160.736 54.9091 161.042 55.0653C161.347 55.2216 161.699 55.2997 162.096 55.2997ZM168.446 61.5852C168.183 61.5852 167.957 61.4911 167.769 61.3029C167.581 61.1147 167.487 60.8892 167.487 60.6264C167.487 60.3636 167.581 60.1381 167.769 59.9499C167.957 59.7617 168.183 59.6676 168.446 59.6676C168.708 59.6676 168.934 59.7617 169.122 59.9499C169.31 60.1381 169.404 60.3636 169.404 60.6264C169.404 60.8004 169.36 60.9602 169.271 61.1058C169.186 61.2514 169.071 61.3686 168.925 61.4574C168.783 61.5426 168.623 61.5852 168.446 61.5852ZM171.639 61.5V60.5412L175.24 56.5994C175.662 56.1378 176.01 55.7365 176.284 55.3956C176.557 55.0511 176.76 54.728 176.891 54.4261C177.026 54.1207 177.094 53.8011 177.094 53.4673C177.094 53.0838 177.001 52.7518 176.817 52.4712C176.635 52.1907 176.387 51.9741 176.071 51.8214C175.755 51.6687 175.4 51.5923 175.006 51.5923C174.586 51.5923 174.221 51.6793 173.908 51.8533C173.599 52.0238 173.36 52.2635 173.189 52.5724C173.022 52.8814 172.939 53.2436 172.939 53.6591H171.682C171.682 53.0199 171.829 52.4588 172.124 51.9759C172.419 51.4929 172.82 51.1165 173.328 50.8466C173.839 50.5767 174.412 50.4418 175.048 50.4418C175.687 50.4418 176.254 50.5767 176.747 50.8466C177.241 51.1165 177.628 51.4805 177.909 51.9386C178.189 52.3967 178.329 52.9062 178.329 53.4673C178.329 53.8686 178.257 54.261 178.111 54.6445C177.969 55.0245 177.72 55.4489 177.365 55.9176C177.014 56.3828 176.525 56.951 175.9 57.6222L173.45 60.2429V60.3281H178.521V61.5H171.639ZM186.282 59.4545V58.8793C186.282 58.4815 186.364 58.1175 186.527 57.7873C186.694 57.4535 186.936 57.1871 187.252 56.9883C187.571 56.7859 187.958 56.6847 188.413 56.6847C188.874 56.6847 189.262 56.7859 189.574 56.9883C189.887 57.1871 190.123 57.4535 190.282 57.7873C190.442 58.1175 190.522 58.4815 190.522 58.8793V59.4545C190.522 59.8523 190.441 60.218 190.277 60.5518C190.117 60.8821 189.879 61.1484 189.563 61.3509C189.251 61.5497 188.867 61.6491 188.413 61.6491C187.951 61.6491 187.562 61.5497 187.246 61.3509C186.93 61.1484 186.691 60.8821 186.527 60.5518C186.364 60.218 186.282 59.8523 186.282 59.4545ZM187.369 58.8793V59.4545C187.369 59.7848 187.447 60.0813 187.603 60.3441C187.759 60.6033 188.029 60.733 188.413 60.733C188.786 60.733 189.048 60.6033 189.201 60.3441C189.357 60.0813 189.436 59.7848 189.436 59.4545V58.8793C189.436 58.549 189.361 58.2543 189.212 57.995C189.063 57.7322 188.796 57.6009 188.413 57.6009C188.04 57.6009 187.772 57.7322 187.608 57.995C187.449 58.2543 187.369 58.549 187.369 58.8793ZM180.849 53.2116V52.6364C180.849 52.2386 180.931 51.8746 181.094 51.5444C181.261 51.2106 181.502 50.9442 181.818 50.7454C182.138 50.543 182.525 50.4418 182.98 50.4418C183.441 50.4418 183.828 50.543 184.141 50.7454C184.453 50.9442 184.689 51.2106 184.849 51.5444C185.009 51.8746 185.089 52.2386 185.089 52.6364V53.2116C185.089 53.6094 185.007 53.9751 184.844 54.3089C184.684 54.6392 184.446 54.9055 184.13 55.108C183.818 55.3068 183.434 55.4062 182.98 55.4062C182.518 55.4062 182.129 55.3068 181.813 55.108C181.497 54.9055 181.257 54.6392 181.094 54.3089C180.931 53.9751 180.849 53.6094 180.849 53.2116ZM181.936 52.6364V53.2116C181.936 53.5419 182.014 53.8384 182.17 54.1012C182.326 54.3604 182.596 54.4901 182.98 54.4901C183.352 54.4901 183.615 54.3604 183.768 54.1012C183.924 53.8384 184.002 53.5419 184.002 53.2116V52.6364C184.002 52.3061 183.928 52.0114 183.779 51.7521C183.629 51.4893 183.363 51.358 182.98 51.358C182.607 51.358 182.339 51.4893 182.175 51.7521C182.015 52.0114 181.936 52.3061 181.936 52.6364ZM181.254 61.5L188.754 50.5909H189.968L182.468 61.5H181.254Z" fill="#56CA00"/>
<defs>
<filter id="filter0_d_8003_4646" x="16.5" y="23.5" width="48" height="48" filterUnits="userSpaceOnUse" color-interpolation-filters="sRGB">
<feFlood flood-opacity="0" result="BackgroundImageFix"/>
<feColorMatrix in="SourceAlpha" type="matrix" values="0 0 0 0 0 0 0 0 0 0 0 0 0 0 0 0 0 0 127 0" result="hardAlpha"/>
<feOffset dy="2"/>
<feGaussianBlur stdDeviation="2"/>
<feColorMatrix type="matrix" values="0 0 0 0 0.180392 0 0 0 0 0.14902 0 0 0 0 0.239216 0 0 0 0.16 0"/>
<feBlend mode="normal" in2="BackgroundImageFix" result="effect1_dropShadow_8003_4646"/>
<feBlend mode="normal" in="SourceGraphic" in2="effect1_dropShadow_8003_4646" result="shape"/>
</filter>
</defs>
</svg>
