<svg width="189" height="232" viewBox="0 0 189 232" fill="none" xmlns="http://www.w3.org/2000/svg">
<g filter="url(#filter0_d_8003_4370)">
<path d="M10 12C10 8.68629 12.6863 6 16 6H172.667C175.98 6 178.667 8.68629 178.667 12V212C178.667 215.314 175.98 218 172.667 218H16C12.6863 218 10 215.314 10 212V12Z" fill="white" shape-rendering="crispEdges"/>
<path d="M31.3125 50.5909V48.4602L38.8551 36.5455H40.5341V39.6818H39.4688L34.0739 48.2216V48.358H44.4119V50.5909H31.3125ZM39.5881 54V49.9432L39.6051 48.9716V36.5455H42.1023V54H39.5881ZM47.3821 54V52.0909L53.2884 45.9716C53.919 45.3068 54.4389 44.7244 54.848 44.2244C55.2628 43.7187 55.5724 43.2386 55.777 42.7841C55.9815 42.3295 56.0838 41.8466 56.0838 41.3352C56.0838 40.7557 55.9474 40.2557 55.6747 39.8352C55.402 39.4091 55.0298 39.0824 54.5582 38.8551C54.0866 38.6222 53.5554 38.5057 52.9645 38.5057C52.3395 38.5057 51.794 38.6335 51.3281 38.8892C50.8622 39.1449 50.5043 39.5057 50.2543 39.9716C50.0043 40.4375 49.8793 40.983 49.8793 41.608H47.3651C47.3651 40.5455 47.6094 39.6165 48.098 38.821C48.5866 38.0256 49.2571 37.4091 50.1094 36.9716C50.9616 36.5284 51.9304 36.3068 53.0156 36.3068C54.1122 36.3068 55.0781 36.5256 55.9134 36.9631C56.7543 37.3949 57.4105 37.9858 57.8821 38.7358C58.3537 39.4801 58.5895 40.321 58.5895 41.2585C58.5895 41.9062 58.4673 42.5398 58.223 43.1591C57.9844 43.7784 57.5668 44.4687 56.9702 45.2301C56.3736 45.9858 55.544 46.9034 54.4815 47.983L51.0128 51.6136V51.7415H58.8707V54H47.3821ZM63.8139 54.1619C63.348 54.1619 62.9474 53.9972 62.6122 53.6676C62.277 53.3324 62.1094 52.929 62.1094 52.4574C62.1094 51.9915 62.277 51.5937 62.6122 51.2642C62.9474 50.929 63.348 50.7614 63.8139 50.7614C64.2798 50.7614 64.6804 50.929 65.0156 51.2642C65.3509 51.5937 65.5185 51.9915 65.5185 52.4574C65.5185 52.7699 65.4389 53.0568 65.2798 53.3182C65.1264 53.5739 64.9219 53.7784 64.6662 53.9318C64.4105 54.0852 64.1264 54.1619 63.8139 54.1619ZM74.3778 54.2386C73.3097 54.2386 72.3494 54.0341 71.4972 53.625C70.6506 53.2102 69.9744 52.642 69.4688 51.9205C68.9631 51.1989 68.6932 50.375 68.6591 49.4489H71.2159C71.2784 50.1989 71.6108 50.8153 72.2131 51.2983C72.8153 51.7812 73.5369 52.0227 74.3778 52.0227C75.0483 52.0227 75.642 51.8693 76.1591 51.5625C76.6818 51.25 77.0909 50.821 77.3864 50.2756C77.6875 49.7301 77.8381 49.108 77.8381 48.4091C77.8381 47.6989 77.6847 47.0653 77.3778 46.5085C77.071 45.9517 76.6477 45.5142 76.108 45.196C75.5739 44.8778 74.9602 44.7159 74.267 44.7102C73.7386 44.7102 73.2074 44.8011 72.6733 44.983C72.1392 45.1648 71.7074 45.4034 71.3778 45.6989L68.9659 45.3409L69.946 36.5455H79.5426V38.804H72.1364L71.5824 43.6875H71.6847C72.0256 43.358 72.4773 43.0824 73.0398 42.8608C73.608 42.6392 74.2159 42.5284 74.8636 42.5284C75.9261 42.5284 76.8722 42.7812 77.7017 43.2869C78.5369 43.7926 79.1932 44.483 79.6705 45.358C80.1534 46.2273 80.392 47.2273 80.3864 48.358C80.392 49.4886 80.1364 50.4972 79.6193 51.3835C79.108 52.2699 78.3977 52.9687 77.4886 53.4801C76.5852 53.9858 75.5483 54.2386 74.3778 54.2386ZM85.8771 49.5597L85.8601 46.4489H86.3033L91.5192 40.9091H94.5703L88.6214 47.2159H88.2209L85.8771 49.5597ZM83.5334 54V36.5455H86.0817V54H83.5334ZM91.8004 54L87.1129 47.7784L88.8686 45.9972L94.9283 54H91.8004Z" fill="#2E263D" fill-opacity="0.9"/>
<path opacity="0.1" d="M42.9627 139.47C38.9618 149.536 33.5207 156.91 30 158.676V160H158.667V89.1391C157.386 93.1126 152.137 98.0133 141.383 85.8279C127.94 70.5961 128.42 87.8146 123.619 107.682C118.818 127.55 112.577 152.053 101.535 116.291C90.4925 80.5299 82.8109 107.02 80.8905 122.914C78.9701 138.808 68.408 146.093 62.1667 136.159C55.9254 126.225 47.945 126.935 42.9627 139.47Z" fill="url(#paint0_linear_8003_4370)"/>
<path d="M30 158.676C33.5207 156.909 39.4419 148.212 42.9627 139.47C47.9959 126.973 55.9254 126.225 62.1667 136.159C68.408 146.093 78.9701 138.808 80.8905 122.914C82.8109 107.02 90.4925 80.5299 101.535 116.291C112.577 152.053 118.818 127.55 123.619 107.682C128.42 87.8146 127.94 70.5961 141.383 85.8279C152.137 98.0133 157.386 93.1126 158.667 89.1391" stroke="#56CA00" stroke-width="3" stroke-linecap="round"/>
<path d="M48.9465 182.508V181.091H57.3893V182.508H53.9855V192H52.3449V182.508H48.9465ZM61.387 192.165C60.6199 192.165 59.9506 191.989 59.3788 191.638C58.8071 191.286 58.3632 190.794 58.0472 190.162C57.7311 189.53 57.5731 188.792 57.5731 187.946C57.5731 187.098 57.7311 186.355 58.0472 185.72C58.3632 185.084 58.8071 184.591 59.3788 184.239C59.9506 183.887 60.6199 183.712 61.387 183.712C62.154 183.712 62.8234 183.887 63.3952 184.239C63.9669 184.591 64.4108 185.084 64.7268 185.72C65.0429 186.355 65.2009 187.098 65.2009 187.946C65.2009 188.792 65.0429 189.53 64.7268 190.162C64.4108 190.794 63.9669 191.286 63.3952 191.638C62.8234 191.989 62.154 192.165 61.387 192.165ZM61.3923 190.828C61.8895 190.828 62.3014 190.697 62.6281 190.434C62.9548 190.171 63.1963 189.821 63.3525 189.385C63.5124 188.948 63.5923 188.467 63.5923 187.941C63.5923 187.419 63.5124 186.94 63.3525 186.503C63.1963 186.062 62.9548 185.709 62.6281 185.443C62.3014 185.176 61.8895 185.043 61.3923 185.043C60.8916 185.043 60.4761 185.176 60.1459 185.443C59.8192 185.709 59.5759 186.062 59.4161 186.503C59.2599 186.94 59.1817 187.419 59.1817 187.941C59.1817 188.467 59.2599 188.948 59.4161 189.385C59.5759 189.821 59.8192 190.171 60.1459 190.434C60.4761 190.697 60.8916 190.828 61.3923 190.828ZM70.798 183.818V185.097H66.3288V183.818H70.798ZM67.5274 181.858H69.12V189.598C69.12 189.907 69.1662 190.139 69.2585 190.295C69.3509 190.448 69.4698 190.553 69.6154 190.61C69.7646 190.663 69.9261 190.69 70.1002 190.69C70.228 190.69 70.3399 190.681 70.4357 190.663C70.5316 190.645 70.6062 190.631 70.6595 190.62L70.9471 191.936C70.8548 191.972 70.7234 192.007 70.5529 192.043C70.3825 192.082 70.1694 192.103 69.9137 192.107C69.4947 192.114 69.1041 192.039 68.7418 191.883C68.3796 191.727 68.0867 191.485 67.8629 191.158C67.6392 190.832 67.5274 190.422 67.5274 189.928V181.858ZM74.9408 192.181C74.4223 192.181 73.9536 192.085 73.5345 191.893C73.1155 191.698 72.7835 191.416 72.5385 191.047C72.297 190.677 72.1762 190.224 72.1762 189.688C72.1762 189.227 72.265 188.847 72.4426 188.548C72.6201 188.25 72.8598 188.014 73.1617 187.84C73.4635 187.666 73.8009 187.534 74.1737 187.446C74.5466 187.357 74.9266 187.289 75.3137 187.243C75.8037 187.186 76.2014 187.14 76.5068 187.105C76.8122 187.066 77.0342 187.004 77.1727 186.918C77.3112 186.833 77.3804 186.695 77.3804 186.503V186.466C77.3804 186 77.249 185.64 76.9862 185.384C76.727 185.129 76.3399 185.001 75.825 185.001C75.2888 185.001 74.8662 185.12 74.5573 185.358C74.2519 185.592 74.0406 185.853 73.9234 186.141L72.4266 185.8C72.6041 185.303 72.8634 184.901 73.2043 184.596C73.5487 184.287 73.9447 184.063 74.3921 183.925C74.8396 183.783 75.3101 183.712 75.8037 183.712C76.1304 183.712 76.4767 183.751 76.8424 183.829C77.2117 183.903 77.5562 184.042 77.8758 184.244C78.199 184.447 78.4635 184.736 78.6695 185.113C78.8755 185.485 78.9784 185.97 78.9784 186.567V192H77.423V190.881H77.3591C77.2561 191.087 77.1017 191.29 76.8957 191.489C76.6897 191.687 76.4252 191.853 76.102 191.984C75.7789 192.115 75.3918 192.181 74.9408 192.181ZM75.287 190.903C75.7274 190.903 76.1038 190.816 76.4163 190.642C76.7323 190.468 76.972 190.24 77.1354 189.96C77.3023 189.676 77.3858 189.372 77.3858 189.049V187.994C77.3289 188.051 77.2188 188.104 77.0555 188.154C76.8957 188.2 76.7128 188.241 76.5068 188.277C76.3009 188.309 76.1002 188.339 75.9049 188.367C75.7096 188.392 75.5463 188.413 75.4149 188.431C75.1059 188.47 74.8236 188.536 74.5679 188.628C74.3158 188.721 74.1134 188.854 73.9607 189.028C73.8115 189.198 73.737 189.425 73.737 189.71C73.737 190.104 73.8826 190.402 74.1737 190.604C74.4649 190.803 74.836 190.903 75.287 190.903ZM82.6925 181.091V192H81.0998V181.091H82.6925ZM96.3155 184.537C96.2125 184.214 96.0741 183.925 95.9 183.669C95.7296 183.41 95.5254 183.19 95.2875 183.009C95.0495 182.824 94.7779 182.684 94.4725 182.588C94.1706 182.492 93.8386 182.444 93.4764 182.444C92.862 182.444 92.3081 182.602 91.8145 182.918C91.3209 183.234 90.9302 183.697 90.6426 184.308C90.3585 184.915 90.2165 185.659 90.2165 186.54C90.2165 187.424 90.3603 188.172 90.6479 188.783C90.9356 189.393 91.3297 189.857 91.8304 190.173C92.3312 190.489 92.9011 190.647 93.5403 190.647C94.1334 190.647 94.65 190.526 95.0904 190.285C95.5343 190.043 95.877 189.702 96.1184 189.262C96.3635 188.818 96.486 188.296 96.486 187.696L96.9121 187.776H93.7907V186.418H98.0787V187.659C98.0787 188.575 97.8834 189.37 97.4927 190.045C97.1057 190.716 96.5694 191.235 95.8841 191.6C95.2022 191.966 94.421 192.149 93.5403 192.149C92.5531 192.149 91.6866 191.922 90.9409 191.467C90.1987 191.013 89.6199 190.368 89.2044 189.534C88.7889 188.696 88.5812 187.701 88.5812 186.551C88.5812 185.681 88.7019 184.9 88.9434 184.207C89.1848 183.515 89.524 182.927 89.9608 182.444C90.4011 181.957 90.9178 181.586 91.5108 181.331C92.1074 181.071 92.7591 180.942 93.4657 180.942C94.0552 180.942 94.6039 181.029 95.1117 181.203C95.6231 181.377 96.0776 181.624 96.4753 181.943C96.8766 182.263 97.2086 182.643 97.4714 183.083C97.7342 183.52 97.9118 184.005 98.0041 184.537H96.3155ZM100.04 192V183.818H101.58V185.118H101.665C101.814 184.678 102.077 184.331 102.453 184.079C102.833 183.824 103.263 183.696 103.742 183.696C103.842 183.696 103.959 183.699 104.094 183.706C104.232 183.713 104.341 183.722 104.419 183.733V185.256C104.355 185.239 104.241 185.219 104.078 185.198C103.915 185.173 103.751 185.161 103.588 185.161C103.211 185.161 102.876 185.24 102.581 185.4C102.29 185.556 102.059 185.775 101.889 186.055C101.718 186.332 101.633 186.648 101.633 187.004V192H100.04ZM108.95 192.165C108.183 192.165 107.514 191.989 106.942 191.638C106.371 191.286 105.927 190.794 105.611 190.162C105.295 189.53 105.137 188.792 105.137 187.946C105.137 187.098 105.295 186.355 105.611 185.72C105.927 185.084 106.371 184.591 106.942 184.239C107.514 183.887 108.183 183.712 108.95 183.712C109.718 183.712 110.387 183.887 110.959 184.239C111.53 184.591 111.974 185.084 112.29 185.72C112.606 186.355 112.764 187.098 112.764 187.946C112.764 188.792 112.606 189.53 112.29 190.162C111.974 190.794 111.53 191.286 110.959 191.638C110.387 191.989 109.718 192.165 108.95 192.165ZM108.956 190.828C109.453 190.828 109.865 190.697 110.192 190.434C110.518 190.171 110.76 189.821 110.916 189.385C111.076 188.948 111.156 188.467 111.156 187.941C111.156 187.419 111.076 186.94 110.916 186.503C110.76 186.062 110.518 185.709 110.192 185.443C109.865 185.176 109.453 185.043 108.956 185.043C108.455 185.043 108.04 185.176 107.709 185.443C107.383 185.709 107.139 186.062 106.98 186.503C106.823 186.94 106.745 187.419 106.745 187.941C106.745 188.467 106.823 188.948 106.98 189.385C107.139 189.821 107.383 190.171 107.709 190.434C108.04 190.697 108.455 190.828 108.956 190.828ZM116.067 192L113.659 183.818H115.305L116.909 189.827H116.988L118.597 183.818H120.243L121.841 189.8H121.921L123.514 183.818H125.16L122.757 192H121.133L119.471 186.093H119.348L117.686 192H116.067ZM130.49 183.818V185.097H126.021V183.818H130.49ZM127.22 181.858H128.812V189.598C128.812 189.907 128.859 190.139 128.951 190.295C129.043 190.448 129.162 190.553 129.308 190.61C129.457 190.663 129.619 190.69 129.793 190.69C129.92 190.69 130.032 190.681 130.128 190.663C130.224 190.645 130.299 190.631 130.352 190.62L130.639 191.936C130.547 191.972 130.416 192.007 130.245 192.043C130.075 192.082 129.862 192.103 129.606 192.107C129.187 192.114 128.796 192.039 128.434 191.883C128.072 191.727 127.779 191.485 127.555 191.158C127.332 190.832 127.22 190.422 127.22 189.928V181.858ZM134.021 187.142V192H132.428V181.091H133.999V185.15H134.101C134.292 184.71 134.585 184.36 134.979 184.1C135.374 183.841 135.889 183.712 136.524 183.712C137.085 183.712 137.575 183.827 137.994 184.058C138.417 184.289 138.744 184.633 138.974 185.091C139.209 185.546 139.326 186.114 139.326 186.796V192H137.733V186.988C137.733 186.387 137.579 185.922 137.27 185.592C136.961 185.258 136.531 185.091 135.981 185.091C135.604 185.091 135.267 185.171 134.969 185.331C134.674 185.491 134.441 185.725 134.271 186.034C134.104 186.339 134.021 186.709 134.021 187.142Z" fill="#2E263D" fill-opacity="0.9"/>
</g>
<defs>
<filter id="filter0_d_8003_4370" x="0" y="0" width="188.667" height="232" filterUnits="userSpaceOnUse" color-interpolation-filters="sRGB">
<feFlood flood-opacity="0" result="BackgroundImageFix"/>
<feColorMatrix in="SourceAlpha" type="matrix" values="0 0 0 0 0 0 0 0 0 0 0 0 0 0 0 0 0 0 127 0" result="hardAlpha"/>
<feOffset dy="4"/>
<feGaussianBlur stdDeviation="5"/>
<feComposite in2="hardAlpha" operator="out"/>
<feColorMatrix type="matrix" values="0 0 0 0 0.180392 0 0 0 0 0.14902 0 0 0 0 0.239216 0 0 0 0.2 0"/>
<feBlend mode="normal" in2="BackgroundImageFix" result="effect1_dropShadow_8003_4370"/>
<feBlend mode="normal" in="SourceGraphic" in2="effect1_dropShadow_8003_4370" result="shape"/>
</filter>
<linearGradient id="paint0_linear_8003_4370" x1="94.3333" y1="80.0791" x2="94.3333" y2="159.549" gradientUnits="userSpaceOnUse">
<stop stop-color="#56CA00"/>
<stop offset="1" stop-color="#56CA00" stop-opacity="0"/>
</linearGradient>
</defs>
</svg>
