<svg width="285" height="349" viewBox="0 0 285 349" fill="none" xmlns="http://www.w3.org/2000/svg">
<g filter="url(#filter0_d_8003_4628)">
<g clip-path="url(#clip0_8003_4628)">
<path d="M10 12C10 8.68628 12.6863 6 16 6H269C272.314 6 275 8.68629 275 12V329C275 332.314 272.314 335 269 335H16C12.6863 335 10 332.314 10 329V12Z" fill="white"/>
<path d="M30.7926 35.6094V33.9091H40.924V35.6094H36.8395V47H34.8707V35.6094H30.7926ZM45.7212 47.1982C44.8008 47.1982 43.9975 46.9872 43.3114 46.5653C42.6254 46.1435 42.0927 45.5533 41.7134 44.7947C41.3342 44.0362 41.1445 43.1499 41.1445 42.1357C41.1445 41.1172 41.3342 40.2266 41.7134 39.4638C42.0927 38.701 42.6254 38.1087 43.3114 37.6868C43.9975 37.2649 44.8008 37.054 45.7212 37.054C46.6417 37.054 47.445 37.2649 48.131 37.6868C48.8171 38.1087 49.3498 38.701 49.729 39.4638C50.1083 40.2266 50.2979 41.1172 50.2979 42.1357C50.2979 43.1499 50.1083 44.0362 49.729 44.7947C49.3498 45.5533 48.8171 46.1435 48.131 46.5653C47.445 46.9872 46.6417 47.1982 45.7212 47.1982ZM45.7276 45.5938C46.3242 45.5938 46.8185 45.4361 47.2106 45.1207C47.6026 44.8054 47.8924 44.3857 48.0799 43.8615C48.2717 43.3374 48.3675 42.7599 48.3675 42.1293C48.3675 41.5028 48.2717 40.9276 48.0799 40.4034C47.8924 39.875 47.6026 39.451 47.2106 39.1314C46.8185 38.8118 46.3242 38.652 45.7276 38.652C45.1268 38.652 44.6282 38.8118 44.2319 39.1314C43.8398 39.451 43.5479 39.875 43.3562 40.4034C43.1687 40.9276 43.0749 41.5028 43.0749 42.1293C43.0749 42.7599 43.1687 43.3374 43.3562 43.8615C43.5479 44.3857 43.8398 44.8054 44.2319 45.1207C44.6282 45.4361 45.1268 45.5938 45.7276 45.5938ZM57.0144 37.1818V38.7159H51.6515V37.1818H57.0144ZM53.0897 34.8295H55.0009V44.1172C55.0009 44.4879 55.0563 44.767 55.1671 44.9545C55.2779 45.1378 55.4206 45.2635 55.5953 45.3317C55.7743 45.3956 55.9682 45.4276 56.177 45.4276C56.3304 45.4276 56.4647 45.4169 56.5797 45.3956C56.6948 45.3743 56.7843 45.3572 56.8482 45.3445L57.1934 46.9233C57.0826 46.9659 56.9249 47.0085 56.7203 47.0511C56.5158 47.098 56.2601 47.1236 55.9533 47.1278C55.4505 47.1364 54.9817 47.0469 54.5471 46.8594C54.1124 46.6719 53.7608 46.3821 53.4924 45.9901C53.2239 45.598 53.0897 45.1058 53.0897 44.5135V34.8295ZM61.9858 47.2173C61.3636 47.2173 60.8011 47.1023 60.2983 46.8722C59.7955 46.6378 59.397 46.299 59.103 45.8558C58.8132 45.4126 58.6683 44.8693 58.6683 44.2259C58.6683 43.6719 58.7749 43.2159 58.9879 42.858C59.201 42.5 59.4886 42.2166 59.8509 42.0078C60.2131 41.799 60.6179 41.6413 61.0653 41.5348C61.5128 41.4283 61.9688 41.3473 62.4332 41.2919C63.0213 41.2237 63.4986 41.1683 63.8651 41.1257C64.2315 41.0788 64.4979 41.0043 64.6641 40.902C64.8303 40.7997 64.9134 40.6335 64.9134 40.4034V40.3587C64.9134 39.8004 64.7557 39.3679 64.4403 39.0611C64.1293 38.7543 63.6648 38.6009 63.0469 38.6009C62.4034 38.6009 61.8963 38.7436 61.5256 39.0291C61.1591 39.3104 60.9055 39.6236 60.7649 39.9688L58.9688 39.5597C59.1818 38.9631 59.4929 38.4815 59.902 38.1151C60.3153 37.7443 60.7905 37.4759 61.3274 37.3097C61.8643 37.1392 62.429 37.054 63.0213 37.054C63.4134 37.054 63.8288 37.1009 64.2678 37.1946C64.7109 37.2841 65.1243 37.4503 65.5078 37.6932C65.8956 37.9361 66.2131 38.2834 66.4602 38.7351C66.7074 39.1825 66.831 39.7642 66.831 40.4801V47H64.9645V45.6577H64.8878C64.7642 45.9048 64.5788 46.1477 64.3317 46.3864C64.0845 46.625 63.767 46.8232 63.3793 46.9808C62.9915 47.1385 62.527 47.2173 61.9858 47.2173ZM62.4013 45.6832C62.9297 45.6832 63.3814 45.5788 63.7564 45.37C64.1357 45.1612 64.4233 44.8885 64.6193 44.5518C64.8196 44.2109 64.9197 43.8466 64.9197 43.4588V42.1932C64.8516 42.2614 64.7195 42.3253 64.5234 42.3849C64.3317 42.4403 64.1122 42.4893 63.8651 42.532C63.6179 42.5703 63.3771 42.6065 63.1428 42.6406C62.9084 42.6705 62.7124 42.696 62.5547 42.7173C62.1839 42.7642 61.8452 42.843 61.5384 42.9538C61.2358 43.0646 60.9929 43.2244 60.8097 43.4332C60.6307 43.6378 60.5412 43.9105 60.5412 44.2514C60.5412 44.7244 60.7159 45.0824 61.0653 45.3253C61.4148 45.5639 61.8601 45.6832 62.4013 45.6832ZM71.2878 33.9091V47H69.3766V33.9091H71.2878ZM78.7761 47V33.9091H83.4423C84.4608 33.9091 85.3045 34.0945 85.9735 34.4652C86.6426 34.8359 87.1433 35.343 87.4757 35.9865C87.8081 36.6257 87.9743 37.3459 87.9743 38.147C87.9743 38.9524 87.8059 39.6768 87.4693 40.3203C87.1369 40.9595 86.6341 41.4666 85.9608 41.8416C85.2917 42.2124 84.4501 42.3977 83.4359 42.3977H80.2271V40.723H83.2569C83.9004 40.723 84.4224 40.6122 84.823 40.3906C85.2235 40.1648 85.5176 39.858 85.7051 39.4702C85.8926 39.0824 85.9863 38.6413 85.9863 38.147C85.9863 37.6527 85.8926 37.2138 85.7051 36.8303C85.5176 36.4467 85.2214 36.1463 84.8166 35.929C84.416 35.7116 83.8876 35.603 83.2314 35.603H80.7512V47H78.7761ZM90.1364 47V37.1818H91.9837V38.7415H92.0859C92.2649 38.2131 92.5803 37.7976 93.032 37.495C93.4879 37.1882 94.0036 37.0348 94.5788 37.0348C94.6982 37.0348 94.8388 37.0391 95.0007 37.0476C95.1669 37.0561 95.2969 37.0668 95.3906 37.0795V38.9077C95.3139 38.8864 95.1776 38.8629 94.9815 38.8374C94.7855 38.8075 94.5895 38.7926 94.3935 38.7926C93.9418 38.7926 93.5391 38.8885 93.1854 39.0803C92.8359 39.2678 92.5589 39.5298 92.3544 39.8665C92.1499 40.1989 92.0476 40.5781 92.0476 41.0043V47H90.1364ZM100.829 47.1982C99.9082 47.1982 99.1049 46.9872 98.4189 46.5653C97.7328 46.1435 97.2001 45.5533 96.8208 44.7947C96.4416 44.0362 96.252 43.1499 96.252 42.1357C96.252 41.1172 96.4416 40.2266 96.8208 39.4638C97.2001 38.701 97.7328 38.1087 98.4189 37.6868C99.1049 37.2649 99.9082 37.054 100.829 37.054C101.749 37.054 102.552 37.2649 103.238 37.6868C103.925 38.1087 104.457 38.701 104.836 39.4638C105.216 40.2266 105.405 41.1172 105.405 42.1357C105.405 43.1499 105.216 44.0362 104.836 44.7947C104.457 45.5533 103.925 46.1435 103.238 46.5653C102.552 46.9872 101.749 47.1982 100.829 47.1982ZM100.835 45.5938C101.432 45.5938 101.926 45.4361 102.318 45.1207C102.71 44.8054 103 44.3857 103.187 43.8615C103.379 43.3374 103.475 42.7599 103.475 42.1293C103.475 41.5028 103.379 40.9276 103.187 40.4034C103 39.875 102.71 39.451 102.318 39.1314C101.926 38.8118 101.432 38.652 100.835 38.652C100.234 38.652 99.7356 38.8118 99.3393 39.1314C98.9473 39.451 98.6554 39.875 98.4636 40.4034C98.2761 40.9276 98.1824 41.5028 98.1824 42.1293C98.1824 42.7599 98.2761 43.3374 98.4636 43.8615C98.6554 44.3857 98.9473 44.8054 99.3393 45.1207C99.7356 45.4361 100.234 45.5938 100.835 45.5938ZM112.211 37.1818V38.7159H106.663V37.1818H112.211ZM108.184 47V36.044C108.184 35.4304 108.319 34.9212 108.587 34.5163C108.855 34.1072 109.211 33.8026 109.654 33.6023C110.098 33.3977 110.579 33.2955 111.099 33.2955C111.483 33.2955 111.811 33.3274 112.083 33.3913C112.356 33.451 112.559 33.5064 112.691 33.5575L112.243 35.1044C112.154 35.0788 112.039 35.049 111.898 35.0149C111.757 34.9766 111.587 34.9574 111.387 34.9574C110.922 34.9574 110.59 35.0724 110.39 35.3026C110.194 35.5327 110.096 35.8651 110.096 36.2997V47H108.184ZM114.183 47V37.1818H116.094V47H114.183ZM115.148 35.6669C114.816 35.6669 114.531 35.5561 114.292 35.3345C114.058 35.1087 113.94 34.8402 113.94 34.5291C113.94 34.2138 114.058 33.9453 114.292 33.7237C114.531 33.4979 114.816 33.3849 115.148 33.3849C115.481 33.3849 115.764 33.4979 115.999 33.7237C116.237 33.9453 116.357 34.2138 116.357 34.5291C116.357 34.8402 116.237 35.1087 115.999 35.3345C115.764 35.5561 115.481 35.6669 115.148 35.6669ZM123.249 37.1818V38.7159H117.886V37.1818H123.249ZM119.324 34.8295H121.235V44.1172C121.235 44.4879 121.291 44.767 121.401 44.9545C121.512 45.1378 121.655 45.2635 121.83 45.3317C122.009 45.3956 122.203 45.4276 122.411 45.4276C122.565 45.4276 122.699 45.4169 122.814 45.3956C122.929 45.3743 123.019 45.3572 123.083 45.3445L123.428 46.9233C123.317 46.9659 123.159 47.0085 122.955 47.0511C122.75 47.098 122.494 47.1236 122.188 47.1278C121.685 47.1364 121.216 47.0469 120.781 46.8594C120.347 46.6719 119.995 46.3821 119.727 45.9901C119.458 45.598 119.324 45.1058 119.324 44.5135V34.8295Z" fill="#2E263D" fill-opacity="0.9"/>
<path d="M243 29C242.175 29 241.5 29.675 241.5 30.5C241.5 31.325 242.175 32 243 32C243.825 32 244.5 31.325 244.5 30.5C244.5 29.675 243.825 29 243 29ZM243 44C242.175 44 241.5 44.675 241.5 45.5C241.5 46.325 242.175 47 243 47C243.825 47 244.5 46.325 244.5 45.5C244.5 44.675 243.825 44 243 44ZM243 36.5C242.175 36.5 241.5 37.175 241.5 38C241.5 38.825 242.175 39.5 243 39.5C243.825 39.5 244.5 38.825 244.5 38C244.5 37.175 243.825 36.5 243 36.5Z" fill="#2E263D" fill-opacity="0.9"/>
<path d="M239.621 209.287C238.889 184.881 228.684 161.718 211.168 144.706C193.653 127.694 170.202 118.169 145.784 118.149C121.367 118.128 97.9007 127.615 80.357 144.598C62.8132 161.581 52.5701 184.727 51.7977 209.133L72.4578 209.787C73.0603 190.75 81.0498 172.697 94.734 159.45C108.418 146.203 126.722 138.803 145.767 138.819C164.813 138.835 183.105 146.264 196.767 159.534C210.429 172.803 218.389 190.87 218.96 209.907L239.621 209.287Z" fill="#F0F2F8"/>
<path d="M204.397 151.829C196.69 144.307 187.54 138.341 177.47 134.27C167.4 130.2 156.607 128.104 145.707 128.104C134.807 128.104 124.014 130.2 113.944 134.27C103.874 138.341 94.7244 144.307 87.0171 151.829C79.3098 159.35 73.1961 168.28 69.025 178.107C64.8538 187.935 62.707 198.467 62.707 209.104" stroke="#8C57FF" stroke-width="10" stroke-dasharray="6 6"/>
<path d="M120.966 200.104V198.673L125.396 194.083C125.869 193.585 126.259 193.148 126.566 192.773C126.877 192.394 127.109 192.033 127.262 191.693C127.416 191.352 127.493 190.989 127.493 190.606C127.493 190.171 127.39 189.796 127.186 189.481C126.981 189.161 126.702 188.916 126.348 188.746C125.995 188.571 125.596 188.484 125.153 188.484C124.684 188.484 124.275 188.58 123.926 188.771C123.576 188.963 123.308 189.234 123.12 189.583C122.933 189.933 122.839 190.342 122.839 190.81H120.953C120.953 190.014 121.137 189.317 121.503 188.72C121.87 188.124 122.373 187.661 123.012 187.333C123.651 187.001 124.377 186.835 125.191 186.835C126.014 186.835 126.738 186.999 127.365 187.327C127.995 187.651 128.488 188.094 128.841 188.656C129.195 189.215 129.372 189.845 129.372 190.548C129.372 191.034 129.28 191.509 129.097 191.974C128.918 192.438 128.605 192.956 128.157 193.527C127.71 194.094 127.088 194.782 126.291 195.592L123.689 198.315V198.411H129.583V200.104H120.966ZM136.429 200.283C135.512 200.283 134.703 200.126 134 199.81C133.301 199.495 132.753 199.06 132.357 198.506C131.961 197.953 131.765 197.322 131.769 196.614C131.765 196.06 131.877 195.551 132.108 195.087C132.342 194.618 132.659 194.228 133.06 193.917C133.461 193.602 133.908 193.401 134.402 193.316V193.239C133.75 193.082 133.228 192.732 132.836 192.191C132.444 191.65 132.25 191.028 132.255 190.325C132.25 189.656 132.427 189.059 132.785 188.535C133.147 188.006 133.644 187.591 134.275 187.288C134.905 186.986 135.623 186.835 136.429 186.835C137.225 186.835 137.937 186.988 138.564 187.295C139.194 187.597 139.691 188.013 140.053 188.541C140.415 189.065 140.598 189.66 140.603 190.325C140.598 191.028 140.398 191.65 140.002 192.191C139.605 192.732 139.09 193.082 138.455 193.239V193.316C138.945 193.401 139.386 193.602 139.778 193.917C140.174 194.228 140.49 194.618 140.724 195.087C140.963 195.551 141.084 196.06 141.088 196.614C141.084 197.322 140.884 197.953 140.488 198.506C140.091 199.06 139.542 199.495 138.838 199.81C138.14 200.126 137.336 200.283 136.429 200.283ZM136.429 198.666C136.97 198.666 137.439 198.577 137.835 198.398C138.231 198.215 138.538 197.961 138.755 197.637C138.973 197.309 139.083 196.926 139.088 196.487C139.083 196.031 138.964 195.628 138.73 195.278C138.5 194.929 138.186 194.654 137.79 194.454C137.394 194.254 136.94 194.153 136.429 194.153C135.913 194.153 135.455 194.254 135.054 194.454C134.654 194.654 134.338 194.929 134.108 195.278C133.878 195.628 133.765 196.031 133.77 196.487C133.765 196.926 133.87 197.309 134.083 197.637C134.3 197.961 134.609 198.215 135.01 198.398C135.41 198.577 135.883 198.666 136.429 198.666ZM136.429 192.575C136.863 192.575 137.249 192.487 137.586 192.313C137.922 192.138 138.186 191.895 138.378 191.584C138.574 191.273 138.674 190.908 138.679 190.491C138.674 190.082 138.576 189.724 138.385 189.417C138.197 189.11 137.935 188.874 137.598 188.707C137.262 188.537 136.872 188.452 136.429 188.452C135.977 188.452 135.581 188.537 135.24 188.707C134.903 188.874 134.641 189.11 134.453 189.417C134.266 189.724 134.174 190.082 134.179 190.491C134.174 190.908 134.268 191.273 134.46 191.584C134.652 191.895 134.916 192.138 135.252 192.313C135.593 192.487 135.985 192.575 136.429 192.575ZM144.276 200.226C143.927 200.226 143.627 200.102 143.375 199.855C143.124 199.604 142.998 199.301 142.998 198.948C142.998 198.598 143.124 198.3 143.375 198.053C143.627 197.801 143.927 197.676 144.276 197.676C144.626 197.676 144.926 197.801 145.178 198.053C145.429 198.3 145.555 198.598 145.555 198.948C145.555 199.182 145.495 199.397 145.376 199.593C145.261 199.785 145.107 199.938 144.916 200.053C144.724 200.168 144.511 200.226 144.276 200.226ZM148.089 200.104V198.673L152.519 194.083C152.992 193.585 153.382 193.148 153.689 192.773C154 192.394 154.232 192.033 154.385 191.693C154.539 191.352 154.616 190.989 154.616 190.606C154.616 190.171 154.513 189.796 154.309 189.481C154.104 189.161 153.825 188.916 153.471 188.746C153.118 188.571 152.719 188.484 152.276 188.484C151.807 188.484 151.398 188.58 151.049 188.771C150.699 188.963 150.431 189.234 150.243 189.583C150.056 189.933 149.962 190.342 149.962 190.81H148.077C148.077 190.014 148.26 189.317 148.626 188.72C148.993 188.124 149.496 187.661 150.135 187.333C150.774 187.001 151.501 186.835 152.314 186.835C153.137 186.835 153.861 186.999 154.488 187.327C155.118 187.651 155.611 188.094 155.964 188.656C156.318 189.215 156.495 189.845 156.495 190.548C156.495 191.034 156.403 191.509 156.22 191.974C156.041 192.438 155.728 192.956 155.28 193.527C154.833 194.094 154.211 194.782 153.414 195.592L150.812 198.315V198.411H156.706V200.104H148.089ZM160.912 196.774L160.899 194.441H161.231L165.143 190.286H167.432L162.97 195.016H162.67L160.912 196.774ZM159.154 200.104V187.014H161.065V200.104H159.154ZM165.354 200.104L161.839 195.438L163.155 194.102L167.7 200.104H165.354Z" fill="#2E263D" fill-opacity="0.9"/>
<path d="M98.004 266.091V277H96.683V267.476H96.6191L93.9557 269.244V267.902L96.683 266.091H98.004ZM104.636 277.149C103.904 277.149 103.258 277.02 102.697 276.76C102.139 276.498 101.704 276.137 101.392 275.679C101.079 275.217 100.925 274.692 100.928 274.102C100.925 273.641 101.015 273.214 101.2 272.824C101.385 272.43 101.637 272.101 101.956 271.838C102.28 271.572 102.64 271.403 103.038 271.332V271.268C102.516 271.134 102.1 270.841 101.791 270.39C101.482 269.935 101.33 269.418 101.333 268.839C101.33 268.286 101.47 267.79 101.754 267.353C102.038 266.917 102.429 266.572 102.926 266.32C103.427 266.068 103.997 265.942 104.636 265.942C105.268 265.942 105.833 266.068 106.33 266.32C106.827 266.572 107.217 266.917 107.502 267.353C107.789 267.79 107.935 268.286 107.938 268.839C107.935 269.418 107.777 269.935 107.464 270.39C107.155 270.841 106.745 271.134 106.234 271.268V271.332C106.628 271.403 106.983 271.572 107.299 271.838C107.615 272.101 107.867 272.43 108.056 272.824C108.244 273.214 108.34 273.641 108.343 274.102C108.34 274.692 108.18 275.217 107.864 275.679C107.551 276.137 107.116 276.498 106.559 276.76C106.005 277.02 105.364 277.149 104.636 277.149ZM104.636 275.977C105.129 275.977 105.556 275.897 105.914 275.738C106.273 275.578 106.55 275.352 106.745 275.061C106.94 274.77 107.04 274.429 107.043 274.038C107.04 273.626 106.933 273.262 106.724 272.946C106.514 272.63 106.228 272.382 105.866 272.201C105.508 272.02 105.097 271.929 104.636 271.929C104.171 271.929 103.755 272.02 103.389 272.201C103.027 272.382 102.741 272.63 102.532 272.946C102.326 273.262 102.225 273.626 102.228 274.038C102.225 274.429 102.319 274.77 102.51 275.061C102.706 275.352 102.985 275.578 103.347 275.738C103.709 275.897 104.139 275.977 104.636 275.977ZM104.636 270.8C105.026 270.8 105.373 270.722 105.674 270.565C105.98 270.409 106.22 270.191 106.394 269.91C106.568 269.63 106.656 269.301 106.66 268.925C106.656 268.555 106.569 268.234 106.399 267.961C106.228 267.684 105.992 267.471 105.69 267.321C105.389 267.169 105.037 267.092 104.636 267.092C104.227 267.092 103.871 267.169 103.565 267.321C103.26 267.471 103.024 267.684 102.857 267.961C102.69 268.234 102.608 268.555 102.612 268.925C102.608 269.301 102.692 269.63 102.862 269.91C103.036 270.191 103.276 270.409 103.581 270.565C103.886 270.722 104.238 270.8 104.636 270.8ZM111.578 274.017L111.557 272.462H111.812L115.392 268.818H116.947L113.133 272.675H113.027L111.578 274.017ZM110.406 277V266.091H111.663V277H110.406ZM115.605 277L112.409 272.952L113.304 272.078L117.203 277H115.605ZM124.041 272.078V277H122.784V268.818H123.998V270.097H124.105C124.297 269.681 124.588 269.347 124.978 269.095C125.369 268.839 125.873 268.712 126.491 268.712C127.045 268.712 127.53 268.825 127.945 269.053C128.361 269.276 128.684 269.617 128.915 270.075C129.146 270.53 129.261 271.105 129.261 271.801V277H128.004V271.886C128.004 271.244 127.837 270.743 127.503 270.384C127.17 270.022 126.711 269.841 126.129 269.841C125.728 269.841 125.369 269.928 125.053 270.102C124.741 270.276 124.494 270.53 124.313 270.864C124.132 271.197 124.041 271.602 124.041 272.078ZM134.989 277.17C134.2 277.17 133.52 276.996 132.949 276.648C132.38 276.297 131.942 275.807 131.633 275.178C131.327 274.546 131.175 273.811 131.175 272.973C131.175 272.135 131.327 271.396 131.633 270.757C131.942 270.114 132.371 269.614 132.922 269.255C133.476 268.893 134.122 268.712 134.861 268.712C135.287 268.712 135.708 268.783 136.123 268.925C136.539 269.067 136.917 269.298 137.258 269.617C137.599 269.933 137.87 270.352 138.073 270.874C138.275 271.396 138.376 272.039 138.376 272.803V273.335H132.07V272.249H137.098C137.098 271.787 137.006 271.375 136.821 271.013C136.64 270.651 136.381 270.365 136.043 270.155C135.71 269.946 135.315 269.841 134.861 269.841C134.36 269.841 133.927 269.965 133.561 270.214C133.199 270.459 132.92 270.778 132.725 271.173C132.53 271.567 132.432 271.989 132.432 272.44V273.165C132.432 273.783 132.538 274.306 132.751 274.736C132.968 275.162 133.268 275.487 133.652 275.711C134.035 275.931 134.481 276.041 134.989 276.041C135.319 276.041 135.617 275.995 135.884 275.903C136.153 275.807 136.386 275.665 136.581 275.477C136.777 275.285 136.928 275.047 137.034 274.763L138.249 275.104C138.121 275.516 137.906 275.878 137.604 276.19C137.302 276.499 136.929 276.741 136.485 276.915C136.042 277.085 135.543 277.17 134.989 277.17ZM142.142 277L139.65 268.818H140.971L142.739 275.082H142.824L144.571 268.818H145.914L147.64 275.061H147.725L149.493 268.818H150.814L148.321 277H147.086L145.296 270.714H145.168L143.378 277H142.142ZM162.49 270.651L161.361 270.97C161.29 270.782 161.185 270.599 161.047 270.422C160.912 270.24 160.727 270.091 160.493 269.974C160.259 269.857 159.958 269.798 159.593 269.798C159.092 269.798 158.675 269.914 158.341 270.145C158.011 270.372 157.846 270.661 157.846 271.013C157.846 271.325 157.959 271.572 158.186 271.753C158.414 271.934 158.769 272.085 159.252 272.206L160.466 272.504C161.198 272.682 161.743 272.953 162.102 273.319C162.46 273.681 162.64 274.148 162.64 274.72C162.64 275.189 162.505 275.608 162.235 275.977C161.968 276.347 161.596 276.638 161.116 276.851C160.637 277.064 160.079 277.17 159.444 277.17C158.609 277.17 157.918 276.989 157.371 276.627C156.825 276.265 156.478 275.736 156.333 275.04L157.526 274.741C157.64 275.182 157.854 275.512 158.17 275.732C158.49 275.952 158.907 276.062 159.422 276.062C160.008 276.062 160.473 275.938 160.818 275.69C161.166 275.437 161.34 275.136 161.34 274.784C161.34 274.5 161.24 274.262 161.042 274.07C160.843 273.875 160.537 273.729 160.125 273.634L158.762 273.314C158.012 273.136 157.462 272.861 157.11 272.488C156.762 272.112 156.588 271.641 156.588 271.077C156.588 270.615 156.718 270.207 156.977 269.852C157.24 269.496 157.597 269.218 158.048 269.015C158.503 268.813 159.017 268.712 159.593 268.712C160.402 268.712 161.038 268.889 161.5 269.244C161.965 269.599 162.295 270.068 162.49 270.651ZM166.94 277.192C166.421 277.192 165.951 277.094 165.528 276.899C165.105 276.7 164.77 276.414 164.521 276.041C164.273 275.665 164.148 275.21 164.148 274.678C164.148 274.209 164.241 273.829 164.425 273.538C164.61 273.243 164.857 273.012 165.166 272.845C165.475 272.678 165.816 272.554 166.189 272.472C166.565 272.387 166.943 272.32 167.323 272.27C167.82 272.206 168.223 272.158 168.532 272.126C168.845 272.091 169.072 272.032 169.214 271.95C169.36 271.869 169.432 271.727 169.432 271.524V271.482C169.432 270.956 169.289 270.548 169.001 270.256C168.717 269.965 168.285 269.82 167.707 269.82C167.106 269.82 166.636 269.951 166.295 270.214C165.954 270.477 165.714 270.757 165.576 271.055L164.383 270.629C164.596 270.132 164.88 269.745 165.235 269.468C165.594 269.187 165.984 268.992 166.407 268.882C166.833 268.768 167.252 268.712 167.664 268.712C167.927 268.712 168.229 268.744 168.57 268.808C168.914 268.868 169.246 268.994 169.566 269.186C169.889 269.377 170.157 269.667 170.37 270.054C170.583 270.441 170.69 270.96 170.69 271.609V277H169.432V275.892H169.369C169.283 276.07 169.141 276.26 168.942 276.462C168.744 276.664 168.479 276.837 168.149 276.979C167.818 277.121 167.415 277.192 166.94 277.192ZM167.131 276.062C167.629 276.062 168.048 275.965 168.388 275.77C168.733 275.574 168.992 275.322 169.166 275.013C169.344 274.704 169.432 274.379 169.432 274.038V272.888C169.379 272.952 169.262 273.01 169.081 273.064C168.903 273.113 168.697 273.158 168.463 273.197C168.232 273.232 168.007 273.264 167.787 273.293C167.57 273.317 167.394 273.339 167.259 273.357C166.932 273.399 166.627 273.468 166.343 273.564C166.062 273.657 165.835 273.797 165.661 273.985C165.491 274.17 165.405 274.422 165.405 274.741C165.405 275.178 165.567 275.509 165.89 275.732C166.217 275.952 166.631 276.062 167.131 276.062ZM174.241 266.091V277H172.984V266.091H174.241ZM179.974 277.17C179.186 277.17 178.506 276.996 177.934 276.648C177.366 276.297 176.927 275.807 176.618 275.178C176.313 274.546 176.16 273.811 176.16 272.973C176.16 272.135 176.313 271.396 176.618 270.757C176.927 270.114 177.357 269.614 177.907 269.255C178.461 268.893 179.108 268.712 179.846 268.712C180.272 268.712 180.693 268.783 181.109 268.925C181.524 269.067 181.902 269.298 182.243 269.617C182.584 269.933 182.856 270.352 183.058 270.874C183.261 271.396 183.362 272.039 183.362 272.803V273.335H177.055V272.249H182.083C182.083 271.787 181.991 271.375 181.806 271.013C181.625 270.651 181.366 270.365 181.029 270.155C180.695 269.946 180.301 269.841 179.846 269.841C179.345 269.841 178.912 269.965 178.546 270.214C178.184 270.459 177.905 270.778 177.71 271.173C177.515 271.567 177.417 271.989 177.417 272.44V273.165C177.417 273.783 177.524 274.306 177.737 274.736C177.953 275.162 178.254 275.487 178.637 275.711C179.021 275.931 179.466 276.041 179.974 276.041C180.304 276.041 180.603 275.995 180.869 275.903C181.139 275.807 181.371 275.665 181.567 275.477C181.762 275.285 181.913 275.047 182.019 274.763L183.234 275.104C183.106 275.516 182.891 275.878 182.589 276.19C182.288 276.499 181.915 276.741 181.471 276.915C181.027 277.085 180.528 277.17 179.974 277.17ZM191.07 270.651L189.94 270.97C189.869 270.782 189.765 270.599 189.626 270.422C189.491 270.24 189.306 270.091 189.072 269.974C188.838 269.857 188.538 269.798 188.172 269.798C187.671 269.798 187.254 269.914 186.92 270.145C186.59 270.372 186.425 270.661 186.425 271.013C186.425 271.325 186.538 271.572 186.766 271.753C186.993 271.934 187.348 272.085 187.831 272.206L189.045 272.504C189.777 272.682 190.322 272.953 190.681 273.319C191.039 273.681 191.219 274.148 191.219 274.72C191.219 275.189 191.084 275.608 190.814 275.977C190.548 276.347 190.175 276.638 189.695 276.851C189.216 277.064 188.658 277.17 188.023 277.17C187.188 277.17 186.497 276.989 185.951 276.627C185.404 276.265 185.057 275.736 184.912 275.04L186.105 274.741C186.219 275.182 186.434 275.512 186.75 275.732C187.069 275.952 187.486 276.062 188.001 276.062C188.587 276.062 189.053 275.938 189.397 275.69C189.745 275.437 189.919 275.136 189.919 274.784C189.919 274.5 189.82 274.262 189.621 274.07C189.422 273.875 189.116 273.729 188.705 273.634L187.341 273.314C186.592 273.136 186.041 272.861 185.69 272.488C185.342 272.112 185.168 271.641 185.168 271.077C185.168 270.615 185.297 270.207 185.556 269.852C185.819 269.496 186.176 269.218 186.627 269.015C187.082 268.813 187.597 268.712 188.172 268.712C188.981 268.712 189.617 268.889 190.079 269.244C190.544 269.599 190.874 270.068 191.07 270.651Z" fill="#2E263D" fill-opacity="0.7"/>
<path d="M101.5 303C101.5 296.373 106.873 291 113.5 291H171.5C178.127 291 183.5 296.373 183.5 303C183.5 309.627 178.127 315 171.5 315H113.5C106.873 315 101.5 309.627 101.5 303Z" fill="#8C57FF" fill-opacity="0.16"/>
<path d="M114.229 299.773V298.545H121.546V299.773H118.596V308H117.174V299.773H114.229ZM124.432 303.79V308H123.052V298.545H124.414V302.063H124.502C124.668 301.682 124.922 301.378 125.263 301.154C125.605 300.929 126.051 300.817 126.602 300.817C127.088 300.817 127.513 300.917 127.876 301.117C128.242 301.317 128.526 301.615 128.726 302.012C128.929 302.406 129.03 302.899 129.03 303.49V308H127.65V303.656C127.65 303.136 127.516 302.733 127.248 302.446C126.981 302.157 126.608 302.012 126.131 302.012C125.805 302.012 125.513 302.082 125.254 302.22C124.999 302.359 124.797 302.562 124.649 302.83C124.505 303.094 124.432 303.414 124.432 303.79ZM130.872 308V300.909H132.253V308H130.872ZM131.569 299.815C131.329 299.815 131.123 299.735 130.951 299.575C130.781 299.412 130.697 299.218 130.697 298.993C130.697 298.766 130.781 298.572 130.951 298.412C131.123 298.248 131.329 298.167 131.569 298.167C131.809 298.167 132.014 298.248 132.183 298.412C132.356 298.572 132.442 298.766 132.442 298.993C132.442 299.218 132.356 299.412 132.183 299.575C132.014 299.735 131.809 299.815 131.569 299.815ZM139.423 302.64L138.172 302.862C138.12 302.702 138.037 302.549 137.923 302.405C137.812 302.26 137.661 302.142 137.47 302.049C137.28 301.957 137.041 301.911 136.755 301.911C136.364 301.911 136.038 301.999 135.776 302.174C135.515 302.346 135.384 302.569 135.384 302.843C135.384 303.08 135.471 303.271 135.647 303.416C135.822 303.56 136.105 303.679 136.496 303.771L137.623 304.03C138.275 304.181 138.761 304.413 139.081 304.727C139.402 305.041 139.562 305.449 139.562 305.95C139.562 306.375 139.439 306.754 139.192 307.086C138.949 307.415 138.609 307.674 138.172 307.862C137.738 308.049 137.235 308.143 136.662 308.143C135.868 308.143 135.221 307.974 134.719 307.635C134.217 307.294 133.91 306.809 133.796 306.181L135.13 305.978C135.213 306.326 135.384 306.589 135.642 306.767C135.901 306.943 136.238 307.031 136.653 307.031C137.106 307.031 137.467 306.937 137.738 306.749C138.009 306.558 138.144 306.326 138.144 306.052C138.144 305.83 138.061 305.644 137.895 305.493C137.732 305.342 137.481 305.229 137.143 305.152L135.942 304.888C135.281 304.738 134.791 304.498 134.474 304.168C134.16 303.839 134.003 303.422 134.003 302.917C134.003 302.499 134.12 302.132 134.354 301.819C134.588 301.505 134.911 301.26 135.324 301.085C135.736 300.906 136.209 300.817 136.741 300.817C137.507 300.817 138.11 300.983 138.551 301.315C138.991 301.645 139.282 302.086 139.423 302.64ZM143.901 298.545H145.521L147.991 302.843H148.093L150.563 298.545H152.183L148.753 304.288V308H147.331V304.288L143.901 298.545ZM155.307 308.143C154.609 308.143 154.007 307.994 153.502 307.695C153.001 307.394 152.613 306.971 152.339 306.426C152.068 305.878 151.933 305.236 151.933 304.501C151.933 303.774 152.068 303.134 152.339 302.58C152.613 302.026 152.994 301.594 153.484 301.283C153.976 300.972 154.552 300.817 155.21 300.817C155.61 300.817 155.998 300.883 156.374 301.015C156.749 301.148 157.086 301.355 157.385 301.638C157.683 301.922 157.919 302.289 158.091 302.742C158.263 303.191 158.35 303.737 158.35 304.381V304.87H152.713V303.836H156.997C156.997 303.473 156.923 303.151 156.775 302.871C156.628 302.588 156.42 302.365 156.152 302.202C155.887 302.039 155.577 301.957 155.22 301.957C154.832 301.957 154.493 302.052 154.204 302.243C153.918 302.431 153.696 302.677 153.539 302.982C153.385 303.283 153.308 303.611 153.308 303.965V304.773C153.308 305.247 153.391 305.65 153.558 305.983C153.727 306.315 153.962 306.569 154.264 306.744C154.566 306.917 154.918 307.003 155.321 307.003C155.583 307.003 155.821 306.966 156.037 306.892C156.252 306.815 156.438 306.701 156.595 306.55C156.752 306.4 156.872 306.213 156.955 305.992L158.262 306.227C158.157 306.612 157.969 306.949 157.699 307.238C157.431 307.525 157.094 307.748 156.688 307.908C156.284 308.065 155.824 308.143 155.307 308.143ZM161.945 308.157C161.495 308.157 161.089 308.074 160.726 307.908C160.363 307.738 160.075 307.494 159.863 307.174C159.653 306.854 159.549 306.461 159.549 305.996C159.549 305.596 159.626 305.267 159.779 305.009C159.933 304.75 160.141 304.545 160.403 304.395C160.664 304.244 160.957 304.13 161.28 304.053C161.603 303.976 161.932 303.917 162.268 303.877C162.692 303.828 163.037 303.788 163.302 303.757C163.567 303.724 163.759 303.67 163.879 303.596C163.999 303.522 164.059 303.402 164.059 303.236V303.203C164.059 302.8 163.945 302.488 163.717 302.266C163.493 302.045 163.157 301.934 162.711 301.934C162.246 301.934 161.88 302.037 161.612 302.243C161.348 302.446 161.164 302.673 161.063 302.922L159.766 302.626C159.92 302.196 160.144 301.848 160.44 301.583C160.738 301.315 161.081 301.121 161.469 301.001C161.857 300.878 162.265 300.817 162.692 300.817C162.976 300.817 163.276 300.851 163.593 300.918C163.913 300.983 164.211 301.103 164.488 301.278C164.768 301.454 164.998 301.705 165.176 302.031C165.355 302.354 165.444 302.774 165.444 303.291V308H164.096V307.031H164.04C163.951 307.209 163.817 307.384 163.639 307.557C163.46 307.729 163.231 307.872 162.951 307.986C162.671 308.1 162.335 308.157 161.945 308.157ZM162.245 307.049C162.626 307.049 162.953 306.974 163.223 306.823C163.497 306.672 163.705 306.475 163.847 306.232C163.991 305.986 164.064 305.723 164.064 305.442V304.528C164.014 304.578 163.919 304.624 163.777 304.667C163.639 304.707 163.48 304.742 163.302 304.773C163.123 304.801 162.949 304.827 162.78 304.852C162.611 304.873 162.469 304.892 162.355 304.907C162.088 304.941 161.843 304.998 161.621 305.078C161.403 305.158 161.228 305.273 161.095 305.424C160.966 305.572 160.901 305.769 160.901 306.015C160.901 306.357 161.027 306.615 161.28 306.79C161.532 306.963 161.854 307.049 162.245 307.049ZM167.282 308V300.909H168.617V302.036H168.69C168.82 301.654 169.047 301.354 169.374 301.135C169.703 300.914 170.075 300.803 170.491 300.803C170.577 300.803 170.679 300.806 170.796 300.812C170.916 300.818 171.009 300.826 171.077 300.835V302.156C171.022 302.14 170.923 302.123 170.782 302.105C170.64 302.083 170.499 302.072 170.357 302.072C170.031 302.072 169.74 302.142 169.484 302.28C169.232 302.416 169.032 302.605 168.884 302.848C168.737 303.088 168.663 303.362 168.663 303.67V308H167.282Z" fill="#8C57FF"/>
</g>
</g>
<defs>
<filter id="filter0_d_8003_4628" x="0" y="0" width="285" height="349" filterUnits="userSpaceOnUse" color-interpolation-filters="sRGB">
<feFlood flood-opacity="0" result="BackgroundImageFix"/>
<feColorMatrix in="SourceAlpha" type="matrix" values="0 0 0 0 0 0 0 0 0 0 0 0 0 0 0 0 0 0 127 0" result="hardAlpha"/>
<feOffset dy="4"/>
<feGaussianBlur stdDeviation="5"/>
<feComposite in2="hardAlpha" operator="out"/>
<feColorMatrix type="matrix" values="0 0 0 0 0.180392 0 0 0 0 0.14902 0 0 0 0 0.239216 0 0 0 0.2 0"/>
<feBlend mode="normal" in2="BackgroundImageFix" result="effect1_dropShadow_8003_4628"/>
<feBlend mode="normal" in="SourceGraphic" in2="effect1_dropShadow_8003_4628" result="shape"/>
</filter>
<clipPath id="clip0_8003_4628">
<path d="M10 12C10 8.68628 12.6863 6 16 6H269C272.314 6 275 8.68629 275 12V329C275 332.314 272.314 335 269 335H16C12.6863 335 10 332.314 10 329V12Z" fill="white"/>
</clipPath>
</defs>
</svg>
