<svg width="382" height="374" viewBox="0 0 382 374" fill="none" xmlns="http://www.w3.org/2000/svg">
<g filter="url(#filter0_d_8003_5362)">
<path d="M10 12C10 8.6863 12.6863 6 16 6H365.333C368.647 6 371.333 8.68629 371.333 12V354C371.333 357.314 368.647 360 365.333 360H16C12.6863 360 10 357.314 10 354V12Z" fill="white" shape-rendering="crispEdges"/>
<path d="M30.7926 35.6094V33.9091H40.924V35.6094H36.8395V47H34.8707V35.6094H30.7926ZM45.7212 47.1982C44.8008 47.1982 43.9975 46.9872 43.3114 46.5653C42.6254 46.1435 42.0927 45.5533 41.7134 44.7947C41.3342 44.0362 41.1445 43.1499 41.1445 42.1357C41.1445 41.1172 41.3342 40.2266 41.7134 39.4638C42.0927 38.701 42.6254 38.1087 43.3114 37.6868C43.9975 37.2649 44.8008 37.054 45.7212 37.054C46.6417 37.054 47.445 37.2649 48.131 37.6868C48.8171 38.1087 49.3498 38.701 49.729 39.4638C50.1083 40.2266 50.2979 41.1172 50.2979 42.1357C50.2979 43.1499 50.1083 44.0362 49.729 44.7947C49.3498 45.5533 48.8171 46.1435 48.131 46.5653C47.445 46.9872 46.6417 47.1982 45.7212 47.1982ZM45.7276 45.5938C46.3242 45.5938 46.8185 45.4361 47.2106 45.1207C47.6026 44.8054 47.8924 44.3857 48.0799 43.8615C48.2717 43.3374 48.3675 42.7599 48.3675 42.1293C48.3675 41.5028 48.2717 40.9276 48.0799 40.4034C47.8924 39.875 47.6026 39.451 47.2106 39.1314C46.8185 38.8118 46.3242 38.652 45.7276 38.652C45.1268 38.652 44.6282 38.8118 44.2319 39.1314C43.8398 39.451 43.5479 39.875 43.3562 40.4034C43.1687 40.9276 43.0749 41.5028 43.0749 42.1293C43.0749 42.7599 43.1687 43.3374 43.3562 43.8615C43.5479 44.3857 43.8398 44.8054 44.2319 45.1207C44.6282 45.4361 45.1268 45.5938 45.7276 45.5938ZM57.0144 37.1818V38.7159H51.6515V37.1818H57.0144ZM53.0897 34.8295H55.0009V44.1172C55.0009 44.4879 55.0563 44.767 55.1671 44.9545C55.2779 45.1378 55.4206 45.2635 55.5953 45.3317C55.7743 45.3956 55.9682 45.4276 56.177 45.4276C56.3304 45.4276 56.4647 45.4169 56.5797 45.3956C56.6948 45.3743 56.7843 45.3572 56.8482 45.3445L57.1934 46.9233C57.0826 46.9659 56.9249 47.0085 56.7203 47.0511C56.5158 47.098 56.2601 47.1236 55.9533 47.1278C55.4505 47.1364 54.9817 47.0469 54.5471 46.8594C54.1124 46.6719 53.7608 46.3821 53.4924 45.9901C53.2239 45.598 53.0897 45.1058 53.0897 44.5135V34.8295ZM61.9858 47.2173C61.3636 47.2173 60.8011 47.1023 60.2983 46.8722C59.7955 46.6378 59.397 46.299 59.103 45.8558C58.8132 45.4126 58.6683 44.8693 58.6683 44.2259C58.6683 43.6719 58.7749 43.2159 58.9879 42.858C59.201 42.5 59.4886 42.2166 59.8509 42.0078C60.2131 41.799 60.6179 41.6413 61.0653 41.5348C61.5128 41.4283 61.9688 41.3473 62.4332 41.2919C63.0213 41.2237 63.4986 41.1683 63.8651 41.1257C64.2315 41.0788 64.4979 41.0043 64.6641 40.902C64.8303 40.7997 64.9134 40.6335 64.9134 40.4034V40.3587C64.9134 39.8004 64.7557 39.3679 64.4403 39.0611C64.1293 38.7543 63.6648 38.6009 63.0469 38.6009C62.4034 38.6009 61.8963 38.7436 61.5256 39.0291C61.1591 39.3104 60.9055 39.6236 60.7649 39.9688L58.9688 39.5597C59.1818 38.9631 59.4929 38.4815 59.902 38.1151C60.3153 37.7443 60.7905 37.4759 61.3274 37.3097C61.8643 37.1392 62.429 37.054 63.0213 37.054C63.4134 37.054 63.8288 37.1009 64.2678 37.1946C64.7109 37.2841 65.1243 37.4503 65.5078 37.6932C65.8956 37.9361 66.2131 38.2834 66.4602 38.7351C66.7074 39.1825 66.831 39.7642 66.831 40.4801V47H64.9645V45.6577H64.8878C64.7642 45.9048 64.5788 46.1477 64.3317 46.3864C64.0845 46.625 63.767 46.8232 63.3793 46.9808C62.9915 47.1385 62.527 47.2173 61.9858 47.2173ZM62.4013 45.6832C62.9297 45.6832 63.3814 45.5788 63.7564 45.37C64.1357 45.1612 64.4233 44.8885 64.6193 44.5518C64.8196 44.2109 64.9197 43.8466 64.9197 43.4588V42.1932C64.8516 42.2614 64.7195 42.3253 64.5234 42.3849C64.3317 42.4403 64.1122 42.4893 63.8651 42.532C63.6179 42.5703 63.3771 42.6065 63.1428 42.6406C62.9084 42.6705 62.7124 42.696 62.5547 42.7173C62.1839 42.7642 61.8452 42.843 61.5384 42.9538C61.2358 43.0646 60.9929 43.2244 60.8097 43.4332C60.6307 43.6378 60.5412 43.9105 60.5412 44.2514C60.5412 44.7244 60.7159 45.0824 61.0653 45.3253C61.4148 45.5639 61.8601 45.6832 62.4013 45.6832ZM71.2878 33.9091V47H69.3766V33.9091H71.2878ZM79.9203 33.9091L83.5637 44.571H83.7108L87.3542 33.9091H89.4892L84.7782 47H82.4963L77.7853 33.9091H79.9203ZM91.2262 47V37.1818H93.1374V47H91.2262ZM92.1914 35.6669C91.859 35.6669 91.5735 35.5561 91.3349 35.3345C91.1005 35.1087 90.9833 34.8402 90.9833 34.5291C90.9833 34.2138 91.1005 33.9453 91.3349 33.7237C91.5735 33.4979 91.859 33.3849 92.1914 33.3849C92.5238 33.3849 92.8072 33.4979 93.0415 33.7237C93.2802 33.9453 93.3995 34.2138 93.3995 34.5291C93.3995 34.8402 93.2802 35.1087 93.0415 35.3345C92.8072 35.5561 92.5238 35.6669 92.1914 35.6669ZM103.066 39.5788L101.334 39.8857C101.261 39.6641 101.146 39.4531 100.988 39.2528C100.835 39.0526 100.626 38.8885 100.362 38.7607C100.098 38.6328 99.7676 38.5689 99.3713 38.5689C98.8301 38.5689 98.3784 38.6903 98.0162 38.9332C97.6539 39.1719 97.4728 39.4808 97.4728 39.8601C97.4728 40.1882 97.5943 40.4524 97.8372 40.6527C98.0801 40.853 98.4721 41.017 99.0133 41.1449L100.573 41.5028C101.476 41.7116 102.15 42.0334 102.593 42.468C103.036 42.9027 103.258 43.4673 103.258 44.1619C103.258 44.75 103.087 45.2741 102.746 45.7344C102.41 46.1903 101.939 46.5483 101.334 46.8082C100.733 47.0682 100.036 47.1982 99.2434 47.1982C98.144 47.1982 97.247 46.9638 96.5524 46.495C95.8578 46.022 95.4316 45.3509 95.274 44.4815L97.1213 44.2003C97.2363 44.6818 97.4728 45.0462 97.8308 45.2933C98.1887 45.5362 98.6554 45.6577 99.2306 45.6577C99.8571 45.6577 100.358 45.5277 100.733 45.2678C101.108 45.0036 101.295 44.6818 101.295 44.3026C101.295 43.9957 101.18 43.7379 100.95 43.5291C100.724 43.3203 100.377 43.1626 99.9082 43.0561L98.2463 42.6918C97.3301 42.483 96.6525 42.1506 96.2136 41.6946C95.7789 41.2386 95.5616 40.6612 95.5616 39.9624C95.5616 39.3828 95.7235 38.8757 96.0474 38.4411C96.3713 38.0064 96.8187 37.6676 97.3897 37.4247C97.9608 37.1776 98.6149 37.054 99.3521 37.054C100.413 37.054 101.248 37.2841 101.858 37.7443C102.467 38.2003 102.87 38.8118 103.066 39.5788ZM105.359 47V37.1818H107.27V47H105.359ZM106.324 35.6669C105.992 35.6669 105.706 35.5561 105.468 35.3345C105.233 35.1087 105.116 34.8402 105.116 34.5291C105.116 34.2138 105.233 33.9453 105.468 33.7237C105.706 33.4979 105.992 33.3849 106.324 33.3849C106.657 33.3849 106.94 33.4979 107.174 33.7237C107.413 33.9453 107.532 34.2138 107.532 34.5291C107.532 34.8402 107.413 35.1087 107.174 35.3345C106.94 35.5561 106.657 35.6669 106.324 35.6669ZM114.425 37.1818V38.7159H109.062V37.1818H114.425ZM110.5 34.8295H112.411V44.1172C112.411 44.4879 112.466 44.767 112.577 44.9545C112.688 45.1378 112.831 45.2635 113.006 45.3317C113.184 45.3956 113.378 45.4276 113.587 45.4276C113.741 45.4276 113.875 45.4169 113.99 45.3956C114.105 45.3743 114.194 45.3572 114.258 45.3445L114.604 46.9233C114.493 46.9659 114.335 47.0085 114.131 47.0511C113.926 47.098 113.67 47.1236 113.363 47.1278C112.861 47.1364 112.392 47.0469 111.957 46.8594C111.523 46.6719 111.171 46.3821 110.903 45.9901C110.634 45.598 110.5 45.1058 110.5 44.5135V34.8295ZM120.569 47.1982C119.648 47.1982 118.845 46.9872 118.159 46.5653C117.473 46.1435 116.94 45.5533 116.561 44.7947C116.182 44.0362 115.992 43.1499 115.992 42.1357C115.992 41.1172 116.182 40.2266 116.561 39.4638C116.94 38.701 117.473 38.1087 118.159 37.6868C118.845 37.2649 119.648 37.054 120.569 37.054C121.489 37.054 122.293 37.2649 122.979 37.6868C123.665 38.1087 124.197 38.701 124.577 39.4638C124.956 40.2266 125.146 41.1172 125.146 42.1357C125.146 43.1499 124.956 44.0362 124.577 44.7947C124.197 45.5533 123.665 46.1435 122.979 46.5653C122.293 46.9872 121.489 47.1982 120.569 47.1982ZM120.575 45.5938C121.172 45.5938 121.666 45.4361 122.058 45.1207C122.45 44.8054 122.74 44.3857 122.928 43.8615C123.119 43.3374 123.215 42.7599 123.215 42.1293C123.215 41.5028 123.119 40.9276 122.928 40.4034C122.74 39.875 122.45 39.451 122.058 39.1314C121.666 38.8118 121.172 38.652 120.575 38.652C119.974 38.652 119.476 38.8118 119.08 39.1314C118.688 39.451 118.396 39.875 118.204 40.4034C118.016 40.9276 117.923 41.5028 117.923 42.1293C117.923 42.7599 118.016 43.3374 118.204 43.8615C118.396 44.3857 118.688 44.8054 119.08 45.1207C119.476 45.4361 119.974 45.5938 120.575 45.5938ZM127.279 47V37.1818H129.126V38.7415H129.229C129.407 38.2131 129.723 37.7976 130.175 37.495C130.631 37.1882 131.146 37.0348 131.721 37.0348C131.841 37.0348 131.981 37.0391 132.143 37.0476C132.309 37.0561 132.439 37.0668 132.533 37.0795V38.9077C132.456 38.8864 132.32 38.8629 132.124 38.8374C131.928 38.8075 131.732 38.7926 131.536 38.7926C131.084 38.7926 130.682 38.8885 130.328 39.0803C129.979 39.2678 129.702 39.5298 129.497 39.8665C129.292 40.1989 129.19 40.5781 129.19 41.0043V47H127.279ZM141.544 39.5788L139.812 39.8857C139.74 39.6641 139.625 39.4531 139.467 39.2528C139.314 39.0526 139.105 38.8885 138.841 38.7607C138.576 38.6328 138.246 38.5689 137.85 38.5689C137.309 38.5689 136.857 38.6903 136.495 38.9332C136.132 39.1719 135.951 39.4808 135.951 39.8601C135.951 40.1882 136.073 40.4524 136.316 40.6527C136.559 40.853 136.951 41.017 137.492 41.1449L139.051 41.5028C139.955 41.7116 140.628 42.0334 141.071 42.468C141.515 42.9027 141.736 43.4673 141.736 44.1619C141.736 44.75 141.566 45.2741 141.225 45.7344C140.888 46.1903 140.417 46.5483 139.812 46.8082C139.211 47.0682 138.515 47.1982 137.722 47.1982C136.623 47.1982 135.725 46.9638 135.031 46.495C134.336 46.022 133.91 45.3509 133.752 44.4815L135.6 44.2003C135.715 44.6818 135.951 45.0462 136.309 45.2933C136.667 45.5362 137.134 45.6577 137.709 45.6577C138.336 45.6577 138.836 45.5277 139.211 45.2678C139.586 45.0036 139.774 44.6818 139.774 44.3026C139.774 43.9957 139.659 43.7379 139.429 43.5291C139.203 43.3203 138.855 43.1626 138.387 43.0561L136.725 42.6918C135.809 42.483 135.131 42.1506 134.692 41.6946C134.257 41.2386 134.04 40.6612 134.04 39.9624C134.04 39.3828 134.202 38.8757 134.526 38.4411C134.85 38.0064 135.297 37.6676 135.868 37.4247C136.439 37.1776 137.093 37.054 137.831 37.054C138.892 37.054 139.727 37.2841 140.336 37.7443C140.946 38.2003 141.348 38.8118 141.544 39.5788Z" fill="#2E263D" fill-opacity="0.9"/>
<path d="M339.333 29C338.508 29 337.833 29.675 337.833 30.5C337.833 31.325 338.508 32 339.333 32C340.158 32 340.833 31.325 340.833 30.5C340.833 29.675 340.158 29 339.333 29ZM339.333 44C338.508 44 337.833 44.675 337.833 45.5C337.833 46.325 338.508 47 339.333 47C340.158 47 340.833 46.325 340.833 45.5C340.833 44.675 340.158 44 339.333 44ZM339.333 36.5C338.508 36.5 337.833 37.175 337.833 38C337.833 38.825 338.508 39.5 339.333 39.5C340.158 39.5 340.833 38.825 340.833 38C340.833 37.175 340.158 36.5 339.333 36.5Z" fill="#2E263D" fill-opacity="0.9"/>
<path d="M189.813 94.0477C165.2 94.2713 141.657 104.145 124.247 121.545C106.837 138.946 96.9513 162.483 96.7146 187.097C96.4779 211.71 105.909 235.433 122.981 253.165C140.053 270.897 163.402 281.222 188.006 281.919L188.804 253.743C171.581 253.255 155.237 246.028 143.287 233.616C131.337 221.203 124.734 204.597 124.9 187.368C125.066 170.138 131.986 153.662 144.173 141.482C156.36 129.301 172.84 122.39 190.069 122.233L189.813 94.0477Z" fill="#F0F2F8"/>
<path opacity="0.5" d="M254.517 256.927C245.465 265.312 234.851 271.832 223.279 276.115C211.708 280.398 199.406 282.359 187.077 281.888L188.154 253.722C196.784 254.052 205.396 252.678 213.496 249.681C221.595 246.683 229.026 242.119 235.362 236.249L254.517 256.927Z" fill="#8C57FF"/>
<path d="M189.813 94.0477C214.235 93.8258 237.784 103.122 255.468 119.967L236.028 140.377C223.648 128.586 207.164 122.078 190.069 122.233L189.813 94.0477Z" fill="#8C57FF"/>
<path opacity="0.7" d="M255.35 119.854C264.666 128.697 272.071 139.357 277.105 151.174C282.14 162.991 284.698 175.715 284.621 188.56C284.545 201.404 281.835 214.097 276.66 225.853C271.485 237.61 263.955 248.18 254.534 256.912L235.374 236.238C241.968 230.126 247.24 222.727 250.862 214.497C254.485 206.268 256.381 197.383 256.435 188.392C256.488 179.401 254.698 170.494 251.174 162.222C247.649 153.95 242.466 146.488 235.945 140.298L255.35 119.854Z" fill="#8C57FF"/>
<path d="M171.533 168.545V186H168.891V171.188H168.789L164.613 173.915V171.392L168.968 168.545H171.533ZM182.331 186.29C180.985 186.284 179.834 185.929 178.88 185.224C177.925 184.52 177.195 183.494 176.689 182.148C176.184 180.801 175.931 179.179 175.931 177.281C175.931 175.389 176.184 173.773 176.689 172.432C177.201 171.091 177.934 170.068 178.888 169.364C179.848 168.659 180.996 168.307 182.331 168.307C183.667 168.307 184.811 168.662 185.766 169.372C186.721 170.077 187.451 171.099 187.956 172.44C188.468 173.776 188.723 175.389 188.723 177.281C188.723 179.185 188.471 180.81 187.965 182.156C187.459 183.497 186.729 184.523 185.775 185.233C184.82 185.938 183.672 186.29 182.331 186.29ZM182.331 184.014C183.513 184.014 184.436 183.438 185.101 182.284C185.772 181.131 186.107 179.463 186.107 177.281C186.107 175.832 185.954 174.608 185.647 173.608C185.346 172.602 184.911 171.841 184.343 171.324C183.78 170.801 183.11 170.54 182.331 170.54C181.155 170.54 180.232 171.119 179.561 172.278C178.891 173.437 178.553 175.105 178.547 177.281C178.547 178.736 178.698 179.966 178.999 180.972C179.306 181.972 179.74 182.73 180.303 183.247C180.865 183.759 181.542 184.014 182.331 184.014ZM197.824 186.29C196.477 186.284 195.326 185.929 194.372 185.224C193.417 184.52 192.687 183.494 192.182 182.148C191.676 180.801 191.423 179.179 191.423 177.281C191.423 175.389 191.676 173.773 192.182 172.432C192.693 171.091 193.426 170.068 194.38 169.364C195.341 168.659 196.488 168.307 197.824 168.307C199.159 168.307 200.304 168.662 201.258 169.372C202.213 170.077 202.943 171.099 203.449 172.44C203.96 173.776 204.216 175.389 204.216 177.281C204.216 179.185 203.963 180.81 203.457 182.156C202.951 183.497 202.221 184.523 201.267 185.233C200.312 185.938 199.164 186.29 197.824 186.29ZM197.824 184.014C199.005 184.014 199.929 183.438 200.593 182.284C201.264 181.131 201.599 179.463 201.599 177.281C201.599 175.832 201.446 174.608 201.139 173.608C200.838 172.602 200.403 171.841 199.835 171.324C199.272 170.801 198.602 170.54 197.824 170.54C196.647 170.54 195.724 171.119 195.054 172.278C194.383 173.437 194.045 175.105 194.039 177.281C194.039 178.736 194.19 179.966 194.491 180.972C194.798 181.972 195.233 182.73 195.795 183.247C196.358 183.759 197.034 184.014 197.824 184.014ZM216.35 182.727V181.807C216.35 181.148 216.486 180.545 216.759 180C217.037 179.449 217.441 179.009 217.969 178.679C218.503 178.344 219.148 178.176 219.904 178.176C220.677 178.176 221.324 178.341 221.847 178.67C222.37 179 222.765 179.44 223.032 179.991C223.304 180.543 223.441 181.148 223.441 181.807V182.727C223.441 183.386 223.304 183.991 223.032 184.543C222.759 185.088 222.358 185.528 221.83 185.864C221.307 186.193 220.665 186.358 219.904 186.358C219.137 186.358 218.489 186.193 217.961 185.864C217.432 185.528 217.032 185.088 216.759 184.543C216.486 183.991 216.35 183.386 216.35 182.727ZM218.336 181.807V182.727C218.336 183.216 218.452 183.659 218.685 184.057C218.918 184.455 219.324 184.653 219.904 184.653C220.478 184.653 220.878 184.455 221.106 184.057C221.333 183.659 221.446 183.216 221.446 182.727V181.807C221.446 181.318 221.336 180.875 221.114 180.477C220.898 180.08 220.495 179.881 219.904 179.881C219.336 179.881 218.932 180.08 218.694 180.477C218.455 180.875 218.336 181.318 218.336 181.807ZM207.571 172.739V171.818C207.571 171.159 207.708 170.554 207.981 170.003C208.259 169.452 208.662 169.011 209.191 168.682C209.725 168.352 210.37 168.188 211.125 168.188C211.898 168.188 212.546 168.352 213.069 168.682C213.591 169.011 213.986 169.452 214.253 170.003C214.52 170.554 214.654 171.159 214.654 171.818V172.739C214.654 173.398 214.517 174.003 214.245 174.554C213.978 175.099 213.58 175.54 213.052 175.875C212.529 176.205 211.887 176.369 211.125 176.369C210.353 176.369 209.702 176.205 209.174 175.875C208.651 175.54 208.253 175.099 207.981 174.554C207.708 174.003 207.571 173.398 207.571 172.739ZM209.566 171.818V172.739C209.566 173.227 209.679 173.67 209.907 174.068C210.14 174.466 210.546 174.665 211.125 174.665C211.694 174.665 212.091 174.466 212.319 174.068C212.552 173.67 212.668 173.227 212.668 172.739V171.818C212.668 171.33 212.557 170.886 212.336 170.489C212.114 170.091 211.711 169.892 211.125 169.892C210.557 169.892 210.154 170.091 209.915 170.489C209.682 170.886 209.566 171.33 209.566 171.818ZM208.381 186L220.381 168.545H222.418L210.418 186H208.381Z" fill="#2E263D" fill-opacity="0.9"/>
<path d="M150.908 216L147.925 205.091H149.267L151.547 213.976H151.653L153.976 205.091H155.467L157.79 213.976H157.896L160.176 205.091H161.518L158.535 216H157.172L154.764 207.307H154.679L152.271 216H150.908ZM165.663 216.17C164.874 216.17 164.194 215.996 163.622 215.648C163.054 215.297 162.616 214.807 162.307 214.178C162.001 213.546 161.849 212.811 161.849 211.973C161.849 211.135 162.001 210.396 162.307 209.757C162.616 209.114 163.045 208.614 163.596 208.255C164.15 207.893 164.796 207.712 165.535 207.712C165.961 207.712 166.382 207.783 166.797 207.925C167.213 208.067 167.591 208.298 167.932 208.617C168.273 208.933 168.544 209.352 168.747 209.874C168.949 210.396 169.05 211.039 169.05 211.803V212.335H162.743V211.249H167.772C167.772 210.787 167.68 210.375 167.495 210.013C167.314 209.651 167.055 209.365 166.717 209.155C166.383 208.946 165.989 208.841 165.535 208.841C165.034 208.841 164.601 208.965 164.235 209.214C163.873 209.459 163.594 209.778 163.399 210.173C163.203 210.567 163.106 210.989 163.106 211.44V212.165C163.106 212.783 163.212 213.306 163.425 213.736C163.642 214.162 163.942 214.487 164.326 214.711C164.709 214.931 165.155 215.041 165.663 215.041C165.993 215.041 166.291 214.995 166.557 214.903C166.827 214.807 167.06 214.665 167.255 214.477C167.451 214.285 167.601 214.047 167.708 213.763L168.922 214.104C168.795 214.516 168.58 214.878 168.278 215.19C167.976 215.499 167.603 215.741 167.159 215.915C166.715 216.085 166.216 216.17 165.663 216.17ZM174.393 216.17C173.605 216.17 172.925 215.996 172.353 215.648C171.785 215.297 171.346 214.807 171.037 214.178C170.732 213.546 170.579 212.811 170.579 211.973C170.579 211.135 170.732 210.396 171.037 209.757C171.346 209.114 171.776 208.614 172.326 208.255C172.88 207.893 173.527 207.712 174.265 207.712C174.691 207.712 175.112 207.783 175.528 207.925C175.943 208.067 176.321 208.298 176.662 208.617C177.003 208.933 177.275 209.352 177.477 209.874C177.68 210.396 177.781 211.039 177.781 211.803V212.335H171.474V211.249H176.502C176.502 210.787 176.41 210.375 176.225 210.013C176.044 209.651 175.785 209.365 175.448 209.155C175.114 208.946 174.72 208.841 174.265 208.841C173.764 208.841 173.331 208.965 172.965 209.214C172.603 209.459 172.324 209.778 172.129 210.173C171.934 210.567 171.836 210.989 171.836 211.44V212.165C171.836 212.783 171.943 213.306 172.156 213.736C172.372 214.162 172.672 214.487 173.056 214.711C173.439 214.931 173.885 215.041 174.393 215.041C174.723 215.041 175.022 214.995 175.288 214.903C175.558 214.807 175.79 214.665 175.986 214.477C176.181 214.285 176.332 214.047 176.438 213.763L177.653 214.104C177.525 214.516 177.31 214.878 177.008 215.19C176.707 215.499 176.334 215.741 175.89 215.915C175.446 216.085 174.947 216.17 174.393 216.17ZM180.865 213.017L180.844 211.462H181.099L184.679 207.818H186.234L182.42 211.675H182.314L180.865 213.017ZM179.693 216V205.091H180.95V216H179.693ZM184.892 216L181.696 211.952L182.591 211.078L186.49 216H184.892ZM189.109 205.091V216H187.852V205.091H189.109ZM192.221 219.068C192.008 219.068 191.818 219.05 191.652 219.015C191.485 218.983 191.369 218.951 191.305 218.919L191.625 217.811C191.93 217.889 192.2 217.918 192.435 217.896C192.669 217.875 192.877 217.77 193.058 217.582C193.242 217.397 193.411 217.097 193.564 216.682L193.798 216.043L190.773 207.818H192.136L194.395 214.338H194.48L196.739 207.818H198.102L194.629 217.193C194.473 217.616 194.279 217.966 194.049 218.243C193.818 218.523 193.55 218.731 193.244 218.866C192.942 219.001 192.601 219.068 192.221 219.068ZM204.598 205.091L207.837 214.274H207.965L211.203 205.091H212.588L208.582 216H207.219L203.213 205.091H204.598ZM214.117 216V207.818H215.374V216H214.117ZM214.756 206.455C214.511 206.455 214.3 206.371 214.122 206.204C213.948 206.037 213.861 205.837 213.861 205.602C213.861 205.368 213.948 205.167 214.122 205C214.3 204.833 214.511 204.75 214.756 204.75C215.001 204.75 215.211 204.833 215.385 205C215.562 205.167 215.651 205.368 215.651 205.602C215.651 205.837 215.562 206.037 215.385 206.204C215.211 206.371 215.001 206.455 214.756 206.455ZM223.472 209.651L222.343 209.97C222.272 209.782 222.167 209.599 222.028 209.422C221.893 209.24 221.709 209.091 221.474 208.974C221.24 208.857 220.94 208.798 220.574 208.798C220.073 208.798 219.656 208.914 219.322 209.145C218.992 209.372 218.827 209.661 218.827 210.013C218.827 210.325 218.941 210.572 219.168 210.753C219.395 210.934 219.75 211.085 220.233 211.206L221.448 211.504C222.179 211.682 222.724 211.953 223.083 212.319C223.442 212.681 223.621 213.148 223.621 213.72C223.621 214.189 223.486 214.608 223.216 214.977C222.95 215.347 222.577 215.638 222.098 215.851C221.618 216.064 221.061 216.17 220.425 216.17C219.591 216.17 218.9 215.989 218.353 215.627C217.806 215.265 217.46 214.736 217.314 214.04L218.507 213.741C218.621 214.182 218.836 214.512 219.152 214.732C219.472 214.952 219.889 215.062 220.404 215.062C220.99 215.062 221.455 214.938 221.799 214.69C222.147 214.437 222.321 214.136 222.321 213.784C222.321 213.5 222.222 213.262 222.023 213.07C221.824 212.875 221.519 212.729 221.107 212.634L219.743 212.314C218.994 212.136 218.443 211.861 218.092 211.488C217.744 211.112 217.57 210.641 217.57 210.077C217.57 209.615 217.7 209.207 217.959 208.852C218.222 208.496 218.578 208.218 219.029 208.015C219.484 207.813 219.999 207.712 220.574 207.712C221.384 207.712 222.019 207.889 222.481 208.244C222.946 208.599 223.277 209.068 223.472 209.651ZM225.513 216V207.818H226.77V216H225.513ZM226.153 206.455C225.908 206.455 225.696 206.371 225.519 206.204C225.345 206.037 225.258 205.837 225.258 205.602C225.258 205.368 225.345 205.167 225.519 205C225.696 204.833 225.908 204.75 226.153 204.75C226.398 204.75 226.607 204.833 226.781 205C226.959 205.167 227.047 205.368 227.047 205.602C227.047 205.837 226.959 206.037 226.781 206.204C226.607 206.371 226.398 206.455 226.153 206.455ZM232.631 207.818V208.884H228.391V207.818H232.631ZM229.627 205.858H230.884V213.656C230.884 214.011 230.936 214.278 231.038 214.455C231.145 214.629 231.28 214.746 231.443 214.807C231.61 214.864 231.786 214.892 231.971 214.892C232.109 214.892 232.223 214.885 232.312 214.871C232.4 214.853 232.471 214.839 232.525 214.828L232.78 215.957C232.695 215.989 232.576 216.021 232.423 216.053C232.271 216.089 232.077 216.107 231.843 216.107C231.488 216.107 231.14 216.03 230.799 215.877C230.461 215.725 230.181 215.492 229.957 215.18C229.737 214.867 229.627 214.473 229.627 213.997V205.858ZM240.171 209.651L239.042 209.97C238.971 209.782 238.866 209.599 238.728 209.422C238.593 209.24 238.408 209.091 238.174 208.974C237.939 208.857 237.639 208.798 237.273 208.798C236.773 208.798 236.355 208.914 236.022 209.145C235.691 209.372 235.526 209.661 235.526 210.013C235.526 210.325 235.64 210.572 235.867 210.753C236.094 210.934 236.45 211.085 236.932 211.206L238.147 211.504C238.879 211.682 239.424 211.953 239.782 212.319C240.141 212.681 240.32 213.148 240.32 213.72C240.32 214.189 240.185 214.608 239.915 214.977C239.649 215.347 239.276 215.638 238.797 215.851C238.317 216.064 237.76 216.17 237.124 216.17C236.29 216.17 235.599 215.989 235.052 215.627C234.505 215.265 234.159 214.736 234.013 214.04L235.207 213.741C235.32 214.182 235.535 214.512 235.851 214.732C236.171 214.952 236.588 215.062 237.103 215.062C237.689 215.062 238.154 214.938 238.499 214.69C238.847 214.437 239.021 214.136 239.021 213.784C239.021 213.5 238.921 213.262 238.722 213.07C238.523 212.875 238.218 212.729 237.806 212.634L236.442 212.314C235.693 212.136 235.143 211.861 234.791 211.488C234.443 211.112 234.269 210.641 234.269 210.077C234.269 209.615 234.399 209.207 234.658 208.852C234.921 208.496 235.278 208.218 235.729 208.015C236.183 207.813 236.698 207.712 237.273 207.712C238.083 207.712 238.719 207.889 239.18 208.244C239.646 208.599 239.976 209.068 240.171 209.651Z" fill="#2E263D" fill-opacity="0.7"/>
<circle cx="89.6666" cy="316" r="5" fill="#8C57FF"/>
<path d="M102.288 321V310.091H108.83V311.263H103.609V314.949H108.34V316.121H103.609V321H102.288ZM111.092 321V310.091H114.778C115.63 310.091 116.33 310.237 116.877 310.528C117.424 310.815 117.829 311.211 118.091 311.716C118.354 312.22 118.486 312.793 118.486 313.436C118.486 314.079 118.354 314.649 118.091 315.146C117.829 315.643 117.426 316.034 116.882 316.318C116.339 316.598 115.645 316.739 114.8 316.739H111.817V315.545H114.757C115.339 315.545 115.808 315.46 116.163 315.29C116.522 315.119 116.781 314.878 116.941 314.565C117.104 314.249 117.186 313.873 117.186 313.436C117.186 312.999 117.104 312.618 116.941 312.291C116.778 311.964 116.517 311.712 116.158 311.534C115.799 311.353 115.325 311.263 114.736 311.263H112.413V321H111.092ZM116.227 316.099L118.912 321H117.378L114.736 316.099H116.227Z" fill="#2E263D" fill-opacity="0.7"/>
<circle opacity="0.7" cx="140.667" cy="316" r="5" fill="#8C57FF"/>
<path d="M160.195 310.091H161.516V317.314C161.516 318.06 161.34 318.725 160.989 319.311C160.641 319.894 160.149 320.354 159.513 320.691C158.878 321.025 158.132 321.192 157.276 321.192C156.42 321.192 155.674 321.025 155.039 320.691C154.403 320.354 153.91 319.894 153.558 319.311C153.21 318.725 153.036 318.06 153.036 317.314V310.091H154.357V317.207C154.357 317.74 154.474 318.214 154.709 318.63C154.943 319.042 155.277 319.366 155.71 319.604C156.147 319.839 156.669 319.956 157.276 319.956C157.883 319.956 158.405 319.839 158.842 319.604C159.279 319.366 159.613 319.042 159.844 318.63C160.078 318.214 160.195 317.74 160.195 317.207V310.091ZM164.154 321V310.091H165.475V315.503H165.603L170.504 310.091H172.229L167.648 315.013L172.229 321H170.631L166.839 315.929L165.475 317.463V321H164.154Z" fill="#2E263D" fill-opacity="0.7"/>
<circle opacity="0.5" cx="193.667" cy="316" r="5" fill="#8C57FF"/>
<path d="M206.462 321V310.091H213.046V311.263H207.783V314.949H212.705V316.121H207.783V319.828H213.131V321H206.462ZM221.393 312.818C221.329 312.278 221.069 311.859 220.615 311.561C220.16 311.263 219.603 311.114 218.942 311.114C218.459 311.114 218.037 311.192 217.674 311.348C217.316 311.504 217.035 311.719 216.833 311.993C216.634 312.266 216.535 312.577 216.535 312.925C216.535 313.216 216.604 313.466 216.742 313.676C216.884 313.882 217.065 314.054 217.286 314.192C217.506 314.327 217.737 314.439 217.978 314.528C218.22 314.613 218.442 314.683 218.644 314.736L219.752 315.034C220.036 315.109 220.352 315.212 220.7 315.343C221.052 315.474 221.387 315.654 221.707 315.881C222.03 316.105 222.296 316.392 222.506 316.744C222.715 317.096 222.82 317.527 222.82 318.038C222.82 318.628 222.666 319.161 222.357 319.636C222.051 320.112 221.604 320.49 221.014 320.771C220.428 321.051 219.716 321.192 218.878 321.192C218.097 321.192 217.421 321.066 216.849 320.814C216.281 320.561 215.833 320.21 215.507 319.759C215.183 319.308 215 318.784 214.958 318.188H216.322C216.357 318.599 216.496 318.94 216.737 319.21C216.982 319.477 217.291 319.675 217.664 319.807C218.04 319.935 218.445 319.999 218.878 319.999C219.383 319.999 219.835 319.917 220.237 319.754C220.638 319.587 220.956 319.356 221.19 319.061C221.424 318.763 221.542 318.415 221.542 318.017C221.542 317.655 221.44 317.36 221.238 317.133C221.036 316.906 220.769 316.721 220.439 316.579C220.109 316.437 219.752 316.312 219.368 316.206L218.026 315.822C217.174 315.577 216.499 315.228 216.002 314.773C215.505 314.319 215.256 313.724 215.256 312.989C215.256 312.378 215.421 311.845 215.752 311.391C216.085 310.933 216.533 310.577 217.094 310.325C217.659 310.07 218.289 309.942 218.985 309.942C219.688 309.942 220.313 310.068 220.86 310.32C221.407 310.569 221.84 310.909 222.16 311.343C222.483 311.776 222.653 312.268 222.671 312.818H221.393ZM224.992 321V310.091H228.678C229.534 310.091 230.234 310.245 230.777 310.554C231.324 310.86 231.729 311.273 231.991 311.795C232.254 312.317 232.386 312.9 232.386 313.543C232.386 314.185 232.254 314.77 231.991 315.295C231.732 315.821 231.331 316.24 230.787 316.552C230.244 316.861 229.548 317.016 228.699 317.016H226.057V315.844H228.657C229.243 315.844 229.713 315.743 230.068 315.54C230.424 315.338 230.681 315.064 230.841 314.72C231.004 314.372 231.086 313.979 231.086 313.543C231.086 313.106 231.004 312.715 230.841 312.371C230.681 312.026 230.422 311.756 230.063 311.561C229.704 311.362 229.229 311.263 228.636 311.263H226.313V321H224.992Z" fill="#2E263D" fill-opacity="0.7"/>
<circle cx="254.667" cy="316" r="5" fill="#2E263D" fill-opacity="0.08"/>
<path d="M274.237 310.091H275.558V317.314C275.558 318.06 275.382 318.725 275.03 319.311C274.682 319.894 274.19 320.354 273.555 320.691C272.919 321.025 272.173 321.192 271.318 321.192C270.462 321.192 269.716 321.025 269.08 320.691C268.445 320.354 267.951 319.894 267.6 319.311C267.251 318.725 267.077 318.06 267.077 317.314V310.091H268.399V317.207C268.399 317.74 268.516 318.214 268.75 318.63C268.984 319.042 269.318 319.366 269.751 319.604C270.188 319.839 270.71 319.956 271.318 319.956C271.925 319.956 272.447 319.839 272.884 319.604C273.32 319.366 273.654 319.042 273.885 318.63C274.119 318.214 274.237 317.74 274.237 317.207V310.091ZM284.162 312.818C284.098 312.278 283.838 311.859 283.384 311.561C282.929 311.263 282.372 311.114 281.711 311.114C281.228 311.114 280.806 311.192 280.444 311.348C280.085 311.504 279.804 311.719 279.602 311.993C279.403 312.266 279.304 312.577 279.304 312.925C279.304 313.216 279.373 313.466 279.511 313.676C279.653 313.882 279.835 314.054 280.055 314.192C280.275 314.327 280.506 314.439 280.747 314.528C280.989 314.613 281.211 314.683 281.413 314.736L282.521 315.034C282.805 315.109 283.121 315.212 283.469 315.343C283.821 315.474 284.156 315.654 284.476 315.881C284.799 316.105 285.065 316.392 285.275 316.744C285.484 317.096 285.589 317.527 285.589 318.038C285.589 318.628 285.435 319.161 285.126 319.636C284.82 320.112 284.373 320.49 283.783 320.771C283.197 321.051 282.485 321.192 281.647 321.192C280.866 321.192 280.19 321.066 279.618 320.814C279.05 320.561 278.602 320.21 278.276 319.759C277.952 319.308 277.77 318.784 277.727 318.188H279.091C279.126 318.599 279.265 318.94 279.506 319.21C279.751 319.477 280.06 319.675 280.433 319.807C280.809 319.935 281.214 319.999 281.647 319.999C282.152 319.999 282.604 319.917 283.006 319.754C283.407 319.587 283.725 319.356 283.959 319.061C284.194 318.763 284.311 318.415 284.311 318.017C284.311 317.655 284.21 317.36 284.007 317.133C283.805 316.906 283.538 316.721 283.208 316.579C282.878 316.437 282.521 316.312 282.137 316.206L280.795 315.822C279.943 315.577 279.268 315.228 278.771 314.773C278.274 314.319 278.025 313.724 278.025 312.989C278.025 312.378 278.19 311.845 278.521 311.391C278.854 310.933 279.302 310.577 279.863 310.325C280.428 310.07 281.058 309.942 281.754 309.942C282.457 309.942 283.082 310.068 283.629 310.32C284.176 310.569 284.609 310.909 284.929 311.343C285.252 311.776 285.422 312.268 285.44 312.818H284.162ZM288.209 321H286.824L290.829 310.091H292.193L296.199 321H294.814L291.554 311.817H291.468L288.209 321ZM288.72 316.739H294.302V317.911H288.72V316.739Z" fill="#2E263D" fill-opacity="0.7"/>
</g>
<defs>
<filter id="filter0_d_8003_5362" x="0" y="0" width="381.333" height="374" filterUnits="userSpaceOnUse" color-interpolation-filters="sRGB">
<feFlood flood-opacity="0" result="BackgroundImageFix"/>
<feColorMatrix in="SourceAlpha" type="matrix" values="0 0 0 0 0 0 0 0 0 0 0 0 0 0 0 0 0 0 127 0" result="hardAlpha"/>
<feOffset dy="4"/>
<feGaussianBlur stdDeviation="5"/>
<feComposite in2="hardAlpha" operator="out"/>
<feColorMatrix type="matrix" values="0 0 0 0 0.180392 0 0 0 0 0.14902 0 0 0 0 0.239216 0 0 0 0.2 0"/>
<feBlend mode="normal" in2="BackgroundImageFix" result="effect1_dropShadow_8003_5362"/>
<feBlend mode="normal" in="SourceGraphic" in2="effect1_dropShadow_8003_5362" result="shape"/>
</filter>
</defs>
</svg>
