<svg width="266" height="91" viewBox="0 0 266 91" fill="none" xmlns="http://www.w3.org/2000/svg">
<path d="M0.5 6.5C0.5 3.18629 3.18629 0.5 6.5 0.5H259.5C262.814 0.5 265.5 3.18629 265.5 6.5V84.5C265.5 87.8137 262.814 90.5 259.5 90.5H6.50001C3.1863 90.5 0.5 87.8137 0.5 84.5V6.5Z" stroke="#2E263D" stroke-opacity="0.12" stroke-linejoin="bevel"/>
<g filter="url(#filter0_d_8003_4658)">
<path d="M20.5 31.5C20.5 28.1863 23.1863 25.5 26.5 25.5H54.5C57.8137 25.5 60.5 28.1863 60.5 31.5V59.5C60.5 62.8137 57.8137 65.5 54.5 65.5H26.5C23.1863 65.5 20.5 62.8137 20.5 59.5V31.5Z" fill="white"/>
<path d="M40.5 55.5C34.977 55.5 30.5 51.023 30.5 45.5C30.5 39.977 34.977 35.5 40.5 35.5C46.023 35.5 50.5 39.977 50.5 45.5C50.5 51.023 46.023 55.5 40.5 55.5ZM40.5 53.5C42.6217 53.5 44.6566 52.6571 46.1569 51.1569C47.6571 49.6566 48.5 47.6217 48.5 45.5C48.5 43.3783 47.6571 41.3434 46.1569 39.8431C44.6566 38.3429 42.6217 37.5 40.5 37.5C38.3783 37.5 36.3434 38.3429 34.8431 39.8431C33.3429 41.3434 32.5 43.3783 32.5 45.5C32.5 47.6217 33.3429 49.6566 34.8431 51.1569C36.3434 52.6571 38.3783 53.5 40.5 53.5V53.5ZM37 47.5H42.5C42.6326 47.5 42.7598 47.4473 42.8536 47.3536C42.9473 47.2598 43 47.1326 43 47C43 46.8674 42.9473 46.7402 42.8536 46.6464C42.7598 46.5527 42.6326 46.5 42.5 46.5H38.5C37.837 46.5 37.2011 46.2366 36.7322 45.7678C36.2634 45.2989 36 44.663 36 44C36 43.337 36.2634 42.7011 36.7322 42.2322C37.2011 41.7634 37.837 41.5 38.5 41.5H39.5V39.5H41.5V41.5H44V43.5H38.5C38.3674 43.5 38.2402 43.5527 38.1464 43.6464C38.0527 43.7402 38 43.8674 38 44C38 44.1326 38.0527 44.2598 38.1464 44.3536C38.2402 44.4473 38.3674 44.5 38.5 44.5H42.5C43.163 44.5 43.7989 44.7634 44.2678 45.2322C44.7366 45.7011 45 46.337 45 47C45 47.663 44.7366 48.2989 44.2678 48.7678C43.7989 49.2366 43.163 49.5 42.5 49.5H41.5V51.5H39.5V49.5H37V47.5Z" fill="#56CA00"/>
</g>
<path d="M77.2244 26.7628V25.5909H85.4062V26.7628H81.9759V36.5H80.6548V26.7628H77.2244ZM89.4119 36.6705C88.6733 36.6705 88.0252 36.4947 87.4677 36.1431C86.9137 35.7915 86.4805 35.2997 86.168 34.6676C85.859 34.0355 85.7045 33.2969 85.7045 32.4517C85.7045 31.5994 85.859 30.8555 86.168 30.2198C86.4805 29.5842 86.9137 29.0906 87.4677 28.739C88.0252 28.3874 88.6733 28.2116 89.4119 28.2116C90.1506 28.2116 90.7969 28.3874 91.3509 28.739C91.9084 29.0906 92.3416 29.5842 92.6506 30.2198C92.9631 30.8555 93.1193 31.5994 93.1193 32.4517C93.1193 33.2969 92.9631 34.0355 92.6506 34.6676C92.3416 35.2997 91.9084 35.7915 91.3509 36.1431C90.7969 36.4947 90.1506 36.6705 89.4119 36.6705ZM89.4119 35.5412C89.973 35.5412 90.4347 35.3974 90.7969 35.1097C91.1591 34.8221 91.4272 34.4439 91.6012 33.9751C91.7752 33.5064 91.8622 32.9986 91.8622 32.4517C91.8622 31.9048 91.7752 31.3952 91.6012 30.9229C91.4272 30.4506 91.1591 30.0689 90.7969 29.7777C90.4347 29.4865 89.973 29.3409 89.4119 29.3409C88.8509 29.3409 88.3892 29.4865 88.027 29.7777C87.6648 30.0689 87.3967 30.4506 87.2227 30.9229C87.0487 31.3952 86.9616 31.9048 86.9616 32.4517C86.9616 32.9986 87.0487 33.5064 87.2227 33.9751C87.3967 34.4439 87.6648 34.8221 88.027 35.1097C88.3892 35.3974 88.8509 35.5412 89.4119 35.5412ZM98.5965 28.3182V29.3835H94.3564V28.3182H98.5965ZM95.5922 26.358H96.8493V34.1562C96.8493 34.5114 96.9008 34.7777 97.0038 34.9553C97.1104 35.1293 97.2453 35.2464 97.4086 35.3068C97.5756 35.3636 97.7513 35.392 97.936 35.392C98.0745 35.392 98.1881 35.3849 98.2769 35.3707C98.3657 35.353 98.4367 35.3388 98.49 35.3281L98.7457 36.4574C98.6604 36.4893 98.5415 36.5213 98.3888 36.5533C98.2361 36.5888 98.0425 36.6065 97.8082 36.6065C97.453 36.6065 97.105 36.5302 96.7641 36.3775C96.4268 36.2248 96.1462 35.9922 95.9225 35.6797C95.7023 35.3672 95.5922 34.973 95.5922 34.4972V26.358ZM102.895 36.6918C102.377 36.6918 101.906 36.5941 101.484 36.3988C101.061 36.1999 100.725 35.9141 100.477 35.5412C100.228 35.1648 100.104 34.7102 100.104 34.1776C100.104 33.7088 100.196 33.3288 100.381 33.0376C100.566 32.7429 100.812 32.5121 101.121 32.3452C101.43 32.1783 101.771 32.054 102.144 31.9723C102.521 31.8871 102.899 31.8196 103.279 31.7699C103.776 31.706 104.179 31.658 104.488 31.6261C104.8 31.5906 105.028 31.532 105.17 31.4503C105.315 31.3686 105.388 31.2266 105.388 31.0241V30.9815C105.388 30.456 105.244 30.0476 104.957 29.7564C104.672 29.4652 104.241 29.3196 103.662 29.3196C103.062 29.3196 102.592 29.451 102.251 29.7138C101.91 29.9766 101.67 30.2571 101.532 30.5554L100.338 30.1293C100.551 29.6321 100.835 29.245 101.191 28.968C101.549 28.6875 101.94 28.4922 102.362 28.3821C102.789 28.2685 103.208 28.2116 103.62 28.2116C103.882 28.2116 104.184 28.2436 104.525 28.3075C104.87 28.3679 105.202 28.494 105.521 28.6857C105.844 28.8775 106.112 29.1669 106.326 29.554C106.539 29.9411 106.645 30.4595 106.645 31.1094V36.5H105.388V35.392H105.324C105.239 35.5696 105.097 35.7596 104.898 35.962C104.699 36.1644 104.435 36.3366 104.104 36.4787C103.774 36.6207 103.371 36.6918 102.895 36.6918ZM103.087 35.5625C103.584 35.5625 104.003 35.4648 104.344 35.2695C104.688 35.0742 104.948 34.8221 105.122 34.5131C105.299 34.2042 105.388 33.8793 105.388 33.5384V32.3878C105.335 32.4517 105.218 32.5103 105.036 32.5636C104.859 32.6133 104.653 32.6577 104.419 32.6967C104.188 32.7322 103.962 32.7642 103.742 32.7926C103.525 32.8175 103.35 32.8388 103.215 32.8565C102.888 32.8991 102.583 32.9684 102.299 33.0643C102.018 33.1566 101.791 33.2969 101.617 33.4851C101.446 33.6697 101.361 33.9219 101.361 34.2415C101.361 34.6783 101.523 35.0085 101.846 35.2322C102.172 35.4524 102.586 35.5625 103.087 35.5625ZM110.197 25.5909V36.5H108.94V25.5909H110.197ZM116.888 36.5V25.5909H120.574C121.427 25.5909 122.126 25.7365 122.673 26.0277C123.22 26.3153 123.625 26.7113 123.888 27.2156C124.15 27.7198 124.282 28.2933 124.282 28.9361C124.282 29.5788 124.15 30.1488 123.888 30.646C123.625 31.1431 123.222 31.5337 122.679 31.8178C122.135 32.0984 121.441 32.2386 120.596 32.2386H117.613V31.0455H120.553C121.136 31.0455 121.604 30.9602 121.959 30.7898C122.318 30.6193 122.577 30.3778 122.737 30.0653C122.9 29.7493 122.982 29.3729 122.982 28.9361C122.982 28.4993 122.9 28.1175 122.737 27.7908C122.574 27.4641 122.313 27.212 121.954 27.0344C121.595 26.8533 121.121 26.7628 120.532 26.7628H118.209V36.5H116.888ZM122.023 31.5994L124.708 36.5H123.174L120.532 31.5994H122.023ZM129.655 36.6705C128.867 36.6705 128.187 36.4964 127.615 36.1484C127.047 35.7969 126.608 35.3068 126.299 34.6783C125.994 34.0462 125.841 33.3111 125.841 32.473C125.841 31.6349 125.994 30.8963 126.299 30.2571C126.608 29.6143 127.038 29.1136 127.588 28.755C128.142 28.3928 128.789 28.2116 129.527 28.2116C129.953 28.2116 130.374 28.2827 130.79 28.4247C131.205 28.5668 131.583 28.7976 131.924 29.1172C132.265 29.4332 132.537 29.8523 132.739 30.3743C132.942 30.8963 133.043 31.5391 133.043 32.3026V32.8352H126.736V31.7486H131.765C131.765 31.2869 131.672 30.875 131.488 30.5128C131.306 30.1506 131.047 29.8647 130.71 29.6552C130.376 29.4457 129.982 29.3409 129.527 29.3409C129.027 29.3409 128.593 29.4652 128.228 29.7138C127.865 29.9588 127.587 30.2784 127.391 30.6726C127.196 31.0668 127.098 31.4893 127.098 31.9403V32.6648C127.098 33.2827 127.205 33.8065 127.418 34.2362C127.635 34.6623 127.935 34.9872 128.318 35.2109C128.702 35.4311 129.147 35.5412 129.655 35.5412C129.985 35.5412 130.284 35.495 130.55 35.4027C130.82 35.3068 131.053 35.1648 131.248 34.9766C131.443 34.7848 131.594 34.5469 131.701 34.2628L132.915 34.6037C132.787 35.0156 132.572 35.3778 132.271 35.6903C131.969 35.9993 131.596 36.2408 131.152 36.4148C130.708 36.5852 130.209 36.6705 129.655 36.6705ZM141.397 28.3182L138.371 36.5H137.093L134.067 28.3182H135.431L137.689 34.8381H137.774L140.033 28.3182H141.397ZM146.193 36.6705C145.405 36.6705 144.725 36.4964 144.153 36.1484C143.585 35.7969 143.146 35.3068 142.837 34.6783C142.532 34.0462 142.379 33.3111 142.379 32.473C142.379 31.6349 142.532 30.8963 142.837 30.2571C143.146 29.6143 143.576 29.1136 144.127 28.755C144.68 28.3928 145.327 28.2116 146.065 28.2116C146.492 28.2116 146.912 28.2827 147.328 28.4247C147.743 28.5668 148.122 28.7976 148.462 29.1172C148.803 29.4332 149.075 29.8523 149.277 30.3743C149.48 30.8963 149.581 31.5391 149.581 32.3026V32.8352H143.274V31.7486H148.303C148.303 31.2869 148.21 30.875 148.026 30.5128C147.845 30.1506 147.585 29.8647 147.248 29.6552C146.914 29.4457 146.52 29.3409 146.065 29.3409C145.565 29.3409 145.131 29.4652 144.766 29.7138C144.403 29.9588 144.125 30.2784 143.929 30.6726C143.734 31.0668 143.636 31.4893 143.636 31.9403V32.6648C143.636 33.2827 143.743 33.8065 143.956 34.2362C144.173 34.6623 144.473 34.9872 144.856 35.2109C145.24 35.4311 145.685 35.5412 146.193 35.5412C146.524 35.5412 146.822 35.495 147.088 35.4027C147.358 35.3068 147.591 35.1648 147.786 34.9766C147.981 34.7848 148.132 34.5469 148.239 34.2628L149.453 34.6037C149.325 35.0156 149.111 35.3778 148.809 35.6903C148.507 35.9993 148.134 36.2408 147.69 36.4148C147.246 36.5852 146.747 36.6705 146.193 36.6705ZM152.75 31.5781V36.5H151.493V28.3182H152.708V29.5966H152.814C153.006 29.1811 153.297 28.8473 153.688 28.5952C154.079 28.3395 154.583 28.2116 155.201 28.2116C155.755 28.2116 156.239 28.3253 156.655 28.5526C157.07 28.7763 157.394 29.1172 157.624 29.5753C157.855 30.0298 157.971 30.6051 157.971 31.3011V36.5H156.714V31.3864C156.714 30.7436 156.547 30.2429 156.213 29.8842C155.879 29.522 155.421 29.3409 154.839 29.3409C154.437 29.3409 154.079 29.4279 153.763 29.6019C153.45 29.7759 153.203 30.0298 153.022 30.3636C152.841 30.6974 152.75 31.1023 152.75 31.5781ZM165.424 33.1548V28.3182H166.681V36.5H165.424V35.1151H165.339C165.147 35.5305 164.849 35.8839 164.444 36.1751C164.039 36.4627 163.528 36.6065 162.91 36.6065C162.398 36.6065 161.944 36.4947 161.546 36.271C161.148 36.0437 160.836 35.7028 160.609 35.2482C160.381 34.7901 160.268 34.2131 160.268 33.517V28.3182H161.525V33.4318C161.525 34.0284 161.692 34.5043 162.026 34.8594C162.363 35.2145 162.793 35.392 163.315 35.392C163.627 35.392 163.945 35.3121 164.268 35.1523C164.595 34.9925 164.868 34.7475 165.088 34.4173C165.312 34.087 165.424 33.6662 165.424 33.1548ZM172.414 36.6705C171.626 36.6705 170.946 36.4964 170.374 36.1484C169.806 35.7969 169.367 35.3068 169.058 34.6783C168.753 34.0462 168.6 33.3111 168.6 32.473C168.6 31.6349 168.753 30.8963 169.058 30.2571C169.367 29.6143 169.797 29.1136 170.347 28.755C170.901 28.3928 171.547 28.2116 172.286 28.2116C172.712 28.2116 173.133 28.2827 173.549 28.4247C173.964 28.5668 174.342 28.7976 174.683 29.1172C175.024 29.4332 175.296 29.8523 175.498 30.3743C175.701 30.8963 175.802 31.5391 175.802 32.3026V32.8352H169.495V31.7486H174.523C174.523 31.2869 174.431 30.875 174.246 30.5128C174.065 30.1506 173.806 29.8647 173.469 29.6552C173.135 29.4457 172.741 29.3409 172.286 29.3409C171.785 29.3409 171.352 29.4652 170.986 29.7138C170.624 29.9588 170.345 30.2784 170.15 30.6726C169.955 31.0668 169.857 31.4893 169.857 31.9403V32.6648C169.857 33.2827 169.964 33.8065 170.177 34.2362C170.393 34.6623 170.693 34.9872 171.077 35.2109C171.46 35.4311 171.906 35.5412 172.414 35.5412C172.744 35.5412 173.043 35.495 173.309 35.4027C173.579 35.3068 173.811 35.1648 174.007 34.9766C174.202 34.7848 174.353 34.5469 174.459 34.2628L175.674 34.6037C175.546 35.0156 175.331 35.3778 175.029 35.6903C174.728 35.9993 174.355 36.2408 173.911 36.4148C173.467 36.5852 172.968 36.6705 172.414 36.6705Z" fill="#2E263D" fill-opacity="0.7"/>
<path d="M77.7592 63.5V62.0682L82.1889 57.4787C82.6619 56.9801 83.0518 56.5433 83.3587 56.1683C83.6697 55.7891 83.902 55.429 84.0554 55.0881C84.2088 54.7472 84.2855 54.3849 84.2855 54.0014C84.2855 53.5668 84.1832 53.1918 83.9787 52.8764C83.7741 52.5568 83.495 52.3118 83.1413 52.1413C82.7876 51.9666 82.3892 51.8793 81.946 51.8793C81.4773 51.8793 81.0682 51.9751 80.7188 52.1669C80.3693 52.3587 80.1009 52.6293 79.9134 52.9787C79.7259 53.3281 79.6321 53.7372 79.6321 54.206H77.7464C77.7464 53.4091 77.9297 52.7124 78.2962 52.1158C78.6626 51.5192 79.1655 51.0568 79.8047 50.7287C80.4439 50.3963 81.1705 50.2301 81.9844 50.2301C82.8068 50.2301 83.5313 50.3942 84.1577 50.7223C84.7884 51.0462 85.2805 51.4893 85.6342 52.0518C85.9879 52.6101 86.1648 53.2408 86.1648 53.9439C86.1648 54.4297 86.0732 54.9048 85.8899 55.3693C85.7109 55.8338 85.3977 56.3516 84.9503 56.9226C84.5028 57.4893 83.8807 58.1776 83.0838 58.9872L80.4822 61.7102V61.8061H86.3757V63.5H77.7592ZM93.2216 63.679C92.3054 63.679 91.4957 63.5213 90.7926 63.206C90.0938 62.8906 89.5462 62.456 89.1499 61.902C88.7536 61.348 88.5575 60.7173 88.5618 60.0099C88.5575 59.456 88.6705 58.9467 88.9006 58.4822C89.1349 58.0135 89.4524 57.6236 89.853 57.3125C90.2536 56.9972 90.701 56.7969 91.1953 56.7116V56.6349C90.5433 56.4773 90.0213 56.1278 89.6293 55.5866C89.2372 55.0455 89.0433 54.4233 89.0476 53.7202C89.0433 53.0511 89.2202 52.4545 89.5781 51.9304C89.9403 51.402 90.4368 50.9865 91.0675 50.6839C91.6982 50.3814 92.4162 50.2301 93.2216 50.2301C94.0185 50.2301 94.7301 50.3835 95.3565 50.6903C95.9872 50.9929 96.4837 51.4084 96.8459 51.9368C97.2081 52.4609 97.3913 53.0554 97.3956 53.7202C97.3913 54.4233 97.1911 55.0455 96.7947 55.5866C96.3984 56.1278 95.8828 56.4773 95.2479 56.6349V56.7116C95.7379 56.7969 96.179 56.9972 96.571 57.3125C96.9673 57.6236 97.2827 58.0135 97.517 58.4822C97.7557 58.9467 97.8771 59.456 97.8814 60.0099C97.8771 60.7173 97.6768 61.348 97.2805 61.902C96.8842 62.456 96.3345 62.8906 95.6314 63.206C94.9325 63.5213 94.1293 63.679 93.2216 63.679ZM93.2216 62.0618C93.7628 62.0618 94.2315 61.9723 94.6278 61.7933C95.0241 61.6101 95.331 61.3565 95.5483 61.0327C95.7656 60.7045 95.8764 60.321 95.8807 59.8821C95.8764 59.4261 95.7571 59.0234 95.5227 58.674C95.2926 58.3246 94.9794 58.0497 94.5831 57.8494C94.1868 57.6491 93.733 57.549 93.2216 57.549C92.706 57.549 92.2479 57.6491 91.8473 57.8494C91.4467 58.0497 91.1314 58.3246 90.9013 58.674C90.6712 59.0234 90.5582 59.4261 90.5625 59.8821C90.5582 60.321 90.6626 60.7045 90.8757 61.0327C91.093 61.3565 91.402 61.6101 91.8026 61.7933C92.2031 61.9723 92.6761 62.0618 93.2216 62.0618ZM93.2216 55.9702C93.6563 55.9702 94.0419 55.8828 94.3786 55.7081C94.7152 55.5334 94.9794 55.2905 95.1712 54.9794C95.3672 54.6683 95.4673 54.304 95.4716 53.8864C95.4673 53.4773 95.3693 53.1193 95.1776 52.8125C94.9901 52.5057 94.728 52.2692 94.3913 52.103C94.0547 51.9325 93.6648 51.8473 93.2216 51.8473C92.7699 51.8473 92.3736 51.9325 92.0327 52.103C91.696 52.2692 91.4339 52.5057 91.2464 52.8125C91.0589 53.1193 90.9673 53.4773 90.9716 53.8864C90.9673 54.304 91.0611 54.6683 91.2528 54.9794C91.4446 55.2905 91.7088 55.5334 92.0455 55.7081C92.3864 55.8828 92.7784 55.9702 93.2216 55.9702ZM101.069 63.6214C100.72 63.6214 100.42 63.4979 100.168 63.2507C99.9167 62.9993 99.791 62.6967 99.791 62.343C99.791 61.9936 99.9167 61.6953 100.168 61.4482C100.42 61.1967 100.72 61.071 101.069 61.071C101.419 61.071 101.719 61.1967 101.971 61.4482C102.222 61.6953 102.348 61.9936 102.348 62.343C102.348 62.5774 102.288 62.7926 102.169 62.9886C102.054 63.1804 101.9 63.3338 101.709 63.4489C101.517 63.5639 101.304 63.6214 101.069 63.6214ZM108.978 63.679C108.394 63.6705 107.819 63.5639 107.252 63.3594C106.69 63.1548 106.178 62.8139 105.718 62.3366C105.258 61.8594 104.889 61.218 104.612 60.4126C104.339 59.6072 104.203 58.6016 104.203 57.3956C104.203 56.2536 104.316 55.2393 104.542 54.353C104.772 53.4666 105.102 52.7188 105.533 52.1094C105.963 51.4957 106.483 51.0291 107.092 50.7095C107.702 50.3899 108.386 50.2301 109.144 50.2301C109.924 50.2301 110.616 50.3835 111.222 50.6903C111.827 50.9972 112.317 51.4212 112.692 51.9624C113.071 52.5036 113.312 53.1193 113.414 53.8097H111.464C111.332 53.2642 111.07 52.8189 110.678 52.4737C110.286 52.1286 109.775 51.956 109.144 51.956C108.185 51.956 107.438 52.3736 106.901 53.2088C106.368 54.044 106.099 55.2053 106.095 56.6925H106.191C106.417 56.3217 106.694 56.0064 107.022 55.7464C107.354 55.4822 107.725 55.2798 108.134 55.1392C108.548 54.9943 108.982 54.9219 109.438 54.9219C110.197 54.9219 110.883 55.1072 111.496 55.478C112.114 55.8445 112.607 56.3516 112.973 56.9993C113.339 57.647 113.523 58.3885 113.523 59.2237C113.523 60.0589 113.333 60.8153 112.954 61.4929C112.579 62.1705 112.05 62.7074 111.369 63.1037C110.687 63.4957 109.89 63.6875 108.978 63.679ZM108.972 62.017C109.474 62.017 109.924 61.8935 110.32 61.6463C110.717 61.3991 111.03 61.0668 111.26 60.6491C111.49 60.2315 111.605 59.7649 111.605 59.2493C111.605 58.7464 111.492 58.2884 111.266 57.875C111.045 57.4616 110.738 57.1335 110.346 56.8906C109.958 56.6477 109.515 56.5263 109.016 56.5263C108.637 56.5263 108.286 56.5987 107.962 56.7436C107.642 56.8885 107.361 57.0888 107.118 57.3445C106.875 57.6001 106.683 57.8942 106.543 58.2266C106.406 58.5547 106.338 58.902 106.338 59.2685C106.338 59.7585 106.451 60.2124 106.677 60.63C106.907 61.0476 107.22 61.3842 107.616 61.6399C108.017 61.8913 108.469 62.017 108.972 62.017ZM117.634 60.1697L117.622 57.8366H117.954L121.866 53.6818H124.154L119.693 58.4119H119.392L117.634 60.1697ZM115.877 63.5V50.4091H117.788V63.5H115.877ZM122.077 63.5L118.561 58.8338L119.878 57.4979L124.423 63.5H122.077Z" fill="#2E263D" fill-opacity="0.9"/>
<path d="M132.91 59.91L137.5 55.33L142.09 59.91L143.5 58.5L137.5 52.5L131.5 58.5L132.91 59.91Z" fill="#56CA00"/>
<path d="M150.629 61.5V60.5412L154.23 56.5994C154.653 56.1378 155.001 55.7365 155.274 55.3956C155.548 55.0511 155.75 54.728 155.881 54.4261C156.016 54.1207 156.084 53.8011 156.084 53.4673C156.084 53.0838 155.991 52.7518 155.807 52.4712C155.626 52.1907 155.377 51.9741 155.061 51.8214C154.745 51.6687 154.39 51.5923 153.996 51.5923C153.577 51.5923 153.211 51.6793 152.898 51.8533C152.589 52.0238 152.35 52.2635 152.179 52.5724C152.012 52.8814 151.929 53.2436 151.929 53.6591H150.672C150.672 53.0199 150.819 52.4588 151.114 51.9759C151.409 51.4929 151.81 51.1165 152.318 50.8466C152.829 50.5767 153.403 50.4418 154.038 50.4418C154.678 50.4418 155.244 50.5767 155.738 50.8466C156.231 51.1165 156.618 51.4805 156.899 51.9386C157.179 52.3967 157.32 52.9062 157.32 53.4673C157.32 53.8686 157.247 54.261 157.101 54.6445C156.959 55.0245 156.711 55.4489 156.355 55.9176C156.004 56.3828 155.516 56.951 154.891 57.6222L152.44 60.2429V60.3281H157.511V61.5H150.629ZM163.12 61.6491C162.495 61.6491 161.933 61.5249 161.432 61.2763C160.931 61.0277 160.53 60.6868 160.228 60.2536C159.926 59.8203 159.761 59.3267 159.733 58.7727H161.011C161.061 59.2663 161.284 59.6747 161.682 59.9979C162.083 60.3175 162.563 60.4773 163.12 60.4773C163.568 60.4773 163.966 60.3725 164.314 60.163C164.665 59.9535 164.94 59.6658 165.139 59.3001C165.342 58.9308 165.443 58.5135 165.443 58.0483C165.443 57.5724 165.338 57.1481 165.129 56.7752C164.923 56.3988 164.638 56.1023 164.276 55.8857C163.914 55.669 163.5 55.5589 163.035 55.5554C162.701 55.5518 162.359 55.6033 162.007 55.7099C161.656 55.8129 161.366 55.946 161.139 56.1094L159.903 55.9602L160.564 50.5909H166.231V51.7628H161.672L161.288 54.9801H161.352C161.576 54.8026 161.856 54.6552 162.194 54.538C162.531 54.4208 162.882 54.3622 163.248 54.3622C163.916 54.3622 164.511 54.522 165.033 54.8416C165.558 55.1577 165.97 55.5909 166.268 56.1413C166.57 56.6918 166.721 57.3203 166.721 58.027C166.721 58.723 166.565 59.3445 166.252 59.8913C165.944 60.4347 165.517 60.8643 164.974 61.1804C164.431 61.4929 163.813 61.6491 163.12 61.6491ZM169.365 61.5852C169.102 61.5852 168.876 61.4911 168.688 61.3029C168.5 61.1147 168.406 60.8892 168.406 60.6264C168.406 60.3636 168.5 60.1381 168.688 59.9499C168.876 59.7617 169.102 59.6676 169.365 59.6676C169.627 59.6676 169.853 59.7617 170.041 59.9499C170.229 60.1381 170.323 60.3636 170.323 60.6264C170.323 60.8004 170.279 60.9602 170.19 61.1058C170.105 61.2514 169.99 61.3686 169.844 61.4574C169.702 61.5426 169.542 61.5852 169.365 61.5852ZM175.715 61.6491C174.984 61.6491 174.338 61.5195 173.776 61.2603C173.219 60.9975 172.784 60.6371 172.471 60.179C172.159 59.7173 172.004 59.1918 172.008 58.6023C172.004 58.1406 172.095 57.7145 172.28 57.3239C172.464 56.9297 172.716 56.6012 173.036 56.3384C173.359 56.0721 173.72 55.9034 174.117 55.8324V55.7685C173.595 55.6335 173.18 55.3406 172.871 54.8896C172.562 54.435 172.409 53.9183 172.413 53.3395C172.409 52.7855 172.55 52.2901 172.834 51.8533C173.118 51.4165 173.508 51.0721 174.006 50.82C174.506 50.5678 175.076 50.4418 175.715 50.4418C176.347 50.4418 176.912 50.5678 177.409 50.82C177.906 51.0721 178.297 51.4165 178.581 51.8533C178.869 52.2901 179.014 52.7855 179.018 53.3395C179.014 53.9183 178.856 54.435 178.544 54.8896C178.235 55.3406 177.825 55.6335 177.313 55.7685V55.8324C177.708 55.9034 178.063 56.0721 178.379 56.3384C178.695 56.6012 178.947 56.9297 179.135 57.3239C179.323 57.7145 179.419 58.1406 179.423 58.6023C179.419 59.1918 179.259 59.7173 178.943 60.179C178.631 60.6371 178.196 60.9975 177.638 61.2603C177.084 61.5195 176.443 61.6491 175.715 61.6491ZM175.715 60.4773C176.209 60.4773 176.635 60.3974 176.994 60.2376C177.352 60.0778 177.629 59.8523 177.825 59.5611C178.02 59.2699 178.119 58.929 178.123 58.5384C178.119 58.1264 178.013 57.7624 177.803 57.4464C177.594 57.1303 177.308 56.8817 176.946 56.7006C176.587 56.5195 176.177 56.429 175.715 56.429C175.25 56.429 174.835 56.5195 174.469 56.7006C174.107 56.8817 173.821 57.1303 173.611 57.4464C173.405 57.7624 173.304 58.1264 173.308 58.5384C173.304 58.929 173.398 59.2699 173.59 59.5611C173.785 59.8523 174.064 60.0778 174.426 60.2376C174.789 60.3974 175.218 60.4773 175.715 60.4773ZM175.715 55.2997C176.106 55.2997 176.452 55.2216 176.754 55.0653C177.059 54.9091 177.299 54.6907 177.473 54.4102C177.647 54.1296 177.736 53.8011 177.74 53.4247C177.736 53.0554 177.649 52.734 177.479 52.4606C177.308 52.1836 177.072 51.9705 176.77 51.8214C176.468 51.6687 176.117 51.5923 175.715 51.5923C175.307 51.5923 174.95 51.6687 174.645 51.8214C174.339 51.9705 174.103 52.1836 173.936 52.4606C173.769 52.734 173.688 53.0554 173.691 53.4247C173.688 53.8011 173.771 54.1296 173.942 54.4102C174.116 54.6907 174.355 54.9091 174.661 55.0653C174.966 55.2216 175.318 55.2997 175.715 55.2997ZM187.025 59.4545V58.8793C187.025 58.4815 187.107 58.1175 187.27 57.7873C187.437 57.4535 187.679 57.1871 187.995 56.9883C188.314 56.7859 188.701 56.6847 189.156 56.6847C189.618 56.6847 190.005 56.7859 190.317 56.9883C190.63 57.1871 190.866 57.4535 191.026 57.7873C191.185 58.1175 191.265 58.4815 191.265 58.8793V59.4545C191.265 59.8523 191.184 60.218 191.02 60.5518C190.861 60.8821 190.623 61.1484 190.307 61.3509C189.994 61.5497 189.611 61.6491 189.156 61.6491C188.694 61.6491 188.305 61.5497 187.989 61.3509C187.673 61.1484 187.434 60.8821 187.27 60.5518C187.107 60.218 187.025 59.8523 187.025 59.4545ZM188.112 58.8793V59.4545C188.112 59.7848 188.19 60.0813 188.346 60.3441C188.503 60.6033 188.772 60.733 189.156 60.733C189.529 60.733 189.792 60.6033 189.944 60.3441C190.101 60.0813 190.179 59.7848 190.179 59.4545V58.8793C190.179 58.549 190.104 58.2543 189.955 57.995C189.806 57.7322 189.54 57.6009 189.156 57.6009C188.783 57.6009 188.515 57.7322 188.352 57.995C188.192 58.2543 188.112 58.549 188.112 58.8793ZM181.592 53.2116V52.6364C181.592 52.2386 181.674 51.8746 181.837 51.5444C182.004 51.2106 182.245 50.9442 182.562 50.7454C182.881 50.543 183.268 50.4418 183.723 50.4418C184.184 50.4418 184.571 50.543 184.884 50.7454C185.196 50.9442 185.433 51.2106 185.592 51.5444C185.752 51.8746 185.832 52.2386 185.832 52.6364V53.2116C185.832 53.6094 185.75 53.9751 185.587 54.3089C185.427 54.6392 185.189 54.9055 184.873 55.108C184.561 55.3068 184.177 55.4062 183.723 55.4062C183.261 55.4062 182.872 55.3068 182.556 55.108C182.24 54.9055 182 54.6392 181.837 54.3089C181.674 53.9751 181.592 53.6094 181.592 53.2116ZM182.679 52.6364V53.2116C182.679 53.5419 182.757 53.8384 182.913 54.1012C183.069 54.3604 183.339 54.4901 183.723 54.4901C184.096 54.4901 184.358 54.3604 184.511 54.1012C184.667 53.8384 184.745 53.5419 184.745 53.2116V52.6364C184.745 52.3061 184.671 52.0114 184.522 51.7521C184.373 51.4893 184.106 51.358 183.723 51.358C183.35 51.358 183.082 51.4893 182.918 51.7521C182.759 52.0114 182.679 52.3061 182.679 52.6364ZM181.997 61.5L189.497 50.5909H190.711L183.211 61.5H181.997Z" fill="#56CA00"/>
<defs>
<filter id="filter0_d_8003_4658" x="16.5" y="23.5" width="48" height="48" filterUnits="userSpaceOnUse" color-interpolation-filters="sRGB">
<feFlood flood-opacity="0" result="BackgroundImageFix"/>
<feColorMatrix in="SourceAlpha" type="matrix" values="0 0 0 0 0 0 0 0 0 0 0 0 0 0 0 0 0 0 127 0" result="hardAlpha"/>
<feOffset dy="2"/>
<feGaussianBlur stdDeviation="2"/>
<feColorMatrix type="matrix" values="0 0 0 0 0.180392 0 0 0 0 0.14902 0 0 0 0 0.239216 0 0 0 0.16 0"/>
<feBlend mode="normal" in2="BackgroundImageFix" result="effect1_dropShadow_8003_4658"/>
<feBlend mode="normal" in="SourceGraphic" in2="effect1_dropShadow_8003_4658" result="shape"/>
</filter>
</defs>
</svg>
