<svg width="189" height="232" viewBox="0 0 189 232" fill="none" xmlns="http://www.w3.org/2000/svg">
<g filter="url(#filter0_d_8003_4376)">
<path d="M10 12C10 8.68629 12.6863 6 16 6H172.667C175.98 6 178.667 8.68629 178.667 12V212C178.667 215.314 175.98 218 172.667 218H16C12.6863 218 10 215.314 10 212V12Z" fill="white" shape-rendering="crispEdges"/>
<path d="M37.0653 56.1818V34.3636H38.4631V56.1818H37.0653ZM41.4375 41.1307C41.3466 40.3239 40.9716 39.6989 40.3125 39.2557C39.6534 38.8068 38.8239 38.5824 37.8239 38.5824C37.108 38.5824 36.4886 38.696 35.9659 38.9233C35.4432 39.1449 35.0369 39.4517 34.7472 39.8438C34.4631 40.2301 34.321 40.6705 34.321 41.1648C34.321 41.5795 34.4176 41.9375 34.6108 42.2386C34.8097 42.5398 35.0682 42.7926 35.3864 42.9972C35.7102 43.196 36.0568 43.3636 36.4261 43.5C36.7955 43.6307 37.1506 43.7386 37.4915 43.8239L39.196 44.267C39.7528 44.4034 40.3239 44.5881 40.9091 44.821C41.4943 45.054 42.0369 45.3608 42.5369 45.7415C43.0369 46.1222 43.4403 46.5938 43.7472 47.1562C44.0597 47.7188 44.2159 48.392 44.2159 49.1761C44.2159 50.1648 43.9602 51.0426 43.4489 51.8097C42.9432 52.5767 42.2074 53.1818 41.2415 53.625C40.2813 54.0682 39.1193 54.2898 37.7557 54.2898C36.4489 54.2898 35.3182 54.0824 34.3636 53.6676C33.4091 53.2528 32.6619 52.6648 32.1222 51.9034C31.5824 51.1364 31.2841 50.2273 31.2273 49.1761H33.8693C33.9205 49.8068 34.125 50.3324 34.483 50.7528C34.8466 51.1676 35.3097 51.4773 35.8722 51.6818C36.4403 51.8807 37.0625 51.9801 37.7386 51.9801C38.483 51.9801 39.1449 51.8636 39.7244 51.6307C40.3097 51.392 40.7699 51.0625 41.1051 50.642C41.4403 50.2159 41.608 49.7187 41.608 49.1506C41.608 48.6335 41.4602 48.2102 41.1648 47.8807C40.875 47.5511 40.4801 47.2784 39.9801 47.0625C39.4858 46.8466 38.9261 46.6562 38.3011 46.4915L36.2386 45.929C34.8409 45.5483 33.733 44.9886 32.9148 44.25C32.1023 43.5114 31.696 42.5341 31.696 41.3182C31.696 40.3125 31.9688 39.4347 32.5142 38.6847C33.0597 37.9347 33.7983 37.3523 34.7301 36.9375C35.6619 36.517 36.7131 36.3068 37.8835 36.3068C39.0653 36.3068 40.108 36.5142 41.0114 36.929C41.9205 37.3438 42.6364 37.9148 43.1591 38.642C43.6818 39.3636 43.9545 40.1932 43.9773 41.1307H41.4375ZM53.022 54.2386C51.8004 54.2386 50.7209 54.0284 49.7834 53.608C48.8516 53.1875 48.1214 52.608 47.593 51.8693C47.0646 51.1307 46.8033 50.2898 46.8089 49.3466C46.8033 48.608 46.9538 47.929 47.2607 47.3097C47.5732 46.6847 47.9964 46.1648 48.5305 45.75C49.0646 45.3295 49.6612 45.0625 50.3203 44.9489V44.8466C49.451 44.6364 48.755 44.1705 48.2322 43.4489C47.7095 42.7273 47.451 41.8977 47.4567 40.9602C47.451 40.0682 47.6868 39.2727 48.1641 38.5739C48.647 37.8693 49.3089 37.3153 50.1499 36.9119C50.9908 36.5085 51.9482 36.3068 53.022 36.3068C54.0845 36.3068 55.0334 36.5114 55.8686 36.9205C56.7095 37.3239 57.3714 37.8778 57.8544 38.5824C58.3374 39.2812 58.5817 40.0739 58.5874 40.9602C58.5817 41.8977 58.3146 42.7273 57.7862 43.4489C57.2578 44.1705 56.5703 44.6364 55.7237 44.8466V44.9489C56.3771 45.0625 56.9652 45.3295 57.4879 45.75C58.0163 46.1648 58.4368 46.6847 58.7493 47.3097C59.0675 47.929 59.2294 48.608 59.2351 49.3466C59.2294 50.2898 58.9624 51.1307 58.4339 51.8693C57.9055 52.608 57.1726 53.1875 56.2351 53.608C55.3033 54.0284 54.2322 54.2386 53.022 54.2386ZM53.022 52.0824C53.7436 52.0824 54.3686 51.9631 54.897 51.7244C55.4254 51.4801 55.8345 51.142 56.1243 50.7102C56.4141 50.2727 56.5618 49.7614 56.5675 49.1761C56.5618 48.5682 56.4027 48.0312 56.0902 47.5653C55.7834 47.0994 55.3658 46.733 54.8374 46.4659C54.3089 46.1989 53.7038 46.0653 53.022 46.0653C52.3345 46.0653 51.7237 46.1989 51.1896 46.4659C50.6555 46.733 50.2351 47.0994 49.9283 47.5653C49.6214 48.0312 49.4709 48.5682 49.4766 49.1761C49.4709 49.7614 49.6101 50.2727 49.8942 50.7102C50.1839 51.142 50.5959 51.4801 51.13 51.7244C51.6641 51.9631 52.2947 52.0824 53.022 52.0824ZM53.022 43.9602C53.6016 43.9602 54.1158 43.8437 54.5646 43.6108C55.0135 43.3778 55.3658 43.054 55.6214 42.6392C55.8828 42.2244 56.0163 41.7386 56.022 41.1818C56.0163 40.6364 55.8857 40.1591 55.63 39.75C55.38 39.3409 55.0305 39.0256 54.5817 38.804C54.1328 38.5767 53.6129 38.4631 53.022 38.4631C52.4197 38.4631 51.8913 38.5767 51.4368 38.804C50.9879 39.0256 50.6385 39.3409 50.3885 39.75C50.1385 40.1591 50.0163 40.6364 50.022 41.1818C50.0163 41.7386 50.1413 42.2244 50.397 42.6392C50.6527 43.054 51.005 43.3778 51.4538 43.6108C51.9084 43.8437 52.4311 43.9602 53.022 43.9602ZM68.3821 54.2386C67.6037 54.2273 66.8366 54.0852 66.081 53.8125C65.331 53.5398 64.6491 53.0852 64.0355 52.4489C63.4219 51.8125 62.9304 50.9574 62.5611 49.8835C62.1974 48.8097 62.0156 47.4687 62.0156 45.8608C62.0156 44.3381 62.1662 42.9858 62.4673 41.804C62.7741 40.6222 63.2145 39.625 63.7884 38.8125C64.3622 37.9943 65.0554 37.3722 65.8679 36.946C66.6804 36.5199 67.5923 36.3068 68.6037 36.3068C69.6435 36.3068 70.5668 36.5114 71.3736 36.9205C72.1804 37.3295 72.8338 37.8949 73.3338 38.6165C73.8395 39.3381 74.1605 40.1591 74.2969 41.0795H71.6974C71.5213 40.3523 71.1719 39.7585 70.6491 39.2983C70.1264 38.8381 69.4446 38.608 68.6037 38.608C67.3253 38.608 66.3281 39.1648 65.6122 40.2784C64.902 41.392 64.544 42.9403 64.5384 44.9233H64.6662C64.9673 44.429 65.3366 44.0085 65.7741 43.6619C66.2173 43.3097 66.7116 43.0398 67.2571 42.8523C67.8082 42.6591 68.3878 42.5625 68.9957 42.5625C70.0071 42.5625 70.9219 42.8097 71.7401 43.304C72.5639 43.7926 73.2202 44.4687 73.7088 45.3324C74.1974 46.196 74.4418 47.1847 74.4418 48.2983C74.4418 49.4119 74.1889 50.4205 73.6832 51.3239C73.1832 52.2273 72.4787 52.9432 71.5696 53.4716C70.6605 53.9943 69.598 54.25 68.3821 54.2386ZM68.3736 52.0227C69.044 52.0227 69.6435 51.858 70.1719 51.5284C70.7003 51.1989 71.1179 50.7557 71.4247 50.1989C71.7315 49.642 71.8849 49.0199 71.8849 48.3324C71.8849 47.6619 71.7344 47.0511 71.4332 46.5C71.1378 45.9489 70.7287 45.5114 70.206 45.1875C69.6889 44.8636 69.098 44.7017 68.4332 44.7017C67.9276 44.7017 67.4588 44.7983 67.027 44.9915C66.6009 45.1847 66.2259 45.4517 65.902 45.7926C65.5781 46.1335 65.3224 46.5256 65.1349 46.9688C64.9531 47.4062 64.8622 47.8693 64.8622 48.358C64.8622 49.0114 65.0128 49.6165 65.3139 50.1733C65.6207 50.7301 66.0384 51.179 66.5668 51.5199C67.1009 51.8551 67.7031 52.0227 68.3736 52.0227ZM78.4624 54.1619C77.9964 54.1619 77.5959 53.9972 77.2607 53.6676C76.9254 53.3324 76.7578 52.929 76.7578 52.4574C76.7578 51.9915 76.9254 51.5937 77.2607 51.2642C77.5959 50.929 77.9964 50.7614 78.4624 50.7614C78.9283 50.7614 79.3288 50.929 79.6641 51.2642C79.9993 51.5937 80.1669 51.9915 80.1669 52.4574C80.1669 52.7699 80.0874 53.0568 79.9283 53.3182C79.7749 53.5739 79.5703 53.7784 79.3146 53.9318C79.0589 54.0852 78.7749 54.1619 78.4624 54.1619ZM83.1797 50.5909V48.4602L90.7223 36.5455H92.4013V39.6818H91.3359L85.9411 48.2216V48.358H96.2791V50.5909H83.1797ZM91.4553 54V49.9432L91.4723 48.9716V36.5455H93.9695V54H91.4553ZM101.627 49.5597L101.61 46.4489H102.053L107.269 40.9091H110.32L104.371 47.2159H103.971L101.627 49.5597ZM99.2834 54V36.5455H101.832V54H99.2834ZM107.55 54L102.863 47.7784L104.619 45.9972L110.678 54H107.55Z" fill="#2E263D" fill-opacity="0.9"/>
<line x1="30.5" y1="80" x2="30.5" y2="160" stroke="#2E263D" stroke-opacity="0.12" stroke-dasharray="6 6"/>
<line x1="54.4753" y1="80" x2="54.4753" y2="160" stroke="#2E263D" stroke-opacity="0.12" stroke-dasharray="6 6"/>
<line x1="78.4503" y1="80" x2="78.4503" y2="160" stroke="#2E263D" stroke-opacity="0.12" stroke-dasharray="6 6"/>
<line x1="102.425" y1="80" x2="102.425" y2="160" stroke="#2E263D" stroke-opacity="0.12" stroke-dasharray="6 6"/>
<line x1="126.401" y1="80" x2="126.401" y2="160" stroke="#2E263D" stroke-opacity="0.12" stroke-dasharray="6 6"/>
<line x1="150.375" y1="80" x2="150.375" y2="160" stroke="#2E263D" stroke-opacity="0.12" stroke-dasharray="6 6"/>
<path d="M30 158.231L54.4362 127.736L78.4114 151.584L103.77 111.707L126.823 135.555L150.337 87.0771" stroke="#8C57FF" stroke-width="3" stroke-linecap="round"/>
<path d="M150.666 82C153.98 82.0001 156.667 84.6865 156.667 88C156.667 91.3135 153.98 93.9999 150.666 94C147.352 94 144.665 91.3135 144.665 88C144.665 84.6865 147.352 82 150.666 82Z" fill="white" stroke="#8C57FF" stroke-width="4"/>
<path d="M55.7946 182.508V181.091H64.2374V182.508H60.8337V192H59.1931V182.508H55.7946ZM68.2351 192.165C67.4681 192.165 66.7987 191.989 66.227 191.638C65.6552 191.286 65.2113 190.794 64.8953 190.162C64.5792 189.53 64.4212 188.792 64.4212 187.946C64.4212 187.098 64.5792 186.355 64.8953 185.72C65.2113 185.084 65.6552 184.591 66.227 184.239C66.7987 183.887 67.4681 183.712 68.2351 183.712C69.0022 183.712 69.6716 183.887 70.2433 184.239C70.815 184.591 71.2589 185.084 71.575 185.72C71.891 186.355 72.0491 187.098 72.0491 187.946C72.0491 188.792 71.891 189.53 71.575 190.162C71.2589 190.794 70.815 191.286 70.2433 191.638C69.6716 191.989 69.0022 192.165 68.2351 192.165ZM68.2405 190.828C68.7376 190.828 69.1496 190.697 69.4763 190.434C69.803 190.171 70.0444 189.821 70.2007 189.385C70.3605 188.948 70.4404 188.467 70.4404 187.941C70.4404 187.419 70.3605 186.94 70.2007 186.503C70.0444 186.062 69.803 185.709 69.4763 185.443C69.1496 185.176 68.7376 185.043 68.2405 185.043C67.7398 185.043 67.3243 185.176 66.994 185.443C66.6673 185.709 66.4241 186.062 66.2643 186.503C66.108 186.94 66.0299 187.419 66.0299 187.941C66.0299 188.467 66.108 188.948 66.2643 189.385C66.4241 189.821 66.6673 190.171 66.994 190.434C67.3243 190.697 67.7398 190.828 68.2405 190.828ZM77.6461 183.818V185.097H73.177V183.818H77.6461ZM74.3755 181.858H75.9682V189.598C75.9682 189.907 76.0143 190.139 76.1067 190.295C76.199 190.448 76.318 190.553 76.4636 190.61C76.6127 190.663 76.7743 190.69 76.9483 190.69C77.0761 190.69 77.188 190.681 77.2839 190.663C77.3798 190.645 77.4543 190.631 77.5076 190.62L77.7952 191.936C77.7029 191.972 77.5715 192.007 77.4011 192.043C77.2306 192.082 77.0175 192.103 76.7619 192.107C76.3428 192.114 75.9522 192.039 75.59 191.883C75.2278 191.727 74.9348 191.485 74.7111 191.158C74.4874 190.832 74.3755 190.422 74.3755 189.928V181.858ZM81.7889 192.181C81.2705 192.181 80.8017 192.085 80.3827 191.893C79.9637 191.698 79.6316 191.416 79.3866 191.047C79.1451 190.677 79.0244 190.224 79.0244 189.688C79.0244 189.227 79.1132 188.847 79.2907 188.548C79.4683 188.25 79.708 188.014 80.0098 187.84C80.3117 187.666 80.649 187.534 81.0219 187.446C81.3948 187.357 81.7747 187.289 82.1618 187.243C82.6519 187.186 83.0496 187.14 83.355 187.105C83.6604 187.066 83.8823 187.004 84.0208 186.918C84.1593 186.833 84.2286 186.695 84.2286 186.503V186.466C84.2286 186 84.0972 185.64 83.8344 185.384C83.5752 185.129 83.1881 185.001 82.6732 185.001C82.137 185.001 81.7144 185.12 81.4054 185.358C81.1 185.592 80.8887 185.853 80.7715 186.141L79.2747 185.8C79.4523 185.303 79.7115 184.901 80.0524 184.596C80.3969 184.287 80.7928 184.063 81.2403 183.925C81.6877 183.783 82.1583 183.712 82.6519 183.712C82.9786 183.712 83.3248 183.751 83.6906 183.829C84.0599 183.903 84.4044 184.042 84.724 184.244C85.0471 184.447 85.3117 184.736 85.5176 185.113C85.7236 185.485 85.8266 185.97 85.8266 186.567V192H84.2712V190.881H84.2073C84.1043 191.087 83.9498 191.29 83.7438 191.489C83.5379 191.687 83.2733 191.853 82.9502 191.984C82.627 192.115 82.2399 192.181 81.7889 192.181ZM82.1352 190.903C82.5755 190.903 82.9519 190.816 83.2644 190.642C83.5805 190.468 83.8202 190.24 83.9835 189.96C84.1504 189.676 84.2339 189.372 84.2339 189.049V187.994C84.1771 188.051 84.067 188.104 83.9036 188.154C83.7438 188.2 83.561 188.241 83.355 188.277C83.149 188.309 82.9484 188.339 82.7531 188.367C82.5578 188.392 82.3944 188.413 82.263 188.431C81.9541 188.47 81.6718 188.536 81.4161 188.628C81.1639 188.721 80.9615 188.854 80.8088 189.028C80.6597 189.198 80.5851 189.425 80.5851 189.71C80.5851 190.104 80.7307 190.402 81.0219 190.604C81.3131 190.803 81.6842 190.903 82.1352 190.903ZM89.5406 181.091V192H87.9479V181.091H89.5406ZM95.7809 192V181.091H99.6694C100.518 181.091 101.221 181.245 101.779 181.554C102.336 181.863 102.754 182.286 103.031 182.822C103.307 183.355 103.446 183.955 103.446 184.623C103.446 185.294 103.306 185.897 103.025 186.434C102.748 186.966 102.329 187.389 101.768 187.701C101.211 188.01 100.509 188.165 99.664 188.165H96.99V186.769H99.5149C100.051 186.769 100.486 186.677 100.82 186.492C101.154 186.304 101.399 186.048 101.555 185.725C101.711 185.402 101.789 185.034 101.789 184.623C101.789 184.211 101.711 183.845 101.555 183.525C101.399 183.206 101.152 182.955 100.815 182.774C100.481 182.593 100.04 182.502 99.4936 182.502H97.4268V192H95.7809ZM105.248 192V183.818H106.787V185.118H106.872C107.022 184.678 107.284 184.331 107.661 184.079C108.041 183.824 108.47 183.696 108.95 183.696C109.049 183.696 109.166 183.699 109.301 183.706C109.44 183.713 109.548 183.722 109.626 183.733V185.256C109.562 185.239 109.449 185.219 109.285 185.198C109.122 185.173 108.959 185.161 108.795 185.161C108.419 185.161 108.083 185.24 107.789 185.4C107.497 185.556 107.267 185.775 107.096 186.055C106.926 186.332 106.84 186.648 106.84 187.004V192H105.248ZM114.158 192.165C113.391 192.165 112.722 191.989 112.15 191.638C111.578 191.286 111.134 190.794 110.818 190.162C110.502 189.53 110.344 188.792 110.344 187.946C110.344 187.098 110.502 186.355 110.818 185.72C111.134 185.084 111.578 184.591 112.15 184.239C112.722 183.887 113.391 183.712 114.158 183.712C114.925 183.712 115.594 183.887 116.166 184.239C116.738 184.591 117.182 185.084 117.498 185.72C117.814 186.355 117.972 187.098 117.972 187.946C117.972 188.792 117.814 189.53 117.498 190.162C117.182 190.794 116.738 191.286 116.166 191.638C115.594 191.989 114.925 192.165 114.158 192.165ZM114.163 190.828C114.66 190.828 115.072 190.697 115.399 190.434C115.726 190.171 115.967 189.821 116.124 189.385C116.283 188.948 116.363 188.467 116.363 187.941C116.363 187.419 116.283 186.94 116.124 186.503C115.967 186.062 115.726 185.709 115.399 185.443C115.072 185.176 114.66 185.043 114.163 185.043C113.663 185.043 113.247 185.176 112.917 185.443C112.59 185.709 112.347 186.062 112.187 186.503C112.031 186.94 111.953 187.419 111.953 187.941C111.953 188.467 112.031 188.948 112.187 189.385C112.347 189.821 112.59 190.171 112.917 190.434C113.247 190.697 113.663 190.828 114.163 190.828ZM123.644 183.818V185.097H119.02V183.818H123.644ZM120.288 192V182.87C120.288 182.359 120.4 181.934 120.623 181.597C120.847 181.256 121.144 181.002 121.513 180.835C121.882 180.665 122.283 180.58 122.717 180.58C123.036 180.58 123.31 180.606 123.537 180.659C123.764 180.709 123.933 180.755 124.043 180.798L123.67 182.087C123.596 182.066 123.5 182.041 123.383 182.012C123.265 181.98 123.123 181.964 122.956 181.964C122.569 181.964 122.292 182.06 122.125 182.252C121.962 182.444 121.88 182.721 121.88 183.083V192H120.288ZM125.287 192V183.818H126.879V192H125.287ZM126.091 182.556C125.814 182.556 125.576 182.463 125.377 182.279C125.182 182.091 125.084 181.867 125.084 181.608C125.084 181.345 125.182 181.121 125.377 180.936C125.576 180.748 125.814 180.654 126.091 180.654C126.368 180.654 126.604 180.748 126.8 180.936C126.998 181.121 127.098 181.345 127.098 181.608C127.098 181.867 126.998 182.091 126.8 182.279C126.604 182.463 126.368 182.556 126.091 182.556ZM132.841 183.818V185.097H128.372V183.818H132.841ZM129.571 181.858H131.163V189.598C131.163 189.907 131.21 190.139 131.302 190.295C131.394 190.448 131.513 190.553 131.659 190.61C131.808 190.663 131.97 190.69 132.144 190.69C132.271 190.69 132.383 190.681 132.479 190.663C132.575 190.645 132.65 190.631 132.703 190.62L132.991 191.936C132.898 191.972 132.767 192.007 132.596 192.043C132.426 192.082 132.213 192.103 131.957 192.107C131.538 192.114 131.148 192.039 130.785 191.883C130.423 191.727 130.13 191.485 129.906 191.158C129.683 190.832 129.571 190.422 129.571 189.928V181.858Z" fill="#2E263D" fill-opacity="0.9"/>
</g>
<defs>
<filter id="filter0_d_8003_4376" x="0" y="0" width="188.667" height="232" filterUnits="userSpaceOnUse" color-interpolation-filters="sRGB">
<feFlood flood-opacity="0" result="BackgroundImageFix"/>
<feColorMatrix in="SourceAlpha" type="matrix" values="0 0 0 0 0 0 0 0 0 0 0 0 0 0 0 0 0 0 127 0" result="hardAlpha"/>
<feOffset dy="4"/>
<feGaussianBlur stdDeviation="5"/>
<feComposite in2="hardAlpha" operator="out"/>
<feColorMatrix type="matrix" values="0 0 0 0 0.180392 0 0 0 0 0.14902 0 0 0 0 0.239216 0 0 0 0.2 0"/>
<feBlend mode="normal" in2="BackgroundImageFix" result="effect1_dropShadow_8003_4376"/>
<feBlend mode="normal" in="SourceGraphic" in2="effect1_dropShadow_8003_4376" result="shape"/>
</filter>
</defs>
</svg>
