<svg width="382" height="417" viewBox="0 0 382 417" fill="none" xmlns="http://www.w3.org/2000/svg">
<g filter="url(#filter0_d_8003_5312)">
<path d="M10 12C10 8.68629 12.6863 6 16 6H365.333C368.647 6 371.333 8.68629 371.333 12V397C371.333 400.314 368.647 403 365.333 403H16C12.6863 403 10 400.314 10 397V12Z" fill="white" shape-rendering="crispEdges"/>
<path d="M30.7926 35.6094V33.9091H40.924V35.6094H36.8395V47H34.8707V35.6094H30.7926ZM45.7212 47.1982C44.8008 47.1982 43.9975 46.9872 43.3114 46.5653C42.6254 46.1435 42.0927 45.5533 41.7134 44.7947C41.3342 44.0362 41.1445 43.1499 41.1445 42.1357C41.1445 41.1172 41.3342 40.2266 41.7134 39.4638C42.0927 38.701 42.6254 38.1087 43.3114 37.6868C43.9975 37.2649 44.8008 37.054 45.7212 37.054C46.6417 37.054 47.445 37.2649 48.131 37.6868C48.8171 38.1087 49.3498 38.701 49.729 39.4638C50.1083 40.2266 50.2979 41.1172 50.2979 42.1357C50.2979 43.1499 50.1083 44.0362 49.729 44.7947C49.3498 45.5533 48.8171 46.1435 48.131 46.5653C47.445 46.9872 46.6417 47.1982 45.7212 47.1982ZM45.7276 45.5938C46.3242 45.5938 46.8185 45.4361 47.2106 45.1207C47.6026 44.8054 47.8924 44.3857 48.0799 43.8615C48.2717 43.3374 48.3675 42.7599 48.3675 42.1293C48.3675 41.5028 48.2717 40.9276 48.0799 40.4034C47.8924 39.875 47.6026 39.451 47.2106 39.1314C46.8185 38.8118 46.3242 38.652 45.7276 38.652C45.1268 38.652 44.6282 38.8118 44.2319 39.1314C43.8398 39.451 43.5479 39.875 43.3562 40.4034C43.1687 40.9276 43.0749 41.5028 43.0749 42.1293C43.0749 42.7599 43.1687 43.3374 43.3562 43.8615C43.5479 44.3857 43.8398 44.8054 44.2319 45.1207C44.6282 45.4361 45.1268 45.5938 45.7276 45.5938ZM57.0144 37.1818V38.7159H51.6515V37.1818H57.0144ZM53.0897 34.8295H55.0009V44.1172C55.0009 44.4879 55.0563 44.767 55.1671 44.9545C55.2779 45.1378 55.4206 45.2635 55.5953 45.3317C55.7743 45.3956 55.9682 45.4276 56.177 45.4276C56.3304 45.4276 56.4647 45.4169 56.5797 45.3956C56.6948 45.3743 56.7843 45.3572 56.8482 45.3445L57.1934 46.9233C57.0826 46.9659 56.9249 47.0085 56.7203 47.0511C56.5158 47.098 56.2601 47.1236 55.9533 47.1278C55.4505 47.1364 54.9817 47.0469 54.5471 46.8594C54.1124 46.6719 53.7608 46.3821 53.4924 45.9901C53.2239 45.598 53.0897 45.1058 53.0897 44.5135V34.8295ZM61.9858 47.2173C61.3636 47.2173 60.8011 47.1023 60.2983 46.8722C59.7955 46.6378 59.397 46.299 59.103 45.8558C58.8132 45.4126 58.6683 44.8693 58.6683 44.2259C58.6683 43.6719 58.7749 43.2159 58.9879 42.858C59.201 42.5 59.4886 42.2166 59.8509 42.0078C60.2131 41.799 60.6179 41.6413 61.0653 41.5348C61.5128 41.4283 61.9688 41.3473 62.4332 41.2919C63.0213 41.2237 63.4986 41.1683 63.8651 41.1257C64.2315 41.0788 64.4979 41.0043 64.6641 40.902C64.8303 40.7997 64.9134 40.6335 64.9134 40.4034V40.3587C64.9134 39.8004 64.7557 39.3679 64.4403 39.0611C64.1293 38.7543 63.6648 38.6009 63.0469 38.6009C62.4034 38.6009 61.8963 38.7436 61.5256 39.0291C61.1591 39.3104 60.9055 39.6236 60.7649 39.9688L58.9688 39.5597C59.1818 38.9631 59.4929 38.4815 59.902 38.1151C60.3153 37.7443 60.7905 37.4759 61.3274 37.3097C61.8643 37.1392 62.429 37.054 63.0213 37.054C63.4134 37.054 63.8288 37.1009 64.2678 37.1946C64.7109 37.2841 65.1243 37.4503 65.5078 37.6932C65.8956 37.9361 66.2131 38.2834 66.4602 38.7351C66.7074 39.1825 66.831 39.7642 66.831 40.4801V47H64.9645V45.6577H64.8878C64.7642 45.9048 64.5788 46.1477 64.3317 46.3864C64.0845 46.625 63.767 46.8232 63.3793 46.9808C62.9915 47.1385 62.527 47.2173 61.9858 47.2173ZM62.4013 45.6832C62.9297 45.6832 63.3814 45.5788 63.7564 45.37C64.1357 45.1612 64.4233 44.8885 64.6193 44.5518C64.8196 44.2109 64.9197 43.8466 64.9197 43.4588V42.1932C64.8516 42.2614 64.7195 42.3253 64.5234 42.3849C64.3317 42.4403 64.1122 42.4893 63.8651 42.532C63.6179 42.5703 63.3771 42.6065 63.1428 42.6406C62.9084 42.6705 62.7124 42.696 62.5547 42.7173C62.1839 42.7642 61.8452 42.843 61.5384 42.9538C61.2358 43.0646 60.9929 43.2244 60.8097 43.4332C60.6307 43.6378 60.5412 43.9105 60.5412 44.2514C60.5412 44.7244 60.7159 45.0824 61.0653 45.3253C61.4148 45.5639 61.8601 45.6832 62.4013 45.6832ZM71.2878 33.9091V47H69.3766V33.9091H71.2878ZM78.7761 47V33.9091H83.4423C84.4565 33.9091 85.2981 34.0838 85.9672 34.4332C86.6404 34.7827 87.1433 35.2663 87.4757 35.8842C87.8081 36.4979 87.9743 37.2074 87.9743 38.0128C87.9743 38.8139 87.8059 39.5192 87.4693 40.1286C87.1369 40.7337 86.6341 41.2045 85.9608 41.5412C85.2917 41.8778 84.4501 42.0462 83.4359 42.0462H79.9011V40.3459H83.2569C83.8961 40.3459 84.416 40.2543 84.8166 40.071C85.2214 39.8878 85.5176 39.6214 85.7051 39.272C85.8926 38.9226 85.9863 38.5028 85.9863 38.0128C85.9863 37.5185 85.8904 37.0902 85.6987 36.728C85.5112 36.3658 85.215 36.0888 84.8102 35.897C84.4096 35.701 83.8833 35.603 83.2314 35.603H80.7512V47H78.7761ZM85.2385 41.0938L88.4728 47H86.2228L83.0524 41.0938H85.2385ZM94.3327 47.1982C93.3654 47.1982 92.5323 46.9915 91.8335 46.5781C91.1388 46.1605 90.6019 45.5746 90.2227 44.8203C89.8477 44.0618 89.6602 43.1733 89.6602 42.1548C89.6602 41.1491 89.8477 40.2628 90.2227 39.4957C90.6019 38.7287 91.1303 38.13 91.8079 37.6996C92.4897 37.2692 93.2866 37.054 94.1985 37.054C94.7525 37.054 95.2894 37.1456 95.8093 37.3288C96.3292 37.5121 96.7958 37.7997 97.2092 38.1918C97.6225 38.5838 97.9485 39.093 98.1871 39.7195C98.4258 40.3416 98.5451 41.098 98.5451 41.9886V42.6662H90.7404V41.2344H96.6722C96.6722 40.7315 96.57 40.2862 96.3654 39.8984C96.1609 39.5064 95.8732 39.1974 95.5025 38.9716C95.136 38.7457 94.7056 38.6328 94.2113 38.6328C93.6744 38.6328 93.2056 38.7649 92.805 39.0291C92.4087 39.2891 92.1019 39.63 91.8846 40.0518C91.6715 40.4695 91.565 40.9233 91.565 41.4134V42.532C91.565 43.1882 91.68 43.7464 91.9102 44.2067C92.1445 44.6669 92.4705 45.0185 92.8881 45.2614C93.3058 45.5 93.7937 45.6193 94.3519 45.6193C94.7141 45.6193 95.0444 45.5682 95.3427 45.4659C95.641 45.3594 95.8988 45.2017 96.1161 44.9929C96.3335 44.7841 96.4996 44.5263 96.6147 44.2195L98.4237 44.5455C98.2788 45.0781 98.0188 45.5447 97.6438 45.9453C97.2731 46.3416 96.8065 46.6506 96.244 46.8722C95.6857 47.0895 95.0487 47.1982 94.3327 47.1982ZM108.784 37.1818L105.223 47H103.178L99.611 37.1818H101.663L104.149 44.7372H104.252L106.732 37.1818H108.784ZM114.477 47.1982C113.51 47.1982 112.677 46.9915 111.978 46.5781C111.283 46.1605 110.746 45.5746 110.367 44.8203C109.992 44.0618 109.805 43.1733 109.805 42.1548C109.805 41.1491 109.992 40.2628 110.367 39.4957C110.746 38.7287 111.275 38.13 111.952 37.6996C112.634 37.2692 113.431 37.054 114.343 37.054C114.897 37.054 115.434 37.1456 115.954 37.3288C116.474 37.5121 116.94 37.7997 117.354 38.1918C117.767 38.5838 118.093 39.093 118.332 39.7195C118.57 40.3416 118.69 41.098 118.69 41.9886V42.6662H110.885V41.2344H116.817C116.817 40.7315 116.714 40.2862 116.51 39.8984C116.305 39.5064 116.018 39.1974 115.647 38.9716C115.281 38.7457 114.85 38.6328 114.356 38.6328C113.819 38.6328 113.35 38.7649 112.95 39.0291C112.553 39.2891 112.246 39.63 112.029 40.0518C111.816 40.4695 111.71 40.9233 111.71 41.4134V42.532C111.71 43.1882 111.825 43.7464 112.055 44.2067C112.289 44.6669 112.615 45.0185 113.033 45.2614C113.45 45.5 113.938 45.6193 114.496 45.6193C114.859 45.6193 115.189 45.5682 115.487 45.4659C115.786 45.3594 116.043 45.2017 116.261 44.9929C116.478 44.7841 116.644 44.5263 116.759 44.2195L118.568 44.5455C118.423 45.0781 118.163 45.5447 117.788 45.9453C117.418 46.3416 116.951 46.6506 116.388 46.8722C115.83 47.0895 115.193 47.1982 114.477 47.1982ZM122.721 41.1705V47H120.81V37.1818H122.645V38.7798H122.766C122.992 38.2599 123.346 37.8423 123.827 37.527C124.313 37.2116 124.925 37.054 125.662 37.054C126.331 37.054 126.917 37.1946 127.42 37.4759C127.922 37.7528 128.312 38.1662 128.589 38.7159C128.866 39.2656 129.005 39.9453 129.005 40.755V47H127.094V40.9851C127.094 40.2734 126.908 39.7173 126.537 39.3168C126.167 38.9119 125.657 38.7095 125.01 38.7095C124.567 38.7095 124.172 38.8054 123.827 38.9972C123.486 39.1889 123.216 39.4702 123.015 39.8409C122.819 40.2074 122.721 40.6506 122.721 41.1705ZM137.787 42.9283V37.1818H139.705V47H137.826V45.2997H137.724C137.498 45.8239 137.135 46.2607 136.637 46.6101C136.143 46.9553 135.527 47.1278 134.79 47.1278C134.159 47.1278 133.601 46.9893 133.115 46.7124C132.633 46.4311 132.254 46.0156 131.977 45.4659C131.704 44.9162 131.568 44.2365 131.568 43.4268V37.1818H133.479V43.1967C133.479 43.8658 133.665 44.3984 134.035 44.7947C134.406 45.1911 134.888 45.3892 135.48 45.3892C135.838 45.3892 136.194 45.2997 136.547 45.1207C136.905 44.9418 137.202 44.6712 137.436 44.3089C137.675 43.9467 137.792 43.4865 137.787 42.9283ZM146.505 47.1982C145.537 47.1982 144.704 46.9915 144.005 46.5781C143.311 46.1605 142.774 45.5746 142.395 44.8203C142.02 44.0618 141.832 43.1733 141.832 42.1548C141.832 41.1491 142.02 40.2628 142.395 39.4957C142.774 38.7287 143.302 38.13 143.98 37.6996C144.662 37.2692 145.458 37.054 146.37 37.054C146.924 37.054 147.461 37.1456 147.981 37.3288C148.501 37.5121 148.968 37.7997 149.381 38.1918C149.794 38.5838 150.12 39.093 150.359 39.7195C150.598 40.3416 150.717 41.098 150.717 41.9886V42.6662H142.912V41.2344H148.844C148.844 40.7315 148.742 40.2862 148.537 39.8984C148.333 39.5064 148.045 39.1974 147.674 38.9716C147.308 38.7457 146.877 38.6328 146.383 38.6328C145.846 38.6328 145.377 38.7649 144.977 39.0291C144.581 39.2891 144.274 39.63 144.056 40.0518C143.843 40.4695 143.737 40.9233 143.737 41.4134V42.532C143.737 43.1882 143.852 43.7464 144.082 44.2067C144.316 44.6669 144.642 45.0185 145.06 45.2614C145.478 45.5 145.966 45.6193 146.524 45.6193C146.886 45.6193 147.216 45.5682 147.515 45.4659C147.813 45.3594 148.071 45.2017 148.288 44.9929C148.505 44.7841 148.672 44.5263 148.787 44.2195L150.596 44.5455C150.451 45.0781 150.191 45.5447 149.816 45.9453C149.445 46.3416 148.978 46.6506 148.416 46.8722C147.858 47.0895 147.221 47.1982 146.505 47.1982Z" fill="#2E263D" fill-opacity="0.9"/>
<path d="M339.333 29C338.508 29 337.833 29.675 337.833 30.5C337.833 31.325 338.508 32 339.333 32C340.158 32 340.833 31.325 340.833 30.5C340.833 29.675 340.158 29 339.333 29ZM339.333 44C338.508 44 337.833 44.675 337.833 45.5C337.833 46.325 338.508 47 339.333 47C340.158 47 340.833 46.325 340.833 45.5C340.833 44.675 340.158 44 339.333 44ZM339.333 36.5C338.508 36.5 337.833 37.175 337.833 38C337.833 38.825 338.508 39.5 339.333 39.5C340.158 39.5 340.833 38.825 340.833 38C340.833 37.175 340.158 36.5 339.333 36.5Z" fill="#2E263D" fill-opacity="0.9"/>
<path d="M189.678 87.6757C189.652 84.8437 191.929 82.515 194.759 82.6167C212.935 83.2697 230.717 88.2655 246.606 97.2176C263.986 107.01 278.49 121.193 288.67 138.349C298.85 155.505 304.347 175.033 304.613 194.98C304.879 214.927 299.904 234.595 290.186 252.016C280.468 269.438 266.346 284.003 249.234 294.255C232.121 304.508 212.617 310.088 192.671 310.439C172.725 310.79 153.037 305.899 135.574 296.255C119.61 287.438 106.017 274.931 95.9136 259.809C94.3402 257.454 95.1259 254.294 97.5492 252.828V252.828C99.9725 251.362 103.115 252.146 104.699 254.494C113.866 268.084 126.14 279.328 140.533 287.277C156.424 296.053 174.34 300.504 192.491 300.185C210.641 299.865 228.39 294.787 243.963 285.457C259.535 276.127 272.386 262.873 281.229 247.02C290.073 231.166 294.6 213.269 294.358 195.117C294.116 176.965 289.113 159.195 279.85 143.583C270.586 127.971 257.387 115.064 241.571 106.153C227.247 98.0823 211.231 93.5452 194.852 92.8838C192.022 92.7695 189.704 90.5078 189.678 87.6757V87.6757Z" fill="#8C57FF"/>
<path d="M190.624 108.675C190.596 105.564 193.097 103.002 196.204 103.16C212.534 103.992 228.4 109.078 242.208 117.957C257.598 127.854 269.761 142.033 277.201 158.75C284.641 175.467 287.035 193.994 284.087 212.052C281.139 230.111 272.978 246.915 260.607 260.398C248.237 273.881 232.197 283.456 214.458 287.944C196.719 292.433 178.055 291.641 160.761 285.664C143.466 279.688 128.295 268.788 117.112 254.305C107.08 241.311 100.65 225.941 98.4175 209.743C97.9928 206.661 100.331 203.949 103.433 203.71V203.71C106.535 203.47 109.224 205.796 109.674 208.874C111.721 222.883 117.34 236.164 126.03 247.419C135.871 260.164 149.221 269.756 164.441 275.016C179.66 280.275 196.084 280.972 211.694 277.022C227.304 273.072 241.42 264.647 252.306 252.782C263.192 240.917 270.373 226.129 272.967 210.237C275.562 194.345 273.456 178.042 266.908 163.331C260.361 148.62 249.657 136.143 236.114 127.434C224.153 119.742 210.438 115.285 196.306 114.449C193.2 114.266 190.652 111.787 190.624 108.675V108.675Z" fill="#56CA00"/>
<path d="M190.81 129.086C190.784 126.266 193.052 123.94 195.867 124.112C209.812 124.962 223.26 129.804 234.582 138.111C247.279 147.428 256.621 160.604 261.21 175.67C265.799 190.736 265.389 206.883 260.041 221.696C254.693 236.51 244.695 249.195 231.541 257.855C218.386 266.516 202.783 270.687 187.061 269.744C171.34 268.802 156.346 262.797 144.321 252.628C132.295 242.458 123.884 228.67 120.344 213.323C117.187 199.64 118.055 185.374 122.785 172.228C123.74 169.574 126.772 168.41 129.353 169.548V169.548C131.933 170.686 133.081 173.695 132.156 176.36C128.298 187.478 127.634 199.494 130.295 211.028C133.34 224.225 140.573 236.084 150.916 244.83C161.258 253.575 174.152 258.74 187.673 259.55C201.193 260.36 214.612 256.773 225.925 249.325C237.237 241.877 245.836 230.968 250.435 218.228C255.034 205.489 255.387 191.603 251.44 178.646C247.494 165.689 239.46 154.358 228.54 146.345C218.996 139.343 207.696 135.204 195.959 134.354C193.146 134.15 190.835 131.906 190.81 129.086V129.086Z" fill="#FFB400"/>
<path d="M172.797 202.278C171.371 202.278 170.112 202.033 169.018 201.543C167.931 201.052 167.079 200.376 166.463 199.514C165.846 198.652 165.541 197.671 165.548 196.571C165.541 195.709 165.717 194.917 166.075 194.195C166.44 193.465 166.933 192.859 167.557 192.375C168.18 191.884 168.876 191.573 169.645 191.44V191.321C168.63 191.076 167.818 190.532 167.209 189.69C166.599 188.848 166.297 187.881 166.304 186.787C166.297 185.746 166.572 184.818 167.129 184.003C167.692 183.181 168.465 182.535 169.446 182.064C170.427 181.593 171.544 181.358 172.797 181.358C174.036 181.358 175.143 181.597 176.118 182.074C177.099 182.545 177.871 183.191 178.434 184.013C178.998 184.828 179.283 185.753 179.289 186.787C179.283 187.881 178.971 188.848 178.355 189.69C177.738 190.532 176.936 191.076 175.949 191.321V191.44C176.711 191.573 177.397 191.884 178.007 192.375C178.623 192.859 179.114 193.465 179.478 194.195C179.85 194.917 180.039 195.709 180.045 196.571C180.039 197.671 179.727 198.652 179.111 199.514C178.494 200.376 177.639 201.052 176.545 201.543C175.458 202.033 174.209 202.278 172.797 202.278ZM172.797 199.763C173.638 199.763 174.368 199.624 174.984 199.345C175.601 199.06 176.078 198.666 176.416 198.162C176.754 197.652 176.926 197.055 176.933 196.372C176.926 195.663 176.741 195.036 176.376 194.493C176.018 193.949 175.531 193.522 174.914 193.21C174.298 192.899 173.592 192.743 172.797 192.743C171.994 192.743 171.282 192.899 170.659 193.21C170.036 193.522 169.545 193.949 169.187 194.493C168.829 195.036 168.654 195.663 168.66 196.372C168.654 197.055 168.816 197.652 169.147 198.162C169.486 198.666 169.966 199.06 170.589 199.345C171.212 199.624 171.948 199.763 172.797 199.763ZM172.797 190.287C173.473 190.287 174.073 190.151 174.596 189.879C175.12 189.607 175.531 189.23 175.829 188.746C176.134 188.262 176.29 187.695 176.297 187.045C176.29 186.409 176.137 185.852 175.839 185.375C175.548 184.898 175.14 184.53 174.616 184.271C174.093 184.006 173.486 183.874 172.797 183.874C172.094 183.874 171.477 184.006 170.947 184.271C170.423 184.53 170.016 184.898 169.724 185.375C169.432 185.852 169.29 186.409 169.297 187.045C169.29 187.695 169.436 188.262 169.734 188.746C170.032 189.23 170.443 189.607 170.967 189.879C171.497 190.151 172.107 190.287 172.797 190.287ZM190.379 181.358C191.287 181.365 192.182 181.53 193.063 181.855C193.945 182.18 194.74 182.71 195.45 183.446C196.166 184.182 196.736 185.176 197.16 186.429C197.591 187.675 197.809 189.226 197.816 191.082C197.816 192.866 197.637 194.453 197.279 195.845C196.921 197.231 196.407 198.401 195.738 199.355C195.075 200.31 194.27 201.036 193.322 201.533C192.374 202.03 191.307 202.278 190.12 202.278C188.907 202.278 187.83 202.04 186.889 201.562C185.947 201.085 185.182 200.426 184.592 199.584C184.002 198.735 183.634 197.761 183.488 196.661H186.521C186.72 197.536 187.124 198.245 187.734 198.788C188.35 199.325 189.146 199.594 190.12 199.594C191.612 199.594 192.775 198.944 193.61 197.645C194.445 196.339 194.866 194.516 194.873 192.176H194.714C194.369 192.746 193.938 193.237 193.421 193.648C192.911 194.059 192.337 194.377 191.701 194.602C191.065 194.828 190.385 194.94 189.663 194.94C188.489 194.94 187.422 194.652 186.461 194.075C185.5 193.499 184.734 192.706 184.164 191.699C183.594 190.691 183.309 189.541 183.309 188.249C183.309 186.963 183.601 185.796 184.184 184.749C184.774 183.701 185.596 182.873 186.65 182.263C187.711 181.646 188.953 181.345 190.379 181.358ZM190.389 183.943C189.613 183.943 188.914 184.135 188.291 184.52C187.674 184.898 187.187 185.411 186.829 186.061C186.471 186.704 186.292 187.42 186.292 188.209C186.292 188.998 186.464 189.714 186.809 190.357C187.16 190.993 187.638 191.5 188.241 191.878C188.851 192.249 189.547 192.435 190.329 192.435C190.912 192.435 191.456 192.322 191.96 192.097C192.463 191.871 192.904 191.56 193.282 191.162C193.66 190.758 193.955 190.3 194.167 189.79C194.379 189.279 194.485 188.742 194.485 188.179C194.485 187.43 194.306 186.734 193.948 186.091C193.597 185.448 193.113 184.931 192.497 184.54C191.88 184.142 191.177 183.943 190.389 183.943ZM201.686 202V181.636H204.759V191.361H205.008L213.549 181.636H217.417L209.204 190.804L217.446 202H213.748L207.165 192.902L204.759 195.666V202H201.686Z" fill="#2E263D" fill-opacity="0.9"/>
<path d="M177.024 227V226.169L180.144 222.753C180.511 222.353 180.812 222.005 181.049 221.71C181.286 221.411 181.462 221.131 181.575 220.869C181.692 220.605 181.751 220.328 181.751 220.038C181.751 219.706 181.671 219.418 181.511 219.175C181.354 218.932 181.138 218.744 180.865 218.612C180.591 218.48 180.283 218.413 179.941 218.413C179.578 218.413 179.261 218.489 178.99 218.64C178.722 218.787 178.515 218.995 178.367 219.263C178.222 219.531 178.15 219.844 178.15 220.205H177.061C177.061 219.651 177.188 219.164 177.444 218.746C177.699 218.327 178.047 218.001 178.487 217.767C178.93 217.533 179.427 217.416 179.978 217.416C180.532 217.416 181.023 217.533 181.451 217.767C181.879 218.001 182.214 218.316 182.457 218.713C182.7 219.11 182.822 219.552 182.822 220.038C182.822 220.386 182.759 220.726 182.633 221.059C182.51 221.388 182.294 221.756 181.986 222.162C181.682 222.565 181.258 223.058 180.717 223.639L178.593 225.911V225.984H182.988V227H177.024ZM187.979 227.129C187.283 227.129 186.691 226.94 186.201 226.561C185.712 226.18 185.338 225.627 185.079 224.904C184.821 224.178 184.692 223.301 184.692 222.273C184.692 221.251 184.821 220.378 185.079 219.655C185.341 218.929 185.716 218.375 186.206 217.993C186.698 217.609 187.289 217.416 187.979 217.416C188.668 217.416 189.257 217.609 189.747 217.993C190.239 218.375 190.615 218.929 190.873 219.655C191.135 220.378 191.265 221.251 191.265 222.273C191.265 223.301 191.136 224.178 190.878 224.904C190.619 225.627 190.245 226.18 189.756 226.561C189.267 226.94 188.674 227.129 187.979 227.129ZM187.979 226.114C188.668 226.114 189.203 225.781 189.585 225.116C189.967 224.452 190.157 223.504 190.157 222.273C190.157 221.454 190.07 220.757 189.894 220.181C189.722 219.606 189.473 219.167 189.146 218.866C188.823 218.564 188.434 218.413 187.979 218.413C187.295 218.413 186.761 218.75 186.377 219.424C185.992 220.095 185.8 221.045 185.8 222.273C185.8 223.091 185.886 223.787 186.058 224.359C186.23 224.932 186.478 225.367 186.801 225.666C187.128 225.964 187.52 226.114 187.979 226.114ZM193.02 227V226.169L196.14 222.753C196.507 222.353 196.808 222.005 197.045 221.71C197.282 221.411 197.458 221.131 197.572 220.869C197.689 220.605 197.747 220.328 197.747 220.038C197.747 219.706 197.667 219.418 197.507 219.175C197.35 218.932 197.135 218.744 196.861 218.612C196.587 218.48 196.279 218.413 195.937 218.413C195.574 218.413 195.257 218.489 194.986 218.64C194.719 218.787 194.511 218.995 194.363 219.263C194.218 219.531 194.146 219.844 194.146 220.205H193.057C193.057 219.651 193.184 219.164 193.44 218.746C193.695 218.327 194.043 218.001 194.483 217.767C194.926 217.533 195.423 217.416 195.974 217.416C196.528 217.416 197.019 217.533 197.447 217.767C197.875 218.001 198.21 218.316 198.453 218.713C198.696 219.11 198.818 219.552 198.818 220.038C198.818 220.386 198.755 220.726 198.629 221.059C198.506 221.388 198.29 221.756 197.982 222.162C197.678 222.565 197.255 223.058 196.713 223.639L194.589 225.911V225.984H198.984V227H193.02ZM204.215 217.545V227H203.07V218.746H203.014L200.706 220.278V219.115L203.07 217.545H204.215Z" fill="#2E263D" fill-opacity="0.7"/>
<circle cx="57.6667" cy="346" r="5" fill="#56CA00"/>
<path d="M75.7444 351.149C74.9809 351.149 74.3062 351.018 73.7203 350.755C73.1379 350.492 72.6816 350.13 72.3513 349.668C72.021 349.207 71.8577 348.681 71.8612 348.092C71.8577 347.63 71.9518 347.206 72.1436 346.819C72.3389 346.428 72.6034 346.103 72.9372 345.844C73.271 345.581 73.6439 345.414 74.0558 345.343V345.279C73.5125 345.148 73.0775 344.857 72.7508 344.406C72.4241 343.955 72.2625 343.436 72.2661 342.85C72.2625 342.293 72.4099 341.795 72.7082 341.359C73.01 340.918 73.4237 340.572 73.9493 340.32C74.4749 340.068 75.0732 339.942 75.7444 339.942C76.4085 339.942 77.0015 340.07 77.5235 340.325C78.0491 340.577 78.4628 340.924 78.7647 341.364C79.0665 341.801 79.2192 342.296 79.2228 342.85C79.2192 343.436 79.0523 343.955 78.722 344.406C78.3918 344.857 77.9621 345.148 77.433 345.279V345.343C77.8414 345.414 78.2089 345.581 78.5356 345.844C78.8659 346.103 79.1286 346.428 79.324 346.819C79.5228 347.206 79.624 347.63 79.6276 348.092C79.624 348.681 79.4571 349.207 79.1269 349.668C78.7966 350.13 78.3385 350.492 77.7526 350.755C77.1702 351.018 76.5008 351.149 75.7444 351.149ZM75.7444 349.801C76.1954 349.801 76.586 349.727 76.9163 349.578C77.2465 349.425 77.5022 349.214 77.6833 348.944C77.8644 348.67 77.9568 348.351 77.9603 347.985C77.9568 347.605 77.8573 347.27 77.662 346.978C77.4703 346.687 77.2093 346.458 76.879 346.291C76.5487 346.124 76.1705 346.041 75.7444 346.041C75.3147 346.041 74.933 346.124 74.5992 346.291C74.2654 346.458 74.0026 346.687 73.8108 346.978C73.6191 347.27 73.525 347.605 73.5285 347.985C73.525 348.351 73.612 348.67 73.7895 348.944C73.9706 349.214 74.2281 349.425 74.5619 349.578C74.8957 349.727 75.2899 349.801 75.7444 349.801ZM75.7444 344.725C76.1066 344.725 76.428 344.652 76.7085 344.507C76.9891 344.361 77.2093 344.159 77.3691 343.9C77.5324 343.64 77.6159 343.337 77.6194 342.989C77.6159 342.648 77.5342 342.349 77.3744 342.094C77.2181 341.838 76.9997 341.641 76.7192 341.502C76.4387 341.36 76.1137 341.289 75.7444 341.289C75.368 341.289 75.0377 341.36 74.7536 341.502C74.4731 341.641 74.2547 341.838 74.0985 342.094C73.9422 342.349 73.8659 342.648 73.8694 342.989C73.8659 343.337 73.944 343.64 74.1038 343.9C74.2636 344.159 74.4838 344.361 74.7643 344.507C75.0484 344.652 75.3751 344.725 75.7444 344.725ZM85.1367 351.149C84.4691 351.149 83.869 351.021 83.3363 350.766C82.8072 350.506 82.3846 350.151 82.0685 349.7C81.7525 349.249 81.5838 348.734 81.5625 348.156H83.1605C83.1996 348.624 83.4073 349.01 83.7837 349.311C84.1602 349.613 84.6112 349.764 85.1367 349.764C85.5558 349.764 85.9269 349.668 86.25 349.477C86.5767 349.281 86.8324 349.013 87.0171 348.672C87.2053 348.331 87.2994 347.942 87.2994 347.506C87.2994 347.062 87.2035 346.666 87.0117 346.318C86.82 345.97 86.5554 345.696 86.218 345.498C85.8842 345.299 85.5007 345.197 85.0675 345.194C84.7372 345.194 84.4052 345.251 84.0714 345.364C83.7376 345.478 83.4677 345.627 83.2617 345.812L81.7543 345.588L82.3668 340.091H88.3647V341.502H83.7358L83.3896 344.555H83.4535C83.6666 344.349 83.9489 344.176 84.3004 344.038C84.6555 343.9 85.0355 343.83 85.4403 343.83C86.1044 343.83 86.6957 343.988 87.2141 344.304C87.7362 344.62 88.1463 345.052 88.4446 345.599C88.7465 346.142 88.8956 346.767 88.8921 347.474C88.8956 348.18 88.7358 348.811 88.4126 349.365C88.093 349.919 87.6492 350.355 87.081 350.675C86.5163 350.991 85.8683 351.149 85.1367 351.149ZM94.6462 351.149C94.1597 351.142 93.6803 351.053 93.208 350.883C92.7393 350.712 92.3131 350.428 91.9296 350.031C91.5461 349.633 91.2389 349.098 91.0081 348.427C90.7808 347.756 90.6672 346.918 90.6672 345.913C90.6672 344.961 90.7613 344.116 90.9495 343.377C91.1413 342.639 91.4165 342.016 91.7751 341.508C92.1338 340.996 92.567 340.608 93.0748 340.341C93.5827 340.075 94.1526 339.942 94.7847 339.942C95.4346 339.942 96.0116 340.07 96.5159 340.325C97.0202 340.581 97.4285 340.934 97.741 341.385C98.0571 341.836 98.2577 342.349 98.343 342.925H96.7183C96.6082 342.47 96.3898 342.099 96.0631 341.811C95.7364 341.524 95.3103 341.38 94.7847 341.38C93.9857 341.38 93.3625 341.728 92.915 342.424C92.4712 343.12 92.2474 344.088 92.2439 345.327H92.3238C92.512 345.018 92.7428 344.755 93.0163 344.539C93.2932 344.319 93.6022 344.15 93.9431 344.033C94.2876 343.912 94.6498 343.852 95.0297 343.852C95.6618 343.852 96.2336 344.006 96.7449 344.315C97.2599 344.62 97.67 345.043 97.9754 345.583C98.2808 346.123 98.4335 346.74 98.4335 347.436C98.4335 348.132 98.2755 348.763 97.9594 349.327C97.6469 349.892 97.2066 350.339 96.6384 350.67C96.0702 350.996 95.4062 351.156 94.6462 351.149ZM94.6409 349.764C95.0599 349.764 95.4346 349.661 95.7648 349.455C96.0951 349.249 96.3561 348.972 96.5479 348.624C96.7396 348.276 96.8355 347.887 96.8355 347.458C96.8355 347.039 96.7414 346.657 96.5532 346.312C96.3685 345.968 96.1128 345.695 95.7861 345.492C95.463 345.29 95.0937 345.189 94.6782 345.189C94.3621 345.189 94.0692 345.249 93.7993 345.37C93.5329 345.49 93.2986 345.657 93.0962 345.87C92.8937 346.083 92.7339 346.328 92.6167 346.605C92.5031 346.879 92.4463 347.168 92.4463 347.474C92.4463 347.882 92.5404 348.26 92.7286 348.608C92.9204 348.956 93.1814 349.237 93.5116 349.45C93.8454 349.659 94.2219 349.764 94.6409 349.764Z" fill="#2E263D" fill-opacity="0.9"/>
<path d="M51.1383 366.091V377H49.8599L43.9153 368.435H43.8087V377H42.4877V366.091H43.7661L49.732 374.678H49.8386V366.091H51.1383ZM57.0416 377.17C56.2532 377.17 55.5732 376.996 55.0015 376.648C54.4333 376.297 53.9947 375.807 53.6858 375.178C53.3804 374.546 53.2277 373.811 53.2277 372.973C53.2277 372.135 53.3804 371.396 53.6858 370.757C53.9947 370.114 54.4244 369.614 54.9748 369.255C55.5288 368.893 56.1751 368.712 56.9138 368.712C57.3399 368.712 57.7607 368.783 58.1762 368.925C58.5917 369.067 58.9699 369.298 59.3108 369.617C59.6517 369.933 59.9233 370.352 60.1258 370.874C60.3282 371.396 60.4294 372.039 60.4294 372.803V373.335H54.1226V372.249H59.151C59.151 371.787 59.0586 371.375 58.874 371.013C58.6929 370.651 58.4336 370.365 58.0963 370.155C57.7625 369.946 57.3683 369.841 56.9138 369.841C56.413 369.841 55.9798 369.965 55.614 370.214C55.2518 370.459 54.9731 370.778 54.7777 371.173C54.5824 371.567 54.4848 371.989 54.4848 372.44V373.165C54.4848 373.783 54.5913 374.306 54.8044 374.736C55.021 375.162 55.3211 375.487 55.7046 375.711C56.0881 375.931 56.5338 376.041 57.0416 376.041C57.3719 376.041 57.6701 375.995 57.9365 375.903C58.2064 375.807 58.439 375.665 58.6343 375.477C58.8296 375.285 58.9805 375.047 59.0871 374.763L60.3015 375.104C60.1737 375.516 59.9589 375.878 59.657 376.19C59.3552 376.499 58.9823 376.741 58.5384 376.915C58.0945 377.085 57.5956 377.17 57.0416 377.17ZM64.1954 377L61.7025 368.818H63.0235L64.792 375.082H64.8772L66.6243 368.818H67.9667L69.6925 375.061H69.7777L71.5462 368.818H72.8672L70.3743 377H69.1385L67.3488 370.714H67.2209L65.4312 377H64.1954ZM86.0775 366.091H87.3985V373.314C87.3985 374.06 87.2227 374.725 86.8711 375.311C86.5231 375.894 86.0313 376.354 85.3956 376.691C84.76 377.025 84.0143 377.192 83.1584 377.192C82.3026 377.192 81.5569 377.025 80.9212 376.691C80.2856 376.354 79.792 375.894 79.4404 375.311C79.0924 374.725 78.9184 374.06 78.9184 373.314V366.091H80.2394V373.207C80.2394 373.74 80.3566 374.214 80.591 374.63C80.8253 375.042 81.1591 375.366 81.5924 375.604C82.0292 375.839 82.5512 375.956 83.1584 375.956C83.7657 375.956 84.2877 375.839 84.7245 375.604C85.1613 375.366 85.4951 375.042 85.7259 374.63C85.9603 374.214 86.0775 373.74 86.0775 373.207V366.091ZM95.6615 370.651L94.5323 370.97C94.4613 370.782 94.3565 370.599 94.218 370.422C94.0831 370.24 93.8984 370.091 93.664 369.974C93.4296 369.857 93.1296 369.798 92.7638 369.798C92.2631 369.798 91.8458 369.914 91.512 370.145C91.1818 370.372 91.0167 370.661 91.0167 371.013C91.0167 371.325 91.1303 371.572 91.3576 371.753C91.5848 371.934 91.9399 372.085 92.4229 372.206L93.6374 372.504C94.3689 372.682 94.914 372.953 95.2727 373.319C95.6314 373.681 95.8107 374.148 95.8107 374.72C95.8107 375.189 95.6757 375.608 95.4059 375.977C95.1395 376.347 94.7667 376.638 94.2872 376.851C93.8078 377.064 93.2503 377.17 92.6147 377.17C91.7801 377.17 91.0894 376.989 90.5426 376.627C89.9957 376.265 89.6495 375.736 89.5039 375.04L90.697 374.741C90.8107 375.182 91.0255 375.512 91.3416 375.732C91.6612 375.952 92.0784 376.062 92.5934 376.062C93.1793 376.062 93.6445 375.938 93.989 375.69C94.337 375.437 94.511 375.136 94.511 374.784C94.511 374.5 94.4115 374.262 94.2127 374.07C94.0138 373.875 93.7084 373.729 93.2965 373.634L91.9328 373.314C91.1836 373.136 90.6331 372.861 90.2816 372.488C89.9336 372.112 89.7595 371.641 89.7595 371.077C89.7595 370.615 89.8892 370.207 90.1484 369.852C90.4112 369.496 90.7681 369.218 91.2191 369.015C91.6736 368.813 92.1885 368.712 92.7638 368.712C93.5735 368.712 94.2091 368.889 94.6708 369.244C95.136 369.599 95.4662 370.068 95.6615 370.651ZM101.133 377.17C100.345 377.17 99.665 376.996 99.0933 376.648C98.5251 376.297 98.0865 375.807 97.7776 375.178C97.4722 374.546 97.3195 373.811 97.3195 372.973C97.3195 372.135 97.4722 371.396 97.7776 370.757C98.0865 370.114 98.5162 369.614 99.0666 369.255C99.6206 368.893 100.267 368.712 101.006 368.712C101.432 368.712 101.853 368.783 102.268 368.925C102.683 369.067 103.062 369.298 103.403 369.617C103.743 369.933 104.015 370.352 104.218 370.874C104.42 371.396 104.521 372.039 104.521 372.803V373.335H98.2144V372.249H103.243C103.243 371.787 103.15 371.375 102.966 371.013C102.785 370.651 102.525 370.365 102.188 370.155C101.854 369.946 101.46 369.841 101.006 369.841C100.505 369.841 100.072 369.965 99.7058 370.214C99.3436 370.459 99.0649 370.778 98.8695 371.173C98.6742 371.567 98.5766 371.989 98.5766 372.44V373.165C98.5766 373.783 98.6831 374.306 98.8962 374.736C99.1128 375.162 99.4129 375.487 99.7964 375.711C100.18 375.931 100.626 376.041 101.133 376.041C101.464 376.041 101.762 375.995 102.028 375.903C102.298 375.807 102.531 375.665 102.726 375.477C102.921 375.285 103.072 375.047 103.179 374.763L104.393 375.104C104.265 375.516 104.051 375.878 103.749 376.19C103.447 376.499 103.074 376.741 102.63 376.915C102.186 377.085 101.687 377.17 101.133 377.17ZM106.433 377V368.818H107.648V370.054H107.733C107.882 369.649 108.152 369.321 108.543 369.069C108.933 368.816 109.374 368.69 109.864 368.69C109.956 368.69 110.072 368.692 110.21 368.696C110.349 368.699 110.453 368.705 110.524 368.712V369.99C110.482 369.979 110.384 369.963 110.231 369.942C110.082 369.917 109.924 369.905 109.757 369.905C109.36 369.905 109.004 369.988 108.692 370.155C108.383 370.319 108.138 370.546 107.957 370.837C107.779 371.125 107.691 371.453 107.691 371.822V377H106.433Z" fill="#2E263D" fill-opacity="0.7"/>
<line x1="135.667" y1="335" x2="135.667" y2="383" stroke="#2E263D" stroke-opacity="0.12"/>
<circle cx="175.167" cy="346" r="5" fill="#8C57FF"/>
<path d="M193.122 351.149C192.39 351.149 191.737 351.023 191.162 350.771C190.59 350.519 190.137 350.169 189.803 349.722C189.473 349.271 189.296 348.749 189.271 348.156H190.943C190.965 348.479 191.073 348.759 191.268 348.997C191.467 349.232 191.726 349.413 192.046 349.54C192.366 349.668 192.721 349.732 193.111 349.732C193.541 349.732 193.921 349.658 194.251 349.509C194.585 349.359 194.846 349.152 195.034 348.885C195.222 348.615 195.317 348.305 195.317 347.953C195.317 347.587 195.222 347.266 195.034 346.989C194.85 346.708 194.578 346.488 194.219 346.328C193.864 346.169 193.434 346.089 192.93 346.089H192.009V344.746H192.93C193.335 344.746 193.69 344.674 193.996 344.528C194.304 344.382 194.546 344.18 194.72 343.921C194.894 343.658 194.981 343.351 194.981 342.999C194.981 342.662 194.905 342.369 194.752 342.12C194.603 341.868 194.39 341.671 194.113 341.529C193.839 341.387 193.516 341.316 193.143 341.316C192.788 341.316 192.456 341.382 192.147 341.513C191.842 341.641 191.593 341.826 191.401 342.067C191.21 342.305 191.107 342.591 191.092 342.925H189.5C189.518 342.335 189.692 341.817 190.022 341.369C190.356 340.922 190.796 340.572 191.343 340.32C191.89 340.068 192.497 339.942 193.165 339.942C193.864 339.942 194.468 340.078 194.976 340.352C195.487 340.622 195.881 340.982 196.158 341.433C196.439 341.884 196.577 342.378 196.574 342.914C196.577 343.525 196.407 344.043 196.062 344.469C195.721 344.896 195.267 345.181 194.699 345.327V345.412C195.423 345.522 195.984 345.81 196.382 346.275C196.783 346.74 196.982 347.317 196.978 348.006C196.982 348.607 196.815 349.145 196.478 349.62C196.144 350.096 195.688 350.471 195.109 350.744C194.53 351.014 193.868 351.149 193.122 351.149ZM198.763 348.869V347.538L203.477 340.091H204.526V342.051H203.861L200.489 347.388V347.474H206.95V348.869H198.763ZM203.935 351V348.464L203.946 347.857V340.091H205.507V351H203.935ZM212.407 351.149C211.74 351.149 211.14 351.021 210.607 350.766C210.078 350.506 209.655 350.151 209.339 349.7C209.023 349.249 208.854 348.734 208.833 348.156H210.431C210.47 348.624 210.678 349.01 211.054 349.311C211.431 349.613 211.882 349.764 212.407 349.764C212.826 349.764 213.197 349.668 213.521 349.477C213.847 349.281 214.103 349.013 214.288 348.672C214.476 348.331 214.57 347.942 214.57 347.506C214.57 347.062 214.474 346.666 214.282 346.318C214.091 345.97 213.826 345.696 213.489 345.498C213.155 345.299 212.771 345.197 212.338 345.194C212.008 345.194 211.676 345.251 211.342 345.364C211.008 345.478 210.738 345.627 210.532 345.812L209.025 345.588L209.637 340.091H215.635V341.502H211.006L210.66 344.555H210.724C210.937 344.349 211.219 344.176 211.571 344.038C211.926 343.9 212.306 343.83 212.711 343.83C213.375 343.83 213.966 343.988 214.485 344.304C215.007 344.62 215.417 345.052 215.715 345.599C216.017 346.142 216.166 346.767 216.163 347.474C216.166 348.18 216.006 348.811 215.683 349.365C215.364 349.919 214.92 350.355 214.352 350.675C213.787 350.991 213.139 351.149 212.407 351.149Z" fill="#2E263D" fill-opacity="0.9"/>
<path d="M160.488 377V366.091H164.174C165.026 366.091 165.726 366.237 166.273 366.528C166.819 366.815 167.224 367.211 167.487 367.716C167.75 368.22 167.881 368.793 167.881 369.436C167.881 370.079 167.75 370.649 167.487 371.146C167.224 371.643 166.821 372.034 166.278 372.318C165.735 372.598 165.04 372.739 164.195 372.739H161.212V371.545H164.153C164.735 371.545 165.204 371.46 165.559 371.29C165.917 371.119 166.177 370.878 166.336 370.565C166.5 370.249 166.582 369.873 166.582 369.436C166.582 368.999 166.5 368.618 166.336 368.291C166.173 367.964 165.912 367.712 165.553 367.534C165.195 367.353 164.721 367.263 164.131 367.263H161.809V377H160.488ZM165.623 372.099L168.307 377H166.773L164.131 372.099H165.623ZM173.255 377.17C172.466 377.17 171.786 376.996 171.214 376.648C170.646 376.297 170.208 375.807 169.899 375.178C169.593 374.546 169.441 373.811 169.441 372.973C169.441 372.135 169.593 371.396 169.899 370.757C170.208 370.114 170.637 369.614 171.188 369.255C171.742 368.893 172.388 368.712 173.127 368.712C173.553 368.712 173.974 368.783 174.389 368.925C174.805 369.067 175.183 369.298 175.524 369.617C175.865 369.933 176.136 370.352 176.339 370.874C176.541 371.396 176.642 372.039 176.642 372.803V373.335H170.336V372.249H175.364C175.364 371.787 175.272 371.375 175.087 371.013C174.906 370.651 174.647 370.365 174.309 370.155C173.975 369.946 173.581 369.841 173.127 369.841C172.626 369.841 172.193 369.965 171.827 370.214C171.465 370.459 171.186 370.778 170.991 371.173C170.795 371.567 170.698 371.989 170.698 372.44V373.165C170.698 373.783 170.804 374.306 171.017 374.736C171.234 375.162 171.534 375.487 171.918 375.711C172.301 375.931 172.747 376.041 173.255 376.041C173.585 376.041 173.883 375.995 174.149 375.903C174.419 375.807 174.652 375.665 174.847 375.477C175.043 375.285 175.193 375.047 175.3 374.763L176.514 375.104C176.387 375.516 176.172 375.878 175.87 376.19C175.568 376.499 175.195 376.741 174.751 376.915C174.307 377.085 173.809 377.17 173.255 377.17ZM182.113 368.818V369.884H177.873V368.818H182.113ZM179.109 366.858H180.366V374.656C180.366 375.011 180.417 375.278 180.52 375.455C180.627 375.629 180.762 375.746 180.925 375.807C181.092 375.864 181.268 375.892 181.452 375.892C181.591 375.892 181.704 375.885 181.793 375.871C181.882 375.853 181.953 375.839 182.006 375.828L182.262 376.957C182.177 376.989 182.058 377.021 181.905 377.053C181.752 377.089 181.559 377.107 181.325 377.107C180.969 377.107 180.621 377.03 180.28 376.877C179.943 376.725 179.663 376.492 179.439 376.18C179.219 375.867 179.109 375.473 179.109 374.997V366.858ZM189.16 373.655V368.818H190.417V377H189.16V375.615H189.075C188.883 376.031 188.585 376.384 188.18 376.675C187.775 376.963 187.264 377.107 186.646 377.107C186.135 377.107 185.68 376.995 185.282 376.771C184.885 376.544 184.572 376.203 184.345 375.748C184.117 375.29 184.004 374.713 184.004 374.017V368.818H185.261V373.932C185.261 374.528 185.428 375.004 185.762 375.359C186.099 375.714 186.529 375.892 187.051 375.892C187.363 375.892 187.681 375.812 188.004 375.652C188.331 375.493 188.604 375.248 188.825 374.917C189.048 374.587 189.16 374.166 189.16 373.655ZM192.72 377V368.818H193.934V370.054H194.019C194.169 369.649 194.438 369.321 194.829 369.069C195.22 368.816 195.66 368.69 196.15 368.69C196.242 368.69 196.358 368.692 196.496 368.696C196.635 368.699 196.74 368.705 196.811 368.712V369.99C196.768 369.979 196.67 369.963 196.518 369.942C196.368 369.917 196.21 369.905 196.044 369.905C195.646 369.905 195.291 369.988 194.978 370.155C194.669 370.319 194.424 370.546 194.243 370.837C194.066 371.125 193.977 371.453 193.977 371.822V377H192.72ZM199.558 372.078V377H198.301V368.818H199.515V370.097H199.622C199.813 369.681 200.105 369.347 200.495 369.095C200.886 368.839 201.39 368.712 202.008 368.712C202.562 368.712 203.047 368.825 203.462 369.053C203.878 369.276 204.201 369.617 204.432 370.075C204.663 370.53 204.778 371.105 204.778 371.801V377H203.521V371.886C203.521 371.244 203.354 370.743 203.02 370.384C202.686 370.022 202.228 369.841 201.646 369.841C201.245 369.841 200.886 369.928 200.57 370.102C200.257 370.276 200.011 370.53 199.829 370.864C199.648 371.197 199.558 371.602 199.558 372.078ZM207.075 377V368.818H208.332V377H207.075ZM207.714 367.455C207.469 367.455 207.258 367.371 207.08 367.204C206.906 367.037 206.819 366.837 206.819 366.602C206.819 366.368 206.906 366.167 207.08 366C207.258 365.833 207.469 365.75 207.714 365.75C207.959 365.75 208.169 365.833 208.343 366C208.52 366.167 208.609 366.368 208.609 366.602C208.609 366.837 208.52 367.037 208.343 367.204C208.169 367.371 207.959 367.455 207.714 367.455ZM211.892 372.078V377H210.635V368.818H211.849V370.097H211.956C212.147 369.681 212.439 369.347 212.829 369.095C213.22 368.839 213.724 368.712 214.342 368.712C214.896 368.712 215.381 368.825 215.796 369.053C216.212 369.276 216.535 369.617 216.766 370.075C216.997 370.53 217.112 371.105 217.112 371.801V377H215.855V371.886C215.855 371.244 215.688 370.743 215.354 370.384C215.02 370.022 214.562 369.841 213.98 369.841C213.579 369.841 213.22 369.928 212.904 370.102C212.591 370.276 212.345 370.53 212.163 370.864C211.982 371.197 211.892 371.602 211.892 372.078ZM222.712 380.239C222.104 380.239 221.582 380.161 221.146 380.004C220.709 379.852 220.345 379.649 220.054 379.397C219.766 379.148 219.537 378.882 219.366 378.598L220.368 377.895C220.482 378.044 220.625 378.214 220.799 378.406C220.973 378.602 221.211 378.77 221.513 378.912C221.819 379.058 222.218 379.131 222.712 379.131C223.372 379.131 223.917 378.971 224.347 378.651C224.777 378.332 224.991 377.831 224.991 377.149V375.487H224.885C224.793 375.636 224.661 375.821 224.491 376.041C224.324 376.258 224.082 376.451 223.766 376.622C223.454 376.789 223.031 376.872 222.499 376.872C221.838 376.872 221.245 376.716 220.719 376.403C220.197 376.091 219.784 375.636 219.478 375.04C219.177 374.443 219.026 373.719 219.026 372.866C219.026 372.028 219.173 371.299 219.468 370.677C219.762 370.052 220.173 369.569 220.698 369.228C221.224 368.884 221.831 368.712 222.52 368.712C223.053 368.712 223.475 368.8 223.788 368.978C224.104 369.152 224.345 369.351 224.512 369.575C224.683 369.795 224.814 369.976 224.906 370.118H225.034V368.818H226.249V377.234C226.249 377.938 226.089 378.509 225.769 378.95C225.453 379.393 225.027 379.718 224.491 379.924C223.958 380.134 223.365 380.239 222.712 380.239ZM222.669 375.743C223.173 375.743 223.599 375.627 223.947 375.397C224.295 375.166 224.56 374.834 224.741 374.401C224.922 373.967 225.013 373.449 225.013 372.845C225.013 372.256 224.924 371.735 224.746 371.284C224.569 370.833 224.306 370.48 223.958 370.224C223.61 369.969 223.18 369.841 222.669 369.841C222.136 369.841 221.692 369.976 221.337 370.246C220.986 370.516 220.721 370.878 220.544 371.332C220.37 371.787 220.283 372.291 220.283 372.845C220.283 373.413 220.371 373.916 220.549 374.353C220.73 374.786 220.996 375.127 221.348 375.375C221.703 375.62 222.143 375.743 222.669 375.743Z" fill="#2E263D" fill-opacity="0.7"/>
<line x1="252.667" y1="335" x2="252.667" y2="383" stroke="#2E263D" stroke-opacity="0.12"/>
<circle cx="290.167" cy="346" r="5" fill="#FFB400"/>
<path d="M304.227 351V349.807L307.918 345.982C308.312 345.567 308.637 345.203 308.893 344.89C309.152 344.574 309.346 344.274 309.474 343.99C309.601 343.706 309.665 343.404 309.665 343.085C309.665 342.722 309.58 342.41 309.41 342.147C309.239 341.881 309.007 341.676 308.712 341.534C308.417 341.389 308.085 341.316 307.716 341.316C307.325 341.316 306.984 341.396 306.693 341.556C306.402 341.716 306.178 341.941 306.022 342.232C305.866 342.523 305.788 342.864 305.788 343.255H304.216C304.216 342.591 304.369 342.01 304.674 341.513C304.98 341.016 305.399 340.631 305.931 340.357C306.464 340.08 307.07 339.942 307.748 339.942C308.433 339.942 309.037 340.078 309.559 340.352C310.084 340.622 310.495 340.991 310.789 341.46C311.084 341.925 311.231 342.451 311.231 343.037C311.231 343.441 311.155 343.837 311.002 344.224C310.853 344.612 310.592 345.043 310.219 345.519C309.847 345.991 309.328 346.565 308.664 347.239L306.496 349.509V349.588H311.407V351H304.227ZM317.027 351.149C316.359 351.149 315.759 351.021 315.226 350.766C314.697 350.506 314.275 350.151 313.959 349.7C313.643 349.249 313.474 348.734 313.453 348.156H315.051C315.09 348.624 315.298 349.01 315.674 349.311C316.05 349.613 316.501 349.764 317.027 349.764C317.446 349.764 317.817 349.668 318.14 349.477C318.467 349.281 318.723 349.013 318.907 348.672C319.095 348.331 319.19 347.942 319.19 347.506C319.19 347.062 319.094 346.666 318.902 346.318C318.71 345.97 318.446 345.696 318.108 345.498C317.774 345.299 317.391 345.197 316.958 345.194C316.627 345.194 316.295 345.251 315.962 345.364C315.628 345.478 315.358 345.627 315.152 345.812L313.644 345.588L314.257 340.091H320.255V341.502H315.626L315.28 344.555H315.344C315.557 344.349 315.839 344.176 316.191 344.038C316.546 343.9 316.926 343.83 317.331 343.83C317.995 343.83 318.586 343.988 319.104 344.304C319.626 344.62 320.037 345.052 320.335 345.599C320.637 346.142 320.786 346.767 320.782 347.474C320.786 348.18 320.626 348.811 320.303 349.365C319.983 349.919 319.539 350.355 318.971 350.675C318.407 350.991 317.758 351.149 317.027 351.149ZM326.414 351.149C325.65 351.149 324.976 351.018 324.39 350.755C323.807 350.492 323.351 350.13 323.021 349.668C322.691 349.207 322.527 348.681 322.531 348.092C322.527 347.63 322.621 347.206 322.813 346.819C323.008 346.428 323.273 346.103 323.607 345.844C323.941 345.581 324.313 345.414 324.725 345.343V345.279C324.182 345.148 323.747 344.857 323.42 344.406C323.094 343.955 322.932 343.436 322.936 342.85C322.932 342.293 323.079 341.795 323.378 341.359C323.68 340.918 324.093 340.572 324.619 340.32C325.144 340.068 325.743 339.942 326.414 339.942C327.078 339.942 327.671 340.07 328.193 340.325C328.719 340.577 329.132 340.924 329.434 341.364C329.736 341.801 329.889 342.296 329.892 342.85C329.889 343.436 329.722 343.955 329.392 344.406C329.061 344.857 328.632 345.148 328.102 345.279V345.343C328.511 345.414 328.878 345.581 329.205 345.844C329.535 346.103 329.798 346.428 329.993 346.819C330.192 347.206 330.294 347.63 330.297 348.092C330.294 348.681 330.127 349.207 329.796 349.668C329.466 350.13 329.008 350.492 328.422 350.755C327.84 351.018 327.17 351.149 326.414 351.149ZM326.414 349.801C326.865 349.801 327.256 349.727 327.586 349.578C327.916 349.425 328.172 349.214 328.353 348.944C328.534 348.67 328.626 348.351 328.63 347.985C328.626 347.605 328.527 347.27 328.332 346.978C328.14 346.687 327.879 346.458 327.548 346.291C327.218 346.124 326.84 346.041 326.414 346.041C325.984 346.041 325.602 346.124 325.269 346.291C324.935 346.458 324.672 346.687 324.48 346.978C324.289 347.27 324.194 347.605 324.198 347.985C324.194 348.351 324.281 348.67 324.459 348.944C324.64 349.214 324.898 349.425 325.231 349.578C325.565 349.727 325.959 349.801 326.414 349.801ZM326.414 344.725C326.776 344.725 327.098 344.652 327.378 344.507C327.659 344.361 327.879 344.159 328.039 343.9C328.202 343.64 328.285 343.337 328.289 342.989C328.285 342.648 328.204 342.349 328.044 342.094C327.888 341.838 327.669 341.641 327.389 341.502C327.108 341.36 326.783 341.289 326.414 341.289C326.037 341.289 325.707 341.36 325.423 341.502C325.143 341.641 324.924 341.838 324.768 342.094C324.612 342.349 324.535 342.648 324.539 342.989C324.535 343.337 324.613 343.64 324.773 343.9C324.933 344.159 325.153 344.361 325.434 344.507C325.718 344.652 326.045 344.725 326.414 344.725Z" fill="#2E263D" fill-opacity="0.9"/>
<path d="M277.488 377V366.091H281.174C282.026 366.091 282.726 366.237 283.273 366.528C283.819 366.815 284.224 367.211 284.487 367.716C284.75 368.22 284.881 368.793 284.881 369.436C284.881 370.079 284.75 370.649 284.487 371.146C284.224 371.643 283.821 372.034 283.278 372.318C282.735 372.598 282.04 372.739 281.195 372.739H278.212V371.545H281.153C281.735 371.545 282.204 371.46 282.559 371.29C282.917 371.119 283.177 370.878 283.336 370.565C283.5 370.249 283.582 369.873 283.582 369.436C283.582 368.999 283.5 368.618 283.336 368.291C283.173 367.964 282.912 367.712 282.553 367.534C282.195 367.353 281.721 367.263 281.131 367.263H278.809V377H277.488ZM282.623 372.099L285.307 377H283.773L281.131 372.099H282.623ZM290.255 377.17C289.466 377.17 288.786 376.996 288.214 376.648C287.646 376.297 287.208 375.807 286.899 375.178C286.593 374.546 286.441 373.811 286.441 372.973C286.441 372.135 286.593 371.396 286.899 370.757C287.208 370.114 287.637 369.614 288.188 369.255C288.742 368.893 289.388 368.712 290.127 368.712C290.553 368.712 290.974 368.783 291.389 368.925C291.805 369.067 292.183 369.298 292.524 369.617C292.865 369.933 293.136 370.352 293.339 370.874C293.541 371.396 293.642 372.039 293.642 372.803V373.335H287.336V372.249H292.364C292.364 371.787 292.272 371.375 292.087 371.013C291.906 370.651 291.647 370.365 291.309 370.155C290.975 369.946 290.581 369.841 290.127 369.841C289.626 369.841 289.193 369.965 288.827 370.214C288.465 370.459 288.186 370.778 287.991 371.173C287.795 371.567 287.698 371.989 287.698 372.44V373.165C287.698 373.783 287.804 374.306 288.017 374.736C288.234 375.162 288.534 375.487 288.918 375.711C289.301 375.931 289.747 376.041 290.255 376.041C290.585 376.041 290.883 375.995 291.149 375.903C291.419 375.807 291.652 375.665 291.847 375.477C292.043 375.285 292.193 375.047 292.3 374.763L293.514 375.104C293.387 375.516 293.172 375.878 292.87 376.19C292.568 376.499 292.195 376.741 291.751 376.915C291.307 377.085 290.809 377.17 290.255 377.17ZM299.198 368.818V369.884H294.788V368.818H299.198ZM296.109 377V367.689C296.109 367.22 296.219 366.83 296.439 366.517C296.659 366.205 296.945 365.97 297.296 365.814C297.648 365.658 298.019 365.58 298.41 365.58C298.719 365.58 298.971 365.604 299.166 365.654C299.361 365.704 299.507 365.75 299.603 365.793L299.241 366.879C299.177 366.858 299.088 366.831 298.974 366.799C298.864 366.767 298.719 366.751 298.538 366.751C298.122 366.751 297.822 366.856 297.637 367.066C297.456 367.275 297.366 367.582 297.366 367.987V377H296.109ZM304.053 377.17C303.265 377.17 302.585 376.996 302.013 376.648C301.445 376.297 301.007 375.807 300.698 375.178C300.392 374.546 300.239 373.811 300.239 372.973C300.239 372.135 300.392 371.396 300.698 370.757C301.007 370.114 301.436 369.614 301.987 369.255C302.541 368.893 303.187 368.712 303.926 368.712C304.352 368.712 304.772 368.783 305.188 368.925C305.603 369.067 305.982 369.298 306.323 369.617C306.663 369.933 306.935 370.352 307.138 370.874C307.34 371.396 307.441 372.039 307.441 372.803V373.335H301.134V372.249H306.163C306.163 371.787 306.07 371.375 305.886 371.013C305.705 370.651 305.445 370.365 305.108 370.155C304.774 369.946 304.38 369.841 303.926 369.841C303.425 369.841 302.992 369.965 302.626 370.214C302.264 370.459 301.985 370.778 301.79 371.173C301.594 371.567 301.497 371.989 301.497 372.44V373.165C301.497 373.783 301.603 374.306 301.816 374.736C302.033 375.162 302.333 375.487 302.716 375.711C303.1 375.931 303.546 376.041 304.053 376.041C304.384 376.041 304.682 375.995 304.948 375.903C305.218 375.807 305.451 375.665 305.646 375.477C305.841 375.285 305.992 375.047 306.099 374.763L307.313 375.104C307.185 375.516 306.971 375.878 306.669 376.19C306.367 376.499 305.994 376.741 305.55 376.915C305.106 377.085 304.607 377.17 304.053 377.17ZM309.353 377V368.818H310.568V370.054H310.653C310.802 369.649 311.072 369.321 311.463 369.069C311.853 368.816 312.294 368.69 312.784 368.69C312.876 368.69 312.992 368.692 313.13 368.696C313.269 368.699 313.373 368.705 313.444 368.712V369.99C313.402 369.979 313.304 369.963 313.151 369.942C313.002 369.917 312.844 369.905 312.677 369.905C312.28 369.905 311.924 369.988 311.612 370.155C311.303 370.319 311.058 370.546 310.877 370.837C310.699 371.125 310.611 371.453 310.611 371.822V377H309.353ZM314.935 377V368.818H316.149V370.054H316.234C316.383 369.649 316.653 369.321 317.044 369.069C317.435 368.816 317.875 368.69 318.365 368.69C318.457 368.69 318.573 368.692 318.711 368.696C318.85 368.699 318.954 368.705 319.025 368.712V369.99C318.983 369.979 318.885 369.963 318.732 369.942C318.583 369.917 318.425 369.905 318.258 369.905C317.861 369.905 317.506 369.988 317.193 370.155C316.884 370.319 316.639 370.546 316.458 370.837C316.28 371.125 316.192 371.453 316.192 371.822V377H314.935ZM322.923 377.192C322.405 377.192 321.934 377.094 321.512 376.899C321.089 376.7 320.753 376.414 320.505 376.041C320.256 375.665 320.132 375.21 320.132 374.678C320.132 374.209 320.224 373.829 320.409 373.538C320.594 373.243 320.84 373.012 321.149 372.845C321.458 372.678 321.799 372.554 322.172 372.472C322.549 372.387 322.927 372.32 323.307 372.27C323.804 372.206 324.207 372.158 324.516 372.126C324.828 372.091 325.056 372.032 325.198 371.95C325.343 371.869 325.416 371.727 325.416 371.524V371.482C325.416 370.956 325.272 370.548 324.985 370.256C324.701 369.965 324.269 369.82 323.69 369.82C323.09 369.82 322.62 369.951 322.279 370.214C321.938 370.477 321.698 370.757 321.56 371.055L320.366 370.629C320.579 370.132 320.864 369.745 321.219 369.468C321.577 369.187 321.968 368.992 322.391 368.882C322.817 368.768 323.236 368.712 323.648 368.712C323.91 368.712 324.212 368.744 324.553 368.808C324.898 368.868 325.23 368.994 325.549 369.186C325.872 369.377 326.141 369.667 326.354 370.054C326.567 370.441 326.673 370.96 326.673 371.609V377H325.416V375.892H325.352C325.267 376.07 325.125 376.26 324.926 376.462C324.727 376.664 324.463 376.837 324.132 376.979C323.802 377.121 323.399 377.192 322.923 377.192ZM323.115 376.062C323.612 376.062 324.031 375.965 324.372 375.77C324.717 375.574 324.976 375.322 325.15 375.013C325.327 374.704 325.416 374.379 325.416 374.038V372.888C325.363 372.952 325.246 373.01 325.065 373.064C324.887 373.113 324.681 373.158 324.447 373.197C324.216 373.232 323.99 373.264 323.77 373.293C323.554 373.317 323.378 373.339 323.243 373.357C322.916 373.399 322.611 373.468 322.327 373.564C322.046 373.657 321.819 373.797 321.645 373.985C321.474 374.17 321.389 374.422 321.389 374.741C321.389 375.178 321.551 375.509 321.874 375.732C322.201 375.952 322.614 376.062 323.115 376.062ZM330.225 366.091V377H328.968V366.091H330.225ZM338.323 370.651L337.193 370.97C337.122 370.782 337.018 370.599 336.879 370.422C336.744 370.24 336.56 370.091 336.325 369.974C336.091 369.857 335.791 369.798 335.425 369.798C334.924 369.798 334.507 369.914 334.173 370.145C333.843 370.372 333.678 370.661 333.678 371.013C333.678 371.325 333.791 371.572 334.019 371.753C334.246 371.934 334.601 372.085 335.084 372.206L336.299 372.504C337.03 372.682 337.575 372.953 337.934 373.319C338.293 373.681 338.472 374.148 338.472 374.72C338.472 375.189 338.337 375.608 338.067 375.977C337.801 376.347 337.428 376.638 336.948 376.851C336.469 377.064 335.912 377.17 335.276 377.17C334.441 377.17 333.751 376.989 333.204 376.627C332.657 376.265 332.311 375.736 332.165 375.04L333.358 374.741C333.472 375.182 333.687 375.512 334.003 375.732C334.322 375.952 334.74 376.062 335.255 376.062C335.84 376.062 336.306 375.938 336.65 375.69C336.998 375.437 337.172 375.136 337.172 374.784C337.172 374.5 337.073 374.262 336.874 374.07C336.675 373.875 336.37 373.729 335.958 373.634L334.594 373.314C333.845 373.136 333.294 372.861 332.943 372.488C332.595 372.112 332.421 371.641 332.421 371.077C332.421 370.615 332.55 370.207 332.81 369.852C333.072 369.496 333.429 369.218 333.88 369.015C334.335 368.813 334.85 368.712 335.425 368.712C336.235 368.712 336.87 368.889 337.332 369.244C337.797 369.599 338.127 370.068 338.323 370.651Z" fill="#2E263D" fill-opacity="0.7"/>
</g>
<defs>
<filter id="filter0_d_8003_5312" x="0" y="0" width="381.333" height="417" filterUnits="userSpaceOnUse" color-interpolation-filters="sRGB">
<feFlood flood-opacity="0" result="BackgroundImageFix"/>
<feColorMatrix in="SourceAlpha" type="matrix" values="0 0 0 0 0 0 0 0 0 0 0 0 0 0 0 0 0 0 127 0" result="hardAlpha"/>
<feOffset dy="4"/>
<feGaussianBlur stdDeviation="5"/>
<feComposite in2="hardAlpha" operator="out"/>
<feColorMatrix type="matrix" values="0 0 0 0 0.180392 0 0 0 0 0.14902 0 0 0 0 0.239216 0 0 0 0.2 0"/>
<feBlend mode="normal" in2="BackgroundImageFix" result="effect1_dropShadow_8003_5312"/>
<feBlend mode="normal" in="SourceGraphic" in2="effect1_dropShadow_8003_5312" result="shape"/>
</filter>
</defs>
</svg>
