<svg width="189" height="208" viewBox="0 0 189 208" fill="none" xmlns="http://www.w3.org/2000/svg">
<g filter="url(#filter0_d_8003_4419)">
<path d="M10 12C10 8.68629 12.6863 6 16 6H172.667C175.98 6 178.667 8.68629 178.667 12V188C178.667 191.314 175.98 194 172.667 194H16C12.6863 194 10 191.314 10 188V12Z" fill="white" shape-rendering="crispEdges"/>
<g filter="url(#filter1_d_8003_4419)">
<rect x="30" y="26" width="40" height="40" rx="20" fill="#16B1FF"/>
<path d="M41 37H59C59.2652 37 59.5196 37.1054 59.7071 37.2929C59.8946 37.4804 60 37.7348 60 38V54C60 54.2652 59.8946 54.5196 59.7071 54.7071C59.5196 54.8946 59.2652 55 59 55H41C40.7348 55 40.4804 54.8946 40.2929 54.7071C40.1054 54.5196 40 54.2652 40 54V38C40 37.7348 40.1054 37.4804 40.2929 37.2929C40.4804 37.1054 40.7348 37 41 37V37ZM58 45H42V53H58V45ZM58 43V39H42V43H58ZM52 49H56V51H52V49Z" fill="white"/>
</g>
<path d="M146.667 29C145.842 29 145.167 29.675 145.167 30.5C145.167 31.325 145.842 32 146.667 32C147.492 32 148.167 31.325 148.167 30.5C148.167 29.675 147.492 29 146.667 29ZM146.667 44C145.842 44 145.167 44.675 145.167 45.5C145.167 46.325 145.842 47 146.667 47C147.492 47 148.167 46.325 148.167 45.5C148.167 44.675 147.492 44 146.667 44ZM146.667 36.5C145.842 36.5 145.167 37.175 145.167 38C145.167 38.825 145.842 39.5 146.667 39.5C147.492 39.5 148.167 38.825 148.167 38C148.167 37.175 147.492 36.5 146.667 36.5Z" fill="#2E263D" fill-opacity="0.9"/>
<path d="M30.6605 92.5078V91.0909H39.1033V92.5078H35.6996V102H34.0589V92.5078H30.6605ZM39.9916 102V93.8182H41.531V95.1179H41.6162C41.7654 94.6776 42.0281 94.3313 42.4046 94.0792C42.7845 93.8235 43.2142 93.6957 43.6936 93.6957C43.7931 93.6957 43.9102 93.6992 44.0452 93.7063C44.1837 93.7134 44.292 93.7223 44.3701 93.733V95.2564C44.3062 95.2386 44.1926 95.2191 44.0292 95.1978C43.8659 95.1729 43.7025 95.1605 43.5392 95.1605C43.1627 95.1605 42.8271 95.2404 42.5324 95.4002C42.2412 95.5565 42.0104 95.7749 41.8399 96.0554C41.6695 96.3324 41.5843 96.6484 41.5843 97.0036V102H39.9916ZM48.0562 102.181C47.5377 102.181 47.069 102.085 46.6499 101.893C46.2309 101.698 45.8989 101.416 45.6539 101.047C45.4124 100.677 45.2916 100.224 45.2916 99.6882C45.2916 99.2266 45.3804 98.8466 45.558 98.5483C45.7355 98.25 45.9752 98.0138 46.2771 97.8398C46.5789 97.6658 46.9163 97.5344 47.2892 97.4457C47.662 97.3569 48.042 97.2894 48.4291 97.2433C48.9191 97.1864 49.3169 97.1403 49.6222 97.1048C49.9276 97.0657 50.1496 97.0036 50.2881 96.9183C50.4266 96.8331 50.4958 96.6946 50.4958 96.5028V96.4656C50.4958 96.0004 50.3644 95.6399 50.1017 95.3842C49.8424 95.1286 49.4553 95.0007 48.9404 95.0007C48.4042 95.0007 47.9816 95.1197 47.6727 95.3576C47.3673 95.592 47.156 95.853 47.0388 96.1406L45.542 95.7997C45.7195 95.3026 45.9788 94.9013 46.3197 94.5959C46.6642 94.2869 47.0601 94.0632 47.5075 93.9247C47.955 93.7827 48.4255 93.7116 48.9191 93.7116C49.2458 93.7116 49.5921 93.7507 49.9578 93.8288C50.3271 93.9034 50.6716 94.0419 50.9912 94.2443C51.3144 94.4467 51.5789 94.7362 51.7849 95.1126C51.9909 95.4854 52.0938 95.9702 52.0938 96.5668V102H50.5384V100.881H50.4745C50.3715 101.087 50.2171 101.29 50.0111 101.489C49.8051 101.687 49.5406 101.853 49.2174 101.984C48.8943 102.115 48.5072 102.181 48.0562 102.181ZM48.4024 100.903C48.8428 100.903 49.2192 100.816 49.5317 100.642C49.8477 100.468 50.0874 100.24 50.2508 99.9599C50.4177 99.6758 50.5012 99.3722 50.5012 99.049V97.9943C50.4443 98.0511 50.3343 98.1044 50.1709 98.1541C50.0111 98.2003 49.8282 98.2411 49.6222 98.2766C49.4163 98.3086 49.2156 98.3388 49.0203 98.3672C48.825 98.392 48.6617 98.4134 48.5303 98.4311C48.2213 98.4702 47.939 98.5359 47.6833 98.6282C47.4312 98.7205 47.2288 98.8537 47.0761 99.0277C46.9269 99.1982 46.8524 99.4254 46.8524 99.7095C46.8524 100.104 46.998 100.402 47.2892 100.604C47.5803 100.803 47.9514 100.903 48.4024 100.903ZM55.8079 97.142V102H54.2152V93.8182H55.744V95.1499H55.8452C56.0334 94.7166 56.3281 94.3686 56.7294 94.1058C57.1342 93.843 57.6438 93.7116 58.2582 93.7116C58.8157 93.7116 59.304 93.8288 59.723 94.0632C60.142 94.294 60.467 94.6385 60.6978 95.0966C60.9286 95.5547 61.044 96.1211 61.044 96.7958V102H59.4513V96.9876C59.4513 96.3945 59.2969 95.9311 58.9879 95.5973C58.679 95.2599 58.2546 95.0913 57.7148 95.0913C57.3455 95.0913 57.017 95.1712 56.7294 95.331C56.4453 95.4908 56.2198 95.7251 56.0529 96.0341C55.8896 96.3395 55.8079 96.7088 55.8079 97.142ZM69.3111 95.8157L67.8675 96.0714C67.8072 95.8867 67.7113 95.7109 67.5799 95.544C67.4521 95.3771 67.2781 95.2404 67.0579 95.1339C66.8377 95.0273 66.5625 94.9741 66.2322 94.9741C65.7813 94.9741 65.4048 95.0753 65.103 95.2777C64.8011 95.4766 64.6502 95.734 64.6502 96.0501C64.6502 96.3235 64.7514 96.5437 64.9538 96.7106C65.1563 96.8775 65.483 97.0142 65.9339 97.1207L67.2337 97.419C67.9865 97.593 68.5476 97.8612 68.9169 98.2234C69.2862 98.5856 69.4709 99.0561 69.4709 99.6349C69.4709 100.125 69.3288 100.562 69.0447 100.945C68.7642 101.325 68.3718 101.624 67.8675 101.84C67.3668 102.057 66.7862 102.165 66.1257 102.165C65.2095 102.165 64.462 101.97 63.8832 101.579C63.3043 101.185 62.9492 100.626 62.8178 99.9013L64.3572 99.6669C64.4531 100.068 64.6502 100.372 64.9485 100.578C65.2468 100.78 65.6357 100.881 66.1151 100.881C66.6371 100.881 67.0543 100.773 67.3668 100.556C67.6793 100.336 67.8356 100.068 67.8356 99.7521C67.8356 99.4964 67.7397 99.2816 67.5479 99.1076C67.3597 98.9336 67.0703 98.8022 66.6797 98.7134L65.2947 98.4098C64.5313 98.2358 63.9666 97.9588 63.6009 97.5788C63.2386 97.1989 63.0575 96.7177 63.0575 96.1353C63.0575 95.6523 63.1925 95.2298 63.4624 94.8675C63.7322 94.5053 64.1051 94.223 64.581 94.0206C65.0568 93.8146 65.6019 93.7116 66.2163 93.7116C67.1005 93.7116 67.7965 93.9034 68.3043 94.2869C68.8121 94.6669 69.1477 95.1765 69.3111 95.8157ZM73.6031 102.181C73.0846 102.181 72.6159 102.085 72.1968 101.893C71.7778 101.698 71.4458 101.416 71.2007 101.047C70.9593 100.677 70.8385 100.224 70.8385 99.6882C70.8385 99.2266 70.9273 98.8466 71.1048 98.5483C71.2824 98.25 71.5221 98.0138 71.824 97.8398C72.1258 97.6658 72.4632 97.5344 72.836 97.4457C73.2089 97.3569 73.5889 97.2894 73.9759 97.2433C74.466 97.1864 74.8637 97.1403 75.1691 97.1048C75.4745 97.0657 75.6965 97.0036 75.835 96.9183C75.9735 96.8331 76.0427 96.6946 76.0427 96.5028V96.4656C76.0427 96.0004 75.9113 95.6399 75.6485 95.3842C75.3893 95.1286 75.0022 95.0007 74.4873 95.0007C73.9511 95.0007 73.5285 95.1197 73.2195 95.3576C72.9142 95.592 72.7029 95.853 72.5857 96.1406L71.0889 95.7997C71.2664 95.3026 71.5257 94.9013 71.8666 94.5959C72.211 94.2869 72.607 94.0632 73.0544 93.9247C73.5019 93.7827 73.9724 93.7116 74.466 93.7116C74.7927 93.7116 75.1389 93.7507 75.5047 93.8288C75.874 93.9034 76.2185 94.0419 76.5381 94.2443C76.8612 94.4467 77.1258 94.7362 77.3318 95.1126C77.5377 95.4854 77.6407 95.9702 77.6407 96.5668V102H76.0853V100.881H76.0214C75.9184 101.087 75.7639 101.29 75.558 101.489C75.352 101.687 75.0874 101.853 74.7643 101.984C74.4411 102.115 74.0541 102.181 73.6031 102.181ZM73.9493 100.903C74.3896 100.903 74.7661 100.816 75.0786 100.642C75.3946 100.468 75.6343 100.24 75.7977 99.9599C75.9646 99.6758 76.048 99.3722 76.048 99.049V97.9943C75.9912 98.0511 75.8811 98.1044 75.7178 98.1541C75.558 98.2003 75.3751 98.2411 75.1691 98.2766C74.9632 98.3086 74.7625 98.3388 74.5672 98.3672C74.3719 98.392 74.2085 98.4134 74.0771 98.4311C73.7682 98.4702 73.4859 98.5359 73.2302 98.6282C72.9781 98.7205 72.7757 98.8537 72.623 99.0277C72.4738 99.1982 72.3992 99.4254 72.3992 99.7095C72.3992 100.104 72.5448 100.402 72.836 100.604C73.1272 100.803 73.4983 100.903 73.9493 100.903ZM83.2085 102.165C82.4165 102.165 81.7347 101.986 81.163 101.627C80.5948 101.265 80.158 100.766 79.8526 100.13C79.5472 99.4947 79.3945 98.7667 79.3945 97.9464C79.3945 97.1154 79.5508 96.3821 79.8633 95.7464C80.1758 95.1072 80.6161 94.6083 81.1843 94.2496C81.7525 93.891 82.4219 93.7116 83.1925 93.7116C83.8139 93.7116 84.3679 93.8271 84.8544 94.0579C85.3409 94.2852 85.7333 94.6048 86.0316 95.0167C86.3335 95.4286 86.5128 95.9098 86.5696 96.4602H85.0195C84.9343 96.0767 84.739 95.7464 84.4336 95.4695C84.1317 95.1925 83.7269 95.054 83.2191 95.054C82.7752 95.054 82.3864 95.1712 82.0526 95.4055C81.7223 95.6364 81.4648 95.9666 81.2802 96.3963C81.0955 96.8224 81.0032 97.3267 81.0032 97.9091C81.0032 98.5057 81.0938 99.0206 81.2749 99.4538C81.456 99.8871 81.7116 100.223 82.0419 100.461C82.3757 100.699 82.7681 100.817 83.2191 100.817C83.521 100.817 83.7944 100.762 84.0394 100.652C84.288 100.539 84.4957 100.377 84.6626 100.168C84.8331 99.9581 84.9521 99.706 85.0195 99.4112H86.5696C86.5128 99.9403 86.3406 100.413 86.0529 100.828C85.7653 101.244 85.38 101.57 84.897 101.808C84.4176 102.046 83.8548 102.165 83.2085 102.165ZM92.0921 93.8182V95.0966H87.623V93.8182H92.0921ZM88.8215 91.858H90.4142V99.5977C90.4142 99.9066 90.4603 100.139 90.5526 100.295C90.645 100.448 90.7639 100.553 90.9095 100.61C91.0587 100.663 91.2203 100.69 91.3943 100.69C91.5221 100.69 91.634 100.681 91.7298 100.663C91.8257 100.645 91.9003 100.631 91.9536 100.62L92.2412 101.936C92.1489 101.972 92.0175 102.007 91.847 102.043C91.6766 102.082 91.4635 102.103 91.2078 102.107C90.7888 102.114 90.3982 102.039 90.036 101.883C89.6737 101.727 89.3808 101.485 89.157 101.158C88.9333 100.832 88.8215 100.422 88.8215 99.9279V91.858ZM93.8539 102V93.8182H95.4466V102H93.8539ZM94.6582 92.5558C94.3812 92.5558 94.1433 92.4634 93.9444 92.2788C93.7491 92.0906 93.6515 91.8668 93.6515 91.6076C93.6515 91.3448 93.7491 91.1211 93.9444 90.9364C94.1433 90.7482 94.3812 90.6541 94.6582 90.6541C94.9352 90.6541 95.1713 90.7482 95.3667 90.9364C95.5655 91.1211 95.665 91.3448 95.665 91.6076C95.665 91.8668 95.5655 92.0906 95.3667 92.2788C95.1713 92.4634 94.9352 92.5558 94.6582 92.5558ZM101.036 102.165C100.269 102.165 99.5992 101.989 99.0274 101.638C98.4557 101.286 98.0118 100.794 97.6958 100.162C97.3797 99.5302 97.2217 98.7915 97.2217 97.9464C97.2217 97.0977 97.3797 96.3555 97.6958 95.7198C98.0118 95.0842 98.4557 94.5906 99.0274 94.239C99.5992 93.8874 100.269 93.7116 101.036 93.7116C101.803 93.7116 102.472 93.8874 103.044 94.239C103.616 94.5906 104.059 95.0842 104.375 95.7198C104.691 96.3555 104.85 97.0977 104.85 97.9464C104.85 98.7915 104.691 99.5302 104.375 100.162C104.059 100.794 103.616 101.286 103.044 101.638C102.472 101.989 101.803 102.165 101.036 102.165ZM101.041 100.828C101.538 100.828 101.95 100.697 102.277 100.434C102.603 100.171 102.845 99.8214 103.001 99.3846C103.161 98.9478 103.241 98.4666 103.241 97.9411C103.241 97.419 103.161 96.9396 103.001 96.5028C102.845 96.0625 102.603 95.7092 102.277 95.4428C101.95 95.1765 101.538 95.0433 101.041 95.0433C100.54 95.0433 100.125 95.1765 99.7945 95.4428C99.4678 95.7092 99.2245 96.0625 99.0647 96.5028C98.9085 96.9396 98.8303 97.419 98.8303 97.9411C98.8303 98.4666 98.9085 98.9478 99.0647 99.3846C99.2245 99.8214 99.4678 100.171 99.7945 100.434C100.125 100.697 100.54 100.828 101.041 100.828ZM108.22 97.142V102H106.627V93.8182H108.156V95.1499H108.257C108.445 94.7166 108.74 94.3686 109.142 94.1058C109.546 93.843 110.056 93.7116 110.67 93.7116C111.228 93.7116 111.716 93.8288 112.135 94.0632C112.554 94.294 112.879 94.6385 113.11 95.0966C113.341 95.5547 113.456 96.1211 113.456 96.7958V102H111.863V96.9876C111.863 96.3945 111.709 95.9311 111.4 95.5973C111.091 95.2599 110.667 95.0913 110.127 95.0913C109.758 95.0913 109.429 95.1712 109.142 95.331C108.857 95.4908 108.632 95.7251 108.465 96.0341C108.302 96.3395 108.22 96.7088 108.22 97.142ZM121.723 95.8157L120.28 96.0714C120.219 95.8867 120.123 95.7109 119.992 95.544C119.864 95.3771 119.69 95.2404 119.47 95.1339C119.25 95.0273 118.975 94.9741 118.644 94.9741C118.193 94.9741 117.817 95.0753 117.515 95.2777C117.213 95.4766 117.062 95.734 117.062 96.0501C117.062 96.3235 117.164 96.5437 117.366 96.7106C117.568 96.8775 117.895 97.0142 118.346 97.1207L119.646 97.419C120.399 97.593 120.96 97.8612 121.329 98.2234C121.698 98.5856 121.883 99.0561 121.883 99.6349C121.883 100.125 121.741 100.562 121.457 100.945C121.176 101.325 120.784 101.624 120.28 101.84C119.779 102.057 119.198 102.165 118.538 102.165C117.622 102.165 116.874 101.97 116.295 101.579C115.716 101.185 115.361 100.626 115.23 99.9013L116.769 99.6669C116.865 100.068 117.062 100.372 117.361 100.578C117.659 100.78 118.048 100.881 118.527 100.881C119.049 100.881 119.466 100.773 119.779 100.556C120.091 100.336 120.248 100.068 120.248 99.7521C120.248 99.4964 120.152 99.2816 119.96 99.1076C119.772 98.9336 119.482 98.8022 119.092 98.7134L117.707 98.4098C116.943 98.2358 116.379 97.9588 116.013 97.5788C115.651 97.1989 115.47 96.7177 115.47 96.1353C115.47 95.6523 115.605 95.2298 115.874 94.8675C116.144 94.5053 116.517 94.223 116.993 94.0206C117.469 93.8146 118.014 93.7116 118.628 93.7116C119.513 93.7116 120.209 93.9034 120.716 94.2869C121.224 94.6669 121.56 95.1765 121.723 95.8157Z" fill="#2E263D" fill-opacity="0.9"/>
<path d="M38.3011 122.545V140H35.6591V125.188H35.5568L31.3807 127.915V125.392L35.7358 122.545H38.3011ZM43.728 140.162C43.2621 140.162 42.8615 139.997 42.5263 139.668C42.1911 139.332 42.0234 138.929 42.0234 138.457C42.0234 137.991 42.1911 137.594 42.5263 137.264C42.8615 136.929 43.2621 136.761 43.728 136.761C44.1939 136.761 44.5945 136.929 44.9297 137.264C45.2649 137.594 45.4325 137.991 45.4325 138.457C45.4325 138.77 45.353 139.057 45.1939 139.318C45.0405 139.574 44.8359 139.778 44.5803 139.932C44.3246 140.085 44.0405 140.162 43.728 140.162ZM48.8118 140V138.091L54.718 131.972C55.3487 131.307 55.8686 130.724 56.2777 130.224C56.6925 129.719 57.0021 129.239 57.2067 128.784C57.4112 128.33 57.5135 127.847 57.5135 127.335C57.5135 126.756 57.3771 126.256 57.1044 125.835C56.8317 125.409 56.4595 125.082 55.9879 124.855C55.5163 124.622 54.9851 124.506 54.3942 124.506C53.7692 124.506 53.2237 124.634 52.7578 124.889C52.2919 125.145 51.9339 125.506 51.6839 125.972C51.4339 126.437 51.3089 126.983 51.3089 127.608H48.7947C48.7947 126.545 49.0391 125.616 49.5277 124.821C50.0163 124.026 50.6868 123.409 51.5391 122.972C52.3913 122.528 53.3601 122.307 54.4453 122.307C55.5419 122.307 56.5078 122.526 57.343 122.963C58.1839 123.395 58.8402 123.986 59.3118 124.736C59.7834 125.48 60.0192 126.321 60.0192 127.259C60.0192 127.906 59.897 128.54 59.6527 129.159C59.4141 129.778 58.9964 130.469 58.3999 131.23C57.8033 131.986 56.9737 132.903 55.9112 133.983L52.4425 137.614V137.741H60.3004V140H48.8118ZM65.9084 135.56L65.8913 132.449H66.3345L71.5504 126.909H74.6016L68.6527 133.216H68.2521L65.9084 135.56ZM63.5646 140V122.545H66.1129V140H63.5646ZM71.8317 140L67.1442 133.778L68.8999 131.997L74.9595 140H71.8317Z" fill="#2E263D" fill-opacity="0.9"/>
<path d="M88.3466 134.082V127.051H89.5398V134.082H88.3466ZM85.4276 131.163V129.97H92.4588V131.163H85.4276ZM98.5273 136.149C97.8241 136.149 97.1974 136.028 96.6469 135.787C96.1001 135.545 95.665 135.21 95.3419 134.78C95.0223 134.347 94.8483 133.844 94.8199 133.273H96.1622C96.1906 133.624 96.3113 133.928 96.5244 134.184C96.7375 134.436 97.0162 134.631 97.3607 134.77C97.7052 134.908 98.0869 134.977 98.5059 134.977C98.9747 134.977 99.3902 134.896 99.7524 134.732C100.115 134.569 100.399 134.342 100.605 134.05C100.811 133.759 100.914 133.422 100.914 133.038C100.914 132.637 100.814 132.284 100.615 131.978C100.416 131.669 100.125 131.428 99.7417 131.254C99.3582 131.08 98.8895 130.993 98.3355 130.993H97.4619V129.821H98.3355C98.7687 129.821 99.1487 129.743 99.4754 129.587C99.8057 129.43 100.063 129.21 100.248 128.926C100.436 128.642 100.53 128.308 100.53 127.925C100.53 127.555 100.448 127.234 100.285 126.961C100.122 126.687 99.8909 126.474 99.5926 126.321C99.2979 126.169 98.9498 126.092 98.5486 126.092C98.1721 126.092 97.817 126.162 97.4832 126.3C97.153 126.435 96.8831 126.632 96.6736 126.891C96.464 127.147 96.3504 127.456 96.3327 127.818H95.0542C95.0756 127.246 95.2478 126.746 95.5709 126.316C95.8941 125.883 96.3167 125.545 96.8387 125.304C97.3643 125.062 97.9413 124.942 98.5699 124.942C99.2446 124.942 99.8234 125.078 100.306 125.352C100.789 125.622 101.16 125.979 101.42 126.423C101.679 126.866 101.809 127.346 101.809 127.861C101.809 128.475 101.647 128.999 101.324 129.432C101.004 129.865 100.569 130.165 100.019 130.332V130.418C100.708 130.531 101.246 130.824 101.633 131.297C102.02 131.765 102.213 132.346 102.213 133.038C102.213 133.631 102.052 134.164 101.729 134.636C101.409 135.105 100.972 135.474 100.418 135.744C99.8643 136.014 99.2339 136.149 98.5273 136.149ZM107.886 136.149C107.155 136.149 106.508 136.02 105.947 135.76C105.39 135.498 104.955 135.137 104.642 134.679C104.33 134.217 104.175 133.692 104.179 133.102C104.175 132.641 104.266 132.214 104.451 131.824C104.635 131.43 104.887 131.101 105.207 130.838C105.53 130.572 105.891 130.403 106.288 130.332V130.268C105.766 130.134 105.351 129.841 105.042 129.39C104.733 128.935 104.58 128.418 104.584 127.839C104.58 127.286 104.72 126.79 105.005 126.353C105.289 125.917 105.679 125.572 106.176 125.32C106.677 125.068 107.247 124.942 107.886 124.942C108.518 124.942 109.083 125.068 109.58 125.32C110.077 125.572 110.468 125.917 110.752 126.353C111.04 126.79 111.185 127.286 111.189 127.839C111.185 128.418 111.027 128.935 110.715 129.39C110.406 129.841 109.996 130.134 109.484 130.268V130.332C109.878 130.403 110.234 130.572 110.55 130.838C110.866 131.101 111.118 131.43 111.306 131.824C111.494 132.214 111.59 132.641 111.594 133.102C111.59 133.692 111.43 134.217 111.114 134.679C110.802 135.137 110.367 135.498 109.809 135.76C109.255 136.02 108.614 136.149 107.886 136.149ZM107.886 134.977C108.38 134.977 108.806 134.897 109.165 134.738C109.523 134.578 109.8 134.352 109.996 134.061C110.191 133.77 110.29 133.429 110.294 133.038C110.29 132.626 110.184 132.262 109.974 131.946C109.765 131.63 109.479 131.382 109.117 131.201C108.758 131.02 108.348 130.929 107.886 130.929C107.421 130.929 107.006 131.02 106.64 131.201C106.278 131.382 105.992 131.63 105.782 131.946C105.576 132.262 105.475 132.626 105.479 133.038C105.475 133.429 105.569 133.77 105.761 134.061C105.956 134.352 106.235 134.578 106.597 134.738C106.959 134.897 107.389 134.977 107.886 134.977ZM107.886 129.8C108.277 129.8 108.623 129.722 108.925 129.565C109.23 129.409 109.47 129.191 109.644 128.91C109.818 128.63 109.907 128.301 109.91 127.925C109.907 127.555 109.82 127.234 109.649 126.961C109.479 126.684 109.243 126.471 108.941 126.321C108.639 126.169 108.288 126.092 107.886 126.092C107.478 126.092 107.121 126.169 106.816 126.321C106.51 126.471 106.274 126.684 106.107 126.961C105.94 127.234 105.859 127.555 105.862 127.925C105.859 128.301 105.942 128.63 106.112 128.91C106.286 129.191 106.526 129.409 106.832 129.565C107.137 129.722 107.489 129.8 107.886 129.8ZM119.196 133.955V133.379C119.196 132.982 119.278 132.618 119.441 132.287C119.608 131.953 119.85 131.687 120.166 131.488C120.485 131.286 120.872 131.185 121.327 131.185C121.789 131.185 122.176 131.286 122.488 131.488C122.801 131.687 123.037 131.953 123.197 132.287C123.356 132.618 123.436 132.982 123.436 133.379V133.955C123.436 134.352 123.355 134.718 123.191 135.052C123.031 135.382 122.794 135.648 122.477 135.851C122.165 136.05 121.781 136.149 121.327 136.149C120.865 136.149 120.476 136.05 120.16 135.851C119.844 135.648 119.605 135.382 119.441 135.052C119.278 134.718 119.196 134.352 119.196 133.955ZM120.283 133.379V133.955C120.283 134.285 120.361 134.581 120.517 134.844C120.673 135.103 120.943 135.233 121.327 135.233C121.7 135.233 121.963 135.103 122.115 134.844C122.271 134.581 122.35 134.285 122.35 133.955V133.379C122.35 133.049 122.275 132.754 122.126 132.495C121.977 132.232 121.71 132.101 121.327 132.101C120.954 132.101 120.686 132.232 120.523 132.495C120.363 132.754 120.283 133.049 120.283 133.379ZM113.763 127.712V127.136C113.763 126.739 113.845 126.375 114.008 126.044C114.175 125.711 114.416 125.444 114.732 125.245C115.052 125.043 115.439 124.942 115.894 124.942C116.355 124.942 116.742 125.043 117.055 125.245C117.367 125.444 117.604 125.711 117.763 126.044C117.923 126.375 118.003 126.739 118.003 127.136V127.712C118.003 128.109 117.921 128.475 117.758 128.809C117.598 129.139 117.36 129.406 117.044 129.608C116.732 129.807 116.348 129.906 115.894 129.906C115.432 129.906 115.043 129.807 114.727 129.608C114.411 129.406 114.171 129.139 114.008 128.809C113.845 128.475 113.763 128.109 113.763 127.712ZM114.85 127.136V127.712C114.85 128.042 114.928 128.338 115.084 128.601C115.24 128.86 115.51 128.99 115.894 128.99C116.267 128.99 116.529 128.86 116.682 128.601C116.838 128.338 116.916 128.042 116.916 127.712V127.136C116.916 126.806 116.842 126.511 116.693 126.252C116.544 125.989 116.277 125.858 115.894 125.858C115.521 125.858 115.253 125.989 115.089 126.252C114.93 126.511 114.85 126.806 114.85 127.136ZM114.168 136L121.668 125.091H122.882L115.382 136H114.168Z" fill="#56CA00"/>
<path d="M34.0625 169H31.1449V159.545H34.1918C35.1089 159.545 35.8937 159.735 36.5462 160.113C37.1986 160.489 37.6987 161.029 38.0465 161.734C38.3943 162.435 38.5682 163.276 38.5682 164.254C38.5682 165.239 38.3928 166.087 38.0419 166.798C37.6911 167.506 37.1802 168.051 36.5092 168.432C35.8383 168.811 35.0227 169 34.0625 169ZM32.2898 167.984H33.9886C34.7704 167.984 35.4182 167.834 35.9322 167.532C36.4461 167.23 36.8293 166.801 37.0817 166.244C37.334 165.687 37.4602 165.024 37.4602 164.254C37.4602 163.491 37.3356 162.834 37.0863 162.283C36.837 161.729 36.4646 161.304 35.9691 161.009C35.4736 160.71 34.8565 160.561 34.1179 160.561H32.2898V167.984ZM42.4276 169.166C41.9782 169.166 41.5704 169.082 41.2042 168.912C40.8379 168.74 40.5471 168.492 40.3317 168.169C40.1162 167.843 40.0085 167.449 40.0085 166.987C40.0085 166.581 40.0885 166.252 40.2486 165.999C40.4086 165.744 40.6225 165.544 40.8903 165.399C41.158 165.254 41.4535 165.147 41.7766 165.076C42.1029 165.002 42.4306 164.944 42.7599 164.901C43.1908 164.845 43.5401 164.804 43.8079 164.776C44.0787 164.745 44.2757 164.694 44.3988 164.624C44.525 164.553 44.5881 164.43 44.5881 164.254V164.217C44.5881 163.762 44.4634 163.408 44.2141 163.156C43.9679 162.903 43.594 162.777 43.0923 162.777C42.5722 162.777 42.1644 162.891 41.869 163.119C41.5735 163.346 41.3658 163.589 41.2457 163.848L40.2116 163.479C40.3963 163.048 40.6425 162.712 40.9503 162.472C41.2611 162.229 41.5997 162.06 41.9659 161.964C42.3352 161.866 42.6984 161.817 43.0554 161.817C43.2831 161.817 43.5447 161.844 43.8402 161.9C44.1387 161.952 44.4265 162.061 44.7035 162.228C44.9835 162.394 45.2159 162.645 45.4006 162.98C45.5852 163.316 45.6776 163.765 45.6776 164.328V169H44.5881V168.04H44.5327C44.4588 168.194 44.3357 168.358 44.1634 168.534C43.991 168.709 43.7617 168.858 43.4755 168.982C43.1893 169.105 42.84 169.166 42.4276 169.166ZM42.5938 168.188C43.0246 168.188 43.3878 168.103 43.6832 167.934C43.9818 167.764 44.2064 167.546 44.3572 167.278C44.5111 167.01 44.5881 166.729 44.5881 166.433V165.436C44.5419 165.491 44.4403 165.542 44.2834 165.588C44.1295 165.632 43.951 165.67 43.7479 165.704C43.5478 165.735 43.3524 165.762 43.1616 165.787C42.9738 165.808 42.8215 165.827 42.7045 165.842C42.4214 165.879 42.1567 165.939 41.9105 166.022C41.6674 166.102 41.4704 166.224 41.3196 166.387C41.1719 166.547 41.098 166.766 41.098 167.043C41.098 167.421 41.238 167.707 41.5181 167.901C41.8013 168.092 42.1598 168.188 42.5938 168.188ZM47.6661 169V161.909H48.7556V169H47.6661ZM48.2201 160.727C48.0077 160.727 47.8246 160.655 47.6707 160.51C47.5199 160.366 47.4445 160.192 47.4445 159.989C47.4445 159.786 47.5199 159.612 47.6707 159.467C47.8246 159.322 48.0077 159.25 48.2201 159.25C48.4324 159.25 48.614 159.322 48.7648 159.467C48.9187 159.612 48.9956 159.786 48.9956 159.989C48.9956 160.192 48.9187 160.366 48.7648 160.51C48.614 160.655 48.4324 160.727 48.2201 160.727ZM51.8406 159.545V169H50.7511V159.545H51.8406ZM54.5377 171.659C54.3531 171.659 54.1884 171.644 54.0438 171.613C53.8991 171.585 53.7991 171.558 53.7437 171.53L54.0207 170.57C54.2854 170.637 54.5193 170.662 54.7224 170.643C54.9255 170.625 55.1056 170.534 55.2625 170.371C55.4226 170.211 55.5687 169.951 55.7011 169.591L55.9042 169.037L53.282 161.909H54.4639L56.4213 167.56H56.4951L58.4525 161.909H59.6343L56.6244 170.034C56.489 170.4 56.3212 170.703 56.1212 170.944C55.9211 171.187 55.6888 171.367 55.4241 171.484C55.1625 171.601 54.867 171.659 54.5377 171.659ZM64.3593 160.561V159.545H71.4502V160.561H68.4772V169H67.3323V160.561H64.3593ZM72.3331 169V161.909H73.3857V162.98H73.4595C73.5888 162.629 73.8227 162.345 74.1612 162.126C74.4998 161.908 74.8814 161.798 75.3061 161.798C75.3861 161.798 75.4862 161.8 75.6062 161.803C75.7262 161.806 75.817 161.811 75.8786 161.817V162.925C75.8416 162.915 75.757 162.902 75.6246 162.883C75.4954 162.862 75.3584 162.851 75.2138 162.851C74.8691 162.851 74.5613 162.923 74.2905 163.068C74.0227 163.209 73.8104 163.406 73.6534 163.659C73.4995 163.908 73.4226 164.193 73.4226 164.513V169H72.3331ZM79.2567 169.166C78.8073 169.166 78.3995 169.082 78.0333 168.912C77.6671 168.74 77.3762 168.492 77.1608 168.169C76.9453 167.843 76.8376 167.449 76.8376 166.987C76.8376 166.581 76.9176 166.252 77.0777 165.999C77.2377 165.744 77.4516 165.544 77.7194 165.399C77.9871 165.254 78.2826 165.147 78.6057 165.076C78.932 165.002 79.2597 164.944 79.589 164.901C80.0199 164.845 80.3692 164.804 80.637 164.776C80.9078 164.745 81.1048 164.694 81.2279 164.624C81.3541 164.553 81.4172 164.43 81.4172 164.254V164.217C81.4172 163.762 81.2925 163.408 81.0432 163.156C80.797 162.903 80.4231 162.777 79.9214 162.777C79.4013 162.777 78.9935 162.891 78.6981 163.119C78.4026 163.346 78.1949 163.589 78.0748 163.848L77.0407 163.479C77.2254 163.048 77.4716 162.712 77.7794 162.472C78.0902 162.229 78.4288 162.06 78.795 161.964C79.1643 161.866 79.5275 161.817 79.8845 161.817C80.1122 161.817 80.3738 161.844 80.6693 161.9C80.9678 161.952 81.2556 162.061 81.5326 162.228C81.8126 162.394 82.045 162.645 82.2297 162.98C82.4143 163.316 82.5067 163.765 82.5067 164.328V169H81.4172V168.04H81.3618C81.2879 168.194 81.1648 168.358 80.9925 168.534C80.8201 168.709 80.5908 168.858 80.3046 168.982C80.0184 169.105 79.6691 169.166 79.2567 169.166ZM79.4229 168.188C79.8537 168.188 80.2169 168.103 80.5123 167.934C80.8109 167.764 81.0355 167.546 81.1863 167.278C81.3402 167.01 81.4172 166.729 81.4172 166.433V165.436C81.371 165.491 81.2694 165.542 81.1125 165.588C80.9586 165.632 80.7801 165.67 80.577 165.704C80.3769 165.735 80.1815 165.762 79.9907 165.787C79.8029 165.808 79.6506 165.827 79.5336 165.842C79.2505 165.879 78.9858 165.939 78.7396 166.022C78.4965 166.102 78.2995 166.224 78.1487 166.387C78.001 166.547 77.9271 166.766 77.9271 167.043C77.9271 167.421 78.0671 167.707 78.3472 167.901C78.6304 168.092 78.9889 168.188 79.4229 168.188ZM85.5847 164.734V169H84.4952V161.909H85.5478V163.017H85.6401C85.8063 162.657 86.0587 162.368 86.3972 162.149C86.7357 161.928 87.1728 161.817 87.7083 161.817C88.1884 161.817 88.6085 161.915 88.9686 162.112C89.3287 162.306 89.6087 162.602 89.8088 162.999C90.0088 163.393 90.1088 163.891 90.1088 164.494V169H89.0194V164.568C89.0194 164.011 88.8747 163.577 88.5854 163.266C88.2961 162.952 87.8991 162.795 87.3944 162.795C87.0466 162.795 86.7357 162.871 86.4618 163.022C86.191 163.172 85.9771 163.393 85.8201 163.682C85.6632 163.971 85.5847 164.322 85.5847 164.734ZM97.1224 163.497L96.1437 163.774C96.0822 163.611 95.9914 163.453 95.8714 163.299C95.7544 163.142 95.5944 163.012 95.3912 162.911C95.1881 162.809 94.9281 162.759 94.6111 162.759C94.1771 162.759 93.8155 162.859 93.5262 163.059C93.24 163.256 93.0969 163.506 93.0969 163.811C93.0969 164.082 93.1953 164.296 93.3923 164.453C93.5893 164.61 93.897 164.741 94.3156 164.845L95.3682 165.104C96.0022 165.258 96.4746 165.493 96.7854 165.81C97.0963 166.124 97.2517 166.529 97.2517 167.024C97.2517 167.43 97.1347 167.794 96.9008 168.114C96.67 168.434 96.3469 168.686 95.9314 168.871C95.5159 169.055 95.0327 169.148 94.4818 169.148C93.7586 169.148 93.1599 168.991 92.686 168.677C92.212 168.363 91.912 167.904 91.7858 167.301L92.8199 167.043C92.9184 167.424 93.1046 167.71 93.3785 167.901C93.6555 168.092 94.0171 168.188 94.4633 168.188C94.9711 168.188 95.3743 168.08 95.6729 167.864C95.9745 167.646 96.1253 167.384 96.1253 167.08C96.1253 166.833 96.0391 166.627 95.8667 166.461C95.6944 166.292 95.4297 166.165 95.0727 166.082L93.8909 165.805C93.2415 165.652 92.7645 165.413 92.4598 165.09C92.1582 164.764 92.0074 164.356 92.0074 163.866C92.0074 163.466 92.1197 163.112 92.3444 162.805C92.5721 162.497 92.8814 162.255 93.2723 162.08C93.6662 161.904 94.1125 161.817 94.6111 161.817C95.3128 161.817 95.8637 161.971 96.2638 162.278C96.6669 162.586 96.9532 162.992 97.1224 163.497ZM100.978 169.166C100.529 169.166 100.121 169.082 99.755 168.912C99.3887 168.74 99.0979 168.492 98.8825 168.169C98.667 167.843 98.5593 167.449 98.5593 166.987C98.5593 166.581 98.6393 166.252 98.7994 165.999C98.9594 165.744 99.1733 165.544 99.4411 165.399C99.7088 165.254 100.004 165.147 100.327 165.076C100.654 165.002 100.981 164.944 101.311 164.901C101.742 164.845 102.091 164.804 102.359 164.776C102.629 164.745 102.826 164.694 102.95 164.624C103.076 164.553 103.139 164.43 103.139 164.254V164.217C103.139 163.762 103.014 163.408 102.765 163.156C102.519 162.903 102.145 162.777 101.643 162.777C101.123 162.777 100.715 162.891 100.42 163.119C100.124 163.346 99.9165 163.589 99.7965 163.848L98.7624 163.479C98.9471 163.048 99.1933 162.712 99.5011 162.472C99.8119 162.229 100.15 162.06 100.517 161.964C100.886 161.866 101.249 161.817 101.606 161.817C101.834 161.817 102.096 161.844 102.391 161.9C102.69 161.952 102.977 162.061 103.254 162.228C103.534 162.394 103.767 162.645 103.951 162.98C104.136 163.316 104.228 163.765 104.228 164.328V169H103.139V168.04H103.083C103.01 168.194 102.886 168.358 102.714 168.534C102.542 168.709 102.313 168.858 102.026 168.982C101.74 169.105 101.391 169.166 100.978 169.166ZM101.145 168.188C101.575 168.188 101.939 168.103 102.234 167.934C102.533 167.764 102.757 167.546 102.908 167.278C103.062 167.01 103.139 166.729 103.139 166.433V165.436C103.093 165.491 102.991 165.542 102.834 165.588C102.68 165.632 102.502 165.67 102.299 165.704C102.099 165.735 101.903 165.762 101.712 165.787C101.525 165.808 101.372 165.827 101.255 165.842C100.972 165.879 100.708 165.939 100.461 166.022C100.218 166.102 100.021 166.224 99.8704 166.387C99.7227 166.547 99.6488 166.766 99.6488 167.043C99.6488 167.421 99.7888 167.707 100.069 167.901C100.352 168.092 100.711 168.188 101.145 168.188ZM109.098 169.148C108.433 169.148 107.86 168.991 107.38 168.677C106.9 168.363 106.531 167.931 106.272 167.38C106.014 166.829 105.884 166.199 105.884 165.491C105.884 164.771 106.017 164.136 106.282 163.585C106.549 163.031 106.922 162.598 107.399 162.288C107.879 161.974 108.439 161.817 109.079 161.817C109.578 161.817 110.027 161.909 110.427 162.094C110.827 162.278 111.155 162.537 111.41 162.869C111.666 163.202 111.824 163.589 111.886 164.033H110.796C110.713 163.71 110.529 163.423 110.242 163.174C109.959 162.922 109.578 162.795 109.098 162.795C108.673 162.795 108.3 162.906 107.98 163.128C107.663 163.346 107.416 163.656 107.237 164.056C107.062 164.453 106.974 164.919 106.974 165.455C106.974 166.002 107.06 166.479 107.233 166.886C107.408 167.292 107.654 167.607 107.971 167.832C108.291 168.057 108.667 168.169 109.098 168.169C109.381 168.169 109.638 168.12 109.869 168.021C110.099 167.923 110.295 167.781 110.455 167.597C110.615 167.412 110.729 167.19 110.796 166.932H111.886C111.824 167.35 111.672 167.727 111.429 168.063C111.189 168.395 110.87 168.66 110.473 168.857C110.079 169.051 109.621 169.148 109.098 169.148ZM116.562 161.909V162.832H112.888V161.909H116.562ZM113.959 160.21H115.048V166.969C115.048 167.277 115.093 167.507 115.182 167.661C115.274 167.812 115.391 167.914 115.533 167.966C115.678 168.015 115.83 168.04 115.99 168.04C116.11 168.04 116.208 168.034 116.285 168.021C116.362 168.006 116.424 167.994 116.47 167.984L116.692 168.963C116.618 168.991 116.515 169.018 116.382 169.046C116.25 169.077 116.082 169.092 115.879 169.092C115.571 169.092 115.27 169.026 114.974 168.894C114.682 168.761 114.439 168.56 114.245 168.289C114.054 168.018 113.959 167.677 113.959 167.264V160.21ZM118.201 169V161.909H119.291V169H118.201ZM118.755 160.727C118.543 160.727 118.36 160.655 118.206 160.51C118.055 160.366 117.98 160.192 117.98 159.989C117.98 159.786 118.055 159.612 118.206 159.467C118.36 159.322 118.543 159.25 118.755 159.25C118.968 159.25 119.149 159.322 119.3 159.467C119.454 159.612 119.531 159.786 119.531 159.989C119.531 160.192 119.454 160.366 119.3 160.51C119.149 160.655 118.968 160.727 118.755 160.727ZM124.167 169.148C123.527 169.148 122.965 168.995 122.482 168.691C122.002 168.386 121.626 167.96 121.355 167.412C121.088 166.864 120.954 166.224 120.954 165.491C120.954 164.753 121.088 164.108 121.355 163.557C121.626 163.006 122.002 162.578 122.482 162.274C122.965 161.969 123.527 161.817 124.167 161.817C124.807 161.817 125.367 161.969 125.847 162.274C126.33 162.578 126.706 163.006 126.974 163.557C127.245 164.108 127.38 164.753 127.38 165.491C127.38 166.224 127.245 166.864 126.974 167.412C126.706 167.96 126.33 168.386 125.847 168.691C125.367 168.995 124.807 169.148 124.167 169.148ZM124.167 168.169C124.653 168.169 125.053 168.044 125.367 167.795C125.681 167.546 125.913 167.218 126.064 166.812C126.215 166.406 126.29 165.965 126.29 165.491C126.29 165.018 126.215 164.576 126.064 164.167C125.913 163.757 125.681 163.426 125.367 163.174C125.053 162.922 124.653 162.795 124.167 162.795C123.681 162.795 123.281 162.922 122.967 163.174C122.653 163.426 122.42 163.757 122.27 164.167C122.119 164.576 122.043 165.018 122.043 165.491C122.043 165.965 122.119 166.406 122.27 166.812C122.42 167.218 122.653 167.546 122.967 167.795C123.281 168.044 123.681 168.169 124.167 168.169ZM130.133 164.734V169H129.043V161.909H130.096V163.017H130.188C130.354 162.657 130.607 162.368 130.945 162.149C131.284 161.928 131.721 161.817 132.256 161.817C132.736 161.817 133.156 161.915 133.516 162.112C133.877 162.306 134.157 162.602 134.357 162.999C134.557 163.393 134.657 163.891 134.657 164.494V169H133.567V164.568C133.567 164.011 133.423 163.577 133.133 163.266C132.844 162.952 132.447 162.795 131.942 162.795C131.594 162.795 131.284 162.871 131.01 163.022C130.739 163.172 130.525 163.393 130.368 163.682C130.211 163.971 130.133 164.322 130.133 164.734ZM141.67 163.497L140.692 163.774C140.63 163.611 140.539 163.453 140.419 163.299C140.302 163.142 140.142 163.012 139.939 162.911C139.736 162.809 139.476 162.759 139.159 162.759C138.725 162.759 138.363 162.859 138.074 163.059C137.788 163.256 137.645 163.506 137.645 163.811C137.645 164.082 137.743 164.296 137.94 164.453C138.137 164.61 138.445 164.741 138.863 164.845L139.916 165.104C140.55 165.258 141.022 165.493 141.333 165.81C141.644 166.124 141.8 166.529 141.8 167.024C141.8 167.43 141.683 167.794 141.449 168.114C141.218 168.434 140.895 168.686 140.479 168.871C140.064 169.055 139.581 169.148 139.03 169.148C138.306 169.148 137.708 168.991 137.234 168.677C136.76 168.363 136.46 167.904 136.334 167.301L137.368 167.043C137.466 167.424 137.652 167.71 137.926 167.901C138.203 168.092 138.565 168.188 139.011 168.188C139.519 168.188 139.922 168.08 140.221 167.864C140.522 167.646 140.673 167.384 140.673 167.08C140.673 166.833 140.587 166.627 140.415 166.461C140.242 166.292 139.978 166.165 139.621 166.082L138.439 165.805C137.789 165.652 137.312 165.413 137.008 165.09C136.706 164.764 136.555 164.356 136.555 163.866C136.555 163.466 136.668 163.112 136.892 162.805C137.12 162.497 137.429 162.255 137.82 162.08C138.214 161.904 138.66 161.817 139.159 161.817C139.861 161.817 140.412 161.971 140.812 162.278C141.215 162.586 141.501 162.992 141.67 163.497Z" fill="#2E263D" fill-opacity="0.7"/>
</g>
<defs>
<filter id="filter0_d_8003_4419" x="0" y="0" width="188.667" height="208" filterUnits="userSpaceOnUse" color-interpolation-filters="sRGB">
<feFlood flood-opacity="0" result="BackgroundImageFix"/>
<feColorMatrix in="SourceAlpha" type="matrix" values="0 0 0 0 0 0 0 0 0 0 0 0 0 0 0 0 0 0 127 0" result="hardAlpha"/>
<feOffset dy="4"/>
<feGaussianBlur stdDeviation="5"/>
<feComposite in2="hardAlpha" operator="out"/>
<feColorMatrix type="matrix" values="0 0 0 0 0.180392 0 0 0 0 0.14902 0 0 0 0 0.239216 0 0 0 0.2 0"/>
<feBlend mode="normal" in2="BackgroundImageFix" result="effect1_dropShadow_8003_4419"/>
<feBlend mode="normal" in="SourceGraphic" in2="effect1_dropShadow_8003_4419" result="shape"/>
</filter>
<filter id="filter1_d_8003_4419" x="26" y="24" width="48" height="48" filterUnits="userSpaceOnUse" color-interpolation-filters="sRGB">
<feFlood flood-opacity="0" result="BackgroundImageFix"/>
<feColorMatrix in="SourceAlpha" type="matrix" values="0 0 0 0 0 0 0 0 0 0 0 0 0 0 0 0 0 0 127 0" result="hardAlpha"/>
<feOffset dy="2"/>
<feGaussianBlur stdDeviation="2"/>
<feColorMatrix type="matrix" values="0 0 0 0 0.180392 0 0 0 0 0.14902 0 0 0 0 0.239216 0 0 0 0.16 0"/>
<feBlend mode="normal" in2="BackgroundImageFix" result="effect1_dropShadow_8003_4419"/>
<feBlend mode="normal" in="SourceGraphic" in2="effect1_dropShadow_8003_4419" result="shape"/>
</filter>
</defs>
</svg>
